# KEYSTONE P2-A-901 Rev A massing model (feet; origin = SW building corner; x east, y north, z up). Massing only.
mtllib P2-A-901_RevA_massing.mtl
o exterior_portal_pier_w
v 91.000 0.000 36.000
v 91.000 50.000 36.000
v 91.000 0.000 30.000
v 91.000 50.000 30.000
v 99.000 0.000 36.000
v 99.000 50.000 36.000
v 99.000 0.000 30.000
v 99.000 50.000 30.000
usemtl m_D8CCB0
f 2 6 8 4
usemtl m_D8CCB0
f 1 3 7 5
usemtl m_D8CCB0
f 1 5 6 2
usemtl m_D8CCB0
f 7 3 4 8
usemtl m_D8CCB0
f 3 1 2 4
usemtl m_D8CCB0
f 5 7 8 6
o exterior_portal_pier_e
v 127.000 0.000 36.000
v 127.000 50.000 36.000
v 127.000 0.000 30.000
v 127.000 50.000 30.000
v 135.000 0.000 36.000
v 135.000 50.000 36.000
v 135.000 0.000 30.000
v 135.000 50.000 30.000
usemtl m_D8CCB0
f 10 14 16 12
usemtl m_D8CCB0
f 9 11 15 13
usemtl m_D8CCB0
f 9 13 14 10
usemtl m_D8CCB0
f 15 11 12 16
usemtl m_D8CCB0
f 11 9 10 12
usemtl m_D8CCB0
f 13 15 16 14
o exterior_portal_spandrel
v 99.000 22.100 36.000
v 99.000 50.000 36.000
v 99.000 22.100 30.000
v 99.000 50.000 30.000
v 127.000 22.100 36.000
v 127.000 50.000 36.000
v 127.000 22.100 30.000
v 127.000 50.000 30.000
usemtl m_D8CCB0
f 18 22 24 20
v 99.000 22.100 36.000
v 99.500 25.252 36.000
v 100.000 26.517 36.000
v 100.500 27.459 36.000
v 101.000 28.229 36.000
v 101.500 28.887 36.000
v 102.000 29.461 36.000
v 102.500 29.971 36.000
v 103.000 30.428 36.000
v 103.500 30.841 36.000
v 104.000 31.215 36.000
v 104.500 31.556 36.000
v 105.000 31.866 36.000
v 105.500 32.148 36.000
v 106.000 32.406 36.000
v 106.500 32.640 36.000
v 107.000 32.852 36.000
v 107.500 33.043 36.000
v 108.000 33.215 36.000
v 108.500 33.369 36.000
v 109.000 33.504 36.000
v 109.500 33.622 36.000
v 110.000 33.724 36.000
v 110.500 33.809 36.000
v 111.000 33.878 36.000
v 111.500 33.931 36.000
v 112.000 33.970 36.000
v 112.500 33.992 36.000
v 113.000 34.000 36.000
v 113.500 33.992 36.000
v 114.000 33.970 36.000
v 114.500 33.931 36.000
v 115.000 33.878 36.000
v 115.500 33.809 36.000
v 116.000 33.724 36.000
v 116.500 33.622 36.000
v 117.000 33.504 36.000
v 117.500 33.369 36.000
v 118.000 33.215 36.000
v 118.500 33.043 36.000
v 119.000 32.852 36.000
v 119.500 32.640 36.000
v 120.000 32.406 36.000
v 120.500 32.148 36.000
v 121.000 31.866 36.000
v 121.500 31.556 36.000
v 122.000 31.215 36.000
v 122.500 30.841 36.000
v 123.000 30.428 36.000
v 123.500 29.971 36.000
v 124.000 29.461 36.000
v 124.500 28.887 36.000
v 125.000 28.229 36.000
v 125.500 27.459 36.000
v 126.000 26.517 36.000
v 126.500 25.252 36.000
v 127.000 22.100 36.000
v 127.000 50.000 36.000
v 99.000 50.000 36.000
usemtl m_D8CCB0
f 25 26 27 28 29 30 31 32 33 34 35 36 37 38 39 40 41 42 43 44 45 46 47 48 49 50 51 52 53 54 55 56 57 58 59 60 61 62 63 64 65 66 67 68 69 70 71 72 73 74 75 76 77 78 79 80 81 82 83
v 127.000 22.100 30.000
v 126.500 25.252 30.000
v 126.000 26.517 30.000
v 125.500 27.459 30.000
v 125.000 28.229 30.000
v 124.500 28.887 30.000
v 124.000 29.461 30.000
v 123.500 29.971 30.000
v 123.000 30.428 30.000
v 122.500 30.841 30.000
v 122.000 31.215 30.000
v 121.500 31.556 30.000
v 121.000 31.866 30.000
v 120.500 32.148 30.000
v 120.000 32.406 30.000
v 119.500 32.640 30.000
v 119.000 32.852 30.000
v 118.500 33.043 30.000
v 118.000 33.215 30.000
v 117.500 33.369 30.000
v 117.000 33.504 30.000
v 116.500 33.622 30.000
v 116.000 33.724 30.000
v 115.500 33.809 30.000
v 115.000 33.878 30.000
v 114.500 33.931 30.000
v 114.000 33.970 30.000
v 113.500 33.992 30.000
v 113.000 34.000 30.000
v 112.500 33.992 30.000
v 112.000 33.970 30.000
v 111.500 33.931 30.000
v 111.000 33.878 30.000
v 110.500 33.809 30.000
v 110.000 33.724 30.000
v 109.500 33.622 30.000
v 109.000 33.504 30.000
v 108.500 33.369 30.000
v 108.000 33.215 30.000
v 107.500 33.043 30.000
v 107.000 32.852 30.000
v 106.500 32.640 30.000
v 106.000 32.406 30.000
v 105.500 32.148 30.000
v 105.000 31.866 30.000
v 104.500 31.556 30.000
v 104.000 31.215 30.000
v 103.500 30.841 30.000
v 103.000 30.428 30.000
v 102.500 29.971 30.000
v 102.000 29.461 30.000
v 101.500 28.887 30.000
v 101.000 28.229 30.000
v 100.500 27.459 30.000
v 100.000 26.517 30.000
v 99.500 25.252 30.000
v 99.000 22.100 30.000
v 99.000 50.000 30.000
v 127.000 50.000 30.000
usemtl m_D8CCB0
f 84 85 86 87 88 89 90 91 92 93 94 95 96 97 98 99 100 101 102 103 104 105 106 107 108 109 110 111 112 113 114 115 116 117 118 119 120 121 122 123 124 125 126 127 128 129 130 131 132 133 134 135 136 137 138 139 140 141 142
o exterior_building_ring
v 0.000 0.000 0.000
v 0.000 32.750 0.000
v 0.000 0.000 -252.000
v 0.000 32.750 -252.000
v 210.000 0.000 0.000
v 210.000 32.750 0.000
v 210.000 0.000 -252.000
v 210.000 32.750 -252.000
usemtl m_E4E4E4
f 144 148 150 146
usemtl m_E4E4E4
f 143 145 149 147
usemtl m_E4E4E4
f 143 147 148 144
usemtl m_E4E4E4
f 149 145 146 150
usemtl m_E4E4E4
f 145 143 144 146
usemtl m_E4E4E4
f 147 149 150 148
o exterior_ne_stair_tower
v 185.917 0.000 -252.000
v 185.917 32.750 -252.000
v 185.917 0.000 -258.667
v 185.917 32.750 -258.667
v 210.000 0.000 -252.000
v 210.000 32.750 -252.000
v 210.000 0.000 -258.667
v 210.000 32.750 -258.667
usemtl m_E4E4E4
f 152 156 158 154
usemtl m_E4E4E4
f 151 153 157 155
usemtl m_E4E4E4
f 151 155 156 152
usemtl m_E4E4E4
f 157 153 154 158
usemtl m_E4E4E4
f 153 151 152 154
usemtl m_E4E4E4
f 155 157 158 156
o exterior_arena_volume
v 49.000 32.750 -34.000
v 49.000 42.000 -34.000
v 49.000 32.750 -246.000
v 49.000 42.000 -246.000
v 210.000 32.750 -34.000
v 210.000 42.000 -34.000
v 210.000 32.750 -246.000
v 210.000 42.000 -246.000
usemtl m_CDCDCD
f 160 164 166 162
usemtl m_CDCDCD
f 159 161 165 163
usemtl m_CDCDCD
f 159 163 164 160
usemtl m_CDCDCD
f 165 161 162 166
usemtl m_CDCDCD
f 161 159 160 162
usemtl m_CDCDCD
f 163 165 166 164
o exterior_ground_walk_0
v 99.000 0.000 30.000
v 127.000 0.000 30.000
v 127.000 0.000 0.000
v 99.000 0.000 0.000
usemtl m_B5654A
f 167 168 169 170
o cutaway_portal_pier_w
v 91.000 0.000 36.000
v 91.000 50.000 36.000
v 91.000 0.000 30.000
v 91.000 50.000 30.000
v 99.000 0.000 36.000
v 99.000 50.000 36.000
v 99.000 0.000 30.000
v 99.000 50.000 30.000
usemtl m_D8CCB0
f 172 176 178 174
usemtl m_D8CCB0
f 171 173 177 175
usemtl m_D8CCB0
f 171 175 176 172
usemtl m_D8CCB0
f 177 173 174 178
usemtl m_D8CCB0
f 173 171 172 174
usemtl m_D8CCB0
f 175 177 178 176
o cutaway_portal_pier_e
v 127.000 0.000 36.000
v 127.000 50.000 36.000
v 127.000 0.000 30.000
v 127.000 50.000 30.000
v 135.000 0.000 36.000
v 135.000 50.000 36.000
v 135.000 0.000 30.000
v 135.000 50.000 30.000
usemtl m_D8CCB0
f 180 184 186 182
usemtl m_D8CCB0
f 179 181 185 183
usemtl m_D8CCB0
f 179 183 184 180
usemtl m_D8CCB0
f 185 181 182 186
usemtl m_D8CCB0
f 181 179 180 182
usemtl m_D8CCB0
f 183 185 186 184
o cutaway_portal_spandrel
v 99.000 22.100 36.000
v 99.000 50.000 36.000
v 99.000 22.100 30.000
v 99.000 50.000 30.000
v 127.000 22.100 36.000
v 127.000 50.000 36.000
v 127.000 22.100 30.000
v 127.000 50.000 30.000
usemtl m_D8CCB0
f 188 192 194 190
v 99.000 22.100 36.000
v 99.500 25.252 36.000
v 100.000 26.517 36.000
v 100.500 27.459 36.000
v 101.000 28.229 36.000
v 101.500 28.887 36.000
v 102.000 29.461 36.000
v 102.500 29.971 36.000
v 103.000 30.428 36.000
v 103.500 30.841 36.000
v 104.000 31.215 36.000
v 104.500 31.556 36.000
v 105.000 31.866 36.000
v 105.500 32.148 36.000
v 106.000 32.406 36.000
v 106.500 32.640 36.000
v 107.000 32.852 36.000
v 107.500 33.043 36.000
v 108.000 33.215 36.000
v 108.500 33.369 36.000
v 109.000 33.504 36.000
v 109.500 33.622 36.000
v 110.000 33.724 36.000
v 110.500 33.809 36.000
v 111.000 33.878 36.000
v 111.500 33.931 36.000
v 112.000 33.970 36.000
v 112.500 33.992 36.000
v 113.000 34.000 36.000
v 113.500 33.992 36.000
v 114.000 33.970 36.000
v 114.500 33.931 36.000
v 115.000 33.878 36.000
v 115.500 33.809 36.000
v 116.000 33.724 36.000
v 116.500 33.622 36.000
v 117.000 33.504 36.000
v 117.500 33.369 36.000
v 118.000 33.215 36.000
v 118.500 33.043 36.000
v 119.000 32.852 36.000
v 119.500 32.640 36.000
v 120.000 32.406 36.000
v 120.500 32.148 36.000
v 121.000 31.866 36.000
v 121.500 31.556 36.000
v 122.000 31.215 36.000
v 122.500 30.841 36.000
v 123.000 30.428 36.000
v 123.500 29.971 36.000
v 124.000 29.461 36.000
v 124.500 28.887 36.000
v 125.000 28.229 36.000
v 125.500 27.459 36.000
v 126.000 26.517 36.000
v 126.500 25.252 36.000
v 127.000 22.100 36.000
v 127.000 50.000 36.000
v 99.000 50.000 36.000
usemtl m_D8CCB0
f 195 196 197 198 199 200 201 202 203 204 205 206 207 208 209 210 211 212 213 214 215 216 217 218 219 220 221 222 223 224 225 226 227 228 229 230 231 232 233 234 235 236 237 238 239 240 241 242 243 244 245 246 247 248 249 250 251 252 253
v 127.000 22.100 30.000
v 126.500 25.252 30.000
v 126.000 26.517 30.000
v 125.500 27.459 30.000
v 125.000 28.229 30.000
v 124.500 28.887 30.000
v 124.000 29.461 30.000
v 123.500 29.971 30.000
v 123.000 30.428 30.000
v 122.500 30.841 30.000
v 122.000 31.215 30.000
v 121.500 31.556 30.000
v 121.000 31.866 30.000
v 120.500 32.148 30.000
v 120.000 32.406 30.000
v 119.500 32.640 30.000
v 119.000 32.852 30.000
v 118.500 33.043 30.000
v 118.000 33.215 30.000
v 117.500 33.369 30.000
v 117.000 33.504 30.000
v 116.500 33.622 30.000
v 116.000 33.724 30.000
v 115.500 33.809 30.000
v 115.000 33.878 30.000
v 114.500 33.931 30.000
v 114.000 33.970 30.000
v 113.500 33.992 30.000
v 113.000 34.000 30.000
v 112.500 33.992 30.000
v 112.000 33.970 30.000
v 111.500 33.931 30.000
v 111.000 33.878 30.000
v 110.500 33.809 30.000
v 110.000 33.724 30.000
v 109.500 33.622 30.000
v 109.000 33.504 30.000
v 108.500 33.369 30.000
v 108.000 33.215 30.000
v 107.500 33.043 30.000
v 107.000 32.852 30.000
v 106.500 32.640 30.000
v 106.000 32.406 30.000
v 105.500 32.148 30.000
v 105.000 31.866 30.000
v 104.500 31.556 30.000
v 104.000 31.215 30.000
v 103.500 30.841 30.000
v 103.000 30.428 30.000
v 102.500 29.971 30.000
v 102.000 29.461 30.000
v 101.500 28.887 30.000
v 101.000 28.229 30.000
v 100.500 27.459 30.000
v 100.000 26.517 30.000
v 99.500 25.252 30.000
v 99.000 22.100 30.000
v 99.000 50.000 30.000
v 127.000 50.000 30.000
usemtl m_D8CCB0
f 254 255 256 257 258 259 260 261 262 263 264 265 266 267 268 269 270 271 272 273 274 275 276 277 278 279 280 281 282 283 284 285 286 287 288 289 290 291 292 293 294 295 296 297 298 299 300 301 302 303 304 305 306 307 308 309 310 311 312
o cutaway_ring_cut_0
v 0.000 0.000 0.000
v 0.000 17.750 0.000
v 0.000 0.000 -252.000
v 0.000 17.750 -252.000
v 56.000 0.000 0.000
v 56.000 17.750 0.000
v 56.000 0.000 -252.000
v 56.000 17.750 -252.000
usemtl m_D6D6D6
f 314 318 320 316
usemtl m_D6D6D6
f 313 315 319 317
usemtl m_D6D6D6
f 313 317 318 314
usemtl m_D6D6D6
f 319 315 316 320
usemtl m_D6D6D6
f 315 313 314 316
usemtl m_D6D6D6
f 317 319 320 318
o cutaway_ring_cut_1
v 56.000 0.000 -239.000
v 56.000 17.750 -239.000
v 56.000 0.000 -252.000
v 56.000 17.750 -252.000
v 210.000 0.000 -239.000
v 210.000 17.750 -239.000
v 210.000 0.000 -252.000
v 210.000 17.750 -252.000
usemtl m_D6D6D6
f 322 326 328 324
usemtl m_D6D6D6
f 321 323 327 325
usemtl m_D6D6D6
f 321 325 326 322
usemtl m_D6D6D6
f 327 323 324 328
usemtl m_D6D6D6
f 323 321 322 324
usemtl m_D6D6D6
f 325 327 328 326
o cutaway_ring_cut_2
v 203.000 0.000 0.000
v 203.000 17.750 0.000
v 203.000 0.000 -239.000
v 203.000 17.750 -239.000
v 210.000 0.000 0.000
v 210.000 17.750 0.000
v 210.000 0.000 -239.000
v 210.000 17.750 -239.000
usemtl m_D6D6D6
f 330 334 336 332
usemtl m_D6D6D6
f 329 331 335 333
usemtl m_D6D6D6
f 329 333 334 330
usemtl m_D6D6D6
f 335 331 332 336
usemtl m_D6D6D6
f 331 329 330 332
usemtl m_D6D6D6
f 333 335 336 334
o cutaway_ring_cut_3
v 56.000 0.000 0.000
v 56.000 17.750 0.000
v 56.000 0.000 -41.000
v 56.000 17.750 -41.000
v 84.000 0.000 0.000
v 84.000 17.750 0.000
v 84.000 0.000 -41.000
v 84.000 17.750 -41.000
usemtl m_D6D6D6
f 338 342 344 340
usemtl m_D6D6D6
f 337 339 343 341
usemtl m_D6D6D6
f 337 341 342 338
usemtl m_D6D6D6
f 343 339 340 344
usemtl m_D6D6D6
f 339 337 338 340
usemtl m_D6D6D6
f 341 343 344 342
o cutaway_ring_cut_4
v 142.000 0.000 0.000
v 142.000 17.750 0.000
v 142.000 0.000 -41.000
v 142.000 17.750 -41.000
v 203.000 0.000 0.000
v 203.000 17.750 0.000
v 203.000 0.000 -41.000
v 203.000 17.750 -41.000
usemtl m_D6D6D6
f 346 350 352 348
usemtl m_D6D6D6
f 345 347 351 349
usemtl m_D6D6D6
f 345 349 350 346
usemtl m_D6D6D6
f 351 347 348 352
usemtl m_D6D6D6
f 347 345 346 348
usemtl m_D6D6D6
f 349 351 352 350
o cutaway_ring_cut_5
v 84.000 0.000 -34.000
v 84.000 17.750 -34.000
v 84.000 0.000 -41.000
v 84.000 17.750 -41.000
v 142.000 0.000 -34.000
v 142.000 17.750 -34.000
v 142.000 0.000 -41.000
v 142.000 17.750 -41.000
usemtl m_D6D6D6
f 354 358 360 356
usemtl m_D6D6D6
f 353 355 359 357
usemtl m_D6D6D6
f 353 357 358 354
usemtl m_D6D6D6
f 359 355 356 360
usemtl m_D6D6D6
f 355 353 354 356
usemtl m_D6D6D6
f 357 359 360 358
o cutaway_ne_stair_tower_cut
v 185.917 0.000 -252.000
v 185.917 17.750 -252.000
v 185.917 0.000 -258.667
v 185.917 17.750 -258.667
v 210.000 0.000 -252.000
v 210.000 17.750 -252.000
v 210.000 0.000 -258.667
v 210.000 17.750 -258.667
usemtl m_D6D6D6
f 362 366 368 364
usemtl m_D6D6D6
f 361 363 367 365
usemtl m_D6D6D6
f 361 365 366 362
usemtl m_D6D6D6
f 367 363 364 368
usemtl m_D6D6D6
f 363 361 362 364
usemtl m_D6D6D6
f 365 367 368 366
o cutaway_lower_N_2_0
v 56.000 0.000 -214.000
v 56.000 0.969 -214.000
v 56.000 0.000 -216.000
v 56.000 0.969 -216.000
v 123.850 0.000 -214.000
v 123.850 0.969 -214.000
v 123.850 0.000 -216.000
v 123.850 0.969 -216.000
usemtl m_B8B8B8
f 370 374 376 372
usemtl m_B8B8B8
f 369 371 375 373
usemtl m_B8B8B8
f 369 373 374 370
usemtl m_B8B8B8
f 375 371 372 376
usemtl m_B8B8B8
f 371 369 370 372
usemtl m_B8B8B8
f 373 375 376 374
o cutaway_lower_N_2_1
v 131.850 0.000 -214.000
v 131.850 0.969 -214.000
v 131.850 0.000 -216.000
v 131.850 0.969 -216.000
v 188.000 0.000 -214.000
v 188.000 0.969 -214.000
v 188.000 0.000 -216.000
v 188.000 0.969 -216.000
usemtl m_B8B8B8
f 378 382 384 380
usemtl m_B8B8B8
f 377 379 383 381
usemtl m_B8B8B8
f 377 381 382 378
usemtl m_B8B8B8
f 383 379 380 384
usemtl m_B8B8B8
f 379 377 378 380
usemtl m_B8B8B8
f 381 383 384 382
o cutaway_lower_N_3_0
v 56.000 0.000 -216.000
v 56.000 1.938 -216.000
v 56.000 0.000 -218.000
v 56.000 1.938 -218.000
v 123.850 0.000 -216.000
v 123.850 1.938 -216.000
v 123.850 0.000 -218.000
v 123.850 1.938 -218.000
usemtl m_B8B8B8
f 386 390 392 388
usemtl m_B8B8B8
f 385 387 391 389
usemtl m_B8B8B8
f 385 389 390 386
usemtl m_B8B8B8
f 391 387 388 392
usemtl m_B8B8B8
f 387 385 386 388
usemtl m_B8B8B8
f 389 391 392 390
o cutaway_lower_N_3_1
v 131.850 0.000 -216.000
v 131.850 1.938 -216.000
v 131.850 0.000 -218.000
v 131.850 1.938 -218.000
v 188.000 0.000 -216.000
v 188.000 1.938 -216.000
v 188.000 0.000 -218.000
v 188.000 1.938 -218.000
usemtl m_B8B8B8
f 394 398 400 396
usemtl m_B8B8B8
f 393 395 399 397
usemtl m_B8B8B8
f 393 397 398 394
usemtl m_B8B8B8
f 399 395 396 400
usemtl m_B8B8B8
f 395 393 394 396
usemtl m_B8B8B8
f 397 399 400 398
o cutaway_lower_N_4_0
v 56.000 0.000 -218.000
v 56.000 2.906 -218.000
v 56.000 0.000 -220.000
v 56.000 2.906 -220.000
v 123.850 0.000 -218.000
v 123.850 2.906 -218.000
v 123.850 0.000 -220.000
v 123.850 2.906 -220.000
usemtl m_B8B8B8
f 402 406 408 404
usemtl m_B8B8B8
f 401 403 407 405
usemtl m_B8B8B8
f 401 405 406 402
usemtl m_B8B8B8
f 407 403 404 408
usemtl m_B8B8B8
f 403 401 402 404
usemtl m_B8B8B8
f 405 407 408 406
o cutaway_lower_N_4_1
v 131.850 0.000 -218.000
v 131.850 2.906 -218.000
v 131.850 0.000 -220.000
v 131.850 2.906 -220.000
v 188.000 0.000 -218.000
v 188.000 2.906 -218.000
v 188.000 0.000 -220.000
v 188.000 2.906 -220.000
usemtl m_B8B8B8
f 410 414 416 412
usemtl m_B8B8B8
f 409 411 415 413
usemtl m_B8B8B8
f 409 413 414 410
usemtl m_B8B8B8
f 415 411 412 416
usemtl m_B8B8B8
f 411 409 410 412
usemtl m_B8B8B8
f 413 415 416 414
o cutaway_lower_N_5_0
v 56.000 0.000 -220.000
v 56.000 3.875 -220.000
v 56.000 0.000 -222.000
v 56.000 3.875 -222.000
v 123.850 0.000 -220.000
v 123.850 3.875 -220.000
v 123.850 0.000 -222.000
v 123.850 3.875 -222.000
usemtl m_B8B8B8
f 418 422 424 420
usemtl m_B8B8B8
f 417 419 423 421
usemtl m_B8B8B8
f 417 421 422 418
usemtl m_B8B8B8
f 423 419 420 424
usemtl m_B8B8B8
f 419 417 418 420
usemtl m_B8B8B8
f 421 423 424 422
o cutaway_lower_N_5_1
v 131.850 0.000 -220.000
v 131.850 3.875 -220.000
v 131.850 0.000 -222.000
v 131.850 3.875 -222.000
v 188.000 0.000 -220.000
v 188.000 3.875 -220.000
v 188.000 0.000 -222.000
v 188.000 3.875 -222.000
usemtl m_B8B8B8
f 426 430 432 428
usemtl m_B8B8B8
f 425 427 431 429
usemtl m_B8B8B8
f 425 429 430 426
usemtl m_B8B8B8
f 431 427 428 432
usemtl m_B8B8B8
f 427 425 426 428
usemtl m_B8B8B8
f 429 431 432 430
o cutaway_lower_N_6_0
v 56.000 0.000 -222.000
v 56.000 4.844 -222.000
v 56.000 0.000 -224.000
v 56.000 4.844 -224.000
v 123.850 0.000 -222.000
v 123.850 4.844 -222.000
v 123.850 0.000 -224.000
v 123.850 4.844 -224.000
usemtl m_B8B8B8
f 434 438 440 436
usemtl m_B8B8B8
f 433 435 439 437
usemtl m_B8B8B8
f 433 437 438 434
usemtl m_B8B8B8
f 439 435 436 440
usemtl m_B8B8B8
f 435 433 434 436
usemtl m_B8B8B8
f 437 439 440 438
o cutaway_lower_N_6_1
v 131.850 0.000 -222.000
v 131.850 4.844 -222.000
v 131.850 0.000 -224.000
v 131.850 4.844 -224.000
v 188.000 0.000 -222.000
v 188.000 4.844 -222.000
v 188.000 0.000 -224.000
v 188.000 4.844 -224.000
usemtl m_B8B8B8
f 442 446 448 444
usemtl m_B8B8B8
f 441 443 447 445
usemtl m_B8B8B8
f 441 445 446 442
usemtl m_B8B8B8
f 447 443 444 448
usemtl m_B8B8B8
f 443 441 442 444
usemtl m_B8B8B8
f 445 447 448 446
o cutaway_lower_S_2_0
v 56.000 0.000 -64.000
v 56.000 0.969 -64.000
v 56.000 0.000 -66.000
v 56.000 0.969 -66.000
v 107.000 0.000 -64.000
v 107.000 0.969 -64.000
v 107.000 0.000 -66.000
v 107.000 0.969 -66.000
usemtl m_B8B8B8
f 450 454 456 452
usemtl m_B8B8B8
f 449 451 455 453
usemtl m_B8B8B8
f 449 453 454 450
usemtl m_B8B8B8
f 455 451 452 456
usemtl m_B8B8B8
f 451 449 450 452
usemtl m_B8B8B8
f 453 455 456 454
o cutaway_lower_S_2_1
v 119.000 0.000 -64.000
v 119.000 0.969 -64.000
v 119.000 0.000 -66.000
v 119.000 0.969 -66.000
v 188.000 0.000 -64.000
v 188.000 0.969 -64.000
v 188.000 0.000 -66.000
v 188.000 0.969 -66.000
usemtl m_B8B8B8
f 458 462 464 460
usemtl m_B8B8B8
f 457 459 463 461
usemtl m_B8B8B8
f 457 461 462 458
usemtl m_B8B8B8
f 463 459 460 464
usemtl m_B8B8B8
f 459 457 458 460
usemtl m_B8B8B8
f 461 463 464 462
o cutaway_lower_S_3_0
v 56.000 0.000 -62.000
v 56.000 1.938 -62.000
v 56.000 0.000 -64.000
v 56.000 1.938 -64.000
v 107.000 0.000 -62.000
v 107.000 1.938 -62.000
v 107.000 0.000 -64.000
v 107.000 1.938 -64.000
usemtl m_B8B8B8
f 466 470 472 468
usemtl m_B8B8B8
f 465 467 471 469
usemtl m_B8B8B8
f 465 469 470 466
usemtl m_B8B8B8
f 471 467 468 472
usemtl m_B8B8B8
f 467 465 466 468
usemtl m_B8B8B8
f 469 471 472 470
o cutaway_lower_S_3_1
v 119.000 0.000 -62.000
v 119.000 1.938 -62.000
v 119.000 0.000 -64.000
v 119.000 1.938 -64.000
v 188.000 0.000 -62.000
v 188.000 1.938 -62.000
v 188.000 0.000 -64.000
v 188.000 1.938 -64.000
usemtl m_B8B8B8
f 474 478 480 476
usemtl m_B8B8B8
f 473 475 479 477
usemtl m_B8B8B8
f 473 477 478 474
usemtl m_B8B8B8
f 479 475 476 480
usemtl m_B8B8B8
f 475 473 474 476
usemtl m_B8B8B8
f 477 479 480 478
o cutaway_lower_S_4_0
v 56.000 0.000 -60.000
v 56.000 2.906 -60.000
v 56.000 0.000 -62.000
v 56.000 2.906 -62.000
v 107.000 0.000 -60.000
v 107.000 2.906 -60.000
v 107.000 0.000 -62.000
v 107.000 2.906 -62.000
usemtl m_B8B8B8
f 482 486 488 484
usemtl m_B8B8B8
f 481 483 487 485
usemtl m_B8B8B8
f 481 485 486 482
usemtl m_B8B8B8
f 487 483 484 488
usemtl m_B8B8B8
f 483 481 482 484
usemtl m_B8B8B8
f 485 487 488 486
o cutaway_lower_S_4_1
v 119.000 0.000 -60.000
v 119.000 2.906 -60.000
v 119.000 0.000 -62.000
v 119.000 2.906 -62.000
v 188.000 0.000 -60.000
v 188.000 2.906 -60.000
v 188.000 0.000 -62.000
v 188.000 2.906 -62.000
usemtl m_B8B8B8
f 490 494 496 492
usemtl m_B8B8B8
f 489 491 495 493
usemtl m_B8B8B8
f 489 493 494 490
usemtl m_B8B8B8
f 495 491 492 496
usemtl m_B8B8B8
f 491 489 490 492
usemtl m_B8B8B8
f 493 495 496 494
o cutaway_lower_S_5_0
v 56.000 0.000 -58.000
v 56.000 3.875 -58.000
v 56.000 0.000 -60.000
v 56.000 3.875 -60.000
v 107.000 0.000 -58.000
v 107.000 3.875 -58.000
v 107.000 0.000 -60.000
v 107.000 3.875 -60.000
usemtl m_B8B8B8
f 498 502 504 500
usemtl m_B8B8B8
f 497 499 503 501
usemtl m_B8B8B8
f 497 501 502 498
usemtl m_B8B8B8
f 503 499 500 504
usemtl m_B8B8B8
f 499 497 498 500
usemtl m_B8B8B8
f 501 503 504 502
o cutaway_lower_S_5_1
v 119.000 0.000 -58.000
v 119.000 3.875 -58.000
v 119.000 0.000 -60.000
v 119.000 3.875 -60.000
v 188.000 0.000 -58.000
v 188.000 3.875 -58.000
v 188.000 0.000 -60.000
v 188.000 3.875 -60.000
usemtl m_B8B8B8
f 506 510 512 508
usemtl m_B8B8B8
f 505 507 511 509
usemtl m_B8B8B8
f 505 509 510 506
usemtl m_B8B8B8
f 511 507 508 512
usemtl m_B8B8B8
f 507 505 506 508
usemtl m_B8B8B8
f 509 511 512 510
o cutaway_lower_S_6_0
v 56.000 0.000 -56.000
v 56.000 4.844 -56.000
v 56.000 0.000 -58.000
v 56.000 4.844 -58.000
v 107.000 0.000 -56.000
v 107.000 4.844 -56.000
v 107.000 0.000 -58.000
v 107.000 4.844 -58.000
usemtl m_B8B8B8
f 514 518 520 516
usemtl m_B8B8B8
f 513 515 519 517
usemtl m_B8B8B8
f 513 517 518 514
usemtl m_B8B8B8
f 519 515 516 520
usemtl m_B8B8B8
f 515 513 514 516
usemtl m_B8B8B8
f 517 519 520 518
o cutaway_lower_S_6_1
v 119.000 0.000 -56.000
v 119.000 4.844 -56.000
v 119.000 0.000 -58.000
v 119.000 4.844 -58.000
v 188.000 0.000 -56.000
v 188.000 4.844 -56.000
v 188.000 0.000 -58.000
v 188.000 4.844 -58.000
usemtl m_B8B8B8
f 522 526 528 524
usemtl m_B8B8B8
f 521 523 527 525
usemtl m_B8B8B8
f 521 525 526 522
usemtl m_B8B8B8
f 527 523 524 528
usemtl m_B8B8B8
f 523 521 522 524
usemtl m_B8B8B8
f 525 527 528 526
o cutaway_lower_E_2_0
v 178.000 0.000 -68.000
v 178.000 0.969 -68.000
v 178.000 0.000 -175.090
v 178.000 0.969 -175.090
v 180.000 0.000 -68.000
v 180.000 0.969 -68.000
v 180.000 0.000 -175.090
v 180.000 0.969 -175.090
usemtl m_B8B8B8
f 530 534 536 532
usemtl m_B8B8B8
f 529 531 535 533
usemtl m_B8B8B8
f 529 533 534 530
usemtl m_B8B8B8
f 535 531 532 536
usemtl m_B8B8B8
f 531 529 530 532
usemtl m_B8B8B8
f 533 535 536 534
o cutaway_lower_E_2_1
v 178.000 0.000 -183.090
v 178.000 0.969 -183.090
v 178.000 0.000 -212.000
v 178.000 0.969 -212.000
v 180.000 0.000 -183.090
v 180.000 0.969 -183.090
v 180.000 0.000 -212.000
v 180.000 0.969 -212.000
usemtl m_B8B8B8
f 538 542 544 540
usemtl m_B8B8B8
f 537 539 543 541
usemtl m_B8B8B8
f 537 541 542 538
usemtl m_B8B8B8
f 543 539 540 544
usemtl m_B8B8B8
f 539 537 538 540
usemtl m_B8B8B8
f 541 543 544 542
o cutaway_lower_E_3_0
v 180.000 0.000 -68.000
v 180.000 1.938 -68.000
v 180.000 0.000 -175.090
v 180.000 1.938 -175.090
v 182.000 0.000 -68.000
v 182.000 1.938 -68.000
v 182.000 0.000 -175.090
v 182.000 1.938 -175.090
usemtl m_B8B8B8
f 546 550 552 548
usemtl m_B8B8B8
f 545 547 551 549
usemtl m_B8B8B8
f 545 549 550 546
usemtl m_B8B8B8
f 551 547 548 552
usemtl m_B8B8B8
f 547 545 546 548
usemtl m_B8B8B8
f 549 551 552 550
o cutaway_lower_E_3_1
v 180.000 0.000 -183.090
v 180.000 1.938 -183.090
v 180.000 0.000 -212.000
v 180.000 1.938 -212.000
v 182.000 0.000 -183.090
v 182.000 1.938 -183.090
v 182.000 0.000 -212.000
v 182.000 1.938 -212.000
usemtl m_B8B8B8
f 554 558 560 556
usemtl m_B8B8B8
f 553 555 559 557
usemtl m_B8B8B8
f 553 557 558 554
usemtl m_B8B8B8
f 559 555 556 560
usemtl m_B8B8B8
f 555 553 554 556
usemtl m_B8B8B8
f 557 559 560 558
o cutaway_lower_E_4_0
v 182.000 0.000 -68.000
v 182.000 2.906 -68.000
v 182.000 0.000 -175.090
v 182.000 2.906 -175.090
v 184.000 0.000 -68.000
v 184.000 2.906 -68.000
v 184.000 0.000 -175.090
v 184.000 2.906 -175.090
usemtl m_B8B8B8
f 562 566 568 564
usemtl m_B8B8B8
f 561 563 567 565
usemtl m_B8B8B8
f 561 565 566 562
usemtl m_B8B8B8
f 567 563 564 568
usemtl m_B8B8B8
f 563 561 562 564
usemtl m_B8B8B8
f 565 567 568 566
o cutaway_lower_E_4_1
v 182.000 0.000 -183.090
v 182.000 2.906 -183.090
v 182.000 0.000 -212.000
v 182.000 2.906 -212.000
v 184.000 0.000 -183.090
v 184.000 2.906 -183.090
v 184.000 0.000 -212.000
v 184.000 2.906 -212.000
usemtl m_B8B8B8
f 570 574 576 572
usemtl m_B8B8B8
f 569 571 575 573
usemtl m_B8B8B8
f 569 573 574 570
usemtl m_B8B8B8
f 575 571 572 576
usemtl m_B8B8B8
f 571 569 570 572
usemtl m_B8B8B8
f 573 575 576 574
o cutaway_lower_E_5_0
v 184.000 0.000 -68.000
v 184.000 3.875 -68.000
v 184.000 0.000 -175.090
v 184.000 3.875 -175.090
v 186.000 0.000 -68.000
v 186.000 3.875 -68.000
v 186.000 0.000 -175.090
v 186.000 3.875 -175.090
usemtl m_B8B8B8
f 578 582 584 580
usemtl m_B8B8B8
f 577 579 583 581
usemtl m_B8B8B8
f 577 581 582 578
usemtl m_B8B8B8
f 583 579 580 584
usemtl m_B8B8B8
f 579 577 578 580
usemtl m_B8B8B8
f 581 583 584 582
o cutaway_lower_E_5_1
v 184.000 0.000 -183.090
v 184.000 3.875 -183.090
v 184.000 0.000 -212.000
v 184.000 3.875 -212.000
v 186.000 0.000 -183.090
v 186.000 3.875 -183.090
v 186.000 0.000 -212.000
v 186.000 3.875 -212.000
usemtl m_B8B8B8
f 586 590 592 588
usemtl m_B8B8B8
f 585 587 591 589
usemtl m_B8B8B8
f 585 589 590 586
usemtl m_B8B8B8
f 591 587 588 592
usemtl m_B8B8B8
f 587 585 586 588
usemtl m_B8B8B8
f 589 591 592 590
o cutaway_lower_E_6_0
v 186.000 0.000 -68.000
v 186.000 4.844 -68.000
v 186.000 0.000 -175.090
v 186.000 4.844 -175.090
v 188.000 0.000 -68.000
v 188.000 4.844 -68.000
v 188.000 0.000 -175.090
v 188.000 4.844 -175.090
usemtl m_B8B8B8
f 594 598 600 596
usemtl m_B8B8B8
f 593 595 599 597
usemtl m_B8B8B8
f 593 597 598 594
usemtl m_B8B8B8
f 599 595 596 600
usemtl m_B8B8B8
f 595 593 594 596
usemtl m_B8B8B8
f 597 599 600 598
o cutaway_lower_E_6_1
v 186.000 0.000 -183.090
v 186.000 4.844 -183.090
v 186.000 0.000 -212.000
v 186.000 4.844 -212.000
v 188.000 0.000 -183.090
v 188.000 4.844 -183.090
v 188.000 0.000 -212.000
v 188.000 4.844 -212.000
usemtl m_B8B8B8
f 602 606 608 604
usemtl m_B8B8B8
f 601 603 607 605
usemtl m_B8B8B8
f 601 605 606 602
usemtl m_B8B8B8
f 607 603 604 608
usemtl m_B8B8B8
f 603 601 602 604
usemtl m_B8B8B8
f 605 607 608 606
o cutaway_upper_N_1
v 56.000 0.000 -224.000
v 56.000 9.000 -224.000
v 56.000 0.000 -227.000
v 56.000 9.000 -227.000
v 188.000 0.000 -224.000
v 188.000 9.000 -224.000
v 188.000 0.000 -227.000
v 188.000 9.000 -227.000
usemtl m_9C9C9C
f 610 614 616 612
usemtl m_9C9C9C
f 609 611 615 613
usemtl m_9C9C9C
f 609 613 614 610
usemtl m_9C9C9C
f 615 611 612 616
usemtl m_9C9C9C
f 611 609 610 612
usemtl m_9C9C9C
f 613 615 616 614
o cutaway_upper_N_2
v 56.000 0.000 -227.000
v 56.000 10.750 -227.000
v 56.000 0.000 -230.000
v 56.000 10.750 -230.000
v 188.000 0.000 -227.000
v 188.000 10.750 -227.000
v 188.000 0.000 -230.000
v 188.000 10.750 -230.000
usemtl m_9C9C9C
f 618 622 624 620
usemtl m_9C9C9C
f 617 619 623 621
usemtl m_9C9C9C
f 617 621 622 618
usemtl m_9C9C9C
f 623 619 620 624
usemtl m_9C9C9C
f 619 617 618 620
usemtl m_9C9C9C
f 621 623 624 622
o cutaway_upper_N_3
v 56.000 0.000 -230.000
v 56.000 12.500 -230.000
v 56.000 0.000 -233.000
v 56.000 12.500 -233.000
v 188.000 0.000 -230.000
v 188.000 12.500 -230.000
v 188.000 0.000 -233.000
v 188.000 12.500 -233.000
usemtl m_9C9C9C
f 626 630 632 628
usemtl m_9C9C9C
f 625 627 631 629
usemtl m_9C9C9C
f 625 629 630 626
usemtl m_9C9C9C
f 631 627 628 632
usemtl m_9C9C9C
f 627 625 626 628
usemtl m_9C9C9C
f 629 631 632 630
o cutaway_upper_N_4
v 56.000 0.000 -233.000
v 56.000 14.250 -233.000
v 56.000 0.000 -236.000
v 56.000 14.250 -236.000
v 188.000 0.000 -233.000
v 188.000 14.250 -233.000
v 188.000 0.000 -236.000
v 188.000 14.250 -236.000
usemtl m_9C9C9C
f 634 638 640 636
usemtl m_9C9C9C
f 633 635 639 637
usemtl m_9C9C9C
f 633 637 638 634
usemtl m_9C9C9C
f 639 635 636 640
usemtl m_9C9C9C
f 635 633 634 636
usemtl m_9C9C9C
f 637 639 640 638
o cutaway_upper_N_5
v 56.000 0.000 -236.000
v 56.000 16.000 -236.000
v 56.000 0.000 -239.000
v 56.000 16.000 -239.000
v 188.000 0.000 -236.000
v 188.000 16.000 -236.000
v 188.000 0.000 -239.000
v 188.000 16.000 -239.000
usemtl m_9C9C9C
f 642 646 648 644
usemtl m_9C9C9C
f 641 643 647 645
usemtl m_9C9C9C
f 641 645 646 642
usemtl m_9C9C9C
f 647 643 644 648
usemtl m_9C9C9C
f 643 641 642 644
usemtl m_9C9C9C
f 645 647 648 646
o cutaway_upper_S_1
v 56.000 0.000 -53.000
v 56.000 9.000 -53.000
v 56.000 0.000 -56.000
v 56.000 9.000 -56.000
v 188.000 0.000 -53.000
v 188.000 9.000 -53.000
v 188.000 0.000 -56.000
v 188.000 9.000 -56.000
usemtl m_9C9C9C
f 650 654 656 652
usemtl m_9C9C9C
f 649 651 655 653
usemtl m_9C9C9C
f 649 653 654 650
usemtl m_9C9C9C
f 655 651 652 656
usemtl m_9C9C9C
f 651 649 650 652
usemtl m_9C9C9C
f 653 655 656 654
o cutaway_upper_S_2
v 56.000 0.000 -50.000
v 56.000 10.750 -50.000
v 56.000 0.000 -53.000
v 56.000 10.750 -53.000
v 188.000 0.000 -50.000
v 188.000 10.750 -50.000
v 188.000 0.000 -53.000
v 188.000 10.750 -53.000
usemtl m_9C9C9C
f 658 662 664 660
usemtl m_9C9C9C
f 657 659 663 661
usemtl m_9C9C9C
f 657 661 662 658
usemtl m_9C9C9C
f 663 659 660 664
usemtl m_9C9C9C
f 659 657 658 660
usemtl m_9C9C9C
f 661 663 664 662
o cutaway_upper_S_3
v 56.000 0.000 -47.000
v 56.000 12.500 -47.000
v 56.000 0.000 -50.000
v 56.000 12.500 -50.000
v 188.000 0.000 -47.000
v 188.000 12.500 -47.000
v 188.000 0.000 -50.000
v 188.000 12.500 -50.000
usemtl m_9C9C9C
f 666 670 672 668
usemtl m_9C9C9C
f 665 667 671 669
usemtl m_9C9C9C
f 665 669 670 666
usemtl m_9C9C9C
f 671 667 668 672
usemtl m_9C9C9C
f 667 665 666 668
usemtl m_9C9C9C
f 669 671 672 670
o cutaway_upper_S_4
v 56.000 0.000 -44.000
v 56.000 14.250 -44.000
v 56.000 0.000 -47.000
v 56.000 14.250 -47.000
v 188.000 0.000 -44.000
v 188.000 14.250 -44.000
v 188.000 0.000 -47.000
v 188.000 14.250 -47.000
usemtl m_9C9C9C
f 674 678 680 676
usemtl m_9C9C9C
f 673 675 679 677
usemtl m_9C9C9C
f 673 677 678 674
usemtl m_9C9C9C
f 679 675 676 680
usemtl m_9C9C9C
f 675 673 674 676
usemtl m_9C9C9C
f 677 679 680 678
o cutaway_upper_S_5
v 56.000 0.000 -41.000
v 56.000 16.000 -41.000
v 56.000 0.000 -44.000
v 56.000 16.000 -44.000
v 188.000 0.000 -41.000
v 188.000 16.000 -41.000
v 188.000 0.000 -44.000
v 188.000 16.000 -44.000
usemtl m_9C9C9C
f 682 686 688 684
usemtl m_9C9C9C
f 681 683 687 685
usemtl m_9C9C9C
f 681 685 686 682
usemtl m_9C9C9C
f 687 683 684 688
usemtl m_9C9C9C
f 683 681 682 684
usemtl m_9C9C9C
f 685 687 688 686
o cutaway_upper_E_1
v 188.000 0.000 -41.000
v 188.000 9.000 -41.000
v 188.000 0.000 -239.000
v 188.000 9.000 -239.000
v 191.000 0.000 -41.000
v 191.000 9.000 -41.000
v 191.000 0.000 -239.000
v 191.000 9.000 -239.000
usemtl m_9C9C9C
f 690 694 696 692
usemtl m_9C9C9C
f 689 691 695 693
usemtl m_9C9C9C
f 689 693 694 690
usemtl m_9C9C9C
f 695 691 692 696
usemtl m_9C9C9C
f 691 689 690 692
usemtl m_9C9C9C
f 693 695 696 694
o cutaway_upper_E_2
v 191.000 0.000 -41.000
v 191.000 10.750 -41.000
v 191.000 0.000 -239.000
v 191.000 10.750 -239.000
v 194.000 0.000 -41.000
v 194.000 10.750 -41.000
v 194.000 0.000 -239.000
v 194.000 10.750 -239.000
usemtl m_9C9C9C
f 698 702 704 700
usemtl m_9C9C9C
f 697 699 703 701
usemtl m_9C9C9C
f 697 701 702 698
usemtl m_9C9C9C
f 703 699 700 704
usemtl m_9C9C9C
f 699 697 698 700
usemtl m_9C9C9C
f 701 703 704 702
o cutaway_upper_E_3
v 194.000 0.000 -41.000
v 194.000 12.500 -41.000
v 194.000 0.000 -239.000
v 194.000 12.500 -239.000
v 197.000 0.000 -41.000
v 197.000 12.500 -41.000
v 197.000 0.000 -239.000
v 197.000 12.500 -239.000
usemtl m_9C9C9C
f 706 710 712 708
usemtl m_9C9C9C
f 705 707 711 709
usemtl m_9C9C9C
f 705 709 710 706
usemtl m_9C9C9C
f 711 707 708 712
usemtl m_9C9C9C
f 707 705 706 708
usemtl m_9C9C9C
f 709 711 712 710
o cutaway_upper_E_4
v 197.000 0.000 -41.000
v 197.000 14.250 -41.000
v 197.000 0.000 -239.000
v 197.000 14.250 -239.000
v 200.000 0.000 -41.000
v 200.000 14.250 -41.000
v 200.000 0.000 -239.000
v 200.000 14.250 -239.000
usemtl m_9C9C9C
f 714 718 720 716
usemtl m_9C9C9C
f 713 715 719 717
usemtl m_9C9C9C
f 713 717 718 714
usemtl m_9C9C9C
f 719 715 716 720
usemtl m_9C9C9C
f 715 713 714 716
usemtl m_9C9C9C
f 717 719 720 718
o cutaway_upper_E_5
v 200.000 0.000 -41.000
v 200.000 16.000 -41.000
v 200.000 0.000 -239.000
v 200.000 16.000 -239.000
v 203.000 0.000 -41.000
v 203.000 16.000 -41.000
v 203.000 0.000 -239.000
v 203.000 16.000 -239.000
usemtl m_9C9C9C
f 722 726 728 724
usemtl m_9C9C9C
f 721 723 727 725
usemtl m_9C9C9C
f 721 725 726 722
usemtl m_9C9C9C
f 727 723 724 728
usemtl m_9C9C9C
f 723 721 722 724
usemtl m_9C9C9C
f 725 727 728 726
o cutaway_ground_walk_0
v 99.000 0.000 30.000
v 127.000 0.000 30.000
v 127.000 0.000 0.000
v 99.000 0.000 0.000
usemtl m_B5654A
f 729 730 731 732
o cutaway_ground_lobby_1
v 84.000 0.000 0.000
v 142.000 0.000 0.000
v 142.000 0.000 -34.000
v 84.000 0.000 -34.000
usemtl m_EFEFEF
f 733 734 735 736
o cutaway_ground_arena_floor_2
v 56.000 0.000 -56.000
v 188.000 0.000 -56.000
v 188.000 0.000 -224.000
v 56.000 0.000 -224.000
usemtl m_F2EBDD
f 737 738 739 740
o cutaway_ground_mat_3
v 66.000 0.000 -145.000
v 108.000 0.000 -145.000
v 108.000 0.000 -187.000
v 66.000 0.000 -187.000
usemtl m_E9D3A6
f 741 742 743 744
o cutaway_ground_mat_4
v 118.000 0.000 -145.000
v 160.000 0.000 -145.000
v 160.000 0.000 -187.000
v 118.000 0.000 -187.000
usemtl m_E9D3A6
f 745 746 747 748
o cutaway_ground_mat_5
v 66.000 0.000 -93.000
v 108.000 0.000 -93.000
v 108.000 0.000 -135.000
v 66.000 0.000 -135.000
usemtl m_E9D3A6
f 749 750 751 752
o cutaway_ground_mat_6
v 118.000 0.000 -93.000
v 160.000 0.000 -93.000
v 160.000 0.000 -135.000
v 118.000 0.000 -135.000
usemtl m_E9D3A6
f 753 754 755 756
