  0
SECTION
  2
HEADER
  9
$ACADVER
  1
AC1024
  9
$ACADMAINTVER
 70
6
  9
$DWGCODEPAGE
  3
ANSI_1252
  9
$LASTSAVEDBY
  1
ezdxf
  9
$INSBASE
 10
0.0
 20
0.0
 30
0.0
  9
$EXTMIN
 10
1e+20
 20
1e+20
 30
1e+20
  9
$EXTMAX
 10
-1e+20
 20
-1e+20
 30
-1e+20
  9
$LIMMIN
 10
0.0
 20
0.0
  9
$LIMMAX
 10
420.0
 20
297.0
  9
$ORTHOMODE
 70
0
  9
$REGENMODE
 70
1
  9
$FILLMODE
 70
1
  9
$QTEXTMODE
 70
0
  9
$MIRRTEXT
 70
1
  9
$LTSCALE
 40
1.0
  9
$ATTMODE
 70
1
  9
$TEXTSIZE
 40
2.5
  9
$TRACEWID
 40
1.0
  9
$TEXTSTYLE
  7
Standard
  9
$CLAYER
  8
0
  9
$CELTYPE
  6
ByLayer
  9
$CECOLOR
 62
256
  9
$CELTSCALE
 40
1.0
  9
$DISPSILH
 70
0
  9
$DIMSCALE
 40
1.0
  9
$DIMASZ
 40
2.5
  9
$DIMEXO
 40
0.625
  9
$DIMDLI
 40
3.75
  9
$DIMRND
 40
0.0
  9
$DIMDLE
 40
0.0
  9
$DIMEXE
 40
1.25
  9
$DIMTP
 40
0.0
  9
$DIMTM
 40
0.0
  9
$DIMTXT
 40
2.5
  9
$DIMCEN
 40
2.5
  9
$DIMTSZ
 40
0.0
  9
$DIMTOL
 70
0
  9
$DIMLIM
 70
0
  9
$DIMTIH
 70
0
  9
$DIMTOH
 70
0
  9
$DIMSE1
 70
0
  9
$DIMSE2
 70
0
  9
$DIMTAD
 70
1
  9
$DIMZIN
 70
8
  9
$DIMBLK
  1

  9
$DIMASO
 70
1
  9
$DIMSHO
 70
1
  9
$DIMPOST
  1

  9
$DIMAPOST
  1

  9
$DIMALT
 70
0
  9
$DIMALTD
 70
3
  9
$DIMALTF
 40
0.03937007874
  9
$DIMLFAC
 40
1.0
  9
$DIMTOFL
 70
1
  9
$DIMTVP
 40
0.0
  9
$DIMTIX
 70
0
  9
$DIMSOXD
 70
0
  9
$DIMSAH
 70
0
  9
$DIMBLK1
  1

  9
$DIMBLK2
  1

  9
$DIMSTYLE
  2
ISO-25
  9
$DIMCLRD
 70
0
  9
$DIMCLRE
 70
0
  9
$DIMCLRT
 70
0
  9
$DIMTFAC
 40
1.0
  9
$DIMGAP
 40
0.625
  9
$DIMJUST
 70
0
  9
$DIMSD1
 70
0
  9
$DIMSD2
 70
0
  9
$DIMTOLJ
 70
0
  9
$DIMTZIN
 70
8
  9
$DIMALTZ
 70
0
  9
$DIMALTTZ
 70
0
  9
$DIMUPT
 70
0
  9
$DIMDEC
 70
2
  9
$DIMTDEC
 70
2
  9
$DIMALTU
 70
2
  9
$DIMALTTD
 70
3
  9
$DIMTXSTY
  7
Standard
  9
$DIMAUNIT
 70
0
  9
$DIMADEC
 70
0
  9
$DIMALTRND
 40
0.0
  9
$DIMAZIN
 70
0
  9
$DIMDSEP
 70
44
  9
$DIMATFIT
 70
3
  9
$DIMFRAC
 70
0
  9
$DIMLDRBLK
  1

  9
$DIMLUNIT
 70
2
  9
$DIMLWD
 70
-2
  9
$DIMLWE
 70
-2
  9
$DIMTMOVE
 70
0
  9
$DIMFXL
 40
1.0
  9
$DIMFXLON
 70
0
  9
$DIMJOGANG
 40
0.785398163397
  9
$DIMTFILL
 70
0
  9
$DIMTFILLCLR
 70
0
  9
$DIMARCSYM
 70
0
  9
$DIMLTYPE
  6

  9
$DIMLTEX1
  6

  9
$DIMLTEX2
  6

  9
$DIMTXTDIRECTION
 70
0
  9
$LUNITS
 70
2
  9
$LUPREC
 70
4
  9
$SKETCHINC
 40
1.0
  9
$FILLETRAD
 40
10.0
  9
$AUNITS
 70
0
  9
$AUPREC
 70
2
  9
$MENU
  1
.
  9
$ELEVATION
 40
0.0
  9
$PELEVATION
 40
0.0
  9
$THICKNESS
 40
0.0
  9
$LIMCHECK
 70
0
  9
$CHAMFERA
 40
0.0
  9
$CHAMFERB
 40
0.0
  9
$CHAMFERC
 40
0.0
  9
$CHAMFERD
 40
0.0
  9
$SKPOLY
 70
0
  9
$TDCREATE
 40
2461317.9927199073
  9
$TDUCREATE
 40
2458532.153996898
  9
$TDUPDATE
 40
2461317.9927199073
  9
$TDUUPDATE
 40
2458532.1544311
  9
$TDINDWG
 40
0.0
  9
$TDUSRTIMER
 40
0.0
  9
$USRTIMER
 70
1
  9
$ANGBASE
 50
0.0
  9
$ANGDIR
 70
0
  9
$PDMODE
 70
0
  9
$PDSIZE
 40
0.0
  9
$PLINEWID
 40
0.0
  9
$SPLFRAME
 70
0
  9
$SPLINETYPE
 70
6
  9
$SPLINESEGS
 70
8
  9
$HANDSEED
  5
30A
  9
$SURFTAB1
 70
6
  9
$SURFTAB2
 70
6
  9
$SURFTYPE
 70
6
  9
$SURFU
 70
6
  9
$SURFV
 70
6
  9
$UCSBASE
  2

  9
$UCSNAME
  2

  9
$UCSORG
 10
0.0
 20
0.0
 30
0.0
  9
$UCSXDIR
 10
1.0
 20
0.0
 30
0.0
  9
$UCSYDIR
 10
0.0
 20
1.0
 30
0.0
  9
$UCSORTHOREF
  2

  9
$UCSORTHOVIEW
 70
0
  9
$UCSORGTOP
 10
0.0
 20
0.0
 30
0.0
  9
$UCSORGBOTTOM
 10
0.0
 20
0.0
 30
0.0
  9
$UCSORGLEFT
 10
0.0
 20
0.0
 30
0.0
  9
$UCSORGRIGHT
 10
0.0
 20
0.0
 30
0.0
  9
$UCSORGFRONT
 10
0.0
 20
0.0
 30
0.0
  9
$UCSORGBACK
 10
0.0
 20
0.0
 30
0.0
  9
$PUCSBASE
  2

  9
$PUCSNAME
  2

  9
$PUCSORG
 10
0.0
 20
0.0
 30
0.0
  9
$PUCSXDIR
 10
1.0
 20
0.0
 30
0.0
  9
$PUCSYDIR
 10
0.0
 20
1.0
 30
0.0
  9
$PUCSORTHOREF
  2

  9
$PUCSORTHOVIEW
 70
0
  9
$PUCSORGTOP
 10
0.0
 20
0.0
 30
0.0
  9
$PUCSORGBOTTOM
 10
0.0
 20
0.0
 30
0.0
  9
$PUCSORGLEFT
 10
0.0
 20
0.0
 30
0.0
  9
$PUCSORGRIGHT
 10
0.0
 20
0.0
 30
0.0
  9
$PUCSORGFRONT
 10
0.0
 20
0.0
 30
0.0
  9
$PUCSORGBACK
 10
0.0
 20
0.0
 30
0.0
  9
$USERI1
 70
0
  9
$USERI2
 70
0
  9
$USERI3
 70
0
  9
$USERI4
 70
0
  9
$USERI5
 70
0
  9
$USERR1
 40
0.0
  9
$USERR2
 40
0.0
  9
$USERR3
 40
0.0
  9
$USERR4
 40
0.0
  9
$USERR5
 40
0.0
  9
$WORLDVIEW
 70
1
  9
$SHADEDGE
 70
3
  9
$SHADEDIF
 70
70
  9
$TILEMODE
 70
1
  9
$MAXACTVP
 70
64
  9
$PINSBASE
 10
0.0
 20
0.0
 30
0.0
  9
$PLIMCHECK
 70
0
  9
$PEXTMIN
 10
1e+20
 20
1e+20
 30
1e+20
  9
$PEXTMAX
 10
-1e+20
 20
-1e+20
 30
-1e+20
  9
$PLIMMIN
 10
0.0
 20
0.0
  9
$PLIMMAX
 10
420.0
 20
297.0
  9
$UNITMODE
 70
0
  9
$VISRETAIN
 70
1
  9
$PLINEGEN
 70
0
  9
$PSLTSCALE
 70
1
  9
$TREEDEPTH
 70
3020
  9
$CMLSTYLE
  2
Standard
  9
$CMLJUST
 70
0
  9
$CMLSCALE
 40
20.0
  9
$PROXYGRAPHICS
 70
1
  9
$MEASUREMENT
 70
0
  9
$CELWEIGHT
370
-1
  9
$ENDCAPS
280
0
  9
$JOINSTYLE
280
0
  9
$LWDISPLAY
290
0
  9
$INSUNITS
 70
1
  9
$HYPERLINKBASE
  1

  9
$STYLESHEET
  1

  9
$XEDIT
290
1
  9
$CEPSNTYPE
380
0
  9
$PSTYLEMODE
290
1
  9
$FINGERPRINTGUID
  2
{E9676C35-650F-4227-BCFF-0D39844E1B11}
  9
$VERSIONGUID
  2
{0455C393-22AA-494B-923F-A2B0D27EBC00}
  9
$EXTNAMES
290
1
  9
$PSVPSCALE
 40
0.0
  9
$OLESTARTUP
290
0
  9
$SORTENTS
280
127
  9
$INDEXCTL
280
0
  9
$HIDETEXT
280
1
  9
$XCLIPFRAME
280
1
  9
$HALOGAP
280
0
  9
$OBSCOLOR
 70
257
  9
$OBSLTYPE
280
0
  9
$INTERSECTIONDISPLAY
280
0
  9
$INTERSECTIONCOLOR
 70
257
  9
$DIMASSOC
280
2
  9
$PROJECTNAME
  1

  9
$CAMERADISPLAY
290
0
  9
$LENSLENGTH
 40
50.0
  9
$CAMERAHEIGHT
 40
0.0
  9
$STEPSPERSEC
 40
24.0
  9
$STEPSIZE
 40
100.0
  9
$3DDWFPREC
 40
2.0
  9
$PSOLWIDTH
 40
0.005
  9
$PSOLHEIGHT
 40
0.08
  9
$LOFTANG1
 40
1.570796326795
  9
$LOFTANG2
 40
1.570796326795
  9
$LOFTMAG1
 40
0.0
  9
$LOFTMAG2
 40
0.0
  9
$LOFTPARAM
 70
7
  9
$LOFTNORMALS
280
1
  9
$LATITUDE
 40
37.795
  9
$LONGITUDE
 40
-122.394
  9
$NORTHDIRECTION
 40
0.0
  9
$TIMEZONE
 70
-8000
  9
$LIGHTGLYPHDISPLAY
280
1
  9
$TILEMODELIGHTSYNCH
280
1
  9
$CMATERIAL
347
20
  9
$SOLIDHIST
280
0
  9
$SHOWHIST
280
1
  9
$DWFFRAME
280
2
  9
$DGNFRAME
280
2
  9
$REALWORLDSCALE
290
1
  9
$INTERFERECOLOR
 62
256
  9
$CSHADOW
280
0
  9
$SHADOWPLANELOCATION
 40
0.0
  0
ENDSEC
  0
SECTION
  2
CLASSES
  0
CLASS
  1
ACDBDICTIONARYWDFLT
  2
AcDbDictionaryWithDefault
  3
ObjectDBX Classes
 90
0
 91
0
280
0
281
0
  0
CLASS
  1
SUN
  2
AcDbSun
  3
SCENEOE
 90
1153
 91
0
280
0
281
0
  0
CLASS
  1
VISUALSTYLE
  2
AcDbVisualStyle
  3
ObjectDBX Classes
 90
4095
 91
0
280
0
281
0
  0
CLASS
  1
MATERIAL
  2
AcDbMaterial
  3
ObjectDBX Classes
 90
1153
 91
0
280
0
281
0
  0
CLASS
  1
SCALE
  2
AcDbScale
  3
ObjectDBX Classes
 90
1153
 91
0
280
0
281
0
  0
CLASS
  1
TABLESTYLE
  2
AcDbTableStyle
  3
ObjectDBX Classes
 90
4095
 91
0
280
0
281
0
  0
CLASS
  1
MLEADERSTYLE
  2
AcDbMLeaderStyle
  3
ACDB_MLEADERSTYLE_CLASS
 90
4095
 91
0
280
0
281
0
  0
CLASS
  1
DICTIONARYVAR
  2
AcDbDictionaryVar
  3
ObjectDBX Classes
 90
0
 91
0
280
0
281
0
  0
CLASS
  1
CELLSTYLEMAP
  2
AcDbCellStyleMap
  3
ObjectDBX Classes
 90
1152
 91
0
280
0
281
0
  0
CLASS
  1
MENTALRAYRENDERSETTINGS
  2
AcDbMentalRayRenderSettings
  3
SCENEOE
 90
1024
 91
0
280
0
281
0
  0
CLASS
  1
ACDBDETAILVIEWSTYLE
  2
AcDbDetailViewStyle
  3
ObjectDBX Classes
 90
1025
 91
0
280
0
281
0
  0
CLASS
  1
ACDBSECTIONVIEWSTYLE
  2
AcDbSectionViewStyle
  3
ObjectDBX Classes
 90
1025
 91
0
280
0
281
0
  0
CLASS
  1
RASTERVARIABLES
  2
AcDbRasterVariables
  3
ISM
 90
0
 91
0
280
0
281
0
  0
CLASS
  1
LAYOUT
  2
AcDbLayout
  3
ObjectDBX Classes
 90
0
 91
0
280
0
281
0
  0
CLASS
  1
ACDBPLACEHOLDER
  2
AcDbPlaceHolder
  3
ObjectDBX Classes
 90
0
 91
0
280
0
281
0
  0
ENDSEC
  0
SECTION
  2
TABLES
  0
TABLE
  2
VPORT
  5
8
330
0
100
AcDbSymbolTable
 70
1
  0
VPORT
  5
23
330
8
100
AcDbSymbolTableRecord
100
AcDbViewportTableRecord
  2
*Active
 70
0
 10
0.0
 20
0.0
 11
1.0
 21
1.0
 12
0.0
 22
0.0
 13
0.0
 23
0.0
 14
0.5
 24
0.5
 15
0.5
 25
0.5
 16
0.0
 26
0.0
 36
1.0
 17
0.0
 27
0.0
 37
0.0
 40
1000.0
 41
1.34
 42
50.0
 43
0.0
 44
0.0
 50
0.0
 51
0.0
 71
0
 72
1000
 73
1
 74
3
 75
0
 76
0
 77
0
 78
0
281
0
 65
0
146
0.0
  0
ENDTAB
  0
TABLE
  2
LTYPE
  5
2
330
0
100
AcDbSymbolTable
 70
3
  0
LTYPE
  5
24
330
2
100
AcDbSymbolTableRecord
100
AcDbLinetypeTableRecord
  2
ByBlock
 70
0
  3

 72
65
 73
0
 40
0.0
  0
LTYPE
  5
25
330
2
100
AcDbSymbolTableRecord
100
AcDbLinetypeTableRecord
  2
ByLayer
 70
0
  3

 72
65
 73
0
 40
0.0
  0
LTYPE
  5
26
330
2
100
AcDbSymbolTableRecord
100
AcDbLinetypeTableRecord
  2
Continuous
 70
0
  3

 72
65
 73
0
 40
0.0
  0
ENDTAB
  0
TABLE
  2
LAYER
  5
1
330
0
100
AcDbSymbolTable
 70
14
  0
LAYER
  5
27
330
1
100
AcDbSymbolTableRecord
100
AcDbLayerTableRecord
  2
0
 70
0
 62
7
  6
Continuous
370
-3
390
13
347
21
  0
LAYER
  5
28
330
1
100
AcDbSymbolTableRecord
100
AcDbLayerTableRecord
  2
Defpoints
 70
0
 62
7
  6
Continuous
290
0
370
-3
390
13
347
21
  0
LAYER
  5
31
330
1
100
AcDbSymbolTableRecord
100
AcDbLayerTableRecord
  2
G-ANNO-TTLB
 70
0
 62
7
  6
Continuous
370
-3
390
13
347
21
  0
LAYER
  5
32
330
1
100
AcDbSymbolTableRecord
100
AcDbLayerTableRecord
  2
A-ANNO-TEXT
 70
0
 62
7
  6
Continuous
370
-3
390
13
347
21
  0
LAYER
  5
33
330
1
100
AcDbSymbolTableRecord
100
AcDbLayerTableRecord
  2
A-WALL-BLDG
 70
0
 62
7
  6
Continuous
370
-3
390
13
347
21
  0
LAYER
  5
34
330
1
100
AcDbSymbolTableRecord
100
AcDbLayerTableRecord
  2
A-ANNO-DIMS
 70
0
 62
7
  6
Continuous
370
-3
390
13
347
21
  0
LAYER
  5
35
330
1
100
AcDbSymbolTableRecord
100
AcDbLayerTableRecord
  2
A-SEAT-FIXD
 70
0
 62
7
  6
Continuous
370
-3
390
13
347
21
  0
LAYER
  5
36
330
1
100
AcDbSymbolTableRecord
100
AcDbLayerTableRecord
  2
A-FLOR-MATS
 70
0
 62
7
  6
Continuous
370
-3
390
13
347
21
  0
LAYER
  5
37
330
1
100
AcDbSymbolTableRecord
100
AcDbLayerTableRecord
  2
A-SEAT-TELE
 70
0
 62
7
  6
Continuous
370
-3
390
13
347
21
  0
LAYER
  5
38
330
1
100
AcDbSymbolTableRecord
100
AcDbLayerTableRecord
  2
A-AREA-IDEN
 70
0
 62
7
  6
Continuous
370
-3
390
13
347
21
  0
LAYER
  5
39
330
1
100
AcDbSymbolTableRecord
100
AcDbLayerTableRecord
  2
A-FLOR-CORT
 70
0
 62
7
  6
Continuous
370
-3
390
13
347
21
  0
LAYER
  5
3A
330
1
100
AcDbSymbolTableRecord
100
AcDbLayerTableRecord
  2
A-AREA-BLCK
 70
0
 62
7
  6
Continuous
370
-3
390
13
347
21
  0
LAYER
  5
3B
330
1
100
AcDbSymbolTableRecord
100
AcDbLayerTableRecord
  2
A-FLOR-STRS
 70
0
 62
7
  6
Continuous
370
-3
390
13
347
21
  0
LAYER
  5
3C
330
1
100
AcDbSymbolTableRecord
100
AcDbLayerTableRecord
  2
A-ANNO-TABL
 70
0
 62
7
  6
Continuous
370
-3
390
13
347
21
  0
ENDTAB
  0
TABLE
  2
STYLE
  5
5
330
0
100
AcDbSymbolTable
 70
3
  0
STYLE
  5
29
330
5
100
AcDbSymbolTableRecord
100
AcDbTextStyleTableRecord
  2
Standard
 70
0
 40
0.0
 41
1.0
 50
0.0
 71
0
 42
2.5
  3
txt
  4

  0
STYLE
  5
2F
330
5
100
AcDbSymbolTableRecord
100
AcDbTextStyleTableRecord
  2
KS-REG
 70
0
 40
0.0
 41
1.0
 50
0.0
 71
0
 42
2.5
  3
DejaVuSans.ttf
  4

  0
STYLE
  5
30
330
5
100
AcDbSymbolTableRecord
100
AcDbTextStyleTableRecord
  2
KS-BOLD
 70
0
 40
0.0
 41
1.0
 50
0.0
 71
0
 42
2.5
  3
DejaVuSans-Bold.ttf
  4

  0
ENDTAB
  0
TABLE
  2
VIEW
  5
7
330
0
100
AcDbSymbolTable
 70
0
  0
ENDTAB
  0
TABLE
  2
UCS
  5
6
330
0
100
AcDbSymbolTable
 70
0
  0
ENDTAB
  0
TABLE
  2
APPID
  5
3
330
0
100
AcDbSymbolTable
 70
3
  0
APPID
  5
2A
330
3
100
AcDbSymbolTableRecord
100
AcDbRegAppTableRecord
  2
ACAD
 70
0
  0
APPID
  5
307
330
3
100
AcDbSymbolTableRecord
100
AcDbRegAppTableRecord
  2
HATCHBACKGROUNDCOLOR
 70
0
  0
APPID
  5
308
330
3
100
AcDbSymbolTableRecord
100
AcDbRegAppTableRecord
  2
EZDXF
 70
0
  0
ENDTAB
  0
TABLE
  2
DIMSTYLE
  5
4
330
0
100
AcDbSymbolTable
 70
1
100
AcDbDimStyleTable
  0
DIMSTYLE
105
2B
330
4
100
AcDbSymbolTableRecord
100
AcDbDimStyleTableRecord
  2
Standard
 70
0
 40
1.0
 41
2.5
 42
0.625
 43
3.75
 44
1.25
 45
0.0
 46
0.0
 47
0.0
 48
0.0
 49
2.5
140
2.5
141
2.5
142
0.0
143
0.03937007874
144
1.0
145
0.0
146
1.0
147
0.625
148
0.0
 69
0
 70
0
 71
0
 72
0
 73
0
 74
0
 75
0
 76
0
 77
1
 78
8
 79
3
170
0
171
3
172
1
173
0
174
0
175
0
176
0
177
0
178
0
179
2
271
2
272
2
273
2
274
3
275
0
276
0
277
2
278
44
279
0
280
0
281
0
282
0
283
0
284
8
285
0
286
0
288
0
289
3
290
0
371
-2
372
-2
  0
ENDTAB
  0
TABLE
  2
BLOCK_RECORD
  5
9
330
0
100
AcDbSymbolTable
 70
2
  0
BLOCK_RECORD
  5
17
330
9
100
AcDbSymbolTableRecord
100
AcDbBlockTableRecord
  2
*Model_Space
340
1A
 70
0
280
1
281
0
  0
BLOCK_RECORD
  5
1B
330
9
100
AcDbSymbolTableRecord
100
AcDbBlockTableRecord
  2
*Paper_Space
340
1E
 70
0
280
1
281
0
  0
ENDTAB
  0
ENDSEC
  0
SECTION
  2
BLOCKS
  0
BLOCK
  5
18
330
17
100
AcDbEntity
  8
0
100
AcDbBlockBegin
  2
*Model_Space
 70
0
 10
0.0
 20
0.0
 30
0.0
  3
*Model_Space
  1

  0
ENDBLK
  5
19
330
17
100
AcDbEntity
  8
0
100
AcDbBlockEnd
  0
BLOCK
  5
1C
330
1B
100
AcDbEntity
  8
0
100
AcDbBlockBegin
  2
*Paper_Space
 70
0
 10
0.0
 20
0.0
 30
0.0
  3
*Paper_Space
  1

  0
ENDBLK
  5
1D
330
1B
100
AcDbEntity
  8
0
100
AcDbBlockEnd
  0
ENDSEC
  0
SECTION
  2
ENTITIES
  0
LWPOLYLINE
  5
3D
330
17
100
AcDbEntity
  8
G-ANNO-TTLB
100
AcDbPolyline
 90
4
 70
1
 10
0.5
 20
0.5
 10
16.5
 20
0.5
 10
16.5
 20
10.5
 10
0.5
 20
10.5
  0
LWPOLYLINE
  5
3E
330
17
100
AcDbEntity
  8
G-ANNO-TTLB
100
AcDbPolyline
 90
4
 70
1
 10
0.5
 20
1.45
 10
16.5
 20
1.45
 10
16.5
 20
1.85
 10
0.5
 20
1.85
  0
TEXT
  5
3F
330
17
100
AcDbEntity
  8
G-ANNO-TTLB
100
AcDbText
 10
8.5
 20
1.5699999999999998
 30
0.0
 40
0.16999999999999998
  1
PRELIMINARY — CONCEPTUAL DESIGN — NOT FOR CONSTRUCTION
  7
KS-BOLD
 72
1
 11
8.5
 21
1.5699999999999998
 31
0.0
100
AcDbText
  0
LINE
  5
40
330
17
100
AcDbEntity
  8
G-ANNO-TTLB
100
AcDbLine
 10
0.5
 20
1.45
 30
0.0
 11
16.5
 21
1.45
 31
0.0
  0
TEXT
  5
41
330
17
100
AcDbEntity
  8
G-ANNO-TTLB
100
AcDbText
 10
0.58
 20
1.28
 30
0.0
 40
0.06999999999999999
  1
PROJECT
  7
KS-REG
 11
0.58
 21
1.28
 31
0.0
100
AcDbText
  0
TEXT
  5
42
330
17
100
AcDbEntity
  8
G-ANNO-TTLB
100
AcDbText
 10
0.58
 20
0.9991666666666666
 30
0.0
 40
0.11499999999999999
  1
Hazel Green Regional Athletic Complex
  7
KS-BOLD
 11
0.58
 21
0.9991666666666666
 31
0.0
100
AcDbText
  0
TEXT
  5
43
330
17
100
AcDbEntity
  8
G-ANNO-TTLB
100
AcDbText
 10
0.58
 20
0.7883333333333333
 30
0.0
 40
0.11499999999999999
  1
Trojan Horse Arena · Hazel Green area, Madison
  7
KS-BOLD
 11
0.58
 21
0.7883333333333333
 31
0.0
100
AcDbText
  0
TEXT
  5
44
330
17
100
AcDbEntity
  8
G-ANNO-TTLB
100
AcDbText
 10
0.58
 20
0.5775
 30
0.0
 40
0.11499999999999999
  1
County, Alabama (site TBD, D-006)
  7
KS-BOLD
 11
0.58
 21
0.5775
 31
0.0
100
AcDbText
  0
LINE
  5
45
330
17
100
AcDbEntity
  8
G-ANNO-TTLB
100
AcDbLine
 10
5.2
 20
0.5
 30
0.0
 11
5.2
 21
1.45
 31
0.0
  0
TEXT
  5
46
330
17
100
AcDbEntity
  8
G-ANNO-TTLB
100
AcDbText
 10
5.28
 20
1.28
 30
0.0
 40
0.06999999999999999
  1
PHASE
  7
KS-REG
 11
5.28
 21
1.28
 31
0.0
100
AcDbText
  0
TEXT
  5
47
330
17
100
AcDbEntity
  8
G-ANNO-TTLB
100
AcDbText
 10
5.28
 20
0.9716666666666667
 30
0.0
 40
0.13
  1
PHASE 2
  7
KS-BOLD
 11
5.28
 21
0.9716666666666667
 31
0.0
100
AcDbText
  0
LINE
  5
48
330
17
100
AcDbEntity
  8
G-ANNO-TTLB
100
AcDbLine
 10
6.7
 20
0.5
 30
0.0
 11
6.7
 21
1.45
 31
0.0
  0
TEXT
  5
49
330
17
100
AcDbEntity
  8
G-ANNO-TTLB
100
AcDbText
 10
6.78
 20
1.28
 30
0.0
 40
0.06999999999999999
  1
SHEET TITLE
  7
KS-REG
 11
6.78
 21
1.28
 31
0.0
100
AcDbText
  0
TEXT
  5
4A
330
17
100
AcDbEntity
  8
G-ANNO-TTLB
100
AcDbText
 10
6.78
 20
0.9991666666666666
 30
0.0
 40
0.11499999999999999
  1
OVERALL FLOOR PLAN
  7
KS-BOLD
 11
6.78
 21
0.9991666666666666
 31
0.0
100
AcDbText
  0
TEXT
  5
4B
330
17
100
AcDbEntity
  8
G-ANNO-TTLB
100
AcDbText
 10
6.78
 20
0.7883333333333333
 30
0.0
 40
0.11499999999999999
  1
LEVEL 1 · BLOCK PLAN
  7
KS-BOLD
 11
6.78
 21
0.7883333333333333
 31
0.0
100
AcDbText
  0
LINE
  5
4C
330
17
100
AcDbEntity
  8
G-ANNO-TTLB
100
AcDbLine
 10
9.8
 20
0.5
 30
0.0
 11
9.8
 21
1.45
 31
0.0
  0
TEXT
  5
4D
330
17
100
AcDbEntity
  8
G-ANNO-TTLB
100
AcDbText
 10
9.88
 20
1.28
 30
0.0
 40
0.06999999999999999
  1
SCALE
  7
KS-REG
 11
9.88
 21
1.28
 31
0.0
100
AcDbText
  0
TEXT
  5
4E
330
17
100
AcDbEntity
  8
G-ANNO-TTLB
100
AcDbText
 10
9.88
 20
0.9716666666666667
 30
0.0
 40
0.13
  1
1/32" =
  7
KS-BOLD
 11
9.88
 21
0.9716666666666667
 31
0.0
100
AcDbText
  0
TEXT
  5
4F
330
17
100
AcDbEntity
  8
G-ANNO-TTLB
100
AcDbText
 10
9.88
 20
0.7333333333333334
 30
0.0
 40
0.13
  1
1'-0"
  7
KS-BOLD
 11
9.88
 21
0.7333333333333334
 31
0.0
100
AcDbText
  0
LINE
  5
50
330
17
100
AcDbEntity
  8
G-ANNO-TTLB
100
AcDbLine
 10
10.700000000000001
 20
0.5
 30
0.0
 11
10.700000000000001
 21
1.45
 31
0.0
  0
TEXT
  5
51
330
17
100
AcDbEntity
  8
G-ANNO-TTLB
100
AcDbText
 10
10.780000000000001
 20
1.28
 30
0.0
 40
0.06999999999999999
  1
DATE
  7
KS-REG
 11
10.780000000000001
 21
1.28
 31
0.0
100
AcDbText
  0
TEXT
  5
52
330
17
100
AcDbEntity
  8
G-ANNO-TTLB
100
AcDbText
 10
10.780000000000001
 20
0.9716666666666667
 30
0.0
 40
0.13
  1
October
  7
KS-BOLD
 11
10.780000000000001
 21
0.9716666666666667
 31
0.0
100
AcDbText
  0
TEXT
  5
53
330
17
100
AcDbEntity
  8
G-ANNO-TTLB
100
AcDbText
 10
10.780000000000001
 20
0.7333333333333334
 30
0.0
 40
0.13
  1
2026
  7
KS-BOLD
 11
10.780000000000001
 21
0.7333333333333334
 31
0.0
100
AcDbText
  0
LINE
  5
54
330
17
100
AcDbEntity
  8
G-ANNO-TTLB
100
AcDbLine
 10
12.15
 20
0.5
 30
0.0
 11
12.15
 21
1.45
 31
0.0
  0
TEXT
  5
55
330
17
100
AcDbEntity
  8
G-ANNO-TTLB
100
AcDbText
 10
12.23
 20
1.28
 30
0.0
 40
0.06999999999999999
  1
REV
  7
KS-REG
 11
12.23
 21
1.28
 31
0.0
100
AcDbText
  0
TEXT
  5
56
330
17
100
AcDbEntity
  8
G-ANNO-TTLB
100
AcDbText
 10
12.23
 20
0.9716666666666667
 30
0.0
 40
0.13
  1
A
  7
KS-BOLD
 11
12.23
 21
0.9716666666666667
 31
0.0
100
AcDbText
  0
LINE
  5
57
330
17
100
AcDbEntity
  8
G-ANNO-TTLB
100
AcDbLine
 10
12.9
 20
0.5
 30
0.0
 11
12.9
 21
1.45
 31
0.0
  0
TEXT
  5
58
330
17
100
AcDbEntity
  8
G-ANNO-TTLB
100
AcDbText
 10
12.98
 20
1.28
 30
0.0
 40
0.06999999999999999
  1
DRAWN BY
  7
KS-REG
 11
12.98
 21
1.28
 31
0.0
100
AcDbText
  0
TEXT
  5
59
330
17
100
AcDbEntity
  8
G-ANNO-TTLB
100
AcDbText
 10
12.98
 20
1.0358333333333332
 30
0.0
 40
0.095
  1
Drawn by KEYSTONE (AI) for
  7
KS-REG
 11
12.98
 21
1.0358333333333332
 31
0.0
100
AcDbText
  0
TEXT
  5
5A
330
17
100
AcDbEntity
  8
G-ANNO-TTLB
100
AcDbText
 10
12.98
 20
0.8616666666666665
 30
0.0
 40
0.095
  1
Shane Brazelton
  7
KS-REG
 11
12.98
 21
0.8616666666666665
 31
0.0
100
AcDbText
  0
LINE
  5
5B
330
17
100
AcDbEntity
  8
G-ANNO-TTLB
100
AcDbLine
 10
15.0
 20
0.5
 30
0.0
 11
15.0
 21
1.45
 31
0.0
  0
TEXT
  5
5C
330
17
100
AcDbEntity
  8
G-ANNO-TTLB
100
AcDbText
 10
15.08
 20
1.28
 30
0.0
 40
0.06999999999999999
  1
SHEET
  7
KS-REG
 11
15.08
 21
1.28
 31
0.0
100
AcDbText
  0
TEXT
  5
5D
330
17
100
AcDbEntity
  8
G-ANNO-TTLB
100
AcDbText
 10
15.75
 20
0.77
 30
0.0
 40
0.18
  1
P2-A-101
  7
KS-BOLD
 72
1
 11
15.75
 21
0.77
 31
0.0
100
AcDbText
  0
TEXT
  5
5E
330
17
100
AcDbEntity
  8
A-ANNO-TEXT
100
AcDbText
 10
1.12
 20
10.16
 30
0.0
 40
0.13999999999999999
  1
LEVEL 1 — OVERALL FLOOR PLAN
  7
KS-BOLD
 11
1.12
 21
10.16
 31
0.0
100
AcDbText
  0
TEXT
  5
5F
330
17
100
AcDbEntity
  8
A-ANNO-TEXT
100
AcDbText
 10
1.12
 20
9.9
 30
0.0
 40
0.08499999999999999
  1
SCHEMATIC — BLOCK PLAN · scale 1/32" = 1'-0" on 17 x 11 in · north approximate, site TBD
  7
KS-REG
 11
1.12
 21
9.9
 31
0.0
100
AcDbText
  0
LWPOLYLINE
  5
60
330
17
100
AcDbEntity
  8
A-WALL-BLDG
100
AcDbPolyline
 90
4
 70
1
 10
1.12
 20
2.63
 10
8.932500000000001
 20
2.63
 10
8.932500000000001
 20
9.504999999999999
 10
1.12
 20
9.504999999999999
  0
LINE
  5
61
330
17
100
AcDbEntity
  8
A-ANNO-DIMS
100
AcDbLine
 10
1.12
 20
2.34875
 30
0.0
 11
8.932500000000001
 21
2.34875
 31
0.0
  0
LINE
  5
62
330
17
100
AcDbEntity
  8
A-ANNO-DIMS
100
AcDbLine
 10
1.12
 20
2.270625
 30
0.0
 11
1.12
 21
2.426875
 31
0.0
  0
LINE
  5
63
330
17
100
AcDbEntity
  8
A-ANNO-DIMS
100
AcDbLine
 10
8.932500000000001
 20
2.270625
 30
0.0
 11
8.932500000000001
 21
2.426875
 31
0.0
  0
TEXT
  5
64
330
17
100
AcDbEntity
  8
A-ANNO-DIMS
100
AcDbText
 10
5.02625
 20
2.2087499999999998
 30
0.0
 40
0.06999999999999999
  1
250'-0"  (building 250 x 220 ft = 55,000 SF footprint)
  7
KS-REG
 72
1
 11
5.02625
 21
2.2087499999999998
 31
0.0
100
AcDbText
  0
LINE
  5
65
330
17
100
AcDbEntity
  8
A-ANNO-DIMS
100
AcDbLine
 10
0.8387500000000001
 20
2.63
 30
0.0
 11
0.8387500000000001
 21
9.504999999999999
 31
0.0
  0
LINE
  5
66
330
17
100
AcDbEntity
  8
A-ANNO-DIMS
100
AcDbLine
 10
0.7606250000000001
 20
2.63
 30
0.0
 11
0.9168750000000001
 21
2.63
 31
0.0
  0
LINE
  5
67
330
17
100
AcDbEntity
  8
A-ANNO-DIMS
100
AcDbLine
 10
0.7606250000000001
 20
9.504999999999999
 30
0.0
 11
0.9168750000000001
 21
9.504999999999999
 31
0.0
  0
TEXT
  5
68
330
17
100
AcDbEntity
  8
A-ANNO-DIMS
100
AcDbText
 10
0.77875
 20
6.0675
 30
0.0
 40
0.06999999999999999
  1
220'-0"
 50
90.0
  7
KS-REG
 72
1
 11
0.77875
 21
6.0675
 31
0.0
100
AcDbText
  0
LWPOLYLINE
  5
69
330
17
100
AcDbEntity
  8
A-SEAT-FIXD
100
AcDbPolyline
 90
4
 70
1
 10
4.291875
 20
3.301875
 10
8.370000000000001
 20
3.301875
 10
8.370000000000001
 20
8.833124999999999
 10
4.291875
 20
8.833124999999999
  0
LWPOLYLINE
  5
6A
330
17
100
AcDbEntity
  8
A-FLOR-MATS
100
AcDbPolyline
 90
4
 70
1
 10
4.291875
 20
3.8175
 10
7.854375
 20
3.8175
 10
7.854375
 20
8.317499999999999
 10
4.291875
 20
8.317499999999999
  0
LINE
  5
6B
330
17
100
AcDbEntity
  8
A-SEAT-FIXD
100
AcDbLine
 10
7.854375
 20
3.8175
 30
0.0
 11
8.370000000000001
 21
3.8175
 31
0.0
  0
LINE
  5
6C
330
17
100
AcDbEntity
  8
A-SEAT-FIXD
100
AcDbLine
 10
7.854375
 20
8.317499999999999
 30
0.0
 11
8.370000000000001
 21
8.317499999999999
 31
0.0
  0
LINE
  5
6D
330
17
100
AcDbEntity
  8
A-SEAT-FIXD
100
AcDbLine
 10
7.854375
 20
3.8175
 30
0.0
 11
7.854375
 21
8.317499999999999
 31
0.0
  0
LINE
  5
6E
330
17
100
AcDbEntity
  8
A-SEAT-TELE
100
AcDbLine
 10
4.291875
 20
8.614721598553372
 30
0.0
 11
4.371875
 21
8.614721598553372
 31
0.0
  0
LINE
  5
6F
330
17
100
AcDbEntity
  8
A-SEAT-TELE
100
AcDbLine
 10
4.421875
 20
8.614721598553372
 30
0.0
 11
4.501875
 21
8.614721598553372
 31
0.0
  0
LINE
  5
70
330
17
100
AcDbEntity
  8
A-SEAT-TELE
100
AcDbLine
 10
4.551875
 20
8.614721598553372
 30
0.0
 11
4.631875
 21
8.614721598553372
 31
0.0
  0
LINE
  5
71
330
17
100
AcDbEntity
  8
A-SEAT-TELE
100
AcDbLine
 10
4.681875
 20
8.614721598553372
 30
0.0
 11
4.761875
 21
8.614721598553372
 31
0.0
  0
LINE
  5
72
330
17
100
AcDbEntity
  8
A-SEAT-TELE
100
AcDbLine
 10
4.811875000000001
 20
8.614721598553372
 30
0.0
 11
4.891875
 21
8.614721598553372
 31
0.0
  0
LINE
  5
73
330
17
100
AcDbEntity
  8
A-SEAT-TELE
100
AcDbLine
 10
4.9418750000000005
 20
8.614721598553372
 30
0.0
 11
5.021875
 21
8.614721598553372
 31
0.0
  0
LINE
  5
74
330
17
100
AcDbEntity
  8
A-SEAT-TELE
100
AcDbLine
 10
5.071875
 20
8.614721598553372
 30
0.0
 11
5.151875
 21
8.614721598553372
 31
0.0
  0
LINE
  5
75
330
17
100
AcDbEntity
  8
A-SEAT-TELE
100
AcDbLine
 10
5.201875
 20
8.614721598553372
 30
0.0
 11
5.281875
 21
8.614721598553372
 31
0.0
  0
LINE
  5
76
330
17
100
AcDbEntity
  8
A-SEAT-TELE
100
AcDbLine
 10
5.331875
 20
8.614721598553372
 30
0.0
 11
5.411875
 21
8.614721598553372
 31
0.0
  0
LINE
  5
77
330
17
100
AcDbEntity
  8
A-SEAT-TELE
100
AcDbLine
 10
5.461875
 20
8.614721598553372
 30
0.0
 11
5.541875
 21
8.614721598553372
 31
0.0
  0
LINE
  5
78
330
17
100
AcDbEntity
  8
A-SEAT-TELE
100
AcDbLine
 10
5.591875
 20
8.614721598553372
 30
0.0
 11
5.671875
 21
8.614721598553372
 31
0.0
  0
LINE
  5
79
330
17
100
AcDbEntity
  8
A-SEAT-TELE
100
AcDbLine
 10
5.721875000000001
 20
8.614721598553372
 30
0.0
 11
5.801875000000001
 21
8.614721598553372
 31
0.0
  0
LINE
  5
7A
330
17
100
AcDbEntity
  8
A-SEAT-TELE
100
AcDbLine
 10
5.851875000000001
 20
8.614721598553372
 30
0.0
 11
5.931875000000001
 21
8.614721598553372
 31
0.0
  0
LINE
  5
7B
330
17
100
AcDbEntity
  8
A-SEAT-TELE
100
AcDbLine
 10
5.9818750000000005
 20
8.614721598553372
 30
0.0
 11
6.061875000000001
 21
8.614721598553372
 31
0.0
  0
LINE
  5
7C
330
17
100
AcDbEntity
  8
A-SEAT-TELE
100
AcDbLine
 10
6.111875000000001
 20
8.614721598553372
 30
0.0
 11
6.191875000000001
 21
8.614721598553372
 31
0.0
  0
LINE
  5
7D
330
17
100
AcDbEntity
  8
A-SEAT-TELE
100
AcDbLine
 10
6.241875000000001
 20
8.614721598553372
 30
0.0
 11
6.321875
 21
8.614721598553372
 31
0.0
  0
LINE
  5
7E
330
17
100
AcDbEntity
  8
A-SEAT-TELE
100
AcDbLine
 10
6.371875000000001
 20
8.614721598553372
 30
0.0
 11
6.451875000000001
 21
8.614721598553372
 31
0.0
  0
LINE
  5
7F
330
17
100
AcDbEntity
  8
A-SEAT-TELE
100
AcDbLine
 10
6.501875
 20
8.614721598553372
 30
0.0
 11
6.581875
 21
8.614721598553372
 31
0.0
  0
LINE
  5
80
330
17
100
AcDbEntity
  8
A-SEAT-TELE
100
AcDbLine
 10
6.631875000000001
 20
8.614721598553372
 30
0.0
 11
6.711875000000001
 21
8.614721598553372
 31
0.0
  0
LINE
  5
81
330
17
100
AcDbEntity
  8
A-SEAT-TELE
100
AcDbLine
 10
6.761875
 20
8.614721598553372
 30
0.0
 11
6.841875
 21
8.614721598553372
 31
0.0
  0
LINE
  5
82
330
17
100
AcDbEntity
  8
A-SEAT-TELE
100
AcDbLine
 10
6.891875000000001
 20
8.614721598553372
 30
0.0
 11
6.971875000000001
 21
8.614721598553372
 31
0.0
  0
LINE
  5
83
330
17
100
AcDbEntity
  8
A-SEAT-TELE
100
AcDbLine
 10
7.021875
 20
8.614721598553372
 30
0.0
 11
7.101875
 21
8.614721598553372
 31
0.0
  0
LINE
  5
84
330
17
100
AcDbEntity
  8
A-SEAT-TELE
100
AcDbLine
 10
7.151875
 20
8.614721598553372
 30
0.0
 11
7.2318750000000005
 21
8.614721598553372
 31
0.0
  0
LINE
  5
85
330
17
100
AcDbEntity
  8
A-SEAT-TELE
100
AcDbLine
 10
7.281874999999999
 20
8.614721598553372
 30
0.0
 11
7.3618749999999995
 21
8.614721598553372
 31
0.0
  0
LINE
  5
86
330
17
100
AcDbEntity
  8
A-SEAT-TELE
100
AcDbLine
 10
7.411875
 20
8.614721598553372
 30
0.0
 11
7.491875
 21
8.614721598553372
 31
0.0
  0
LINE
  5
87
330
17
100
AcDbEntity
  8
A-SEAT-TELE
100
AcDbLine
 10
7.541874999999999
 20
8.614721598553372
 30
0.0
 11
7.621874999999999
 21
8.614721598553372
 31
0.0
  0
LINE
  5
88
330
17
100
AcDbEntity
  8
A-SEAT-TELE
100
AcDbLine
 10
7.671875
 20
8.614721598553372
 30
0.0
 11
7.751875
 21
8.614721598553372
 31
0.0
  0
LINE
  5
89
330
17
100
AcDbEntity
  8
A-SEAT-TELE
100
AcDbLine
 10
7.801874999999999
 20
8.614721598553372
 30
0.0
 11
7.881874999999999
 21
8.614721598553372
 31
0.0
  0
LINE
  5
8A
330
17
100
AcDbEntity
  8
A-SEAT-TELE
100
AcDbLine
 10
7.931875
 20
8.614721598553372
 30
0.0
 11
8.011875
 21
8.614721598553372
 31
0.0
  0
LINE
  5
8B
330
17
100
AcDbEntity
  8
A-SEAT-TELE
100
AcDbLine
 10
8.061874999999999
 20
8.614721598553372
 30
0.0
 11
8.141874999999999
 21
8.614721598553372
 31
0.0
  0
LINE
  5
8C
330
17
100
AcDbEntity
  8
A-SEAT-TELE
100
AcDbLine
 10
8.151596598553372
 20
8.614721598553372
 30
0.0
 11
8.151596598553372
 21
8.534721598553372
 31
0.0
  0
LINE
  5
8D
330
17
100
AcDbEntity
  8
A-SEAT-TELE
100
AcDbLine
 10
8.151596598553372
 20
8.48472159855337
 30
0.0
 11
8.151596598553372
 21
8.40472159855337
 31
0.0
  0
LINE
  5
8E
330
17
100
AcDbEntity
  8
A-SEAT-TELE
100
AcDbLine
 10
8.151596598553372
 20
8.354721598553372
 30
0.0
 11
8.151596598553372
 21
8.274721598553372
 31
0.0
  0
LINE
  5
8F
330
17
100
AcDbEntity
  8
A-SEAT-TELE
100
AcDbLine
 10
8.151596598553372
 20
8.224721598553371
 30
0.0
 11
8.151596598553372
 21
8.144721598553371
 31
0.0
  0
LINE
  5
90
330
17
100
AcDbEntity
  8
A-SEAT-TELE
100
AcDbLine
 10
8.151596598553372
 20
8.094721598553372
 30
0.0
 11
8.151596598553372
 21
8.014721598553372
 31
0.0
  0
LINE
  5
91
330
17
100
AcDbEntity
  8
A-SEAT-TELE
100
AcDbLine
 10
8.151596598553372
 20
7.964721598553371
 30
0.0
 11
8.151596598553372
 21
7.884721598553371
 31
0.0
  0
LINE
  5
92
330
17
100
AcDbEntity
  8
A-SEAT-TELE
100
AcDbLine
 10
8.151596598553372
 20
7.834721598553371
 30
0.0
 11
8.151596598553372
 21
7.754721598553371
 31
0.0
  0
LINE
  5
93
330
17
100
AcDbEntity
  8
A-SEAT-TELE
100
AcDbLine
 10
8.151596598553372
 20
7.7047215985533715
 30
0.0
 11
8.151596598553372
 21
7.624721598553371
 31
0.0
  0
LINE
  5
94
330
17
100
AcDbEntity
  8
A-SEAT-TELE
100
AcDbLine
 10
8.151596598553372
 20
7.574721598553372
 30
0.0
 11
8.151596598553372
 21
7.4947215985533715
 31
0.0
  0
LINE
  5
95
330
17
100
AcDbEntity
  8
A-SEAT-TELE
100
AcDbLine
 10
8.151596598553372
 20
7.444721598553372
 30
0.0
 11
8.151596598553372
 21
7.364721598553372
 31
0.0
  0
LINE
  5
96
330
17
100
AcDbEntity
  8
A-SEAT-TELE
100
AcDbLine
 10
8.151596598553372
 20
7.314721598553371
 30
0.0
 11
8.151596598553372
 21
7.234721598553371
 31
0.0
  0
LINE
  5
97
330
17
100
AcDbEntity
  8
A-SEAT-TELE
100
AcDbLine
 10
8.151596598553372
 20
7.184721598553371
 30
0.0
 11
8.151596598553372
 21
7.104721598553371
 31
0.0
  0
LINE
  5
98
330
17
100
AcDbEntity
  8
A-SEAT-TELE
100
AcDbLine
 10
8.151596598553372
 20
7.054721598553371
 30
0.0
 11
8.151596598553372
 21
6.974721598553371
 31
0.0
  0
LINE
  5
99
330
17
100
AcDbEntity
  8
A-SEAT-TELE
100
AcDbLine
 10
8.151596598553372
 20
6.924721598553371
 30
0.0
 11
8.151596598553372
 21
6.844721598553371
 31
0.0
  0
LINE
  5
9A
330
17
100
AcDbEntity
  8
A-SEAT-TELE
100
AcDbLine
 10
8.151596598553372
 20
6.794721598553371
 30
0.0
 11
8.151596598553372
 21
6.714721598553371
 31
0.0
  0
LINE
  5
9B
330
17
100
AcDbEntity
  8
A-SEAT-TELE
100
AcDbLine
 10
8.151596598553372
 20
6.6647215985533705
 30
0.0
 11
8.151596598553372
 21
6.5847215985533705
 31
0.0
  0
LINE
  5
9C
330
17
100
AcDbEntity
  8
A-SEAT-TELE
100
AcDbLine
 10
8.151596598553372
 20
6.5347215985533715
 30
0.0
 11
8.151596598553372
 21
6.4547215985533715
 31
0.0
  0
LINE
  5
9D
330
17
100
AcDbEntity
  8
A-SEAT-TELE
100
AcDbLine
 10
8.151596598553372
 20
6.404721598553371
 30
0.0
 11
8.151596598553372
 21
6.324721598553371
 31
0.0
  0
LINE
  5
9E
330
17
100
AcDbEntity
  8
A-SEAT-TELE
100
AcDbLine
 10
8.151596598553372
 20
6.274721598553372
 30
0.0
 11
8.151596598553372
 21
6.194721598553372
 31
0.0
  0
LINE
  5
9F
330
17
100
AcDbEntity
  8
A-SEAT-TELE
100
AcDbLine
 10
8.151596598553372
 20
6.144721598553371
 30
0.0
 11
8.151596598553372
 21
6.064721598553371
 31
0.0
  0
LINE
  5
A0
330
17
100
AcDbEntity
  8
A-SEAT-TELE
100
AcDbLine
 10
8.151596598553372
 20
6.014721598553372
 30
0.0
 11
8.151596598553372
 21
5.934721598553372
 31
0.0
  0
LINE
  5
A1
330
17
100
AcDbEntity
  8
A-SEAT-TELE
100
AcDbLine
 10
8.151596598553372
 20
5.884721598553371
 30
0.0
 11
8.151596598553372
 21
5.804721598553371
 31
0.0
  0
LINE
  5
A2
330
17
100
AcDbEntity
  8
A-SEAT-TELE
100
AcDbLine
 10
8.151596598553372
 20
5.754721598553372
 30
0.0
 11
8.151596598553372
 21
5.674721598553372
 31
0.0
  0
LINE
  5
A3
330
17
100
AcDbEntity
  8
A-SEAT-TELE
100
AcDbLine
 10
8.151596598553372
 20
5.624721598553371
 30
0.0
 11
8.151596598553372
 21
5.544721598553371
 31
0.0
  0
LINE
  5
A4
330
17
100
AcDbEntity
  8
A-SEAT-TELE
100
AcDbLine
 10
8.151596598553372
 20
5.494721598553372
 30
0.0
 11
8.151596598553372
 21
5.414721598553372
 31
0.0
  0
LINE
  5
A5
330
17
100
AcDbEntity
  8
A-SEAT-TELE
100
AcDbLine
 10
8.151596598553372
 20
5.364721598553372
 30
0.0
 11
8.151596598553372
 21
5.2847215985533715
 31
0.0
  0
LINE
  5
A6
330
17
100
AcDbEntity
  8
A-SEAT-TELE
100
AcDbLine
 10
8.151596598553372
 20
5.234721598553373
 30
0.0
 11
8.151596598553372
 21
5.1547215985533725
 31
0.0
  0
LINE
  5
A7
330
17
100
AcDbEntity
  8
A-SEAT-TELE
100
AcDbLine
 10
8.151596598553372
 20
5.104721598553372
 30
0.0
 11
8.151596598553372
 21
5.024721598553372
 31
0.0
  0
LINE
  5
A8
330
17
100
AcDbEntity
  8
A-SEAT-TELE
100
AcDbLine
 10
8.151596598553372
 20
4.974721598553373
 30
0.0
 11
8.151596598553372
 21
4.894721598553373
 31
0.0
  0
LINE
  5
A9
330
17
100
AcDbEntity
  8
A-SEAT-TELE
100
AcDbLine
 10
8.151596598553372
 20
4.844721598553372
 30
0.0
 11
8.151596598553372
 21
4.764721598553372
 31
0.0
  0
LINE
  5
AA
330
17
100
AcDbEntity
  8
A-SEAT-TELE
100
AcDbLine
 10
8.151596598553372
 20
4.714721598553373
 30
0.0
 11
8.151596598553372
 21
4.634721598553373
 31
0.0
  0
LINE
  5
AB
330
17
100
AcDbEntity
  8
A-SEAT-TELE
100
AcDbLine
 10
8.151596598553372
 20
4.584721598553372
 30
0.0
 11
8.151596598553372
 21
4.504721598553372
 31
0.0
  0
LINE
  5
AC
330
17
100
AcDbEntity
  8
A-SEAT-TELE
100
AcDbLine
 10
8.151596598553372
 20
4.454721598553372
 30
0.0
 11
8.151596598553372
 21
4.374721598553372
 31
0.0
  0
LINE
  5
AD
330
17
100
AcDbEntity
  8
A-SEAT-TELE
100
AcDbLine
 10
8.151596598553372
 20
4.3247215985533725
 30
0.0
 11
8.151596598553372
 21
4.244721598553372
 31
0.0
  0
LINE
  5
AE
330
17
100
AcDbEntity
  8
A-SEAT-TELE
100
AcDbLine
 10
8.151596598553372
 20
4.194721598553373
 30
0.0
 11
8.151596598553372
 21
4.1147215985533725
 31
0.0
  0
LINE
  5
AF
330
17
100
AcDbEntity
  8
A-SEAT-TELE
100
AcDbLine
 10
8.151596598553372
 20
4.064721598553373
 30
0.0
 11
8.151596598553372
 21
3.9847215985533726
 31
0.0
  0
LINE
  5
B0
330
17
100
AcDbEntity
  8
A-SEAT-TELE
100
AcDbLine
 10
8.151596598553372
 20
3.934721598553373
 30
0.0
 11
8.151596598553372
 21
3.8547215985533727
 31
0.0
  0
LINE
  5
B1
330
17
100
AcDbEntity
  8
A-SEAT-TELE
100
AcDbLine
 10
8.151596598553372
 20
3.804721598553373
 30
0.0
 11
8.151596598553372
 21
3.724721598553373
 31
0.0
  0
LINE
  5
B2
330
17
100
AcDbEntity
  8
A-SEAT-TELE
100
AcDbLine
 10
8.151596598553372
 20
3.674721598553373
 30
0.0
 11
8.151596598553372
 21
3.594721598553373
 31
0.0
  0
LINE
  5
B3
330
17
100
AcDbEntity
  8
A-SEAT-TELE
100
AcDbLine
 10
8.151596598553372
 20
3.544721598553373
 30
0.0
 11
8.151596598553372
 21
3.520278401446628
 31
0.0
  0
LINE
  5
B4
330
17
100
AcDbEntity
  8
A-SEAT-TELE
100
AcDbLine
 10
8.151596598553372
 20
3.520278401446628
 30
0.0
 11
8.071596598553372
 21
3.520278401446628
 31
0.0
  0
LINE
  5
B5
330
17
100
AcDbEntity
  8
A-SEAT-TELE
100
AcDbLine
 10
8.021596598553371
 20
3.520278401446628
 30
0.0
 11
7.941596598553372
 21
3.520278401446628
 31
0.0
  0
LINE
  5
B6
330
17
100
AcDbEntity
  8
A-SEAT-TELE
100
AcDbLine
 10
7.891596598553372
 20
3.520278401446628
 30
0.0
 11
7.811596598553372
 21
3.520278401446628
 31
0.0
  0
LINE
  5
B7
330
17
100
AcDbEntity
  8
A-SEAT-TELE
100
AcDbLine
 10
7.761596598553372
 20
3.520278401446628
 30
0.0
 11
7.681596598553372
 21
3.520278401446628
 31
0.0
  0
LINE
  5
B8
330
17
100
AcDbEntity
  8
A-SEAT-TELE
100
AcDbLine
 10
7.631596598553372
 20
3.520278401446628
 30
0.0
 11
7.551596598553372
 21
3.520278401446628
 31
0.0
  0
LINE
  5
B9
330
17
100
AcDbEntity
  8
A-SEAT-TELE
100
AcDbLine
 10
7.5015965985533715
 20
3.520278401446628
 30
0.0
 11
7.421596598553371
 21
3.520278401446628
 31
0.0
  0
LINE
  5
BA
330
17
100
AcDbEntity
  8
A-SEAT-TELE
100
AcDbLine
 10
7.371596598553372
 20
3.520278401446628
 30
0.0
 11
7.2915965985533715
 21
3.520278401446628
 31
0.0
  0
LINE
  5
BB
330
17
100
AcDbEntity
  8
A-SEAT-TELE
100
AcDbLine
 10
7.241596598553372
 20
3.520278401446628
 30
0.0
 11
7.161596598553372
 21
3.520278401446628
 31
0.0
  0
LINE
  5
BC
330
17
100
AcDbEntity
  8
A-SEAT-TELE
100
AcDbLine
 10
7.111596598553372
 20
3.520278401446628
 30
0.0
 11
7.031596598553372
 21
3.520278401446628
 31
0.0
  0
LINE
  5
BD
330
17
100
AcDbEntity
  8
A-SEAT-TELE
100
AcDbLine
 10
6.981596598553372
 20
3.520278401446628
 30
0.0
 11
6.901596598553372
 21
3.520278401446628
 31
0.0
  0
LINE
  5
BE
330
17
100
AcDbEntity
  8
A-SEAT-TELE
100
AcDbLine
 10
6.851596598553371
 20
3.520278401446628
 30
0.0
 11
6.771596598553371
 21
3.520278401446628
 31
0.0
  0
LINE
  5
BF
330
17
100
AcDbEntity
  8
A-SEAT-TELE
100
AcDbLine
 10
6.721596598553371
 20
3.520278401446628
 30
0.0
 11
6.641596598553371
 21
3.520278401446628
 31
0.0
  0
LINE
  5
C0
330
17
100
AcDbEntity
  8
A-SEAT-TELE
100
AcDbLine
 10
6.591596598553371
 20
3.520278401446628
 30
0.0
 11
6.511596598553371
 21
3.520278401446628
 31
0.0
  0
LINE
  5
C1
330
17
100
AcDbEntity
  8
A-SEAT-TELE
100
AcDbLine
 10
6.461596598553371
 20
3.520278401446628
 30
0.0
 11
6.381596598553371
 21
3.520278401446628
 31
0.0
  0
LINE
  5
C2
330
17
100
AcDbEntity
  8
A-SEAT-TELE
100
AcDbLine
 10
6.3315965985533715
 20
3.520278401446628
 30
0.0
 11
6.2515965985533715
 21
3.520278401446628
 31
0.0
  0
LINE
  5
C3
330
17
100
AcDbEntity
  8
A-SEAT-TELE
100
AcDbLine
 10
6.201596598553371
 20
3.520278401446628
 30
0.0
 11
6.121596598553371
 21
3.520278401446628
 31
0.0
  0
LINE
  5
C4
330
17
100
AcDbEntity
  8
A-SEAT-TELE
100
AcDbLine
 10
6.071596598553372
 20
3.520278401446628
 30
0.0
 11
5.991596598553372
 21
3.520278401446628
 31
0.0
  0
LINE
  5
C5
330
17
100
AcDbEntity
  8
A-SEAT-TELE
100
AcDbLine
 10
5.941596598553371
 20
3.520278401446628
 30
0.0
 11
5.861596598553371
 21
3.520278401446628
 31
0.0
  0
LINE
  5
C6
330
17
100
AcDbEntity
  8
A-SEAT-TELE
100
AcDbLine
 10
5.811596598553372
 20
3.520278401446628
 30
0.0
 11
5.731596598553372
 21
3.520278401446628
 31
0.0
  0
LINE
  5
C7
330
17
100
AcDbEntity
  8
A-SEAT-TELE
100
AcDbLine
 10
5.681596598553371
 20
3.520278401446628
 30
0.0
 11
5.601596598553371
 21
3.520278401446628
 31
0.0
  0
LINE
  5
C8
330
17
100
AcDbEntity
  8
A-SEAT-TELE
100
AcDbLine
 10
5.551596598553372
 20
3.520278401446628
 30
0.0
 11
5.471596598553372
 21
3.520278401446628
 31
0.0
  0
LINE
  5
C9
330
17
100
AcDbEntity
  8
A-SEAT-TELE
100
AcDbLine
 10
5.421596598553371
 20
3.520278401446628
 30
0.0
 11
5.341596598553371
 21
3.520278401446628
 31
0.0
  0
LINE
  5
CA
330
17
100
AcDbEntity
  8
A-SEAT-TELE
100
AcDbLine
 10
5.291596598553372
 20
3.520278401446628
 30
0.0
 11
5.211596598553372
 21
3.520278401446628
 31
0.0
  0
LINE
  5
CB
330
17
100
AcDbEntity
  8
A-SEAT-TELE
100
AcDbLine
 10
5.161596598553372
 20
3.520278401446628
 30
0.0
 11
5.0815965985533715
 21
3.520278401446628
 31
0.0
  0
LINE
  5
CC
330
17
100
AcDbEntity
  8
A-SEAT-TELE
100
AcDbLine
 10
5.031596598553373
 20
3.520278401446628
 30
0.0
 11
4.9515965985533725
 21
3.520278401446628
 31
0.0
  0
LINE
  5
CD
330
17
100
AcDbEntity
  8
A-SEAT-TELE
100
AcDbLine
 10
4.901596598553372
 20
3.520278401446628
 30
0.0
 11
4.821596598553372
 21
3.520278401446628
 31
0.0
  0
LINE
  5
CE
330
17
100
AcDbEntity
  8
A-SEAT-TELE
100
AcDbLine
 10
4.771596598553373
 20
3.520278401446628
 30
0.0
 11
4.691596598553373
 21
3.520278401446628
 31
0.0
  0
LINE
  5
CF
330
17
100
AcDbEntity
  8
A-SEAT-TELE
100
AcDbLine
 10
4.641596598553372
 20
3.520278401446628
 30
0.0
 11
4.561596598553372
 21
3.520278401446628
 31
0.0
  0
LINE
  5
D0
330
17
100
AcDbEntity
  8
A-SEAT-TELE
100
AcDbLine
 10
4.511596598553373
 20
3.520278401446628
 30
0.0
 11
4.431596598553373
 21
3.520278401446628
 31
0.0
  0
LINE
  5
D1
330
17
100
AcDbEntity
  8
A-SEAT-TELE
100
AcDbLine
 10
4.381596598553372
 20
3.520278401446628
 30
0.0
 11
4.301596598553372
 21
3.520278401446628
 31
0.0
  0
TEXT
  5
D2
330
17
100
AcDbEntity
  8
A-AREA-IDEN
100
AcDbText
 10
4.385625
 20
8.684687499999999
 30
0.0
 40
0.054000000000000006
  1
LOWER TIER (N) · FIXED
  7
KS-BOLD
 11
4.385625
 21
8.684687499999999
 31
0.0
100
AcDbText
  0
TEXT
  5
D3
330
17
100
AcDbEntity
  8
A-AREA-IDEN
100
AcDbText
 10
4.385625
 20
3.3803124999999996
 30
0.0
 40
0.054000000000000006
  1
LOWER TIER (S) · FIXED
  7
KS-BOLD
 11
4.385625
 21
3.3803124999999996
 31
0.0
100
AcDbText
  0
TEXT
  5
D4
330
17
100
AcDbEntity
  8
A-AREA-IDEN
100
AcDbText
 10
8.291562500000001
 20
5.4425
 30
0.0
 40
0.054000000000000006
  1
LOWER TIER (E) · FIXED
 50
90.0
  7
KS-BOLD
 72
1
 11
8.291562500000001
 21
5.4425
 31
0.0
100
AcDbText
  0
LWPOLYLINE
  5
D5
330
17
100
AcDbEntity
  8
A-FLOR-MATS
100
AcDbPolyline
 90
4
 70
1
 10
4.604375
 20
6.22375
 10
5.916875
 20
6.22375
 10
5.916875
 20
7.53625
 10
4.604375
 20
7.53625
  0
TEXT
  5
D6
330
17
100
AcDbEntity
  8
A-AREA-IDEN
100
AcDbText
 10
4.666875
 20
7.368125
 30
0.0
 40
0.062
  1
M1
  7
KS-BOLD
 11
4.666875
 21
7.368125
 31
0.0
100
AcDbText
  0
LWPOLYLINE
  5
D7
330
17
100
AcDbEntity
  8
A-FLOR-MATS
100
AcDbPolyline
 90
4
 70
1
 10
6.229375
 20
6.22375
 10
7.541875
 20
6.22375
 10
7.541875
 20
7.53625
 10
6.229375
 20
7.53625
  0
TEXT
  5
D8
330
17
100
AcDbEntity
  8
A-AREA-IDEN
100
AcDbText
 10
7.479375
 20
7.368125
 30
0.0
 40
0.062
  1
M2
  7
KS-BOLD
 72
2
 11
7.479375
 21
7.368125
 31
0.0
100
AcDbText
  0
LWPOLYLINE
  5
D9
330
17
100
AcDbEntity
  8
A-FLOR-MATS
100
AcDbPolyline
 90
4
 70
1
 10
4.604375
 20
4.59875
 10
5.916875
 20
4.59875
 10
5.916875
 20
5.91125
 10
4.604375
 20
5.91125
  0
TEXT
  5
DA
330
17
100
AcDbEntity
  8
A-AREA-IDEN
100
AcDbText
 10
4.666875
 20
5.743125
 30
0.0
 40
0.062
  1
M3
  7
KS-BOLD
 11
4.666875
 21
5.743125
 31
0.0
100
AcDbText
  0
LWPOLYLINE
  5
DB
330
17
100
AcDbEntity
  8
A-FLOR-MATS
100
AcDbPolyline
 90
4
 70
1
 10
6.229375
 20
4.59875
 10
7.541875
 20
4.59875
 10
7.541875
 20
5.91125
 10
6.229375
 20
5.91125
  0
TEXT
  5
DC
330
17
100
AcDbEntity
  8
A-AREA-IDEN
100
AcDbText
 10
7.479375
 20
5.743125
 30
0.0
 40
0.062
  1
M4
  7
KS-BOLD
 72
2
 11
7.479375
 21
5.743125
 31
0.0
100
AcDbText
  0
LINE
  5
DD
330
17
100
AcDbEntity
  8
A-FLOR-CORT
100
AcDbLine
 10
5.291875
 20
4.755
 30
0.0
 11
5.361875
 21
4.755
 31
0.0
  0
LINE
  5
DE
330
17
100
AcDbEntity
  8
A-FLOR-CORT
100
AcDbLine
 10
5.401875
 20
4.755
 30
0.0
 11
5.471875
 21
4.755
 31
0.0
  0
LINE
  5
DF
330
17
100
AcDbEntity
  8
A-FLOR-CORT
100
AcDbLine
 10
5.511875
 20
4.755
 30
0.0
 11
5.581875
 21
4.755
 31
0.0
  0
LINE
  5
E0
330
17
100
AcDbEntity
  8
A-FLOR-CORT
100
AcDbLine
 10
5.621875
 20
4.755
 30
0.0
 11
5.6918750000000005
 21
4.755
 31
0.0
  0
LINE
  5
E1
330
17
100
AcDbEntity
  8
A-FLOR-CORT
100
AcDbLine
 10
5.7318750000000005
 20
4.755
 30
0.0
 11
5.801875
 21
4.755
 31
0.0
  0
LINE
  5
E2
330
17
100
AcDbEntity
  8
A-FLOR-CORT
100
AcDbLine
 10
5.841875
 20
4.755
 30
0.0
 11
5.911875
 21
4.755
 31
0.0
  0
LINE
  5
E3
330
17
100
AcDbEntity
  8
A-FLOR-CORT
100
AcDbLine
 10
5.951875
 20
4.755
 30
0.0
 11
6.0218750000000005
 21
4.755
 31
0.0
  0
LINE
  5
E4
330
17
100
AcDbEntity
  8
A-FLOR-CORT
100
AcDbLine
 10
6.061875000000001
 20
4.755
 30
0.0
 11
6.131875000000001
 21
4.755
 31
0.0
  0
LINE
  5
E5
330
17
100
AcDbEntity
  8
A-FLOR-CORT
100
AcDbLine
 10
6.171875
 20
4.755
 30
0.0
 11
6.241875
 21
4.755
 31
0.0
  0
LINE
  5
E6
330
17
100
AcDbEntity
  8
A-FLOR-CORT
100
AcDbLine
 10
6.281875
 20
4.755
 30
0.0
 11
6.351875000000001
 21
4.755
 31
0.0
  0
LINE
  5
E7
330
17
100
AcDbEntity
  8
A-FLOR-CORT
100
AcDbLine
 10
6.391875000000001
 20
4.755
 30
0.0
 11
6.461875000000001
 21
4.755
 31
0.0
  0
LINE
  5
E8
330
17
100
AcDbEntity
  8
A-FLOR-CORT
100
AcDbLine
 10
6.501875000000001
 20
4.755
 30
0.0
 11
6.571875
 21
4.755
 31
0.0
  0
LINE
  5
E9
330
17
100
AcDbEntity
  8
A-FLOR-CORT
100
AcDbLine
 10
6.611875000000001
 20
4.755
 30
0.0
 11
6.681875000000001
 21
4.755
 31
0.0
  0
LINE
  5
EA
330
17
100
AcDbEntity
  8
A-FLOR-CORT
100
AcDbLine
 10
6.721875000000001
 20
4.755
 30
0.0
 11
6.791875000000001
 21
4.755
 31
0.0
  0
LINE
  5
EB
330
17
100
AcDbEntity
  8
A-FLOR-CORT
100
AcDbLine
 10
6.831875000000001
 20
4.755
 30
0.0
 11
6.854375
 21
4.755
 31
0.0
  0
LINE
  5
EC
330
17
100
AcDbEntity
  8
A-FLOR-CORT
100
AcDbLine
 10
6.854375
 20
4.755
 30
0.0
 11
6.854375
 21
4.825
 31
0.0
  0
LINE
  5
ED
330
17
100
AcDbEntity
  8
A-FLOR-CORT
100
AcDbLine
 10
6.854375
 20
4.865
 30
0.0
 11
6.854375
 21
4.935
 31
0.0
  0
LINE
  5
EE
330
17
100
AcDbEntity
  8
A-FLOR-CORT
100
AcDbLine
 10
6.854375
 20
4.975
 30
0.0
 11
6.854375
 21
5.045
 31
0.0
  0
LINE
  5
EF
330
17
100
AcDbEntity
  8
A-FLOR-CORT
100
AcDbLine
 10
6.854375
 20
5.085
 30
0.0
 11
6.854375
 21
5.155
 31
0.0
  0
LINE
  5
F0
330
17
100
AcDbEntity
  8
A-FLOR-CORT
100
AcDbLine
 10
6.854375
 20
5.195
 30
0.0
 11
6.854375
 21
5.265
 31
0.0
  0
LINE
  5
F1
330
17
100
AcDbEntity
  8
A-FLOR-CORT
100
AcDbLine
 10
6.854375
 20
5.305
 30
0.0
 11
6.854375
 21
5.375
 31
0.0
  0
LINE
  5
F2
330
17
100
AcDbEntity
  8
A-FLOR-CORT
100
AcDbLine
 10
6.854375
 20
5.415
 30
0.0
 11
6.854375
 21
5.485
 31
0.0
  0
LINE
  5
F3
330
17
100
AcDbEntity
  8
A-FLOR-CORT
100
AcDbLine
 10
6.854375
 20
5.525
 30
0.0
 11
6.854375
 21
5.595000000000001
 31
0.0
  0
LINE
  5
F4
330
17
100
AcDbEntity
  8
A-FLOR-CORT
100
AcDbLine
 10
6.854375
 20
5.635
 30
0.0
 11
6.854375
 21
5.705
 31
0.0
  0
LINE
  5
F5
330
17
100
AcDbEntity
  8
A-FLOR-CORT
100
AcDbLine
 10
6.854375
 20
5.745
 30
0.0
 11
6.854375
 21
5.815
 31
0.0
  0
LINE
  5
F6
330
17
100
AcDbEntity
  8
A-FLOR-CORT
100
AcDbLine
 10
6.854375
 20
5.855
 30
0.0
 11
6.854375
 21
5.925000000000001
 31
0.0
  0
LINE
  5
F7
330
17
100
AcDbEntity
  8
A-FLOR-CORT
100
AcDbLine
 10
6.854375
 20
5.965000000000001
 30
0.0
 11
6.854375
 21
6.035
 31
0.0
  0
LINE
  5
F8
330
17
100
AcDbEntity
  8
A-FLOR-CORT
100
AcDbLine
 10
6.854375
 20
6.075000000000001
 30
0.0
 11
6.854375
 21
6.1450000000000005
 31
0.0
  0
LINE
  5
F9
330
17
100
AcDbEntity
  8
A-FLOR-CORT
100
AcDbLine
 10
6.854375
 20
6.1850000000000005
 30
0.0
 11
6.854375
 21
6.255000000000001
 31
0.0
  0
LINE
  5
FA
330
17
100
AcDbEntity
  8
A-FLOR-CORT
100
AcDbLine
 10
6.854375
 20
6.295000000000001
 30
0.0
 11
6.854375
 21
6.365000000000001
 31
0.0
  0
LINE
  5
FB
330
17
100
AcDbEntity
  8
A-FLOR-CORT
100
AcDbLine
 10
6.854375
 20
6.405000000000001
 30
0.0
 11
6.854375
 21
6.475000000000001
 31
0.0
  0
LINE
  5
FC
330
17
100
AcDbEntity
  8
A-FLOR-CORT
100
AcDbLine
 10
6.854375
 20
6.515000000000001
 30
0.0
 11
6.854375
 21
6.585000000000001
 31
0.0
  0
LINE
  5
FD
330
17
100
AcDbEntity
  8
A-FLOR-CORT
100
AcDbLine
 10
6.854375
 20
6.625000000000001
 30
0.0
 11
6.854375
 21
6.695000000000001
 31
0.0
  0
LINE
  5
FE
330
17
100
AcDbEntity
  8
A-FLOR-CORT
100
AcDbLine
 10
6.854375
 20
6.735000000000001
 30
0.0
 11
6.854375
 21
6.8050000000000015
 31
0.0
  0
LINE
  5
FF
330
17
100
AcDbEntity
  8
A-FLOR-CORT
100
AcDbLine
 10
6.854375
 20
6.845000000000001
 30
0.0
 11
6.854375
 21
6.915000000000001
 31
0.0
  0
LINE
  5
100
330
17
100
AcDbEntity
  8
A-FLOR-CORT
100
AcDbLine
 10
6.854375
 20
6.955000000000001
 30
0.0
 11
6.854375
 21
7.025
 31
0.0
  0
LINE
  5
101
330
17
100
AcDbEntity
  8
A-FLOR-CORT
100
AcDbLine
 10
6.854375
 20
7.065000000000001
 30
0.0
 11
6.854375
 21
7.135000000000001
 31
0.0
  0
LINE
  5
102
330
17
100
AcDbEntity
  8
A-FLOR-CORT
100
AcDbLine
 10
6.854375
 20
7.175000000000001
 30
0.0
 11
6.854375
 21
7.245000000000001
 31
0.0
  0
LINE
  5
103
330
17
100
AcDbEntity
  8
A-FLOR-CORT
100
AcDbLine
 10
6.854375
 20
7.285
 30
0.0
 11
6.854375
 21
7.355
 31
0.0
  0
LINE
  5
104
330
17
100
AcDbEntity
  8
A-FLOR-CORT
100
AcDbLine
 10
6.854375
 20
7.38
 30
0.0
 11
6.784375
 21
7.38
 31
0.0
  0
LINE
  5
105
330
17
100
AcDbEntity
  8
A-FLOR-CORT
100
AcDbLine
 10
6.744375
 20
7.38
 30
0.0
 11
6.674375
 21
7.38
 31
0.0
  0
LINE
  5
106
330
17
100
AcDbEntity
  8
A-FLOR-CORT
100
AcDbLine
 10
6.634375
 20
7.38
 30
0.0
 11
6.564375
 21
7.38
 31
0.0
  0
LINE
  5
107
330
17
100
AcDbEntity
  8
A-FLOR-CORT
100
AcDbLine
 10
6.524375
 20
7.38
 30
0.0
 11
6.454375
 21
7.38
 31
0.0
  0
LINE
  5
108
330
17
100
AcDbEntity
  8
A-FLOR-CORT
100
AcDbLine
 10
6.414375
 20
7.38
 30
0.0
 11
6.344375
 21
7.38
 31
0.0
  0
LINE
  5
109
330
17
100
AcDbEntity
  8
A-FLOR-CORT
100
AcDbLine
 10
6.304375
 20
7.38
 30
0.0
 11
6.234375
 21
7.38
 31
0.0
  0
LINE
  5
10A
330
17
100
AcDbEntity
  8
A-FLOR-CORT
100
AcDbLine
 10
6.194375
 20
7.38
 30
0.0
 11
6.124375
 21
7.38
 31
0.0
  0
LINE
  5
10B
330
17
100
AcDbEntity
  8
A-FLOR-CORT
100
AcDbLine
 10
6.084375
 20
7.38
 30
0.0
 11
6.014374999999999
 21
7.38
 31
0.0
  0
LINE
  5
10C
330
17
100
AcDbEntity
  8
A-FLOR-CORT
100
AcDbLine
 10
5.974375
 20
7.38
 30
0.0
 11
5.904375
 21
7.38
 31
0.0
  0
LINE
  5
10D
330
17
100
AcDbEntity
  8
A-FLOR-CORT
100
AcDbLine
 10
5.864375
 20
7.38
 30
0.0
 11
5.794375
 21
7.38
 31
0.0
  0
LINE
  5
10E
330
17
100
AcDbEntity
  8
A-FLOR-CORT
100
AcDbLine
 10
5.754375
 20
7.38
 30
0.0
 11
5.684374999999999
 21
7.38
 31
0.0
  0
LINE
  5
10F
330
17
100
AcDbEntity
  8
A-FLOR-CORT
100
AcDbLine
 10
5.644374999999999
 20
7.38
 30
0.0
 11
5.574375
 21
7.38
 31
0.0
  0
LINE
  5
110
330
17
100
AcDbEntity
  8
A-FLOR-CORT
100
AcDbLine
 10
5.534374999999999
 20
7.38
 30
0.0
 11
5.4643749999999995
 21
7.38
 31
0.0
  0
LINE
  5
111
330
17
100
AcDbEntity
  8
A-FLOR-CORT
100
AcDbLine
 10
5.4243749999999995
 20
7.38
 30
0.0
 11
5.354374999999999
 21
7.38
 31
0.0
  0
LINE
  5
112
330
17
100
AcDbEntity
  8
A-FLOR-CORT
100
AcDbLine
 10
5.314374999999999
 20
7.38
 30
0.0
 11
5.291875
 21
7.38
 31
0.0
  0
LINE
  5
113
330
17
100
AcDbEntity
  8
A-FLOR-CORT
100
AcDbLine
 10
5.291875
 20
7.38
 30
0.0
 11
5.291875
 21
7.31
 31
0.0
  0
LINE
  5
114
330
17
100
AcDbEntity
  8
A-FLOR-CORT
100
AcDbLine
 10
5.291875
 20
7.27
 30
0.0
 11
5.291875
 21
7.2
 31
0.0
  0
LINE
  5
115
330
17
100
AcDbEntity
  8
A-FLOR-CORT
100
AcDbLine
 10
5.291875
 20
7.16
 30
0.0
 11
5.291875
 21
7.09
 31
0.0
  0
LINE
  5
116
330
17
100
AcDbEntity
  8
A-FLOR-CORT
100
AcDbLine
 10
5.291875
 20
7.05
 30
0.0
 11
5.291875
 21
6.9799999999999995
 31
0.0
  0
LINE
  5
117
330
17
100
AcDbEntity
  8
A-FLOR-CORT
100
AcDbLine
 10
5.291875
 20
6.9399999999999995
 30
0.0
 11
5.291875
 21
6.87
 31
0.0
  0
LINE
  5
118
330
17
100
AcDbEntity
  8
A-FLOR-CORT
100
AcDbLine
 10
5.291875
 20
6.83
 30
0.0
 11
5.291875
 21
6.76
 31
0.0
  0
LINE
  5
119
330
17
100
AcDbEntity
  8
A-FLOR-CORT
100
AcDbLine
 10
5.291875
 20
6.72
 30
0.0
 11
5.291875
 21
6.6499999999999995
 31
0.0
  0
LINE
  5
11A
330
17
100
AcDbEntity
  8
A-FLOR-CORT
100
AcDbLine
 10
5.291875
 20
6.609999999999999
 30
0.0
 11
5.291875
 21
6.539999999999999
 31
0.0
  0
LINE
  5
11B
330
17
100
AcDbEntity
  8
A-FLOR-CORT
100
AcDbLine
 10
5.291875
 20
6.5
 30
0.0
 11
5.291875
 21
6.43
 31
0.0
  0
LINE
  5
11C
330
17
100
AcDbEntity
  8
A-FLOR-CORT
100
AcDbLine
 10
5.291875
 20
6.39
 30
0.0
 11
5.291875
 21
6.319999999999999
 31
0.0
  0
LINE
  5
11D
330
17
100
AcDbEntity
  8
A-FLOR-CORT
100
AcDbLine
 10
5.291875
 20
6.279999999999999
 30
0.0
 11
5.291875
 21
6.209999999999999
 31
0.0
  0
LINE
  5
11E
330
17
100
AcDbEntity
  8
A-FLOR-CORT
100
AcDbLine
 10
5.291875
 20
6.169999999999999
 30
0.0
 11
5.291875
 21
6.1
 31
0.0
  0
LINE
  5
11F
330
17
100
AcDbEntity
  8
A-FLOR-CORT
100
AcDbLine
 10
5.291875
 20
6.059999999999999
 30
0.0
 11
5.291875
 21
5.989999999999999
 31
0.0
  0
LINE
  5
120
330
17
100
AcDbEntity
  8
A-FLOR-CORT
100
AcDbLine
 10
5.291875
 20
5.949999999999999
 30
0.0
 11
5.291875
 21
5.879999999999999
 31
0.0
  0
LINE
  5
121
330
17
100
AcDbEntity
  8
A-FLOR-CORT
100
AcDbLine
 10
5.291875
 20
5.839999999999999
 30
0.0
 11
5.291875
 21
5.769999999999999
 31
0.0
  0
LINE
  5
122
330
17
100
AcDbEntity
  8
A-FLOR-CORT
100
AcDbLine
 10
5.291875
 20
5.729999999999999
 30
0.0
 11
5.291875
 21
5.659999999999998
 31
0.0
  0
LINE
  5
123
330
17
100
AcDbEntity
  8
A-FLOR-CORT
100
AcDbLine
 10
5.291875
 20
5.619999999999999
 30
0.0
 11
5.291875
 21
5.549999999999999
 31
0.0
  0
LINE
  5
124
330
17
100
AcDbEntity
  8
A-FLOR-CORT
100
AcDbLine
 10
5.291875
 20
5.509999999999999
 30
0.0
 11
5.291875
 21
5.439999999999999
 31
0.0
  0
LINE
  5
125
330
17
100
AcDbEntity
  8
A-FLOR-CORT
100
AcDbLine
 10
5.291875
 20
5.399999999999999
 30
0.0
 11
5.291875
 21
5.329999999999998
 31
0.0
  0
LINE
  5
126
330
17
100
AcDbEntity
  8
A-FLOR-CORT
100
AcDbLine
 10
5.291875
 20
5.289999999999999
 30
0.0
 11
5.291875
 21
5.219999999999999
 31
0.0
  0
LINE
  5
127
330
17
100
AcDbEntity
  8
A-FLOR-CORT
100
AcDbLine
 10
5.291875
 20
5.179999999999999
 30
0.0
 11
5.291875
 21
5.109999999999999
 31
0.0
  0
LINE
  5
128
330
17
100
AcDbEntity
  8
A-FLOR-CORT
100
AcDbLine
 10
5.291875
 20
5.0699999999999985
 30
0.0
 11
5.291875
 21
4.999999999999999
 31
0.0
  0
LINE
  5
129
330
17
100
AcDbEntity
  8
A-FLOR-CORT
100
AcDbLine
 10
5.291875
 20
4.959999999999999
 30
0.0
 11
5.291875
 21
4.889999999999999
 31
0.0
  0
LINE
  5
12A
330
17
100
AcDbEntity
  8
A-FLOR-CORT
100
AcDbLine
 10
5.291875
 20
4.85
 30
0.0
 11
5.291875
 21
4.779999999999999
 31
0.0
  0
LINE
  5
12B
330
17
100
AcDbEntity
  8
A-FLOR-CORT
100
AcDbLine
 10
4.979375
 20
4.4425
 30
0.0
 11
5.009375
 21
4.4425
 31
0.0
  0
LINE
  5
12C
330
17
100
AcDbEntity
  8
A-FLOR-CORT
100
AcDbLine
 10
5.049375
 20
4.4425
 30
0.0
 11
5.079375
 21
4.4425
 31
0.0
  0
LINE
  5
12D
330
17
100
AcDbEntity
  8
A-FLOR-CORT
100
AcDbLine
 10
5.119375
 20
4.4425
 30
0.0
 11
5.149375
 21
4.4425
 31
0.0
  0
LINE
  5
12E
330
17
100
AcDbEntity
  8
A-FLOR-CORT
100
AcDbLine
 10
5.189375
 20
4.4425
 30
0.0
 11
5.219375
 21
4.4425
 31
0.0
  0
LINE
  5
12F
330
17
100
AcDbEntity
  8
A-FLOR-CORT
100
AcDbLine
 10
5.259375
 20
4.4425
 30
0.0
 11
5.289375
 21
4.4425
 31
0.0
  0
LINE
  5
130
330
17
100
AcDbEntity
  8
A-FLOR-CORT
100
AcDbLine
 10
5.329375
 20
4.4425
 30
0.0
 11
5.359375
 21
4.4425
 31
0.0
  0
LINE
  5
131
330
17
100
AcDbEntity
  8
A-FLOR-CORT
100
AcDbLine
 10
5.399375
 20
4.4425
 30
0.0
 11
5.429375
 21
4.4425
 31
0.0
  0
LINE
  5
132
330
17
100
AcDbEntity
  8
A-FLOR-CORT
100
AcDbLine
 10
5.469375
 20
4.4425
 30
0.0
 11
5.499375
 21
4.4425
 31
0.0
  0
LINE
  5
133
330
17
100
AcDbEntity
  8
A-FLOR-CORT
100
AcDbLine
 10
5.539375
 20
4.4425
 30
0.0
 11
5.569375
 21
4.4425
 31
0.0
  0
LINE
  5
134
330
17
100
AcDbEntity
  8
A-FLOR-CORT
100
AcDbLine
 10
5.609375
 20
4.4425
 30
0.0
 11
5.639375
 21
4.4425
 31
0.0
  0
LINE
  5
135
330
17
100
AcDbEntity
  8
A-FLOR-CORT
100
AcDbLine
 10
5.679375
 20
4.4425
 30
0.0
 11
5.7093750000000005
 21
4.4425
 31
0.0
  0
LINE
  5
136
330
17
100
AcDbEntity
  8
A-FLOR-CORT
100
AcDbLine
 10
5.749375000000001
 20
4.4425
 30
0.0
 11
5.779375
 21
4.4425
 31
0.0
  0
LINE
  5
137
330
17
100
AcDbEntity
  8
A-FLOR-CORT
100
AcDbLine
 10
5.819375
 20
4.4425
 30
0.0
 11
5.849375
 21
4.4425
 31
0.0
  0
LINE
  5
138
330
17
100
AcDbEntity
  8
A-FLOR-CORT
100
AcDbLine
 10
5.889375
 20
4.4425
 30
0.0
 11
5.9193750000000005
 21
4.4425
 31
0.0
  0
LINE
  5
139
330
17
100
AcDbEntity
  8
A-FLOR-CORT
100
AcDbLine
 10
5.9593750000000005
 20
4.4425
 30
0.0
 11
5.989375000000001
 21
4.4425
 31
0.0
  0
LINE
  5
13A
330
17
100
AcDbEntity
  8
A-FLOR-CORT
100
AcDbLine
 10
6.029375
 20
4.4425
 30
0.0
 11
6.059375
 21
4.4425
 31
0.0
  0
LINE
  5
13B
330
17
100
AcDbEntity
  8
A-FLOR-CORT
100
AcDbLine
 10
6.099375
 20
4.4425
 30
0.0
 11
6.1293750000000005
 21
4.4425
 31
0.0
  0
LINE
  5
13C
330
17
100
AcDbEntity
  8
A-FLOR-CORT
100
AcDbLine
 10
6.1693750000000005
 20
4.4425
 30
0.0
 11
6.199375000000001
 21
4.4425
 31
0.0
  0
LINE
  5
13D
330
17
100
AcDbEntity
  8
A-FLOR-CORT
100
AcDbLine
 10
6.239375000000001
 20
4.4425
 30
0.0
 11
6.269375
 21
4.4425
 31
0.0
  0
LINE
  5
13E
330
17
100
AcDbEntity
  8
A-FLOR-CORT
100
AcDbLine
 10
6.309375000000001
 20
4.4425
 30
0.0
 11
6.339375
 21
4.4425
 31
0.0
  0
LINE
  5
13F
330
17
100
AcDbEntity
  8
A-FLOR-CORT
100
AcDbLine
 10
6.3793750000000005
 20
4.4425
 30
0.0
 11
6.409375000000001
 21
4.4425
 31
0.0
  0
LINE
  5
140
330
17
100
AcDbEntity
  8
A-FLOR-CORT
100
AcDbLine
 10
6.449375000000001
 20
4.4425
 30
0.0
 11
6.479375000000001
 21
4.4425
 31
0.0
  0
LINE
  5
141
330
17
100
AcDbEntity
  8
A-FLOR-CORT
100
AcDbLine
 10
6.519375000000001
 20
4.4425
 30
0.0
 11
6.549375000000001
 21
4.4425
 31
0.0
  0
LINE
  5
142
330
17
100
AcDbEntity
  8
A-FLOR-CORT
100
AcDbLine
 10
6.589375
 20
4.4425
 30
0.0
 11
6.619375000000001
 21
4.4425
 31
0.0
  0
LINE
  5
143
330
17
100
AcDbEntity
  8
A-FLOR-CORT
100
AcDbLine
 10
6.659375000000001
 20
4.4425
 30
0.0
 11
6.689375000000001
 21
4.4425
 31
0.0
  0
LINE
  5
144
330
17
100
AcDbEntity
  8
A-FLOR-CORT
100
AcDbLine
 10
6.729375000000001
 20
4.4425
 30
0.0
 11
6.759375000000001
 21
4.4425
 31
0.0
  0
LINE
  5
145
330
17
100
AcDbEntity
  8
A-FLOR-CORT
100
AcDbLine
 10
6.799375000000001
 20
4.4425
 30
0.0
 11
6.829375000000001
 21
4.4425
 31
0.0
  0
LINE
  5
146
330
17
100
AcDbEntity
  8
A-FLOR-CORT
100
AcDbLine
 10
6.869375000000002
 20
4.4425
 30
0.0
 11
6.899375000000001
 21
4.4425
 31
0.0
  0
LINE
  5
147
330
17
100
AcDbEntity
  8
A-FLOR-CORT
100
AcDbLine
 10
6.939375000000001
 20
4.4425
 30
0.0
 11
6.969375000000001
 21
4.4425
 31
0.0
  0
LINE
  5
148
330
17
100
AcDbEntity
  8
A-FLOR-CORT
100
AcDbLine
 10
7.009375000000001
 20
4.4425
 30
0.0
 11
7.0393750000000015
 21
4.4425
 31
0.0
  0
LINE
  5
149
330
17
100
AcDbEntity
  8
A-FLOR-CORT
100
AcDbLine
 10
7.079375000000001
 20
4.4425
 30
0.0
 11
7.109375000000001
 21
4.4425
 31
0.0
  0
LINE
  5
14A
330
17
100
AcDbEntity
  8
A-FLOR-CORT
100
AcDbLine
 10
7.149375000000001
 20
4.4425
 30
0.0
 11
7.166875
 21
4.4425
 31
0.0
  0
LINE
  5
14B
330
17
100
AcDbEntity
  8
A-FLOR-CORT
100
AcDbLine
 10
7.166875
 20
4.4425
 30
0.0
 11
7.166875
 21
4.4725
 31
0.0
  0
LINE
  5
14C
330
17
100
AcDbEntity
  8
A-FLOR-CORT
100
AcDbLine
 10
7.166875
 20
4.5125
 30
0.0
 11
7.166875
 21
4.5424999999999995
 31
0.0
  0
LINE
  5
14D
330
17
100
AcDbEntity
  8
A-FLOR-CORT
100
AcDbLine
 10
7.166875
 20
4.5825
 30
0.0
 11
7.166875
 21
4.6125
 31
0.0
  0
LINE
  5
14E
330
17
100
AcDbEntity
  8
A-FLOR-CORT
100
AcDbLine
 10
7.166875
 20
4.6525
 30
0.0
 11
7.166875
 21
4.6825
 31
0.0
  0
LINE
  5
14F
330
17
100
AcDbEntity
  8
A-FLOR-CORT
100
AcDbLine
 10
7.166875
 20
4.7225
 30
0.0
 11
7.166875
 21
4.7524999999999995
 31
0.0
  0
LINE
  5
150
330
17
100
AcDbEntity
  8
A-FLOR-CORT
100
AcDbLine
 10
7.166875
 20
4.7924999999999995
 30
0.0
 11
7.166875
 21
4.8225
 31
0.0
  0
LINE
  5
151
330
17
100
AcDbEntity
  8
A-FLOR-CORT
100
AcDbLine
 10
7.166875
 20
4.8625
 30
0.0
 11
7.166875
 21
4.8925
 31
0.0
  0
LINE
  5
152
330
17
100
AcDbEntity
  8
A-FLOR-CORT
100
AcDbLine
 10
7.166875
 20
4.9325
 30
0.0
 11
7.166875
 21
4.9624999999999995
 31
0.0
  0
LINE
  5
153
330
17
100
AcDbEntity
  8
A-FLOR-CORT
100
AcDbLine
 10
7.166875
 20
5.0024999999999995
 30
0.0
 11
7.166875
 21
5.0325
 31
0.0
  0
LINE
  5
154
330
17
100
AcDbEntity
  8
A-FLOR-CORT
100
AcDbLine
 10
7.166875
 20
5.0725
 30
0.0
 11
7.166875
 21
5.1025
 31
0.0
  0
LINE
  5
155
330
17
100
AcDbEntity
  8
A-FLOR-CORT
100
AcDbLine
 10
7.166875
 20
5.1425
 30
0.0
 11
7.166875
 21
5.1725
 31
0.0
  0
LINE
  5
156
330
17
100
AcDbEntity
  8
A-FLOR-CORT
100
AcDbLine
 10
7.166875
 20
5.2125
 30
0.0
 11
7.166875
 21
5.2425
 31
0.0
  0
LINE
  5
157
330
17
100
AcDbEntity
  8
A-FLOR-CORT
100
AcDbLine
 10
7.166875
 20
5.2825
 30
0.0
 11
7.166875
 21
5.3125
 31
0.0
  0
LINE
  5
158
330
17
100
AcDbEntity
  8
A-FLOR-CORT
100
AcDbLine
 10
7.166875
 20
5.3525
 30
0.0
 11
7.166875
 21
5.3825
 31
0.0
  0
LINE
  5
159
330
17
100
AcDbEntity
  8
A-FLOR-CORT
100
AcDbLine
 10
7.166875
 20
5.4225
 30
0.0
 11
7.166875
 21
5.452500000000001
 31
0.0
  0
LINE
  5
15A
330
17
100
AcDbEntity
  8
A-FLOR-CORT
100
AcDbLine
 10
7.166875
 20
5.4925
 30
0.0
 11
7.166875
 21
5.5225
 31
0.0
  0
LINE
  5
15B
330
17
100
AcDbEntity
  8
A-FLOR-CORT
100
AcDbLine
 10
7.166875
 20
5.5625
 30
0.0
 11
7.166875
 21
5.5925
 31
0.0
  0
LINE
  5
15C
330
17
100
AcDbEntity
  8
A-FLOR-CORT
100
AcDbLine
 10
7.166875
 20
5.6325
 30
0.0
 11
7.166875
 21
5.6625000000000005
 31
0.0
  0
LINE
  5
15D
330
17
100
AcDbEntity
  8
A-FLOR-CORT
100
AcDbLine
 10
7.166875
 20
5.702500000000001
 30
0.0
 11
7.166875
 21
5.7325
 31
0.0
  0
LINE
  5
15E
330
17
100
AcDbEntity
  8
A-FLOR-CORT
100
AcDbLine
 10
7.166875
 20
5.772500000000001
 30
0.0
 11
7.166875
 21
5.8025
 31
0.0
  0
LINE
  5
15F
330
17
100
AcDbEntity
  8
A-FLOR-CORT
100
AcDbLine
 10
7.166875
 20
5.8425
 30
0.0
 11
7.166875
 21
5.8725000000000005
 31
0.0
  0
LINE
  5
160
330
17
100
AcDbEntity
  8
A-FLOR-CORT
100
AcDbLine
 10
7.166875
 20
5.9125000000000005
 30
0.0
 11
7.166875
 21
5.942500000000001
 31
0.0
  0
LINE
  5
161
330
17
100
AcDbEntity
  8
A-FLOR-CORT
100
AcDbLine
 10
7.166875
 20
5.982500000000001
 30
0.0
 11
7.166875
 21
6.012500000000001
 31
0.0
  0
LINE
  5
162
330
17
100
AcDbEntity
  8
A-FLOR-CORT
100
AcDbLine
 10
7.166875
 20
6.0525
 30
0.0
 11
7.166875
 21
6.0825000000000005
 31
0.0
  0
LINE
  5
163
330
17
100
AcDbEntity
  8
A-FLOR-CORT
100
AcDbLine
 10
7.166875
 20
6.1225000000000005
 30
0.0
 11
7.166875
 21
6.152500000000001
 31
0.0
  0
LINE
  5
164
330
17
100
AcDbEntity
  8
A-FLOR-CORT
100
AcDbLine
 10
7.166875
 20
6.192500000000001
 30
0.0
 11
7.166875
 21
6.222500000000001
 31
0.0
  0
LINE
  5
165
330
17
100
AcDbEntity
  8
A-FLOR-CORT
100
AcDbLine
 10
7.166875
 20
6.262500000000001
 30
0.0
 11
7.166875
 21
6.2925
 31
0.0
  0
LINE
  5
166
330
17
100
AcDbEntity
  8
A-FLOR-CORT
100
AcDbLine
 10
7.166875
 20
6.332500000000001
 30
0.0
 11
7.166875
 21
6.362500000000001
 31
0.0
  0
LINE
  5
167
330
17
100
AcDbEntity
  8
A-FLOR-CORT
100
AcDbLine
 10
7.166875
 20
6.402500000000001
 30
0.0
 11
7.166875
 21
6.432500000000001
 31
0.0
  0
LINE
  5
168
330
17
100
AcDbEntity
  8
A-FLOR-CORT
100
AcDbLine
 10
7.166875
 20
6.472500000000001
 30
0.0
 11
7.166875
 21
6.502500000000001
 31
0.0
  0
LINE
  5
169
330
17
100
AcDbEntity
  8
A-FLOR-CORT
100
AcDbLine
 10
7.166875
 20
6.5425
 30
0.0
 11
7.166875
 21
6.572500000000001
 31
0.0
  0
LINE
  5
16A
330
17
100
AcDbEntity
  8
A-FLOR-CORT
100
AcDbLine
 10
7.166875
 20
6.612500000000001
 30
0.0
 11
7.166875
 21
6.6425
 31
0.0
  0
LINE
  5
16B
330
17
100
AcDbEntity
  8
A-FLOR-CORT
100
AcDbLine
 10
7.166875
 20
6.682500000000001
 30
0.0
 11
7.166875
 21
6.7125
 31
0.0
  0
LINE
  5
16C
330
17
100
AcDbEntity
  8
A-FLOR-CORT
100
AcDbLine
 10
7.166875
 20
6.7525
 30
0.0
 11
7.166875
 21
6.782500000000001
 31
0.0
  0
LINE
  5
16D
330
17
100
AcDbEntity
  8
A-FLOR-CORT
100
AcDbLine
 10
7.166875
 20
6.8225
 30
0.0
 11
7.166875
 21
6.8525
 31
0.0
  0
LINE
  5
16E
330
17
100
AcDbEntity
  8
A-FLOR-CORT
100
AcDbLine
 10
7.166875
 20
6.8925
 30
0.0
 11
7.166875
 21
6.922499999999999
 31
0.0
  0
LINE
  5
16F
330
17
100
AcDbEntity
  8
A-FLOR-CORT
100
AcDbLine
 10
7.166875
 20
6.9625
 30
0.0
 11
7.166875
 21
6.9925
 31
0.0
  0
LINE
  5
170
330
17
100
AcDbEntity
  8
A-FLOR-CORT
100
AcDbLine
 10
7.166875
 20
7.0325
 30
0.0
 11
7.166875
 21
7.0625
 31
0.0
  0
LINE
  5
171
330
17
100
AcDbEntity
  8
A-FLOR-CORT
100
AcDbLine
 10
7.166875
 20
7.102499999999999
 30
0.0
 11
7.166875
 21
7.132499999999999
 31
0.0
  0
LINE
  5
172
330
17
100
AcDbEntity
  8
A-FLOR-CORT
100
AcDbLine
 10
7.166875
 20
7.172499999999999
 30
0.0
 11
7.166875
 21
7.202499999999999
 31
0.0
  0
LINE
  5
173
330
17
100
AcDbEntity
  8
A-FLOR-CORT
100
AcDbLine
 10
7.166875
 20
7.2425
 30
0.0
 11
7.166875
 21
7.272499999999999
 31
0.0
  0
LINE
  5
174
330
17
100
AcDbEntity
  8
A-FLOR-CORT
100
AcDbLine
 10
7.166875
 20
7.312499999999999
 30
0.0
 11
7.166875
 21
7.342499999999999
 31
0.0
  0
LINE
  5
175
330
17
100
AcDbEntity
  8
A-FLOR-CORT
100
AcDbLine
 10
7.166875
 20
7.3824999999999985
 30
0.0
 11
7.166875
 21
7.412499999999999
 31
0.0
  0
LINE
  5
176
330
17
100
AcDbEntity
  8
A-FLOR-CORT
100
AcDbLine
 10
7.166875
 20
7.452499999999999
 30
0.0
 11
7.166875
 21
7.482499999999998
 31
0.0
  0
LINE
  5
177
330
17
100
AcDbEntity
  8
A-FLOR-CORT
100
AcDbLine
 10
7.166875
 20
7.522499999999999
 30
0.0
 11
7.166875
 21
7.552499999999998
 31
0.0
  0
LINE
  5
178
330
17
100
AcDbEntity
  8
A-FLOR-CORT
100
AcDbLine
 10
7.166875
 20
7.5924999999999985
 30
0.0
 11
7.166875
 21
7.622499999999999
 31
0.0
  0
LINE
  5
179
330
17
100
AcDbEntity
  8
A-FLOR-CORT
100
AcDbLine
 10
7.166875
 20
7.662499999999998
 30
0.0
 11
7.166875
 21
7.692499999999998
 31
0.0
  0
LINE
  5
17A
330
17
100
AcDbEntity
  8
A-FLOR-CORT
100
AcDbLine
 10
7.166875
 20
7.6925
 30
0.0
 11
7.136875
 21
7.6925
 31
0.0
  0
LINE
  5
17B
330
17
100
AcDbEntity
  8
A-FLOR-CORT
100
AcDbLine
 10
7.096875
 20
7.6925
 30
0.0
 11
7.0668750000000005
 21
7.6925
 31
0.0
  0
LINE
  5
17C
330
17
100
AcDbEntity
  8
A-FLOR-CORT
100
AcDbLine
 10
7.026875
 20
7.6925
 30
0.0
 11
6.996875
 21
7.6925
 31
0.0
  0
LINE
  5
17D
330
17
100
AcDbEntity
  8
A-FLOR-CORT
100
AcDbLine
 10
6.956875
 20
7.6925
 30
0.0
 11
6.926875
 21
7.6925
 31
0.0
  0
LINE
  5
17E
330
17
100
AcDbEntity
  8
A-FLOR-CORT
100
AcDbLine
 10
6.886875
 20
7.6925
 30
0.0
 11
6.8568750000000005
 21
7.6925
 31
0.0
  0
LINE
  5
17F
330
17
100
AcDbEntity
  8
A-FLOR-CORT
100
AcDbLine
 10
6.8168750000000005
 20
7.6925
 30
0.0
 11
6.786875
 21
7.6925
 31
0.0
  0
LINE
  5
180
330
17
100
AcDbEntity
  8
A-FLOR-CORT
100
AcDbLine
 10
6.746875
 20
7.6925
 30
0.0
 11
6.716875
 21
7.6925
 31
0.0
  0
LINE
  5
181
330
17
100
AcDbEntity
  8
A-FLOR-CORT
100
AcDbLine
 10
6.676875
 20
7.6925
 30
0.0
 11
6.6468750000000005
 21
7.6925
 31
0.0
  0
LINE
  5
182
330
17
100
AcDbEntity
  8
A-FLOR-CORT
100
AcDbLine
 10
6.6068750000000005
 20
7.6925
 30
0.0
 11
6.576875
 21
7.6925
 31
0.0
  0
LINE
  5
183
330
17
100
AcDbEntity
  8
A-FLOR-CORT
100
AcDbLine
 10
6.536875
 20
7.6925
 30
0.0
 11
6.506875
 21
7.6925
 31
0.0
  0
LINE
  5
184
330
17
100
AcDbEntity
  8
A-FLOR-CORT
100
AcDbLine
 10
6.466875
 20
7.6925
 30
0.0
 11
6.436875
 21
7.6925
 31
0.0
  0
LINE
  5
185
330
17
100
AcDbEntity
  8
A-FLOR-CORT
100
AcDbLine
 10
6.396875
 20
7.6925
 30
0.0
 11
6.366875
 21
7.6925
 31
0.0
  0
LINE
  5
186
330
17
100
AcDbEntity
  8
A-FLOR-CORT
100
AcDbLine
 10
6.326875
 20
7.6925
 30
0.0
 11
6.296875
 21
7.6925
 31
0.0
  0
LINE
  5
187
330
17
100
AcDbEntity
  8
A-FLOR-CORT
100
AcDbLine
 10
6.256875
 20
7.6925
 30
0.0
 11
6.226875
 21
7.6925
 31
0.0
  0
LINE
  5
188
330
17
100
AcDbEntity
  8
A-FLOR-CORT
100
AcDbLine
 10
6.186875
 20
7.6925
 30
0.0
 11
6.156874999999999
 21
7.6925
 31
0.0
  0
LINE
  5
189
330
17
100
AcDbEntity
  8
A-FLOR-CORT
100
AcDbLine
 10
6.116875
 20
7.6925
 30
0.0
 11
6.086875
 21
7.6925
 31
0.0
  0
LINE
  5
18A
330
17
100
AcDbEntity
  8
A-FLOR-CORT
100
AcDbLine
 10
6.046875
 20
7.6925
 30
0.0
 11
6.016875
 21
7.6925
 31
0.0
  0
LINE
  5
18B
330
17
100
AcDbEntity
  8
A-FLOR-CORT
100
AcDbLine
 10
5.976875
 20
7.6925
 30
0.0
 11
5.9468749999999995
 21
7.6925
 31
0.0
  0
LINE
  5
18C
330
17
100
AcDbEntity
  8
A-FLOR-CORT
100
AcDbLine
 10
5.906874999999999
 20
7.6925
 30
0.0
 11
5.876875
 21
7.6925
 31
0.0
  0
LINE
  5
18D
330
17
100
AcDbEntity
  8
A-FLOR-CORT
100
AcDbLine
 10
5.836874999999999
 20
7.6925
 30
0.0
 11
5.806875
 21
7.6925
 31
0.0
  0
LINE
  5
18E
330
17
100
AcDbEntity
  8
A-FLOR-CORT
100
AcDbLine
 10
5.766875
 20
7.6925
 30
0.0
 11
5.7368749999999995
 21
7.6925
 31
0.0
  0
LINE
  5
18F
330
17
100
AcDbEntity
  8
A-FLOR-CORT
100
AcDbLine
 10
5.6968749999999995
 20
7.6925
 30
0.0
 11
5.666874999999999
 21
7.6925
 31
0.0
  0
LINE
  5
190
330
17
100
AcDbEntity
  8
A-FLOR-CORT
100
AcDbLine
 10
5.626874999999999
 20
7.6925
 30
0.0
 11
5.596874999999999
 21
7.6925
 31
0.0
  0
LINE
  5
191
330
17
100
AcDbEntity
  8
A-FLOR-CORT
100
AcDbLine
 10
5.556875
 20
7.6925
 30
0.0
 11
5.5268749999999995
 21
7.6925
 31
0.0
  0
LINE
  5
192
330
17
100
AcDbEntity
  8
A-FLOR-CORT
100
AcDbLine
 10
5.4868749999999995
 20
7.6925
 30
0.0
 11
5.456874999999999
 21
7.6925
 31
0.0
  0
LINE
  5
193
330
17
100
AcDbEntity
  8
A-FLOR-CORT
100
AcDbLine
 10
5.416874999999999
 20
7.6925
 30
0.0
 11
5.386874999999999
 21
7.6925
 31
0.0
  0
LINE
  5
194
330
17
100
AcDbEntity
  8
A-FLOR-CORT
100
AcDbLine
 10
5.346874999999999
 20
7.6925
 30
0.0
 11
5.316875
 21
7.6925
 31
0.0
  0
LINE
  5
195
330
17
100
AcDbEntity
  8
A-FLOR-CORT
100
AcDbLine
 10
5.276874999999999
 20
7.6925
 30
0.0
 11
5.246874999999999
 21
7.6925
 31
0.0
  0
LINE
  5
196
330
17
100
AcDbEntity
  8
A-FLOR-CORT
100
AcDbLine
 10
5.206874999999999
 20
7.6925
 30
0.0
 11
5.176874999999999
 21
7.6925
 31
0.0
  0
LINE
  5
197
330
17
100
AcDbEntity
  8
A-FLOR-CORT
100
AcDbLine
 10
5.136874999999999
 20
7.6925
 30
0.0
 11
5.106874999999999
 21
7.6925
 31
0.0
  0
LINE
  5
198
330
17
100
AcDbEntity
  8
A-FLOR-CORT
100
AcDbLine
 10
5.066875
 20
7.6925
 30
0.0
 11
5.036874999999999
 21
7.6925
 31
0.0
  0
LINE
  5
199
330
17
100
AcDbEntity
  8
A-FLOR-CORT
100
AcDbLine
 10
4.996874999999999
 20
7.6925
 30
0.0
 11
4.979375
 21
7.6925
 31
0.0
  0
LINE
  5
19A
330
17
100
AcDbEntity
  8
A-FLOR-CORT
100
AcDbLine
 10
4.979375
 20
7.6925
 30
0.0
 11
4.979375
 21
7.6625
 31
0.0
  0
LINE
  5
19B
330
17
100
AcDbEntity
  8
A-FLOR-CORT
100
AcDbLine
 10
4.979375
 20
7.6225
 30
0.0
 11
4.979375
 21
7.5925
 31
0.0
  0
LINE
  5
19C
330
17
100
AcDbEntity
  8
A-FLOR-CORT
100
AcDbLine
 10
4.979375
 20
7.5525
 30
0.0
 11
4.979375
 21
7.5225
 31
0.0
  0
LINE
  5
19D
330
17
100
AcDbEntity
  8
A-FLOR-CORT
100
AcDbLine
 10
4.979375
 20
7.4825
 30
0.0
 11
4.979375
 21
7.4525
 31
0.0
  0
LINE
  5
19E
330
17
100
AcDbEntity
  8
A-FLOR-CORT
100
AcDbLine
 10
4.979375
 20
7.4125
 30
0.0
 11
4.979375
 21
7.3825
 31
0.0
  0
LINE
  5
19F
330
17
100
AcDbEntity
  8
A-FLOR-CORT
100
AcDbLine
 10
4.979375
 20
7.3425
 30
0.0
 11
4.979375
 21
7.3125
 31
0.0
  0
LINE
  5
1A0
330
17
100
AcDbEntity
  8
A-FLOR-CORT
100
AcDbLine
 10
4.979375
 20
7.2725
 30
0.0
 11
4.979375
 21
7.2425
 31
0.0
  0
LINE
  5
1A1
330
17
100
AcDbEntity
  8
A-FLOR-CORT
100
AcDbLine
 10
4.979375
 20
7.2025
 30
0.0
 11
4.979375
 21
7.1725
 31
0.0
  0
LINE
  5
1A2
330
17
100
AcDbEntity
  8
A-FLOR-CORT
100
AcDbLine
 10
4.979375
 20
7.1325
 30
0.0
 11
4.979375
 21
7.1025
 31
0.0
  0
LINE
  5
1A3
330
17
100
AcDbEntity
  8
A-FLOR-CORT
100
AcDbLine
 10
4.979375
 20
7.0625
 30
0.0
 11
4.979375
 21
7.0325
 31
0.0
  0
LINE
  5
1A4
330
17
100
AcDbEntity
  8
A-FLOR-CORT
100
AcDbLine
 10
4.979375
 20
6.9925
 30
0.0
 11
4.979375
 21
6.9624999999999995
 31
0.0
  0
LINE
  5
1A5
330
17
100
AcDbEntity
  8
A-FLOR-CORT
100
AcDbLine
 10
4.979375
 20
6.922499999999999
 30
0.0
 11
4.979375
 21
6.8925
 31
0.0
  0
LINE
  5
1A6
330
17
100
AcDbEntity
  8
A-FLOR-CORT
100
AcDbLine
 10
4.979375
 20
6.8525
 30
0.0
 11
4.979375
 21
6.8225
 31
0.0
  0
LINE
  5
1A7
330
17
100
AcDbEntity
  8
A-FLOR-CORT
100
AcDbLine
 10
4.979375
 20
6.7825
 30
0.0
 11
4.979375
 21
6.7524999999999995
 31
0.0
  0
LINE
  5
1A8
330
17
100
AcDbEntity
  8
A-FLOR-CORT
100
AcDbLine
 10
4.979375
 20
6.7124999999999995
 30
0.0
 11
4.979375
 21
6.682499999999999
 31
0.0
  0
LINE
  5
1A9
330
17
100
AcDbEntity
  8
A-FLOR-CORT
100
AcDbLine
 10
4.979375
 20
6.6425
 30
0.0
 11
4.979375
 21
6.6125
 31
0.0
  0
LINE
  5
1AA
330
17
100
AcDbEntity
  8
A-FLOR-CORT
100
AcDbLine
 10
4.979375
 20
6.5725
 30
0.0
 11
4.979375
 21
6.5424999999999995
 31
0.0
  0
LINE
  5
1AB
330
17
100
AcDbEntity
  8
A-FLOR-CORT
100
AcDbLine
 10
4.979375
 20
6.5024999999999995
 30
0.0
 11
4.979375
 21
6.472499999999999
 31
0.0
  0
LINE
  5
1AC
330
17
100
AcDbEntity
  8
A-FLOR-CORT
100
AcDbLine
 10
4.979375
 20
6.432499999999999
 30
0.0
 11
4.979375
 21
6.4025
 31
0.0
  0
LINE
  5
1AD
330
17
100
AcDbEntity
  8
A-FLOR-CORT
100
AcDbLine
 10
4.979375
 20
6.362499999999999
 30
0.0
 11
4.979375
 21
6.3325
 31
0.0
  0
LINE
  5
1AE
330
17
100
AcDbEntity
  8
A-FLOR-CORT
100
AcDbLine
 10
4.979375
 20
6.2924999999999995
 30
0.0
 11
4.979375
 21
6.262499999999999
 31
0.0
  0
LINE
  5
1AF
330
17
100
AcDbEntity
  8
A-FLOR-CORT
100
AcDbLine
 10
4.979375
 20
6.222499999999999
 30
0.0
 11
4.979375
 21
6.192499999999999
 31
0.0
  0
LINE
  5
1B0
330
17
100
AcDbEntity
  8
A-FLOR-CORT
100
AcDbLine
 10
4.979375
 20
6.152499999999999
 30
0.0
 11
4.979375
 21
6.122499999999999
 31
0.0
  0
LINE
  5
1B1
330
17
100
AcDbEntity
  8
A-FLOR-CORT
100
AcDbLine
 10
4.979375
 20
6.0825
 30
0.0
 11
4.979375
 21
6.052499999999999
 31
0.0
  0
LINE
  5
1B2
330
17
100
AcDbEntity
  8
A-FLOR-CORT
100
AcDbLine
 10
4.979375
 20
6.012499999999999
 30
0.0
 11
4.979375
 21
5.982499999999999
 31
0.0
  0
LINE
  5
1B3
330
17
100
AcDbEntity
  8
A-FLOR-CORT
100
AcDbLine
 10
4.979375
 20
5.942499999999999
 30
0.0
 11
4.979375
 21
5.912499999999999
 31
0.0
  0
LINE
  5
1B4
330
17
100
AcDbEntity
  8
A-FLOR-CORT
100
AcDbLine
 10
4.979375
 20
5.872499999999999
 30
0.0
 11
4.979375
 21
5.842499999999999
 31
0.0
  0
LINE
  5
1B5
330
17
100
AcDbEntity
  8
A-FLOR-CORT
100
AcDbLine
 10
4.979375
 20
5.802499999999998
 30
0.0
 11
4.979375
 21
5.772499999999999
 31
0.0
  0
LINE
  5
1B6
330
17
100
AcDbEntity
  8
A-FLOR-CORT
100
AcDbLine
 10
4.979375
 20
5.732499999999999
 30
0.0
 11
4.979375
 21
5.702499999999999
 31
0.0
  0
LINE
  5
1B7
330
17
100
AcDbEntity
  8
A-FLOR-CORT
100
AcDbLine
 10
4.979375
 20
5.662499999999999
 30
0.0
 11
4.979375
 21
5.6324999999999985
 31
0.0
  0
LINE
  5
1B8
330
17
100
AcDbEntity
  8
A-FLOR-CORT
100
AcDbLine
 10
4.979375
 20
5.592499999999999
 30
0.0
 11
4.979375
 21
5.562499999999999
 31
0.0
  0
LINE
  5
1B9
330
17
100
AcDbEntity
  8
A-FLOR-CORT
100
AcDbLine
 10
4.979375
 20
5.522499999999999
 30
0.0
 11
4.979375
 21
5.4925
 31
0.0
  0
LINE
  5
1BA
330
17
100
AcDbEntity
  8
A-FLOR-CORT
100
AcDbLine
 10
4.979375
 20
5.452499999999999
 30
0.0
 11
4.979375
 21
5.422499999999999
 31
0.0
  0
LINE
  5
1BB
330
17
100
AcDbEntity
  8
A-FLOR-CORT
100
AcDbLine
 10
4.979375
 20
5.382499999999999
 30
0.0
 11
4.979375
 21
5.352499999999999
 31
0.0
  0
LINE
  5
1BC
330
17
100
AcDbEntity
  8
A-FLOR-CORT
100
AcDbLine
 10
4.979375
 20
5.3125
 30
0.0
 11
4.979375
 21
5.2825
 31
0.0
  0
LINE
  5
1BD
330
17
100
AcDbEntity
  8
A-FLOR-CORT
100
AcDbLine
 10
4.979375
 20
5.2425
 30
0.0
 11
4.979375
 21
5.2125
 31
0.0
  0
LINE
  5
1BE
330
17
100
AcDbEntity
  8
A-FLOR-CORT
100
AcDbLine
 10
4.979375
 20
5.172499999999999
 30
0.0
 11
4.979375
 21
5.1425
 31
0.0
  0
LINE
  5
1BF
330
17
100
AcDbEntity
  8
A-FLOR-CORT
100
AcDbLine
 10
4.979375
 20
5.1025
 30
0.0
 11
4.979375
 21
5.0725
 31
0.0
  0
LINE
  5
1C0
330
17
100
AcDbEntity
  8
A-FLOR-CORT
100
AcDbLine
 10
4.979375
 20
5.032500000000001
 30
0.0
 11
4.979375
 21
5.0025
 31
0.0
  0
LINE
  5
1C1
330
17
100
AcDbEntity
  8
A-FLOR-CORT
100
AcDbLine
 10
4.979375
 20
4.9625
 30
0.0
 11
4.979375
 21
4.932500000000001
 31
0.0
  0
LINE
  5
1C2
330
17
100
AcDbEntity
  8
A-FLOR-CORT
100
AcDbLine
 10
4.979375
 20
4.8925
 30
0.0
 11
4.979375
 21
4.862500000000001
 31
0.0
  0
LINE
  5
1C3
330
17
100
AcDbEntity
  8
A-FLOR-CORT
100
AcDbLine
 10
4.979375
 20
4.822500000000001
 30
0.0
 11
4.979375
 21
4.7925
 31
0.0
  0
LINE
  5
1C4
330
17
100
AcDbEntity
  8
A-FLOR-CORT
100
AcDbLine
 10
4.979375
 20
4.752500000000001
 30
0.0
 11
4.979375
 21
4.722500000000001
 31
0.0
  0
LINE
  5
1C5
330
17
100
AcDbEntity
  8
A-FLOR-CORT
100
AcDbLine
 10
4.979375
 20
4.682500000000001
 30
0.0
 11
4.979375
 21
4.652500000000002
 31
0.0
  0
LINE
  5
1C6
330
17
100
AcDbEntity
  8
A-FLOR-CORT
100
AcDbLine
 10
4.979375
 20
4.612500000000001
 30
0.0
 11
4.979375
 21
4.582500000000001
 31
0.0
  0
LINE
  5
1C7
330
17
100
AcDbEntity
  8
A-FLOR-CORT
100
AcDbLine
 10
4.979375
 20
4.542500000000001
 30
0.0
 11
4.979375
 21
4.512500000000001
 31
0.0
  0
LINE
  5
1C8
330
17
100
AcDbEntity
  8
A-FLOR-CORT
100
AcDbLine
 10
4.979375
 20
4.472500000000002
 30
0.0
 11
4.979375
 21
4.442500000000002
 31
0.0
  0
LINE
  5
1C9
330
17
100
AcDbEntity
  8
A-FLOR-CORT
100
AcDbLine
 10
5.291875
 20
6.0675
 30
0.0
 11
5.361875
 21
6.0675
 31
0.0
  0
LINE
  5
1CA
330
17
100
AcDbEntity
  8
A-FLOR-CORT
100
AcDbLine
 10
5.401875
 20
6.0675
 30
0.0
 11
5.471875
 21
6.0675
 31
0.0
  0
LINE
  5
1CB
330
17
100
AcDbEntity
  8
A-FLOR-CORT
100
AcDbLine
 10
5.511875
 20
6.0675
 30
0.0
 11
5.581875
 21
6.0675
 31
0.0
  0
LINE
  5
1CC
330
17
100
AcDbEntity
  8
A-FLOR-CORT
100
AcDbLine
 10
5.621875
 20
6.0675
 30
0.0
 11
5.6918750000000005
 21
6.0675
 31
0.0
  0
LINE
  5
1CD
330
17
100
AcDbEntity
  8
A-FLOR-CORT
100
AcDbLine
 10
5.7318750000000005
 20
6.0675
 30
0.0
 11
5.801875
 21
6.0675
 31
0.0
  0
LINE
  5
1CE
330
17
100
AcDbEntity
  8
A-FLOR-CORT
100
AcDbLine
 10
5.841875
 20
6.0675
 30
0.0
 11
5.911875
 21
6.0675
 31
0.0
  0
LINE
  5
1CF
330
17
100
AcDbEntity
  8
A-FLOR-CORT
100
AcDbLine
 10
5.951875
 20
6.0675
 30
0.0
 11
6.0218750000000005
 21
6.0675
 31
0.0
  0
LINE
  5
1D0
330
17
100
AcDbEntity
  8
A-FLOR-CORT
100
AcDbLine
 10
6.061875000000001
 20
6.0675
 30
0.0
 11
6.131875000000001
 21
6.0675
 31
0.0
  0
LINE
  5
1D1
330
17
100
AcDbEntity
  8
A-FLOR-CORT
100
AcDbLine
 10
6.171875
 20
6.0675
 30
0.0
 11
6.241875
 21
6.0675
 31
0.0
  0
LINE
  5
1D2
330
17
100
AcDbEntity
  8
A-FLOR-CORT
100
AcDbLine
 10
6.281875
 20
6.0675
 30
0.0
 11
6.351875000000001
 21
6.0675
 31
0.0
  0
LINE
  5
1D3
330
17
100
AcDbEntity
  8
A-FLOR-CORT
100
AcDbLine
 10
6.391875000000001
 20
6.0675
 30
0.0
 11
6.461875000000001
 21
6.0675
 31
0.0
  0
LINE
  5
1D4
330
17
100
AcDbEntity
  8
A-FLOR-CORT
100
AcDbLine
 10
6.501875000000001
 20
6.0675
 30
0.0
 11
6.571875
 21
6.0675
 31
0.0
  0
LINE
  5
1D5
330
17
100
AcDbEntity
  8
A-FLOR-CORT
100
AcDbLine
 10
6.611875000000001
 20
6.0675
 30
0.0
 11
6.681875000000001
 21
6.0675
 31
0.0
  0
LINE
  5
1D6
330
17
100
AcDbEntity
  8
A-FLOR-CORT
100
AcDbLine
 10
6.721875000000001
 20
6.0675
 30
0.0
 11
6.791875000000001
 21
6.0675
 31
0.0
  0
LINE
  5
1D7
330
17
100
AcDbEntity
  8
A-FLOR-CORT
100
AcDbLine
 10
6.831875000000001
 20
6.0675
 30
0.0
 11
6.854375
 21
6.0675
 31
0.0
  0
TEXT
  5
1D8
330
17
100
AcDbEntity
  8
A-AREA-IDEN
100
AcDbText
 10
6.073125
 20
8.129999999999999
 30
0.0
 40
0.06599999999999999
  1
EVENT FLOOR 114' x 144' = 16,416 SF
  7
KS-BOLD
 72
1
 11
6.073125
 21
8.129999999999999
 31
0.0
100
AcDbText
  0
TEXT
  5
1D9
330
17
100
AcDbEntity
  8
A-AREA-IDEN
100
AcDbText
 10
6.073125
 20
8.01
 30
0.0
 40
0.054000000000000006
  1
table / bench zone (15')
  7
KS-REG
 72
1
 11
6.073125
 21
8.01
 31
0.0
100
AcDbText
  0
TEXT
  5
1DA
330
17
100
AcDbEntity
  8
A-AREA-IDEN
100
AcDbText
 10
6.073125
 20
4.051875
 30
0.0
 40
0.054000000000000006
  1
table / bench zone (15')
  7
KS-REG
 72
1
 11
6.073125
 21
4.051875
 31
0.0
100
AcDbText
  0
TEXT
  5
1DB
330
17
100
AcDbEntity
  8
A-AREA-IDEN
100
AcDbText
 10
6.073125
 20
6.145625
 30
0.0
 40
0.054000000000000006
  1
COURT 84' x 50' (OVERLAY)
  7
KS-REG
 72
1
 11
6.073125
 21
6.145625
 31
0.0
100
AcDbText
  0
LINE
  5
1DC
330
17
100
AcDbEntity
  8
A-AREA-BLCK
100
AcDbLine
 10
6.27625
 20
8.317499999999999
 30
0.0
 11
6.31625
 21
8.317499999999999
 31
0.0
  0
LINE
  5
1DD
330
17
100
AcDbEntity
  8
A-AREA-BLCK
100
AcDbLine
 10
6.34625
 20
8.317499999999999
 30
0.0
 11
6.38625
 21
8.317499999999999
 31
0.0
  0
LINE
  5
1DE
330
17
100
AcDbEntity
  8
A-AREA-BLCK
100
AcDbLine
 10
6.41625
 20
8.317499999999999
 30
0.0
 11
6.45625
 21
8.317499999999999
 31
0.0
  0
LINE
  5
1DF
330
17
100
AcDbEntity
  8
A-AREA-BLCK
100
AcDbLine
 10
6.48625
 20
8.317499999999999
 30
0.0
 11
6.52625
 21
8.317499999999999
 31
0.0
  0
LINE
  5
1E0
330
17
100
AcDbEntity
  8
A-AREA-BLCK
100
AcDbLine
 10
6.52625
 20
8.317499999999999
 30
0.0
 11
6.52625
 21
8.357499999999998
 31
0.0
  0
LINE
  5
1E1
330
17
100
AcDbEntity
  8
A-AREA-BLCK
100
AcDbLine
 10
6.52625
 20
8.3875
 30
0.0
 11
6.52625
 21
8.427499999999998
 31
0.0
  0
LINE
  5
1E2
330
17
100
AcDbEntity
  8
A-AREA-BLCK
100
AcDbLine
 10
6.52625
 20
8.4575
 30
0.0
 11
6.52625
 21
8.497499999999999
 31
0.0
  0
LINE
  5
1E3
330
17
100
AcDbEntity
  8
A-AREA-BLCK
100
AcDbLine
 10
6.52625
 20
8.5275
 30
0.0
 11
6.52625
 21
8.567499999999999
 31
0.0
  0
LINE
  5
1E4
330
17
100
AcDbEntity
  8
A-AREA-BLCK
100
AcDbLine
 10
6.52625
 20
8.597499999999998
 30
0.0
 11
6.52625
 21
8.6375
 31
0.0
  0
LINE
  5
1E5
330
17
100
AcDbEntity
  8
A-AREA-BLCK
100
AcDbLine
 10
6.52625
 20
8.667499999999999
 30
0.0
 11
6.52625
 21
8.7075
 31
0.0
  0
LINE
  5
1E6
330
17
100
AcDbEntity
  8
A-AREA-BLCK
100
AcDbLine
 10
6.52625
 20
8.737499999999999
 30
0.0
 11
6.52625
 21
8.777499999999998
 31
0.0
  0
LINE
  5
1E7
330
17
100
AcDbEntity
  8
A-AREA-BLCK
100
AcDbLine
 10
6.52625
 20
8.8075
 30
0.0
 11
6.52625
 21
8.833124999999999
 31
0.0
  0
LINE
  5
1E8
330
17
100
AcDbEntity
  8
A-AREA-BLCK
100
AcDbLine
 10
6.52625
 20
8.833124999999999
 30
0.0
 11
6.48625
 21
8.833124999999999
 31
0.0
  0
LINE
  5
1E9
330
17
100
AcDbEntity
  8
A-AREA-BLCK
100
AcDbLine
 10
6.45625
 20
8.833124999999999
 30
0.0
 11
6.41625
 21
8.833124999999999
 31
0.0
  0
LINE
  5
1EA
330
17
100
AcDbEntity
  8
A-AREA-BLCK
100
AcDbLine
 10
6.38625
 20
8.833124999999999
 30
0.0
 11
6.34625
 21
8.833124999999999
 31
0.0
  0
LINE
  5
1EB
330
17
100
AcDbEntity
  8
A-AREA-BLCK
100
AcDbLine
 10
6.31625
 20
8.833124999999999
 30
0.0
 11
6.27625
 21
8.833124999999999
 31
0.0
  0
LINE
  5
1EC
330
17
100
AcDbEntity
  8
A-AREA-BLCK
100
AcDbLine
 10
6.27625
 20
8.833124999999999
 30
0.0
 11
6.27625
 21
8.793125
 31
0.0
  0
LINE
  5
1ED
330
17
100
AcDbEntity
  8
A-AREA-BLCK
100
AcDbLine
 10
6.27625
 20
8.763124999999999
 30
0.0
 11
6.27625
 21
8.723125
 31
0.0
  0
LINE
  5
1EE
330
17
100
AcDbEntity
  8
A-AREA-BLCK
100
AcDbLine
 10
6.27625
 20
8.693124999999998
 30
0.0
 11
6.27625
 21
8.653125
 31
0.0
  0
LINE
  5
1EF
330
17
100
AcDbEntity
  8
A-AREA-BLCK
100
AcDbLine
 10
6.27625
 20
8.623124999999998
 30
0.0
 11
6.27625
 21
8.583124999999999
 31
0.0
  0
LINE
  5
1F0
330
17
100
AcDbEntity
  8
A-AREA-BLCK
100
AcDbLine
 10
6.27625
 20
8.553125
 30
0.0
 11
6.27625
 21
8.513124999999999
 31
0.0
  0
LINE
  5
1F1
330
17
100
AcDbEntity
  8
A-AREA-BLCK
100
AcDbLine
 10
6.27625
 20
8.483125
 30
0.0
 11
6.27625
 21
8.443124999999998
 31
0.0
  0
LINE
  5
1F2
330
17
100
AcDbEntity
  8
A-AREA-BLCK
100
AcDbLine
 10
6.27625
 20
8.413124999999999
 30
0.0
 11
6.27625
 21
8.373125
 31
0.0
  0
LINE
  5
1F3
330
17
100
AcDbEntity
  8
A-AREA-BLCK
100
AcDbLine
 10
6.27625
 20
8.343124999999999
 30
0.0
 11
6.27625
 21
8.317499999999999
 31
0.0
  0
TEXT
  5
1F4
330
17
100
AcDbEntity
  8
A-AREA-IDEN
100
AcDbText
 10
6.40125
 20
8.5453125
 30
0.0
 40
0.052000000000000005
  1
V1
  7
KS-BOLD
 72
1
 11
6.40125
 21
8.5453125
 31
0.0
100
AcDbText
  0
LINE
  5
1F5
330
17
100
AcDbEntity
  8
A-AREA-BLCK
100
AcDbLine
 10
7.854375
 20
7.005
 30
0.0
 11
7.894375
 21
7.005
 31
0.0
  0
LINE
  5
1F6
330
17
100
AcDbEntity
  8
A-AREA-BLCK
100
AcDbLine
 10
7.924375
 20
7.005
 30
0.0
 11
7.964375
 21
7.005
 31
0.0
  0
LINE
  5
1F7
330
17
100
AcDbEntity
  8
A-AREA-BLCK
100
AcDbLine
 10
7.994375
 20
7.005
 30
0.0
 11
8.034375
 21
7.005
 31
0.0
  0
LINE
  5
1F8
330
17
100
AcDbEntity
  8
A-AREA-BLCK
100
AcDbLine
 10
8.064375
 20
7.005
 30
0.0
 11
8.104375000000001
 21
7.005
 31
0.0
  0
LINE
  5
1F9
330
17
100
AcDbEntity
  8
A-AREA-BLCK
100
AcDbLine
 10
8.134375
 20
7.005
 30
0.0
 11
8.174375
 21
7.005
 31
0.0
  0
LINE
  5
1FA
330
17
100
AcDbEntity
  8
A-AREA-BLCK
100
AcDbLine
 10
8.204375
 20
7.005
 30
0.0
 11
8.244375
 21
7.005
 31
0.0
  0
LINE
  5
1FB
330
17
100
AcDbEntity
  8
A-AREA-BLCK
100
AcDbLine
 10
8.274375
 20
7.005
 30
0.0
 11
8.314375
 21
7.005
 31
0.0
  0
LINE
  5
1FC
330
17
100
AcDbEntity
  8
A-AREA-BLCK
100
AcDbLine
 10
8.344375
 20
7.005
 30
0.0
 11
8.370000000000001
 21
7.005
 31
0.0
  0
LINE
  5
1FD
330
17
100
AcDbEntity
  8
A-AREA-BLCK
100
AcDbLine
 10
8.370000000000001
 20
7.005
 30
0.0
 11
8.370000000000001
 21
7.045
 31
0.0
  0
LINE
  5
1FE
330
17
100
AcDbEntity
  8
A-AREA-BLCK
100
AcDbLine
 10
8.370000000000001
 20
7.075
 30
0.0
 11
8.370000000000001
 21
7.115
 31
0.0
  0
LINE
  5
1FF
330
17
100
AcDbEntity
  8
A-AREA-BLCK
100
AcDbLine
 10
8.370000000000001
 20
7.145
 30
0.0
 11
8.370000000000001
 21
7.185
 31
0.0
  0
LINE
  5
200
330
17
100
AcDbEntity
  8
A-AREA-BLCK
100
AcDbLine
 10
8.370000000000001
 20
7.215
 30
0.0
 11
8.370000000000001
 21
7.255
 31
0.0
  0
LINE
  5
201
330
17
100
AcDbEntity
  8
A-AREA-BLCK
100
AcDbLine
 10
8.370000000000001
 20
7.255
 30
0.0
 11
8.330000000000002
 21
7.255
 31
0.0
  0
LINE
  5
202
330
17
100
AcDbEntity
  8
A-AREA-BLCK
100
AcDbLine
 10
8.3
 20
7.255
 30
0.0
 11
8.260000000000002
 21
7.255
 31
0.0
  0
LINE
  5
203
330
17
100
AcDbEntity
  8
A-AREA-BLCK
100
AcDbLine
 10
8.23
 20
7.255
 30
0.0
 11
8.190000000000001
 21
7.255
 31
0.0
  0
LINE
  5
204
330
17
100
AcDbEntity
  8
A-AREA-BLCK
100
AcDbLine
 10
8.16
 20
7.255
 30
0.0
 11
8.120000000000001
 21
7.255
 31
0.0
  0
LINE
  5
205
330
17
100
AcDbEntity
  8
A-AREA-BLCK
100
AcDbLine
 10
8.090000000000002
 20
7.255
 30
0.0
 11
8.05
 21
7.255
 31
0.0
  0
LINE
  5
206
330
17
100
AcDbEntity
  8
A-AREA-BLCK
100
AcDbLine
 10
8.020000000000001
 20
7.255
 30
0.0
 11
7.980000000000001
 21
7.255
 31
0.0
  0
LINE
  5
207
330
17
100
AcDbEntity
  8
A-AREA-BLCK
100
AcDbLine
 10
7.950000000000001
 20
7.255
 30
0.0
 11
7.910000000000001
 21
7.255
 31
0.0
  0
LINE
  5
208
330
17
100
AcDbEntity
  8
A-AREA-BLCK
100
AcDbLine
 10
7.880000000000001
 20
7.255
 30
0.0
 11
7.854375
 21
7.255
 31
0.0
  0
LINE
  5
209
330
17
100
AcDbEntity
  8
A-AREA-BLCK
100
AcDbLine
 10
7.854375
 20
7.255
 30
0.0
 11
7.854375
 21
7.215
 31
0.0
  0
LINE
  5
20A
330
17
100
AcDbEntity
  8
A-AREA-BLCK
100
AcDbLine
 10
7.854375
 20
7.185
 30
0.0
 11
7.854375
 21
7.145
 31
0.0
  0
LINE
  5
20B
330
17
100
AcDbEntity
  8
A-AREA-BLCK
100
AcDbLine
 10
7.854375
 20
7.115
 30
0.0
 11
7.854375
 21
7.075
 31
0.0
  0
LINE
  5
20C
330
17
100
AcDbEntity
  8
A-AREA-BLCK
100
AcDbLine
 10
7.854375
 20
7.045
 30
0.0
 11
7.854375
 21
7.005
 31
0.0
  0
TEXT
  5
20D
330
17
100
AcDbEntity
  8
A-AREA-IDEN
100
AcDbText
 10
8.112187500000001
 20
7.1
 30
0.0
 40
0.052000000000000005
  1
V2
  7
KS-BOLD
 72
1
 11
8.112187500000001
 21
7.1
 31
0.0
100
AcDbText
  0
LINE
  5
20E
330
17
100
AcDbEntity
  8
A-AREA-BLCK
100
AcDbLine
 10
3.666875
 20
6.8175
 30
0.0
 11
3.716875
 21
6.8175
 31
0.0
  0
LINE
  5
20F
330
17
100
AcDbEntity
  8
A-AREA-BLCK
100
AcDbLine
 10
3.746875
 20
6.8175
 30
0.0
 11
3.796875
 21
6.8175
 31
0.0
  0
LINE
  5
210
330
17
100
AcDbEntity
  8
A-AREA-BLCK
100
AcDbLine
 10
3.8268750000000002
 20
6.8175
 30
0.0
 11
3.876875
 21
6.8175
 31
0.0
  0
LINE
  5
211
330
17
100
AcDbEntity
  8
A-AREA-BLCK
100
AcDbLine
 10
3.9068750000000003
 20
6.8175
 30
0.0
 11
3.956875
 21
6.8175
 31
0.0
  0
LINE
  5
212
330
17
100
AcDbEntity
  8
A-AREA-BLCK
100
AcDbLine
 10
3.9868750000000004
 20
6.8175
 30
0.0
 11
4.036875
 21
6.8175
 31
0.0
  0
LINE
  5
213
330
17
100
AcDbEntity
  8
A-AREA-BLCK
100
AcDbLine
 10
4.0668750000000005
 20
6.8175
 30
0.0
 11
4.116875
 21
6.8175
 31
0.0
  0
LINE
  5
214
330
17
100
AcDbEntity
  8
A-AREA-BLCK
100
AcDbLine
 10
4.146875
 20
6.8175
 30
0.0
 11
4.196875
 21
6.8175
 31
0.0
  0
LINE
  5
215
330
17
100
AcDbEntity
  8
A-AREA-BLCK
100
AcDbLine
 10
4.226875
 20
6.8175
 30
0.0
 11
4.276875
 21
6.8175
 31
0.0
  0
LINE
  5
216
330
17
100
AcDbEntity
  8
A-ANNO-DIMS
100
AcDbLine
 10
3.3075
 20
2.4425
 30
0.0
 11
3.3075
 21
2.63
 31
0.0
  0
LINE
  5
217
330
17
100
AcDbEntity
  8
A-ANNO-DIMS
100
AcDbLine
 10
3.3075
 20
2.63
 30
0.0
 11
3.25125
 21
2.54875
 31
0.0
  0
LINE
  5
218
330
17
100
AcDbEntity
  8
A-ANNO-DIMS
100
AcDbLine
 10
3.3075
 20
2.63
 30
0.0
 11
3.36375
 21
2.54875
 31
0.0
  0
TEXT
  5
219
330
17
100
AcDbEntity
  8
A-AREA-IDEN
100
AcDbText
 10
3.21375
 20
2.4675
 30
0.0
 40
0.064
  1
MAIN ENTRY
  7
KS-BOLD
 72
2
 11
3.21375
 21
2.4675
 31
0.0
100
AcDbText
  0
LWPOLYLINE
  5
21A
330
17
100
AcDbEntity
  8
A-AREA-BLCK
100
AcDbPolyline
 90
4
 70
1
 10
1.12
 20
8.161249999999999
 10
3.666875
 20
8.161249999999999
 10
3.666875
 20
9.504999999999999
 10
1.12
 20
9.504999999999999
  0
TEXT
  5
21B
330
17
100
AcDbEntity
  8
A-AREA-IDEN
100
AcDbText
 10
2.3934375
 20
8.869058333333331
 30
0.0
 40
0.06999999999999999
  1
1  BOYS LOCKER
  7
KS-BOLD
 72
1
 11
2.3934375
 21
8.869058333333331
 31
0.0
100
AcDbText
  0
TEXT
  5
21C
330
17
100
AcDbEntity
  8
A-AREA-IDEN
100
AcDbText
 10
2.3934375
 20
8.740725
 30
0.0
 40
0.06999999999999999
  1
3,504 SF
  7
KS-REG
 72
1
 11
2.3934375
 21
8.740725
 31
0.0
100
AcDbText
  0
LWPOLYLINE
  5
21D
330
17
100
AcDbEntity
  8
A-AREA-BLCK
100
AcDbPolyline
 90
4
 70
1
 10
1.12
 20
6.8175
 10
3.666875
 20
6.8175
 10
3.666875
 20
8.161249999999999
 10
1.12
 20
8.161249999999999
  0
TEXT
  5
21E
330
17
100
AcDbEntity
  8
A-AREA-IDEN
100
AcDbText
 10
2.3934375
 20
7.525308333333333
 30
0.0
 40
0.06999999999999999
  1
2  GIRLS LOCKER
  7
KS-BOLD
 72
1
 11
2.3934375
 21
7.525308333333333
 31
0.0
100
AcDbText
  0
TEXT
  5
21F
330
17
100
AcDbEntity
  8
A-AREA-IDEN
100
AcDbText
 10
2.3934375
 20
7.396975
 30
0.0
 40
0.06999999999999999
  1
3,504 SF
  7
KS-REG
 72
1
 11
2.3934375
 21
7.396975
 31
0.0
100
AcDbText
  0
LWPOLYLINE
  5
220
330
17
100
AcDbEntity
  8
A-AREA-BLCK
100
AcDbPolyline
 90
4
 70
1
 10
1.12
 20
5.8175
 10
3.666875
 20
5.8175
 10
3.666875
 20
6.8175
 10
1.12
 20
6.8175
  0
TEXT
  5
221
330
17
100
AcDbEntity
  8
A-AREA-IDEN
100
AcDbText
 10
2.3934375
 20
6.353433333333333
 30
0.0
 40
0.06999999999999999
  1
3  MECH / ELEC
  7
KS-BOLD
 72
1
 11
2.3934375
 21
6.353433333333333
 31
0.0
100
AcDbText
  0
TEXT
  5
222
330
17
100
AcDbEntity
  8
A-AREA-IDEN
100
AcDbText
 10
2.3934375
 20
6.2251
 30
0.0
 40
0.06999999999999999
  1
2,608 SF
  7
KS-REG
 72
1
 11
2.3934375
 21
6.2251
 31
0.0
100
AcDbText
  0
LWPOLYLINE
  5
223
330
17
100
AcDbEntity
  8
A-AREA-BLCK
100
AcDbPolyline
 90
4
 70
1
 10
1.12
 20
2.9425
 10
1.90125
 20
2.9425
 10
1.90125
 20
3.8175
 10
1.12
 20
3.8175
  0
TEXT
  5
224
330
17
100
AcDbEntity
  8
A-AREA-IDEN
100
AcDbText
 10
1.510625
 20
3.4800999999999997
 30
0.0
 40
0.06999999999999999
  1
4  MEN
  7
KS-BOLD
 72
1
 11
1.510625
 21
3.4800999999999997
 31
0.0
100
AcDbText
  0
TEXT
  5
225
330
17
100
AcDbEntity
  8
A-AREA-IDEN
100
AcDbText
 10
1.510625
 20
3.351766666666667
 30
0.0
 40
0.06999999999999999
  1
700 SF
  7
KS-REG
 72
1
 11
1.510625
 21
3.351766666666667
 31
0.0
100
AcDbText
  0
TEXT
  5
226
330
17
100
AcDbEntity
  8
A-AREA-IDEN
100
AcDbText
 10
1.510625
 20
3.2234333333333334
 30
0.0
 40
0.06999999999999999
  1
WC 10 · LAV 4
  7
KS-REG
 72
1
 11
1.510625
 21
3.2234333333333334
 31
0.0
100
AcDbText
  0
LWPOLYLINE
  5
227
330
17
100
AcDbEntity
  8
A-AREA-BLCK
100
AcDbPolyline
 90
4
 70
1
 10
1.12
 20
3.8175
 10
1.90125
 20
3.8175
 10
1.90125
 20
5.255
 10
1.12
 20
5.255
  0
TEXT
  5
228
330
17
100
AcDbEntity
  8
A-AREA-IDEN
100
AcDbText
 10
1.510625
 20
4.63635
 30
0.0
 40
0.06999999999999999
  1
5  WOMEN
  7
KS-BOLD
 72
1
 11
1.510625
 21
4.63635
 31
0.0
100
AcDbText
  0
TEXT
  5
229
330
17
100
AcDbEntity
  8
A-AREA-IDEN
100
AcDbText
 10
1.510625
 20
4.508016666666666
 30
0.0
 40
0.06999999999999999
  1
1,150 SF
  7
KS-REG
 72
1
 11
1.510625
 21
4.508016666666666
 31
0.0
100
AcDbText
  0
TEXT
  5
22A
330
17
100
AcDbEntity
  8
A-AREA-IDEN
100
AcDbText
 10
1.510625
 20
4.379683333333333
 30
0.0
 40
0.06999999999999999
  1
WC 18 · LAV 5
  7
KS-REG
 72
1
 11
1.510625
 21
4.379683333333333
 31
0.0
100
AcDbText
  0
LWPOLYLINE
  5
22B
330
17
100
AcDbEntity
  8
A-AREA-BLCK
100
AcDbPolyline
 90
4
 70
1
 10
1.12
 20
2.63
 10
1.495
 20
2.63
 10
1.495
 20
2.9425
 10
1.12
 20
2.9425
  0
TEXT
  5
22C
330
17
100
AcDbEntity
  8
A-AREA-IDEN
100
AcDbText
 10
1.3075
 20
2.8221833333333333
 30
0.0
 40
0.06999999999999999
  1
6
  7
KS-BOLD
 72
1
 11
1.3075
 21
2.8221833333333333
 31
0.0
100
AcDbText
  0
TEXT
  5
22D
330
17
100
AcDbEntity
  8
A-AREA-IDEN
100
AcDbText
 10
1.3075
 20
2.69385
 30
0.0
 40
0.06999999999999999
  1
120
  7
KS-REG
 72
1
 11
1.3075
 21
2.69385
 31
0.0
100
AcDbText
  0
LWPOLYLINE
  5
22E
330
17
100
AcDbEntity
  8
A-AREA-BLCK
100
AcDbPolyline
 90
4
 70
1
 10
2.6825
 20
2.63
 10
3.9325
 20
2.63
 10
3.9325
 20
3.255
 10
2.6825
 20
3.255
  0
TEXT
  5
22F
330
17
100
AcDbEntity
  8
A-AREA-IDEN
100
AcDbText
 10
3.3075
 20
2.9784333333333333
 30
0.0
 40
0.06999999999999999
  1
7  ENTRY / FOYER
  7
KS-BOLD
 72
1
 11
3.3075
 21
2.9784333333333333
 31
0.0
100
AcDbText
  0
TEXT
  5
230
330
17
100
AcDbEntity
  8
A-AREA-IDEN
100
AcDbText
 10
3.3075
 20
2.8501
 30
0.0
 40
0.06999999999999999
  1
800 SF
  7
KS-REG
 72
1
 11
3.3075
 21
2.8501
 31
0.0
100
AcDbText
  0
LWPOLYLINE
  5
231
330
17
100
AcDbEntity
  8
A-AREA-BLCK
100
AcDbPolyline
 90
4
 70
1
 10
3.198125
 20
4.505
 10
3.666875
 20
4.505
 10
3.666875
 20
5.0778125
 10
3.198125
 20
5.0778125
  0
TEXT
  5
232
330
17
100
AcDbEntity
  8
A-AREA-IDEN
100
AcDbText
 10
3.4325
 20
4.827339583333333
 30
0.0
 40
0.06999999999999999
  1
8
  7
KS-BOLD
 72
1
 11
3.4325
 21
4.827339583333333
 31
0.0
100
AcDbText
  0
TEXT
  5
233
330
17
100
AcDbEntity
  8
A-AREA-IDEN
100
AcDbText
 10
3.4325
 20
4.69900625
 30
0.0
 40
0.06999999999999999
  1
275
  7
KS-REG
 72
1
 11
3.4325
 21
4.69900625
 31
0.0
100
AcDbText
  0
LWPOLYLINE
  5
234
330
17
100
AcDbEntity
  8
A-AREA-BLCK
100
AcDbPolyline
 90
4
 70
1
 10
4.291875
 20
8.833124999999999
 10
5.3075
 20
8.833124999999999
 10
5.3075
 20
9.504999999999999
 10
4.291875
 20
9.504999999999999
  0
TEXT
  5
235
330
17
100
AcDbEntity
  8
A-AREA-IDEN
100
AcDbText
 10
4.7996875
 20
9.199862499999998
 30
0.0
 40
0.06
  1
9  EQUIP. STORAGE
  7
KS-BOLD
 72
1
 11
4.7996875
 21
9.199862499999998
 31
0.0
100
AcDbText
  0
TEXT
  5
236
330
17
100
AcDbEntity
  8
A-AREA-IDEN
100
AcDbText
 10
4.7996875
 20
9.089862499999999
 30
0.0
 40
0.06
  1
699 SF
  7
KS-REG
 72
1
 11
4.7996875
 21
9.089862499999999
 31
0.0
100
AcDbText
  0
LWPOLYLINE
  5
237
330
17
100
AcDbEntity
  8
A-AREA-BLCK
100
AcDbPolyline
 90
4
 70
1
 10
5.3075
 20
8.833124999999999
 10
5.745
 20
8.833124999999999
 10
5.745
 20
9.504999999999999
 10
5.3075
 20
9.504999999999999
  0
TEXT
  5
238
330
17
100
AcDbEntity
  8
A-AREA-IDEN
100
AcDbText
 10
5.52625
 20
9.204995833333331
 30
0.0
 40
0.06999999999999999
  1
10
  7
KS-BOLD
 72
1
 11
5.52625
 21
9.204995833333331
 31
0.0
100
AcDbText
  0
TEXT
  5
239
330
17
100
AcDbEntity
  8
A-AREA-IDEN
100
AcDbText
 10
5.52625
 20
9.0766625
 30
0.0
 40
0.06999999999999999
  1
301
  7
KS-REG
 72
1
 11
5.52625
 21
9.0766625
 31
0.0
100
AcDbText
  0
LWPOLYLINE
  5
23A
330
17
100
AcDbEntity
  8
A-AREA-BLCK
100
AcDbPolyline
 90
4
 70
1
 10
5.745
 20
8.833124999999999
 10
7.0575
 20
8.833124999999999
 10
7.0575
 20
9.504999999999999
 10
5.745
 20
9.504999999999999
  0
TEXT
  5
23B
330
17
100
AcDbEntity
  8
A-AREA-IDEN
100
AcDbText
 10
6.40125
 20
9.204995833333331
 30
0.0
 40
0.06999999999999999
  1
11  EVENT LOCKER 1
  7
KS-BOLD
 72
1
 11
6.40125
 21
9.204995833333331
 31
0.0
100
AcDbText
  0
TEXT
  5
23C
330
17
100
AcDbEntity
  8
A-AREA-IDEN
100
AcDbText
 10
6.40125
 20
9.0766625
 30
0.0
 40
0.06999999999999999
  1
903 SF
  7
KS-REG
 72
1
 11
6.40125
 21
9.0766625
 31
0.0
100
AcDbText
  0
LWPOLYLINE
  5
23D
330
17
100
AcDbEntity
  8
A-AREA-BLCK
100
AcDbPolyline
 90
4
 70
1
 10
7.0575
 20
8.833124999999999
 10
8.370000000000001
 20
8.833124999999999
 10
8.370000000000001
 20
9.504999999999999
 10
7.0575
 20
9.504999999999999
  0
TEXT
  5
23E
330
17
100
AcDbEntity
  8
A-AREA-IDEN
100
AcDbText
 10
7.71375
 20
9.204995833333331
 30
0.0
 40
0.06999999999999999
  1
12  EVENT LOCKER 2
  7
KS-BOLD
 72
1
 11
7.71375
 21
9.204995833333331
 31
0.0
100
AcDbText
  0
TEXT
  5
23F
330
17
100
AcDbEntity
  8
A-AREA-IDEN
100
AcDbText
 10
7.71375
 20
9.0766625
 30
0.0
 40
0.06999999999999999
  1
903 SF
  7
KS-REG
 72
1
 11
7.71375
 21
9.0766625
 31
0.0
100
AcDbText
  0
LWPOLYLINE
  5
240
330
17
100
AcDbEntity
  8
A-AREA-BLCK
100
AcDbPolyline
 90
4
 70
1
 10
8.370000000000001
 20
7.255
 10
8.932500000000001
 20
7.255
 10
8.932500000000001
 20
8.817499999999999
 10
8.370000000000001
 20
8.817499999999999
  0
TEXT
  5
241
330
17
100
AcDbEntity
  8
A-AREA-IDEN
100
AcDbText
 10
8.615316666666669
 20
8.036249999999999
 30
0.0
 40
0.06999999999999999
  1
13  EVENT LOCKER 3
 50
90.0
  7
KS-BOLD
 72
1
 11
8.615316666666669
 21
8.036249999999999
 31
0.0
100
AcDbText
  0
TEXT
  5
242
330
17
100
AcDbEntity
  8
A-AREA-IDEN
100
AcDbText
 10
8.74365
 20
8.036249999999999
 30
0.0
 40
0.06999999999999999
  1
900 SF
 50
90.0
  7
KS-REG
 72
1
 11
8.74365
 21
8.036249999999999
 31
0.0
100
AcDbText
  0
LWPOLYLINE
  5
243
330
17
100
AcDbEntity
  8
A-AREA-BLCK
100
AcDbPolyline
 90
4
 70
1
 10
8.370000000000001
 20
5.6925
 10
8.932500000000001
 20
5.6925
 10
8.932500000000001
 20
7.255
 10
8.370000000000001
 20
7.255
  0
TEXT
  5
244
330
17
100
AcDbEntity
  8
A-AREA-IDEN
100
AcDbText
 10
8.615316666666669
 20
6.47375
 30
0.0
 40
0.06999999999999999
  1
14  EVENT LOCKER 4
 50
90.0
  7
KS-BOLD
 72
1
 11
8.615316666666669
 21
6.47375
 31
0.0
100
AcDbText
  0
TEXT
  5
245
330
17
100
AcDbEntity
  8
A-AREA-IDEN
100
AcDbText
 10
8.74365
 20
6.47375
 30
0.0
 40
0.06999999999999999
  1
900 SF
 50
90.0
  7
KS-REG
 72
1
 11
8.74365
 21
6.47375
 31
0.0
100
AcDbText
  0
LWPOLYLINE
  5
246
330
17
100
AcDbEntity
  8
A-AREA-BLCK
100
AcDbPolyline
 90
4
 70
1
 10
8.370000000000001
 20
3.22375
 10
8.932500000000001
 20
3.22375
 10
8.932500000000001
 20
5.6925
 10
8.370000000000001
 20
5.6925
  0
TEXT
  5
247
330
17
100
AcDbEntity
  8
A-AREA-IDEN
100
AcDbText
 10
8.615316666666669
 20
4.458125
 30
0.0
 40
0.06999999999999999
  1
15  MECH (SE)
 50
90.0
  7
KS-BOLD
 72
1
 11
8.615316666666669
 21
4.458125
 31
0.0
100
AcDbText
  0
TEXT
  5
248
330
17
100
AcDbEntity
  8
A-AREA-IDEN
100
AcDbText
 10
8.74365
 20
4.458125
 30
0.0
 40
0.06999999999999999
  1
1,422 SF
 50
90.0
  7
KS-REG
 72
1
 11
8.74365
 21
4.458125
 31
0.0
100
AcDbText
  0
TEXT
  5
249
330
17
100
AcDbEntity
  8
A-AREA-IDEN
100
AcDbText
 10
2.5496875
 20
4.5691033333333335
 30
0.0
 40
0.064
  1
LOBBY /
  7
KS-BOLD
 72
1
 11
2.5496875
 21
4.5691033333333335
 31
0.0
100
AcDbText
  0
TEXT
  5
24A
330
17
100
AcDbEntity
  8
A-AREA-IDEN
100
AcDbText
 10
2.5496875
 20
4.45177
 30
0.0
 40
0.064
  1
HALL OF CHAMPIONS
  7
KS-REG
 72
1
 11
2.5496875
 21
4.45177
 31
0.0
100
AcDbText
  0
TEXT
  5
24B
330
17
100
AcDbEntity
  8
A-AREA-IDEN
100
AcDbText
 10
4.009375
 20
5.0596875
 30
0.0
 40
0.062
  1
PUBLIC CONCOURSE
 50
90.0
  7
KS-BOLD
 72
1
 11
4.009375
 21
5.0596875
 31
0.0
100
AcDbText
  0
TEXT
  5
24C
330
17
100
AcDbEntity
  8
A-AREA-IDEN
100
AcDbText
 10
4.009375
 20
7.8253125
 30
0.0
 40
0.062
  1
ATHLETE CORRIDOR
 50
90.0
  7
KS-BOLD
 72
1
 11
4.009375
 21
7.8253125
 31
0.0
100
AcDbText
  0
TEXT
  5
24D
330
17
100
AcDbEntity
  8
A-AREA-IDEN
100
AcDbText
 10
6.4434375
 20
2.9401241666666666
 30
0.0
 40
0.064
  1
LOWER CONCOURSE (SOUTH)
  7
KS-BOLD
 72
1
 11
6.4434375
 21
2.9401241666666666
 31
0.0
100
AcDbText
  0
LWPOLYLINE
  5
24E
330
17
100
AcDbEntity
  8
A-FLOR-STRS
100
AcDbPolyline
 90
4
 70
1
 10
3.666875
 20
8.864374999999999
 10
4.004375
 20
8.864374999999999
 10
4.004375
 20
9.458124999999999
 10
3.666875
 20
9.458124999999999
  0
LINE
  5
24F
330
17
100
AcDbEntity
  8
A-FLOR-STRS
100
AcDbLine
 10
3.8356250000000003
 20
8.926874999999999
 30
0.0
 11
3.8356250000000003
 21
9.395624999999999
 31
0.0
  0
LINE
  5
250
330
17
100
AcDbEntity
  8
A-FLOR-STRS
100
AcDbLine
 10
3.666875
 20
9.004999999999999
 30
0.0
 11
4.004375
 21
9.004999999999999
 31
0.0
  0
LINE
  5
251
330
17
100
AcDbEntity
  8
A-FLOR-STRS
100
AcDbLine
 10
3.666875
 20
9.083124999999999
 30
0.0
 11
4.004375
 21
9.083124999999999
 31
0.0
  0
LINE
  5
252
330
17
100
AcDbEntity
  8
A-FLOR-STRS
100
AcDbLine
 10
3.666875
 20
9.161249999999999
 30
0.0
 11
4.004375
 21
9.161249999999999
 31
0.0
  0
LINE
  5
253
330
17
100
AcDbEntity
  8
A-FLOR-STRS
100
AcDbLine
 10
3.666875
 20
9.239374999999999
 30
0.0
 11
4.004375
 21
9.239374999999999
 31
0.0
  0
LINE
  5
254
330
17
100
AcDbEntity
  8
A-FLOR-STRS
100
AcDbLine
 10
3.666875
 20
9.317499999999999
 30
0.0
 11
4.004375
 21
9.317499999999999
 31
0.0
  0
TEXT
  5
255
330
17
100
AcDbEntity
  8
A-AREA-IDEN
100
AcDbText
 10
3.8356250000000003
 20
9.555
 30
0.0
 40
0.056
  1
ST-1
  7
KS-BOLD
 72
1
 11
3.8356250000000003
 21
9.555
 31
0.0
100
AcDbText
  0
LWPOLYLINE
  5
256
330
17
100
AcDbEntity
  8
A-FLOR-STRS
100
AcDbPolyline
 90
4
 70
1
 10
8.594999999999999
 20
8.911249999999999
 10
8.9325
 20
8.911249999999999
 10
8.9325
 20
9.504999999999999
 10
8.594999999999999
 20
9.504999999999999
  0
LINE
  5
257
330
17
100
AcDbEntity
  8
A-FLOR-STRS
100
AcDbLine
 10
8.76375
 20
8.973749999999999
 30
0.0
 11
8.76375
 21
9.442499999999999
 31
0.0
  0
LINE
  5
258
330
17
100
AcDbEntity
  8
A-FLOR-STRS
100
AcDbLine
 10
8.594999999999999
 20
9.051874999999999
 30
0.0
 11
8.932500000000001
 21
9.051874999999999
 31
0.0
  0
LINE
  5
259
330
17
100
AcDbEntity
  8
A-FLOR-STRS
100
AcDbLine
 10
8.594999999999999
 20
9.129999999999999
 30
0.0
 11
8.932500000000001
 21
9.129999999999999
 31
0.0
  0
LINE
  5
25A
330
17
100
AcDbEntity
  8
A-FLOR-STRS
100
AcDbLine
 10
8.594999999999999
 20
9.208124999999999
 30
0.0
 11
8.932500000000001
 21
9.208124999999999
 31
0.0
  0
LINE
  5
25B
330
17
100
AcDbEntity
  8
A-FLOR-STRS
100
AcDbLine
 10
8.594999999999999
 20
9.286249999999999
 30
0.0
 11
8.932500000000001
 21
9.286249999999999
 31
0.0
  0
LINE
  5
25C
330
17
100
AcDbEntity
  8
A-FLOR-STRS
100
AcDbLine
 10
8.594999999999999
 20
9.364374999999999
 30
0.0
 11
8.932500000000001
 21
9.364374999999999
 31
0.0
  0
TEXT
  5
25D
330
17
100
AcDbEntity
  8
A-AREA-IDEN
100
AcDbText
 10
8.76375
 20
9.555
 30
0.0
 40
0.056
  1
ST-2
  7
KS-BOLD
 72
1
 11
8.76375
 21
9.555
 31
0.0
100
AcDbText
  0
LWPOLYLINE
  5
25E
330
17
100
AcDbEntity
  8
A-FLOR-STRS
100
AcDbPolyline
 90
4
 70
1
 10
8.594999999999999
 20
2.63
 10
8.9325
 20
2.63
 10
8.9325
 20
3.22375
 10
8.594999999999999
 20
3.22375
  0
LINE
  5
25F
330
17
100
AcDbEntity
  8
A-FLOR-STRS
100
AcDbLine
 10
8.76375
 20
2.6925
 30
0.0
 11
8.76375
 21
3.16125
 31
0.0
  0
LINE
  5
260
330
17
100
AcDbEntity
  8
A-FLOR-STRS
100
AcDbLine
 10
8.594999999999999
 20
2.770625
 30
0.0
 11
8.932500000000001
 21
2.770625
 31
0.0
  0
LINE
  5
261
330
17
100
AcDbEntity
  8
A-FLOR-STRS
100
AcDbLine
 10
8.594999999999999
 20
2.84875
 30
0.0
 11
8.932500000000001
 21
2.84875
 31
0.0
  0
LINE
  5
262
330
17
100
AcDbEntity
  8
A-FLOR-STRS
100
AcDbLine
 10
8.594999999999999
 20
2.926875
 30
0.0
 11
8.932500000000001
 21
2.926875
 31
0.0
  0
LINE
  5
263
330
17
100
AcDbEntity
  8
A-FLOR-STRS
100
AcDbLine
 10
8.594999999999999
 20
3.005
 30
0.0
 11
8.932500000000001
 21
3.005
 31
0.0
  0
LINE
  5
264
330
17
100
AcDbEntity
  8
A-FLOR-STRS
100
AcDbLine
 10
8.594999999999999
 20
3.083125
 30
0.0
 11
8.932500000000001
 21
3.083125
 31
0.0
  0
TEXT
  5
265
330
17
100
AcDbEntity
  8
A-AREA-IDEN
100
AcDbText
 10
8.76375
 20
2.48625
 30
0.0
 40
0.056
  1
ST-3
  7
KS-BOLD
 72
1
 11
8.76375
 21
2.48625
 31
0.0
100
AcDbText
  0
LWPOLYLINE
  5
266
330
17
100
AcDbEntity
  8
A-FLOR-STRS
100
AcDbPolyline
 90
4
 70
1
 10
3.954375
 20
2.63
 10
4.291875
 20
2.63
 10
4.291875
 20
3.22375
 10
3.954375
 20
3.22375
  0
LINE
  5
267
330
17
100
AcDbEntity
  8
A-FLOR-STRS
100
AcDbLine
 10
4.123125
 20
2.6925
 30
0.0
 11
4.123125
 21
3.16125
 31
0.0
  0
LINE
  5
268
330
17
100
AcDbEntity
  8
A-FLOR-STRS
100
AcDbLine
 10
3.954375
 20
2.770625
 30
0.0
 11
4.291875
 21
2.770625
 31
0.0
  0
LINE
  5
269
330
17
100
AcDbEntity
  8
A-FLOR-STRS
100
AcDbLine
 10
3.954375
 20
2.84875
 30
0.0
 11
4.291875
 21
2.84875
 31
0.0
  0
LINE
  5
26A
330
17
100
AcDbEntity
  8
A-FLOR-STRS
100
AcDbLine
 10
3.954375
 20
2.926875
 30
0.0
 11
4.291875
 21
2.926875
 31
0.0
  0
LINE
  5
26B
330
17
100
AcDbEntity
  8
A-FLOR-STRS
100
AcDbLine
 10
3.954375
 20
3.005
 30
0.0
 11
4.291875
 21
3.005
 31
0.0
  0
LINE
  5
26C
330
17
100
AcDbEntity
  8
A-FLOR-STRS
100
AcDbLine
 10
3.954375
 20
3.083125
 30
0.0
 11
4.291875
 21
3.083125
 31
0.0
  0
TEXT
  5
26D
330
17
100
AcDbEntity
  8
A-AREA-IDEN
100
AcDbText
 10
4.123125
 20
2.48625
 30
0.0
 40
0.056
  1
ST-4
  7
KS-BOLD
 72
1
 11
4.123125
 21
2.48625
 31
0.0
100
AcDbText
  0
LWPOLYLINE
  5
26E
330
17
100
AcDbEntity
  8
A-FLOR-STRS
100
AcDbPolyline
 90
4
 70
1
 10
1.90125
 20
2.63
 10
2.15125
 20
2.63
 10
2.15125
 20
2.88
 10
1.90125
 20
2.88
  0
LINE
  5
26F
330
17
100
AcDbEntity
  8
A-FLOR-STRS
100
AcDbLine
 10
1.90125
 20
2.63
 30
0.0
 11
2.15125
 21
2.88
 31
0.0
  0
LINE
  5
270
330
17
100
AcDbEntity
  8
A-FLOR-STRS
100
AcDbLine
 10
1.90125
 20
2.88
 30
0.0
 11
2.15125
 21
2.63
 31
0.0
  0
TEXT
  5
271
330
17
100
AcDbEntity
  8
A-AREA-IDEN
100
AcDbText
 10
2.02625
 20
2.48625
 30
0.0
 40
0.056
  1
EL
  7
KS-BOLD
 72
1
 11
2.02625
 21
2.48625
 31
0.0
100
AcDbText
  0
LINE
  5
272
330
17
100
AcDbEntity
  8
A-ANNO-DIMS
100
AcDbLine
 10
9.213750000000001
 20
8.567499999999999
 30
0.0
 11
9.213750000000001
 21
9.1175
 31
0.0
  0
LINE
  5
273
330
17
100
AcDbEntity
  8
A-ANNO-DIMS
100
AcDbLine
 10
9.213750000000001
 20
9.1175
 30
0.0
 11
9.123750000000001
 21
8.927499999999998
 31
0.0
  0
LINE
  5
274
330
17
100
AcDbEntity
  8
A-ANNO-DIMS
100
AcDbLine
 10
9.213750000000001
 20
9.1175
 30
0.0
 11
9.30375
 21
8.927499999999998
 31
0.0
  0
TEXT
  5
275
330
17
100
AcDbEntity
  8
A-ANNO-DIMS
100
AcDbText
 10
9.213750000000001
 20
9.187499999999998
 30
0.0
 40
0.1
  1
N
  7
KS-BOLD
 72
1
 11
9.213750000000001
 21
9.187499999999998
 31
0.0
100
AcDbText
  0
TEXT
  5
276
330
17
100
AcDbEntity
  8
A-ANNO-DIMS
100
AcDbText
 10
9.213750000000001
 20
8.437499999999998
 30
0.0
 40
0.056
  1
APPROX.
  7
KS-REG
 72
1
 11
9.213750000000001
 21
8.437499999999998
 31
0.0
100
AcDbText
  0
TEXT
  5
277
330
17
100
AcDbEntity
  8
A-ANNO-DIMS
100
AcDbText
 10
9.213750000000001
 20
8.327499999999999
 30
0.0
 40
0.056
  1
SITE TBD
  7
KS-REG
 72
1
 11
9.213750000000001
 21
8.327499999999999
 31
0.0
100
AcDbText
  0
LWPOLYLINE
  5
278
330
17
100
AcDbEntity
  8
A-ANNO-DIMS
100
AcDbPolyline
 90
4
 70
1
 10
6.9325
 20
2.04875
 10
7.4325
 20
2.04875
 10
7.4325
 20
2.10875
 10
6.9325
 20
2.10875
  0
LINE
  5
279
330
17
100
AcDbEntity
  8
A-ANNO-DIMS
100
AcDbLine
 10
6.9325
 20
2.04875
 30
0.0
 11
7.4325
 21
2.1087499999999997
 31
0.0
  0
LWPOLYLINE
  5
27A
330
17
100
AcDbEntity
  8
A-ANNO-DIMS
100
AcDbPolyline
 90
4
 70
1
 10
7.4325
 20
2.04875
 10
7.9325
 20
2.04875
 10
7.9325
 20
2.10875
 10
7.4325
 20
2.10875
  0
LWPOLYLINE
  5
27B
330
17
100
AcDbEntity
  8
A-ANNO-DIMS
100
AcDbPolyline
 90
4
 70
1
 10
7.9325
 20
2.04875
 10
8.932500000000001
 20
2.04875
 10
8.932500000000001
 20
2.10875
 10
7.9325
 20
2.10875
  0
LINE
  5
27C
330
17
100
AcDbEntity
  8
A-ANNO-DIMS
100
AcDbLine
 10
7.9325
 20
2.04875
 30
0.0
 11
8.932500000000001
 21
2.1087499999999997
 31
0.0
  0
TEXT
  5
27D
330
17
100
AcDbEntity
  8
A-ANNO-DIMS
100
AcDbText
 10
6.9325
 20
1.92875
 30
0.0
 40
0.056
  1
0'
  7
KS-REG
 72
1
 11
6.9325
 21
1.92875
 31
0.0
100
AcDbText
  0
TEXT
  5
27E
330
17
100
AcDbEntity
  8
A-ANNO-DIMS
100
AcDbText
 10
7.4325
 20
1.92875
 30
0.0
 40
0.056
  1
16'
  7
KS-REG
 72
1
 11
7.4325
 21
1.92875
 31
0.0
100
AcDbText
  0
TEXT
  5
27F
330
17
100
AcDbEntity
  8
A-ANNO-DIMS
100
AcDbText
 10
7.9325
 20
1.92875
 30
0.0
 40
0.056
  1
32'
  7
KS-REG
 72
1
 11
7.9325
 21
1.92875
 31
0.0
100
AcDbText
  0
TEXT
  5
280
330
17
100
AcDbEntity
  8
A-ANNO-DIMS
100
AcDbText
 10
8.932500000000001
 20
1.92875
 30
0.0
 40
0.056
  1
64'
  7
KS-REG
 72
1
 11
8.932500000000001
 21
1.92875
 31
0.0
100
AcDbText
  0
LINE
  5
281
330
17
100
AcDbEntity
  8
A-ANNO-TEXT
100
AcDbLine
 10
9.782500000000002
 20
1.9700000000000002
 30
0.0
 11
9.782500000000002
 21
10.38
 31
0.0
  0
LWPOLYLINE
  5
282
330
17
100
AcDbEntity
  8
A-ANNO-TEXT
100
AcDbPolyline
 90
4
 70
1
 10
9.982500000000002
 20
9.91
 10
16.28
 20
9.91
 10
16.28
 20
10.33
 10
9.982500000000002
 20
10.33
  0
TEXT
  5
283
330
17
100
AcDbEntity
  8
A-ANNO-TEXT
100
AcDbText
 10
13.131250000000001
 20
10.040000000000001
 30
0.0
 40
0.13999999999999999
  1
SCHEMATIC — BLOCK PLAN
  7
KS-BOLD
 72
1
 11
13.131250000000001
 21
10.040000000000001
 31
0.0
100
AcDbText
  0
TEXT
  5
284
330
17
100
AcDbEntity
  8
A-ANNO-TEXT
100
AcDbText
 10
9.982500000000002
 20
9.71
 30
0.0
 40
0.095
  1
LEGEND
  7
KS-BOLD
 11
9.982500000000002
 21
9.71
 31
0.0
100
AcDbText
  0
LINE
  5
285
330
17
100
AcDbEntity
  8
A-ANNO-TEXT
100
AcDbLine
 10
10.032500000000002
 20
9.51
 30
0.0
 11
10.432500000000003
 21
9.51
 31
0.0
  0
TEXT
  5
286
330
17
100
AcDbEntity
  8
A-ANNO-TEXT
100
AcDbText
 10
10.582500000000003
 20
9.47
 30
0.0
 40
0.072
  1
Lower tier, FIXED seating (6.0 SF/seat) — base
  7
KS-REG
 11
10.582500000000003
 21
9.47
 31
0.0
100
AcDbText
  0
LINE
  5
287
330
17
100
AcDbEntity
  8
A-ANNO-TEXT
100
AcDbLine
 10
10.032500000000002
 20
9.32
 30
0.0
 11
10.112500000000002
 21
9.32
 31
0.0
  0
LINE
  5
288
330
17
100
AcDbEntity
  8
A-ANNO-TEXT
100
AcDbLine
 10
10.162500000000003
 20
9.32
 30
0.0
 11
10.242500000000003
 21
9.32
 31
0.0
  0
LINE
  5
289
330
17
100
AcDbEntity
  8
A-ANNO-TEXT
100
AcDbLine
 10
10.292500000000002
 20
9.32
 30
0.0
 11
10.372500000000002
 21
9.32
 31
0.0
  0
LINE
  5
28A
330
17
100
AcDbEntity
  8
A-ANNO-TEXT
100
AcDbLine
 10
10.422500000000003
 20
9.32
 30
0.0
 11
10.432500000000003
 21
9.32
 31
0.0
  0
TEXT
  5
28B
330
17
100
AcDbEntity
  8
A-ANNO-TEXT
100
AcDbText
 10
10.582500000000003
 20
9.280000000000001
 30
0.0
 40
0.072
  1
TELESCOPIC overlay: tier depth if bleachers (3.38 SF/seat) — D-009 OPEN
  7
KS-REG
 11
10.582500000000003
 21
9.280000000000001
 31
0.0
100
AcDbText
  0
LWPOLYLINE
  5
28C
330
17
100
AcDbEntity
  8
A-ANNO-TEXT
100
AcDbPolyline
 90
4
 70
1
 10
10.112500000000002
 20
9.060000000000002
 10
10.352500000000003
 20
9.060000000000002
 10
10.352500000000003
 20
9.200000000000003
 10
10.112500000000002
 20
9.200000000000003
  0
TEXT
  5
28D
330
17
100
AcDbEntity
  8
A-ANNO-TEXT
100
AcDbText
 10
10.582500000000003
 20
9.090000000000002
 30
0.0
 40
0.072
  1
42' wrestling mat (4, 2 x 2)
  7
KS-REG
 11
10.582500000000003
 21
9.090000000000002
 31
0.0
100
AcDbText
  0
LINE
  5
28E
330
17
100
AcDbEntity
  8
A-ANNO-TEXT
100
AcDbLine
 10
10.032500000000002
 20
8.940000000000001
 30
0.0
 11
10.102500000000003
 21
8.940000000000001
 31
0.0
  0
LINE
  5
28F
330
17
100
AcDbEntity
  8
A-ANNO-TEXT
100
AcDbLine
 10
10.142500000000002
 20
8.940000000000001
 30
0.0
 11
10.212500000000002
 21
8.940000000000001
 31
0.0
  0
LINE
  5
290
330
17
100
AcDbEntity
  8
A-ANNO-TEXT
100
AcDbLine
 10
10.252500000000003
 20
8.940000000000001
 30
0.0
 11
10.322500000000002
 21
8.940000000000001
 31
0.0
  0
LINE
  5
291
330
17
100
AcDbEntity
  8
A-ANNO-TEXT
100
AcDbLine
 10
10.362500000000002
 20
8.940000000000001
 30
0.0
 11
10.432500000000003
 21
8.940000000000001
 31
0.0
  0
TEXT
  5
292
330
17
100
AcDbEntity
  8
A-ANNO-TEXT
100
AcDbText
 10
10.582500000000003
 20
8.900000000000002
 30
0.0
 40
0.072
  1
84' x 50' court + 10' runout (overlay)
  7
KS-REG
 11
10.582500000000003
 21
8.900000000000002
 31
0.0
100
AcDbText
  0
LWPOLYLINE
  5
293
330
17
100
AcDbEntity
  8
A-ANNO-TEXT
100
AcDbPolyline
 90
4
 70
1
 10
10.112500000000002
 20
8.680000000000003
 10
10.352500000000003
 20
8.680000000000003
 10
10.352500000000003
 20
8.820000000000004
 10
10.112500000000002
 20
8.820000000000004
  0
TEXT
  5
294
330
17
100
AcDbEntity
  8
A-ANNO-TEXT
100
AcDbText
 10
10.582500000000003
 20
8.710000000000003
 30
0.0
 40
0.072
  1
Room block (tag number + drawn SF)
  7
KS-REG
 11
10.582500000000003
 21
8.710000000000003
 31
0.0
100
AcDbText
  0
LWPOLYLINE
  5
295
330
17
100
AcDbEntity
  8
A-ANNO-TEXT
100
AcDbPolyline
 90
4
 70
1
 10
10.112500000000002
 20
8.490000000000004
 10
10.232500000000002
 20
8.490000000000004
 10
10.232500000000002
 20
8.630000000000004
 10
10.112500000000002
 20
8.630000000000004
  0
LWPOLYLINE
  5
296
330
17
100
AcDbEntity
  8
A-ANNO-TEXT
100
AcDbPolyline
 90
4
 70
1
 10
10.272500000000003
 20
8.490000000000004
 10
10.392500000000002
 20
8.490000000000004
 10
10.392500000000002
 20
8.630000000000004
 10
10.272500000000003
 20
8.630000000000004
  0
LINE
  5
297
330
17
100
AcDbEntity
  8
A-ANNO-TEXT
100
AcDbLine
 10
10.272500000000003
 20
8.490000000000004
 30
0.0
 11
10.392500000000002
 21
8.630000000000003
 31
0.0
  0
TEXT
  5
298
330
17
100
AcDbEntity
  8
A-ANNO-TEXT
100
AcDbText
 10
10.582500000000003
 20
8.520000000000003
 30
0.0
 40
0.072
  1
Stair (4) / elevator (X), aligned on both levels
  7
KS-REG
 11
10.582500000000003
 21
8.520000000000003
 31
0.0
100
AcDbText
  0
TEXT
  5
299
330
17
100
AcDbEntity
  8
A-ANNO-TEXT
100
AcDbText
 10
9.982500000000002
 20
8.220000000000002
 30
0.0
 40
0.095
  1
ROOM SCHEDULE — LEVEL 1 (drawn vs locked program, P2-G-003 Rev D, fixed)
  7
KS-BOLD
 11
9.982500000000002
 21
8.220000000000002
 31
0.0
100
AcDbText
  0
TEXT
  5
29A
330
17
100
AcDbEntity
  8
A-ANNO-TABL
100
AcDbText
 10
9.982500000000002
 20
8.082000000000003
 30
0.0
 40
0.06799999999999999
  1
TAG
  7
KS-BOLD
 11
9.982500000000002
 21
8.082000000000003
 31
0.0
100
AcDbText
  0
TEXT
  5
29B
330
17
100
AcDbEntity
  8
A-ANNO-TABL
100
AcDbText
 10
10.342500000000001
 20
8.082000000000003
 30
0.0
 40
0.06799999999999999
  1
ROOM
  7
KS-BOLD
 11
10.342500000000001
 21
8.082000000000003
 31
0.0
100
AcDbText
  0
TEXT
  5
29C
330
17
100
AcDbEntity
  8
A-ANNO-TABL
100
AcDbText
 10
12.632500000000002
 20
8.082000000000003
 30
0.0
 40
0.06799999999999999
  1
DRAWN SF
  7
KS-BOLD
 72
2
 11
12.632500000000002
 21
8.082000000000003
 31
0.0
100
AcDbText
  0
TEXT
  5
29D
330
17
100
AcDbEntity
  8
A-ANNO-TABL
100
AcDbText
 10
13.332500000000001
 20
8.082000000000003
 30
0.0
 40
0.06799999999999999
  1
PROGRAM
  7
KS-BOLD
 72
2
 11
13.332500000000001
 21
8.082000000000003
 31
0.0
100
AcDbText
  0
TEXT
  5
29E
330
17
100
AcDbEntity
  8
A-ANNO-TABL
100
AcDbText
 10
13.482500000000002
 20
8.082000000000003
 30
0.0
 40
0.06799999999999999
  1
NOTE
  7
KS-BOLD
 11
13.482500000000002
 21
8.082000000000003
 31
0.0
100
AcDbText
  0
LINE
  5
29F
330
17
100
AcDbEntity
  8
A-ANNO-TABL
100
AcDbLine
 10
9.982500000000002
 20
8.022000000000004
 30
0.0
 11
16.28
 21
8.022000000000004
 31
0.0
  0
TEXT
  5
2A0
330
17
100
AcDbEntity
  8
A-ANNO-TABL
100
AcDbText
 10
9.982500000000002
 20
7.904000000000003
 30
0.0
 40
0.06999999999999999
  1
—
  7
KS-REG
 11
9.982500000000002
 21
7.904000000000003
 31
0.0
100
AcDbText
  0
TEXT
  5
2A1
330
17
100
AcDbEntity
  8
A-ANNO-TABL
100
AcDbText
 10
10.342500000000001
 20
7.904000000000003
 30
0.0
 40
0.06999999999999999
  1
Event floor (D-030 locked)
  7
KS-REG
 11
10.342500000000001
 21
7.904000000000003
 31
0.0
100
AcDbText
  0
TEXT
  5
2A2
330
17
100
AcDbEntity
  8
A-ANNO-TABL
100
AcDbText
 10
12.632500000000002
 20
7.904000000000003
 30
0.0
 40
0.06999999999999999
  1
16,416
  7
KS-REG
 72
2
 11
12.632500000000002
 21
7.904000000000003
 31
0.0
100
AcDbText
  0
TEXT
  5
2A3
330
17
100
AcDbEntity
  8
A-ANNO-TABL
100
AcDbText
 10
13.332500000000001
 20
7.904000000000003
 30
0.0
 40
0.06999999999999999
  1
16,400
  7
KS-REG
 72
2
 11
13.332500000000001
 21
7.904000000000003
 31
0.0
100
AcDbText
  0
TEXT
  5
2A4
330
17
100
AcDbEntity
  8
A-ANNO-TABL
100
AcDbText
 10
13.482500000000002
 20
7.904000000000003
 30
0.0
 40
0.064
  1
114' x 144'
  7
KS-REG
 11
13.482500000000002
 21
7.904000000000003
 31
0.0
100
AcDbText
  0
TEXT
  5
2A5
330
17
100
AcDbEntity
  8
A-ANNO-TABL
100
AcDbText
 10
9.982500000000002
 20
7.746000000000002
 30
0.0
 40
0.06999999999999999
  1
—
  7
KS-REG
 11
9.982500000000002
 21
7.746000000000002
 31
0.0
100
AcDbText
  0
TEXT
  5
2A6
330
17
100
AcDbEntity
  8
A-ANNO-TABL
100
AcDbText
 10
10.342500000000001
 20
7.746000000000002
 30
0.0
 40
0.06999999999999999
  1
Lower tier, fixed (~1,100 seats)
  7
KS-REG
 11
10.342500000000001
 21
7.746000000000002
 31
0.0
100
AcDbText
  0
TEXT
  5
2A7
330
17
100
AcDbEntity
  8
A-ANNO-TABL
100
AcDbText
 10
12.632500000000002
 20
7.746000000000002
 30
0.0
 40
0.06999999999999999
  1
6,682
  7
KS-REG
 72
2
 11
12.632500000000002
 21
7.746000000000002
 31
0.0
100
AcDbText
  0
TEXT
  5
2A8
330
17
100
AcDbEntity
  8
A-ANNO-TABL
100
AcDbText
 10
13.332500000000001
 20
7.746000000000002
 30
0.0
 40
0.06999999999999999
  1
6,600
  7
KS-REG
 72
2
 11
13.332500000000001
 21
7.746000000000002
 31
0.0
100
AcDbText
  0
TEXT
  5
2A9
330
17
100
AcDbEntity
  8
A-ANNO-TABL
100
AcDbText
 10
13.482500000000002
 20
7.746000000000002
 30
0.0
 40
0.064
  1
telescopic line 9.5' deep
  7
KS-REG
 11
13.482500000000002
 21
7.746000000000002
 31
0.0
100
AcDbText
  0
TEXT
  5
2AA
330
17
100
AcDbEntity
  8
A-ANNO-TABL
100
AcDbText
 10
9.982500000000002
 20
7.588000000000002
 30
0.0
 40
0.06999999999999999
  1
1
  7
KS-REG
 11
9.982500000000002
 21
7.588000000000002
 31
0.0
100
AcDbText
  0
TEXT
  5
2AB
330
17
100
AcDbEntity
  8
A-ANNO-TABL
100
AcDbText
 10
10.342500000000001
 20
7.588000000000002
 30
0.0
 40
0.06999999999999999
  1
Boys Locker
  7
KS-REG
 11
10.342500000000001
 21
7.588000000000002
 31
0.0
100
AcDbText
  0
TEXT
  5
2AC
330
17
100
AcDbEntity
  8
A-ANNO-TABL
100
AcDbText
 10
12.632500000000002
 20
7.588000000000002
 30
0.0
 40
0.06999999999999999
  1
3,504
  7
KS-REG
 72
2
 11
12.632500000000002
 21
7.588000000000002
 31
0.0
100
AcDbText
  0
TEXT
  5
2AD
330
17
100
AcDbEntity
  8
A-ANNO-TABL
100
AcDbText
 10
13.332500000000001
 20
7.588000000000002
 30
0.0
 40
0.06999999999999999
  1
3,500
  7
KS-REG
 72
2
 11
13.332500000000001
 21
7.588000000000002
 31
0.0
100
AcDbText
  0
TEXT
  5
2AE
330
17
100
AcDbEntity
  8
A-ANNO-TABL
100
AcDbText
 10
13.482500000000002
 20
7.588000000000002
 30
0.0
 40
0.064
  1

  7
KS-REG
 11
13.482500000000002
 21
7.588000000000002
 31
0.0
100
AcDbText
  0
TEXT
  5
2AF
330
17
100
AcDbEntity
  8
A-ANNO-TABL
100
AcDbText
 10
9.982500000000002
 20
7.4300000000000015
 30
0.0
 40
0.06999999999999999
  1
2
  7
KS-REG
 11
9.982500000000002
 21
7.4300000000000015
 31
0.0
100
AcDbText
  0
TEXT
  5
2B0
330
17
100
AcDbEntity
  8
A-ANNO-TABL
100
AcDbText
 10
10.342500000000001
 20
7.4300000000000015
 30
0.0
 40
0.06999999999999999
  1
Girls Locker
  7
KS-REG
 11
10.342500000000001
 21
7.4300000000000015
 31
0.0
100
AcDbText
  0
TEXT
  5
2B1
330
17
100
AcDbEntity
  8
A-ANNO-TABL
100
AcDbText
 10
12.632500000000002
 20
7.4300000000000015
 30
0.0
 40
0.06999999999999999
  1
3,504
  7
KS-REG
 72
2
 11
12.632500000000002
 21
7.4300000000000015
 31
0.0
100
AcDbText
  0
TEXT
  5
2B2
330
17
100
AcDbEntity
  8
A-ANNO-TABL
100
AcDbText
 10
13.332500000000001
 20
7.4300000000000015
 30
0.0
 40
0.06999999999999999
  1
3,503
  7
KS-REG
 72
2
 11
13.332500000000001
 21
7.4300000000000015
 31
0.0
100
AcDbText
  0
TEXT
  5
2B3
330
17
100
AcDbEntity
  8
A-ANNO-TABL
100
AcDbText
 10
13.482500000000002
 20
7.4300000000000015
 30
0.0
 40
0.064
  1
drawn equal to boys (D-013)
  7
KS-REG
 11
13.482500000000002
 21
7.4300000000000015
 31
0.0
100
AcDbText
  0
TEXT
  5
2B4
330
17
100
AcDbEntity
  8
A-ANNO-TABL
100
AcDbText
 10
9.982500000000002
 20
7.272000000000001
 30
0.0
 40
0.06999999999999999
  1
3
  7
KS-REG
 11
9.982500000000002
 21
7.272000000000001
 31
0.0
100
AcDbText
  0
TEXT
  5
2B5
330
17
100
AcDbEntity
  8
A-ANNO-TABL
100
AcDbText
 10
10.342500000000001
 20
7.272000000000001
 30
0.0
 40
0.06999999999999999
  1
Mech / Elec
  7
KS-REG
 11
10.342500000000001
 21
7.272000000000001
 31
0.0
100
AcDbText
  0
TEXT
  5
2B6
330
17
100
AcDbEntity
  8
A-ANNO-TABL
100
AcDbText
 10
12.632500000000002
 20
7.272000000000001
 30
0.0
 40
0.06999999999999999
  1
2,608
  7
KS-REG
 72
2
 11
12.632500000000002
 21
7.272000000000001
 31
0.0
100
AcDbText
  0
TEXT
  5
2B7
330
17
100
AcDbEntity
  8
A-ANNO-TABL
100
AcDbText
 10
13.332500000000001
 20
7.272000000000001
 30
0.0
 40
0.06999999999999999
  1
2,630
  7
KS-REG
 72
2
 11
13.332500000000001
 21
7.272000000000001
 31
0.0
100
AcDbText
  0
TEXT
  5
2B8
330
17
100
AcDbEntity
  8
A-ANNO-TABL
100
AcDbText
 10
13.482500000000002
 20
7.272000000000001
 30
0.0
 40
0.064
  1

  7
KS-REG
 11
13.482500000000002
 21
7.272000000000001
 31
0.0
100
AcDbText
  0
TEXT
  5
2B9
330
17
100
AcDbEntity
  8
A-ANNO-TABL
100
AcDbText
 10
9.982500000000002
 20
7.114000000000001
 30
0.0
 40
0.06999999999999999
  1
4
  7
KS-REG
 11
9.982500000000002
 21
7.114000000000001
 31
0.0
100
AcDbText
  0
TEXT
  5
2BA
330
17
100
AcDbEntity
  8
A-ANNO-TABL
100
AcDbText
 10
10.342500000000001
 20
7.114000000000001
 30
0.0
 40
0.06999999999999999
  1
Men
  7
KS-REG
 11
10.342500000000001
 21
7.114000000000001
 31
0.0
100
AcDbText
  0
TEXT
  5
2BB
330
17
100
AcDbEntity
  8
A-ANNO-TABL
100
AcDbText
 10
12.632500000000002
 20
7.114000000000001
 30
0.0
 40
0.06999999999999999
  1
700
  7
KS-REG
 72
2
 11
12.632500000000002
 21
7.114000000000001
 31
0.0
100
AcDbText
  0
TEXT
  5
2BC
330
17
100
AcDbEntity
  8
A-ANNO-TABL
100
AcDbText
 10
13.332500000000001
 20
7.114000000000001
 30
0.0
 40
0.06999999999999999
  1
700
  7
KS-REG
 72
2
 11
13.332500000000001
 21
7.114000000000001
 31
0.0
100
AcDbText
  0
TEXT
  5
2BD
330
17
100
AcDbEntity
  8
A-ANNO-TABL
100
AcDbText
 10
13.482500000000002
 20
7.114000000000001
 30
0.0
 40
0.064
  1
14 fixtures (WC 10, LAV 4; urinals ≤ 6 of the WCs)
  7
KS-REG
 11
13.482500000000002
 21
7.114000000000001
 31
0.0
100
AcDbText
  0
TEXT
  5
2BE
330
17
100
AcDbEntity
  8
A-ANNO-TABL
100
AcDbText
 10
9.982500000000002
 20
6.956
 30
0.0
 40
0.06999999999999999
  1
5
  7
KS-REG
 11
9.982500000000002
 21
6.956
 31
0.0
100
AcDbText
  0
TEXT
  5
2BF
330
17
100
AcDbEntity
  8
A-ANNO-TABL
100
AcDbText
 10
10.342500000000001
 20
6.956
 30
0.0
 40
0.06999999999999999
  1
Women
  7
KS-REG
 11
10.342500000000001
 21
6.956
 31
0.0
100
AcDbText
  0
TEXT
  5
2C0
330
17
100
AcDbEntity
  8
A-ANNO-TABL
100
AcDbText
 10
12.632500000000002
 20
6.956
 30
0.0
 40
0.06999999999999999
  1
1,150
  7
KS-REG
 72
2
 11
12.632500000000002
 21
6.956
 31
0.0
100
AcDbText
  0
TEXT
  5
2C1
330
17
100
AcDbEntity
  8
A-ANNO-TABL
100
AcDbText
 10
13.332500000000001
 20
6.956
 30
0.0
 40
0.06999999999999999
  1
1,150
  7
KS-REG
 72
2
 11
13.332500000000001
 21
6.956
 31
0.0
100
AcDbText
  0
TEXT
  5
2C2
330
17
100
AcDbEntity
  8
A-ANNO-TABL
100
AcDbText
 10
13.482500000000002
 20
6.956
 30
0.0
 40
0.064
  1
23 fixtures (WC 18, LAV 5)
  7
KS-REG
 11
13.482500000000002
 21
6.956
 31
0.0
100
AcDbText
  0
TEXT
  5
2C3
330
17
100
AcDbEntity
  8
A-ANNO-TABL
100
AcDbText
 10
9.982500000000002
 20
6.798
 30
0.0
 40
0.06999999999999999
  1
6
  7
KS-REG
 11
9.982500000000002
 21
6.798
 31
0.0
100
AcDbText
  0
TEXT
  5
2C4
330
17
100
AcDbEntity
  8
A-ANNO-TABL
100
AcDbText
 10
10.342500000000001
 20
6.798
 30
0.0
 40
0.06999999999999999
  1
First Aid
  7
KS-REG
 11
10.342500000000001
 21
6.798
 31
0.0
100
AcDbText
  0
TEXT
  5
2C5
330
17
100
AcDbEntity
  8
A-ANNO-TABL
100
AcDbText
 10
12.632500000000002
 20
6.798
 30
0.0
 40
0.06999999999999999
  1
120
  7
KS-REG
 72
2
 11
12.632500000000002
 21
6.798
 31
0.0
100
AcDbText
  0
TEXT
  5
2C6
330
17
100
AcDbEntity
  8
A-ANNO-TABL
100
AcDbText
 10
13.332500000000001
 20
6.798
 30
0.0
 40
0.06999999999999999
  1
120
  7
KS-REG
 72
2
 11
13.332500000000001
 21
6.798
 31
0.0
100
AcDbText
  0
TEXT
  5
2C7
330
17
100
AcDbEntity
  8
A-ANNO-TABL
100
AcDbText
 10
13.482500000000002
 20
6.798
 30
0.0
 40
0.064
  1

  7
KS-REG
 11
13.482500000000002
 21
6.798
 31
0.0
100
AcDbText
  0
TEXT
  5
2C8
330
17
100
AcDbEntity
  8
A-ANNO-TABL
100
AcDbText
 10
9.982500000000002
 20
6.64
 30
0.0
 40
0.06999999999999999
  1
7
  7
KS-REG
 11
9.982500000000002
 21
6.64
 31
0.0
100
AcDbText
  0
TEXT
  5
2C9
330
17
100
AcDbEntity
  8
A-ANNO-TABL
100
AcDbText
 10
10.342500000000001
 20
6.64
 30
0.0
 40
0.06999999999999999
  1
Entry / Foyer
  7
KS-REG
 11
10.342500000000001
 21
6.64
 31
0.0
100
AcDbText
  0
TEXT
  5
2CA
330
17
100
AcDbEntity
  8
A-ANNO-TABL
100
AcDbText
 10
12.632500000000002
 20
6.64
 30
0.0
 40
0.06999999999999999
  1
800
  7
KS-REG
 72
2
 11
12.632500000000002
 21
6.64
 31
0.0
100
AcDbText
  0
TEXT
  5
2CB
330
17
100
AcDbEntity
  8
A-ANNO-TABL
100
AcDbText
 10
13.332500000000001
 20
6.64
 30
0.0
 40
0.06999999999999999
  1
800
  7
KS-REG
 72
2
 11
13.332500000000001
 21
6.64
 31
0.0
100
AcDbText
  0
TEXT
  5
2CC
330
17
100
AcDbEntity
  8
A-ANNO-TABL
100
AcDbText
 10
13.482500000000002
 20
6.64
 30
0.0
 40
0.064
  1

  7
KS-REG
 11
13.482500000000002
 21
6.64
 31
0.0
100
AcDbText
  0
TEXT
  5
2CD
330
17
100
AcDbEntity
  8
A-ANNO-TABL
100
AcDbText
 10
9.982500000000002
 20
6.481999999999999
 30
0.0
 40
0.06999999999999999
  1
8
  7
KS-REG
 11
9.982500000000002
 21
6.481999999999999
 31
0.0
100
AcDbText
  0
TEXT
  5
2CE
330
17
100
AcDbEntity
  8
A-ANNO-TABL
100
AcDbText
 10
10.342500000000001
 20
6.481999999999999
 30
0.0
 40
0.06999999999999999
  1
Concession
  7
KS-REG
 11
10.342500000000001
 21
6.481999999999999
 31
0.0
100
AcDbText
  0
TEXT
  5
2CF
330
17
100
AcDbEntity
  8
A-ANNO-TABL
100
AcDbText
 10
12.632500000000002
 20
6.481999999999999
 30
0.0
 40
0.06999999999999999
  1
275
  7
KS-REG
 72
2
 11
12.632500000000002
 21
6.481999999999999
 31
0.0
100
AcDbText
  0
TEXT
  5
2D0
330
17
100
AcDbEntity
  8
A-ANNO-TABL
100
AcDbText
 10
13.332500000000001
 20
6.481999999999999
 30
0.0
 40
0.06999999999999999
  1
275
  7
KS-REG
 72
2
 11
13.332500000000001
 21
6.481999999999999
 31
0.0
100
AcDbText
  0
TEXT
  5
2D1
330
17
100
AcDbEntity
  8
A-ANNO-TABL
100
AcDbText
 10
13.482500000000002
 20
6.481999999999999
 30
0.0
 40
0.064
  1

  7
KS-REG
 11
13.482500000000002
 21
6.481999999999999
 31
0.0
100
AcDbText
  0
TEXT
  5
2D2
330
17
100
AcDbEntity
  8
A-ANNO-TABL
100
AcDbText
 10
9.982500000000002
 20
6.323999999999999
 30
0.0
 40
0.06999999999999999
  1
9
  7
KS-REG
 11
9.982500000000002
 21
6.323999999999999
 31
0.0
100
AcDbText
  0
TEXT
  5
2D3
330
17
100
AcDbEntity
  8
A-ANNO-TABL
100
AcDbText
 10
10.342500000000001
 20
6.323999999999999
 30
0.0
 40
0.06999999999999999
  1
Equip. Storage
  7
KS-REG
 11
10.342500000000001
 21
6.323999999999999
 31
0.0
100
AcDbText
  0
TEXT
  5
2D4
330
17
100
AcDbEntity
  8
A-ANNO-TABL
100
AcDbText
 10
12.632500000000002
 20
6.323999999999999
 30
0.0
 40
0.06999999999999999
  1
699
  7
KS-REG
 72
2
 11
12.632500000000002
 21
6.323999999999999
 31
0.0
100
AcDbText
  0
TEXT
  5
2D5
330
17
100
AcDbEntity
  8
A-ANNO-TABL
100
AcDbText
 10
13.332500000000001
 20
6.323999999999999
 30
0.0
 40
0.06999999999999999
  1
700
  7
KS-REG
 72
2
 11
13.332500000000001
 21
6.323999999999999
 31
0.0
100
AcDbText
  0
TEXT
  5
2D6
330
17
100
AcDbEntity
  8
A-ANNO-TABL
100
AcDbText
 10
13.482500000000002
 20
6.323999999999999
 30
0.0
 40
0.064
  1

  7
KS-REG
 11
13.482500000000002
 21
6.323999999999999
 31
0.0
100
AcDbText
  0
TEXT
  5
2D7
330
17
100
AcDbEntity
  8
A-ANNO-TABL
100
AcDbText
 10
9.982500000000002
 20
6.165999999999999
 30
0.0
 40
0.06999999999999999
  1
10
  7
KS-REG
 11
9.982500000000002
 21
6.165999999999999
 31
0.0
100
AcDbText
  0
TEXT
  5
2D8
330
17
100
AcDbEntity
  8
A-ANNO-TABL
100
AcDbText
 10
10.342500000000001
 20
6.165999999999999
 30
0.0
 40
0.06999999999999999
  1
Equip. Room
  7
KS-REG
 11
10.342500000000001
 21
6.165999999999999
 31
0.0
100
AcDbText
  0
TEXT
  5
2D9
330
17
100
AcDbEntity
  8
A-ANNO-TABL
100
AcDbText
 10
12.632500000000002
 20
6.165999999999999
 30
0.0
 40
0.06999999999999999
  1
301
  7
KS-REG
 72
2
 11
12.632500000000002
 21
6.165999999999999
 31
0.0
100
AcDbText
  0
TEXT
  5
2DA
330
17
100
AcDbEntity
  8
A-ANNO-TABL
100
AcDbText
 10
13.332500000000001
 20
6.165999999999999
 30
0.0
 40
0.06999999999999999
  1
300
  7
KS-REG
 72
2
 11
13.332500000000001
 21
6.165999999999999
 31
0.0
100
AcDbText
  0
TEXT
  5
2DB
330
17
100
AcDbEntity
  8
A-ANNO-TABL
100
AcDbText
 10
13.482500000000002
 20
6.165999999999999
 30
0.0
 40
0.064
  1

  7
KS-REG
 11
13.482500000000002
 21
6.165999999999999
 31
0.0
100
AcDbText
  0
TEXT
  5
2DC
330
17
100
AcDbEntity
  8
A-ANNO-TABL
100
AcDbText
 10
9.982500000000002
 20
6.007999999999998
 30
0.0
 40
0.06999999999999999
  1
11
  7
KS-REG
 11
9.982500000000002
 21
6.007999999999998
 31
0.0
100
AcDbText
  0
TEXT
  5
2DD
330
17
100
AcDbEntity
  8
A-ANNO-TABL
100
AcDbText
 10
10.342500000000001
 20
6.007999999999998
 30
0.0
 40
0.06999999999999999
  1
Event Locker 1
  7
KS-REG
 11
10.342500000000001
 21
6.007999999999998
 31
0.0
100
AcDbText
  0
TEXT
  5
2DE
330
17
100
AcDbEntity
  8
A-ANNO-TABL
100
AcDbText
 10
12.632500000000002
 20
6.007999999999998
 30
0.0
 40
0.06999999999999999
  1
903
  7
KS-REG
 72
2
 11
12.632500000000002
 21
6.007999999999998
 31
0.0
100
AcDbText
  0
TEXT
  5
2DF
330
17
100
AcDbEntity
  8
A-ANNO-TABL
100
AcDbText
 10
13.332500000000001
 20
6.007999999999998
 30
0.0
 40
0.06999999999999999
  1
900
  7
KS-REG
 72
2
 11
13.332500000000001
 21
6.007999999999998
 31
0.0
100
AcDbText
  0
TEXT
  5
2E0
330
17
100
AcDbEntity
  8
A-ANNO-TABL
100
AcDbText
 10
13.482500000000002
 20
6.007999999999998
 30
0.0
 40
0.064
  1

  7
KS-REG
 11
13.482500000000002
 21
6.007999999999998
 31
0.0
100
AcDbText
  0
TEXT
  5
2E1
330
17
100
AcDbEntity
  8
A-ANNO-TABL
100
AcDbText
 10
9.982500000000002
 20
5.849999999999998
 30
0.0
 40
0.06999999999999999
  1
12
  7
KS-REG
 11
9.982500000000002
 21
5.849999999999998
 31
0.0
100
AcDbText
  0
TEXT
  5
2E2
330
17
100
AcDbEntity
  8
A-ANNO-TABL
100
AcDbText
 10
10.342500000000001
 20
5.849999999999998
 30
0.0
 40
0.06999999999999999
  1
Event Locker 2
  7
KS-REG
 11
10.342500000000001
 21
5.849999999999998
 31
0.0
100
AcDbText
  0
TEXT
  5
2E3
330
17
100
AcDbEntity
  8
A-ANNO-TABL
100
AcDbText
 10
12.632500000000002
 20
5.849999999999998
 30
0.0
 40
0.06999999999999999
  1
903
  7
KS-REG
 72
2
 11
12.632500000000002
 21
5.849999999999998
 31
0.0
100
AcDbText
  0
TEXT
  5
2E4
330
17
100
AcDbEntity
  8
A-ANNO-TABL
100
AcDbText
 10
13.332500000000001
 20
5.849999999999998
 30
0.0
 40
0.06999999999999999
  1
900
  7
KS-REG
 72
2
 11
13.332500000000001
 21
5.849999999999998
 31
0.0
100
AcDbText
  0
TEXT
  5
2E5
330
17
100
AcDbEntity
  8
A-ANNO-TABL
100
AcDbText
 10
13.482500000000002
 20
5.849999999999998
 30
0.0
 40
0.064
  1

  7
KS-REG
 11
13.482500000000002
 21
5.849999999999998
 31
0.0
100
AcDbText
  0
TEXT
  5
2E6
330
17
100
AcDbEntity
  8
A-ANNO-TABL
100
AcDbText
 10
9.982500000000002
 20
5.6919999999999975
 30
0.0
 40
0.06999999999999999
  1
13
  7
KS-REG
 11
9.982500000000002
 21
5.6919999999999975
 31
0.0
100
AcDbText
  0
TEXT
  5
2E7
330
17
100
AcDbEntity
  8
A-ANNO-TABL
100
AcDbText
 10
10.342500000000001
 20
5.6919999999999975
 30
0.0
 40
0.06999999999999999
  1
Event Locker 3
  7
KS-REG
 11
10.342500000000001
 21
5.6919999999999975
 31
0.0
100
AcDbText
  0
TEXT
  5
2E8
330
17
100
AcDbEntity
  8
A-ANNO-TABL
100
AcDbText
 10
12.632500000000002
 20
5.6919999999999975
 30
0.0
 40
0.06999999999999999
  1
900
  7
KS-REG
 72
2
 11
12.632500000000002
 21
5.6919999999999975
 31
0.0
100
AcDbText
  0
TEXT
  5
2E9
330
17
100
AcDbEntity
  8
A-ANNO-TABL
100
AcDbText
 10
13.332500000000001
 20
5.6919999999999975
 30
0.0
 40
0.06999999999999999
  1
900
  7
KS-REG
 72
2
 11
13.332500000000001
 21
5.6919999999999975
 31
0.0
100
AcDbText
  0
TEXT
  5
2EA
330
17
100
AcDbEntity
  8
A-ANNO-TABL
100
AcDbText
 10
13.482500000000002
 20
5.6919999999999975
 30
0.0
 40
0.064
  1

  7
KS-REG
 11
13.482500000000002
 21
5.6919999999999975
 31
0.0
100
AcDbText
  0
TEXT
  5
2EB
330
17
100
AcDbEntity
  8
A-ANNO-TABL
100
AcDbText
 10
9.982500000000002
 20
5.533999999999997
 30
0.0
 40
0.06999999999999999
  1
14
  7
KS-REG
 11
9.982500000000002
 21
5.533999999999997
 31
0.0
100
AcDbText
  0
TEXT
  5
2EC
330
17
100
AcDbEntity
  8
A-ANNO-TABL
100
AcDbText
 10
10.342500000000001
 20
5.533999999999997
 30
0.0
 40
0.06999999999999999
  1
Event Locker 4
  7
KS-REG
 11
10.342500000000001
 21
5.533999999999997
 31
0.0
100
AcDbText
  0
TEXT
  5
2ED
330
17
100
AcDbEntity
  8
A-ANNO-TABL
100
AcDbText
 10
12.632500000000002
 20
5.533999999999997
 30
0.0
 40
0.06999999999999999
  1
900
  7
KS-REG
 72
2
 11
12.632500000000002
 21
5.533999999999997
 31
0.0
100
AcDbText
  0
TEXT
  5
2EE
330
17
100
AcDbEntity
  8
A-ANNO-TABL
100
AcDbText
 10
13.332500000000001
 20
5.533999999999997
 30
0.0
 40
0.06999999999999999
  1
900
  7
KS-REG
 72
2
 11
13.332500000000001
 21
5.533999999999997
 31
0.0
100
AcDbText
  0
TEXT
  5
2EF
330
17
100
AcDbEntity
  8
A-ANNO-TABL
100
AcDbText
 10
13.482500000000002
 20
5.533999999999997
 30
0.0
 40
0.064
  1

  7
KS-REG
 11
13.482500000000002
 21
5.533999999999997
 31
0.0
100
AcDbText
  0
TEXT
  5
2F0
330
17
100
AcDbEntity
  8
A-ANNO-TABL
100
AcDbText
 10
9.982500000000002
 20
5.375999999999997
 30
0.0
 40
0.06999999999999999
  1
15
  7
KS-REG
 11
9.982500000000002
 21
5.375999999999997
 31
0.0
100
AcDbText
  0
TEXT
  5
2F1
330
17
100
AcDbEntity
  8
A-ANNO-TABL
100
AcDbText
 10
10.342500000000001
 20
5.375999999999997
 30
0.0
 40
0.06999999999999999
  1
Mech (SE)
  7
KS-REG
 11
10.342500000000001
 21
5.375999999999997
 31
0.0
100
AcDbText
  0
TEXT
  5
2F2
330
17
100
AcDbEntity
  8
A-ANNO-TABL
100
AcDbText
 10
12.632500000000002
 20
5.375999999999997
 30
0.0
 40
0.06999999999999999
  1
1,422
  7
KS-REG
 72
2
 11
12.632500000000002
 21
5.375999999999997
 31
0.0
100
AcDbText
  0
TEXT
  5
2F3
330
17
100
AcDbEntity
  8
A-ANNO-TABL
100
AcDbText
 10
13.332500000000001
 20
5.375999999999997
 30
0.0
 40
0.06999999999999999
  1
1,416
  7
KS-REG
 72
2
 11
13.332500000000001
 21
5.375999999999997
 31
0.0
100
AcDbText
  0
TEXT
  5
2F4
330
17
100
AcDbEntity
  8
A-ANNO-TABL
100
AcDbText
 10
13.482500000000002
 20
5.375999999999997
 30
0.0
 40
0.064
  1

  7
KS-REG
 11
13.482500000000002
 21
5.375999999999997
 31
0.0
100
AcDbText
  0
LINE
  5
2F5
330
17
100
AcDbEntity
  8
A-ANNO-TABL
100
AcDbLine
 10
9.982500000000002
 20
5.325999999999997
 30
0.0
 11
16.28
 21
5.325999999999997
 31
0.0
  0
TEXT
  5
2F6
330
17
100
AcDbEntity
  8
A-ANNO-TEXT
100
AcDbText
 10
9.982500000000002
 20
5.135999999999997
 30
0.0
 40
0.095
  1
AREA CHECK
  7
KS-BOLD
 11
9.982500000000002
 21
5.135999999999997
 31
0.0
100
AcDbText
  0
TEXT
  5
2F7
330
17
100
AcDbEntity
  8
A-ANNO-TEXT
100
AcDbText
 10
9.982500000000002
 20
4.996766666666663
 30
0.0
 40
0.073
  1
Drawn footprint 55,000 SF = cap 55,000 (D-031). Program L1 gross 54,949 fixed / 50,868 telescopic (P2-G-003 Rev D): the
  7
KS-REG
 11
9.982500000000002
 21
4.996766666666663
 31
0.0
100
AcDbText
  0
TEXT
  5
2F8
330
17
100
AcDbEntity
  8
A-ANNO-TEXT
100
AcDbText
 10
9.982500000000002
 20
4.86293333333333
 30
0.0
 40
0.073
  1
block uses all of it; space beyond the program is lobby and concourse. Mechanical drawn 4,030 vs 4,047 program. Fixtures:
  7
KS-REG
 11
9.982500000000002
 21
4.86293333333333
 31
0.0
100
AcDbText
  0
TEXT
  5
2F9
330
17
100
AcDbEntity
  8
A-ANNO-TEXT
100
AcDbText
 10
9.982500000000002
 20
4.729099999999996
 30
0.0
 40
0.073
  1
L1 load 1,428 → 37 in two rooms; 2 drinking fountains + 1 service sink in concourse alcoves (not drawn). 18 wheelchair
  7
KS-REG
 11
9.982500000000002
 21
4.729099999999996
 31
0.0
100
AcDbText
  0
TEXT
  5
2FA
330
17
100
AcDbEntity
  8
A-ANNO-TEXT
100
AcDbText
 10
9.982500000000002
 20
4.595266666666663
 30
0.0
 40
0.073
  1
spaces + companions across both tiers (not drawn).
  7
KS-REG
 11
9.982500000000002
 21
4.595266666666663
 31
0.0
100
AcDbText
  0
TEXT
  5
2FB
330
17
100
AcDbEntity
  8
A-ANNO-TEXT
100
AcDbText
 10
9.982500000000002
 20
4.4072083333333305
 30
0.0
 40
0.09
  1
LAYOUT NOTES (KEYSTONE, ASSUMED — architect to confirm)
  7
KS-BOLD
 11
9.982500000000002
 21
4.4072083333333305
 31
0.0
100
AcDbText
  0
TEXT
  5
2FC
330
17
100
AcDbEntity
  8
A-ANNO-TEXT
100
AcDbText
 10
9.982500000000002
 20
4.292874999999997
 30
0.0
 40
0.06999999999999999
  1
·
  7
KS-REG
 11
9.982500000000002
 21
4.292874999999997
 31
0.0
100
AcDbText
  0
TEXT
  5
2FD
330
17
100
AcDbEntity
  8
A-ANNO-TEXT
100
AcDbText
 10
10.102500000000001
 20
4.292874999999997
 30
0.0
 40
0.06999999999999999
  1
Lockers west next to the floor via the athlete corridor, kept off the public concourse (DR1). Girls drawn equal to boys (D-013).
  7
KS-REG
 11
10.102500000000001
 21
4.292874999999997
 31
0.0
100
AcDbText
  0
TEXT
  5
2FE
330
17
100
AcDbEntity
  8
A-ANNO-TEXT
100
AcDbText
 10
9.982500000000002
 20
4.15245833333333
 30
0.0
 40
0.06999999999999999
  1
·
  7
KS-REG
 11
9.982500000000002
 21
4.15245833333333
 31
0.0
100
AcDbText
  0
TEXT
  5
2FF
330
17
100
AcDbEntity
  8
A-ANNO-TEXT
100
AcDbText
 10
10.102500000000001
 20
4.15245833333333
 30
0.0
 40
0.06999999999999999
  1
Entry + foyer at the south end of the west wing (reference plan: south-center); concourse spine runs north along the floor.
  7
KS-REG
 11
10.102500000000001
 21
4.15245833333333
 31
0.0
100
AcDbText
  0
TEXT
  5
300
330
17
100
AcDbEntity
  8
A-ANNO-TEXT
100
AcDbText
 10
9.982500000000002
 20
4.012041666666662
 30
0.0
 40
0.06999999999999999
  1
·
  7
KS-REG
 11
9.982500000000002
 21
4.012041666666662
 31
0.0
100
AcDbText
  0
TEXT
  5
301
330
17
100
AcDbEntity
  8
A-ANNO-TEXT
100
AcDbText
 10
10.102500000000001
 20
4.012041666666662
 30
0.0
 40
0.06999999999999999
  1
Event lockers split north (1-2) and east (3-4); vomitories V1/V2 through the tier are TBD. No tier on the west; stage TBD (no
  7
KS-REG
 11
10.102500000000001
 21
4.012041666666662
 31
0.0
100
AcDbText
  0
TEXT
  5
302
330
17
100
AcDbEntity
  8
A-ANNO-TEXT
100
AcDbText
 10
10.102500000000001
 20
3.883708333333329
 30
0.0
 40
0.06999999999999999
  1
source).
  7
KS-REG
 11
10.102500000000001
 21
3.883708333333329
 31
0.0
100
AcDbText
  0
TEXT
  5
303
330
17
100
AcDbEntity
  8
A-ANNO-TEXT
100
AcDbText
 10
9.982500000000002
 20
3.743291666666662
 30
0.0
 40
0.06999999999999999
  1
·
  7
KS-REG
 11
9.982500000000002
 21
3.743291666666662
 31
0.0
100
AcDbText
  0
TEXT
  5
304
330
17
100
AcDbEntity
  8
A-ANNO-TEXT
100
AcDbText
 10
10.102500000000001
 20
3.743291666666662
 30
0.0
 40
0.06999999999999999
  1
Table/bench zones 15 ft N and S; court overlay long axis N-S. Exit separation, travel distance and sightlines NOT checked.
  7
KS-REG
 11
10.102500000000001
 21
3.743291666666662
 31
0.0
100
AcDbText
  0
TEXT
  5
305
330
17
100
AcDbEntity
  8
A-ANNO-TEXT
100
AcDbText
 10
9.982500000000002
 20
3.5694083333333286
 30
0.0
 40
0.06599999999999999
  1
Sources: phase2.yaml (locked, D-030, D-031); P2-G-003 Rev D; R-005, R-008, R-009, R-012, R-014, R-015; reference plan (Shane).
  7
KS-REG
 11
9.982500000000002
 21
3.5694083333333286
 31
0.0
100
AcDbText
  0
TEXT
  5
306
330
17
100
AcDbEntity
  8
A-ANNO-TEXT
100
AcDbText
 10
9.982500000000002
 20
3.4484083333333286
 30
0.0
 40
0.06599999999999999
  1
Geometry: params/phase2_plan.yaml.
  7
KS-REG
 11
9.982500000000002
 21
3.4484083333333286
 31
0.0
100
AcDbText
  0
ENDSEC
  0
SECTION
  2
OBJECTS
  0
DICTIONARY
  5
A
330
0
100
AcDbDictionary
281
1
  3
ACAD_COLOR
350
B
  3
ACAD_GROUP
350
C
  3
ACAD_LAYOUT
350
D
  3
ACAD_MATERIAL
350
E
  3
ACAD_MLEADERSTYLE
350
F
  3
ACAD_MLINESTYLE
350
10
  3
ACAD_PLOTSETTINGS
350
11
  3
ACAD_PLOTSTYLENAME
350
12
  3
ACAD_SCALELIST
350
14
  3
ACAD_TABLESTYLE
350
15
  3
ACAD_VISUALSTYLE
350
16
  3
EZDXF_META
350
2D
  0
DICTIONARY
  5
B
330
A
100
AcDbDictionary
281
1
  0
DICTIONARY
  5
C
330
A
100
AcDbDictionary
281
1
  0
DICTIONARY
  5
D
330
A
100
AcDbDictionary
281
1
  3
Model
350
1A
  3
Layout1
350
1E
  0
DICTIONARY
  5
E
330
A
100
AcDbDictionary
281
1
  3
ByBlock
350
1F
  3
ByLayer
350
20
  3
Global
350
21
  0
DICTIONARY
  5
F
330
A
100
AcDbDictionary
281
1
  3
Standard
350
2C
  0
DICTIONARY
  5
10
330
A
100
AcDbDictionary
281
1
  3
Standard
350
22
  0
DICTIONARY
  5
11
330
A
100
AcDbDictionary
281
1
  0
ACDBDICTIONARYWDFLT
  5
12
330
A
100
AcDbDictionary
281
1
  3
Normal
350
13
100
AcDbDictionaryWithDefault
340
13
  0
ACDBPLACEHOLDER
  5
13
330
12
  0
DICTIONARY
  5
14
330
A
100
AcDbDictionary
281
1
  0
DICTIONARY
  5
15
330
A
100
AcDbDictionary
281
1
  0
DICTIONARY
  5
16
330
A
100
AcDbDictionary
281
1
  0
LAYOUT
  5
1A
330
D
100
AcDbPlotSettings
  1

  4
A3
  6

 40
7.5
 41
20.0
 42
7.5
 43
20.0
 44
420.0
 45
297.0
 46
0.0
 47
0.0
 48
0.0
 49
0.0
140
0.0
141
0.0
142
1.0
143
1.0
 70
1024
 72
1
 73
0
 74
5
  7

 75
16
 76
0
 77
2
 78
300
147
1.0
148
0.0
149
0.0
100
AcDbLayout
  1
Model
 70
1
 71
0
 10
0.0
 20
0.0
 11
420.0
 21
297.0
 12
0.0
 22
0.0
 32
0.0
 14
1e+20
 24
1e+20
 34
1e+20
 15
-1e+20
 25
-1e+20
 35
-1e+20
146
0.0
 13
0.0
 23
0.0
 33
0.0
 16
1.0
 26
0.0
 36
0.0
 17
0.0
 27
1.0
 37
0.0
 76
1
330
17
  0
LAYOUT
  5
1E
330
D
100
AcDbPlotSettings
  1

  4
A3
  6

 40
7.5
 41
20.0
 42
7.5
 43
20.0
 44
420.0
 45
297.0
 46
0.0
 47
0.0
 48
0.0
 49
0.0
140
0.0
141
0.0
142
1.0
143
1.0
 70
0
 72
1
 73
0
 74
5
  7

 75
16
 76
0
 77
2
 78
300
147
1.0
148
0.0
149
0.0
100
AcDbLayout
  1
Layout1
 70
1
 71
1
 10
0.0
 20
0.0
 11
420.0
 21
297.0
 12
0.0
 22
0.0
 32
0.0
 14
1e+20
 24
1e+20
 34
1e+20
 15
-1e+20
 25
-1e+20
 35
-1e+20
146
0.0
 13
0.0
 23
0.0
 33
0.0
 16
1.0
 26
0.0
 36
0.0
 17
0.0
 27
1.0
 37
0.0
 76
1
330
1B
  0
MATERIAL
  5
1F
102
{ACAD_REACTORS
330
E
102
}
330
E
100
AcDbMaterial
  1
ByBlock
  2

 70
0
 40
1.0
 71
1
 41
1.0
 91
-1023410177
 42
1.0
 72
1
  3

 73
1
 74
1
 75
1
 44
0.5
 73
0
 45
1.0
 46
1.0
 77
1
  4

 78
1
 79
1
170
1
 48
1.0
171
1
  6

172
1
173
1
174
1
140
1.0
141
1.0
175
1
  7

176
1
177
1
178
1
143
1.0
179
1
  8

270
1
271
1
272
1
145
1.0
146
1.0
273
1
  9

274
1
275
1
276
1
 42
1.0
 72
1
  3

 73
1
 74
1
 75
1
 94
63
  0
MATERIAL
  5
20
102
{ACAD_REACTORS
330
E
102
}
330
E
100
AcDbMaterial
  1
ByLayer
  2

 70
0
 40
1.0
 71
1
 41
1.0
 91
-1023410177
 42
1.0
 72
1
  3

 73
1
 74
1
 75
1
 44
0.5
 73
0
 45
1.0
 46
1.0
 77
1
  4

 78
1
 79
1
170
1
 48
1.0
171
1
  6

172
1
173
1
174
1
140
1.0
141
1.0
175
1
  7

176
1
177
1
178
1
143
1.0
179
1
  8

270
1
271
1
272
1
145
1.0
146
1.0
273
1
  9

274
1
275
1
276
1
 42
1.0
 72
1
  3

 73
1
 74
1
 75
1
 94
63
  0
MATERIAL
  5
21
102
{ACAD_REACTORS
330
E
102
}
330
E
100
AcDbMaterial
  1
Global
  2

 70
0
 40
1.0
 71
1
 41
1.0
 91
-1023410177
 42
1.0
 72
1
  3

 73
1
 74
1
 75
1
 44
0.5
 73
0
 45
1.0
 46
1.0
 77
1
  4

 78
1
 79
1
170
1
 48
1.0
171
1
  6

172
1
173
1
174
1
140
1.0
141
1.0
175
1
  7

176
1
177
1
178
1
143
1.0
179
1
  8

270
1
271
1
272
1
145
1.0
146
1.0
273
1
  9

274
1
275
1
276
1
 42
1.0
 72
1
  3

 73
1
 74
1
 75
1
 94
63
  0
MLINESTYLE
  5
22
102
{ACAD_REACTORS
330
10
102
}
330
10
100
AcDbMlineStyle
  2
Standard
 70
0
  3

 62
256
 51
90.0
 52
90.0
 71
2
 49
0.5
 62
256
  6
BYLAYER
 49
-0.5
 62
256
  6
BYLAYER
  0
MLEADERSTYLE
  5
2C
102
{ACAD_REACTORS
330
F
102
}
330
F
100
AcDbMLeaderStyle
179
2
170
2
171
1
172
0
 90
2
 40
0.0
 41
0.0
173
1
 91
-1056964608
 92
-2
290
1
 42
2.0
291
1
 43
8.0
  3
Standard
 44
4.0
300

342
29
174
1
175
1
176
0
178
1
 93
-1056964608
 45
4.0
292
0
297
0
 46
4.0
 94
-1056964608
 47
1.0
 49
1.0
140
1.0
294
1
141
0.0
177
0
142
1.0
295
0
296
0
143
3.75
271
0
272
9
273
9
  0
DICTIONARY
  5
2D
330
A
100
AcDbDictionary
280
1
281
1
  3
CREATED_BY_EZDXF
350
2E
  3
WRITTEN_BY_EZDXF
350
309
  0
DICTIONARYVAR
  5
2E
330
2D
100
DictionaryVariables
280
0
  1
1.4.4 @ 2026-10-04T04:49:31.218791+00:00
  0
DICTIONARYVAR
  5
309
330
2D
100
DictionaryVariables
280
0
  1
1.4.4 @ 2026-10-04T04:49:31.233998+00:00
  0
ENDSEC
  0
EOF
