  0
SECTION
  2
HEADER
  9
$ACADVER
  1
AC1024
  9
$ACADMAINTVER
 70
6
  9
$DWGCODEPAGE
  3
ANSI_1252
  9
$LASTSAVEDBY
  1
ezdxf
  9
$INSBASE
 10
0.0
 20
0.0
 30
0.0
  9
$EXTMIN
 10
1e+20
 20
1e+20
 30
1e+20
  9
$EXTMAX
 10
-1e+20
 20
-1e+20
 30
-1e+20
  9
$LIMMIN
 10
0.0
 20
0.0
  9
$LIMMAX
 10
420.0
 20
297.0
  9
$ORTHOMODE
 70
0
  9
$REGENMODE
 70
1
  9
$FILLMODE
 70
1
  9
$QTEXTMODE
 70
0
  9
$MIRRTEXT
 70
1
  9
$LTSCALE
 40
1.0
  9
$ATTMODE
 70
1
  9
$TEXTSIZE
 40
2.5
  9
$TRACEWID
 40
1.0
  9
$TEXTSTYLE
  7
Standard
  9
$CLAYER
  8
0
  9
$CELTYPE
  6
ByLayer
  9
$CECOLOR
 62
256
  9
$CELTSCALE
 40
1.0
  9
$DISPSILH
 70
0
  9
$DIMSCALE
 40
1.0
  9
$DIMASZ
 40
2.5
  9
$DIMEXO
 40
0.625
  9
$DIMDLI
 40
3.75
  9
$DIMRND
 40
0.0
  9
$DIMDLE
 40
0.0
  9
$DIMEXE
 40
1.25
  9
$DIMTP
 40
0.0
  9
$DIMTM
 40
0.0
  9
$DIMTXT
 40
2.5
  9
$DIMCEN
 40
2.5
  9
$DIMTSZ
 40
0.0
  9
$DIMTOL
 70
0
  9
$DIMLIM
 70
0
  9
$DIMTIH
 70
0
  9
$DIMTOH
 70
0
  9
$DIMSE1
 70
0
  9
$DIMSE2
 70
0
  9
$DIMTAD
 70
1
  9
$DIMZIN
 70
8
  9
$DIMBLK
  1

  9
$DIMASO
 70
1
  9
$DIMSHO
 70
1
  9
$DIMPOST
  1

  9
$DIMAPOST
  1

  9
$DIMALT
 70
0
  9
$DIMALTD
 70
3
  9
$DIMALTF
 40
0.03937007874
  9
$DIMLFAC
 40
1.0
  9
$DIMTOFL
 70
1
  9
$DIMTVP
 40
0.0
  9
$DIMTIX
 70
0
  9
$DIMSOXD
 70
0
  9
$DIMSAH
 70
0
  9
$DIMBLK1
  1

  9
$DIMBLK2
  1

  9
$DIMSTYLE
  2
ISO-25
  9
$DIMCLRD
 70
0
  9
$DIMCLRE
 70
0
  9
$DIMCLRT
 70
0
  9
$DIMTFAC
 40
1.0
  9
$DIMGAP
 40
0.625
  9
$DIMJUST
 70
0
  9
$DIMSD1
 70
0
  9
$DIMSD2
 70
0
  9
$DIMTOLJ
 70
0
  9
$DIMTZIN
 70
8
  9
$DIMALTZ
 70
0
  9
$DIMALTTZ
 70
0
  9
$DIMUPT
 70
0
  9
$DIMDEC
 70
2
  9
$DIMTDEC
 70
2
  9
$DIMALTU
 70
2
  9
$DIMALTTD
 70
3
  9
$DIMTXSTY
  7
Standard
  9
$DIMAUNIT
 70
0
  9
$DIMADEC
 70
0
  9
$DIMALTRND
 40
0.0
  9
$DIMAZIN
 70
0
  9
$DIMDSEP
 70
44
  9
$DIMATFIT
 70
3
  9
$DIMFRAC
 70
0
  9
$DIMLDRBLK
  1

  9
$DIMLUNIT
 70
2
  9
$DIMLWD
 70
-2
  9
$DIMLWE
 70
-2
  9
$DIMTMOVE
 70
0
  9
$DIMFXL
 40
1.0
  9
$DIMFXLON
 70
0
  9
$DIMJOGANG
 40
0.785398163397
  9
$DIMTFILL
 70
0
  9
$DIMTFILLCLR
 70
0
  9
$DIMARCSYM
 70
0
  9
$DIMLTYPE
  6

  9
$DIMLTEX1
  6

  9
$DIMLTEX2
  6

  9
$DIMTXTDIRECTION
 70
0
  9
$LUNITS
 70
2
  9
$LUPREC
 70
4
  9
$SKETCHINC
 40
1.0
  9
$FILLETRAD
 40
10.0
  9
$AUNITS
 70
0
  9
$AUPREC
 70
2
  9
$MENU
  1
.
  9
$ELEVATION
 40
0.0
  9
$PELEVATION
 40
0.0
  9
$THICKNESS
 40
0.0
  9
$LIMCHECK
 70
0
  9
$CHAMFERA
 40
0.0
  9
$CHAMFERB
 40
0.0
  9
$CHAMFERC
 40
0.0
  9
$CHAMFERD
 40
0.0
  9
$SKPOLY
 70
0
  9
$TDCREATE
 40
2461318.3179398146
  9
$TDUCREATE
 40
2458532.153996898
  9
$TDUPDATE
 40
2461318.3179398146
  9
$TDUUPDATE
 40
2458532.1544311
  9
$TDINDWG
 40
0.0
  9
$TDUSRTIMER
 40
0.0
  9
$USRTIMER
 70
1
  9
$ANGBASE
 50
0.0
  9
$ANGDIR
 70
0
  9
$PDMODE
 70
0
  9
$PDSIZE
 40
0.0
  9
$PLINEWID
 40
0.0
  9
$SPLFRAME
 70
0
  9
$SPLINETYPE
 70
6
  9
$SPLINESEGS
 70
8
  9
$HANDSEED
  5
300
  9
$SURFTAB1
 70
6
  9
$SURFTAB2
 70
6
  9
$SURFTYPE
 70
6
  9
$SURFU
 70
6
  9
$SURFV
 70
6
  9
$UCSBASE
  2

  9
$UCSNAME
  2

  9
$UCSORG
 10
0.0
 20
0.0
 30
0.0
  9
$UCSXDIR
 10
1.0
 20
0.0
 30
0.0
  9
$UCSYDIR
 10
0.0
 20
1.0
 30
0.0
  9
$UCSORTHOREF
  2

  9
$UCSORTHOVIEW
 70
0
  9
$UCSORGTOP
 10
0.0
 20
0.0
 30
0.0
  9
$UCSORGBOTTOM
 10
0.0
 20
0.0
 30
0.0
  9
$UCSORGLEFT
 10
0.0
 20
0.0
 30
0.0
  9
$UCSORGRIGHT
 10
0.0
 20
0.0
 30
0.0
  9
$UCSORGFRONT
 10
0.0
 20
0.0
 30
0.0
  9
$UCSORGBACK
 10
0.0
 20
0.0
 30
0.0
  9
$PUCSBASE
  2

  9
$PUCSNAME
  2

  9
$PUCSORG
 10
0.0
 20
0.0
 30
0.0
  9
$PUCSXDIR
 10
1.0
 20
0.0
 30
0.0
  9
$PUCSYDIR
 10
0.0
 20
1.0
 30
0.0
  9
$PUCSORTHOREF
  2

  9
$PUCSORTHOVIEW
 70
0
  9
$PUCSORGTOP
 10
0.0
 20
0.0
 30
0.0
  9
$PUCSORGBOTTOM
 10
0.0
 20
0.0
 30
0.0
  9
$PUCSORGLEFT
 10
0.0
 20
0.0
 30
0.0
  9
$PUCSORGRIGHT
 10
0.0
 20
0.0
 30
0.0
  9
$PUCSORGFRONT
 10
0.0
 20
0.0
 30
0.0
  9
$PUCSORGBACK
 10
0.0
 20
0.0
 30
0.0
  9
$USERI1
 70
0
  9
$USERI2
 70
0
  9
$USERI3
 70
0
  9
$USERI4
 70
0
  9
$USERI5
 70
0
  9
$USERR1
 40
0.0
  9
$USERR2
 40
0.0
  9
$USERR3
 40
0.0
  9
$USERR4
 40
0.0
  9
$USERR5
 40
0.0
  9
$WORLDVIEW
 70
1
  9
$SHADEDGE
 70
3
  9
$SHADEDIF
 70
70
  9
$TILEMODE
 70
1
  9
$MAXACTVP
 70
64
  9
$PINSBASE
 10
0.0
 20
0.0
 30
0.0
  9
$PLIMCHECK
 70
0
  9
$PEXTMIN
 10
1e+20
 20
1e+20
 30
1e+20
  9
$PEXTMAX
 10
-1e+20
 20
-1e+20
 30
-1e+20
  9
$PLIMMIN
 10
0.0
 20
0.0
  9
$PLIMMAX
 10
420.0
 20
297.0
  9
$UNITMODE
 70
0
  9
$VISRETAIN
 70
1
  9
$PLINEGEN
 70
0
  9
$PSLTSCALE
 70
1
  9
$TREEDEPTH
 70
3020
  9
$CMLSTYLE
  2
Standard
  9
$CMLJUST
 70
0
  9
$CMLSCALE
 40
20.0
  9
$PROXYGRAPHICS
 70
1
  9
$MEASUREMENT
 70
0
  9
$CELWEIGHT
370
-1
  9
$ENDCAPS
280
0
  9
$JOINSTYLE
280
0
  9
$LWDISPLAY
290
0
  9
$INSUNITS
 70
1
  9
$HYPERLINKBASE
  1

  9
$STYLESHEET
  1

  9
$XEDIT
290
1
  9
$CEPSNTYPE
380
0
  9
$PSTYLEMODE
290
1
  9
$FINGERPRINTGUID
  2
{792D56F6-3765-4565-BEF5-1EE61B36CD13}
  9
$VERSIONGUID
  2
{10BBC491-617A-4512-A199-446044F1A373}
  9
$EXTNAMES
290
1
  9
$PSVPSCALE
 40
0.0
  9
$OLESTARTUP
290
0
  9
$SORTENTS
280
127
  9
$INDEXCTL
280
0
  9
$HIDETEXT
280
1
  9
$XCLIPFRAME
280
1
  9
$HALOGAP
280
0
  9
$OBSCOLOR
 70
257
  9
$OBSLTYPE
280
0
  9
$INTERSECTIONDISPLAY
280
0
  9
$INTERSECTIONCOLOR
 70
257
  9
$DIMASSOC
280
2
  9
$PROJECTNAME
  1

  9
$CAMERADISPLAY
290
0
  9
$LENSLENGTH
 40
50.0
  9
$CAMERAHEIGHT
 40
0.0
  9
$STEPSPERSEC
 40
24.0
  9
$STEPSIZE
 40
100.0
  9
$3DDWFPREC
 40
2.0
  9
$PSOLWIDTH
 40
0.005
  9
$PSOLHEIGHT
 40
0.08
  9
$LOFTANG1
 40
1.570796326795
  9
$LOFTANG2
 40
1.570796326795
  9
$LOFTMAG1
 40
0.0
  9
$LOFTMAG2
 40
0.0
  9
$LOFTPARAM
 70
7
  9
$LOFTNORMALS
280
1
  9
$LATITUDE
 40
37.795
  9
$LONGITUDE
 40
-122.394
  9
$NORTHDIRECTION
 40
0.0
  9
$TIMEZONE
 70
-8000
  9
$LIGHTGLYPHDISPLAY
280
1
  9
$TILEMODELIGHTSYNCH
280
1
  9
$CMATERIAL
347
20
  9
$SOLIDHIST
280
0
  9
$SHOWHIST
280
1
  9
$DWFFRAME
280
2
  9
$DGNFRAME
280
2
  9
$REALWORLDSCALE
290
1
  9
$INTERFERECOLOR
 62
256
  9
$CSHADOW
280
0
  9
$SHADOWPLANELOCATION
 40
0.0
  0
ENDSEC
  0
SECTION
  2
CLASSES
  0
CLASS
  1
ACDBDICTIONARYWDFLT
  2
AcDbDictionaryWithDefault
  3
ObjectDBX Classes
 90
0
 91
0
280
0
281
0
  0
CLASS
  1
SUN
  2
AcDbSun
  3
SCENEOE
 90
1153
 91
0
280
0
281
0
  0
CLASS
  1
VISUALSTYLE
  2
AcDbVisualStyle
  3
ObjectDBX Classes
 90
4095
 91
0
280
0
281
0
  0
CLASS
  1
MATERIAL
  2
AcDbMaterial
  3
ObjectDBX Classes
 90
1153
 91
0
280
0
281
0
  0
CLASS
  1
SCALE
  2
AcDbScale
  3
ObjectDBX Classes
 90
1153
 91
0
280
0
281
0
  0
CLASS
  1
TABLESTYLE
  2
AcDbTableStyle
  3
ObjectDBX Classes
 90
4095
 91
0
280
0
281
0
  0
CLASS
  1
MLEADERSTYLE
  2
AcDbMLeaderStyle
  3
ACDB_MLEADERSTYLE_CLASS
 90
4095
 91
0
280
0
281
0
  0
CLASS
  1
DICTIONARYVAR
  2
AcDbDictionaryVar
  3
ObjectDBX Classes
 90
0
 91
0
280
0
281
0
  0
CLASS
  1
CELLSTYLEMAP
  2
AcDbCellStyleMap
  3
ObjectDBX Classes
 90
1152
 91
0
280
0
281
0
  0
CLASS
  1
MENTALRAYRENDERSETTINGS
  2
AcDbMentalRayRenderSettings
  3
SCENEOE
 90
1024
 91
0
280
0
281
0
  0
CLASS
  1
ACDBDETAILVIEWSTYLE
  2
AcDbDetailViewStyle
  3
ObjectDBX Classes
 90
1025
 91
0
280
0
281
0
  0
CLASS
  1
ACDBSECTIONVIEWSTYLE
  2
AcDbSectionViewStyle
  3
ObjectDBX Classes
 90
1025
 91
0
280
0
281
0
  0
CLASS
  1
RASTERVARIABLES
  2
AcDbRasterVariables
  3
ISM
 90
0
 91
0
280
0
281
0
  0
CLASS
  1
ACDBPLACEHOLDER
  2
AcDbPlaceHolder
  3
ObjectDBX Classes
 90
0
 91
0
280
0
281
0
  0
CLASS
  1
LAYOUT
  2
AcDbLayout
  3
ObjectDBX Classes
 90
0
 91
0
280
0
281
0
  0
ENDSEC
  0
SECTION
  2
TABLES
  0
TABLE
  2
VPORT
  5
8
330
0
100
AcDbSymbolTable
 70
1
  0
VPORT
  5
23
330
8
100
AcDbSymbolTableRecord
100
AcDbViewportTableRecord
  2
*Active
 70
0
 10
0.0
 20
0.0
 11
1.0
 21
1.0
 12
0.0
 22
0.0
 13
0.0
 23
0.0
 14
0.5
 24
0.5
 15
0.5
 25
0.5
 16
0.0
 26
0.0
 36
1.0
 17
0.0
 27
0.0
 37
0.0
 40
1000.0
 41
1.34
 42
50.0
 43
0.0
 44
0.0
 50
0.0
 51
0.0
 71
0
 72
1000
 73
1
 74
3
 75
0
 76
0
 77
0
 78
0
281
0
 65
0
146
0.0
  0
ENDTAB
  0
TABLE
  2
LTYPE
  5
2
330
0
100
AcDbSymbolTable
 70
3
  0
LTYPE
  5
24
330
2
100
AcDbSymbolTableRecord
100
AcDbLinetypeTableRecord
  2
ByBlock
 70
0
  3

 72
65
 73
0
 40
0.0
  0
LTYPE
  5
25
330
2
100
AcDbSymbolTableRecord
100
AcDbLinetypeTableRecord
  2
ByLayer
 70
0
  3

 72
65
 73
0
 40
0.0
  0
LTYPE
  5
26
330
2
100
AcDbSymbolTableRecord
100
AcDbLinetypeTableRecord
  2
Continuous
 70
0
  3

 72
65
 73
0
 40
0.0
  0
ENDTAB
  0
TABLE
  2
LAYER
  5
1
330
0
100
AcDbSymbolTable
 70
10
  0
LAYER
  5
27
330
1
100
AcDbSymbolTableRecord
100
AcDbLayerTableRecord
  2
0
 70
0
 62
7
  6
Continuous
370
-3
390
13
347
21
  0
LAYER
  5
28
330
1
100
AcDbSymbolTableRecord
100
AcDbLayerTableRecord
  2
Defpoints
 70
0
 62
7
  6
Continuous
290
0
370
-3
390
13
347
21
  0
LAYER
  5
31
330
1
100
AcDbSymbolTableRecord
100
AcDbLayerTableRecord
  2
G-ANNO-TTLB
 70
0
 62
7
  6
Continuous
370
-3
390
13
347
21
  0
LAYER
  5
32
330
1
100
AcDbSymbolTableRecord
100
AcDbLayerTableRecord
  2
A-ANNO-TEXT
 70
0
 62
7
  6
Continuous
370
-3
390
13
347
21
  0
LAYER
  5
33
330
1
100
AcDbSymbolTableRecord
100
AcDbLayerTableRecord
  2
A-SECT-FILL
 70
0
 62
7
  6
Continuous
370
-3
390
13
347
21
  0
LAYER
  5
34
330
1
100
AcDbSymbolTableRecord
100
AcDbLayerTableRecord
  2
A-SECT-CUTL
 70
0
 62
7
  6
Continuous
370
-3
390
13
347
21
  0
LAYER
  5
35
330
1
100
AcDbSymbolTableRecord
100
AcDbLayerTableRecord
  2
A-SECT-IDEN
 70
0
 62
7
  6
Continuous
370
-3
390
13
347
21
  0
LAYER
  5
36
330
1
100
AcDbSymbolTableRecord
100
AcDbLayerTableRecord
  2
A-SECT-GUAR
 70
0
 62
7
  6
Continuous
370
-3
390
13
347
21
  0
LAYER
  5
37
330
1
100
AcDbSymbolTableRecord
100
AcDbLayerTableRecord
  2
A-SECT-HIDN
 70
0
 62
7
  6
Continuous
370
-3
390
13
347
21
  0
LAYER
  5
38
330
1
100
AcDbSymbolTableRecord
100
AcDbLayerTableRecord
  2
A-SECT-DATM
 70
0
 62
7
  6
Continuous
370
-3
390
13
347
21
  0
ENDTAB
  0
TABLE
  2
STYLE
  5
5
330
0
100
AcDbSymbolTable
 70
3
  0
STYLE
  5
29
330
5
100
AcDbSymbolTableRecord
100
AcDbTextStyleTableRecord
  2
Standard
 70
0
 40
0.0
 41
1.0
 50
0.0
 71
0
 42
2.5
  3
txt
  4

  0
STYLE
  5
2F
330
5
100
AcDbSymbolTableRecord
100
AcDbTextStyleTableRecord
  2
KS-REG
 70
0
 40
0.0
 41
1.0
 50
0.0
 71
0
 42
2.5
  3
DejaVuSans.ttf
  4

  0
STYLE
  5
30
330
5
100
AcDbSymbolTableRecord
100
AcDbTextStyleTableRecord
  2
KS-BOLD
 70
0
 40
0.0
 41
1.0
 50
0.0
 71
0
 42
2.5
  3
DejaVuSans-Bold.ttf
  4

  0
ENDTAB
  0
TABLE
  2
VIEW
  5
7
330
0
100
AcDbSymbolTable
 70
0
  0
ENDTAB
  0
TABLE
  2
UCS
  5
6
330
0
100
AcDbSymbolTable
 70
0
  0
ENDTAB
  0
TABLE
  2
APPID
  5
3
330
0
100
AcDbSymbolTable
 70
3
  0
APPID
  5
2A
330
3
100
AcDbSymbolTableRecord
100
AcDbRegAppTableRecord
  2
ACAD
 70
0
  0
APPID
  5
2FD
330
3
100
AcDbSymbolTableRecord
100
AcDbRegAppTableRecord
  2
HATCHBACKGROUNDCOLOR
 70
0
  0
APPID
  5
2FE
330
3
100
AcDbSymbolTableRecord
100
AcDbRegAppTableRecord
  2
EZDXF
 70
0
  0
ENDTAB
  0
TABLE
  2
DIMSTYLE
  5
4
330
0
100
AcDbSymbolTable
 70
1
100
AcDbDimStyleTable
  0
DIMSTYLE
105
2B
330
4
100
AcDbSymbolTableRecord
100
AcDbDimStyleTableRecord
  2
Standard
 70
0
 40
1.0
 41
2.5
 42
0.625
 43
3.75
 44
1.25
 45
0.0
 46
0.0
 47
0.0
 48
0.0
 49
2.5
140
2.5
141
2.5
142
0.0
143
0.03937007874
144
1.0
145
0.0
146
1.0
147
0.625
148
0.0
 69
0
 70
0
 71
0
 72
0
 73
0
 74
0
 75
0
 76
0
 77
1
 78
8
 79
3
170
0
171
3
172
1
173
0
174
0
175
0
176
0
177
0
178
0
179
2
271
2
272
2
273
2
274
3
275
0
276
0
277
2
278
44
279
0
280
0
281
0
282
0
283
0
284
8
285
0
286
0
288
0
289
3
290
0
371
-2
372
-2
  0
ENDTAB
  0
TABLE
  2
BLOCK_RECORD
  5
9
330
0
100
AcDbSymbolTable
 70
2
  0
BLOCK_RECORD
  5
17
330
9
100
AcDbSymbolTableRecord
100
AcDbBlockTableRecord
  2
*Model_Space
340
1A
 70
0
280
1
281
0
  0
BLOCK_RECORD
  5
1B
330
9
100
AcDbSymbolTableRecord
100
AcDbBlockTableRecord
  2
*Paper_Space
340
1E
 70
0
280
1
281
0
  0
ENDTAB
  0
ENDSEC
  0
SECTION
  2
BLOCKS
  0
BLOCK
  5
18
330
17
100
AcDbEntity
  8
0
100
AcDbBlockBegin
  2
*Model_Space
 70
0
 10
0.0
 20
0.0
 30
0.0
  3
*Model_Space
  1

  0
ENDBLK
  5
19
330
17
100
AcDbEntity
  8
0
100
AcDbBlockEnd
  0
BLOCK
  5
1C
330
1B
100
AcDbEntity
  8
0
100
AcDbBlockBegin
  2
*Paper_Space
 70
0
 10
0.0
 20
0.0
 30
0.0
  3
*Paper_Space
  1

  0
ENDBLK
  5
1D
330
1B
100
AcDbEntity
  8
0
100
AcDbBlockEnd
  0
ENDSEC
  0
SECTION
  2
ENTITIES
  0
LWPOLYLINE
  5
39
330
17
100
AcDbEntity
  8
G-ANNO-TTLB
100
AcDbPolyline
 90
4
 70
1
 10
0.5
 20
0.5
 10
16.5
 20
0.5
 10
16.5
 20
10.5
 10
0.5
 20
10.5
  0
LWPOLYLINE
  5
3A
330
17
100
AcDbEntity
  8
G-ANNO-TTLB
100
AcDbPolyline
 90
4
 70
1
 10
0.5
 20
1.45
 10
16.5
 20
1.45
 10
16.5
 20
1.85
 10
0.5
 20
1.85
  0
TEXT
  5
3B
330
17
100
AcDbEntity
  8
G-ANNO-TTLB
100
AcDbText
 10
8.5
 20
1.5699999999999998
 30
0.0
 40
0.16999999999999998
  1
PRELIMINARY — CONCEPTUAL DESIGN — NOT FOR CONSTRUCTION
  7
KS-BOLD
 72
1
 11
8.5
 21
1.5699999999999998
 31
0.0
100
AcDbText
  0
LINE
  5
3C
330
17
100
AcDbEntity
  8
G-ANNO-TTLB
100
AcDbLine
 10
0.5
 20
1.45
 30
0.0
 11
16.5
 21
1.45
 31
0.0
  0
TEXT
  5
3D
330
17
100
AcDbEntity
  8
G-ANNO-TTLB
100
AcDbText
 10
0.58
 20
1.28
 30
0.0
 40
0.06999999999999999
  1
PROJECT
  7
KS-REG
 11
0.58
 21
1.28
 31
0.0
100
AcDbText
  0
TEXT
  5
3E
330
17
100
AcDbEntity
  8
G-ANNO-TTLB
100
AcDbText
 10
0.58
 20
0.9991666666666666
 30
0.0
 40
0.11499999999999999
  1
Hazel Green Regional Athletic Complex
  7
KS-BOLD
 11
0.58
 21
0.9991666666666666
 31
0.0
100
AcDbText
  0
TEXT
  5
3F
330
17
100
AcDbEntity
  8
G-ANNO-TTLB
100
AcDbText
 10
0.58
 20
0.7883333333333333
 30
0.0
 40
0.11499999999999999
  1
Trojan Horse Arena · Hazel Green area, Madison
  7
KS-BOLD
 11
0.58
 21
0.7883333333333333
 31
0.0
100
AcDbText
  0
TEXT
  5
40
330
17
100
AcDbEntity
  8
G-ANNO-TTLB
100
AcDbText
 10
0.58
 20
0.5775
 30
0.0
 40
0.11499999999999999
  1
County, Alabama (site TBD, D-006)
  7
KS-BOLD
 11
0.58
 21
0.5775
 31
0.0
100
AcDbText
  0
LINE
  5
41
330
17
100
AcDbEntity
  8
G-ANNO-TTLB
100
AcDbLine
 10
5.2
 20
0.5
 30
0.0
 11
5.2
 21
1.45
 31
0.0
  0
TEXT
  5
42
330
17
100
AcDbEntity
  8
G-ANNO-TTLB
100
AcDbText
 10
5.28
 20
1.28
 30
0.0
 40
0.06999999999999999
  1
PHASE
  7
KS-REG
 11
5.28
 21
1.28
 31
0.0
100
AcDbText
  0
TEXT
  5
43
330
17
100
AcDbEntity
  8
G-ANNO-TTLB
100
AcDbText
 10
5.28
 20
0.9716666666666667
 30
0.0
 40
0.13
  1
PHASE 2
  7
KS-BOLD
 11
5.28
 21
0.9716666666666667
 31
0.0
100
AcDbText
  0
LINE
  5
44
330
17
100
AcDbEntity
  8
G-ANNO-TTLB
100
AcDbLine
 10
6.7
 20
0.5
 30
0.0
 11
6.7
 21
1.45
 31
0.0
  0
TEXT
  5
45
330
17
100
AcDbEntity
  8
G-ANNO-TTLB
100
AcDbText
 10
6.78
 20
1.28
 30
0.0
 40
0.06999999999999999
  1
SHEET TITLE
  7
KS-REG
 11
6.78
 21
1.28
 31
0.0
100
AcDbText
  0
TEXT
  5
46
330
17
100
AcDbEntity
  8
G-ANNO-TTLB
100
AcDbText
 10
6.78
 20
0.9991666666666666
 30
0.0
 40
0.11499999999999999
  1
BUILDING SECTIONS
  7
KS-BOLD
 11
6.78
 21
0.9991666666666666
 31
0.0
100
AcDbText
  0
TEXT
  5
47
330
17
100
AcDbEntity
  8
G-ANNO-TTLB
100
AcDbText
 10
6.78
 20
0.7883333333333333
 30
0.0
 40
0.11499999999999999
  1
SCHEMATIC · COLOR
  7
KS-BOLD
 11
6.78
 21
0.7883333333333333
 31
0.0
100
AcDbText
  0
LINE
  5
48
330
17
100
AcDbEntity
  8
G-ANNO-TTLB
100
AcDbLine
 10
9.8
 20
0.5
 30
0.0
 11
9.8
 21
1.45
 31
0.0
  0
TEXT
  5
49
330
17
100
AcDbEntity
  8
G-ANNO-TTLB
100
AcDbText
 10
9.88
 20
1.28
 30
0.0
 40
0.06999999999999999
  1
SCALE
  7
KS-REG
 11
9.88
 21
1.28
 31
0.0
100
AcDbText
  0
TEXT
  5
4A
330
17
100
AcDbEntity
  8
G-ANNO-TTLB
100
AcDbText
 10
9.88
 20
0.9716666666666667
 30
0.0
 40
0.13
  1
AS
  7
KS-BOLD
 11
9.88
 21
0.9716666666666667
 31
0.0
100
AcDbText
  0
TEXT
  5
4B
330
17
100
AcDbEntity
  8
G-ANNO-TTLB
100
AcDbText
 10
9.88
 20
0.7333333333333334
 30
0.0
 40
0.13
  1
NOTED
  7
KS-BOLD
 11
9.88
 21
0.7333333333333334
 31
0.0
100
AcDbText
  0
LINE
  5
4C
330
17
100
AcDbEntity
  8
G-ANNO-TTLB
100
AcDbLine
 10
10.700000000000001
 20
0.5
 30
0.0
 11
10.700000000000001
 21
1.45
 31
0.0
  0
TEXT
  5
4D
330
17
100
AcDbEntity
  8
G-ANNO-TTLB
100
AcDbText
 10
10.780000000000001
 20
1.28
 30
0.0
 40
0.06999999999999999
  1
DATE
  7
KS-REG
 11
10.780000000000001
 21
1.28
 31
0.0
100
AcDbText
  0
TEXT
  5
4E
330
17
100
AcDbEntity
  8
G-ANNO-TTLB
100
AcDbText
 10
10.780000000000001
 20
0.9716666666666667
 30
0.0
 40
0.13
  1
October
  7
KS-BOLD
 11
10.780000000000001
 21
0.9716666666666667
 31
0.0
100
AcDbText
  0
TEXT
  5
4F
330
17
100
AcDbEntity
  8
G-ANNO-TTLB
100
AcDbText
 10
10.780000000000001
 20
0.7333333333333334
 30
0.0
 40
0.13
  1
2026
  7
KS-BOLD
 11
10.780000000000001
 21
0.7333333333333334
 31
0.0
100
AcDbText
  0
LINE
  5
50
330
17
100
AcDbEntity
  8
G-ANNO-TTLB
100
AcDbLine
 10
12.15
 20
0.5
 30
0.0
 11
12.15
 21
1.45
 31
0.0
  0
TEXT
  5
51
330
17
100
AcDbEntity
  8
G-ANNO-TTLB
100
AcDbText
 10
12.23
 20
1.28
 30
0.0
 40
0.06999999999999999
  1
REV
  7
KS-REG
 11
12.23
 21
1.28
 31
0.0
100
AcDbText
  0
TEXT
  5
52
330
17
100
AcDbEntity
  8
G-ANNO-TTLB
100
AcDbText
 10
12.23
 20
0.9716666666666667
 30
0.0
 40
0.13
  1
B
  7
KS-BOLD
 11
12.23
 21
0.9716666666666667
 31
0.0
100
AcDbText
  0
LINE
  5
53
330
17
100
AcDbEntity
  8
G-ANNO-TTLB
100
AcDbLine
 10
12.9
 20
0.5
 30
0.0
 11
12.9
 21
1.45
 31
0.0
  0
TEXT
  5
54
330
17
100
AcDbEntity
  8
G-ANNO-TTLB
100
AcDbText
 10
12.98
 20
1.28
 30
0.0
 40
0.06999999999999999
  1
DRAWN BY
  7
KS-REG
 11
12.98
 21
1.28
 31
0.0
100
AcDbText
  0
TEXT
  5
55
330
17
100
AcDbEntity
  8
G-ANNO-TTLB
100
AcDbText
 10
12.98
 20
1.0358333333333332
 30
0.0
 40
0.095
  1
Drawn by KEYSTONE (AI) for
  7
KS-REG
 11
12.98
 21
1.0358333333333332
 31
0.0
100
AcDbText
  0
TEXT
  5
56
330
17
100
AcDbEntity
  8
G-ANNO-TTLB
100
AcDbText
 10
12.98
 20
0.8616666666666665
 30
0.0
 40
0.095
  1
Shane Brazelton
  7
KS-REG
 11
12.98
 21
0.8616666666666665
 31
0.0
100
AcDbText
  0
LINE
  5
57
330
17
100
AcDbEntity
  8
G-ANNO-TTLB
100
AcDbLine
 10
15.0
 20
0.5
 30
0.0
 11
15.0
 21
1.45
 31
0.0
  0
TEXT
  5
58
330
17
100
AcDbEntity
  8
G-ANNO-TTLB
100
AcDbText
 10
15.08
 20
1.28
 30
0.0
 40
0.06999999999999999
  1
SHEET
  7
KS-REG
 11
15.08
 21
1.28
 31
0.0
100
AcDbText
  0
TEXT
  5
59
330
17
100
AcDbEntity
  8
G-ANNO-TTLB
100
AcDbText
 10
15.75
 20
0.77
 30
0.0
 40
0.18
  1
P2-A-301
  7
KS-BOLD
 72
1
 11
15.75
 21
0.77
 31
0.0
100
AcDbText
  0
HATCH
  5
5A
330
17
100
AcDbEntity
  8
A-SECT-FILL
 62
7
420
15266040
100
AcDbHatch
 10
0.0
 20
0.0
 30
0.0
210
0.0
220
0.0
230
1.0
  2
SOLID
 70
1
 71
0
 91
1
 92
3
 72
0
 73
1
 93
4
 10
2.4375
 20
8.3
 10
9.0625
 20
8.3
 10
9.0625
 20
9.425
 10
2.4375
 20
9.425
 97
0
 75
0
 76
1
 98
0
  0
HATCH
  5
5B
330
17
100
AcDbEntity
  8
A-SECT-FILL
 62
7
420
16115654
100
AcDbHatch
 10
0.0
 20
0.0
 30
0.0
210
0.0
220
0.0
230
1.0
  2
SOLID
 70
1
 71
0
 91
1
 92
3
 72
0
 73
1
 93
4
 10
1.375
 20
8.3
 10
2.4375
 20
8.3
 10
2.4375
 20
9.20625
 10
1.375
 20
9.20625
 97
0
 75
0
 76
1
 98
0
  0
HATCH
  5
5C
330
17
100
AcDbEntity
  8
A-SECT-FILL
 62
7
420
16115654
100
AcDbHatch
 10
0.0
 20
0.0
 30
0.0
210
0.0
220
0.0
230
1.0
  2
SOLID
 70
1
 71
0
 91
1
 92
3
 72
0
 73
1
 93
5
 10
2.4375
 20
8.3
 10
3.125
 20
8.3
 10
3.125
 20
8.555208333333335
 10
2.65625
 20
8.7375
 10
2.4375
 20
8.7375
 97
0
 75
0
 76
1
 98
0
  0
HATCH
  5
5D
330
17
100
AcDbEntity
  8
A-SECT-FILL
 62
7
420
15789284
100
AcDbHatch
 10
0.0
 20
0.0
 30
0.0
210
0.0
220
0.0
230
1.0
  2
SOLID
 70
1
 71
0
 91
1
 92
3
 72
0
 73
1
 93
5
 10
8.375
 20
8.3
 10
9.25
 20
8.3
 10
9.25
 20
8.7375
 10
8.84375
 20
8.7375
 10
8.375
 20
8.555208333333335
 97
0
 75
0
 76
1
 98
0
  0
HATCH
  5
5E
330
17
100
AcDbEntity
  8
A-SECT-FILL
 62
7
420
15789284
100
AcDbHatch
 10
0.0
 20
0.0
 30
0.0
210
0.0
220
0.0
230
1.0
  2
SOLID
 70
1
 71
0
 91
1
 92
3
 72
0
 73
1
 93
4
 10
9.0625
 20
8.76875
 10
9.25
 20
8.76875
 10
9.25
 20
9.20625
 10
9.0625
 20
9.20625
 97
0
 75
0
 76
1
 98
0
  0
HATCH
  5
5F
330
17
100
AcDbEntity
  8
A-SECT-CUTL
 62
7
420
14268286
100
AcDbHatch
 10
0.0
 20
0.0
 30
0.0
210
0.0
220
0.0
230
1.0
  2
SOLID
 70
1
 71
0
 91
1
 92
3
 72
0
 73
1
 93
4
 10
3.5
 20
8.28125
 10
8.0
 20
8.28125
 10
8.0
 20
8.3
 10
3.5
 20
8.3
 97
0
 75
0
 76
1
 98
0
  0
LWPOLYLINE
  5
60
330
17
100
AcDbEntity
  8
A-SECT-CUTL
100
AcDbPolyline
 90
4
 70
1
 10
3.5
 20
8.28125
 10
8.0
 20
8.28125
 10
8.0
 20
8.3
 10
3.5
 20
8.3
  0
LINE
  5
61
330
17
100
AcDbEntity
  8
A-SECT-IDEN
100
AcDbLine
 10
4.4375
 20
8.3
 30
0.0
 11
4.4375
 21
8.328125
 31
0.0
  0
LINE
  5
62
330
17
100
AcDbEntity
  8
A-SECT-IDEN
100
AcDbLine
 10
7.0625
 20
8.3
 30
0.0
 11
7.0625
 21
8.328125
 31
0.0
  0
TEXT
  5
63
330
17
100
AcDbEntity
  8
A-SECT-IDEN
100
AcDbText
 10
5.75
 20
8.328125
 30
0.0
 40
0.041999999999999996
  1
COURT 84' (plan)
  7
KS-REG
 72
1
 11
5.75
 21
8.328125
 31
0.0
100
AcDbText
  0
TEXT
  5
64
330
17
100
AcDbEntity
  8
A-SECT-IDEN
100
AcDbText
 10
4.0625
 20
8.36875
 30
0.0
 40
0.04599999999999999
  1
EVENT FLOOR
  7
KS-BOLD
 72
1
 11
4.0625
 21
8.36875
 31
0.0
100
AcDbText
  0
HATCH
  5
65
330
17
100
AcDbEntity
  8
A-SECT-CUTL
 62
7
420
14191242
100
AcDbHatch
 10
0.0
 20
0.0
 30
0.0
210
0.0
220
0.0
230
1.0
  2
SOLID
 70
1
 71
0
 91
1
 92
3
 72
0
 73
1
 93
14
 10
3.5
 20
8.3
 10
3.5
 20
8.3046875
 10
3.4375
 20
8.3046875
 10
3.4375
 20
8.3349609375
 10
3.375
 20
8.3349609375
 10
3.375
 20
8.365234375
 10
3.3125
 20
8.365234375
 10
3.3125
 20
8.3955078125
 10
3.25
 20
8.3955078125
 10
3.25
 20
8.42578125
 10
3.1875
 20
8.42578125
 10
3.1875
 20
8.4560546875
 10
3.125
 20
8.4560546875
 10
3.125
 20
8.3
 97
0
 75
0
 76
1
 98
0
  0
LWPOLYLINE
  5
66
330
17
100
AcDbEntity
  8
A-SECT-CUTL
100
AcDbPolyline
 90
14
 70
1
 10
3.5
 20
8.3
 10
3.5
 20
8.3046875
 10
3.4375
 20
8.3046875
 10
3.4375
 20
8.3349609375
 10
3.375
 20
8.3349609375
 10
3.375
 20
8.365234375
 10
3.3125
 20
8.365234375
 10
3.3125
 20
8.3955078125
 10
3.25
 20
8.3955078125
 10
3.25
 20
8.42578125
 10
3.1875
 20
8.42578125
 10
3.1875
 20
8.4560546875
 10
3.125
 20
8.4560546875
 10
3.125
 20
8.3
  0
LINE
  5
67
330
17
100
AcDbEntity
  8
A-SECT-FILL
100
AcDbLine
 10
3.465625
 20
8.3046875
 30
0.0
 11
3.465625
 21
8.34375
 31
0.0
  0
LINE
  5
68
330
17
100
AcDbEntity
  8
A-SECT-FILL
100
AcDbLine
 10
3.403125
 20
8.3349609375
 30
0.0
 11
3.403125
 21
8.3740234375
 31
0.0
  0
LINE
  5
69
330
17
100
AcDbEntity
  8
A-SECT-FILL
100
AcDbLine
 10
3.340625
 20
8.365234375
 30
0.0
 11
3.340625
 21
8.404296875
 31
0.0
  0
LINE
  5
6A
330
17
100
AcDbEntity
  8
A-SECT-FILL
100
AcDbLine
 10
3.278125
 20
8.3955078125
 30
0.0
 11
3.278125
 21
8.4345703125
 31
0.0
  0
LINE
  5
6B
330
17
100
AcDbEntity
  8
A-SECT-FILL
100
AcDbLine
 10
3.215625
 20
8.42578125
 30
0.0
 11
3.215625
 21
8.46484375
 31
0.0
  0
LINE
  5
6C
330
17
100
AcDbEntity
  8
A-SECT-FILL
100
AcDbLine
 10
3.153125
 20
8.4560546875
 30
0.0
 11
3.153125
 21
8.4951171875
 31
0.0
  0
HATCH
  5
6D
330
17
100
AcDbEntity
  8
A-SECT-CUTL
 62
7
420
14191242
100
AcDbHatch
 10
0.0
 20
0.0
 30
0.0
210
0.0
220
0.0
230
1.0
  2
SOLID
 70
1
 71
0
 91
1
 92
3
 72
0
 73
1
 93
14
 10
8.0
 20
8.3
 10
8.0
 20
8.3046875
 10
8.0625
 20
8.3046875
 10
8.0625
 20
8.3349609375
 10
8.125
 20
8.3349609375
 10
8.125
 20
8.365234375
 10
8.1875
 20
8.365234375
 10
8.1875
 20
8.3955078125
 10
8.25
 20
8.3955078125
 10
8.25
 20
8.42578125
 10
8.3125
 20
8.42578125
 10
8.3125
 20
8.4560546875
 10
8.375
 20
8.4560546875
 10
8.375
 20
8.3
 97
0
 75
0
 76
1
 98
0
  0
LWPOLYLINE
  5
6E
330
17
100
AcDbEntity
  8
A-SECT-CUTL
100
AcDbPolyline
 90
14
 70
1
 10
8.0
 20
8.3
 10
8.0
 20
8.3046875
 10
8.0625
 20
8.3046875
 10
8.0625
 20
8.3349609375
 10
8.125
 20
8.3349609375
 10
8.125
 20
8.365234375
 10
8.1875
 20
8.365234375
 10
8.1875
 20
8.3955078125
 10
8.25
 20
8.3955078125
 10
8.25
 20
8.42578125
 10
8.3125
 20
8.42578125
 10
8.3125
 20
8.4560546875
 10
8.375
 20
8.4560546875
 10
8.375
 20
8.3
  0
LINE
  5
6F
330
17
100
AcDbEntity
  8
A-SECT-FILL
100
AcDbLine
 10
8.034375
 20
8.3046875
 30
0.0
 11
8.034375
 21
8.34375
 31
0.0
  0
LINE
  5
70
330
17
100
AcDbEntity
  8
A-SECT-FILL
100
AcDbLine
 10
8.096875
 20
8.3349609375
 30
0.0
 11
8.096875
 21
8.3740234375
 31
0.0
  0
LINE
  5
71
330
17
100
AcDbEntity
  8
A-SECT-FILL
100
AcDbLine
 10
8.159375
 20
8.365234375
 30
0.0
 11
8.159375
 21
8.404296875
 31
0.0
  0
LINE
  5
72
330
17
100
AcDbEntity
  8
A-SECT-FILL
100
AcDbLine
 10
8.221875
 20
8.3955078125
 30
0.0
 11
8.221875
 21
8.4345703125
 31
0.0
  0
LINE
  5
73
330
17
100
AcDbEntity
  8
A-SECT-FILL
100
AcDbLine
 10
8.284375
 20
8.42578125
 30
0.0
 11
8.284375
 21
8.46484375
 31
0.0
  0
LINE
  5
74
330
17
100
AcDbEntity
  8
A-SECT-FILL
100
AcDbLine
 10
8.346875
 20
8.4560546875
 30
0.0
 11
8.346875
 21
8.4951171875
 31
0.0
  0
HATCH
  5
75
330
17
100
AcDbEntity
  8
A-SECT-CUTL
 62
7
420
10990531
100
AcDbHatch
 10
0.0
 20
0.0
 30
0.0
210
0.0
220
0.0
230
1.0
  2
SOLID
 70
1
 71
0
 91
1
 92
3
 72
0
 73
1
 93
13
 10
3.125
 20
8.586458333333335
 10
3.03125
 20
8.586458333333335
 10
3.03125
 20
8.622916666666667
 10
2.9375
 20
8.622916666666667
 10
2.9375
 20
8.659375
 10
2.84375
 20
8.659375
 10
2.84375
 20
8.695833333333335
 10
2.75
 20
8.695833333333335
 10
2.75
 20
8.732291666666667
 10
2.65625
 20
8.732291666666667
 10
2.65625
 20
8.76875
 10
2.65625
 20
8.7375
 10
3.125
 20
8.555208333333335
 97
0
 75
0
 76
1
 98
0
  0
LWPOLYLINE
  5
76
330
17
100
AcDbEntity
  8
A-SECT-CUTL
100
AcDbPolyline
 90
13
 70
1
 10
3.125
 20
8.586458333333335
 10
3.03125
 20
8.586458333333335
 10
3.03125
 20
8.622916666666667
 10
2.9375
 20
8.622916666666667
 10
2.9375
 20
8.659375
 10
2.84375
 20
8.659375
 10
2.84375
 20
8.695833333333335
 10
2.75
 20
8.695833333333335
 10
2.75
 20
8.732291666666667
 10
2.65625
 20
8.732291666666667
 10
2.65625
 20
8.76875
 10
2.65625
 20
8.7375
 10
3.125
 20
8.555208333333335
  0
LINE
  5
77
330
17
100
AcDbEntity
  8
A-SECT-FILL
100
AcDbLine
 10
3.0734375
 20
8.586458333333335
 30
0.0
 11
3.0734375
 21
8.630208333333334
 31
0.0
  0
LINE
  5
78
330
17
100
AcDbEntity
  8
A-SECT-FILL
100
AcDbLine
 10
2.9796875
 20
8.622916666666667
 30
0.0
 11
2.9796875
 21
8.666666666666668
 31
0.0
  0
LINE
  5
79
330
17
100
AcDbEntity
  8
A-SECT-FILL
100
AcDbLine
 10
2.8859375
 20
8.659375
 30
0.0
 11
2.8859375
 21
8.703125
 31
0.0
  0
LINE
  5
7A
330
17
100
AcDbEntity
  8
A-SECT-FILL
100
AcDbLine
 10
2.7921875
 20
8.695833333333335
 30
0.0
 11
2.7921875
 21
8.739583333333334
 31
0.0
  0
LINE
  5
7B
330
17
100
AcDbEntity
  8
A-SECT-FILL
100
AcDbLine
 10
2.6984375
 20
8.732291666666667
 30
0.0
 11
2.6984375
 21
8.776041666666668
 31
0.0
  0
LINE
  5
7C
330
17
100
AcDbEntity
  8
A-SECT-GUAR
100
AcDbLine
 10
3.125
 20
8.586458333333335
 30
0.0
 11
3.125
 21
8.654166666666667
 31
0.0
  0
HATCH
  5
7D
330
17
100
AcDbEntity
  8
A-SECT-CUTL
 62
7
420
10990531
100
AcDbHatch
 10
0.0
 20
0.0
 30
0.0
210
0.0
220
0.0
230
1.0
  2
SOLID
 70
1
 71
0
 91
1
 92
3
 72
0
 73
1
 93
13
 10
8.375
 20
8.586458333333335
 10
8.46875
 20
8.586458333333335
 10
8.46875
 20
8.622916666666667
 10
8.5625
 20
8.622916666666667
 10
8.5625
 20
8.659375
 10
8.65625
 20
8.659375
 10
8.65625
 20
8.695833333333335
 10
8.75
 20
8.695833333333335
 10
8.75
 20
8.732291666666667
 10
8.84375
 20
8.732291666666667
 10
8.84375
 20
8.76875
 10
8.84375
 20
8.7375
 10
8.375
 20
8.555208333333335
 97
0
 75
0
 76
1
 98
0
  0
LWPOLYLINE
  5
7E
330
17
100
AcDbEntity
  8
A-SECT-CUTL
100
AcDbPolyline
 90
13
 70
1
 10
8.375
 20
8.586458333333335
 10
8.46875
 20
8.586458333333335
 10
8.46875
 20
8.622916666666667
 10
8.5625
 20
8.622916666666667
 10
8.5625
 20
8.659375
 10
8.65625
 20
8.659375
 10
8.65625
 20
8.695833333333335
 10
8.75
 20
8.695833333333335
 10
8.75
 20
8.732291666666667
 10
8.84375
 20
8.732291666666667
 10
8.84375
 20
8.76875
 10
8.84375
 20
8.7375
 10
8.375
 20
8.555208333333335
  0
LINE
  5
7F
330
17
100
AcDbEntity
  8
A-SECT-FILL
100
AcDbLine
 10
8.4265625
 20
8.586458333333335
 30
0.0
 11
8.4265625
 21
8.630208333333334
 31
0.0
  0
LINE
  5
80
330
17
100
AcDbEntity
  8
A-SECT-FILL
100
AcDbLine
 10
8.5203125
 20
8.622916666666667
 30
0.0
 11
8.5203125
 21
8.666666666666668
 31
0.0
  0
LINE
  5
81
330
17
100
AcDbEntity
  8
A-SECT-FILL
100
AcDbLine
 10
8.6140625
 20
8.659375
 30
0.0
 11
8.6140625
 21
8.703125
 31
0.0
  0
LINE
  5
82
330
17
100
AcDbEntity
  8
A-SECT-FILL
100
AcDbLine
 10
8.7078125
 20
8.695833333333335
 30
0.0
 11
8.7078125
 21
8.739583333333334
 31
0.0
  0
LINE
  5
83
330
17
100
AcDbEntity
  8
A-SECT-FILL
100
AcDbLine
 10
8.8015625
 20
8.732291666666667
 30
0.0
 11
8.8015625
 21
8.776041666666668
 31
0.0
  0
LINE
  5
84
330
17
100
AcDbEntity
  8
A-SECT-GUAR
100
AcDbLine
 10
8.375
 20
8.586458333333335
 30
0.0
 11
8.375
 21
8.654166666666667
 31
0.0
  0
HATCH
  5
85
330
17
100
AcDbEntity
  8
A-SECT-CUTL
 62
7
420
3947580
100
AcDbHatch
 10
0.0
 20
0.0
 30
0.0
210
0.0
220
0.0
230
1.0
  2
SOLID
 70
1
 71
0
 91
1
 92
3
 72
0
 73
1
 93
4
 10
3.09375
 20
8.3
 10
3.125
 20
8.3
 10
3.125
 20
8.555208333333335
 10
3.09375
 20
8.555208333333335
 97
0
 75
0
 76
1
 98
0
  0
HATCH
  5
86
330
17
100
AcDbEntity
  8
A-SECT-CUTL
 62
7
420
3947580
100
AcDbHatch
 10
0.0
 20
0.0
 30
0.0
210
0.0
220
0.0
230
1.0
  2
SOLID
 70
1
 71
0
 91
1
 92
3
 72
0
 73
1
 93
4
 10
8.375
 20
8.3
 10
8.40625
 20
8.3
 10
8.40625
 20
8.555208333333335
 10
8.375
 20
8.555208333333335
 97
0
 75
0
 76
1
 98
0
  0
HATCH
  5
87
330
17
100
AcDbEntity
  8
A-SECT-CUTL
 62
7
420
3947580
100
AcDbHatch
 10
0.0
 20
0.0
 30
0.0
210
0.0
220
0.0
230
1.0
  2
SOLID
 70
1
 71
0
 91
1
 92
3
 72
0
 73
1
 93
4
 10
2.4375
 20
8.7375
 10
2.65625
 20
8.7375
 10
2.65625
 20
8.76875
 10
2.4375
 20
8.76875
 97
0
 75
0
 76
1
 98
0
  0
HATCH
  5
88
330
17
100
AcDbEntity
  8
A-SECT-FILL
 62
7
420
13134138
100
AcDbHatch
 10
0.0
 20
0.0
 30
0.0
210
0.0
220
0.0
230
1.0
  2
SOLID
 70
1
 71
0
 91
1
 92
3
 72
0
 73
1
 93
4
 10
2.4375
 20
8.76875
 10
2.65625
 20
8.76875
 10
2.65625
 20
8.779687500000001
 10
2.4375
 20
8.779687500000001
 97
0
 75
0
 76
1
 98
0
  0
HATCH
  5
89
330
17
100
AcDbEntity
  8
A-SECT-CUTL
 62
7
420
3947580
100
AcDbHatch
 10
0.0
 20
0.0
 30
0.0
210
0.0
220
0.0
230
1.0
  2
SOLID
 70
1
 71
0
 91
1
 92
3
 72
0
 73
1
 93
4
 10
8.84375
 20
8.7375
 10
9.25
 20
8.7375
 10
9.25
 20
8.76875
 10
8.84375
 20
8.76875
 97
0
 75
0
 76
1
 98
0
  0
HATCH
  5
8A
330
17
100
AcDbEntity
  8
A-SECT-FILL
 62
7
420
13134138
100
AcDbHatch
 10
0.0
 20
0.0
 30
0.0
210
0.0
220
0.0
230
1.0
  2
SOLID
 70
1
 71
0
 91
1
 92
3
 72
0
 73
1
 93
4
 10
8.84375
 20
8.76875
 10
9.0625
 20
8.76875
 10
9.0625
 20
8.779687500000001
 10
8.84375
 20
8.779687500000001
 97
0
 75
0
 76
1
 98
0
  0
LINE
  5
8B
330
17
100
AcDbEntity
  8
A-SECT-GUAR
100
AcDbLine
 10
2.4375
 20
8.76875
 30
0.0
 11
2.4375
 21
8.878125
 31
0.0
  0
LINE
  5
8C
330
17
100
AcDbEntity
  8
A-SECT-GUAR
100
AcDbLine
 10
2.41875
 20
8.878125
 30
0.0
 11
2.45625
 21
8.878125
 31
0.0
  0
HATCH
  5
8D
330
17
100
AcDbEntity
  8
A-SECT-CUTL
 62
7
420
3947580
100
AcDbHatch
 10
0.0
 20
0.0
 30
0.0
210
0.0
220
0.0
230
1.0
  2
SOLID
 70
1
 71
0
 91
1
 92
3
 72
0
 73
1
 93
4
 10
1.375
 20
9.20625
 10
2.4375
 20
9.20625
 10
2.4375
 20
9.2375
 10
1.375
 20
9.2375
 97
0
 75
0
 76
1
 98
0
  0
HATCH
  5
8E
330
17
100
AcDbEntity
  8
A-SECT-CUTL
 62
7
420
3947580
100
AcDbHatch
 10
0.0
 20
0.0
 30
0.0
210
0.0
220
0.0
230
1.0
  2
SOLID
 70
1
 71
0
 91
1
 92
3
 72
0
 73
1
 93
4
 10
9.0625
 20
9.20625
 10
9.25
 20
9.20625
 10
9.25
 20
9.2375
 10
9.0625
 20
9.2375
 97
0
 75
0
 76
1
 98
0
  0
HATCH
  5
8F
330
17
100
AcDbEntity
  8
A-SECT-FILL
 62
7
420
13619151
100
AcDbHatch
 10
0.0
 20
0.0
 30
0.0
210
0.0
220
0.0
230
1.0
  2
SOLID
 70
1
 71
0
 91
1
 92
3
 72
0
 73
1
 93
4
 10
2.4375
 20
9.425
 10
9.0625
 20
9.425
 10
9.0625
 20
9.6125
 10
2.4375
 20
9.6125
 97
0
 75
0
 76
1
 98
0
  0
LINE
  5
90
330
17
100
AcDbEntity
  8
A-SECT-FILL
100
AcDbLine
 10
2.4375
 20
9.425
 30
0.0
 11
2.53125
 21
9.58125
 31
0.0
  0
LINE
  5
91
330
17
100
AcDbEntity
  8
A-SECT-FILL
100
AcDbLine
 10
2.53125
 20
9.58125
 30
0.0
 11
2.625
 21
9.425
 31
0.0
  0
LINE
  5
92
330
17
100
AcDbEntity
  8
A-SECT-FILL
100
AcDbLine
 10
2.625
 20
9.425
 30
0.0
 11
2.71875
 21
9.58125
 31
0.0
  0
LINE
  5
93
330
17
100
AcDbEntity
  8
A-SECT-FILL
100
AcDbLine
 10
2.71875
 20
9.58125
 30
0.0
 11
2.8125
 21
9.425
 31
0.0
  0
LINE
  5
94
330
17
100
AcDbEntity
  8
A-SECT-FILL
100
AcDbLine
 10
2.8125
 20
9.425
 30
0.0
 11
2.90625
 21
9.58125
 31
0.0
  0
LINE
  5
95
330
17
100
AcDbEntity
  8
A-SECT-FILL
100
AcDbLine
 10
2.90625
 20
9.58125
 30
0.0
 11
3.0
 21
9.425
 31
0.0
  0
LINE
  5
96
330
17
100
AcDbEntity
  8
A-SECT-FILL
100
AcDbLine
 10
3.0
 20
9.425
 30
0.0
 11
3.09375
 21
9.58125
 31
0.0
  0
LINE
  5
97
330
17
100
AcDbEntity
  8
A-SECT-FILL
100
AcDbLine
 10
3.09375
 20
9.58125
 30
0.0
 11
3.1875
 21
9.425
 31
0.0
  0
LINE
  5
98
330
17
100
AcDbEntity
  8
A-SECT-FILL
100
AcDbLine
 10
3.1875
 20
9.425
 30
0.0
 11
3.28125
 21
9.58125
 31
0.0
  0
LINE
  5
99
330
17
100
AcDbEntity
  8
A-SECT-FILL
100
AcDbLine
 10
3.28125
 20
9.58125
 30
0.0
 11
3.375
 21
9.425
 31
0.0
  0
LINE
  5
9A
330
17
100
AcDbEntity
  8
A-SECT-FILL
100
AcDbLine
 10
3.375
 20
9.425
 30
0.0
 11
3.46875
 21
9.58125
 31
0.0
  0
LINE
  5
9B
330
17
100
AcDbEntity
  8
A-SECT-FILL
100
AcDbLine
 10
3.46875
 20
9.58125
 30
0.0
 11
3.5625
 21
9.425
 31
0.0
  0
LINE
  5
9C
330
17
100
AcDbEntity
  8
A-SECT-FILL
100
AcDbLine
 10
3.5625
 20
9.425
 30
0.0
 11
3.65625
 21
9.58125
 31
0.0
  0
LINE
  5
9D
330
17
100
AcDbEntity
  8
A-SECT-FILL
100
AcDbLine
 10
3.65625
 20
9.58125
 30
0.0
 11
3.75
 21
9.425
 31
0.0
  0
LINE
  5
9E
330
17
100
AcDbEntity
  8
A-SECT-FILL
100
AcDbLine
 10
3.75
 20
9.425
 30
0.0
 11
3.84375
 21
9.58125
 31
0.0
  0
LINE
  5
9F
330
17
100
AcDbEntity
  8
A-SECT-FILL
100
AcDbLine
 10
3.84375
 20
9.58125
 30
0.0
 11
3.9375
 21
9.425
 31
0.0
  0
LINE
  5
A0
330
17
100
AcDbEntity
  8
A-SECT-FILL
100
AcDbLine
 10
3.9375
 20
9.425
 30
0.0
 11
4.03125
 21
9.58125
 31
0.0
  0
LINE
  5
A1
330
17
100
AcDbEntity
  8
A-SECT-FILL
100
AcDbLine
 10
4.03125
 20
9.58125
 30
0.0
 11
4.125
 21
9.425
 31
0.0
  0
LINE
  5
A2
330
17
100
AcDbEntity
  8
A-SECT-FILL
100
AcDbLine
 10
4.125
 20
9.425
 30
0.0
 11
4.21875
 21
9.58125
 31
0.0
  0
LINE
  5
A3
330
17
100
AcDbEntity
  8
A-SECT-FILL
100
AcDbLine
 10
4.21875
 20
9.58125
 30
0.0
 11
4.3125
 21
9.425
 31
0.0
  0
LINE
  5
A4
330
17
100
AcDbEntity
  8
A-SECT-FILL
100
AcDbLine
 10
4.3125
 20
9.425
 30
0.0
 11
4.40625
 21
9.58125
 31
0.0
  0
LINE
  5
A5
330
17
100
AcDbEntity
  8
A-SECT-FILL
100
AcDbLine
 10
4.40625
 20
9.58125
 30
0.0
 11
4.5
 21
9.425
 31
0.0
  0
LINE
  5
A6
330
17
100
AcDbEntity
  8
A-SECT-FILL
100
AcDbLine
 10
4.5
 20
9.425
 30
0.0
 11
4.59375
 21
9.58125
 31
0.0
  0
LINE
  5
A7
330
17
100
AcDbEntity
  8
A-SECT-FILL
100
AcDbLine
 10
4.59375
 20
9.58125
 30
0.0
 11
4.6875
 21
9.425
 31
0.0
  0
LINE
  5
A8
330
17
100
AcDbEntity
  8
A-SECT-FILL
100
AcDbLine
 10
4.6875
 20
9.425
 30
0.0
 11
4.78125
 21
9.58125
 31
0.0
  0
LINE
  5
A9
330
17
100
AcDbEntity
  8
A-SECT-FILL
100
AcDbLine
 10
4.78125
 20
9.58125
 30
0.0
 11
4.875
 21
9.425
 31
0.0
  0
LINE
  5
AA
330
17
100
AcDbEntity
  8
A-SECT-FILL
100
AcDbLine
 10
4.875
 20
9.425
 30
0.0
 11
4.96875
 21
9.58125
 31
0.0
  0
LINE
  5
AB
330
17
100
AcDbEntity
  8
A-SECT-FILL
100
AcDbLine
 10
4.96875
 20
9.58125
 30
0.0
 11
5.0625
 21
9.425
 31
0.0
  0
LINE
  5
AC
330
17
100
AcDbEntity
  8
A-SECT-FILL
100
AcDbLine
 10
5.0625
 20
9.425
 30
0.0
 11
5.15625
 21
9.58125
 31
0.0
  0
LINE
  5
AD
330
17
100
AcDbEntity
  8
A-SECT-FILL
100
AcDbLine
 10
5.15625
 20
9.58125
 30
0.0
 11
5.25
 21
9.425
 31
0.0
  0
LINE
  5
AE
330
17
100
AcDbEntity
  8
A-SECT-FILL
100
AcDbLine
 10
5.25
 20
9.425
 30
0.0
 11
5.34375
 21
9.58125
 31
0.0
  0
LINE
  5
AF
330
17
100
AcDbEntity
  8
A-SECT-FILL
100
AcDbLine
 10
5.34375
 20
9.58125
 30
0.0
 11
5.4375
 21
9.425
 31
0.0
  0
LINE
  5
B0
330
17
100
AcDbEntity
  8
A-SECT-FILL
100
AcDbLine
 10
5.4375
 20
9.425
 30
0.0
 11
5.53125
 21
9.58125
 31
0.0
  0
LINE
  5
B1
330
17
100
AcDbEntity
  8
A-SECT-FILL
100
AcDbLine
 10
5.53125
 20
9.58125
 30
0.0
 11
5.625
 21
9.425
 31
0.0
  0
LINE
  5
B2
330
17
100
AcDbEntity
  8
A-SECT-FILL
100
AcDbLine
 10
5.625
 20
9.425
 30
0.0
 11
5.71875
 21
9.58125
 31
0.0
  0
LINE
  5
B3
330
17
100
AcDbEntity
  8
A-SECT-FILL
100
AcDbLine
 10
5.71875
 20
9.58125
 30
0.0
 11
5.8125
 21
9.425
 31
0.0
  0
LINE
  5
B4
330
17
100
AcDbEntity
  8
A-SECT-FILL
100
AcDbLine
 10
5.8125
 20
9.425
 30
0.0
 11
5.90625
 21
9.58125
 31
0.0
  0
LINE
  5
B5
330
17
100
AcDbEntity
  8
A-SECT-FILL
100
AcDbLine
 10
5.90625
 20
9.58125
 30
0.0
 11
6.0
 21
9.425
 31
0.0
  0
LINE
  5
B6
330
17
100
AcDbEntity
  8
A-SECT-FILL
100
AcDbLine
 10
6.0
 20
9.425
 30
0.0
 11
6.09375
 21
9.58125
 31
0.0
  0
LINE
  5
B7
330
17
100
AcDbEntity
  8
A-SECT-FILL
100
AcDbLine
 10
6.09375
 20
9.58125
 30
0.0
 11
6.1875
 21
9.425
 31
0.0
  0
LINE
  5
B8
330
17
100
AcDbEntity
  8
A-SECT-FILL
100
AcDbLine
 10
6.1875
 20
9.425
 30
0.0
 11
6.28125
 21
9.58125
 31
0.0
  0
LINE
  5
B9
330
17
100
AcDbEntity
  8
A-SECT-FILL
100
AcDbLine
 10
6.28125
 20
9.58125
 30
0.0
 11
6.375
 21
9.425
 31
0.0
  0
LINE
  5
BA
330
17
100
AcDbEntity
  8
A-SECT-FILL
100
AcDbLine
 10
6.375
 20
9.425
 30
0.0
 11
6.46875
 21
9.58125
 31
0.0
  0
LINE
  5
BB
330
17
100
AcDbEntity
  8
A-SECT-FILL
100
AcDbLine
 10
6.46875
 20
9.58125
 30
0.0
 11
6.5625
 21
9.425
 31
0.0
  0
LINE
  5
BC
330
17
100
AcDbEntity
  8
A-SECT-FILL
100
AcDbLine
 10
6.5625
 20
9.425
 30
0.0
 11
6.65625
 21
9.58125
 31
0.0
  0
LINE
  5
BD
330
17
100
AcDbEntity
  8
A-SECT-FILL
100
AcDbLine
 10
6.65625
 20
9.58125
 30
0.0
 11
6.75
 21
9.425
 31
0.0
  0
LINE
  5
BE
330
17
100
AcDbEntity
  8
A-SECT-FILL
100
AcDbLine
 10
6.75
 20
9.425
 30
0.0
 11
6.84375
 21
9.58125
 31
0.0
  0
LINE
  5
BF
330
17
100
AcDbEntity
  8
A-SECT-FILL
100
AcDbLine
 10
6.84375
 20
9.58125
 30
0.0
 11
6.9375
 21
9.425
 31
0.0
  0
LINE
  5
C0
330
17
100
AcDbEntity
  8
A-SECT-FILL
100
AcDbLine
 10
6.9375
 20
9.425
 30
0.0
 11
7.03125
 21
9.58125
 31
0.0
  0
LINE
  5
C1
330
17
100
AcDbEntity
  8
A-SECT-FILL
100
AcDbLine
 10
7.03125
 20
9.58125
 30
0.0
 11
7.125
 21
9.425
 31
0.0
  0
LINE
  5
C2
330
17
100
AcDbEntity
  8
A-SECT-FILL
100
AcDbLine
 10
7.125
 20
9.425
 30
0.0
 11
7.21875
 21
9.58125
 31
0.0
  0
LINE
  5
C3
330
17
100
AcDbEntity
  8
A-SECT-FILL
100
AcDbLine
 10
7.21875
 20
9.58125
 30
0.0
 11
7.3125
 21
9.425
 31
0.0
  0
LINE
  5
C4
330
17
100
AcDbEntity
  8
A-SECT-FILL
100
AcDbLine
 10
7.3125
 20
9.425
 30
0.0
 11
7.40625
 21
9.58125
 31
0.0
  0
LINE
  5
C5
330
17
100
AcDbEntity
  8
A-SECT-FILL
100
AcDbLine
 10
7.40625
 20
9.58125
 30
0.0
 11
7.5
 21
9.425
 31
0.0
  0
LINE
  5
C6
330
17
100
AcDbEntity
  8
A-SECT-FILL
100
AcDbLine
 10
7.5
 20
9.425
 30
0.0
 11
7.59375
 21
9.58125
 31
0.0
  0
LINE
  5
C7
330
17
100
AcDbEntity
  8
A-SECT-FILL
100
AcDbLine
 10
7.59375
 20
9.58125
 30
0.0
 11
7.6875
 21
9.425
 31
0.0
  0
LINE
  5
C8
330
17
100
AcDbEntity
  8
A-SECT-FILL
100
AcDbLine
 10
7.6875
 20
9.425
 30
0.0
 11
7.78125
 21
9.58125
 31
0.0
  0
LINE
  5
C9
330
17
100
AcDbEntity
  8
A-SECT-FILL
100
AcDbLine
 10
7.78125
 20
9.58125
 30
0.0
 11
7.875
 21
9.425
 31
0.0
  0
LINE
  5
CA
330
17
100
AcDbEntity
  8
A-SECT-FILL
100
AcDbLine
 10
7.875
 20
9.425
 30
0.0
 11
7.96875
 21
9.58125
 31
0.0
  0
LINE
  5
CB
330
17
100
AcDbEntity
  8
A-SECT-FILL
100
AcDbLine
 10
7.96875
 20
9.58125
 30
0.0
 11
8.0625
 21
9.425
 31
0.0
  0
LINE
  5
CC
330
17
100
AcDbEntity
  8
A-SECT-FILL
100
AcDbLine
 10
8.0625
 20
9.425
 30
0.0
 11
8.15625
 21
9.58125
 31
0.0
  0
LINE
  5
CD
330
17
100
AcDbEntity
  8
A-SECT-FILL
100
AcDbLine
 10
8.15625
 20
9.58125
 30
0.0
 11
8.25
 21
9.425
 31
0.0
  0
LINE
  5
CE
330
17
100
AcDbEntity
  8
A-SECT-FILL
100
AcDbLine
 10
8.25
 20
9.425
 30
0.0
 11
8.34375
 21
9.58125
 31
0.0
  0
LINE
  5
CF
330
17
100
AcDbEntity
  8
A-SECT-FILL
100
AcDbLine
 10
8.34375
 20
9.58125
 30
0.0
 11
8.4375
 21
9.425
 31
0.0
  0
LINE
  5
D0
330
17
100
AcDbEntity
  8
A-SECT-FILL
100
AcDbLine
 10
8.4375
 20
9.425
 30
0.0
 11
8.53125
 21
9.58125
 31
0.0
  0
LINE
  5
D1
330
17
100
AcDbEntity
  8
A-SECT-FILL
100
AcDbLine
 10
8.53125
 20
9.58125
 30
0.0
 11
8.625
 21
9.425
 31
0.0
  0
LINE
  5
D2
330
17
100
AcDbEntity
  8
A-SECT-FILL
100
AcDbLine
 10
8.625
 20
9.425
 30
0.0
 11
8.71875
 21
9.58125
 31
0.0
  0
LINE
  5
D3
330
17
100
AcDbEntity
  8
A-SECT-FILL
100
AcDbLine
 10
8.71875
 20
9.58125
 30
0.0
 11
8.8125
 21
9.425
 31
0.0
  0
LINE
  5
D4
330
17
100
AcDbEntity
  8
A-SECT-FILL
100
AcDbLine
 10
8.8125
 20
9.425
 30
0.0
 11
8.90625
 21
9.58125
 31
0.0
  0
LINE
  5
D5
330
17
100
AcDbEntity
  8
A-SECT-FILL
100
AcDbLine
 10
8.90625
 20
9.58125
 30
0.0
 11
9.0
 21
9.425
 31
0.0
  0
HATCH
  5
D6
330
17
100
AcDbEntity
  8
A-SECT-CUTL
 62
7
420
3947580
100
AcDbHatch
 10
0.0
 20
0.0
 30
0.0
210
0.0
220
0.0
230
1.0
  2
SOLID
 70
1
 71
0
 91
1
 92
3
 72
0
 73
1
 93
4
 10
2.4375
 20
9.58125
 10
9.0625
 20
9.58125
 10
9.0625
 20
9.6125
 10
2.4375
 20
9.6125
 97
0
 75
0
 76
1
 98
0
  0
LINE
  5
D7
330
17
100
AcDbEntity
  8
A-SECT-CUTL
100
AcDbLine
 10
2.4375
 20
9.425
 30
0.0
 11
9.0625
 21
9.425
 31
0.0
  0
HATCH
  5
D8
330
17
100
AcDbEntity
  8
A-SECT-CUTL
 62
7
420
3947580
100
AcDbHatch
 10
0.0
 20
0.0
 30
0.0
210
0.0
220
0.0
230
1.0
  2
SOLID
 70
1
 71
0
 91
1
 92
3
 72
0
 73
1
 93
4
 10
2.40625
 20
9.20625
 10
2.4375
 20
9.20625
 10
2.4375
 20
9.6125
 10
2.40625
 20
9.6125
 97
0
 75
0
 76
1
 98
0
  0
HATCH
  5
D9
330
17
100
AcDbEntity
  8
A-SECT-CUTL
 62
7
420
3947580
100
AcDbHatch
 10
0.0
 20
0.0
 30
0.0
210
0.0
220
0.0
230
1.0
  2
SOLID
 70
1
 71
0
 91
1
 92
3
 72
0
 73
1
 93
4
 10
9.0625
 20
9.20625
 10
9.09375
 20
9.20625
 10
9.09375
 20
9.6125
 10
9.0625
 20
9.6125
 97
0
 75
0
 76
1
 98
0
  0
HATCH
  5
DA
330
17
100
AcDbEntity
  8
A-SECT-CUTL
 62
7
420
3947580
100
AcDbHatch
 10
0.0
 20
0.0
 30
0.0
210
0.0
220
0.0
230
1.0
  2
SOLID
 70
1
 71
0
 91
1
 92
3
 72
0
 73
1
 93
4
 10
1.34375
 20
8.3
 10
1.375
 20
8.3
 10
1.375
 20
9.2375
 10
1.34375
 20
9.2375
 97
0
 75
0
 76
1
 98
0
  0
HATCH
  5
DB
330
17
100
AcDbEntity
  8
A-SECT-CUTL
 62
7
420
3947580
100
AcDbHatch
 10
0.0
 20
0.0
 30
0.0
210
0.0
220
0.0
230
1.0
  2
SOLID
 70
1
 71
0
 91
1
 92
3
 72
0
 73
1
 93
4
 10
9.25
 20
8.3
 10
9.28125
 20
8.3
 10
9.28125
 20
9.2375
 10
9.25
 20
9.2375
 97
0
 75
0
 76
1
 98
0
  0
HATCH
  5
DC
330
17
100
AcDbEntity
  8
A-SECT-CUTL
 62
7
420
3947580
100
AcDbHatch
 10
0.0
 20
0.0
 30
0.0
210
0.0
220
0.0
230
1.0
  2
SOLID
 70
1
 71
0
 91
1
 92
3
 72
0
 73
1
 93
4
 10
8.375
 20
8.3
 10
8.40625
 20
8.3
 10
8.40625
 20
8.555208333333335
 10
8.375
 20
8.555208333333335
 97
0
 75
0
 76
1
 98
0
  0
LINE
  5
DD
330
17
100
AcDbEntity
  8
A-SECT-CUTL
100
AcDbLine
 10
1.25
 20
8.3
 30
0.0
 11
1.375
 21
8.3
 31
0.0
  0
LINE
  5
DE
330
17
100
AcDbEntity
  8
A-SECT-CUTL
100
AcDbLine
 10
9.25
 20
8.3
 30
0.0
 11
9.375
 21
8.3
 31
0.0
  0
LINE
  5
DF
330
17
100
AcDbEntity
  8
A-SECT-CUTL
100
AcDbLine
 10
1.375
 20
8.26875
 30
0.0
 11
9.25
 21
8.26875
 31
0.0
  0
LINE
  5
E0
330
17
100
AcDbEntity
  8
A-SECT-HIDN
100
AcDbLine
 10
1.6875
 20
8.3
 30
0.0
 11
1.6875
 21
8.350000000000001
 31
0.0
  0
LINE
  5
E1
330
17
100
AcDbEntity
  8
A-SECT-HIDN
100
AcDbLine
 10
1.6875
 20
8.385000000000002
 30
0.0
 11
1.6875
 21
8.435
 31
0.0
  0
LINE
  5
E2
330
17
100
AcDbEntity
  8
A-SECT-HIDN
100
AcDbLine
 10
1.6875
 20
8.47
 30
0.0
 11
1.6875
 21
8.520000000000001
 31
0.0
  0
LINE
  5
E3
330
17
100
AcDbEntity
  8
A-SECT-HIDN
100
AcDbLine
 10
2.03125
 20
8.3
 30
0.0
 11
2.03125
 21
8.350000000000001
 31
0.0
  0
LINE
  5
E4
330
17
100
AcDbEntity
  8
A-SECT-HIDN
100
AcDbLine
 10
2.03125
 20
8.385000000000002
 30
0.0
 11
2.03125
 21
8.435
 31
0.0
  0
LINE
  5
E5
330
17
100
AcDbEntity
  8
A-SECT-HIDN
100
AcDbLine
 10
2.03125
 20
8.47
 30
0.0
 11
2.03125
 21
8.520000000000001
 31
0.0
  0
LINE
  5
E6
330
17
100
AcDbEntity
  8
A-SECT-HIDN
100
AcDbLine
 10
1.6875
 20
8.55
 30
0.0
 11
1.7375
 21
8.55
 31
0.0
  0
LINE
  5
E7
330
17
100
AcDbEntity
  8
A-SECT-HIDN
100
AcDbLine
 10
1.7725
 20
8.55
 30
0.0
 11
1.8225
 21
8.55
 31
0.0
  0
LINE
  5
E8
330
17
100
AcDbEntity
  8
A-SECT-HIDN
100
AcDbLine
 10
1.8575
 20
8.55
 30
0.0
 11
1.9075
 21
8.55
 31
0.0
  0
LINE
  5
E9
330
17
100
AcDbEntity
  8
A-SECT-HIDN
100
AcDbLine
 10
1.9425
 20
8.55
 30
0.0
 11
1.9925
 21
8.55
 31
0.0
  0
LINE
  5
EA
330
17
100
AcDbEntity
  8
A-SECT-HIDN
100
AcDbLine
 10
2.0275
 20
8.55
 30
0.0
 11
2.03125
 21
8.55
 31
0.0
  0
TEXT
  5
EB
330
17
100
AcDbEntity
  8
A-SECT-IDEN
100
AcDbText
 10
1.90625
 20
8.95625
 30
0.0
 40
0.04599999999999999
  1
LOBBY / HALL OF
  7
KS-BOLD
 72
1
 11
1.90625
 21
8.95625
 31
0.0
100
AcDbText
  0
TEXT
  5
EC
330
17
100
AcDbEntity
  8
A-SECT-IDEN
100
AcDbText
 10
1.90625
 20
8.881250000000001
 30
0.0
 40
0.04599999999999999
  1
CHAMPIONS
  7
KS-BOLD
 72
1
 11
1.90625
 21
8.881250000000001
 31
0.0
100
AcDbText
  0
TEXT
  5
ED
330
17
100
AcDbEntity
  8
A-SECT-IDEN
100
AcDbText
 10
1.90625
 20
8.80625
 30
0.0
 40
0.041999999999999996
  1
(double height)
  7
KS-REG
 72
1
 11
1.90625
 21
8.80625
 31
0.0
100
AcDbText
  0
TEXT
  5
EE
330
17
100
AcDbEntity
  8
A-SECT-IDEN
100
AcDbText
 10
1.859375
 20
8.40625
 30
0.0
 40
0.038
  1
SECURITY
  7
KS-REG
 72
1
 11
1.859375
 21
8.40625
 31
0.0
100
AcDbText
  0
TEXT
  5
EF
330
17
100
AcDbEntity
  8
A-SECT-IDEN
100
AcDbText
 10
1.859375
 20
8.34375
 30
0.0
 40
0.038
  1
(size TBD)
  7
KS-REG
 72
1
 11
1.859375
 21
8.34375
 31
0.0
100
AcDbText
  0
TEXT
  5
F0
330
17
100
AcDbEntity
  8
A-SECT-IDEN
100
AcDbText
 10
3.546875
 20
8.51875
 30
0.0
 40
0.044000000000000004
  1
< TELESCOPIC LOWER
  7
KS-REG
 11
3.546875
 21
8.51875
 31
0.0
100
AcDbText
  0
TEXT
  5
F1
330
17
100
AcDbEntity
  8
A-SECT-IDEN
100
AcDbText
 10
3.171875
 20
8.668750000000001
 30
0.0
 40
0.044000000000000004
  1
< FIXED UPPER
  7
KS-REG
 11
3.171875
 21
8.668750000000001
 31
0.0
100
AcDbText
  0
TEXT
  5
F2
330
17
100
AcDbEntity
  8
A-SECT-IDEN
100
AcDbText
 10
7.953125
 20
8.51875
 30
0.0
 40
0.044000000000000004
  1
TELESCOPIC LOWER >
  7
KS-REG
 72
2
 11
7.953125
 21
8.51875
 31
0.0
100
AcDbText
  0
TEXT
  5
F3
330
17
100
AcDbEntity
  8
A-SECT-IDEN
100
AcDbText
 10
8.328125
 20
8.668750000000001
 30
0.0
 40
0.044000000000000004
  1
FIXED UPPER >
  7
KS-REG
 72
2
 11
8.328125
 21
8.668750000000001
 31
0.0
100
AcDbText
  0
TEXT
  5
F4
330
17
100
AcDbEntity
  8
A-SECT-IDEN
100
AcDbText
 10
2.546875
 20
8.912500000000001
 30
0.0
 40
0.041999999999999996
  1
LOOP
  7
KS-BOLD
 72
1
 11
2.546875
 21
8.912500000000001
 31
0.0
100
AcDbText
  0
TEXT
  5
F5
330
17
100
AcDbEntity
  8
A-SECT-IDEN
100
AcDbText
 10
8.953125
 20
8.912500000000001
 30
0.0
 40
0.041999999999999996
  1
LOOP
  7
KS-BOLD
 72
1
 11
8.953125
 21
8.912500000000001
 31
0.0
100
AcDbText
  0
LINE
  5
F6
330
17
100
AcDbEntity
  8
A-SECT-HIDN
100
AcDbLine
 10
8.84375
 20
8.3
 30
0.0
 11
8.84375
 21
8.350000000000001
 31
0.0
  0
LINE
  5
F7
330
17
100
AcDbEntity
  8
A-SECT-HIDN
100
AcDbLine
 10
8.84375
 20
8.385000000000002
 30
0.0
 11
8.84375
 21
8.435
 31
0.0
  0
LINE
  5
F8
330
17
100
AcDbEntity
  8
A-SECT-HIDN
100
AcDbLine
 10
8.84375
 20
8.47
 30
0.0
 11
8.84375
 21
8.520000000000001
 31
0.0
  0
LINE
  5
F9
330
17
100
AcDbEntity
  8
A-SECT-HIDN
100
AcDbLine
 10
8.84375
 20
8.555000000000001
 30
0.0
 11
8.84375
 21
8.605
 31
0.0
  0
LINE
  5
FA
330
17
100
AcDbEntity
  8
A-SECT-HIDN
100
AcDbLine
 10
8.84375
 20
8.64
 30
0.0
 11
8.84375
 21
8.690000000000001
 31
0.0
  0
LINE
  5
FB
330
17
100
AcDbEntity
  8
A-SECT-HIDN
100
AcDbLine
 10
8.84375
 20
8.725000000000001
 30
0.0
 11
8.84375
 21
8.7375
 31
0.0
  0
TEXT
  5
FC
330
17
100
AcDbEntity
  8
A-SECT-IDEN
100
AcDbText
 10
8.609375
 20
8.45625
 30
0.0
 40
0.039999999999999994
  1
STORAGE /
  7
KS-BOLD
 72
1
 11
8.609375
 21
8.45625
 31
0.0
100
AcDbText
  0
TEXT
  5
FD
330
17
100
AcDbEntity
  8
A-SECT-IDEN
100
AcDbText
 10
8.609375
 20
8.387500000000001
 30
0.0
 40
0.039999999999999994
  1
MECH (D-049)
  7
KS-BOLD
 72
1
 11
8.609375
 21
8.387500000000001
 31
0.0
100
AcDbText
  0
TEXT
  5
FE
330
17
100
AcDbEntity
  8
A-SECT-IDEN
100
AcDbText
 10
9.046875
 20
8.45625
 30
0.0
 40
0.039999999999999994
  1
LKR 1
  7
KS-BOLD
 72
1
 11
9.046875
 21
8.45625
 31
0.0
100
AcDbText
  0
TEXT
  5
FF
330
17
100
AcDbEntity
  8
A-SECT-IDEN
100
AcDbText
 10
9.046875
 20
8.387500000000001
 30
0.0
 40
0.036
  1
full-ht part
  7
KS-REG
 72
1
 11
9.046875
 21
8.387500000000001
 31
0.0
100
AcDbText
  0
TEXT
  5
100
330
17
100
AcDbEntity
  8
A-SECT-IDEN
100
AcDbText
 10
5.75
 20
9.64375
 30
0.0
 40
0.04599999999999999
  1
ARENA ROOF 42' (ASSUMED)
  7
KS-BOLD
 72
1
 11
5.75
 21
9.64375
 31
0.0
100
AcDbText
  0
TEXT
  5
101
330
17
100
AcDbEntity
  8
A-SECT-IDEN
100
AcDbText
 10
5.75
 20
9.4875
 30
0.0
 40
0.039999999999999994
  1
LONG-SPAN STRUCTURE ZONE 36'–42' (not engineered)
  7
KS-REG
 72
1
 11
5.75
 21
9.4875
 31
0.0
100
AcDbText
  0
TEXT
  5
102
330
17
100
AcDbEntity
  8
A-SECT-IDEN
100
AcDbText
 10
1.9375
 20
9.26875
 30
0.0
 40
0.044000000000000004
  1
RING ROOF 30' (ASSUMED)
  7
KS-REG
 72
1
 11
1.9375
 21
9.26875
 31
0.0
100
AcDbText
  0
LINE
  5
103
330
17
100
AcDbEntity
  8
A-SECT-DATM
100
AcDbLine
 10
6.21875
 20
8.3
 30
0.0
 11
6.21875
 21
9.425
 31
0.0
  0
LINE
  5
104
330
17
100
AcDbEntity
  8
A-SECT-DATM
100
AcDbLine
 10
6.1875
 20
8.3
 30
0.0
 11
6.25
 21
8.3
 31
0.0
  0
LINE
  5
105
330
17
100
AcDbEntity
  8
A-SECT-DATM
100
AcDbLine
 10
6.1875
 20
9.425
 30
0.0
 11
6.25
 21
9.425
 31
0.0
  0
TEXT
  5
106
330
17
100
AcDbEntity
  8
A-SECT-DATM
100
AcDbText
 10
6.28125
 20
8.9875
 30
0.0
 40
0.044000000000000004
  1
36' TO U/S STRUCTURE (ASSUMED)
  7
KS-BOLD
 11
6.28125
 21
8.9875
 31
0.0
100
AcDbText
  0
TEXT
  5
107
330
17
100
AcDbEntity
  8
A-SECT-DATM
100
AcDbText
 10
6.28125
 20
8.90625
 30
0.0
 40
0.041999999999999996
  1
≥ 25' CLEAR REQUIRED (CITED, R-019)
  7
KS-REG
 11
6.28125
 21
8.90625
 31
0.0
100
AcDbText
  0
TEXT
  5
108
330
17
100
AcDbEntity
  8
A-SECT-IDEN
100
AcDbText
 10
1.296875
 20
8.1875
 30
0.0
 40
0.06
  1
S
  7
KS-BOLD
 72
1
 11
1.296875
 21
8.1875
 31
0.0
100
AcDbText
  0
TEXT
  5
109
330
17
100
AcDbEntity
  8
A-SECT-IDEN
100
AcDbText
 10
9.328125
 20
8.1875
 30
0.0
 40
0.06
  1
N
  7
KS-BOLD
 72
1
 11
9.328125
 21
8.1875
 31
0.0
100
AcDbText
  0
LINE
  5
10A
330
17
100
AcDbEntity
  8
A-SECT-DATM
100
AcDbLine
 10
1.22
 20
8.3
 30
0.0
 11
1.22
 21
8.3
 31
0.0
  0
TEXT
  5
10B
330
17
100
AcDbEntity
  8
A-SECT-DATM
100
AcDbText
 10
1.19
 20
8.278
 30
0.0
 40
0.044000000000000004
  1
L1 FF 0'
  7
KS-REG
 72
2
 11
1.19
 21
8.278
 31
0.0
100
AcDbText
  0
LINE
  5
10C
330
17
100
AcDbEntity
  8
A-SECT-DATM
100
AcDbLine
 10
1.22
 20
8.76875
 30
0.0
 11
1.22
 21
8.76875
 31
0.0
  0
TEXT
  5
10D
330
17
100
AcDbEntity
  8
A-SECT-DATM
100
AcDbText
 10
1.19
 20
8.74675
 30
0.0
 40
0.044000000000000004
  1
L2 15' A
  7
KS-REG
 72
2
 11
1.19
 21
8.74675
 31
0.0
100
AcDbText
  0
LINE
  5
10E
330
17
100
AcDbEntity
  8
A-SECT-DATM
100
AcDbLine
 10
1.22
 20
9.2375
 30
0.0
 11
1.22
 21
9.2375
 31
0.0
  0
TEXT
  5
10F
330
17
100
AcDbEntity
  8
A-SECT-DATM
100
AcDbText
 10
1.19
 20
9.2155
 30
0.0
 40
0.044000000000000004
  1
RING 30' A
  7
KS-REG
 72
2
 11
1.19
 21
9.2155
 31
0.0
100
AcDbText
  0
LINE
  5
110
330
17
100
AcDbEntity
  8
A-SECT-DATM
100
AcDbLine
 10
1.22
 20
9.425
 30
0.0
 11
1.22
 21
9.425
 31
0.0
  0
TEXT
  5
111
330
17
100
AcDbEntity
  8
A-SECT-DATM
100
AcDbText
 10
1.19
 20
9.403
 30
0.0
 40
0.044000000000000004
  1
U/S 36' A
  7
KS-REG
 72
2
 11
1.19
 21
9.403
 31
0.0
100
AcDbText
  0
LINE
  5
112
330
17
100
AcDbEntity
  8
A-SECT-DATM
100
AcDbLine
 10
1.22
 20
9.6125
 30
0.0
 11
1.22
 21
9.6125
 31
0.0
  0
TEXT
  5
113
330
17
100
AcDbEntity
  8
A-SECT-DATM
100
AcDbText
 10
1.19
 20
9.5905
 30
0.0
 40
0.044000000000000004
  1
ROOF 42' A
  7
KS-REG
 72
2
 11
1.19
 21
9.5905
 31
0.0
100
AcDbText
  0
TEXT
  5
114
330
17
100
AcDbEntity
  8
A-ANNO-TEXT
100
AcDbText
 10
1.45
 20
7.94
 30
0.0
 40
0.072
  1
1  SECTION A-A (NORTH-SOUTH) — looking west
  7
KS-BOLD
 11
1.45
 21
7.94
 31
0.0
100
AcDbText
  0
LINE
  5
115
330
17
100
AcDbEntity
  8
A-ANNO-TEXT
100
AcDbLine
 10
1.45
 20
7.890000000000001
 30
0.0
 11
6.05
 21
7.890000000000001
 31
0.0
  0
TEXT
  5
116
330
17
100
AcDbEntity
  8
A-ANNO-TEXT
100
AcDbText
 10
1.45
 20
7.7700000000000005
 30
0.0
 40
0.054000000000000006
  1
1/32" = 1'-0"  ·  x = 100 (see key plan)
  7
KS-REG
 11
1.45
 21
7.7700000000000005
 31
0.0
100
AcDbText
  0
HATCH
  5
117
330
17
100
AcDbEntity
  8
A-SECT-FILL
 62
7
420
15266040
100
AcDbHatch
 10
0.0
 20
0.0
 30
0.0
210
0.0
220
0.0
230
1.0
  2
SOLID
 70
1
 71
0
 91
1
 92
3
 72
0
 73
1
 93
4
 10
11.45625
 20
8.3
 10
16.3
 20
8.3
 10
16.3
 20
9.425
 10
11.45625
 20
9.425
 97
0
 75
0
 76
1
 98
0
  0
HATCH
  5
118
330
17
100
AcDbEntity
  8
A-SECT-FILL
 62
7
420
15789284
100
AcDbHatch
 10
0.0
 20
0.0
 30
0.0
210
0.0
220
0.0
230
1.0
  2
SOLID
 70
1
 71
0
 91
1
 92
3
 72
0
 73
1
 93
4
 10
9.925
 20
8.3
 10
11.675
 20
8.3
 10
11.675
 20
8.7375
 10
9.925
 20
8.7375
 97
0
 75
0
 76
1
 98
0
  0
HATCH
  5
119
330
17
100
AcDbEntity
  8
A-SECT-FILL
 62
7
420
15789284
100
AcDbHatch
 10
0.0
 20
0.0
 30
0.0
210
0.0
220
0.0
230
1.0
  2
SOLID
 70
1
 71
0
 91
1
 92
3
 72
0
 73
1
 93
4
 10
9.925
 20
8.76875
 10
11.45625
 20
8.76875
 10
11.45625
 20
9.20625
 10
9.925
 20
9.20625
 97
0
 75
0
 76
1
 98
0
  0
HATCH
  5
11A
330
17
100
AcDbEntity
  8
A-SECT-FILL
 62
7
420
15789284
100
AcDbHatch
 10
0.0
 20
0.0
 30
0.0
210
0.0
220
0.0
230
1.0
  2
SOLID
 70
1
 71
0
 91
1
 92
3
 72
0
 73
1
 93
5
 10
15.6125
 20
8.3
 10
16.3
 20
8.3
 10
16.3
 20
8.7375
 10
16.08125
 20
8.7375
 10
15.6125
 20
8.555208333333335
 97
0
 75
0
 76
1
 98
0
  0
HATCH
  5
11B
330
17
100
AcDbEntity
  8
A-SECT-CUTL
 62
7
420
14268286
100
AcDbHatch
 10
0.0
 20
0.0
 30
0.0
210
0.0
220
0.0
230
1.0
  2
SOLID
 70
1
 71
0
 91
1
 92
3
 72
0
 73
1
 93
4
 10
11.675
 20
8.28125
 10
15.2375
 20
8.28125
 10
15.2375
 20
8.3
 10
11.675
 20
8.3
 97
0
 75
0
 76
1
 98
0
  0
LWPOLYLINE
  5
11C
330
17
100
AcDbEntity
  8
A-SECT-CUTL
100
AcDbPolyline
 90
4
 70
1
 10
11.675
 20
8.28125
 10
15.2375
 20
8.28125
 10
15.2375
 20
8.3
 10
11.675
 20
8.3
  0
TEXT
  5
11D
330
17
100
AcDbEntity
  8
A-SECT-IDEN
100
AcDbText
 10
13.45625
 20
8.36875
 30
0.0
 40
0.04599999999999999
  1
EVENT FLOOR (no west tier, Rev D)
  7
KS-BOLD
 72
1
 11
13.45625
 21
8.36875
 31
0.0
100
AcDbText
  0
HATCH
  5
11E
330
17
100
AcDbEntity
  8
A-SECT-CUTL
 62
7
420
14191242
100
AcDbHatch
 10
0.0
 20
0.0
 30
0.0
210
0.0
220
0.0
230
1.0
  2
SOLID
 70
1
 71
0
 91
1
 92
3
 72
0
 73
1
 93
14
 10
15.2375
 20
8.3
 10
15.2375
 20
8.3046875
 10
15.3
 20
8.3046875
 10
15.3
 20
8.3349609375
 10
15.3625
 20
8.3349609375
 10
15.3625
 20
8.365234375
 10
15.425
 20
8.365234375
 10
15.425
 20
8.3955078125
 10
15.4875
 20
8.3955078125
 10
15.4875
 20
8.42578125
 10
15.55
 20
8.42578125
 10
15.55
 20
8.4560546875
 10
15.6125
 20
8.4560546875
 10
15.6125
 20
8.3
 97
0
 75
0
 76
1
 98
0
  0
LWPOLYLINE
  5
11F
330
17
100
AcDbEntity
  8
A-SECT-CUTL
100
AcDbPolyline
 90
14
 70
1
 10
15.2375
 20
8.3
 10
15.2375
 20
8.3046875
 10
15.3
 20
8.3046875
 10
15.3
 20
8.3349609375
 10
15.3625
 20
8.3349609375
 10
15.3625
 20
8.365234375
 10
15.425
 20
8.365234375
 10
15.425
 20
8.3955078125
 10
15.4875
 20
8.3955078125
 10
15.4875
 20
8.42578125
 10
15.55
 20
8.42578125
 10
15.55
 20
8.4560546875
 10
15.6125
 20
8.4560546875
 10
15.6125
 20
8.3
  0
LINE
  5
120
330
17
100
AcDbEntity
  8
A-SECT-FILL
100
AcDbLine
 10
15.271875000000001
 20
8.3046875
 30
0.0
 11
15.271875000000001
 21
8.34375
 31
0.0
  0
LINE
  5
121
330
17
100
AcDbEntity
  8
A-SECT-FILL
100
AcDbLine
 10
15.334375000000001
 20
8.3349609375
 30
0.0
 11
15.334375000000001
 21
8.3740234375
 31
0.0
  0
LINE
  5
122
330
17
100
AcDbEntity
  8
A-SECT-FILL
100
AcDbLine
 10
15.396875000000001
 20
8.365234375
 30
0.0
 11
15.396875000000001
 21
8.404296875
 31
0.0
  0
LINE
  5
123
330
17
100
AcDbEntity
  8
A-SECT-FILL
100
AcDbLine
 10
15.459375000000001
 20
8.3955078125
 30
0.0
 11
15.459375000000001
 21
8.4345703125
 31
0.0
  0
LINE
  5
124
330
17
100
AcDbEntity
  8
A-SECT-FILL
100
AcDbLine
 10
15.521875000000001
 20
8.42578125
 30
0.0
 11
15.521875000000001
 21
8.46484375
 31
0.0
  0
LINE
  5
125
330
17
100
AcDbEntity
  8
A-SECT-FILL
100
AcDbLine
 10
15.584375000000001
 20
8.4560546875
 30
0.0
 11
15.584375000000001
 21
8.4951171875
 31
0.0
  0
HATCH
  5
126
330
17
100
AcDbEntity
  8
A-SECT-CUTL
 62
7
420
10990531
100
AcDbHatch
 10
0.0
 20
0.0
 30
0.0
210
0.0
220
0.0
230
1.0
  2
SOLID
 70
1
 71
0
 91
1
 92
3
 72
0
 73
1
 93
13
 10
15.6125
 20
8.586458333333335
 10
15.70625
 20
8.586458333333335
 10
15.70625
 20
8.622916666666667
 10
15.8
 20
8.622916666666667
 10
15.8
 20
8.659375
 10
15.89375
 20
8.659375
 10
15.89375
 20
8.695833333333335
 10
15.9875
 20
8.695833333333335
 10
15.9875
 20
8.732291666666667
 10
16.08125
 20
8.732291666666667
 10
16.08125
 20
8.76875
 10
16.08125
 20
8.7375
 10
15.6125
 20
8.555208333333335
 97
0
 75
0
 76
1
 98
0
  0
LWPOLYLINE
  5
127
330
17
100
AcDbEntity
  8
A-SECT-CUTL
100
AcDbPolyline
 90
13
 70
1
 10
15.6125
 20
8.586458333333335
 10
15.70625
 20
8.586458333333335
 10
15.70625
 20
8.622916666666667
 10
15.8
 20
8.622916666666667
 10
15.8
 20
8.659375
 10
15.89375
 20
8.659375
 10
15.89375
 20
8.695833333333335
 10
15.9875
 20
8.695833333333335
 10
15.9875
 20
8.732291666666667
 10
16.08125
 20
8.732291666666667
 10
16.08125
 20
8.76875
 10
16.08125
 20
8.7375
 10
15.6125
 20
8.555208333333335
  0
LINE
  5
128
330
17
100
AcDbEntity
  8
A-SECT-FILL
100
AcDbLine
 10
15.6640625
 20
8.586458333333335
 30
0.0
 11
15.6640625
 21
8.630208333333334
 31
0.0
  0
LINE
  5
129
330
17
100
AcDbEntity
  8
A-SECT-FILL
100
AcDbLine
 10
15.7578125
 20
8.622916666666667
 30
0.0
 11
15.7578125
 21
8.666666666666668
 31
0.0
  0
LINE
  5
12A
330
17
100
AcDbEntity
  8
A-SECT-FILL
100
AcDbLine
 10
15.8515625
 20
8.659375
 30
0.0
 11
15.8515625
 21
8.703125
 31
0.0
  0
LINE
  5
12B
330
17
100
AcDbEntity
  8
A-SECT-FILL
100
AcDbLine
 10
15.9453125
 20
8.695833333333335
 30
0.0
 11
15.9453125
 21
8.739583333333334
 31
0.0
  0
LINE
  5
12C
330
17
100
AcDbEntity
  8
A-SECT-FILL
100
AcDbLine
 10
16.0390625
 20
8.732291666666667
 30
0.0
 11
16.0390625
 21
8.776041666666668
 31
0.0
  0
LINE
  5
12D
330
17
100
AcDbEntity
  8
A-SECT-GUAR
100
AcDbLine
 10
15.6125
 20
8.586458333333335
 30
0.0
 11
15.6125
 21
8.654166666666667
 31
0.0
  0
HATCH
  5
12E
330
17
100
AcDbEntity
  8
A-SECT-CUTL
 62
7
420
3947580
100
AcDbHatch
 10
0.0
 20
0.0
 30
0.0
210
0.0
220
0.0
230
1.0
  2
SOLID
 70
1
 71
0
 91
1
 92
3
 72
0
 73
1
 93
4
 10
15.6125
 20
8.3
 10
15.64375
 20
8.3
 10
15.64375
 20
8.555208333333335
 10
15.6125
 20
8.555208333333335
 97
0
 75
0
 76
1
 98
0
  0
HATCH
  5
12F
330
17
100
AcDbEntity
  8
A-SECT-CUTL
 62
7
420
3947580
100
AcDbHatch
 10
0.0
 20
0.0
 30
0.0
210
0.0
220
0.0
230
1.0
  2
SOLID
 70
1
 71
0
 91
1
 92
3
 72
0
 73
1
 93
4
 10
9.925
 20
8.7375
 10
11.675
 20
8.7375
 10
11.675
 20
8.76875
 10
9.925
 20
8.76875
 97
0
 75
0
 76
1
 98
0
  0
HATCH
  5
130
330
17
100
AcDbEntity
  8
A-SECT-FILL
 62
7
420
13134138
100
AcDbHatch
 10
0.0
 20
0.0
 30
0.0
210
0.0
220
0.0
230
1.0
  2
SOLID
 70
1
 71
0
 91
1
 92
3
 72
0
 73
1
 93
4
 10
11.45625
 20
8.76875
 10
11.675
 20
8.76875
 10
11.675
 20
8.779687500000001
 10
11.45625
 20
8.779687500000001
 97
0
 75
0
 76
1
 98
0
  0
HATCH
  5
131
330
17
100
AcDbEntity
  8
A-SECT-CUTL
 62
7
420
3947580
100
AcDbHatch
 10
0.0
 20
0.0
 30
0.0
210
0.0
220
0.0
230
1.0
  2
SOLID
 70
1
 71
0
 91
1
 92
3
 72
0
 73
1
 93
4
 10
16.08125
 20
8.7375
 10
16.3
 20
8.7375
 10
16.3
 20
8.76875
 10
16.08125
 20
8.76875
 97
0
 75
0
 76
1
 98
0
  0
HATCH
  5
132
330
17
100
AcDbEntity
  8
A-SECT-FILL
 62
7
420
13134138
100
AcDbHatch
 10
0.0
 20
0.0
 30
0.0
210
0.0
220
0.0
230
1.0
  2
SOLID
 70
1
 71
0
 91
1
 92
3
 72
0
 73
1
 93
4
 10
16.08125
 20
8.76875
 10
16.3
 20
8.76875
 10
16.3
 20
8.779687500000001
 10
16.08125
 20
8.779687500000001
 97
0
 75
0
 76
1
 98
0
  0
LINE
  5
133
330
17
100
AcDbEntity
  8
A-SECT-GUAR
100
AcDbLine
 10
11.675
 20
8.76875
 30
0.0
 11
11.675
 21
8.878125
 31
0.0
  0
LINE
  5
134
330
17
100
AcDbEntity
  8
A-SECT-GUAR
100
AcDbLine
 10
11.65625
 20
8.878125
 30
0.0
 11
11.693750000000001
 21
8.878125
 31
0.0
  0
HATCH
  5
135
330
17
100
AcDbEntity
  8
A-SECT-CUTL
 62
7
420
3947580
100
AcDbHatch
 10
0.0
 20
0.0
 30
0.0
210
0.0
220
0.0
230
1.0
  2
SOLID
 70
1
 71
0
 91
1
 92
3
 72
0
 73
1
 93
4
 10
11.2140625
 20
8.3
 10
11.2453125
 20
8.3
 10
11.2453125
 20
8.7375
 10
11.2140625
 20
8.7375
 97
0
 75
0
 76
1
 98
0
  0
HATCH
  5
136
330
17
100
AcDbEntity
  8
A-SECT-CUTL
 62
7
420
3947580
100
AcDbHatch
 10
0.0
 20
0.0
 30
0.0
210
0.0
220
0.0
230
1.0
  2
SOLID
 70
1
 71
0
 91
1
 92
3
 72
0
 73
1
 93
4
 10
11.440625
 20
8.76875
 10
11.471875
 20
8.76875
 10
11.471875
 20
9.20625
 10
11.440625
 20
9.20625
 97
0
 75
0
 76
1
 98
0
  0
HATCH
  5
137
330
17
100
AcDbEntity
  8
A-SECT-CUTL
 62
7
420
3947580
100
AcDbHatch
 10
0.0
 20
0.0
 30
0.0
210
0.0
220
0.0
230
1.0
  2
SOLID
 70
1
 71
0
 91
1
 92
3
 72
0
 73
1
 93
4
 10
9.925
 20
9.20625
 10
11.45625
 20
9.20625
 10
11.45625
 20
9.2375
 10
9.925
 20
9.2375
 97
0
 75
0
 76
1
 98
0
  0
HATCH
  5
138
330
17
100
AcDbEntity
  8
A-SECT-FILL
 62
7
420
13619151
100
AcDbHatch
 10
0.0
 20
0.0
 30
0.0
210
0.0
220
0.0
230
1.0
  2
SOLID
 70
1
 71
0
 91
1
 92
3
 72
0
 73
1
 93
4
 10
11.45625
 20
9.425
 10
16.3
 20
9.425
 10
16.3
 20
9.6125
 10
11.45625
 20
9.6125
 97
0
 75
0
 76
1
 98
0
  0
LINE
  5
139
330
17
100
AcDbEntity
  8
A-SECT-FILL
100
AcDbLine
 10
11.45625
 20
9.425
 30
0.0
 11
11.55
 21
9.58125
 31
0.0
  0
LINE
  5
13A
330
17
100
AcDbEntity
  8
A-SECT-FILL
100
AcDbLine
 10
11.55
 20
9.58125
 30
0.0
 11
11.64375
 21
9.425
 31
0.0
  0
LINE
  5
13B
330
17
100
AcDbEntity
  8
A-SECT-FILL
100
AcDbLine
 10
11.64375
 20
9.425
 30
0.0
 11
11.7375
 21
9.58125
 31
0.0
  0
LINE
  5
13C
330
17
100
AcDbEntity
  8
A-SECT-FILL
100
AcDbLine
 10
11.7375
 20
9.58125
 30
0.0
 11
11.83125
 21
9.425
 31
0.0
  0
LINE
  5
13D
330
17
100
AcDbEntity
  8
A-SECT-FILL
100
AcDbLine
 10
11.83125
 20
9.425
 30
0.0
 11
11.925
 21
9.58125
 31
0.0
  0
LINE
  5
13E
330
17
100
AcDbEntity
  8
A-SECT-FILL
100
AcDbLine
 10
11.925
 20
9.58125
 30
0.0
 11
12.01875
 21
9.425
 31
0.0
  0
LINE
  5
13F
330
17
100
AcDbEntity
  8
A-SECT-FILL
100
AcDbLine
 10
12.01875
 20
9.425
 30
0.0
 11
12.1125
 21
9.58125
 31
0.0
  0
LINE
  5
140
330
17
100
AcDbEntity
  8
A-SECT-FILL
100
AcDbLine
 10
12.1125
 20
9.58125
 30
0.0
 11
12.20625
 21
9.425
 31
0.0
  0
LINE
  5
141
330
17
100
AcDbEntity
  8
A-SECT-FILL
100
AcDbLine
 10
12.20625
 20
9.425
 30
0.0
 11
12.3
 21
9.58125
 31
0.0
  0
LINE
  5
142
330
17
100
AcDbEntity
  8
A-SECT-FILL
100
AcDbLine
 10
12.3
 20
9.58125
 30
0.0
 11
12.39375
 21
9.425
 31
0.0
  0
LINE
  5
143
330
17
100
AcDbEntity
  8
A-SECT-FILL
100
AcDbLine
 10
12.39375
 20
9.425
 30
0.0
 11
12.4875
 21
9.58125
 31
0.0
  0
LINE
  5
144
330
17
100
AcDbEntity
  8
A-SECT-FILL
100
AcDbLine
 10
12.4875
 20
9.58125
 30
0.0
 11
12.58125
 21
9.425
 31
0.0
  0
LINE
  5
145
330
17
100
AcDbEntity
  8
A-SECT-FILL
100
AcDbLine
 10
12.58125
 20
9.425
 30
0.0
 11
12.675
 21
9.58125
 31
0.0
  0
LINE
  5
146
330
17
100
AcDbEntity
  8
A-SECT-FILL
100
AcDbLine
 10
12.675
 20
9.58125
 30
0.0
 11
12.76875
 21
9.425
 31
0.0
  0
LINE
  5
147
330
17
100
AcDbEntity
  8
A-SECT-FILL
100
AcDbLine
 10
12.76875
 20
9.425
 30
0.0
 11
12.8625
 21
9.58125
 31
0.0
  0
LINE
  5
148
330
17
100
AcDbEntity
  8
A-SECT-FILL
100
AcDbLine
 10
12.8625
 20
9.58125
 30
0.0
 11
12.95625
 21
9.425
 31
0.0
  0
LINE
  5
149
330
17
100
AcDbEntity
  8
A-SECT-FILL
100
AcDbLine
 10
12.95625
 20
9.425
 30
0.0
 11
13.05
 21
9.58125
 31
0.0
  0
LINE
  5
14A
330
17
100
AcDbEntity
  8
A-SECT-FILL
100
AcDbLine
 10
13.05
 20
9.58125
 30
0.0
 11
13.14375
 21
9.425
 31
0.0
  0
LINE
  5
14B
330
17
100
AcDbEntity
  8
A-SECT-FILL
100
AcDbLine
 10
13.14375
 20
9.425
 30
0.0
 11
13.2375
 21
9.58125
 31
0.0
  0
LINE
  5
14C
330
17
100
AcDbEntity
  8
A-SECT-FILL
100
AcDbLine
 10
13.2375
 20
9.58125
 30
0.0
 11
13.33125
 21
9.425
 31
0.0
  0
LINE
  5
14D
330
17
100
AcDbEntity
  8
A-SECT-FILL
100
AcDbLine
 10
13.33125
 20
9.425
 30
0.0
 11
13.425
 21
9.58125
 31
0.0
  0
LINE
  5
14E
330
17
100
AcDbEntity
  8
A-SECT-FILL
100
AcDbLine
 10
13.425
 20
9.58125
 30
0.0
 11
13.51875
 21
9.425
 31
0.0
  0
LINE
  5
14F
330
17
100
AcDbEntity
  8
A-SECT-FILL
100
AcDbLine
 10
13.51875
 20
9.425
 30
0.0
 11
13.6125
 21
9.58125
 31
0.0
  0
LINE
  5
150
330
17
100
AcDbEntity
  8
A-SECT-FILL
100
AcDbLine
 10
13.6125
 20
9.58125
 30
0.0
 11
13.70625
 21
9.425
 31
0.0
  0
LINE
  5
151
330
17
100
AcDbEntity
  8
A-SECT-FILL
100
AcDbLine
 10
13.70625
 20
9.425
 30
0.0
 11
13.8
 21
9.58125
 31
0.0
  0
LINE
  5
152
330
17
100
AcDbEntity
  8
A-SECT-FILL
100
AcDbLine
 10
13.8
 20
9.58125
 30
0.0
 11
13.89375
 21
9.425
 31
0.0
  0
LINE
  5
153
330
17
100
AcDbEntity
  8
A-SECT-FILL
100
AcDbLine
 10
13.89375
 20
9.425
 30
0.0
 11
13.9875
 21
9.58125
 31
0.0
  0
LINE
  5
154
330
17
100
AcDbEntity
  8
A-SECT-FILL
100
AcDbLine
 10
13.9875
 20
9.58125
 30
0.0
 11
14.08125
 21
9.425
 31
0.0
  0
LINE
  5
155
330
17
100
AcDbEntity
  8
A-SECT-FILL
100
AcDbLine
 10
14.08125
 20
9.425
 30
0.0
 11
14.175
 21
9.58125
 31
0.0
  0
LINE
  5
156
330
17
100
AcDbEntity
  8
A-SECT-FILL
100
AcDbLine
 10
14.175
 20
9.58125
 30
0.0
 11
14.26875
 21
9.425
 31
0.0
  0
LINE
  5
157
330
17
100
AcDbEntity
  8
A-SECT-FILL
100
AcDbLine
 10
14.26875
 20
9.425
 30
0.0
 11
14.3625
 21
9.58125
 31
0.0
  0
LINE
  5
158
330
17
100
AcDbEntity
  8
A-SECT-FILL
100
AcDbLine
 10
14.3625
 20
9.58125
 30
0.0
 11
14.45625
 21
9.425
 31
0.0
  0
LINE
  5
159
330
17
100
AcDbEntity
  8
A-SECT-FILL
100
AcDbLine
 10
14.45625
 20
9.425
 30
0.0
 11
14.55
 21
9.58125
 31
0.0
  0
LINE
  5
15A
330
17
100
AcDbEntity
  8
A-SECT-FILL
100
AcDbLine
 10
14.55
 20
9.58125
 30
0.0
 11
14.64375
 21
9.425
 31
0.0
  0
LINE
  5
15B
330
17
100
AcDbEntity
  8
A-SECT-FILL
100
AcDbLine
 10
14.64375
 20
9.425
 30
0.0
 11
14.7375
 21
9.58125
 31
0.0
  0
LINE
  5
15C
330
17
100
AcDbEntity
  8
A-SECT-FILL
100
AcDbLine
 10
14.7375
 20
9.58125
 30
0.0
 11
14.83125
 21
9.425
 31
0.0
  0
LINE
  5
15D
330
17
100
AcDbEntity
  8
A-SECT-FILL
100
AcDbLine
 10
14.83125
 20
9.425
 30
0.0
 11
14.925
 21
9.58125
 31
0.0
  0
LINE
  5
15E
330
17
100
AcDbEntity
  8
A-SECT-FILL
100
AcDbLine
 10
14.925
 20
9.58125
 30
0.0
 11
15.01875
 21
9.425
 31
0.0
  0
LINE
  5
15F
330
17
100
AcDbEntity
  8
A-SECT-FILL
100
AcDbLine
 10
15.01875
 20
9.425
 30
0.0
 11
15.1125
 21
9.58125
 31
0.0
  0
LINE
  5
160
330
17
100
AcDbEntity
  8
A-SECT-FILL
100
AcDbLine
 10
15.1125
 20
9.58125
 30
0.0
 11
15.20625
 21
9.425
 31
0.0
  0
LINE
  5
161
330
17
100
AcDbEntity
  8
A-SECT-FILL
100
AcDbLine
 10
15.20625
 20
9.425
 30
0.0
 11
15.3
 21
9.58125
 31
0.0
  0
LINE
  5
162
330
17
100
AcDbEntity
  8
A-SECT-FILL
100
AcDbLine
 10
15.3
 20
9.58125
 30
0.0
 11
15.39375
 21
9.425
 31
0.0
  0
LINE
  5
163
330
17
100
AcDbEntity
  8
A-SECT-FILL
100
AcDbLine
 10
15.39375
 20
9.425
 30
0.0
 11
15.4875
 21
9.58125
 31
0.0
  0
LINE
  5
164
330
17
100
AcDbEntity
  8
A-SECT-FILL
100
AcDbLine
 10
15.4875
 20
9.58125
 30
0.0
 11
15.58125
 21
9.425
 31
0.0
  0
LINE
  5
165
330
17
100
AcDbEntity
  8
A-SECT-FILL
100
AcDbLine
 10
15.58125
 20
9.425
 30
0.0
 11
15.675
 21
9.58125
 31
0.0
  0
LINE
  5
166
330
17
100
AcDbEntity
  8
A-SECT-FILL
100
AcDbLine
 10
15.675
 20
9.58125
 30
0.0
 11
15.76875
 21
9.425
 31
0.0
  0
LINE
  5
167
330
17
100
AcDbEntity
  8
A-SECT-FILL
100
AcDbLine
 10
15.76875
 20
9.425
 30
0.0
 11
15.8625
 21
9.58125
 31
0.0
  0
LINE
  5
168
330
17
100
AcDbEntity
  8
A-SECT-FILL
100
AcDbLine
 10
15.8625
 20
9.58125
 30
0.0
 11
15.95625
 21
9.425
 31
0.0
  0
LINE
  5
169
330
17
100
AcDbEntity
  8
A-SECT-FILL
100
AcDbLine
 10
15.95625
 20
9.425
 30
0.0
 11
16.05
 21
9.58125
 31
0.0
  0
LINE
  5
16A
330
17
100
AcDbEntity
  8
A-SECT-FILL
100
AcDbLine
 10
16.05
 20
9.58125
 30
0.0
 11
16.14375
 21
9.425
 31
0.0
  0
HATCH
  5
16B
330
17
100
AcDbEntity
  8
A-SECT-CUTL
 62
7
420
3947580
100
AcDbHatch
 10
0.0
 20
0.0
 30
0.0
210
0.0
220
0.0
230
1.0
  2
SOLID
 70
1
 71
0
 91
1
 92
3
 72
0
 73
1
 93
4
 10
11.45625
 20
9.58125
 10
16.3
 20
9.58125
 10
16.3
 20
9.6125
 10
11.45625
 20
9.6125
 97
0
 75
0
 76
1
 98
0
  0
LINE
  5
16C
330
17
100
AcDbEntity
  8
A-SECT-CUTL
100
AcDbLine
 10
11.45625
 20
9.425
 30
0.0
 11
16.3
 21
9.425
 31
0.0
  0
HATCH
  5
16D
330
17
100
AcDbEntity
  8
A-SECT-CUTL
 62
7
420
3947580
100
AcDbHatch
 10
0.0
 20
0.0
 30
0.0
210
0.0
220
0.0
230
1.0
  2
SOLID
 70
1
 71
0
 91
1
 92
3
 72
0
 73
1
 93
4
 10
11.425
 20
9.20625
 10
11.45625
 20
9.20625
 10
11.45625
 20
9.6125
 10
11.425
 20
9.6125
 97
0
 75
0
 76
1
 98
0
  0
HATCH
  5
16E
330
17
100
AcDbEntity
  8
A-SECT-CUTL
 62
7
420
3947580
100
AcDbHatch
 10
0.0
 20
0.0
 30
0.0
210
0.0
220
0.0
230
1.0
  2
SOLID
 70
1
 71
0
 91
1
 92
3
 72
0
 73
1
 93
4
 10
9.89375
 20
8.3
 10
9.925
 20
8.3
 10
9.925
 20
9.2375
 10
9.89375
 20
9.2375
 97
0
 75
0
 76
1
 98
0
  0
HATCH
  5
16F
330
17
100
AcDbEntity
  8
A-SECT-CUTL
 62
7
420
3947580
100
AcDbHatch
 10
0.0
 20
0.0
 30
0.0
210
0.0
220
0.0
230
1.0
  2
SOLID
 70
1
 71
0
 91
1
 92
3
 72
0
 73
1
 93
4
 10
16.3
 20
8.3
 10
16.33125
 20
8.3
 10
16.33125
 20
9.6125
 10
16.3
 20
9.6125
 97
0
 75
0
 76
1
 98
0
  0
LINE
  5
170
330
17
100
AcDbEntity
  8
A-SECT-CUTL
100
AcDbLine
 10
9.8
 20
8.3
 30
0.0
 11
9.925
 21
8.3
 31
0.0
  0
LINE
  5
171
330
17
100
AcDbEntity
  8
A-SECT-CUTL
100
AcDbLine
 10
16.3
 20
8.3
 30
0.0
 11
16.425
 21
8.3
 31
0.0
  0
LINE
  5
172
330
17
100
AcDbEntity
  8
A-SECT-CUTL
100
AcDbLine
 10
9.925
 20
8.26875
 30
0.0
 11
16.3
 21
8.26875
 31
0.0
  0
TEXT
  5
173
330
17
100
AcDbEntity
  8
A-SECT-IDEN
100
AcDbText
 10
10.57734375
 20
8.45625
 30
0.0
 40
0.044000000000000004
  1
BOYS LOCKER
  7
KS-BOLD
 72
1
 11
10.57734375
 21
8.45625
 31
0.0
100
AcDbText
  0
TEXT
  5
174
330
17
100
AcDbEntity
  8
A-SECT-IDEN
100
AcDbText
 10
11.45234375
 20
8.45625
 30
0.0
 40
0.039
  1
ATH.
  7
KS-BOLD
 72
1
 11
11.45234375
 21
8.45625
 31
0.0
100
AcDbText
  0
TEXT
  5
175
330
17
100
AcDbEntity
  8
A-SECT-IDEN
100
AcDbText
 10
11.45234375
 20
8.387500000000001
 30
0.0
 40
0.039
  1
CORR.
  7
KS-BOLD
 72
1
 11
11.45234375
 21
8.387500000000001
 31
0.0
100
AcDbText
  0
TEXT
  5
176
330
17
100
AcDbEntity
  8
A-SECT-IDEN
100
AcDbText
 10
10.690625
 20
8.95625
 30
0.0
 40
0.044000000000000004
  1
STRENGTH &
  7
KS-BOLD
 72
1
 11
10.690625
 21
8.95625
 31
0.0
100
AcDbText
  0
TEXT
  5
177
330
17
100
AcDbEntity
  8
A-SECT-IDEN
100
AcDbText
 10
10.690625
 20
8.881250000000001
 30
0.0
 40
0.044000000000000004
  1
CONDITIONING (L2)
  7
KS-BOLD
 72
1
 11
10.690625
 21
8.881250000000001
 31
0.0
100
AcDbText
  0
TEXT
  5
178
330
17
100
AcDbEntity
  8
A-SECT-IDEN
100
AcDbText
 10
11.565625
 20
8.912500000000001
 30
0.0
 40
0.041999999999999996
  1
LOOP
  7
KS-BOLD
 72
1
 11
11.565625
 21
8.912500000000001
 31
0.0
100
AcDbText
  0
TEXT
  5
179
330
17
100
AcDbEntity
  8
A-SECT-IDEN
100
AcDbText
 10
16.190625
 20
8.912500000000001
 30
0.0
 40
0.041999999999999996
  1
LOOP
  7
KS-BOLD
 72
1
 11
16.190625
 21
8.912500000000001
 31
0.0
100
AcDbText
  0
TEXT
  5
17A
330
17
100
AcDbEntity
  8
A-SECT-IDEN
100
AcDbText
 10
15.190625
 20
8.51875
 30
0.0
 40
0.044000000000000004
  1
TELESCOPIC LOWER >
  7
KS-REG
 72
2
 11
15.190625
 21
8.51875
 31
0.0
100
AcDbText
  0
TEXT
  5
17B
330
17
100
AcDbEntity
  8
A-SECT-IDEN
100
AcDbText
 10
15.565625
 20
8.668750000000001
 30
0.0
 40
0.044000000000000004
  1
FIXED UPPER >
  7
KS-REG
 72
2
 11
15.565625
 21
8.668750000000001
 31
0.0
100
AcDbText
  0
LINE
  5
17C
330
17
100
AcDbEntity
  8
A-SECT-HIDN
100
AcDbLine
 10
16.08125
 20
8.3
 30
0.0
 11
16.08125
 21
8.350000000000001
 31
0.0
  0
LINE
  5
17D
330
17
100
AcDbEntity
  8
A-SECT-HIDN
100
AcDbLine
 10
16.08125
 20
8.385000000000002
 30
0.0
 11
16.08125
 21
8.435
 31
0.0
  0
LINE
  5
17E
330
17
100
AcDbEntity
  8
A-SECT-HIDN
100
AcDbLine
 10
16.08125
 20
8.47
 30
0.0
 11
16.08125
 21
8.520000000000001
 31
0.0
  0
LINE
  5
17F
330
17
100
AcDbEntity
  8
A-SECT-HIDN
100
AcDbLine
 10
16.08125
 20
8.555000000000001
 30
0.0
 11
16.08125
 21
8.605
 31
0.0
  0
LINE
  5
180
330
17
100
AcDbEntity
  8
A-SECT-HIDN
100
AcDbLine
 10
16.08125
 20
8.64
 30
0.0
 11
16.08125
 21
8.690000000000001
 31
0.0
  0
LINE
  5
181
330
17
100
AcDbEntity
  8
A-SECT-HIDN
100
AcDbLine
 10
16.08125
 20
8.725000000000001
 30
0.0
 11
16.08125
 21
8.7375
 31
0.0
  0
TEXT
  5
182
330
17
100
AcDbEntity
  8
A-SECT-IDEN
100
AcDbText
 10
15.846875
 20
8.45625
 30
0.0
 40
0.038
  1
STOR. /
  7
KS-BOLD
 72
1
 11
15.846875
 21
8.45625
 31
0.0
100
AcDbText
  0
TEXT
  5
183
330
17
100
AcDbEntity
  8
A-SECT-IDEN
100
AcDbText
 10
15.846875
 20
8.387500000000001
 30
0.0
 40
0.038
  1
MECH
  7
KS-BOLD
 72
1
 11
15.846875
 21
8.387500000000001
 31
0.0
100
AcDbText
  0
TEXT
  5
184
330
17
100
AcDbEntity
  8
A-SECT-IDEN
100
AcDbText
 10
16.190625
 20
8.58125
 30
0.0
 40
0.033999999999999996
  1
LKR 4
  7
KS-BOLD
 72
1
 11
16.190625
 21
8.58125
 31
0.0
100
AcDbText
  0
TEXT
  5
185
330
17
100
AcDbEntity
  8
A-SECT-IDEN
100
AcDbText
 10
16.190625
 20
8.51875
 30
0.0
 40
0.032
  1
7' full
  7
KS-REG
 72
1
 11
16.190625
 21
8.51875
 31
0.0
100
AcDbText
  0
TEXT
  5
186
330
17
100
AcDbEntity
  8
A-SECT-IDEN
100
AcDbText
 10
16.190625
 20
8.4625
 30
0.0
 40
0.032
  1
ht part
  7
KS-REG
 72
1
 11
16.190625
 21
8.4625
 31
0.0
100
AcDbText
  0
TEXT
  5
187
330
17
100
AcDbEntity
  8
A-SECT-IDEN
100
AcDbText
 10
13.83125
 20
9.64375
 30
0.0
 40
0.04599999999999999
  1
ARENA ROOF 42' (ASSUMED)
  7
KS-BOLD
 72
1
 11
13.83125
 21
9.64375
 31
0.0
100
AcDbText
  0
TEXT
  5
188
330
17
100
AcDbEntity
  8
A-SECT-IDEN
100
AcDbText
 10
13.83125
 20
9.4875
 30
0.0
 40
0.039999999999999994
  1
LONG-SPAN STRUCTURE ZONE 36'–42' (not engineered)
  7
KS-REG
 72
1
 11
13.83125
 21
9.4875
 31
0.0
100
AcDbText
  0
TEXT
  5
189
330
17
100
AcDbEntity
  8
A-SECT-IDEN
100
AcDbText
 10
10.690625
 20
9.26875
 30
0.0
 40
0.044000000000000004
  1
RING ROOF 30' (ASSUMED)
  7
KS-REG
 72
1
 11
10.690625
 21
9.26875
 31
0.0
100
AcDbText
  0
TEXT
  5
18A
330
17
100
AcDbEntity
  8
A-SECT-GUAR
100
AcDbText
 10
11.7125
 20
8.8125
 30
0.0
 40
0.039
  1
42" GUARD (G-W)
  7
KS-REG
 11
11.7125
 21
8.8125
 31
0.0
100
AcDbText
  0
LINE
  5
18B
330
17
100
AcDbEntity
  8
A-SECT-DATM
100
AcDbLine
 10
13.05
 20
8.3
 30
0.0
 11
13.05
 21
9.425
 31
0.0
  0
LINE
  5
18C
330
17
100
AcDbEntity
  8
A-SECT-DATM
100
AcDbLine
 10
13.01875
 20
8.3
 30
0.0
 11
13.08125
 21
8.3
 31
0.0
  0
LINE
  5
18D
330
17
100
AcDbEntity
  8
A-SECT-DATM
100
AcDbLine
 10
13.01875
 20
9.425
 30
0.0
 11
13.08125
 21
9.425
 31
0.0
  0
TEXT
  5
18E
330
17
100
AcDbEntity
  8
A-SECT-DATM
100
AcDbText
 10
13.1125
 20
8.9875
 30
0.0
 40
0.044000000000000004
  1
36' TO U/S STRUCTURE (ASSUMED)
  7
KS-BOLD
 11
13.1125
 21
8.9875
 31
0.0
100
AcDbText
  0
TEXT
  5
18F
330
17
100
AcDbEntity
  8
A-SECT-DATM
100
AcDbText
 10
13.1125
 20
8.90625
 30
0.0
 40
0.041999999999999996
  1
≥ 25' CLEAR REQUIRED (CITED, R-019)
  7
KS-REG
 11
13.1125
 21
8.90625
 31
0.0
100
AcDbText
  0
TEXT
  5
190
330
17
100
AcDbEntity
  8
A-SECT-IDEN
100
AcDbText
 10
9.846875
 20
8.1875
 30
0.0
 40
0.06
  1
W
  7
KS-BOLD
 72
1
 11
9.846875
 21
8.1875
 31
0.0
100
AcDbText
  0
TEXT
  5
191
330
17
100
AcDbEntity
  8
A-SECT-IDEN
100
AcDbText
 10
16.378125
 20
8.1875
 30
0.0
 40
0.06
  1
E
  7
KS-BOLD
 72
1
 11
16.378125
 21
8.1875
 31
0.0
100
AcDbText
  0
LINE
  5
192
330
17
100
AcDbEntity
  8
A-SECT-DATM
100
AcDbLine
 10
9.790000000000001
 20
8.3
 30
0.0
 11
9.770000000000001
 21
8.3
 31
0.0
  0
TEXT
  5
193
330
17
100
AcDbEntity
  8
A-SECT-DATM
100
AcDbText
 10
9.760000000000002
 20
8.278
 30
0.0
 40
0.044000000000000004
  1
0'
  7
KS-REG
 72
2
 11
9.760000000000002
 21
8.278
 31
0.0
100
AcDbText
  0
LINE
  5
194
330
17
100
AcDbEntity
  8
A-SECT-DATM
100
AcDbLine
 10
9.790000000000001
 20
8.76875
 30
0.0
 11
9.770000000000001
 21
8.76875
 31
0.0
  0
TEXT
  5
195
330
17
100
AcDbEntity
  8
A-SECT-DATM
100
AcDbText
 10
9.760000000000002
 20
8.74675
 30
0.0
 40
0.044000000000000004
  1
15'
  7
KS-REG
 72
2
 11
9.760000000000002
 21
8.74675
 31
0.0
100
AcDbText
  0
LINE
  5
196
330
17
100
AcDbEntity
  8
A-SECT-DATM
100
AcDbLine
 10
9.790000000000001
 20
9.2375
 30
0.0
 11
9.770000000000001
 21
9.2375
 31
0.0
  0
TEXT
  5
197
330
17
100
AcDbEntity
  8
A-SECT-DATM
100
AcDbText
 10
9.760000000000002
 20
9.2155
 30
0.0
 40
0.044000000000000004
  1
30'
  7
KS-REG
 72
2
 11
9.760000000000002
 21
9.2155
 31
0.0
100
AcDbText
  0
LINE
  5
198
330
17
100
AcDbEntity
  8
A-SECT-DATM
100
AcDbLine
 10
9.790000000000001
 20
9.425
 30
0.0
 11
9.770000000000001
 21
9.425
 31
0.0
  0
TEXT
  5
199
330
17
100
AcDbEntity
  8
A-SECT-DATM
100
AcDbText
 10
9.760000000000002
 20
9.403
 30
0.0
 40
0.044000000000000004
  1
36'
  7
KS-REG
 72
2
 11
9.760000000000002
 21
9.403
 31
0.0
100
AcDbText
  0
LINE
  5
19A
330
17
100
AcDbEntity
  8
A-SECT-DATM
100
AcDbLine
 10
9.790000000000001
 20
9.6125
 30
0.0
 11
9.770000000000001
 21
9.6125
 31
0.0
  0
TEXT
  5
19B
330
17
100
AcDbEntity
  8
A-SECT-DATM
100
AcDbText
 10
9.760000000000002
 20
9.5905
 30
0.0
 40
0.044000000000000004
  1
42'
  7
KS-REG
 72
2
 11
9.760000000000002
 21
9.5905
 31
0.0
100
AcDbText
  0
TEXT
  5
19C
330
17
100
AcDbEntity
  8
A-ANNO-TEXT
100
AcDbText
 10
10.0
 20
7.94
 30
0.0
 40
0.072
  1
2  SECTION B-B (EAST-WEST) — looking north
  7
KS-BOLD
 11
10.0
 21
7.94
 31
0.0
100
AcDbText
  0
LINE
  5
19D
330
17
100
AcDbEntity
  8
A-ANNO-TEXT
100
AcDbLine
 10
10.0
 20
7.890000000000001
 30
0.0
 11
14.4
 21
7.890000000000001
 31
0.0
  0
TEXT
  5
19E
330
17
100
AcDbEntity
  8
A-ANNO-TEXT
100
AcDbText
 10
10.0
 20
7.7700000000000005
 30
0.0
 40
0.054000000000000006
  1
1/32" = 1'-0"  ·  y = 150 (see key plan)
  7
KS-REG
 11
10.0
 21
7.7700000000000005
 31
0.0
100
AcDbText
  0
HATCH
  5
19F
330
17
100
AcDbEntity
  8
A-SECT-FILL
 62
7
420
15266040
100
AcDbHatch
 10
0.0
 20
0.0
 30
0.0
210
0.0
220
0.0
230
1.0
  2
SOLID
 70
1
 71
0
 91
1
 92
3
 72
0
 73
1
 93
4
 10
1.45
 20
2.75
 10
6.137485351608277
 20
2.75
 10
6.137485351608277
 20
6.1249894531579585
 10
1.45
 20
6.1249894531579585
 97
0
 75
0
 76
1
 98
0
  0
HATCH
  5
1A0
330
17
100
AcDbEntity
  8
A-SECT-FILL
 62
7
420
15789284
100
AcDbHatch
 10
0.0
 20
0.0
 30
0.0
210
0.0
220
0.0
230
1.0
  2
SOLID
 70
1
 71
0
 91
1
 92
3
 72
0
 73
1
 93
5
 10
4.074991796900634
 20
2.75
 10
6.699983593801269
 20
2.75
 10
6.699983593801269
 20
4.062495898450317
 10
5.481237402383117
 20
4.062495898450317
 10
4.074991796900634
 20
3.5156226074293517
 97
0
 75
0
 76
1
 98
0
  0
HATCH
  5
1A1
330
17
100
AcDbEntity
  8
A-SECT-FILL
 62
7
420
15789284
100
AcDbHatch
 10
0.0
 20
0.0
 30
0.0
210
0.0
220
0.0
230
1.0
  2
SOLID
 70
1
 71
0
 91
1
 92
3
 72
0
 73
1
 93
4
 10
6.137485351608277
 20
4.156245605482483
 10
6.699983593801269
 20
4.156245605482483
 10
6.699983593801269
 20
5.4687415039328
 10
6.137485351608277
 20
5.4687415039328
 97
0
 75
0
 76
1
 98
0
  0
HATCH
  5
1A2
330
17
100
AcDbEntity
  8
A-SECT-CUTL
 62
7
420
14268286
100
AcDbHatch
 10
0.0
 20
0.0
 30
0.0
210
0.0
220
0.0
230
1.0
  2
SOLID
 70
1
 71
0
 91
1
 92
3
 72
0
 73
1
 93
4
 10
1.45
 20
2.6937501757807008
 10
2.9499953125146483
 20
2.6937501757807008
 10
2.9499953125146483
 20
2.75
 10
1.45
 20
2.75
 97
0
 75
0
 76
1
 98
0
  0
LWPOLYLINE
  5
1A3
330
17
100
AcDbEntity
  8
A-SECT-CUTL
100
AcDbPolyline
 90
4
 70
1
 10
1.45
 20
2.6937501757807008
 10
2.9499953125146483
 20
2.6937501757807008
 10
2.9499953125146483
 20
2.75
 10
1.45
 20
2.75
  0
HATCH
  5
1A4
330
17
100
AcDbEntity
  8
A-SECT-CUTL
 62
7
420
14191242
100
AcDbHatch
 10
0.0
 20
0.0
 30
0.0
210
0.0
220
0.0
230
1.0
  2
SOLID
 70
1
 71
0
 91
1
 92
3
 72
0
 73
1
 93
14
 10
2.9499953125146483
 20
2.75
 10
2.9499953125146483
 20
2.764062456054825
 10
3.1374947265789794
 20
2.764062456054825
 10
3.1374947265789794
 20
2.854882484742235
 10
3.3249941406433106
 20
2.854882484742235
 10
3.3249941406433106
 20
2.9457025134296453
 10
3.5124935547076417
 20
2.9457025134296453
 10
3.5124935547076417
 20
3.036522542117056
 10
3.699992968771973
 20
3.036522542117056
 10
3.699992968771973
 20
3.1273425708044664
 10
3.887492382836304
 20
3.1273425708044664
 10
3.887492382836304
 20
3.2181625994918766
 10
4.074991796900634
 20
3.2181625994918766
 10
4.074991796900634
 20
2.75
 97
0
 75
0
 76
1
 98
0
  0
LWPOLYLINE
  5
1A5
330
17
100
AcDbEntity
  8
A-SECT-CUTL
100
AcDbPolyline
 90
14
 70
1
 10
2.9499953125146483
 20
2.75
 10
2.9499953125146483
 20
2.764062456054825
 10
3.1374947265789794
 20
2.764062456054825
 10
3.1374947265789794
 20
2.854882484742235
 10
3.3249941406433106
 20
2.854882484742235
 10
3.3249941406433106
 20
2.9457025134296453
 10
3.5124935547076417
 20
2.9457025134296453
 10
3.5124935547076417
 20
3.036522542117056
 10
3.699992968771973
 20
3.036522542117056
 10
3.699992968771973
 20
3.1273425708044664
 10
3.887492382836304
 20
3.1273425708044664
 10
3.887492382836304
 20
3.2181625994918766
 10
4.074991796900634
 20
3.2181625994918766
 10
4.074991796900634
 20
2.75
  0
LINE
  5
1A6
330
17
100
AcDbEntity
  8
A-SECT-FILL
100
AcDbLine
 10
3.05311999025003
 20
2.764062456054825
 30
0.0
 11
3.05311999025003
 21
2.881249589845032
 31
0.0
  0
LINE
  5
1A7
330
17
100
AcDbEntity
  8
A-SECT-FILL
100
AcDbLine
 10
3.240619404314361
 20
2.854882484742235
 30
0.0
 11
3.240619404314361
 21
2.972069618532442
 31
0.0
  0
LINE
  5
1A8
330
17
100
AcDbEntity
  8
A-SECT-FILL
100
AcDbLine
 10
3.428118818378692
 20
2.9457025134296453
 30
0.0
 11
3.428118818378692
 21
3.0628896472198526
 31
0.0
  0
LINE
  5
1A9
330
17
100
AcDbEntity
  8
A-SECT-FILL
100
AcDbLine
 10
3.6156182324430226
 20
3.036522542117056
 30
0.0
 11
3.6156182324430226
 21
3.1537096759072627
 31
0.0
  0
LINE
  5
1AA
330
17
100
AcDbEntity
  8
A-SECT-FILL
100
AcDbLine
 10
3.8031176465073537
 20
3.1273425708044664
 30
0.0
 11
3.8031176465073537
 21
3.2445297045946733
 31
0.0
  0
LINE
  5
1AB
330
17
100
AcDbEntity
  8
A-SECT-FILL
100
AcDbLine
 10
3.990617060571685
 20
3.2181625994918766
 30
0.0
 11
3.990617060571685
 21
3.3353497332820834
 31
0.0
  0
HATCH
  5
1AC
330
17
100
AcDbEntity
  8
A-SECT-CUTL
 62
7
420
10990531
100
AcDbHatch
 10
0.0
 20
0.0
 30
0.0
210
0.0
220
0.0
230
1.0
  2
SOLID
 70
1
 71
0
 91
1
 92
3
 72
0
 73
1
 93
13
 10
4.074991796900634
 20
3.6093723144615173
 10
4.356240917997131
 20
3.6093723144615173
 10
4.356240917997131
 20
3.71874697266571
 10
4.637490039093628
 20
3.71874697266571
 10
4.637490039093628
 20
3.8281216308699033
 10
4.918739160190125
 20
3.8281216308699033
 10
4.918739160190125
 20
3.9374962890740965
 10
5.199988281286621
 20
3.9374962890740965
 10
5.199988281286621
 20
4.04687094727829
 10
5.481237402383117
 20
4.04687094727829
 10
5.481237402383117
 20
4.156245605482483
 10
5.481237402383117
 20
4.062495898450317
 10
4.074991796900634
 20
3.5156226074293517
 97
0
 75
0
 76
1
 98
0
  0
LWPOLYLINE
  5
1AD
330
17
100
AcDbEntity
  8
A-SECT-CUTL
100
AcDbPolyline
 90
13
 70
1
 10
4.074991796900634
 20
3.6093723144615173
 10
4.356240917997131
 20
3.6093723144615173
 10
4.356240917997131
 20
3.71874697266571
 10
4.637490039093628
 20
3.71874697266571
 10
4.637490039093628
 20
3.8281216308699033
 10
4.918739160190125
 20
3.8281216308699033
 10
4.918739160190125
 20
3.9374962890740965
 10
5.199988281286621
 20
3.9374962890740965
 10
5.199988281286621
 20
4.04687094727829
 10
5.481237402383117
 20
4.04687094727829
 10
5.481237402383117
 20
4.156245605482483
 10
5.481237402383117
 20
4.062495898450317
 10
4.074991796900634
 20
3.5156226074293517
  0
LINE
  5
1AE
330
17
100
AcDbEntity
  8
A-SECT-FILL
100
AcDbLine
 10
4.229678813503708
 20
3.6093723144615173
 30
0.0
 11
4.229678813503708
 21
3.7406219043065487
 31
0.0
  0
LINE
  5
1AF
330
17
100
AcDbEntity
  8
A-SECT-FILL
100
AcDbLine
 10
4.510927934600205
 20
3.71874697266571
 30
0.0
 11
4.510927934600205
 21
3.849996562510742
 31
0.0
  0
LINE
  5
1B0
330
17
100
AcDbEntity
  8
A-SECT-FILL
100
AcDbLine
 10
4.792177055696701
 20
3.8281216308699033
 30
0.0
 11
4.792177055696701
 21
3.959371220714935
 31
0.0
  0
LINE
  5
1B1
330
17
100
AcDbEntity
  8
A-SECT-FILL
100
AcDbLine
 10
5.073426176793198
 20
3.9374962890740965
 30
0.0
 11
5.073426176793198
 21
4.068745878919128
 31
0.0
  0
LINE
  5
1B2
330
17
100
AcDbEntity
  8
A-SECT-FILL
100
AcDbLine
 10
5.3546752978896945
 20
4.04687094727829
 30
0.0
 11
5.3546752978896945
 21
4.178120537123322
 31
0.0
  0
LINE
  5
1B3
330
17
100
AcDbEntity
  8
A-SECT-GUAR
100
AcDbLine
 10
4.074991796900634
 20
3.6093723144615173
 30
0.0
 11
4.074991796900634
 21
3.812496679697876
 31
0.0
  0
HATCH
  5
1B4
330
17
100
AcDbEntity
  8
A-SECT-CUTL
 62
7
420
3947580
100
AcDbHatch
 10
0.0
 20
0.0
 30
0.0
210
0.0
220
0.0
230
1.0
  2
SOLID
 70
1
 71
0
 91
1
 92
3
 72
0
 73
1
 93
4
 10
4.074991796900634
 20
2.75
 10
4.1687415039328
 20
2.75
 10
4.1687415039328
 20
3.5156226074293517
 10
4.074991796900634
 20
3.5156226074293517
 97
0
 75
0
 76
1
 98
0
  0
HATCH
  5
1B5
330
17
100
AcDbEntity
  8
A-SECT-CUTL
 62
7
420
3947580
100
AcDbHatch
 10
0.0
 20
0.0
 30
0.0
210
0.0
220
0.0
230
1.0
  2
SOLID
 70
1
 71
0
 91
1
 92
3
 72
0
 73
1
 93
4
 10
5.481237402383117
 20
4.062495898450317
 10
6.699983593801269
 20
4.062495898450317
 10
6.699983593801269
 20
4.156245605482483
 10
5.481237402383117
 20
4.156245605482483
 97
0
 75
0
 76
1
 98
0
  0
HATCH
  5
1B6
330
17
100
AcDbEntity
  8
A-SECT-FILL
 62
7
420
13134138
100
AcDbHatch
 10
0.0
 20
0.0
 30
0.0
210
0.0
220
0.0
230
1.0
  2
SOLID
 70
1
 71
0
 91
1
 92
3
 72
0
 73
1
 93
4
 10
5.481237402383117
 20
4.156245605482483
 10
6.137485351608277
 20
4.156245605482483
 10
6.137485351608277
 20
4.1890580029437405
 10
5.481237402383117
 20
4.1890580029437405
 97
0
 75
0
 76
1
 98
0
  0
HATCH
  5
1B7
330
17
100
AcDbEntity
  8
A-SECT-CUTL
 62
7
420
3947580
100
AcDbHatch
 10
0.0
 20
0.0
 30
0.0
210
0.0
220
0.0
230
1.0
  2
SOLID
 70
1
 71
0
 91
1
 92
3
 72
0
 73
1
 93
4
 10
6.137485351608277
 20
5.4687415039328
 10
6.699983593801269
 20
5.4687415039328
 10
6.699983593801269
 20
5.562491210964966
 10
6.137485351608277
 20
5.562491210964966
 97
0
 75
0
 76
1
 98
0
  0
HATCH
  5
1B8
330
17
100
AcDbEntity
  8
A-SECT-FILL
 62
7
420
13619151
100
AcDbHatch
 10
0.0
 20
0.0
 30
0.0
210
0.0
220
0.0
230
1.0
  2
SOLID
 70
1
 71
0
 91
1
 92
3
 72
0
 73
1
 93
4
 10
1.45
 20
6.1249894531579585
 10
6.137485351608277
 20
6.1249894531579585
 10
6.137485351608277
 20
6.687487695350952
 10
1.45
 20
6.687487695350952
 97
0
 75
0
 76
1
 98
0
  0
LINE
  5
1B9
330
17
100
AcDbEntity
  8
A-SECT-FILL
100
AcDbLine
 10
1.45
 20
6.1249894531579585
 30
0.0
 11
1.45
 21
6.1249894531579585
 31
0.0
  0
LINE
  5
1BA
330
17
100
AcDbEntity
  8
A-SECT-FILL
100
AcDbLine
 10
1.45
 20
6.1249894531579585
 30
0.0
 11
1.7312491210964964
 21
6.593737988318786
 31
0.0
  0
LINE
  5
1BB
330
17
100
AcDbEntity
  8
A-SECT-FILL
100
AcDbLine
 10
1.7312491210964964
 20
6.593737988318786
 30
0.0
 11
2.012498242192993
 21
6.1249894531579585
 31
0.0
  0
LINE
  5
1BC
330
17
100
AcDbEntity
  8
A-SECT-FILL
100
AcDbLine
 10
2.012498242192993
 20
6.1249894531579585
 30
0.0
 11
2.29374736328949
 21
6.593737988318786
 31
0.0
  0
LINE
  5
1BD
330
17
100
AcDbEntity
  8
A-SECT-FILL
100
AcDbLine
 10
2.29374736328949
 20
6.593737988318786
 30
0.0
 11
2.574996484385986
 21
6.1249894531579585
 31
0.0
  0
LINE
  5
1BE
330
17
100
AcDbEntity
  8
A-SECT-FILL
100
AcDbLine
 10
2.574996484385986
 20
6.1249894531579585
 30
0.0
 11
2.8562456054824827
 21
6.593737988318786
 31
0.0
  0
LINE
  5
1BF
330
17
100
AcDbEntity
  8
A-SECT-FILL
100
AcDbLine
 10
2.8562456054824827
 20
6.593737988318786
 30
0.0
 11
3.1374947265789794
 21
6.1249894531579585
 31
0.0
  0
LINE
  5
1C0
330
17
100
AcDbEntity
  8
A-SECT-FILL
100
AcDbLine
 10
3.1374947265789794
 20
6.1249894531579585
 30
0.0
 11
3.4187438476754757
 21
6.593737988318786
 31
0.0
  0
LINE
  5
1C1
330
17
100
AcDbEntity
  8
A-SECT-FILL
100
AcDbLine
 10
3.4187438476754757
 20
6.593737988318786
 30
0.0
 11
3.699992968771973
 21
6.1249894531579585
 31
0.0
  0
LINE
  5
1C2
330
17
100
AcDbEntity
  8
A-SECT-FILL
100
AcDbLine
 10
3.699992968771973
 20
6.1249894531579585
 30
0.0
 11
3.981242089868469
 21
6.593737988318786
 31
0.0
  0
LINE
  5
1C3
330
17
100
AcDbEntity
  8
A-SECT-FILL
100
AcDbLine
 10
3.981242089868469
 20
6.593737988318786
 30
0.0
 11
4.262491210964965
 21
6.1249894531579585
 31
0.0
  0
LINE
  5
1C4
330
17
100
AcDbEntity
  8
A-SECT-FILL
100
AcDbLine
 10
4.262491210964965
 20
6.1249894531579585
 30
0.0
 11
4.543740332061462
 21
6.593737988318786
 31
0.0
  0
LINE
  5
1C5
330
17
100
AcDbEntity
  8
A-SECT-FILL
100
AcDbLine
 10
4.543740332061462
 20
6.593737988318786
 30
0.0
 11
4.824989453157959
 21
6.1249894531579585
 31
0.0
  0
LINE
  5
1C6
330
17
100
AcDbEntity
  8
A-SECT-FILL
100
AcDbLine
 10
4.824989453157959
 20
6.1249894531579585
 30
0.0
 11
5.106238574254455
 21
6.593737988318786
 31
0.0
  0
LINE
  5
1C7
330
17
100
AcDbEntity
  8
A-SECT-FILL
100
AcDbLine
 10
5.106238574254455
 20
6.593737988318786
 30
0.0
 11
5.387487695350952
 21
6.1249894531579585
 31
0.0
  0
LINE
  5
1C8
330
17
100
AcDbEntity
  8
A-SECT-FILL
100
AcDbLine
 10
5.387487695350952
 20
6.1249894531579585
 30
0.0
 11
5.668736816447448
 21
6.593737988318786
 31
0.0
  0
LINE
  5
1C9
330
17
100
AcDbEntity
  8
A-SECT-FILL
100
AcDbLine
 10
5.668736816447448
 20
6.593737988318786
 30
0.0
 11
5.9499859375439454
 21
6.1249894531579585
 31
0.0
  0
HATCH
  5
1CA
330
17
100
AcDbEntity
  8
A-SECT-CUTL
 62
7
420
3947580
100
AcDbHatch
 10
0.0
 20
0.0
 30
0.0
210
0.0
220
0.0
230
1.0
  2
SOLID
 70
1
 71
0
 91
1
 92
3
 72
0
 73
1
 93
4
 10
1.45
 20
6.593737988318786
 10
6.137485351608277
 20
6.593737988318786
 10
6.137485351608277
 20
6.687487695350952
 10
1.45
 20
6.687487695350952
 97
0
 75
0
 76
1
 98
0
  0
LINE
  5
1CB
330
17
100
AcDbEntity
  8
A-SECT-CUTL
100
AcDbLine
 10
1.45
 20
6.1249894531579585
 30
0.0
 11
6.137485351608277
 21
6.1249894531579585
 31
0.0
  0
HATCH
  5
1CC
330
17
100
AcDbEntity
  8
A-SECT-CUTL
 62
7
420
3947580
100
AcDbHatch
 10
0.0
 20
0.0
 30
0.0
210
0.0
220
0.0
230
1.0
  2
SOLID
 70
1
 71
0
 91
1
 92
3
 72
0
 73
1
 93
4
 10
6.137485351608277
 20
5.4687415039328
 10
6.231235058640442
 20
5.4687415039328
 10
6.231235058640442
 20
6.687487695350952
 10
6.137485351608277
 20
6.687487695350952
 97
0
 75
0
 76
1
 98
0
  0
HATCH
  5
1CD
330
17
100
AcDbEntity
  8
A-SECT-CUTL
 62
7
420
3947580
100
AcDbHatch
 10
0.0
 20
0.0
 30
0.0
210
0.0
220
0.0
230
1.0
  2
SOLID
 70
1
 71
0
 91
1
 92
3
 72
0
 73
1
 93
4
 10
6.699983593801269
 20
2.75
 10
6.793733300833435
 20
2.75
 10
6.793733300833435
 20
5.562491210964966
 10
6.699983593801269
 20
5.562491210964966
 97
0
 75
0
 76
1
 98
0
  0
HATCH
  5
1CE
330
17
100
AcDbEntity
  8
A-SECT-CUTL
 62
7
420
3947580
100
AcDbHatch
 10
0.0
 20
0.0
 30
0.0
210
0.0
220
0.0
230
1.0
  2
SOLID
 70
1
 71
0
 91
1
 92
3
 72
0
 73
1
 93
4
 10
4.074991796900634
 20
2.75
 10
4.1687415039328
 20
2.75
 10
4.1687415039328
 20
3.5156226074293517
 10
4.074991796900634
 20
3.5156226074293517
 97
0
 75
0
 76
1
 98
0
  0
LINE
  5
1CF
330
17
100
AcDbEntity
  8
A-SECT-CUTL
100
AcDbLine
 10
6.699983593801269
 20
2.75
 30
0.0
 11
6.8874830078656
 21
2.75
 31
0.0
  0
LINE
  5
1D0
330
17
100
AcDbEntity
  8
A-SECT-CUTL
100
AcDbLine
 10
1.45
 20
2.6562502929678344
 30
0.0
 11
6.699983593801269
 21
2.6562502929678344
 31
0.0
  0
LINE
  5
1D1
330
17
100
AcDbEntity
  8
A-SECT-HIDN
100
AcDbLine
 10
5.481237402383117
 20
2.75
 30
0.0
 11
5.481237402383117
 21
2.8
 31
0.0
  0
LINE
  5
1D2
330
17
100
AcDbEntity
  8
A-SECT-HIDN
100
AcDbLine
 10
5.481237402383117
 20
2.835
 30
0.0
 11
5.481237402383117
 21
2.885
 31
0.0
  0
LINE
  5
1D3
330
17
100
AcDbEntity
  8
A-SECT-HIDN
100
AcDbLine
 10
5.481237402383117
 20
2.92
 30
0.0
 11
5.481237402383117
 21
2.97
 31
0.0
  0
LINE
  5
1D4
330
17
100
AcDbEntity
  8
A-SECT-HIDN
100
AcDbLine
 10
5.481237402383117
 20
3.005
 30
0.0
 11
5.481237402383117
 21
3.055
 31
0.0
  0
LINE
  5
1D5
330
17
100
AcDbEntity
  8
A-SECT-HIDN
100
AcDbLine
 10
5.481237402383117
 20
3.09
 30
0.0
 11
5.481237402383117
 21
3.14
 31
0.0
  0
LINE
  5
1D6
330
17
100
AcDbEntity
  8
A-SECT-HIDN
100
AcDbLine
 10
5.481237402383117
 20
3.175
 30
0.0
 11
5.481237402383117
 21
3.225
 31
0.0
  0
LINE
  5
1D7
330
17
100
AcDbEntity
  8
A-SECT-HIDN
100
AcDbLine
 10
5.481237402383117
 20
3.26
 30
0.0
 11
5.481237402383117
 21
3.31
 31
0.0
  0
LINE
  5
1D8
330
17
100
AcDbEntity
  8
A-SECT-HIDN
100
AcDbLine
 10
5.481237402383117
 20
3.3449999999999998
 30
0.0
 11
5.481237402383117
 21
3.395
 31
0.0
  0
LINE
  5
1D9
330
17
100
AcDbEntity
  8
A-SECT-HIDN
100
AcDbLine
 10
5.481237402383117
 20
3.43
 30
0.0
 11
5.481237402383117
 21
3.48
 31
0.0
  0
LINE
  5
1DA
330
17
100
AcDbEntity
  8
A-SECT-HIDN
100
AcDbLine
 10
5.481237402383117
 20
3.515
 30
0.0
 11
5.481237402383117
 21
3.5650000000000004
 31
0.0
  0
LINE
  5
1DB
330
17
100
AcDbEntity
  8
A-SECT-HIDN
100
AcDbLine
 10
5.481237402383117
 20
3.6
 30
0.0
 11
5.481237402383117
 21
3.6500000000000004
 31
0.0
  0
LINE
  5
1DC
330
17
100
AcDbEntity
  8
A-SECT-HIDN
100
AcDbLine
 10
5.481237402383117
 20
3.6850000000000005
 30
0.0
 11
5.481237402383117
 21
3.7350000000000003
 31
0.0
  0
LINE
  5
1DD
330
17
100
AcDbEntity
  8
A-SECT-HIDN
100
AcDbLine
 10
5.481237402383117
 20
3.7700000000000005
 30
0.0
 11
5.481237402383117
 21
3.8200000000000003
 31
0.0
  0
LINE
  5
1DE
330
17
100
AcDbEntity
  8
A-SECT-HIDN
100
AcDbLine
 10
5.481237402383117
 20
3.8550000000000004
 30
0.0
 11
5.481237402383117
 21
3.9050000000000002
 31
0.0
  0
LINE
  5
1DF
330
17
100
AcDbEntity
  8
A-SECT-HIDN
100
AcDbLine
 10
5.481237402383117
 20
3.9400000000000004
 30
0.0
 11
5.481237402383117
 21
3.99
 31
0.0
  0
LINE
  5
1E0
330
17
100
AcDbEntity
  8
A-SECT-HIDN
100
AcDbLine
 10
5.481237402383117
 20
4.025
 30
0.0
 11
5.481237402383117
 21
4.062495898450317
 31
0.0
  0
LINE
  5
1E1
330
17
100
AcDbEntity
  8
A-SECT-DATM
100
AcDbLine
 10
1.4
 20
2.75
 30
0.0
 11
1.42
 21
2.75
 31
0.0
  0
TEXT
  5
1E2
330
17
100
AcDbEntity
  8
A-SECT-DATM
100
AcDbText
 10
1.3699999999999999
 20
2.728
 30
0.0
 40
0.04599999999999999
  1
L1 FF 0'
  7
KS-REG
 72
2
 11
1.3699999999999999
 21
2.728
 31
0.0
100
AcDbText
  0
LINE
  5
1E3
330
17
100
AcDbEntity
  8
A-SECT-DATM
100
AcDbLine
 10
1.4
 20
4.156245605482483
 30
0.0
 11
1.42
 21
4.156245605482483
 31
0.0
  0
TEXT
  5
1E4
330
17
100
AcDbEntity
  8
A-SECT-DATM
100
AcDbText
 10
1.3699999999999999
 20
4.134245605482483
 30
0.0
 40
0.04599999999999999
  1
L2 15' A
  7
KS-REG
 72
2
 11
1.3699999999999999
 21
4.134245605482483
 31
0.0
100
AcDbText
  0
LINE
  5
1E5
330
17
100
AcDbEntity
  8
A-SECT-DATM
100
AcDbLine
 10
1.4
 20
5.562491210964966
 30
0.0
 11
1.42
 21
5.562491210964966
 31
0.0
  0
TEXT
  5
1E6
330
17
100
AcDbEntity
  8
A-SECT-DATM
100
AcDbText
 10
1.3699999999999999
 20
5.540491210964966
 30
0.0
 40
0.04599999999999999
  1
RING 30' A
  7
KS-REG
 72
2
 11
1.3699999999999999
 21
5.540491210964966
 31
0.0
100
AcDbText
  0
LINE
  5
1E7
330
17
100
AcDbEntity
  8
A-SECT-DATM
100
AcDbLine
 10
1.4
 20
6.1249894531579585
 30
0.0
 11
1.42
 21
6.1249894531579585
 31
0.0
  0
TEXT
  5
1E8
330
17
100
AcDbEntity
  8
A-SECT-DATM
100
AcDbText
 10
1.3699999999999999
 20
6.102989453157958
 30
0.0
 40
0.04599999999999999
  1
U/S 36' A
  7
KS-REG
 72
2
 11
1.3699999999999999
 21
6.102989453157958
 31
0.0
100
AcDbText
  0
LINE
  5
1E9
330
17
100
AcDbEntity
  8
A-SECT-DATM
100
AcDbLine
 10
1.4
 20
6.687487695350952
 30
0.0
 11
1.42
 21
6.687487695350952
 31
0.0
  0
TEXT
  5
1EA
330
17
100
AcDbEntity
  8
A-SECT-DATM
100
AcDbText
 10
1.3699999999999999
 20
6.665487695350952
 30
0.0
 40
0.04599999999999999
  1
ROOF 42' A
  7
KS-REG
 72
2
 11
1.3699999999999999
 21
6.665487695350952
 31
0.0
100
AcDbText
  0
TEXT
  5
1EB
330
17
100
AcDbEntity
  8
A-SECT-IDEN
100
AcDbText
 10
1.5437497070321655
 20
3.9312463086052856
 30
0.0
 40
0.052000000000000005
  1
TELESCOPIC LOWER TIER (extended)
  7
KS-BOLD
 11
1.5437497070321655
 21
3.9312463086052856
 31
0.0
100
AcDbText
  0
TEXT
  5
1EC
330
17
100
AcDbEntity
  8
A-SECT-IDEN
100
AcDbText
 10
1.5437497070321655
 20
3.7999967187602537
 30
0.0
 40
0.048
  1
6 rows × 24" = 12' band (R-008 / plan)
  7
KS-REG
 11
1.5437497070321655
 21
3.7999967187602537
 31
0.0
100
AcDbText
  0
TEXT
  5
1ED
330
17
100
AcDbEntity
  8
A-SECT-IDEN
100
AcDbText
 10
1.5437497070321655
 20
3.6687471289152223
 30
0.0
 40
0.048
  1
rise 11⅝"/row — Hussey MAXAM option (CITED);
  7
KS-REG
 11
1.5437497070321655
 21
3.6687471289152223
 31
0.0
100
AcDbText
  0
TEXT
  5
1EE
330
17
100
AcDbEntity
  8
A-SECT-IDEN
100
AcDbText
 10
1.5437497070321655
 20
3.5374975390701904
 30
0.0
 40
0.048
  1
choice of 11⅝" ASSUMED
  7
KS-REG
 11
1.5437497070321655
 21
3.5374975390701904
 31
0.0
100
AcDbText
  0
LINE
  5
1EF
330
17
100
AcDbEntity
  8
A-SECT-IDEN
100
AcDbLine
 10
2.29374736328949
 20
3.490622685554108
 30
0.0
 11
3.3249941406433106
 21
2.9749992968771974
 31
0.0
  0
LINE
  5
1F0
330
17
100
AcDbEntity
  8
A-SECT-DATM
100
AcDbLine
 10
3.9312420898684692
 20
3.336912228399286
 30
0.0
 11
4.074991796900634
 21
3.336912228399286
 31
0.0
  0
TEXT
  5
1F1
330
17
100
AcDbEntity
  8
A-SECT-DATM
100
AcDbText
 10
1.5437497070321655
 20
3.3218732128962096
 30
0.0
 40
0.044000000000000004
  1
top seat 6'-3⅛" (Hussey, 6 rows @ 11⅝")
  7
KS-REG
 11
1.5437497070321655
 21
3.3218732128962096
 31
0.0
100
AcDbText
  0
LINE
  5
1F2
330
17
100
AcDbEntity
  8
A-SECT-IDEN
100
AcDbLine
 10
3.062494960953246
 20
3.3499981250058593
 30
0.0
 11
3.9624921484620366
 21
3.336912228399286
 31
0.0
  0
LINE
  5
1F3
330
17
100
AcDbEntity
  8
A-SECT-DATM
100
AcDbLine
 10
3.7468678222880554
 20
2.665625263671051
 30
0.0
 11
4.074991796900634
 21
2.665625263671051
 31
0.0
  0
LINE
  5
1F4
330
17
100
AcDbEntity
  8
A-SECT-DATM
100
AcDbLine
 10
3.7468678222880554
 20
2.6356252636710513
 30
0.0
 11
3.7468678222880554
 21
2.695625263671051
 31
0.0
  0
LINE
  5
1F5
330
17
100
AcDbEntity
  8
A-SECT-DATM
100
AcDbLine
 10
4.074991796900634
 20
2.6356252636710513
 30
0.0
 11
4.074991796900634
 21
2.695625263671051
 31
0.0
  0
TEXT
  5
1F6
330
17
100
AcDbEntity
  8
A-SECT-DATM
100
AcDbText
 10
3.7187429101784044
 20
2.5343756738260192
 30
0.0
 40
0.044000000000000004
  1
closed 3'-6" (Hussey, 6 rows)
  7
KS-REG
 72
2
 11
3.7187429101784044
 21
2.5343756738260192
 31
0.0
100
AcDbText
  0
TEXT
  5
1F7
330
17
100
AcDbEntity
  8
A-SECT-IDEN
100
AcDbText
 10
1.5437497070321655
 20
5.14061752932022
 30
0.0
 40
0.052000000000000005
  1
FIXED UPPER TIER (ASSUMED rake)
  7
KS-BOLD
 11
1.5437497070321655
 21
5.14061752932022
 31
0.0
100
AcDbText
  0
TEXT
  5
1F8
330
17
100
AcDbEntity
  8
A-SECT-IDEN
100
AcDbText
 10
1.5437497070321655
 20
5.009367939475189
 30
0.0
 40
0.048
  1
5 rows × 36" = 15' band (plan)
  7
KS-REG
 11
1.5437497070321655
 21
5.009367939475189
 31
0.0
100
AcDbText
  0
TEXT
  5
1F9
330
17
100
AcDbEntity
  8
A-SECT-IDEN
100
AcDbText
 10
1.5437497070321655
 20
4.8781183496301574
 30
0.0
 40
0.048
  1
14"/row = 2 aisle risers × 7", 18" treads
  7
KS-REG
 11
1.5437497070321655
 21
4.8781183496301574
 31
0.0
100
AcDbText
  0
TEXT
  5
1FA
330
17
100
AcDbEntity
  8
A-SECT-IDEN
100
AcDbText
 10
1.5437497070321655
 20
4.746868759785126
 30
0.0
 40
0.048
  1
(IBC 1030.14.2: 4–8" risers, ≥ 11" treads)
  7
KS-REG
 11
1.5437497070321655
 21
4.746868759785126
 31
0.0
100
AcDbText
  0
TEXT
  5
1FB
330
17
100
AcDbEntity
  8
A-SECT-IDEN
100
AcDbText
 10
1.5437497070321655
 20
4.615619169940094
 30
0.0
 40
0.048
  1
steps DOWN from the loop; front row 9.17'
  7
KS-REG
 11
1.5437497070321655
 21
4.615619169940094
 31
0.0
100
AcDbText
  0
LINE
  5
1FC
330
17
100
AcDbEntity
  8
A-SECT-IDEN
100
AcDbLine
 10
2.9499953125146483
 20
4.578119287127228
 30
0.0
 11
4.543740332061462
 21
3.8531215527451477
 31
0.0
  0
TEXT
  5
1FD
330
17
100
AcDbEntity
  8
A-SECT-GUAR
100
AcDbText
 10
4.037491914087767
 20
3.890621435558014
 30
0.0
 40
0.044000000000000004
  1
≥ 26" fascia (1030.17.3)
  7
KS-REG
 72
2
 11
4.037491914087767
 21
3.890621435558014
 31
0.0
100
AcDbText
  0
TEXT
  5
1FE
330
17
100
AcDbEntity
  8
A-SECT-IDEN
100
AcDbText
 10
5.809361376995697
 20
4.662494023456176
 30
0.0
 40
0.05
  1
LOOP 7'
  7
KS-BOLD
 72
1
 11
5.809361376995697
 21
4.662494023456176
 31
0.0
100
AcDbText
  0
TEXT
  5
1FF
330
17
100
AcDbEntity
  8
A-SECT-IDEN
100
AcDbText
 10
5.809361376995697
 20
4.531244433611144
 30
0.0
 40
0.044000000000000004
  1
2 × 42" lanes
  7
KS-REG
 72
1
 11
5.809361376995697
 21
4.531244433611144
 31
0.0
100
AcDbText
  0
TEXT
  5
200
330
17
100
AcDbEntity
  8
A-SECT-IDEN
100
AcDbText
 10
5.809361376995697
 20
4.399994843766113
 30
0.0
 40
0.044000000000000004
  1
top cross aisle
  7
KS-REG
 72
1
 11
5.809361376995697
 21
4.399994843766113
 31
0.0
100
AcDbText
  0
TEXT
  5
201
330
17
100
AcDbEntity
  8
A-SECT-IDEN
100
AcDbText
 10
6.418734472704773
 20
4.999992968771973
 30
0.0
 40
0.041999999999999996
  1
STRETCH
  7
KS-REG
 72
1
 11
6.418734472704773
 21
4.999992968771973
 31
0.0
100
AcDbText
  0
TEXT
  5
202
330
17
100
AcDbEntity
  8
A-SECT-IDEN
100
AcDbText
 10
6.418734472704773
 20
4.887493320333374
 30
0.0
 40
0.041999999999999996
  1
6' (L2)
  7
KS-REG
 72
1
 11
6.418734472704773
 21
4.887493320333374
 31
0.0
100
AcDbText
  0
TEXT
  5
203
330
17
100
AcDbEntity
  8
A-SECT-IDEN
100
AcDbText
 10
4.2531162402617495
 20
3.3124982421929934
 30
0.0
 40
0.044000000000000004
  1
UNDER-TIER (D-049): STORAGE / MECH
  7
KS-BOLD
 11
4.2531162402617495
 21
3.3124982421929934
 31
0.0
100
AcDbText
  0
TEXT
  5
204
330
17
100
AcDbEntity
  8
A-SECT-IDEN
100
AcDbText
 10
4.2531162402617495
 20
3.1999985937543944
 30
0.0
 40
0.041999999999999996
  1
front 9.17' less structure; exits under it
  7
KS-REG
 11
4.2531162402617495
 21
3.1999985937543944
 31
0.0
100
AcDbText
  0
TEXT
  5
205
330
17
100
AcDbEntity
  8
A-SECT-IDEN
100
AcDbText
 10
4.2531162402617495
 20
3.087498945315796
 30
0.0
 40
0.041999999999999996
  1
need ≥ 7'-6" ceiling (1003.2)
  7
KS-REG
 11
4.2531162402617495
 21
3.087498945315796
 31
0.0
100
AcDbText
  0
TEXT
  5
206
330
17
100
AcDbEntity
  8
A-SECT-IDEN
100
AcDbText
 10
5.537487226602416
 20
2.899999531251465
 30
0.0
 40
0.041999999999999996
  1
LOCKER (full ht)
  7
KS-BOLD
 11
5.537487226602416
 21
2.899999531251465
 31
0.0
100
AcDbText
  0
TEXT
  5
207
330
17
100
AcDbEntity
  8
A-SECT-IDEN
100
AcDbText
 10
1.5437497070321655
 20
5.787490507842163
 30
0.0
 40
0.052000000000000005
  1
SIGHT LINES: see P2-A-302 — upper 14"/row FAILS
  7
KS-BOLD
 11
1.5437497070321655
 21
5.787490507842163
 31
0.0
100
AcDbText
  0
TEXT
  5
208
330
17
100
AcDbEntity
  8
A-SECT-IDEN
100
AcDbText
 10
1.5437497070321655
 20
5.656240917997131
 30
0.0
 40
0.04599999999999999
  1
(C < 60 mm); proposed 19"/row, front 7.08' (D-053 OPEN)
  7
KS-REG
 11
1.5437497070321655
 21
5.656240917997131
 31
0.0
100
AcDbText
  0
TEXT
  5
209
330
17
100
AcDbEntity
  8
A-SECT-DATM
100
AcDbText
 10
3.887492382836304
 20
5.937490039093628
 30
0.0
 40
0.044000000000000004
  1
1030.6.2.2 (only if smoke-protected): roof ≥ 15' above
  7
KS-REG
 11
3.887492382836304
 21
5.937490039093628
 31
0.0
100
AcDbText
  0
TEXT
  5
20A
330
17
100
AcDbEntity
  8
A-SECT-DATM
100
AcDbText
 10
3.887492382836304
 20
5.815615419951813
 30
0.0
 40
0.044000000000000004
  1
highest aisle (loop 15') → ≥ 30'; 36' drawn
  7
KS-REG
 11
3.887492382836304
 21
5.815615419951813
 31
0.0
100
AcDbText
  0
TEXT
  5
20B
330
17
100
AcDbEntity
  8
A-ANNO-TEXT
100
AcDbText
 10
1.45
 20
2.2
 30
0.0
 40
0.072
  1
3  NORTH BOWL EDGE (ENLARGED PART OF A-A)
  7
KS-BOLD
 11
1.45
 21
2.2
 31
0.0
100
AcDbText
  0
LINE
  5
20C
330
17
100
AcDbEntity
  8
A-ANNO-TEXT
100
AcDbLine
 10
1.45
 20
2.1500000000000004
 30
0.0
 11
6.3500000000000005
 21
2.1500000000000004
 31
0.0
  0
TEXT
  5
20D
330
17
100
AcDbEntity
  8
A-ANNO-TEXT
100
AcDbText
 10
1.45
 20
2.0300000000000002
 30
0.0
 40
0.054000000000000006
  1
3/32" = 1'-0"  ·  y 196–252 at x = 100
  7
KS-REG
 11
1.45
 21
2.0300000000000002
 31
0.0
100
AcDbText
  0
HATCH
  5
20E
330
17
100
AcDbEntity
  8
A-SECT-CUTL
 62
7
420
3947580
100
AcDbHatch
 10
0.0
 20
0.0
 30
0.0
210
0.0
220
0.0
230
1.0
  2
SOLID
 70
1
 71
0
 91
1
 92
3
 72
0
 73
1
 93
4
 10
6.95
 20
5.125
 10
9.929166666666667
 20
5.125
 10
9.929166666666667
 20
5.25
 10
6.95
 20
5.25
 97
0
 75
0
 76
1
 98
0
  0
HATCH
  5
20F
330
17
100
AcDbEntity
  8
A-SECT-CUTL
 62
7
420
3947580
100
AcDbHatch
 10
0.0
 20
0.0
 30
0.0
210
0.0
220
0.0
230
1.0
  2
SOLID
 70
1
 71
0
 91
1
 92
3
 72
0
 73
1
 93
4
 10
6.95
 20
7.0
 10
7.7
 20
7.0
 10
7.7
 20
7.125
 10
6.95
 20
7.125
 97
0
 75
0
 76
1
 98
0
  0
HATCH
  5
210
330
17
100
AcDbEntity
  8
A-SECT-CUTL
 62
7
420
3947580
100
AcDbHatch
 10
0.0
 20
0.0
 30
0.0
210
0.0
220
0.0
230
1.0
  2
SOLID
 70
1
 71
0
 91
1
 92
3
 72
0
 73
1
 93
4
 10
9.075
 20
6.1120833333333335
 10
9.804166666666667
 20
6.1120833333333335
 10
9.804166666666667
 20
6.187083333333334
 10
9.075
 20
6.187083333333334
 97
0
 75
0
 76
1
 98
0
  0
HATCH
  5
211
330
17
100
AcDbEntity
  8
A-SECT-CUTL
 62
7
420
12500670
100
AcDbHatch
 10
0.0
 20
0.0
 30
0.0
210
0.0
220
0.0
230
1.0
  2
SOLID
 70
1
 71
0
 91
1
 92
3
 72
0
 73
1
 93
28
 10
7.7
 20
5.25
 10
7.7
 20
5.3220833333333335
 10
7.814583333333333
 20
5.3220833333333335
 10
7.814583333333333
 20
5.394166666666667
 10
7.929166666666667
 20
5.394166666666667
 10
7.929166666666667
 20
5.46625
 10
8.043750000000001
 20
5.46625
 10
8.043750000000001
 20
5.538333333333333
 10
8.158333333333333
 20
5.538333333333333
 10
8.158333333333333
 20
5.610416666666667
 10
8.272916666666667
 20
5.610416666666667
 10
8.272916666666667
 20
5.6825
 10
8.3875
 20
5.6825
 10
8.3875
 20
5.754583333333334
 10
8.502083333333333
 20
5.754583333333334
 10
8.502083333333333
 20
5.826666666666666
 10
8.616666666666667
 20
5.826666666666666
 10
8.616666666666667
 20
5.89875
 10
8.73125
 20
5.89875
 10
8.73125
 20
5.970833333333333
 10
8.845833333333333
 20
5.970833333333333
 10
8.845833333333333
 20
6.042916666666667
 10
8.960416666666667
 20
6.042916666666667
 10
8.960416666666667
 20
6.115
 10
9.075
 20
6.115
 10
9.075
 20
6.187083333333333
 10
9.075
 20
6.1120833333333335
 10
7.7250000000000005
 20
5.25
 97
0
 75
0
 76
1
 98
0
  0
LWPOLYLINE
  5
212
330
17
100
AcDbEntity
  8
A-SECT-CUTL
100
AcDbPolyline
 90
28
 70
1
 10
7.7
 20
5.25
 10
7.7
 20
5.3220833333333335
 10
7.814583333333333
 20
5.3220833333333335
 10
7.814583333333333
 20
5.394166666666667
 10
7.929166666666667
 20
5.394166666666667
 10
7.929166666666667
 20
5.46625
 10
8.043750000000001
 20
5.46625
 10
8.043750000000001
 20
5.538333333333333
 10
8.158333333333333
 20
5.538333333333333
 10
8.158333333333333
 20
5.610416666666667
 10
8.272916666666667
 20
5.610416666666667
 10
8.272916666666667
 20
5.6825
 10
8.3875
 20
5.6825
 10
8.3875
 20
5.754583333333334
 10
8.502083333333333
 20
5.754583333333334
 10
8.502083333333333
 20
5.826666666666666
 10
8.616666666666667
 20
5.826666666666666
 10
8.616666666666667
 20
5.89875
 10
8.73125
 20
5.89875
 10
8.73125
 20
5.970833333333333
 10
8.845833333333333
 20
5.970833333333333
 10
8.845833333333333
 20
6.042916666666667
 10
8.960416666666667
 20
6.042916666666667
 10
8.960416666666667
 20
6.115
 10
9.075
 20
6.115
 10
9.075
 20
6.187083333333333
 10
9.075
 20
6.1120833333333335
 10
7.7250000000000005
 20
5.25
  0
LINE
  5
213
330
17
100
AcDbEntity
  8
A-SECT-HIDN
100
AcDbLine
 10
9.075
 20
6.187083333333334
 30
0.0
 11
9.075
 21
6.227083333333334
 31
0.0
  0
LINE
  5
214
330
17
100
AcDbEntity
  8
A-SECT-HIDN
100
AcDbLine
 10
9.075
 20
6.257083333333334
 30
0.0
 11
9.075
 21
6.259166666666666
 31
0.0
  0
LINE
  5
215
330
17
100
AcDbEntity
  8
A-SECT-HIDN
100
AcDbLine
 10
9.075
 20
6.259166666666666
 30
0.0
 11
9.035
 21
6.259166666666666
 31
0.0
  0
LINE
  5
216
330
17
100
AcDbEntity
  8
A-SECT-HIDN
100
AcDbLine
 10
9.004999999999999
 20
6.259166666666666
 30
0.0
 11
8.965
 21
6.259166666666666
 31
0.0
  0
LINE
  5
217
330
17
100
AcDbEntity
  8
A-SECT-HIDN
100
AcDbLine
 10
8.960416666666667
 20
6.259166666666666
 30
0.0
 11
8.960416666666667
 21
6.299166666666666
 31
0.0
  0
LINE
  5
218
330
17
100
AcDbEntity
  8
A-SECT-HIDN
100
AcDbLine
 10
8.960416666666667
 20
6.329166666666667
 30
0.0
 11
8.960416666666667
 21
6.33125
 31
0.0
  0
LINE
  5
219
330
17
100
AcDbEntity
  8
A-SECT-HIDN
100
AcDbLine
 10
8.960416666666667
 20
6.33125
 30
0.0
 11
8.920416666666668
 21
6.33125
 31
0.0
  0
LINE
  5
21A
330
17
100
AcDbEntity
  8
A-SECT-HIDN
100
AcDbLine
 10
8.890416666666667
 20
6.33125
 30
0.0
 11
8.850416666666668
 21
6.33125
 31
0.0
  0
LINE
  5
21B
330
17
100
AcDbEntity
  8
A-SECT-HIDN
100
AcDbLine
 10
8.845833333333333
 20
6.33125
 30
0.0
 11
8.845833333333333
 21
6.37125
 31
0.0
  0
LINE
  5
21C
330
17
100
AcDbEntity
  8
A-SECT-HIDN
100
AcDbLine
 10
8.845833333333333
 20
6.40125
 30
0.0
 11
8.845833333333333
 21
6.403333333333333
 31
0.0
  0
LINE
  5
21D
330
17
100
AcDbEntity
  8
A-SECT-HIDN
100
AcDbLine
 10
8.845833333333333
 20
6.403333333333333
 30
0.0
 11
8.805833333333334
 21
6.403333333333333
 31
0.0
  0
LINE
  5
21E
330
17
100
AcDbEntity
  8
A-SECT-HIDN
100
AcDbLine
 10
8.775833333333333
 20
6.403333333333333
 30
0.0
 11
8.735833333333334
 21
6.403333333333333
 31
0.0
  0
LINE
  5
21F
330
17
100
AcDbEntity
  8
A-SECT-HIDN
100
AcDbLine
 10
8.731250000000001
 20
6.403333333333333
 30
0.0
 11
8.731250000000001
 21
6.443333333333333
 31
0.0
  0
LINE
  5
220
330
17
100
AcDbEntity
  8
A-SECT-HIDN
100
AcDbLine
 10
8.731250000000001
 20
6.473333333333334
 30
0.0
 11
8.731250000000001
 21
6.475416666666666
 31
0.0
  0
LINE
  5
221
330
17
100
AcDbEntity
  8
A-SECT-HIDN
100
AcDbLine
 10
8.731250000000001
 20
6.475416666666666
 30
0.0
 11
8.691250000000002
 21
6.475416666666666
 31
0.0
  0
LINE
  5
222
330
17
100
AcDbEntity
  8
A-SECT-HIDN
100
AcDbLine
 10
8.66125
 20
6.475416666666666
 30
0.0
 11
8.621250000000002
 21
6.475416666666666
 31
0.0
  0
LINE
  5
223
330
17
100
AcDbEntity
  8
A-SECT-HIDN
100
AcDbLine
 10
8.616666666666667
 20
6.475416666666666
 30
0.0
 11
8.616666666666667
 21
6.515416666666666
 31
0.0
  0
LINE
  5
224
330
17
100
AcDbEntity
  8
A-SECT-HIDN
100
AcDbLine
 10
8.616666666666667
 20
6.545416666666666
 30
0.0
 11
8.616666666666667
 21
6.547499999999999
 31
0.0
  0
LINE
  5
225
330
17
100
AcDbEntity
  8
A-SECT-HIDN
100
AcDbLine
 10
8.616666666666667
 20
6.547499999999999
 30
0.0
 11
8.576666666666668
 21
6.547499999999999
 31
0.0
  0
LINE
  5
226
330
17
100
AcDbEntity
  8
A-SECT-HIDN
100
AcDbLine
 10
8.546666666666667
 20
6.547499999999999
 30
0.0
 11
8.506666666666668
 21
6.547499999999999
 31
0.0
  0
LINE
  5
227
330
17
100
AcDbEntity
  8
A-SECT-HIDN
100
AcDbLine
 10
8.502083333333333
 20
6.547499999999999
 30
0.0
 11
8.502083333333333
 21
6.5874999999999995
 31
0.0
  0
LINE
  5
228
330
17
100
AcDbEntity
  8
A-SECT-HIDN
100
AcDbLine
 10
8.502083333333333
 20
6.6175
 30
0.0
 11
8.502083333333333
 21
6.619583333333333
 31
0.0
  0
LINE
  5
229
330
17
100
AcDbEntity
  8
A-SECT-HIDN
100
AcDbLine
 10
8.502083333333333
 20
6.619583333333333
 30
0.0
 11
8.462083333333334
 21
6.619583333333333
 31
0.0
  0
LINE
  5
22A
330
17
100
AcDbEntity
  8
A-SECT-HIDN
100
AcDbLine
 10
8.432083333333333
 20
6.619583333333333
 30
0.0
 11
8.392083333333334
 21
6.619583333333333
 31
0.0
  0
LINE
  5
22B
330
17
100
AcDbEntity
  8
A-SECT-HIDN
100
AcDbLine
 10
8.387500000000001
 20
6.619583333333333
 30
0.0
 11
8.387500000000001
 21
6.659583333333333
 31
0.0
  0
LINE
  5
22C
330
17
100
AcDbEntity
  8
A-SECT-HIDN
100
AcDbLine
 10
8.387500000000001
 20
6.689583333333333
 30
0.0
 11
8.387500000000001
 21
6.691666666666666
 31
0.0
  0
LINE
  5
22D
330
17
100
AcDbEntity
  8
A-SECT-HIDN
100
AcDbLine
 10
8.387500000000001
 20
6.691666666666666
 30
0.0
 11
8.347500000000002
 21
6.691666666666666
 31
0.0
  0
LINE
  5
22E
330
17
100
AcDbEntity
  8
A-SECT-HIDN
100
AcDbLine
 10
8.3175
 20
6.691666666666666
 30
0.0
 11
8.277500000000002
 21
6.691666666666666
 31
0.0
  0
LINE
  5
22F
330
17
100
AcDbEntity
  8
A-SECT-HIDN
100
AcDbLine
 10
8.272916666666667
 20
6.691666666666666
 30
0.0
 11
8.272916666666667
 21
6.7316666666666665
 31
0.0
  0
LINE
  5
230
330
17
100
AcDbEntity
  8
A-SECT-HIDN
100
AcDbLine
 10
8.272916666666667
 20
6.761666666666667
 30
0.0
 11
8.272916666666667
 21
6.76375
 31
0.0
  0
LINE
  5
231
330
17
100
AcDbEntity
  8
A-SECT-HIDN
100
AcDbLine
 10
8.272916666666667
 20
6.76375
 30
0.0
 11
8.232916666666668
 21
6.76375
 31
0.0
  0
LINE
  5
232
330
17
100
AcDbEntity
  8
A-SECT-HIDN
100
AcDbLine
 10
8.202916666666667
 20
6.76375
 30
0.0
 11
8.162916666666668
 21
6.76375
 31
0.0
  0
LINE
  5
233
330
17
100
AcDbEntity
  8
A-SECT-HIDN
100
AcDbLine
 10
8.158333333333333
 20
6.76375
 30
0.0
 11
8.158333333333333
 21
6.80375
 31
0.0
  0
LINE
  5
234
330
17
100
AcDbEntity
  8
A-SECT-HIDN
100
AcDbLine
 10
8.158333333333333
 20
6.83375
 30
0.0
 11
8.158333333333333
 21
6.8358333333333325
 31
0.0
  0
LINE
  5
235
330
17
100
AcDbEntity
  8
A-SECT-HIDN
100
AcDbLine
 10
8.158333333333333
 20
6.8358333333333325
 30
0.0
 11
8.118333333333334
 21
6.8358333333333325
 31
0.0
  0
LINE
  5
236
330
17
100
AcDbEntity
  8
A-SECT-HIDN
100
AcDbLine
 10
8.088333333333333
 20
6.8358333333333325
 30
0.0
 11
8.048333333333334
 21
6.8358333333333325
 31
0.0
  0
LINE
  5
237
330
17
100
AcDbEntity
  8
A-SECT-HIDN
100
AcDbLine
 10
8.043750000000001
 20
6.8358333333333325
 30
0.0
 11
8.043750000000001
 21
6.875833333333333
 31
0.0
  0
LINE
  5
238
330
17
100
AcDbEntity
  8
A-SECT-HIDN
100
AcDbLine
 10
8.043750000000001
 20
6.905833333333333
 30
0.0
 11
8.043750000000001
 21
6.907916666666666
 31
0.0
  0
LINE
  5
239
330
17
100
AcDbEntity
  8
A-SECT-HIDN
100
AcDbLine
 10
8.043750000000001
 20
6.907916666666666
 30
0.0
 11
8.003750000000002
 21
6.907916666666666
 31
0.0
  0
LINE
  5
23A
330
17
100
AcDbEntity
  8
A-SECT-HIDN
100
AcDbLine
 10
7.973750000000001
 20
6.907916666666666
 30
0.0
 11
7.933750000000001
 21
6.907916666666666
 31
0.0
  0
LINE
  5
23B
330
17
100
AcDbEntity
  8
A-SECT-HIDN
100
AcDbLine
 10
7.929166666666667
 20
6.907916666666666
 30
0.0
 11
7.929166666666667
 21
6.947916666666666
 31
0.0
  0
LINE
  5
23C
330
17
100
AcDbEntity
  8
A-SECT-HIDN
100
AcDbLine
 10
7.929166666666667
 20
6.977916666666666
 30
0.0
 11
7.929166666666667
 21
6.9799999999999995
 31
0.0
  0
LINE
  5
23D
330
17
100
AcDbEntity
  8
A-SECT-HIDN
100
AcDbLine
 10
7.929166666666667
 20
6.9799999999999995
 30
0.0
 11
7.889166666666667
 21
6.9799999999999995
 31
0.0
  0
LINE
  5
23E
330
17
100
AcDbEntity
  8
A-SECT-HIDN
100
AcDbLine
 10
7.859166666666667
 20
6.9799999999999995
 30
0.0
 11
7.819166666666667
 21
6.9799999999999995
 31
0.0
  0
LINE
  5
23F
330
17
100
AcDbEntity
  8
A-SECT-HIDN
100
AcDbLine
 10
7.814583333333334
 20
6.9799999999999995
 30
0.0
 11
7.814583333333334
 21
7.02
 31
0.0
  0
LINE
  5
240
330
17
100
AcDbEntity
  8
A-SECT-HIDN
100
AcDbLine
 10
7.814583333333334
 20
7.05
 30
0.0
 11
7.814583333333334
 21
7.052083333333332
 31
0.0
  0
LINE
  5
241
330
17
100
AcDbEntity
  8
A-SECT-HIDN
100
AcDbLine
 10
7.814583333333334
 20
7.052083333333332
 30
0.0
 11
7.774583333333334
 21
7.052083333333332
 31
0.0
  0
LINE
  5
242
330
17
100
AcDbEntity
  8
A-SECT-HIDN
100
AcDbLine
 10
7.744583333333334
 20
7.052083333333332
 30
0.0
 11
7.704583333333334
 21
7.052083333333332
 31
0.0
  0
LINE
  5
243
330
17
100
AcDbEntity
  8
A-SECT-HIDN
100
AcDbLine
 10
7.7
 20
7.052083333333332
 30
0.0
 11
7.7
 21
7.092083333333332
 31
0.0
  0
LINE
  5
244
330
17
100
AcDbEntity
  8
A-SECT-HIDN
100
AcDbLine
 10
7.7
 20
7.122083333333332
 30
0.0
 11
7.7
 21
7.124166666666666
 31
0.0
  0
HATCH
  5
245
330
17
100
AcDbEntity
  8
A-SECT-CUTL
 62
7
420
3947580
100
AcDbHatch
 10
0.0
 20
0.0
 30
0.0
210
0.0
220
0.0
230
1.0
  2
SOLID
 70
1
 71
0
 91
1
 92
3
 72
0
 73
1
 93
4
 10
7.075
 20
5.125
 10
7.2
 20
5.125
 10
7.2
 20
7.3125
 10
7.075
 20
7.3125
 97
0
 75
0
 76
1
 98
0
  0
HATCH
  5
246
330
17
100
AcDbEntity
  8
A-SECT-CUTL
 62
7
420
3947580
100
AcDbHatch
 10
0.0
 20
0.0
 30
0.0
210
0.0
220
0.0
230
1.0
  2
SOLID
 70
1
 71
0
 91
1
 92
3
 72
0
 73
1
 93
4
 10
9.804166666666667
 20
5.125
 10
9.929166666666667
 20
5.125
 10
9.929166666666667
 20
7.3125
 10
9.804166666666667
 20
7.3125
 97
0
 75
0
 76
1
 98
0
  0
TEXT
  5
247
330
17
100
AcDbEntity
  8
A-SECT-IDEN
100
AcDbText
 10
8.7125
 20
5.5
 30
0.0
 40
0.04599999999999999
  1
13 R @ 6.92" = 7.50'
  7
KS-REG
 11
8.7125
 21
5.5
 31
0.0
100
AcDbText
  0
TEXT
  5
248
330
17
100
AcDbEntity
  8
A-SECT-IDEN
100
AcDbText
 10
8.7125
 20
5.35
 30
0.0
 40
0.04599999999999999
  1
12 T @ 11" = 11'
  7
KS-REG
 11
8.7125
 21
5.35
 31
0.0
100
AcDbText
  0
TEXT
  5
249
330
17
100
AcDbEntity
  8
A-SECT-IDEN
100
AcDbText
 10
9.439583333333333
 20
6.437083333333334
 30
0.0
 40
0.041999999999999996
  1
70" mid
  7
KS-BOLD
 72
1
 11
9.439583333333333
 21
6.437083333333334
 31
0.0
100
AcDbText
  0
TEXT
  5
24A
330
17
100
AcDbEntity
  8
A-SECT-IDEN
100
AcDbText
 10
9.439583333333333
 20
6.287083333333333
 30
0.0
 40
0.041999999999999996
  1
landing
  7
KS-BOLD
 72
1
 11
9.439583333333333
 21
6.287083333333333
 31
0.0
100
AcDbText
  0
TEXT
  5
24B
330
17
100
AcDbEntity
  8
A-SECT-IDEN
100
AcDbText
 10
9.439583333333333
 20
5.962083333333333
 30
0.0
 40
0.039999999999999994
  1
= width
  7
KS-REG
 72
1
 11
9.439583333333333
 21
5.962083333333333
 31
0.0
100
AcDbText
  0
TEXT
  5
24C
330
17
100
AcDbEntity
  8
A-SECT-IDEN
100
AcDbText
 10
9.439583333333333
 20
5.812083333333334
 30
0.0
 40
0.039999999999999994
  1
(1011.6)
  7
KS-REG
 72
1
 11
9.439583333333333
 21
5.812083333333334
 31
0.0
100
AcDbText
  0
TEXT
  5
24D
330
17
100
AcDbEntity
  8
A-SECT-IDEN
100
AcDbText
 10
7.45
 20
5.625
 30
0.0
 40
0.039999999999999994
  1
48" floor
  7
KS-REG
 72
1
 11
7.45
 21
5.625
 31
0.0
100
AcDbText
  0
TEXT
  5
24E
330
17
100
AcDbEntity
  8
A-SECT-IDEN
100
AcDbText
 10
7.45
 20
5.475
 30
0.0
 40
0.039999999999999994
  1
landing
  7
KS-REG
 72
1
 11
7.45
 21
5.475
 31
0.0
100
AcDbText
  0
TEXT
  5
24F
330
17
100
AcDbEntity
  8
A-SECT-IDEN
100
AcDbText
 10
7.45
 20
7.2
 30
0.0
 40
0.041999999999999996
  1
L2 FF 15' (A)
  7
KS-REG
 72
1
 11
7.45
 21
7.2
 31
0.0
100
AcDbText
  0
TEXT
  5
250
330
17
100
AcDbEntity
  8
A-SECT-IDEN
100
AcDbText
 10
7.45
 20
5.325
 30
0.0
 40
0.041999999999999996
  1
L1 FF 0'
  7
KS-REG
 72
1
 11
7.45
 21
5.325
 31
0.0
100
AcDbText
  0
TEXT
  5
251
330
17
100
AcDbEntity
  8
A-SECT-IDEN
100
AcDbText
 10
7.2375
 20
6.6
 30
0.0
 40
0.044000000000000004
  1
flight 2 beyond
  7
KS-REG
 11
7.2375
 21
6.6
 31
0.0
100
AcDbText
  0
TEXT
  5
252
330
17
100
AcDbEntity
  8
A-SECT-IDEN
100
AcDbText
 10
7.2375
 20
6.4375
 30
0.0
 40
0.044000000000000004
  1
(dashed)
  7
KS-REG
 11
7.2375
 21
6.4375
 31
0.0
100
AcDbText
  0
TEXT
  5
253
330
17
100
AcDbEntity
  8
A-SECT-IDEN
100
AcDbText
 10
7.2375
 20
6.2
 30
0.0
 40
0.044000000000000004
  1
26 risers total
  7
KS-REG
 11
7.2375
 21
6.2
 31
0.0
100
AcDbText
  0
TEXT
  5
254
330
17
100
AcDbEntity
  8
A-SECT-IDEN
100
AcDbText
 10
7.2375
 20
6.0375
 30
0.0
 40
0.044000000000000004
  1
70" clear width
  7
KS-BOLD
 11
7.2375
 21
6.0375
 31
0.0
100
AcDbText
  0
TEXT
  5
255
330
17
100
AcDbEntity
  8
A-SECT-IDEN
100
AcDbText
 10
7.2375
 20
5.875
 30
0.0
 40
0.039999999999999994
  1
(not visible in section)
  7
KS-REG
 11
7.2375
 21
5.875
 31
0.0
100
AcDbText
  0
TEXT
  5
256
330
17
100
AcDbEntity
  8
A-ANNO-TEXT
100
AcDbText
 10
7.1000000000000005
 20
4.92
 30
0.0
 40
0.072
  1
4  TYPICAL EXIT STAIR — 70" CLEAR
  7
KS-BOLD
 11
7.1000000000000005
 21
4.92
 31
0.0
100
AcDbText
  0
LINE
  5
257
330
17
100
AcDbEntity
  8
A-ANNO-TEXT
100
AcDbLine
 10
7.1000000000000005
 20
4.87
 30
0.0
 11
9.700000000000001
 21
4.87
 31
0.0
  0
TEXT
  5
258
330
17
100
AcDbEntity
  8
A-ANNO-TEXT
100
AcDbText
 10
7.1000000000000005
 20
4.75
 30
0.0
 40
0.054000000000000006
  1
1/8" = 1'-0" · 70" mid landing (D-051) · 11.67' × 20.83' plan
  7
KS-REG
 11
7.1000000000000005
 21
4.75
 31
0.0
100
AcDbText
  0
HATCH
  5
259
330
17
100
AcDbEntity
  8
A-SECT-FILL
 62
7
420
15789284
100
AcDbHatch
 10
0.0
 20
0.0
 30
0.0
210
0.0
220
0.0
230
1.0
  2
SOLID
 70
1
 71
0
 91
1
 92
3
 72
0
 73
1
 93
4
 10
7.75
 20
2.55
 10
9.34375
 20
2.55
 10
9.34375
 20
4.51875
 10
7.75
 20
4.51875
 97
0
 75
0
 76
1
 98
0
  0
LWPOLYLINE
  5
25A
330
17
100
AcDbEntity
  8
A-SECT-FILL
100
AcDbPolyline
 90
4
 70
1
 10
7.75
 20
2.55
 10
9.34375
 20
2.55
 10
9.34375
 20
4.51875
 10
7.75
 20
4.51875
  0
HATCH
  5
25B
330
17
100
AcDbEntity
  8
A-SECT-FILL
 62
7
420
15789284
100
AcDbHatch
 10
0.0
 20
0.0
 30
0.0
210
0.0
220
0.0
230
1.0
  2
SOLID
 70
1
 71
0
 91
1
 92
3
 72
0
 73
1
 93
4
 10
9.1953125
 20
4.51875
 10
9.34375
 20
4.51875
 10
9.34375
 20
4.5578125
 10
9.1953125
 20
4.5578125
 97
0
 75
0
 76
1
 98
0
  0
LWPOLYLINE
  5
25C
330
17
100
AcDbEntity
  8
A-SECT-FILL
100
AcDbPolyline
 90
4
 70
1
 10
9.1953125
 20
4.51875
 10
9.34375
 20
4.51875
 10
9.34375
 20
4.5578125
 10
9.1953125
 20
4.5578125
  0
HATCH
  5
25D
330
17
100
AcDbEntity
  8
A-SECT-FILL
 62
7
420
15266040
100
AcDbHatch
 10
0.0
 20
0.0
 30
0.0
210
0.0
220
0.0
230
1.0
  2
SOLID
 70
1
 71
0
 91
1
 92
3
 72
0
 73
1
 93
4
 10
8.1875
 20
2.9875
 10
9.171875
 20
2.9875
 10
9.171875
 20
4.3
 10
8.1875
 20
4.3
 97
0
 75
0
 76
1
 98
0
  0
LWPOLYLINE
  5
25E
330
17
100
AcDbEntity
  8
A-SECT-FILL
100
AcDbPolyline
 90
4
 70
1
 10
8.1875
 20
2.9875
 10
9.171875
 20
2.9875
 10
9.171875
 20
4.3
 10
8.1875
 20
4.3
  0
HATCH
  5
25F
330
17
100
AcDbEntity
  8
A-SECT-FILL
 62
7
420
14268286
100
AcDbHatch
 10
0.0
 20
0.0
 30
0.0
210
0.0
220
0.0
230
1.0
  2
SOLID
 70
1
 71
0
 91
1
 92
3
 72
0
 73
1
 93
4
 10
8.1875
 20
3.08125
 10
9.078125
 20
3.08125
 10
9.078125
 20
4.20625
 10
8.1875
 20
4.20625
 97
0
 75
0
 76
1
 98
0
  0
LWPOLYLINE
  5
260
330
17
100
AcDbEntity
  8
A-SECT-FILL
100
AcDbPolyline
 90
4
 70
1
 10
8.1875
 20
3.08125
 10
9.078125
 20
3.08125
 10
9.078125
 20
4.20625
 10
8.1875
 20
4.20625
  0
HATCH
  5
261
330
17
100
AcDbEntity
  8
A-SECT-FILL
 62
7
420
14191242
100
AcDbHatch
 10
0.0
 20
0.0
 30
0.0
210
0.0
220
0.0
230
1.0
  2
SOLID
 70
1
 71
0
 91
1
 92
3
 72
0
 73
1
 93
4
 10
8.1875
 20
4.20625
 10
9.171875
 20
4.20625
 10
9.171875
 20
4.3
 10
8.1875
 20
4.3
 97
0
 75
0
 76
1
 98
0
  0
HATCH
  5
262
330
17
100
AcDbEntity
  8
A-SECT-FILL
 62
7
420
14191242
100
AcDbHatch
 10
0.0
 20
0.0
 30
0.0
210
0.0
220
0.0
230
1.0
  2
SOLID
 70
1
 71
0
 91
1
 92
3
 72
0
 73
1
 93
4
 10
8.1875
 20
2.9875
 10
9.171875
 20
2.9875
 10
9.171875
 20
3.08125
 10
8.1875
 20
3.08125
 97
0
 75
0
 76
1
 98
0
  0
HATCH
  5
263
330
17
100
AcDbEntity
  8
A-SECT-FILL
 62
7
420
14191242
100
AcDbHatch
 10
0.0
 20
0.0
 30
0.0
210
0.0
220
0.0
230
1.0
  2
SOLID
 70
1
 71
0
 91
1
 92
3
 72
0
 73
1
 93
4
 10
9.078125
 20
3.08125
 10
9.171875
 20
3.08125
 10
9.171875
 20
4.20625
 10
9.078125
 20
4.20625
 97
0
 75
0
 76
1
 98
0
  0
HATCH
  5
264
330
17
100
AcDbEntity
  8
A-SECT-FILL
 62
7
420
10990531
100
AcDbHatch
 10
0.0
 20
0.0
 30
0.0
210
0.0
220
0.0
230
1.0
  2
SOLID
 70
1
 71
0
 91
1
 92
3
 72
0
 73
1
 93
4
 10
8.1875
 20
4.3
 10
9.171875
 20
4.3
 10
9.171875
 20
4.4171875
 10
8.1875
 20
4.4171875
 97
0
 75
0
 76
1
 98
0
  0
HATCH
  5
265
330
17
100
AcDbEntity
  8
A-SECT-FILL
 62
7
420
10990531
100
AcDbHatch
 10
0.0
 20
0.0
 30
0.0
210
0.0
220
0.0
230
1.0
  2
SOLID
 70
1
 71
0
 91
1
 92
3
 72
0
 73
1
 93
4
 10
8.1875
 20
2.8703125
 10
9.171875
 20
2.8703125
 10
9.171875
 20
2.9875
 10
8.1875
 20
2.9875
 97
0
 75
0
 76
1
 98
0
  0
HATCH
  5
266
330
17
100
AcDbEntity
  8
A-SECT-FILL
 62
7
420
10990531
100
AcDbHatch
 10
0.0
 20
0.0
 30
0.0
210
0.0
220
0.0
230
1.0
  2
SOLID
 70
1
 71
0
 91
1
 92
3
 72
0
 73
1
 93
4
 10
9.171875
 20
2.8703125
 10
9.2890625
 20
2.8703125
 10
9.2890625
 20
4.4171875
 10
9.171875
 20
4.4171875
 97
0
 75
0
 76
1
 98
0
  0
LINE
  5
267
330
17
100
AcDbEntity
  8
A-SECT-CUTL
100
AcDbLine
 10
8.53125
 20
2.440625
 30
0.0
 11
8.53125
 21
2.520625
 31
0.0
  0
LINE
  5
268
330
17
100
AcDbEntity
  8
A-SECT-CUTL
100
AcDbLine
 10
8.53125
 20
2.560625
 30
0.0
 11
8.53125
 21
2.640625
 31
0.0
  0
LINE
  5
269
330
17
100
AcDbEntity
  8
A-SECT-CUTL
100
AcDbLine
 10
8.53125
 20
2.680625
 30
0.0
 11
8.53125
 21
2.7606249999999997
 31
0.0
  0
LINE
  5
26A
330
17
100
AcDbEntity
  8
A-SECT-CUTL
100
AcDbLine
 10
8.53125
 20
2.8006249999999997
 30
0.0
 11
8.53125
 21
2.8806249999999998
 31
0.0
  0
LINE
  5
26B
330
17
100
AcDbEntity
  8
A-SECT-CUTL
100
AcDbLine
 10
8.53125
 20
2.920625
 30
0.0
 11
8.53125
 21
3.000625
 31
0.0
  0
LINE
  5
26C
330
17
100
AcDbEntity
  8
A-SECT-CUTL
100
AcDbLine
 10
8.53125
 20
3.040625
 30
0.0
 11
8.53125
 21
3.1206249999999995
 31
0.0
  0
LINE
  5
26D
330
17
100
AcDbEntity
  8
A-SECT-CUTL
100
AcDbLine
 10
8.53125
 20
3.1606249999999996
 30
0.0
 11
8.53125
 21
3.2406249999999996
 31
0.0
  0
LINE
  5
26E
330
17
100
AcDbEntity
  8
A-SECT-CUTL
100
AcDbLine
 10
8.53125
 20
3.2806249999999997
 30
0.0
 11
8.53125
 21
3.3606249999999998
 31
0.0
  0
LINE
  5
26F
330
17
100
AcDbEntity
  8
A-SECT-CUTL
100
AcDbLine
 10
8.53125
 20
3.400625
 30
0.0
 11
8.53125
 21
3.480625
 31
0.0
  0
LINE
  5
270
330
17
100
AcDbEntity
  8
A-SECT-CUTL
100
AcDbLine
 10
8.53125
 20
3.520625
 30
0.0
 11
8.53125
 21
3.600625
 31
0.0
  0
LINE
  5
271
330
17
100
AcDbEntity
  8
A-SECT-CUTL
100
AcDbLine
 10
8.53125
 20
3.640625
 30
0.0
 11
8.53125
 21
3.720625
 31
0.0
  0
LINE
  5
272
330
17
100
AcDbEntity
  8
A-SECT-CUTL
100
AcDbLine
 10
8.53125
 20
3.760625
 30
0.0
 11
8.53125
 21
3.840625
 31
0.0
  0
LINE
  5
273
330
17
100
AcDbEntity
  8
A-SECT-CUTL
100
AcDbLine
 10
8.53125
 20
3.880625
 30
0.0
 11
8.53125
 21
3.9606250000000003
 31
0.0
  0
LINE
  5
274
330
17
100
AcDbEntity
  8
A-SECT-CUTL
100
AcDbLine
 10
8.53125
 20
4.000625
 30
0.0
 11
8.53125
 21
4.080625
 31
0.0
  0
LINE
  5
275
330
17
100
AcDbEntity
  8
A-SECT-CUTL
100
AcDbLine
 10
8.53125
 20
4.120625
 30
0.0
 11
8.53125
 21
4.2006250000000005
 31
0.0
  0
LINE
  5
276
330
17
100
AcDbEntity
  8
A-SECT-CUTL
100
AcDbLine
 10
8.53125
 20
4.2406250000000005
 30
0.0
 11
8.53125
 21
4.320625000000001
 31
0.0
  0
LINE
  5
277
330
17
100
AcDbEntity
  8
A-SECT-CUTL
100
AcDbLine
 10
8.53125
 20
4.360625000000001
 30
0.0
 11
8.53125
 21
4.440625000000001
 31
0.0
  0
LINE
  5
278
330
17
100
AcDbEntity
  8
A-SECT-CUTL
100
AcDbLine
 10
8.53125
 20
4.480625000000001
 30
0.0
 11
8.53125
 21
4.560625000000001
 31
0.0
  0
LINE
  5
279
330
17
100
AcDbEntity
  8
A-SECT-CUTL
100
AcDbLine
 10
8.53125
 20
4.600625000000001
 30
0.0
 11
8.53125
 21
4.628125
 31
0.0
  0
LINE
  5
27A
330
17
100
AcDbEntity
  8
A-SECT-CUTL
100
AcDbLine
 10
7.640625
 20
3.721875
 30
0.0
 11
7.720625
 21
3.721875
 31
0.0
  0
LINE
  5
27B
330
17
100
AcDbEntity
  8
A-SECT-CUTL
100
AcDbLine
 10
7.760625
 20
3.721875
 30
0.0
 11
7.840625
 21
3.721875
 31
0.0
  0
LINE
  5
27C
330
17
100
AcDbEntity
  8
A-SECT-CUTL
100
AcDbLine
 10
7.880625
 20
3.721875
 30
0.0
 11
7.960625
 21
3.721875
 31
0.0
  0
LINE
  5
27D
330
17
100
AcDbEntity
  8
A-SECT-CUTL
100
AcDbLine
 10
8.000625
 20
3.721875
 30
0.0
 11
8.080625
 21
3.721875
 31
0.0
  0
LINE
  5
27E
330
17
100
AcDbEntity
  8
A-SECT-CUTL
100
AcDbLine
 10
8.120625
 20
3.721875
 30
0.0
 11
8.200625
 21
3.721875
 31
0.0
  0
LINE
  5
27F
330
17
100
AcDbEntity
  8
A-SECT-CUTL
100
AcDbLine
 10
8.240625
 20
3.721875
 30
0.0
 11
8.320625
 21
3.721875
 31
0.0
  0
LINE
  5
280
330
17
100
AcDbEntity
  8
A-SECT-CUTL
100
AcDbLine
 10
8.360625
 20
3.721875
 30
0.0
 11
8.440625
 21
3.721875
 31
0.0
  0
LINE
  5
281
330
17
100
AcDbEntity
  8
A-SECT-CUTL
100
AcDbLine
 10
8.480625
 20
3.721875
 30
0.0
 11
8.560625
 21
3.721875
 31
0.0
  0
LINE
  5
282
330
17
100
AcDbEntity
  8
A-SECT-CUTL
100
AcDbLine
 10
8.600625
 20
3.721875
 30
0.0
 11
8.680625
 21
3.721875
 31
0.0
  0
LINE
  5
283
330
17
100
AcDbEntity
  8
A-SECT-CUTL
100
AcDbLine
 10
8.720625
 20
3.721875
 30
0.0
 11
8.800625
 21
3.721875
 31
0.0
  0
LINE
  5
284
330
17
100
AcDbEntity
  8
A-SECT-CUTL
100
AcDbLine
 10
8.840625
 20
3.721875
 30
0.0
 11
8.920625000000001
 21
3.721875
 31
0.0
  0
LINE
  5
285
330
17
100
AcDbEntity
  8
A-SECT-CUTL
100
AcDbLine
 10
8.960625
 20
3.721875
 30
0.0
 11
9.040625
 21
3.721875
 31
0.0
  0
LINE
  5
286
330
17
100
AcDbEntity
  8
A-SECT-CUTL
100
AcDbLine
 10
9.080625000000001
 20
3.721875
 30
0.0
 11
9.160625
 21
3.721875
 31
0.0
  0
LINE
  5
287
330
17
100
AcDbEntity
  8
A-SECT-CUTL
100
AcDbLine
 10
9.200625
 20
3.721875
 30
0.0
 11
9.280625
 21
3.721875
 31
0.0
  0
LINE
  5
288
330
17
100
AcDbEntity
  8
A-SECT-CUTL
100
AcDbLine
 10
9.320625
 20
3.721875
 30
0.0
 11
9.400625000000002
 21
3.721875
 31
0.0
  0
LINE
  5
289
330
17
100
AcDbEntity
  8
A-SECT-CUTL
100
AcDbLine
 10
9.440625
 20
3.721875
 30
0.0
 11
9.453125
 21
3.721875
 31
0.0
  0
HATCH
  5
28A
330
17
100
AcDbEntity
  8
A-SECT-CUTL
 62
7
420
0
100
AcDbHatch
 10
0.0
 20
0.0
 30
0.0
210
0.0
220
0.0
230
1.0
  2
SOLID
 70
1
 71
0
 91
1
 92
3
 72
0
 73
1
 93
3
 10
8.53125
 20
2.4906249999999996
 10
8.41125
 20
2.440625
 10
8.53125
 20
2.390625
 97
0
 75
0
 76
1
 98
0
  0
TEXT
  5
28B
330
17
100
AcDbEntity
  8
A-ANNO-TEXT
100
AcDbText
 10
8.57125
 20
2.415625
 30
0.0
 40
0.056
  1
A
  7
KS-BOLD
 11
8.57125
 21
2.415625
 31
0.0
100
AcDbText
  0
HATCH
  5
28C
330
17
100
AcDbEntity
  8
A-SECT-CUTL
 62
7
420
0
100
AcDbHatch
 10
0.0
 20
0.0
 30
0.0
210
0.0
220
0.0
230
1.0
  2
SOLID
 70
1
 71
0
 91
1
 92
3
 72
0
 73
1
 93
3
 10
8.53125
 20
4.678125
 10
8.41125
 20
4.628125
 10
8.53125
 20
4.578125
 97
0
 75
0
 76
1
 98
0
  0
TEXT
  5
28D
330
17
100
AcDbEntity
  8
A-ANNO-TEXT
100
AcDbText
 10
8.57125
 20
4.6031249999999995
 30
0.0
 40
0.056
  1
A
  7
KS-BOLD
 11
8.57125
 21
4.6031249999999995
 31
0.0
100
AcDbText
  0
HATCH
  5
28E
330
17
100
AcDbEntity
  8
A-SECT-CUTL
 62
7
420
0
100
AcDbHatch
 10
0.0
 20
0.0
 30
0.0
210
0.0
220
0.0
230
1.0
  2
SOLID
 70
1
 71
0
 91
1
 92
3
 72
0
 73
1
 93
3
 10
7.590625
 20
3.721875
 10
7.640625
 20
3.841875
 10
7.690625
 20
3.721875
 97
0
 75
0
 76
1
 98
0
  0
TEXT
  5
28F
330
17
100
AcDbEntity
  8
A-ANNO-TEXT
100
AcDbText
 10
7.640625
 20
3.611875
 30
0.0
 40
0.056
  1
B
  7
KS-BOLD
 72
1
 11
7.640625
 21
3.611875
 31
0.0
100
AcDbText
  0
HATCH
  5
290
330
17
100
AcDbEntity
  8
A-SECT-CUTL
 62
7
420
0
100
AcDbHatch
 10
0.0
 20
0.0
 30
0.0
210
0.0
220
0.0
230
1.0
  2
SOLID
 70
1
 71
0
 91
1
 92
3
 72
0
 73
1
 93
3
 10
9.403125
 20
3.721875
 10
9.453125
 20
3.841875
 10
9.503125
 20
3.721875
 97
0
 75
0
 76
1
 98
0
  0
TEXT
  5
291
330
17
100
AcDbEntity
  8
A-ANNO-TEXT
100
AcDbText
 10
9.453125
 20
3.611875
 30
0.0
 40
0.056
  1
B
  7
KS-BOLD
 72
1
 11
9.453125
 21
3.611875
 31
0.0
100
AcDbText
  0
LINE
  5
292
330
17
100
AcDbEntity
  8
A-ANNO-TEXT
100
AcDbLine
 10
9.578125
 20
4.104375
 30
0.0
 11
9.578125
 21
4.404375
 31
0.0
  0
HATCH
  5
293
330
17
100
AcDbEntity
  8
A-ANNO-TEXT
 62
7
420
0
100
AcDbHatch
 10
0.0
 20
0.0
 30
0.0
210
0.0
220
0.0
230
1.0
  2
SOLID
 70
1
 71
0
 91
1
 92
3
 72
0
 73
1
 93
3
 10
9.538125
 20
4.344374999999999
 10
9.578125
 20
4.444375
 10
9.618125
 20
4.344374999999999
 97
0
 75
0
 76
1
 98
0
  0
TEXT
  5
294
330
17
100
AcDbEntity
  8
A-ANNO-TEXT
100
AcDbText
 10
9.578125
 20
4.484375
 30
0.0
 40
0.06
  1
N
  7
KS-BOLD
 72
1
 11
9.578125
 21
4.484375
 31
0.0
100
AcDbText
  0
TEXT
  5
295
330
17
100
AcDbEntity
  8
A-ANNO-TEXT
100
AcDbText
 10
7.45
 20
2.25
 30
0.0
 40
0.072
  1
5  KEY PLAN — CUTS
  7
KS-BOLD
 11
7.45
 21
2.25
 31
0.0
100
AcDbText
  0
LINE
  5
296
330
17
100
AcDbEntity
  8
A-ANNO-TEXT
100
AcDbLine
 10
7.45
 20
2.2
 30
0.0
 11
9.35
 21
2.2
 31
0.0
  0
TEXT
  5
297
330
17
100
AcDbEntity
  8
A-ANNO-TEXT
100
AcDbText
 10
7.45
 20
2.08
 30
0.0
 40
0.054000000000000006
  1
1" = 128'  ·  north up
  7
KS-REG
 11
7.45
 21
2.08
 31
0.0
100
AcDbText
  0
HATCH
  5
298
330
17
100
AcDbEntity
  8
A-SECT-FILL
 62
7
420
3947580
100
AcDbHatch
 10
0.0
 20
0.0
 30
0.0
210
0.0
220
0.0
230
1.0
  2
SOLID
 70
1
 71
0
 91
1
 92
3
 72
0
 73
1
 93
4
 10
10.15
 20
7.3
 10
10.370000000000001
 20
7.3
 10
10.370000000000001
 20
7.41
 10
10.15
 20
7.41
 97
0
 75
0
 76
1
 98
0
  0
LWPOLYLINE
  5
299
330
17
100
AcDbEntity
  8
A-SECT-FILL
100
AcDbPolyline
 90
4
 70
1
 10
10.15
 20
7.3
 10
10.370000000000001
 20
7.3
 10
10.370000000000001
 20
7.41
 10
10.15
 20
7.41
  0
TEXT
  5
29A
330
17
100
AcDbEntity
  8
A-ANNO-TEXT
100
AcDbText
 10
10.43
 20
7.3149999999999995
 30
0.0
 40
0.05
  1
CUT: slab / wall / roof (graphic)
  7
KS-REG
 11
10.43
 21
7.3149999999999995
 31
0.0
100
AcDbText
  0
HATCH
  5
29B
330
17
100
AcDbEntity
  8
A-SECT-FILL
 62
7
420
15266040
100
AcDbHatch
 10
0.0
 20
0.0
 30
0.0
210
0.0
220
0.0
230
1.0
  2
SOLID
 70
1
 71
0
 91
1
 92
3
 72
0
 73
1
 93
4
 10
12.3
 20
7.3
 10
12.520000000000001
 20
7.3
 10
12.520000000000001
 20
7.41
 10
12.3
 20
7.41
 97
0
 75
0
 76
1
 98
0
  0
LWPOLYLINE
  5
29C
330
17
100
AcDbEntity
  8
A-SECT-FILL
100
AcDbPolyline
 90
4
 70
1
 10
12.3
 20
7.3
 10
12.520000000000001
 20
7.3
 10
12.520000000000001
 20
7.41
 10
12.3
 20
7.41
  0
TEXT
  5
29D
330
17
100
AcDbEntity
  8
A-ANNO-TEXT
100
AcDbText
 10
12.58
 20
7.3149999999999995
 30
0.0
 40
0.05
  1
ARENA VOLUME
  7
KS-REG
 11
12.58
 21
7.3149999999999995
 31
0.0
100
AcDbText
  0
HATCH
  5
29E
330
17
100
AcDbEntity
  8
A-SECT-FILL
 62
7
420
14268286
100
AcDbHatch
 10
0.0
 20
0.0
 30
0.0
210
0.0
220
0.0
230
1.0
  2
SOLID
 70
1
 71
0
 91
1
 92
3
 72
0
 73
1
 93
4
 10
14.45
 20
7.3
 10
14.67
 20
7.3
 10
14.67
 20
7.41
 10
14.45
 20
7.41
 97
0
 75
0
 76
1
 98
0
  0
LWPOLYLINE
  5
29F
330
17
100
AcDbEntity
  8
A-SECT-FILL
100
AcDbPolyline
 90
4
 70
1
 10
14.45
 20
7.3
 10
14.67
 20
7.3
 10
14.67
 20
7.41
 10
14.45
 20
7.41
  0
TEXT
  5
2A0
330
17
100
AcDbEntity
  8
A-ANNO-TEXT
100
AcDbText
 10
14.729999999999999
 20
7.3149999999999995
 30
0.0
 40
0.05
  1
EVENT FLOOR
  7
KS-REG
 11
14.729999999999999
 21
7.3149999999999995
 31
0.0
100
AcDbText
  0
HATCH
  5
2A1
330
17
100
AcDbEntity
  8
A-SECT-FILL
 62
7
420
14191242
100
AcDbHatch
 10
0.0
 20
0.0
 30
0.0
210
0.0
220
0.0
230
1.0
  2
SOLID
 70
1
 71
0
 91
1
 92
3
 72
0
 73
1
 93
4
 10
10.15
 20
7.13
 10
10.370000000000001
 20
7.13
 10
10.370000000000001
 20
7.24
 10
10.15
 20
7.24
 97
0
 75
0
 76
1
 98
0
  0
LWPOLYLINE
  5
2A2
330
17
100
AcDbEntity
  8
A-SECT-FILL
100
AcDbPolyline
 90
4
 70
1
 10
10.15
 20
7.13
 10
10.370000000000001
 20
7.13
 10
10.370000000000001
 20
7.24
 10
10.15
 20
7.24
  0
TEXT
  5
2A3
330
17
100
AcDbEntity
  8
A-ANNO-TEXT
100
AcDbText
 10
10.43
 20
7.145
 30
0.0
 40
0.05
  1
TELESCOPIC LOWER TIER
  7
KS-REG
 11
10.43
 21
7.145
 31
0.0
100
AcDbText
  0
HATCH
  5
2A4
330
17
100
AcDbEntity
  8
A-SECT-FILL
 62
7
420
10990531
100
AcDbHatch
 10
0.0
 20
0.0
 30
0.0
210
0.0
220
0.0
230
1.0
  2
SOLID
 70
1
 71
0
 91
1
 92
3
 72
0
 73
1
 93
4
 10
12.3
 20
7.13
 10
12.520000000000001
 20
7.13
 10
12.520000000000001
 20
7.24
 10
12.3
 20
7.24
 97
0
 75
0
 76
1
 98
0
  0
LWPOLYLINE
  5
2A5
330
17
100
AcDbEntity
  8
A-SECT-FILL
100
AcDbPolyline
 90
4
 70
1
 10
12.3
 20
7.13
 10
12.520000000000001
 20
7.13
 10
12.520000000000001
 20
7.24
 10
12.3
 20
7.24
  0
TEXT
  5
2A6
330
17
100
AcDbEntity
  8
A-ANNO-TEXT
100
AcDbText
 10
12.58
 20
7.145
 30
0.0
 40
0.05
  1
FIXED UPPER TIER
  7
KS-REG
 11
12.58
 21
7.145
 31
0.0
100
AcDbText
  0
HATCH
  5
2A7
330
17
100
AcDbEntity
  8
A-SECT-FILL
 62
7
420
13134138
100
AcDbHatch
 10
0.0
 20
0.0
 30
0.0
210
0.0
220
0.0
230
1.0
  2
SOLID
 70
1
 71
0
 91
1
 92
3
 72
0
 73
1
 93
4
 10
14.45
 20
7.13
 10
14.67
 20
7.13
 10
14.67
 20
7.24
 10
14.45
 20
7.24
 97
0
 75
0
 76
1
 98
0
  0
LWPOLYLINE
  5
2A8
330
17
100
AcDbEntity
  8
A-SECT-FILL
100
AcDbPolyline
 90
4
 70
1
 10
14.45
 20
7.13
 10
14.67
 20
7.13
 10
14.67
 20
7.24
 10
14.45
 20
7.24
  0
TEXT
  5
2A9
330
17
100
AcDbEntity
  8
A-ANNO-TEXT
100
AcDbText
 10
14.729999999999999
 20
7.145
 30
0.0
 40
0.05
  1
LOOP (L2)
  7
KS-REG
 11
14.729999999999999
 21
7.145
 31
0.0
100
AcDbText
  0
HATCH
  5
2AA
330
17
100
AcDbEntity
  8
A-SECT-FILL
 62
7
420
16115654
100
AcDbHatch
 10
0.0
 20
0.0
 30
0.0
210
0.0
220
0.0
230
1.0
  2
SOLID
 70
1
 71
0
 91
1
 92
3
 72
0
 73
1
 93
4
 10
10.15
 20
6.96
 10
10.370000000000001
 20
6.96
 10
10.370000000000001
 20
7.07
 10
10.15
 20
7.07
 97
0
 75
0
 76
1
 98
0
  0
LWPOLYLINE
  5
2AB
330
17
100
AcDbEntity
  8
A-SECT-FILL
100
AcDbPolyline
 90
4
 70
1
 10
10.15
 20
6.96
 10
10.370000000000001
 20
6.96
 10
10.370000000000001
 20
7.07
 10
10.15
 20
7.07
  0
TEXT
  5
2AC
330
17
100
AcDbEntity
  8
A-ANNO-TEXT
100
AcDbText
 10
10.43
 20
6.975
 30
0.0
 40
0.05
  1
LOBBY
  7
KS-REG
 11
10.43
 21
6.975
 31
0.0
100
AcDbText
  0
HATCH
  5
2AD
330
17
100
AcDbEntity
  8
A-SECT-FILL
 62
7
420
15789284
100
AcDbHatch
 10
0.0
 20
0.0
 30
0.0
210
0.0
220
0.0
230
1.0
  2
SOLID
 70
1
 71
0
 91
1
 92
3
 72
0
 73
1
 93
4
 10
12.3
 20
6.96
 10
12.520000000000001
 20
6.96
 10
12.520000000000001
 20
7.07
 10
12.3
 20
7.07
 97
0
 75
0
 76
1
 98
0
  0
LWPOLYLINE
  5
2AE
330
17
100
AcDbEntity
  8
A-SECT-FILL
100
AcDbPolyline
 90
4
 70
1
 10
12.3
 20
6.96
 10
12.520000000000001
 20
6.96
 10
12.520000000000001
 20
7.07
 10
12.3
 20
7.07
  0
TEXT
  5
2AF
330
17
100
AcDbEntity
  8
A-ANNO-TEXT
100
AcDbText
 10
12.58
 20
6.975
 30
0.0
 40
0.05
  1
ROOMS / SUPPORT
  7
KS-REG
 11
12.58
 21
6.975
 31
0.0
100
AcDbText
  0
HATCH
  5
2B0
330
17
100
AcDbEntity
  8
A-SECT-FILL
 62
7
420
13619151
100
AcDbHatch
 10
0.0
 20
0.0
 30
0.0
210
0.0
220
0.0
230
1.0
  2
SOLID
 70
1
 71
0
 91
1
 92
3
 72
0
 73
1
 93
4
 10
14.45
 20
6.96
 10
14.67
 20
6.96
 10
14.67
 20
7.07
 10
14.45
 20
7.07
 97
0
 75
0
 76
1
 98
0
  0
LWPOLYLINE
  5
2B1
330
17
100
AcDbEntity
  8
A-SECT-FILL
100
AcDbPolyline
 90
4
 70
1
 10
14.45
 20
6.96
 10
14.67
 20
6.96
 10
14.67
 20
7.07
 10
14.45
 20
7.07
  0
TEXT
  5
2B2
330
17
100
AcDbEntity
  8
A-ANNO-TEXT
100
AcDbText
 10
14.729999999999999
 20
6.975
 30
0.0
 40
0.05
  1
LONG-SPAN STRUCTURE ZONE
  7
KS-REG
 11
14.729999999999999
 21
6.975
 31
0.0
100
AcDbText
  0
TEXT
  5
2B3
330
17
100
AcDbEntity
  8
A-ANNO-TEXT
100
AcDbText
 10
10.15
 20
6.542400000000001
 30
0.0
 40
0.072
  1
HEIGHTS USED (ft above L1 FF 0'-0")
  7
KS-BOLD
 11
10.15
 21
6.542400000000001
 31
0.0
100
AcDbText
  0
TEXT
  5
2B4
330
17
100
AcDbEntity
  8
A-ANNO-TEXT
100
AcDbText
 10
10.15
 20
6.387200000000001
 30
0.0
 40
0.06599999999999999
  1
•
  7
KS-REG
 11
10.15
 21
6.387200000000001
 31
0.0
100
AcDbText
  0
TEXT
  5
2B5
330
17
100
AcDbEntity
  8
A-ANNO-TEXT
100
AcDbText
 10
10.25
 20
6.387200000000001
 30
0.0
 40
0.06599999999999999
  1
L2 FF 15' — ASSUMED (R-015, 15 ft floor-to-floor).
  7
KS-REG
 11
10.25
 21
6.387200000000001
 31
0.0
100
AcDbText
  0
TEXT
  5
2B6
330
17
100
AcDbEntity
  8
A-ANNO-TEXT
100
AcDbText
 10
10.15
 20
6.235950000000002
 30
0.0
 40
0.06599999999999999
  1
•
  7
KS-REG
 11
10.15
 21
6.235950000000002
 31
0.0
100
AcDbText
  0
TEXT
  5
2B7
330
17
100
AcDbEntity
  8
A-ANNO-TEXT
100
AcDbText
 10
10.25
 20
6.235950000000002
 30
0.0
 40
0.06599999999999999
  1
Ring roof 30' — ASSUMED (L2 + 15 ft).
  7
KS-REG
 11
10.25
 21
6.235950000000002
 31
0.0
100
AcDbText
  0
TEXT
  5
2B8
330
17
100
AcDbEntity
  8
A-ANNO-TEXT
100
AcDbText
 10
10.15
 20
6.084700000000002
 30
0.0
 40
0.06599999999999999
  1
•
  7
KS-REG
 11
10.15
 21
6.084700000000002
 31
0.0
100
AcDbText
  0
TEXT
  5
2B9
330
17
100
AcDbEntity
  8
A-ANNO-TEXT
100
AcDbText
 10
10.25
 20
6.084700000000002
 30
0.0
 40
0.06599999999999999
  1
Arena structure underside 36' — ASSUMED; ≥ 25' clear over the
  7
KS-REG
 11
10.25
 21
6.084700000000002
 31
0.0
100
AcDbText
  0
TEXT
  5
2BA
330
17
100
AcDbEntity
  8
A-ANNO-TEXT
100
AcDbText
 10
10.25
 20
5.963700000000002
 30
0.0
 40
0.06599999999999999
  1
floor is CITED (R-019: NFHS via Draper, LA RAP) → 11' margin.
  7
KS-REG
 11
10.25
 21
5.963700000000002
 31
0.0
100
AcDbText
  0
TEXT
  5
2BB
330
17
100
AcDbEntity
  8
A-ANNO-TEXT
100
AcDbText
 10
10.15
 20
5.812450000000003
 30
0.0
 40
0.06599999999999999
  1
•
  7
KS-REG
 11
10.15
 21
5.812450000000003
 31
0.0
100
AcDbText
  0
TEXT
  5
2BC
330
17
100
AcDbEntity
  8
A-ANNO-TEXT
100
AcDbText
 10
10.25
 20
5.812450000000003
 30
0.0
 40
0.06599999999999999
  1
Arena roof top 42' — ASSUMED (36' + 6' long-span structure
  7
KS-REG
 11
10.25
 21
5.812450000000003
 31
0.0
100
AcDbText
  0
TEXT
  5
2BD
330
17
100
AcDbEntity
  8
A-ANNO-TEXT
100
AcDbText
 10
10.25
 20
5.691450000000002
 30
0.0
 40
0.06599999999999999
  1
zone, not engineered).
  7
KS-REG
 11
10.25
 21
5.691450000000002
 31
0.0
100
AcDbText
  0
TEXT
  5
2BE
330
17
100
AcDbEntity
  8
A-ANNO-TEXT
100
AcDbText
 10
10.15
 20
5.540200000000003
 30
0.0
 40
0.06599999999999999
  1
•
  7
KS-REG
 11
10.15
 21
5.540200000000003
 31
0.0
100
AcDbText
  0
TEXT
  5
2BF
330
17
100
AcDbEntity
  8
A-ANNO-TEXT
100
AcDbText
 10
10.25
 20
5.540200000000003
 30
0.0
 40
0.06599999999999999
  1
Slab, wall and roof thicknesses are graphic only (not designed).
  7
KS-REG
 11
10.25
 21
5.540200000000003
 31
0.0
100
AcDbText
  0
TEXT
  5
2C0
330
17
100
AcDbEntity
  8
A-ANNO-TEXT
100
AcDbText
 10
10.25
 20
5.419200000000003
 30
0.0
 40
0.06599999999999999
  1
Parapets TBD.
  7
KS-REG
 11
10.25
 21
5.419200000000003
 31
0.0
100
AcDbText
  0
TEXT
  5
2C1
330
17
100
AcDbEntity
  8
A-ANNO-TEXT
100
AcDbText
 10
10.15
 20
5.208150000000003
 30
0.0
 40
0.072
  1
SEATING
  7
KS-BOLD
 11
10.15
 21
5.208150000000003
 31
0.0
100
AcDbText
  0
TEXT
  5
2C2
330
17
100
AcDbEntity
  8
A-ANNO-TEXT
100
AcDbText
 10
10.15
 20
5.052950000000004
 30
0.0
 40
0.06599999999999999
  1
•
  7
KS-REG
 11
10.15
 21
5.052950000000004
 31
0.0
100
AcDbText
  0
TEXT
  5
2C3
330
17
100
AcDbEntity
  8
A-ANNO-TEXT
100
AcDbText
 10
10.25
 20
5.052950000000004
 30
0.0
 40
0.06599999999999999
  1
Lower tier: telescopic, 6 rows × 24" (R-008, plan Rev D 12'
  7
KS-REG
 11
10.25
 21
5.052950000000004
 31
0.0
100
AcDbText
  0
TEXT
  5
2C4
330
17
100
AcDbEntity
  8
A-ANNO-TEXT
100
AcDbText
 10
10.25
 20
4.931950000000003
 30
0.0
 40
0.06599999999999999
  1
band). Hussey MAXAM rises 9⅝", 11⅝", 16" (CITED); 11⅝"
  7
KS-REG
 11
10.25
 21
4.931950000000003
 31
0.0
100
AcDbText
  0
TEXT
  5
2C5
330
17
100
AcDbEntity
  8
A-ANNO-TEXT
100
AcDbText
 10
10.25
 20
4.810950000000003
 30
0.0
 40
0.06599999999999999
  1
drawn (ASSUMED choice): top seat 6'-3⅛", closed 3'-6" (Hussey
  7
KS-REG
 11
10.25
 21
4.810950000000003
 31
0.0
100
AcDbText
  0
TEXT
  5
2C6
330
17
100
AcDbEntity
  8
A-ANNO-TEXT
100
AcDbText
 10
10.25
 20
4.689950000000002
 30
0.0
 40
0.06599999999999999
  1
tables). Hussey open depth at 24" is 11'-3" vs the 12' band.
  7
KS-REG
 11
10.25
 21
4.689950000000002
 31
0.0
100
AcDbText
  0
TEXT
  5
2C7
330
17
100
AcDbEntity
  8
A-ANNO-TEXT
100
AcDbText
 10
10.15
 20
4.538700000000003
 30
0.0
 40
0.06599999999999999
  1
•
  7
KS-REG
 11
10.15
 21
4.538700000000003
 31
0.0
100
AcDbText
  0
TEXT
  5
2C8
330
17
100
AcDbEntity
  8
A-ANNO-TEXT
100
AcDbText
 10
10.25
 20
4.538700000000003
 30
0.0
 40
0.06599999999999999
  1
Upper tier: fixed, 15' band (plan); 5 rows × 36", 14"/row (2 × 7"
  7
KS-REG
 11
10.25
 21
4.538700000000003
 31
0.0
100
AcDbText
  0
TEXT
  5
2C9
330
17
100
AcDbEntity
  8
A-ANNO-TEXT
100
AcDbText
 10
10.25
 20
4.417700000000003
 30
0.0
 40
0.06599999999999999
  1
aisle risers, 18" treads) — ASSUMED, within IBC 2021
  7
KS-REG
 11
10.25
 21
4.417700000000003
 31
0.0
100
AcDbText
  0
TEXT
  5
2CA
330
17
100
AcDbEntity
  8
A-ANNO-TEXT
100
AcDbText
 10
10.25
 20
4.296700000000002
 30
0.0
 40
0.06599999999999999
  1
1030.14.2. Steps DOWN from the loop (L2 FF = top cross aisle)
  7
KS-REG
 11
10.25
 21
4.296700000000002
 31
0.0
100
AcDbText
  0
TEXT
  5
2CB
330
17
100
AcDbEntity
  8
A-ANNO-TEXT
100
AcDbText
 10
10.25
 20
4.175700000000002
 30
0.0
 40
0.06599999999999999
  1
to a 9.17' front row. Not drawn: tier on the L2 deck rising to ≈
  7
KS-REG
 11
10.25
 21
4.175700000000002
 31
0.0
100
AcDbText
  0
TEXT
  5
2CC
330
17
100
AcDbEntity
  8
A-ANNO-TEXT
100
AcDbText
 10
10.25
 20
4.054700000000001
 30
0.0
 40
0.06599999999999999
  1
21' (the 36' basis in phase2_elev.yaml).
  7
KS-REG
 11
10.25
 21
4.054700000000001
 31
0.0
100
AcDbText
  0
TEXT
  5
2CD
330
17
100
AcDbEntity
  8
A-ANNO-TEXT
100
AcDbText
 10
10.15
 20
3.903450000000001
 30
0.0
 40
0.06599999999999999
  1
•
  7
KS-REG
 11
10.15
 21
3.903450000000001
 31
0.0
100
AcDbText
  0
TEXT
  5
2CE
330
17
100
AcDbEntity
  8
A-ANNO-TEXT
100
AcDbText
 10
10.25
 20
3.903450000000001
 30
0.0
 40
0.06599999999999999
  1
UNDER THE UPPER TIER (D-049 DECIDED): steps DOWN from
  7
KS-REG
 11
10.25
 21
3.903450000000001
 31
0.0
100
AcDbText
  0
TEXT
  5
2CF
330
17
100
AcDbEntity
  8
A-ANNO-TEXT
100
AcDbText
 10
10.25
 20
3.782450000000001
 30
0.0
 40
0.06599999999999999
  1
the loop as drawn; under the low front edge: telescopic stack
  7
KS-REG
 11
10.25
 21
3.782450000000001
 31
0.0
100
AcDbText
  0
TEXT
  5
2D0
330
17
100
AcDbEntity
  8
A-ANNO-TEXT
100
AcDbText
 10
10.25
 20
3.661450000000001
 30
0.0
 40
0.06599999999999999
  1
(at the tier face), storage, mechanical. Lockers only where
  7
KS-REG
 11
10.25
 21
3.661450000000001
 31
0.0
100
AcDbText
  0
TEXT
  5
2D1
330
17
100
AcDbEntity
  8
A-ANNO-TEXT
100
AcDbText
 10
10.25
 20
3.540450000000001
 30
0.0
 40
0.06599999999999999
  1
headroom is full (under the flat L2 slab — ASSUMED reading).
  7
KS-REG
 11
10.25
 21
3.540450000000001
 31
0.0
100
AcDbText
  0
TEXT
  5
2D2
330
17
100
AcDbEntity
  8
A-ANNO-TEXT
100
AcDbText
 10
10.25
 20
3.419450000000001
 30
0.0
 40
0.06599999999999999
  1
Front ≈ 9.2' less structure; exit passages under it need ≥ 7'-6"
  7
KS-REG
 11
10.25
 21
3.419450000000001
 31
0.0
100
AcDbText
  0
TEXT
  5
2D3
330
17
100
AcDbEntity
  8
A-ANNO-TEXT
100
AcDbText
 10
10.25
 20
3.298450000000001
 30
0.0
 40
0.06599999999999999
  1
(1003.2). Event lockers 1–4 re-planned at the next A-101.
  7
KS-REG
 11
10.25
 21
3.298450000000001
 31
0.0
100
AcDbText
  0
TEXT
  5
2D4
330
17
100
AcDbEntity
  8
A-ANNO-TEXT
100
AcDbText
 10
10.15
 20
3.147200000000001
 30
0.0
 40
0.06599999999999999
  1
•
  7
KS-REG
 11
10.15
 21
3.147200000000001
 31
0.0
100
AcDbText
  0
TEXT
  5
2D5
330
17
100
AcDbEntity
  8
A-ANNO-TEXT
100
AcDbText
 10
10.25
 20
3.147200000000001
 30
0.0
 40
0.06599999999999999
  1
SIGHT LINES: P2-A-302 Rev A. Rake unchanged here pending
  7
KS-REG
 11
10.25
 21
3.147200000000001
 31
0.0
100
AcDbText
  0
TEXT
  5
2D6
330
17
100
AcDbEntity
  8
A-ANNO-TEXT
100
AcDbText
 10
10.25
 20
3.026200000000001
 30
0.0
 40
0.06599999999999999
  1
Shane: upper 14"/row fails (C < 60 mm); proposed 19"/row +
  7
KS-REG
 11
10.25
 21
3.026200000000001
 31
0.0
100
AcDbText
  0
TEXT
  5
2D7
330
17
100
AcDbEntity
  8
A-ANNO-TEXT
100
AcDbText
 10
10.25
 20
2.905200000000001
 30
0.0
 40
0.06599999999999999
  1
east tier 6' further out (D-053 OPEN). Closed stack recessed
  7
KS-REG
 11
10.25
 21
2.905200000000001
 31
0.0
100
AcDbText
  0
TEXT
  5
2D8
330
17
100
AcDbEntity
  8
A-ANNO-TEXT
100
AcDbText
 10
10.25
 20
2.784200000000001
 30
0.0
 40
0.06599999999999999
  1
under the tier front conflicts — keep it at the tier face.
  7
KS-REG
 11
10.25
 21
2.784200000000001
 31
0.0
100
AcDbText
  0
TEXT
  5
2D9
330
17
100
AcDbEntity
  8
A-ANNO-TEXT
100
AcDbText
 10
13.350000000000001
 20
6.542400000000001
 30
0.0
 40
0.072
  1
GUARDS
  7
KS-BOLD
 11
13.350000000000001
 21
6.542400000000001
 31
0.0
100
AcDbText
  0
TEXT
  5
2DA
330
17
100
AcDbEntity
  8
A-ANNO-TEXT
100
AcDbText
 10
13.350000000000001
 20
6.387200000000001
 30
0.0
 40
0.06599999999999999
  1
•
  7
KS-REG
 11
13.350000000000001
 21
6.387200000000001
 31
0.0
100
AcDbText
  0
TEXT
  5
2DB
330
17
100
AcDbEntity
  8
A-ANNO-TEXT
100
AcDbText
 10
13.450000000000001
 20
6.387200000000001
 30
0.0
 40
0.06599999999999999
  1
Loop open edges G-W (x = 56) and G-S (y = 34): 42" guards,
  7
KS-REG
 11
13.450000000000001
 21
6.387200000000001
 31
0.0
100
AcDbText
  0
TEXT
  5
2DC
330
17
100
AcDbEntity
  8
A-ANNO-TEXT
100
AcDbText
 10
13.450000000000001
 20
6.2662
 30
0.0
 40
0.06599999999999999
  1
IBC 2021 1015.2 / 1015.3.
  7
KS-REG
 11
13.450000000000001
 21
6.2662
 31
0.0
100
AcDbText
  0
TEXT
  5
2DD
330
17
100
AcDbEntity
  8
A-ANNO-TEXT
100
AcDbText
 10
13.350000000000001
 20
6.114950000000001
 30
0.0
 40
0.06599999999999999
  1
•
  7
KS-REG
 11
13.350000000000001
 21
6.114950000000001
 31
0.0
100
AcDbText
  0
TEXT
  5
2DE
330
17
100
AcDbEntity
  8
A-ANNO-TEXT
100
AcDbText
 10
13.450000000000001
 20
6.114950000000001
 30
0.0
 40
0.06599999999999999
  1
Upper-tier front: sightline-constrained fascia ≥ 26"
  7
KS-REG
 11
13.450000000000001
 21
6.114950000000001
 31
0.0
100
AcDbText
  0
TEXT
  5
2DF
330
17
100
AcDbEntity
  8
A-ANNO-TEXT
100
AcDbText
 10
13.450000000000001
 20
5.993950000000001
 30
0.0
 40
0.06599999999999999
  1
(1030.17.3); 36" at the foot of aisles (1030.17.4). Type TBD.
  7
KS-REG
 11
13.450000000000001
 21
5.993950000000001
 31
0.0
100
AcDbText
  0
TEXT
  5
2E0
330
17
100
AcDbEntity
  8
A-ANNO-TEXT
100
AcDbText
 10
13.350000000000001
 20
5.7829000000000015
 30
0.0
 40
0.072
  1
STAIRS (ST-1..ST-4)
  7
KS-BOLD
 11
13.350000000000001
 21
5.7829000000000015
 31
0.0
100
AcDbText
  0
TEXT
  5
2E1
330
17
100
AcDbEntity
  8
A-ANNO-TEXT
100
AcDbText
 10
13.350000000000001
 20
5.627700000000002
 30
0.0
 40
0.06599999999999999
  1
•
  7
KS-REG
 11
13.350000000000001
 21
5.627700000000002
 31
0.0
100
AcDbText
  0
TEXT
  5
2E2
330
17
100
AcDbEntity
  8
A-ANNO-TEXT
100
AcDbText
 10
13.450000000000001
 20
5.627700000000002
 30
0.0
 40
0.06599999999999999
  1
70" clear — D-038 CLOSED (Shane 6:45 AM CT). Handrail
  7
KS-REG
 11
13.450000000000001
 21
5.627700000000002
 31
0.0
100
AcDbText
  0
TEXT
  5
2E3
330
17
100
AcDbEntity
  8
A-ANNO-TEXT
100
AcDbText
 10
13.450000000000001
 20
5.506700000000001
 30
0.0
 40
0.06599999999999999
  1
projections ≤ 4½" each side (1014.8): architect to confirm how
  7
KS-REG
 11
13.450000000000001
 21
5.506700000000001
 31
0.0
100
AcDbText
  0
TEXT
  5
2E4
330
17
100
AcDbEntity
  8
A-ANNO-TEXT
100
AcDbText
 10
13.450000000000001
 20
5.385700000000001
 30
0.0
 40
0.06599999999999999
  1
'clear' is measured.
  7
KS-REG
 11
13.450000000000001
 21
5.385700000000001
 31
0.0
100
AcDbText
  0
TEXT
  5
2E5
330
17
100
AcDbEntity
  8
A-ANNO-TEXT
100
AcDbText
 10
13.350000000000001
 20
5.234450000000002
 30
0.0
 40
0.06599999999999999
  1
•
  7
KS-REG
 11
13.350000000000001
 21
5.234450000000002
 31
0.0
100
AcDbText
  0
TEXT
  5
2E6
330
17
100
AcDbEntity
  8
A-ANNO-TEXT
100
AcDbText
 10
13.450000000000001
 20
5.234450000000002
 30
0.0
 40
0.06599999999999999
  1
26 risers @ 6.92" (15' ÷ 26), 2 flights of 13, 11" treads
  7
KS-REG
 11
13.450000000000001
 21
5.234450000000002
 31
0.0
100
AcDbText
  0
TEXT
  5
2E7
330
17
100
AcDbEntity
  8
A-ANNO-TEXT
100
AcDbText
 10
13.450000000000001
 20
5.113450000000001
 30
0.0
 40
0.06599999999999999
  1
(1011.5.2). Intermediate (switchback) landing 70" = stair
  7
KS-REG
 11
13.450000000000001
 21
5.113450000000001
 31
0.0
100
AcDbText
  0
TEXT
  5
2E8
330
17
100
AcDbEntity
  8
A-ANNO-TEXT
100
AcDbText
 10
13.450000000000001
 20
4.992450000000001
 30
0.0
 40
0.06599999999999999
  1
width (1011.6 width rule at the 180° turn; 48" = straight-run
  7
KS-REG
 11
13.450000000000001
 21
4.992450000000001
 31
0.0
100
AcDbText
  0
TEXT
  5
2E9
330
17
100
AcDbEntity
  8
A-ANNO-TEXT
100
AcDbText
 10
13.450000000000001
 20
4.87145
 30
0.0
 40
0.06599999999999999
  1
depth) — D-051; floor landings 48". Typical shown (not on A-A /
  7
KS-REG
 11
13.450000000000001
 21
4.87145
 31
0.0
100
AcDbText
  0
TEXT
  5
2EA
330
17
100
AcDbEntity
  8
A-ANNO-TEXT
100
AcDbText
 10
13.450000000000001
 20
4.75045
 30
0.0
 40
0.06599999999999999
  1
B-B).
  7
KS-REG
 11
13.450000000000001
 21
4.75045
 31
0.0
100
AcDbText
  0
TEXT
  5
2EB
330
17
100
AcDbEntity
  8
A-ANNO-TEXT
100
AcDbText
 10
13.350000000000001
 20
4.599200000000001
 30
0.0
 40
0.06599999999999999
  1
•
  7
KS-REG
 11
13.350000000000001
 21
4.599200000000001
 31
0.0
100
AcDbText
  0
TEXT
  5
2EC
330
17
100
AcDbEntity
  8
A-ANNO-TEXT
100
AcDbText
 10
13.450000000000001
 20
4.599200000000001
 30
0.0
 40
0.06599999999999999
  1
Per stair: 11.67' × 20.83' (2 × 70" by 48 + 132 + 70") = 243.1
  7
KS-REG
 11
13.450000000000001
 21
4.599200000000001
 31
0.0
100
AcDbText
  0
TEXT
  5
2ED
330
17
100
AcDbEntity
  8
A-ANNO-TEXT
100
AcDbText
 10
13.450000000000001
 20
4.4782
 30
0.0
 40
0.06599999999999999
  1
SF per level, clear — +37.9 SF vs the frozen 10.8' × 19'
  7
KS-REG
 11
13.450000000000001
 21
4.4782
 31
0.0
100
AcDbText
  0
TEXT
  5
2EE
330
17
100
AcDbEntity
  8
A-ANNO-TEXT
100
AcDbText
 10
13.450000000000001
 20
4.3572
 30
0.0
 40
0.06599999999999999
  1
(205.2); × 4 stairs × 2 levels ≈ +303 GSF at the next
  7
KS-REG
 11
13.450000000000001
 21
4.3572
 31
0.0
100
AcDbText
  0
TEXT
  5
2EF
330
17
100
AcDbEntity
  8
A-ANNO-TEXT
100
AcDbText
 10
13.450000000000001
 20
4.236199999999999
 30
0.0
 40
0.06599999999999999
  1
A-101/A-102 revision. Egress worst case still 12.4" short:
  7
KS-REG
 11
13.450000000000001
 21
4.236199999999999
 31
0.0
100
AcDbText
  0
TEXT
  5
2F0
330
17
100
AcDbEntity
  8
A-ANNO-TEXT
100
AcDbText
 10
13.450000000000001
 20
4.115199999999999
 30
0.0
 40
0.06599999999999999
  1
proposed 4 × 76" stairs (D-052 OPEN, R-018.9) — not drawn.
  7
KS-REG
 11
13.450000000000001
 21
4.115199999999999
 31
0.0
100
AcDbText
  0
TEXT
  5
2F1
330
17
100
AcDbEntity
  8
A-ANNO-TEXT
100
AcDbText
 10
13.350000000000001
 20
3.904149999999999
 30
0.0
 40
0.072
  1
ROOF HEIGHT (IBC 2021 1030.6.2.2)
  7
KS-BOLD
 11
13.350000000000001
 21
3.904149999999999
 31
0.0
100
AcDbText
  0
TEXT
  5
2F2
330
17
100
AcDbEntity
  8
A-ANNO-TEXT
100
AcDbText
 10
13.350000000000001
 20
3.748949999999999
 30
0.0
 40
0.06599999999999999
  1
•
  7
KS-REG
 11
13.350000000000001
 21
3.748949999999999
 31
0.0
100
AcDbText
  0
TEXT
  5
2F3
330
17
100
AcDbEntity
  8
A-ANNO-TEXT
100
AcDbText
 10
13.450000000000001
 20
3.748949999999999
 30
0.0
 40
0.06599999999999999
  1
Applies only if smoke-protected seating is used: lowest roof
  7
KS-REG
 11
13.450000000000001
 21
3.748949999999999
 31
0.0
100
AcDbText
  0
TEXT
  5
2F4
330
17
100
AcDbEntity
  8
A-ANNO-TEXT
100
AcDbText
 10
13.450000000000001
 20
3.627949999999999
 30
0.0
 40
0.06599999999999999
  1
deck ≥ 15' above the highest aisle. Highest aisle = the loop at
  7
KS-REG
 11
13.450000000000001
 21
3.627949999999999
 31
0.0
100
AcDbText
  0
TEXT
  5
2F5
330
17
100
AcDbEntity
  8
A-ANNO-TEXT
100
AcDbText
 10
13.450000000000001
 20
3.506949999999999
 30
0.0
 40
0.06599999999999999
  1
15' → ≥ 30'; 36' drawn.
  7
KS-REG
 11
13.450000000000001
 21
3.506949999999999
 31
0.0
100
AcDbText
  0
TEXT
  5
2F6
330
17
100
AcDbEntity
  8
A-ANNO-TEXT
100
AcDbText
 10
13.350000000000001
 20
3.295899999999999
 30
0.0
 40
0.072
  1
CUTS
  7
KS-BOLD
 11
13.350000000000001
 21
3.295899999999999
 31
0.0
100
AcDbText
  0
TEXT
  5
2F7
330
17
100
AcDbEntity
  8
A-ANNO-TEXT
100
AcDbText
 10
13.350000000000001
 20
3.140699999999999
 30
0.0
 40
0.06599999999999999
  1
•
  7
KS-REG
 11
13.350000000000001
 21
3.140699999999999
 31
0.0
100
AcDbText
  0
TEXT
  5
2F8
330
17
100
AcDbEntity
  8
A-ANNO-TEXT
100
AcDbText
 10
13.450000000000001
 20
3.140699999999999
 30
0.0
 40
0.06599999999999999
  1
A-A: x = 100, looking west (south at left). B-B: y = 150, looking
  7
KS-REG
 11
13.450000000000001
 21
3.140699999999999
 31
0.0
100
AcDbText
  0
TEXT
  5
2F9
330
17
100
AcDbEntity
  8
A-ANNO-TEXT
100
AcDbText
 10
13.450000000000001
 20
3.019699999999999
 30
0.0
 40
0.06599999999999999
  1
north (west at left). Geometry from P2-A-101/102 Rev D
  7
KS-REG
 11
13.450000000000001
 21
3.019699999999999
 31
0.0
100
AcDbText
  0
TEXT
  5
2FA
330
17
100
AcDbEntity
  8
A-ANNO-TEXT
100
AcDbText
 10
13.450000000000001
 20
2.898699999999999
 30
0.0
 40
0.06599999999999999
  1
(frozen).
  7
KS-REG
 11
13.450000000000001
 21
2.898699999999999
 31
0.0
100
AcDbText
  0
TEXT
  5
2FB
330
17
100
AcDbEntity
  8
A-ANNO-TEXT
100
AcDbText
 10
13.350000000000001
 20
2.747449999999999
 30
0.0
 40
0.06599999999999999
  1
•
  7
KS-REG
 11
13.350000000000001
 21
2.747449999999999
 31
0.0
100
AcDbText
  0
TEXT
  5
2FC
330
17
100
AcDbEntity
  8
A-ANNO-TEXT
100
AcDbText
 10
13.450000000000001
 20
2.747449999999999
 30
0.0
 40
0.06599999999999999
  1
Colors are graphic only; materials TBD. 'A' = ASSUMED.
  7
KS-REG
 11
13.450000000000001
 21
2.747449999999999
 31
0.0
100
AcDbText
  0
ENDSEC
  0
SECTION
  2
OBJECTS
  0
DICTIONARY
  5
A
330
0
100
AcDbDictionary
281
1
  3
ACAD_COLOR
350
B
  3
ACAD_GROUP
350
C
  3
ACAD_LAYOUT
350
D
  3
ACAD_MATERIAL
350
E
  3
ACAD_MLEADERSTYLE
350
F
  3
ACAD_MLINESTYLE
350
10
  3
ACAD_PLOTSETTINGS
350
11
  3
ACAD_PLOTSTYLENAME
350
12
  3
ACAD_SCALELIST
350
14
  3
ACAD_TABLESTYLE
350
15
  3
ACAD_VISUALSTYLE
350
16
  3
EZDXF_META
350
2D
  0
DICTIONARY
  5
B
330
A
100
AcDbDictionary
281
1
  0
DICTIONARY
  5
C
330
A
100
AcDbDictionary
281
1
  0
DICTIONARY
  5
D
330
A
100
AcDbDictionary
281
1
  3
Model
350
1A
  3
Layout1
350
1E
  0
DICTIONARY
  5
E
330
A
100
AcDbDictionary
281
1
  3
ByBlock
350
1F
  3
ByLayer
350
20
  3
Global
350
21
  0
DICTIONARY
  5
F
330
A
100
AcDbDictionary
281
1
  3
Standard
350
2C
  0
DICTIONARY
  5
10
330
A
100
AcDbDictionary
281
1
  3
Standard
350
22
  0
DICTIONARY
  5
11
330
A
100
AcDbDictionary
281
1
  0
ACDBDICTIONARYWDFLT
  5
12
330
A
100
AcDbDictionary
281
1
  3
Normal
350
13
100
AcDbDictionaryWithDefault
340
13
  0
ACDBPLACEHOLDER
  5
13
330
12
  0
DICTIONARY
  5
14
330
A
100
AcDbDictionary
281
1
  0
DICTIONARY
  5
15
330
A
100
AcDbDictionary
281
1
  0
DICTIONARY
  5
16
330
A
100
AcDbDictionary
281
1
  0
LAYOUT
  5
1A
330
D
100
AcDbPlotSettings
  1

  4
A3
  6

 40
7.5
 41
20.0
 42
7.5
 43
20.0
 44
420.0
 45
297.0
 46
0.0
 47
0.0
 48
0.0
 49
0.0
140
0.0
141
0.0
142
1.0
143
1.0
 70
1024
 72
1
 73
0
 74
5
  7

 75
16
 76
0
 77
2
 78
300
147
1.0
148
0.0
149
0.0
100
AcDbLayout
  1
Model
 70
1
 71
0
 10
0.0
 20
0.0
 11
420.0
 21
297.0
 12
0.0
 22
0.0
 32
0.0
 14
1e+20
 24
1e+20
 34
1e+20
 15
-1e+20
 25
-1e+20
 35
-1e+20
146
0.0
 13
0.0
 23
0.0
 33
0.0
 16
1.0
 26
0.0
 36
0.0
 17
0.0
 27
1.0
 37
0.0
 76
1
330
17
  0
LAYOUT
  5
1E
330
D
100
AcDbPlotSettings
  1

  4
A3
  6

 40
7.5
 41
20.0
 42
7.5
 43
20.0
 44
420.0
 45
297.0
 46
0.0
 47
0.0
 48
0.0
 49
0.0
140
0.0
141
0.0
142
1.0
143
1.0
 70
0
 72
1
 73
0
 74
5
  7

 75
16
 76
0
 77
2
 78
300
147
1.0
148
0.0
149
0.0
100
AcDbLayout
  1
Layout1
 70
1
 71
1
 10
0.0
 20
0.0
 11
420.0
 21
297.0
 12
0.0
 22
0.0
 32
0.0
 14
1e+20
 24
1e+20
 34
1e+20
 15
-1e+20
 25
-1e+20
 35
-1e+20
146
0.0
 13
0.0
 23
0.0
 33
0.0
 16
1.0
 26
0.0
 36
0.0
 17
0.0
 27
1.0
 37
0.0
 76
1
330
1B
  0
MATERIAL
  5
1F
102
{ACAD_REACTORS
330
E
102
}
330
E
100
AcDbMaterial
  1
ByBlock
  2

 70
0
 40
1.0
 71
1
 41
1.0
 91
-1023410177
 42
1.0
 72
1
  3

 73
1
 74
1
 75
1
 44
0.5
 73
0
 45
1.0
 46
1.0
 77
1
  4

 78
1
 79
1
170
1
 48
1.0
171
1
  6

172
1
173
1
174
1
140
1.0
141
1.0
175
1
  7

176
1
177
1
178
1
143
1.0
179
1
  8

270
1
271
1
272
1
145
1.0
146
1.0
273
1
  9

274
1
275
1
276
1
 42
1.0
 72
1
  3

 73
1
 74
1
 75
1
 94
63
  0
MATERIAL
  5
20
102
{ACAD_REACTORS
330
E
102
}
330
E
100
AcDbMaterial
  1
ByLayer
  2

 70
0
 40
1.0
 71
1
 41
1.0
 91
-1023410177
 42
1.0
 72
1
  3

 73
1
 74
1
 75
1
 44
0.5
 73
0
 45
1.0
 46
1.0
 77
1
  4

 78
1
 79
1
170
1
 48
1.0
171
1
  6

172
1
173
1
174
1
140
1.0
141
1.0
175
1
  7

176
1
177
1
178
1
143
1.0
179
1
  8

270
1
271
1
272
1
145
1.0
146
1.0
273
1
  9

274
1
275
1
276
1
 42
1.0
 72
1
  3

 73
1
 74
1
 75
1
 94
63
  0
MATERIAL
  5
21
102
{ACAD_REACTORS
330
E
102
}
330
E
100
AcDbMaterial
  1
Global
  2

 70
0
 40
1.0
 71
1
 41
1.0
 91
-1023410177
 42
1.0
 72
1
  3

 73
1
 74
1
 75
1
 44
0.5
 73
0
 45
1.0
 46
1.0
 77
1
  4

 78
1
 79
1
170
1
 48
1.0
171
1
  6

172
1
173
1
174
1
140
1.0
141
1.0
175
1
  7

176
1
177
1
178
1
143
1.0
179
1
  8

270
1
271
1
272
1
145
1.0
146
1.0
273
1
  9

274
1
275
1
276
1
 42
1.0
 72
1
  3

 73
1
 74
1
 75
1
 94
63
  0
MLINESTYLE
  5
22
102
{ACAD_REACTORS
330
10
102
}
330
10
100
AcDbMlineStyle
  2
Standard
 70
0
  3

 62
256
 51
90.0
 52
90.0
 71
2
 49
0.5
 62
256
  6
BYLAYER
 49
-0.5
 62
256
  6
BYLAYER
  0
MLEADERSTYLE
  5
2C
102
{ACAD_REACTORS
330
F
102
}
330
F
100
AcDbMLeaderStyle
179
2
170
2
171
1
172
0
 90
2
 40
0.0
 41
0.0
173
1
 91
-1056964608
 92
-2
290
1
 42
2.0
291
1
 43
8.0
  3
Standard
 44
4.0
300

342
29
174
1
175
1
176
0
178
1
 93
-1056964608
 45
4.0
292
0
297
0
 46
4.0
 94
-1056964608
 47
1.0
 49
1.0
140
1.0
294
1
141
0.0
177
0
142
1.0
295
0
296
0
143
3.75
271
0
272
9
273
9
  0
DICTIONARY
  5
2D
330
A
100
AcDbDictionary
280
1
281
1
  3
CREATED_BY_EZDXF
350
2E
  3
WRITTEN_BY_EZDXF
350
2FF
  0
DICTIONARYVAR
  5
2E
330
2D
100
DictionaryVariables
280
0
  1
1.4.4 @ 2026-10-04T12:37:50.067176+00:00
  0
DICTIONARYVAR
  5
2FF
330
2D
100
DictionaryVariables
280
0
  1
1.4.4 @ 2026-10-04T12:37:50.081613+00:00
  0
ENDSEC
  0
EOF
