  0
SECTION
  2
HEADER
  9
$ACADVER
  1
AC1024
  9
$ACADMAINTVER
 70
6
  9
$DWGCODEPAGE
  3
ANSI_1252
  9
$LASTSAVEDBY
  1
ezdxf
  9
$INSBASE
 10
0.0
 20
0.0
 30
0.0
  9
$EXTMIN
 10
1e+20
 20
1e+20
 30
1e+20
  9
$EXTMAX
 10
-1e+20
 20
-1e+20
 30
-1e+20
  9
$LIMMIN
 10
0.0
 20
0.0
  9
$LIMMAX
 10
420.0
 20
297.0
  9
$ORTHOMODE
 70
0
  9
$REGENMODE
 70
1
  9
$FILLMODE
 70
1
  9
$QTEXTMODE
 70
0
  9
$MIRRTEXT
 70
1
  9
$LTSCALE
 40
1.0
  9
$ATTMODE
 70
1
  9
$TEXTSIZE
 40
2.5
  9
$TRACEWID
 40
1.0
  9
$TEXTSTYLE
  7
Standard
  9
$CLAYER
  8
0
  9
$CELTYPE
  6
ByLayer
  9
$CECOLOR
 62
256
  9
$CELTSCALE
 40
1.0
  9
$DISPSILH
 70
0
  9
$DIMSCALE
 40
1.0
  9
$DIMASZ
 40
2.5
  9
$DIMEXO
 40
0.625
  9
$DIMDLI
 40
3.75
  9
$DIMRND
 40
0.0
  9
$DIMDLE
 40
0.0
  9
$DIMEXE
 40
1.25
  9
$DIMTP
 40
0.0
  9
$DIMTM
 40
0.0
  9
$DIMTXT
 40
2.5
  9
$DIMCEN
 40
2.5
  9
$DIMTSZ
 40
0.0
  9
$DIMTOL
 70
0
  9
$DIMLIM
 70
0
  9
$DIMTIH
 70
0
  9
$DIMTOH
 70
0
  9
$DIMSE1
 70
0
  9
$DIMSE2
 70
0
  9
$DIMTAD
 70
1
  9
$DIMZIN
 70
8
  9
$DIMBLK
  1

  9
$DIMASO
 70
1
  9
$DIMSHO
 70
1
  9
$DIMPOST
  1

  9
$DIMAPOST
  1

  9
$DIMALT
 70
0
  9
$DIMALTD
 70
3
  9
$DIMALTF
 40
0.03937007874
  9
$DIMLFAC
 40
1.0
  9
$DIMTOFL
 70
1
  9
$DIMTVP
 40
0.0
  9
$DIMTIX
 70
0
  9
$DIMSOXD
 70
0
  9
$DIMSAH
 70
0
  9
$DIMBLK1
  1

  9
$DIMBLK2
  1

  9
$DIMSTYLE
  2
ISO-25
  9
$DIMCLRD
 70
0
  9
$DIMCLRE
 70
0
  9
$DIMCLRT
 70
0
  9
$DIMTFAC
 40
1.0
  9
$DIMGAP
 40
0.625
  9
$DIMJUST
 70
0
  9
$DIMSD1
 70
0
  9
$DIMSD2
 70
0
  9
$DIMTOLJ
 70
0
  9
$DIMTZIN
 70
8
  9
$DIMALTZ
 70
0
  9
$DIMALTTZ
 70
0
  9
$DIMUPT
 70
0
  9
$DIMDEC
 70
2
  9
$DIMTDEC
 70
2
  9
$DIMALTU
 70
2
  9
$DIMALTTD
 70
3
  9
$DIMTXSTY
  7
Standard
  9
$DIMAUNIT
 70
0
  9
$DIMADEC
 70
0
  9
$DIMALTRND
 40
0.0
  9
$DIMAZIN
 70
0
  9
$DIMDSEP
 70
44
  9
$DIMATFIT
 70
3
  9
$DIMFRAC
 70
0
  9
$DIMLDRBLK
  1

  9
$DIMLUNIT
 70
2
  9
$DIMLWD
 70
-2
  9
$DIMLWE
 70
-2
  9
$DIMTMOVE
 70
0
  9
$DIMFXL
 40
1.0
  9
$DIMFXLON
 70
0
  9
$DIMJOGANG
 40
0.785398163397
  9
$DIMTFILL
 70
0
  9
$DIMTFILLCLR
 70
0
  9
$DIMARCSYM
 70
0
  9
$DIMLTYPE
  6

  9
$DIMLTEX1
  6

  9
$DIMLTEX2
  6

  9
$DIMTXTDIRECTION
 70
0
  9
$LUNITS
 70
2
  9
$LUPREC
 70
4
  9
$SKETCHINC
 40
1.0
  9
$FILLETRAD
 40
10.0
  9
$AUNITS
 70
0
  9
$AUPREC
 70
2
  9
$MENU
  1
.
  9
$ELEVATION
 40
0.0
  9
$PELEVATION
 40
0.0
  9
$THICKNESS
 40
0.0
  9
$LIMCHECK
 70
0
  9
$CHAMFERA
 40
0.0
  9
$CHAMFERB
 40
0.0
  9
$CHAMFERC
 40
0.0
  9
$CHAMFERD
 40
0.0
  9
$SKPOLY
 70
0
  9
$TDCREATE
 40
2461318.5780439815
  9
$TDUCREATE
 40
2458532.153996898
  9
$TDUPDATE
 40
2461318.5780439815
  9
$TDUUPDATE
 40
2458532.1544311
  9
$TDINDWG
 40
0.0
  9
$TDUSRTIMER
 40
0.0
  9
$USRTIMER
 70
1
  9
$ANGBASE
 50
0.0
  9
$ANGDIR
 70
0
  9
$PDMODE
 70
0
  9
$PDSIZE
 40
0.0
  9
$PLINEWID
 40
0.0
  9
$SPLFRAME
 70
0
  9
$SPLINETYPE
 70
6
  9
$SPLINESEGS
 70
8
  9
$HANDSEED
  5
36F
  9
$SURFTAB1
 70
6
  9
$SURFTAB2
 70
6
  9
$SURFTYPE
 70
6
  9
$SURFU
 70
6
  9
$SURFV
 70
6
  9
$UCSBASE
  2

  9
$UCSNAME
  2

  9
$UCSORG
 10
0.0
 20
0.0
 30
0.0
  9
$UCSXDIR
 10
1.0
 20
0.0
 30
0.0
  9
$UCSYDIR
 10
0.0
 20
1.0
 30
0.0
  9
$UCSORTHOREF
  2

  9
$UCSORTHOVIEW
 70
0
  9
$UCSORGTOP
 10
0.0
 20
0.0
 30
0.0
  9
$UCSORGBOTTOM
 10
0.0
 20
0.0
 30
0.0
  9
$UCSORGLEFT
 10
0.0
 20
0.0
 30
0.0
  9
$UCSORGRIGHT
 10
0.0
 20
0.0
 30
0.0
  9
$UCSORGFRONT
 10
0.0
 20
0.0
 30
0.0
  9
$UCSORGBACK
 10
0.0
 20
0.0
 30
0.0
  9
$PUCSBASE
  2

  9
$PUCSNAME
  2

  9
$PUCSORG
 10
0.0
 20
0.0
 30
0.0
  9
$PUCSXDIR
 10
1.0
 20
0.0
 30
0.0
  9
$PUCSYDIR
 10
0.0
 20
1.0
 30
0.0
  9
$PUCSORTHOREF
  2

  9
$PUCSORTHOVIEW
 70
0
  9
$PUCSORGTOP
 10
0.0
 20
0.0
 30
0.0
  9
$PUCSORGBOTTOM
 10
0.0
 20
0.0
 30
0.0
  9
$PUCSORGLEFT
 10
0.0
 20
0.0
 30
0.0
  9
$PUCSORGRIGHT
 10
0.0
 20
0.0
 30
0.0
  9
$PUCSORGFRONT
 10
0.0
 20
0.0
 30
0.0
  9
$PUCSORGBACK
 10
0.0
 20
0.0
 30
0.0
  9
$USERI1
 70
0
  9
$USERI2
 70
0
  9
$USERI3
 70
0
  9
$USERI4
 70
0
  9
$USERI5
 70
0
  9
$USERR1
 40
0.0
  9
$USERR2
 40
0.0
  9
$USERR3
 40
0.0
  9
$USERR4
 40
0.0
  9
$USERR5
 40
0.0
  9
$WORLDVIEW
 70
1
  9
$SHADEDGE
 70
3
  9
$SHADEDIF
 70
70
  9
$TILEMODE
 70
1
  9
$MAXACTVP
 70
64
  9
$PINSBASE
 10
0.0
 20
0.0
 30
0.0
  9
$PLIMCHECK
 70
0
  9
$PEXTMIN
 10
1e+20
 20
1e+20
 30
1e+20
  9
$PEXTMAX
 10
-1e+20
 20
-1e+20
 30
-1e+20
  9
$PLIMMIN
 10
0.0
 20
0.0
  9
$PLIMMAX
 10
420.0
 20
297.0
  9
$UNITMODE
 70
0
  9
$VISRETAIN
 70
1
  9
$PLINEGEN
 70
0
  9
$PSLTSCALE
 70
1
  9
$TREEDEPTH
 70
3020
  9
$CMLSTYLE
  2
Standard
  9
$CMLJUST
 70
0
  9
$CMLSCALE
 40
20.0
  9
$PROXYGRAPHICS
 70
1
  9
$MEASUREMENT
 70
0
  9
$CELWEIGHT
370
-1
  9
$ENDCAPS
280
0
  9
$JOINSTYLE
280
0
  9
$LWDISPLAY
290
0
  9
$INSUNITS
 70
1
  9
$HYPERLINKBASE
  1

  9
$STYLESHEET
  1

  9
$XEDIT
290
1
  9
$CEPSNTYPE
380
0
  9
$PSTYLEMODE
290
1
  9
$FINGERPRINTGUID
  2
{76A41A8F-AE42-4906-A254-C753D7A151F8}
  9
$VERSIONGUID
  2
{617659FB-D678-44B4-9A33-5D4D915FBE49}
  9
$EXTNAMES
290
1
  9
$PSVPSCALE
 40
0.0
  9
$OLESTARTUP
290
0
  9
$SORTENTS
280
127
  9
$INDEXCTL
280
0
  9
$HIDETEXT
280
1
  9
$XCLIPFRAME
280
1
  9
$HALOGAP
280
0
  9
$OBSCOLOR
 70
257
  9
$OBSLTYPE
280
0
  9
$INTERSECTIONDISPLAY
280
0
  9
$INTERSECTIONCOLOR
 70
257
  9
$DIMASSOC
280
2
  9
$PROJECTNAME
  1

  9
$CAMERADISPLAY
290
0
  9
$LENSLENGTH
 40
50.0
  9
$CAMERAHEIGHT
 40
0.0
  9
$STEPSPERSEC
 40
24.0
  9
$STEPSIZE
 40
100.0
  9
$3DDWFPREC
 40
2.0
  9
$PSOLWIDTH
 40
0.005
  9
$PSOLHEIGHT
 40
0.08
  9
$LOFTANG1
 40
1.570796326795
  9
$LOFTANG2
 40
1.570796326795
  9
$LOFTMAG1
 40
0.0
  9
$LOFTMAG2
 40
0.0
  9
$LOFTPARAM
 70
7
  9
$LOFTNORMALS
280
1
  9
$LATITUDE
 40
37.795
  9
$LONGITUDE
 40
-122.394
  9
$NORTHDIRECTION
 40
0.0
  9
$TIMEZONE
 70
-8000
  9
$LIGHTGLYPHDISPLAY
280
1
  9
$TILEMODELIGHTSYNCH
280
1
  9
$CMATERIAL
347
20
  9
$SOLIDHIST
280
0
  9
$SHOWHIST
280
1
  9
$DWFFRAME
280
2
  9
$DGNFRAME
280
2
  9
$REALWORLDSCALE
290
1
  9
$INTERFERECOLOR
 62
256
  9
$CSHADOW
280
0
  9
$SHADOWPLANELOCATION
 40
0.0
  0
ENDSEC
  0
SECTION
  2
CLASSES
  0
CLASS
  1
ACDBDICTIONARYWDFLT
  2
AcDbDictionaryWithDefault
  3
ObjectDBX Classes
 90
0
 91
0
280
0
281
0
  0
CLASS
  1
SUN
  2
AcDbSun
  3
SCENEOE
 90
1153
 91
0
280
0
281
0
  0
CLASS
  1
VISUALSTYLE
  2
AcDbVisualStyle
  3
ObjectDBX Classes
 90
4095
 91
0
280
0
281
0
  0
CLASS
  1
MATERIAL
  2
AcDbMaterial
  3
ObjectDBX Classes
 90
1153
 91
0
280
0
281
0
  0
CLASS
  1
SCALE
  2
AcDbScale
  3
ObjectDBX Classes
 90
1153
 91
0
280
0
281
0
  0
CLASS
  1
TABLESTYLE
  2
AcDbTableStyle
  3
ObjectDBX Classes
 90
4095
 91
0
280
0
281
0
  0
CLASS
  1
MLEADERSTYLE
  2
AcDbMLeaderStyle
  3
ACDB_MLEADERSTYLE_CLASS
 90
4095
 91
0
280
0
281
0
  0
CLASS
  1
DICTIONARYVAR
  2
AcDbDictionaryVar
  3
ObjectDBX Classes
 90
0
 91
0
280
0
281
0
  0
CLASS
  1
CELLSTYLEMAP
  2
AcDbCellStyleMap
  3
ObjectDBX Classes
 90
1152
 91
0
280
0
281
0
  0
CLASS
  1
MENTALRAYRENDERSETTINGS
  2
AcDbMentalRayRenderSettings
  3
SCENEOE
 90
1024
 91
0
280
0
281
0
  0
CLASS
  1
ACDBDETAILVIEWSTYLE
  2
AcDbDetailViewStyle
  3
ObjectDBX Classes
 90
1025
 91
0
280
0
281
0
  0
CLASS
  1
ACDBSECTIONVIEWSTYLE
  2
AcDbSectionViewStyle
  3
ObjectDBX Classes
 90
1025
 91
0
280
0
281
0
  0
CLASS
  1
RASTERVARIABLES
  2
AcDbRasterVariables
  3
ISM
 90
0
 91
0
280
0
281
0
  0
CLASS
  1
ACDBPLACEHOLDER
  2
AcDbPlaceHolder
  3
ObjectDBX Classes
 90
0
 91
0
280
0
281
0
  0
CLASS
  1
LAYOUT
  2
AcDbLayout
  3
ObjectDBX Classes
 90
0
 91
0
280
0
281
0
  0
ENDSEC
  0
SECTION
  2
TABLES
  0
TABLE
  2
VPORT
  5
8
330
0
100
AcDbSymbolTable
 70
1
  0
VPORT
  5
23
330
8
100
AcDbSymbolTableRecord
100
AcDbViewportTableRecord
  2
*Active
 70
0
 10
0.0
 20
0.0
 11
1.0
 21
1.0
 12
0.0
 22
0.0
 13
0.0
 23
0.0
 14
0.5
 24
0.5
 15
0.5
 25
0.5
 16
0.0
 26
0.0
 36
1.0
 17
0.0
 27
0.0
 37
0.0
 40
1000.0
 41
1.34
 42
50.0
 43
0.0
 44
0.0
 50
0.0
 51
0.0
 71
0
 72
1000
 73
1
 74
3
 75
0
 76
0
 77
0
 78
0
281
0
 65
0
146
0.0
  0
ENDTAB
  0
TABLE
  2
LTYPE
  5
2
330
0
100
AcDbSymbolTable
 70
3
  0
LTYPE
  5
24
330
2
100
AcDbSymbolTableRecord
100
AcDbLinetypeTableRecord
  2
ByBlock
 70
0
  3

 72
65
 73
0
 40
0.0
  0
LTYPE
  5
25
330
2
100
AcDbSymbolTableRecord
100
AcDbLinetypeTableRecord
  2
ByLayer
 70
0
  3

 72
65
 73
0
 40
0.0
  0
LTYPE
  5
26
330
2
100
AcDbSymbolTableRecord
100
AcDbLinetypeTableRecord
  2
Continuous
 70
0
  3

 72
65
 73
0
 40
0.0
  0
ENDTAB
  0
TABLE
  2
LAYER
  5
1
330
0
100
AcDbSymbolTable
 70
13
  0
LAYER
  5
27
330
1
100
AcDbSymbolTableRecord
100
AcDbLayerTableRecord
  2
0
 70
0
 62
7
  6
Continuous
370
-3
390
13
347
21
  0
LAYER
  5
28
330
1
100
AcDbSymbolTableRecord
100
AcDbLayerTableRecord
  2
Defpoints
 70
0
 62
7
  6
Continuous
290
0
370
-3
390
13
347
21
  0
LAYER
  5
31
330
1
100
AcDbSymbolTableRecord
100
AcDbLayerTableRecord
  2
G-ANNO-TTLB
 70
0
 62
7
  6
Continuous
370
-3
390
13
347
21
  0
LAYER
  5
32
330
1
100
AcDbSymbolTableRecord
100
AcDbLayerTableRecord
  2
A-ANNO-TEXT
 70
0
 62
7
  6
Continuous
370
-3
390
13
347
21
  0
LAYER
  5
33
330
1
100
AcDbSymbolTableRecord
100
AcDbLayerTableRecord
  2
A-AREA-IDEN
 70
0
 62
7
  6
Continuous
370
-3
390
13
347
21
  0
LAYER
  5
34
330
1
100
AcDbSymbolTableRecord
100
AcDbLayerTableRecord
  2
A-AREA-BLCK
 70
0
 62
7
  6
Continuous
370
-3
390
13
347
21
  0
LAYER
  5
35
330
1
100
AcDbSymbolTableRecord
100
AcDbLayerTableRecord
  2
A-SEAT
 70
0
 62
7
  6
Continuous
370
-3
390
13
347
21
  0
LAYER
  5
36
330
1
100
AcDbSymbolTableRecord
100
AcDbLayerTableRecord
  2
A-WALL-BLDG
 70
0
 62
7
  6
Continuous
370
-3
390
13
347
21
  0
LAYER
  5
37
330
1
100
AcDbSymbolTableRecord
100
AcDbLayerTableRecord
  2
A-FLOR-STRS
 70
0
 62
7
  6
Continuous
370
-3
390
13
347
21
  0
LAYER
  5
38
330
1
100
AcDbSymbolTableRecord
100
AcDbLayerTableRecord
  2
LS-SEPR
 70
0
 62
7
  6
Continuous
370
-3
390
13
347
21
  0
LAYER
  5
39
330
1
100
AcDbSymbolTableRecord
100
AcDbLayerTableRecord
  2
LS-EXIT
 70
0
 62
7
  6
Continuous
370
-3
390
13
347
21
  0
LAYER
  5
3A
330
1
100
AcDbSymbolTableRecord
100
AcDbLayerTableRecord
  2
LS-TRAV
 70
0
 62
7
  6
Continuous
370
-3
390
13
347
21
  0
LAYER
  5
3B
330
1
100
AcDbSymbolTableRecord
100
AcDbLayerTableRecord
  2
G-ANNO-TABL
 70
0
 62
7
  6
Continuous
370
-3
390
13
347
21
  0
ENDTAB
  0
TABLE
  2
STYLE
  5
5
330
0
100
AcDbSymbolTable
 70
3
  0
STYLE
  5
29
330
5
100
AcDbSymbolTableRecord
100
AcDbTextStyleTableRecord
  2
Standard
 70
0
 40
0.0
 41
1.0
 50
0.0
 71
0
 42
2.5
  3
txt
  4

  0
STYLE
  5
2F
330
5
100
AcDbSymbolTableRecord
100
AcDbTextStyleTableRecord
  2
KS-REG
 70
0
 40
0.0
 41
1.0
 50
0.0
 71
0
 42
2.5
  3
DejaVuSans.ttf
  4

  0
STYLE
  5
30
330
5
100
AcDbSymbolTableRecord
100
AcDbTextStyleTableRecord
  2
KS-BOLD
 70
0
 40
0.0
 41
1.0
 50
0.0
 71
0
 42
2.5
  3
DejaVuSans-Bold.ttf
  4

  0
ENDTAB
  0
TABLE
  2
VIEW
  5
7
330
0
100
AcDbSymbolTable
 70
0
  0
ENDTAB
  0
TABLE
  2
UCS
  5
6
330
0
100
AcDbSymbolTable
 70
0
  0
ENDTAB
  0
TABLE
  2
APPID
  5
3
330
0
100
AcDbSymbolTable
 70
3
  0
APPID
  5
2A
330
3
100
AcDbSymbolTableRecord
100
AcDbRegAppTableRecord
  2
ACAD
 70
0
  0
APPID
  5
36C
330
3
100
AcDbSymbolTableRecord
100
AcDbRegAppTableRecord
  2
HATCHBACKGROUNDCOLOR
 70
0
  0
APPID
  5
36D
330
3
100
AcDbSymbolTableRecord
100
AcDbRegAppTableRecord
  2
EZDXF
 70
0
  0
ENDTAB
  0
TABLE
  2
DIMSTYLE
  5
4
330
0
100
AcDbSymbolTable
 70
1
100
AcDbDimStyleTable
  0
DIMSTYLE
105
2B
330
4
100
AcDbSymbolTableRecord
100
AcDbDimStyleTableRecord
  2
Standard
 70
0
 40
1.0
 41
2.5
 42
0.625
 43
3.75
 44
1.25
 45
0.0
 46
0.0
 47
0.0
 48
0.0
 49
2.5
140
2.5
141
2.5
142
0.0
143
0.03937007874
144
1.0
145
0.0
146
1.0
147
0.625
148
0.0
 69
0
 70
0
 71
0
 72
0
 73
0
 74
0
 75
0
 76
0
 77
1
 78
8
 79
3
170
0
171
3
172
1
173
0
174
0
175
0
176
0
177
0
178
0
179
2
271
2
272
2
273
2
274
3
275
0
276
0
277
2
278
44
279
0
280
0
281
0
282
0
283
0
284
8
285
0
286
0
288
0
289
3
290
0
371
-2
372
-2
  0
ENDTAB
  0
TABLE
  2
BLOCK_RECORD
  5
9
330
0
100
AcDbSymbolTable
 70
2
  0
BLOCK_RECORD
  5
17
330
9
100
AcDbSymbolTableRecord
100
AcDbBlockTableRecord
  2
*Model_Space
340
1A
 70
0
280
1
281
0
  0
BLOCK_RECORD
  5
1B
330
9
100
AcDbSymbolTableRecord
100
AcDbBlockTableRecord
  2
*Paper_Space
340
1E
 70
0
280
1
281
0
  0
ENDTAB
  0
ENDSEC
  0
SECTION
  2
BLOCKS
  0
BLOCK
  5
18
330
17
100
AcDbEntity
  8
0
100
AcDbBlockBegin
  2
*Model_Space
 70
0
 10
0.0
 20
0.0
 30
0.0
  3
*Model_Space
  1

  0
ENDBLK
  5
19
330
17
100
AcDbEntity
  8
0
100
AcDbBlockEnd
  0
BLOCK
  5
1C
330
1B
100
AcDbEntity
  8
0
100
AcDbBlockBegin
  2
*Paper_Space
 70
0
 10
0.0
 20
0.0
 30
0.0
  3
*Paper_Space
  1

  0
ENDBLK
  5
1D
330
1B
100
AcDbEntity
  8
0
100
AcDbBlockEnd
  0
ENDSEC
  0
SECTION
  2
ENTITIES
  0
LWPOLYLINE
  5
3C
330
17
100
AcDbEntity
  8
G-ANNO-TTLB
100
AcDbPolyline
 90
4
 70
1
 10
0.5
 20
0.5
 10
16.5
 20
0.5
 10
16.5
 20
10.5
 10
0.5
 20
10.5
  0
LWPOLYLINE
  5
3D
330
17
100
AcDbEntity
  8
G-ANNO-TTLB
100
AcDbPolyline
 90
4
 70
1
 10
0.5
 20
1.45
 10
16.5
 20
1.45
 10
16.5
 20
1.85
 10
0.5
 20
1.85
  0
TEXT
  5
3E
330
17
100
AcDbEntity
  8
G-ANNO-TTLB
100
AcDbText
 10
8.5
 20
1.5699999999999998
 30
0.0
 40
0.16999999999999998
  1
PRELIMINARY — CONCEPTUAL DESIGN — NOT FOR CONSTRUCTION
  7
KS-BOLD
 72
1
 11
8.5
 21
1.5699999999999998
 31
0.0
100
AcDbText
  0
LINE
  5
3F
330
17
100
AcDbEntity
  8
G-ANNO-TTLB
100
AcDbLine
 10
0.5
 20
1.45
 30
0.0
 11
16.5
 21
1.45
 31
0.0
  0
TEXT
  5
40
330
17
100
AcDbEntity
  8
G-ANNO-TTLB
100
AcDbText
 10
0.58
 20
1.28
 30
0.0
 40
0.06999999999999999
  1
PROJECT
  7
KS-REG
 11
0.58
 21
1.28
 31
0.0
100
AcDbText
  0
TEXT
  5
41
330
17
100
AcDbEntity
  8
G-ANNO-TTLB
100
AcDbText
 10
0.58
 20
0.9991666666666666
 30
0.0
 40
0.11499999999999999
  1
Hazel Green Regional Athletic Complex
  7
KS-BOLD
 11
0.58
 21
0.9991666666666666
 31
0.0
100
AcDbText
  0
TEXT
  5
42
330
17
100
AcDbEntity
  8
G-ANNO-TTLB
100
AcDbText
 10
0.58
 20
0.7883333333333333
 30
0.0
 40
0.11499999999999999
  1
Trojan Horse Arena · Hazel Green area, Madison
  7
KS-BOLD
 11
0.58
 21
0.7883333333333333
 31
0.0
100
AcDbText
  0
TEXT
  5
43
330
17
100
AcDbEntity
  8
G-ANNO-TTLB
100
AcDbText
 10
0.58
 20
0.5775
 30
0.0
 40
0.11499999999999999
  1
County, Alabama (site TBD, D-006)
  7
KS-BOLD
 11
0.58
 21
0.5775
 31
0.0
100
AcDbText
  0
LINE
  5
44
330
17
100
AcDbEntity
  8
G-ANNO-TTLB
100
AcDbLine
 10
5.2
 20
0.5
 30
0.0
 11
5.2
 21
1.45
 31
0.0
  0
TEXT
  5
45
330
17
100
AcDbEntity
  8
G-ANNO-TTLB
100
AcDbText
 10
5.28
 20
1.28
 30
0.0
 40
0.06999999999999999
  1
PHASE
  7
KS-REG
 11
5.28
 21
1.28
 31
0.0
100
AcDbText
  0
TEXT
  5
46
330
17
100
AcDbEntity
  8
G-ANNO-TTLB
100
AcDbText
 10
5.28
 20
0.9716666666666667
 30
0.0
 40
0.13
  1
PHASE 2
  7
KS-BOLD
 11
5.28
 21
0.9716666666666667
 31
0.0
100
AcDbText
  0
LINE
  5
47
330
17
100
AcDbEntity
  8
G-ANNO-TTLB
100
AcDbLine
 10
6.7
 20
0.5
 30
0.0
 11
6.7
 21
1.45
 31
0.0
  0
TEXT
  5
48
330
17
100
AcDbEntity
  8
G-ANNO-TTLB
100
AcDbText
 10
6.78
 20
1.28
 30
0.0
 40
0.06999999999999999
  1
SHEET TITLE
  7
KS-REG
 11
6.78
 21
1.28
 31
0.0
100
AcDbText
  0
TEXT
  5
49
330
17
100
AcDbEntity
  8
G-ANNO-TTLB
100
AcDbText
 10
6.78
 20
0.9991666666666666
 30
0.0
 40
0.11499999999999999
  1
LIFE SAFETY PLAN
  7
KS-BOLD
 11
6.78
 21
0.9991666666666666
 31
0.0
100
AcDbText
  0
TEXT
  5
4A
330
17
100
AcDbEntity
  8
G-ANNO-TTLB
100
AcDbText
 10
6.78
 20
0.7883333333333333
 30
0.0
 40
0.11499999999999999
  1
LEVELS 1 + 2 · SCHEMATIC
  7
KS-BOLD
 11
6.78
 21
0.7883333333333333
 31
0.0
100
AcDbText
  0
LINE
  5
4B
330
17
100
AcDbEntity
  8
G-ANNO-TTLB
100
AcDbLine
 10
9.8
 20
0.5
 30
0.0
 11
9.8
 21
1.45
 31
0.0
  0
TEXT
  5
4C
330
17
100
AcDbEntity
  8
G-ANNO-TTLB
100
AcDbText
 10
9.88
 20
1.28
 30
0.0
 40
0.06999999999999999
  1
SCALE
  7
KS-REG
 11
9.88
 21
1.28
 31
0.0
100
AcDbText
  0
TEXT
  5
4D
330
17
100
AcDbEntity
  8
G-ANNO-TTLB
100
AcDbText
 10
9.88
 20
0.9716666666666667
 30
0.0
 40
0.13
  1
1" =
  7
KS-BOLD
 11
9.88
 21
0.9716666666666667
 31
0.0
100
AcDbText
  0
TEXT
  5
4E
330
17
100
AcDbEntity
  8
G-ANNO-TTLB
100
AcDbText
 10
9.88
 20
0.7333333333333334
 30
0.0
 40
0.13
  1
50'-0"
  7
KS-BOLD
 11
9.88
 21
0.7333333333333334
 31
0.0
100
AcDbText
  0
LINE
  5
4F
330
17
100
AcDbEntity
  8
G-ANNO-TTLB
100
AcDbLine
 10
10.700000000000001
 20
0.5
 30
0.0
 11
10.700000000000001
 21
1.45
 31
0.0
  0
TEXT
  5
50
330
17
100
AcDbEntity
  8
G-ANNO-TTLB
100
AcDbText
 10
10.780000000000001
 20
1.28
 30
0.0
 40
0.06999999999999999
  1
DATE
  7
KS-REG
 11
10.780000000000001
 21
1.28
 31
0.0
100
AcDbText
  0
TEXT
  5
51
330
17
100
AcDbEntity
  8
G-ANNO-TTLB
100
AcDbText
 10
10.780000000000001
 20
0.9716666666666667
 30
0.0
 40
0.13
  1
October
  7
KS-BOLD
 11
10.780000000000001
 21
0.9716666666666667
 31
0.0
100
AcDbText
  0
TEXT
  5
52
330
17
100
AcDbEntity
  8
G-ANNO-TTLB
100
AcDbText
 10
10.780000000000001
 20
0.7333333333333334
 30
0.0
 40
0.13
  1
2026
  7
KS-BOLD
 11
10.780000000000001
 21
0.7333333333333334
 31
0.0
100
AcDbText
  0
LINE
  5
53
330
17
100
AcDbEntity
  8
G-ANNO-TTLB
100
AcDbLine
 10
12.15
 20
0.5
 30
0.0
 11
12.15
 21
1.45
 31
0.0
  0
TEXT
  5
54
330
17
100
AcDbEntity
  8
G-ANNO-TTLB
100
AcDbText
 10
12.23
 20
1.28
 30
0.0
 40
0.06999999999999999
  1
REV
  7
KS-REG
 11
12.23
 21
1.28
 31
0.0
100
AcDbText
  0
TEXT
  5
55
330
17
100
AcDbEntity
  8
G-ANNO-TTLB
100
AcDbText
 10
12.23
 20
0.9716666666666667
 30
0.0
 40
0.13
  1
B
  7
KS-BOLD
 11
12.23
 21
0.9716666666666667
 31
0.0
100
AcDbText
  0
LINE
  5
56
330
17
100
AcDbEntity
  8
G-ANNO-TTLB
100
AcDbLine
 10
12.9
 20
0.5
 30
0.0
 11
12.9
 21
1.45
 31
0.0
  0
TEXT
  5
57
330
17
100
AcDbEntity
  8
G-ANNO-TTLB
100
AcDbText
 10
12.98
 20
1.28
 30
0.0
 40
0.06999999999999999
  1
DRAWN BY
  7
KS-REG
 11
12.98
 21
1.28
 31
0.0
100
AcDbText
  0
TEXT
  5
58
330
17
100
AcDbEntity
  8
G-ANNO-TTLB
100
AcDbText
 10
12.98
 20
1.0358333333333332
 30
0.0
 40
0.095
  1
Drawn by KEYSTONE (AI) for
  7
KS-REG
 11
12.98
 21
1.0358333333333332
 31
0.0
100
AcDbText
  0
TEXT
  5
59
330
17
100
AcDbEntity
  8
G-ANNO-TTLB
100
AcDbText
 10
12.98
 20
0.8616666666666665
 30
0.0
 40
0.095
  1
Shane Brazelton
  7
KS-REG
 11
12.98
 21
0.8616666666666665
 31
0.0
100
AcDbText
  0
LINE
  5
5A
330
17
100
AcDbEntity
  8
G-ANNO-TTLB
100
AcDbLine
 10
15.0
 20
0.5
 30
0.0
 11
15.0
 21
1.45
 31
0.0
  0
TEXT
  5
5B
330
17
100
AcDbEntity
  8
G-ANNO-TTLB
100
AcDbText
 10
15.08
 20
1.28
 30
0.0
 40
0.06999999999999999
  1
SHEET
  7
KS-REG
 11
15.08
 21
1.28
 31
0.0
100
AcDbText
  0
TEXT
  5
5C
330
17
100
AcDbEntity
  8
G-ANNO-TTLB
100
AcDbText
 10
15.75
 20
0.77
 30
0.0
 40
0.18
  1
P2-A-111
  7
KS-BOLD
 72
1
 11
15.75
 21
0.77
 31
0.0
100
AcDbText
  0
TEXT
  5
5D
330
17
100
AcDbEntity
  8
A-ANNO-TEXT
100
AcDbText
 10
3.55
 20
10.22
 30
0.0
 40
0.095
  1
LEVEL 1 — PLAN REV H
  7
KS-BOLD
 11
3.55
 21
10.22
 31
0.0
100
AcDbText
  0
TEXT
  5
5E
330
17
100
AcDbEntity
  8
A-ANNO-TEXT
100
AcDbText
 10
3.55
 20
10.07
 30
0.0
 40
0.06
  1
D-065 bay · D-067 annex
  7
KS-REG
 11
3.55
 21
10.07
 31
0.0
100
AcDbText
  0
HATCH
  5
5F
330
17
100
AcDbEntity
  8
A-AREA-IDEN
 62
7
420
14544864
100
AcDbHatch
 10
0.0
 20
0.0
 30
0.0
210
0.0
220
0.0
230
1.0
  2
SOLID
 70
1
 71
0
 91
1
 92
3
 72
0
 73
1
 93
4
 10
3.46
 20
5.1
 10
3.84
 20
5.1
 10
3.84
 20
5.62
 10
3.46
 20
5.62
 97
0
 75
0
 76
1
 98
0
  0
LWPOLYLINE
  5
60
330
17
100
AcDbEntity
  8
A-AREA-BLCK
100
AcDbPolyline
 90
4
 70
1
 10
1.0
 20
7.42
 10
1.835
 20
7.42
 10
1.835
 20
9.1
 10
1.0
 20
9.1
  0
LWPOLYLINE
  5
61
330
17
100
AcDbEntity
  8
A-AREA-BLCK
100
AcDbPolyline
 90
4
 70
1
 10
1.0
 20
5.74
 10
1.835
 20
5.74
 10
1.835
 20
7.42
 10
1.0
 20
7.42
  0
LWPOLYLINE
  5
62
330
17
100
AcDbEntity
  8
A-AREA-BLCK
100
AcDbPolyline
 90
4
 70
1
 10
1.0
 20
9.100000000000001
 10
1.7266599999999999
 20
9.100000000000001
 10
1.7266599999999999
 20
9.660000000000002
 10
1.0
 20
9.660000000000002
  0
LWPOLYLINE
  5
63
330
17
100
AcDbEntity
  8
A-AREA-BLCK
100
AcDbPolyline
 90
4
 70
1
 10
2.2800000000000002
 20
4.62
 10
2.68
 20
4.62
 10
2.68
 20
5.32
 10
2.2800000000000002
 20
5.32
  0
LWPOLYLINE
  5
64
330
17
100
AcDbEntity
  8
A-AREA-BLCK
100
AcDbPolyline
 90
4
 70
1
 10
3.84
 20
4.62
 10
4.3
 20
4.62
 10
4.3
 20
5.62
 10
3.84
 20
5.62
  0
LWPOLYLINE
  5
65
330
17
100
AcDbEntity
  8
A-AREA-BLCK
100
AcDbPolyline
 90
4
 70
1
 10
4.96
 20
5.36
 10
5.2
 20
5.36
 10
5.2
 20
5.5600000000000005
 10
4.96
 20
5.5600000000000005
  0
LWPOLYLINE
  5
66
330
17
100
AcDbEntity
  8
A-AREA-BLCK
100
AcDbPolyline
 90
4
 70
1
 10
2.74
 20
4.62
 10
3.7800000000000002
 20
4.62
 10
3.7800000000000002
 20
4.82
 10
2.74
 20
4.82
  0
LWPOLYLINE
  5
67
330
17
100
AcDbEntity
  8
A-AREA-BLCK
100
AcDbPolyline
 90
4
 70
1
 10
4.300000000000001
 20
5.3734
 10
4.6000000000000005
 20
5.3734
 10
4.6000000000000005
 20
5.74
 10
4.300000000000001
 20
5.74
  0
LWPOLYLINE
  5
68
330
17
100
AcDbEntity
  8
A-AREA-BLCK
100
AcDbPolyline
 90
4
 70
1
 10
2.12
 20
9.100000000000001
 10
2.62
 20
9.100000000000001
 10
2.62
 20
9.660000000000002
 10
2.12
 20
9.660000000000002
  0
LWPOLYLINE
  5
69
330
17
100
AcDbEntity
  8
A-AREA-BLCK
100
AcDbPolyline
 90
4
 70
1
 10
2.62
 20
9.100000000000001
 10
2.8342
 20
9.100000000000001
 10
2.8342
 20
9.660000000000002
 10
2.62
 20
9.660000000000002
  0
LWPOLYLINE
  5
6A
330
17
100
AcDbEntity
  8
A-AREA-BLCK
100
AcDbPolyline
 90
4
 70
1
 10
2.8342
 20
9.100000000000001
 10
3.4770000000000003
 20
9.100000000000001
 10
3.4770000000000003
 20
9.660000000000002
 10
2.8342
 20
9.660000000000002
  0
LWPOLYLINE
  5
6B
330
17
100
AcDbEntity
  8
A-AREA-BLCK
100
AcDbPolyline
 90
4
 70
1
 10
3.637
 20
9.100000000000001
 10
4.2798
 20
9.100000000000001
 10
4.2798
 20
9.660000000000002
 10
3.637
 20
9.660000000000002
  0
LWPOLYLINE
  5
6C
330
17
100
AcDbEntity
  8
A-AREA-BLCK
100
AcDbPolyline
 90
4
 70
1
 10
4.76
 20
8.2818
 10
5.2
 20
8.2818
 10
5.2
 20
9.1
 10
4.76
 20
9.1
  0
LWPOLYLINE
  5
6D
330
17
100
AcDbEntity
  8
A-AREA-BLCK
100
AcDbPolyline
 90
4
 70
1
 10
4.76
 20
7.3036
 10
5.2
 20
7.3036
 10
5.2
 20
8.1218
 10
4.76
 20
8.1218
  0
LWPOLYLINE
  5
6E
330
17
100
AcDbEntity
  8
A-AREA-BLCK
100
AcDbPolyline
 90
4
 70
1
 10
4.2798
 20
9.100000000000001
 10
4.7183399999999995
 20
9.100000000000001
 10
4.7183399999999995
 20
9.660000000000002
 10
4.2798
 20
9.660000000000002
  0
LWPOLYLINE
  5
6F
330
17
100
AcDbEntity
  8
A-AREA-BLCK
100
AcDbPolyline
 90
4
 70
1
 10
4.76
 20
5.74
 10
5.2
 20
5.74
 10
5.2
 20
7.3036
 10
4.76
 20
7.3036
  0
LWPOLYLINE
  5
70
330
17
100
AcDbEntity
  8
A-AREA-BLCK
100
AcDbPolyline
 90
4
 70
1
 10
4.7183399999999995
 20
9.100000000000001
 10
5.199999999999999
 20
9.100000000000001
 10
5.199999999999999
 20
9.540000000000001
 10
4.7183399999999995
 20
9.540000000000001
  0
LWPOLYLINE
  5
71
330
17
100
AcDbEntity
  8
A-AREA-BLCK
100
AcDbPolyline
 90
4
 70
1
 10
2.04
 20
9.66
 10
3.4400000000000004
 20
9.66
 10
3.4400000000000004
 20
10.26
 10
2.04
 20
10.26
  0
LWPOLYLINE
  5
72
330
17
100
AcDbEntity
  8
A-AREA-BLCK
100
AcDbPolyline
 90
4
 70
1
 10
1.2533400000000001
 20
4.62
 10
2.2800000000000002
 20
4.62
 10
2.2800000000000002
 20
5.0
 10
1.2533400000000001
 20
5.0
  0
LWPOLYLINE
  5
73
330
17
100
AcDbEntity
  8
A-AREA-BLCK
100
AcDbPolyline
 90
4
 70
1
 10
1.835
 20
5.74
 10
2.12
 20
5.74
 10
2.12
 20
9.1
 10
1.835
 20
9.1
  0
LWPOLYLINE
  5
74
330
17
100
AcDbEntity
  8
A-AREA-BLCK
100
AcDbPolyline
 90
4
 70
1
 10
1.0
 20
5.0
 10
2.12
 20
5.0
 10
2.12
 20
5.74
 10
1.0
 20
5.74
  0
LWPOLYLINE
  5
75
330
17
100
AcDbEntity
  8
A-AREA-BLCK
100
AcDbPolyline
 90
4
 70
1
 10
2.12
 20
5.58
 10
2.68
 20
5.58
 10
2.68
 20
5.74
 10
2.12
 20
5.74
  0
LWPOLYLINE
  5
76
330
17
100
AcDbEntity
  8
A-AREA-BLCK
100
AcDbPolyline
 90
4
 70
1
 10
2.12
 20
5.3
 10
2.68
 20
5.3
 10
2.68
 20
5.58
 10
2.12
 20
5.58
  0
LWPOLYLINE
  5
77
330
17
100
AcDbEntity
  8
A-AREA-BLCK
100
AcDbPolyline
 90
4
 70
1
 10
3.477
 20
9.100000000000001
 10
3.637
 20
9.100000000000001
 10
3.637
 20
9.660000000000002
 10
3.477
 20
9.660000000000002
  0
LWPOLYLINE
  5
78
330
17
100
AcDbEntity
  8
A-AREA-BLCK
100
AcDbPolyline
 90
4
 70
1
 10
4.76
 20
8.1218
 10
5.2
 20
8.1218
 10
5.2
 20
8.2818
 10
4.76
 20
8.2818
  0
LWPOLYLINE
  5
79
330
17
100
AcDbEntity
  8
A-AREA-BLCK
100
AcDbPolyline
 90
4
 70
1
 10
2.12
 20
5.74
 10
4.76
 20
5.74
 10
4.76
 20
9.1
 10
2.12
 20
9.1
  0
LWPOLYLINE
  5
7A
330
17
100
AcDbEntity
  8
A-AREA-BLCK
100
AcDbPolyline
 90
4
 70
1
 10
2.12
 20
5.98
 10
4.52
 20
5.98
 10
4.52
 20
8.86
 10
2.12
 20
8.86
  0
LINE
  5
7B
330
17
100
AcDbEntity
  8
A-SEAT
100
AcDbLine
 10
2.12
 20
8.9
 30
0.0
 11
4.76
 21
8.9
 31
0.0
  0
LINE
  5
7C
330
17
100
AcDbEntity
  8
A-SEAT
100
AcDbLine
 10
2.12
 20
8.940000000000001
 30
0.0
 11
4.76
 21
8.940000000000001
 31
0.0
  0
LINE
  5
7D
330
17
100
AcDbEntity
  8
A-SEAT
100
AcDbLine
 10
2.12
 20
8.98
 30
0.0
 11
4.76
 21
8.98
 31
0.0
  0
LINE
  5
7E
330
17
100
AcDbEntity
  8
A-SEAT
100
AcDbLine
 10
2.12
 20
9.02
 30
0.0
 11
4.76
 21
9.02
 31
0.0
  0
LINE
  5
7F
330
17
100
AcDbEntity
  8
A-SEAT
100
AcDbLine
 10
2.12
 20
9.06
 30
0.0
 11
4.76
 21
9.06
 31
0.0
  0
LINE
  5
80
330
17
100
AcDbEntity
  8
A-SEAT
100
AcDbLine
 10
2.12
 20
5.78
 30
0.0
 11
4.76
 21
5.78
 31
0.0
  0
LINE
  5
81
330
17
100
AcDbEntity
  8
A-SEAT
100
AcDbLine
 10
2.12
 20
5.82
 30
0.0
 11
4.76
 21
5.82
 31
0.0
  0
LINE
  5
82
330
17
100
AcDbEntity
  8
A-SEAT
100
AcDbLine
 10
2.12
 20
5.86
 30
0.0
 11
4.76
 21
5.86
 31
0.0
  0
LINE
  5
83
330
17
100
AcDbEntity
  8
A-SEAT
100
AcDbLine
 10
2.12
 20
5.9
 30
0.0
 11
4.76
 21
5.9
 31
0.0
  0
LINE
  5
84
330
17
100
AcDbEntity
  8
A-SEAT
100
AcDbLine
 10
2.12
 20
5.94
 30
0.0
 11
4.76
 21
5.94
 31
0.0
  0
LINE
  5
85
330
17
100
AcDbEntity
  8
A-SEAT
100
AcDbLine
 10
4.5600000000000005
 20
5.98
 30
0.0
 11
4.5600000000000005
 21
8.86
 31
0.0
  0
LINE
  5
86
330
17
100
AcDbEntity
  8
A-SEAT
100
AcDbLine
 10
4.6
 20
5.98
 30
0.0
 11
4.6
 21
8.86
 31
0.0
  0
LINE
  5
87
330
17
100
AcDbEntity
  8
A-SEAT
100
AcDbLine
 10
4.640000000000001
 20
5.98
 30
0.0
 11
4.640000000000001
 21
8.86
 31
0.0
  0
LINE
  5
88
330
17
100
AcDbEntity
  8
A-SEAT
100
AcDbLine
 10
4.68
 20
5.98
 30
0.0
 11
4.68
 21
8.86
 31
0.0
  0
LINE
  5
89
330
17
100
AcDbEntity
  8
A-SEAT
100
AcDbLine
 10
4.720000000000001
 20
5.98
 30
0.0
 11
4.720000000000001
 21
8.86
 31
0.0
  0
HATCH
  5
8A
330
17
100
AcDbEntity
  8
A-SEAT
 62
7
420
16777215
100
AcDbHatch
 10
0.0
 20
0.0
 30
0.0
210
0.0
220
0.0
230
1.0
  2
SOLID
 70
1
 71
0
 91
1
 92
3
 72
0
 73
1
 93
4
 10
3.14
 20
5.74
 10
3.38
 20
5.74
 10
3.38
 20
5.98
 10
3.14
 20
5.98
 97
0
 75
0
 76
1
 98
0
  0
LWPOLYLINE
  5
8B
330
17
100
AcDbEntity
  8
A-SEAT
100
AcDbPolyline
 90
4
 70
1
 10
3.14
 20
5.74
 10
3.38
 20
5.74
 10
3.38
 20
5.98
 10
3.14
 20
5.98
  0
HATCH
  5
8C
330
17
100
AcDbEntity
  8
A-SEAT
 62
7
420
16777215
100
AcDbHatch
 10
0.0
 20
0.0
 30
0.0
210
0.0
220
0.0
230
1.0
  2
SOLID
 70
1
 71
0
 91
1
 92
3
 72
0
 73
1
 93
4
 10
3.477
 20
8.86
 10
3.637
 20
8.86
 10
3.637
 20
9.100000000000001
 10
3.477
 20
9.100000000000001
 97
0
 75
0
 76
1
 98
0
  0
LWPOLYLINE
  5
8D
330
17
100
AcDbEntity
  8
A-SEAT
100
AcDbPolyline
 90
4
 70
1
 10
3.477
 20
8.86
 10
3.637
 20
8.86
 10
3.637
 20
9.1
 10
3.477
 20
9.1
  0
HATCH
  5
8E
330
17
100
AcDbEntity
  8
A-SEAT
 62
7
420
16777215
100
AcDbHatch
 10
0.0
 20
0.0
 30
0.0
210
0.0
220
0.0
230
1.0
  2
SOLID
 70
1
 71
0
 91
1
 92
3
 72
0
 73
1
 93
4
 10
4.52
 20
8.1218
 10
4.76
 20
8.1218
 10
4.76
 20
8.2818
 10
4.52
 20
8.2818
 97
0
 75
0
 76
1
 98
0
  0
LWPOLYLINE
  5
8F
330
17
100
AcDbEntity
  8
A-SEAT
100
AcDbPolyline
 90
4
 70
1
 10
4.52
 20
8.1218
 10
4.76
 20
8.1218
 10
4.76
 20
8.2818
 10
4.52
 20
8.2818
  0
LINE
  5
90
330
17
100
AcDbEntity
  8
A-WALL-BLDG
100
AcDbLine
 10
1.0
 20
4.62
 30
0.0
 11
5.2
 21
4.62
 31
0.0
  0
LINE
  5
91
330
17
100
AcDbEntity
  8
A-WALL-BLDG
100
AcDbLine
 10
5.2
 20
4.62
 30
0.0
 11
5.2
 21
9.79334
 31
0.0
  0
LINE
  5
92
330
17
100
AcDbEntity
  8
A-WALL-BLDG
100
AcDbLine
 10
5.2
 20
9.79334
 30
0.0
 11
4.7183399999999995
 21
9.79334
 31
0.0
  0
LINE
  5
93
330
17
100
AcDbEntity
  8
A-WALL-BLDG
100
AcDbLine
 10
4.7183399999999995
 20
9.79334
 30
0.0
 11
4.7183399999999995
 21
9.66
 31
0.0
  0
LINE
  5
94
330
17
100
AcDbEntity
  8
A-WALL-BLDG
100
AcDbLine
 10
4.7183399999999995
 20
9.66
 30
0.0
 11
1.0
 21
9.66
 31
0.0
  0
LINE
  5
95
330
17
100
AcDbEntity
  8
A-WALL-BLDG
100
AcDbLine
 10
1.0
 20
9.66
 30
0.0
 11
1.0
 21
4.62
 31
0.0
  0
LINE
  5
96
330
17
100
AcDbEntity
  8
A-WALL-BLDG
100
AcDbLine
 10
2.04
 20
9.66
 30
0.0
 11
2.04
 21
10.26
 31
0.0
  0
LINE
  5
97
330
17
100
AcDbEntity
  8
A-WALL-BLDG
100
AcDbLine
 10
2.04
 20
10.26
 30
0.0
 11
3.44
 21
10.26
 31
0.0
  0
LINE
  5
98
330
17
100
AcDbEntity
  8
A-WALL-BLDG
100
AcDbLine
 10
3.44
 20
10.26
 30
0.0
 11
3.44
 21
9.66
 31
0.0
  0
HATCH
  5
99
330
17
100
AcDbEntity
  8
A-FLOR-STRS
 62
7
420
15000804
100
AcDbHatch
 10
0.0
 20
0.0
 30
0.0
210
0.0
220
0.0
230
1.0
  2
SOLID
 70
1
 71
0
 91
1
 92
3
 72
0
 73
1
 93
4
 10
1.7266599999999999
 20
9.17834
 10
1.98
 20
9.17834
 10
1.98
 20
9.66
 10
1.7266599999999999
 20
9.66
 97
0
 75
0
 76
1
 98
0
  0
LWPOLYLINE
  5
9A
330
17
100
AcDbEntity
  8
A-FLOR-STRS
100
AcDbPolyline
 90
4
 70
1
 10
1.7266599999999999
 20
9.17834
 10
1.98
 20
9.17834
 10
1.98
 20
9.66
 10
1.7266599999999999
 20
9.66
  0
LINE
  5
9B
330
17
100
AcDbEntity
  8
A-FLOR-STRS
100
AcDbLine
 10
1.7266599999999999
 20
9.17834
 30
0.0
 11
1.98
 21
9.66
 31
0.0
  0
TEXT
  5
9C
330
17
100
AcDbEntity
  8
A-AREA-IDEN
100
AcDbText
 10
1.854
 20
9.04
 30
0.0
 40
0.05
  1
ST-1
  7
KS-BOLD
 72
1
 11
1.854
 21
9.04
 31
0.0
100
AcDbText
  0
HATCH
  5
9D
330
17
100
AcDbEntity
  8
A-FLOR-STRS
 62
7
420
15000804
100
AcDbHatch
 10
0.0
 20
0.0
 30
0.0
210
0.0
220
0.0
230
1.0
  2
SOLID
 70
1
 71
0
 91
1
 92
3
 72
0
 73
1
 93
4
 10
4.7183399999999995
 20
9.54
 10
5.2
 20
9.54
 10
5.2
 20
9.79334
 10
4.7183399999999995
 20
9.79334
 97
0
 75
0
 76
1
 98
0
  0
LWPOLYLINE
  5
9E
330
17
100
AcDbEntity
  8
A-FLOR-STRS
100
AcDbPolyline
 90
4
 70
1
 10
4.7183399999999995
 20
9.54
 10
5.199999999999999
 20
9.54
 10
5.199999999999999
 20
9.793339999999999
 10
4.7183399999999995
 20
9.793339999999999
  0
LINE
  5
9F
330
17
100
AcDbEntity
  8
A-FLOR-STRS
100
AcDbLine
 10
4.7183399999999995
 20
9.54
 30
0.0
 11
5.2
 21
9.79334
 31
0.0
  0
TEXT
  5
A0
330
17
100
AcDbEntity
  8
A-AREA-IDEN
100
AcDbText
 10
4.52
 20
9.620000000000001
 30
0.0
 40
0.05
  1
ST-2
  7
KS-BOLD
 72
2
 11
4.52
 21
9.620000000000001
 31
0.0
100
AcDbText
  0
HATCH
  5
A1
330
17
100
AcDbEntity
  8
A-FLOR-STRS
 62
7
420
15000804
100
AcDbHatch
 10
0.0
 20
0.0
 30
0.0
210
0.0
220
0.0
230
1.0
  2
SOLID
 70
1
 71
0
 91
1
 92
3
 72
0
 73
1
 93
4
 10
4.7183399999999995
 20
4.62
 10
5.2
 20
4.62
 10
5.2
 20
4.87334
 10
4.7183399999999995
 20
4.87334
 97
0
 75
0
 76
1
 98
0
  0
LWPOLYLINE
  5
A2
330
17
100
AcDbEntity
  8
A-FLOR-STRS
100
AcDbPolyline
 90
4
 70
1
 10
4.7183399999999995
 20
4.62
 10
5.199999999999999
 20
4.62
 10
5.199999999999999
 20
4.87334
 10
4.7183399999999995
 20
4.87334
  0
LINE
  5
A3
330
17
100
AcDbEntity
  8
A-FLOR-STRS
100
AcDbLine
 10
4.7183399999999995
 20
4.62
 30
0.0
 11
5.2
 21
4.87334
 31
0.0
  0
TEXT
  5
A4
330
17
100
AcDbEntity
  8
A-AREA-IDEN
100
AcDbText
 10
4.66
 20
4.7
 30
0.0
 40
0.05
  1
ST-3
  7
KS-BOLD
 72
2
 11
4.66
 21
4.7
 31
0.0
100
AcDbText
  0
HATCH
  5
A5
330
17
100
AcDbEntity
  8
A-FLOR-STRS
 62
7
420
15000804
100
AcDbHatch
 10
0.0
 20
0.0
 30
0.0
210
0.0
220
0.0
230
1.0
  2
SOLID
 70
1
 71
0
 91
1
 92
3
 72
0
 73
1
 93
4
 10
1.0
 20
4.62
 10
1.2533400000000001
 20
4.62
 10
1.2533400000000001
 20
5.10166
 10
1.0
 20
5.10166
 97
0
 75
0
 76
1
 98
0
  0
LWPOLYLINE
  5
A6
330
17
100
AcDbEntity
  8
A-FLOR-STRS
100
AcDbPolyline
 90
4
 70
1
 10
1.0
 20
4.62
 10
1.2533400000000001
 20
4.62
 10
1.2533400000000001
 20
5.10166
 10
1.0
 20
5.10166
  0
LINE
  5
A7
330
17
100
AcDbEntity
  8
A-FLOR-STRS
100
AcDbLine
 10
1.0
 20
4.62
 30
0.0
 11
1.2533400000000001
 21
5.10166
 31
0.0
  0
TEXT
  5
A8
330
17
100
AcDbEntity
  8
A-AREA-IDEN
100
AcDbText
 10
1.32
 20
4.7
 30
0.0
 40
0.05
  1
ST-4
  7
KS-BOLD
 11
1.32
 21
4.7
 31
0.0
100
AcDbText
  0
LWPOLYLINE
  5
A9
330
17
100
AcDbEntity
  8
A-FLOR-STRS
100
AcDbPolyline
 90
4
 70
1
 10
2.12
 20
5.140000000000001
 10
2.2800000000000002
 20
5.140000000000001
 10
2.2800000000000002
 20
5.300000000000001
 10
2.12
 20
5.300000000000001
  0
LWPOLYLINE
  5
AA
330
17
100
AcDbEntity
  8
A-AREA-IDEN
100
AcDbPolyline
 90
4
 70
1
 10
3.46
 20
5.1
 10
3.84
 20
5.1
 10
3.84
 20
5.619999999999999
 10
3.46
 20
5.619999999999999
  0
TEXT
  5
AB
330
17
100
AcDbEntity
  8
A-AREA-IDEN
100
AcDbText
 10
3.65
 20
5.4
 30
0.0
 40
0.039999999999999994
  1
SCREEN
  7
KS-BOLD
 72
1
 11
3.65
 21
5.4
 31
0.0
100
AcDbText
  0
TEXT
  5
AC
330
17
100
AcDbEntity
  8
A-AREA-IDEN
100
AcDbText
 10
3.65
 20
5.29
 30
0.0
 40
0.039999999999999994
  1
BAY
  7
KS-BOLD
 72
1
 11
3.65
 21
5.29
 31
0.0
100
AcDbText
  0
LINE
  5
AD
330
17
100
AcDbEntity
  8
LS-SEPR
100
AcDbLine
 10
2.6799999999999997
 20
5.0
 30
0.0
 11
3.46
 21
5.0
 31
0.0
  0
LINE
  5
AE
330
17
100
AcDbEntity
  8
LS-SEPR
100
AcDbLine
 10
2.6799999999999997
 20
4.96
 30
0.0
 11
2.6799999999999997
 21
5.04
 31
0.0
  0
LINE
  5
AF
330
17
100
AcDbEntity
  8
LS-SEPR
100
AcDbLine
 10
3.46
 20
4.96
 30
0.0
 11
3.46
 21
5.04
 31
0.0
  0
TEXT
  5
B0
330
17
100
AcDbEntity
  8
LS-SEPR
100
AcDbText
 10
3.07
 20
5.05
 30
0.0
 40
0.039999999999999994
  1
468 in CLEAR
  7
KS-BOLD
 72
1
 11
3.07
 21
5.05
 31
0.0
100
AcDbText
  0
LINE
  5
B1
330
17
100
AcDbEntity
  8
LS-EXIT
100
AcDbLine
 10
2.745
 20
4.62
 30
0.0
 11
2.865
 21
4.62
 31
0.0
  0
LINE
  5
B2
330
17
100
AcDbEntity
  8
LS-EXIT
100
AcDbLine
 10
2.753
 20
4.82
 30
0.0
 11
2.857
 21
4.82
 31
0.0
  0
LINE
  5
B3
330
17
100
AcDbEntity
  8
LS-EXIT
100
AcDbLine
 10
2.8049999999999997
 20
4.62
 30
0.0
 11
2.8049999999999997
 21
4.5
 31
0.0
  0
LINE
  5
B4
330
17
100
AcDbEntity
  8
LS-EXIT
100
AcDbLine
 10
2.8049999999999997
 20
4.5
 30
0.0
 11
2.835
 21
4.5440000000000005
 31
0.0
  0
LINE
  5
B5
330
17
100
AcDbEntity
  8
LS-EXIT
100
AcDbLine
 10
2.8049999999999997
 20
4.5
 30
0.0
 11
2.7750000000000004
 21
4.5440000000000005
 31
0.0
  0
LINE
  5
B6
330
17
100
AcDbEntity
  8
LS-EXIT
100
AcDbLine
 10
2.875
 20
4.62
 30
0.0
 11
2.995
 21
4.62
 31
0.0
  0
LINE
  5
B7
330
17
100
AcDbEntity
  8
LS-EXIT
100
AcDbLine
 10
2.883
 20
4.82
 30
0.0
 11
2.987
 21
4.82
 31
0.0
  0
LINE
  5
B8
330
17
100
AcDbEntity
  8
LS-EXIT
100
AcDbLine
 10
2.935
 20
4.62
 30
0.0
 11
2.935
 21
4.5
 31
0.0
  0
LINE
  5
B9
330
17
100
AcDbEntity
  8
LS-EXIT
100
AcDbLine
 10
2.935
 20
4.5
 30
0.0
 11
2.965
 21
4.5440000000000005
 31
0.0
  0
LINE
  5
BA
330
17
100
AcDbEntity
  8
LS-EXIT
100
AcDbLine
 10
2.935
 20
4.5
 30
0.0
 11
2.9050000000000002
 21
4.5440000000000005
 31
0.0
  0
LINE
  5
BB
330
17
100
AcDbEntity
  8
LS-EXIT
100
AcDbLine
 10
3.005
 20
4.62
 30
0.0
 11
3.125
 21
4.62
 31
0.0
  0
LINE
  5
BC
330
17
100
AcDbEntity
  8
LS-EXIT
100
AcDbLine
 10
3.0130000000000003
 20
4.82
 30
0.0
 11
3.117
 21
4.82
 31
0.0
  0
LINE
  5
BD
330
17
100
AcDbEntity
  8
LS-EXIT
100
AcDbLine
 10
3.065
 20
4.62
 30
0.0
 11
3.065
 21
4.5
 31
0.0
  0
LINE
  5
BE
330
17
100
AcDbEntity
  8
LS-EXIT
100
AcDbLine
 10
3.065
 20
4.5
 30
0.0
 11
3.095
 21
4.5440000000000005
 31
0.0
  0
LINE
  5
BF
330
17
100
AcDbEntity
  8
LS-EXIT
100
AcDbLine
 10
3.065
 20
4.5
 30
0.0
 11
3.035
 21
4.5440000000000005
 31
0.0
  0
LINE
  5
C0
330
17
100
AcDbEntity
  8
LS-EXIT
100
AcDbLine
 10
3.1350000000000002
 20
4.62
 30
0.0
 11
3.255
 21
4.62
 31
0.0
  0
LINE
  5
C1
330
17
100
AcDbEntity
  8
LS-EXIT
100
AcDbLine
 10
3.1430000000000002
 20
4.82
 30
0.0
 11
3.247
 21
4.82
 31
0.0
  0
LINE
  5
C2
330
17
100
AcDbEntity
  8
LS-EXIT
100
AcDbLine
 10
3.195
 20
4.62
 30
0.0
 11
3.195
 21
4.5
 31
0.0
  0
LINE
  5
C3
330
17
100
AcDbEntity
  8
LS-EXIT
100
AcDbLine
 10
3.195
 20
4.5
 30
0.0
 11
3.225
 21
4.5440000000000005
 31
0.0
  0
LINE
  5
C4
330
17
100
AcDbEntity
  8
LS-EXIT
100
AcDbLine
 10
3.195
 20
4.5
 30
0.0
 11
3.165
 21
4.5440000000000005
 31
0.0
  0
LINE
  5
C5
330
17
100
AcDbEntity
  8
LS-EXIT
100
AcDbLine
 10
3.265
 20
4.62
 30
0.0
 11
3.3850000000000002
 21
4.62
 31
0.0
  0
LINE
  5
C6
330
17
100
AcDbEntity
  8
LS-EXIT
100
AcDbLine
 10
3.273
 20
4.82
 30
0.0
 11
3.377
 21
4.82
 31
0.0
  0
LINE
  5
C7
330
17
100
AcDbEntity
  8
LS-EXIT
100
AcDbLine
 10
3.325
 20
4.62
 30
0.0
 11
3.325
 21
4.5
 31
0.0
  0
LINE
  5
C8
330
17
100
AcDbEntity
  8
LS-EXIT
100
AcDbLine
 10
3.325
 20
4.5
 30
0.0
 11
3.355
 21
4.5440000000000005
 31
0.0
  0
LINE
  5
C9
330
17
100
AcDbEntity
  8
LS-EXIT
100
AcDbLine
 10
3.325
 20
4.5
 30
0.0
 11
3.295
 21
4.5440000000000005
 31
0.0
  0
LINE
  5
CA
330
17
100
AcDbEntity
  8
LS-EXIT
100
AcDbLine
 10
3.395
 20
4.62
 30
0.0
 11
3.515
 21
4.62
 31
0.0
  0
LINE
  5
CB
330
17
100
AcDbEntity
  8
LS-EXIT
100
AcDbLine
 10
3.403
 20
4.82
 30
0.0
 11
3.507
 21
4.82
 31
0.0
  0
LINE
  5
CC
330
17
100
AcDbEntity
  8
LS-EXIT
100
AcDbLine
 10
3.455
 20
4.62
 30
0.0
 11
3.455
 21
4.5
 31
0.0
  0
LINE
  5
CD
330
17
100
AcDbEntity
  8
LS-EXIT
100
AcDbLine
 10
3.455
 20
4.5
 30
0.0
 11
3.485
 21
4.5440000000000005
 31
0.0
  0
LINE
  5
CE
330
17
100
AcDbEntity
  8
LS-EXIT
100
AcDbLine
 10
3.455
 20
4.5
 30
0.0
 11
3.4250000000000003
 21
4.5440000000000005
 31
0.0
  0
LINE
  5
CF
330
17
100
AcDbEntity
  8
LS-EXIT
100
AcDbLine
 10
3.525
 20
4.62
 30
0.0
 11
3.645
 21
4.62
 31
0.0
  0
LINE
  5
D0
330
17
100
AcDbEntity
  8
LS-EXIT
100
AcDbLine
 10
3.5330000000000004
 20
4.82
 30
0.0
 11
3.637
 21
4.82
 31
0.0
  0
LINE
  5
D1
330
17
100
AcDbEntity
  8
LS-EXIT
100
AcDbLine
 10
3.585
 20
4.62
 30
0.0
 11
3.585
 21
4.5
 31
0.0
  0
LINE
  5
D2
330
17
100
AcDbEntity
  8
LS-EXIT
100
AcDbLine
 10
3.585
 20
4.5
 30
0.0
 11
3.615
 21
4.5440000000000005
 31
0.0
  0
LINE
  5
D3
330
17
100
AcDbEntity
  8
LS-EXIT
100
AcDbLine
 10
3.585
 20
4.5
 30
0.0
 11
3.555
 21
4.5440000000000005
 31
0.0
  0
LINE
  5
D4
330
17
100
AcDbEntity
  8
LS-EXIT
100
AcDbLine
 10
3.6550000000000002
 20
4.62
 30
0.0
 11
3.775
 21
4.62
 31
0.0
  0
LINE
  5
D5
330
17
100
AcDbEntity
  8
LS-EXIT
100
AcDbLine
 10
3.6630000000000003
 20
4.82
 30
0.0
 11
3.767
 21
4.82
 31
0.0
  0
LINE
  5
D6
330
17
100
AcDbEntity
  8
LS-EXIT
100
AcDbLine
 10
3.715
 20
4.62
 30
0.0
 11
3.715
 21
4.5
 31
0.0
  0
LINE
  5
D7
330
17
100
AcDbEntity
  8
LS-EXIT
100
AcDbLine
 10
3.715
 20
4.5
 30
0.0
 11
3.745
 21
4.5440000000000005
 31
0.0
  0
LINE
  5
D8
330
17
100
AcDbEntity
  8
LS-EXIT
100
AcDbLine
 10
3.715
 20
4.5
 30
0.0
 11
3.685
 21
4.5440000000000005
 31
0.0
  0
TEXT
  5
D9
330
17
100
AcDbEntity
  8
LS-EXIT
100
AcDbText
 10
3.2600000000000002
 20
4.33
 30
0.0
 40
0.054000000000000006
  1
E1 — 8 PAIRS x 64 in = 512 in CLEAR → 3,413 occ.
  7
KS-BOLD
 72
1
 11
3.2600000000000002
 21
4.33
 31
0.0
100
AcDbText
  0
TEXT
  5
DA
330
17
100
AcDbEntity
  8
LS-EXIT
100
AcDbText
 10
3.2600000000000002
 20
4.21
 30
0.0
 40
0.04599999999999999
  1
main exit (1030.2) · vestibule inner bank the same (1003.6) · 64 in / pair ASSUMED
  7
KS-REG
 72
1
 11
3.2600000000000002
 21
4.21
 31
0.0
100
AcDbText
  0
LINE
  5
DB
330
17
100
AcDbEntity
  8
LS-EXIT
100
AcDbLine
 10
1.0
 20
5.32
 30
0.0
 11
1.0
 21
5.44
 31
0.0
  0
LINE
  5
DC
330
17
100
AcDbEntity
  8
LS-EXIT
100
AcDbLine
 10
1.0
 20
5.38
 30
0.0
 11
0.88
 21
5.38
 31
0.0
  0
LINE
  5
DD
330
17
100
AcDbEntity
  8
LS-EXIT
100
AcDbLine
 10
0.88
 20
5.38
 30
0.0
 11
0.924
 21
5.35
 31
0.0
  0
LINE
  5
DE
330
17
100
AcDbEntity
  8
LS-EXIT
100
AcDbLine
 10
0.88
 20
5.38
 30
0.0
 11
0.924
 21
5.41
 31
0.0
  0
TEXT
  5
DF
330
17
100
AcDbEntity
  8
LS-EXIT
100
AcDbText
 10
0.91
 20
5.46
 30
0.0
 40
0.04599999999999999
  1
X1 64 in · 426
 50
90.0
  7
KS-BOLD
 72
1
 11
0.91
 21
5.46
 31
0.0
100
AcDbText
  0
LINE
  5
E0
330
17
100
AcDbEntity
  8
LS-EXIT
100
AcDbLine
 10
1.0
 20
6.5200000000000005
 30
0.0
 11
1.0
 21
6.640000000000001
 31
0.0
  0
LINE
  5
E1
330
17
100
AcDbEntity
  8
LS-EXIT
100
AcDbLine
 10
1.0
 20
6.58
 30
0.0
 11
0.88
 21
6.58
 31
0.0
  0
LINE
  5
E2
330
17
100
AcDbEntity
  8
LS-EXIT
100
AcDbLine
 10
0.88
 20
6.58
 30
0.0
 11
0.924
 21
6.55
 31
0.0
  0
LINE
  5
E3
330
17
100
AcDbEntity
  8
LS-EXIT
100
AcDbLine
 10
0.88
 20
6.58
 30
0.0
 11
0.924
 21
6.61
 31
0.0
  0
TEXT
  5
E4
330
17
100
AcDbEntity
  8
LS-EXIT
100
AcDbText
 10
0.91
 20
6.66
 30
0.0
 40
0.04599999999999999
  1
X2 64 in · 426
 50
90.0
  7
KS-BOLD
 72
1
 11
0.91
 21
6.66
 31
0.0
100
AcDbText
  0
LINE
  5
E5
330
17
100
AcDbEntity
  8
LS-EXIT
100
AcDbLine
 10
1.0
 20
8.2
 30
0.0
 11
1.0
 21
8.32
 31
0.0
  0
LINE
  5
E6
330
17
100
AcDbEntity
  8
LS-EXIT
100
AcDbLine
 10
1.0
 20
8.26
 30
0.0
 11
0.88
 21
8.26
 31
0.0
  0
LINE
  5
E7
330
17
100
AcDbEntity
  8
LS-EXIT
100
AcDbLine
 10
0.88
 20
8.26
 30
0.0
 11
0.924
 21
8.23
 31
0.0
  0
LINE
  5
E8
330
17
100
AcDbEntity
  8
LS-EXIT
100
AcDbLine
 10
0.88
 20
8.26
 30
0.0
 11
0.924
 21
8.29
 31
0.0
  0
TEXT
  5
E9
330
17
100
AcDbEntity
  8
LS-EXIT
100
AcDbText
 10
0.91
 20
8.34
 30
0.0
 40
0.04599999999999999
  1
X3 64 in · 426
 50
90.0
  7
KS-BOLD
 72
1
 11
0.91
 21
8.34
 31
0.0
100
AcDbText
  0
LINE
  5
EA
330
17
100
AcDbEntity
  8
LS-EXIT
100
AcDbLine
 10
1.7933400000000002
 20
9.66
 30
0.0
 11
1.91334
 21
9.66
 31
0.0
  0
LINE
  5
EB
330
17
100
AcDbEntity
  8
LS-EXIT
100
AcDbLine
 10
1.8533400000000002
 20
9.66
 30
0.0
 11
1.8533400000000002
 21
9.780000000000001
 31
0.0
  0
LINE
  5
EC
330
17
100
AcDbEntity
  8
LS-EXIT
100
AcDbLine
 10
1.8533400000000002
 20
9.780000000000001
 30
0.0
 11
1.82334
 21
9.736
 31
0.0
  0
LINE
  5
ED
330
17
100
AcDbEntity
  8
LS-EXIT
100
AcDbLine
 10
1.8533400000000002
 20
9.780000000000001
 30
0.0
 11
1.88334
 21
9.736
 31
0.0
  0
TEXT
  5
EE
330
17
100
AcDbEntity
  8
LS-EXIT
100
AcDbText
 10
1.80934
 20
9.744
 30
0.0
 40
0.04599999999999999
  1
X4 64 in (ST)
  7
KS-BOLD
 72
2
 11
1.80934
 21
9.744
 31
0.0
100
AcDbText
  0
LINE
  5
EF
330
17
100
AcDbEntity
  8
LS-EXIT
100
AcDbLine
 10
3.497
 20
9.66
 30
0.0
 11
3.617
 21
9.66
 31
0.0
  0
LINE
  5
F0
330
17
100
AcDbEntity
  8
LS-EXIT
100
AcDbLine
 10
3.557
 20
9.66
 30
0.0
 11
3.557
 21
9.780000000000001
 31
0.0
  0
LINE
  5
F1
330
17
100
AcDbEntity
  8
LS-EXIT
100
AcDbLine
 10
3.557
 20
9.780000000000001
 30
0.0
 11
3.527
 21
9.736
 31
0.0
  0
LINE
  5
F2
330
17
100
AcDbEntity
  8
LS-EXIT
100
AcDbLine
 10
3.557
 20
9.780000000000001
 30
0.0
 11
3.5869999999999997
 21
9.736
 31
0.0
  0
TEXT
  5
F3
330
17
100
AcDbEntity
  8
LS-EXIT
100
AcDbText
 10
3.6009999999999995
 20
9.744
 30
0.0
 40
0.04599999999999999
  1
X5 64 in · 426
  7
KS-BOLD
 11
3.6009999999999995
 21
9.744
 31
0.0
100
AcDbText
  0
LINE
  5
F4
330
17
100
AcDbEntity
  8
LS-EXIT
100
AcDbLine
 10
5.2
 20
9.60666
 30
0.0
 11
5.2
 21
9.726659999999999
 31
0.0
  0
LINE
  5
F5
330
17
100
AcDbEntity
  8
LS-EXIT
100
AcDbLine
 10
5.2
 20
9.66666
 30
0.0
 11
5.32
 21
9.66666
 31
0.0
  0
LINE
  5
F6
330
17
100
AcDbEntity
  8
LS-EXIT
100
AcDbLine
 10
5.32
 20
9.66666
 30
0.0
 11
5.276000000000001
 21
9.696660000000001
 31
0.0
  0
LINE
  5
F7
330
17
100
AcDbEntity
  8
LS-EXIT
100
AcDbLine
 10
5.32
 20
9.66666
 30
0.0
 11
5.276000000000001
 21
9.63666
 31
0.0
  0
TEXT
  5
F8
330
17
100
AcDbEntity
  8
LS-EXIT
100
AcDbText
 10
5.26
 20
9.726659999999999
 30
0.0
 40
0.04599999999999999
  1
X6 64 in (ST)
  7
KS-BOLD
 11
5.26
 21
9.726659999999999
 31
0.0
100
AcDbText
  0
LINE
  5
F9
330
17
100
AcDbEntity
  8
LS-EXIT
100
AcDbLine
 10
5.2
 20
8.1418
 30
0.0
 11
5.2
 21
8.261800000000001
 31
0.0
  0
LINE
  5
FA
330
17
100
AcDbEntity
  8
LS-EXIT
100
AcDbLine
 10
5.2
 20
8.2018
 30
0.0
 11
5.32
 21
8.2018
 31
0.0
  0
LINE
  5
FB
330
17
100
AcDbEntity
  8
LS-EXIT
100
AcDbLine
 10
5.32
 20
8.2018
 30
0.0
 11
5.276000000000001
 21
8.2318
 31
0.0
  0
LINE
  5
FC
330
17
100
AcDbEntity
  8
LS-EXIT
100
AcDbLine
 10
5.32
 20
8.2018
 30
0.0
 11
5.276000000000001
 21
8.171800000000001
 31
0.0
  0
TEXT
  5
FD
330
17
100
AcDbEntity
  8
LS-EXIT
100
AcDbText
 10
5.26
 20
8.261800000000001
 30
0.0
 40
0.04599999999999999
  1
X7 64 in · 426
  7
KS-BOLD
 11
5.26
 21
8.261800000000001
 31
0.0
100
AcDbText
  0
LINE
  5
FE
330
17
100
AcDbEntity
  8
LS-EXIT
100
AcDbLine
 10
5.2
 20
5.24
 30
0.0
 11
5.2
 21
5.36
 31
0.0
  0
LINE
  5
FF
330
17
100
AcDbEntity
  8
LS-EXIT
100
AcDbLine
 10
5.2
 20
5.3
 30
0.0
 11
5.32
 21
5.3
 31
0.0
  0
LINE
  5
100
330
17
100
AcDbEntity
  8
LS-EXIT
100
AcDbLine
 10
5.32
 20
5.3
 30
0.0
 11
5.276000000000001
 21
5.33
 31
0.0
  0
LINE
  5
101
330
17
100
AcDbEntity
  8
LS-EXIT
100
AcDbLine
 10
5.32
 20
5.3
 30
0.0
 11
5.276000000000001
 21
5.2700000000000005
 31
0.0
  0
TEXT
  5
102
330
17
100
AcDbEntity
  8
LS-EXIT
100
AcDbText
 10
5.26
 20
5.36
 30
0.0
 40
0.04599999999999999
  1
X8 64 in · 426
  7
KS-BOLD
 11
5.26
 21
5.36
 31
0.0
100
AcDbText
  0
LINE
  5
103
330
17
100
AcDbEntity
  8
LS-EXIT
100
AcDbLine
 10
4.89916
 20
4.62
 30
0.0
 11
5.01916
 21
4.62
 31
0.0
  0
LINE
  5
104
330
17
100
AcDbEntity
  8
LS-EXIT
100
AcDbLine
 10
4.959160000000001
 20
4.62
 30
0.0
 11
4.959160000000001
 21
4.5
 31
0.0
  0
LINE
  5
105
330
17
100
AcDbEntity
  8
LS-EXIT
100
AcDbLine
 10
4.959160000000001
 20
4.5
 30
0.0
 11
4.98916
 21
4.5440000000000005
 31
0.0
  0
LINE
  5
106
330
17
100
AcDbEntity
  8
LS-EXIT
100
AcDbLine
 10
4.959160000000001
 20
4.5
 30
0.0
 11
4.9291599999999995
 21
4.5440000000000005
 31
0.0
  0
TEXT
  5
107
330
17
100
AcDbEntity
  8
LS-EXIT
100
AcDbText
 10
4.959160000000001
 20
4.39
 30
0.0
 40
0.04599999999999999
  1
X9 64 in (ST)
  7
KS-BOLD
 72
1
 11
4.959160000000001
 21
4.39
 31
0.0
100
AcDbText
  0
LINE
  5
108
330
17
100
AcDbEntity
  8
LS-EXIT
100
AcDbLine
 10
1.06666
 20
4.62
 30
0.0
 11
1.18666
 21
4.62
 31
0.0
  0
LINE
  5
109
330
17
100
AcDbEntity
  8
LS-EXIT
100
AcDbLine
 10
1.12666
 20
4.62
 30
0.0
 11
1.12666
 21
4.5
 31
0.0
  0
LINE
  5
10A
330
17
100
AcDbEntity
  8
LS-EXIT
100
AcDbLine
 10
1.12666
 20
4.5
 30
0.0
 11
1.15666
 21
4.5440000000000005
 31
0.0
  0
LINE
  5
10B
330
17
100
AcDbEntity
  8
LS-EXIT
100
AcDbLine
 10
1.12666
 20
4.5
 30
0.0
 11
1.09666
 21
4.5440000000000005
 31
0.0
  0
TEXT
  5
10C
330
17
100
AcDbEntity
  8
LS-EXIT
100
AcDbText
 10
1.12666
 20
4.39
 30
0.0
 40
0.04599999999999999
  1
X10 64 in (ST)
  7
KS-BOLD
 72
1
 11
1.12666
 21
4.39
 31
0.0
100
AcDbText
  0
TEXT
  5
10D
330
17
100
AcDbEntity
  8
A-AREA-IDEN
100
AcDbText
 10
1.42
 20
8.26
 30
0.0
 40
0.04599999999999999
  1
71
  7
KS-BOLD
 72
1
 11
1.42
 21
8.26
 31
0.0
100
AcDbText
  0
TEXT
  5
10E
330
17
100
AcDbEntity
  8
A-AREA-IDEN
100
AcDbText
 10
1.42
 20
7.02
 30
0.0
 40
0.04599999999999999
  1
71
  7
KS-BOLD
 72
1
 11
1.42
 21
7.02
 31
0.0
100
AcDbText
  0
TEXT
  5
10F
330
17
100
AcDbEntity
  8
A-AREA-IDEN
100
AcDbText
 10
3.156
 20
9.379999999999999
 30
0.0
 40
0.04599999999999999
  1
18
  7
KS-BOLD
 72
1
 11
3.156
 21
9.379999999999999
 31
0.0
100
AcDbText
  0
TEXT
  5
110
330
17
100
AcDbEntity
  8
A-AREA-IDEN
100
AcDbText
 10
3.96
 20
9.379999999999999
 30
0.0
 40
0.04599999999999999
  1
18
  7
KS-BOLD
 72
1
 11
3.96
 21
9.379999999999999
 31
0.0
100
AcDbText
  0
TEXT
  5
111
330
17
100
AcDbEntity
  8
A-AREA-IDEN
100
AcDbText
 10
4.98
 20
8.690000000000001
 30
0.0
 40
0.04599999999999999
  1
18
  7
KS-BOLD
 72
1
 11
4.98
 21
8.690000000000001
 31
0.0
100
AcDbText
  0
TEXT
  5
112
330
17
100
AcDbEntity
  8
A-AREA-IDEN
100
AcDbText
 10
4.98
 20
7.712
 30
0.0
 40
0.04599999999999999
  1
18
  7
KS-BOLD
 72
1
 11
4.98
 21
7.712
 31
0.0
100
AcDbText
  0
TEXT
  5
113
330
17
100
AcDbEntity
  8
A-AREA-IDEN
100
AcDbText
 10
1.56
 20
5.36
 30
0.0
 40
0.04599999999999999
  1
134
  7
KS-BOLD
 72
1
 11
1.56
 21
5.36
 31
0.0
100
AcDbText
  0
TEXT
  5
114
330
17
100
AcDbEntity
  8
A-AREA-IDEN
100
AcDbText
 10
1.76
 20
4.8
 30
0.0
 40
0.04599999999999999
  1
4
  7
KS-BOLD
 72
1
 11
1.76
 21
4.8
 31
0.0
100
AcDbText
  0
TEXT
  5
115
330
17
100
AcDbEntity
  8
A-AREA-IDEN
100
AcDbText
 10
2.37
 20
9.379999999999999
 30
0.0
 40
0.04599999999999999
  1
3
  7
KS-BOLD
 72
1
 11
2.37
 21
9.379999999999999
 31
0.0
100
AcDbText
  0
TEXT
  5
116
330
17
100
AcDbEntity
  8
A-AREA-IDEN
100
AcDbText
 10
2.726
 20
9.379999999999999
 30
0.0
 40
0.04599999999999999
  1
1
  7
KS-BOLD
 72
1
 11
2.726
 21
9.379999999999999
 31
0.0
100
AcDbText
  0
TEXT
  5
117
330
17
100
AcDbEntity
  8
A-AREA-IDEN
100
AcDbText
 10
1.3599999999999999
 20
9.379999999999999
 30
0.0
 40
0.04599999999999999
  1
4
  7
KS-BOLD
 72
1
 11
1.3599999999999999
 21
9.379999999999999
 31
0.0
100
AcDbText
  0
TEXT
  5
118
330
17
100
AcDbEntity
  8
A-AREA-IDEN
100
AcDbText
 10
4.5
 20
9.379999999999999
 30
0.0
 40
0.04599999999999999
  1
3
  7
KS-BOLD
 72
1
 11
4.5
 21
9.379999999999999
 31
0.0
100
AcDbText
  0
TEXT
  5
119
330
17
100
AcDbEntity
  8
A-AREA-IDEN
100
AcDbText
 10
4.98
 20
6.5200000000000005
 30
0.0
 40
0.04599999999999999
  1
6
  7
KS-BOLD
 72
1
 11
4.98
 21
6.5200000000000005
 31
0.0
100
AcDbText
  0
TEXT
  5
11A
330
17
100
AcDbEntity
  8
A-AREA-IDEN
100
AcDbText
 10
4.96
 20
9.32
 30
0.0
 40
0.04599999999999999
  1
2
  7
KS-BOLD
 72
1
 11
4.96
 21
9.32
 31
0.0
100
AcDbText
  0
TEXT
  5
11B
330
17
100
AcDbEntity
  8
A-AREA-IDEN
100
AcDbText
 10
5.08
 20
5.43
 30
0.0
 40
0.04599999999999999
  1
1
  7
KS-BOLD
 72
1
 11
5.08
 21
5.43
 31
0.0
100
AcDbText
  0
TEXT
  5
11C
330
17
100
AcDbEntity
  8
A-AREA-IDEN
100
AcDbText
 10
4.45
 20
5.5200000000000005
 30
0.0
 40
0.04599999999999999
  1
2
  7
KS-BOLD
 72
1
 11
4.45
 21
5.5200000000000005
 31
0.0
100
AcDbText
  0
TEXT
  5
11D
330
17
100
AcDbEntity
  8
A-AREA-IDEN
100
AcDbText
 10
2.74
 20
9.92
 30
0.0
 40
0.04599999999999999
  1
7
  7
KS-BOLD
 72
1
 11
2.74
 21
9.92
 31
0.0
100
AcDbText
  0
TEXT
  5
11E
330
17
100
AcDbEntity
  8
A-AREA-IDEN
100
AcDbText
 10
2.74
 20
10.04
 30
0.0
 40
0.041999999999999996
  1
STORAGE ANNEX
  7
KS-REG
 72
1
 11
2.74
 21
10.04
 31
0.0
100
AcDbText
  0
LINE
  5
11F
330
17
100
AcDbEntity
  8
LS-EXIT
100
AcDbLine
 10
2.31
 20
10.26
 30
0.0
 11
2.4299999999999997
 21
10.26
 31
0.0
  0
TEXT
  5
120
330
17
100
AcDbEntity
  8
A-AREA-IDEN
100
AcDbText
 10
2.37
 20
10.31
 30
0.0
 40
0.041999999999999996
  1
S1
  7
KS-BOLD
 72
1
 11
2.37
 21
10.31
 31
0.0
100
AcDbText
  0
TEXT
  5
121
330
17
100
AcDbEntity
  8
A-AREA-IDEN
100
AcDbText
 10
3.32
 20
7.62
 30
0.0
 40
0.052000000000000005
  1
EVENT FLOOR 16,416 SF (D-054 CHAIRS-ONLY)
  7
KS-BOLD
 72
1
 11
3.32
 21
7.62
 31
0.0
100
AcDbText
  0
TEXT
  5
122
330
17
100
AcDbEntity
  8
A-AREA-IDEN
100
AcDbText
 10
3.32
 20
7.49
 30
0.0
 40
0.048
  1
chairs 7 net = 2,346 occ. (DESIGN, D-054)
  7
KS-REG
 72
1
 11
3.32
 21
7.49
 31
0.0
100
AcDbText
  0
TEXT
  5
123
330
17
100
AcDbEntity
  8
A-AREA-IDEN
100
AcDbText
 10
3.32
 20
7.37
 30
0.0
 40
0.044000000000000004
  1
sports 329 / tables 1,095 / chairs 2,346
  7
KS-REG
 72
1
 11
3.32
 21
7.37
 31
0.0
100
AcDbText
  0
TEXT
  5
124
330
17
100
AcDbEntity
  8
A-AREA-IDEN
100
AcDbText
 10
3.32
 20
5.844
 30
0.0
 40
0.044000000000000004
  1
LOWER TIER 1,100 seats (N / S / E)
  7
KS-REG
 72
1
 11
3.32
 21
5.844
 31
0.0
100
AcDbText
  0
TEXT
  5
125
330
17
100
AcDbEntity
  8
A-AREA-IDEN
100
AcDbText
 10
3.2600000000000002
 20
5.5600000000000005
 30
0.0
 40
0.048
  1
LOBBY
  7
KS-BOLD
 72
1
 11
3.2600000000000002
 21
5.5600000000000005
 31
0.0
100
AcDbText
  0
TEXT
  5
126
330
17
100
AcDbEntity
  8
A-AREA-IDEN
100
AcDbText
 10
3.2600000000000002
 20
5.46
 30
0.0
 40
0.039999999999999994
  1
(not added, 1004)
  7
KS-REG
 72
1
 11
3.2600000000000002
 21
5.46
 31
0.0
100
AcDbText
  0
LINE
  5
127
330
17
100
AcDbEntity
  8
LS-TRAV
100
AcDbLine
 10
3.32
 20
7.42
 30
0.0
 11
3.32
 21
7.47
 31
0.0
  0
LINE
  5
128
330
17
100
AcDbEntity
  8
LS-TRAV
100
AcDbLine
 10
3.32
 20
7.5
 30
0.0
 11
3.32
 21
7.55
 31
0.0
  0
LINE
  5
129
330
17
100
AcDbEntity
  8
LS-TRAV
100
AcDbLine
 10
3.32
 20
7.58
 30
0.0
 11
3.32
 21
7.63
 31
0.0
  0
LINE
  5
12A
330
17
100
AcDbEntity
  8
LS-TRAV
100
AcDbLine
 10
3.32
 20
7.66
 30
0.0
 11
3.32
 21
7.71
 31
0.0
  0
LINE
  5
12B
330
17
100
AcDbEntity
  8
LS-TRAV
100
AcDbLine
 10
3.32
 20
7.74
 30
0.0
 11
3.32
 21
7.79
 31
0.0
  0
LINE
  5
12C
330
17
100
AcDbEntity
  8
LS-TRAV
100
AcDbLine
 10
3.32
 20
7.82
 30
0.0
 11
3.32
 21
7.87
 31
0.0
  0
LINE
  5
12D
330
17
100
AcDbEntity
  8
LS-TRAV
100
AcDbLine
 10
3.32
 20
7.9
 30
0.0
 11
3.32
 21
7.95
 31
0.0
  0
LINE
  5
12E
330
17
100
AcDbEntity
  8
LS-TRAV
100
AcDbLine
 10
3.32
 20
7.98
 30
0.0
 11
3.32
 21
8.03
 31
0.0
  0
LINE
  5
12F
330
17
100
AcDbEntity
  8
LS-TRAV
100
AcDbLine
 10
3.32
 20
8.06
 30
0.0
 11
3.32
 21
8.11
 31
0.0
  0
LINE
  5
130
330
17
100
AcDbEntity
  8
LS-TRAV
100
AcDbLine
 10
3.32
 20
8.14
 30
0.0
 11
3.32
 21
8.19
 31
0.0
  0
LINE
  5
131
330
17
100
AcDbEntity
  8
LS-TRAV
100
AcDbLine
 10
3.32
 20
8.2018
 30
0.0
 11
3.3699999999999997
 21
8.2018
 31
0.0
  0
LINE
  5
132
330
17
100
AcDbEntity
  8
LS-TRAV
100
AcDbLine
 10
3.4
 20
8.2018
 30
0.0
 11
3.4499999999999997
 21
8.2018
 31
0.0
  0
LINE
  5
133
330
17
100
AcDbEntity
  8
LS-TRAV
100
AcDbLine
 10
3.48
 20
8.2018
 30
0.0
 11
3.53
 21
8.2018
 31
0.0
  0
LINE
  5
134
330
17
100
AcDbEntity
  8
LS-TRAV
100
AcDbLine
 10
3.56
 20
8.2018
 30
0.0
 11
3.61
 21
8.2018
 31
0.0
  0
LINE
  5
135
330
17
100
AcDbEntity
  8
LS-TRAV
100
AcDbLine
 10
3.6399999999999997
 20
8.2018
 30
0.0
 11
3.69
 21
8.2018
 31
0.0
  0
LINE
  5
136
330
17
100
AcDbEntity
  8
LS-TRAV
100
AcDbLine
 10
3.7199999999999998
 20
8.2018
 30
0.0
 11
3.77
 21
8.2018
 31
0.0
  0
LINE
  5
137
330
17
100
AcDbEntity
  8
LS-TRAV
100
AcDbLine
 10
3.8
 20
8.2018
 30
0.0
 11
3.8499999999999996
 21
8.2018
 31
0.0
  0
LINE
  5
138
330
17
100
AcDbEntity
  8
LS-TRAV
100
AcDbLine
 10
3.88
 20
8.2018
 30
0.0
 11
3.9299999999999997
 21
8.2018
 31
0.0
  0
LINE
  5
139
330
17
100
AcDbEntity
  8
LS-TRAV
100
AcDbLine
 10
3.96
 20
8.2018
 30
0.0
 11
4.01
 21
8.2018
 31
0.0
  0
LINE
  5
13A
330
17
100
AcDbEntity
  8
LS-TRAV
100
AcDbLine
 10
4.04
 20
8.2018
 30
0.0
 11
4.09
 21
8.2018
 31
0.0
  0
LINE
  5
13B
330
17
100
AcDbEntity
  8
LS-TRAV
100
AcDbLine
 10
4.12
 20
8.2018
 30
0.0
 11
4.17
 21
8.2018
 31
0.0
  0
LINE
  5
13C
330
17
100
AcDbEntity
  8
LS-TRAV
100
AcDbLine
 10
4.2
 20
8.2018
 30
0.0
 11
4.25
 21
8.2018
 31
0.0
  0
LINE
  5
13D
330
17
100
AcDbEntity
  8
LS-TRAV
100
AcDbLine
 10
4.28
 20
8.2018
 30
0.0
 11
4.33
 21
8.2018
 31
0.0
  0
LINE
  5
13E
330
17
100
AcDbEntity
  8
LS-TRAV
100
AcDbLine
 10
4.36
 20
8.2018
 30
0.0
 11
4.41
 21
8.2018
 31
0.0
  0
LINE
  5
13F
330
17
100
AcDbEntity
  8
LS-TRAV
100
AcDbLine
 10
4.44
 20
8.2018
 30
0.0
 11
4.49
 21
8.2018
 31
0.0
  0
LINE
  5
140
330
17
100
AcDbEntity
  8
LS-TRAV
100
AcDbLine
 10
4.5200000000000005
 20
8.2018
 30
0.0
 11
4.57
 21
8.2018
 31
0.0
  0
LINE
  5
141
330
17
100
AcDbEntity
  8
LS-TRAV
100
AcDbLine
 10
4.6000000000000005
 20
8.2018
 30
0.0
 11
4.65
 21
8.2018
 31
0.0
  0
LINE
  5
142
330
17
100
AcDbEntity
  8
LS-TRAV
100
AcDbLine
 10
4.680000000000001
 20
8.2018
 30
0.0
 11
4.73
 21
8.2018
 31
0.0
  0
LINE
  5
143
330
17
100
AcDbEntity
  8
LS-TRAV
100
AcDbLine
 10
4.760000000000001
 20
8.2018
 30
0.0
 11
4.8100000000000005
 21
8.2018
 31
0.0
  0
LINE
  5
144
330
17
100
AcDbEntity
  8
LS-TRAV
100
AcDbLine
 10
4.840000000000001
 20
8.2018
 30
0.0
 11
4.890000000000001
 21
8.2018
 31
0.0
  0
LINE
  5
145
330
17
100
AcDbEntity
  8
LS-TRAV
100
AcDbLine
 10
4.920000000000001
 20
8.2018
 30
0.0
 11
4.970000000000001
 21
8.2018
 31
0.0
  0
LINE
  5
146
330
17
100
AcDbEntity
  8
LS-TRAV
100
AcDbLine
 10
5.000000000000001
 20
8.2018
 30
0.0
 11
5.050000000000001
 21
8.2018
 31
0.0
  0
LINE
  5
147
330
17
100
AcDbEntity
  8
LS-TRAV
100
AcDbLine
 10
5.080000000000001
 20
8.2018
 30
0.0
 11
5.130000000000001
 21
8.2018
 31
0.0
  0
LINE
  5
148
330
17
100
AcDbEntity
  8
LS-TRAV
100
AcDbLine
 10
5.160000000000001
 20
8.2018
 30
0.0
 11
5.2
 21
8.2018
 31
0.0
  0
HATCH
  5
149
330
17
100
AcDbEntity
  8
LS-TRAV
 62
7
420
0
100
AcDbHatch
 10
0.0
 20
0.0
 30
0.0
210
0.0
220
0.0
230
1.0
  2
SOLID
 70
1
 71
0
 91
1
 92
3
 72
0
 73
1
 93
4
 10
3.29
 20
7.39
 10
3.3499999999999996
 20
7.39
 10
3.3499999999999996
 20
7.45
 10
3.29
 20
7.45
 97
0
 75
0
 76
1
 98
0
  0
TEXT
  5
14A
330
17
100
AcDbEntity
  8
LS-TRAV
100
AcDbText
 10
3.4
 20
8.280000000000001
 30
0.0
 40
0.052000000000000005
  1
T1 133'
  7
KS-BOLD
 11
3.4
 21
8.280000000000001
 31
0.0
100
AcDbText
  0
LINE
  5
14B
330
17
100
AcDbEntity
  8
LS-TRAV
100
AcDbLine
 10
4.52
 20
5.98
 30
0.0
 11
4.47
 21
5.98
 31
0.0
  0
LINE
  5
14C
330
17
100
AcDbEntity
  8
LS-TRAV
100
AcDbLine
 10
4.4399999999999995
 20
5.98
 30
0.0
 11
4.39
 21
5.98
 31
0.0
  0
LINE
  5
14D
330
17
100
AcDbEntity
  8
LS-TRAV
100
AcDbLine
 10
4.359999999999999
 20
5.98
 30
0.0
 11
4.31
 21
5.98
 31
0.0
  0
LINE
  5
14E
330
17
100
AcDbEntity
  8
LS-TRAV
100
AcDbLine
 10
4.279999999999999
 20
5.98
 30
0.0
 11
4.2299999999999995
 21
5.98
 31
0.0
  0
LINE
  5
14F
330
17
100
AcDbEntity
  8
LS-TRAV
100
AcDbLine
 10
4.199999999999999
 20
5.98
 30
0.0
 11
4.1499999999999995
 21
5.98
 31
0.0
  0
LINE
  5
150
330
17
100
AcDbEntity
  8
LS-TRAV
100
AcDbLine
 10
4.119999999999999
 20
5.98
 30
0.0
 11
4.069999999999999
 21
5.98
 31
0.0
  0
LINE
  5
151
330
17
100
AcDbEntity
  8
LS-TRAV
100
AcDbLine
 10
4.039999999999999
 20
5.98
 30
0.0
 11
3.9899999999999993
 21
5.98
 31
0.0
  0
LINE
  5
152
330
17
100
AcDbEntity
  8
LS-TRAV
100
AcDbLine
 10
3.9599999999999995
 20
5.98
 30
0.0
 11
3.9099999999999993
 21
5.98
 31
0.0
  0
LINE
  5
153
330
17
100
AcDbEntity
  8
LS-TRAV
100
AcDbLine
 10
3.8799999999999994
 20
5.98
 30
0.0
 11
3.829999999999999
 21
5.98
 31
0.0
  0
LINE
  5
154
330
17
100
AcDbEntity
  8
LS-TRAV
100
AcDbLine
 10
3.7999999999999994
 20
5.98
 30
0.0
 11
3.749999999999999
 21
5.98
 31
0.0
  0
LINE
  5
155
330
17
100
AcDbEntity
  8
LS-TRAV
100
AcDbLine
 10
3.7199999999999993
 20
5.98
 30
0.0
 11
3.669999999999999
 21
5.98
 31
0.0
  0
LINE
  5
156
330
17
100
AcDbEntity
  8
LS-TRAV
100
AcDbLine
 10
3.6399999999999992
 20
5.98
 30
0.0
 11
3.589999999999999
 21
5.98
 31
0.0
  0
LINE
  5
157
330
17
100
AcDbEntity
  8
LS-TRAV
100
AcDbLine
 10
3.559999999999999
 20
5.98
 30
0.0
 11
3.509999999999999
 21
5.98
 31
0.0
  0
LINE
  5
158
330
17
100
AcDbEntity
  8
LS-TRAV
100
AcDbLine
 10
3.479999999999999
 20
5.98
 30
0.0
 11
3.429999999999999
 21
5.98
 31
0.0
  0
LINE
  5
159
330
17
100
AcDbEntity
  8
LS-TRAV
100
AcDbLine
 10
3.399999999999999
 20
5.98
 30
0.0
 11
3.3499999999999988
 21
5.98
 31
0.0
  0
LINE
  5
15A
330
17
100
AcDbEntity
  8
LS-TRAV
100
AcDbLine
 10
3.319999999999999
 20
5.98
 30
0.0
 11
3.2699999999999987
 21
5.98
 31
0.0
  0
LINE
  5
15B
330
17
100
AcDbEntity
  8
LS-TRAV
100
AcDbLine
 10
3.2600000000000002
 20
5.98
 30
0.0
 11
3.2600000000000002
 21
5.930000000000001
 31
0.0
  0
LINE
  5
15C
330
17
100
AcDbEntity
  8
LS-TRAV
100
AcDbLine
 10
3.2600000000000002
 20
5.9
 30
0.0
 11
3.2600000000000002
 21
5.8500000000000005
 31
0.0
  0
LINE
  5
15D
330
17
100
AcDbEntity
  8
LS-TRAV
100
AcDbLine
 10
3.2600000000000002
 20
5.82
 30
0.0
 11
3.2600000000000002
 21
5.7700000000000005
 31
0.0
  0
LINE
  5
15E
330
17
100
AcDbEntity
  8
LS-TRAV
100
AcDbLine
 10
3.2600000000000002
 20
5.74
 30
0.0
 11
3.2600000000000002
 21
5.69
 31
0.0
  0
LINE
  5
15F
330
17
100
AcDbEntity
  8
LS-TRAV
100
AcDbLine
 10
3.2600000000000002
 20
5.66
 30
0.0
 11
3.2600000000000002
 21
5.61
 31
0.0
  0
LINE
  5
160
330
17
100
AcDbEntity
  8
LS-TRAV
100
AcDbLine
 10
3.2600000000000002
 20
5.58
 30
0.0
 11
3.2600000000000002
 21
5.53
 31
0.0
  0
LINE
  5
161
330
17
100
AcDbEntity
  8
LS-TRAV
100
AcDbLine
 10
3.2600000000000002
 20
5.5
 30
0.0
 11
3.2600000000000002
 21
5.45
 31
0.0
  0
LINE
  5
162
330
17
100
AcDbEntity
  8
LS-TRAV
100
AcDbLine
 10
3.2600000000000002
 20
5.42
 30
0.0
 11
3.2600000000000002
 21
5.37
 31
0.0
  0
LINE
  5
163
330
17
100
AcDbEntity
  8
LS-TRAV
100
AcDbLine
 10
3.2600000000000002
 20
5.34
 30
0.0
 11
3.2600000000000002
 21
5.29
 31
0.0
  0
LINE
  5
164
330
17
100
AcDbEntity
  8
LS-TRAV
100
AcDbLine
 10
3.2600000000000002
 20
5.26
 30
0.0
 11
3.2600000000000002
 21
5.21
 31
0.0
  0
LINE
  5
165
330
17
100
AcDbEntity
  8
LS-TRAV
100
AcDbLine
 10
3.2600000000000002
 20
5.18
 30
0.0
 11
3.2600000000000002
 21
5.13
 31
0.0
  0
LINE
  5
166
330
17
100
AcDbEntity
  8
LS-TRAV
100
AcDbLine
 10
3.2600000000000002
 20
5.1
 30
0.0
 11
3.2600000000000002
 21
5.05
 31
0.0
  0
LINE
  5
167
330
17
100
AcDbEntity
  8
LS-TRAV
100
AcDbLine
 10
3.2600000000000002
 20
5.02
 30
0.0
 11
3.2600000000000002
 21
4.97
 31
0.0
  0
LINE
  5
168
330
17
100
AcDbEntity
  8
LS-TRAV
100
AcDbLine
 10
3.2600000000000002
 20
4.9399999999999995
 30
0.0
 11
3.2600000000000002
 21
4.89
 31
0.0
  0
LINE
  5
169
330
17
100
AcDbEntity
  8
LS-TRAV
100
AcDbLine
 10
3.2600000000000002
 20
4.859999999999999
 30
0.0
 11
3.2600000000000002
 21
4.81
 31
0.0
  0
LINE
  5
16A
330
17
100
AcDbEntity
  8
LS-TRAV
100
AcDbLine
 10
3.2600000000000002
 20
4.779999999999999
 30
0.0
 11
3.2600000000000002
 21
4.7299999999999995
 31
0.0
  0
LINE
  5
16B
330
17
100
AcDbEntity
  8
LS-TRAV
100
AcDbLine
 10
3.2600000000000002
 20
4.699999999999999
 30
0.0
 11
3.2600000000000002
 21
4.6499999999999995
 31
0.0
  0
HATCH
  5
16C
330
17
100
AcDbEntity
  8
LS-TRAV
 62
7
420
0
100
AcDbHatch
 10
0.0
 20
0.0
 30
0.0
210
0.0
220
0.0
230
1.0
  2
SOLID
 70
1
 71
0
 91
1
 92
3
 72
0
 73
1
 93
4
 10
4.489999999999999
 20
5.95
 10
4.55
 20
5.95
 10
4.55
 20
6.010000000000001
 10
4.489999999999999
 20
6.010000000000001
 97
0
 75
0
 76
1
 98
0
  0
TEXT
  5
16D
330
17
100
AcDbEntity
  8
LS-TRAV
100
AcDbText
 10
4.0
 20
6.05
 30
0.0
 40
0.052000000000000005
  1
T2 131'
  7
KS-BOLD
 11
4.0
 21
6.05
 31
0.0
100
AcDbText
  0
LINE
  5
16E
330
17
100
AcDbEntity
  8
LS-TRAV
100
AcDbLine
 10
1.82
 20
5.76
 30
0.0
 11
1.82
 21
5.81
 31
0.0
  0
LINE
  5
16F
330
17
100
AcDbEntity
  8
LS-TRAV
100
AcDbLine
 10
1.82
 20
5.84
 30
0.0
 11
1.82
 21
5.89
 31
0.0
  0
LINE
  5
170
330
17
100
AcDbEntity
  8
LS-TRAV
100
AcDbLine
 10
1.82
 20
5.92
 30
0.0
 11
1.82
 21
5.97
 31
0.0
  0
LINE
  5
171
330
17
100
AcDbEntity
  8
LS-TRAV
100
AcDbLine
 10
1.82
 20
6.0
 30
0.0
 11
1.82
 21
6.05
 31
0.0
  0
LINE
  5
172
330
17
100
AcDbEntity
  8
LS-TRAV
100
AcDbLine
 10
1.82
 20
6.08
 30
0.0
 11
1.82
 21
6.13
 31
0.0
  0
LINE
  5
173
330
17
100
AcDbEntity
  8
LS-TRAV
100
AcDbLine
 10
1.82
 20
6.16
 30
0.0
 11
1.82
 21
6.21
 31
0.0
  0
LINE
  5
174
330
17
100
AcDbEntity
  8
LS-TRAV
100
AcDbLine
 10
1.82
 20
6.24
 30
0.0
 11
1.82
 21
6.29
 31
0.0
  0
LINE
  5
175
330
17
100
AcDbEntity
  8
LS-TRAV
100
AcDbLine
 10
1.82
 20
6.32
 30
0.0
 11
1.82
 21
6.37
 31
0.0
  0
LINE
  5
176
330
17
100
AcDbEntity
  8
LS-TRAV
100
AcDbLine
 10
1.82
 20
6.4
 30
0.0
 11
1.82
 21
6.45
 31
0.0
  0
LINE
  5
177
330
17
100
AcDbEntity
  8
LS-TRAV
100
AcDbLine
 10
1.82
 20
6.48
 30
0.0
 11
1.82
 21
6.53
 31
0.0
  0
LINE
  5
178
330
17
100
AcDbEntity
  8
LS-TRAV
100
AcDbLine
 10
1.82
 20
6.5600000000000005
 30
0.0
 11
1.82
 21
6.58
 31
0.0
  0
LINE
  5
179
330
17
100
AcDbEntity
  8
LS-TRAV
100
AcDbLine
 10
1.82
 20
6.58
 30
0.0
 11
1.77
 21
6.58
 31
0.0
  0
LINE
  5
17A
330
17
100
AcDbEntity
  8
LS-TRAV
100
AcDbLine
 10
1.74
 20
6.58
 30
0.0
 11
1.69
 21
6.58
 31
0.0
  0
LINE
  5
17B
330
17
100
AcDbEntity
  8
LS-TRAV
100
AcDbLine
 10
1.6600000000000001
 20
6.58
 30
0.0
 11
1.61
 21
6.58
 31
0.0
  0
LINE
  5
17C
330
17
100
AcDbEntity
  8
LS-TRAV
100
AcDbLine
 10
1.58
 20
6.58
 30
0.0
 11
1.53
 21
6.58
 31
0.0
  0
LINE
  5
17D
330
17
100
AcDbEntity
  8
LS-TRAV
100
AcDbLine
 10
1.5
 20
6.58
 30
0.0
 11
1.45
 21
6.58
 31
0.0
  0
LINE
  5
17E
330
17
100
AcDbEntity
  8
LS-TRAV
100
AcDbLine
 10
1.42
 20
6.58
 30
0.0
 11
1.37
 21
6.58
 31
0.0
  0
LINE
  5
17F
330
17
100
AcDbEntity
  8
LS-TRAV
100
AcDbLine
 10
1.34
 20
6.58
 30
0.0
 11
1.29
 21
6.58
 31
0.0
  0
LINE
  5
180
330
17
100
AcDbEntity
  8
LS-TRAV
100
AcDbLine
 10
1.26
 20
6.58
 30
0.0
 11
1.21
 21
6.58
 31
0.0
  0
LINE
  5
181
330
17
100
AcDbEntity
  8
LS-TRAV
100
AcDbLine
 10
1.18
 20
6.58
 30
0.0
 11
1.13
 21
6.58
 31
0.0
  0
LINE
  5
182
330
17
100
AcDbEntity
  8
LS-TRAV
100
AcDbLine
 10
1.0999999999999999
 20
6.58
 30
0.0
 11
1.0499999999999998
 21
6.58
 31
0.0
  0
LINE
  5
183
330
17
100
AcDbEntity
  8
LS-TRAV
100
AcDbLine
 10
1.0199999999999998
 20
6.58
 30
0.0
 11
1.0
 21
6.58
 31
0.0
  0
HATCH
  5
184
330
17
100
AcDbEntity
  8
LS-TRAV
 62
7
420
0
100
AcDbHatch
 10
0.0
 20
0.0
 30
0.0
210
0.0
220
0.0
230
1.0
  2
SOLID
 70
1
 71
0
 91
1
 92
3
 72
0
 73
1
 93
4
 10
1.79
 20
5.7299999999999995
 10
1.85
 20
5.7299999999999995
 10
1.85
 20
5.79
 10
1.79
 20
5.79
 97
0
 75
0
 76
1
 98
0
  0
TEXT
  5
185
330
17
100
AcDbEntity
  8
LS-TRAV
100
AcDbText
 10
1.8599999999999999
 20
6.140000000000001
 30
0.0
 40
0.052000000000000005
  1
T3 82'
  7
KS-BOLD
 11
1.8599999999999999
 21
6.140000000000001
 31
0.0
100
AcDbText
  0
LINE
  5
186
330
17
100
AcDbEntity
  8
LS-SEPR
100
AcDbLine
 10
3.557
 20
4.84
 30
0.0
 11
3.557
 21
9.64
 31
0.0
  0
TEXT
  5
187
330
17
100
AcDbEntity
  8
LS-SEPR
100
AcDbText
 10
3.593
 20
6.1
 30
0.0
 40
0.045
  1
SEPARATION E1-X5 252' ≥ 111.1'
 50
90.0
  7
KS-REG
 11
3.593
 21
6.1
 31
0.0
100
AcDbText
  0
TEXT
  5
188
330
17
100
AcDbEntity
  8
A-ANNO-TEXT
100
AcDbText
 10
6.35
 20
10.22
 30
0.0
 40
0.095
  1
LEVEL 2 — LIFE SAFETY (PLAN REV F, UNCHANGED)
  7
KS-BOLD
 11
6.35
 21
10.22
 31
0.0
100
AcDbText
  0
TEXT
  5
189
330
17
100
AcDbEntity
  8
A-ANNO-TEXT
100
AcDbText
 10
6.35
 20
10.07
 30
0.0
 40
0.06
  1
1" = 50'-0" · 4 stairs 76 in (D-052) = the L2 exits · loop = upper concourse on event days
  7
KS-REG
 11
6.35
 21
10.07
 31
0.0
100
AcDbText
  0
LWPOLYLINE
  5
18A
330
17
100
AcDbEntity
  8
A-AREA-BLCK
100
AcDbPolyline
 90
4
 70
1
 10
8.03
 20
4.62
 10
9.19
 20
4.62
 10
9.19
 20
5.3
 10
8.03
 20
5.3
  0
LINE
  5
18B
330
17
100
AcDbEntity
  8
A-AREA-BLCK
100
AcDbLine
 10
8.03
 20
4.62
 30
0.0
 11
8.064507918803905
 21
4.6402287799884965
 31
0.0
  0
LINE
  5
18C
330
17
100
AcDbEntity
  8
A-AREA-BLCK
100
AcDbLine
 10
8.107642817308788
 20
4.665514754974118
 30
0.0
 11
8.142150736112695
 21
4.685743534962615
 31
0.0
  0
LINE
  5
18D
330
17
100
AcDbEntity
  8
A-AREA-BLCK
100
AcDbLine
 10
8.185285634617578
 20
4.7110295099482355
 30
0.0
 11
8.219793553421484
 21
4.731258289936733
 31
0.0
  0
LINE
  5
18E
330
17
100
AcDbEntity
  8
A-AREA-BLCK
100
AcDbLine
 10
8.262928451926367
 20
4.756544264922353
 30
0.0
 11
8.297436370730273
 21
4.7767730449108505
 31
0.0
  0
LINE
  5
18F
330
17
100
AcDbEntity
  8
A-AREA-BLCK
100
AcDbLine
 10
8.340571269235156
 20
4.802059019896471
 30
0.0
 11
8.375079188039063
 21
4.822287799884968
 31
0.0
  0
LINE
  5
190
330
17
100
AcDbEntity
  8
A-AREA-BLCK
100
AcDbLine
 10
8.418214086543946
 20
4.847573774870589
 30
0.0
 11
8.452722005347852
 21
4.867802554859086
 31
0.0
  0
LINE
  5
191
330
17
100
AcDbEntity
  8
A-AREA-BLCK
100
AcDbLine
 10
8.495856903852735
 20
4.893088529844706
 30
0.0
 11
8.53036482265664
 21
4.913317309833204
 31
0.0
  0
LINE
  5
192
330
17
100
AcDbEntity
  8
A-AREA-BLCK
100
AcDbLine
 10
8.573499721161523
 20
4.938603284818825
 30
0.0
 11
8.60800763996543
 21
4.958832064807321
 31
0.0
  0
LINE
  5
193
330
17
100
AcDbEntity
  8
A-AREA-BLCK
100
AcDbLine
 10
8.651142538470314
 20
4.984118039792943
 30
0.0
 11
8.68565045727422
 21
5.004346819781439
 31
0.0
  0
LINE
  5
194
330
17
100
AcDbEntity
  8
A-AREA-BLCK
100
AcDbLine
 10
8.728785355779102
 20
5.0296327947670605
 30
0.0
 11
8.76329327458301
 21
5.049861574755557
 31
0.0
  0
LINE
  5
195
330
17
100
AcDbEntity
  8
A-AREA-BLCK
100
AcDbLine
 10
8.806428173087891
 20
5.075147549741178
 30
0.0
 11
8.840936091891798
 21
5.095376329729675
 31
0.0
  0
LINE
  5
196
330
17
100
AcDbEntity
  8
A-AREA-BLCK
100
AcDbLine
 10
8.884070990396681
 20
5.120662304715296
 30
0.0
 11
8.918578909200587
 21
5.140891084703792
 31
0.0
  0
LINE
  5
197
330
17
100
AcDbEntity
  8
A-AREA-BLCK
100
AcDbLine
 10
8.96171380770547
 20
5.166177059689414
 30
0.0
 11
8.996221726509377
 21
5.186405839677911
 31
0.0
  0
LINE
  5
198
330
17
100
AcDbEntity
  8
A-AREA-BLCK
100
AcDbLine
 10
9.03935662501426
 20
5.211691814663531
 30
0.0
 11
9.073864543818166
 21
5.231920594652029
 31
0.0
  0
LINE
  5
199
330
17
100
AcDbEntity
  8
A-AREA-BLCK
100
AcDbLine
 10
9.11699944232305
 20
5.257206569637649
 30
0.0
 11
9.151507361126955
 21
5.277435349626146
 31
0.0
  0
LINE
  5
19A
330
17
100
AcDbEntity
  8
A-AREA-BLCK
100
AcDbLine
 10
8.03
 20
5.3
 30
0.0
 11
8.064507918803905
 21
5.2797712200115035
 31
0.0
  0
LINE
  5
19B
330
17
100
AcDbEntity
  8
A-AREA-BLCK
100
AcDbLine
 10
8.107642817308788
 20
5.254485245025882
 30
0.0
 11
8.142150736112695
 21
5.234256465037385
 31
0.0
  0
LINE
  5
19C
330
17
100
AcDbEntity
  8
A-AREA-BLCK
100
AcDbLine
 10
8.185285634617578
 20
5.208970490051764
 30
0.0
 11
8.219793553421484
 21
5.188741710063267
 31
0.0
  0
LINE
  5
19D
330
17
100
AcDbEntity
  8
A-AREA-BLCK
100
AcDbLine
 10
8.262928451926367
 20
5.163455735077647
 30
0.0
 11
8.297436370730273
 21
5.143226955089149
 31
0.0
  0
LINE
  5
19E
330
17
100
AcDbEntity
  8
A-AREA-BLCK
100
AcDbLine
 10
8.340571269235156
 20
5.117940980103529
 30
0.0
 11
8.375079188039063
 21
5.097712200115032
 31
0.0
  0
LINE
  5
19F
330
17
100
AcDbEntity
  8
A-AREA-BLCK
100
AcDbLine
 10
8.418214086543946
 20
5.072426225129411
 30
0.0
 11
8.452722005347852
 21
5.052197445140914
 31
0.0
  0
LINE
  5
1A0
330
17
100
AcDbEntity
  8
A-AREA-BLCK
100
AcDbLine
 10
8.495856903852735
 20
5.0269114701552935
 30
0.0
 11
8.53036482265664
 21
5.006682690166796
 31
0.0
  0
LINE
  5
1A1
330
17
100
AcDbEntity
  8
A-AREA-BLCK
100
AcDbLine
 10
8.573499721161523
 20
4.981396715181175
 30
0.0
 11
8.60800763996543
 21
4.9611679351926785
 31
0.0
  0
LINE
  5
1A2
330
17
100
AcDbEntity
  8
A-AREA-BLCK
100
AcDbLine
 10
8.651142538470314
 20
4.935881960207057
 30
0.0
 11
8.68565045727422
 21
4.915653180218561
 31
0.0
  0
LINE
  5
1A3
330
17
100
AcDbEntity
  8
A-AREA-BLCK
100
AcDbLine
 10
8.728785355779102
 20
4.890367205232939
 30
0.0
 11
8.76329327458301
 21
4.870138425244443
 31
0.0
  0
LINE
  5
1A4
330
17
100
AcDbEntity
  8
A-AREA-BLCK
100
AcDbLine
 10
8.806428173087891
 20
4.844852450258822
 30
0.0
 11
8.840936091891798
 21
4.824623670270325
 31
0.0
  0
LINE
  5
1A5
330
17
100
AcDbEntity
  8
A-AREA-BLCK
100
AcDbLine
 10
8.884070990396681
 20
4.799337695284704
 30
0.0
 11
8.918578909200587
 21
4.779108915296208
 31
0.0
  0
LINE
  5
1A6
330
17
100
AcDbEntity
  8
A-AREA-BLCK
100
AcDbLine
 10
8.96171380770547
 20
4.753822940310586
 30
0.0
 11
8.996221726509377
 21
4.733594160322089
 31
0.0
  0
LINE
  5
1A7
330
17
100
AcDbEntity
  8
A-AREA-BLCK
100
AcDbLine
 10
9.03935662501426
 20
4.7083081853364686
 30
0.0
 11
9.073864543818166
 21
4.688079405347971
 31
0.0
  0
LINE
  5
1A8
330
17
100
AcDbEntity
  8
A-AREA-BLCK
100
AcDbLine
 10
9.11699944232305
 20
4.662793430362351
 30
0.0
 11
9.151507361126955
 21
4.642564650373854
 31
0.0
  0
LWPOLYLINE
  5
1A9
330
17
100
AcDbEntity
  8
A-AREA-BLCK
100
AcDbPolyline
 90
4
 70
1
 10
7.47
 20
5.74
 10
10.11
 20
5.74
 10
10.11
 20
9.1
 10
7.47
 20
9.1
  0
LINE
  5
1AA
330
17
100
AcDbEntity
  8
A-AREA-BLCK
100
AcDbLine
 10
7.47
 20
5.74
 30
0.0
 11
7.494712862077276
 21
5.771452733552898
 31
0.0
  0
LINE
  5
1AB
330
17
100
AcDbEntity
  8
A-AREA-BLCK
100
AcDbLine
 10
7.525603939673871
 20
5.810768650494018
 30
0.0
 11
7.550316801751147
 21
5.8422213840469155
 31
0.0
  0
LINE
  5
1AC
330
17
100
AcDbEntity
  8
A-AREA-BLCK
100
AcDbLine
 10
7.581207879347742
 20
5.881537300988036
 30
0.0
 11
7.6059207414250185
 21
5.912990034540933
 31
0.0
  0
LINE
  5
1AD
330
17
100
AcDbEntity
  8
A-AREA-BLCK
100
AcDbLine
 10
7.636811819021614
 20
5.952305951482054
 30
0.0
 11
7.66152468109889
 21
5.983758685034951
 31
0.0
  0
LINE
  5
1AE
330
17
100
AcDbEntity
  8
A-AREA-BLCK
100
AcDbLine
 10
7.692415758695485
 20
6.023074601976073
 30
0.0
 11
7.717128620772761
 21
6.054527335528969
 31
0.0
  0
LINE
  5
1AF
330
17
100
AcDbEntity
  8
A-AREA-BLCK
100
AcDbLine
 10
7.748019698369356
 20
6.093843252470091
 30
0.0
 11
7.772732560446633
 21
6.125295986022987
 31
0.0
  0
LINE
  5
1B0
330
17
100
AcDbEntity
  8
A-AREA-BLCK
100
AcDbLine
 10
7.803623638043227
 20
6.164611902964109
 30
0.0
 11
7.828336500120503
 21
6.196064636517005
 31
0.0
  0
LINE
  5
1B1
330
17
100
AcDbEntity
  8
A-AREA-BLCK
100
AcDbLine
 10
7.859227577717099
 20
6.235380553458127
 30
0.0
 11
7.883940439794375
 21
6.266833287011024
 31
0.0
  0
LINE
  5
1B2
330
17
100
AcDbEntity
  8
A-AREA-BLCK
100
AcDbLine
 10
7.9148315173909705
 20
6.3061492039521445
 30
0.0
 11
7.939544379468247
 21
6.337601937505042
 31
0.0
  0
LINE
  5
1B3
330
17
100
AcDbEntity
  8
A-AREA-BLCK
100
AcDbLine
 10
7.970435457064841
 20
6.376917854446162
 30
0.0
 11
7.9951483191421175
 21
6.40837058799906
 31
0.0
  0
LINE
  5
1B4
330
17
100
AcDbEntity
  8
A-AREA-BLCK
100
AcDbLine
 10
8.026039396738714
 20
6.447686504940181
 30
0.0
 11
8.050752258815988
 21
6.479139238493078
 31
0.0
  0
LINE
  5
1B5
330
17
100
AcDbEntity
  8
A-AREA-BLCK
100
AcDbLine
 10
8.081643336412585
 20
6.518455155434199
 30
0.0
 11
8.10635619848986
 21
6.549907888987096
 31
0.0
  0
LINE
  5
1B6
330
17
100
AcDbEntity
  8
A-AREA-BLCK
100
AcDbLine
 10
8.137247276086455
 20
6.589223805928217
 30
0.0
 11
8.161960138163732
 21
6.6206765394811145
 31
0.0
  0
LINE
  5
1B7
330
17
100
AcDbEntity
  8
A-AREA-BLCK
100
AcDbLine
 10
8.192851215760326
 20
6.659992456422235
 30
0.0
 11
8.217564077837602
 21
6.691445189975132
 31
0.0
  0
LINE
  5
1B8
330
17
100
AcDbEntity
  8
A-AREA-BLCK
100
AcDbLine
 10
8.248455155434199
 20
6.730761106916253
 30
0.0
 11
8.273168017511475
 21
6.76221384046915
 31
0.0
  0
LINE
  5
1B9
330
17
100
AcDbEntity
  8
A-AREA-BLCK
100
AcDbLine
 10
8.30405909510807
 20
6.801529757410272
 30
0.0
 11
8.328771957185346
 21
6.832982490963168
 31
0.0
  0
LINE
  5
1BA
330
17
100
AcDbEntity
  8
A-AREA-BLCK
100
AcDbLine
 10
8.35966303478194
 20
6.87229840790429
 30
0.0
 11
8.384375896859217
 21
6.903751141457187
 31
0.0
  0
LINE
  5
1BB
330
17
100
AcDbEntity
  8
A-AREA-BLCK
100
AcDbLine
 10
8.415266974455813
 20
6.943067058398308
 30
0.0
 11
8.43997983653309
 21
6.974519791951205
 31
0.0
  0
LINE
  5
1BC
330
17
100
AcDbEntity
  8
A-AREA-BLCK
100
AcDbLine
 10
8.470870914129684
 20
7.0138357088923255
 30
0.0
 11
8.49558377620696
 21
7.045288442445223
 31
0.0
  0
LINE
  5
1BD
330
17
100
AcDbEntity
  8
A-AREA-BLCK
100
AcDbLine
 10
8.526474853803554
 20
7.0846043593863435
 30
0.0
 11
8.55118771588083
 21
7.116057092939241
 31
0.0
  0
LINE
  5
1BE
330
17
100
AcDbEntity
  8
A-AREA-BLCK
100
AcDbLine
 10
8.582078793477427
 20
7.155373009880362
 30
0.0
 11
8.606791655554703
 21
7.186825743433259
 31
0.0
  0
LINE
  5
1BF
330
17
100
AcDbEntity
  8
A-AREA-BLCK
100
AcDbLine
 10
8.637682733151298
 20
7.22614166037438
 30
0.0
 11
8.662395595228574
 21
7.257594393927278
 31
0.0
  0
LINE
  5
1C0
330
17
100
AcDbEntity
  8
A-AREA-BLCK
100
AcDbLine
 10
8.693286672825169
 20
7.296910310868398
 30
0.0
 11
8.717999534902445
 21
7.328363044421295
 31
0.0
  0
LINE
  5
1C1
330
17
100
AcDbEntity
  8
A-AREA-BLCK
100
AcDbLine
 10
8.74889061249904
 20
7.367678961362416
 30
0.0
 11
8.773603474576316
 21
7.399131694915313
 31
0.0
  0
LINE
  5
1C2
330
17
100
AcDbEntity
  8
A-AREA-BLCK
100
AcDbLine
 10
8.804494552172912
 20
7.438447611856434
 30
0.0
 11
8.829207414250188
 21
7.4699003454093305
 31
0.0
  0
LINE
  5
1C3
330
17
100
AcDbEntity
  8
A-AREA-BLCK
100
AcDbLine
 10
8.860098491846783
 20
7.509216262350452
 30
0.0
 11
8.884811353924059
 21
7.540668995903349
 31
0.0
  0
LINE
  5
1C4
330
17
100
AcDbEntity
  8
A-AREA-BLCK
100
AcDbLine
 10
8.915702431520653
 20
7.57998491284447
 30
0.0
 11
8.94041529359793
 21
7.611437646397367
 31
0.0
  0
LINE
  5
1C5
330
17
100
AcDbEntity
  8
A-AREA-BLCK
100
AcDbLine
 10
8.971306371194524
 20
7.650753563338488
 30
0.0
 11
8.9960192332718
 21
7.682206296891385
 31
0.0
  0
LINE
  5
1C6
330
17
100
AcDbEntity
  8
A-AREA-BLCK
100
AcDbLine
 10
9.026910310868397
 20
7.721522213832506
 30
0.0
 11
9.051623172945673
 21
7.752974947385402
 31
0.0
  0
LINE
  5
1C7
330
17
100
AcDbEntity
  8
A-AREA-BLCK
100
AcDbLine
 10
9.082514250542268
 20
7.792290864326524
 30
0.0
 11
9.107227112619544
 21
7.823743597879421
 31
0.0
  0
LINE
  5
1C8
330
17
100
AcDbEntity
  8
A-AREA-BLCK
100
AcDbLine
 10
9.138118190216138
 20
7.8630595148205416
 30
0.0
 11
9.162831052293415
 21
7.894512248373438
 31
0.0
  0
LINE
  5
1C9
330
17
100
AcDbEntity
  8
A-AREA-BLCK
100
AcDbLine
 10
9.19372212989001
 20
7.9338281653145595
 30
0.0
 11
9.218434991967285
 21
7.965280898867457
 31
0.0
  0
LINE
  5
1CA
330
17
100
AcDbEntity
  8
A-AREA-BLCK
100
AcDbLine
 10
9.249326069563882
 20
8.004596815808577
 30
0.0
 11
9.274038931641158
 21
8.036049549361476
 31
0.0
  0
LINE
  5
1CB
330
17
100
AcDbEntity
  8
A-AREA-BLCK
100
AcDbLine
 10
9.304930009237752
 20
8.075365466302596
 30
0.0
 11
9.329642871315029
 21
8.106818199855493
 31
0.0
  0
LINE
  5
1CC
330
17
100
AcDbEntity
  8
A-AREA-BLCK
100
AcDbLine
 10
9.360533948911623
 20
8.146134116796613
 30
0.0
 11
9.3852468109889
 21
8.17758685034951
 31
0.0
  0
LINE
  5
1CD
330
17
100
AcDbEntity
  8
A-AREA-BLCK
100
AcDbLine
 10
9.416137888585494
 20
8.216902767290632
 30
0.0
 11
9.44085075066277
 21
8.248355500843529
 31
0.0
  0
LINE
  5
1CE
330
17
100
AcDbEntity
  8
A-AREA-BLCK
100
AcDbLine
 10
9.471741828259365
 20
8.287671417784649
 30
0.0
 11
9.496454690336641
 21
8.319124151337547
 31
0.0
  0
LINE
  5
1CF
330
17
100
AcDbEntity
  8
A-AREA-BLCK
100
AcDbLine
 10
9.527345767933237
 20
8.358440068278668
 30
0.0
 11
9.552058630010514
 21
8.389892801831564
 31
0.0
  0
LINE
  5
1D0
330
17
100
AcDbEntity
  8
A-AREA-BLCK
100
AcDbLine
 10
9.582949707607108
 20
8.429208718772685
 30
0.0
 11
9.607662569684384
 21
8.460661452325581
 31
0.0
  0
LINE
  5
1D1
330
17
100
AcDbEntity
  8
A-AREA-BLCK
100
AcDbLine
 10
9.638553647280979
 20
8.499977369266704
 30
0.0
 11
9.663266509358255
 21
8.5314301028196
 31
0.0
  0
LINE
  5
1D2
330
17
100
AcDbEntity
  8
A-AREA-BLCK
100
AcDbLine
 10
9.694157586954852
 20
8.57074601976072
 30
0.0
 11
9.718870449032128
 21
8.602198753313619
 31
0.0
  0
LINE
  5
1D3
330
17
100
AcDbEntity
  8
A-AREA-BLCK
100
AcDbLine
 10
9.749761526628722
 20
8.64151467025474
 30
0.0
 11
9.774474388705999
 21
8.672967403807636
 31
0.0
  0
LINE
  5
1D4
330
17
100
AcDbEntity
  8
A-AREA-BLCK
100
AcDbLine
 10
9.805365466302593
 20
8.712283320748757
 30
0.0
 11
9.83007832837987
 21
8.743736054301653
 31
0.0
  0
LINE
  5
1D5
330
17
100
AcDbEntity
  8
A-AREA-BLCK
100
AcDbLine
 10
9.860969405976464
 20
8.783051971242775
 30
0.0
 11
9.88568226805374
 21
8.814504704795672
 31
0.0
  0
LINE
  5
1D6
330
17
100
AcDbEntity
  8
A-AREA-BLCK
100
AcDbLine
 10
9.916573345650335
 20
8.853820621736793
 30
0.0
 11
9.941286207727611
 21
8.88527335528969
 31
0.0
  0
LINE
  5
1D7
330
17
100
AcDbEntity
  8
A-AREA-BLCK
100
AcDbLine
 10
9.972177285324207
 20
8.924589272230811
 30
0.0
 11
9.996890147401484
 21
8.956042005783708
 31
0.0
  0
LINE
  5
1D8
330
17
100
AcDbEntity
  8
A-AREA-BLCK
100
AcDbLine
 10
10.027781224998078
 20
8.995357922724828
 30
0.0
 11
10.052494087075354
 21
9.026810656277727
 31
0.0
  0
LINE
  5
1D9
330
17
100
AcDbEntity
  8
A-AREA-BLCK
100
AcDbLine
 10
10.083385164671949
 20
9.066126573218847
 30
0.0
 11
10.108098026749225
 21
9.097579306771744
 31
0.0
  0
LINE
  5
1DA
330
17
100
AcDbEntity
  8
A-AREA-BLCK
100
AcDbLine
 10
7.47
 20
9.100000000000001
 30
0.0
 11
7.494712862077276
 21
9.068547266447105
 31
0.0
  0
LINE
  5
1DB
330
17
100
AcDbEntity
  8
A-AREA-BLCK
100
AcDbLine
 10
7.525603939673871
 20
9.029231349505983
 30
0.0
 11
7.550316801751147
 21
8.997778615953086
 31
0.0
  0
LINE
  5
1DC
330
17
100
AcDbEntity
  8
A-AREA-BLCK
100
AcDbLine
 10
7.581207879347742
 20
8.958462699011966
 30
0.0
 11
7.6059207414250185
 21
8.927009965459069
 31
0.0
  0
LINE
  5
1DD
330
17
100
AcDbEntity
  8
A-AREA-BLCK
100
AcDbLine
 10
7.636811819021614
 20
8.887694048517947
 30
0.0
 11
7.66152468109889
 21
8.85624131496505
 31
0.0
  0
LINE
  5
1DE
330
17
100
AcDbEntity
  8
A-AREA-BLCK
100
AcDbLine
 10
7.692415758695485
 20
8.81692539802393
 30
0.0
 11
7.717128620772761
 21
8.785472664471031
 31
0.0
  0
LINE
  5
1DF
330
17
100
AcDbEntity
  8
A-AREA-BLCK
100
AcDbLine
 10
7.748019698369356
 20
8.746156747529911
 30
0.0
 11
7.772732560446633
 21
8.714704013977014
 31
0.0
  0
LINE
  5
1E0
330
17
100
AcDbEntity
  8
A-AREA-BLCK
100
AcDbLine
 10
7.803623638043227
 20
8.675388097035894
 30
0.0
 11
7.828336500120503
 21
8.643935363482996
 31
0.0
  0
LINE
  5
1E1
330
17
100
AcDbEntity
  8
A-AREA-BLCK
100
AcDbLine
 10
7.859227577717099
 20
8.604619446541875
 30
0.0
 11
7.883940439794375
 21
8.573166712988979
 31
0.0
  0
LINE
  5
1E2
330
17
100
AcDbEntity
  8
A-AREA-BLCK
100
AcDbLine
 10
7.9148315173909705
 20
8.533850796047856
 30
0.0
 11
7.939544379468247
 21
8.50239806249496
 31
0.0
  0
LINE
  5
1E3
330
17
100
AcDbEntity
  8
A-AREA-BLCK
100
AcDbLine
 10
7.970435457064841
 20
8.46308214555384
 30
0.0
 11
7.9951483191421175
 21
8.431629412000941
 31
0.0
  0
LINE
  5
1E4
330
17
100
AcDbEntity
  8
A-AREA-BLCK
100
AcDbLine
 10
8.026039396738714
 20
8.39231349505982
 30
0.0
 11
8.050752258815988
 21
8.360860761506924
 31
0.0
  0
LINE
  5
1E5
330
17
100
AcDbEntity
  8
A-AREA-BLCK
100
AcDbLine
 10
8.081643336412585
 20
8.321544844565803
 30
0.0
 11
8.10635619848986
 21
8.290092111012905
 31
0.0
  0
LINE
  5
1E6
330
17
100
AcDbEntity
  8
A-AREA-BLCK
100
AcDbLine
 10
8.137247276086455
 20
8.250776194071785
 30
0.0
 11
8.161960138163732
 21
8.219323460518888
 31
0.0
  0
LINE
  5
1E7
330
17
100
AcDbEntity
  8
A-AREA-BLCK
100
AcDbLine
 10
8.192851215760326
 20
8.180007543577766
 30
0.0
 11
8.217564077837602
 21
8.14855481002487
 31
0.0
  0
LINE
  5
1E8
330
17
100
AcDbEntity
  8
A-AREA-BLCK
100
AcDbLine
 10
8.248455155434199
 20
8.109238893083749
 30
0.0
 11
8.273168017511475
 21
8.077786159530852
 31
0.0
  0
LINE
  5
1E9
330
17
100
AcDbEntity
  8
A-AREA-BLCK
100
AcDbLine
 10
8.30405909510807
 20
8.03847024258973
 30
0.0
 11
8.328771957185346
 21
8.007017509036833
 31
0.0
  0
LINE
  5
1EA
330
17
100
AcDbEntity
  8
A-AREA-BLCK
100
AcDbLine
 10
8.35966303478194
 20
7.967701592095712
 30
0.0
 11
8.384375896859217
 21
7.936248858542815
 31
0.0
  0
LINE
  5
1EB
330
17
100
AcDbEntity
  8
A-AREA-BLCK
100
AcDbLine
 10
8.415266974455813
 20
7.896932941601694
 30
0.0
 11
8.43997983653309
 21
7.865480208048797
 31
0.0
  0
LINE
  5
1EC
330
17
100
AcDbEntity
  8
A-AREA-BLCK
100
AcDbLine
 10
8.470870914129684
 20
7.826164291107676
 30
0.0
 11
8.49558377620696
 21
7.794711557554779
 31
0.0
  0
LINE
  5
1ED
330
17
100
AcDbEntity
  8
A-AREA-BLCK
100
AcDbLine
 10
8.526474853803554
 20
7.755395640613658
 30
0.0
 11
8.55118771588083
 21
7.723942907060761
 31
0.0
  0
LINE
  5
1EE
330
17
100
AcDbEntity
  8
A-AREA-BLCK
100
AcDbLine
 10
8.582078793477427
 20
7.684626990119639
 30
0.0
 11
8.606791655554703
 21
7.653174256566743
 31
0.0
  0
LINE
  5
1EF
330
17
100
AcDbEntity
  8
A-AREA-BLCK
100
AcDbLine
 10
8.637682733151298
 20
7.613858339625621
 30
0.0
 11
8.662395595228574
 21
7.582405606072724
 31
0.0
  0
LINE
  5
1F0
330
17
100
AcDbEntity
  8
A-AREA-BLCK
100
AcDbLine
 10
8.693286672825169
 20
7.5430896891316035
 30
0.0
 11
8.717999534902445
 21
7.511636955578707
 31
0.0
  0
LINE
  5
1F1
330
17
100
AcDbEntity
  8
A-AREA-BLCK
100
AcDbLine
 10
8.74889061249904
 20
7.472321038637586
 30
0.0
 11
8.773603474576316
 21
7.440868305084688
 31
0.0
  0
LINE
  5
1F2
330
17
100
AcDbEntity
  8
A-AREA-BLCK
100
AcDbLine
 10
8.804494552172912
 20
7.401552388143568
 30
0.0
 11
8.829207414250188
 21
7.370099654590671
 31
0.0
  0
LINE
  5
1F3
330
17
100
AcDbEntity
  8
A-AREA-BLCK
100
AcDbLine
 10
8.860098491846783
 20
7.33078373764955
 30
0.0
 11
8.884811353924059
 21
7.299331004096652
 31
0.0
  0
LINE
  5
1F4
330
17
100
AcDbEntity
  8
A-AREA-BLCK
100
AcDbLine
 10
8.915702431520653
 20
7.260015087155532
 30
0.0
 11
8.94041529359793
 21
7.228562353602634
 31
0.0
  0
LINE
  5
1F5
330
17
100
AcDbEntity
  8
A-AREA-BLCK
100
AcDbLine
 10
8.971306371194524
 20
7.189246436661514
 30
0.0
 11
8.9960192332718
 21
7.1577937031086165
 31
0.0
  0
LINE
  5
1F6
330
17
100
AcDbEntity
  8
A-AREA-BLCK
100
AcDbLine
 10
9.026910310868397
 20
7.118477786167496
 30
0.0
 11
9.051623172945673
 21
7.0870250526145995
 31
0.0
  0
LINE
  5
1F7
330
17
100
AcDbEntity
  8
A-AREA-BLCK
100
AcDbLine
 10
9.082514250542268
 20
7.047709135673478
 30
0.0
 11
9.107227112619544
 21
7.016256402120581
 31
0.0
  0
LINE
  5
1F8
330
17
100
AcDbEntity
  8
A-AREA-BLCK
100
AcDbLine
 10
9.138118190216138
 20
6.97694048517946
 30
0.0
 11
9.162831052293415
 21
6.945487751626564
 31
0.0
  0
LINE
  5
1F9
330
17
100
AcDbEntity
  8
A-AREA-BLCK
100
AcDbLine
 10
9.19372212989001
 20
6.906171834685442
 30
0.0
 11
9.218434991967285
 21
6.874719101132545
 31
0.0
  0
LINE
  5
1FA
330
17
100
AcDbEntity
  8
A-AREA-BLCK
100
AcDbLine
 10
9.249326069563882
 20
6.835403184191424
 30
0.0
 11
9.274038931641158
 21
6.803950450638527
 31
0.0
  0
LINE
  5
1FB
330
17
100
AcDbEntity
  8
A-AREA-BLCK
100
AcDbLine
 10
9.304930009237752
 20
6.764634533697405
 30
0.0
 11
9.329642871315029
 21
6.733181800144509
 31
0.0
  0
LINE
  5
1FC
330
17
100
AcDbEntity
  8
A-AREA-BLCK
100
AcDbLine
 10
9.360533948911623
 20
6.693865883203388
 30
0.0
 11
9.3852468109889
 21
6.662413149650491
 31
0.0
  0
LINE
  5
1FD
330
17
100
AcDbEntity
  8
A-AREA-BLCK
100
AcDbLine
 10
9.416137888585494
 20
6.62309723270937
 30
0.0
 11
9.44085075066277
 21
6.591644499156473
 31
0.0
  0
LINE
  5
1FE
330
17
100
AcDbEntity
  8
A-AREA-BLCK
100
AcDbLine
 10
9.471741828259365
 20
6.5523285822153525
 30
0.0
 11
9.496454690336641
 21
6.520875848662455
 31
0.0
  0
LINE
  5
1FF
330
17
100
AcDbEntity
  8
A-AREA-BLCK
100
AcDbLine
 10
9.527345767933237
 20
6.481559931721334
 30
0.0
 11
9.552058630010514
 21
6.450107198168437
 31
0.0
  0
LINE
  5
200
330
17
100
AcDbEntity
  8
A-AREA-BLCK
100
AcDbLine
 10
9.582949707607108
 20
6.410791281227317
 30
0.0
 11
9.607662569684384
 21
6.379338547674419
 31
0.0
  0
LINE
  5
201
330
17
100
AcDbEntity
  8
A-AREA-BLCK
100
AcDbLine
 10
9.638553647280979
 20
6.340022630733298
 30
0.0
 11
9.663266509358255
 21
6.308569897180401
 31
0.0
  0
LINE
  5
202
330
17
100
AcDbEntity
  8
A-AREA-BLCK
100
AcDbLine
 10
9.694157586954852
 20
6.269253980239281
 30
0.0
 11
9.718870449032128
 21
6.2378012466863835
 31
0.0
  0
LINE
  5
203
330
17
100
AcDbEntity
  8
A-AREA-BLCK
100
AcDbLine
 10
9.749761526628722
 20
6.198485329745262
 30
0.0
 11
9.774474388705999
 21
6.1670325961923655
 31
0.0
  0
LINE
  5
204
330
17
100
AcDbEntity
  8
A-AREA-BLCK
100
AcDbLine
 10
9.805365466302593
 20
6.127716679251245
 30
0.0
 11
9.83007832837987
 21
6.096263945698348
 31
0.0
  0
LINE
  5
205
330
17
100
AcDbEntity
  8
A-AREA-BLCK
100
AcDbLine
 10
9.860969405976464
 20
6.056948028757226
 30
0.0
 11
9.88568226805374
 21
6.02549529520433
 31
0.0
  0
LINE
  5
206
330
17
100
AcDbEntity
  8
A-AREA-BLCK
100
AcDbLine
 10
9.916573345650335
 20
5.986179378263209
 30
0.0
 11
9.941286207727611
 21
5.954726644710312
 31
0.0
  0
LINE
  5
207
330
17
100
AcDbEntity
  8
A-AREA-BLCK
100
AcDbLine
 10
9.972177285324207
 20
5.91541072776919
 30
0.0
 11
9.996890147401484
 21
5.883957994216294
 31
0.0
  0
LINE
  5
208
330
17
100
AcDbEntity
  8
A-AREA-BLCK
100
AcDbLine
 10
10.027781224998078
 20
5.844642077275172
 30
0.0
 11
10.052494087075354
 21
5.813189343722275
 31
0.0
  0
LINE
  5
209
330
17
100
AcDbEntity
  8
A-AREA-BLCK
100
AcDbLine
 10
10.083385164671949
 20
5.7738734267811544
 30
0.0
 11
10.108098026749225
 21
5.742420693228258
 31
0.0
  0
LWPOLYLINE
  5
20A
330
17
100
AcDbEntity
  8
A-AREA-BLCK
100
AcDbPolyline
 90
4
 70
1
 10
6.35
 20
7.444
 10
7.33
 20
7.444
 10
7.33
 20
9.66
 10
6.35
 20
9.66
  0
LWPOLYLINE
  5
20B
330
17
100
AcDbEntity
  8
A-AREA-BLCK
100
AcDbPolyline
 90
4
 70
1
 10
6.35
 20
6.0154
 10
7.33
 20
6.0154
 10
7.33
 20
7.443999999999999
 10
6.35
 20
7.443999999999999
  0
LWPOLYLINE
  5
20C
330
17
100
AcDbEntity
  8
A-AREA-BLCK
100
AcDbPolyline
 90
4
 70
1
 10
7.63
 20
4.73
 10
8.03
 20
4.73
 10
8.03
 20
5.28
 10
7.63
 20
5.28
  0
LWPOLYLINE
  5
20D
330
17
100
AcDbEntity
  8
A-AREA-BLCK
100
AcDbPolyline
 90
4
 70
1
 10
9.19
 20
4.62
 10
9.7354
 20
4.62
 10
9.7354
 20
5.28
 10
9.19
 20
5.28
  0
LWPOLYLINE
  5
20E
330
17
100
AcDbEntity
  8
A-AREA-BLCK
100
AcDbPolyline
 90
4
 70
1
 10
6.75
 20
4.62
 10
7.25
 20
4.62
 10
7.25
 20
4.996
 10
6.75
 20
4.996
  0
LWPOLYLINE
  5
20F
330
17
100
AcDbEntity
  8
A-AREA-BLCK
100
AcDbPolyline
 90
4
 70
1
 10
6.35
 20
4.996
 10
7.33
 20
4.996
 10
7.33
 20
6.0154000000000005
 10
6.35
 20
6.0154000000000005
  0
LWPOLYLINE
  5
210
330
17
100
AcDbEntity
  8
A-AREA-BLCK
100
AcDbPolyline
 90
4
 70
1
 10
9.7354
 20
4.62
 10
10.55
 20
4.62
 10
10.55
 20
5.3
 10
9.7354
 20
5.3
  0
LWPOLYLINE
  5
211
330
17
100
AcDbEntity
  8
A-AREA-BLCK
100
AcDbPolyline
 90
4
 70
1
 10
7.33
 20
9.54
 10
10.06834
 20
9.54
 10
10.06834
 20
9.659999999999998
 10
7.33
 20
9.659999999999998
  0
LWPOLYLINE
  5
212
330
17
100
AcDbEntity
  8
A-AREA-BLCK
100
AcDbPolyline
 90
4
 70
1
 10
7.33
 20
5.3
 10
10.55
 20
5.3
 10
10.55
 20
9.54
 10
7.33
 20
9.54
  0
LWPOLYLINE
  5
213
330
17
100
AcDbEntity
  8
A-AREA-BLCK
100
AcDbPolyline
 90
4
 70
1
 10
7.47
 20
5.44
 10
10.41
 20
5.44
 10
10.41
 20
9.4
 10
7.47
 20
9.4
  0
LINE
  5
214
330
17
100
AcDbEntity
  8
A-SEAT
100
AcDbLine
 10
7.47
 20
9.16
 30
0.0
 11
10.11
 21
9.16
 31
0.0
  0
LINE
  5
215
330
17
100
AcDbEntity
  8
A-SEAT
100
AcDbLine
 10
7.47
 20
9.22
 30
0.0
 11
10.11
 21
9.22
 31
0.0
  0
LINE
  5
216
330
17
100
AcDbEntity
  8
A-SEAT
100
AcDbLine
 10
7.47
 20
9.280000000000001
 30
0.0
 11
10.11
 21
9.280000000000001
 31
0.0
  0
LINE
  5
217
330
17
100
AcDbEntity
  8
A-SEAT
100
AcDbLine
 10
7.47
 20
9.34
 30
0.0
 11
10.11
 21
9.34
 31
0.0
  0
LINE
  5
218
330
17
100
AcDbEntity
  8
A-SEAT
100
AcDbLine
 10
7.47
 20
5.5
 30
0.0
 11
10.11
 21
5.5
 31
0.0
  0
LINE
  5
219
330
17
100
AcDbEntity
  8
A-SEAT
100
AcDbLine
 10
7.47
 20
5.5600000000000005
 30
0.0
 11
10.11
 21
5.5600000000000005
 31
0.0
  0
LINE
  5
21A
330
17
100
AcDbEntity
  8
A-SEAT
100
AcDbLine
 10
7.47
 20
5.62
 30
0.0
 11
10.11
 21
5.62
 31
0.0
  0
LINE
  5
21B
330
17
100
AcDbEntity
  8
A-SEAT
100
AcDbLine
 10
7.47
 20
5.68
 30
0.0
 11
10.11
 21
5.68
 31
0.0
  0
LINE
  5
21C
330
17
100
AcDbEntity
  8
A-SEAT
100
AcDbLine
 10
10.17
 20
5.44
 30
0.0
 11
10.17
 21
9.4
 31
0.0
  0
LINE
  5
21D
330
17
100
AcDbEntity
  8
A-SEAT
100
AcDbLine
 10
10.23
 20
5.44
 30
0.0
 11
10.23
 21
9.4
 31
0.0
  0
LINE
  5
21E
330
17
100
AcDbEntity
  8
A-SEAT
100
AcDbLine
 10
10.29
 20
5.44
 30
0.0
 11
10.29
 21
9.4
 31
0.0
  0
LINE
  5
21F
330
17
100
AcDbEntity
  8
A-SEAT
100
AcDbLine
 10
10.35
 20
5.44
 30
0.0
 11
10.35
 21
9.4
 31
0.0
  0
LINE
  5
220
330
17
100
AcDbEntity
  8
A-WALL-BLDG
100
AcDbLine
 10
6.35
 20
4.62
 30
0.0
 11
10.55
 21
4.62
 31
0.0
  0
LINE
  5
221
330
17
100
AcDbEntity
  8
A-WALL-BLDG
100
AcDbLine
 10
10.55
 20
4.62
 30
0.0
 11
10.55
 21
9.79334
 31
0.0
  0
LINE
  5
222
330
17
100
AcDbEntity
  8
A-WALL-BLDG
100
AcDbLine
 10
10.55
 20
9.79334
 30
0.0
 11
10.06834
 21
9.79334
 31
0.0
  0
LINE
  5
223
330
17
100
AcDbEntity
  8
A-WALL-BLDG
100
AcDbLine
 10
10.06834
 20
9.79334
 30
0.0
 11
10.06834
 21
9.66
 31
0.0
  0
LINE
  5
224
330
17
100
AcDbEntity
  8
A-WALL-BLDG
100
AcDbLine
 10
10.06834
 20
9.66
 30
0.0
 11
6.35
 21
9.66
 31
0.0
  0
LINE
  5
225
330
17
100
AcDbEntity
  8
A-WALL-BLDG
100
AcDbLine
 10
6.35
 20
9.66
 30
0.0
 11
6.35
 21
4.62
 31
0.0
  0
HATCH
  5
226
330
17
100
AcDbEntity
  8
A-FLOR-STRS
 62
7
420
15000804
100
AcDbHatch
 10
0.0
 20
0.0
 30
0.0
210
0.0
220
0.0
230
1.0
  2
SOLID
 70
1
 71
0
 91
1
 92
3
 72
0
 73
1
 93
4
 10
7.0766599999999995
 20
9.17834
 10
7.33
 20
9.17834
 10
7.33
 20
9.66
 10
7.0766599999999995
 20
9.66
 97
0
 75
0
 76
1
 98
0
  0
LWPOLYLINE
  5
227
330
17
100
AcDbEntity
  8
A-FLOR-STRS
100
AcDbPolyline
 90
4
 70
1
 10
7.0766599999999995
 20
9.17834
 10
7.329999999999999
 20
9.17834
 10
7.329999999999999
 20
9.66
 10
7.0766599999999995
 20
9.66
  0
LINE
  5
228
330
17
100
AcDbEntity
  8
A-FLOR-STRS
100
AcDbLine
 10
7.0766599999999995
 20
9.17834
 30
0.0
 11
7.33
 21
9.66
 31
0.0
  0
TEXT
  5
229
330
17
100
AcDbEntity
  8
A-AREA-IDEN
100
AcDbText
 10
7.204
 20
9.04
 30
0.0
 40
0.05
  1
ST-1
  7
KS-BOLD
 72
1
 11
7.204
 21
9.04
 31
0.0
100
AcDbText
  0
HATCH
  5
22A
330
17
100
AcDbEntity
  8
A-FLOR-STRS
 62
7
420
15000804
100
AcDbHatch
 10
0.0
 20
0.0
 30
0.0
210
0.0
220
0.0
230
1.0
  2
SOLID
 70
1
 71
0
 91
1
 92
3
 72
0
 73
1
 93
4
 10
10.06834
 20
9.54
 10
10.55
 20
9.54
 10
10.55
 20
9.79334
 10
10.06834
 20
9.79334
 97
0
 75
0
 76
1
 98
0
  0
LWPOLYLINE
  5
22B
330
17
100
AcDbEntity
  8
A-FLOR-STRS
100
AcDbPolyline
 90
4
 70
1
 10
10.06834
 20
9.54
 10
10.549999999999999
 20
9.54
 10
10.549999999999999
 20
9.793339999999999
 10
10.06834
 20
9.793339999999999
  0
LINE
  5
22C
330
17
100
AcDbEntity
  8
A-FLOR-STRS
100
AcDbLine
 10
10.06834
 20
9.54
 30
0.0
 11
10.55
 21
9.79334
 31
0.0
  0
TEXT
  5
22D
330
17
100
AcDbEntity
  8
A-AREA-IDEN
100
AcDbText
 10
9.87
 20
9.620000000000001
 30
0.0
 40
0.05
  1
ST-2
  7
KS-BOLD
 72
2
 11
9.87
 21
9.620000000000001
 31
0.0
100
AcDbText
  0
HATCH
  5
22E
330
17
100
AcDbEntity
  8
A-FLOR-STRS
 62
7
420
15000804
100
AcDbHatch
 10
0.0
 20
0.0
 30
0.0
210
0.0
220
0.0
230
1.0
  2
SOLID
 70
1
 71
0
 91
1
 92
3
 72
0
 73
1
 93
4
 10
10.06834
 20
4.62
 10
10.55
 20
4.62
 10
10.55
 20
4.87334
 10
10.06834
 20
4.87334
 97
0
 75
0
 76
1
 98
0
  0
LWPOLYLINE
  5
22F
330
17
100
AcDbEntity
  8
A-FLOR-STRS
100
AcDbPolyline
 90
4
 70
1
 10
10.06834
 20
4.62
 10
10.549999999999999
 20
4.62
 10
10.549999999999999
 20
4.87334
 10
10.06834
 20
4.87334
  0
LINE
  5
230
330
17
100
AcDbEntity
  8
A-FLOR-STRS
100
AcDbLine
 10
10.06834
 20
4.62
 30
0.0
 11
10.55
 21
4.87334
 31
0.0
  0
TEXT
  5
231
330
17
100
AcDbEntity
  8
A-AREA-IDEN
100
AcDbText
 10
10.01
 20
4.7
 30
0.0
 40
0.05
  1
ST-3
  7
KS-BOLD
 72
2
 11
10.01
 21
4.7
 31
0.0
100
AcDbText
  0
HATCH
  5
232
330
17
100
AcDbEntity
  8
A-FLOR-STRS
 62
7
420
15000804
100
AcDbHatch
 10
0.0
 20
0.0
 30
0.0
210
0.0
220
0.0
230
1.0
  2
SOLID
 70
1
 71
0
 91
1
 92
3
 72
0
 73
1
 93
4
 10
6.35
 20
4.62
 10
6.603339999999999
 20
4.62
 10
6.603339999999999
 20
5.10166
 10
6.35
 20
5.10166
 97
0
 75
0
 76
1
 98
0
  0
LWPOLYLINE
  5
233
330
17
100
AcDbEntity
  8
A-FLOR-STRS
100
AcDbPolyline
 90
4
 70
1
 10
6.35
 20
4.62
 10
6.603339999999999
 20
4.62
 10
6.603339999999999
 20
5.10166
 10
6.35
 20
5.10166
  0
LINE
  5
234
330
17
100
AcDbEntity
  8
A-FLOR-STRS
100
AcDbLine
 10
6.35
 20
4.62
 30
0.0
 11
6.603339999999999
 21
5.10166
 31
0.0
  0
TEXT
  5
235
330
17
100
AcDbEntity
  8
A-AREA-IDEN
100
AcDbText
 10
6.67
 20
4.7
 30
0.0
 40
0.05
  1
ST-4
  7
KS-BOLD
 11
6.67
 21
4.7
 31
0.0
100
AcDbText
  0
LWPOLYLINE
  5
236
330
17
100
AcDbEntity
  8
A-FLOR-STRS
100
AcDbPolyline
 90
4
 70
1
 10
7.47
 20
5.140000000000001
 10
7.63
 20
5.140000000000001
 10
7.63
 20
5.300000000000001
 10
7.47
 20
5.300000000000001
  0
TEXT
  5
237
330
17
100
AcDbEntity
  8
LS-EXIT
100
AcDbText
 10
7.029999999999999
 20
9.280000000000001
 30
0.0
 40
0.045
  1
76 in · 380 occ.
  7
KS-BOLD
 72
2
 11
7.029999999999999
 21
9.280000000000001
 31
0.0
100
AcDbText
  0
TEXT
  5
238
330
17
100
AcDbEntity
  8
LS-EXIT
100
AcDbText
 10
9.87
 20
9.84
 30
0.0
 40
0.045
  1
76 in · 380 occ.
  7
KS-BOLD
 72
2
 11
9.87
 21
9.84
 31
0.0
100
AcDbText
  0
TEXT
  5
239
330
17
100
AcDbEntity
  8
LS-EXIT
100
AcDbText
 10
10.01
 20
4.92
 30
0.0
 40
0.045
  1
76 in · 380 occ.
  7
KS-BOLD
 72
2
 11
10.01
 21
4.92
 31
0.0
100
AcDbText
  0
TEXT
  5
23A
330
17
100
AcDbEntity
  8
LS-EXIT
100
AcDbText
 10
6.409999999999999
 20
5.2
 30
0.0
 40
0.045
  1
76 in · 380 occ.
  7
KS-BOLD
 11
6.409999999999999
 21
5.2
 31
0.0
100
AcDbText
  0
TEXT
  5
23B
330
17
100
AcDbEntity
  8
A-AREA-IDEN
100
AcDbText
 10
6.84
 20
8.54
 30
0.0
 40
0.04599999999999999
  1
S&C 103
  7
KS-BOLD
 72
1
 11
6.84
 21
8.54
 31
0.0
100
AcDbText
  0
TEXT
  5
23C
330
17
100
AcDbEntity
  8
A-AREA-IDEN
100
AcDbText
 10
6.84
 20
6.720000000000001
 30
0.0
 40
0.04599999999999999
  1
X-TRAIN 70
  7
KS-BOLD
 72
1
 11
6.84
 21
6.720000000000001
 31
0.0
100
AcDbText
  0
TEXT
  5
23D
330
17
100
AcDbEntity
  8
A-AREA-IDEN
100
AcDbText
 10
7.0
 20
4.8
 30
0.0
 40
0.04599999999999999
  1
ADMIN 4
  7
KS-BOLD
 72
1
 11
7.0
 21
4.8
 31
0.0
100
AcDbText
  0
TEXT
  5
23E
330
17
100
AcDbEntity
  8
A-AREA-IDEN
100
AcDbText
 10
8.79
 20
7.62
 30
0.0
 40
0.048
  1
UPPER TIER 1,100 seats (N / S / E)
  7
KS-BOLD
 72
1
 11
8.79
 21
7.62
 31
0.0
100
AcDbText
  0
TEXT
  5
23F
330
17
100
AcDbEntity
  8
A-AREA-IDEN
100
AcDbText
 10
8.79
 20
7.49
 30
0.0
 40
0.04599999999999999
  1
+ loop 101 + rail 84 (R-018) → L2 1,462 occ.
  7
KS-REG
 72
1
 11
8.79
 21
7.49
 31
0.0
100
AcDbText
  0
TEXT
  5
240
330
17
100
AcDbEntity
  8
A-AREA-IDEN
100
AcDbText
 10
8.79
 20
7.37
 30
0.0
 40
0.044000000000000004
  1
OPEN TO ARENA BELOW
  7
KS-REG
 72
1
 11
8.79
 21
7.37
 31
0.0
100
AcDbText
  0
LINE
  5
241
330
17
100
AcDbEntity
  8
LS-TRAV
100
AcDbLine
 10
10.11
 20
7.42
 30
0.0
 11
10.16
 21
7.42
 31
0.0
  0
LINE
  5
242
330
17
100
AcDbEntity
  8
LS-TRAV
100
AcDbLine
 10
10.19
 20
7.42
 30
0.0
 11
10.24
 21
7.42
 31
0.0
  0
LINE
  5
243
330
17
100
AcDbEntity
  8
LS-TRAV
100
AcDbLine
 10
10.27
 20
7.42
 30
0.0
 11
10.32
 21
7.42
 31
0.0
  0
LINE
  5
244
330
17
100
AcDbEntity
  8
LS-TRAV
100
AcDbLine
 10
10.35
 20
7.42
 30
0.0
 11
10.399999999999999
 21
7.42
 31
0.0
  0
LINE
  5
245
330
17
100
AcDbEntity
  8
LS-TRAV
100
AcDbLine
 10
10.43
 20
7.42
 30
0.0
 11
10.479999999999999
 21
7.42
 31
0.0
  0
LINE
  5
246
330
17
100
AcDbEntity
  8
LS-TRAV
100
AcDbLine
 10
10.48
 20
7.42
 30
0.0
 11
10.48
 21
7.47
 31
0.0
  0
LINE
  5
247
330
17
100
AcDbEntity
  8
LS-TRAV
100
AcDbLine
 10
10.48
 20
7.5
 30
0.0
 11
10.48
 21
7.55
 31
0.0
  0
LINE
  5
248
330
17
100
AcDbEntity
  8
LS-TRAV
100
AcDbLine
 10
10.48
 20
7.58
 30
0.0
 11
10.48
 21
7.63
 31
0.0
  0
LINE
  5
249
330
17
100
AcDbEntity
  8
LS-TRAV
100
AcDbLine
 10
10.48
 20
7.66
 30
0.0
 11
10.48
 21
7.71
 31
0.0
  0
LINE
  5
24A
330
17
100
AcDbEntity
  8
LS-TRAV
100
AcDbLine
 10
10.48
 20
7.74
 30
0.0
 11
10.48
 21
7.79
 31
0.0
  0
LINE
  5
24B
330
17
100
AcDbEntity
  8
LS-TRAV
100
AcDbLine
 10
10.48
 20
7.82
 30
0.0
 11
10.48
 21
7.87
 31
0.0
  0
LINE
  5
24C
330
17
100
AcDbEntity
  8
LS-TRAV
100
AcDbLine
 10
10.48
 20
7.9
 30
0.0
 11
10.48
 21
7.95
 31
0.0
  0
LINE
  5
24D
330
17
100
AcDbEntity
  8
LS-TRAV
100
AcDbLine
 10
10.48
 20
7.98
 30
0.0
 11
10.48
 21
8.03
 31
0.0
  0
LINE
  5
24E
330
17
100
AcDbEntity
  8
LS-TRAV
100
AcDbLine
 10
10.48
 20
8.06
 30
0.0
 11
10.48
 21
8.11
 31
0.0
  0
LINE
  5
24F
330
17
100
AcDbEntity
  8
LS-TRAV
100
AcDbLine
 10
10.48
 20
8.14
 30
0.0
 11
10.48
 21
8.19
 31
0.0
  0
LINE
  5
250
330
17
100
AcDbEntity
  8
LS-TRAV
100
AcDbLine
 10
10.48
 20
8.22
 30
0.0
 11
10.48
 21
8.27
 31
0.0
  0
LINE
  5
251
330
17
100
AcDbEntity
  8
LS-TRAV
100
AcDbLine
 10
10.48
 20
8.3
 30
0.0
 11
10.48
 21
8.35
 31
0.0
  0
LINE
  5
252
330
17
100
AcDbEntity
  8
LS-TRAV
100
AcDbLine
 10
10.48
 20
8.38
 30
0.0
 11
10.48
 21
8.43
 31
0.0
  0
LINE
  5
253
330
17
100
AcDbEntity
  8
LS-TRAV
100
AcDbLine
 10
10.48
 20
8.46
 30
0.0
 11
10.48
 21
8.51
 31
0.0
  0
LINE
  5
254
330
17
100
AcDbEntity
  8
LS-TRAV
100
AcDbLine
 10
10.48
 20
8.540000000000001
 30
0.0
 11
10.48
 21
8.59
 31
0.0
  0
LINE
  5
255
330
17
100
AcDbEntity
  8
LS-TRAV
100
AcDbLine
 10
10.48
 20
8.620000000000001
 30
0.0
 11
10.48
 21
8.67
 31
0.0
  0
LINE
  5
256
330
17
100
AcDbEntity
  8
LS-TRAV
100
AcDbLine
 10
10.48
 20
8.700000000000001
 30
0.0
 11
10.48
 21
8.75
 31
0.0
  0
LINE
  5
257
330
17
100
AcDbEntity
  8
LS-TRAV
100
AcDbLine
 10
10.48
 20
8.780000000000001
 30
0.0
 11
10.48
 21
8.83
 31
0.0
  0
LINE
  5
258
330
17
100
AcDbEntity
  8
LS-TRAV
100
AcDbLine
 10
10.48
 20
8.860000000000001
 30
0.0
 11
10.48
 21
8.91
 31
0.0
  0
LINE
  5
259
330
17
100
AcDbEntity
  8
LS-TRAV
100
AcDbLine
 10
10.48
 20
8.940000000000001
 30
0.0
 11
10.48
 21
8.99
 31
0.0
  0
LINE
  5
25A
330
17
100
AcDbEntity
  8
LS-TRAV
100
AcDbLine
 10
10.48
 20
9.020000000000001
 30
0.0
 11
10.48
 21
9.07
 31
0.0
  0
LINE
  5
25B
330
17
100
AcDbEntity
  8
LS-TRAV
100
AcDbLine
 10
10.48
 20
9.100000000000001
 30
0.0
 11
10.48
 21
9.15
 31
0.0
  0
LINE
  5
25C
330
17
100
AcDbEntity
  8
LS-TRAV
100
AcDbLine
 10
10.48
 20
9.180000000000001
 30
0.0
 11
10.48
 21
9.23
 31
0.0
  0
LINE
  5
25D
330
17
100
AcDbEntity
  8
LS-TRAV
100
AcDbLine
 10
10.48
 20
9.260000000000002
 30
0.0
 11
10.48
 21
9.31
 31
0.0
  0
LINE
  5
25E
330
17
100
AcDbEntity
  8
LS-TRAV
100
AcDbLine
 10
10.48
 20
9.340000000000002
 30
0.0
 11
10.48
 21
9.39
 31
0.0
  0
LINE
  5
25F
330
17
100
AcDbEntity
  8
LS-TRAV
100
AcDbLine
 10
10.48
 20
9.420000000000002
 30
0.0
 11
10.48
 21
9.47
 31
0.0
  0
LINE
  5
260
330
17
100
AcDbEntity
  8
LS-TRAV
100
AcDbLine
 10
10.48
 20
9.5
 30
0.0
 11
10.48
 21
9.54
 31
0.0
  0
HATCH
  5
261
330
17
100
AcDbEntity
  8
LS-TRAV
 62
7
420
0
100
AcDbHatch
 10
0.0
 20
0.0
 30
0.0
210
0.0
220
0.0
230
1.0
  2
SOLID
 70
1
 71
0
 91
1
 92
3
 72
0
 73
1
 93
4
 10
10.08
 20
7.39
 10
10.139999999999999
 20
7.39
 10
10.139999999999999
 20
7.45
 10
10.08
 20
7.45
 97
0
 75
0
 76
1
 98
0
  0
TEXT
  5
262
330
17
100
AcDbEntity
  8
LS-TRAV
100
AcDbText
 10
10.03
 20
8.52
 30
0.0
 40
0.052000000000000005
  1
T4 124'
  7
KS-BOLD
 72
2
 11
10.03
 21
8.52
 31
0.0
100
AcDbText
  0
LINE
  5
263
330
17
100
AcDbEntity
  8
LS-TRAV
100
AcDbLine
 10
8.61
 20
5.74
 30
0.0
 11
8.61
 21
5.69
 31
0.0
  0
LINE
  5
264
330
17
100
AcDbEntity
  8
LS-TRAV
100
AcDbLine
 10
8.61
 20
5.66
 30
0.0
 11
8.61
 21
5.61
 31
0.0
  0
LINE
  5
265
330
17
100
AcDbEntity
  8
LS-TRAV
100
AcDbLine
 10
8.61
 20
5.58
 30
0.0
 11
8.61
 21
5.53
 31
0.0
  0
LINE
  5
266
330
17
100
AcDbEntity
  8
LS-TRAV
100
AcDbLine
 10
8.61
 20
5.5
 30
0.0
 11
8.61
 21
5.45
 31
0.0
  0
LINE
  5
267
330
17
100
AcDbEntity
  8
LS-TRAV
100
AcDbLine
 10
8.61
 20
5.42
 30
0.0
 11
8.61
 21
5.37
 31
0.0
  0
LINE
  5
268
330
17
100
AcDbEntity
  8
LS-TRAV
100
AcDbLine
 10
8.61
 20
5.37
 30
0.0
 11
8.66
 21
5.37
 31
0.0
  0
LINE
  5
269
330
17
100
AcDbEntity
  8
LS-TRAV
100
AcDbLine
 10
8.69
 20
5.37
 30
0.0
 11
8.74
 21
5.37
 31
0.0
  0
LINE
  5
26A
330
17
100
AcDbEntity
  8
LS-TRAV
100
AcDbLine
 10
8.77
 20
5.37
 30
0.0
 11
8.82
 21
5.37
 31
0.0
  0
LINE
  5
26B
330
17
100
AcDbEntity
  8
LS-TRAV
100
AcDbLine
 10
8.85
 20
5.37
 30
0.0
 11
8.899999999999999
 21
5.37
 31
0.0
  0
LINE
  5
26C
330
17
100
AcDbEntity
  8
LS-TRAV
100
AcDbLine
 10
8.93
 20
5.37
 30
0.0
 11
8.979999999999999
 21
5.37
 31
0.0
  0
LINE
  5
26D
330
17
100
AcDbEntity
  8
LS-TRAV
100
AcDbLine
 10
9.01
 20
5.37
 30
0.0
 11
9.059999999999999
 21
5.37
 31
0.0
  0
LINE
  5
26E
330
17
100
AcDbEntity
  8
LS-TRAV
100
AcDbLine
 10
9.09
 20
5.37
 30
0.0
 11
9.139999999999999
 21
5.37
 31
0.0
  0
LINE
  5
26F
330
17
100
AcDbEntity
  8
LS-TRAV
100
AcDbLine
 10
9.17
 20
5.37
 30
0.0
 11
9.219999999999999
 21
5.37
 31
0.0
  0
LINE
  5
270
330
17
100
AcDbEntity
  8
LS-TRAV
100
AcDbLine
 10
9.25
 20
5.37
 30
0.0
 11
9.299999999999999
 21
5.37
 31
0.0
  0
LINE
  5
271
330
17
100
AcDbEntity
  8
LS-TRAV
100
AcDbLine
 10
9.33
 20
5.37
 30
0.0
 11
9.379999999999999
 21
5.37
 31
0.0
  0
LINE
  5
272
330
17
100
AcDbEntity
  8
LS-TRAV
100
AcDbLine
 10
9.41
 20
5.37
 30
0.0
 11
9.459999999999999
 21
5.37
 31
0.0
  0
LINE
  5
273
330
17
100
AcDbEntity
  8
LS-TRAV
100
AcDbLine
 10
9.49
 20
5.37
 30
0.0
 11
9.54
 21
5.37
 31
0.0
  0
LINE
  5
274
330
17
100
AcDbEntity
  8
LS-TRAV
100
AcDbLine
 10
9.57
 20
5.37
 30
0.0
 11
9.62
 21
5.37
 31
0.0
  0
LINE
  5
275
330
17
100
AcDbEntity
  8
LS-TRAV
100
AcDbLine
 10
9.65
 20
5.37
 30
0.0
 11
9.7
 21
5.37
 31
0.0
  0
LINE
  5
276
330
17
100
AcDbEntity
  8
LS-TRAV
100
AcDbLine
 10
9.73
 20
5.37
 30
0.0
 11
9.78
 21
5.37
 31
0.0
  0
LINE
  5
277
330
17
100
AcDbEntity
  8
LS-TRAV
100
AcDbLine
 10
9.81
 20
5.37
 30
0.0
 11
9.86
 21
5.37
 31
0.0
  0
LINE
  5
278
330
17
100
AcDbEntity
  8
LS-TRAV
100
AcDbLine
 10
9.89
 20
5.37
 30
0.0
 11
9.94
 21
5.37
 31
0.0
  0
LINE
  5
279
330
17
100
AcDbEntity
  8
LS-TRAV
100
AcDbLine
 10
9.95
 20
5.37
 30
0.0
 11
9.95
 21
5.32
 31
0.0
  0
LINE
  5
27A
330
17
100
AcDbEntity
  8
LS-TRAV
100
AcDbLine
 10
9.95
 20
5.29
 30
0.0
 11
9.95
 21
5.24
 31
0.0
  0
LINE
  5
27B
330
17
100
AcDbEntity
  8
LS-TRAV
100
AcDbLine
 10
9.95
 20
5.21
 30
0.0
 11
9.95
 21
5.16
 31
0.0
  0
LINE
  5
27C
330
17
100
AcDbEntity
  8
LS-TRAV
100
AcDbLine
 10
9.95
 20
5.13
 30
0.0
 11
9.95
 21
5.08
 31
0.0
  0
LINE
  5
27D
330
17
100
AcDbEntity
  8
LS-TRAV
100
AcDbLine
 10
9.95
 20
5.05
 30
0.0
 11
9.95
 21
5.0
 31
0.0
  0
LINE
  5
27E
330
17
100
AcDbEntity
  8
LS-TRAV
100
AcDbLine
 10
9.95
 20
4.97
 30
0.0
 11
9.95
 21
4.92
 31
0.0
  0
LINE
  5
27F
330
17
100
AcDbEntity
  8
LS-TRAV
100
AcDbLine
 10
9.95
 20
4.890000000000001
 30
0.0
 11
9.95
 21
4.84
 31
0.0
  0
LINE
  5
280
330
17
100
AcDbEntity
  8
LS-TRAV
100
AcDbLine
 10
9.95
 20
4.8100000000000005
 30
0.0
 11
9.95
 21
4.76
 31
0.0
  0
LINE
  5
281
330
17
100
AcDbEntity
  8
LS-TRAV
100
AcDbLine
 10
9.95
 20
4.746
 30
0.0
 11
10.0
 21
4.746
 31
0.0
  0
LINE
  5
282
330
17
100
AcDbEntity
  8
LS-TRAV
100
AcDbLine
 10
10.03
 20
4.746
 30
0.0
 11
10.06834
 21
4.746
 31
0.0
  0
HATCH
  5
283
330
17
100
AcDbEntity
  8
LS-TRAV
 62
7
420
0
100
AcDbHatch
 10
0.0
 20
0.0
 30
0.0
210
0.0
220
0.0
230
1.0
  2
SOLID
 70
1
 71
0
 91
1
 92
3
 72
0
 73
1
 93
4
 10
8.58
 20
5.71
 10
8.639999999999999
 20
5.71
 10
8.639999999999999
 20
5.7700000000000005
 10
8.58
 20
5.7700000000000005
 97
0
 75
0
 76
1
 98
0
  0
TEXT
  5
284
330
17
100
AcDbEntity
  8
LS-TRAV
100
AcDbText
 10
9.35
 20
5.22
 30
0.0
 40
0.052000000000000005
  1
T5 123'
  7
KS-BOLD
 11
9.35
 21
5.22
 31
0.0
100
AcDbText
  0
LINE
  5
285
330
17
100
AcDbEntity
  8
LS-TRAV
100
AcDbLine
 10
6.359999999999999
 20
7.454
 30
0.0
 11
6.409999999999999
 21
7.454
 31
0.0
  0
LINE
  5
286
330
17
100
AcDbEntity
  8
LS-TRAV
100
AcDbLine
 10
6.4399999999999995
 20
7.454
 30
0.0
 11
6.489999999999999
 21
7.454
 31
0.0
  0
LINE
  5
287
330
17
100
AcDbEntity
  8
LS-TRAV
100
AcDbLine
 10
6.52
 20
7.454
 30
0.0
 11
6.569999999999999
 21
7.454
 31
0.0
  0
LINE
  5
288
330
17
100
AcDbEntity
  8
LS-TRAV
100
AcDbLine
 10
6.6
 20
7.454
 30
0.0
 11
6.6499999999999995
 21
7.454
 31
0.0
  0
LINE
  5
289
330
17
100
AcDbEntity
  8
LS-TRAV
100
AcDbLine
 10
6.68
 20
7.454
 30
0.0
 11
6.7299999999999995
 21
7.454
 31
0.0
  0
LINE
  5
28A
330
17
100
AcDbEntity
  8
LS-TRAV
100
AcDbLine
 10
6.76
 20
7.454
 30
0.0
 11
6.81
 21
7.454
 31
0.0
  0
LINE
  5
28B
330
17
100
AcDbEntity
  8
LS-TRAV
100
AcDbLine
 10
6.84
 20
7.454
 30
0.0
 11
6.89
 21
7.454
 31
0.0
  0
LINE
  5
28C
330
17
100
AcDbEntity
  8
LS-TRAV
100
AcDbLine
 10
6.92
 20
7.454
 30
0.0
 11
6.97
 21
7.454
 31
0.0
  0
LINE
  5
28D
330
17
100
AcDbEntity
  8
LS-TRAV
100
AcDbLine
 10
7.0
 20
7.454
 30
0.0
 11
7.05
 21
7.454
 31
0.0
  0
LINE
  5
28E
330
17
100
AcDbEntity
  8
LS-TRAV
100
AcDbLine
 10
7.08
 20
7.454
 30
0.0
 11
7.13
 21
7.454
 31
0.0
  0
LINE
  5
28F
330
17
100
AcDbEntity
  8
LS-TRAV
100
AcDbLine
 10
7.16
 20
7.454
 30
0.0
 11
7.204
 21
7.454
 31
0.0
  0
LINE
  5
290
330
17
100
AcDbEntity
  8
LS-TRAV
100
AcDbLine
 10
7.204
 20
7.454
 30
0.0
 11
7.204
 21
7.504
 31
0.0
  0
LINE
  5
291
330
17
100
AcDbEntity
  8
LS-TRAV
100
AcDbLine
 10
7.204
 20
7.534
 30
0.0
 11
7.204
 21
7.584
 31
0.0
  0
LINE
  5
292
330
17
100
AcDbEntity
  8
LS-TRAV
100
AcDbLine
 10
7.204
 20
7.614
 30
0.0
 11
7.204
 21
7.664
 31
0.0
  0
LINE
  5
293
330
17
100
AcDbEntity
  8
LS-TRAV
100
AcDbLine
 10
7.204
 20
7.694
 30
0.0
 11
7.204
 21
7.744
 31
0.0
  0
LINE
  5
294
330
17
100
AcDbEntity
  8
LS-TRAV
100
AcDbLine
 10
7.204
 20
7.774
 30
0.0
 11
7.204
 21
7.824
 31
0.0
  0
LINE
  5
295
330
17
100
AcDbEntity
  8
LS-TRAV
100
AcDbLine
 10
7.204
 20
7.854
 30
0.0
 11
7.204
 21
7.904
 31
0.0
  0
LINE
  5
296
330
17
100
AcDbEntity
  8
LS-TRAV
100
AcDbLine
 10
7.204
 20
7.933999999999999
 30
0.0
 11
7.204
 21
7.984
 31
0.0
  0
LINE
  5
297
330
17
100
AcDbEntity
  8
LS-TRAV
100
AcDbLine
 10
7.204
 20
8.014
 30
0.0
 11
7.204
 21
8.064
 31
0.0
  0
LINE
  5
298
330
17
100
AcDbEntity
  8
LS-TRAV
100
AcDbLine
 10
7.204
 20
8.094
 30
0.0
 11
7.204
 21
8.144
 31
0.0
  0
LINE
  5
299
330
17
100
AcDbEntity
  8
LS-TRAV
100
AcDbLine
 10
7.204
 20
8.174
 30
0.0
 11
7.204
 21
8.224
 31
0.0
  0
LINE
  5
29A
330
17
100
AcDbEntity
  8
LS-TRAV
100
AcDbLine
 10
7.204
 20
8.254
 30
0.0
 11
7.204
 21
8.304
 31
0.0
  0
LINE
  5
29B
330
17
100
AcDbEntity
  8
LS-TRAV
100
AcDbLine
 10
7.204
 20
8.334
 30
0.0
 11
7.204
 21
8.384
 31
0.0
  0
LINE
  5
29C
330
17
100
AcDbEntity
  8
LS-TRAV
100
AcDbLine
 10
7.204
 20
8.414
 30
0.0
 11
7.204
 21
8.464
 31
0.0
  0
LINE
  5
29D
330
17
100
AcDbEntity
  8
LS-TRAV
100
AcDbLine
 10
7.204
 20
8.494
 30
0.0
 11
7.204
 21
8.544
 31
0.0
  0
LINE
  5
29E
330
17
100
AcDbEntity
  8
LS-TRAV
100
AcDbLine
 10
7.204
 20
8.574
 30
0.0
 11
7.204
 21
8.624
 31
0.0
  0
LINE
  5
29F
330
17
100
AcDbEntity
  8
LS-TRAV
100
AcDbLine
 10
7.204
 20
8.654
 30
0.0
 11
7.204
 21
8.704
 31
0.0
  0
LINE
  5
2A0
330
17
100
AcDbEntity
  8
LS-TRAV
100
AcDbLine
 10
7.204
 20
8.734
 30
0.0
 11
7.204
 21
8.784
 31
0.0
  0
LINE
  5
2A1
330
17
100
AcDbEntity
  8
LS-TRAV
100
AcDbLine
 10
7.204
 20
8.814
 30
0.0
 11
7.204
 21
8.864
 31
0.0
  0
LINE
  5
2A2
330
17
100
AcDbEntity
  8
LS-TRAV
100
AcDbLine
 10
7.204
 20
8.894
 30
0.0
 11
7.204
 21
8.944
 31
0.0
  0
LINE
  5
2A3
330
17
100
AcDbEntity
  8
LS-TRAV
100
AcDbLine
 10
7.204
 20
8.974
 30
0.0
 11
7.204
 21
9.024000000000001
 31
0.0
  0
LINE
  5
2A4
330
17
100
AcDbEntity
  8
LS-TRAV
100
AcDbLine
 10
7.204
 20
9.054
 30
0.0
 11
7.204
 21
9.104000000000001
 31
0.0
  0
LINE
  5
2A5
330
17
100
AcDbEntity
  8
LS-TRAV
100
AcDbLine
 10
7.204
 20
9.134
 30
0.0
 11
7.204
 21
9.17834
 31
0.0
  0
HATCH
  5
2A6
330
17
100
AcDbEntity
  8
LS-TRAV
 62
7
420
0
100
AcDbHatch
 10
0.0
 20
0.0
 30
0.0
210
0.0
220
0.0
230
1.0
  2
SOLID
 70
1
 71
0
 91
1
 92
3
 72
0
 73
1
 93
4
 10
6.329999999999999
 20
7.4239999999999995
 10
6.39
 20
7.4239999999999995
 10
6.39
 20
7.484
 10
6.329999999999999
 20
7.484
 97
0
 75
0
 76
1
 98
0
  0
TEXT
  5
2A7
330
17
100
AcDbEntity
  8
LS-TRAV
100
AcDbText
 10
6.409999999999999
 20
7.58
 30
0.0
 40
0.052000000000000005
  1
T6 128'
  7
KS-BOLD
 11
6.409999999999999
 21
7.58
 31
0.0
100
AcDbText
  0
LINE
  5
2A8
330
17
100
AcDbEntity
  8
LS-SEPR
100
AcDbLine
 10
7.33
 20
9.17834
 30
0.0
 11
10.06834
 21
4.87334
 31
0.0
  0
LINE
  5
2A9
330
17
100
AcDbEntity
  8
LS-SEPR
100
AcDbLine
 10
10.06834
 20
9.54
 30
0.0
 11
6.603339999999999
 21
5.10166
 31
0.0
  0
TEXT
  5
2AA
330
17
100
AcDbEntity
  8
LS-SEPR
100
AcDbText
 10
8.59
 20
6.98
 30
0.0
 40
0.045
  1
ST-1-ST-3 255' · ST-2-ST-4 282' ≥ 111.1'
  7
KS-REG
 72
1
 11
8.59
 21
6.98
 31
0.0
100
AcDbText
  0
TEXT
  5
2AB
330
17
100
AcDbEntity
  8
A-ANNO-TEXT
100
AcDbText
 10
0.75
 20
3.91
 30
0.0
 40
0.06999999999999999
  1
L1 EXITS — CAPACITY (0.15 in / occ., 1005.3.2 exc.)
  7
KS-BOLD
 11
0.75
 21
3.91
 31
0.0
100
AcDbText
  0
LINE
  5
2AC
330
17
100
AcDbEntity
  8
A-ANNO-TEXT
100
AcDbLine
 10
0.75
 20
3.865
 30
0.0
 11
6.05
 21
3.865
 31
0.0
  0
TEXT
  5
2AD
330
17
100
AcDbEntity
  8
G-ANNO-TABL
100
AcDbText
 10
0.75
 20
3.732
 30
0.0
 40
0.053
  1
EXIT / CHECK
  7
KS-BOLD
 11
0.75
 21
3.732
 31
0.0
100
AcDbText
  0
TEXT
  5
2AE
330
17
100
AcDbEntity
  8
G-ANNO-TABL
100
AcDbText
 10
3.5
 20
3.732
 30
0.0
 40
0.053
  1
CLEAR in
  7
KS-BOLD
 72
2
 11
3.5
 21
3.732
 31
0.0
100
AcDbText
  0
TEXT
  5
2AF
330
17
100
AcDbEntity
  8
G-ANNO-TABL
100
AcDbText
 10
4.25
 20
3.732
 30
0.0
 40
0.053
  1
CAPACITY
  7
KS-BOLD
 72
2
 11
4.25
 21
3.732
 31
0.0
100
AcDbText
  0
TEXT
  5
2B0
330
17
100
AcDbEntity
  8
G-ANNO-TABL
100
AcDbText
 10
4.37
 20
3.732
 30
0.0
 40
0.053
  1
SERVES / RESULT
  7
KS-BOLD
 11
4.37
 21
3.732
 31
0.0
100
AcDbText
  0
LINE
  5
2B1
330
17
100
AcDbEntity
  8
G-ANNO-TABL
100
AcDbLine
 10
0.75
 20
3.697
 30
0.0
 11
6.05
 21
3.697
 31
0.0
  0
TEXT
  5
2B2
330
17
100
AcDbEntity
  8
G-ANNO-TABL
100
AcDbText
 10
0.75
 20
3.5940000000000003
 30
0.0
 40
0.053
  1
E1 main (bank)
  7
KS-BOLD
 11
0.75
 21
3.5940000000000003
 31
0.0
100
AcDbText
  0
TEXT
  5
2B3
330
17
100
AcDbEntity
  8
G-ANNO-TABL
100
AcDbText
 10
3.5
 20
3.5940000000000003
 30
0.0
 40
0.053
  1
512
  7
KS-BOLD
 72
2
 11
3.5
 21
3.5940000000000003
 31
0.0
100
AcDbText
  0
TEXT
  5
2B4
330
17
100
AcDbEntity
  8
G-ANNO-TABL
100
AcDbText
 10
4.25
 20
3.5940000000000003
 30
0.0
 40
0.053
  1
3,413
  7
KS-BOLD
 72
2
 11
4.25
 21
3.5940000000000003
 31
0.0
100
AcDbText
  0
TEXT
  5
2B5
330
17
100
AcDbEntity
  8
G-ANNO-TABL
100
AcDbText
 10
4.37
 20
3.5940000000000003
 30
0.0
 40
0.053
  1
lobby, portal, south tier, concourses
  7
KS-BOLD
 11
4.37
 21
3.5940000000000003
 31
0.0
100
AcDbText
  0
TEXT
  5
2B6
330
17
100
AcDbEntity
  8
G-ANNO-TABL
100
AcDbText
 10
0.75
 20
3.4760000000000004
 30
0.0
 40
0.053
  1
X1, X2, X3, X5, X7, X8
  7
KS-REG
 11
0.75
 21
3.4760000000000004
 31
0.0
100
AcDbText
  0
TEXT
  5
2B7
330
17
100
AcDbEntity
  8
G-ANNO-TABL
100
AcDbText
 10
3.5
 20
3.4760000000000004
 30
0.0
 40
0.053
  1
6 x 64 = 384
  7
KS-REG
 72
2
 11
3.5
 21
3.4760000000000004
 31
0.0
100
AcDbText
  0
TEXT
  5
2B8
330
17
100
AcDbEntity
  8
G-ANNO-TABL
100
AcDbText
 10
4.25
 20
3.4760000000000004
 30
0.0
 40
0.053
  1
426 each
  7
KS-REG
 72
2
 11
4.25
 21
3.4760000000000004
 31
0.0
100
AcDbText
  0
TEXT
  5
2B9
330
17
100
AcDbEntity
  8
G-ANNO-TABL
100
AcDbText
 10
4.37
 20
3.4760000000000004
 30
0.0
 40
0.053
  1
exit-only doors (64 in pair ASSUMED)
  7
KS-REG
 11
4.37
 21
3.4760000000000004
 31
0.0
100
AcDbText
  0
TEXT
  5
2BA
330
17
100
AcDbEntity
  8
G-ANNO-TABL
100
AcDbText
 10
0.75
 20
3.3580000000000005
 30
0.0
 40
0.053
  1
X4, X6, X9, X10
  7
KS-REG
 11
0.75
 21
3.3580000000000005
 31
0.0
100
AcDbText
  0
TEXT
  5
2BB
330
17
100
AcDbEntity
  8
G-ANNO-TABL
100
AcDbText
 10
3.5
 20
3.3580000000000005
 30
0.0
 40
0.053
  1
4 x 64 = 256
  7
KS-REG
 72
2
 11
3.5
 21
3.3580000000000005
 31
0.0
100
AcDbText
  0
TEXT
  5
2BC
330
17
100
AcDbEntity
  8
G-ANNO-TABL
100
AcDbText
 10
4.25
 20
3.3580000000000005
 30
0.0
 40
0.053
  1
4 x 9.2 in left
  7
KS-REG
 72
2
 11
4.25
 21
3.3580000000000005
 31
0.0
100
AcDbText
  0
TEXT
  5
2BD
330
17
100
AcDbEntity
  8
G-ANNO-TABL
100
AcDbText
 10
4.37
 20
3.3580000000000005
 30
0.0
 40
0.053
  1
stair discharge: L2 uses 54.8 in each
  7
KS-REG
 11
4.37
 21
3.3580000000000005
 31
0.0
100
AcDbText
  0
LINE
  5
2BE
330
17
100
AcDbEntity
  8
G-ANNO-TABL
100
AcDbLine
 10
0.75
 20
3.3330000000000006
 30
0.0
 11
6.05
 21
3.3330000000000006
 31
0.0
  0
TEXT
  5
2BF
330
17
100
AcDbEntity
  8
G-ANNO-TABL
100
AcDbText
 10
0.75
 20
3.230000000000001
 30
0.0
 40
0.053
  1
Total, building worst 5,289
  7
KS-REG
 11
0.75
 21
3.230000000000001
 31
0.0
100
AcDbText
  0
TEXT
  5
2C0
330
17
100
AcDbEntity
  8
G-ANNO-TABL
100
AcDbText
 10
3.5
 20
3.230000000000001
 30
0.0
 40
0.053
  1
need 793.4
  7
KS-REG
 72
2
 11
3.5
 21
3.230000000000001
 31
0.0
100
AcDbText
  0
TEXT
  5
2C1
330
17
100
AcDbEntity
  8
G-ANNO-TABL
100
AcDbText
 10
4.25
 20
3.230000000000001
 30
0.0
 40
0.053
  1
have 1,152.0
  7
KS-REG
 72
2
 11
4.25
 21
3.230000000000001
 31
0.0
100
AcDbText
  0
TEXT
  5
2C2
330
17
100
AcDbEntity
  8
G-ANNO-TABL
100
AcDbText
 10
4.37
 20
3.230000000000001
 30
0.0
 40
0.053
  1
PASS
  7
KS-REG
 11
4.37
 21
3.230000000000001
 31
0.0
100
AcDbText
  0
TEXT
  5
2C3
330
17
100
AcDbEntity
  8
G-ANNO-TABL
100
AcDbText
 10
0.75
 20
3.112000000000001
 30
0.0
 40
0.053
  1
Main exit ≥ 1/2 (1030.2)
  7
KS-REG
 11
0.75
 21
3.112000000000001
 31
0.0
100
AcDbText
  0
TEXT
  5
2C4
330
17
100
AcDbEntity
  8
G-ANNO-TABL
100
AcDbText
 10
3.5
 20
3.112000000000001
 30
0.0
 40
0.053
  1
need 396.7
  7
KS-REG
 72
2
 11
3.5
 21
3.112000000000001
 31
0.0
100
AcDbText
  0
TEXT
  5
2C5
330
17
100
AcDbEntity
  8
G-ANNO-TABL
100
AcDbText
 10
4.25
 20
3.112000000000001
 30
0.0
 40
0.053
  1
have 512.0
  7
KS-REG
 72
2
 11
4.25
 21
3.112000000000001
 31
0.0
100
AcDbText
  0
TEXT
  5
2C6
330
17
100
AcDbEntity
  8
G-ANNO-TABL
100
AcDbText
 10
4.37
 20
3.112000000000001
 30
0.0
 40
0.053
  1
PASS
  7
KS-REG
 11
4.37
 21
3.112000000000001
 31
0.0
100
AcDbText
  0
TEXT
  5
2C7
330
17
100
AcDbEntity
  8
G-ANNO-TABL
100
AcDbText
 10
0.75
 20
2.994000000000001
 30
0.0
 40
0.053
  1
Other L1 exits ≥ 1/2 of L1 3,827 (1030.3)
  7
KS-REG
 11
0.75
 21
2.994000000000001
 31
0.0
100
AcDbText
  0
TEXT
  5
2C8
330
17
100
AcDbEntity
  8
G-ANNO-TABL
100
AcDbText
 10
3.5
 20
2.994000000000001
 30
0.0
 40
0.053
  1
need 287.0
  7
KS-REG
 72
2
 11
3.5
 21
2.994000000000001
 31
0.0
100
AcDbText
  0
TEXT
  5
2C9
330
17
100
AcDbEntity
  8
G-ANNO-TABL
100
AcDbText
 10
4.25
 20
2.994000000000001
 30
0.0
 40
0.053
  1
have 420.7
  7
KS-REG
 72
2
 11
4.25
 21
2.994000000000001
 31
0.0
100
AcDbText
  0
TEXT
  5
2CA
330
17
100
AcDbEntity
  8
G-ANNO-TABL
100
AcDbText
 10
4.37
 20
2.994000000000001
 30
0.0
 40
0.053
  1
PASS
  7
KS-REG
 11
4.37
 21
2.994000000000001
 31
0.0
100
AcDbText
  0
TEXT
  5
2CB
330
17
100
AcDbEntity
  8
G-ANNO-TABL
100
AcDbText
 10
0.75
 20
2.8760000000000012
 30
0.0
 40
0.053
  1
Lose E1, ≥ 50 % (1005.5)
  7
KS-REG
 11
0.75
 21
2.8760000000000012
 31
0.0
100
AcDbText
  0
TEXT
  5
2CC
330
17
100
AcDbEntity
  8
G-ANNO-TABL
100
AcDbText
 10
3.5
 20
2.8760000000000012
 30
0.0
 40
0.053
  1
need 396.7
  7
KS-REG
 72
2
 11
3.5
 21
2.8760000000000012
 31
0.0
100
AcDbText
  0
TEXT
  5
2CD
330
17
100
AcDbEntity
  8
G-ANNO-TABL
100
AcDbText
 10
4.25
 20
2.8760000000000012
 30
0.0
 40
0.053
  1
have 640.0
  7
KS-REG
 72
2
 11
4.25
 21
2.8760000000000012
 31
0.0
100
AcDbText
  0
TEXT
  5
2CE
330
17
100
AcDbEntity
  8
G-ANNO-TABL
100
AcDbText
 10
4.37
 20
2.8760000000000012
 30
0.0
 40
0.053
  1
PASS
  7
KS-REG
 11
4.37
 21
2.8760000000000012
 31
0.0
100
AcDbText
  0
TEXT
  5
2CF
330
17
100
AcDbEntity
  8
G-ANNO-TABL
100
AcDbText
 10
0.75
 20
2.7580000000000013
 30
0.0
 40
0.053
  1
Standing margin 6,227: E1 (exits as drawn)
  7
KS-REG
 11
0.75
 21
2.7580000000000013
 31
0.0
100
AcDbText
  0
TEXT
  5
2D0
330
17
100
AcDbEntity
  8
G-ANNO-TABL
100
AcDbText
 10
3.5
 20
2.7580000000000013
 30
0.0
 40
0.053
  1
need 467.0
  7
KS-REG
 72
2
 11
3.5
 21
2.7580000000000013
 31
0.0
100
AcDbText
  0
TEXT
  5
2D1
330
17
100
AcDbEntity
  8
G-ANNO-TABL
100
AcDbText
 10
4.25
 20
2.7580000000000013
 30
0.0
 40
0.053
  1
have 512.0
  7
KS-REG
 72
2
 11
4.25
 21
2.7580000000000013
 31
0.0
100
AcDbText
  0
TEXT
  5
2D2
330
17
100
AcDbEntity
  8
G-ANNO-TABL
100
AcDbText
 10
4.37
 20
2.7580000000000013
 30
0.0
 40
0.053
  1
PASS
  7
KS-REG
 11
4.37
 21
2.7580000000000013
 31
0.0
100
AcDbText
  0
TEXT
  5
2D3
330
17
100
AcDbEntity
  8
G-ANNO-TABL
100
AcDbText
 10
0.75
 20
2.6400000000000015
 30
0.0
 40
0.053
  1
Lobby beside the screening bay (1003.6)
  7
KS-REG
 11
0.75
 21
2.6400000000000015
 31
0.0
100
AcDbText
  0
TEXT
  5
2D4
330
17
100
AcDbEntity
  8
G-ANNO-TABL
100
AcDbText
 10
3.5
 20
2.6400000000000015
 30
0.0
 40
0.053
  1
need 467.0
  7
KS-REG
 72
2
 11
3.5
 21
2.6400000000000015
 31
0.0
100
AcDbText
  0
TEXT
  5
2D5
330
17
100
AcDbEntity
  8
G-ANNO-TABL
100
AcDbText
 10
4.25
 20
2.6400000000000015
 30
0.0
 40
0.053
  1
have 468.0
  7
KS-REG
 72
2
 11
4.25
 21
2.6400000000000015
 31
0.0
100
AcDbText
  0
TEXT
  5
2D6
330
17
100
AcDbEntity
  8
G-ANNO-TABL
100
AcDbText
 10
4.37
 20
2.6400000000000015
 30
0.0
 40
0.053
  1
PASS
  7
KS-REG
 11
4.37
 21
2.6400000000000015
 31
0.0
100
AcDbText
  0
TEXT
  5
2D7
330
17
100
AcDbEntity
  8
A-ANNO-TEXT
100
AcDbText
 10
6.25
 20
3.91
 30
0.0
 40
0.06999999999999999
  1
L2 EXITS — STAIRS (0.2 in / occ., 1005.3.1 exc. 1)
  7
KS-BOLD
 11
6.25
 21
3.91
 31
0.0
100
AcDbText
  0
LINE
  5
2D8
330
17
100
AcDbEntity
  8
A-ANNO-TEXT
100
AcDbLine
 10
6.25
 20
3.865
 30
0.0
 11
10.65
 21
3.865
 31
0.0
  0
TEXT
  5
2D9
330
17
100
AcDbEntity
  8
G-ANNO-TABL
100
AcDbText
 10
6.25
 20
3.732
 30
0.0
 40
0.053
  1
EXIT / CHECK
  7
KS-BOLD
 11
6.25
 21
3.732
 31
0.0
100
AcDbText
  0
TEXT
  5
2DA
330
17
100
AcDbEntity
  8
G-ANNO-TABL
100
AcDbText
 10
8.65
 20
3.732
 30
0.0
 40
0.053
  1
CLEAR in
  7
KS-BOLD
 72
2
 11
8.65
 21
3.732
 31
0.0
100
AcDbText
  0
TEXT
  5
2DB
330
17
100
AcDbEntity
  8
G-ANNO-TABL
100
AcDbText
 10
9.3
 20
3.732
 30
0.0
 40
0.053
  1
CAPACITY
  7
KS-BOLD
 72
2
 11
9.3
 21
3.732
 31
0.0
100
AcDbText
  0
TEXT
  5
2DC
330
17
100
AcDbEntity
  8
G-ANNO-TABL
100
AcDbText
 10
9.4
 20
3.732
 30
0.0
 40
0.053
  1
SERVES / RESULT
  7
KS-BOLD
 11
9.4
 21
3.732
 31
0.0
100
AcDbText
  0
LINE
  5
2DD
330
17
100
AcDbEntity
  8
G-ANNO-TABL
100
AcDbLine
 10
6.25
 20
3.697
 30
0.0
 11
10.65
 21
3.697
 31
0.0
  0
TEXT
  5
2DE
330
17
100
AcDbEntity
  8
G-ANNO-TABL
100
AcDbText
 10
6.25
 20
3.5940000000000003
 30
0.0
 40
0.053
  1
ST-1 … ST-4
  7
KS-BOLD
 11
6.25
 21
3.5940000000000003
 31
0.0
100
AcDbText
  0
TEXT
  5
2DF
330
17
100
AcDbEntity
  8
G-ANNO-TABL
100
AcDbText
 10
8.65
 20
3.5940000000000003
 30
0.0
 40
0.053
  1
4 x 76 = 304
  7
KS-BOLD
 72
2
 11
8.65
 21
3.5940000000000003
 31
0.0
100
AcDbText
  0
TEXT
  5
2E0
330
17
100
AcDbEntity
  8
G-ANNO-TABL
100
AcDbText
 10
9.3
 20
3.5940000000000003
 30
0.0
 40
0.053
  1
380 each
  7
KS-BOLD
 72
2
 11
9.3
 21
3.5940000000000003
 31
0.0
100
AcDbText
  0
TEXT
  5
2E1
330
17
100
AcDbEntity
  8
G-ANNO-TABL
100
AcDbText
 10
9.4
 20
3.5940000000000003
 30
0.0
 40
0.053
  1
one per corner, discharge X4 /
  7
KS-BOLD
 11
9.4
 21
3.5940000000000003
 31
0.0
100
AcDbText
  0
TEXT
  5
2E2
330
17
100
AcDbEntity
  8
G-ANNO-TABL
100
AcDbText
 10
9.4
 20
3.4925200000000003
 30
0.0
 40
0.053
  1
X6 / X9 / X10
  7
KS-BOLD
 11
9.4
 21
3.4925200000000003
 31
0.0
100
AcDbText
  0
LINE
  5
2E3
330
17
100
AcDbEntity
  8
G-ANNO-TABL
100
AcDbLine
 10
6.25
 20
3.4475200000000004
 30
0.0
 11
10.65
 21
3.4475200000000004
 31
0.0
  0
TEXT
  5
2E4
330
17
100
AcDbEntity
  8
G-ANNO-TABL
100
AcDbText
 10
6.25
 20
3.3445200000000006
 30
0.0
 40
0.053
  1
Total, L2 worst 1,462
  7
KS-REG
 11
6.25
 21
3.3445200000000006
 31
0.0
100
AcDbText
  0
TEXT
  5
2E5
330
17
100
AcDbEntity
  8
G-ANNO-TABL
100
AcDbText
 10
8.65
 20
3.3445200000000006
 30
0.0
 40
0.053
  1
need 292.4
  7
KS-REG
 72
2
 11
8.65
 21
3.3445200000000006
 31
0.0
100
AcDbText
  0
TEXT
  5
2E6
330
17
100
AcDbEntity
  8
G-ANNO-TABL
100
AcDbText
 10
9.3
 20
3.3445200000000006
 30
0.0
 40
0.053
  1
have 304.0
  7
KS-REG
 72
2
 11
9.3
 21
3.3445200000000006
 31
0.0
100
AcDbText
  0
TEXT
  5
2E7
330
17
100
AcDbEntity
  8
G-ANNO-TABL
100
AcDbText
 10
9.4
 20
3.3445200000000006
 30
0.0
 40
0.053
  1
PASS (+11.6)
  7
KS-REG
 11
9.4
 21
3.3445200000000006
 31
0.0
100
AcDbText
  0
TEXT
  5
2E8
330
17
100
AcDbEntity
  8
G-ANNO-TABL
100
AcDbText
 10
6.25
 20
3.2265200000000007
 30
0.0
 40
0.053
  1
Lose one stair, ≥ 50 % (1005.5)
  7
KS-REG
 11
6.25
 21
3.2265200000000007
 31
0.0
100
AcDbText
  0
TEXT
  5
2E9
330
17
100
AcDbEntity
  8
G-ANNO-TABL
100
AcDbText
 10
8.65
 20
3.2265200000000007
 30
0.0
 40
0.053
  1
need 146.2
  7
KS-REG
 72
2
 11
8.65
 21
3.2265200000000007
 31
0.0
100
AcDbText
  0
TEXT
  5
2EA
330
17
100
AcDbEntity
  8
G-ANNO-TABL
100
AcDbText
 10
9.3
 20
3.2265200000000007
 30
0.0
 40
0.053
  1
have 228.0
  7
KS-REG
 72
2
 11
9.3
 21
3.2265200000000007
 31
0.0
100
AcDbText
  0
TEXT
  5
2EB
330
17
100
AcDbEntity
  8
G-ANNO-TABL
100
AcDbText
 10
9.4
 20
3.2265200000000007
 30
0.0
 40
0.053
  1
PASS (+81.8)
  7
KS-REG
 11
9.4
 21
3.2265200000000007
 31
0.0
100
AcDbText
  0
TEXT
  5
2EC
330
17
100
AcDbEntity
  8
G-ANNO-TABL
100
AcDbText
 10
6.25
 20
3.108520000000001
 30
0.0
 40
0.053
  1
Loop at the worst corner (R-018.3, 0.2)
  7
KS-REG
 11
6.25
 21
3.108520000000001
 31
0.0
100
AcDbText
  0
TEXT
  5
2ED
330
17
100
AcDbEntity
  8
G-ANNO-TABL
100
AcDbText
 10
8.65
 20
3.108520000000001
 30
0.0
 40
0.053
  1
need 78.6
  7
KS-REG
 72
2
 11
8.65
 21
3.108520000000001
 31
0.0
100
AcDbText
  0
TEXT
  5
2EE
330
17
100
AcDbEntity
  8
G-ANNO-TABL
100
AcDbText
 10
9.3
 20
3.108520000000001
 30
0.0
 40
0.053
  1
have 84.0
  7
KS-REG
 72
2
 11
9.3
 21
3.108520000000001
 31
0.0
100
AcDbText
  0
TEXT
  5
2EF
330
17
100
AcDbEntity
  8
G-ANNO-TABL
100
AcDbText
 10
9.4
 20
3.108520000000001
 30
0.0
 40
0.053
  1
PASS (+5.4)
  7
KS-REG
 11
9.4
 21
3.108520000000001
 31
0.0
100
AcDbText
  0
TEXT
  5
2F0
330
17
100
AcDbEntity
  8
G-ANNO-TABL
100
AcDbText
 10
6.25
 20
2.990520000000001
 30
0.0
 40
0.053
  1
4 exits from L2 (T1006.3.3, > 1,000)
  7
KS-REG
 11
6.25
 21
2.990520000000001
 31
0.0
100
AcDbText
  0
TEXT
  5
2F1
330
17
100
AcDbEntity
  8
G-ANNO-TABL
100
AcDbText
 10
9.3
 20
2.990520000000001
 30
0.0
 40
0.053
  1
4 stairs
  7
KS-REG
 72
2
 11
9.3
 21
2.990520000000001
 31
0.0
100
AcDbText
  0
TEXT
  5
2F2
330
17
100
AcDbEntity
  8
G-ANNO-TABL
100
AcDbText
 10
9.4
 20
2.990520000000001
 30
0.0
 40
0.053
  1
PASS
  7
KS-REG
 11
9.4
 21
2.990520000000001
 31
0.0
100
AcDbText
  0
LINE
  5
2F3
330
17
100
AcDbEntity
  8
A-ANNO-TEXT
100
AcDbLine
 10
10.82
 20
10.360000000000001
 30
0.0
 11
10.82
 21
1.9500000000000002
 31
0.0
  0
TEXT
  5
2F4
330
17
100
AcDbEntity
  8
A-ANNO-TEXT
100
AcDbText
 10
10.95
 20
10.402833333333334
 30
0.0
 40
0.053
  1
Schematic life safety diagram for the architect of record and the AHJ. Not a code review and no statement of approval; every line needs
  7
KS-REG
 11
10.95
 21
10.402833333333334
 31
0.0
100
AcDbText
  0
TEXT
  5
2F5
330
17
100
AcDbEntity
  8
A-ANNO-TEXT
100
AcDbText
 10
10.95
 20
10.305666666666667
 30
0.0
 40
0.053
  1
architect + AHJ confirmation (D-008). Door widths ASSUMED, travel paths measured on the diagram.
  7
KS-REG
 11
10.95
 21
10.305666666666667
 31
0.0
100
AcDbText
  0
TEXT
  5
2F6
330
17
100
AcDbEntity
  8
A-ANNO-TEXT
100
AcDbText
 10
10.95
 20
10.071375
 30
0.0
 40
0.06999999999999999
  1
LEGEND
  7
KS-BOLD
 11
10.95
 21
10.071375
 31
0.0
100
AcDbText
  0
LINE
  5
2F7
330
17
100
AcDbEntity
  8
A-ANNO-TEXT
100
AcDbLine
 10
10.95
 20
10.026375
 30
0.0
 11
16.5
 21
10.026375
 31
0.0
  0
TEXT
  5
2F8
330
17
100
AcDbEntity
  8
A-ANNO-TEXT
100
AcDbText
 10
10.95
 20
9.914208333333333
 30
0.0
 40
0.053
  1
Heavy bar + arrow = exit door (clear in · occupants); E1 = 8 pair bars, outer + inner (vestibule) bank. Grey box = stair. Red dashed + dot =
  7
KS-REG
 11
10.95
 21
9.914208333333333
 31
0.0
100
AcDbText
  0
TEXT
  5
2F9
330
17
100
AcDbEntity
  8
A-ANNO-TEXT
100
AcDbText
 10
10.95
 20
9.817041666666666
 30
0.0
 40
0.053
  1
travel path (dot = remote point; feet, rectilinear). Green line = exit separation. Green zone = screening bay (D-065). Numbers in rooms =
  7
KS-REG
 11
10.95
 21
9.817041666666666
 31
0.0
100
AcDbText
  0
TEXT
  5
2FA
330
17
100
AcDbEntity
  8
A-ANNO-TEXT
100
AcDbText
 10
10.95
 20
9.719875
 30
0.0
 40
0.053
  1
occupant load (P2-G-002).
  7
KS-REG
 11
10.95
 21
9.719875
 31
0.0
100
AcDbText
  0
TEXT
  5
2FB
330
17
100
AcDbEntity
  8
A-ANNO-TEXT
100
AcDbText
 10
10.95
 20
9.485583333333333
 30
0.0
 40
0.06999999999999999
  1
OCCUPANT LOADS (P2-G-002 REV B, IBC T1004.5)
  7
KS-BOLD
 11
10.95
 21
9.485583333333333
 31
0.0
100
AcDbText
  0
LINE
  5
2FC
330
17
100
AcDbEntity
  8
A-ANNO-TEXT
100
AcDbLine
 10
10.95
 20
9.440583333333333
 30
0.0
 11
16.5
 21
9.440583333333333
 31
0.0
  0
TEXT
  5
2FD
330
17
100
AcDbEntity
  8
G-ANNO-TABL
100
AcDbText
 10
10.95
 20
9.313583333333332
 30
0.0
 40
0.052000000000000005
  1
CASE
  7
KS-BOLD
 11
10.95
 21
9.313583333333332
 31
0.0
100
AcDbText
  0
TEXT
  5
2FE
330
17
100
AcDbEntity
  8
G-ANNO-TABL
100
AcDbText
 10
12.799999999999999
 20
9.313583333333332
 30
0.0
 40
0.052000000000000005
  1
FLOOR
  7
KS-BOLD
 72
2
 11
12.799999999999999
 21
9.313583333333332
 31
0.0
100
AcDbText
  0
TEXT
  5
2FF
330
17
100
AcDbEntity
  8
G-ANNO-TABL
100
AcDbText
 10
13.399999999999999
 20
9.313583333333332
 30
0.0
 40
0.052000000000000005
  1
L1
  7
KS-BOLD
 72
2
 11
13.399999999999999
 21
9.313583333333332
 31
0.0
100
AcDbText
  0
TEXT
  5
300
330
17
100
AcDbEntity
  8
G-ANNO-TABL
100
AcDbText
 10
14.0
 20
9.313583333333332
 30
0.0
 40
0.052000000000000005
  1
BLDG
  7
KS-BOLD
 72
2
 11
14.0
 21
9.313583333333332
 31
0.0
100
AcDbText
  0
TEXT
  5
301
330
17
100
AcDbEntity
  8
G-ANNO-TABL
100
AcDbText
 10
14.899999999999999
 20
9.313583333333332
 30
0.0
 40
0.052000000000000005
  1
E1 NEED
  7
KS-BOLD
 72
2
 11
14.899999999999999
 21
9.313583333333332
 31
0.0
100
AcDbText
  0
LINE
  5
302
330
17
100
AcDbEntity
  8
G-ANNO-TABL
100
AcDbLine
 10
10.95
 20
9.278583333333332
 30
0.0
 11
16.5
 21
9.278583333333332
 31
0.0
  0
TEXT
  5
303
330
17
100
AcDbEntity
  8
G-ANNO-TABL
100
AcDbText
 10
10.95
 20
9.181583333333332
 30
0.0
 40
0.052000000000000005
  1
Sports (50 gross)
  7
KS-REG
 11
10.95
 21
9.181583333333332
 31
0.0
100
AcDbText
  0
TEXT
  5
304
330
17
100
AcDbEntity
  8
G-ANNO-TABL
100
AcDbText
 10
12.799999999999999
 20
9.181583333333332
 30
0.0
 40
0.052000000000000005
  1
329
  7
KS-REG
 72
2
 11
12.799999999999999
 21
9.181583333333332
 31
0.0
100
AcDbText
  0
TEXT
  5
305
330
17
100
AcDbEntity
  8
G-ANNO-TABL
100
AcDbText
 10
13.399999999999999
 20
9.181583333333332
 30
0.0
 40
0.052000000000000005
  1
1,810
  7
KS-REG
 72
2
 11
13.399999999999999
 21
9.181583333333332
 31
0.0
100
AcDbText
  0
TEXT
  5
306
330
17
100
AcDbEntity
  8
G-ANNO-TABL
100
AcDbText
 10
14.0
 20
9.181583333333332
 30
0.0
 40
0.052000000000000005
  1
3,272
  7
KS-REG
 72
2
 11
14.0
 21
9.181583333333332
 31
0.0
100
AcDbText
  0
TEXT
  5
307
330
17
100
AcDbEntity
  8
G-ANNO-TABL
100
AcDbText
 10
14.899999999999999
 20
9.181583333333332
 30
0.0
 40
0.052000000000000005
  1
245.4
  7
KS-REG
 72
2
 11
14.899999999999999
 21
9.181583333333332
 31
0.0
100
AcDbText
  0
TEXT
  5
308
330
17
100
AcDbEntity
  8
G-ANNO-TABL
100
AcDbText
 10
10.95
 20
9.069583333333332
 30
0.0
 40
0.052000000000000005
  1
Tables + chairs (15 net)
  7
KS-REG
 11
10.95
 21
9.069583333333332
 31
0.0
100
AcDbText
  0
TEXT
  5
309
330
17
100
AcDbEntity
  8
G-ANNO-TABL
100
AcDbText
 10
12.799999999999999
 20
9.069583333333332
 30
0.0
 40
0.052000000000000005
  1
1,095
  7
KS-REG
 72
2
 11
12.799999999999999
 21
9.069583333333332
 31
0.0
100
AcDbText
  0
TEXT
  5
30A
330
17
100
AcDbEntity
  8
G-ANNO-TABL
100
AcDbText
 10
13.399999999999999
 20
9.069583333333332
 30
0.0
 40
0.052000000000000005
  1
2,576
  7
KS-REG
 72
2
 11
13.399999999999999
 21
9.069583333333332
 31
0.0
100
AcDbText
  0
TEXT
  5
30B
330
17
100
AcDbEntity
  8
G-ANNO-TABL
100
AcDbText
 10
14.0
 20
9.069583333333332
 30
0.0
 40
0.052000000000000005
  1
4,038
  7
KS-REG
 72
2
 11
14.0
 21
9.069583333333332
 31
0.0
100
AcDbText
  0
TEXT
  5
30C
330
17
100
AcDbEntity
  8
G-ANNO-TABL
100
AcDbText
 10
14.899999999999999
 20
9.069583333333332
 30
0.0
 40
0.052000000000000005
  1
302.8
  7
KS-REG
 72
2
 11
14.899999999999999
 21
9.069583333333332
 31
0.0
100
AcDbText
  0
TEXT
  5
30D
330
17
100
AcDbEntity
  8
G-ANNO-TABL
100
AcDbText
 10
10.95
 20
8.957583333333332
 30
0.0
 40
0.052000000000000005
  1
Chairs only (7 net)
  7
KS-BOLD
 11
10.95
 21
8.957583333333332
 31
0.0
100
AcDbText
  0
TEXT
  5
30E
330
17
100
AcDbEntity
  8
G-ANNO-TABL
100
AcDbText
 10
12.799999999999999
 20
8.957583333333332
 30
0.0
 40
0.052000000000000005
  1
2,346
  7
KS-BOLD
 72
2
 11
12.799999999999999
 21
8.957583333333332
 31
0.0
100
AcDbText
  0
TEXT
  5
30F
330
17
100
AcDbEntity
  8
G-ANNO-TABL
100
AcDbText
 10
13.399999999999999
 20
8.957583333333332
 30
0.0
 40
0.052000000000000005
  1
3,827
  7
KS-BOLD
 72
2
 11
13.399999999999999
 21
8.957583333333332
 31
0.0
100
AcDbText
  0
TEXT
  5
310
330
17
100
AcDbEntity
  8
G-ANNO-TABL
100
AcDbText
 10
14.0
 20
8.957583333333332
 30
0.0
 40
0.052000000000000005
  1
5,289
  7
KS-BOLD
 72
2
 11
14.0
 21
8.957583333333332
 31
0.0
100
AcDbText
  0
TEXT
  5
311
330
17
100
AcDbEntity
  8
G-ANNO-TABL
100
AcDbText
 10
14.899999999999999
 20
8.957583333333332
 30
0.0
 40
0.052000000000000005
  1
396.7
  7
KS-BOLD
 72
2
 11
14.899999999999999
 21
8.957583333333332
 31
0.0
100
AcDbText
  0
TEXT
  5
312
330
17
100
AcDbEntity
  8
G-ANNO-TABL
100
AcDbText
 10
10.95
 20
8.845583333333332
 30
0.0
 40
0.052000000000000005
  1
Standing (5 net) (WORST)
  7
KS-REG
 11
10.95
 21
8.845583333333332
 31
0.0
100
AcDbText
  0
TEXT
  5
313
330
17
100
AcDbEntity
  8
G-ANNO-TABL
100
AcDbText
 10
12.799999999999999
 20
8.845583333333332
 30
0.0
 40
0.052000000000000005
  1
3,284
  7
KS-REG
 72
2
 11
12.799999999999999
 21
8.845583333333332
 31
0.0
100
AcDbText
  0
TEXT
  5
314
330
17
100
AcDbEntity
  8
G-ANNO-TABL
100
AcDbText
 10
13.399999999999999
 20
8.845583333333332
 30
0.0
 40
0.052000000000000005
  1
4,765
  7
KS-REG
 72
2
 11
13.399999999999999
 21
8.845583333333332
 31
0.0
100
AcDbText
  0
TEXT
  5
315
330
17
100
AcDbEntity
  8
G-ANNO-TABL
100
AcDbText
 10
14.0
 20
8.845583333333332
 30
0.0
 40
0.052000000000000005
  1
6,227
  7
KS-REG
 72
2
 11
14.0
 21
8.845583333333332
 31
0.0
100
AcDbText
  0
TEXT
  5
316
330
17
100
AcDbEntity
  8
G-ANNO-TABL
100
AcDbText
 10
14.899999999999999
 20
8.845583333333332
 30
0.0
 40
0.052000000000000005
  1
467.0
  7
KS-REG
 72
2
 11
14.899999999999999
 21
8.845583333333332
 31
0.0
100
AcDbText
  0
LINE
  5
317
330
17
100
AcDbEntity
  8
G-ANNO-TABL
100
AcDbLine
 10
10.95
 20
8.820583333333332
 30
0.0
 11
16.5
 21
8.820583333333332
 31
0.0
  0
TEXT
  5
318
330
17
100
AcDbEntity
  8
G-ANNO-TABL
100
AcDbText
 10
10.95
 20
8.723583333333332
 30
0.0
 40
0.052000000000000005
  1
Whole floor zone 17,280 SF standing
  7
KS-REG
 11
10.95
 21
8.723583333333332
 31
0.0
100
AcDbText
  0
TEXT
  5
319
330
17
100
AcDbEntity
  8
G-ANNO-TABL
100
AcDbText
 10
12.799999999999999
 20
8.723583333333332
 30
0.0
 40
0.052000000000000005
  1
2,469
  7
KS-REG
 72
2
 11
12.799999999999999
 21
8.723583333333332
 31
0.0
100
AcDbText
  0
TEXT
  5
31A
330
17
100
AcDbEntity
  8
G-ANNO-TABL
100
AcDbText
 10
13.399999999999999
 20
8.723583333333332
 30
0.0
 40
0.052000000000000005
  1
3,950
  7
KS-REG
 72
2
 11
13.399999999999999
 21
8.723583333333332
 31
0.0
100
AcDbText
  0
TEXT
  5
31B
330
17
100
AcDbEntity
  8
G-ANNO-TABL
100
AcDbText
 10
14.0
 20
8.723583333333332
 30
0.0
 40
0.052000000000000005
  1
5,412
  7
KS-REG
 72
2
 11
14.0
 21
8.723583333333332
 31
0.0
100
AcDbText
  0
TEXT
  5
31C
330
17
100
AcDbEntity
  8
G-ANNO-TABL
100
AcDbText
 10
14.899999999999999
 20
8.723583333333332
 30
0.0
 40
0.052000000000000005
  1
405.9
  7
KS-REG
 72
2
 11
14.899999999999999
 21
8.723583333333332
 31
0.0
100
AcDbText
  0
TEXT
  5
31D
330
17
100
AcDbEntity
  8
A-ANNO-TEXT
100
AcDbText
 10
10.95
 20
8.576416666666665
 30
0.0
 40
0.053
  1
L1 without the floor 1,481 (seats 1,100); L2 1,277 base, 1,462 worst. All cases pass with the 512 in bank; the whole-floor sensitivity still
  7
KS-REG
 11
10.95
 21
8.576416666666665
 31
0.0
100
AcDbText
  0
TEXT
  5
31E
330
17
100
AcDbEntity
  8
A-ANNO-TEXT
100
AcDbText
 10
10.95
 20
8.479249999999999
 30
0.0
 40
0.053
  1
passes (E1 405.9 ≤ 512 in, total 811.8 ≤ 1,152 in).
  7
KS-REG
 11
10.95
 21
8.479249999999999
 31
0.0
100
AcDbText
  0
TEXT
  5
31F
330
17
100
AcDbEntity
  8
A-ANNO-TEXT
100
AcDbText
 10
10.95
 20
8.244958333333331
 30
0.0
 40
0.06999999999999999
  1
EXIT SEPARATION (1007.1.1 exc. 2, sprinklered)
  7
KS-BOLD
 11
10.95
 21
8.244958333333331
 31
0.0
100
AcDbText
  0
LINE
  5
320
330
17
100
AcDbEntity
  8
A-ANNO-TEXT
100
AcDbLine
 10
10.95
 20
8.199958333333331
 30
0.0
 11
16.5
 21
8.199958333333331
 31
0.0
  0
TEXT
  5
321
330
17
100
AcDbEntity
  8
A-ANNO-TEXT
100
AcDbText
 10
10.95
 20
8.087791666666664
 30
0.0
 40
0.053
  1
Max overall diagonal 333.2 ft (SW corner to NE stair tower) → 1/3 = 111.1 ft (1/2 = 166.6 ft unsprinklered). Measured to any point of a
  7
KS-REG
 11
10.95
 21
8.087791666666664
 31
0.0
100
AcDbText
  0
TEXT
  5
322
330
17
100
AcDbEntity
  8
A-ANNO-TEXT
100
AcDbText
 10
10.95
 20
7.990624999999998
 30
0.0
 40
0.053
  1
doorway / closest riser (1007.1.1.1).
  7
KS-REG
 11
10.95
 21
7.990624999999998
 31
0.0
100
AcDbText
  0
TEXT
  5
323
330
17
100
AcDbEntity
  8
A-ANNO-TEXT
100
AcDbText
 10
10.95
 20
7.869166666666665
 30
0.0
 40
0.053
  1
·
  7
KS-REG
 11
10.95
 21
7.869166666666665
 31
0.0
100
AcDbText
  0
TEXT
  5
324
330
17
100
AcDbEntity
  8
A-ANNO-TEXT
100
AcDbText
 10
11.049999999999999
 20
7.869166666666665
 30
0.0
 40
0.053
  1
L1 E1 ↔ X5: 252.0 ft ≥ 111.1 ft — PASS. E1 measured at the point of the bank (x 87.25-138.75) in line with X5.
  7
KS-REG
 11
11.049999999999999
 21
7.869166666666665
 31
0.0
100
AcDbText
  0
TEXT
  5
325
330
17
100
AcDbEntity
  8
A-ANNO-TEXT
100
AcDbText
 10
10.95
 20
7.747708333333332
 30
0.0
 40
0.053
  1
·
  7
KS-REG
 11
10.95
 21
7.747708333333332
 31
0.0
100
AcDbText
  0
TEXT
  5
326
330
17
100
AcDbEntity
  8
A-ANNO-TEXT
100
AcDbText
 10
11.049999999999999
 20
7.747708333333332
 30
0.0
 40
0.053
  1
L2 ST-1 ↔ ST-3: 255.1 ft ≥ 111.1 ft — PASS. nearest corners of the stair rectangles (risers lie inside, so the riser distance is not shorter).
  7
KS-REG
 11
11.049999999999999
 21
7.747708333333332
 31
0.0
100
AcDbText
  0
TEXT
  5
327
330
17
100
AcDbEntity
  8
A-ANNO-TEXT
100
AcDbText
 10
10.95
 20
7.626249999999999
 30
0.0
 40
0.053
  1
·
  7
KS-REG
 11
10.95
 21
7.626249999999999
 31
0.0
100
AcDbText
  0
TEXT
  5
328
330
17
100
AcDbEntity
  8
A-ANNO-TEXT
100
AcDbText
 10
11.049999999999999
 20
7.626249999999999
 30
0.0
 40
0.053
  1
L2 ST-2 ↔ ST-4: 281.5 ft ≥ 111.1 ft — PASS. nearest corners of the stair rectangles.
  7
KS-REG
 11
11.049999999999999
 21
7.626249999999999
 31
0.0
100
AcDbText
  0
TEXT
  5
329
330
17
100
AcDbEntity
  8
A-ANNO-TEXT
100
AcDbText
 10
10.95
 20
7.504791666666666
 30
0.0
 40
0.053
  1
·
  7
KS-REG
 11
10.95
 21
7.504791666666666
 31
0.0
100
AcDbText
  0
TEXT
  5
32A
330
17
100
AcDbEntity
  8
A-ANNO-TEXT
100
AcDbText
 10
11.049999999999999
 20
7.504791666666666
 30
0.0
 40
0.053
  1
Other exits a reasonable distance apart (1007.1.2): one stair per corner, exits on all four walls.
  7
KS-REG
 11
11.049999999999999
 21
7.504791666666666
 31
0.0
100
AcDbText
  0
TEXT
  5
32B
330
17
100
AcDbEntity
  8
A-ANNO-TEXT
100
AcDbText
 10
10.95
 20
7.270499999999999
 30
0.0
 40
0.06999999999999999
  1
TRAVEL DISTANCE (Table 1017.2: 250 FT)
  7
KS-BOLD
 11
10.95
 21
7.270499999999999
 31
0.0
100
AcDbText
  0
LINE
  5
32C
330
17
100
AcDbEntity
  8
A-ANNO-TEXT
100
AcDbLine
 10
10.95
 20
7.225499999999999
 30
0.0
 11
16.5
 21
7.225499999999999
 31
0.0
  0
TEXT
  5
32D
330
17
100
AcDbEntity
  8
A-ANNO-TEXT
100
AcDbText
 10
10.95
 20
7.113333333333333
 30
0.0
 40
0.053
  1
IBC 2021 Table 1017.2: Group A with sprinklers (903.3.1.1) 250 ft. 1017.3: from the most remote point along the natural and unobstructed
  7
KS-REG
 11
10.95
 21
7.113333333333333
 31
0.0
100
AcDbText
  0
TEXT
  5
32E
330
17
100
AcDbEntity
  8
A-ANNO-TEXT
100
AcDbText
 10
10.95
 20
7.016166666666667
 30
0.0
 40
0.053
  1
path to the entrance to the nearest exit. Paths below are rectilinear along open floor on the diagram (walls / doors / aisles not drawn):
  7
KS-REG
 11
10.95
 21
7.016166666666667
 31
0.0
100
AcDbText
  0
TEXT
  5
32F
330
17
100
AcDbEntity
  8
A-ANNO-TEXT
100
AcDbText
 10
10.95
 20
6.9190000000000005
 30
0.0
 40
0.053
  1
UNVERIFIED.
  7
KS-REG
 11
10.95
 21
6.9190000000000005
 31
0.0
100
AcDbText
  0
TEXT
  5
330
330
17
100
AcDbEntity
  8
A-ANNO-TEXT
100
AcDbText
 10
10.95
 20
6.7975416666666675
 30
0.0
 40
0.053
  1
·
  7
KS-REG
 11
10.95
 21
6.7975416666666675
 31
0.0
100
AcDbText
  0
TEXT
  5
331
330
17
100
AcDbEntity
  8
A-ANNO-TEXT
100
AcDbText
 10
11.049999999999999
 20
6.7975416666666675
 30
0.0
 40
0.053
  1
T1 L1 event floor center → V2 → EXIT (E) → X7: 133 ft — ≤ 250, PASS (UNVERIFIED)
  7
KS-REG
 11
11.049999999999999
 21
6.7975416666666675
 31
0.0
100
AcDbText
  0
TEXT
  5
332
330
17
100
AcDbEntity
  8
A-ANNO-TEXT
100
AcDbText
 10
10.95
 20
6.6760833333333345
 30
0.0
 40
0.053
  1
·
  7
KS-REG
 11
10.95
 21
6.6760833333333345
 31
0.0
100
AcDbText
  0
TEXT
  5
333
330
17
100
AcDbEntity
  8
A-ANNO-TEXT
100
AcDbText
 10
11.049999999999999
 20
6.6760833333333345
 30
0.0
 40
0.053
  1
T2 L1 floor SE corner → portal → lobby → E1: 131 ft — ≤ 250, PASS (UNVERIFIED)
  7
KS-REG
 11
11.049999999999999
 21
6.6760833333333345
 31
0.0
100
AcDbText
  0
TEXT
  5
334
330
17
100
AcDbEntity
  8
A-ANNO-TEXT
100
AcDbText
 10
10.95
 20
6.5546250000000015
 30
0.0
 40
0.053
  1
·
  7
KS-REG
 11
10.95
 21
6.5546250000000015
 31
0.0
100
AcDbText
  0
TEXT
  5
335
330
17
100
AcDbEntity
  8
A-ANNO-TEXT
100
AcDbText
 10
11.049999999999999
 20
6.5546250000000015
 30
0.0
 40
0.053
  1
T3 L1 girls locker far corner → X2: 82 ft — ≤ 250, PASS (UNVERIFIED)
  7
KS-REG
 11
11.049999999999999
 21
6.5546250000000015
 31
0.0
100
AcDbText
  0
TEXT
  5
336
330
17
100
AcDbEntity
  8
A-ANNO-TEXT
100
AcDbText
 10
10.95
 20
6.4331666666666685
 30
0.0
 40
0.053
  1
·
  7
KS-REG
 11
10.95
 21
6.4331666666666685
 31
0.0
100
AcDbText
  0
TEXT
  5
337
330
17
100
AcDbEntity
  8
A-ANNO-TEXT
100
AcDbText
 10
11.049999999999999
 20
6.4331666666666685
 30
0.0
 40
0.053
  1
T4 L2 E upper tier, front row mid → aisle → loop → ST-2: 124 ft — ≤ 250, PASS (UNVERIFIED)
  7
KS-REG
 11
11.049999999999999
 21
6.4331666666666685
 31
0.0
100
AcDbText
  0
TEXT
  5
338
330
17
100
AcDbEntity
  8
A-ANNO-TEXT
100
AcDbText
 10
10.95
 20
6.3117083333333355
 30
0.0
 40
0.053
  1
·
  7
KS-REG
 11
10.95
 21
6.3117083333333355
 31
0.0
100
AcDbText
  0
TEXT
  5
339
330
17
100
AcDbEntity
  8
A-ANNO-TEXT
100
AcDbText
 10
11.049999999999999
 20
6.3117083333333355
 30
0.0
 40
0.053
  1
T5 L2 S upper tier, front row mid → loop → upper concourse (E) → ST-3: 123 ft — ≤ 250, PASS (UNVERIFIED)
  7
KS-REG
 11
11.049999999999999
 21
6.3117083333333355
 31
0.0
100
AcDbText
  0
TEXT
  5
33A
330
17
100
AcDbEntity
  8
A-ANNO-TEXT
100
AcDbText
 10
10.95
 20
6.1902500000000025
 30
0.0
 40
0.053
  1
·
  7
KS-REG
 11
10.95
 21
6.1902500000000025
 31
0.0
100
AcDbText
  0
TEXT
  5
33B
330
17
100
AcDbEntity
  8
A-ANNO-TEXT
100
AcDbText
 10
11.049999999999999
 20
6.1902500000000025
 30
0.0
 40
0.053
  1
T6 L2 S&C far corner → ST-1: 128 ft — ≤ 250, PASS (UNVERIFIED)
  7
KS-REG
 11
11.049999999999999
 21
6.1902500000000025
 31
0.0
100
AcDbText
  0
TEXT
  5
33C
330
17
100
AcDbEntity
  8
A-ANNO-TEXT
100
AcDbText
 10
10.95
 20
6.0687916666666695
 30
0.0
 40
0.053
  1
L2 paths end at the stair. If the stairs are open exit access stairways rather than enclosed exit stairways (TBD, architect), travel continues
  7
KS-REG
 11
10.95
 21
6.0687916666666695
 31
0.0
100
AcDbText
  0
TEXT
  5
33D
330
17
100
AcDbEntity
  8
A-ANNO-TEXT
100
AcDbText
 10
10.95
 20
5.971625000000003
 30
0.0
 40
0.053
  1
down the stair (1017.3.1, along the nosings) to the L1 exit door: about +50 ft ASSUMED (2 flights + 76 in landings + 5 ft to the door) — still
  7
KS-REG
 11
10.95
 21
5.971625000000003
 31
0.0
100
AcDbText
  0
TEXT
  5
33E
330
17
100
AcDbEntity
  8
A-ANNO-TEXT
100
AcDbText
 10
10.95
 20
5.874458333333337
 30
0.0
 40
0.053
  1
under 250 ft.
  7
KS-REG
 11
10.95
 21
5.874458333333337
 31
0.0
100
AcDbText
  0
TEXT
  5
33F
330
17
100
AcDbEntity
  8
A-ANNO-TEXT
100
AcDbText
 10
10.95
 20
5.64016666666667
 30
0.0
 40
0.06999999999999999
  1
COMMON PATH (T1006.2.1, 1030.8)
  7
KS-BOLD
 11
10.95
 21
5.64016666666667
 31
0.0
100
AcDbText
  0
LINE
  5
340
330
17
100
AcDbEntity
  8
A-ANNO-TEXT
100
AcDbLine
 10
10.95
 20
5.59516666666667
 30
0.0
 11
16.5
 21
5.59516666666667
 31
0.0
  0
TEXT
  5
341
330
17
100
AcDbEntity
  8
A-ANNO-TEXT
100
AcDbText
 10
10.95
 20
5.483000000000004
 30
0.0
 40
0.053
  1
·
  7
KS-REG
 11
10.95
 21
5.483000000000004
 31
0.0
100
AcDbText
  0
TEXT
  5
342
330
17
100
AcDbEntity
  8
A-ANNO-TEXT
100
AcDbText
 10
11.049999999999999
 20
5.483000000000004
 30
0.0
 40
0.053
  1
Storage annex (D-067) (7): <= 49 and 70 x 30 ft: S1 + the door to equipment storage = 2 ways out; farthest point <= 75 ft to either — OK
  7
KS-REG
 11
11.049999999999999
 21
5.483000000000004
 31
0.0
100
AcDbText
  0
TEXT
  5
343
330
17
100
AcDbEntity
  8
A-ANNO-TEXT
100
AcDbText
 10
11.049999999999999
 20
5.385833333333338
 30
0.0
 40
0.053
  1
as planned (doors ASSUMED).
  7
KS-REG
 11
11.049999999999999
 21
5.385833333333338
 31
0.0
100
AcDbText
  0
TEXT
  5
344
330
17
100
AcDbEntity
  8
A-ANNO-TEXT
100
AcDbText
 10
10.95
 20
5.264375000000005
 30
0.0
 40
0.053
  1
·
  7
KS-REG
 11
10.95
 21
5.264375000000005
 31
0.0
100
AcDbText
  0
TEXT
  5
345
330
17
100
AcDbEntity
  8
A-ANNO-TEXT
100
AcDbText
 10
11.049999999999999
 20
5.264375000000005
 30
0.0
 40
0.053
  1
Event lockers 1-4 (18 each): one door OK if <= 75 ft: room 32 x 28 / 22 x 41 ft → <= 63 ft rectilinear to any wall point — LIKELY — door not
  7
KS-REG
 11
11.049999999999999
 21
5.264375000000005
 31
0.0
100
AcDbText
  0
TEXT
  5
346
330
17
100
AcDbEntity
  8
A-ANNO-TEXT
100
AcDbText
 10
11.049999999999999
 20
5.167208333333338
 30
0.0
 40
0.053
  1
located (UNVERIFIED).
  7
KS-REG
 11
11.049999999999999
 21
5.167208333333338
 31
0.0
100
AcDbText
  0
TEXT
  5
347
330
17
100
AcDbEntity
  8
A-ANNO-TEXT
100
AcDbText
 10
10.95
 20
5.045750000000005
 30
0.0
 40
0.053
  1
·
  7
KS-REG
 11
10.95
 21
5.045750000000005
 31
0.0
100
AcDbText
  0
TEXT
  5
348
330
17
100
AcDbEntity
  8
A-ANNO-TEXT
100
AcDbText
 10
11.049999999999999
 20
5.045750000000005
 30
0.0
 40
0.053
  1
Boys / girls locker (71 each): > 49 → 2 exits: X2 / X3 + corridor door — OK as planned (corridor door ASSUMED).
  7
KS-REG
 11
11.049999999999999
 21
5.045750000000005
 31
0.0
100
AcDbText
  0
TEXT
  5
349
330
17
100
AcDbEntity
  8
A-ANNO-TEXT
100
AcDbText
 10
10.95
 20
4.924291666666672
 30
0.0
 40
0.053
  1
·
  7
KS-REG
 11
10.95
 21
4.924291666666672
 31
0.0
100
AcDbText
  0
TEXT
  5
34A
330
17
100
AcDbEntity
  8
A-ANNO-TEXT
100
AcDbText
 10
11.049999999999999
 20
4.924291666666672
 30
0.0
 40
0.053
  1
Flex / team assembly (134): > 49 → 2 exits: X1 + lobby side (CD-1 free egress, 1010.2) — OK as planned.
  7
KS-REG
 11
11.049999999999999
 21
4.924291666666672
 31
0.0
100
AcDbText
  0
TEXT
  5
34B
330
17
100
AcDbEntity
  8
A-ANNO-TEXT
100
AcDbText
 10
10.95
 20
4.802833333333339
 30
0.0
 40
0.053
  1
·
  7
KS-REG
 11
10.95
 21
4.802833333333339
 31
0.0
100
AcDbText
  0
TEXT
  5
34C
330
17
100
AcDbEntity
  8
A-ANNO-TEXT
100
AcDbText
 10
11.049999999999999
 20
4.802833333333339
 30
0.0
 40
0.053
  1
S&C / cross-training (L2) (103 / 70): > 49 → 2 exit access doorways each (ST-1 / loop; corridor / loop) — ASSUMED doors (TBD).
  7
KS-REG
 11
11.049999999999999
 21
4.802833333333339
 31
0.0
100
AcDbText
  0
TEXT
  5
34D
330
17
100
AcDbEntity
  8
A-ANNO-TEXT
100
AcDbText
 10
10.95
 20
4.681375000000006
 30
0.0
 40
0.053
  1
·
  7
KS-REG
 11
10.95
 21
4.681375000000006
 31
0.0
100
AcDbText
  0
TEXT
  5
34E
330
17
100
AcDbEntity
  8
A-ANNO-TEXT
100
AcDbText
 10
11.049999999999999
 20
4.681375000000006
 30
0.0
 40
0.053
  1
Seats (both tiers) (1,100 + 1,100): 30 ft to a choice of two paths: aisle 12-15 ft to the floor / loop, then two ways — TBD — aisles and row
  7
KS-REG
 11
11.049999999999999
 21
4.681375000000006
 31
0.0
100
AcDbText
  0
TEXT
  5
34F
330
17
100
AcDbEntity
  8
A-ANNO-TEXT
100
AcDbText
 10
11.049999999999999
 20
4.58420833333334
 30
0.0
 40
0.053
  1
lengths not drawn.
  7
KS-REG
 11
11.049999999999999
 21
4.58420833333334
 31
0.0
100
AcDbText
  0
TEXT
  5
350
330
17
100
AcDbEntity
  8
A-ANNO-TEXT
100
AcDbText
 10
10.95
 20
4.462750000000007
 30
0.0
 40
0.053
  1
Rules: one exit only if ≤ 49 occ. and ≤ 75 ft (T1006.2.1, Group A, sprinklered); seats 30 ft to a choice of two paths (1030.8); unoccupied mech
  7
KS-REG
 11
10.95
 21
4.462750000000007
 31
0.0
100
AcDbText
  0
TEXT
  5
351
330
17
100
AcDbEntity
  8
A-ANNO-TEXT
100
AcDbText
 10
10.95
 20
4.3655833333333405
 30
0.0
 40
0.053
  1
rooms exempt (1006.2.1 exc. 3).
  7
KS-REG
 11
10.95
 21
4.3655833333333405
 31
0.0
100
AcDbText
  0
TEXT
  5
352
330
17
100
AcDbEntity
  8
A-ANNO-TEXT
100
AcDbText
 10
10.95
 20
4.131291666666674
 30
0.0
 40
0.06999999999999999
  1
SCREENING BAY vs EGRESS (D-065 DECIDED) — CHECK
  7
KS-BOLD
 11
10.95
 21
4.131291666666674
 31
0.0
100
AcDbText
  0
LINE
  5
353
330
17
100
AcDbEntity
  8
A-ANNO-TEXT
100
AcDbLine
 10
10.95
 20
4.086291666666674
 30
0.0
 11
16.5
 21
4.086291666666674
 31
0.0
  0
TEXT
  5
354
330
17
100
AcDbEntity
  8
A-ANNO-TEXT
100
AcDbText
 10
10.95
 20
3.9741250000000075
 30
0.0
 40
0.053
  1
Bay x 123-142, y 24-50 (19 x 26 ft); lobby clear beside it 39 ft = 468 in, free of lanes, stanchions and queues; 14 ft cross aisle to the inner
  7
KS-REG
 11
10.95
 21
3.9741250000000075
 31
0.0
100
AcDbText
  0
TEXT
  5
355
330
17
100
AcDbEntity
  8
A-ANNO-TEXT
100
AcDbText
 10
10.95
 20
3.8769583333333406
 30
0.0
 40
0.053
  1
bank. Main exit need: chairs 396.7 in (design), standing 467.0 in (margin): both <= 468, PASS.
  7
KS-REG
 11
10.95
 21
3.8769583333333406
 31
0.0
100
AcDbText
  0
TEXT
  5
356
330
17
100
AcDbEntity
  8
A-ANNO-TEXT
100
AcDbText
 10
10.95
 20
3.755500000000007
 30
0.0
 40
0.053
  1
·
  7
KS-REG
 11
10.95
 21
3.755500000000007
 31
0.0
100
AcDbText
  0
TEXT
  5
357
330
17
100
AcDbEntity
  8
A-ANNO-TEXT
100
AcDbText
 10
11.049999999999999
 20
3.755500000000007
 30
0.0
 40
0.053
  1
Lanes, tables, queues and control lines stay out of the 468 in path (IBC 1003.6, 1010.5). Standing is not a design use (D-054, posted loads
  7
KS-REG
 11
11.049999999999999
 21
3.755500000000007
 31
0.0
100
AcDbText
  0
TEXT
  5
358
330
17
100
AcDbEntity
  8
A-ANNO-TEXT
100
AcDbText
 10
11.049999999999999
 20
3.6583333333333403
 30
0.0
 40
0.053
  1
1004.9): whole-floor standing would need 479.9 in here.
  7
KS-REG
 11
11.049999999999999
 21
3.6583333333333403
 31
0.0
100
AcDbText
  0
TEXT
  5
359
330
17
100
AcDbEntity
  8
A-ANNO-TEXT
100
AcDbText
 10
10.95
 20
3.4240416666666738
 30
0.0
 40
0.06999999999999999
  1
FINDING — RESTROOM SPACE, CHAIRS-ONLY (D-069 OPEN)
  7
KS-BOLD
 11
10.95
 21
3.4240416666666738
 31
0.0
100
AcDbText
  0
LINE
  5
35A
330
17
100
AcDbEntity
  8
A-ANNO-TEXT
100
AcDbLine
 10
10.95
 20
3.379041666666674
 30
0.0
 11
16.5
 21
3.379041666666674
 31
0.0
  0
TEXT
  5
35B
330
17
100
AcDbEntity
  8
A-ANNO-TEXT
100
AcDbText
 10
10.95
 20
3.266875000000007
 30
0.0
 40
0.053
  1
Chairs-only L1 load 2,346 + 1,100 = 3,446 -> 22 M / 42 W WC, lav 9 / 12, DF 4 (IBC T2902.1 = IPC T403.1) vs 10 / 18, 4 / 5, 2 drawn: +48
  7
KS-REG
 11
10.95
 21
3.266875000000007
 31
0.0
100
AcDbText
  0
TEXT
  5
35C
330
17
100
AcDbEntity
  8
A-ANNO-TEXT
100
AcDbText
 10
10.95
 20
3.16970833333334
 30
0.0
 40
0.053
  1
fixtures = about +535 SF (A-401 Rev B tight test-fit) to +2,400 SF (50 SF / fixture). Rooms not redrawn.
  7
KS-REG
 11
10.95
 21
3.16970833333334
 31
0.0
100
AcDbText
  0
TEXT
  5
35D
330
17
100
AcDbEntity
  8
A-ANNO-TEXT
100
AcDbText
 10
10.95
 20
3.0482500000000066
 30
0.0
 40
0.053
  1
·
  7
KS-REG
 11
10.95
 21
3.0482500000000066
 31
0.0
100
AcDbText
  0
TEXT
  5
35E
330
17
100
AcDbEntity
  8
A-ANNO-TEXT
100
AcDbText
 10
11.049999999999999
 20
3.0482500000000066
 30
0.0
 40
0.053
  1
1: grow inside (women into the E concourse, men into the SW flex, D-039). 2: second pair in a bump-out (+535 to +2,400 SF). 3: mix. Until
  7
KS-REG
 11
11.049999999999999
 21
3.0482500000000066
 31
0.0
100
AcDbText
  0
TEXT
  5
35F
330
17
100
AcDbEntity
  8
A-ANNO-TEXT
100
AcDbText
 10
11.049999999999999
 20
2.9510833333333397
 30
0.0
 40
0.053
  1
then: temporary units above the drawn fixtures.
  7
KS-REG
 11
11.049999999999999
 21
2.9510833333333397
 31
0.0
100
AcDbText
  0
TEXT
  5
360
330
17
100
AcDbEntity
  8
A-ANNO-TEXT
100
AcDbText
 10
10.95
 20
2.716791666666673
 30
0.0
 40
0.06999999999999999
  1
EXIT DISCHARGE — 40 FT WALK (D-066 DECIDED) — CHECK
  7
KS-BOLD
 11
10.95
 21
2.716791666666673
 31
0.0
100
AcDbText
  0
LINE
  5
361
330
17
100
AcDbEntity
  8
A-ANNO-TEXT
100
AcDbLine
 10
10.95
 20
2.6717916666666732
 30
0.0
 11
16.5
 21
2.6717916666666732
 31
0.0
  0
TEXT
  5
362
330
17
100
AcDbEntity
  8
A-ANNO-TEXT
100
AcDbText
 10
10.95
 20
2.5596250000000063
 30
0.0
 40
0.053
  1
Exit discharge (1028.3, D-066 DECIDED): walk 40 ft at the doors = 28 ft brick + 2 x 6 ft bands = 480 in >= 466.5 (standing margin 467.0); at
  7
KS-REG
 11
10.95
 21
2.5596250000000063
 31
0.0
100
AcDbText
  0
TEXT
  5
363
330
17
100
AcDbEntity
  8
A-ANNO-TEXT
100
AcDbText
 10
10.95
 20
2.4624583333333394
 30
0.0
 40
0.053
  1
the portal the bands pass outside both 8 ft piers (6 ft each) -> 28 + 6 + 6 = 40 ft = 480 in; south to the public way 40 ft (site TBD, D-006).
  7
KS-REG
 11
10.95
 21
2.4624583333333394
 31
0.0
100
AcDbText
  0
TEXT
  5
364
330
17
100
AcDbEntity
  8
A-ANNO-TEXT
100
AcDbText
 10
10.95
 20
2.3652916666666726
 30
0.0
 40
0.053
  1
P2-C-101 Rev D.
  7
KS-REG
 11
10.95
 21
2.3652916666666726
 31
0.0
100
AcDbText
  0
TEXT
  5
365
330
17
100
AcDbEntity
  8
A-ANNO-TEXT
100
AcDbText
 10
0.75
 20
2.3800000000000017
 30
0.0
 40
0.06999999999999999
  1
TBD
  7
KS-BOLD
 11
0.75
 21
2.3800000000000017
 31
0.0
100
AcDbText
  0
LINE
  5
366
330
17
100
AcDbEntity
  8
A-ANNO-TEXT
100
AcDbLine
 10
0.75
 20
2.3350000000000017
 30
0.0
 11
6.05
 21
2.3350000000000017
 31
0.0
  0
TEXT
  5
367
330
17
100
AcDbEntity
  8
A-ANNO-TEXT
100
AcDbText
 10
0.75
 20
2.2228333333333348
 30
0.0
 40
0.053
  1
·
  7
KS-REG
 11
0.75
 21
2.2228333333333348
 31
0.0
100
AcDbText
  0
TEXT
  5
368
330
17
100
AcDbEntity
  8
A-ANNO-TEXT
100
AcDbText
 10
0.85
 20
2.2228333333333348
 30
0.0
 40
0.053
  1
Door widths, hardware and the 10 ft open space / street frontage at E1 (1030.2): architect. Seating aisles, rails, smoke-protected
  7
KS-REG
 11
0.85
 21
2.2228333333333348
 31
0.0
100
AcDbText
  0
TEXT
  5
369
330
17
100
AcDbEntity
  8
A-ANNO-TEXT
100
AcDbText
 10
0.85
 20
2.125666666666668
 30
0.0
 40
0.053
  1
seating (1030.6.2): TBD. Structure 1'-6" ASSUMED (zero margin at 7'-6").
  7
KS-REG
 11
0.85
 21
2.125666666666668
 31
0.0
100
AcDbText
  0
TEXT
  5
36A
330
17
100
AcDbEntity
  8
A-ANNO-TEXT
100
AcDbText
 10
6.25
 20
2.8488533333333343
 30
0.0
 40
0.05
  1
Sources: P2-G-002 Rev B; P2-A-101 Rev H / A-102 Rev F (params/phase2_plan_rev_h.yaml);
  7
KS-REG
 11
6.25
 21
2.8488533333333343
 31
0.0
100
AcDbText
  0
TEXT
  5
36B
330
17
100
AcDbEntity
  8
A-ANNO-TEXT
100
AcDbText
 10
6.25
 20
2.7571866666666676
 30
0.0
 40
0.05
  1
params/phase2_life_safety_rev_b.yaml; Shane 1:21-1:22 PM CT;
  7
KS-REG
 11
6.25
 21
2.7571866666666676
 31
0.0
100
AcDbText
  0
ENDSEC
  0
SECTION
  2
OBJECTS
  0
DICTIONARY
  5
A
330
0
100
AcDbDictionary
281
1
  3
ACAD_COLOR
350
B
  3
ACAD_GROUP
350
C
  3
ACAD_LAYOUT
350
D
  3
ACAD_MATERIAL
350
E
  3
ACAD_MLEADERSTYLE
350
F
  3
ACAD_MLINESTYLE
350
10
  3
ACAD_PLOTSETTINGS
350
11
  3
ACAD_PLOTSTYLENAME
350
12
  3
ACAD_SCALELIST
350
14
  3
ACAD_TABLESTYLE
350
15
  3
ACAD_VISUALSTYLE
350
16
  3
EZDXF_META
350
2D
  0
DICTIONARY
  5
B
330
A
100
AcDbDictionary
281
1
  0
DICTIONARY
  5
C
330
A
100
AcDbDictionary
281
1
  0
DICTIONARY
  5
D
330
A
100
AcDbDictionary
281
1
  3
Model
350
1A
  3
Layout1
350
1E
  0
DICTIONARY
  5
E
330
A
100
AcDbDictionary
281
1
  3
ByBlock
350
1F
  3
ByLayer
350
20
  3
Global
350
21
  0
DICTIONARY
  5
F
330
A
100
AcDbDictionary
281
1
  3
Standard
350
2C
  0
DICTIONARY
  5
10
330
A
100
AcDbDictionary
281
1
  3
Standard
350
22
  0
DICTIONARY
  5
11
330
A
100
AcDbDictionary
281
1
  0
ACDBDICTIONARYWDFLT
  5
12
330
A
100
AcDbDictionary
281
1
  3
Normal
350
13
100
AcDbDictionaryWithDefault
340
13
  0
ACDBPLACEHOLDER
  5
13
330
12
  0
DICTIONARY
  5
14
330
A
100
AcDbDictionary
281
1
  0
DICTIONARY
  5
15
330
A
100
AcDbDictionary
281
1
  0
DICTIONARY
  5
16
330
A
100
AcDbDictionary
281
1
  0
LAYOUT
  5
1A
330
D
100
AcDbPlotSettings
  1

  4
A3
  6

 40
7.5
 41
20.0
 42
7.5
 43
20.0
 44
420.0
 45
297.0
 46
0.0
 47
0.0
 48
0.0
 49
0.0
140
0.0
141
0.0
142
1.0
143
1.0
 70
1024
 72
1
 73
0
 74
5
  7

 75
16
 76
0
 77
2
 78
300
147
1.0
148
0.0
149
0.0
100
AcDbLayout
  1
Model
 70
1
 71
0
 10
0.0
 20
0.0
 11
420.0
 21
297.0
 12
0.0
 22
0.0
 32
0.0
 14
1e+20
 24
1e+20
 34
1e+20
 15
-1e+20
 25
-1e+20
 35
-1e+20
146
0.0
 13
0.0
 23
0.0
 33
0.0
 16
1.0
 26
0.0
 36
0.0
 17
0.0
 27
1.0
 37
0.0
 76
1
330
17
  0
LAYOUT
  5
1E
330
D
100
AcDbPlotSettings
  1

  4
A3
  6

 40
7.5
 41
20.0
 42
7.5
 43
20.0
 44
420.0
 45
297.0
 46
0.0
 47
0.0
 48
0.0
 49
0.0
140
0.0
141
0.0
142
1.0
143
1.0
 70
0
 72
1
 73
0
 74
5
  7

 75
16
 76
0
 77
2
 78
300
147
1.0
148
0.0
149
0.0
100
AcDbLayout
  1
Layout1
 70
1
 71
1
 10
0.0
 20
0.0
 11
420.0
 21
297.0
 12
0.0
 22
0.0
 32
0.0
 14
1e+20
 24
1e+20
 34
1e+20
 15
-1e+20
 25
-1e+20
 35
-1e+20
146
0.0
 13
0.0
 23
0.0
 33
0.0
 16
1.0
 26
0.0
 36
0.0
 17
0.0
 27
1.0
 37
0.0
 76
1
330
1B
  0
MATERIAL
  5
1F
102
{ACAD_REACTORS
330
E
102
}
330
E
100
AcDbMaterial
  1
ByBlock
  2

 70
0
 40
1.0
 71
1
 41
1.0
 91
-1023410177
 42
1.0
 72
1
  3

 73
1
 74
1
 75
1
 44
0.5
 73
0
 45
1.0
 46
1.0
 77
1
  4

 78
1
 79
1
170
1
 48
1.0
171
1
  6

172
1
173
1
174
1
140
1.0
141
1.0
175
1
  7

176
1
177
1
178
1
143
1.0
179
1
  8

270
1
271
1
272
1
145
1.0
146
1.0
273
1
  9

274
1
275
1
276
1
 42
1.0
 72
1
  3

 73
1
 74
1
 75
1
 94
63
  0
MATERIAL
  5
20
102
{ACAD_REACTORS
330
E
102
}
330
E
100
AcDbMaterial
  1
ByLayer
  2

 70
0
 40
1.0
 71
1
 41
1.0
 91
-1023410177
 42
1.0
 72
1
  3

 73
1
 74
1
 75
1
 44
0.5
 73
0
 45
1.0
 46
1.0
 77
1
  4

 78
1
 79
1
170
1
 48
1.0
171
1
  6

172
1
173
1
174
1
140
1.0
141
1.0
175
1
  7

176
1
177
1
178
1
143
1.0
179
1
  8

270
1
271
1
272
1
145
1.0
146
1.0
273
1
  9

274
1
275
1
276
1
 42
1.0
 72
1
  3

 73
1
 74
1
 75
1
 94
63
  0
MATERIAL
  5
21
102
{ACAD_REACTORS
330
E
102
}
330
E
100
AcDbMaterial
  1
Global
  2

 70
0
 40
1.0
 71
1
 41
1.0
 91
-1023410177
 42
1.0
 72
1
  3

 73
1
 74
1
 75
1
 44
0.5
 73
0
 45
1.0
 46
1.0
 77
1
  4

 78
1
 79
1
170
1
 48
1.0
171
1
  6

172
1
173
1
174
1
140
1.0
141
1.0
175
1
  7

176
1
177
1
178
1
143
1.0
179
1
  8

270
1
271
1
272
1
145
1.0
146
1.0
273
1
  9

274
1
275
1
276
1
 42
1.0
 72
1
  3

 73
1
 74
1
 75
1
 94
63
  0
MLINESTYLE
  5
22
102
{ACAD_REACTORS
330
10
102
}
330
10
100
AcDbMlineStyle
  2
Standard
 70
0
  3

 62
256
 51
90.0
 52
90.0
 71
2
 49
0.5
 62
256
  6
BYLAYER
 49
-0.5
 62
256
  6
BYLAYER
  0
MLEADERSTYLE
  5
2C
102
{ACAD_REACTORS
330
F
102
}
330
F
100
AcDbMLeaderStyle
179
2
170
2
171
1
172
0
 90
2
 40
0.0
 41
0.0
173
1
 91
-1056964608
 92
-2
290
1
 42
2.0
291
1
 43
8.0
  3
Standard
 44
4.0
300

342
29
174
1
175
1
176
0
178
1
 93
-1056964608
 45
4.0
292
0
297
0
 46
4.0
 94
-1056964608
 47
1.0
 49
1.0
140
1.0
294
1
141
0.0
177
0
142
1.0
295
0
296
0
143
3.75
271
0
272
9
273
9
  0
DICTIONARY
  5
2D
330
A
100
AcDbDictionary
280
1
281
1
  3
CREATED_BY_EZDXF
350
2E
  3
WRITTEN_BY_EZDXF
350
36E
  0
DICTIONARYVAR
  5
2E
330
2D
100
DictionaryVariables
280
0
  1
1.4.4 @ 2026-10-04T18:52:23.337995+00:00
  0
DICTIONARYVAR
  5
36E
330
2D
100
DictionaryVariables
280
0
  1
1.4.4 @ 2026-10-04T18:52:23.355482+00:00
  0
ENDSEC
  0
EOF
