  0
SECTION
  2
HEADER
  9
$ACADVER
  1
AC1024
  9
$ACADMAINTVER
 70
6
  9
$DWGCODEPAGE
  3
ANSI_1252
  9
$LASTSAVEDBY
  1
ezdxf
  9
$INSBASE
 10
0.0
 20
0.0
 30
0.0
  9
$EXTMIN
 10
1e+20
 20
1e+20
 30
1e+20
  9
$EXTMAX
 10
-1e+20
 20
-1e+20
 30
-1e+20
  9
$LIMMIN
 10
0.0
 20
0.0
  9
$LIMMAX
 10
420.0
 20
297.0
  9
$ORTHOMODE
 70
0
  9
$REGENMODE
 70
1
  9
$FILLMODE
 70
1
  9
$QTEXTMODE
 70
0
  9
$MIRRTEXT
 70
1
  9
$LTSCALE
 40
1.0
  9
$ATTMODE
 70
1
  9
$TEXTSIZE
 40
2.5
  9
$TRACEWID
 40
1.0
  9
$TEXTSTYLE
  7
Standard
  9
$CLAYER
  8
0
  9
$CELTYPE
  6
ByLayer
  9
$CECOLOR
 62
256
  9
$CELTSCALE
 40
1.0
  9
$DISPSILH
 70
0
  9
$DIMSCALE
 40
1.0
  9
$DIMASZ
 40
2.5
  9
$DIMEXO
 40
0.625
  9
$DIMDLI
 40
3.75
  9
$DIMRND
 40
0.0
  9
$DIMDLE
 40
0.0
  9
$DIMEXE
 40
1.25
  9
$DIMTP
 40
0.0
  9
$DIMTM
 40
0.0
  9
$DIMTXT
 40
2.5
  9
$DIMCEN
 40
2.5
  9
$DIMTSZ
 40
0.0
  9
$DIMTOL
 70
0
  9
$DIMLIM
 70
0
  9
$DIMTIH
 70
0
  9
$DIMTOH
 70
0
  9
$DIMSE1
 70
0
  9
$DIMSE2
 70
0
  9
$DIMTAD
 70
1
  9
$DIMZIN
 70
8
  9
$DIMBLK
  1

  9
$DIMASO
 70
1
  9
$DIMSHO
 70
1
  9
$DIMPOST
  1

  9
$DIMAPOST
  1

  9
$DIMALT
 70
0
  9
$DIMALTD
 70
3
  9
$DIMALTF
 40
0.03937007874
  9
$DIMLFAC
 40
1.0
  9
$DIMTOFL
 70
1
  9
$DIMTVP
 40
0.0
  9
$DIMTIX
 70
0
  9
$DIMSOXD
 70
0
  9
$DIMSAH
 70
0
  9
$DIMBLK1
  1

  9
$DIMBLK2
  1

  9
$DIMSTYLE
  2
ISO-25
  9
$DIMCLRD
 70
0
  9
$DIMCLRE
 70
0
  9
$DIMCLRT
 70
0
  9
$DIMTFAC
 40
1.0
  9
$DIMGAP
 40
0.625
  9
$DIMJUST
 70
0
  9
$DIMSD1
 70
0
  9
$DIMSD2
 70
0
  9
$DIMTOLJ
 70
0
  9
$DIMTZIN
 70
8
  9
$DIMALTZ
 70
0
  9
$DIMALTTZ
 70
0
  9
$DIMUPT
 70
0
  9
$DIMDEC
 70
2
  9
$DIMTDEC
 70
2
  9
$DIMALTU
 70
2
  9
$DIMALTTD
 70
3
  9
$DIMTXSTY
  7
Standard
  9
$DIMAUNIT
 70
0
  9
$DIMADEC
 70
0
  9
$DIMALTRND
 40
0.0
  9
$DIMAZIN
 70
0
  9
$DIMDSEP
 70
44
  9
$DIMATFIT
 70
3
  9
$DIMFRAC
 70
0
  9
$DIMLDRBLK
  1

  9
$DIMLUNIT
 70
2
  9
$DIMLWD
 70
-2
  9
$DIMLWE
 70
-2
  9
$DIMTMOVE
 70
0
  9
$DIMFXL
 40
1.0
  9
$DIMFXLON
 70
0
  9
$DIMJOGANG
 40
0.785398163397
  9
$DIMTFILL
 70
0
  9
$DIMTFILLCLR
 70
0
  9
$DIMARCSYM
 70
0
  9
$DIMLTYPE
  6

  9
$DIMLTEX1
  6

  9
$DIMLTEX2
  6

  9
$DIMTXTDIRECTION
 70
0
  9
$LUNITS
 70
2
  9
$LUPREC
 70
4
  9
$SKETCHINC
 40
1.0
  9
$FILLETRAD
 40
10.0
  9
$AUNITS
 70
0
  9
$AUPREC
 70
2
  9
$MENU
  1
.
  9
$ELEVATION
 40
0.0
  9
$PELEVATION
 40
0.0
  9
$THICKNESS
 40
0.0
  9
$LIMCHECK
 70
0
  9
$CHAMFERA
 40
0.0
  9
$CHAMFERB
 40
0.0
  9
$CHAMFERC
 40
0.0
  9
$CHAMFERD
 40
0.0
  9
$SKPOLY
 70
0
  9
$TDCREATE
 40
2461317.992789352
  9
$TDUCREATE
 40
2458532.153996898
  9
$TDUPDATE
 40
2461317.992789352
  9
$TDUUPDATE
 40
2458532.1544311
  9
$TDINDWG
 40
0.0
  9
$TDUSRTIMER
 40
0.0
  9
$USRTIMER
 70
1
  9
$ANGBASE
 50
0.0
  9
$ANGDIR
 70
0
  9
$PDMODE
 70
0
  9
$PDSIZE
 40
0.0
  9
$PLINEWID
 40
0.0
  9
$SPLFRAME
 70
0
  9
$SPLINETYPE
 70
6
  9
$SPLINESEGS
 70
8
  9
$HANDSEED
  5
295
  9
$SURFTAB1
 70
6
  9
$SURFTAB2
 70
6
  9
$SURFTYPE
 70
6
  9
$SURFU
 70
6
  9
$SURFV
 70
6
  9
$UCSBASE
  2

  9
$UCSNAME
  2

  9
$UCSORG
 10
0.0
 20
0.0
 30
0.0
  9
$UCSXDIR
 10
1.0
 20
0.0
 30
0.0
  9
$UCSYDIR
 10
0.0
 20
1.0
 30
0.0
  9
$UCSORTHOREF
  2

  9
$UCSORTHOVIEW
 70
0
  9
$UCSORGTOP
 10
0.0
 20
0.0
 30
0.0
  9
$UCSORGBOTTOM
 10
0.0
 20
0.0
 30
0.0
  9
$UCSORGLEFT
 10
0.0
 20
0.0
 30
0.0
  9
$UCSORGRIGHT
 10
0.0
 20
0.0
 30
0.0
  9
$UCSORGFRONT
 10
0.0
 20
0.0
 30
0.0
  9
$UCSORGBACK
 10
0.0
 20
0.0
 30
0.0
  9
$PUCSBASE
  2

  9
$PUCSNAME
  2

  9
$PUCSORG
 10
0.0
 20
0.0
 30
0.0
  9
$PUCSXDIR
 10
1.0
 20
0.0
 30
0.0
  9
$PUCSYDIR
 10
0.0
 20
1.0
 30
0.0
  9
$PUCSORTHOREF
  2

  9
$PUCSORTHOVIEW
 70
0
  9
$PUCSORGTOP
 10
0.0
 20
0.0
 30
0.0
  9
$PUCSORGBOTTOM
 10
0.0
 20
0.0
 30
0.0
  9
$PUCSORGLEFT
 10
0.0
 20
0.0
 30
0.0
  9
$PUCSORGRIGHT
 10
0.0
 20
0.0
 30
0.0
  9
$PUCSORGFRONT
 10
0.0
 20
0.0
 30
0.0
  9
$PUCSORGBACK
 10
0.0
 20
0.0
 30
0.0
  9
$USERI1
 70
0
  9
$USERI2
 70
0
  9
$USERI3
 70
0
  9
$USERI4
 70
0
  9
$USERI5
 70
0
  9
$USERR1
 40
0.0
  9
$USERR2
 40
0.0
  9
$USERR3
 40
0.0
  9
$USERR4
 40
0.0
  9
$USERR5
 40
0.0
  9
$WORLDVIEW
 70
1
  9
$SHADEDGE
 70
3
  9
$SHADEDIF
 70
70
  9
$TILEMODE
 70
1
  9
$MAXACTVP
 70
64
  9
$PINSBASE
 10
0.0
 20
0.0
 30
0.0
  9
$PLIMCHECK
 70
0
  9
$PEXTMIN
 10
1e+20
 20
1e+20
 30
1e+20
  9
$PEXTMAX
 10
-1e+20
 20
-1e+20
 30
-1e+20
  9
$PLIMMIN
 10
0.0
 20
0.0
  9
$PLIMMAX
 10
420.0
 20
297.0
  9
$UNITMODE
 70
0
  9
$VISRETAIN
 70
1
  9
$PLINEGEN
 70
0
  9
$PSLTSCALE
 70
1
  9
$TREEDEPTH
 70
3020
  9
$CMLSTYLE
  2
Standard
  9
$CMLJUST
 70
0
  9
$CMLSCALE
 40
20.0
  9
$PROXYGRAPHICS
 70
1
  9
$MEASUREMENT
 70
0
  9
$CELWEIGHT
370
-1
  9
$ENDCAPS
280
0
  9
$JOINSTYLE
280
0
  9
$LWDISPLAY
290
0
  9
$INSUNITS
 70
1
  9
$HYPERLINKBASE
  1

  9
$STYLESHEET
  1

  9
$XEDIT
290
1
  9
$CEPSNTYPE
380
0
  9
$PSTYLEMODE
290
1
  9
$FINGERPRINTGUID
  2
{51D3BCB7-5C24-45D9-8FCF-C323EE66E655}
  9
$VERSIONGUID
  2
{B5EC1249-9954-4909-A4C2-FE94AFBEDF74}
  9
$EXTNAMES
290
1
  9
$PSVPSCALE
 40
0.0
  9
$OLESTARTUP
290
0
  9
$SORTENTS
280
127
  9
$INDEXCTL
280
0
  9
$HIDETEXT
280
1
  9
$XCLIPFRAME
280
1
  9
$HALOGAP
280
0
  9
$OBSCOLOR
 70
257
  9
$OBSLTYPE
280
0
  9
$INTERSECTIONDISPLAY
280
0
  9
$INTERSECTIONCOLOR
 70
257
  9
$DIMASSOC
280
2
  9
$PROJECTNAME
  1

  9
$CAMERADISPLAY
290
0
  9
$LENSLENGTH
 40
50.0
  9
$CAMERAHEIGHT
 40
0.0
  9
$STEPSPERSEC
 40
24.0
  9
$STEPSIZE
 40
100.0
  9
$3DDWFPREC
 40
2.0
  9
$PSOLWIDTH
 40
0.005
  9
$PSOLHEIGHT
 40
0.08
  9
$LOFTANG1
 40
1.570796326795
  9
$LOFTANG2
 40
1.570796326795
  9
$LOFTMAG1
 40
0.0
  9
$LOFTMAG2
 40
0.0
  9
$LOFTPARAM
 70
7
  9
$LOFTNORMALS
280
1
  9
$LATITUDE
 40
37.795
  9
$LONGITUDE
 40
-122.394
  9
$NORTHDIRECTION
 40
0.0
  9
$TIMEZONE
 70
-8000
  9
$LIGHTGLYPHDISPLAY
280
1
  9
$TILEMODELIGHTSYNCH
280
1
  9
$CMATERIAL
347
20
  9
$SOLIDHIST
280
0
  9
$SHOWHIST
280
1
  9
$DWFFRAME
280
2
  9
$DGNFRAME
280
2
  9
$REALWORLDSCALE
290
1
  9
$INTERFERECOLOR
 62
256
  9
$CSHADOW
280
0
  9
$SHADOWPLANELOCATION
 40
0.0
  0
ENDSEC
  0
SECTION
  2
CLASSES
  0
CLASS
  1
ACDBDICTIONARYWDFLT
  2
AcDbDictionaryWithDefault
  3
ObjectDBX Classes
 90
0
 91
0
280
0
281
0
  0
CLASS
  1
SUN
  2
AcDbSun
  3
SCENEOE
 90
1153
 91
0
280
0
281
0
  0
CLASS
  1
VISUALSTYLE
  2
AcDbVisualStyle
  3
ObjectDBX Classes
 90
4095
 91
0
280
0
281
0
  0
CLASS
  1
MATERIAL
  2
AcDbMaterial
  3
ObjectDBX Classes
 90
1153
 91
0
280
0
281
0
  0
CLASS
  1
SCALE
  2
AcDbScale
  3
ObjectDBX Classes
 90
1153
 91
0
280
0
281
0
  0
CLASS
  1
TABLESTYLE
  2
AcDbTableStyle
  3
ObjectDBX Classes
 90
4095
 91
0
280
0
281
0
  0
CLASS
  1
MLEADERSTYLE
  2
AcDbMLeaderStyle
  3
ACDB_MLEADERSTYLE_CLASS
 90
4095
 91
0
280
0
281
0
  0
CLASS
  1
DICTIONARYVAR
  2
AcDbDictionaryVar
  3
ObjectDBX Classes
 90
0
 91
0
280
0
281
0
  0
CLASS
  1
CELLSTYLEMAP
  2
AcDbCellStyleMap
  3
ObjectDBX Classes
 90
1152
 91
0
280
0
281
0
  0
CLASS
  1
MENTALRAYRENDERSETTINGS
  2
AcDbMentalRayRenderSettings
  3
SCENEOE
 90
1024
 91
0
280
0
281
0
  0
CLASS
  1
ACDBDETAILVIEWSTYLE
  2
AcDbDetailViewStyle
  3
ObjectDBX Classes
 90
1025
 91
0
280
0
281
0
  0
CLASS
  1
ACDBSECTIONVIEWSTYLE
  2
AcDbSectionViewStyle
  3
ObjectDBX Classes
 90
1025
 91
0
280
0
281
0
  0
CLASS
  1
RASTERVARIABLES
  2
AcDbRasterVariables
  3
ISM
 90
0
 91
0
280
0
281
0
  0
CLASS
  1
LAYOUT
  2
AcDbLayout
  3
ObjectDBX Classes
 90
0
 91
0
280
0
281
0
  0
CLASS
  1
ACDBPLACEHOLDER
  2
AcDbPlaceHolder
  3
ObjectDBX Classes
 90
0
 91
0
280
0
281
0
  0
ENDSEC
  0
SECTION
  2
TABLES
  0
TABLE
  2
VPORT
  5
8
330
0
100
AcDbSymbolTable
 70
1
  0
VPORT
  5
23
330
8
100
AcDbSymbolTableRecord
100
AcDbViewportTableRecord
  2
*Active
 70
0
 10
0.0
 20
0.0
 11
1.0
 21
1.0
 12
0.0
 22
0.0
 13
0.0
 23
0.0
 14
0.5
 24
0.5
 15
0.5
 25
0.5
 16
0.0
 26
0.0
 36
1.0
 17
0.0
 27
0.0
 37
0.0
 40
1000.0
 41
1.34
 42
50.0
 43
0.0
 44
0.0
 50
0.0
 51
0.0
 71
0
 72
1000
 73
1
 74
3
 75
0
 76
0
 77
0
 78
0
281
0
 65
0
146
0.0
  0
ENDTAB
  0
TABLE
  2
LTYPE
  5
2
330
0
100
AcDbSymbolTable
 70
3
  0
LTYPE
  5
24
330
2
100
AcDbSymbolTableRecord
100
AcDbLinetypeTableRecord
  2
ByBlock
 70
0
  3

 72
65
 73
0
 40
0.0
  0
LTYPE
  5
25
330
2
100
AcDbSymbolTableRecord
100
AcDbLinetypeTableRecord
  2
ByLayer
 70
0
  3

 72
65
 73
0
 40
0.0
  0
LTYPE
  5
26
330
2
100
AcDbSymbolTableRecord
100
AcDbLinetypeTableRecord
  2
Continuous
 70
0
  3

 72
65
 73
0
 40
0.0
  0
ENDTAB
  0
TABLE
  2
LAYER
  5
1
330
0
100
AcDbSymbolTable
 70
13
  0
LAYER
  5
27
330
1
100
AcDbSymbolTableRecord
100
AcDbLayerTableRecord
  2
0
 70
0
 62
7
  6
Continuous
370
-3
390
13
347
21
  0
LAYER
  5
28
330
1
100
AcDbSymbolTableRecord
100
AcDbLayerTableRecord
  2
Defpoints
 70
0
 62
7
  6
Continuous
290
0
370
-3
390
13
347
21
  0
LAYER
  5
31
330
1
100
AcDbSymbolTableRecord
100
AcDbLayerTableRecord
  2
G-ANNO-TTLB
 70
0
 62
7
  6
Continuous
370
-3
390
13
347
21
  0
LAYER
  5
32
330
1
100
AcDbSymbolTableRecord
100
AcDbLayerTableRecord
  2
A-ANNO-TEXT
 70
0
 62
7
  6
Continuous
370
-3
390
13
347
21
  0
LAYER
  5
33
330
1
100
AcDbSymbolTableRecord
100
AcDbLayerTableRecord
  2
A-WALL-BLDG
 70
0
 62
7
  6
Continuous
370
-3
390
13
347
21
  0
LAYER
  5
34
330
1
100
AcDbSymbolTableRecord
100
AcDbLayerTableRecord
  2
A-ANNO-DIMS
 70
0
 62
7
  6
Continuous
370
-3
390
13
347
21
  0
LAYER
  5
35
330
1
100
AcDbSymbolTableRecord
100
AcDbLayerTableRecord
  2
A-AREA-OPEN
 70
0
 62
7
  6
Continuous
370
-3
390
13
347
21
  0
LAYER
  5
36
330
1
100
AcDbSymbolTableRecord
100
AcDbLayerTableRecord
  2
A-SEAT-FIXD
 70
0
 62
7
  6
Continuous
370
-3
390
13
347
21
  0
LAYER
  5
37
330
1
100
AcDbSymbolTableRecord
100
AcDbLayerTableRecord
  2
A-SEAT-TELE
 70
0
 62
7
  6
Continuous
370
-3
390
13
347
21
  0
LAYER
  5
38
330
1
100
AcDbSymbolTableRecord
100
AcDbLayerTableRecord
  2
A-AREA-IDEN
 70
0
 62
7
  6
Continuous
370
-3
390
13
347
21
  0
LAYER
  5
39
330
1
100
AcDbSymbolTableRecord
100
AcDbLayerTableRecord
  2
A-AREA-BLCK
 70
0
 62
7
  6
Continuous
370
-3
390
13
347
21
  0
LAYER
  5
3A
330
1
100
AcDbSymbolTableRecord
100
AcDbLayerTableRecord
  2
A-FLOR-STRS
 70
0
 62
7
  6
Continuous
370
-3
390
13
347
21
  0
LAYER
  5
3B
330
1
100
AcDbSymbolTableRecord
100
AcDbLayerTableRecord
  2
A-ANNO-TABL
 70
0
 62
7
  6
Continuous
370
-3
390
13
347
21
  0
ENDTAB
  0
TABLE
  2
STYLE
  5
5
330
0
100
AcDbSymbolTable
 70
3
  0
STYLE
  5
29
330
5
100
AcDbSymbolTableRecord
100
AcDbTextStyleTableRecord
  2
Standard
 70
0
 40
0.0
 41
1.0
 50
0.0
 71
0
 42
2.5
  3
txt
  4

  0
STYLE
  5
2F
330
5
100
AcDbSymbolTableRecord
100
AcDbTextStyleTableRecord
  2
KS-REG
 70
0
 40
0.0
 41
1.0
 50
0.0
 71
0
 42
2.5
  3
DejaVuSans.ttf
  4

  0
STYLE
  5
30
330
5
100
AcDbSymbolTableRecord
100
AcDbTextStyleTableRecord
  2
KS-BOLD
 70
0
 40
0.0
 41
1.0
 50
0.0
 71
0
 42
2.5
  3
DejaVuSans-Bold.ttf
  4

  0
ENDTAB
  0
TABLE
  2
VIEW
  5
7
330
0
100
AcDbSymbolTable
 70
0
  0
ENDTAB
  0
TABLE
  2
UCS
  5
6
330
0
100
AcDbSymbolTable
 70
0
  0
ENDTAB
  0
TABLE
  2
APPID
  5
3
330
0
100
AcDbSymbolTable
 70
3
  0
APPID
  5
2A
330
3
100
AcDbSymbolTableRecord
100
AcDbRegAppTableRecord
  2
ACAD
 70
0
  0
APPID
  5
292
330
3
100
AcDbSymbolTableRecord
100
AcDbRegAppTableRecord
  2
HATCHBACKGROUNDCOLOR
 70
0
  0
APPID
  5
293
330
3
100
AcDbSymbolTableRecord
100
AcDbRegAppTableRecord
  2
EZDXF
 70
0
  0
ENDTAB
  0
TABLE
  2
DIMSTYLE
  5
4
330
0
100
AcDbSymbolTable
 70
1
100
AcDbDimStyleTable
  0
DIMSTYLE
105
2B
330
4
100
AcDbSymbolTableRecord
100
AcDbDimStyleTableRecord
  2
Standard
 70
0
 40
1.0
 41
2.5
 42
0.625
 43
3.75
 44
1.25
 45
0.0
 46
0.0
 47
0.0
 48
0.0
 49
2.5
140
2.5
141
2.5
142
0.0
143
0.03937007874
144
1.0
145
0.0
146
1.0
147
0.625
148
0.0
 69
0
 70
0
 71
0
 72
0
 73
0
 74
0
 75
0
 76
0
 77
1
 78
8
 79
3
170
0
171
3
172
1
173
0
174
0
175
0
176
0
177
0
178
0
179
2
271
2
272
2
273
2
274
3
275
0
276
0
277
2
278
44
279
0
280
0
281
0
282
0
283
0
284
8
285
0
286
0
288
0
289
3
290
0
371
-2
372
-2
  0
ENDTAB
  0
TABLE
  2
BLOCK_RECORD
  5
9
330
0
100
AcDbSymbolTable
 70
2
  0
BLOCK_RECORD
  5
17
330
9
100
AcDbSymbolTableRecord
100
AcDbBlockTableRecord
  2
*Model_Space
340
1A
 70
0
280
1
281
0
  0
BLOCK_RECORD
  5
1B
330
9
100
AcDbSymbolTableRecord
100
AcDbBlockTableRecord
  2
*Paper_Space
340
1E
 70
0
280
1
281
0
  0
ENDTAB
  0
ENDSEC
  0
SECTION
  2
BLOCKS
  0
BLOCK
  5
18
330
17
100
AcDbEntity
  8
0
100
AcDbBlockBegin
  2
*Model_Space
 70
0
 10
0.0
 20
0.0
 30
0.0
  3
*Model_Space
  1

  0
ENDBLK
  5
19
330
17
100
AcDbEntity
  8
0
100
AcDbBlockEnd
  0
BLOCK
  5
1C
330
1B
100
AcDbEntity
  8
0
100
AcDbBlockBegin
  2
*Paper_Space
 70
0
 10
0.0
 20
0.0
 30
0.0
  3
*Paper_Space
  1

  0
ENDBLK
  5
1D
330
1B
100
AcDbEntity
  8
0
100
AcDbBlockEnd
  0
ENDSEC
  0
SECTION
  2
ENTITIES
  0
LWPOLYLINE
  5
3C
330
17
100
AcDbEntity
  8
G-ANNO-TTLB
100
AcDbPolyline
 90
4
 70
1
 10
0.5
 20
0.5
 10
16.5
 20
0.5
 10
16.5
 20
10.5
 10
0.5
 20
10.5
  0
LWPOLYLINE
  5
3D
330
17
100
AcDbEntity
  8
G-ANNO-TTLB
100
AcDbPolyline
 90
4
 70
1
 10
0.5
 20
1.45
 10
16.5
 20
1.45
 10
16.5
 20
1.85
 10
0.5
 20
1.85
  0
TEXT
  5
3E
330
17
100
AcDbEntity
  8
G-ANNO-TTLB
100
AcDbText
 10
8.5
 20
1.5699999999999998
 30
0.0
 40
0.16999999999999998
  1
PRELIMINARY — CONCEPTUAL DESIGN — NOT FOR CONSTRUCTION
  7
KS-BOLD
 72
1
 11
8.5
 21
1.5699999999999998
 31
0.0
100
AcDbText
  0
LINE
  5
3F
330
17
100
AcDbEntity
  8
G-ANNO-TTLB
100
AcDbLine
 10
0.5
 20
1.45
 30
0.0
 11
16.5
 21
1.45
 31
0.0
  0
TEXT
  5
40
330
17
100
AcDbEntity
  8
G-ANNO-TTLB
100
AcDbText
 10
0.58
 20
1.28
 30
0.0
 40
0.06999999999999999
  1
PROJECT
  7
KS-REG
 11
0.58
 21
1.28
 31
0.0
100
AcDbText
  0
TEXT
  5
41
330
17
100
AcDbEntity
  8
G-ANNO-TTLB
100
AcDbText
 10
0.58
 20
0.9991666666666666
 30
0.0
 40
0.11499999999999999
  1
Hazel Green Regional Athletic Complex
  7
KS-BOLD
 11
0.58
 21
0.9991666666666666
 31
0.0
100
AcDbText
  0
TEXT
  5
42
330
17
100
AcDbEntity
  8
G-ANNO-TTLB
100
AcDbText
 10
0.58
 20
0.7883333333333333
 30
0.0
 40
0.11499999999999999
  1
Trojan Horse Arena · Hazel Green area, Madison
  7
KS-BOLD
 11
0.58
 21
0.7883333333333333
 31
0.0
100
AcDbText
  0
TEXT
  5
43
330
17
100
AcDbEntity
  8
G-ANNO-TTLB
100
AcDbText
 10
0.58
 20
0.5775
 30
0.0
 40
0.11499999999999999
  1
County, Alabama (site TBD, D-006)
  7
KS-BOLD
 11
0.58
 21
0.5775
 31
0.0
100
AcDbText
  0
LINE
  5
44
330
17
100
AcDbEntity
  8
G-ANNO-TTLB
100
AcDbLine
 10
5.2
 20
0.5
 30
0.0
 11
5.2
 21
1.45
 31
0.0
  0
TEXT
  5
45
330
17
100
AcDbEntity
  8
G-ANNO-TTLB
100
AcDbText
 10
5.28
 20
1.28
 30
0.0
 40
0.06999999999999999
  1
PHASE
  7
KS-REG
 11
5.28
 21
1.28
 31
0.0
100
AcDbText
  0
TEXT
  5
46
330
17
100
AcDbEntity
  8
G-ANNO-TTLB
100
AcDbText
 10
5.28
 20
0.9716666666666667
 30
0.0
 40
0.13
  1
PHASE 2
  7
KS-BOLD
 11
5.28
 21
0.9716666666666667
 31
0.0
100
AcDbText
  0
LINE
  5
47
330
17
100
AcDbEntity
  8
G-ANNO-TTLB
100
AcDbLine
 10
6.7
 20
0.5
 30
0.0
 11
6.7
 21
1.45
 31
0.0
  0
TEXT
  5
48
330
17
100
AcDbEntity
  8
G-ANNO-TTLB
100
AcDbText
 10
6.78
 20
1.28
 30
0.0
 40
0.06999999999999999
  1
SHEET TITLE
  7
KS-REG
 11
6.78
 21
1.28
 31
0.0
100
AcDbText
  0
TEXT
  5
49
330
17
100
AcDbEntity
  8
G-ANNO-TTLB
100
AcDbText
 10
6.78
 20
0.9991666666666666
 30
0.0
 40
0.11499999999999999
  1
OVERALL FLOOR PLAN
  7
KS-BOLD
 11
6.78
 21
0.9991666666666666
 31
0.0
100
AcDbText
  0
TEXT
  5
4A
330
17
100
AcDbEntity
  8
G-ANNO-TTLB
100
AcDbText
 10
6.78
 20
0.7883333333333333
 30
0.0
 40
0.11499999999999999
  1
LEVEL 2 · BLOCK PLAN
  7
KS-BOLD
 11
6.78
 21
0.7883333333333333
 31
0.0
100
AcDbText
  0
LINE
  5
4B
330
17
100
AcDbEntity
  8
G-ANNO-TTLB
100
AcDbLine
 10
9.8
 20
0.5
 30
0.0
 11
9.8
 21
1.45
 31
0.0
  0
TEXT
  5
4C
330
17
100
AcDbEntity
  8
G-ANNO-TTLB
100
AcDbText
 10
9.88
 20
1.28
 30
0.0
 40
0.06999999999999999
  1
SCALE
  7
KS-REG
 11
9.88
 21
1.28
 31
0.0
100
AcDbText
  0
TEXT
  5
4D
330
17
100
AcDbEntity
  8
G-ANNO-TTLB
100
AcDbText
 10
9.88
 20
0.9716666666666667
 30
0.0
 40
0.13
  1
1/32" =
  7
KS-BOLD
 11
9.88
 21
0.9716666666666667
 31
0.0
100
AcDbText
  0
TEXT
  5
4E
330
17
100
AcDbEntity
  8
G-ANNO-TTLB
100
AcDbText
 10
9.88
 20
0.7333333333333334
 30
0.0
 40
0.13
  1
1'-0"
  7
KS-BOLD
 11
9.88
 21
0.7333333333333334
 31
0.0
100
AcDbText
  0
LINE
  5
4F
330
17
100
AcDbEntity
  8
G-ANNO-TTLB
100
AcDbLine
 10
10.700000000000001
 20
0.5
 30
0.0
 11
10.700000000000001
 21
1.45
 31
0.0
  0
TEXT
  5
50
330
17
100
AcDbEntity
  8
G-ANNO-TTLB
100
AcDbText
 10
10.780000000000001
 20
1.28
 30
0.0
 40
0.06999999999999999
  1
DATE
  7
KS-REG
 11
10.780000000000001
 21
1.28
 31
0.0
100
AcDbText
  0
TEXT
  5
51
330
17
100
AcDbEntity
  8
G-ANNO-TTLB
100
AcDbText
 10
10.780000000000001
 20
0.9716666666666667
 30
0.0
 40
0.13
  1
October
  7
KS-BOLD
 11
10.780000000000001
 21
0.9716666666666667
 31
0.0
100
AcDbText
  0
TEXT
  5
52
330
17
100
AcDbEntity
  8
G-ANNO-TTLB
100
AcDbText
 10
10.780000000000001
 20
0.7333333333333334
 30
0.0
 40
0.13
  1
2026
  7
KS-BOLD
 11
10.780000000000001
 21
0.7333333333333334
 31
0.0
100
AcDbText
  0
LINE
  5
53
330
17
100
AcDbEntity
  8
G-ANNO-TTLB
100
AcDbLine
 10
12.15
 20
0.5
 30
0.0
 11
12.15
 21
1.45
 31
0.0
  0
TEXT
  5
54
330
17
100
AcDbEntity
  8
G-ANNO-TTLB
100
AcDbText
 10
12.23
 20
1.28
 30
0.0
 40
0.06999999999999999
  1
REV
  7
KS-REG
 11
12.23
 21
1.28
 31
0.0
100
AcDbText
  0
TEXT
  5
55
330
17
100
AcDbEntity
  8
G-ANNO-TTLB
100
AcDbText
 10
12.23
 20
0.9716666666666667
 30
0.0
 40
0.13
  1
A
  7
KS-BOLD
 11
12.23
 21
0.9716666666666667
 31
0.0
100
AcDbText
  0
LINE
  5
56
330
17
100
AcDbEntity
  8
G-ANNO-TTLB
100
AcDbLine
 10
12.9
 20
0.5
 30
0.0
 11
12.9
 21
1.45
 31
0.0
  0
TEXT
  5
57
330
17
100
AcDbEntity
  8
G-ANNO-TTLB
100
AcDbText
 10
12.98
 20
1.28
 30
0.0
 40
0.06999999999999999
  1
DRAWN BY
  7
KS-REG
 11
12.98
 21
1.28
 31
0.0
100
AcDbText
  0
TEXT
  5
58
330
17
100
AcDbEntity
  8
G-ANNO-TTLB
100
AcDbText
 10
12.98
 20
1.0358333333333332
 30
0.0
 40
0.095
  1
Drawn by KEYSTONE (AI) for
  7
KS-REG
 11
12.98
 21
1.0358333333333332
 31
0.0
100
AcDbText
  0
TEXT
  5
59
330
17
100
AcDbEntity
  8
G-ANNO-TTLB
100
AcDbText
 10
12.98
 20
0.8616666666666665
 30
0.0
 40
0.095
  1
Shane Brazelton
  7
KS-REG
 11
12.98
 21
0.8616666666666665
 31
0.0
100
AcDbText
  0
LINE
  5
5A
330
17
100
AcDbEntity
  8
G-ANNO-TTLB
100
AcDbLine
 10
15.0
 20
0.5
 30
0.0
 11
15.0
 21
1.45
 31
0.0
  0
TEXT
  5
5B
330
17
100
AcDbEntity
  8
G-ANNO-TTLB
100
AcDbText
 10
15.08
 20
1.28
 30
0.0
 40
0.06999999999999999
  1
SHEET
  7
KS-REG
 11
15.08
 21
1.28
 31
0.0
100
AcDbText
  0
TEXT
  5
5C
330
17
100
AcDbEntity
  8
G-ANNO-TTLB
100
AcDbText
 10
15.75
 20
0.77
 30
0.0
 40
0.18
  1
P2-A-102
  7
KS-BOLD
 72
1
 11
15.75
 21
0.77
 31
0.0
100
AcDbText
  0
TEXT
  5
5D
330
17
100
AcDbEntity
  8
A-ANNO-TEXT
100
AcDbText
 10
1.12
 20
10.16
 30
0.0
 40
0.13999999999999999
  1
LEVEL 2 — OVERALL FLOOR PLAN
  7
KS-BOLD
 11
1.12
 21
10.16
 31
0.0
100
AcDbText
  0
TEXT
  5
5E
330
17
100
AcDbEntity
  8
A-ANNO-TEXT
100
AcDbText
 10
1.12
 20
9.9
 30
0.0
 40
0.08499999999999999
  1
SCHEMATIC — BLOCK PLAN · scale 1/32" = 1'-0" on 17 x 11 in · north approximate, site TBD
  7
KS-REG
 11
1.12
 21
9.9
 31
0.0
100
AcDbText
  0
LWPOLYLINE
  5
5F
330
17
100
AcDbEntity
  8
A-WALL-BLDG
100
AcDbPolyline
 90
4
 70
1
 10
1.12
 20
2.63
 10
8.932500000000001
 20
2.63
 10
8.932500000000001
 20
9.504999999999999
 10
1.12
 20
9.504999999999999
  0
LINE
  5
60
330
17
100
AcDbEntity
  8
A-ANNO-DIMS
100
AcDbLine
 10
1.12
 20
2.34875
 30
0.0
 11
8.932500000000001
 21
2.34875
 31
0.0
  0
LINE
  5
61
330
17
100
AcDbEntity
  8
A-ANNO-DIMS
100
AcDbLine
 10
1.12
 20
2.270625
 30
0.0
 11
1.12
 21
2.426875
 31
0.0
  0
LINE
  5
62
330
17
100
AcDbEntity
  8
A-ANNO-DIMS
100
AcDbLine
 10
8.932500000000001
 20
2.270625
 30
0.0
 11
8.932500000000001
 21
2.426875
 31
0.0
  0
TEXT
  5
63
330
17
100
AcDbEntity
  8
A-ANNO-DIMS
100
AcDbText
 10
5.02625
 20
2.2087499999999998
 30
0.0
 40
0.06999999999999999
  1
250'-0"  (building 250 x 220 ft = 55,000 SF footprint)
  7
KS-REG
 72
1
 11
5.02625
 21
2.2087499999999998
 31
0.0
100
AcDbText
  0
LINE
  5
64
330
17
100
AcDbEntity
  8
A-ANNO-DIMS
100
AcDbLine
 10
0.8387500000000001
 20
2.63
 30
0.0
 11
0.8387500000000001
 21
9.504999999999999
 31
0.0
  0
LINE
  5
65
330
17
100
AcDbEntity
  8
A-ANNO-DIMS
100
AcDbLine
 10
0.7606250000000001
 20
2.63
 30
0.0
 11
0.9168750000000001
 21
2.63
 31
0.0
  0
LINE
  5
66
330
17
100
AcDbEntity
  8
A-ANNO-DIMS
100
AcDbLine
 10
0.7606250000000001
 20
9.504999999999999
 30
0.0
 11
0.9168750000000001
 21
9.504999999999999
 31
0.0
  0
TEXT
  5
67
330
17
100
AcDbEntity
  8
A-ANNO-DIMS
100
AcDbText
 10
0.77875
 20
6.0675
 30
0.0
 40
0.06999999999999999
  1
220'-0"
 50
90.0
  7
KS-REG
 72
1
 11
0.77875
 21
6.0675
 31
0.0
100
AcDbText
  0
LWPOLYLINE
  5
68
330
17
100
AcDbEntity
  8
A-AREA-OPEN
100
AcDbPolyline
 90
4
 70
1
 10
2.15125
 20
2.88
 10
3.666875
 20
2.88
 10
3.666875
 20
5.670624999999999
 10
2.15125
 20
5.670624999999999
  0
LINE
  5
69
330
17
100
AcDbEntity
  8
A-AREA-OPEN
100
AcDbLine
 10
2.15125
 20
2.88
 30
0.0
 11
2.1798859349767374
 21
2.9327255462561372
 31
0.0
  0
LINE
  5
6A
330
17
100
AcDbEntity
  8
A-AREA-OPEN
100
AcDbLine
 10
2.208521869953475
 20
2.985451092512274
 30
0.0
 11
2.2371578049302125
 21
3.0381766387684115
 31
0.0
  0
LINE
  5
6B
330
17
100
AcDbEntity
  8
A-AREA-OPEN
100
AcDbLine
 10
2.26579373990695
 20
3.090902185024549
 30
0.0
 11
2.294429674883687
 21
3.1436277312806857
 31
0.0
  0
LINE
  5
6C
330
17
100
AcDbEntity
  8
A-AREA-OPEN
100
AcDbLine
 10
2.323065609860425
 20
3.196353277536823
 30
0.0
 11
2.3517015448371623
 21
3.2490788237929604
 31
0.0
  0
LINE
  5
6D
330
17
100
AcDbEntity
  8
A-AREA-OPEN
100
AcDbLine
 10
2.3803374798138996
 20
3.3018043700490973
 30
0.0
 11
2.4089734147906374
 21
3.3545299163052347
 31
0.0
  0
LINE
  5
6E
330
17
100
AcDbEntity
  8
A-AREA-OPEN
100
AcDbLine
 10
2.4376093497673748
 20
3.407255462561372
 30
0.0
 11
2.466245284744112
 21
3.4599810088175094
 31
0.0
  0
LINE
  5
6F
330
17
100
AcDbEntity
  8
A-AREA-OPEN
100
AcDbLine
 10
2.49488121972085
 20
3.5127065550736463
 30
0.0
 11
2.523517154697587
 21
3.5654321013297836
 31
0.0
  0
LINE
  5
70
330
17
100
AcDbEntity
  8
A-AREA-OPEN
100
AcDbLine
 10
2.5521530896743245
 20
3.618157647585921
 30
0.0
 11
2.5807890246510623
 21
3.6708831938420583
 31
0.0
  0
LINE
  5
71
330
17
100
AcDbEntity
  8
A-AREA-OPEN
100
AcDbLine
 10
2.6094249596277996
 20
3.7236087400981956
 30
0.0
 11
2.6380608946045374
 21
3.7763342863543325
 31
0.0
  0
LINE
  5
72
330
17
100
AcDbEntity
  8
A-AREA-OPEN
100
AcDbLine
 10
2.6666968295812747
 20
3.82905983261047
 30
0.0
 11
2.695332764558012
 21
3.8817853788666072
 31
0.0
  0
LINE
  5
73
330
17
100
AcDbEntity
  8
A-AREA-OPEN
100
AcDbLine
 10
3.12125
 20
4.666
 30
0.0
 11
3.149885934976737
 21
4.718725546256137
 31
0.0
  0
LINE
  5
74
330
17
100
AcDbEntity
  8
A-AREA-OPEN
100
AcDbLine
 10
3.178521869953475
 20
4.771451092512275
 30
0.0
 11
3.2071578049302123
 21
4.824176638768412
 31
0.0
  0
LINE
  5
75
330
17
100
AcDbEntity
  8
A-AREA-OPEN
100
AcDbLine
 10
3.2357937399069496
 20
4.876902185024549
 30
0.0
 11
3.2644296748836874
 21
4.929627731280687
 31
0.0
  0
LINE
  5
76
330
17
100
AcDbEntity
  8
A-AREA-OPEN
100
AcDbLine
 10
3.2930656098604247
 20
4.9823532775368236
 30
0.0
 11
3.321701544837162
 21
5.0350788237929605
 31
0.0
  0
LINE
  5
77
330
17
100
AcDbEntity
  8
A-AREA-OPEN
100
AcDbLine
 10
3.3503374798139
 20
5.087804370049098
 30
0.0
 11
3.378973414790637
 21
5.140529916305235
 31
0.0
  0
LINE
  5
78
330
17
100
AcDbEntity
  8
A-AREA-OPEN
100
AcDbLine
 10
3.407609349767375
 20
5.193255462561372
 30
0.0
 11
3.4362452847441123
 21
5.24598100881751
 31
0.0
  0
LINE
  5
79
330
17
100
AcDbEntity
  8
A-AREA-OPEN
100
AcDbLine
 10
3.4648812197208496
 20
5.298706555073647
 30
0.0
 11
3.4935171546975874
 21
5.3514321013297845
 31
0.0
  0
LINE
  5
7A
330
17
100
AcDbEntity
  8
A-AREA-OPEN
100
AcDbLine
 10
3.5221530896743247
 20
5.404157647585921
 30
0.0
 11
3.5507890246510625
 21
5.456883193842058
 31
0.0
  0
LINE
  5
7B
330
17
100
AcDbEntity
  8
A-AREA-OPEN
100
AcDbLine
 10
3.5794249596278
 20
5.509608740098196
 30
0.0
 11
3.608060894604537
 21
5.562334286354333
 31
0.0
  0
LINE
  5
7C
330
17
100
AcDbEntity
  8
A-AREA-OPEN
100
AcDbLine
 10
3.636696829581275
 20
5.61505983261047
 30
0.0
 11
3.6653327645580123
 21
5.667785378866608
 31
0.0
  0
LINE
  5
7D
330
17
100
AcDbEntity
  8
A-AREA-OPEN
100
AcDbLine
 10
2.15125
 20
5.670624999999999
 30
0.0
 11
2.1798859349767374
 21
5.6178994537438625
 31
0.0
  0
LINE
  5
7E
330
17
100
AcDbEntity
  8
A-AREA-OPEN
100
AcDbLine
 10
2.208521869953475
 20
5.565173907487725
 30
0.0
 11
2.2371578049302125
 21
5.512448361231588
 31
0.0
  0
LINE
  5
7F
330
17
100
AcDbEntity
  8
A-AREA-OPEN
100
AcDbLine
 10
2.26579373990695
 20
5.459722814975451
 30
0.0
 11
2.2944296748836877
 21
5.406997268719313
 31
0.0
  0
LINE
  5
80
330
17
100
AcDbEntity
  8
A-AREA-OPEN
100
AcDbLine
 10
2.323065609860425
 20
5.354271722463176
 30
0.0
 11
2.3517015448371623
 21
5.301546176207039
 31
0.0
  0
LINE
  5
81
330
17
100
AcDbEntity
  8
A-AREA-OPEN
100
AcDbLine
 10
2.3803374798139
 20
5.2488206299509015
 30
0.0
 11
2.4089734147906374
 21
5.196095083694765
 31
0.0
  0
LINE
  5
82
330
17
100
AcDbEntity
  8
A-AREA-OPEN
100
AcDbLine
 10
2.437609349767375
 20
5.143369537438628
 30
0.0
 11
2.4662452847441125
 21
5.09064399118249
 31
0.0
  0
LINE
  5
83
330
17
100
AcDbEntity
  8
A-AREA-OPEN
100
AcDbLine
 10
2.49488121972085
 20
5.037918444926353
 30
0.0
 11
2.5235171546975876
 21
4.985192898670215
 31
0.0
  0
LINE
  5
84
330
17
100
AcDbEntity
  8
A-AREA-OPEN
100
AcDbLine
 10
2.552153089674325
 20
4.932467352414078
 30
0.0
 11
2.5807890246510627
 21
4.879741806157941
 31
0.0
  0
LINE
  5
85
330
17
100
AcDbEntity
  8
A-AREA-OPEN
100
AcDbLine
 10
2.6094249596278
 20
4.827016259901804
 30
0.0
 11
2.6380608946045374
 21
4.774290713645667
 31
0.0
  0
LINE
  5
86
330
17
100
AcDbEntity
  8
A-AREA-OPEN
100
AcDbLine
 10
2.666696829581275
 20
4.72156516738953
 30
0.0
 11
2.6953327645580125
 21
4.668839621133392
 31
0.0
  0
LINE
  5
87
330
17
100
AcDbEntity
  8
A-AREA-OPEN
100
AcDbLine
 10
3.12125
 20
3.8846249999999998
 30
0.0
 11
3.149885934976737
 21
3.8318994537438624
 31
0.0
  0
LINE
  5
88
330
17
100
AcDbEntity
  8
A-AREA-OPEN
100
AcDbLine
 10
3.178521869953475
 20
3.7791739074877255
 30
0.0
 11
3.2071578049302123
 21
3.726448361231588
 31
0.0
  0
LINE
  5
89
330
17
100
AcDbEntity
  8
A-AREA-OPEN
100
AcDbLine
 10
3.2357937399069496
 20
3.673722814975451
 30
0.0
 11
3.264429674883687
 21
3.620997268719314
 31
0.0
  0
LINE
  5
8A
330
17
100
AcDbEntity
  8
A-AREA-OPEN
100
AcDbLine
 10
3.2930656098604247
 20
3.5682717224631766
 30
0.0
 11
3.321701544837162
 21
3.5155461762070392
 31
0.0
  0
LINE
  5
8B
330
17
100
AcDbEntity
  8
A-AREA-OPEN
100
AcDbLine
 10
3.3503374798138994
 20
3.4628206299509023
 30
0.0
 11
3.378973414790637
 21
3.410095083694765
 31
0.0
  0
LINE
  5
8C
330
17
100
AcDbEntity
  8
A-AREA-OPEN
100
AcDbLine
 10
3.4076093497673745
 20
3.3573695374386276
 30
0.0
 11
3.436245284744112
 21
3.3046439911824903
 31
0.0
  0
LINE
  5
8D
330
17
100
AcDbEntity
  8
A-AREA-OPEN
100
AcDbLine
 10
3.4648812197208496
 20
3.2519184449263534
 30
0.0
 11
3.493517154697587
 21
3.199192898670216
 31
0.0
  0
LINE
  5
8E
330
17
100
AcDbEntity
  8
A-AREA-OPEN
100
AcDbLine
 10
3.5221530896743243
 20
3.1464673524140787
 30
0.0
 11
3.550789024651062
 21
3.0937418061579414
 31
0.0
  0
LINE
  5
8F
330
17
100
AcDbEntity
  8
A-AREA-OPEN
100
AcDbLine
 10
3.5794249596277994
 20
3.041016259901804
 30
0.0
 11
3.608060894604537
 21
2.988290713645667
 31
0.0
  0
LINE
  5
90
330
17
100
AcDbEntity
  8
A-AREA-OPEN
100
AcDbLine
 10
3.6366968295812745
 20
2.9355651673895298
 30
0.0
 11
3.665332764558012
 21
2.8828396211333924
 31
0.0
  0
LWPOLYLINE
  5
91
330
17
100
AcDbEntity
  8
A-AREA-OPEN
100
AcDbPolyline
 90
4
 70
1
 10
4.291875
 20
3.301875
 10
8.370000000000001
 20
3.301875
 10
8.370000000000001
 20
8.833124999999999
 10
4.291875
 20
8.833124999999999
  0
LINE
  5
92
330
17
100
AcDbEntity
  8
A-AREA-OPEN
100
AcDbLine
 10
4.291875
 20
3.301875
 30
0.0
 11
4.327480901301742
 21
3.3501680615356966
 31
0.0
  0
LINE
  5
93
330
17
100
AcDbEntity
  8
A-AREA-OPEN
100
AcDbLine
 10
4.363086802603485
 20
3.3984611230713933
 30
0.0
 11
4.398692703905227
 21
3.4467541846070895
 31
0.0
  0
LINE
  5
94
330
17
100
AcDbEntity
  8
A-AREA-OPEN
100
AcDbLine
 10
4.43429860520697
 20
3.495047246142786
 30
0.0
 11
4.469904506508712
 21
3.543340307678483
 31
0.0
  0
LINE
  5
95
330
17
100
AcDbEntity
  8
A-AREA-OPEN
100
AcDbLine
 10
4.505510407810455
 20
3.5916333692141795
 30
0.0
 11
4.541116309112197
 21
3.639926430749876
 31
0.0
  0
LINE
  5
96
330
17
100
AcDbEntity
  8
A-AREA-OPEN
100
AcDbLine
 10
4.576722210413939
 20
3.688219492285573
 30
0.0
 11
4.612328111715682
 21
3.736512553821269
 31
0.0
  0
LINE
  5
97
330
17
100
AcDbEntity
  8
A-AREA-OPEN
100
AcDbLine
 10
4.647934013017424
 20
3.784805615356966
 30
0.0
 11
4.683539914319167
 21
3.8330986768926625
 31
0.0
  0
LINE
  5
98
330
17
100
AcDbEntity
  8
A-AREA-OPEN
100
AcDbLine
 10
4.719145815620909
 20
3.881391738428359
 30
0.0
 11
4.754751716922652
 21
3.929684799964056
 31
0.0
  0
LINE
  5
99
330
17
100
AcDbEntity
  8
A-AREA-OPEN
100
AcDbLine
 10
4.790357618224394
 20
3.9779778614997525
 30
0.0
 11
4.825963519526137
 21
4.026270923035449
 31
0.0
  0
LINE
  5
9A
330
17
100
AcDbEntity
  8
A-AREA-OPEN
100
AcDbLine
 10
4.861569420827879
 20
4.074563984571146
 30
0.0
 11
4.8971753221296215
 21
4.122857046106843
 31
0.0
  0
LINE
  5
9B
330
17
100
AcDbEntity
  8
A-AREA-OPEN
100
AcDbLine
 10
4.9327812234313635
 20
4.171150107642539
 30
0.0
 11
4.968387124733106
 21
4.219443169178236
 31
0.0
  0
LINE
  5
9C
330
17
100
AcDbEntity
  8
A-AREA-OPEN
100
AcDbLine
 10
5.003993026034848
 20
4.267736230713933
 30
0.0
 11
5.039598927336591
 21
4.316029292249629
 31
0.0
  0
LINE
  5
9D
330
17
100
AcDbEntity
  8
A-AREA-OPEN
100
AcDbLine
 10
5.075204828638333
 20
4.364322353785326
 30
0.0
 11
5.110810729940075
 21
4.412615415321023
 31
0.0
  0
LINE
  5
9E
330
17
100
AcDbEntity
  8
A-AREA-OPEN
100
AcDbLine
 10
5.146416631241818
 20
4.460908476856719
 30
0.0
 11
5.182022532543561
 21
4.509201538392416
 31
0.0
  0
LINE
  5
9F
330
17
100
AcDbEntity
  8
A-AREA-OPEN
100
AcDbLine
 10
5.217628433845303
 20
4.557494599928113
 30
0.0
 11
5.253234335147045
 21
4.605787661463809
 31
0.0
  0
LINE
  5
A0
330
17
100
AcDbEntity
  8
A-AREA-OPEN
100
AcDbLine
 10
5.288840236448788
 20
4.654080722999506
 30
0.0
 11
5.32444613775053
 21
4.702373784535203
 31
0.0
  0
LINE
  5
A1
330
17
100
AcDbEntity
  8
A-AREA-OPEN
100
AcDbLine
 10
5.360052039052273
 20
4.750666846070899
 30
0.0
 11
5.395657940354015
 21
4.798959907606596
 31
0.0
  0
LINE
  5
A2
330
17
100
AcDbEntity
  8
A-AREA-OPEN
100
AcDbLine
 10
5.431263841655758
 20
4.847252969142292
 30
0.0
 11
5.4668697429575
 21
4.8955460306779885
 31
0.0
  0
LINE
  5
A3
330
17
100
AcDbEntity
  8
A-AREA-OPEN
100
AcDbLine
 10
5.502475644259243
 20
4.943839092213685
 30
0.0
 11
5.538081545560985
 21
4.992132153749382
 31
0.0
  0
LINE
  5
A4
330
17
100
AcDbEntity
  8
A-AREA-OPEN
100
AcDbLine
 10
5.573687446862728
 20
5.040425215285079
 30
0.0
 11
5.60929334816447
 21
5.088718276820775
 31
0.0
  0
LINE
  5
A5
330
17
100
AcDbEntity
  8
A-AREA-OPEN
100
AcDbLine
 10
5.644899249466212
 20
5.137011338356472
 30
0.0
 11
5.680505150767955
 21
5.185304399892169
 31
0.0
  0
LINE
  5
A6
330
17
100
AcDbEntity
  8
A-AREA-OPEN
100
AcDbLine
 10
5.716111052069698
 20
5.233597461427865
 30
0.0
 11
5.75171695337144
 21
5.281890522963562
 31
0.0
  0
LINE
  5
A7
330
17
100
AcDbEntity
  8
A-AREA-OPEN
100
AcDbLine
 10
6.9018749999999995
 20
6.841875
 30
0.0
 11
6.9374809013017416
 21
6.890168061535697
 31
0.0
  0
LINE
  5
A8
330
17
100
AcDbEntity
  8
A-AREA-OPEN
100
AcDbLine
 10
6.9730868026034845
 20
6.938461123071393
 30
0.0
 11
7.0086927039052265
 21
6.98675418460709
 31
0.0
  0
LINE
  5
A9
330
17
100
AcDbEntity
  8
A-AREA-OPEN
100
AcDbLine
 10
7.044298605206969
 20
7.035047246142787
 30
0.0
 11
7.079904506508711
 21
7.083340307678482
 31
0.0
  0
LINE
  5
AA
330
17
100
AcDbEntity
  8
A-AREA-OPEN
100
AcDbLine
 10
7.115510407810454
 20
7.131633369214179
 30
0.0
 11
7.151116309112196
 21
7.179926430749876
 31
0.0
  0
LINE
  5
AB
330
17
100
AcDbEntity
  8
A-AREA-OPEN
100
AcDbLine
 10
7.186722210413939
 20
7.2282194922855725
 30
0.0
 11
7.222328111715681
 21
7.276512553821269
 31
0.0
  0
LINE
  5
AC
330
17
100
AcDbEntity
  8
A-AREA-OPEN
100
AcDbLine
 10
7.257934013017424
 20
7.324805615356966
 30
0.0
 11
7.293539914319166
 21
7.3730986768926625
 31
0.0
  0
LINE
  5
AD
330
17
100
AcDbEntity
  8
A-AREA-OPEN
100
AcDbLine
 10
7.329145815620909
 20
7.421391738428359
 30
0.0
 11
7.364751716922651
 21
7.469684799964056
 31
0.0
  0
LINE
  5
AE
330
17
100
AcDbEntity
  8
A-AREA-OPEN
100
AcDbLine
 10
7.400357618224394
 20
7.517977861499753
 30
0.0
 11
7.435963519526136
 21
7.566270923035448
 31
0.0
  0
LINE
  5
AF
330
17
100
AcDbEntity
  8
A-AREA-OPEN
100
AcDbLine
 10
7.471569420827879
 20
7.614563984571145
 30
0.0
 11
7.507175322129621
 21
7.662857046106842
 31
0.0
  0
LINE
  5
B0
330
17
100
AcDbEntity
  8
A-AREA-OPEN
100
AcDbLine
 10
7.542781223431364
 20
7.711150107642538
 30
0.0
 11
7.578387124733107
 21
7.759443169178235
 31
0.0
  0
LINE
  5
B1
330
17
100
AcDbEntity
  8
A-AREA-OPEN
100
AcDbLine
 10
7.613993026034849
 20
7.807736230713932
 30
0.0
 11
7.649598927336591
 21
7.856029292249628
 31
0.0
  0
LINE
  5
B2
330
17
100
AcDbEntity
  8
A-AREA-OPEN
100
AcDbLine
 10
7.685204828638334
 20
7.904322353785325
 30
0.0
 11
7.7208107299400766
 21
7.952615415321022
 31
0.0
  0
LINE
  5
B3
330
17
100
AcDbEntity
  8
A-AREA-OPEN
100
AcDbLine
 10
7.756416631241819
 20
8.000908476856718
 30
0.0
 11
7.7920225325435615
 21
8.049201538392415
 31
0.0
  0
LINE
  5
B4
330
17
100
AcDbEntity
  8
A-AREA-OPEN
100
AcDbLine
 10
7.8276284338453035
 20
8.097494599928112
 30
0.0
 11
7.863234335147046
 21
8.145787661463809
 31
0.0
  0
LINE
  5
B5
330
17
100
AcDbEntity
  8
A-AREA-OPEN
100
AcDbLine
 10
7.898840236448788
 20
8.194080722999505
 30
0.0
 11
7.934446137750531
 21
8.242373784535202
 31
0.0
  0
LINE
  5
B6
330
17
100
AcDbEntity
  8
A-AREA-OPEN
100
AcDbLine
 10
7.970052039052273
 20
8.290666846070899
 30
0.0
 11
8.005657940354016
 21
8.338959907606595
 31
0.0
  0
LINE
  5
B7
330
17
100
AcDbEntity
  8
A-AREA-OPEN
100
AcDbLine
 10
8.04126384165576
 20
8.387252969142292
 30
0.0
 11
8.0768697429575
 21
8.435546030677989
 31
0.0
  0
LINE
  5
B8
330
17
100
AcDbEntity
  8
A-AREA-OPEN
100
AcDbLine
 10
8.112475644259243
 20
8.483839092213685
 30
0.0
 11
8.148081545560986
 21
8.532132153749382
 31
0.0
  0
LINE
  5
B9
330
17
100
AcDbEntity
  8
A-AREA-OPEN
100
AcDbLine
 10
8.183687446862729
 20
8.580425215285079
 30
0.0
 11
8.21929334816447
 21
8.628718276820774
 31
0.0
  0
LINE
  5
BA
330
17
100
AcDbEntity
  8
A-AREA-OPEN
100
AcDbLine
 10
8.254899249466213
 20
8.677011338356472
 30
0.0
 11
8.290505150767956
 21
8.725304399892167
 31
0.0
  0
LINE
  5
BB
330
17
100
AcDbEntity
  8
A-AREA-OPEN
100
AcDbLine
 10
8.326111052069699
 20
8.773597461427864
 30
0.0
 11
8.36171695337144
 21
8.82189052296356
 31
0.0
  0
LINE
  5
BC
330
17
100
AcDbEntity
  8
A-AREA-OPEN
100
AcDbLine
 10
4.291875
 20
8.833124999999999
 30
0.0
 11
4.327480901301742
 21
8.784831938464302
 31
0.0
  0
LINE
  5
BD
330
17
100
AcDbEntity
  8
A-AREA-OPEN
100
AcDbLine
 10
4.363086802603485
 20
8.736538876928606
 30
0.0
 11
4.398692703905227
 21
8.688245815392909
 31
0.0
  0
LINE
  5
BE
330
17
100
AcDbEntity
  8
A-AREA-OPEN
100
AcDbLine
 10
4.43429860520697
 20
8.639952753857212
 30
0.0
 11
4.469904506508712
 21
8.591659692321516
 31
0.0
  0
LINE
  5
BF
330
17
100
AcDbEntity
  8
A-AREA-OPEN
100
AcDbLine
 10
4.505510407810455
 20
8.543366630785819
 30
0.0
 11
4.541116309112197
 21
8.495073569250122
 31
0.0
  0
LINE
  5
C0
330
17
100
AcDbEntity
  8
A-AREA-OPEN
100
AcDbLine
 10
4.576722210413939
 20
8.446780507714426
 30
0.0
 11
4.612328111715682
 21
8.398487446178729
 31
0.0
  0
LINE
  5
C1
330
17
100
AcDbEntity
  8
A-AREA-OPEN
100
AcDbLine
 10
4.647934013017425
 20
8.350194384643032
 30
0.0
 11
4.683539914319167
 21
8.301901323107336
 31
0.0
  0
LINE
  5
C2
330
17
100
AcDbEntity
  8
A-AREA-OPEN
100
AcDbLine
 10
4.719145815620909
 20
8.253608261571639
 30
0.0
 11
4.754751716922652
 21
8.205315200035944
 31
0.0
  0
LINE
  5
C3
330
17
100
AcDbEntity
  8
A-AREA-OPEN
100
AcDbLine
 10
4.790357618224394
 20
8.157022138500245
 30
0.0
 11
4.825963519526137
 21
8.10872907696455
 31
0.0
  0
LINE
  5
C4
330
17
100
AcDbEntity
  8
A-AREA-OPEN
100
AcDbLine
 10
4.861569420827879
 20
8.060436015428854
 30
0.0
 11
4.8971753221296215
 21
8.012142953893157
 31
0.0
  0
LINE
  5
C5
330
17
100
AcDbEntity
  8
A-AREA-OPEN
100
AcDbLine
 10
4.9327812234313635
 20
7.96384989235746
 30
0.0
 11
4.968387124733106
 21
7.915556830821763
 31
0.0
  0
LINE
  5
C6
330
17
100
AcDbEntity
  8
A-AREA-OPEN
100
AcDbLine
 10
5.003993026034848
 20
7.867263769286066
 30
0.0
 11
5.039598927336591
 21
7.8189707077503705
 31
0.0
  0
LINE
  5
C7
330
17
100
AcDbEntity
  8
A-AREA-OPEN
100
AcDbLine
 10
5.075204828638333
 20
7.770677646214674
 30
0.0
 11
5.110810729940076
 21
7.722384584678977
 31
0.0
  0
LINE
  5
C8
330
17
100
AcDbEntity
  8
A-AREA-OPEN
100
AcDbLine
 10
5.146416631241818
 20
7.6740915231432805
 30
0.0
 11
5.182022532543561
 21
7.625798461607584
 31
0.0
  0
LINE
  5
C9
330
17
100
AcDbEntity
  8
A-AREA-OPEN
100
AcDbLine
 10
5.217628433845303
 20
7.577505400071887
 30
0.0
 11
5.253234335147046
 21
7.52921233853619
 31
0.0
  0
LINE
  5
CA
330
17
100
AcDbEntity
  8
A-AREA-OPEN
100
AcDbLine
 10
5.288840236448788
 20
7.480919277000494
 30
0.0
 11
5.324446137750531
 21
7.432626215464797
 31
0.0
  0
LINE
  5
CB
330
17
100
AcDbEntity
  8
A-AREA-OPEN
100
AcDbLine
 10
5.360052039052273
 20
7.3843331539291
 30
0.0
 11
5.395657940354015
 21
7.336040092393404
 31
0.0
  0
LINE
  5
CC
330
17
100
AcDbEntity
  8
A-AREA-OPEN
100
AcDbLine
 10
5.431263841655758
 20
7.287747030857707
 30
0.0
 11
5.466869742957501
 21
7.23945396932201
 31
0.0
  0
LINE
  5
CD
330
17
100
AcDbEntity
  8
A-AREA-OPEN
100
AcDbLine
 10
5.502475644259243
 20
7.191160907786314
 30
0.0
 11
5.538081545560985
 21
7.142867846250617
 31
0.0
  0
LINE
  5
CE
330
17
100
AcDbEntity
  8
A-AREA-OPEN
100
AcDbLine
 10
5.573687446862728
 20
7.09457478471492
 30
0.0
 11
5.609293348164471
 21
7.046281723179224
 31
0.0
  0
LINE
  5
CF
330
17
100
AcDbEntity
  8
A-AREA-OPEN
100
AcDbLine
 10
5.644899249466213
 20
6.997988661643527
 30
0.0
 11
5.680505150767955
 21
6.94969560010783
 31
0.0
  0
LINE
  5
D0
330
17
100
AcDbEntity
  8
A-AREA-OPEN
100
AcDbLine
 10
5.716111052069698
 20
6.901402538572134
 30
0.0
 11
5.75171695337144
 21
6.853109477036437
 31
0.0
  0
LINE
  5
D1
330
17
100
AcDbEntity
  8
A-AREA-OPEN
100
AcDbLine
 10
6.9018749999999995
 20
5.293125
 30
0.0
 11
6.9374809013017416
 21
5.244831938464303
 31
0.0
  0
LINE
  5
D2
330
17
100
AcDbEntity
  8
A-AREA-OPEN
100
AcDbLine
 10
6.9730868026034845
 20
5.1965388769286065
 30
0.0
 11
7.0086927039052265
 21
5.14824581539291
 31
0.0
  0
LINE
  5
D3
330
17
100
AcDbEntity
  8
A-AREA-OPEN
100
AcDbLine
 10
7.044298605206969
 20
5.099952753857213
 30
0.0
 11
7.079904506508711
 21
5.051659692321517
 31
0.0
  0
LINE
  5
D4
330
17
100
AcDbEntity
  8
A-AREA-OPEN
100
AcDbLine
 10
7.115510407810454
 20
5.003366630785821
 30
0.0
 11
7.151116309112196
 21
4.955073569250124
 31
0.0
  0
LINE
  5
D5
330
17
100
AcDbEntity
  8
A-AREA-OPEN
100
AcDbLine
 10
7.186722210413939
 20
4.906780507714427
 30
0.0
 11
7.222328111715681
 21
4.858487446178731
 31
0.0
  0
LINE
  5
D6
330
17
100
AcDbEntity
  8
A-AREA-OPEN
100
AcDbLine
 10
7.257934013017424
 20
4.810194384643034
 30
0.0
 11
7.293539914319166
 21
4.761901323107337
 31
0.0
  0
LINE
  5
D7
330
17
100
AcDbEntity
  8
A-AREA-OPEN
100
AcDbLine
 10
7.329145815620909
 20
4.713608261571641
 30
0.0
 11
7.364751716922651
 21
4.665315200035944
 31
0.0
  0
LINE
  5
D8
330
17
100
AcDbEntity
  8
A-AREA-OPEN
100
AcDbLine
 10
7.400357618224394
 20
4.617022138500247
 30
0.0
 11
7.435963519526136
 21
4.5687290769645506
 31
0.0
  0
LINE
  5
D9
330
17
100
AcDbEntity
  8
A-AREA-OPEN
100
AcDbLine
 10
7.471569420827879
 20
4.520436015428854
 30
0.0
 11
7.507175322129621
 21
4.472142953893158
 31
0.0
  0
LINE
  5
DA
330
17
100
AcDbEntity
  8
A-AREA-OPEN
100
AcDbLine
 10
7.542781223431364
 20
4.423849892357461
 30
0.0
 11
7.578387124733106
 21
4.375556830821765
 31
0.0
  0
LINE
  5
DB
330
17
100
AcDbEntity
  8
A-AREA-OPEN
100
AcDbLine
 10
7.613993026034849
 20
4.327263769286068
 30
0.0
 11
7.649598927336591
 21
4.278970707750371
 31
0.0
  0
LINE
  5
DC
330
17
100
AcDbEntity
  8
A-AREA-OPEN
100
AcDbLine
 10
7.685204828638334
 20
4.230677646214675
 30
0.0
 11
7.720810729940076
 21
4.182384584678978
 31
0.0
  0
LINE
  5
DD
330
17
100
AcDbEntity
  8
A-AREA-OPEN
100
AcDbLine
 10
7.756416631241819
 20
4.134091523143281
 30
0.0
 11
7.792022532543561
 21
4.085798461607585
 31
0.0
  0
LINE
  5
DE
330
17
100
AcDbEntity
  8
A-AREA-OPEN
100
AcDbLine
 10
7.8276284338453035
 20
4.037505400071888
 30
0.0
 11
7.8632343351470455
 21
3.9892123385361913
 31
0.0
  0
LINE
  5
DF
330
17
100
AcDbEntity
  8
A-AREA-OPEN
100
AcDbLine
 10
7.898840236448788
 20
3.9409192770004946
 30
0.0
 11
7.93444613775053
 21
3.892626215464798
 31
0.0
  0
LINE
  5
E0
330
17
100
AcDbEntity
  8
A-AREA-OPEN
100
AcDbLine
 10
7.970052039052273
 20
3.8443331539291012
 30
0.0
 11
8.005657940354016
 21
3.7960400923934046
 31
0.0
  0
LINE
  5
E1
330
17
100
AcDbEntity
  8
A-AREA-OPEN
100
AcDbLine
 10
8.041263841655757
 20
3.7477470308577083
 30
0.0
 11
8.0768697429575
 21
3.6994539693220116
 31
0.0
  0
LINE
  5
E2
330
17
100
AcDbEntity
  8
A-AREA-OPEN
100
AcDbLine
 10
8.112475644259243
 20
3.651160907786315
 30
0.0
 11
8.148081545560986
 21
3.6028678462506183
 31
0.0
  0
LINE
  5
E3
330
17
100
AcDbEntity
  8
A-AREA-OPEN
100
AcDbLine
 10
8.183687446862727
 20
3.5545747847149216
 30
0.0
 11
8.21929334816447
 21
3.5062817231792254
 31
0.0
  0
LINE
  5
E4
330
17
100
AcDbEntity
  8
A-AREA-OPEN
100
AcDbLine
 10
8.254899249466213
 20
3.4579886616435287
 30
0.0
 11
8.290505150767956
 21
3.409695600107832
 31
0.0
  0
LINE
  5
E5
330
17
100
AcDbEntity
  8
A-AREA-OPEN
100
AcDbLine
 10
8.326111052069697
 20
3.3614025385721353
 30
0.0
 11
8.36171695337144
 21
3.3131094770364387
 31
0.0
  0
LINE
  5
E6
330
17
100
AcDbEntity
  8
A-AREA-OPEN
100
AcDbLine
 10
4.291875
 20
3.8175
 30
0.0
 11
4.341875
 21
3.8175
 31
0.0
  0
LINE
  5
E7
330
17
100
AcDbEntity
  8
A-AREA-OPEN
100
AcDbLine
 10
4.391875
 20
3.8175
 30
0.0
 11
4.4418750000000005
 21
3.8175
 31
0.0
  0
LINE
  5
E8
330
17
100
AcDbEntity
  8
A-AREA-OPEN
100
AcDbLine
 10
4.491875
 20
3.8175
 30
0.0
 11
4.541875
 21
3.8175
 31
0.0
  0
LINE
  5
E9
330
17
100
AcDbEntity
  8
A-AREA-OPEN
100
AcDbLine
 10
4.591875
 20
3.8175
 30
0.0
 11
4.641875
 21
3.8175
 31
0.0
  0
LINE
  5
EA
330
17
100
AcDbEntity
  8
A-AREA-OPEN
100
AcDbLine
 10
4.6918750000000005
 20
3.8175
 30
0.0
 11
4.741875
 21
3.8175
 31
0.0
  0
LINE
  5
EB
330
17
100
AcDbEntity
  8
A-AREA-OPEN
100
AcDbLine
 10
4.791875
 20
3.8175
 30
0.0
 11
4.841875
 21
3.8175
 31
0.0
  0
LINE
  5
EC
330
17
100
AcDbEntity
  8
A-AREA-OPEN
100
AcDbLine
 10
4.891875
 20
3.8175
 30
0.0
 11
4.9418750000000005
 21
3.8175
 31
0.0
  0
LINE
  5
ED
330
17
100
AcDbEntity
  8
A-AREA-OPEN
100
AcDbLine
 10
4.991875
 20
3.8175
 30
0.0
 11
5.041875
 21
3.8175
 31
0.0
  0
LINE
  5
EE
330
17
100
AcDbEntity
  8
A-AREA-OPEN
100
AcDbLine
 10
5.091875
 20
3.8175
 30
0.0
 11
5.141875000000001
 21
3.8175
 31
0.0
  0
LINE
  5
EF
330
17
100
AcDbEntity
  8
A-AREA-OPEN
100
AcDbLine
 10
5.1918750000000005
 20
3.8175
 30
0.0
 11
5.241875
 21
3.8175
 31
0.0
  0
LINE
  5
F0
330
17
100
AcDbEntity
  8
A-AREA-OPEN
100
AcDbLine
 10
5.291875
 20
3.8175
 30
0.0
 11
5.341875
 21
3.8175
 31
0.0
  0
LINE
  5
F1
330
17
100
AcDbEntity
  8
A-AREA-OPEN
100
AcDbLine
 10
5.391875000000001
 20
3.8175
 30
0.0
 11
5.4418750000000005
 21
3.8175
 31
0.0
  0
LINE
  5
F2
330
17
100
AcDbEntity
  8
A-AREA-OPEN
100
AcDbLine
 10
5.491875
 20
3.8175
 30
0.0
 11
5.541875000000001
 21
3.8175
 31
0.0
  0
LINE
  5
F3
330
17
100
AcDbEntity
  8
A-AREA-OPEN
100
AcDbLine
 10
5.591875000000001
 20
3.8175
 30
0.0
 11
5.641875000000001
 21
3.8175
 31
0.0
  0
LINE
  5
F4
330
17
100
AcDbEntity
  8
A-AREA-OPEN
100
AcDbLine
 10
5.6918750000000005
 20
3.8175
 30
0.0
 11
5.741875
 21
3.8175
 31
0.0
  0
LINE
  5
F5
330
17
100
AcDbEntity
  8
A-AREA-OPEN
100
AcDbLine
 10
5.791875000000001
 20
3.8175
 30
0.0
 11
5.841875000000001
 21
3.8175
 31
0.0
  0
LINE
  5
F6
330
17
100
AcDbEntity
  8
A-AREA-OPEN
100
AcDbLine
 10
5.891875000000001
 20
3.8175
 30
0.0
 11
5.941875000000001
 21
3.8175
 31
0.0
  0
LINE
  5
F7
330
17
100
AcDbEntity
  8
A-AREA-OPEN
100
AcDbLine
 10
5.991875000000001
 20
3.8175
 30
0.0
 11
6.041875000000001
 21
3.8175
 31
0.0
  0
LINE
  5
F8
330
17
100
AcDbEntity
  8
A-AREA-OPEN
100
AcDbLine
 10
6.091875000000001
 20
3.8175
 30
0.0
 11
6.141875000000001
 21
3.8175
 31
0.0
  0
LINE
  5
F9
330
17
100
AcDbEntity
  8
A-AREA-OPEN
100
AcDbLine
 10
6.191875000000001
 20
3.8175
 30
0.0
 11
6.241875000000001
 21
3.8175
 31
0.0
  0
LINE
  5
FA
330
17
100
AcDbEntity
  8
A-AREA-OPEN
100
AcDbLine
 10
6.291875000000001
 20
3.8175
 30
0.0
 11
6.341875000000001
 21
3.8175
 31
0.0
  0
LINE
  5
FB
330
17
100
AcDbEntity
  8
A-AREA-OPEN
100
AcDbLine
 10
6.391875000000001
 20
3.8175
 30
0.0
 11
6.4418750000000005
 21
3.8175
 31
0.0
  0
LINE
  5
FC
330
17
100
AcDbEntity
  8
A-AREA-OPEN
100
AcDbLine
 10
6.491875
 20
3.8175
 30
0.0
 11
6.541875
 21
3.8175
 31
0.0
  0
LINE
  5
FD
330
17
100
AcDbEntity
  8
A-AREA-OPEN
100
AcDbLine
 10
6.591875
 20
3.8175
 30
0.0
 11
6.641875
 21
3.8175
 31
0.0
  0
LINE
  5
FE
330
17
100
AcDbEntity
  8
A-AREA-OPEN
100
AcDbLine
 10
6.691875
 20
3.8175
 30
0.0
 11
6.741874999999999
 21
3.8175
 31
0.0
  0
LINE
  5
FF
330
17
100
AcDbEntity
  8
A-AREA-OPEN
100
AcDbLine
 10
6.791874999999999
 20
3.8175
 30
0.0
 11
6.841874999999999
 21
3.8175
 31
0.0
  0
LINE
  5
100
330
17
100
AcDbEntity
  8
A-AREA-OPEN
100
AcDbLine
 10
6.891874999999999
 20
3.8175
 30
0.0
 11
6.941874999999999
 21
3.8175
 31
0.0
  0
LINE
  5
101
330
17
100
AcDbEntity
  8
A-AREA-OPEN
100
AcDbLine
 10
6.9918749999999985
 20
3.8175
 30
0.0
 11
7.041874999999998
 21
3.8175
 31
0.0
  0
LINE
  5
102
330
17
100
AcDbEntity
  8
A-AREA-OPEN
100
AcDbLine
 10
7.091874999999998
 20
3.8175
 30
0.0
 11
7.141874999999998
 21
3.8175
 31
0.0
  0
LINE
  5
103
330
17
100
AcDbEntity
  8
A-AREA-OPEN
100
AcDbLine
 10
7.191874999999998
 20
3.8175
 30
0.0
 11
7.241874999999998
 21
3.8175
 31
0.0
  0
LINE
  5
104
330
17
100
AcDbEntity
  8
A-AREA-OPEN
100
AcDbLine
 10
7.291874999999997
 20
3.8175
 30
0.0
 11
7.341874999999997
 21
3.8175
 31
0.0
  0
LINE
  5
105
330
17
100
AcDbEntity
  8
A-AREA-OPEN
100
AcDbLine
 10
7.391874999999997
 20
3.8175
 30
0.0
 11
7.441874999999997
 21
3.8175
 31
0.0
  0
LINE
  5
106
330
17
100
AcDbEntity
  8
A-AREA-OPEN
100
AcDbLine
 10
7.491874999999997
 20
3.8175
 30
0.0
 11
7.5418749999999966
 21
3.8175
 31
0.0
  0
LINE
  5
107
330
17
100
AcDbEntity
  8
A-AREA-OPEN
100
AcDbLine
 10
7.591874999999996
 20
3.8175
 30
0.0
 11
7.641874999999996
 21
3.8175
 31
0.0
  0
LINE
  5
108
330
17
100
AcDbEntity
  8
A-AREA-OPEN
100
AcDbLine
 10
7.691874999999996
 20
3.8175
 30
0.0
 11
7.741874999999996
 21
3.8175
 31
0.0
  0
LINE
  5
109
330
17
100
AcDbEntity
  8
A-AREA-OPEN
100
AcDbLine
 10
7.791874999999996
 20
3.8175
 30
0.0
 11
7.8418749999999955
 21
3.8175
 31
0.0
  0
LINE
  5
10A
330
17
100
AcDbEntity
  8
A-AREA-OPEN
100
AcDbLine
 10
7.854375
 20
3.8175
 30
0.0
 11
7.854375
 21
3.8674999999999997
 31
0.0
  0
LINE
  5
10B
330
17
100
AcDbEntity
  8
A-AREA-OPEN
100
AcDbLine
 10
7.854375
 20
3.9175
 30
0.0
 11
7.854375
 21
3.9675
 31
0.0
  0
LINE
  5
10C
330
17
100
AcDbEntity
  8
A-AREA-OPEN
100
AcDbLine
 10
7.854375
 20
4.0175
 30
0.0
 11
7.854375
 21
4.0675
 31
0.0
  0
LINE
  5
10D
330
17
100
AcDbEntity
  8
A-AREA-OPEN
100
AcDbLine
 10
7.854375
 20
4.1175
 30
0.0
 11
7.854375
 21
4.1674999999999995
 31
0.0
  0
LINE
  5
10E
330
17
100
AcDbEntity
  8
A-AREA-OPEN
100
AcDbLine
 10
7.854375
 20
4.2175
 30
0.0
 11
7.854375
 21
4.2675
 31
0.0
  0
LINE
  5
10F
330
17
100
AcDbEntity
  8
A-AREA-OPEN
100
AcDbLine
 10
7.854375
 20
4.3175
 30
0.0
 11
7.854375
 21
4.3675
 31
0.0
  0
LINE
  5
110
330
17
100
AcDbEntity
  8
A-AREA-OPEN
100
AcDbLine
 10
7.854375
 20
4.4174999999999995
 30
0.0
 11
7.854375
 21
4.4675
 31
0.0
  0
LINE
  5
111
330
17
100
AcDbEntity
  8
A-AREA-OPEN
100
AcDbLine
 10
7.854375
 20
4.5175
 30
0.0
 11
7.854375
 21
4.5675
 31
0.0
  0
LINE
  5
112
330
17
100
AcDbEntity
  8
A-AREA-OPEN
100
AcDbLine
 10
7.854375
 20
4.6175
 30
0.0
 11
7.854375
 21
4.6675
 31
0.0
  0
LINE
  5
113
330
17
100
AcDbEntity
  8
A-AREA-OPEN
100
AcDbLine
 10
7.854375
 20
4.7175
 30
0.0
 11
7.854375
 21
4.7675
 31
0.0
  0
LINE
  5
114
330
17
100
AcDbEntity
  8
A-AREA-OPEN
100
AcDbLine
 10
7.854375
 20
4.8175
 30
0.0
 11
7.854375
 21
4.8675
 31
0.0
  0
LINE
  5
115
330
17
100
AcDbEntity
  8
A-AREA-OPEN
100
AcDbLine
 10
7.854375
 20
4.9175
 30
0.0
 11
7.854375
 21
4.9675
 31
0.0
  0
LINE
  5
116
330
17
100
AcDbEntity
  8
A-AREA-OPEN
100
AcDbLine
 10
7.854375
 20
5.0175
 30
0.0
 11
7.854375
 21
5.067500000000001
 31
0.0
  0
LINE
  5
117
330
17
100
AcDbEntity
  8
A-AREA-OPEN
100
AcDbLine
 10
7.854375
 20
5.117500000000001
 30
0.0
 11
7.854375
 21
5.1675
 31
0.0
  0
LINE
  5
118
330
17
100
AcDbEntity
  8
A-AREA-OPEN
100
AcDbLine
 10
7.854375
 20
5.2175
 30
0.0
 11
7.854375
 21
5.2675
 31
0.0
  0
LINE
  5
119
330
17
100
AcDbEntity
  8
A-AREA-OPEN
100
AcDbLine
 10
7.854375
 20
5.317500000000001
 30
0.0
 11
7.854375
 21
5.367500000000001
 31
0.0
  0
LINE
  5
11A
330
17
100
AcDbEntity
  8
A-AREA-OPEN
100
AcDbLine
 10
7.854375
 20
5.4175
 30
0.0
 11
7.854375
 21
5.467500000000001
 31
0.0
  0
LINE
  5
11B
330
17
100
AcDbEntity
  8
A-AREA-OPEN
100
AcDbLine
 10
7.854375
 20
5.517500000000001
 30
0.0
 11
7.854375
 21
5.567500000000001
 31
0.0
  0
LINE
  5
11C
330
17
100
AcDbEntity
  8
A-AREA-OPEN
100
AcDbLine
 10
7.854375
 20
5.617500000000001
 30
0.0
 11
7.854375
 21
5.6675
 31
0.0
  0
LINE
  5
11D
330
17
100
AcDbEntity
  8
A-AREA-OPEN
100
AcDbLine
 10
7.854375
 20
5.717500000000001
 30
0.0
 11
7.854375
 21
5.767500000000001
 31
0.0
  0
LINE
  5
11E
330
17
100
AcDbEntity
  8
A-AREA-OPEN
100
AcDbLine
 10
7.854375
 20
5.817500000000001
 30
0.0
 11
7.854375
 21
5.867500000000001
 31
0.0
  0
LINE
  5
11F
330
17
100
AcDbEntity
  8
A-AREA-OPEN
100
AcDbLine
 10
7.854375
 20
5.9175
 30
0.0
 11
7.854375
 21
5.9675
 31
0.0
  0
LINE
  5
120
330
17
100
AcDbEntity
  8
A-AREA-OPEN
100
AcDbLine
 10
7.854375
 20
6.0175
 30
0.0
 11
7.854375
 21
6.0675
 31
0.0
  0
LINE
  5
121
330
17
100
AcDbEntity
  8
A-AREA-OPEN
100
AcDbLine
 10
7.854375
 20
6.1175
 30
0.0
 11
7.854375
 21
6.1674999999999995
 31
0.0
  0
LINE
  5
122
330
17
100
AcDbEntity
  8
A-AREA-OPEN
100
AcDbLine
 10
7.854375
 20
6.217499999999999
 30
0.0
 11
7.854375
 21
6.267499999999999
 31
0.0
  0
LINE
  5
123
330
17
100
AcDbEntity
  8
A-AREA-OPEN
100
AcDbLine
 10
7.854375
 20
6.317499999999999
 30
0.0
 11
7.854375
 21
6.367499999999999
 31
0.0
  0
LINE
  5
124
330
17
100
AcDbEntity
  8
A-AREA-OPEN
100
AcDbLine
 10
7.854375
 20
6.417499999999999
 30
0.0
 11
7.854375
 21
6.4674999999999985
 31
0.0
  0
LINE
  5
125
330
17
100
AcDbEntity
  8
A-AREA-OPEN
100
AcDbLine
 10
7.854375
 20
6.517499999999998
 30
0.0
 11
7.854375
 21
6.567499999999998
 31
0.0
  0
LINE
  5
126
330
17
100
AcDbEntity
  8
A-AREA-OPEN
100
AcDbLine
 10
7.854375
 20
6.617499999999998
 30
0.0
 11
7.854375
 21
6.667499999999998
 31
0.0
  0
LINE
  5
127
330
17
100
AcDbEntity
  8
A-AREA-OPEN
100
AcDbLine
 10
7.854375
 20
6.717499999999998
 30
0.0
 11
7.854375
 21
6.767499999999997
 31
0.0
  0
LINE
  5
128
330
17
100
AcDbEntity
  8
A-AREA-OPEN
100
AcDbLine
 10
7.854375
 20
6.817499999999997
 30
0.0
 11
7.854375
 21
6.867499999999997
 31
0.0
  0
LINE
  5
129
330
17
100
AcDbEntity
  8
A-AREA-OPEN
100
AcDbLine
 10
7.854375
 20
6.917499999999997
 30
0.0
 11
7.854375
 21
6.967499999999997
 31
0.0
  0
LINE
  5
12A
330
17
100
AcDbEntity
  8
A-AREA-OPEN
100
AcDbLine
 10
7.854375
 20
7.0174999999999965
 30
0.0
 11
7.854375
 21
7.067499999999996
 31
0.0
  0
LINE
  5
12B
330
17
100
AcDbEntity
  8
A-AREA-OPEN
100
AcDbLine
 10
7.854375
 20
7.117499999999996
 30
0.0
 11
7.854375
 21
7.167499999999996
 31
0.0
  0
LINE
  5
12C
330
17
100
AcDbEntity
  8
A-AREA-OPEN
100
AcDbLine
 10
7.854375
 20
7.217499999999996
 30
0.0
 11
7.854375
 21
7.267499999999996
 31
0.0
  0
LINE
  5
12D
330
17
100
AcDbEntity
  8
A-AREA-OPEN
100
AcDbLine
 10
7.854375
 20
7.3174999999999955
 30
0.0
 11
7.854375
 21
7.367499999999995
 31
0.0
  0
LINE
  5
12E
330
17
100
AcDbEntity
  8
A-AREA-OPEN
100
AcDbLine
 10
7.854375
 20
7.417499999999995
 30
0.0
 11
7.854375
 21
7.467499999999995
 31
0.0
  0
LINE
  5
12F
330
17
100
AcDbEntity
  8
A-AREA-OPEN
100
AcDbLine
 10
7.854375
 20
7.517499999999995
 30
0.0
 11
7.854375
 21
7.567499999999995
 31
0.0
  0
LINE
  5
130
330
17
100
AcDbEntity
  8
A-AREA-OPEN
100
AcDbLine
 10
7.854375
 20
7.617499999999994
 30
0.0
 11
7.854375
 21
7.667499999999994
 31
0.0
  0
LINE
  5
131
330
17
100
AcDbEntity
  8
A-AREA-OPEN
100
AcDbLine
 10
7.854375
 20
7.717499999999994
 30
0.0
 11
7.854375
 21
7.767499999999994
 31
0.0
  0
LINE
  5
132
330
17
100
AcDbEntity
  8
A-AREA-OPEN
100
AcDbLine
 10
7.854375
 20
7.817499999999994
 30
0.0
 11
7.854375
 21
7.8674999999999935
 31
0.0
  0
LINE
  5
133
330
17
100
AcDbEntity
  8
A-AREA-OPEN
100
AcDbLine
 10
7.854375
 20
7.917499999999993
 30
0.0
 11
7.854375
 21
7.967499999999993
 31
0.0
  0
LINE
  5
134
330
17
100
AcDbEntity
  8
A-AREA-OPEN
100
AcDbLine
 10
7.854375
 20
8.017499999999993
 30
0.0
 11
7.854375
 21
8.067499999999992
 31
0.0
  0
LINE
  5
135
330
17
100
AcDbEntity
  8
A-AREA-OPEN
100
AcDbLine
 10
7.854375
 20
8.117499999999993
 30
0.0
 11
7.854375
 21
8.167499999999993
 31
0.0
  0
LINE
  5
136
330
17
100
AcDbEntity
  8
A-AREA-OPEN
100
AcDbLine
 10
7.854375
 20
8.217499999999992
 30
0.0
 11
7.854375
 21
8.267499999999991
 31
0.0
  0
LINE
  5
137
330
17
100
AcDbEntity
  8
A-AREA-OPEN
100
AcDbLine
 10
7.854375
 20
8.317499999999992
 30
0.0
 11
7.854375
 21
8.317499999999999
 31
0.0
  0
LINE
  5
138
330
17
100
AcDbEntity
  8
A-AREA-OPEN
100
AcDbLine
 10
7.854375
 20
8.317499999999999
 30
0.0
 11
7.804375
 21
8.317499999999999
 31
0.0
  0
LINE
  5
139
330
17
100
AcDbEntity
  8
A-AREA-OPEN
100
AcDbLine
 10
7.7543750000000005
 20
8.317499999999999
 30
0.0
 11
7.704375
 21
8.317499999999999
 31
0.0
  0
LINE
  5
13A
330
17
100
AcDbEntity
  8
A-AREA-OPEN
100
AcDbLine
 10
7.654375
 20
8.317499999999999
 30
0.0
 11
7.604375
 21
8.317499999999999
 31
0.0
  0
LINE
  5
13B
330
17
100
AcDbEntity
  8
A-AREA-OPEN
100
AcDbLine
 10
7.554375
 20
8.317499999999999
 30
0.0
 11
7.5043750000000005
 21
8.317499999999999
 31
0.0
  0
LINE
  5
13C
330
17
100
AcDbEntity
  8
A-AREA-OPEN
100
AcDbLine
 10
7.454375
 20
8.317499999999999
 30
0.0
 11
7.404375
 21
8.317499999999999
 31
0.0
  0
LINE
  5
13D
330
17
100
AcDbEntity
  8
A-AREA-OPEN
100
AcDbLine
 10
7.354375
 20
8.317499999999999
 30
0.0
 11
7.304375
 21
8.317499999999999
 31
0.0
  0
LINE
  5
13E
330
17
100
AcDbEntity
  8
A-AREA-OPEN
100
AcDbLine
 10
7.2543750000000005
 20
8.317499999999999
 30
0.0
 11
7.204375
 21
8.317499999999999
 31
0.0
  0
LINE
  5
13F
330
17
100
AcDbEntity
  8
A-AREA-OPEN
100
AcDbLine
 10
7.154375
 20
8.317499999999999
 30
0.0
 11
7.104375
 21
8.317499999999999
 31
0.0
  0
LINE
  5
140
330
17
100
AcDbEntity
  8
A-AREA-OPEN
100
AcDbLine
 10
7.054375
 20
8.317499999999999
 30
0.0
 11
7.004375
 21
8.317499999999999
 31
0.0
  0
LINE
  5
141
330
17
100
AcDbEntity
  8
A-AREA-OPEN
100
AcDbLine
 10
6.954375
 20
8.317499999999999
 30
0.0
 11
6.904375
 21
8.317499999999999
 31
0.0
  0
LINE
  5
142
330
17
100
AcDbEntity
  8
A-AREA-OPEN
100
AcDbLine
 10
6.854375
 20
8.317499999999999
 30
0.0
 11
6.804375
 21
8.317499999999999
 31
0.0
  0
LINE
  5
143
330
17
100
AcDbEntity
  8
A-AREA-OPEN
100
AcDbLine
 10
6.754375
 20
8.317499999999999
 30
0.0
 11
6.704375
 21
8.317499999999999
 31
0.0
  0
LINE
  5
144
330
17
100
AcDbEntity
  8
A-AREA-OPEN
100
AcDbLine
 10
6.654375
 20
8.317499999999999
 30
0.0
 11
6.604374999999999
 21
8.317499999999999
 31
0.0
  0
LINE
  5
145
330
17
100
AcDbEntity
  8
A-AREA-OPEN
100
AcDbLine
 10
6.554374999999999
 20
8.317499999999999
 30
0.0
 11
6.504375
 21
8.317499999999999
 31
0.0
  0
LINE
  5
146
330
17
100
AcDbEntity
  8
A-AREA-OPEN
100
AcDbLine
 10
6.454375
 20
8.317499999999999
 30
0.0
 11
6.404375
 21
8.317499999999999
 31
0.0
  0
LINE
  5
147
330
17
100
AcDbEntity
  8
A-AREA-OPEN
100
AcDbLine
 10
6.354374999999999
 20
8.317499999999999
 30
0.0
 11
6.304374999999999
 21
8.317499999999999
 31
0.0
  0
LINE
  5
148
330
17
100
AcDbEntity
  8
A-AREA-OPEN
100
AcDbLine
 10
6.254375
 20
8.317499999999999
 30
0.0
 11
6.204374999999999
 21
8.317499999999999
 31
0.0
  0
LINE
  5
149
330
17
100
AcDbEntity
  8
A-AREA-OPEN
100
AcDbLine
 10
6.154374999999999
 20
8.317499999999999
 30
0.0
 11
6.104374999999999
 21
8.317499999999999
 31
0.0
  0
LINE
  5
14A
330
17
100
AcDbEntity
  8
A-AREA-OPEN
100
AcDbLine
 10
6.054374999999999
 20
8.317499999999999
 30
0.0
 11
6.004375
 21
8.317499999999999
 31
0.0
  0
LINE
  5
14B
330
17
100
AcDbEntity
  8
A-AREA-OPEN
100
AcDbLine
 10
5.954374999999999
 20
8.317499999999999
 30
0.0
 11
5.904374999999999
 21
8.317499999999999
 31
0.0
  0
LINE
  5
14C
330
17
100
AcDbEntity
  8
A-AREA-OPEN
100
AcDbLine
 10
5.854374999999999
 20
8.317499999999999
 30
0.0
 11
5.804374999999999
 21
8.317499999999999
 31
0.0
  0
LINE
  5
14D
330
17
100
AcDbEntity
  8
A-AREA-OPEN
100
AcDbLine
 10
5.754375
 20
8.317499999999999
 30
0.0
 11
5.704375
 21
8.317499999999999
 31
0.0
  0
LINE
  5
14E
330
17
100
AcDbEntity
  8
A-AREA-OPEN
100
AcDbLine
 10
5.654375
 20
8.317499999999999
 30
0.0
 11
5.604375
 21
8.317499999999999
 31
0.0
  0
LINE
  5
14F
330
17
100
AcDbEntity
  8
A-AREA-OPEN
100
AcDbLine
 10
5.554375
 20
8.317499999999999
 30
0.0
 11
5.5043750000000005
 21
8.317499999999999
 31
0.0
  0
LINE
  5
150
330
17
100
AcDbEntity
  8
A-AREA-OPEN
100
AcDbLine
 10
5.454375000000001
 20
8.317499999999999
 30
0.0
 11
5.404375000000001
 21
8.317499999999999
 31
0.0
  0
LINE
  5
151
330
17
100
AcDbEntity
  8
A-AREA-OPEN
100
AcDbLine
 10
5.354375000000001
 20
8.317499999999999
 30
0.0
 11
5.304375000000001
 21
8.317499999999999
 31
0.0
  0
LINE
  5
152
330
17
100
AcDbEntity
  8
A-AREA-OPEN
100
AcDbLine
 10
5.254375000000001
 20
8.317499999999999
 30
0.0
 11
5.2043750000000015
 21
8.317499999999999
 31
0.0
  0
LINE
  5
153
330
17
100
AcDbEntity
  8
A-AREA-OPEN
100
AcDbLine
 10
5.154375000000002
 20
8.317499999999999
 30
0.0
 11
5.104375000000002
 21
8.317499999999999
 31
0.0
  0
LINE
  5
154
330
17
100
AcDbEntity
  8
A-AREA-OPEN
100
AcDbLine
 10
5.054375000000002
 20
8.317499999999999
 30
0.0
 11
5.004375000000002
 21
8.317499999999999
 31
0.0
  0
LINE
  5
155
330
17
100
AcDbEntity
  8
A-AREA-OPEN
100
AcDbLine
 10
4.954375000000002
 20
8.317499999999999
 30
0.0
 11
4.904375000000003
 21
8.317499999999999
 31
0.0
  0
LINE
  5
156
330
17
100
AcDbEntity
  8
A-AREA-OPEN
100
AcDbLine
 10
4.854375000000003
 20
8.317499999999999
 30
0.0
 11
4.804375000000003
 21
8.317499999999999
 31
0.0
  0
LINE
  5
157
330
17
100
AcDbEntity
  8
A-AREA-OPEN
100
AcDbLine
 10
4.754375000000003
 20
8.317499999999999
 30
0.0
 11
4.704375000000003
 21
8.317499999999999
 31
0.0
  0
LINE
  5
158
330
17
100
AcDbEntity
  8
A-AREA-OPEN
100
AcDbLine
 10
4.6543750000000035
 20
8.317499999999999
 30
0.0
 11
4.604375000000004
 21
8.317499999999999
 31
0.0
  0
LINE
  5
159
330
17
100
AcDbEntity
  8
A-AREA-OPEN
100
AcDbLine
 10
4.554375000000004
 20
8.317499999999999
 30
0.0
 11
4.504375000000004
 21
8.317499999999999
 31
0.0
  0
LINE
  5
15A
330
17
100
AcDbEntity
  8
A-AREA-OPEN
100
AcDbLine
 10
4.454375000000004
 20
8.317499999999999
 30
0.0
 11
4.404375000000004
 21
8.317499999999999
 31
0.0
  0
LINE
  5
15B
330
17
100
AcDbEntity
  8
A-AREA-OPEN
100
AcDbLine
 10
4.3543750000000045
 20
8.317499999999999
 30
0.0
 11
4.304375000000005
 21
8.317499999999999
 31
0.0
  0
LINE
  5
15C
330
17
100
AcDbEntity
  8
A-AREA-OPEN
100
AcDbLine
 10
4.291875
 20
8.317499999999999
 30
0.0
 11
4.291875
 21
8.267499999999998
 31
0.0
  0
LINE
  5
15D
330
17
100
AcDbEntity
  8
A-AREA-OPEN
100
AcDbLine
 10
4.291875
 20
8.2175
 30
0.0
 11
4.291875
 21
8.167499999999999
 31
0.0
  0
LINE
  5
15E
330
17
100
AcDbEntity
  8
A-AREA-OPEN
100
AcDbLine
 10
4.291875
 20
8.1175
 30
0.0
 11
4.291875
 21
8.067499999999999
 31
0.0
  0
LINE
  5
15F
330
17
100
AcDbEntity
  8
A-AREA-OPEN
100
AcDbLine
 10
4.291875
 20
8.017499999999998
 30
0.0
 11
4.291875
 21
7.967499999999999
 31
0.0
  0
LINE
  5
160
330
17
100
AcDbEntity
  8
A-AREA-OPEN
100
AcDbLine
 10
4.291875
 20
7.917499999999999
 30
0.0
 11
4.291875
 21
7.867499999999999
 31
0.0
  0
LINE
  5
161
330
17
100
AcDbEntity
  8
A-AREA-OPEN
100
AcDbLine
 10
4.291875
 20
7.817499999999999
 30
0.0
 11
4.291875
 21
7.767499999999999
 31
0.0
  0
LINE
  5
162
330
17
100
AcDbEntity
  8
A-AREA-OPEN
100
AcDbLine
 10
4.291875
 20
7.717499999999999
 30
0.0
 11
4.291875
 21
7.667499999999999
 31
0.0
  0
LINE
  5
163
330
17
100
AcDbEntity
  8
A-AREA-OPEN
100
AcDbLine
 10
4.291875
 20
7.617499999999999
 30
0.0
 11
4.291875
 21
7.567499999999999
 31
0.0
  0
LINE
  5
164
330
17
100
AcDbEntity
  8
A-AREA-OPEN
100
AcDbLine
 10
4.291875
 20
7.517499999999999
 30
0.0
 11
4.291875
 21
7.4674999999999985
 31
0.0
  0
LINE
  5
165
330
17
100
AcDbEntity
  8
A-AREA-OPEN
100
AcDbLine
 10
4.291875
 20
7.417499999999999
 30
0.0
 11
4.291875
 21
7.367499999999999
 31
0.0
  0
LINE
  5
166
330
17
100
AcDbEntity
  8
A-AREA-OPEN
100
AcDbLine
 10
4.291875
 20
7.317499999999999
 30
0.0
 11
4.291875
 21
7.267499999999998
 31
0.0
  0
LINE
  5
167
330
17
100
AcDbEntity
  8
A-AREA-OPEN
100
AcDbLine
 10
4.291875
 20
7.2174999999999985
 30
0.0
 11
4.291875
 21
7.167499999999999
 31
0.0
  0
LINE
  5
168
330
17
100
AcDbEntity
  8
A-AREA-OPEN
100
AcDbLine
 10
4.291875
 20
7.117499999999999
 30
0.0
 11
4.291875
 21
7.067499999999999
 31
0.0
  0
LINE
  5
169
330
17
100
AcDbEntity
  8
A-AREA-OPEN
100
AcDbLine
 10
4.291875
 20
7.017499999999998
 30
0.0
 11
4.291875
 21
6.9674999999999985
 31
0.0
  0
LINE
  5
16A
330
17
100
AcDbEntity
  8
A-AREA-OPEN
100
AcDbLine
 10
4.291875
 20
6.917499999999999
 30
0.0
 11
4.291875
 21
6.867499999999998
 31
0.0
  0
LINE
  5
16B
330
17
100
AcDbEntity
  8
A-AREA-OPEN
100
AcDbLine
 10
4.291875
 20
6.817499999999998
 30
0.0
 11
4.291875
 21
6.767499999999998
 31
0.0
  0
LINE
  5
16C
330
17
100
AcDbEntity
  8
A-AREA-OPEN
100
AcDbLine
 10
4.291875
 20
6.7174999999999985
 30
0.0
 11
4.291875
 21
6.667499999999999
 31
0.0
  0
LINE
  5
16D
330
17
100
AcDbEntity
  8
A-AREA-OPEN
100
AcDbLine
 10
4.291875
 20
6.617499999999998
 30
0.0
 11
4.291875
 21
6.567499999999998
 31
0.0
  0
LINE
  5
16E
330
17
100
AcDbEntity
  8
A-AREA-OPEN
100
AcDbLine
 10
4.291875
 20
6.517499999999998
 30
0.0
 11
4.291875
 21
6.467499999999998
 31
0.0
  0
LINE
  5
16F
330
17
100
AcDbEntity
  8
A-AREA-OPEN
100
AcDbLine
 10
4.291875
 20
6.417499999999998
 30
0.0
 11
4.291875
 21
6.367499999999998
 31
0.0
  0
LINE
  5
170
330
17
100
AcDbEntity
  8
A-AREA-OPEN
100
AcDbLine
 10
4.291875
 20
6.317499999999998
 30
0.0
 11
4.291875
 21
6.267499999999998
 31
0.0
  0
LINE
  5
171
330
17
100
AcDbEntity
  8
A-AREA-OPEN
100
AcDbLine
 10
4.291875
 20
6.2174999999999985
 30
0.0
 11
4.291875
 21
6.167499999999999
 31
0.0
  0
LINE
  5
172
330
17
100
AcDbEntity
  8
A-AREA-OPEN
100
AcDbLine
 10
4.291875
 20
6.117499999999999
 30
0.0
 11
4.291875
 21
6.067499999999999
 31
0.0
  0
LINE
  5
173
330
17
100
AcDbEntity
  8
A-AREA-OPEN
100
AcDbLine
 10
4.291875
 20
6.017499999999999
 30
0.0
 11
4.291875
 21
5.967499999999999
 31
0.0
  0
LINE
  5
174
330
17
100
AcDbEntity
  8
A-AREA-OPEN
100
AcDbLine
 10
4.291875
 20
5.9174999999999995
 30
0.0
 11
4.291875
 21
5.8675
 31
0.0
  0
LINE
  5
175
330
17
100
AcDbEntity
  8
A-AREA-OPEN
100
AcDbLine
 10
4.291875
 20
5.8175
 30
0.0
 11
4.291875
 21
5.7675
 31
0.0
  0
LINE
  5
176
330
17
100
AcDbEntity
  8
A-AREA-OPEN
100
AcDbLine
 10
4.291875
 20
5.7175
 30
0.0
 11
4.291875
 21
5.6675
 31
0.0
  0
LINE
  5
177
330
17
100
AcDbEntity
  8
A-AREA-OPEN
100
AcDbLine
 10
4.291875
 20
5.617500000000001
 30
0.0
 11
4.291875
 21
5.567500000000001
 31
0.0
  0
LINE
  5
178
330
17
100
AcDbEntity
  8
A-AREA-OPEN
100
AcDbLine
 10
4.291875
 20
5.517500000000001
 30
0.0
 11
4.291875
 21
5.467500000000001
 31
0.0
  0
LINE
  5
179
330
17
100
AcDbEntity
  8
A-AREA-OPEN
100
AcDbLine
 10
4.291875
 20
5.417500000000001
 30
0.0
 11
4.291875
 21
5.3675000000000015
 31
0.0
  0
LINE
  5
17A
330
17
100
AcDbEntity
  8
A-AREA-OPEN
100
AcDbLine
 10
4.291875
 20
5.317500000000002
 30
0.0
 11
4.291875
 21
5.267500000000002
 31
0.0
  0
LINE
  5
17B
330
17
100
AcDbEntity
  8
A-AREA-OPEN
100
AcDbLine
 10
4.291875
 20
5.217500000000002
 30
0.0
 11
4.291875
 21
5.167500000000002
 31
0.0
  0
LINE
  5
17C
330
17
100
AcDbEntity
  8
A-AREA-OPEN
100
AcDbLine
 10
4.291875
 20
5.117500000000002
 30
0.0
 11
4.291875
 21
5.067500000000003
 31
0.0
  0
LINE
  5
17D
330
17
100
AcDbEntity
  8
A-AREA-OPEN
100
AcDbLine
 10
4.291875
 20
5.017500000000003
 30
0.0
 11
4.291875
 21
4.967500000000003
 31
0.0
  0
LINE
  5
17E
330
17
100
AcDbEntity
  8
A-AREA-OPEN
100
AcDbLine
 10
4.291875
 20
4.917500000000003
 30
0.0
 11
4.291875
 21
4.867500000000003
 31
0.0
  0
LINE
  5
17F
330
17
100
AcDbEntity
  8
A-AREA-OPEN
100
AcDbLine
 10
4.291875
 20
4.8175000000000034
 30
0.0
 11
4.291875
 21
4.767500000000004
 31
0.0
  0
LINE
  5
180
330
17
100
AcDbEntity
  8
A-AREA-OPEN
100
AcDbLine
 10
4.291875
 20
4.717500000000004
 30
0.0
 11
4.291875
 21
4.667500000000004
 31
0.0
  0
LINE
  5
181
330
17
100
AcDbEntity
  8
A-AREA-OPEN
100
AcDbLine
 10
4.291875
 20
4.617500000000004
 30
0.0
 11
4.291875
 21
4.567500000000004
 31
0.0
  0
LINE
  5
182
330
17
100
AcDbEntity
  8
A-AREA-OPEN
100
AcDbLine
 10
4.291875
 20
4.5175000000000045
 30
0.0
 11
4.291875
 21
4.467500000000005
 31
0.0
  0
LINE
  5
183
330
17
100
AcDbEntity
  8
A-AREA-OPEN
100
AcDbLine
 10
4.291875
 20
4.417500000000005
 30
0.0
 11
4.291875
 21
4.367500000000005
 31
0.0
  0
LINE
  5
184
330
17
100
AcDbEntity
  8
A-AREA-OPEN
100
AcDbLine
 10
4.291875
 20
4.317500000000005
 30
0.0
 11
4.291875
 21
4.267500000000005
 31
0.0
  0
LINE
  5
185
330
17
100
AcDbEntity
  8
A-AREA-OPEN
100
AcDbLine
 10
4.291875
 20
4.217500000000006
 30
0.0
 11
4.291875
 21
4.167500000000006
 31
0.0
  0
LINE
  5
186
330
17
100
AcDbEntity
  8
A-AREA-OPEN
100
AcDbLine
 10
4.291875
 20
4.117500000000006
 30
0.0
 11
4.291875
 21
4.067500000000006
 31
0.0
  0
LINE
  5
187
330
17
100
AcDbEntity
  8
A-AREA-OPEN
100
AcDbLine
 10
4.291875
 20
4.017500000000006
 30
0.0
 11
4.291875
 21
3.9675000000000065
 31
0.0
  0
LINE
  5
188
330
17
100
AcDbEntity
  8
A-AREA-OPEN
100
AcDbLine
 10
4.291875
 20
3.9175000000000066
 30
0.0
 11
4.291875
 21
3.867500000000007
 31
0.0
  0
LINE
  5
189
330
17
100
AcDbEntity
  8
A-AREA-OPEN
100
AcDbLine
 10
4.291875
 20
3.817500000000007
 30
0.0
 11
4.291875
 21
3.8175
 31
0.0
  0
LWPOLYLINE
  5
18A
330
17
100
AcDbEntity
  8
A-SEAT-FIXD
100
AcDbPolyline
 90
4
 70
1
 10
4.291875
 20
8.833124999999999
 10
8.370000000000001
 20
8.833124999999999
 10
8.370000000000001
 20
9.301874999999999
 10
4.291875
 20
9.301874999999999
  0
LWPOLYLINE
  5
18B
330
17
100
AcDbEntity
  8
A-SEAT-FIXD
100
AcDbPolyline
 90
4
 70
1
 10
4.291875
 20
2.833125
 10
8.370000000000001
 20
2.833125
 10
8.370000000000001
 20
3.301875
 10
4.291875
 20
3.301875
  0
LWPOLYLINE
  5
18C
330
17
100
AcDbEntity
  8
A-SEAT-FIXD
100
AcDbPolyline
 90
4
 70
1
 10
8.370000000000001
 20
3.301875
 10
8.838750000000001
 20
3.301875
 10
8.838750000000001
 20
8.833124999999999
 10
8.370000000000001
 20
8.833124999999999
  0
LINE
  5
18D
330
17
100
AcDbEntity
  8
A-SEAT-TELE
100
AcDbLine
 10
4.291875
 20
9.098468009349858
 30
0.0
 11
4.371875
 21
9.098468009349858
 31
0.0
  0
LINE
  5
18E
330
17
100
AcDbEntity
  8
A-SEAT-TELE
100
AcDbLine
 10
4.421875
 20
9.098468009349858
 30
0.0
 11
4.501875
 21
9.098468009349858
 31
0.0
  0
LINE
  5
18F
330
17
100
AcDbEntity
  8
A-SEAT-TELE
100
AcDbLine
 10
4.551875
 20
9.098468009349858
 30
0.0
 11
4.631875
 21
9.098468009349858
 31
0.0
  0
LINE
  5
190
330
17
100
AcDbEntity
  8
A-SEAT-TELE
100
AcDbLine
 10
4.681875
 20
9.098468009349858
 30
0.0
 11
4.761875
 21
9.098468009349858
 31
0.0
  0
LINE
  5
191
330
17
100
AcDbEntity
  8
A-SEAT-TELE
100
AcDbLine
 10
4.811875000000001
 20
9.098468009349858
 30
0.0
 11
4.891875
 21
9.098468009349858
 31
0.0
  0
LINE
  5
192
330
17
100
AcDbEntity
  8
A-SEAT-TELE
100
AcDbLine
 10
4.9418750000000005
 20
9.098468009349858
 30
0.0
 11
5.021875
 21
9.098468009349858
 31
0.0
  0
LINE
  5
193
330
17
100
AcDbEntity
  8
A-SEAT-TELE
100
AcDbLine
 10
5.071875
 20
9.098468009349858
 30
0.0
 11
5.151875
 21
9.098468009349858
 31
0.0
  0
LINE
  5
194
330
17
100
AcDbEntity
  8
A-SEAT-TELE
100
AcDbLine
 10
5.201875
 20
9.098468009349858
 30
0.0
 11
5.281875
 21
9.098468009349858
 31
0.0
  0
LINE
  5
195
330
17
100
AcDbEntity
  8
A-SEAT-TELE
100
AcDbLine
 10
5.331875
 20
9.098468009349858
 30
0.0
 11
5.411875
 21
9.098468009349858
 31
0.0
  0
LINE
  5
196
330
17
100
AcDbEntity
  8
A-SEAT-TELE
100
AcDbLine
 10
5.461875
 20
9.098468009349858
 30
0.0
 11
5.541875
 21
9.098468009349858
 31
0.0
  0
LINE
  5
197
330
17
100
AcDbEntity
  8
A-SEAT-TELE
100
AcDbLine
 10
5.591875
 20
9.098468009349858
 30
0.0
 11
5.671875
 21
9.098468009349858
 31
0.0
  0
LINE
  5
198
330
17
100
AcDbEntity
  8
A-SEAT-TELE
100
AcDbLine
 10
5.721875000000001
 20
9.098468009349858
 30
0.0
 11
5.801875000000001
 21
9.098468009349858
 31
0.0
  0
LINE
  5
199
330
17
100
AcDbEntity
  8
A-SEAT-TELE
100
AcDbLine
 10
5.851875000000001
 20
9.098468009349858
 30
0.0
 11
5.931875000000001
 21
9.098468009349858
 31
0.0
  0
LINE
  5
19A
330
17
100
AcDbEntity
  8
A-SEAT-TELE
100
AcDbLine
 10
5.9818750000000005
 20
9.098468009349858
 30
0.0
 11
6.061875000000001
 21
9.098468009349858
 31
0.0
  0
LINE
  5
19B
330
17
100
AcDbEntity
  8
A-SEAT-TELE
100
AcDbLine
 10
6.111875000000001
 20
9.098468009349858
 30
0.0
 11
6.191875000000001
 21
9.098468009349858
 31
0.0
  0
LINE
  5
19C
330
17
100
AcDbEntity
  8
A-SEAT-TELE
100
AcDbLine
 10
6.241875000000001
 20
9.098468009349858
 30
0.0
 11
6.321875
 21
9.098468009349858
 31
0.0
  0
LINE
  5
19D
330
17
100
AcDbEntity
  8
A-SEAT-TELE
100
AcDbLine
 10
6.371875000000001
 20
9.098468009349858
 30
0.0
 11
6.451875000000001
 21
9.098468009349858
 31
0.0
  0
LINE
  5
19E
330
17
100
AcDbEntity
  8
A-SEAT-TELE
100
AcDbLine
 10
6.501875
 20
9.098468009349858
 30
0.0
 11
6.581875
 21
9.098468009349858
 31
0.0
  0
LINE
  5
19F
330
17
100
AcDbEntity
  8
A-SEAT-TELE
100
AcDbLine
 10
6.631875000000001
 20
9.098468009349858
 30
0.0
 11
6.711875000000001
 21
9.098468009349858
 31
0.0
  0
LINE
  5
1A0
330
17
100
AcDbEntity
  8
A-SEAT-TELE
100
AcDbLine
 10
6.761875
 20
9.098468009349858
 30
0.0
 11
6.841875
 21
9.098468009349858
 31
0.0
  0
LINE
  5
1A1
330
17
100
AcDbEntity
  8
A-SEAT-TELE
100
AcDbLine
 10
6.891875000000001
 20
9.098468009349858
 30
0.0
 11
6.971875000000001
 21
9.098468009349858
 31
0.0
  0
LINE
  5
1A2
330
17
100
AcDbEntity
  8
A-SEAT-TELE
100
AcDbLine
 10
7.021875
 20
9.098468009349858
 30
0.0
 11
7.101875
 21
9.098468009349858
 31
0.0
  0
LINE
  5
1A3
330
17
100
AcDbEntity
  8
A-SEAT-TELE
100
AcDbLine
 10
7.151875
 20
9.098468009349858
 30
0.0
 11
7.2318750000000005
 21
9.098468009349858
 31
0.0
  0
LINE
  5
1A4
330
17
100
AcDbEntity
  8
A-SEAT-TELE
100
AcDbLine
 10
7.281874999999999
 20
9.098468009349858
 30
0.0
 11
7.3618749999999995
 21
9.098468009349858
 31
0.0
  0
LINE
  5
1A5
330
17
100
AcDbEntity
  8
A-SEAT-TELE
100
AcDbLine
 10
7.411875
 20
9.098468009349858
 30
0.0
 11
7.491875
 21
9.098468009349858
 31
0.0
  0
LINE
  5
1A6
330
17
100
AcDbEntity
  8
A-SEAT-TELE
100
AcDbLine
 10
7.541874999999999
 20
9.098468009349858
 30
0.0
 11
7.621874999999999
 21
9.098468009349858
 31
0.0
  0
LINE
  5
1A7
330
17
100
AcDbEntity
  8
A-SEAT-TELE
100
AcDbLine
 10
7.671875
 20
9.098468009349858
 30
0.0
 11
7.751875
 21
9.098468009349858
 31
0.0
  0
LINE
  5
1A8
330
17
100
AcDbEntity
  8
A-SEAT-TELE
100
AcDbLine
 10
7.801874999999999
 20
9.098468009349858
 30
0.0
 11
7.881874999999999
 21
9.098468009349858
 31
0.0
  0
LINE
  5
1A9
330
17
100
AcDbEntity
  8
A-SEAT-TELE
100
AcDbLine
 10
7.931875
 20
9.098468009349858
 30
0.0
 11
8.011875
 21
9.098468009349858
 31
0.0
  0
LINE
  5
1AA
330
17
100
AcDbEntity
  8
A-SEAT-TELE
100
AcDbLine
 10
8.061874999999999
 20
9.098468009349858
 30
0.0
 11
8.141874999999999
 21
9.098468009349858
 31
0.0
  0
LINE
  5
1AB
330
17
100
AcDbEntity
  8
A-SEAT-TELE
100
AcDbLine
 10
8.191875
 20
9.098468009349858
 30
0.0
 11
8.271875
 21
9.098468009349858
 31
0.0
  0
LINE
  5
1AC
330
17
100
AcDbEntity
  8
A-SEAT-TELE
100
AcDbLine
 10
8.321874999999999
 20
9.098468009349858
 30
0.0
 11
8.370000000000001
 21
9.098468009349858
 31
0.0
  0
LINE
  5
1AD
330
17
100
AcDbEntity
  8
A-SEAT-TELE
100
AcDbLine
 10
8.635343009349858
 20
8.833124999999999
 30
0.0
 11
8.635343009349858
 21
8.753124999999999
 31
0.0
  0
LINE
  5
1AE
330
17
100
AcDbEntity
  8
A-SEAT-TELE
100
AcDbLine
 10
8.635343009349858
 20
8.703124999999998
 30
0.0
 11
8.635343009349858
 21
8.623124999999998
 31
0.0
  0
LINE
  5
1AF
330
17
100
AcDbEntity
  8
A-SEAT-TELE
100
AcDbLine
 10
8.635343009349858
 20
8.573125
 30
0.0
 11
8.635343009349858
 21
8.493125
 31
0.0
  0
LINE
  5
1B0
330
17
100
AcDbEntity
  8
A-SEAT-TELE
100
AcDbLine
 10
8.635343009349858
 20
8.443124999999998
 30
0.0
 11
8.635343009349858
 21
8.363124999999998
 31
0.0
  0
LINE
  5
1B1
330
17
100
AcDbEntity
  8
A-SEAT-TELE
100
AcDbLine
 10
8.635343009349858
 20
8.313125
 30
0.0
 11
8.635343009349858
 21
8.233125
 31
0.0
  0
LINE
  5
1B2
330
17
100
AcDbEntity
  8
A-SEAT-TELE
100
AcDbLine
 10
8.635343009349858
 20
8.183124999999999
 30
0.0
 11
8.635343009349858
 21
8.103124999999999
 31
0.0
  0
LINE
  5
1B3
330
17
100
AcDbEntity
  8
A-SEAT-TELE
100
AcDbLine
 10
8.635343009349858
 20
8.053125
 30
0.0
 11
8.635343009349858
 21
7.973124999999999
 31
0.0
  0
LINE
  5
1B4
330
17
100
AcDbEntity
  8
A-SEAT-TELE
100
AcDbLine
 10
8.635343009349858
 20
7.923124999999999
 30
0.0
 11
8.635343009349858
 21
7.843124999999999
 31
0.0
  0
LINE
  5
1B5
330
17
100
AcDbEntity
  8
A-SEAT-TELE
100
AcDbLine
 10
8.635343009349858
 20
7.793124999999999
 30
0.0
 11
8.635343009349858
 21
7.713124999999999
 31
0.0
  0
LINE
  5
1B6
330
17
100
AcDbEntity
  8
A-SEAT-TELE
100
AcDbLine
 10
8.635343009349858
 20
7.663124999999999
 30
0.0
 11
8.635343009349858
 21
7.583124999999999
 31
0.0
  0
LINE
  5
1B7
330
17
100
AcDbEntity
  8
A-SEAT-TELE
100
AcDbLine
 10
8.635343009349858
 20
7.533124999999998
 30
0.0
 11
8.635343009349858
 21
7.453124999999998
 31
0.0
  0
LINE
  5
1B8
330
17
100
AcDbEntity
  8
A-SEAT-TELE
100
AcDbLine
 10
8.635343009349858
 20
7.403124999999998
 30
0.0
 11
8.635343009349858
 21
7.323124999999998
 31
0.0
  0
LINE
  5
1B9
330
17
100
AcDbEntity
  8
A-SEAT-TELE
100
AcDbLine
 10
8.635343009349858
 20
7.2731249999999985
 30
0.0
 11
8.635343009349858
 21
7.193124999999998
 31
0.0
  0
LINE
  5
1BA
330
17
100
AcDbEntity
  8
A-SEAT-TELE
100
AcDbLine
 10
8.635343009349858
 20
7.143124999999999
 30
0.0
 11
8.635343009349858
 21
7.0631249999999985
 31
0.0
  0
LINE
  5
1BB
330
17
100
AcDbEntity
  8
A-SEAT-TELE
100
AcDbLine
 10
8.635343009349858
 20
7.013124999999999
 30
0.0
 11
8.635343009349858
 21
6.933124999999999
 31
0.0
  0
LINE
  5
1BC
330
17
100
AcDbEntity
  8
A-SEAT-TELE
100
AcDbLine
 10
8.635343009349858
 20
6.883124999999998
 30
0.0
 11
8.635343009349858
 21
6.803124999999998
 31
0.0
  0
LINE
  5
1BD
330
17
100
AcDbEntity
  8
A-SEAT-TELE
100
AcDbLine
 10
8.635343009349858
 20
6.753124999999999
 30
0.0
 11
8.635343009349858
 21
6.673124999999999
 31
0.0
  0
LINE
  5
1BE
330
17
100
AcDbEntity
  8
A-SEAT-TELE
100
AcDbLine
 10
8.635343009349858
 20
6.623124999999998
 30
0.0
 11
8.635343009349858
 21
6.543124999999998
 31
0.0
  0
LINE
  5
1BF
330
17
100
AcDbEntity
  8
A-SEAT-TELE
100
AcDbLine
 10
8.635343009349858
 20
6.493124999999999
 30
0.0
 11
8.635343009349858
 21
6.413124999999999
 31
0.0
  0
LINE
  5
1C0
330
17
100
AcDbEntity
  8
A-SEAT-TELE
100
AcDbLine
 10
8.635343009349858
 20
6.363124999999998
 30
0.0
 11
8.635343009349858
 21
6.283124999999998
 31
0.0
  0
LINE
  5
1C1
330
17
100
AcDbEntity
  8
A-SEAT-TELE
100
AcDbLine
 10
8.635343009349858
 20
6.233124999999999
 30
0.0
 11
8.635343009349858
 21
6.153124999999999
 31
0.0
  0
LINE
  5
1C2
330
17
100
AcDbEntity
  8
A-SEAT-TELE
100
AcDbLine
 10
8.635343009349858
 20
6.103124999999999
 30
0.0
 11
8.635343009349858
 21
6.0231249999999985
 31
0.0
  0
LINE
  5
1C3
330
17
100
AcDbEntity
  8
A-SEAT-TELE
100
AcDbLine
 10
8.635343009349858
 20
5.973125
 30
0.0
 11
8.635343009349858
 21
5.8931249999999995
 31
0.0
  0
LINE
  5
1C4
330
17
100
AcDbEntity
  8
A-SEAT-TELE
100
AcDbLine
 10
8.635343009349858
 20
5.843124999999999
 30
0.0
 11
8.635343009349858
 21
5.763124999999999
 31
0.0
  0
LINE
  5
1C5
330
17
100
AcDbEntity
  8
A-SEAT-TELE
100
AcDbLine
 10
8.635343009349858
 20
5.713125
 30
0.0
 11
8.635343009349858
 21
5.633125
 31
0.0
  0
LINE
  5
1C6
330
17
100
AcDbEntity
  8
A-SEAT-TELE
100
AcDbLine
 10
8.635343009349858
 20
5.583124999999999
 30
0.0
 11
8.635343009349858
 21
5.503124999999999
 31
0.0
  0
LINE
  5
1C7
330
17
100
AcDbEntity
  8
A-SEAT-TELE
100
AcDbLine
 10
8.635343009349858
 20
5.453125
 30
0.0
 11
8.635343009349858
 21
5.373125
 31
0.0
  0
LINE
  5
1C8
330
17
100
AcDbEntity
  8
A-SEAT-TELE
100
AcDbLine
 10
8.635343009349858
 20
5.323124999999999
 30
0.0
 11
8.635343009349858
 21
5.243124999999999
 31
0.0
  0
LINE
  5
1C9
330
17
100
AcDbEntity
  8
A-SEAT-TELE
100
AcDbLine
 10
8.635343009349858
 20
5.193125
 30
0.0
 11
8.635343009349858
 21
5.113125
 31
0.0
  0
LINE
  5
1CA
330
17
100
AcDbEntity
  8
A-SEAT-TELE
100
AcDbLine
 10
8.635343009349858
 20
5.063124999999999
 30
0.0
 11
8.635343009349858
 21
4.983124999999999
 31
0.0
  0
LINE
  5
1CB
330
17
100
AcDbEntity
  8
A-SEAT-TELE
100
AcDbLine
 10
8.635343009349858
 20
4.933125
 30
0.0
 11
8.635343009349858
 21
4.853125
 31
0.0
  0
LINE
  5
1CC
330
17
100
AcDbEntity
  8
A-SEAT-TELE
100
AcDbLine
 10
8.635343009349858
 20
4.803125
 30
0.0
 11
8.635343009349858
 21
4.723125
 31
0.0
  0
LINE
  5
1CD
330
17
100
AcDbEntity
  8
A-SEAT-TELE
100
AcDbLine
 10
8.635343009349858
 20
4.673125
 30
0.0
 11
8.635343009349858
 21
4.593125
 31
0.0
  0
LINE
  5
1CE
330
17
100
AcDbEntity
  8
A-SEAT-TELE
100
AcDbLine
 10
8.635343009349858
 20
4.543125
 30
0.0
 11
8.635343009349858
 21
4.463125
 31
0.0
  0
LINE
  5
1CF
330
17
100
AcDbEntity
  8
A-SEAT-TELE
100
AcDbLine
 10
8.635343009349858
 20
4.413125
 30
0.0
 11
8.635343009349858
 21
4.333125
 31
0.0
  0
LINE
  5
1D0
330
17
100
AcDbEntity
  8
A-SEAT-TELE
100
AcDbLine
 10
8.635343009349858
 20
4.283125
 30
0.0
 11
8.635343009349858
 21
4.203125
 31
0.0
  0
LINE
  5
1D1
330
17
100
AcDbEntity
  8
A-SEAT-TELE
100
AcDbLine
 10
8.635343009349858
 20
4.153125
 30
0.0
 11
8.635343009349858
 21
4.073125
 31
0.0
  0
LINE
  5
1D2
330
17
100
AcDbEntity
  8
A-SEAT-TELE
100
AcDbLine
 10
8.635343009349858
 20
4.023125
 30
0.0
 11
8.635343009349858
 21
3.943125
 31
0.0
  0
LINE
  5
1D3
330
17
100
AcDbEntity
  8
A-SEAT-TELE
100
AcDbLine
 10
8.635343009349858
 20
3.8931250000000004
 30
0.0
 11
8.635343009349858
 21
3.8131250000000003
 31
0.0
  0
LINE
  5
1D4
330
17
100
AcDbEntity
  8
A-SEAT-TELE
100
AcDbLine
 10
8.635343009349858
 20
3.7631250000000005
 30
0.0
 11
8.635343009349858
 21
3.6831250000000004
 31
0.0
  0
LINE
  5
1D5
330
17
100
AcDbEntity
  8
A-SEAT-TELE
100
AcDbLine
 10
8.635343009349858
 20
3.6331250000000006
 30
0.0
 11
8.635343009349858
 21
3.5531250000000005
 31
0.0
  0
LINE
  5
1D6
330
17
100
AcDbEntity
  8
A-SEAT-TELE
100
AcDbLine
 10
8.635343009349858
 20
3.5031250000000007
 30
0.0
 11
8.635343009349858
 21
3.4231250000000006
 31
0.0
  0
LINE
  5
1D7
330
17
100
AcDbEntity
  8
A-SEAT-TELE
100
AcDbLine
 10
8.635343009349858
 20
3.373125000000001
 30
0.0
 11
8.635343009349858
 21
3.301875
 31
0.0
  0
LINE
  5
1D8
330
17
100
AcDbEntity
  8
A-SEAT-TELE
100
AcDbLine
 10
8.370000000000001
 20
3.036531990650141
 30
0.0
 11
8.290000000000001
 21
3.036531990650141
 31
0.0
  0
LINE
  5
1D9
330
17
100
AcDbEntity
  8
A-SEAT-TELE
100
AcDbLine
 10
8.24
 20
3.036531990650141
 30
0.0
 11
8.16
 21
3.036531990650141
 31
0.0
  0
LINE
  5
1DA
330
17
100
AcDbEntity
  8
A-SEAT-TELE
100
AcDbLine
 10
8.110000000000001
 20
3.036531990650141
 30
0.0
 11
8.030000000000001
 21
3.036531990650141
 31
0.0
  0
LINE
  5
1DB
330
17
100
AcDbEntity
  8
A-SEAT-TELE
100
AcDbLine
 10
7.980000000000001
 20
3.036531990650141
 30
0.0
 11
7.900000000000001
 21
3.036531990650141
 31
0.0
  0
LINE
  5
1DC
330
17
100
AcDbEntity
  8
A-SEAT-TELE
100
AcDbLine
 10
7.850000000000001
 20
3.036531990650141
 30
0.0
 11
7.770000000000001
 21
3.036531990650141
 31
0.0
  0
LINE
  5
1DD
330
17
100
AcDbEntity
  8
A-SEAT-TELE
100
AcDbLine
 10
7.720000000000001
 20
3.036531990650141
 30
0.0
 11
7.640000000000001
 21
3.036531990650141
 31
0.0
  0
LINE
  5
1DE
330
17
100
AcDbEntity
  8
A-SEAT-TELE
100
AcDbLine
 10
7.590000000000001
 20
3.036531990650141
 30
0.0
 11
7.510000000000001
 21
3.036531990650141
 31
0.0
  0
LINE
  5
1DF
330
17
100
AcDbEntity
  8
A-SEAT-TELE
100
AcDbLine
 10
7.460000000000001
 20
3.036531990650141
 30
0.0
 11
7.380000000000001
 21
3.036531990650141
 31
0.0
  0
LINE
  5
1E0
330
17
100
AcDbEntity
  8
A-SEAT-TELE
100
AcDbLine
 10
7.330000000000001
 20
3.036531990650141
 30
0.0
 11
7.250000000000001
 21
3.036531990650141
 31
0.0
  0
LINE
  5
1E1
330
17
100
AcDbEntity
  8
A-SEAT-TELE
100
AcDbLine
 10
7.200000000000001
 20
3.036531990650141
 30
0.0
 11
7.120000000000001
 21
3.036531990650141
 31
0.0
  0
LINE
  5
1E2
330
17
100
AcDbEntity
  8
A-SEAT-TELE
100
AcDbLine
 10
7.07
 20
3.036531990650141
 30
0.0
 11
6.99
 21
3.036531990650141
 31
0.0
  0
LINE
  5
1E3
330
17
100
AcDbEntity
  8
A-SEAT-TELE
100
AcDbLine
 10
6.94
 20
3.036531990650141
 30
0.0
 11
6.86
 21
3.036531990650141
 31
0.0
  0
LINE
  5
1E4
330
17
100
AcDbEntity
  8
A-SEAT-TELE
100
AcDbLine
 10
6.8100000000000005
 20
3.036531990650141
 30
0.0
 11
6.73
 21
3.036531990650141
 31
0.0
  0
LINE
  5
1E5
330
17
100
AcDbEntity
  8
A-SEAT-TELE
100
AcDbLine
 10
6.680000000000001
 20
3.036531990650141
 30
0.0
 11
6.6000000000000005
 21
3.036531990650141
 31
0.0
  0
LINE
  5
1E6
330
17
100
AcDbEntity
  8
A-SEAT-TELE
100
AcDbLine
 10
6.550000000000001
 20
3.036531990650141
 30
0.0
 11
6.470000000000001
 21
3.036531990650141
 31
0.0
  0
LINE
  5
1E7
330
17
100
AcDbEntity
  8
A-SEAT-TELE
100
AcDbLine
 10
6.42
 20
3.036531990650141
 30
0.0
 11
6.34
 21
3.036531990650141
 31
0.0
  0
LINE
  5
1E8
330
17
100
AcDbEntity
  8
A-SEAT-TELE
100
AcDbLine
 10
6.290000000000001
 20
3.036531990650141
 30
0.0
 11
6.210000000000001
 21
3.036531990650141
 31
0.0
  0
LINE
  5
1E9
330
17
100
AcDbEntity
  8
A-SEAT-TELE
100
AcDbLine
 10
6.16
 20
3.036531990650141
 30
0.0
 11
6.08
 21
3.036531990650141
 31
0.0
  0
LINE
  5
1EA
330
17
100
AcDbEntity
  8
A-SEAT-TELE
100
AcDbLine
 10
6.030000000000001
 20
3.036531990650141
 30
0.0
 11
5.950000000000001
 21
3.036531990650141
 31
0.0
  0
LINE
  5
1EB
330
17
100
AcDbEntity
  8
A-SEAT-TELE
100
AcDbLine
 10
5.9
 20
3.036531990650141
 30
0.0
 11
5.82
 21
3.036531990650141
 31
0.0
  0
LINE
  5
1EC
330
17
100
AcDbEntity
  8
A-SEAT-TELE
100
AcDbLine
 10
5.770000000000001
 20
3.036531990650141
 30
0.0
 11
5.690000000000001
 21
3.036531990650141
 31
0.0
  0
LINE
  5
1ED
330
17
100
AcDbEntity
  8
A-SEAT-TELE
100
AcDbLine
 10
5.640000000000001
 20
3.036531990650141
 30
0.0
 11
5.5600000000000005
 21
3.036531990650141
 31
0.0
  0
LINE
  5
1EE
330
17
100
AcDbEntity
  8
A-SEAT-TELE
100
AcDbLine
 10
5.510000000000002
 20
3.036531990650141
 30
0.0
 11
5.4300000000000015
 21
3.036531990650141
 31
0.0
  0
LINE
  5
1EF
330
17
100
AcDbEntity
  8
A-SEAT-TELE
100
AcDbLine
 10
5.380000000000001
 20
3.036531990650141
 30
0.0
 11
5.300000000000001
 21
3.036531990650141
 31
0.0
  0
LINE
  5
1F0
330
17
100
AcDbEntity
  8
A-SEAT-TELE
100
AcDbLine
 10
5.250000000000002
 20
3.036531990650141
 30
0.0
 11
5.170000000000002
 21
3.036531990650141
 31
0.0
  0
LINE
  5
1F1
330
17
100
AcDbEntity
  8
A-SEAT-TELE
100
AcDbLine
 10
5.120000000000001
 20
3.036531990650141
 30
0.0
 11
5.040000000000001
 21
3.036531990650141
 31
0.0
  0
LINE
  5
1F2
330
17
100
AcDbEntity
  8
A-SEAT-TELE
100
AcDbLine
 10
4.990000000000002
 20
3.036531990650141
 30
0.0
 11
4.910000000000002
 21
3.036531990650141
 31
0.0
  0
LINE
  5
1F3
330
17
100
AcDbEntity
  8
A-SEAT-TELE
100
AcDbLine
 10
4.860000000000001
 20
3.036531990650141
 30
0.0
 11
4.780000000000001
 21
3.036531990650141
 31
0.0
  0
LINE
  5
1F4
330
17
100
AcDbEntity
  8
A-SEAT-TELE
100
AcDbLine
 10
4.730000000000002
 20
3.036531990650141
 30
0.0
 11
4.650000000000002
 21
3.036531990650141
 31
0.0
  0
LINE
  5
1F5
330
17
100
AcDbEntity
  8
A-SEAT-TELE
100
AcDbLine
 10
4.600000000000001
 20
3.036531990650141
 30
0.0
 11
4.520000000000001
 21
3.036531990650141
 31
0.0
  0
LINE
  5
1F6
330
17
100
AcDbEntity
  8
A-SEAT-TELE
100
AcDbLine
 10
4.470000000000002
 20
3.036531990650141
 30
0.0
 11
4.390000000000002
 21
3.036531990650141
 31
0.0
  0
LINE
  5
1F7
330
17
100
AcDbEntity
  8
A-SEAT-TELE
100
AcDbLine
 10
4.340000000000002
 20
3.036531990650141
 30
0.0
 11
4.291875
 21
3.036531990650141
 31
0.0
  0
TEXT
  5
1F8
330
17
100
AcDbEntity
  8
A-AREA-IDEN
100
AcDbText
 10
4.385625
 20
9.16375
 30
0.0
 40
0.054000000000000006
  1
UPPER TIER (N) · FIXED
  7
KS-BOLD
 11
4.385625
 21
9.16375
 31
0.0
100
AcDbText
  0
TEXT
  5
1F9
330
17
100
AcDbEntity
  8
A-AREA-IDEN
100
AcDbText
 10
4.385625
 20
2.9012499999999997
 30
0.0
 40
0.054000000000000006
  1
UPPER TIER (S) · FIXED
  7
KS-BOLD
 11
4.385625
 21
2.9012499999999997
 31
0.0
100
AcDbText
  0
TEXT
  5
1FA
330
17
100
AcDbEntity
  8
A-AREA-IDEN
100
AcDbText
 10
8.770624999999999
 20
5.4425
 30
0.0
 40
0.054000000000000006
  1
UPPER TIER (E) · FIXED
 50
90.0
  7
KS-BOLD
 72
1
 11
8.770624999999999
 21
5.4425
 31
0.0
100
AcDbText
  0
TEXT
  5
1FB
330
17
100
AcDbEntity
  8
A-AREA-IDEN
100
AcDbText
 10
6.3309375
 20
6.1175
 30
0.0
 40
0.07999999999999999
  1
OPEN TO ARENA BELOW
  7
KS-BOLD
 72
1
 11
6.3309375
 21
6.1175
 31
0.0
100
AcDbText
  0
TEXT
  5
1FC
330
17
100
AcDbEntity
  8
A-AREA-IDEN
100
AcDbText
 10
6.3309375
 20
5.9675
 30
0.0
 40
0.06
  1
(event floor + lower tier, double height)
  7
KS-REG
 72
1
 11
6.3309375
 21
5.9675
 31
0.0
100
AcDbText
  0
TEXT
  5
1FD
330
17
100
AcDbEntity
  8
A-AREA-IDEN
100
AcDbText
 10
2.9090625
 20
4.3668325
 30
0.0
 40
0.064
  1
OPEN TO LOBBY BELOW
  7
KS-BOLD
 72
1
 11
2.9090625
 21
4.3668325
 31
0.0
100
AcDbText
  0
TEXT
  5
1FE
330
17
100
AcDbEntity
  8
A-AREA-IDEN
100
AcDbText
 10
2.9090625
 20
4.249499166666666
 30
0.0
 40
0.064
  1
(hall of champions,
  7
KS-REG
 72
1
 11
2.9090625
 21
4.249499166666666
 31
0.0
100
AcDbText
  0
TEXT
  5
1FF
330
17
100
AcDbEntity
  8
A-AREA-IDEN
100
AcDbText
 10
2.9090625
 20
4.1321658333333335
 30
0.0
 40
0.064
  1
double height)
  7
KS-REG
 72
1
 11
2.9090625
 21
4.1321658333333335
 31
0.0
100
AcDbText
  0
LWPOLYLINE
  5
200
330
17
100
AcDbEntity
  8
A-AREA-BLCK
100
AcDbPolyline
 90
4
 70
1
 10
1.12
 20
7.205
 10
3.666875
 20
7.205
 10
3.666875
 20
9.504999999999999
 10
1.12
 20
9.504999999999999
  0
TEXT
  5
201
330
17
100
AcDbEntity
  8
A-AREA-IDEN
100
AcDbText
 10
2.3934375
 20
8.390933333333333
 30
0.0
 40
0.06999999999999999
  1
16  STRENGTH & CONDITIONING
  7
KS-BOLD
 72
1
 11
2.3934375
 21
8.390933333333333
 31
0.0
100
AcDbText
  0
TEXT
  5
202
330
17
100
AcDbEntity
  8
A-AREA-IDEN
100
AcDbText
 10
2.3934375
 20
8.2626
 30
0.0
 40
0.06999999999999999
  1
5,998 SF
  7
KS-REG
 72
1
 11
2.3934375
 21
8.2626
 31
0.0
100
AcDbText
  0
LWPOLYLINE
  5
203
330
17
100
AcDbEntity
  8
A-AREA-BLCK
100
AcDbPolyline
 90
4
 70
1
 10
1.12
 20
5.670624999999999
 10
3.666875
 20
5.670624999999999
 10
3.666875
 20
7.205
 10
1.12
 20
7.205
  0
TEXT
  5
204
330
17
100
AcDbEntity
  8
A-AREA-IDEN
100
AcDbText
 10
2.3934375
 20
6.473745833333333
 30
0.0
 40
0.06999999999999999
  1
17  CROSS-TRAINING MAT
  7
KS-BOLD
 72
1
 11
2.3934375
 21
6.473745833333333
 31
0.0
100
AcDbText
  0
TEXT
  5
205
330
17
100
AcDbEntity
  8
A-AREA-IDEN
100
AcDbText
 10
2.3934375
 20
6.3454125
 30
0.0
 40
0.06999999999999999
  1
4,002 SF
  7
KS-REG
 72
1
 11
2.3934375
 21
6.3454125
 31
0.0
100
AcDbText
  0
LWPOLYLINE
  5
206
330
17
100
AcDbEntity
  8
A-AREA-BLCK
100
AcDbPolyline
 90
4
 70
1
 10
1.12
 20
2.9425
 10
1.90125
 20
2.9425
 10
1.90125
 20
3.63
 10
1.12
 20
3.63
  0
TEXT
  5
207
330
17
100
AcDbEntity
  8
A-AREA-IDEN
100
AcDbText
 10
1.510625
 20
3.3863499999999997
 30
0.0
 40
0.06999999999999999
  1
18  MEN
  7
KS-BOLD
 72
1
 11
1.510625
 21
3.3863499999999997
 31
0.0
100
AcDbText
  0
TEXT
  5
208
330
17
100
AcDbEntity
  8
A-AREA-IDEN
100
AcDbText
 10
1.510625
 20
3.258016666666667
 30
0.0
 40
0.06999999999999999
  1
550 SF
  7
KS-REG
 72
1
 11
1.510625
 21
3.258016666666667
 31
0.0
100
AcDbText
  0
TEXT
  5
209
330
17
100
AcDbEntity
  8
A-AREA-IDEN
100
AcDbText
 10
1.510625
 20
3.1296833333333334
 30
0.0
 40
0.06999999999999999
  1
WC 8 · LAV 3
  7
KS-REG
 72
1
 11
1.510625
 21
3.1296833333333334
 31
0.0
100
AcDbText
  0
LWPOLYLINE
  5
20A
330
17
100
AcDbEntity
  8
A-AREA-BLCK
100
AcDbPolyline
 90
4
 70
1
 10
1.12
 20
3.63
 10
1.90125
 20
3.63
 10
1.90125
 20
4.755
 10
1.12
 20
4.755
  0
TEXT
  5
20B
330
17
100
AcDbEntity
  8
A-AREA-IDEN
100
AcDbText
 10
1.510625
 20
4.2926
 30
0.0
 40
0.06999999999999999
  1
19  WOMEN
  7
KS-BOLD
 72
1
 11
1.510625
 21
4.2926
 31
0.0
100
AcDbText
  0
TEXT
  5
20C
330
17
100
AcDbEntity
  8
A-AREA-IDEN
100
AcDbText
 10
1.510625
 20
4.164266666666666
 30
0.0
 40
0.06999999999999999
  1
900 SF
  7
KS-REG
 72
1
 11
1.510625
 21
4.164266666666666
 31
0.0
100
AcDbText
  0
TEXT
  5
20D
330
17
100
AcDbEntity
  8
A-AREA-IDEN
100
AcDbText
 10
1.510625
 20
4.035933333333333
 30
0.0
 40
0.06999999999999999
  1
WC 14 · LAV 4
  7
KS-REG
 72
1
 11
1.510625
 21
4.035933333333333
 31
0.0
100
AcDbText
  0
LWPOLYLINE
  5
20E
330
17
100
AcDbEntity
  8
A-AREA-BLCK
100
AcDbPolyline
 90
4
 70
1
 10
1.12
 20
4.755
 10
1.90125
 20
4.755
 10
1.90125
 20
5.342499999999999
 10
1.12
 20
5.342499999999999
  0
TEXT
  5
20F
330
17
100
AcDbEntity
  8
A-AREA-IDEN
100
AcDbText
 10
1.510625
 20
5.084683333333333
 30
0.0
 40
0.06999999999999999
  1
20  ADMIN
  7
KS-BOLD
 72
1
 11
1.510625
 21
5.084683333333333
 31
0.0
100
AcDbText
  0
TEXT
  5
210
330
17
100
AcDbEntity
  8
A-AREA-IDEN
100
AcDbText
 10
1.510625
 20
4.9563500000000005
 30
0.0
 40
0.06999999999999999
  1
470 SF
  7
KS-REG
 72
1
 11
1.510625
 21
4.9563500000000005
 31
0.0
100
AcDbText
  0
TEXT
  5
211
330
17
100
AcDbEntity
  8
A-AREA-IDEN
100
AcDbText
 10
2.05625
 20
4.2753125
 30
0.0
 40
0.062
  1
L2 CORRIDOR
 50
90.0
  7
KS-BOLD
 72
1
 11
2.05625
 21
4.2753125
 31
0.0
100
AcDbText
  0
TEXT
  5
212
330
17
100
AcDbEntity
  8
A-AREA-IDEN
100
AcDbText
 10
2.9090625
 20
2.7291866666666666
 30
0.0
 40
0.064
  1
BRIDGE
  7
KS-BOLD
 72
1
 11
2.9090625
 21
2.7291866666666666
 31
0.0
100
AcDbText
  0
TEXT
  5
213
330
17
100
AcDbEntity
  8
A-AREA-IDEN
100
AcDbText
 10
4.009375
 20
6.0675
 30
0.0
 40
0.062
  1
UPPER CONCOURSE / HALL OF CHAMPIONS WALL
 50
90.0
  7
KS-BOLD
 72
1
 11
4.009375
 21
6.0675
 31
0.0
100
AcDbText
  0
TEXT
  5
214
330
17
100
AcDbEntity
  8
A-AREA-IDEN
100
AcDbText
 10
6.4434375
 20
9.377624166666665
 30
0.0
 40
0.064
  1
REAR WALKWAY
  7
KS-BOLD
 72
1
 11
6.4434375
 21
9.377624166666665
 31
0.0
100
AcDbText
  0
TEXT
  5
215
330
17
100
AcDbEntity
  8
A-AREA-IDEN
100
AcDbText
 10
6.4434375
 20
2.7057491666666666
 30
0.0
 40
0.064
  1
REAR WALKWAY
  7
KS-BOLD
 72
1
 11
6.4434375
 21
2.7057491666666666
 31
0.0
100
AcDbText
  0
LWPOLYLINE
  5
216
330
17
100
AcDbEntity
  8
A-FLOR-STRS
100
AcDbPolyline
 90
4
 70
1
 10
3.666875
 20
8.864374999999999
 10
4.004375
 20
8.864374999999999
 10
4.004375
 20
9.458124999999999
 10
3.666875
 20
9.458124999999999
  0
LINE
  5
217
330
17
100
AcDbEntity
  8
A-FLOR-STRS
100
AcDbLine
 10
3.8356250000000003
 20
8.926874999999999
 30
0.0
 11
3.8356250000000003
 21
9.395624999999999
 31
0.0
  0
LINE
  5
218
330
17
100
AcDbEntity
  8
A-FLOR-STRS
100
AcDbLine
 10
3.666875
 20
9.004999999999999
 30
0.0
 11
4.004375
 21
9.004999999999999
 31
0.0
  0
LINE
  5
219
330
17
100
AcDbEntity
  8
A-FLOR-STRS
100
AcDbLine
 10
3.666875
 20
9.083124999999999
 30
0.0
 11
4.004375
 21
9.083124999999999
 31
0.0
  0
LINE
  5
21A
330
17
100
AcDbEntity
  8
A-FLOR-STRS
100
AcDbLine
 10
3.666875
 20
9.161249999999999
 30
0.0
 11
4.004375
 21
9.161249999999999
 31
0.0
  0
LINE
  5
21B
330
17
100
AcDbEntity
  8
A-FLOR-STRS
100
AcDbLine
 10
3.666875
 20
9.239374999999999
 30
0.0
 11
4.004375
 21
9.239374999999999
 31
0.0
  0
LINE
  5
21C
330
17
100
AcDbEntity
  8
A-FLOR-STRS
100
AcDbLine
 10
3.666875
 20
9.317499999999999
 30
0.0
 11
4.004375
 21
9.317499999999999
 31
0.0
  0
TEXT
  5
21D
330
17
100
AcDbEntity
  8
A-AREA-IDEN
100
AcDbText
 10
3.8356250000000003
 20
9.555
 30
0.0
 40
0.056
  1
ST-1
  7
KS-BOLD
 72
1
 11
3.8356250000000003
 21
9.555
 31
0.0
100
AcDbText
  0
LWPOLYLINE
  5
21E
330
17
100
AcDbEntity
  8
A-FLOR-STRS
100
AcDbPolyline
 90
4
 70
1
 10
8.594999999999999
 20
8.911249999999999
 10
8.9325
 20
8.911249999999999
 10
8.9325
 20
9.504999999999999
 10
8.594999999999999
 20
9.504999999999999
  0
LINE
  5
21F
330
17
100
AcDbEntity
  8
A-FLOR-STRS
100
AcDbLine
 10
8.76375
 20
8.973749999999999
 30
0.0
 11
8.76375
 21
9.442499999999999
 31
0.0
  0
LINE
  5
220
330
17
100
AcDbEntity
  8
A-FLOR-STRS
100
AcDbLine
 10
8.594999999999999
 20
9.051874999999999
 30
0.0
 11
8.932500000000001
 21
9.051874999999999
 31
0.0
  0
LINE
  5
221
330
17
100
AcDbEntity
  8
A-FLOR-STRS
100
AcDbLine
 10
8.594999999999999
 20
9.129999999999999
 30
0.0
 11
8.932500000000001
 21
9.129999999999999
 31
0.0
  0
LINE
  5
222
330
17
100
AcDbEntity
  8
A-FLOR-STRS
100
AcDbLine
 10
8.594999999999999
 20
9.208124999999999
 30
0.0
 11
8.932500000000001
 21
9.208124999999999
 31
0.0
  0
LINE
  5
223
330
17
100
AcDbEntity
  8
A-FLOR-STRS
100
AcDbLine
 10
8.594999999999999
 20
9.286249999999999
 30
0.0
 11
8.932500000000001
 21
9.286249999999999
 31
0.0
  0
LINE
  5
224
330
17
100
AcDbEntity
  8
A-FLOR-STRS
100
AcDbLine
 10
8.594999999999999
 20
9.364374999999999
 30
0.0
 11
8.932500000000001
 21
9.364374999999999
 31
0.0
  0
TEXT
  5
225
330
17
100
AcDbEntity
  8
A-AREA-IDEN
100
AcDbText
 10
8.76375
 20
9.555
 30
0.0
 40
0.056
  1
ST-2
  7
KS-BOLD
 72
1
 11
8.76375
 21
9.555
 31
0.0
100
AcDbText
  0
LWPOLYLINE
  5
226
330
17
100
AcDbEntity
  8
A-FLOR-STRS
100
AcDbPolyline
 90
4
 70
1
 10
8.594999999999999
 20
2.63
 10
8.9325
 20
2.63
 10
8.9325
 20
3.22375
 10
8.594999999999999
 20
3.22375
  0
LINE
  5
227
330
17
100
AcDbEntity
  8
A-FLOR-STRS
100
AcDbLine
 10
8.76375
 20
2.6925
 30
0.0
 11
8.76375
 21
3.16125
 31
0.0
  0
LINE
  5
228
330
17
100
AcDbEntity
  8
A-FLOR-STRS
100
AcDbLine
 10
8.594999999999999
 20
2.770625
 30
0.0
 11
8.932500000000001
 21
2.770625
 31
0.0
  0
LINE
  5
229
330
17
100
AcDbEntity
  8
A-FLOR-STRS
100
AcDbLine
 10
8.594999999999999
 20
2.84875
 30
0.0
 11
8.932500000000001
 21
2.84875
 31
0.0
  0
LINE
  5
22A
330
17
100
AcDbEntity
  8
A-FLOR-STRS
100
AcDbLine
 10
8.594999999999999
 20
2.926875
 30
0.0
 11
8.932500000000001
 21
2.926875
 31
0.0
  0
LINE
  5
22B
330
17
100
AcDbEntity
  8
A-FLOR-STRS
100
AcDbLine
 10
8.594999999999999
 20
3.005
 30
0.0
 11
8.932500000000001
 21
3.005
 31
0.0
  0
LINE
  5
22C
330
17
100
AcDbEntity
  8
A-FLOR-STRS
100
AcDbLine
 10
8.594999999999999
 20
3.083125
 30
0.0
 11
8.932500000000001
 21
3.083125
 31
0.0
  0
TEXT
  5
22D
330
17
100
AcDbEntity
  8
A-AREA-IDEN
100
AcDbText
 10
8.76375
 20
2.48625
 30
0.0
 40
0.056
  1
ST-3
  7
KS-BOLD
 72
1
 11
8.76375
 21
2.48625
 31
0.0
100
AcDbText
  0
LWPOLYLINE
  5
22E
330
17
100
AcDbEntity
  8
A-FLOR-STRS
100
AcDbPolyline
 90
4
 70
1
 10
3.954375
 20
2.63
 10
4.291875
 20
2.63
 10
4.291875
 20
3.22375
 10
3.954375
 20
3.22375
  0
LINE
  5
22F
330
17
100
AcDbEntity
  8
A-FLOR-STRS
100
AcDbLine
 10
4.123125
 20
2.6925
 30
0.0
 11
4.123125
 21
3.16125
 31
0.0
  0
LINE
  5
230
330
17
100
AcDbEntity
  8
A-FLOR-STRS
100
AcDbLine
 10
3.954375
 20
2.770625
 30
0.0
 11
4.291875
 21
2.770625
 31
0.0
  0
LINE
  5
231
330
17
100
AcDbEntity
  8
A-FLOR-STRS
100
AcDbLine
 10
3.954375
 20
2.84875
 30
0.0
 11
4.291875
 21
2.84875
 31
0.0
  0
LINE
  5
232
330
17
100
AcDbEntity
  8
A-FLOR-STRS
100
AcDbLine
 10
3.954375
 20
2.926875
 30
0.0
 11
4.291875
 21
2.926875
 31
0.0
  0
LINE
  5
233
330
17
100
AcDbEntity
  8
A-FLOR-STRS
100
AcDbLine
 10
3.954375
 20
3.005
 30
0.0
 11
4.291875
 21
3.005
 31
0.0
  0
LINE
  5
234
330
17
100
AcDbEntity
  8
A-FLOR-STRS
100
AcDbLine
 10
3.954375
 20
3.083125
 30
0.0
 11
4.291875
 21
3.083125
 31
0.0
  0
TEXT
  5
235
330
17
100
AcDbEntity
  8
A-AREA-IDEN
100
AcDbText
 10
4.123125
 20
2.48625
 30
0.0
 40
0.056
  1
ST-4
  7
KS-BOLD
 72
1
 11
4.123125
 21
2.48625
 31
0.0
100
AcDbText
  0
LWPOLYLINE
  5
236
330
17
100
AcDbEntity
  8
A-FLOR-STRS
100
AcDbPolyline
 90
4
 70
1
 10
1.90125
 20
2.63
 10
2.15125
 20
2.63
 10
2.15125
 20
2.88
 10
1.90125
 20
2.88
  0
LINE
  5
237
330
17
100
AcDbEntity
  8
A-FLOR-STRS
100
AcDbLine
 10
1.90125
 20
2.63
 30
0.0
 11
2.15125
 21
2.88
 31
0.0
  0
LINE
  5
238
330
17
100
AcDbEntity
  8
A-FLOR-STRS
100
AcDbLine
 10
1.90125
 20
2.88
 30
0.0
 11
2.15125
 21
2.63
 31
0.0
  0
TEXT
  5
239
330
17
100
AcDbEntity
  8
A-AREA-IDEN
100
AcDbText
 10
2.02625
 20
2.48625
 30
0.0
 40
0.056
  1
EL
  7
KS-BOLD
 72
1
 11
2.02625
 21
2.48625
 31
0.0
100
AcDbText
  0
LINE
  5
23A
330
17
100
AcDbEntity
  8
A-ANNO-DIMS
100
AcDbLine
 10
9.213750000000001
 20
8.567499999999999
 30
0.0
 11
9.213750000000001
 21
9.1175
 31
0.0
  0
LINE
  5
23B
330
17
100
AcDbEntity
  8
A-ANNO-DIMS
100
AcDbLine
 10
9.213750000000001
 20
9.1175
 30
0.0
 11
9.123750000000001
 21
8.927499999999998
 31
0.0
  0
LINE
  5
23C
330
17
100
AcDbEntity
  8
A-ANNO-DIMS
100
AcDbLine
 10
9.213750000000001
 20
9.1175
 30
0.0
 11
9.30375
 21
8.927499999999998
 31
0.0
  0
TEXT
  5
23D
330
17
100
AcDbEntity
  8
A-ANNO-DIMS
100
AcDbText
 10
9.213750000000001
 20
9.187499999999998
 30
0.0
 40
0.1
  1
N
  7
KS-BOLD
 72
1
 11
9.213750000000001
 21
9.187499999999998
 31
0.0
100
AcDbText
  0
TEXT
  5
23E
330
17
100
AcDbEntity
  8
A-ANNO-DIMS
100
AcDbText
 10
9.213750000000001
 20
8.437499999999998
 30
0.0
 40
0.056
  1
APPROX.
  7
KS-REG
 72
1
 11
9.213750000000001
 21
8.437499999999998
 31
0.0
100
AcDbText
  0
TEXT
  5
23F
330
17
100
AcDbEntity
  8
A-ANNO-DIMS
100
AcDbText
 10
9.213750000000001
 20
8.327499999999999
 30
0.0
 40
0.056
  1
SITE TBD
  7
KS-REG
 72
1
 11
9.213750000000001
 21
8.327499999999999
 31
0.0
100
AcDbText
  0
LWPOLYLINE
  5
240
330
17
100
AcDbEntity
  8
A-ANNO-DIMS
100
AcDbPolyline
 90
4
 70
1
 10
6.9325
 20
2.04875
 10
7.4325
 20
2.04875
 10
7.4325
 20
2.10875
 10
6.9325
 20
2.10875
  0
LINE
  5
241
330
17
100
AcDbEntity
  8
A-ANNO-DIMS
100
AcDbLine
 10
6.9325
 20
2.04875
 30
0.0
 11
7.4325
 21
2.1087499999999997
 31
0.0
  0
LWPOLYLINE
  5
242
330
17
100
AcDbEntity
  8
A-ANNO-DIMS
100
AcDbPolyline
 90
4
 70
1
 10
7.4325
 20
2.04875
 10
7.9325
 20
2.04875
 10
7.9325
 20
2.10875
 10
7.4325
 20
2.10875
  0
LWPOLYLINE
  5
243
330
17
100
AcDbEntity
  8
A-ANNO-DIMS
100
AcDbPolyline
 90
4
 70
1
 10
7.9325
 20
2.04875
 10
8.932500000000001
 20
2.04875
 10
8.932500000000001
 20
2.10875
 10
7.9325
 20
2.10875
  0
LINE
  5
244
330
17
100
AcDbEntity
  8
A-ANNO-DIMS
100
AcDbLine
 10
7.9325
 20
2.04875
 30
0.0
 11
8.932500000000001
 21
2.1087499999999997
 31
0.0
  0
TEXT
  5
245
330
17
100
AcDbEntity
  8
A-ANNO-DIMS
100
AcDbText
 10
6.9325
 20
1.92875
 30
0.0
 40
0.056
  1
0'
  7
KS-REG
 72
1
 11
6.9325
 21
1.92875
 31
0.0
100
AcDbText
  0
TEXT
  5
246
330
17
100
AcDbEntity
  8
A-ANNO-DIMS
100
AcDbText
 10
7.4325
 20
1.92875
 30
0.0
 40
0.056
  1
16'
  7
KS-REG
 72
1
 11
7.4325
 21
1.92875
 31
0.0
100
AcDbText
  0
TEXT
  5
247
330
17
100
AcDbEntity
  8
A-ANNO-DIMS
100
AcDbText
 10
7.9325
 20
1.92875
 30
0.0
 40
0.056
  1
32'
  7
KS-REG
 72
1
 11
7.9325
 21
1.92875
 31
0.0
100
AcDbText
  0
TEXT
  5
248
330
17
100
AcDbEntity
  8
A-ANNO-DIMS
100
AcDbText
 10
8.932500000000001
 20
1.92875
 30
0.0
 40
0.056
  1
64'
  7
KS-REG
 72
1
 11
8.932500000000001
 21
1.92875
 31
0.0
100
AcDbText
  0
LINE
  5
249
330
17
100
AcDbEntity
  8
A-ANNO-TEXT
100
AcDbLine
 10
9.782500000000002
 20
1.9700000000000002
 30
0.0
 11
9.782500000000002
 21
10.38
 31
0.0
  0
LWPOLYLINE
  5
24A
330
17
100
AcDbEntity
  8
A-ANNO-TEXT
100
AcDbPolyline
 90
4
 70
1
 10
9.982500000000002
 20
9.91
 10
16.28
 20
9.91
 10
16.28
 20
10.33
 10
9.982500000000002
 20
10.33
  0
TEXT
  5
24B
330
17
100
AcDbEntity
  8
A-ANNO-TEXT
100
AcDbText
 10
13.131250000000001
 20
10.040000000000001
 30
0.0
 40
0.13999999999999999
  1
SCHEMATIC — BLOCK PLAN
  7
KS-BOLD
 72
1
 11
13.131250000000001
 21
10.040000000000001
 31
0.0
100
AcDbText
  0
TEXT
  5
24C
330
17
100
AcDbEntity
  8
A-ANNO-TEXT
100
AcDbText
 10
9.982500000000002
 20
9.71
 30
0.0
 40
0.095
  1
LEGEND
  7
KS-BOLD
 11
9.982500000000002
 21
9.71
 31
0.0
100
AcDbText
  0
LINE
  5
24D
330
17
100
AcDbEntity
  8
A-ANNO-TEXT
100
AcDbLine
 10
10.032500000000002
 20
9.51
 30
0.0
 11
10.432500000000003
 21
9.51
 31
0.0
  0
TEXT
  5
24E
330
17
100
AcDbEntity
  8
A-ANNO-TEXT
100
AcDbText
 10
10.582500000000003
 20
9.47
 30
0.0
 40
0.072
  1
Upper tier, FIXED seating (6.0 SF/seat) — base
  7
KS-REG
 11
10.582500000000003
 21
9.47
 31
0.0
100
AcDbText
  0
LINE
  5
24F
330
17
100
AcDbEntity
  8
A-ANNO-TEXT
100
AcDbLine
 10
10.032500000000002
 20
9.32
 30
0.0
 11
10.112500000000002
 21
9.32
 31
0.0
  0
LINE
  5
250
330
17
100
AcDbEntity
  8
A-ANNO-TEXT
100
AcDbLine
 10
10.162500000000003
 20
9.32
 30
0.0
 11
10.242500000000003
 21
9.32
 31
0.0
  0
LINE
  5
251
330
17
100
AcDbEntity
  8
A-ANNO-TEXT
100
AcDbLine
 10
10.292500000000002
 20
9.32
 30
0.0
 11
10.372500000000002
 21
9.32
 31
0.0
  0
LINE
  5
252
330
17
100
AcDbEntity
  8
A-ANNO-TEXT
100
AcDbLine
 10
10.422500000000003
 20
9.32
 30
0.0
 11
10.432500000000003
 21
9.32
 31
0.0
  0
TEXT
  5
253
330
17
100
AcDbEntity
  8
A-ANNO-TEXT
100
AcDbText
 10
10.582500000000003
 20
9.280000000000001
 30
0.0
 40
0.072
  1
TELESCOPIC overlay: tier depth if bleachers (3.38 SF/seat) — D-009 OPEN
  7
KS-REG
 11
10.582500000000003
 21
9.280000000000001
 31
0.0
100
AcDbText
  0
LWPOLYLINE
  5
254
330
17
100
AcDbEntity
  8
A-ANNO-TEXT
100
AcDbPolyline
 90
4
 70
1
 10
10.112500000000002
 20
9.060000000000002
 10
10.352500000000003
 20
9.060000000000002
 10
10.352500000000003
 20
9.200000000000003
 10
10.112500000000002
 20
9.200000000000003
  0
LINE
  5
255
330
17
100
AcDbEntity
  8
A-ANNO-TEXT
100
AcDbLine
 10
10.112500000000002
 20
9.060000000000002
 30
0.0
 11
10.352500000000003
 21
9.200000000000001
 31
0.0
  0
TEXT
  5
256
330
17
100
AcDbEntity
  8
A-ANNO-TEXT
100
AcDbText
 10
10.582500000000003
 20
9.090000000000002
 30
0.0
 40
0.072
  1
Open to below
  7
KS-REG
 11
10.582500000000003
 21
9.090000000000002
 31
0.0
100
AcDbText
  0
LWPOLYLINE
  5
257
330
17
100
AcDbEntity
  8
A-ANNO-TEXT
100
AcDbPolyline
 90
4
 70
1
 10
10.112500000000002
 20
8.870000000000003
 10
10.352500000000003
 20
8.870000000000003
 10
10.352500000000003
 20
9.010000000000003
 10
10.112500000000002
 20
9.010000000000003
  0
TEXT
  5
258
330
17
100
AcDbEntity
  8
A-ANNO-TEXT
100
AcDbText
 10
10.582500000000003
 20
8.900000000000002
 30
0.0
 40
0.072
  1
Room block (tag number + drawn SF)
  7
KS-REG
 11
10.582500000000003
 21
8.900000000000002
 31
0.0
100
AcDbText
  0
LWPOLYLINE
  5
259
330
17
100
AcDbEntity
  8
A-ANNO-TEXT
100
AcDbPolyline
 90
4
 70
1
 10
10.112500000000002
 20
8.680000000000003
 10
10.232500000000002
 20
8.680000000000003
 10
10.232500000000002
 20
8.820000000000004
 10
10.112500000000002
 20
8.820000000000004
  0
LWPOLYLINE
  5
25A
330
17
100
AcDbEntity
  8
A-ANNO-TEXT
100
AcDbPolyline
 90
4
 70
1
 10
10.272500000000003
 20
8.680000000000003
 10
10.392500000000002
 20
8.680000000000003
 10
10.392500000000002
 20
8.820000000000004
 10
10.272500000000003
 20
8.820000000000004
  0
LINE
  5
25B
330
17
100
AcDbEntity
  8
A-ANNO-TEXT
100
AcDbLine
 10
10.272500000000003
 20
8.680000000000003
 30
0.0
 11
10.392500000000002
 21
8.820000000000002
 31
0.0
  0
TEXT
  5
25C
330
17
100
AcDbEntity
  8
A-ANNO-TEXT
100
AcDbText
 10
10.582500000000003
 20
8.710000000000003
 30
0.0
 40
0.072
  1
Stair (4) / elevator (X), aligned on both levels
  7
KS-REG
 11
10.582500000000003
 21
8.710000000000003
 31
0.0
100
AcDbText
  0
TEXT
  5
25D
330
17
100
AcDbEntity
  8
A-ANNO-TEXT
100
AcDbText
 10
9.982500000000002
 20
8.410000000000002
 30
0.0
 40
0.095
  1
ROOM SCHEDULE — LEVEL 2 (drawn vs locked program, P2-G-003 Rev D, fixed)
  7
KS-BOLD
 11
9.982500000000002
 21
8.410000000000002
 31
0.0
100
AcDbText
  0
TEXT
  5
25E
330
17
100
AcDbEntity
  8
A-ANNO-TABL
100
AcDbText
 10
9.982500000000002
 20
8.272000000000002
 30
0.0
 40
0.06799999999999999
  1
TAG
  7
KS-BOLD
 11
9.982500000000002
 21
8.272000000000002
 31
0.0
100
AcDbText
  0
TEXT
  5
25F
330
17
100
AcDbEntity
  8
A-ANNO-TABL
100
AcDbText
 10
10.342500000000001
 20
8.272000000000002
 30
0.0
 40
0.06799999999999999
  1
ROOM
  7
KS-BOLD
 11
10.342500000000001
 21
8.272000000000002
 31
0.0
100
AcDbText
  0
TEXT
  5
260
330
17
100
AcDbEntity
  8
A-ANNO-TABL
100
AcDbText
 10
12.632500000000002
 20
8.272000000000002
 30
0.0
 40
0.06799999999999999
  1
DRAWN SF
  7
KS-BOLD
 72
2
 11
12.632500000000002
 21
8.272000000000002
 31
0.0
100
AcDbText
  0
TEXT
  5
261
330
17
100
AcDbEntity
  8
A-ANNO-TABL
100
AcDbText
 10
13.332500000000001
 20
8.272000000000002
 30
0.0
 40
0.06799999999999999
  1
PROGRAM
  7
KS-BOLD
 72
2
 11
13.332500000000001
 21
8.272000000000002
 31
0.0
100
AcDbText
  0
TEXT
  5
262
330
17
100
AcDbEntity
  8
A-ANNO-TABL
100
AcDbText
 10
13.482500000000002
 20
8.272000000000002
 30
0.0
 40
0.06799999999999999
  1
NOTE
  7
KS-BOLD
 11
13.482500000000002
 21
8.272000000000002
 31
0.0
100
AcDbText
  0
LINE
  5
263
330
17
100
AcDbEntity
  8
A-ANNO-TABL
100
AcDbLine
 10
9.982500000000002
 20
8.212000000000003
 30
0.0
 11
16.28
 21
8.212000000000003
 31
0.0
  0
TEXT
  5
264
330
17
100
AcDbEntity
  8
A-ANNO-TABL
100
AcDbText
 10
9.982500000000002
 20
8.094000000000003
 30
0.0
 40
0.06999999999999999
  1
—
  7
KS-REG
 11
9.982500000000002
 21
8.094000000000003
 31
0.0
100
AcDbText
  0
TEXT
  5
265
330
17
100
AcDbEntity
  8
A-ANNO-TABL
100
AcDbText
 10
10.342500000000001
 20
8.094000000000003
 30
0.0
 40
0.06999999999999999
  1
Upper tier, fixed (~1,100 seats)
  7
KS-REG
 11
10.342500000000001
 21
8.094000000000003
 31
0.0
100
AcDbText
  0
TEXT
  5
266
330
17
100
AcDbEntity
  8
A-ANNO-TABL
100
AcDbText
 10
12.632500000000002
 20
8.094000000000003
 30
0.0
 40
0.06999999999999999
  1
6,570
  7
KS-REG
 72
2
 11
12.632500000000002
 21
8.094000000000003
 31
0.0
100
AcDbText
  0
TEXT
  5
267
330
17
100
AcDbEntity
  8
A-ANNO-TABL
100
AcDbText
 10
13.332500000000001
 20
8.094000000000003
 30
0.0
 40
0.06999999999999999
  1
6,600
  7
KS-REG
 72
2
 11
13.332500000000001
 21
8.094000000000003
 31
0.0
100
AcDbText
  0
TEXT
  5
268
330
17
100
AcDbEntity
  8
A-ANNO-TABL
100
AcDbText
 10
13.482500000000002
 20
8.094000000000003
 30
0.0
 40
0.064
  1
telescopic line 8.5' deep
  7
KS-REG
 11
13.482500000000002
 21
8.094000000000003
 31
0.0
100
AcDbText
  0
TEXT
  5
269
330
17
100
AcDbEntity
  8
A-ANNO-TABL
100
AcDbText
 10
9.982500000000002
 20
7.936000000000003
 30
0.0
 40
0.06999999999999999
  1
16
  7
KS-REG
 11
9.982500000000002
 21
7.936000000000003
 31
0.0
100
AcDbText
  0
TEXT
  5
26A
330
17
100
AcDbEntity
  8
A-ANNO-TABL
100
AcDbText
 10
10.342500000000001
 20
7.936000000000003
 30
0.0
 40
0.06999999999999999
  1
Strength & Conditioning
  7
KS-REG
 11
10.342500000000001
 21
7.936000000000003
 31
0.0
100
AcDbText
  0
TEXT
  5
26B
330
17
100
AcDbEntity
  8
A-ANNO-TABL
100
AcDbText
 10
12.632500000000002
 20
7.936000000000003
 30
0.0
 40
0.06999999999999999
  1
5,998
  7
KS-REG
 72
2
 11
12.632500000000002
 21
7.936000000000003
 31
0.0
100
AcDbText
  0
TEXT
  5
26C
330
17
100
AcDbEntity
  8
A-ANNO-TABL
100
AcDbText
 10
13.332500000000001
 20
7.936000000000003
 30
0.0
 40
0.06999999999999999
  1
6,000
  7
KS-REG
 72
2
 11
13.332500000000001
 21
7.936000000000003
 31
0.0
100
AcDbText
  0
TEXT
  5
26D
330
17
100
AcDbEntity
  8
A-ANNO-TABL
100
AcDbText
 10
13.482500000000002
 20
7.936000000000003
 30
0.0
 40
0.064
  1
Level 2 over the lockers (D-030)
  7
KS-REG
 11
13.482500000000002
 21
7.936000000000003
 31
0.0
100
AcDbText
  0
TEXT
  5
26E
330
17
100
AcDbEntity
  8
A-ANNO-TABL
100
AcDbText
 10
9.982500000000002
 20
7.778000000000002
 30
0.0
 40
0.06999999999999999
  1
17
  7
KS-REG
 11
9.982500000000002
 21
7.778000000000002
 31
0.0
100
AcDbText
  0
TEXT
  5
26F
330
17
100
AcDbEntity
  8
A-ANNO-TABL
100
AcDbText
 10
10.342500000000001
 20
7.778000000000002
 30
0.0
 40
0.06999999999999999
  1
Cross-Training Mat Area
  7
KS-REG
 11
10.342500000000001
 21
7.778000000000002
 31
0.0
100
AcDbText
  0
TEXT
  5
270
330
17
100
AcDbEntity
  8
A-ANNO-TABL
100
AcDbText
 10
12.632500000000002
 20
7.778000000000002
 30
0.0
 40
0.06999999999999999
  1
4,002
  7
KS-REG
 72
2
 11
12.632500000000002
 21
7.778000000000002
 31
0.0
100
AcDbText
  0
TEXT
  5
271
330
17
100
AcDbEntity
  8
A-ANNO-TABL
100
AcDbText
 10
13.332500000000001
 20
7.778000000000002
 30
0.0
 40
0.06999999999999999
  1
4,000
  7
KS-REG
 72
2
 11
13.332500000000001
 21
7.778000000000002
 31
0.0
100
AcDbText
  0
TEXT
  5
272
330
17
100
AcDbEntity
  8
A-ANNO-TABL
100
AcDbText
 10
13.482500000000002
 20
7.778000000000002
 30
0.0
 40
0.064
  1
Level 2 over girls locker + mech (D-030)
  7
KS-REG
 11
13.482500000000002
 21
7.778000000000002
 31
0.0
100
AcDbText
  0
TEXT
  5
273
330
17
100
AcDbEntity
  8
A-ANNO-TABL
100
AcDbText
 10
9.982500000000002
 20
7.620000000000002
 30
0.0
 40
0.06999999999999999
  1
18
  7
KS-REG
 11
9.982500000000002
 21
7.620000000000002
 31
0.0
100
AcDbText
  0
TEXT
  5
274
330
17
100
AcDbEntity
  8
A-ANNO-TABL
100
AcDbText
 10
10.342500000000001
 20
7.620000000000002
 30
0.0
 40
0.06999999999999999
  1
Men
  7
KS-REG
 11
10.342500000000001
 21
7.620000000000002
 31
0.0
100
AcDbText
  0
TEXT
  5
275
330
17
100
AcDbEntity
  8
A-ANNO-TABL
100
AcDbText
 10
12.632500000000002
 20
7.620000000000002
 30
0.0
 40
0.06999999999999999
  1
550
  7
KS-REG
 72
2
 11
12.632500000000002
 21
7.620000000000002
 31
0.0
100
AcDbText
  0
TEXT
  5
276
330
17
100
AcDbEntity
  8
A-ANNO-TABL
100
AcDbText
 10
13.332500000000001
 20
7.620000000000002
 30
0.0
 40
0.06999999999999999
  1
550
  7
KS-REG
 72
2
 11
13.332500000000001
 21
7.620000000000002
 31
0.0
100
AcDbText
  0
TEXT
  5
277
330
17
100
AcDbEntity
  8
A-ANNO-TABL
100
AcDbText
 10
13.482500000000002
 20
7.620000000000002
 30
0.0
 40
0.064
  1
11 fixtures (WC 8, LAV 3; urinals ≤ 5 of the WCs)
  7
KS-REG
 11
13.482500000000002
 21
7.620000000000002
 31
0.0
100
AcDbText
  0
TEXT
  5
278
330
17
100
AcDbEntity
  8
A-ANNO-TABL
100
AcDbText
 10
9.982500000000002
 20
7.4620000000000015
 30
0.0
 40
0.06999999999999999
  1
19
  7
KS-REG
 11
9.982500000000002
 21
7.4620000000000015
 31
0.0
100
AcDbText
  0
TEXT
  5
279
330
17
100
AcDbEntity
  8
A-ANNO-TABL
100
AcDbText
 10
10.342500000000001
 20
7.4620000000000015
 30
0.0
 40
0.06999999999999999
  1
Women
  7
KS-REG
 11
10.342500000000001
 21
7.4620000000000015
 31
0.0
100
AcDbText
  0
TEXT
  5
27A
330
17
100
AcDbEntity
  8
A-ANNO-TABL
100
AcDbText
 10
12.632500000000002
 20
7.4620000000000015
 30
0.0
 40
0.06999999999999999
  1
900
  7
KS-REG
 72
2
 11
12.632500000000002
 21
7.4620000000000015
 31
0.0
100
AcDbText
  0
TEXT
  5
27B
330
17
100
AcDbEntity
  8
A-ANNO-TABL
100
AcDbText
 10
13.332500000000001
 20
7.4620000000000015
 30
0.0
 40
0.06999999999999999
  1
900
  7
KS-REG
 72
2
 11
13.332500000000001
 21
7.4620000000000015
 31
0.0
100
AcDbText
  0
TEXT
  5
27C
330
17
100
AcDbEntity
  8
A-ANNO-TABL
100
AcDbText
 10
13.482500000000002
 20
7.4620000000000015
 30
0.0
 40
0.064
  1
18 fixtures (WC 14, LAV 4)
  7
KS-REG
 11
13.482500000000002
 21
7.4620000000000015
 31
0.0
100
AcDbText
  0
TEXT
  5
27D
330
17
100
AcDbEntity
  8
A-ANNO-TABL
100
AcDbText
 10
9.982500000000002
 20
7.304000000000001
 30
0.0
 40
0.06999999999999999
  1
20
  7
KS-REG
 11
9.982500000000002
 21
7.304000000000001
 31
0.0
100
AcDbText
  0
TEXT
  5
27E
330
17
100
AcDbEntity
  8
A-ANNO-TABL
100
AcDbText
 10
10.342500000000001
 20
7.304000000000001
 30
0.0
 40
0.06999999999999999
  1
Admin
  7
KS-REG
 11
10.342500000000001
 21
7.304000000000001
 31
0.0
100
AcDbText
  0
TEXT
  5
27F
330
17
100
AcDbEntity
  8
A-ANNO-TABL
100
AcDbText
 10
12.632500000000002
 20
7.304000000000001
 30
0.0
 40
0.06999999999999999
  1
470
  7
KS-REG
 72
2
 11
12.632500000000002
 21
7.304000000000001
 31
0.0
100
AcDbText
  0
TEXT
  5
280
330
17
100
AcDbEntity
  8
A-ANNO-TABL
100
AcDbText
 10
13.332500000000001
 20
7.304000000000001
 30
0.0
 40
0.06999999999999999
  1
470
  7
KS-REG
 72
2
 11
13.332500000000001
 21
7.304000000000001
 31
0.0
100
AcDbText
  0
TEXT
  5
281
330
17
100
AcDbEntity
  8
A-ANNO-TABL
100
AcDbText
 10
13.482500000000002
 20
7.304000000000001
 30
0.0
 40
0.064
  1

  7
KS-REG
 11
13.482500000000002
 21
7.304000000000001
 31
0.0
100
AcDbText
  0
LINE
  5
282
330
17
100
AcDbEntity
  8
A-ANNO-TABL
100
AcDbLine
 10
9.982500000000002
 20
7.254000000000001
 30
0.0
 11
16.28
 21
7.254000000000001
 31
0.0
  0
TEXT
  5
283
330
17
100
AcDbEntity
  8
A-ANNO-TEXT
100
AcDbText
 10
9.982500000000002
 20
7.064000000000001
 30
0.0
 40
0.095
  1
AREA CHECK
  7
KS-BOLD
 11
9.982500000000002
 21
7.064000000000001
 31
0.0
100
AcDbText
  0
TEXT
  5
284
330
17
100
AcDbEntity
  8
A-ANNO-TEXT
100
AcDbText
 10
9.982500000000002
 20
6.924766666666668
 30
0.0
 40
0.073
  1
Drawn L2 floor 27,570 SF (footprint minus open-to-below) vs program L2 gross 25,981 fixed / 22,380 telescopic; the extra
  7
KS-REG
 11
9.982500000000002
 21
6.924766666666668
 31
0.0
100
AcDbText
  0
TEXT
  5
285
330
17
100
AcDbEntity
  8
A-ANNO-TEXT
100
AcDbText
 10
9.982500000000002
 20
6.790933333333334
 30
0.0
 40
0.073
  1
is rear walkways and the upper concourse. Total drawn ≈ 82,570 vs 80,930 program GSF. L2 sits over the L1 ring, nothing
  7
KS-REG
 11
9.982500000000002
 21
6.790933333333334
 31
0.0
100
AcDbText
  0
TEXT
  5
286
330
17
100
AcDbEntity
  8
A-ANNO-TEXT
100
AcDbText
 10
9.982500000000002
 20
6.657100000000001
 30
0.0
 40
0.073
  1
over the arena volume. Fixtures: L2 load 1,100 → 29, stacked over L1 rooms. Stair widths: 65 in (R-015).
  7
KS-REG
 11
9.982500000000002
 21
6.657100000000001
 31
0.0
100
AcDbText
  0
TEXT
  5
287
330
17
100
AcDbEntity
  8
A-ANNO-TEXT
100
AcDbText
 10
9.982500000000002
 20
6.469041666666668
 30
0.0
 40
0.09
  1
LAYOUT NOTES (KEYSTONE, ASSUMED — architect to confirm)
  7
KS-BOLD
 11
9.982500000000002
 21
6.469041666666668
 31
0.0
100
AcDbText
  0
TEXT
  5
288
330
17
100
AcDbEntity
  8
A-ANNO-TEXT
100
AcDbText
 10
9.982500000000002
 20
6.354708333333335
 30
0.0
 40
0.06999999999999999
  1
·
  7
KS-REG
 11
9.982500000000002
 21
6.354708333333335
 31
0.0
100
AcDbText
  0
TEXT
  5
289
330
17
100
AcDbEntity
  8
A-ANNO-TEXT
100
AcDbText
 10
10.102500000000001
 20
6.354708333333335
 30
0.0
 40
0.06999999999999999
  1
S&C + cross-training on Level 2 over the lockers (D-030); gym floor loads → structural engineer.
  7
KS-REG
 11
10.102500000000001
 21
6.354708333333335
 31
0.0
100
AcDbText
  0
TEXT
  5
28A
330
17
100
AcDbEntity
  8
A-ANNO-TEXT
100
AcDbText
 10
9.982500000000002
 20
6.214291666666668
 30
0.0
 40
0.06999999999999999
  1
·
  7
KS-REG
 11
9.982500000000002
 21
6.214291666666668
 31
0.0
100
AcDbText
  0
TEXT
  5
28B
330
17
100
AcDbEntity
  8
A-ANNO-TEXT
100
AcDbText
 10
10.102500000000001
 20
6.214291666666668
 30
0.0
 40
0.06999999999999999
  1
Restrooms + admin stacked over L1 restrooms; L2 corridor + bridge connect the stairs, elevator and upper concourse.
  7
KS-REG
 11
10.102500000000001
 21
6.214291666666668
 31
0.0
100
AcDbText
  0
TEXT
  5
28C
330
17
100
AcDbEntity
  8
A-ANNO-TEXT
100
AcDbText
 10
9.982500000000002
 20
6.073875000000001
 30
0.0
 40
0.06999999999999999
  1
·
  7
KS-REG
 11
9.982500000000002
 21
6.073875000000001
 31
0.0
100
AcDbText
  0
TEXT
  5
28D
330
17
100
AcDbEntity
  8
A-ANNO-TEXT
100
AcDbText
 10
10.102500000000001
 20
6.073875000000001
 30
0.0
 40
0.06999999999999999
  1
Upper tier 15 ft deep on N, S and E over the L1 ring; rear walkways N and S. Suites PARKED (none drawn).
  7
KS-REG
 11
10.102500000000001
 21
6.073875000000001
 31
0.0
100
AcDbText
  0
TEXT
  5
28E
330
17
100
AcDbEntity
  8
A-ANNO-TEXT
100
AcDbText
 10
9.982500000000002
 20
5.933458333333334
 30
0.0
 40
0.06999999999999999
  1
·
  7
KS-REG
 11
9.982500000000002
 21
5.933458333333334
 31
0.0
100
AcDbText
  0
TEXT
  5
28F
330
17
100
AcDbEntity
  8
A-ANNO-TEXT
100
AcDbText
 10
10.102500000000001
 20
5.933458333333334
 30
0.0
 40
0.06999999999999999
  1
Exit separation, travel distance, sightlines and structure NOT checked. Floor-to-floor 15 ft ASSUMED.
  7
KS-REG
 11
10.102500000000001
 21
5.933458333333334
 31
0.0
100
AcDbText
  0
TEXT
  5
290
330
17
100
AcDbEntity
  8
A-ANNO-TEXT
100
AcDbText
 10
9.982500000000002
 20
5.759575000000001
 30
0.0
 40
0.06599999999999999
  1
Sources: phase2.yaml (locked, D-030, D-031); P2-G-003 Rev D; R-005, R-008, R-009, R-012, R-014, R-015; reference plan (Shane).
  7
KS-REG
 11
9.982500000000002
 21
5.759575000000001
 31
0.0
100
AcDbText
  0
TEXT
  5
291
330
17
100
AcDbEntity
  8
A-ANNO-TEXT
100
AcDbText
 10
9.982500000000002
 20
5.638575
 30
0.0
 40
0.06599999999999999
  1
Geometry: params/phase2_plan.yaml.
  7
KS-REG
 11
9.982500000000002
 21
5.638575
 31
0.0
100
AcDbText
  0
ENDSEC
  0
SECTION
  2
OBJECTS
  0
DICTIONARY
  5
A
330
0
100
AcDbDictionary
281
1
  3
ACAD_COLOR
350
B
  3
ACAD_GROUP
350
C
  3
ACAD_LAYOUT
350
D
  3
ACAD_MATERIAL
350
E
  3
ACAD_MLEADERSTYLE
350
F
  3
ACAD_MLINESTYLE
350
10
  3
ACAD_PLOTSETTINGS
350
11
  3
ACAD_PLOTSTYLENAME
350
12
  3
ACAD_SCALELIST
350
14
  3
ACAD_TABLESTYLE
350
15
  3
ACAD_VISUALSTYLE
350
16
  3
EZDXF_META
350
2D
  0
DICTIONARY
  5
B
330
A
100
AcDbDictionary
281
1
  0
DICTIONARY
  5
C
330
A
100
AcDbDictionary
281
1
  0
DICTIONARY
  5
D
330
A
100
AcDbDictionary
281
1
  3
Model
350
1A
  3
Layout1
350
1E
  0
DICTIONARY
  5
E
330
A
100
AcDbDictionary
281
1
  3
ByBlock
350
1F
  3
ByLayer
350
20
  3
Global
350
21
  0
DICTIONARY
  5
F
330
A
100
AcDbDictionary
281
1
  3
Standard
350
2C
  0
DICTIONARY
  5
10
330
A
100
AcDbDictionary
281
1
  3
Standard
350
22
  0
DICTIONARY
  5
11
330
A
100
AcDbDictionary
281
1
  0
ACDBDICTIONARYWDFLT
  5
12
330
A
100
AcDbDictionary
281
1
  3
Normal
350
13
100
AcDbDictionaryWithDefault
340
13
  0
ACDBPLACEHOLDER
  5
13
330
12
  0
DICTIONARY
  5
14
330
A
100
AcDbDictionary
281
1
  0
DICTIONARY
  5
15
330
A
100
AcDbDictionary
281
1
  0
DICTIONARY
  5
16
330
A
100
AcDbDictionary
281
1
  0
LAYOUT
  5
1A
330
D
100
AcDbPlotSettings
  1

  4
A3
  6

 40
7.5
 41
20.0
 42
7.5
 43
20.0
 44
420.0
 45
297.0
 46
0.0
 47
0.0
 48
0.0
 49
0.0
140
0.0
141
0.0
142
1.0
143
1.0
 70
1024
 72
1
 73
0
 74
5
  7

 75
16
 76
0
 77
2
 78
300
147
1.0
148
0.0
149
0.0
100
AcDbLayout
  1
Model
 70
1
 71
0
 10
0.0
 20
0.0
 11
420.0
 21
297.0
 12
0.0
 22
0.0
 32
0.0
 14
1e+20
 24
1e+20
 34
1e+20
 15
-1e+20
 25
-1e+20
 35
-1e+20
146
0.0
 13
0.0
 23
0.0
 33
0.0
 16
1.0
 26
0.0
 36
0.0
 17
0.0
 27
1.0
 37
0.0
 76
1
330
17
  0
LAYOUT
  5
1E
330
D
100
AcDbPlotSettings
  1

  4
A3
  6

 40
7.5
 41
20.0
 42
7.5
 43
20.0
 44
420.0
 45
297.0
 46
0.0
 47
0.0
 48
0.0
 49
0.0
140
0.0
141
0.0
142
1.0
143
1.0
 70
0
 72
1
 73
0
 74
5
  7

 75
16
 76
0
 77
2
 78
300
147
1.0
148
0.0
149
0.0
100
AcDbLayout
  1
Layout1
 70
1
 71
1
 10
0.0
 20
0.0
 11
420.0
 21
297.0
 12
0.0
 22
0.0
 32
0.0
 14
1e+20
 24
1e+20
 34
1e+20
 15
-1e+20
 25
-1e+20
 35
-1e+20
146
0.0
 13
0.0
 23
0.0
 33
0.0
 16
1.0
 26
0.0
 36
0.0
 17
0.0
 27
1.0
 37
0.0
 76
1
330
1B
  0
MATERIAL
  5
1F
102
{ACAD_REACTORS
330
E
102
}
330
E
100
AcDbMaterial
  1
ByBlock
  2

 70
0
 40
1.0
 71
1
 41
1.0
 91
-1023410177
 42
1.0
 72
1
  3

 73
1
 74
1
 75
1
 44
0.5
 73
0
 45
1.0
 46
1.0
 77
1
  4

 78
1
 79
1
170
1
 48
1.0
171
1
  6

172
1
173
1
174
1
140
1.0
141
1.0
175
1
  7

176
1
177
1
178
1
143
1.0
179
1
  8

270
1
271
1
272
1
145
1.0
146
1.0
273
1
  9

274
1
275
1
276
1
 42
1.0
 72
1
  3

 73
1
 74
1
 75
1
 94
63
  0
MATERIAL
  5
20
102
{ACAD_REACTORS
330
E
102
}
330
E
100
AcDbMaterial
  1
ByLayer
  2

 70
0
 40
1.0
 71
1
 41
1.0
 91
-1023410177
 42
1.0
 72
1
  3

 73
1
 74
1
 75
1
 44
0.5
 73
0
 45
1.0
 46
1.0
 77
1
  4

 78
1
 79
1
170
1
 48
1.0
171
1
  6

172
1
173
1
174
1
140
1.0
141
1.0
175
1
  7

176
1
177
1
178
1
143
1.0
179
1
  8

270
1
271
1
272
1
145
1.0
146
1.0
273
1
  9

274
1
275
1
276
1
 42
1.0
 72
1
  3

 73
1
 74
1
 75
1
 94
63
  0
MATERIAL
  5
21
102
{ACAD_REACTORS
330
E
102
}
330
E
100
AcDbMaterial
  1
Global
  2

 70
0
 40
1.0
 71
1
 41
1.0
 91
-1023410177
 42
1.0
 72
1
  3

 73
1
 74
1
 75
1
 44
0.5
 73
0
 45
1.0
 46
1.0
 77
1
  4

 78
1
 79
1
170
1
 48
1.0
171
1
  6

172
1
173
1
174
1
140
1.0
141
1.0
175
1
  7

176
1
177
1
178
1
143
1.0
179
1
  8

270
1
271
1
272
1
145
1.0
146
1.0
273
1
  9

274
1
275
1
276
1
 42
1.0
 72
1
  3

 73
1
 74
1
 75
1
 94
63
  0
MLINESTYLE
  5
22
102
{ACAD_REACTORS
330
10
102
}
330
10
100
AcDbMlineStyle
  2
Standard
 70
0
  3

 62
256
 51
90.0
 52
90.0
 71
2
 49
0.5
 62
256
  6
BYLAYER
 49
-0.5
 62
256
  6
BYLAYER
  0
MLEADERSTYLE
  5
2C
102
{ACAD_REACTORS
330
F
102
}
330
F
100
AcDbMLeaderStyle
179
2
170
2
171
1
172
0
 90
2
 40
0.0
 41
0.0
173
1
 91
-1056964608
 92
-2
290
1
 42
2.0
291
1
 43
8.0
  3
Standard
 44
4.0
300

342
29
174
1
175
1
176
0
178
1
 93
-1056964608
 45
4.0
292
0
297
0
 46
4.0
 94
-1056964608
 47
1.0
 49
1.0
140
1.0
294
1
141
0.0
177
0
142
1.0
295
0
296
0
143
3.75
271
0
272
9
273
9
  0
DICTIONARY
  5
2D
330
A
100
AcDbDictionary
280
1
281
1
  3
CREATED_BY_EZDXF
350
2E
  3
WRITTEN_BY_EZDXF
350
294
  0
DICTIONARYVAR
  5
2E
330
2D
100
DictionaryVariables
280
0
  1
1.4.4 @ 2026-10-04T04:49:37.130093+00:00
  0
DICTIONARYVAR
  5
294
330
2D
100
DictionaryVariables
280
0
  1
1.4.4 @ 2026-10-04T04:49:37.143522+00:00
  0
ENDSEC
  0
EOF
