  0
SECTION
  2
HEADER
  9
$ACADVER
  1
AC1024
  9
$ACADMAINTVER
 70
6
  9
$DWGCODEPAGE
  3
ANSI_1252
  9
$LASTSAVEDBY
  1
ezdxf
  9
$INSBASE
 10
0.0
 20
0.0
 30
0.0
  9
$EXTMIN
 10
1e+20
 20
1e+20
 30
1e+20
  9
$EXTMAX
 10
-1e+20
 20
-1e+20
 30
-1e+20
  9
$LIMMIN
 10
0.0
 20
0.0
  9
$LIMMAX
 10
420.0
 20
297.0
  9
$ORTHOMODE
 70
0
  9
$REGENMODE
 70
1
  9
$FILLMODE
 70
1
  9
$QTEXTMODE
 70
0
  9
$MIRRTEXT
 70
1
  9
$LTSCALE
 40
1.0
  9
$ATTMODE
 70
1
  9
$TEXTSIZE
 40
2.5
  9
$TRACEWID
 40
1.0
  9
$TEXTSTYLE
  7
Standard
  9
$CLAYER
  8
0
  9
$CELTYPE
  6
ByLayer
  9
$CECOLOR
 62
256
  9
$CELTSCALE
 40
1.0
  9
$DISPSILH
 70
0
  9
$DIMSCALE
 40
1.0
  9
$DIMASZ
 40
2.5
  9
$DIMEXO
 40
0.625
  9
$DIMDLI
 40
3.75
  9
$DIMRND
 40
0.0
  9
$DIMDLE
 40
0.0
  9
$DIMEXE
 40
1.25
  9
$DIMTP
 40
0.0
  9
$DIMTM
 40
0.0
  9
$DIMTXT
 40
2.5
  9
$DIMCEN
 40
2.5
  9
$DIMTSZ
 40
0.0
  9
$DIMTOL
 70
0
  9
$DIMLIM
 70
0
  9
$DIMTIH
 70
0
  9
$DIMTOH
 70
0
  9
$DIMSE1
 70
0
  9
$DIMSE2
 70
0
  9
$DIMTAD
 70
1
  9
$DIMZIN
 70
8
  9
$DIMBLK
  1

  9
$DIMASO
 70
1
  9
$DIMSHO
 70
1
  9
$DIMPOST
  1

  9
$DIMAPOST
  1

  9
$DIMALT
 70
0
  9
$DIMALTD
 70
3
  9
$DIMALTF
 40
0.03937007874
  9
$DIMLFAC
 40
1.0
  9
$DIMTOFL
 70
1
  9
$DIMTVP
 40
0.0
  9
$DIMTIX
 70
0
  9
$DIMSOXD
 70
0
  9
$DIMSAH
 70
0
  9
$DIMBLK1
  1

  9
$DIMBLK2
  1

  9
$DIMSTYLE
  2
ISO-25
  9
$DIMCLRD
 70
0
  9
$DIMCLRE
 70
0
  9
$DIMCLRT
 70
0
  9
$DIMTFAC
 40
1.0
  9
$DIMGAP
 40
0.625
  9
$DIMJUST
 70
0
  9
$DIMSD1
 70
0
  9
$DIMSD2
 70
0
  9
$DIMTOLJ
 70
0
  9
$DIMTZIN
 70
8
  9
$DIMALTZ
 70
0
  9
$DIMALTTZ
 70
0
  9
$DIMUPT
 70
0
  9
$DIMDEC
 70
2
  9
$DIMTDEC
 70
2
  9
$DIMALTU
 70
2
  9
$DIMALTTD
 70
3
  9
$DIMTXSTY
  7
Standard
  9
$DIMAUNIT
 70
0
  9
$DIMADEC
 70
0
  9
$DIMALTRND
 40
0.0
  9
$DIMAZIN
 70
0
  9
$DIMDSEP
 70
44
  9
$DIMATFIT
 70
3
  9
$DIMFRAC
 70
0
  9
$DIMLDRBLK
  1

  9
$DIMLUNIT
 70
2
  9
$DIMLWD
 70
-2
  9
$DIMLWE
 70
-2
  9
$DIMTMOVE
 70
0
  9
$DIMFXL
 40
1.0
  9
$DIMFXLON
 70
0
  9
$DIMJOGANG
 40
0.785398163397
  9
$DIMTFILL
 70
0
  9
$DIMTFILLCLR
 70
0
  9
$DIMARCSYM
 70
0
  9
$DIMLTYPE
  6

  9
$DIMLTEX1
  6

  9
$DIMLTEX2
  6

  9
$DIMTXTDIRECTION
 70
0
  9
$LUNITS
 70
2
  9
$LUPREC
 70
4
  9
$SKETCHINC
 40
1.0
  9
$FILLETRAD
 40
10.0
  9
$AUNITS
 70
0
  9
$AUPREC
 70
2
  9
$MENU
  1
.
  9
$ELEVATION
 40
0.0
  9
$PELEVATION
 40
0.0
  9
$THICKNESS
 40
0.0
  9
$LIMCHECK
 70
0
  9
$CHAMFERA
 40
0.0
  9
$CHAMFERB
 40
0.0
  9
$CHAMFERC
 40
0.0
  9
$CHAMFERD
 40
0.0
  9
$SKPOLY
 70
0
  9
$TDCREATE
 40
2461318.2342592594
  9
$TDUCREATE
 40
2458532.153996898
  9
$TDUPDATE
 40
2461318.2342592594
  9
$TDUUPDATE
 40
2458532.1544311
  9
$TDINDWG
 40
0.0
  9
$TDUSRTIMER
 40
0.0
  9
$USRTIMER
 70
1
  9
$ANGBASE
 50
0.0
  9
$ANGDIR
 70
0
  9
$PDMODE
 70
0
  9
$PDSIZE
 40
0.0
  9
$PLINEWID
 40
0.0
  9
$SPLFRAME
 70
0
  9
$SPLINETYPE
 70
6
  9
$SPLINESEGS
 70
8
  9
$HANDSEED
  5
3AC
  9
$SURFTAB1
 70
6
  9
$SURFTAB2
 70
6
  9
$SURFTYPE
 70
6
  9
$SURFU
 70
6
  9
$SURFV
 70
6
  9
$UCSBASE
  2

  9
$UCSNAME
  2

  9
$UCSORG
 10
0.0
 20
0.0
 30
0.0
  9
$UCSXDIR
 10
1.0
 20
0.0
 30
0.0
  9
$UCSYDIR
 10
0.0
 20
1.0
 30
0.0
  9
$UCSORTHOREF
  2

  9
$UCSORTHOVIEW
 70
0
  9
$UCSORGTOP
 10
0.0
 20
0.0
 30
0.0
  9
$UCSORGBOTTOM
 10
0.0
 20
0.0
 30
0.0
  9
$UCSORGLEFT
 10
0.0
 20
0.0
 30
0.0
  9
$UCSORGRIGHT
 10
0.0
 20
0.0
 30
0.0
  9
$UCSORGFRONT
 10
0.0
 20
0.0
 30
0.0
  9
$UCSORGBACK
 10
0.0
 20
0.0
 30
0.0
  9
$PUCSBASE
  2

  9
$PUCSNAME
  2

  9
$PUCSORG
 10
0.0
 20
0.0
 30
0.0
  9
$PUCSXDIR
 10
1.0
 20
0.0
 30
0.0
  9
$PUCSYDIR
 10
0.0
 20
1.0
 30
0.0
  9
$PUCSORTHOREF
  2

  9
$PUCSORTHOVIEW
 70
0
  9
$PUCSORGTOP
 10
0.0
 20
0.0
 30
0.0
  9
$PUCSORGBOTTOM
 10
0.0
 20
0.0
 30
0.0
  9
$PUCSORGLEFT
 10
0.0
 20
0.0
 30
0.0
  9
$PUCSORGRIGHT
 10
0.0
 20
0.0
 30
0.0
  9
$PUCSORGFRONT
 10
0.0
 20
0.0
 30
0.0
  9
$PUCSORGBACK
 10
0.0
 20
0.0
 30
0.0
  9
$USERI1
 70
0
  9
$USERI2
 70
0
  9
$USERI3
 70
0
  9
$USERI4
 70
0
  9
$USERI5
 70
0
  9
$USERR1
 40
0.0
  9
$USERR2
 40
0.0
  9
$USERR3
 40
0.0
  9
$USERR4
 40
0.0
  9
$USERR5
 40
0.0
  9
$WORLDVIEW
 70
1
  9
$SHADEDGE
 70
3
  9
$SHADEDIF
 70
70
  9
$TILEMODE
 70
1
  9
$MAXACTVP
 70
64
  9
$PINSBASE
 10
0.0
 20
0.0
 30
0.0
  9
$PLIMCHECK
 70
0
  9
$PEXTMIN
 10
1e+20
 20
1e+20
 30
1e+20
  9
$PEXTMAX
 10
-1e+20
 20
-1e+20
 30
-1e+20
  9
$PLIMMIN
 10
0.0
 20
0.0
  9
$PLIMMAX
 10
420.0
 20
297.0
  9
$UNITMODE
 70
0
  9
$VISRETAIN
 70
1
  9
$PLINEGEN
 70
0
  9
$PSLTSCALE
 70
1
  9
$TREEDEPTH
 70
3020
  9
$CMLSTYLE
  2
Standard
  9
$CMLJUST
 70
0
  9
$CMLSCALE
 40
20.0
  9
$PROXYGRAPHICS
 70
1
  9
$MEASUREMENT
 70
0
  9
$CELWEIGHT
370
-1
  9
$ENDCAPS
280
0
  9
$JOINSTYLE
280
0
  9
$LWDISPLAY
290
0
  9
$INSUNITS
 70
1
  9
$HYPERLINKBASE
  1

  9
$STYLESHEET
  1

  9
$XEDIT
290
1
  9
$CEPSNTYPE
380
0
  9
$PSTYLEMODE
290
1
  9
$FINGERPRINTGUID
  2
{E15CB792-7861-4F68-8DAB-F57239B27137}
  9
$VERSIONGUID
  2
{8DE6FA17-8AD8-4CAF-89D0-608BC07D9774}
  9
$EXTNAMES
290
1
  9
$PSVPSCALE
 40
0.0
  9
$OLESTARTUP
290
0
  9
$SORTENTS
280
127
  9
$INDEXCTL
280
0
  9
$HIDETEXT
280
1
  9
$XCLIPFRAME
280
1
  9
$HALOGAP
280
0
  9
$OBSCOLOR
 70
257
  9
$OBSLTYPE
280
0
  9
$INTERSECTIONDISPLAY
280
0
  9
$INTERSECTIONCOLOR
 70
257
  9
$DIMASSOC
280
2
  9
$PROJECTNAME
  1

  9
$CAMERADISPLAY
290
0
  9
$LENSLENGTH
 40
50.0
  9
$CAMERAHEIGHT
 40
0.0
  9
$STEPSPERSEC
 40
24.0
  9
$STEPSIZE
 40
100.0
  9
$3DDWFPREC
 40
2.0
  9
$PSOLWIDTH
 40
0.005
  9
$PSOLHEIGHT
 40
0.08
  9
$LOFTANG1
 40
1.570796326795
  9
$LOFTANG2
 40
1.570796326795
  9
$LOFTMAG1
 40
0.0
  9
$LOFTMAG2
 40
0.0
  9
$LOFTPARAM
 70
7
  9
$LOFTNORMALS
280
1
  9
$LATITUDE
 40
37.795
  9
$LONGITUDE
 40
-122.394
  9
$NORTHDIRECTION
 40
0.0
  9
$TIMEZONE
 70
-8000
  9
$LIGHTGLYPHDISPLAY
280
1
  9
$TILEMODELIGHTSYNCH
280
1
  9
$CMATERIAL
347
20
  9
$SOLIDHIST
280
0
  9
$SHOWHIST
280
1
  9
$DWFFRAME
280
2
  9
$DGNFRAME
280
2
  9
$REALWORLDSCALE
290
1
  9
$INTERFERECOLOR
 62
256
  9
$CSHADOW
280
0
  9
$SHADOWPLANELOCATION
 40
0.0
  0
ENDSEC
  0
SECTION
  2
CLASSES
  0
CLASS
  1
ACDBDICTIONARYWDFLT
  2
AcDbDictionaryWithDefault
  3
ObjectDBX Classes
 90
0
 91
0
280
0
281
0
  0
CLASS
  1
SUN
  2
AcDbSun
  3
SCENEOE
 90
1153
 91
0
280
0
281
0
  0
CLASS
  1
VISUALSTYLE
  2
AcDbVisualStyle
  3
ObjectDBX Classes
 90
4095
 91
0
280
0
281
0
  0
CLASS
  1
MATERIAL
  2
AcDbMaterial
  3
ObjectDBX Classes
 90
1153
 91
0
280
0
281
0
  0
CLASS
  1
SCALE
  2
AcDbScale
  3
ObjectDBX Classes
 90
1153
 91
0
280
0
281
0
  0
CLASS
  1
TABLESTYLE
  2
AcDbTableStyle
  3
ObjectDBX Classes
 90
4095
 91
0
280
0
281
0
  0
CLASS
  1
MLEADERSTYLE
  2
AcDbMLeaderStyle
  3
ACDB_MLEADERSTYLE_CLASS
 90
4095
 91
0
280
0
281
0
  0
CLASS
  1
DICTIONARYVAR
  2
AcDbDictionaryVar
  3
ObjectDBX Classes
 90
0
 91
0
280
0
281
0
  0
CLASS
  1
CELLSTYLEMAP
  2
AcDbCellStyleMap
  3
ObjectDBX Classes
 90
1152
 91
0
280
0
281
0
  0
CLASS
  1
MENTALRAYRENDERSETTINGS
  2
AcDbMentalRayRenderSettings
  3
SCENEOE
 90
1024
 91
0
280
0
281
0
  0
CLASS
  1
ACDBDETAILVIEWSTYLE
  2
AcDbDetailViewStyle
  3
ObjectDBX Classes
 90
1025
 91
0
280
0
281
0
  0
CLASS
  1
ACDBSECTIONVIEWSTYLE
  2
AcDbSectionViewStyle
  3
ObjectDBX Classes
 90
1025
 91
0
280
0
281
0
  0
CLASS
  1
RASTERVARIABLES
  2
AcDbRasterVariables
  3
ISM
 90
0
 91
0
280
0
281
0
  0
CLASS
  1
ACDBPLACEHOLDER
  2
AcDbPlaceHolder
  3
ObjectDBX Classes
 90
0
 91
0
280
0
281
0
  0
CLASS
  1
LAYOUT
  2
AcDbLayout
  3
ObjectDBX Classes
 90
0
 91
0
280
0
281
0
  0
ENDSEC
  0
SECTION
  2
TABLES
  0
TABLE
  2
VPORT
  5
8
330
0
100
AcDbSymbolTable
 70
1
  0
VPORT
  5
23
330
8
100
AcDbSymbolTableRecord
100
AcDbViewportTableRecord
  2
*Active
 70
0
 10
0.0
 20
0.0
 11
1.0
 21
1.0
 12
0.0
 22
0.0
 13
0.0
 23
0.0
 14
0.5
 24
0.5
 15
0.5
 25
0.5
 16
0.0
 26
0.0
 36
1.0
 17
0.0
 27
0.0
 37
0.0
 40
1000.0
 41
1.34
 42
50.0
 43
0.0
 44
0.0
 50
0.0
 51
0.0
 71
0
 72
1000
 73
1
 74
3
 75
0
 76
0
 77
0
 78
0
281
0
 65
0
146
0.0
  0
ENDTAB
  0
TABLE
  2
LTYPE
  5
2
330
0
100
AcDbSymbolTable
 70
3
  0
LTYPE
  5
24
330
2
100
AcDbSymbolTableRecord
100
AcDbLinetypeTableRecord
  2
ByBlock
 70
0
  3

 72
65
 73
0
 40
0.0
  0
LTYPE
  5
25
330
2
100
AcDbSymbolTableRecord
100
AcDbLinetypeTableRecord
  2
ByLayer
 70
0
  3

 72
65
 73
0
 40
0.0
  0
LTYPE
  5
26
330
2
100
AcDbSymbolTableRecord
100
AcDbLinetypeTableRecord
  2
Continuous
 70
0
  3

 72
65
 73
0
 40
0.0
  0
ENDTAB
  0
TABLE
  2
LAYER
  5
1
330
0
100
AcDbSymbolTable
 70
11
  0
LAYER
  5
27
330
1
100
AcDbSymbolTableRecord
100
AcDbLayerTableRecord
  2
0
 70
0
 62
7
  6
Continuous
370
-3
390
13
347
21
  0
LAYER
  5
28
330
1
100
AcDbSymbolTableRecord
100
AcDbLayerTableRecord
  2
Defpoints
 70
0
 62
7
  6
Continuous
290
0
370
-3
390
13
347
21
  0
LAYER
  5
31
330
1
100
AcDbSymbolTableRecord
100
AcDbLayerTableRecord
  2
G-ANNO-TTLB
 70
0
 62
7
  6
Continuous
370
-3
390
13
347
21
  0
LAYER
  5
32
330
1
100
AcDbSymbolTableRecord
100
AcDbLayerTableRecord
  2
A-ANNO-TEXT
 70
0
 62
7
  6
Continuous
370
-3
390
13
347
21
  0
LAYER
  5
33
330
1
100
AcDbSymbolTableRecord
100
AcDbLayerTableRecord
  2
A-ELEV-FILL
 70
0
 62
7
  6
Continuous
370
-3
390
13
347
21
  0
LAYER
  5
34
330
1
100
AcDbSymbolTableRecord
100
AcDbLayerTableRecord
  2
A-ELEV-OTLN
 70
0
 62
7
  6
Continuous
370
-3
390
13
347
21
  0
LAYER
  5
35
330
1
100
AcDbSymbolTableRecord
100
AcDbLayerTableRecord
  2
A-ELEV-HIDN
 70
0
 62
7
  6
Continuous
370
-3
390
13
347
21
  0
LAYER
  5
36
330
1
100
AcDbSymbolTableRecord
100
AcDbLayerTableRecord
  2
A-ELEV-DOOR
 70
0
 62
7
  6
Continuous
370
-3
390
13
347
21
  0
LAYER
  5
37
330
1
100
AcDbSymbolTableRecord
100
AcDbLayerTableRecord
  2
A-ELEV-IDEN
 70
0
 62
7
  6
Continuous
370
-3
390
13
347
21
  0
LAYER
  5
38
330
1
100
AcDbSymbolTableRecord
100
AcDbLayerTableRecord
  2
A-ELEV-SIGN
 70
0
 62
7
  6
Continuous
370
-3
390
13
347
21
  0
LAYER
  5
39
330
1
100
AcDbSymbolTableRecord
100
AcDbLayerTableRecord
  2
A-ELEV-DATM
 70
0
 62
7
  6
Continuous
370
-3
390
13
347
21
  0
ENDTAB
  0
TABLE
  2
STYLE
  5
5
330
0
100
AcDbSymbolTable
 70
3
  0
STYLE
  5
29
330
5
100
AcDbSymbolTableRecord
100
AcDbTextStyleTableRecord
  2
Standard
 70
0
 40
0.0
 41
1.0
 50
0.0
 71
0
 42
2.5
  3
txt
  4

  0
STYLE
  5
2F
330
5
100
AcDbSymbolTableRecord
100
AcDbTextStyleTableRecord
  2
KS-REG
 70
0
 40
0.0
 41
1.0
 50
0.0
 71
0
 42
2.5
  3
DejaVuSans.ttf
  4

  0
STYLE
  5
30
330
5
100
AcDbSymbolTableRecord
100
AcDbTextStyleTableRecord
  2
KS-BOLD
 70
0
 40
0.0
 41
1.0
 50
0.0
 71
0
 42
2.5
  3
DejaVuSans-Bold.ttf
  4

  0
ENDTAB
  0
TABLE
  2
VIEW
  5
7
330
0
100
AcDbSymbolTable
 70
0
  0
ENDTAB
  0
TABLE
  2
UCS
  5
6
330
0
100
AcDbSymbolTable
 70
0
  0
ENDTAB
  0
TABLE
  2
APPID
  5
3
330
0
100
AcDbSymbolTable
 70
3
  0
APPID
  5
2A
330
3
100
AcDbSymbolTableRecord
100
AcDbRegAppTableRecord
  2
ACAD
 70
0
  0
APPID
  5
3A9
330
3
100
AcDbSymbolTableRecord
100
AcDbRegAppTableRecord
  2
HATCHBACKGROUNDCOLOR
 70
0
  0
APPID
  5
3AA
330
3
100
AcDbSymbolTableRecord
100
AcDbRegAppTableRecord
  2
EZDXF
 70
0
  0
ENDTAB
  0
TABLE
  2
DIMSTYLE
  5
4
330
0
100
AcDbSymbolTable
 70
1
100
AcDbDimStyleTable
  0
DIMSTYLE
105
2B
330
4
100
AcDbSymbolTableRecord
100
AcDbDimStyleTableRecord
  2
Standard
 70
0
 40
1.0
 41
2.5
 42
0.625
 43
3.75
 44
1.25
 45
0.0
 46
0.0
 47
0.0
 48
0.0
 49
2.5
140
2.5
141
2.5
142
0.0
143
0.03937007874
144
1.0
145
0.0
146
1.0
147
0.625
148
0.0
 69
0
 70
0
 71
0
 72
0
 73
0
 74
0
 75
0
 76
0
 77
1
 78
8
 79
3
170
0
171
3
172
1
173
0
174
0
175
0
176
0
177
0
178
0
179
2
271
2
272
2
273
2
274
3
275
0
276
0
277
2
278
44
279
0
280
0
281
0
282
0
283
0
284
8
285
0
286
0
288
0
289
3
290
0
371
-2
372
-2
  0
ENDTAB
  0
TABLE
  2
BLOCK_RECORD
  5
9
330
0
100
AcDbSymbolTable
 70
2
  0
BLOCK_RECORD
  5
17
330
9
100
AcDbSymbolTableRecord
100
AcDbBlockTableRecord
  2
*Model_Space
340
1A
 70
0
280
1
281
0
  0
BLOCK_RECORD
  5
1B
330
9
100
AcDbSymbolTableRecord
100
AcDbBlockTableRecord
  2
*Paper_Space
340
1E
 70
0
280
1
281
0
  0
ENDTAB
  0
ENDSEC
  0
SECTION
  2
BLOCKS
  0
BLOCK
  5
18
330
17
100
AcDbEntity
  8
0
100
AcDbBlockBegin
  2
*Model_Space
 70
0
 10
0.0
 20
0.0
 30
0.0
  3
*Model_Space
  1

  0
ENDBLK
  5
19
330
17
100
AcDbEntity
  8
0
100
AcDbBlockEnd
  0
BLOCK
  5
1C
330
1B
100
AcDbEntity
  8
0
100
AcDbBlockBegin
  2
*Paper_Space
 70
0
 10
0.0
 20
0.0
 30
0.0
  3
*Paper_Space
  1

  0
ENDBLK
  5
1D
330
1B
100
AcDbEntity
  8
0
100
AcDbBlockEnd
  0
ENDSEC
  0
SECTION
  2
ENTITIES
  0
LWPOLYLINE
  5
3A
330
17
100
AcDbEntity
  8
G-ANNO-TTLB
100
AcDbPolyline
 90
4
 70
1
 10
0.5
 20
0.5
 10
16.5
 20
0.5
 10
16.5
 20
10.5
 10
0.5
 20
10.5
  0
LWPOLYLINE
  5
3B
330
17
100
AcDbEntity
  8
G-ANNO-TTLB
100
AcDbPolyline
 90
4
 70
1
 10
0.5
 20
1.45
 10
16.5
 20
1.45
 10
16.5
 20
1.85
 10
0.5
 20
1.85
  0
TEXT
  5
3C
330
17
100
AcDbEntity
  8
G-ANNO-TTLB
100
AcDbText
 10
8.5
 20
1.5699999999999998
 30
0.0
 40
0.16999999999999998
  1
PRELIMINARY — CONCEPTUAL DESIGN — NOT FOR CONSTRUCTION
  7
KS-BOLD
 72
1
 11
8.5
 21
1.5699999999999998
 31
0.0
100
AcDbText
  0
LINE
  5
3D
330
17
100
AcDbEntity
  8
G-ANNO-TTLB
100
AcDbLine
 10
0.5
 20
1.45
 30
0.0
 11
16.5
 21
1.45
 31
0.0
  0
TEXT
  5
3E
330
17
100
AcDbEntity
  8
G-ANNO-TTLB
100
AcDbText
 10
0.58
 20
1.28
 30
0.0
 40
0.06999999999999999
  1
PROJECT
  7
KS-REG
 11
0.58
 21
1.28
 31
0.0
100
AcDbText
  0
TEXT
  5
3F
330
17
100
AcDbEntity
  8
G-ANNO-TTLB
100
AcDbText
 10
0.58
 20
0.9991666666666666
 30
0.0
 40
0.11499999999999999
  1
Hazel Green Regional Athletic Complex
  7
KS-BOLD
 11
0.58
 21
0.9991666666666666
 31
0.0
100
AcDbText
  0
TEXT
  5
40
330
17
100
AcDbEntity
  8
G-ANNO-TTLB
100
AcDbText
 10
0.58
 20
0.7883333333333333
 30
0.0
 40
0.11499999999999999
  1
Trojan Horse Arena · Hazel Green area, Madison
  7
KS-BOLD
 11
0.58
 21
0.7883333333333333
 31
0.0
100
AcDbText
  0
TEXT
  5
41
330
17
100
AcDbEntity
  8
G-ANNO-TTLB
100
AcDbText
 10
0.58
 20
0.5775
 30
0.0
 40
0.11499999999999999
  1
County, Alabama (site TBD, D-006)
  7
KS-BOLD
 11
0.58
 21
0.5775
 31
0.0
100
AcDbText
  0
LINE
  5
42
330
17
100
AcDbEntity
  8
G-ANNO-TTLB
100
AcDbLine
 10
5.2
 20
0.5
 30
0.0
 11
5.2
 21
1.45
 31
0.0
  0
TEXT
  5
43
330
17
100
AcDbEntity
  8
G-ANNO-TTLB
100
AcDbText
 10
5.28
 20
1.28
 30
0.0
 40
0.06999999999999999
  1
PHASE
  7
KS-REG
 11
5.28
 21
1.28
 31
0.0
100
AcDbText
  0
TEXT
  5
44
330
17
100
AcDbEntity
  8
G-ANNO-TTLB
100
AcDbText
 10
5.28
 20
0.9716666666666667
 30
0.0
 40
0.13
  1
PHASE 2
  7
KS-BOLD
 11
5.28
 21
0.9716666666666667
 31
0.0
100
AcDbText
  0
LINE
  5
45
330
17
100
AcDbEntity
  8
G-ANNO-TTLB
100
AcDbLine
 10
6.7
 20
0.5
 30
0.0
 11
6.7
 21
1.45
 31
0.0
  0
TEXT
  5
46
330
17
100
AcDbEntity
  8
G-ANNO-TTLB
100
AcDbText
 10
6.78
 20
1.28
 30
0.0
 40
0.06999999999999999
  1
SHEET TITLE
  7
KS-REG
 11
6.78
 21
1.28
 31
0.0
100
AcDbText
  0
TEXT
  5
47
330
17
100
AcDbEntity
  8
G-ANNO-TTLB
100
AcDbText
 10
6.78
 20
0.9991666666666666
 30
0.0
 40
0.11499999999999999
  1
EXTERIOR ELEVATIONS
  7
KS-BOLD
 11
6.78
 21
0.9991666666666666
 31
0.0
100
AcDbText
  0
TEXT
  5
48
330
17
100
AcDbEntity
  8
G-ANNO-TTLB
100
AcDbText
 10
6.78
 20
0.7883333333333333
 30
0.0
 40
0.11499999999999999
  1
SCHEMATIC · COLOR
  7
KS-BOLD
 11
6.78
 21
0.7883333333333333
 31
0.0
100
AcDbText
  0
LINE
  5
49
330
17
100
AcDbEntity
  8
G-ANNO-TTLB
100
AcDbLine
 10
9.8
 20
0.5
 30
0.0
 11
9.8
 21
1.45
 31
0.0
  0
TEXT
  5
4A
330
17
100
AcDbEntity
  8
G-ANNO-TTLB
100
AcDbText
 10
9.88
 20
1.28
 30
0.0
 40
0.06999999999999999
  1
SCALE
  7
KS-REG
 11
9.88
 21
1.28
 31
0.0
100
AcDbText
  0
TEXT
  5
4B
330
17
100
AcDbEntity
  8
G-ANNO-TTLB
100
AcDbText
 10
9.88
 20
0.9716666666666667
 30
0.0
 40
0.13
  1
AS
  7
KS-BOLD
 11
9.88
 21
0.9716666666666667
 31
0.0
100
AcDbText
  0
TEXT
  5
4C
330
17
100
AcDbEntity
  8
G-ANNO-TTLB
100
AcDbText
 10
9.88
 20
0.7333333333333334
 30
0.0
 40
0.13
  1
NOTED
  7
KS-BOLD
 11
9.88
 21
0.7333333333333334
 31
0.0
100
AcDbText
  0
LINE
  5
4D
330
17
100
AcDbEntity
  8
G-ANNO-TTLB
100
AcDbLine
 10
10.700000000000001
 20
0.5
 30
0.0
 11
10.700000000000001
 21
1.45
 31
0.0
  0
TEXT
  5
4E
330
17
100
AcDbEntity
  8
G-ANNO-TTLB
100
AcDbText
 10
10.780000000000001
 20
1.28
 30
0.0
 40
0.06999999999999999
  1
DATE
  7
KS-REG
 11
10.780000000000001
 21
1.28
 31
0.0
100
AcDbText
  0
TEXT
  5
4F
330
17
100
AcDbEntity
  8
G-ANNO-TTLB
100
AcDbText
 10
10.780000000000001
 20
0.9716666666666667
 30
0.0
 40
0.13
  1
October
  7
KS-BOLD
 11
10.780000000000001
 21
0.9716666666666667
 31
0.0
100
AcDbText
  0
TEXT
  5
50
330
17
100
AcDbEntity
  8
G-ANNO-TTLB
100
AcDbText
 10
10.780000000000001
 20
0.7333333333333334
 30
0.0
 40
0.13
  1
2026
  7
KS-BOLD
 11
10.780000000000001
 21
0.7333333333333334
 31
0.0
100
AcDbText
  0
LINE
  5
51
330
17
100
AcDbEntity
  8
G-ANNO-TTLB
100
AcDbLine
 10
12.15
 20
0.5
 30
0.0
 11
12.15
 21
1.45
 31
0.0
  0
TEXT
  5
52
330
17
100
AcDbEntity
  8
G-ANNO-TTLB
100
AcDbText
 10
12.23
 20
1.28
 30
0.0
 40
0.06999999999999999
  1
REV
  7
KS-REG
 11
12.23
 21
1.28
 31
0.0
100
AcDbText
  0
TEXT
  5
53
330
17
100
AcDbEntity
  8
G-ANNO-TTLB
100
AcDbText
 10
12.23
 20
0.9716666666666667
 30
0.0
 40
0.13
  1
A
  7
KS-BOLD
 11
12.23
 21
0.9716666666666667
 31
0.0
100
AcDbText
  0
LINE
  5
54
330
17
100
AcDbEntity
  8
G-ANNO-TTLB
100
AcDbLine
 10
12.9
 20
0.5
 30
0.0
 11
12.9
 21
1.45
 31
0.0
  0
TEXT
  5
55
330
17
100
AcDbEntity
  8
G-ANNO-TTLB
100
AcDbText
 10
12.98
 20
1.28
 30
0.0
 40
0.06999999999999999
  1
DRAWN BY
  7
KS-REG
 11
12.98
 21
1.28
 31
0.0
100
AcDbText
  0
TEXT
  5
56
330
17
100
AcDbEntity
  8
G-ANNO-TTLB
100
AcDbText
 10
12.98
 20
1.0358333333333332
 30
0.0
 40
0.095
  1
Drawn by KEYSTONE (AI) for
  7
KS-REG
 11
12.98
 21
1.0358333333333332
 31
0.0
100
AcDbText
  0
TEXT
  5
57
330
17
100
AcDbEntity
  8
G-ANNO-TTLB
100
AcDbText
 10
12.98
 20
0.8616666666666665
 30
0.0
 40
0.095
  1
Shane Brazelton
  7
KS-REG
 11
12.98
 21
0.8616666666666665
 31
0.0
100
AcDbText
  0
LINE
  5
58
330
17
100
AcDbEntity
  8
G-ANNO-TTLB
100
AcDbLine
 10
15.0
 20
0.5
 30
0.0
 11
15.0
 21
1.45
 31
0.0
  0
TEXT
  5
59
330
17
100
AcDbEntity
  8
G-ANNO-TTLB
100
AcDbText
 10
15.08
 20
1.28
 30
0.0
 40
0.06999999999999999
  1
SHEET
  7
KS-REG
 11
15.08
 21
1.28
 31
0.0
100
AcDbText
  0
TEXT
  5
5A
330
17
100
AcDbEntity
  8
G-ANNO-TTLB
100
AcDbText
 10
15.75
 20
0.77
 30
0.0
 40
0.18
  1
P2-A-201
  7
KS-BOLD
 72
1
 11
15.75
 21
0.77
 31
0.0
100
AcDbText
  0
HATCH
  5
5B
330
17
100
AcDbEntity
  8
A-ELEV-FILL
 62
7
420
13487565
100
AcDbHatch
 10
0.0
 20
0.0
 30
0.0
210
0.0
220
0.0
230
1.0
  2
SOLID
 70
1
 71
0
 91
1
 92
3
 72
0
 73
1
 93
4
 10
6.0125
 20
6.7
 10
15.7
 20
6.7
 10
15.7
 20
9.325
 10
6.0125
 20
9.325
 97
0
 75
0
 76
1
 98
0
  0
HATCH
  5
5C
330
17
100
AcDbEntity
  8
A-ELEV-FILL
 62
7
420
15000804
100
AcDbHatch
 10
0.0
 20
0.0
 30
0.0
210
0.0
220
0.0
230
1.0
  2
SOLID
 70
1
 71
0
 91
1
 92
3
 72
0
 73
1
 93
4
 10
2.95
 20
6.7
 10
15.7
 20
6.7
 10
15.7
 20
8.575
 10
2.95
 20
8.575
 97
0
 75
0
 76
1
 98
0
  0
LWPOLYLINE
  5
5D
330
17
100
AcDbEntity
  8
A-ELEV-OTLN
100
AcDbPolyline
 90
4
 70
1
 10
6.0125
 20
6.7
 10
15.7
 20
6.7
 10
15.7
 20
9.325
 10
6.0125
 20
9.325
  0
LWPOLYLINE
  5
5E
330
17
100
AcDbEntity
  8
A-ELEV-OTLN
100
AcDbPolyline
 90
4
 70
1
 10
2.95
 20
6.7
 10
15.7
 20
6.7
 10
15.7
 20
8.575
 10
2.95
 20
8.575
  0
LINE
  5
5F
330
17
100
AcDbEntity
  8
A-ELEV-HIDN
100
AcDbLine
 10
6.075
 20
8.95
 30
0.0
 11
6.135
 21
8.95
 31
0.0
  0
LINE
  5
60
330
17
100
AcDbEntity
  8
A-ELEV-HIDN
100
AcDbLine
 10
6.180000000000001
 20
8.95
 30
0.0
 11
6.24
 21
8.95
 31
0.0
  0
LINE
  5
61
330
17
100
AcDbEntity
  8
A-ELEV-HIDN
100
AcDbLine
 10
6.285
 20
8.95
 30
0.0
 11
6.345
 21
8.95
 31
0.0
  0
LINE
  5
62
330
17
100
AcDbEntity
  8
A-ELEV-HIDN
100
AcDbLine
 10
6.390000000000001
 20
8.95
 30
0.0
 11
6.45
 21
8.95
 31
0.0
  0
LINE
  5
63
330
17
100
AcDbEntity
  8
A-ELEV-HIDN
100
AcDbLine
 10
6.495
 20
8.95
 30
0.0
 11
6.555
 21
8.95
 31
0.0
  0
LINE
  5
64
330
17
100
AcDbEntity
  8
A-ELEV-HIDN
100
AcDbLine
 10
6.6
 20
8.95
 30
0.0
 11
6.66
 21
8.95
 31
0.0
  0
LINE
  5
65
330
17
100
AcDbEntity
  8
A-ELEV-HIDN
100
AcDbLine
 10
6.705
 20
8.95
 30
0.0
 11
6.765000000000001
 21
8.95
 31
0.0
  0
LINE
  5
66
330
17
100
AcDbEntity
  8
A-ELEV-HIDN
100
AcDbLine
 10
6.8100000000000005
 20
8.95
 30
0.0
 11
6.87
 21
8.95
 31
0.0
  0
LINE
  5
67
330
17
100
AcDbEntity
  8
A-ELEV-HIDN
100
AcDbLine
 10
6.915
 20
8.95
 30
0.0
 11
6.975
 21
8.95
 31
0.0
  0
LINE
  5
68
330
17
100
AcDbEntity
  8
A-ELEV-HIDN
100
AcDbLine
 10
7.0200000000000005
 20
8.95
 30
0.0
 11
7.08
 21
8.95
 31
0.0
  0
LINE
  5
69
330
17
100
AcDbEntity
  8
A-ELEV-HIDN
100
AcDbLine
 10
7.125
 20
8.95
 30
0.0
 11
7.1850000000000005
 21
8.95
 31
0.0
  0
LINE
  5
6A
330
17
100
AcDbEntity
  8
A-ELEV-HIDN
100
AcDbLine
 10
7.23
 20
8.95
 30
0.0
 11
7.29
 21
8.95
 31
0.0
  0
LINE
  5
6B
330
17
100
AcDbEntity
  8
A-ELEV-HIDN
100
AcDbLine
 10
7.335
 20
8.95
 30
0.0
 11
7.395
 21
8.95
 31
0.0
  0
LINE
  5
6C
330
17
100
AcDbEntity
  8
A-ELEV-HIDN
100
AcDbLine
 10
7.4399999999999995
 20
8.95
 30
0.0
 11
7.5
 21
8.95
 31
0.0
  0
LINE
  5
6D
330
17
100
AcDbEntity
  8
A-ELEV-HIDN
100
AcDbLine
 10
7.545
 20
8.95
 30
0.0
 11
7.605
 21
8.95
 31
0.0
  0
LINE
  5
6E
330
17
100
AcDbEntity
  8
A-ELEV-HIDN
100
AcDbLine
 10
7.65
 20
8.95
 30
0.0
 11
7.71
 21
8.95
 31
0.0
  0
LINE
  5
6F
330
17
100
AcDbEntity
  8
A-ELEV-HIDN
100
AcDbLine
 10
7.755
 20
8.95
 30
0.0
 11
7.8149999999999995
 21
8.95
 31
0.0
  0
LINE
  5
70
330
17
100
AcDbEntity
  8
A-ELEV-HIDN
100
AcDbLine
 10
7.859999999999999
 20
8.95
 30
0.0
 11
7.92
 21
8.95
 31
0.0
  0
LINE
  5
71
330
17
100
AcDbEntity
  8
A-ELEV-HIDN
100
AcDbLine
 10
7.965
 20
8.95
 30
0.0
 11
8.025
 21
8.95
 31
0.0
  0
LINE
  5
72
330
17
100
AcDbEntity
  8
A-ELEV-HIDN
100
AcDbLine
 10
8.07
 20
8.95
 30
0.0
 11
8.129999999999999
 21
8.95
 31
0.0
  0
LINE
  5
73
330
17
100
AcDbEntity
  8
A-ELEV-HIDN
100
AcDbLine
 10
8.175
 20
8.95
 30
0.0
 11
8.235
 21
8.95
 31
0.0
  0
LINE
  5
74
330
17
100
AcDbEntity
  8
A-ELEV-HIDN
100
AcDbLine
 10
8.28
 20
8.95
 30
0.0
 11
8.34
 21
8.95
 31
0.0
  0
LINE
  5
75
330
17
100
AcDbEntity
  8
A-ELEV-HIDN
100
AcDbLine
 10
8.385
 20
8.95
 30
0.0
 11
8.445
 21
8.95
 31
0.0
  0
LINE
  5
76
330
17
100
AcDbEntity
  8
A-ELEV-HIDN
100
AcDbLine
 10
8.49
 20
8.95
 30
0.0
 11
8.55
 21
8.95
 31
0.0
  0
LINE
  5
77
330
17
100
AcDbEntity
  8
A-ELEV-HIDN
100
AcDbLine
 10
8.594999999999999
 20
8.95
 30
0.0
 11
8.655
 21
8.95
 31
0.0
  0
LINE
  5
78
330
17
100
AcDbEntity
  8
A-ELEV-HIDN
100
AcDbLine
 10
8.7
 20
8.95
 30
0.0
 11
8.76
 21
8.95
 31
0.0
  0
LINE
  5
79
330
17
100
AcDbEntity
  8
A-ELEV-HIDN
100
AcDbLine
 10
8.805
 20
8.95
 30
0.0
 11
8.865
 21
8.95
 31
0.0
  0
LINE
  5
7A
330
17
100
AcDbEntity
  8
A-ELEV-HIDN
100
AcDbLine
 10
8.91
 20
8.95
 30
0.0
 11
8.969999999999999
 21
8.95
 31
0.0
  0
LINE
  5
7B
330
17
100
AcDbEntity
  8
A-ELEV-HIDN
100
AcDbLine
 10
9.015
 20
8.95
 30
0.0
 11
9.075
 21
8.95
 31
0.0
  0
LINE
  5
7C
330
17
100
AcDbEntity
  8
A-ELEV-HIDN
100
AcDbLine
 10
9.12
 20
8.95
 30
0.0
 11
9.18
 21
8.95
 31
0.0
  0
LINE
  5
7D
330
17
100
AcDbEntity
  8
A-ELEV-HIDN
100
AcDbLine
 10
9.225
 20
8.95
 30
0.0
 11
9.285
 21
8.95
 31
0.0
  0
LINE
  5
7E
330
17
100
AcDbEntity
  8
A-ELEV-HIDN
100
AcDbLine
 10
9.33
 20
8.95
 30
0.0
 11
9.39
 21
8.95
 31
0.0
  0
LINE
  5
7F
330
17
100
AcDbEntity
  8
A-ELEV-HIDN
100
AcDbLine
 10
9.434999999999999
 20
8.95
 30
0.0
 11
9.495
 21
8.95
 31
0.0
  0
LINE
  5
80
330
17
100
AcDbEntity
  8
A-ELEV-HIDN
100
AcDbLine
 10
9.54
 20
8.95
 30
0.0
 11
9.6
 21
8.95
 31
0.0
  0
LINE
  5
81
330
17
100
AcDbEntity
  8
A-ELEV-HIDN
100
AcDbLine
 10
9.645
 20
8.95
 30
0.0
 11
9.705
 21
8.95
 31
0.0
  0
LINE
  5
82
330
17
100
AcDbEntity
  8
A-ELEV-HIDN
100
AcDbLine
 10
9.75
 20
8.95
 30
0.0
 11
9.809999999999999
 21
8.95
 31
0.0
  0
LINE
  5
83
330
17
100
AcDbEntity
  8
A-ELEV-HIDN
100
AcDbLine
 10
9.855
 20
8.95
 30
0.0
 11
9.915
 21
8.95
 31
0.0
  0
LINE
  5
84
330
17
100
AcDbEntity
  8
A-ELEV-HIDN
100
AcDbLine
 10
9.959999999999999
 20
8.95
 30
0.0
 11
10.02
 21
8.95
 31
0.0
  0
LINE
  5
85
330
17
100
AcDbEntity
  8
A-ELEV-HIDN
100
AcDbLine
 10
10.065
 20
8.95
 30
0.0
 11
10.125
 21
8.95
 31
0.0
  0
LINE
  5
86
330
17
100
AcDbEntity
  8
A-ELEV-HIDN
100
AcDbLine
 10
10.169999999999998
 20
8.95
 30
0.0
 11
10.229999999999999
 21
8.95
 31
0.0
  0
LINE
  5
87
330
17
100
AcDbEntity
  8
A-ELEV-HIDN
100
AcDbLine
 10
10.274999999999999
 20
8.95
 30
0.0
 11
10.334999999999997
 21
8.95
 31
0.0
  0
LINE
  5
88
330
17
100
AcDbEntity
  8
A-ELEV-HIDN
100
AcDbLine
 10
10.379999999999999
 20
8.95
 30
0.0
 11
10.439999999999998
 21
8.95
 31
0.0
  0
LINE
  5
89
330
17
100
AcDbEntity
  8
A-ELEV-HIDN
100
AcDbLine
 10
10.484999999999998
 20
8.95
 30
0.0
 11
10.544999999999998
 21
8.95
 31
0.0
  0
LINE
  5
8A
330
17
100
AcDbEntity
  8
A-ELEV-HIDN
100
AcDbLine
 10
10.589999999999996
 20
8.95
 30
0.0
 11
10.649999999999997
 21
8.95
 31
0.0
  0
LINE
  5
8B
330
17
100
AcDbEntity
  8
A-ELEV-HIDN
100
AcDbLine
 10
10.694999999999997
 20
8.95
 30
0.0
 11
10.754999999999995
 21
8.95
 31
0.0
  0
LINE
  5
8C
330
17
100
AcDbEntity
  8
A-ELEV-HIDN
100
AcDbLine
 10
10.799999999999997
 20
8.95
 30
0.0
 11
10.859999999999996
 21
8.95
 31
0.0
  0
LINE
  5
8D
330
17
100
AcDbEntity
  8
A-ELEV-HIDN
100
AcDbLine
 10
10.904999999999996
 20
8.95
 30
0.0
 11
10.964999999999996
 21
8.95
 31
0.0
  0
LINE
  5
8E
330
17
100
AcDbEntity
  8
A-ELEV-HIDN
100
AcDbLine
 10
11.009999999999994
 20
8.95
 30
0.0
 11
11.069999999999995
 21
8.95
 31
0.0
  0
LINE
  5
8F
330
17
100
AcDbEntity
  8
A-ELEV-HIDN
100
AcDbLine
 10
11.114999999999995
 20
8.95
 30
0.0
 11
11.174999999999994
 21
8.95
 31
0.0
  0
LINE
  5
90
330
17
100
AcDbEntity
  8
A-ELEV-HIDN
100
AcDbLine
 10
11.219999999999995
 20
8.95
 30
0.0
 11
11.279999999999994
 21
8.95
 31
0.0
  0
LINE
  5
91
330
17
100
AcDbEntity
  8
A-ELEV-HIDN
100
AcDbLine
 10
11.324999999999994
 20
8.95
 30
0.0
 11
11.384999999999994
 21
8.95
 31
0.0
  0
LINE
  5
92
330
17
100
AcDbEntity
  8
A-ELEV-HIDN
100
AcDbLine
 10
11.429999999999993
 20
8.95
 30
0.0
 11
11.489999999999993
 21
8.95
 31
0.0
  0
LINE
  5
93
330
17
100
AcDbEntity
  8
A-ELEV-HIDN
100
AcDbLine
 10
11.534999999999993
 20
8.95
 30
0.0
 11
11.594999999999992
 21
8.95
 31
0.0
  0
LINE
  5
94
330
17
100
AcDbEntity
  8
A-ELEV-HIDN
100
AcDbLine
 10
11.639999999999993
 20
8.95
 30
0.0
 11
11.699999999999992
 21
8.95
 31
0.0
  0
LINE
  5
95
330
17
100
AcDbEntity
  8
A-ELEV-HIDN
100
AcDbLine
 10
11.744999999999992
 20
8.95
 30
0.0
 11
11.804999999999993
 21
8.95
 31
0.0
  0
LINE
  5
96
330
17
100
AcDbEntity
  8
A-ELEV-HIDN
100
AcDbLine
 10
11.84999999999999
 20
8.95
 30
0.0
 11
11.909999999999991
 21
8.95
 31
0.0
  0
LINE
  5
97
330
17
100
AcDbEntity
  8
A-ELEV-HIDN
100
AcDbLine
 10
11.954999999999991
 20
8.95
 30
0.0
 11
12.01499999999999
 21
8.95
 31
0.0
  0
LINE
  5
98
330
17
100
AcDbEntity
  8
A-ELEV-HIDN
100
AcDbLine
 10
12.059999999999992
 20
8.95
 30
0.0
 11
12.11999999999999
 21
8.95
 31
0.0
  0
LINE
  5
99
330
17
100
AcDbEntity
  8
A-ELEV-HIDN
100
AcDbLine
 10
12.16499999999999
 20
8.95
 30
0.0
 11
12.22499999999999
 21
8.95
 31
0.0
  0
LINE
  5
9A
330
17
100
AcDbEntity
  8
A-ELEV-HIDN
100
AcDbLine
 10
12.269999999999989
 20
8.95
 30
0.0
 11
12.32999999999999
 21
8.95
 31
0.0
  0
LINE
  5
9B
330
17
100
AcDbEntity
  8
A-ELEV-HIDN
100
AcDbLine
 10
12.37499999999999
 20
8.95
 30
0.0
 11
12.434999999999988
 21
8.95
 31
0.0
  0
LINE
  5
9C
330
17
100
AcDbEntity
  8
A-ELEV-HIDN
100
AcDbLine
 10
12.47999999999999
 20
8.95
 30
0.0
 11
12.539999999999988
 21
8.95
 31
0.0
  0
LINE
  5
9D
330
17
100
AcDbEntity
  8
A-ELEV-HIDN
100
AcDbLine
 10
12.584999999999988
 20
8.95
 30
0.0
 11
12.644999999999989
 21
8.95
 31
0.0
  0
LINE
  5
9E
330
17
100
AcDbEntity
  8
A-ELEV-HIDN
100
AcDbLine
 10
12.689999999999987
 20
8.95
 30
0.0
 11
12.749999999999988
 21
8.95
 31
0.0
  0
LINE
  5
9F
330
17
100
AcDbEntity
  8
A-ELEV-HIDN
100
AcDbLine
 10
12.794999999999987
 20
8.95
 30
0.0
 11
12.854999999999986
 21
8.95
 31
0.0
  0
LINE
  5
A0
330
17
100
AcDbEntity
  8
A-ELEV-HIDN
100
AcDbLine
 10
12.899999999999988
 20
8.95
 30
0.0
 11
12.959999999999987
 21
8.95
 31
0.0
  0
LINE
  5
A1
330
17
100
AcDbEntity
  8
A-ELEV-HIDN
100
AcDbLine
 10
13.004999999999987
 20
8.95
 30
0.0
 11
13.064999999999987
 21
8.95
 31
0.0
  0
LINE
  5
A2
330
17
100
AcDbEntity
  8
A-ELEV-HIDN
100
AcDbLine
 10
13.109999999999985
 20
8.95
 30
0.0
 11
13.169999999999986
 21
8.95
 31
0.0
  0
LINE
  5
A3
330
17
100
AcDbEntity
  8
A-ELEV-HIDN
100
AcDbLine
 10
13.214999999999986
 20
8.95
 30
0.0
 11
13.274999999999984
 21
8.95
 31
0.0
  0
LINE
  5
A4
330
17
100
AcDbEntity
  8
A-ELEV-HIDN
100
AcDbLine
 10
13.319999999999986
 20
8.95
 30
0.0
 11
13.379999999999985
 21
8.95
 31
0.0
  0
LINE
  5
A5
330
17
100
AcDbEntity
  8
A-ELEV-HIDN
100
AcDbLine
 10
13.424999999999985
 20
8.95
 30
0.0
 11
13.484999999999985
 21
8.95
 31
0.0
  0
LINE
  5
A6
330
17
100
AcDbEntity
  8
A-ELEV-HIDN
100
AcDbLine
 10
13.529999999999983
 20
8.95
 30
0.0
 11
13.589999999999984
 21
8.95
 31
0.0
  0
LINE
  5
A7
330
17
100
AcDbEntity
  8
A-ELEV-HIDN
100
AcDbLine
 10
13.634999999999984
 20
8.95
 30
0.0
 11
13.694999999999983
 21
8.95
 31
0.0
  0
LINE
  5
A8
330
17
100
AcDbEntity
  8
A-ELEV-HIDN
100
AcDbLine
 10
13.739999999999984
 20
8.95
 30
0.0
 11
13.799999999999983
 21
8.95
 31
0.0
  0
LINE
  5
A9
330
17
100
AcDbEntity
  8
A-ELEV-HIDN
100
AcDbLine
 10
13.844999999999983
 20
8.95
 30
0.0
 11
13.904999999999983
 21
8.95
 31
0.0
  0
LINE
  5
AA
330
17
100
AcDbEntity
  8
A-ELEV-HIDN
100
AcDbLine
 10
13.949999999999982
 20
8.95
 30
0.0
 11
14.009999999999982
 21
8.95
 31
0.0
  0
LINE
  5
AB
330
17
100
AcDbEntity
  8
A-ELEV-HIDN
100
AcDbLine
 10
14.054999999999982
 20
8.95
 30
0.0
 11
14.11499999999998
 21
8.95
 31
0.0
  0
LINE
  5
AC
330
17
100
AcDbEntity
  8
A-ELEV-HIDN
100
AcDbLine
 10
14.159999999999982
 20
8.95
 30
0.0
 11
14.219999999999981
 21
8.95
 31
0.0
  0
LINE
  5
AD
330
17
100
AcDbEntity
  8
A-ELEV-HIDN
100
AcDbLine
 10
14.264999999999983
 20
8.95
 30
0.0
 11
14.324999999999982
 21
8.95
 31
0.0
  0
LINE
  5
AE
330
17
100
AcDbEntity
  8
A-ELEV-HIDN
100
AcDbLine
 10
14.369999999999983
 20
8.95
 30
0.0
 11
14.429999999999982
 21
8.95
 31
0.0
  0
LINE
  5
AF
330
17
100
AcDbEntity
  8
A-ELEV-HIDN
100
AcDbLine
 10
14.474999999999984
 20
8.95
 30
0.0
 11
14.534999999999982
 21
8.95
 31
0.0
  0
LINE
  5
B0
330
17
100
AcDbEntity
  8
A-ELEV-HIDN
100
AcDbLine
 10
14.579999999999984
 20
8.95
 30
0.0
 11
14.639999999999983
 21
8.95
 31
0.0
  0
LINE
  5
B1
330
17
100
AcDbEntity
  8
A-ELEV-HIDN
100
AcDbLine
 10
14.684999999999985
 20
8.95
 30
0.0
 11
14.744999999999983
 21
8.95
 31
0.0
  0
LINE
  5
B2
330
17
100
AcDbEntity
  8
A-ELEV-HIDN
100
AcDbLine
 10
14.789999999999985
 20
8.95
 30
0.0
 11
14.849999999999984
 21
8.95
 31
0.0
  0
LINE
  5
B3
330
17
100
AcDbEntity
  8
A-ELEV-HIDN
100
AcDbLine
 10
14.894999999999985
 20
8.95
 30
0.0
 11
14.954999999999984
 21
8.95
 31
0.0
  0
LINE
  5
B4
330
17
100
AcDbEntity
  8
A-ELEV-HIDN
100
AcDbLine
 10
14.999999999999986
 20
8.95
 30
0.0
 11
15.059999999999985
 21
8.95
 31
0.0
  0
LINE
  5
B5
330
17
100
AcDbEntity
  8
A-ELEV-HIDN
100
AcDbLine
 10
15.104999999999986
 20
8.95
 30
0.0
 11
15.164999999999985
 21
8.95
 31
0.0
  0
LINE
  5
B6
330
17
100
AcDbEntity
  8
A-ELEV-HIDN
100
AcDbLine
 10
15.209999999999987
 20
8.95
 30
0.0
 11
15.269999999999985
 21
8.95
 31
0.0
  0
LINE
  5
B7
330
17
100
AcDbEntity
  8
A-ELEV-HIDN
100
AcDbLine
 10
15.314999999999987
 20
8.95
 30
0.0
 11
15.374999999999986
 21
8.95
 31
0.0
  0
LINE
  5
B8
330
17
100
AcDbEntity
  8
A-ELEV-HIDN
100
AcDbLine
 10
15.419999999999987
 20
8.95
 30
0.0
 11
15.479999999999986
 21
8.95
 31
0.0
  0
LINE
  5
B9
330
17
100
AcDbEntity
  8
A-ELEV-HIDN
100
AcDbLine
 10
15.524999999999988
 20
8.95
 30
0.0
 11
15.584999999999987
 21
8.95
 31
0.0
  0
LINE
  5
BA
330
17
100
AcDbEntity
  8
A-ELEV-HIDN
100
AcDbLine
 10
15.629999999999988
 20
8.95
 30
0.0
 11
15.6375
 21
8.95
 31
0.0
  0
LINE
  5
BB
330
17
100
AcDbEntity
  8
A-ELEV-HIDN
100
AcDbLine
 10
2.95
 20
7.6375
 30
0.0
 11
2.99
 21
7.6375
 31
0.0
  0
LINE
  5
BC
330
17
100
AcDbEntity
  8
A-ELEV-HIDN
100
AcDbLine
 10
3.04
 20
7.6375
 30
0.0
 11
3.08
 21
7.6375
 31
0.0
  0
LINE
  5
BD
330
17
100
AcDbEntity
  8
A-ELEV-HIDN
100
AcDbLine
 10
3.1300000000000003
 20
7.6375
 30
0.0
 11
3.1700000000000004
 21
7.6375
 31
0.0
  0
LINE
  5
BE
330
17
100
AcDbEntity
  8
A-ELEV-HIDN
100
AcDbLine
 10
3.22
 20
7.6375
 30
0.0
 11
3.2600000000000002
 21
7.6375
 31
0.0
  0
LINE
  5
BF
330
17
100
AcDbEntity
  8
A-ELEV-HIDN
100
AcDbLine
 10
3.31
 20
7.6375
 30
0.0
 11
3.35
 21
7.6375
 31
0.0
  0
LINE
  5
C0
330
17
100
AcDbEntity
  8
A-ELEV-HIDN
100
AcDbLine
 10
3.4000000000000004
 20
7.6375
 30
0.0
 11
3.44
 21
7.6375
 31
0.0
  0
LINE
  5
C1
330
17
100
AcDbEntity
  8
A-ELEV-HIDN
100
AcDbLine
 10
3.49
 20
7.6375
 30
0.0
 11
3.5300000000000002
 21
7.6375
 31
0.0
  0
LINE
  5
C2
330
17
100
AcDbEntity
  8
A-ELEV-HIDN
100
AcDbLine
 10
3.58
 20
7.6375
 30
0.0
 11
3.62
 21
7.6375
 31
0.0
  0
LINE
  5
C3
330
17
100
AcDbEntity
  8
A-ELEV-HIDN
100
AcDbLine
 10
3.6700000000000004
 20
7.6375
 30
0.0
 11
3.7100000000000004
 21
7.6375
 31
0.0
  0
LINE
  5
C4
330
17
100
AcDbEntity
  8
A-ELEV-HIDN
100
AcDbLine
 10
3.7600000000000002
 20
7.6375
 30
0.0
 11
3.8000000000000003
 21
7.6375
 31
0.0
  0
LINE
  5
C5
330
17
100
AcDbEntity
  8
A-ELEV-HIDN
100
AcDbLine
 10
3.8500000000000005
 20
7.6375
 30
0.0
 11
3.8900000000000006
 21
7.6375
 31
0.0
  0
LINE
  5
C6
330
17
100
AcDbEntity
  8
A-ELEV-HIDN
100
AcDbLine
 10
3.9400000000000004
 20
7.6375
 30
0.0
 11
3.9800000000000004
 21
7.6375
 31
0.0
  0
LINE
  5
C7
330
17
100
AcDbEntity
  8
A-ELEV-HIDN
100
AcDbLine
 10
4.03
 20
7.6375
 30
0.0
 11
4.07
 21
7.6375
 31
0.0
  0
LINE
  5
C8
330
17
100
AcDbEntity
  8
A-ELEV-HIDN
100
AcDbLine
 10
4.120000000000001
 20
7.6375
 30
0.0
 11
4.16
 21
7.6375
 31
0.0
  0
LINE
  5
C9
330
17
100
AcDbEntity
  8
A-ELEV-HIDN
100
AcDbLine
 10
4.210000000000001
 20
7.6375
 30
0.0
 11
4.250000000000001
 21
7.6375
 31
0.0
  0
LINE
  5
CA
330
17
100
AcDbEntity
  8
A-ELEV-HIDN
100
AcDbLine
 10
4.300000000000001
 20
7.6375
 30
0.0
 11
4.340000000000001
 21
7.6375
 31
0.0
  0
LINE
  5
CB
330
17
100
AcDbEntity
  8
A-ELEV-HIDN
100
AcDbLine
 10
4.390000000000001
 20
7.6375
 30
0.0
 11
4.430000000000001
 21
7.6375
 31
0.0
  0
LINE
  5
CC
330
17
100
AcDbEntity
  8
A-ELEV-HIDN
100
AcDbLine
 10
4.48
 20
7.6375
 30
0.0
 11
4.520000000000001
 21
7.6375
 31
0.0
  0
LINE
  5
CD
330
17
100
AcDbEntity
  8
A-ELEV-HIDN
100
AcDbLine
 10
4.570000000000001
 20
7.6375
 30
0.0
 11
4.610000000000001
 21
7.6375
 31
0.0
  0
LINE
  5
CE
330
17
100
AcDbEntity
  8
A-ELEV-HIDN
100
AcDbLine
 10
4.660000000000001
 20
7.6375
 30
0.0
 11
4.700000000000001
 21
7.6375
 31
0.0
  0
LINE
  5
CF
330
17
100
AcDbEntity
  8
A-ELEV-HIDN
100
AcDbLine
 10
4.750000000000001
 20
7.6375
 30
0.0
 11
4.790000000000001
 21
7.6375
 31
0.0
  0
LINE
  5
D0
330
17
100
AcDbEntity
  8
A-ELEV-HIDN
100
AcDbLine
 10
4.840000000000002
 20
7.6375
 30
0.0
 11
4.880000000000001
 21
7.6375
 31
0.0
  0
LINE
  5
D1
330
17
100
AcDbEntity
  8
A-ELEV-HIDN
100
AcDbLine
 10
4.9300000000000015
 20
7.6375
 30
0.0
 11
4.970000000000001
 21
7.6375
 31
0.0
  0
LINE
  5
D2
330
17
100
AcDbEntity
  8
A-ELEV-HIDN
100
AcDbLine
 10
5.020000000000001
 20
7.6375
 30
0.0
 11
5.0600000000000005
 21
7.6375
 31
0.0
  0
LINE
  5
D3
330
17
100
AcDbEntity
  8
A-ELEV-HIDN
100
AcDbLine
 10
5.110000000000001
 20
7.6375
 30
0.0
 11
5.15
 21
7.6375
 31
0.0
  0
LINE
  5
D4
330
17
100
AcDbEntity
  8
A-ELEV-HIDN
100
AcDbLine
 10
5.200000000000001
 20
7.6375
 30
0.0
 11
5.24
 21
7.6375
 31
0.0
  0
LINE
  5
D5
330
17
100
AcDbEntity
  8
A-ELEV-HIDN
100
AcDbLine
 10
5.290000000000001
 20
7.6375
 30
0.0
 11
5.33
 21
7.6375
 31
0.0
  0
LINE
  5
D6
330
17
100
AcDbEntity
  8
A-ELEV-HIDN
100
AcDbLine
 10
5.380000000000001
 20
7.6375
 30
0.0
 11
5.42
 21
7.6375
 31
0.0
  0
LINE
  5
D7
330
17
100
AcDbEntity
  8
A-ELEV-HIDN
100
AcDbLine
 10
5.470000000000001
 20
7.6375
 30
0.0
 11
5.51
 21
7.6375
 31
0.0
  0
LINE
  5
D8
330
17
100
AcDbEntity
  8
A-ELEV-HIDN
100
AcDbLine
 10
5.5600000000000005
 20
7.6375
 30
0.0
 11
5.6
 21
7.6375
 31
0.0
  0
LINE
  5
D9
330
17
100
AcDbEntity
  8
A-ELEV-HIDN
100
AcDbLine
 10
5.65
 20
7.6375
 30
0.0
 11
5.6899999999999995
 21
7.6375
 31
0.0
  0
LINE
  5
DA
330
17
100
AcDbEntity
  8
A-ELEV-HIDN
100
AcDbLine
 10
5.74
 20
7.6375
 30
0.0
 11
5.779999999999999
 21
7.6375
 31
0.0
  0
LINE
  5
DB
330
17
100
AcDbEntity
  8
A-ELEV-HIDN
100
AcDbLine
 10
5.83
 20
7.6375
 30
0.0
 11
5.869999999999999
 21
7.6375
 31
0.0
  0
LINE
  5
DC
330
17
100
AcDbEntity
  8
A-ELEV-HIDN
100
AcDbLine
 10
5.92
 20
7.6375
 30
0.0
 11
5.959999999999999
 21
7.6375
 31
0.0
  0
LINE
  5
DD
330
17
100
AcDbEntity
  8
A-ELEV-HIDN
100
AcDbLine
 10
6.01
 20
7.6375
 30
0.0
 11
6.049999999999999
 21
7.6375
 31
0.0
  0
LINE
  5
DE
330
17
100
AcDbEntity
  8
A-ELEV-HIDN
100
AcDbLine
 10
6.1
 20
7.6375
 30
0.0
 11
6.139999999999999
 21
7.6375
 31
0.0
  0
LINE
  5
DF
330
17
100
AcDbEntity
  8
A-ELEV-HIDN
100
AcDbLine
 10
6.1899999999999995
 20
7.6375
 30
0.0
 11
6.229999999999999
 21
7.6375
 31
0.0
  0
LINE
  5
E0
330
17
100
AcDbEntity
  8
A-ELEV-HIDN
100
AcDbLine
 10
6.279999999999999
 20
7.6375
 30
0.0
 11
6.3199999999999985
 21
7.6375
 31
0.0
  0
LINE
  5
E1
330
17
100
AcDbEntity
  8
A-ELEV-HIDN
100
AcDbLine
 10
6.369999999999999
 20
7.6375
 30
0.0
 11
6.409999999999998
 21
7.6375
 31
0.0
  0
LINE
  5
E2
330
17
100
AcDbEntity
  8
A-ELEV-HIDN
100
AcDbLine
 10
6.459999999999999
 20
7.6375
 30
0.0
 11
6.499999999999998
 21
7.6375
 31
0.0
  0
LINE
  5
E3
330
17
100
AcDbEntity
  8
A-ELEV-HIDN
100
AcDbLine
 10
6.549999999999999
 20
7.6375
 30
0.0
 11
6.589999999999998
 21
7.6375
 31
0.0
  0
LINE
  5
E4
330
17
100
AcDbEntity
  8
A-ELEV-HIDN
100
AcDbLine
 10
6.639999999999999
 20
7.6375
 30
0.0
 11
6.679999999999998
 21
7.6375
 31
0.0
  0
LINE
  5
E5
330
17
100
AcDbEntity
  8
A-ELEV-HIDN
100
AcDbLine
 10
6.729999999999999
 20
7.6375
 30
0.0
 11
6.769999999999998
 21
7.6375
 31
0.0
  0
LINE
  5
E6
330
17
100
AcDbEntity
  8
A-ELEV-HIDN
100
AcDbLine
 10
6.8199999999999985
 20
7.6375
 30
0.0
 11
6.859999999999998
 21
7.6375
 31
0.0
  0
LINE
  5
E7
330
17
100
AcDbEntity
  8
A-ELEV-HIDN
100
AcDbLine
 10
6.909999999999998
 20
7.6375
 30
0.0
 11
6.9499999999999975
 21
7.6375
 31
0.0
  0
LINE
  5
E8
330
17
100
AcDbEntity
  8
A-ELEV-HIDN
100
AcDbLine
 10
6.999999999999998
 20
7.6375
 30
0.0
 11
7.039999999999998
 21
7.6375
 31
0.0
  0
LINE
  5
E9
330
17
100
AcDbEntity
  8
A-ELEV-HIDN
100
AcDbLine
 10
7.089999999999998
 20
7.6375
 30
0.0
 11
7.129999999999998
 21
7.6375
 31
0.0
  0
LINE
  5
EA
330
17
100
AcDbEntity
  8
A-ELEV-HIDN
100
AcDbLine
 10
7.179999999999998
 20
7.6375
 30
0.0
 11
7.219999999999998
 21
7.6375
 31
0.0
  0
LINE
  5
EB
330
17
100
AcDbEntity
  8
A-ELEV-HIDN
100
AcDbLine
 10
7.269999999999998
 20
7.6375
 30
0.0
 11
7.309999999999998
 21
7.6375
 31
0.0
  0
LINE
  5
EC
330
17
100
AcDbEntity
  8
A-ELEV-HIDN
100
AcDbLine
 10
7.359999999999998
 20
7.6375
 30
0.0
 11
7.399999999999998
 21
7.6375
 31
0.0
  0
LINE
  5
ED
330
17
100
AcDbEntity
  8
A-ELEV-HIDN
100
AcDbLine
 10
7.4499999999999975
 20
7.6375
 30
0.0
 11
7.4899999999999975
 21
7.6375
 31
0.0
  0
LINE
  5
EE
330
17
100
AcDbEntity
  8
A-ELEV-HIDN
100
AcDbLine
 10
7.539999999999997
 20
7.6375
 30
0.0
 11
7.579999999999997
 21
7.6375
 31
0.0
  0
LINE
  5
EF
330
17
100
AcDbEntity
  8
A-ELEV-HIDN
100
AcDbLine
 10
7.629999999999997
 20
7.6375
 30
0.0
 11
7.669999999999997
 21
7.6375
 31
0.0
  0
LINE
  5
F0
330
17
100
AcDbEntity
  8
A-ELEV-HIDN
100
AcDbLine
 10
7.719999999999997
 20
7.6375
 30
0.0
 11
7.759999999999997
 21
7.6375
 31
0.0
  0
LINE
  5
F1
330
17
100
AcDbEntity
  8
A-ELEV-HIDN
100
AcDbLine
 10
7.809999999999997
 20
7.6375
 30
0.0
 11
7.849999999999997
 21
7.6375
 31
0.0
  0
LINE
  5
F2
330
17
100
AcDbEntity
  8
A-ELEV-HIDN
100
AcDbLine
 10
7.899999999999997
 20
7.6375
 30
0.0
 11
7.939999999999997
 21
7.6375
 31
0.0
  0
LINE
  5
F3
330
17
100
AcDbEntity
  8
A-ELEV-HIDN
100
AcDbLine
 10
7.989999999999997
 20
7.6375
 30
0.0
 11
8.029999999999998
 21
7.6375
 31
0.0
  0
LINE
  5
F4
330
17
100
AcDbEntity
  8
A-ELEV-HIDN
100
AcDbLine
 10
8.079999999999997
 20
7.6375
 30
0.0
 11
8.119999999999997
 21
7.6375
 31
0.0
  0
LINE
  5
F5
330
17
100
AcDbEntity
  8
A-ELEV-HIDN
100
AcDbLine
 10
8.169999999999996
 20
7.6375
 30
0.0
 11
8.209999999999997
 21
7.6375
 31
0.0
  0
LINE
  5
F6
330
17
100
AcDbEntity
  8
A-ELEV-HIDN
100
AcDbLine
 10
8.259999999999996
 20
7.6375
 30
0.0
 11
8.299999999999997
 21
7.6375
 31
0.0
  0
LINE
  5
F7
330
17
100
AcDbEntity
  8
A-ELEV-HIDN
100
AcDbLine
 10
8.349999999999996
 20
7.6375
 30
0.0
 11
8.389999999999997
 21
7.6375
 31
0.0
  0
LINE
  5
F8
330
17
100
AcDbEntity
  8
A-ELEV-HIDN
100
AcDbLine
 10
8.439999999999996
 20
7.6375
 30
0.0
 11
8.479999999999997
 21
7.6375
 31
0.0
  0
LINE
  5
F9
330
17
100
AcDbEntity
  8
A-ELEV-HIDN
100
AcDbLine
 10
8.529999999999996
 20
7.6375
 30
0.0
 11
8.569999999999997
 21
7.6375
 31
0.0
  0
LINE
  5
FA
330
17
100
AcDbEntity
  8
A-ELEV-HIDN
100
AcDbLine
 10
8.619999999999996
 20
7.6375
 30
0.0
 11
8.659999999999997
 21
7.6375
 31
0.0
  0
LINE
  5
FB
330
17
100
AcDbEntity
  8
A-ELEV-HIDN
100
AcDbLine
 10
8.709999999999996
 20
7.6375
 30
0.0
 11
8.749999999999996
 21
7.6375
 31
0.0
  0
LINE
  5
FC
330
17
100
AcDbEntity
  8
A-ELEV-HIDN
100
AcDbLine
 10
8.799999999999995
 20
7.6375
 30
0.0
 11
8.839999999999996
 21
7.6375
 31
0.0
  0
LINE
  5
FD
330
17
100
AcDbEntity
  8
A-ELEV-HIDN
100
AcDbLine
 10
8.889999999999995
 20
7.6375
 30
0.0
 11
8.929999999999996
 21
7.6375
 31
0.0
  0
LINE
  5
FE
330
17
100
AcDbEntity
  8
A-ELEV-HIDN
100
AcDbLine
 10
8.979999999999995
 20
7.6375
 30
0.0
 11
9.019999999999996
 21
7.6375
 31
0.0
  0
LINE
  5
FF
330
17
100
AcDbEntity
  8
A-ELEV-HIDN
100
AcDbLine
 10
9.069999999999995
 20
7.6375
 30
0.0
 11
9.109999999999996
 21
7.6375
 31
0.0
  0
LINE
  5
100
330
17
100
AcDbEntity
  8
A-ELEV-HIDN
100
AcDbLine
 10
9.159999999999995
 20
7.6375
 30
0.0
 11
9.199999999999996
 21
7.6375
 31
0.0
  0
LINE
  5
101
330
17
100
AcDbEntity
  8
A-ELEV-HIDN
100
AcDbLine
 10
9.249999999999995
 20
7.6375
 30
0.0
 11
9.289999999999996
 21
7.6375
 31
0.0
  0
LINE
  5
102
330
17
100
AcDbEntity
  8
A-ELEV-HIDN
100
AcDbLine
 10
9.339999999999995
 20
7.6375
 30
0.0
 11
9.379999999999995
 21
7.6375
 31
0.0
  0
LINE
  5
103
330
17
100
AcDbEntity
  8
A-ELEV-HIDN
100
AcDbLine
 10
9.429999999999994
 20
7.6375
 30
0.0
 11
9.469999999999995
 21
7.6375
 31
0.0
  0
LINE
  5
104
330
17
100
AcDbEntity
  8
A-ELEV-HIDN
100
AcDbLine
 10
9.519999999999994
 20
7.6375
 30
0.0
 11
9.559999999999995
 21
7.6375
 31
0.0
  0
LINE
  5
105
330
17
100
AcDbEntity
  8
A-ELEV-HIDN
100
AcDbLine
 10
9.609999999999994
 20
7.6375
 30
0.0
 11
9.649999999999995
 21
7.6375
 31
0.0
  0
LINE
  5
106
330
17
100
AcDbEntity
  8
A-ELEV-HIDN
100
AcDbLine
 10
9.699999999999994
 20
7.6375
 30
0.0
 11
9.739999999999995
 21
7.6375
 31
0.0
  0
LINE
  5
107
330
17
100
AcDbEntity
  8
A-ELEV-HIDN
100
AcDbLine
 10
9.789999999999994
 20
7.6375
 30
0.0
 11
9.829999999999995
 21
7.6375
 31
0.0
  0
LINE
  5
108
330
17
100
AcDbEntity
  8
A-ELEV-HIDN
100
AcDbLine
 10
9.879999999999994
 20
7.6375
 30
0.0
 11
9.919999999999995
 21
7.6375
 31
0.0
  0
LINE
  5
109
330
17
100
AcDbEntity
  8
A-ELEV-HIDN
100
AcDbLine
 10
9.969999999999994
 20
7.6375
 30
0.0
 11
10.009999999999994
 21
7.6375
 31
0.0
  0
LINE
  5
10A
330
17
100
AcDbEntity
  8
A-ELEV-HIDN
100
AcDbLine
 10
10.059999999999993
 20
7.6375
 30
0.0
 11
10.099999999999994
 21
7.6375
 31
0.0
  0
LINE
  5
10B
330
17
100
AcDbEntity
  8
A-ELEV-HIDN
100
AcDbLine
 10
10.149999999999993
 20
7.6375
 30
0.0
 11
10.189999999999994
 21
7.6375
 31
0.0
  0
LINE
  5
10C
330
17
100
AcDbEntity
  8
A-ELEV-HIDN
100
AcDbLine
 10
10.239999999999993
 20
7.6375
 30
0.0
 11
10.279999999999994
 21
7.6375
 31
0.0
  0
LINE
  5
10D
330
17
100
AcDbEntity
  8
A-ELEV-HIDN
100
AcDbLine
 10
10.329999999999993
 20
7.6375
 30
0.0
 11
10.369999999999994
 21
7.6375
 31
0.0
  0
LINE
  5
10E
330
17
100
AcDbEntity
  8
A-ELEV-HIDN
100
AcDbLine
 10
10.419999999999993
 20
7.6375
 30
0.0
 11
10.459999999999994
 21
7.6375
 31
0.0
  0
LINE
  5
10F
330
17
100
AcDbEntity
  8
A-ELEV-HIDN
100
AcDbLine
 10
10.509999999999993
 20
7.6375
 30
0.0
 11
10.549999999999994
 21
7.6375
 31
0.0
  0
LINE
  5
110
330
17
100
AcDbEntity
  8
A-ELEV-HIDN
100
AcDbLine
 10
10.599999999999993
 20
7.6375
 30
0.0
 11
10.639999999999993
 21
7.6375
 31
0.0
  0
LINE
  5
111
330
17
100
AcDbEntity
  8
A-ELEV-HIDN
100
AcDbLine
 10
10.689999999999992
 20
7.6375
 30
0.0
 11
10.729999999999993
 21
7.6375
 31
0.0
  0
LINE
  5
112
330
17
100
AcDbEntity
  8
A-ELEV-HIDN
100
AcDbLine
 10
10.779999999999992
 20
7.6375
 30
0.0
 11
10.819999999999993
 21
7.6375
 31
0.0
  0
LINE
  5
113
330
17
100
AcDbEntity
  8
A-ELEV-HIDN
100
AcDbLine
 10
10.869999999999992
 20
7.6375
 30
0.0
 11
10.909999999999993
 21
7.6375
 31
0.0
  0
LINE
  5
114
330
17
100
AcDbEntity
  8
A-ELEV-HIDN
100
AcDbLine
 10
10.959999999999994
 20
7.6375
 30
0.0
 11
10.999999999999993
 21
7.6375
 31
0.0
  0
LINE
  5
115
330
17
100
AcDbEntity
  8
A-ELEV-HIDN
100
AcDbLine
 10
11.049999999999994
 20
7.6375
 30
0.0
 11
11.089999999999993
 21
7.6375
 31
0.0
  0
LINE
  5
116
330
17
100
AcDbEntity
  8
A-ELEV-HIDN
100
AcDbLine
 10
11.139999999999993
 20
7.6375
 30
0.0
 11
11.179999999999993
 21
7.6375
 31
0.0
  0
LINE
  5
117
330
17
100
AcDbEntity
  8
A-ELEV-HIDN
100
AcDbLine
 10
11.229999999999993
 20
7.6375
 30
0.0
 11
11.269999999999992
 21
7.6375
 31
0.0
  0
LINE
  5
118
330
17
100
AcDbEntity
  8
A-ELEV-HIDN
100
AcDbLine
 10
11.319999999999993
 20
7.6375
 30
0.0
 11
11.359999999999992
 21
7.6375
 31
0.0
  0
LINE
  5
119
330
17
100
AcDbEntity
  8
A-ELEV-HIDN
100
AcDbLine
 10
11.409999999999993
 20
7.6375
 30
0.0
 11
11.449999999999992
 21
7.6375
 31
0.0
  0
LINE
  5
11A
330
17
100
AcDbEntity
  8
A-ELEV-HIDN
100
AcDbLine
 10
11.499999999999993
 20
7.6375
 30
0.0
 11
11.539999999999992
 21
7.6375
 31
0.0
  0
LINE
  5
11B
330
17
100
AcDbEntity
  8
A-ELEV-HIDN
100
AcDbLine
 10
11.589999999999993
 20
7.6375
 30
0.0
 11
11.629999999999992
 21
7.6375
 31
0.0
  0
LINE
  5
11C
330
17
100
AcDbEntity
  8
A-ELEV-HIDN
100
AcDbLine
 10
11.679999999999993
 20
7.6375
 30
0.0
 11
11.719999999999992
 21
7.6375
 31
0.0
  0
LINE
  5
11D
330
17
100
AcDbEntity
  8
A-ELEV-HIDN
100
AcDbLine
 10
11.769999999999992
 20
7.6375
 30
0.0
 11
11.809999999999992
 21
7.6375
 31
0.0
  0
LINE
  5
11E
330
17
100
AcDbEntity
  8
A-ELEV-HIDN
100
AcDbLine
 10
11.859999999999992
 20
7.6375
 30
0.0
 11
11.899999999999991
 21
7.6375
 31
0.0
  0
LINE
  5
11F
330
17
100
AcDbEntity
  8
A-ELEV-HIDN
100
AcDbLine
 10
11.949999999999992
 20
7.6375
 30
0.0
 11
11.989999999999991
 21
7.6375
 31
0.0
  0
LINE
  5
120
330
17
100
AcDbEntity
  8
A-ELEV-HIDN
100
AcDbLine
 10
12.039999999999992
 20
7.6375
 30
0.0
 11
12.079999999999991
 21
7.6375
 31
0.0
  0
LINE
  5
121
330
17
100
AcDbEntity
  8
A-ELEV-HIDN
100
AcDbLine
 10
12.129999999999992
 20
7.6375
 30
0.0
 11
12.169999999999991
 21
7.6375
 31
0.0
  0
LINE
  5
122
330
17
100
AcDbEntity
  8
A-ELEV-HIDN
100
AcDbLine
 10
12.219999999999992
 20
7.6375
 30
0.0
 11
12.259999999999991
 21
7.6375
 31
0.0
  0
LINE
  5
123
330
17
100
AcDbEntity
  8
A-ELEV-HIDN
100
AcDbLine
 10
12.309999999999992
 20
7.6375
 30
0.0
 11
12.34999999999999
 21
7.6375
 31
0.0
  0
LINE
  5
124
330
17
100
AcDbEntity
  8
A-ELEV-HIDN
100
AcDbLine
 10
12.399999999999991
 20
7.6375
 30
0.0
 11
12.43999999999999
 21
7.6375
 31
0.0
  0
LINE
  5
125
330
17
100
AcDbEntity
  8
A-ELEV-HIDN
100
AcDbLine
 10
12.489999999999991
 20
7.6375
 30
0.0
 11
12.52999999999999
 21
7.6375
 31
0.0
  0
LINE
  5
126
330
17
100
AcDbEntity
  8
A-ELEV-HIDN
100
AcDbLine
 10
12.579999999999991
 20
7.6375
 30
0.0
 11
12.61999999999999
 21
7.6375
 31
0.0
  0
LINE
  5
127
330
17
100
AcDbEntity
  8
A-ELEV-HIDN
100
AcDbLine
 10
12.669999999999991
 20
7.6375
 30
0.0
 11
12.70999999999999
 21
7.6375
 31
0.0
  0
LINE
  5
128
330
17
100
AcDbEntity
  8
A-ELEV-HIDN
100
AcDbLine
 10
12.759999999999991
 20
7.6375
 30
0.0
 11
12.79999999999999
 21
7.6375
 31
0.0
  0
LINE
  5
129
330
17
100
AcDbEntity
  8
A-ELEV-HIDN
100
AcDbLine
 10
12.84999999999999
 20
7.6375
 30
0.0
 11
12.88999999999999
 21
7.6375
 31
0.0
  0
LINE
  5
12A
330
17
100
AcDbEntity
  8
A-ELEV-HIDN
100
AcDbLine
 10
12.93999999999999
 20
7.6375
 30
0.0
 11
12.97999999999999
 21
7.6375
 31
0.0
  0
LINE
  5
12B
330
17
100
AcDbEntity
  8
A-ELEV-HIDN
100
AcDbLine
 10
13.02999999999999
 20
7.6375
 30
0.0
 11
13.06999999999999
 21
7.6375
 31
0.0
  0
LINE
  5
12C
330
17
100
AcDbEntity
  8
A-ELEV-HIDN
100
AcDbLine
 10
13.11999999999999
 20
7.6375
 30
0.0
 11
13.15999999999999
 21
7.6375
 31
0.0
  0
LINE
  5
12D
330
17
100
AcDbEntity
  8
A-ELEV-HIDN
100
AcDbLine
 10
13.20999999999999
 20
7.6375
 30
0.0
 11
13.24999999999999
 21
7.6375
 31
0.0
  0
LINE
  5
12E
330
17
100
AcDbEntity
  8
A-ELEV-HIDN
100
AcDbLine
 10
13.29999999999999
 20
7.6375
 30
0.0
 11
13.33999999999999
 21
7.6375
 31
0.0
  0
LINE
  5
12F
330
17
100
AcDbEntity
  8
A-ELEV-HIDN
100
AcDbLine
 10
13.38999999999999
 20
7.6375
 30
0.0
 11
13.429999999999989
 21
7.6375
 31
0.0
  0
LINE
  5
130
330
17
100
AcDbEntity
  8
A-ELEV-HIDN
100
AcDbLine
 10
13.47999999999999
 20
7.6375
 30
0.0
 11
13.519999999999989
 21
7.6375
 31
0.0
  0
LINE
  5
131
330
17
100
AcDbEntity
  8
A-ELEV-HIDN
100
AcDbLine
 10
13.56999999999999
 20
7.6375
 30
0.0
 11
13.609999999999989
 21
7.6375
 31
0.0
  0
LINE
  5
132
330
17
100
AcDbEntity
  8
A-ELEV-HIDN
100
AcDbLine
 10
13.65999999999999
 20
7.6375
 30
0.0
 11
13.699999999999989
 21
7.6375
 31
0.0
  0
LINE
  5
133
330
17
100
AcDbEntity
  8
A-ELEV-HIDN
100
AcDbLine
 10
13.74999999999999
 20
7.6375
 30
0.0
 11
13.789999999999988
 21
7.6375
 31
0.0
  0
LINE
  5
134
330
17
100
AcDbEntity
  8
A-ELEV-HIDN
100
AcDbLine
 10
13.83999999999999
 20
7.6375
 30
0.0
 11
13.879999999999988
 21
7.6375
 31
0.0
  0
LINE
  5
135
330
17
100
AcDbEntity
  8
A-ELEV-HIDN
100
AcDbLine
 10
13.929999999999989
 20
7.6375
 30
0.0
 11
13.969999999999988
 21
7.6375
 31
0.0
  0
LINE
  5
136
330
17
100
AcDbEntity
  8
A-ELEV-HIDN
100
AcDbLine
 10
14.019999999999989
 20
7.6375
 30
0.0
 11
14.059999999999988
 21
7.6375
 31
0.0
  0
LINE
  5
137
330
17
100
AcDbEntity
  8
A-ELEV-HIDN
100
AcDbLine
 10
14.109999999999989
 20
7.6375
 30
0.0
 11
14.149999999999988
 21
7.6375
 31
0.0
  0
LINE
  5
138
330
17
100
AcDbEntity
  8
A-ELEV-HIDN
100
AcDbLine
 10
14.199999999999989
 20
7.6375
 30
0.0
 11
14.239999999999988
 21
7.6375
 31
0.0
  0
LINE
  5
139
330
17
100
AcDbEntity
  8
A-ELEV-HIDN
100
AcDbLine
 10
14.289999999999988
 20
7.6375
 30
0.0
 11
14.329999999999988
 21
7.6375
 31
0.0
  0
LINE
  5
13A
330
17
100
AcDbEntity
  8
A-ELEV-HIDN
100
AcDbLine
 10
14.379999999999988
 20
7.6375
 30
0.0
 11
14.419999999999987
 21
7.6375
 31
0.0
  0
LINE
  5
13B
330
17
100
AcDbEntity
  8
A-ELEV-HIDN
100
AcDbLine
 10
14.469999999999988
 20
7.6375
 30
0.0
 11
14.509999999999987
 21
7.6375
 31
0.0
  0
LINE
  5
13C
330
17
100
AcDbEntity
  8
A-ELEV-HIDN
100
AcDbLine
 10
14.559999999999988
 20
7.6375
 30
0.0
 11
14.599999999999987
 21
7.6375
 31
0.0
  0
LINE
  5
13D
330
17
100
AcDbEntity
  8
A-ELEV-HIDN
100
AcDbLine
 10
14.649999999999988
 20
7.6375
 30
0.0
 11
14.689999999999987
 21
7.6375
 31
0.0
  0
LINE
  5
13E
330
17
100
AcDbEntity
  8
A-ELEV-HIDN
100
AcDbLine
 10
14.739999999999988
 20
7.6375
 30
0.0
 11
14.779999999999987
 21
7.6375
 31
0.0
  0
LINE
  5
13F
330
17
100
AcDbEntity
  8
A-ELEV-HIDN
100
AcDbLine
 10
14.829999999999988
 20
7.6375
 30
0.0
 11
14.869999999999987
 21
7.6375
 31
0.0
  0
LINE
  5
140
330
17
100
AcDbEntity
  8
A-ELEV-HIDN
100
AcDbLine
 10
14.919999999999987
 20
7.6375
 30
0.0
 11
14.959999999999987
 21
7.6375
 31
0.0
  0
LINE
  5
141
330
17
100
AcDbEntity
  8
A-ELEV-HIDN
100
AcDbLine
 10
15.009999999999987
 20
7.6375
 30
0.0
 11
15.049999999999986
 21
7.6375
 31
0.0
  0
LINE
  5
142
330
17
100
AcDbEntity
  8
A-ELEV-HIDN
100
AcDbLine
 10
15.099999999999987
 20
7.6375
 30
0.0
 11
15.139999999999986
 21
7.6375
 31
0.0
  0
LINE
  5
143
330
17
100
AcDbEntity
  8
A-ELEV-HIDN
100
AcDbLine
 10
15.189999999999987
 20
7.6375
 30
0.0
 11
15.229999999999986
 21
7.6375
 31
0.0
  0
LINE
  5
144
330
17
100
AcDbEntity
  8
A-ELEV-HIDN
100
AcDbLine
 10
15.279999999999987
 20
7.6375
 30
0.0
 11
15.319999999999986
 21
7.6375
 31
0.0
  0
LINE
  5
145
330
17
100
AcDbEntity
  8
A-ELEV-HIDN
100
AcDbLine
 10
15.369999999999987
 20
7.6375
 30
0.0
 11
15.409999999999986
 21
7.6375
 31
0.0
  0
LINE
  5
146
330
17
100
AcDbEntity
  8
A-ELEV-HIDN
100
AcDbLine
 10
15.459999999999987
 20
7.6375
 30
0.0
 11
15.499999999999986
 21
7.6375
 31
0.0
  0
LINE
  5
147
330
17
100
AcDbEntity
  8
A-ELEV-HIDN
100
AcDbLine
 10
15.549999999999986
 20
7.6375
 30
0.0
 11
15.589999999999986
 21
7.6375
 31
0.0
  0
LINE
  5
148
330
17
100
AcDbEntity
  8
A-ELEV-HIDN
100
AcDbLine
 10
15.639999999999986
 20
7.6375
 30
0.0
 11
15.679999999999986
 21
7.6375
 31
0.0
  0
HATCH
  5
149
330
17
100
AcDbEntity
  8
A-ELEV-DOOR
 62
7
420
5921370
100
AcDbHatch
 10
0.0
 20
0.0
 30
0.0
210
0.0
220
0.0
230
1.0
  2
SOLID
 70
1
 71
0
 91
1
 92
3
 72
0
 73
1
 93
4
 10
14.91875
 20
6.7
 10
15.29375
 20
6.7
 10
15.29375
 20
7.2
 10
14.91875
 20
7.2
 97
0
 75
0
 76
1
 98
0
  0
LWPOLYLINE
  5
14A
330
17
100
AcDbEntity
  8
A-ELEV-DOOR
100
AcDbPolyline
 90
4
 70
1
 10
14.91875
 20
6.7
 10
15.29375
 20
6.7
 10
15.29375
 20
7.2
 10
14.91875
 20
7.2
  0
TEXT
  5
14B
330
17
100
AcDbEntity
  8
A-ELEV-IDEN
100
AcDbText
 10
15.10625
 20
7.275
 30
0.0
 40
0.056
  1
X9
  7
KS-BOLD
 72
1
 11
15.10625
 21
7.275
 31
0.0
100
AcDbText
  0
HATCH
  5
14C
330
17
100
AcDbEntity
  8
A-ELEV-DOOR
 62
7
420
5921370
100
AcDbHatch
 10
0.0
 20
0.0
 30
0.0
210
0.0
220
0.0
230
1.0
  2
SOLID
 70
1
 71
0
 91
1
 92
3
 72
0
 73
1
 93
4
 10
3.1
 20
6.7
 10
3.475
 20
6.7
 10
3.475
 20
7.2
 10
3.1
 20
7.2
 97
0
 75
0
 76
1
 98
0
  0
LWPOLYLINE
  5
14D
330
17
100
AcDbEntity
  8
A-ELEV-DOOR
100
AcDbPolyline
 90
4
 70
1
 10
3.1
 20
6.7
 10
3.475
 20
6.7
 10
3.475
 20
7.2
 10
3.1
 20
7.2
  0
TEXT
  5
14E
330
17
100
AcDbEntity
  8
A-ELEV-IDEN
100
AcDbText
 10
3.2875
 20
7.275
 30
0.0
 40
0.056
  1
X10
  7
KS-BOLD
 72
1
 11
3.2875
 21
7.275
 31
0.0
100
AcDbText
  0
LINE
  5
14F
330
17
100
AcDbEntity
  8
A-ELEV-OTLN
100
AcDbLine
 10
2.7
 20
6.7
 30
0.0
 11
15.95
 21
6.7
 31
0.0
  0
LWPOLYLINE
  5
150
330
17
100
AcDbEntity
  8
A-ELEV-SIGN
100
AcDbPolyline
 90
4
 70
1
 10
12.325
 20
9.0
 10
15.2
 20
9.0
 10
15.2
 20
9.275
 10
12.325
 20
9.275
  0
TEXT
  5
151
330
17
100
AcDbEntity
  8
A-ELEV-SIGN
100
AcDbText
 10
13.7625
 20
9.09375
 30
0.0
 40
0.056
  1
BRAND / SIGNAGE — TBD
  7
KS-BOLD
 72
1
 11
13.7625
 21
9.09375
 31
0.0
100
AcDbText
  0
HATCH
  5
152
330
17
100
AcDbEntity
  8
A-ELEV-FILL
 62
7
420
10361650
100
AcDbHatch
 10
0.0
 20
0.0
 30
0.0
210
0.0
220
0.0
230
1.0
  2
SOLID
 70
1
 71
0
 91
1
 92
3
 72
0
 73
1
 93
53
 10
9.1375
 20
6.7
 10
10.8875
 20
6.7
 10
10.8875
 20
8.325
 10
10.8875
 20
8.325
 10
10.885626557833778
 20
8.382227738076375
 10
10.880014253702084
 20
8.439210418192545
 10
10.870687120352827
 20
8.495704031764113
 10
10.857685098002936
 20
8.551466664464705
 10
10.841063863308218
 20
8.606259532140268
 10
10.820894590947375
 20
8.659848003319453
 10
10.797263648841103
 20
8.712002603941627
 10
10.770272228311384
 20
8.7625
 10
10.740035910764728
 20
8.811123953892153
 10
10.70668417275483
 20
8.85766625038263
 10
10.670359831544104
 20
8.90192758821256
 10
10.63121843353823
 20
8.94371843353823
 10
10.58942758821256
 20
8.982859831544106
 10
10.545166250382632
 20
9.01918417275483
 10
10.498623953892153
 20
9.052535910764728
 10
10.45
 20
9.082772228311384
 10
10.399502603941627
 20
9.109763648841103
 10
10.347348003319453
 20
9.133394590947375
 10
10.293759532140268
 20
9.153563863308218
 10
10.238966664464705
 20
9.170185098002936
 10
10.183204031764113
 20
9.183187120352827
 10
10.126710418192545
 20
9.192514253702084
 10
10.069727738076375
 20
9.198126557833778
 10
10.0125
 20
9.2
 10
9.955272261923625
 20
9.198126557833778
 10
9.898289581807454
 20
9.192514253702084
 10
9.841795968235889
 20
9.183187120352827
 10
9.786033335535294
 20
9.170185098002936
 10
9.731240467859735
 20
9.153563863308218
 10
9.677651996680547
 20
9.133394590947375
 10
9.625497396058375
 20
9.109763648841103
 10
9.575
 20
9.082772228311384
 10
9.526376046107849
 20
9.052535910764728
 10
9.47983374961737
 20
9.01918417275483
 10
9.43557241178744
 20
8.982859831544106
 10
9.393781566461772
 20
8.94371843353823
 10
9.354640168455894
 20
8.90192758821256
 10
9.318315827245168
 20
8.857666250382632
 10
9.284964089235274
 20
8.811123953892153
 10
9.254727771688616
 20
8.7625
 10
9.227736351158898
 20
8.712002603941627
 10
9.204105409052623
 20
8.659848003319453
 10
9.183936136691782
 20
8.606259532140268
 10
9.167314901997067
 20
8.551466664464707
 10
9.154312879647174
 20
8.495704031764113
 10
9.144985746297916
 20
8.439210418192545
 10
9.139373442166221
 20
8.382227738076375
 10
9.1375
 20
8.325
 10
9.1375
 20
8.325
 97
0
 75
0
 76
1
 98
0
  0
HATCH
  5
153
330
17
100
AcDbEntity
  8
A-ELEV-FILL
 62
7
420
13214247
100
AcDbHatch
 10
0.0
 20
0.0
 30
0.0
210
0.0
220
0.0
230
1.0
  2
SOLID
 70
1
 71
0
 91
1
 92
3
 72
0
 73
1
 93
98
 10
10.8875
 20
8.325
 10
10.885626557833778
 20
8.382227738076375
 10
10.880014253702084
 20
8.439210418192545
 10
10.870687120352827
 20
8.495704031764113
 10
10.857685098002936
 20
8.551466664464705
 10
10.841063863308218
 20
8.606259532140268
 10
10.820894590947375
 20
8.659848003319453
 10
10.797263648841103
 20
8.712002603941627
 10
10.770272228311384
 20
8.7625
 10
10.740035910764728
 20
8.811123953892153
 10
10.70668417275483
 20
8.85766625038263
 10
10.670359831544104
 20
8.90192758821256
 10
10.63121843353823
 20
8.94371843353823
 10
10.58942758821256
 20
8.982859831544106
 10
10.545166250382632
 20
9.01918417275483
 10
10.498623953892153
 20
9.052535910764728
 10
10.45
 20
9.082772228311384
 10
10.399502603941627
 20
9.109763648841103
 10
10.347348003319453
 20
9.133394590947375
 10
10.293759532140268
 20
9.153563863308218
 10
10.238966664464705
 20
9.170185098002936
 10
10.183204031764113
 20
9.183187120352827
 10
10.126710418192545
 20
9.192514253702084
 10
10.069727738076375
 20
9.198126557833778
 10
10.0125
 20
9.2
 10
9.955272261923625
 20
9.198126557833778
 10
9.898289581807454
 20
9.192514253702084
 10
9.841795968235889
 20
9.183187120352827
 10
9.786033335535294
 20
9.170185098002936
 10
9.731240467859735
 20
9.153563863308218
 10
9.677651996680547
 20
9.133394590947375
 10
9.625497396058375
 20
9.109763648841103
 10
9.575
 20
9.082772228311384
 10
9.526376046107849
 20
9.052535910764728
 10
9.47983374961737
 20
9.01918417275483
 10
9.43557241178744
 20
8.982859831544106
 10
9.393781566461772
 20
8.94371843353823
 10
9.354640168455894
 20
8.90192758821256
 10
9.318315827245168
 20
8.857666250382632
 10
9.284964089235274
 20
8.811123953892153
 10
9.254727771688616
 20
8.7625
 10
9.227736351158898
 20
8.712002603941627
 10
9.204105409052623
 20
8.659848003319453
 10
9.183936136691782
 20
8.606259532140268
 10
9.167314901997067
 20
8.551466664464707
 10
9.154312879647174
 20
8.495704031764113
 10
9.144985746297916
 20
8.439210418192545
 10
9.139373442166221
 20
8.382227738076375
 10
9.1375
 20
8.325
 10
9.2125
 20
8.325
 10
9.214212861409116
 20
8.377322503384114
 10
9.219344110900952
 20
8.429420953776042
 10
9.227871775677416
 20
8.481072257612903
 10
9.239759338968746
 20
8.532055236082018
 10
9.254955896403915
 20
8.58215157224253
 10
9.27339637399097
 20
8.631146745892073
 10
9.29500180677385
 20
8.6788309521752
 10
9.319679676972449
 20
8.725
 10
9.347324310157964
 20
8.769456186415681
 10
9.377817327767012
 20
8.812009143206977
 10
9.411028154016819
 20
8.852476652080055
 10
9.446814575050762
 20
8.890685424949238
 10
9.485023347919945
 20
8.926471845983182
 10
9.525490856793024
 20
8.959682672232988
 10
9.568043813584318
 20
8.990175689842037
 10
9.6125
 20
9.017820323027552
 10
9.658669047824798
 20
9.042498193226152
 10
9.706353254107928
 20
9.064103626009029
 10
9.755348427757472
 20
9.082544103596085
 10
9.805444763917983
 20
9.097740661031255
 10
9.856427742387098
 20
9.109628224322584
 10
9.908079046223959
 20
9.118155889099048
 10
9.960177496615886
 20
9.123287138590882
 10
10.0125
 20
9.125
 10
10.064822503384114
 20
9.123287138590882
 10
10.116920953776042
 20
9.118155889099048
 10
10.168572257612903
 20
9.109628224322584
 10
10.219555236082016
 20
9.097740661031255
 10
10.26965157224253
 20
9.082544103596085
 10
10.318646745892071
 20
9.064103626009029
 10
10.3663309521752
 20
9.042498193226152
 10
10.412500000000001
 20
9.01782032302755
 10
10.456956186415681
 20
8.990175689842037
 10
10.499509143206977
 20
8.959682672232988
 10
10.539976652080055
 20
8.926471845983182
 10
10.578185424949238
 20
8.890685424949238
 10
10.613971845983183
 20
8.852476652080055
 10
10.647182672232988
 20
8.812009143206977
 10
10.677675689842037
 20
8.769456186415681
 10
10.70532032302755
 20
8.725
 10
10.729998193226152
 20
8.6788309521752
 10
10.751603626009029
 20
8.631146745892073
 10
10.770044103596085
 20
8.58215157224253
 10
10.785240661031255
 20
8.532055236082016
 10
10.797128224322584
 20
8.481072257612903
 10
10.805655889099048
 20
8.429420953776042
 10
10.810787138590882
 20
8.377322503384114
 10
10.8125
 20
8.325
 97
0
 75
0
 76
1
 98
0
  0
HATCH
  5
154
330
17
100
AcDbEntity
  8
A-ELEV-FILL
 62
7
420
13214247
100
AcDbHatch
 10
0.0
 20
0.0
 30
0.0
210
0.0
220
0.0
230
1.0
  2
SOLID
 70
1
 71
0
 91
1
 92
3
 72
0
 73
1
 93
4
 10
9.1375
 20
6.7
 10
9.2125
 20
6.7
 10
9.2125
 20
8.325
 10
9.1375
 20
8.325
 97
0
 75
0
 76
1
 98
0
  0
HATCH
  5
155
330
17
100
AcDbEntity
  8
A-ELEV-FILL
 62
7
420
13214247
100
AcDbHatch
 10
0.0
 20
0.0
 30
0.0
210
0.0
220
0.0
230
1.0
  2
SOLID
 70
1
 71
0
 91
1
 92
3
 72
0
 73
1
 93
4
 10
10.8125
 20
6.7
 10
10.8875
 20
6.7
 10
10.8875
 20
8.325
 10
10.8125
 20
8.325
 97
0
 75
0
 76
1
 98
0
  0
HATCH
  5
156
330
17
100
AcDbEntity
  8
A-ELEV-OTLN
 62
7
420
11126493
100
AcDbHatch
 10
0.0
 20
0.0
 30
0.0
210
0.0
220
0.0
230
1.0
  2
SOLID
 70
1
 71
0
 91
1
 92
3
 72
0
 73
1
 93
4
 10
9.30625
 20
6.7
 10
10.71875
 20
6.7
 10
10.71875
 20
7.7
 10
9.30625
 20
7.7
 97
0
 75
0
 76
1
 98
0
  0
LWPOLYLINE
  5
157
330
17
100
AcDbEntity
  8
A-ELEV-OTLN
100
AcDbPolyline
 90
4
 70
1
 10
9.30625
 20
6.7
 10
10.71875
 20
6.7
 10
10.71875
 20
7.7
 10
9.30625
 20
7.7
  0
LINE
  5
158
330
17
100
AcDbEntity
  8
A-ELEV-OTLN
100
AcDbLine
 10
9.541666666666668
 20
6.7
 30
0.0
 11
9.541666666666668
 21
7.7
 31
0.0
  0
LINE
  5
159
330
17
100
AcDbEntity
  8
A-ELEV-OTLN
100
AcDbLine
 10
9.777083333333334
 20
6.7
 30
0.0
 11
9.777083333333334
 21
7.7
 31
0.0
  0
LINE
  5
15A
330
17
100
AcDbEntity
  8
A-ELEV-OTLN
100
AcDbLine
 10
10.0125
 20
6.7
 30
0.0
 11
10.0125
 21
7.7
 31
0.0
  0
LINE
  5
15B
330
17
100
AcDbEntity
  8
A-ELEV-OTLN
100
AcDbLine
 10
10.247916666666667
 20
6.7
 30
0.0
 11
10.247916666666667
 21
7.7
 31
0.0
  0
LINE
  5
15C
330
17
100
AcDbEntity
  8
A-ELEV-OTLN
100
AcDbLine
 10
10.483333333333334
 20
6.7
 30
0.0
 11
10.483333333333334
 21
7.7
 31
0.0
  0
LINE
  5
15D
330
17
100
AcDbEntity
  8
A-ELEV-OTLN
100
AcDbLine
 10
9.30625
 20
7.2625
 30
0.0
 11
10.71875
 21
7.2625
 31
0.0
  0
HATCH
  5
15E
330
17
100
AcDbEntity
  8
A-ELEV-FILL
 62
7
420
14208176
100
AcDbHatch
 10
0.0
 20
0.0
 30
0.0
210
0.0
220
0.0
230
1.0
  2
SOLID
 70
1
 71
0
 91
1
 92
3
 72
0
 73
1
 93
57
 10
8.6375
 20
6.7
 10
9.1375
 20
6.7
 10
9.1375
 20
8.325
 10
9.1375
 20
8.325
 10
9.139373442166221
 20
8.382227738076375
 10
9.144985746297916
 20
8.439210418192545
 10
9.154312879647174
 20
8.495704031764113
 10
9.167314901997067
 20
8.551466664464707
 10
9.183936136691782
 20
8.606259532140268
 10
9.204105409052623
 20
8.659848003319453
 10
9.227736351158898
 20
8.712002603941627
 10
9.254727771688616
 20
8.7625
 10
9.284964089235274
 20
8.811123953892153
 10
9.318315827245168
 20
8.857666250382632
 10
9.354640168455894
 20
8.90192758821256
 10
9.393781566461772
 20
8.94371843353823
 10
9.43557241178744
 20
8.982859831544106
 10
9.47983374961737
 20
9.01918417275483
 10
9.526376046107849
 20
9.052535910764728
 10
9.575
 20
9.082772228311384
 10
9.625497396058375
 20
9.109763648841103
 10
9.677651996680547
 20
9.133394590947375
 10
9.731240467859735
 20
9.153563863308218
 10
9.786033335535294
 20
9.170185098002936
 10
9.841795968235889
 20
9.183187120352827
 10
9.898289581807454
 20
9.192514253702084
 10
9.955272261923625
 20
9.198126557833778
 10
10.0125
 20
9.2
 10
10.069727738076375
 20
9.198126557833778
 10
10.126710418192545
 20
9.192514253702084
 10
10.183204031764113
 20
9.183187120352827
 10
10.238966664464705
 20
9.170185098002936
 10
10.293759532140268
 20
9.153563863308218
 10
10.347348003319453
 20
9.133394590947375
 10
10.399502603941627
 20
9.109763648841103
 10
10.45
 20
9.082772228311384
 10
10.498623953892153
 20
9.052535910764728
 10
10.545166250382632
 20
9.01918417275483
 10
10.58942758821256
 20
8.982859831544106
 10
10.63121843353823
 20
8.94371843353823
 10
10.670359831544104
 20
8.90192758821256
 10
10.70668417275483
 20
8.85766625038263
 10
10.740035910764728
 20
8.811123953892153
 10
10.770272228311384
 20
8.7625
 10
10.797263648841103
 20
8.712002603941627
 10
10.820894590947375
 20
8.659848003319453
 10
10.841063863308218
 20
8.606259532140268
 10
10.857685098002936
 20
8.551466664464705
 10
10.870687120352827
 20
8.495704031764113
 10
10.880014253702084
 20
8.439210418192545
 10
10.885626557833778
 20
8.382227738076375
 10
10.8875
 20
8.325
 10
10.8875
 20
8.325
 10
10.8875
 20
6.7
 10
11.3875
 20
6.7
 10
11.3875
 20
9.825
 10
8.6375
 20
9.825
 97
0
 75
0
 76
1
 98
0
  0
LWPOLYLINE
  5
15F
330
17
100
AcDbEntity
  8
A-ELEV-OTLN
100
AcDbPolyline
 90
57
 70
1
 10
8.6375
 20
6.7
 10
9.1375
 20
6.7
 10
9.1375
 20
8.325
 10
9.1375
 20
8.325
 10
9.139373442166221
 20
8.382227738076375
 10
9.144985746297916
 20
8.439210418192545
 10
9.154312879647174
 20
8.495704031764113
 10
9.167314901997067
 20
8.551466664464707
 10
9.183936136691782
 20
8.606259532140268
 10
9.204105409052623
 20
8.659848003319453
 10
9.227736351158898
 20
8.712002603941627
 10
9.254727771688616
 20
8.7625
 10
9.284964089235274
 20
8.811123953892153
 10
9.318315827245168
 20
8.857666250382632
 10
9.354640168455894
 20
8.90192758821256
 10
9.393781566461772
 20
8.94371843353823
 10
9.43557241178744
 20
8.982859831544106
 10
9.47983374961737
 20
9.01918417275483
 10
9.526376046107849
 20
9.052535910764728
 10
9.575
 20
9.082772228311384
 10
9.625497396058375
 20
9.109763648841103
 10
9.677651996680547
 20
9.133394590947375
 10
9.731240467859735
 20
9.153563863308218
 10
9.786033335535294
 20
9.170185098002936
 10
9.841795968235889
 20
9.183187120352827
 10
9.898289581807454
 20
9.192514253702084
 10
9.955272261923625
 20
9.198126557833778
 10
10.0125
 20
9.2
 10
10.069727738076375
 20
9.198126557833778
 10
10.126710418192545
 20
9.192514253702084
 10
10.183204031764113
 20
9.183187120352827
 10
10.238966664464705
 20
9.170185098002936
 10
10.293759532140268
 20
9.153563863308218
 10
10.347348003319453
 20
9.133394590947375
 10
10.399502603941627
 20
9.109763648841103
 10
10.45
 20
9.082772228311384
 10
10.498623953892153
 20
9.052535910764728
 10
10.545166250382632
 20
9.01918417275483
 10
10.58942758821256
 20
8.982859831544106
 10
10.63121843353823
 20
8.94371843353823
 10
10.670359831544104
 20
8.90192758821256
 10
10.70668417275483
 20
8.85766625038263
 10
10.740035910764728
 20
8.811123953892153
 10
10.770272228311384
 20
8.7625
 10
10.797263648841103
 20
8.712002603941627
 10
10.820894590947375
 20
8.659848003319453
 10
10.841063863308218
 20
8.606259532140268
 10
10.857685098002936
 20
8.551466664464705
 10
10.870687120352827
 20
8.495704031764113
 10
10.880014253702084
 20
8.439210418192545
 10
10.885626557833778
 20
8.382227738076375
 10
10.8875
 20
8.325
 10
10.8875
 20
8.325
 10
10.8875
 20
6.7
 10
11.3875
 20
6.7
 10
11.3875
 20
9.825
 10
8.6375
 20
9.825
  0
LINE
  5
160
330
17
100
AcDbEntity
  8
A-ELEV-OTLN
100
AcDbLine
 10
8.7625
 20
6.7
 30
0.0
 11
8.7625
 21
9.325
 31
0.0
  0
LINE
  5
161
330
17
100
AcDbEntity
  8
A-ELEV-OTLN
100
AcDbLine
 10
11.2625
 20
6.7
 30
0.0
 11
11.2625
 21
9.325
 31
0.0
  0
LINE
  5
162
330
17
100
AcDbEntity
  8
A-ELEV-OTLN
100
AcDbLine
 10
8.6375
 20
8.325
 30
0.0
 11
9.1375
 21
8.325
 31
0.0
  0
LINE
  5
163
330
17
100
AcDbEntity
  8
A-ELEV-OTLN
100
AcDbLine
 10
10.8875
 20
8.325
 30
0.0
 11
11.3875
 21
8.325
 31
0.0
  0
LINE
  5
164
330
17
100
AcDbEntity
  8
A-ELEV-OTLN
100
AcDbLine
 10
8.6375
 20
9.325
 30
0.0
 11
11.3875
 21
9.325
 31
0.0
  0
LINE
  5
165
330
17
100
AcDbEntity
  8
A-ELEV-OTLN
100
AcDbLine
 10
8.575
 20
9.75
 30
0.0
 11
11.45
 21
9.75
 31
0.0
  0
HATCH
  5
166
330
17
100
AcDbEntity
  8
A-ELEV-OTLN
 62
7
420
14208176
100
AcDbHatch
 10
0.0
 20
0.0
 30
0.0
210
0.0
220
0.0
230
1.0
  2
SOLID
 70
1
 71
0
 91
1
 92
3
 72
0
 73
1
 93
4
 10
8.575
 20
9.75
 10
11.45
 20
9.75
 10
11.45
 20
9.825
 10
8.575
 20
9.825
 97
0
 75
0
 76
1
 98
0
  0
LWPOLYLINE
  5
167
330
17
100
AcDbEntity
  8
A-ELEV-OTLN
100
AcDbPolyline
 90
4
 70
1
 10
8.575
 20
9.75
 10
11.45
 20
9.75
 10
11.45
 20
9.825
 10
8.575
 20
9.825
  0
HATCH
  5
168
330
17
100
AcDbEntity
  8
A-ELEV-OTLN
 62
7
420
14208176
100
AcDbHatch
 10
0.0
 20
0.0
 30
0.0
210
0.0
220
0.0
230
1.0
  2
SOLID
 70
1
 71
0
 91
1
 92
3
 72
0
 73
1
 93
7
 10
10.126710418192545
 20
9.192514253702084
 10
9.898289581807454
 20
9.192514253702084
 10
9.871587235277934
 20
9.327646419600839
 10
9.941871570334072
 20
9.335033600888071
 10
10.0125
 20
9.3375
 10
10.083128429665926
 20
9.335033600888071
 10
10.153412764722066
 20
9.327646419600839
 97
0
 75
0
 76
1
 98
0
  0
LWPOLYLINE
  5
169
330
17
100
AcDbEntity
  8
A-ELEV-OTLN
100
AcDbPolyline
 90
7
 70
1
 10
10.126710418192545
 20
9.192514253702084
 10
9.898289581807454
 20
9.192514253702084
 10
9.871587235277934
 20
9.327646419600839
 10
9.941871570334072
 20
9.335033600888071
 10
10.0125
 20
9.3375
 10
10.083128429665926
 20
9.335033600888071
 10
10.153412764722066
 20
9.327646419600839
  0
HATCH
  5
16A
330
17
100
AcDbEntity
  8
A-ELEV-SIGN
 62
7
420
13369344
100
AcDbHatch
 10
0.0
 20
0.0
 30
0.0
210
0.0
220
0.0
230
1.0
  2
SOLID
 70
1
 71
0
 91
1
 92
3
 72
0
 73
1
 93
4
 10
9.075
 20
9.4125
 10
10.95
 20
9.4125
 10
10.95
 20
9.675
 10
9.075
 20
9.675
 97
0
 75
0
 76
1
 98
0
  0
LWPOLYLINE
  5
16B
330
17
100
AcDbEntity
  8
A-ELEV-SIGN
100
AcDbPolyline
 90
4
 70
1
 10
9.075
 20
9.4125
 10
10.95
 20
9.4125
 10
10.95
 20
9.675
 10
9.075
 20
9.675
  0
TEXT
  5
16C
330
17
100
AcDbEntity
  8
A-ELEV-SIGN
100
AcDbText
 10
10.0125
 20
9.478125
 30
0.0
 40
0.064
  1
BRAND / SIGNAGE — TBD
  7
KS-BOLD
 72
1
 11
10.0125
 21
9.478125
 31
0.0
100
AcDbText
  0
TEXT
  5
16D
330
17
100
AcDbEntity
  8
A-ELEV-IDEN
100
AcDbText
 10
10.0125
 20
7.7625
 30
0.0
 40
0.052000000000000005
  1
E1 MAIN ENTRY / EXIT
  7
KS-BOLD
 72
1
 11
10.0125
 21
7.7625
 31
0.0
100
AcDbText
  0
LINE
  5
16E
330
17
100
AcDbEntity
  8
A-ELEV-DATM
100
AcDbLine
 10
2.3875
 20
6.7
 30
0.0
 11
2.825
 21
6.7
 31
0.0
  0
TEXT
  5
16F
330
17
100
AcDbEntity
  8
A-ELEV-DATM
100
AcDbText
 10
2.325
 20
6.675
 30
0.0
 40
0.056
  1
L1 FF 0'-0"
  7
KS-REG
 72
2
 11
2.325
 21
6.675
 31
0.0
100
AcDbText
  0
LINE
  5
170
330
17
100
AcDbEntity
  8
A-ELEV-DATM
100
AcDbLine
 10
2.3875
 20
7.6375
 30
0.0
 11
2.825
 21
7.6375
 31
0.0
  0
TEXT
  5
171
330
17
100
AcDbEntity
  8
A-ELEV-DATM
100
AcDbText
 10
2.325
 20
7.6125
 30
0.0
 40
0.056
  1
L2 FF 15'-0" (ASSUMED)
  7
KS-REG
 72
2
 11
2.325
 21
7.6125
 31
0.0
100
AcDbText
  0
LINE
  5
172
330
17
100
AcDbEntity
  8
A-ELEV-DATM
100
AcDbLine
 10
2.3875
 20
8.575
 30
0.0
 11
2.825
 21
8.575
 31
0.0
  0
TEXT
  5
173
330
17
100
AcDbEntity
  8
A-ELEV-DATM
100
AcDbText
 10
2.325
 20
8.549999999999999
 30
0.0
 40
0.056
  1
T.O. RING ROOF 30'-0" (ASSUMED)
  7
KS-REG
 72
2
 11
2.325
 21
8.549999999999999
 31
0.0
100
AcDbText
  0
LINE
  5
174
330
17
100
AcDbEntity
  8
A-ELEV-DATM
100
AcDbLine
 10
2.3875
 20
8.95
 30
0.0
 11
2.825
 21
8.95
 31
0.0
  0
TEXT
  5
175
330
17
100
AcDbEntity
  8
A-ELEV-DATM
100
AcDbText
 10
2.325
 20
8.924999999999999
 30
0.0
 40
0.056
  1
U/S ARENA STRUCT. 36'-0" (ASSUMED)
  7
KS-REG
 72
2
 11
2.325
 21
8.924999999999999
 31
0.0
100
AcDbText
  0
LINE
  5
176
330
17
100
AcDbEntity
  8
A-ELEV-DATM
100
AcDbLine
 10
2.3875
 20
9.325
 30
0.0
 11
2.825
 21
9.325
 31
0.0
  0
TEXT
  5
177
330
17
100
AcDbEntity
  8
A-ELEV-DATM
100
AcDbText
 10
2.325
 20
9.299999999999999
 30
0.0
 40
0.056
  1
T.O. ARENA ROOF 42'-0" (ASSUMED)
  7
KS-REG
 72
2
 11
2.325
 21
9.299999999999999
 31
0.0
100
AcDbText
  0
TEXT
  5
178
330
17
100
AcDbEntity
  8
A-ELEV-IDEN
100
AcDbText
 10
14.075
 20
7.2
 30
0.0
 40
0.06
  1
WALL MATERIAL TBD
  7
KS-REG
 72
1
 11
14.075
 21
7.2
 31
0.0
100
AcDbText
  0
TEXT
  5
179
330
17
100
AcDbEntity
  8
A-ELEV-IDEN
100
AcDbText
 10
4.825
 20
8.65625
 30
0.0
 40
0.05
  1
PARAPET TBD
  7
KS-REG
 72
1
 11
4.825
 21
8.65625
 31
0.0
100
AcDbText
  0
TEXT
  5
17A
330
17
100
AcDbEntity
  8
A-ELEV-IDEN
100
AcDbText
 10
6.7
 20
9.40625
 30
0.0
 40
0.05
  1
PARAPET TBD
  7
KS-REG
 72
1
 11
6.7
 21
9.40625
 31
0.0
100
AcDbText
  0
TEXT
  5
17B
330
17
100
AcDbEntity
  8
A-ELEV-IDEN
100
AcDbText
 10
4.5125
 20
8.10625
 30
0.0
 40
0.06
  1
WALL MATERIAL TBD
  7
KS-REG
 72
1
 11
4.5125
 21
8.10625
 31
0.0
100
AcDbText
  0
TEXT
  5
17C
330
17
100
AcDbEntity
  8
A-ELEV-IDEN
100
AcDbText
 10
7.325
 20
8.7125
 30
0.0
 40
0.054000000000000006
  1
ARENA VOLUME BEHIND (set back 34')
  7
KS-REG
 72
1
 11
7.325
 21
8.7125
 31
0.0
100
AcDbText
  0
TEXT
  5
17D
330
17
100
AcDbEntity
  8
A-ELEV-IDEN
100
AcDbText
 10
10.0125
 20
10.05
 30
0.0
 40
0.06999999999999999
  1
SOUTH PORTAL — LIMESTONE ARCH
  7
KS-BOLD
 72
1
 11
10.0125
 21
10.05
 31
0.0
100
AcDbText
  0
LINE
  5
17E
330
17
100
AcDbEntity
  8
A-ELEV-IDEN
100
AcDbLine
 10
10.7625
 20
9.05
 30
0.0
 11
11.535
 21
9.042499999999999
 31
0.0
  0
TEXT
  5
17F
330
17
100
AcDbEntity
  8
A-ELEV-IDEN
100
AcDbText
 10
11.575
 20
9.0125
 30
0.0
 40
0.054000000000000006
  1
CRIMSON inside the arch (Shane)
  7
KS-REG
 11
11.575
 21
9.0125
 31
0.0
100
AcDbText
  0
LINE
  5
180
330
17
100
AcDbEntity
  8
A-ELEV-IDEN
100
AcDbLine
 10
10.7625
 20
8.1125
 30
0.0
 11
11.535
 21
8.104999999999999
 31
0.0
  0
TEXT
  5
181
330
17
100
AcDbEntity
  8
A-ELEV-IDEN
100
AcDbText
 10
11.575
 20
8.075
 30
0.0
 40
0.054000000000000006
  1
GOLD soffit / intrados band (Shane)
  7
KS-REG
 11
11.575
 21
8.075
 31
0.0
100
AcDbText
  0
LINE
  5
182
330
17
100
AcDbEntity
  8
A-ELEV-IDEN
100
AcDbLine
 10
10.7625
 20
7.3625
 30
0.0
 11
11.535
 21
7.355
 31
0.0
  0
TEXT
  5
183
330
17
100
AcDbEntity
  8
A-ELEV-IDEN
100
AcDbText
 10
11.575
 20
7.325
 30
0.0
 40
0.054000000000000006
  1
ENTRY GLAZING TBD (E1)
  7
KS-REG
 11
11.575
 21
7.325
 31
0.0
100
AcDbText
  0
TEXT
  5
184
330
17
100
AcDbEntity
  8
A-ELEV-IDEN
100
AcDbText
 10
2.95
 20
6.3500000000000005
 30
0.0
 40
0.08499999999999999
  1
SOUTH ELEVATION (PRIMARY) — SCALE 1/16" = 1'-0"
  7
KS-BOLD
 11
2.95
 21
6.3500000000000005
 31
0.0
100
AcDbText
  0
TEXT
  5
185
330
17
100
AcDbEntity
  8
A-ELEV-IDEN
100
AcDbText
 10
15.7
 20
6.3500000000000005
 30
0.0
 40
0.06
  1
portal 44' w x 50' h, 28' arch, crown 40' (ASSUMED, render proportions) · W ← → E
  7
KS-REG
 72
2
 11
15.7
 21
6.3500000000000005
 31
0.0
100
AcDbText
  0
TEXT
  5
186
330
17
100
AcDbEntity
  8
A-ELEV-IDEN
100
AcDbText
 10
2.95
 20
6.5375000000000005
 30
0.0
 40
0.056
  1
W
  7
KS-BOLD
 72
1
 11
2.95
 21
6.5375000000000005
 31
0.0
100
AcDbText
  0
TEXT
  5
187
330
17
100
AcDbEntity
  8
A-ELEV-IDEN
100
AcDbText
 10
15.7
 20
6.5375000000000005
 30
0.0
 40
0.056
  1
E
  7
KS-BOLD
 72
1
 11
15.7
 21
6.5375000000000005
 31
0.0
100
AcDbText
  0
HATCH
  5
188
330
17
100
AcDbEntity
  8
A-ELEV-FILL
 62
7
420
13487565
100
AcDbHatch
 10
0.0
 20
0.0
 30
0.0
210
0.0
220
0.0
230
1.0
  2
SOLID
 70
1
 71
0
 91
1
 92
3
 72
0
 73
1
 93
4
 10
1.2
 20
4.3
 10
6.04375
 20
4.3
 10
6.04375
 20
5.6125
 10
1.2
 20
5.6125
 97
0
 75
0
 76
1
 98
0
  0
HATCH
  5
189
330
17
100
AcDbEntity
  8
A-ELEV-FILL
 62
7
420
15000804
100
AcDbHatch
 10
0.0
 20
0.0
 30
0.0
210
0.0
220
0.0
230
1.0
  2
SOLID
 70
1
 71
0
 91
1
 92
3
 72
0
 73
1
 93
4
 10
1.2
 20
4.3
 10
7.575
 20
4.3
 10
7.575
 20
5.2375
 10
1.2
 20
5.2375
 97
0
 75
0
 76
1
 98
0
  0
HATCH
  5
18A
330
17
100
AcDbEntity
  8
A-ELEV-FILL
 62
7
420
15000804
100
AcDbHatch
 10
0.0
 20
0.0
 30
0.0
210
0.0
220
0.0
230
1.0
  2
SOLID
 70
1
 71
0
 91
1
 92
3
 72
0
 73
1
 93
4
 10
1.2
 20
4.3
 10
1.79375
 20
4.3
 10
1.79375
 20
5.2375
 10
1.2
 20
5.2375
 97
0
 75
0
 76
1
 98
0
  0
LWPOLYLINE
  5
18B
330
17
100
AcDbEntity
  8
A-ELEV-OTLN
100
AcDbPolyline
 90
4
 70
1
 10
1.2
 20
4.3
 10
6.04375
 20
4.3
 10
6.04375
 20
5.6125
 10
1.2
 20
5.6125
  0
LWPOLYLINE
  5
18C
330
17
100
AcDbEntity
  8
A-ELEV-OTLN
100
AcDbPolyline
 90
4
 70
1
 10
1.2
 20
4.3
 10
7.575
 20
4.3
 10
7.575
 20
5.2375
 10
1.2
 20
5.2375
  0
LWPOLYLINE
  5
18D
330
17
100
AcDbEntity
  8
A-ELEV-OTLN
100
AcDbPolyline
 90
4
 70
1
 10
1.2
 20
4.3
 10
1.79375
 20
4.3
 10
1.79375
 20
5.2375
 10
1.2
 20
5.2375
  0
LINE
  5
18E
330
17
100
AcDbEntity
  8
A-ELEV-HIDN
100
AcDbLine
 10
1.23125
 20
5.425
 30
0.0
 11
1.29125
 21
5.425
 31
0.0
  0
LINE
  5
18F
330
17
100
AcDbEntity
  8
A-ELEV-HIDN
100
AcDbLine
 10
1.33625
 20
5.425
 30
0.0
 11
1.39625
 21
5.425
 31
0.0
  0
LINE
  5
190
330
17
100
AcDbEntity
  8
A-ELEV-HIDN
100
AcDbLine
 10
1.44125
 20
5.425
 30
0.0
 11
1.50125
 21
5.425
 31
0.0
  0
LINE
  5
191
330
17
100
AcDbEntity
  8
A-ELEV-HIDN
100
AcDbLine
 10
1.54625
 20
5.425
 30
0.0
 11
1.60625
 21
5.425
 31
0.0
  0
LINE
  5
192
330
17
100
AcDbEntity
  8
A-ELEV-HIDN
100
AcDbLine
 10
1.6512499999999999
 20
5.425
 30
0.0
 11
1.71125
 21
5.425
 31
0.0
  0
LINE
  5
193
330
17
100
AcDbEntity
  8
A-ELEV-HIDN
100
AcDbLine
 10
1.7562499999999999
 20
5.425
 30
0.0
 11
1.81625
 21
5.425
 31
0.0
  0
LINE
  5
194
330
17
100
AcDbEntity
  8
A-ELEV-HIDN
100
AcDbLine
 10
1.86125
 20
5.425
 30
0.0
 11
1.92125
 21
5.425
 31
0.0
  0
LINE
  5
195
330
17
100
AcDbEntity
  8
A-ELEV-HIDN
100
AcDbLine
 10
1.96625
 20
5.425
 30
0.0
 11
2.02625
 21
5.425
 31
0.0
  0
LINE
  5
196
330
17
100
AcDbEntity
  8
A-ELEV-HIDN
100
AcDbLine
 10
2.07125
 20
5.425
 30
0.0
 11
2.1312499999999996
 21
5.425
 31
0.0
  0
LINE
  5
197
330
17
100
AcDbEntity
  8
A-ELEV-HIDN
100
AcDbLine
 10
2.17625
 20
5.425
 30
0.0
 11
2.23625
 21
5.425
 31
0.0
  0
LINE
  5
198
330
17
100
AcDbEntity
  8
A-ELEV-HIDN
100
AcDbLine
 10
2.28125
 20
5.425
 30
0.0
 11
2.3412499999999996
 21
5.425
 31
0.0
  0
LINE
  5
199
330
17
100
AcDbEntity
  8
A-ELEV-HIDN
100
AcDbLine
 10
2.3862499999999995
 20
5.425
 30
0.0
 11
2.44625
 21
5.425
 31
0.0
  0
LINE
  5
19A
330
17
100
AcDbEntity
  8
A-ELEV-HIDN
100
AcDbLine
 10
2.49125
 20
5.425
 30
0.0
 11
2.5512499999999996
 21
5.425
 31
0.0
  0
LINE
  5
19B
330
17
100
AcDbEntity
  8
A-ELEV-HIDN
100
AcDbLine
 10
2.5962499999999995
 20
5.425
 30
0.0
 11
2.65625
 21
5.425
 31
0.0
  0
LINE
  5
19C
330
17
100
AcDbEntity
  8
A-ELEV-HIDN
100
AcDbLine
 10
2.70125
 20
5.425
 30
0.0
 11
2.7612499999999995
 21
5.425
 31
0.0
  0
LINE
  5
19D
330
17
100
AcDbEntity
  8
A-ELEV-HIDN
100
AcDbLine
 10
2.8062499999999995
 20
5.425
 30
0.0
 11
2.86625
 21
5.425
 31
0.0
  0
LINE
  5
19E
330
17
100
AcDbEntity
  8
A-ELEV-HIDN
100
AcDbLine
 10
2.91125
 20
5.425
 30
0.0
 11
2.9712499999999995
 21
5.425
 31
0.0
  0
LINE
  5
19F
330
17
100
AcDbEntity
  8
A-ELEV-HIDN
100
AcDbLine
 10
3.0162499999999994
 20
5.425
 30
0.0
 11
3.07625
 21
5.425
 31
0.0
  0
LINE
  5
1A0
330
17
100
AcDbEntity
  8
A-ELEV-HIDN
100
AcDbLine
 10
3.12125
 20
5.425
 30
0.0
 11
3.1812499999999995
 21
5.425
 31
0.0
  0
LINE
  5
1A1
330
17
100
AcDbEntity
  8
A-ELEV-HIDN
100
AcDbLine
 10
3.2262499999999994
 20
5.425
 30
0.0
 11
3.28625
 21
5.425
 31
0.0
  0
LINE
  5
1A2
330
17
100
AcDbEntity
  8
A-ELEV-HIDN
100
AcDbLine
 10
3.33125
 20
5.425
 30
0.0
 11
3.3912499999999994
 21
5.425
 31
0.0
  0
LINE
  5
1A3
330
17
100
AcDbEntity
  8
A-ELEV-HIDN
100
AcDbLine
 10
3.4362499999999994
 20
5.425
 30
0.0
 11
3.49625
 21
5.425
 31
0.0
  0
LINE
  5
1A4
330
17
100
AcDbEntity
  8
A-ELEV-HIDN
100
AcDbLine
 10
3.54125
 20
5.425
 30
0.0
 11
3.6012499999999994
 21
5.425
 31
0.0
  0
LINE
  5
1A5
330
17
100
AcDbEntity
  8
A-ELEV-HIDN
100
AcDbLine
 10
3.6462499999999993
 20
5.425
 30
0.0
 11
3.70625
 21
5.425
 31
0.0
  0
LINE
  5
1A6
330
17
100
AcDbEntity
  8
A-ELEV-HIDN
100
AcDbLine
 10
3.7512499999999998
 20
5.425
 30
0.0
 11
3.8112499999999994
 21
5.425
 31
0.0
  0
LINE
  5
1A7
330
17
100
AcDbEntity
  8
A-ELEV-HIDN
100
AcDbLine
 10
3.8562499999999993
 20
5.425
 30
0.0
 11
3.91625
 21
5.425
 31
0.0
  0
LINE
  5
1A8
330
17
100
AcDbEntity
  8
A-ELEV-HIDN
100
AcDbLine
 10
3.9612499999999997
 20
5.425
 30
0.0
 11
4.021249999999999
 21
5.425
 31
0.0
  0
LINE
  5
1A9
330
17
100
AcDbEntity
  8
A-ELEV-HIDN
100
AcDbLine
 10
4.066249999999999
 20
5.425
 30
0.0
 11
4.12625
 21
5.425
 31
0.0
  0
LINE
  5
1AA
330
17
100
AcDbEntity
  8
A-ELEV-HIDN
100
AcDbLine
 10
4.17125
 20
5.425
 30
0.0
 11
4.231249999999999
 21
5.425
 31
0.0
  0
LINE
  5
1AB
330
17
100
AcDbEntity
  8
A-ELEV-HIDN
100
AcDbLine
 10
4.276249999999999
 20
5.425
 30
0.0
 11
4.33625
 21
5.425
 31
0.0
  0
LINE
  5
1AC
330
17
100
AcDbEntity
  8
A-ELEV-HIDN
100
AcDbLine
 10
4.38125
 20
5.425
 30
0.0
 11
4.441249999999999
 21
5.425
 31
0.0
  0
LINE
  5
1AD
330
17
100
AcDbEntity
  8
A-ELEV-HIDN
100
AcDbLine
 10
4.486249999999999
 20
5.425
 30
0.0
 11
4.54625
 21
5.425
 31
0.0
  0
LINE
  5
1AE
330
17
100
AcDbEntity
  8
A-ELEV-HIDN
100
AcDbLine
 10
4.59125
 20
5.425
 30
0.0
 11
4.651249999999999
 21
5.425
 31
0.0
  0
LINE
  5
1AF
330
17
100
AcDbEntity
  8
A-ELEV-HIDN
100
AcDbLine
 10
4.696249999999999
 20
5.425
 30
0.0
 11
4.75625
 21
5.425
 31
0.0
  0
LINE
  5
1B0
330
17
100
AcDbEntity
  8
A-ELEV-HIDN
100
AcDbLine
 10
4.80125
 20
5.425
 30
0.0
 11
4.861249999999999
 21
5.425
 31
0.0
  0
LINE
  5
1B1
330
17
100
AcDbEntity
  8
A-ELEV-HIDN
100
AcDbLine
 10
4.906249999999999
 20
5.425
 30
0.0
 11
4.96625
 21
5.425
 31
0.0
  0
LINE
  5
1B2
330
17
100
AcDbEntity
  8
A-ELEV-HIDN
100
AcDbLine
 10
5.0112499999999995
 20
5.425
 30
0.0
 11
5.071249999999999
 21
5.425
 31
0.0
  0
LINE
  5
1B3
330
17
100
AcDbEntity
  8
A-ELEV-HIDN
100
AcDbLine
 10
5.116249999999999
 20
5.425
 30
0.0
 11
5.17625
 21
5.425
 31
0.0
  0
LINE
  5
1B4
330
17
100
AcDbEntity
  8
A-ELEV-HIDN
100
AcDbLine
 10
5.2212499999999995
 20
5.425
 30
0.0
 11
5.281249999999999
 21
5.425
 31
0.0
  0
LINE
  5
1B5
330
17
100
AcDbEntity
  8
A-ELEV-HIDN
100
AcDbLine
 10
5.326249999999999
 20
5.425
 30
0.0
 11
5.386249999999999
 21
5.425
 31
0.0
  0
LINE
  5
1B6
330
17
100
AcDbEntity
  8
A-ELEV-HIDN
100
AcDbLine
 10
5.431249999999999
 20
5.425
 30
0.0
 11
5.491249999999998
 21
5.425
 31
0.0
  0
LINE
  5
1B7
330
17
100
AcDbEntity
  8
A-ELEV-HIDN
100
AcDbLine
 10
5.536249999999998
 20
5.425
 30
0.0
 11
5.596249999999998
 21
5.425
 31
0.0
  0
LINE
  5
1B8
330
17
100
AcDbEntity
  8
A-ELEV-HIDN
100
AcDbLine
 10
5.641249999999998
 20
5.425
 30
0.0
 11
5.701249999999997
 21
5.425
 31
0.0
  0
LINE
  5
1B9
330
17
100
AcDbEntity
  8
A-ELEV-HIDN
100
AcDbLine
 10
5.746249999999997
 20
5.425
 30
0.0
 11
5.806249999999997
 21
5.425
 31
0.0
  0
LINE
  5
1BA
330
17
100
AcDbEntity
  8
A-ELEV-HIDN
100
AcDbLine
 10
5.851249999999997
 20
5.425
 30
0.0
 11
5.911249999999996
 21
5.425
 31
0.0
  0
LINE
  5
1BB
330
17
100
AcDbEntity
  8
A-ELEV-HIDN
100
AcDbLine
 10
5.956249999999996
 20
5.425
 30
0.0
 11
6.0125
 21
5.425
 31
0.0
  0
LINE
  5
1BC
330
17
100
AcDbEntity
  8
A-ELEV-HIDN
100
AcDbLine
 10
1.2
 20
4.76875
 30
0.0
 11
1.24
 21
4.76875
 31
0.0
  0
LINE
  5
1BD
330
17
100
AcDbEntity
  8
A-ELEV-HIDN
100
AcDbLine
 10
1.29
 20
4.76875
 30
0.0
 11
1.33
 21
4.76875
 31
0.0
  0
LINE
  5
1BE
330
17
100
AcDbEntity
  8
A-ELEV-HIDN
100
AcDbLine
 10
1.38
 20
4.76875
 30
0.0
 11
1.42
 21
4.76875
 31
0.0
  0
LINE
  5
1BF
330
17
100
AcDbEntity
  8
A-ELEV-HIDN
100
AcDbLine
 10
1.47
 20
4.76875
 30
0.0
 11
1.51
 21
4.76875
 31
0.0
  0
LINE
  5
1C0
330
17
100
AcDbEntity
  8
A-ELEV-HIDN
100
AcDbLine
 10
1.56
 20
4.76875
 30
0.0
 11
1.5999999999999999
 21
4.76875
 31
0.0
  0
LINE
  5
1C1
330
17
100
AcDbEntity
  8
A-ELEV-HIDN
100
AcDbLine
 10
1.65
 20
4.76875
 30
0.0
 11
1.69
 21
4.76875
 31
0.0
  0
LINE
  5
1C2
330
17
100
AcDbEntity
  8
A-ELEV-HIDN
100
AcDbLine
 10
1.7399999999999998
 20
4.76875
 30
0.0
 11
1.7799999999999998
 21
4.76875
 31
0.0
  0
LINE
  5
1C3
330
17
100
AcDbEntity
  8
A-ELEV-HIDN
100
AcDbLine
 10
1.83
 20
4.76875
 30
0.0
 11
1.87
 21
4.76875
 31
0.0
  0
LINE
  5
1C4
330
17
100
AcDbEntity
  8
A-ELEV-HIDN
100
AcDbLine
 10
1.92
 20
4.76875
 30
0.0
 11
1.96
 21
4.76875
 31
0.0
  0
LINE
  5
1C5
330
17
100
AcDbEntity
  8
A-ELEV-HIDN
100
AcDbLine
 10
2.0100000000000002
 20
4.76875
 30
0.0
 11
2.0500000000000003
 21
4.76875
 31
0.0
  0
LINE
  5
1C6
330
17
100
AcDbEntity
  8
A-ELEV-HIDN
100
AcDbLine
 10
2.1
 20
4.76875
 30
0.0
 11
2.14
 21
4.76875
 31
0.0
  0
LINE
  5
1C7
330
17
100
AcDbEntity
  8
A-ELEV-HIDN
100
AcDbLine
 10
2.1900000000000004
 20
4.76875
 30
0.0
 11
2.2300000000000004
 21
4.76875
 31
0.0
  0
LINE
  5
1C8
330
17
100
AcDbEntity
  8
A-ELEV-HIDN
100
AcDbLine
 10
2.2800000000000002
 20
4.76875
 30
0.0
 11
2.3200000000000003
 21
4.76875
 31
0.0
  0
LINE
  5
1C9
330
17
100
AcDbEntity
  8
A-ELEV-HIDN
100
AcDbLine
 10
2.37
 20
4.76875
 30
0.0
 11
2.41
 21
4.76875
 31
0.0
  0
LINE
  5
1CA
330
17
100
AcDbEntity
  8
A-ELEV-HIDN
100
AcDbLine
 10
2.4600000000000004
 20
4.76875
 30
0.0
 11
2.5000000000000004
 21
4.76875
 31
0.0
  0
LINE
  5
1CB
330
17
100
AcDbEntity
  8
A-ELEV-HIDN
100
AcDbLine
 10
2.5500000000000007
 20
4.76875
 30
0.0
 11
2.5900000000000007
 21
4.76875
 31
0.0
  0
LINE
  5
1CC
330
17
100
AcDbEntity
  8
A-ELEV-HIDN
100
AcDbLine
 10
2.6400000000000006
 20
4.76875
 30
0.0
 11
2.6800000000000006
 21
4.76875
 31
0.0
  0
LINE
  5
1CD
330
17
100
AcDbEntity
  8
A-ELEV-HIDN
100
AcDbLine
 10
2.7300000000000004
 20
4.76875
 30
0.0
 11
2.7700000000000005
 21
4.76875
 31
0.0
  0
LINE
  5
1CE
330
17
100
AcDbEntity
  8
A-ELEV-HIDN
100
AcDbLine
 10
2.8200000000000007
 20
4.76875
 30
0.0
 11
2.8600000000000008
 21
4.76875
 31
0.0
  0
LINE
  5
1CF
330
17
100
AcDbEntity
  8
A-ELEV-HIDN
100
AcDbLine
 10
2.910000000000001
 20
4.76875
 30
0.0
 11
2.950000000000001
 21
4.76875
 31
0.0
  0
LINE
  5
1D0
330
17
100
AcDbEntity
  8
A-ELEV-HIDN
100
AcDbLine
 10
3.000000000000001
 20
4.76875
 30
0.0
 11
3.040000000000001
 21
4.76875
 31
0.0
  0
LINE
  5
1D1
330
17
100
AcDbEntity
  8
A-ELEV-HIDN
100
AcDbLine
 10
3.0900000000000007
 20
4.76875
 30
0.0
 11
3.130000000000001
 21
4.76875
 31
0.0
  0
LINE
  5
1D2
330
17
100
AcDbEntity
  8
A-ELEV-HIDN
100
AcDbLine
 10
3.180000000000001
 20
4.76875
 30
0.0
 11
3.2200000000000006
 21
4.76875
 31
0.0
  0
LINE
  5
1D3
330
17
100
AcDbEntity
  8
A-ELEV-HIDN
100
AcDbLine
 10
3.2700000000000005
 20
4.76875
 30
0.0
 11
3.3100000000000005
 21
4.76875
 31
0.0
  0
LINE
  5
1D4
330
17
100
AcDbEntity
  8
A-ELEV-HIDN
100
AcDbLine
 10
3.3600000000000003
 20
4.76875
 30
0.0
 11
3.4000000000000004
 21
4.76875
 31
0.0
  0
LINE
  5
1D5
330
17
100
AcDbEntity
  8
A-ELEV-HIDN
100
AcDbLine
 10
3.45
 20
4.76875
 30
0.0
 11
3.49
 21
4.76875
 31
0.0
  0
LINE
  5
1D6
330
17
100
AcDbEntity
  8
A-ELEV-HIDN
100
AcDbLine
 10
3.54
 20
4.76875
 30
0.0
 11
3.58
 21
4.76875
 31
0.0
  0
LINE
  5
1D7
330
17
100
AcDbEntity
  8
A-ELEV-HIDN
100
AcDbLine
 10
3.63
 20
4.76875
 30
0.0
 11
3.67
 21
4.76875
 31
0.0
  0
LINE
  5
1D8
330
17
100
AcDbEntity
  8
A-ELEV-HIDN
100
AcDbLine
 10
3.7199999999999998
 20
4.76875
 30
0.0
 11
3.76
 21
4.76875
 31
0.0
  0
LINE
  5
1D9
330
17
100
AcDbEntity
  8
A-ELEV-HIDN
100
AcDbLine
 10
3.8099999999999996
 20
4.76875
 30
0.0
 11
3.8499999999999996
 21
4.76875
 31
0.0
  0
LINE
  5
1DA
330
17
100
AcDbEntity
  8
A-ELEV-HIDN
100
AcDbLine
 10
3.8999999999999995
 20
4.76875
 30
0.0
 11
3.9399999999999995
 21
4.76875
 31
0.0
  0
LINE
  5
1DB
330
17
100
AcDbEntity
  8
A-ELEV-HIDN
100
AcDbLine
 10
3.9899999999999993
 20
4.76875
 30
0.0
 11
4.029999999999999
 21
4.76875
 31
0.0
  0
LINE
  5
1DC
330
17
100
AcDbEntity
  8
A-ELEV-HIDN
100
AcDbLine
 10
4.079999999999999
 20
4.76875
 30
0.0
 11
4.119999999999999
 21
4.76875
 31
0.0
  0
LINE
  5
1DD
330
17
100
AcDbEntity
  8
A-ELEV-HIDN
100
AcDbLine
 10
4.169999999999999
 20
4.76875
 30
0.0
 11
4.209999999999999
 21
4.76875
 31
0.0
  0
LINE
  5
1DE
330
17
100
AcDbEntity
  8
A-ELEV-HIDN
100
AcDbLine
 10
4.259999999999999
 20
4.76875
 30
0.0
 11
4.299999999999999
 21
4.76875
 31
0.0
  0
LINE
  5
1DF
330
17
100
AcDbEntity
  8
A-ELEV-HIDN
100
AcDbLine
 10
4.349999999999999
 20
4.76875
 30
0.0
 11
4.389999999999999
 21
4.76875
 31
0.0
  0
LINE
  5
1E0
330
17
100
AcDbEntity
  8
A-ELEV-HIDN
100
AcDbLine
 10
4.439999999999999
 20
4.76875
 30
0.0
 11
4.479999999999999
 21
4.76875
 31
0.0
  0
LINE
  5
1E1
330
17
100
AcDbEntity
  8
A-ELEV-HIDN
100
AcDbLine
 10
4.5299999999999985
 20
4.76875
 30
0.0
 11
4.5699999999999985
 21
4.76875
 31
0.0
  0
LINE
  5
1E2
330
17
100
AcDbEntity
  8
A-ELEV-HIDN
100
AcDbLine
 10
4.619999999999998
 20
4.76875
 30
0.0
 11
4.659999999999998
 21
4.76875
 31
0.0
  0
LINE
  5
1E3
330
17
100
AcDbEntity
  8
A-ELEV-HIDN
100
AcDbLine
 10
4.709999999999998
 20
4.76875
 30
0.0
 11
4.749999999999998
 21
4.76875
 31
0.0
  0
LINE
  5
1E4
330
17
100
AcDbEntity
  8
A-ELEV-HIDN
100
AcDbLine
 10
4.799999999999998
 20
4.76875
 30
0.0
 11
4.839999999999998
 21
4.76875
 31
0.0
  0
LINE
  5
1E5
330
17
100
AcDbEntity
  8
A-ELEV-HIDN
100
AcDbLine
 10
4.889999999999998
 20
4.76875
 30
0.0
 11
4.929999999999998
 21
4.76875
 31
0.0
  0
LINE
  5
1E6
330
17
100
AcDbEntity
  8
A-ELEV-HIDN
100
AcDbLine
 10
4.979999999999998
 20
4.76875
 30
0.0
 11
5.019999999999998
 21
4.76875
 31
0.0
  0
LINE
  5
1E7
330
17
100
AcDbEntity
  8
A-ELEV-HIDN
100
AcDbLine
 10
5.069999999999998
 20
4.76875
 30
0.0
 11
5.109999999999998
 21
4.76875
 31
0.0
  0
LINE
  5
1E8
330
17
100
AcDbEntity
  8
A-ELEV-HIDN
100
AcDbLine
 10
5.1599999999999975
 20
4.76875
 30
0.0
 11
5.1999999999999975
 21
4.76875
 31
0.0
  0
LINE
  5
1E9
330
17
100
AcDbEntity
  8
A-ELEV-HIDN
100
AcDbLine
 10
5.249999999999998
 20
4.76875
 30
0.0
 11
5.289999999999998
 21
4.76875
 31
0.0
  0
LINE
  5
1EA
330
17
100
AcDbEntity
  8
A-ELEV-HIDN
100
AcDbLine
 10
5.339999999999998
 20
4.76875
 30
0.0
 11
5.379999999999998
 21
4.76875
 31
0.0
  0
LINE
  5
1EB
330
17
100
AcDbEntity
  8
A-ELEV-HIDN
100
AcDbLine
 10
5.429999999999998
 20
4.76875
 30
0.0
 11
5.469999999999998
 21
4.76875
 31
0.0
  0
LINE
  5
1EC
330
17
100
AcDbEntity
  8
A-ELEV-HIDN
100
AcDbLine
 10
5.519999999999998
 20
4.76875
 30
0.0
 11
5.559999999999998
 21
4.76875
 31
0.0
  0
LINE
  5
1ED
330
17
100
AcDbEntity
  8
A-ELEV-HIDN
100
AcDbLine
 10
5.609999999999998
 20
4.76875
 30
0.0
 11
5.649999999999998
 21
4.76875
 31
0.0
  0
LINE
  5
1EE
330
17
100
AcDbEntity
  8
A-ELEV-HIDN
100
AcDbLine
 10
5.6999999999999975
 20
4.76875
 30
0.0
 11
5.7399999999999975
 21
4.76875
 31
0.0
  0
LINE
  5
1EF
330
17
100
AcDbEntity
  8
A-ELEV-HIDN
100
AcDbLine
 10
5.789999999999997
 20
4.76875
 30
0.0
 11
5.829999999999997
 21
4.76875
 31
0.0
  0
LINE
  5
1F0
330
17
100
AcDbEntity
  8
A-ELEV-HIDN
100
AcDbLine
 10
5.879999999999997
 20
4.76875
 30
0.0
 11
5.919999999999997
 21
4.76875
 31
0.0
  0
LINE
  5
1F1
330
17
100
AcDbEntity
  8
A-ELEV-HIDN
100
AcDbLine
 10
5.969999999999997
 20
4.76875
 30
0.0
 11
6.009999999999997
 21
4.76875
 31
0.0
  0
LINE
  5
1F2
330
17
100
AcDbEntity
  8
A-ELEV-HIDN
100
AcDbLine
 10
6.059999999999997
 20
4.76875
 30
0.0
 11
6.099999999999997
 21
4.76875
 31
0.0
  0
LINE
  5
1F3
330
17
100
AcDbEntity
  8
A-ELEV-HIDN
100
AcDbLine
 10
6.149999999999997
 20
4.76875
 30
0.0
 11
6.189999999999997
 21
4.76875
 31
0.0
  0
LINE
  5
1F4
330
17
100
AcDbEntity
  8
A-ELEV-HIDN
100
AcDbLine
 10
6.239999999999997
 20
4.76875
 30
0.0
 11
6.279999999999997
 21
4.76875
 31
0.0
  0
LINE
  5
1F5
330
17
100
AcDbEntity
  8
A-ELEV-HIDN
100
AcDbLine
 10
6.3299999999999965
 20
4.76875
 30
0.0
 11
6.3699999999999966
 21
4.76875
 31
0.0
  0
LINE
  5
1F6
330
17
100
AcDbEntity
  8
A-ELEV-HIDN
100
AcDbLine
 10
6.419999999999996
 20
4.76875
 30
0.0
 11
6.459999999999996
 21
4.76875
 31
0.0
  0
LINE
  5
1F7
330
17
100
AcDbEntity
  8
A-ELEV-HIDN
100
AcDbLine
 10
6.509999999999996
 20
4.76875
 30
0.0
 11
6.549999999999996
 21
4.76875
 31
0.0
  0
LINE
  5
1F8
330
17
100
AcDbEntity
  8
A-ELEV-HIDN
100
AcDbLine
 10
6.599999999999996
 20
4.76875
 30
0.0
 11
6.639999999999996
 21
4.76875
 31
0.0
  0
LINE
  5
1F9
330
17
100
AcDbEntity
  8
A-ELEV-HIDN
100
AcDbLine
 10
6.689999999999996
 20
4.76875
 30
0.0
 11
6.729999999999996
 21
4.76875
 31
0.0
  0
LINE
  5
1FA
330
17
100
AcDbEntity
  8
A-ELEV-HIDN
100
AcDbLine
 10
6.779999999999996
 20
4.76875
 30
0.0
 11
6.819999999999996
 21
4.76875
 31
0.0
  0
LINE
  5
1FB
330
17
100
AcDbEntity
  8
A-ELEV-HIDN
100
AcDbLine
 10
6.869999999999996
 20
4.76875
 30
0.0
 11
6.909999999999996
 21
4.76875
 31
0.0
  0
LINE
  5
1FC
330
17
100
AcDbEntity
  8
A-ELEV-HIDN
100
AcDbLine
 10
6.9599999999999955
 20
4.76875
 30
0.0
 11
6.999999999999996
 21
4.76875
 31
0.0
  0
LINE
  5
1FD
330
17
100
AcDbEntity
  8
A-ELEV-HIDN
100
AcDbLine
 10
7.049999999999995
 20
4.76875
 30
0.0
 11
7.089999999999995
 21
4.76875
 31
0.0
  0
LINE
  5
1FE
330
17
100
AcDbEntity
  8
A-ELEV-HIDN
100
AcDbLine
 10
7.139999999999995
 20
4.76875
 30
0.0
 11
7.179999999999995
 21
4.76875
 31
0.0
  0
LINE
  5
1FF
330
17
100
AcDbEntity
  8
A-ELEV-HIDN
100
AcDbLine
 10
7.229999999999995
 20
4.76875
 30
0.0
 11
7.269999999999995
 21
4.76875
 31
0.0
  0
LINE
  5
200
330
17
100
AcDbEntity
  8
A-ELEV-HIDN
100
AcDbLine
 10
7.319999999999995
 20
4.76875
 30
0.0
 11
7.359999999999995
 21
4.76875
 31
0.0
  0
LINE
  5
201
330
17
100
AcDbEntity
  8
A-ELEV-HIDN
100
AcDbLine
 10
7.409999999999995
 20
4.76875
 30
0.0
 11
7.449999999999995
 21
4.76875
 31
0.0
  0
LINE
  5
202
330
17
100
AcDbEntity
  8
A-ELEV-HIDN
100
AcDbLine
 10
7.499999999999995
 20
4.76875
 30
0.0
 11
7.539999999999995
 21
4.76875
 31
0.0
  0
HATCH
  5
203
330
17
100
AcDbEntity
  8
A-ELEV-DOOR
 62
7
420
5921370
100
AcDbHatch
 10
0.0
 20
0.0
 30
0.0
210
0.0
220
0.0
230
1.0
  2
SOLID
 70
1
 71
0
 91
1
 92
3
 72
0
 73
1
 93
4
 10
6.11875
 20
4.3
 10
6.30625
 20
4.3
 10
6.30625
 20
4.55
 10
6.11875
 20
4.55
 97
0
 75
0
 76
1
 98
0
  0
LWPOLYLINE
  5
204
330
17
100
AcDbEntity
  8
A-ELEV-DOOR
100
AcDbPolyline
 90
4
 70
1
 10
6.11875
 20
4.3
 10
6.30625
 20
4.3
 10
6.30625
 20
4.55
 10
6.11875
 20
4.55
  0
TEXT
  5
205
330
17
100
AcDbEntity
  8
A-ELEV-IDEN
100
AcDbText
 10
6.2125
 20
4.5874999999999995
 30
0.0
 40
0.04599999999999999
  1
X4
  7
KS-BOLD
 72
1
 11
6.2125
 21
4.5874999999999995
 31
0.0
100
AcDbText
  0
HATCH
  5
206
330
17
100
AcDbEntity
  8
A-ELEV-DOOR
 62
7
420
5921370
100
AcDbHatch
 10
0.0
 20
0.0
 30
0.0
210
0.0
220
0.0
230
1.0
  2
SOLID
 70
1
 71
0
 91
1
 92
3
 72
0
 73
1
 93
4
 10
3.4859375000000004
 20
4.3
 10
3.6734375000000004
 20
4.3
 10
3.6734375000000004
 20
4.55
 10
3.4859375000000004
 20
4.55
 97
0
 75
0
 76
1
 98
0
  0
LWPOLYLINE
  5
207
330
17
100
AcDbEntity
  8
A-ELEV-DOOR
100
AcDbPolyline
 90
4
 70
1
 10
3.4859375000000004
 20
4.3
 10
3.6734375000000004
 20
4.3
 10
3.6734375000000004
 20
4.55
 10
3.4859375000000004
 20
4.55
  0
TEXT
  5
208
330
17
100
AcDbEntity
  8
A-ELEV-IDEN
100
AcDbText
 10
3.5796875000000004
 20
4.5874999999999995
 30
0.0
 40
0.04599999999999999
  1
X5
  7
KS-BOLD
 72
1
 11
3.5796875000000004
 21
4.5874999999999995
 31
0.0
100
AcDbText
  0
LINE
  5
209
330
17
100
AcDbEntity
  8
A-ELEV-DOOR
100
AcDbLine
 10
5.246875
 20
4.3
 30
0.0
 11
5.246875
 21
4.359999999999999
 31
0.0
  0
LINE
  5
20A
330
17
100
AcDbEntity
  8
A-ELEV-DOOR
100
AcDbLine
 10
5.246875
 20
4.405
 30
0.0
 11
5.246875
 21
4.465
 31
0.0
  0
LINE
  5
20B
330
17
100
AcDbEntity
  8
A-ELEV-DOOR
100
AcDbLine
 10
5.246875
 20
4.51
 30
0.0
 11
5.246875
 21
4.569999999999999
 31
0.0
  0
LINE
  5
20C
330
17
100
AcDbEntity
  8
A-ELEV-DOOR
100
AcDbLine
 10
5.621875
 20
4.3
 30
0.0
 11
5.621875
 21
4.359999999999999
 31
0.0
  0
LINE
  5
20D
330
17
100
AcDbEntity
  8
A-ELEV-DOOR
100
AcDbLine
 10
5.621875
 20
4.405
 30
0.0
 11
5.621875
 21
4.465
 31
0.0
  0
LINE
  5
20E
330
17
100
AcDbEntity
  8
A-ELEV-DOOR
100
AcDbLine
 10
5.621875
 20
4.51
 30
0.0
 11
5.621875
 21
4.569999999999999
 31
0.0
  0
LINE
  5
20F
330
17
100
AcDbEntity
  8
A-ELEV-DOOR
100
AcDbLine
 10
5.246875
 20
4.6125
 30
0.0
 11
5.306875
 21
4.6125
 31
0.0
  0
LINE
  5
210
330
17
100
AcDbEntity
  8
A-ELEV-DOOR
100
AcDbLine
 10
5.351875000000001
 20
4.6125
 30
0.0
 11
5.411875
 21
4.6125
 31
0.0
  0
LINE
  5
211
330
17
100
AcDbEntity
  8
A-ELEV-DOOR
100
AcDbLine
 10
5.456875
 20
4.6125
 30
0.0
 11
5.516875
 21
4.6125
 31
0.0
  0
LINE
  5
212
330
17
100
AcDbEntity
  8
A-ELEV-DOOR
100
AcDbLine
 10
5.561875000000001
 20
4.6125
 30
0.0
 11
5.621875
 21
4.6125
 31
0.0
  0
TEXT
  5
213
330
17
100
AcDbEntity
  8
A-ELEV-IDEN
100
AcDbText
 10
5.434375
 20
4.6499999999999995
 30
0.0
 40
0.04599999999999999
  1
S1 SERVICE · SIZE TBD
  7
KS-BOLD
 72
1
 11
5.434375
 21
4.6499999999999995
 31
0.0
100
AcDbText
  0
LINE
  5
214
330
17
100
AcDbEntity
  8
A-ELEV-OTLN
100
AcDbLine
 10
1.1375
 20
4.3
 30
0.0
 11
7.6375
 21
4.3
 31
0.0
  0
LINE
  5
215
330
17
100
AcDbEntity
  8
A-ELEV-DATM
100
AcDbLine
 10
0.91875
 20
4.76875
 30
0.0
 11
1.1375
 21
4.76875
 31
0.0
  0
TEXT
  5
216
330
17
100
AcDbEntity
  8
A-ELEV-DATM
100
AcDbText
 10
0.8875
 20
4.7437499999999995
 30
0.0
 40
0.04599999999999999
  1
15'-0"
  7
KS-REG
 72
2
 11
0.8875
 21
4.7437499999999995
 31
0.0
100
AcDbText
  0
LINE
  5
217
330
17
100
AcDbEntity
  8
A-ELEV-DATM
100
AcDbLine
 10
0.91875
 20
5.2375
 30
0.0
 11
1.1375
 21
5.2375
 31
0.0
  0
TEXT
  5
218
330
17
100
AcDbEntity
  8
A-ELEV-DATM
100
AcDbText
 10
0.8875
 20
5.2124999999999995
 30
0.0
 40
0.04599999999999999
  1
30'-0"
  7
KS-REG
 72
2
 11
0.8875
 21
5.2124999999999995
 31
0.0
100
AcDbText
  0
LINE
  5
219
330
17
100
AcDbEntity
  8
A-ELEV-DATM
100
AcDbLine
 10
0.91875
 20
5.6125
 30
0.0
 11
1.1375
 21
5.6125
 31
0.0
  0
TEXT
  5
21A
330
17
100
AcDbEntity
  8
A-ELEV-DATM
100
AcDbText
 10
0.8875
 20
5.5874999999999995
 30
0.0
 40
0.04599999999999999
  1
42'-0"
  7
KS-REG
 72
2
 11
0.8875
 21
5.5874999999999995
 31
0.0
100
AcDbText
  0
TEXT
  5
21B
330
17
100
AcDbEntity
  8
A-ELEV-IDEN
100
AcDbText
 10
1.496875
 20
5.2875
 30
0.0
 40
0.044000000000000004
  1
NE STAIR TOWER (+5')
  7
KS-REG
 72
1
 11
1.496875
 21
5.2875
 31
0.0
100
AcDbText
  0
TEXT
  5
21C
330
17
100
AcDbEntity
  8
A-ELEV-IDEN
100
AcDbText
 10
1.2
 20
4.034375
 30
0.0
 40
0.072
  1
NORTH ELEVATION — 1/32" = 1'-0"  (E ← → W)
  7
KS-BOLD
 11
1.2
 21
4.034375
 31
0.0
100
AcDbText
  0
HATCH
  5
21D
330
17
100
AcDbEntity
  8
A-ELEV-FILL
 62
7
420
15000804
100
AcDbHatch
 10
0.0
 20
0.0
 30
0.0
210
0.0
220
0.0
230
1.0
  2
SOLID
 70
1
 71
0
 91
1
 92
3
 72
0
 73
1
 93
4
 10
8.3
 20
4.3
 10
9.3625
 20
4.3
 10
9.3625
 20
5.2375
 10
8.3
 20
5.2375
 97
0
 75
0
 76
1
 98
0
  0
HATCH
  5
21E
330
17
100
AcDbEntity
  8
A-ELEV-FILL
 62
7
420
15000804
100
AcDbHatch
 10
0.0
 20
0.0
 30
0.0
210
0.0
220
0.0
230
1.0
  2
SOLID
 70
1
 71
0
 91
1
 92
3
 72
0
 73
1
 93
4
 10
15.9875
 20
4.3
 10
16.33125
 20
4.3
 10
16.33125
 20
5.2375
 10
15.9875
 20
5.2375
 97
0
 75
0
 76
1
 98
0
  0
HATCH
  5
21F
330
17
100
AcDbEntity
  8
A-ELEV-FILL
 62
7
420
13487565
100
AcDbHatch
 10
0.0
 20
0.0
 30
0.0
210
0.0
220
0.0
230
1.0
  2
SOLID
 70
1
 71
0
 91
1
 92
3
 72
0
 73
1
 93
4
 10
9.3625
 20
4.3
 10
15.9875
 20
4.3
 10
15.9875
 20
5.6125
 10
9.3625
 20
5.6125
 97
0
 75
0
 76
1
 98
0
  0
LWPOLYLINE
  5
220
330
17
100
AcDbEntity
  8
A-ELEV-OTLN
100
AcDbPolyline
 90
4
 70
1
 10
8.3
 20
4.3
 10
9.3625
 20
4.3
 10
9.3625
 20
5.2375
 10
8.3
 20
5.2375
  0
LWPOLYLINE
  5
221
330
17
100
AcDbEntity
  8
A-ELEV-OTLN
100
AcDbPolyline
 90
4
 70
1
 10
15.9875
 20
4.3
 10
16.33125
 20
4.3
 10
16.33125
 20
5.2375
 10
15.9875
 20
5.2375
  0
LWPOLYLINE
  5
222
330
17
100
AcDbEntity
  8
A-ELEV-OTLN
100
AcDbPolyline
 90
4
 70
1
 10
9.3625
 20
4.3
 10
15.9875
 20
4.3
 10
15.9875
 20
5.6125
 10
9.3625
 20
5.6125
  0
LINE
  5
223
330
17
100
AcDbEntity
  8
A-ELEV-HIDN
100
AcDbLine
 10
9.39375
 20
5.425
 30
0.0
 11
9.453750000000001
 21
5.425
 31
0.0
  0
LINE
  5
224
330
17
100
AcDbEntity
  8
A-ELEV-HIDN
100
AcDbLine
 10
9.498750000000001
 20
5.425
 30
0.0
 11
9.55875
 21
5.425
 31
0.0
  0
LINE
  5
225
330
17
100
AcDbEntity
  8
A-ELEV-HIDN
100
AcDbLine
 10
9.603750000000002
 20
5.425
 30
0.0
 11
9.66375
 21
5.425
 31
0.0
  0
LINE
  5
226
330
17
100
AcDbEntity
  8
A-ELEV-HIDN
100
AcDbLine
 10
9.70875
 20
5.425
 30
0.0
 11
9.76875
 21
5.425
 31
0.0
  0
LINE
  5
227
330
17
100
AcDbEntity
  8
A-ELEV-HIDN
100
AcDbLine
 10
9.81375
 20
5.425
 30
0.0
 11
9.873750000000001
 21
5.425
 31
0.0
  0
LINE
  5
228
330
17
100
AcDbEntity
  8
A-ELEV-HIDN
100
AcDbLine
 10
9.918750000000001
 20
5.425
 30
0.0
 11
9.978750000000002
 21
5.425
 31
0.0
  0
LINE
  5
229
330
17
100
AcDbEntity
  8
A-ELEV-HIDN
100
AcDbLine
 10
10.023750000000001
 20
5.425
 30
0.0
 11
10.08375
 21
5.425
 31
0.0
  0
LINE
  5
22A
330
17
100
AcDbEntity
  8
A-ELEV-HIDN
100
AcDbLine
 10
10.12875
 20
5.425
 30
0.0
 11
10.18875
 21
5.425
 31
0.0
  0
LINE
  5
22B
330
17
100
AcDbEntity
  8
A-ELEV-HIDN
100
AcDbLine
 10
10.23375
 20
5.425
 30
0.0
 11
10.293750000000001
 21
5.425
 31
0.0
  0
LINE
  5
22C
330
17
100
AcDbEntity
  8
A-ELEV-HIDN
100
AcDbLine
 10
10.338750000000001
 20
5.425
 30
0.0
 11
10.39875
 21
5.425
 31
0.0
  0
LINE
  5
22D
330
17
100
AcDbEntity
  8
A-ELEV-HIDN
100
AcDbLine
 10
10.443750000000001
 20
5.425
 30
0.0
 11
10.50375
 21
5.425
 31
0.0
  0
LINE
  5
22E
330
17
100
AcDbEntity
  8
A-ELEV-HIDN
100
AcDbLine
 10
10.54875
 20
5.425
 30
0.0
 11
10.60875
 21
5.425
 31
0.0
  0
LINE
  5
22F
330
17
100
AcDbEntity
  8
A-ELEV-HIDN
100
AcDbLine
 10
10.65375
 20
5.425
 30
0.0
 11
10.713750000000001
 21
5.425
 31
0.0
  0
LINE
  5
230
330
17
100
AcDbEntity
  8
A-ELEV-HIDN
100
AcDbLine
 10
10.758750000000001
 20
5.425
 30
0.0
 11
10.818750000000001
 21
5.425
 31
0.0
  0
LINE
  5
231
330
17
100
AcDbEntity
  8
A-ELEV-HIDN
100
AcDbLine
 10
10.86375
 20
5.425
 30
0.0
 11
10.92375
 21
5.425
 31
0.0
  0
LINE
  5
232
330
17
100
AcDbEntity
  8
A-ELEV-HIDN
100
AcDbLine
 10
10.96875
 20
5.425
 30
0.0
 11
11.02875
 21
5.425
 31
0.0
  0
LINE
  5
233
330
17
100
AcDbEntity
  8
A-ELEV-HIDN
100
AcDbLine
 10
11.07375
 20
5.425
 30
0.0
 11
11.133750000000001
 21
5.425
 31
0.0
  0
LINE
  5
234
330
17
100
AcDbEntity
  8
A-ELEV-HIDN
100
AcDbLine
 10
11.17875
 20
5.425
 30
0.0
 11
11.23875
 21
5.425
 31
0.0
  0
LINE
  5
235
330
17
100
AcDbEntity
  8
A-ELEV-HIDN
100
AcDbLine
 10
11.283750000000001
 20
5.425
 30
0.0
 11
11.34375
 21
5.425
 31
0.0
  0
LINE
  5
236
330
17
100
AcDbEntity
  8
A-ELEV-HIDN
100
AcDbLine
 10
11.38875
 20
5.425
 30
0.0
 11
11.44875
 21
5.425
 31
0.0
  0
LINE
  5
237
330
17
100
AcDbEntity
  8
A-ELEV-HIDN
100
AcDbLine
 10
11.49375
 20
5.425
 30
0.0
 11
11.55375
 21
5.425
 31
0.0
  0
LINE
  5
238
330
17
100
AcDbEntity
  8
A-ELEV-HIDN
100
AcDbLine
 10
11.59875
 20
5.425
 30
0.0
 11
11.658750000000001
 21
5.425
 31
0.0
  0
LINE
  5
239
330
17
100
AcDbEntity
  8
A-ELEV-HIDN
100
AcDbLine
 10
11.70375
 20
5.425
 30
0.0
 11
11.76375
 21
5.425
 31
0.0
  0
LINE
  5
23A
330
17
100
AcDbEntity
  8
A-ELEV-HIDN
100
AcDbLine
 10
11.80875
 20
5.425
 30
0.0
 11
11.86875
 21
5.425
 31
0.0
  0
LINE
  5
23B
330
17
100
AcDbEntity
  8
A-ELEV-HIDN
100
AcDbLine
 10
11.91375
 20
5.425
 30
0.0
 11
11.97375
 21
5.425
 31
0.0
  0
LINE
  5
23C
330
17
100
AcDbEntity
  8
A-ELEV-HIDN
100
AcDbLine
 10
12.01875
 20
5.425
 30
0.0
 11
12.07875
 21
5.425
 31
0.0
  0
LINE
  5
23D
330
17
100
AcDbEntity
  8
A-ELEV-HIDN
100
AcDbLine
 10
12.123750000000001
 20
5.425
 30
0.0
 11
12.18375
 21
5.425
 31
0.0
  0
LINE
  5
23E
330
17
100
AcDbEntity
  8
A-ELEV-HIDN
100
AcDbLine
 10
12.22875
 20
5.425
 30
0.0
 11
12.28875
 21
5.425
 31
0.0
  0
LINE
  5
23F
330
17
100
AcDbEntity
  8
A-ELEV-HIDN
100
AcDbLine
 10
12.33375
 20
5.425
 30
0.0
 11
12.39375
 21
5.425
 31
0.0
  0
LINE
  5
240
330
17
100
AcDbEntity
  8
A-ELEV-HIDN
100
AcDbLine
 10
12.43875
 20
5.425
 30
0.0
 11
12.498750000000001
 21
5.425
 31
0.0
  0
LINE
  5
241
330
17
100
AcDbEntity
  8
A-ELEV-HIDN
100
AcDbLine
 10
12.54375
 20
5.425
 30
0.0
 11
12.60375
 21
5.425
 31
0.0
  0
LINE
  5
242
330
17
100
AcDbEntity
  8
A-ELEV-HIDN
100
AcDbLine
 10
12.64875
 20
5.425
 30
0.0
 11
12.70875
 21
5.425
 31
0.0
  0
LINE
  5
243
330
17
100
AcDbEntity
  8
A-ELEV-HIDN
100
AcDbLine
 10
12.75375
 20
5.425
 30
0.0
 11
12.81375
 21
5.425
 31
0.0
  0
LINE
  5
244
330
17
100
AcDbEntity
  8
A-ELEV-HIDN
100
AcDbLine
 10
12.85875
 20
5.425
 30
0.0
 11
12.91875
 21
5.425
 31
0.0
  0
LINE
  5
245
330
17
100
AcDbEntity
  8
A-ELEV-HIDN
100
AcDbLine
 10
12.963750000000001
 20
5.425
 30
0.0
 11
13.02375
 21
5.425
 31
0.0
  0
LINE
  5
246
330
17
100
AcDbEntity
  8
A-ELEV-HIDN
100
AcDbLine
 10
13.06875
 20
5.425
 30
0.0
 11
13.12875
 21
5.425
 31
0.0
  0
LINE
  5
247
330
17
100
AcDbEntity
  8
A-ELEV-HIDN
100
AcDbLine
 10
13.17375
 20
5.425
 30
0.0
 11
13.23375
 21
5.425
 31
0.0
  0
LINE
  5
248
330
17
100
AcDbEntity
  8
A-ELEV-HIDN
100
AcDbLine
 10
13.27875
 20
5.425
 30
0.0
 11
13.338750000000001
 21
5.425
 31
0.0
  0
LINE
  5
249
330
17
100
AcDbEntity
  8
A-ELEV-HIDN
100
AcDbLine
 10
13.38375
 20
5.425
 30
0.0
 11
13.44375
 21
5.425
 31
0.0
  0
LINE
  5
24A
330
17
100
AcDbEntity
  8
A-ELEV-HIDN
100
AcDbLine
 10
13.48875
 20
5.425
 30
0.0
 11
13.548749999999998
 21
5.425
 31
0.0
  0
LINE
  5
24B
330
17
100
AcDbEntity
  8
A-ELEV-HIDN
100
AcDbLine
 10
13.59375
 20
5.425
 30
0.0
 11
13.653749999999999
 21
5.425
 31
0.0
  0
LINE
  5
24C
330
17
100
AcDbEntity
  8
A-ELEV-HIDN
100
AcDbLine
 10
13.698749999999999
 20
5.425
 30
0.0
 11
13.75875
 21
5.425
 31
0.0
  0
LINE
  5
24D
330
17
100
AcDbEntity
  8
A-ELEV-HIDN
100
AcDbLine
 10
13.803749999999997
 20
5.425
 30
0.0
 11
13.863749999999998
 21
5.425
 31
0.0
  0
LINE
  5
24E
330
17
100
AcDbEntity
  8
A-ELEV-HIDN
100
AcDbLine
 10
13.908749999999998
 20
5.425
 30
0.0
 11
13.968749999999996
 21
5.425
 31
0.0
  0
LINE
  5
24F
330
17
100
AcDbEntity
  8
A-ELEV-HIDN
100
AcDbLine
 10
14.013749999999998
 20
5.425
 30
0.0
 11
14.073749999999997
 21
5.425
 31
0.0
  0
LINE
  5
250
330
17
100
AcDbEntity
  8
A-ELEV-HIDN
100
AcDbLine
 10
14.118749999999997
 20
5.425
 30
0.0
 11
14.178749999999997
 21
5.425
 31
0.0
  0
LINE
  5
251
330
17
100
AcDbEntity
  8
A-ELEV-HIDN
100
AcDbLine
 10
14.223749999999995
 20
5.425
 30
0.0
 11
14.283749999999996
 21
5.425
 31
0.0
  0
LINE
  5
252
330
17
100
AcDbEntity
  8
A-ELEV-HIDN
100
AcDbLine
 10
14.328749999999996
 20
5.425
 30
0.0
 11
14.388749999999995
 21
5.425
 31
0.0
  0
LINE
  5
253
330
17
100
AcDbEntity
  8
A-ELEV-HIDN
100
AcDbLine
 10
14.433749999999996
 20
5.425
 30
0.0
 11
14.493749999999995
 21
5.425
 31
0.0
  0
LINE
  5
254
330
17
100
AcDbEntity
  8
A-ELEV-HIDN
100
AcDbLine
 10
14.538749999999995
 20
5.425
 30
0.0
 11
14.598749999999995
 21
5.425
 31
0.0
  0
LINE
  5
255
330
17
100
AcDbEntity
  8
A-ELEV-HIDN
100
AcDbLine
 10
14.643749999999994
 20
5.425
 30
0.0
 11
14.703749999999994
 21
5.425
 31
0.0
  0
LINE
  5
256
330
17
100
AcDbEntity
  8
A-ELEV-HIDN
100
AcDbLine
 10
14.748749999999994
 20
5.425
 30
0.0
 11
14.808749999999993
 21
5.425
 31
0.0
  0
LINE
  5
257
330
17
100
AcDbEntity
  8
A-ELEV-HIDN
100
AcDbLine
 10
14.853749999999994
 20
5.425
 30
0.0
 11
14.913749999999993
 21
5.425
 31
0.0
  0
LINE
  5
258
330
17
100
AcDbEntity
  8
A-ELEV-HIDN
100
AcDbLine
 10
14.958749999999993
 20
5.425
 30
0.0
 11
15.018749999999994
 21
5.425
 31
0.0
  0
LINE
  5
259
330
17
100
AcDbEntity
  8
A-ELEV-HIDN
100
AcDbLine
 10
15.063749999999992
 20
5.425
 30
0.0
 11
15.123749999999992
 21
5.425
 31
0.0
  0
LINE
  5
25A
330
17
100
AcDbEntity
  8
A-ELEV-HIDN
100
AcDbLine
 10
15.168749999999992
 20
5.425
 30
0.0
 11
15.228749999999991
 21
5.425
 31
0.0
  0
LINE
  5
25B
330
17
100
AcDbEntity
  8
A-ELEV-HIDN
100
AcDbLine
 10
15.273749999999993
 20
5.425
 30
0.0
 11
15.333749999999991
 21
5.425
 31
0.0
  0
LINE
  5
25C
330
17
100
AcDbEntity
  8
A-ELEV-HIDN
100
AcDbLine
 10
15.378749999999991
 20
5.425
 30
0.0
 11
15.438749999999992
 21
5.425
 31
0.0
  0
LINE
  5
25D
330
17
100
AcDbEntity
  8
A-ELEV-HIDN
100
AcDbLine
 10
15.48374999999999
 20
5.425
 30
0.0
 11
15.54374999999999
 21
5.425
 31
0.0
  0
LINE
  5
25E
330
17
100
AcDbEntity
  8
A-ELEV-HIDN
100
AcDbLine
 10
15.58874999999999
 20
5.425
 30
0.0
 11
15.648749999999989
 21
5.425
 31
0.0
  0
LINE
  5
25F
330
17
100
AcDbEntity
  8
A-ELEV-HIDN
100
AcDbLine
 10
15.69374999999999
 20
5.425
 30
0.0
 11
15.75374999999999
 21
5.425
 31
0.0
  0
LINE
  5
260
330
17
100
AcDbEntity
  8
A-ELEV-HIDN
100
AcDbLine
 10
15.79874999999999
 20
5.425
 30
0.0
 11
15.85874999999999
 21
5.425
 31
0.0
  0
LINE
  5
261
330
17
100
AcDbEntity
  8
A-ELEV-HIDN
100
AcDbLine
 10
15.903749999999988
 20
5.425
 30
0.0
 11
15.95625
 21
5.425
 31
0.0
  0
LINE
  5
262
330
17
100
AcDbEntity
  8
A-ELEV-HIDN
100
AcDbLine
 10
8.3
 20
4.76875
 30
0.0
 11
8.34
 21
4.76875
 31
0.0
  0
LINE
  5
263
330
17
100
AcDbEntity
  8
A-ELEV-HIDN
100
AcDbLine
 10
8.39
 20
4.76875
 30
0.0
 11
8.430000000000001
 21
4.76875
 31
0.0
  0
LINE
  5
264
330
17
100
AcDbEntity
  8
A-ELEV-HIDN
100
AcDbLine
 10
8.48
 20
4.76875
 30
0.0
 11
8.520000000000001
 21
4.76875
 31
0.0
  0
LINE
  5
265
330
17
100
AcDbEntity
  8
A-ELEV-HIDN
100
AcDbLine
 10
8.57
 20
4.76875
 30
0.0
 11
8.610000000000001
 21
4.76875
 31
0.0
  0
LINE
  5
266
330
17
100
AcDbEntity
  8
A-ELEV-HIDN
100
AcDbLine
 10
8.66
 20
4.76875
 30
0.0
 11
8.700000000000001
 21
4.76875
 31
0.0
  0
LINE
  5
267
330
17
100
AcDbEntity
  8
A-ELEV-HIDN
100
AcDbLine
 10
8.75
 20
4.76875
 30
0.0
 11
8.790000000000001
 21
4.76875
 31
0.0
  0
LINE
  5
268
330
17
100
AcDbEntity
  8
A-ELEV-HIDN
100
AcDbLine
 10
8.84
 20
4.76875
 30
0.0
 11
8.88
 21
4.76875
 31
0.0
  0
LINE
  5
269
330
17
100
AcDbEntity
  8
A-ELEV-HIDN
100
AcDbLine
 10
8.930000000000001
 20
4.76875
 30
0.0
 11
8.97
 21
4.76875
 31
0.0
  0
LINE
  5
26A
330
17
100
AcDbEntity
  8
A-ELEV-HIDN
100
AcDbLine
 10
9.020000000000001
 20
4.76875
 30
0.0
 11
9.06
 21
4.76875
 31
0.0
  0
LINE
  5
26B
330
17
100
AcDbEntity
  8
A-ELEV-HIDN
100
AcDbLine
 10
9.110000000000001
 20
4.76875
 30
0.0
 11
9.15
 21
4.76875
 31
0.0
  0
LINE
  5
26C
330
17
100
AcDbEntity
  8
A-ELEV-HIDN
100
AcDbLine
 10
9.200000000000001
 20
4.76875
 30
0.0
 11
9.24
 21
4.76875
 31
0.0
  0
LINE
  5
26D
330
17
100
AcDbEntity
  8
A-ELEV-HIDN
100
AcDbLine
 10
9.290000000000001
 20
4.76875
 30
0.0
 11
9.330000000000002
 21
4.76875
 31
0.0
  0
LINE
  5
26E
330
17
100
AcDbEntity
  8
A-ELEV-HIDN
100
AcDbLine
 10
9.38
 20
4.76875
 30
0.0
 11
9.420000000000002
 21
4.76875
 31
0.0
  0
LINE
  5
26F
330
17
100
AcDbEntity
  8
A-ELEV-HIDN
100
AcDbLine
 10
9.47
 20
4.76875
 30
0.0
 11
9.510000000000002
 21
4.76875
 31
0.0
  0
LINE
  5
270
330
17
100
AcDbEntity
  8
A-ELEV-HIDN
100
AcDbLine
 10
9.56
 20
4.76875
 30
0.0
 11
9.600000000000001
 21
4.76875
 31
0.0
  0
LINE
  5
271
330
17
100
AcDbEntity
  8
A-ELEV-HIDN
100
AcDbLine
 10
9.650000000000002
 20
4.76875
 30
0.0
 11
9.690000000000001
 21
4.76875
 31
0.0
  0
LINE
  5
272
330
17
100
AcDbEntity
  8
A-ELEV-HIDN
100
AcDbLine
 10
9.740000000000002
 20
4.76875
 30
0.0
 11
9.780000000000001
 21
4.76875
 31
0.0
  0
LINE
  5
273
330
17
100
AcDbEntity
  8
A-ELEV-HIDN
100
AcDbLine
 10
9.830000000000002
 20
4.76875
 30
0.0
 11
9.870000000000001
 21
4.76875
 31
0.0
  0
LINE
  5
274
330
17
100
AcDbEntity
  8
A-ELEV-HIDN
100
AcDbLine
 10
9.920000000000002
 20
4.76875
 30
0.0
 11
9.96
 21
4.76875
 31
0.0
  0
LINE
  5
275
330
17
100
AcDbEntity
  8
A-ELEV-HIDN
100
AcDbLine
 10
10.010000000000002
 20
4.76875
 30
0.0
 11
10.05
 21
4.76875
 31
0.0
  0
LINE
  5
276
330
17
100
AcDbEntity
  8
A-ELEV-HIDN
100
AcDbLine
 10
10.100000000000001
 20
4.76875
 30
0.0
 11
10.140000000000002
 21
4.76875
 31
0.0
  0
LINE
  5
277
330
17
100
AcDbEntity
  8
A-ELEV-HIDN
100
AcDbLine
 10
10.190000000000001
 20
4.76875
 30
0.0
 11
10.230000000000002
 21
4.76875
 31
0.0
  0
LINE
  5
278
330
17
100
AcDbEntity
  8
A-ELEV-HIDN
100
AcDbLine
 10
10.280000000000001
 20
4.76875
 30
0.0
 11
10.320000000000002
 21
4.76875
 31
0.0
  0
LINE
  5
279
330
17
100
AcDbEntity
  8
A-ELEV-HIDN
100
AcDbLine
 10
10.370000000000001
 20
4.76875
 30
0.0
 11
10.410000000000002
 21
4.76875
 31
0.0
  0
LINE
  5
27A
330
17
100
AcDbEntity
  8
A-ELEV-HIDN
100
AcDbLine
 10
10.46
 20
4.76875
 30
0.0
 11
10.500000000000002
 21
4.76875
 31
0.0
  0
LINE
  5
27B
330
17
100
AcDbEntity
  8
A-ELEV-HIDN
100
AcDbLine
 10
10.55
 20
4.76875
 30
0.0
 11
10.590000000000002
 21
4.76875
 31
0.0
  0
LINE
  5
27C
330
17
100
AcDbEntity
  8
A-ELEV-HIDN
100
AcDbLine
 10
10.64
 20
4.76875
 30
0.0
 11
10.680000000000001
 21
4.76875
 31
0.0
  0
LINE
  5
27D
330
17
100
AcDbEntity
  8
A-ELEV-HIDN
100
AcDbLine
 10
10.73
 20
4.76875
 30
0.0
 11
10.770000000000001
 21
4.76875
 31
0.0
  0
LINE
  5
27E
330
17
100
AcDbEntity
  8
A-ELEV-HIDN
100
AcDbLine
 10
10.82
 20
4.76875
 30
0.0
 11
10.860000000000001
 21
4.76875
 31
0.0
  0
LINE
  5
27F
330
17
100
AcDbEntity
  8
A-ELEV-HIDN
100
AcDbLine
 10
10.91
 20
4.76875
 30
0.0
 11
10.950000000000001
 21
4.76875
 31
0.0
  0
LINE
  5
280
330
17
100
AcDbEntity
  8
A-ELEV-HIDN
100
AcDbLine
 10
11.0
 20
4.76875
 30
0.0
 11
11.040000000000001
 21
4.76875
 31
0.0
  0
LINE
  5
281
330
17
100
AcDbEntity
  8
A-ELEV-HIDN
100
AcDbLine
 10
11.09
 20
4.76875
 30
0.0
 11
11.13
 21
4.76875
 31
0.0
  0
LINE
  5
282
330
17
100
AcDbEntity
  8
A-ELEV-HIDN
100
AcDbLine
 10
11.18
 20
4.76875
 30
0.0
 11
11.22
 21
4.76875
 31
0.0
  0
LINE
  5
283
330
17
100
AcDbEntity
  8
A-ELEV-HIDN
100
AcDbLine
 10
11.27
 20
4.76875
 30
0.0
 11
11.31
 21
4.76875
 31
0.0
  0
LINE
  5
284
330
17
100
AcDbEntity
  8
A-ELEV-HIDN
100
AcDbLine
 10
11.36
 20
4.76875
 30
0.0
 11
11.4
 21
4.76875
 31
0.0
  0
LINE
  5
285
330
17
100
AcDbEntity
  8
A-ELEV-HIDN
100
AcDbLine
 10
11.45
 20
4.76875
 30
0.0
 11
11.49
 21
4.76875
 31
0.0
  0
LINE
  5
286
330
17
100
AcDbEntity
  8
A-ELEV-HIDN
100
AcDbLine
 10
11.54
 20
4.76875
 30
0.0
 11
11.58
 21
4.76875
 31
0.0
  0
LINE
  5
287
330
17
100
AcDbEntity
  8
A-ELEV-HIDN
100
AcDbLine
 10
11.629999999999999
 20
4.76875
 30
0.0
 11
11.67
 21
4.76875
 31
0.0
  0
LINE
  5
288
330
17
100
AcDbEntity
  8
A-ELEV-HIDN
100
AcDbLine
 10
11.719999999999999
 20
4.76875
 30
0.0
 11
11.76
 21
4.76875
 31
0.0
  0
LINE
  5
289
330
17
100
AcDbEntity
  8
A-ELEV-HIDN
100
AcDbLine
 10
11.809999999999999
 20
4.76875
 30
0.0
 11
11.85
 21
4.76875
 31
0.0
  0
LINE
  5
28A
330
17
100
AcDbEntity
  8
A-ELEV-HIDN
100
AcDbLine
 10
11.899999999999999
 20
4.76875
 30
0.0
 11
11.94
 21
4.76875
 31
0.0
  0
LINE
  5
28B
330
17
100
AcDbEntity
  8
A-ELEV-HIDN
100
AcDbLine
 10
11.989999999999998
 20
4.76875
 30
0.0
 11
12.03
 21
4.76875
 31
0.0
  0
LINE
  5
28C
330
17
100
AcDbEntity
  8
A-ELEV-HIDN
100
AcDbLine
 10
12.079999999999998
 20
4.76875
 30
0.0
 11
12.12
 21
4.76875
 31
0.0
  0
LINE
  5
28D
330
17
100
AcDbEntity
  8
A-ELEV-HIDN
100
AcDbLine
 10
12.169999999999998
 20
4.76875
 30
0.0
 11
12.209999999999999
 21
4.76875
 31
0.0
  0
LINE
  5
28E
330
17
100
AcDbEntity
  8
A-ELEV-HIDN
100
AcDbLine
 10
12.259999999999998
 20
4.76875
 30
0.0
 11
12.299999999999999
 21
4.76875
 31
0.0
  0
LINE
  5
28F
330
17
100
AcDbEntity
  8
A-ELEV-HIDN
100
AcDbLine
 10
12.349999999999998
 20
4.76875
 30
0.0
 11
12.389999999999999
 21
4.76875
 31
0.0
  0
LINE
  5
290
330
17
100
AcDbEntity
  8
A-ELEV-HIDN
100
AcDbLine
 10
12.439999999999998
 20
4.76875
 30
0.0
 11
12.479999999999999
 21
4.76875
 31
0.0
  0
LINE
  5
291
330
17
100
AcDbEntity
  8
A-ELEV-HIDN
100
AcDbLine
 10
12.529999999999998
 20
4.76875
 30
0.0
 11
12.569999999999999
 21
4.76875
 31
0.0
  0
LINE
  5
292
330
17
100
AcDbEntity
  8
A-ELEV-HIDN
100
AcDbLine
 10
12.619999999999997
 20
4.76875
 30
0.0
 11
12.659999999999998
 21
4.76875
 31
0.0
  0
LINE
  5
293
330
17
100
AcDbEntity
  8
A-ELEV-HIDN
100
AcDbLine
 10
12.709999999999997
 20
4.76875
 30
0.0
 11
12.749999999999998
 21
4.76875
 31
0.0
  0
LINE
  5
294
330
17
100
AcDbEntity
  8
A-ELEV-HIDN
100
AcDbLine
 10
12.799999999999997
 20
4.76875
 30
0.0
 11
12.839999999999998
 21
4.76875
 31
0.0
  0
LINE
  5
295
330
17
100
AcDbEntity
  8
A-ELEV-HIDN
100
AcDbLine
 10
12.889999999999997
 20
4.76875
 30
0.0
 11
12.929999999999998
 21
4.76875
 31
0.0
  0
LINE
  5
296
330
17
100
AcDbEntity
  8
A-ELEV-HIDN
100
AcDbLine
 10
12.979999999999997
 20
4.76875
 30
0.0
 11
13.019999999999998
 21
4.76875
 31
0.0
  0
LINE
  5
297
330
17
100
AcDbEntity
  8
A-ELEV-HIDN
100
AcDbLine
 10
13.069999999999997
 20
4.76875
 30
0.0
 11
13.109999999999998
 21
4.76875
 31
0.0
  0
LINE
  5
298
330
17
100
AcDbEntity
  8
A-ELEV-HIDN
100
AcDbLine
 10
13.159999999999997
 20
4.76875
 30
0.0
 11
13.199999999999998
 21
4.76875
 31
0.0
  0
LINE
  5
299
330
17
100
AcDbEntity
  8
A-ELEV-HIDN
100
AcDbLine
 10
13.249999999999996
 20
4.76875
 30
0.0
 11
13.289999999999997
 21
4.76875
 31
0.0
  0
LINE
  5
29A
330
17
100
AcDbEntity
  8
A-ELEV-HIDN
100
AcDbLine
 10
13.339999999999996
 20
4.76875
 30
0.0
 11
13.379999999999997
 21
4.76875
 31
0.0
  0
LINE
  5
29B
330
17
100
AcDbEntity
  8
A-ELEV-HIDN
100
AcDbLine
 10
13.429999999999996
 20
4.76875
 30
0.0
 11
13.469999999999997
 21
4.76875
 31
0.0
  0
LINE
  5
29C
330
17
100
AcDbEntity
  8
A-ELEV-HIDN
100
AcDbLine
 10
13.519999999999996
 20
4.76875
 30
0.0
 11
13.559999999999997
 21
4.76875
 31
0.0
  0
LINE
  5
29D
330
17
100
AcDbEntity
  8
A-ELEV-HIDN
100
AcDbLine
 10
13.609999999999996
 20
4.76875
 30
0.0
 11
13.649999999999997
 21
4.76875
 31
0.0
  0
LINE
  5
29E
330
17
100
AcDbEntity
  8
A-ELEV-HIDN
100
AcDbLine
 10
13.699999999999996
 20
4.76875
 30
0.0
 11
13.739999999999997
 21
4.76875
 31
0.0
  0
LINE
  5
29F
330
17
100
AcDbEntity
  8
A-ELEV-HIDN
100
AcDbLine
 10
13.789999999999996
 20
4.76875
 30
0.0
 11
13.829999999999997
 21
4.76875
 31
0.0
  0
LINE
  5
2A0
330
17
100
AcDbEntity
  8
A-ELEV-HIDN
100
AcDbLine
 10
13.879999999999995
 20
4.76875
 30
0.0
 11
13.919999999999996
 21
4.76875
 31
0.0
  0
LINE
  5
2A1
330
17
100
AcDbEntity
  8
A-ELEV-HIDN
100
AcDbLine
 10
13.969999999999995
 20
4.76875
 30
0.0
 11
14.009999999999996
 21
4.76875
 31
0.0
  0
LINE
  5
2A2
330
17
100
AcDbEntity
  8
A-ELEV-HIDN
100
AcDbLine
 10
14.059999999999995
 20
4.76875
 30
0.0
 11
14.099999999999996
 21
4.76875
 31
0.0
  0
LINE
  5
2A3
330
17
100
AcDbEntity
  8
A-ELEV-HIDN
100
AcDbLine
 10
14.149999999999995
 20
4.76875
 30
0.0
 11
14.189999999999996
 21
4.76875
 31
0.0
  0
LINE
  5
2A4
330
17
100
AcDbEntity
  8
A-ELEV-HIDN
100
AcDbLine
 10
14.239999999999995
 20
4.76875
 30
0.0
 11
14.279999999999996
 21
4.76875
 31
0.0
  0
LINE
  5
2A5
330
17
100
AcDbEntity
  8
A-ELEV-HIDN
100
AcDbLine
 10
14.329999999999995
 20
4.76875
 30
0.0
 11
14.369999999999996
 21
4.76875
 31
0.0
  0
LINE
  5
2A6
330
17
100
AcDbEntity
  8
A-ELEV-HIDN
100
AcDbLine
 10
14.419999999999995
 20
4.76875
 30
0.0
 11
14.459999999999996
 21
4.76875
 31
0.0
  0
LINE
  5
2A7
330
17
100
AcDbEntity
  8
A-ELEV-HIDN
100
AcDbLine
 10
14.509999999999994
 20
4.76875
 30
0.0
 11
14.549999999999995
 21
4.76875
 31
0.0
  0
LINE
  5
2A8
330
17
100
AcDbEntity
  8
A-ELEV-HIDN
100
AcDbLine
 10
14.599999999999994
 20
4.76875
 30
0.0
 11
14.639999999999995
 21
4.76875
 31
0.0
  0
LINE
  5
2A9
330
17
100
AcDbEntity
  8
A-ELEV-HIDN
100
AcDbLine
 10
14.689999999999994
 20
4.76875
 30
0.0
 11
14.729999999999995
 21
4.76875
 31
0.0
  0
LINE
  5
2AA
330
17
100
AcDbEntity
  8
A-ELEV-HIDN
100
AcDbLine
 10
14.779999999999994
 20
4.76875
 30
0.0
 11
14.819999999999995
 21
4.76875
 31
0.0
  0
LINE
  5
2AB
330
17
100
AcDbEntity
  8
A-ELEV-HIDN
100
AcDbLine
 10
14.869999999999994
 20
4.76875
 30
0.0
 11
14.909999999999995
 21
4.76875
 31
0.0
  0
LINE
  5
2AC
330
17
100
AcDbEntity
  8
A-ELEV-HIDN
100
AcDbLine
 10
14.959999999999994
 20
4.76875
 30
0.0
 11
14.999999999999995
 21
4.76875
 31
0.0
  0
LINE
  5
2AD
330
17
100
AcDbEntity
  8
A-ELEV-HIDN
100
AcDbLine
 10
15.049999999999994
 20
4.76875
 30
0.0
 11
15.089999999999995
 21
4.76875
 31
0.0
  0
LINE
  5
2AE
330
17
100
AcDbEntity
  8
A-ELEV-HIDN
100
AcDbLine
 10
15.139999999999993
 20
4.76875
 30
0.0
 11
15.179999999999994
 21
4.76875
 31
0.0
  0
LINE
  5
2AF
330
17
100
AcDbEntity
  8
A-ELEV-HIDN
100
AcDbLine
 10
15.229999999999993
 20
4.76875
 30
0.0
 11
15.269999999999994
 21
4.76875
 31
0.0
  0
LINE
  5
2B0
330
17
100
AcDbEntity
  8
A-ELEV-HIDN
100
AcDbLine
 10
15.319999999999993
 20
4.76875
 30
0.0
 11
15.359999999999994
 21
4.76875
 31
0.0
  0
LINE
  5
2B1
330
17
100
AcDbEntity
  8
A-ELEV-HIDN
100
AcDbLine
 10
15.409999999999993
 20
4.76875
 30
0.0
 11
15.449999999999994
 21
4.76875
 31
0.0
  0
LINE
  5
2B2
330
17
100
AcDbEntity
  8
A-ELEV-HIDN
100
AcDbLine
 10
15.499999999999993
 20
4.76875
 30
0.0
 11
15.539999999999994
 21
4.76875
 31
0.0
  0
LINE
  5
2B3
330
17
100
AcDbEntity
  8
A-ELEV-HIDN
100
AcDbLine
 10
15.589999999999993
 20
4.76875
 30
0.0
 11
15.629999999999994
 21
4.76875
 31
0.0
  0
LINE
  5
2B4
330
17
100
AcDbEntity
  8
A-ELEV-HIDN
100
AcDbLine
 10
15.679999999999993
 20
4.76875
 30
0.0
 11
15.719999999999994
 21
4.76875
 31
0.0
  0
LINE
  5
2B5
330
17
100
AcDbEntity
  8
A-ELEV-HIDN
100
AcDbLine
 10
15.769999999999992
 20
4.76875
 30
0.0
 11
15.809999999999993
 21
4.76875
 31
0.0
  0
LINE
  5
2B6
330
17
100
AcDbEntity
  8
A-ELEV-HIDN
100
AcDbLine
 10
15.859999999999992
 20
4.76875
 30
0.0
 11
15.899999999999993
 21
4.76875
 31
0.0
  0
LINE
  5
2B7
330
17
100
AcDbEntity
  8
A-ELEV-HIDN
100
AcDbLine
 10
15.949999999999992
 20
4.76875
 30
0.0
 11
15.989999999999993
 21
4.76875
 31
0.0
  0
LINE
  5
2B8
330
17
100
AcDbEntity
  8
A-ELEV-HIDN
100
AcDbLine
 10
16.039999999999992
 20
4.76875
 30
0.0
 11
16.07999999999999
 21
4.76875
 31
0.0
  0
LINE
  5
2B9
330
17
100
AcDbEntity
  8
A-ELEV-HIDN
100
AcDbLine
 10
16.129999999999992
 20
4.76875
 30
0.0
 11
16.169999999999995
 21
4.76875
 31
0.0
  0
LINE
  5
2BA
330
17
100
AcDbEntity
  8
A-ELEV-HIDN
100
AcDbLine
 10
16.21999999999999
 20
4.76875
 30
0.0
 11
16.25999999999999
 21
4.76875
 31
0.0
  0
LINE
  5
2BB
330
17
100
AcDbEntity
  8
A-ELEV-HIDN
100
AcDbLine
 10
16.309999999999995
 20
4.76875
 30
0.0
 11
16.33125
 21
4.76875
 31
0.0
  0
HATCH
  5
2BC
330
17
100
AcDbEntity
  8
A-ELEV-DOOR
 62
7
420
5921370
100
AcDbHatch
 10
0.0
 20
0.0
 30
0.0
210
0.0
220
0.0
230
1.0
  2
SOLID
 70
1
 71
0
 91
1
 92
3
 72
0
 73
1
 93
4
 10
16.06875
 20
4.3
 10
16.25625
 20
4.3
 10
16.25625
 20
4.55
 10
16.06875
 20
4.55
 97
0
 75
0
 76
1
 98
0
  0
LWPOLYLINE
  5
2BD
330
17
100
AcDbEntity
  8
A-ELEV-DOOR
100
AcDbPolyline
 90
4
 70
1
 10
16.06875
 20
4.3
 10
16.25625
 20
4.3
 10
16.25625
 20
4.55
 10
16.06875
 20
4.55
  0
TEXT
  5
2BE
330
17
100
AcDbEntity
  8
A-ELEV-IDEN
100
AcDbText
 10
16.1625
 20
4.5874999999999995
 30
0.0
 40
0.04599999999999999
  1
X6
  7
KS-BOLD
 72
1
 11
16.1625
 21
4.5874999999999995
 31
0.0
100
AcDbText
  0
HATCH
  5
2BF
330
17
100
AcDbEntity
  8
A-ELEV-DOOR
 62
7
420
5921370
100
AcDbHatch
 10
0.0
 20
0.0
 30
0.0
210
0.0
220
0.0
230
1.0
  2
SOLID
 70
1
 71
0
 91
1
 92
3
 72
0
 73
1
 93
4
 10
13.802812500000002
 20
4.3
 10
13.990312500000002
 20
4.3
 10
13.990312500000002
 20
4.55
 10
13.802812500000002
 20
4.55
 97
0
 75
0
 76
1
 98
0
  0
LWPOLYLINE
  5
2C0
330
17
100
AcDbEntity
  8
A-ELEV-DOOR
100
AcDbPolyline
 90
4
 70
1
 10
13.802812500000002
 20
4.3
 10
13.990312500000002
 20
4.3
 10
13.990312500000002
 20
4.55
 10
13.802812500000002
 20
4.55
  0
TEXT
  5
2C1
330
17
100
AcDbEntity
  8
A-ELEV-IDEN
100
AcDbText
 10
13.896562500000002
 20
4.5874999999999995
 30
0.0
 40
0.04599999999999999
  1
X7
  7
KS-BOLD
 72
1
 11
13.896562500000002
 21
4.5874999999999995
 31
0.0
100
AcDbText
  0
HATCH
  5
2C2
330
17
100
AcDbEntity
  8
A-ELEV-DOOR
 62
7
420
5921370
100
AcDbHatch
 10
0.0
 20
0.0
 30
0.0
210
0.0
220
0.0
230
1.0
  2
SOLID
 70
1
 71
0
 91
1
 92
3
 72
0
 73
1
 93
4
 10
9.26875
 20
4.3
 10
9.45625
 20
4.3
 10
9.45625
 20
4.55
 10
9.26875
 20
4.55
 97
0
 75
0
 76
1
 98
0
  0
LWPOLYLINE
  5
2C3
330
17
100
AcDbEntity
  8
A-ELEV-DOOR
100
AcDbPolyline
 90
4
 70
1
 10
9.26875
 20
4.3
 10
9.45625
 20
4.3
 10
9.45625
 20
4.55
 10
9.26875
 20
4.55
  0
TEXT
  5
2C4
330
17
100
AcDbEntity
  8
A-ELEV-IDEN
100
AcDbText
 10
9.3625
 20
4.5874999999999995
 30
0.0
 40
0.04599999999999999
  1
X8
  7
KS-BOLD
 72
1
 11
9.3625
 21
4.5874999999999995
 31
0.0
100
AcDbText
  0
LINE
  5
2C5
330
17
100
AcDbEntity
  8
A-ELEV-OTLN
100
AcDbLine
 10
8.2375
 20
4.3
 30
0.0
 11
16.39375
 21
4.3
 31
0.0
  0
TEXT
  5
2C6
330
17
100
AcDbEntity
  8
A-ELEV-IDEN
100
AcDbText
 10
12.675
 20
5.50625
 30
0.0
 40
0.048
  1
ARENA VOLUME (flush with the east wall)
  7
KS-REG
 72
1
 11
12.675
 21
5.50625
 31
0.0
100
AcDbText
  0
LINE
  5
2C7
330
17
100
AcDbEntity
  8
A-ELEV-DATM
100
AcDbLine
 10
8.01875
 20
4.76875
 30
0.0
 11
8.2375
 21
4.76875
 31
0.0
  0
TEXT
  5
2C8
330
17
100
AcDbEntity
  8
A-ELEV-DATM
100
AcDbText
 10
7.987500000000001
 20
4.7437499999999995
 30
0.0
 40
0.04599999999999999
  1
15'-0"
  7
KS-REG
 72
2
 11
7.987500000000001
 21
4.7437499999999995
 31
0.0
100
AcDbText
  0
LINE
  5
2C9
330
17
100
AcDbEntity
  8
A-ELEV-DATM
100
AcDbLine
 10
8.01875
 20
5.2375
 30
0.0
 11
8.2375
 21
5.2375
 31
0.0
  0
TEXT
  5
2CA
330
17
100
AcDbEntity
  8
A-ELEV-DATM
100
AcDbText
 10
7.987500000000001
 20
5.2124999999999995
 30
0.0
 40
0.04599999999999999
  1
30'-0"
  7
KS-REG
 72
2
 11
7.987500000000001
 21
5.2124999999999995
 31
0.0
100
AcDbText
  0
LINE
  5
2CB
330
17
100
AcDbEntity
  8
A-ELEV-DATM
100
AcDbLine
 10
8.01875
 20
5.6125
 30
0.0
 11
8.2375
 21
5.6125
 31
0.0
  0
TEXT
  5
2CC
330
17
100
AcDbEntity
  8
A-ELEV-DATM
100
AcDbText
 10
7.987500000000001
 20
5.5874999999999995
 30
0.0
 40
0.04599999999999999
  1
42'-0"
  7
KS-REG
 72
2
 11
7.987500000000001
 21
5.5874999999999995
 31
0.0
100
AcDbText
  0
TEXT
  5
2CD
330
17
100
AcDbEntity
  8
A-ELEV-IDEN
100
AcDbText
 10
8.3
 20
4.034375
 30
0.0
 40
0.072
  1
EAST ELEVATION — 1/32" = 1'-0"  (S ← → N)
  7
KS-BOLD
 11
8.3
 21
4.034375
 31
0.0
100
AcDbText
  0
HATCH
  5
2CE
330
17
100
AcDbEntity
  8
A-ELEV-FILL
 62
7
420
15000804
100
AcDbHatch
 10
0.0
 20
0.0
 30
0.0
210
0.0
220
0.0
230
1.0
  2
SOLID
 70
1
 71
0
 91
1
 92
3
 72
0
 73
1
 93
4
 10
1.2
 20
2.4
 10
1.35625
 20
2.4
 10
1.35625
 20
3.3375
 10
1.2
 20
3.3375
 97
0
 75
0
 76
1
 98
0
  0
HATCH
  5
2CF
330
17
100
AcDbEntity
  8
A-ELEV-FILL
 62
7
420
13487565
100
AcDbHatch
 10
0.0
 20
0.0
 30
0.0
210
0.0
220
0.0
230
1.0
  2
SOLID
 70
1
 71
0
 91
1
 92
3
 72
0
 73
1
 93
4
 10
1.54375
 20
2.4
 10
8.16875
 20
2.4
 10
8.16875
 20
3.7125
 10
1.54375
 20
3.7125
 97
0
 75
0
 76
1
 98
0
  0
HATCH
  5
2D0
330
17
100
AcDbEntity
  8
A-ELEV-FILL
 62
7
420
15000804
100
AcDbHatch
 10
0.0
 20
0.0
 30
0.0
210
0.0
220
0.0
230
1.0
  2
SOLID
 70
1
 71
0
 91
1
 92
3
 72
0
 73
1
 93
4
 10
1.35625
 20
2.4
 10
9.23125
 20
2.4
 10
9.23125
 20
3.3375
 10
1.35625
 20
3.3375
 97
0
 75
0
 76
1
 98
0
  0
LWPOLYLINE
  5
2D1
330
17
100
AcDbEntity
  8
A-ELEV-OTLN
100
AcDbPolyline
 90
4
 70
1
 10
1.2
 20
2.4
 10
1.35625
 20
2.4
 10
1.35625
 20
3.3375
 10
1.2
 20
3.3375
  0
LWPOLYLINE
  5
2D2
330
17
100
AcDbEntity
  8
A-ELEV-OTLN
100
AcDbPolyline
 90
4
 70
1
 10
1.54375
 20
2.4
 10
8.16875
 20
2.4
 10
8.16875
 20
3.7125
 10
1.54375
 20
3.7125
  0
LWPOLYLINE
  5
2D3
330
17
100
AcDbEntity
  8
A-ELEV-OTLN
100
AcDbPolyline
 90
4
 70
1
 10
1.35625
 20
2.4
 10
9.23125
 20
2.4
 10
9.23125
 20
3.3375
 10
1.35625
 20
3.3375
  0
LINE
  5
2D4
330
17
100
AcDbEntity
  8
A-ELEV-HIDN
100
AcDbLine
 10
1.575
 20
3.525
 30
0.0
 11
1.635
 21
3.525
 31
0.0
  0
LINE
  5
2D5
330
17
100
AcDbEntity
  8
A-ELEV-HIDN
100
AcDbLine
 10
1.68
 20
3.525
 30
0.0
 11
1.74
 21
3.525
 31
0.0
  0
LINE
  5
2D6
330
17
100
AcDbEntity
  8
A-ELEV-HIDN
100
AcDbLine
 10
1.785
 20
3.525
 30
0.0
 11
1.845
 21
3.525
 31
0.0
  0
LINE
  5
2D7
330
17
100
AcDbEntity
  8
A-ELEV-HIDN
100
AcDbLine
 10
1.89
 20
3.525
 30
0.0
 11
1.95
 21
3.525
 31
0.0
  0
LINE
  5
2D8
330
17
100
AcDbEntity
  8
A-ELEV-HIDN
100
AcDbLine
 10
1.9949999999999999
 20
3.525
 30
0.0
 11
2.0549999999999997
 21
3.525
 31
0.0
  0
LINE
  5
2D9
330
17
100
AcDbEntity
  8
A-ELEV-HIDN
100
AcDbLine
 10
2.0999999999999996
 20
3.525
 30
0.0
 11
2.16
 21
3.525
 31
0.0
  0
LINE
  5
2DA
330
17
100
AcDbEntity
  8
A-ELEV-HIDN
100
AcDbLine
 10
2.205
 20
3.525
 30
0.0
 11
2.2649999999999997
 21
3.525
 31
0.0
  0
LINE
  5
2DB
330
17
100
AcDbEntity
  8
A-ELEV-HIDN
100
AcDbLine
 10
2.31
 20
3.525
 30
0.0
 11
2.37
 21
3.525
 31
0.0
  0
LINE
  5
2DC
330
17
100
AcDbEntity
  8
A-ELEV-HIDN
100
AcDbLine
 10
2.415
 20
3.525
 30
0.0
 11
2.4749999999999996
 21
3.525
 31
0.0
  0
LINE
  5
2DD
330
17
100
AcDbEntity
  8
A-ELEV-HIDN
100
AcDbLine
 10
2.52
 20
3.525
 30
0.0
 11
2.58
 21
3.525
 31
0.0
  0
LINE
  5
2DE
330
17
100
AcDbEntity
  8
A-ELEV-HIDN
100
AcDbLine
 10
2.625
 20
3.525
 30
0.0
 11
2.6849999999999996
 21
3.525
 31
0.0
  0
LINE
  5
2DF
330
17
100
AcDbEntity
  8
A-ELEV-HIDN
100
AcDbLine
 10
2.7299999999999995
 20
3.525
 30
0.0
 11
2.79
 21
3.525
 31
0.0
  0
LINE
  5
2E0
330
17
100
AcDbEntity
  8
A-ELEV-HIDN
100
AcDbLine
 10
2.835
 20
3.525
 30
0.0
 11
2.8949999999999996
 21
3.525
 31
0.0
  0
LINE
  5
2E1
330
17
100
AcDbEntity
  8
A-ELEV-HIDN
100
AcDbLine
 10
2.9399999999999995
 20
3.525
 30
0.0
 11
3.0
 21
3.525
 31
0.0
  0
LINE
  5
2E2
330
17
100
AcDbEntity
  8
A-ELEV-HIDN
100
AcDbLine
 10
3.045
 20
3.525
 30
0.0
 11
3.1049999999999995
 21
3.525
 31
0.0
  0
LINE
  5
2E3
330
17
100
AcDbEntity
  8
A-ELEV-HIDN
100
AcDbLine
 10
3.1499999999999995
 20
3.525
 30
0.0
 11
3.21
 21
3.525
 31
0.0
  0
LINE
  5
2E4
330
17
100
AcDbEntity
  8
A-ELEV-HIDN
100
AcDbLine
 10
3.255
 20
3.525
 30
0.0
 11
3.3149999999999995
 21
3.525
 31
0.0
  0
LINE
  5
2E5
330
17
100
AcDbEntity
  8
A-ELEV-HIDN
100
AcDbLine
 10
3.3599999999999994
 20
3.525
 30
0.0
 11
3.42
 21
3.525
 31
0.0
  0
LINE
  5
2E6
330
17
100
AcDbEntity
  8
A-ELEV-HIDN
100
AcDbLine
 10
3.465
 20
3.525
 30
0.0
 11
3.5249999999999995
 21
3.525
 31
0.0
  0
LINE
  5
2E7
330
17
100
AcDbEntity
  8
A-ELEV-HIDN
100
AcDbLine
 10
3.5699999999999994
 20
3.525
 30
0.0
 11
3.63
 21
3.525
 31
0.0
  0
LINE
  5
2E8
330
17
100
AcDbEntity
  8
A-ELEV-HIDN
100
AcDbLine
 10
3.675
 20
3.525
 30
0.0
 11
3.7349999999999994
 21
3.525
 31
0.0
  0
LINE
  5
2E9
330
17
100
AcDbEntity
  8
A-ELEV-HIDN
100
AcDbLine
 10
3.7799999999999994
 20
3.525
 30
0.0
 11
3.84
 21
3.525
 31
0.0
  0
LINE
  5
2EA
330
17
100
AcDbEntity
  8
A-ELEV-HIDN
100
AcDbLine
 10
3.885
 20
3.525
 30
0.0
 11
3.9449999999999994
 21
3.525
 31
0.0
  0
LINE
  5
2EB
330
17
100
AcDbEntity
  8
A-ELEV-HIDN
100
AcDbLine
 10
3.9899999999999993
 20
3.525
 30
0.0
 11
4.05
 21
3.525
 31
0.0
  0
LINE
  5
2EC
330
17
100
AcDbEntity
  8
A-ELEV-HIDN
100
AcDbLine
 10
4.095
 20
3.525
 30
0.0
 11
4.154999999999999
 21
3.525
 31
0.0
  0
LINE
  5
2ED
330
17
100
AcDbEntity
  8
A-ELEV-HIDN
100
AcDbLine
 10
4.199999999999999
 20
3.525
 30
0.0
 11
4.26
 21
3.525
 31
0.0
  0
LINE
  5
2EE
330
17
100
AcDbEntity
  8
A-ELEV-HIDN
100
AcDbLine
 10
4.305
 20
3.525
 30
0.0
 11
4.364999999999999
 21
3.525
 31
0.0
  0
LINE
  5
2EF
330
17
100
AcDbEntity
  8
A-ELEV-HIDN
100
AcDbLine
 10
4.409999999999999
 20
3.525
 30
0.0
 11
4.47
 21
3.525
 31
0.0
  0
LINE
  5
2F0
330
17
100
AcDbEntity
  8
A-ELEV-HIDN
100
AcDbLine
 10
4.515
 20
3.525
 30
0.0
 11
4.574999999999999
 21
3.525
 31
0.0
  0
LINE
  5
2F1
330
17
100
AcDbEntity
  8
A-ELEV-HIDN
100
AcDbLine
 10
4.619999999999999
 20
3.525
 30
0.0
 11
4.68
 21
3.525
 31
0.0
  0
LINE
  5
2F2
330
17
100
AcDbEntity
  8
A-ELEV-HIDN
100
AcDbLine
 10
4.725
 20
3.525
 30
0.0
 11
4.784999999999999
 21
3.525
 31
0.0
  0
LINE
  5
2F3
330
17
100
AcDbEntity
  8
A-ELEV-HIDN
100
AcDbLine
 10
4.829999999999999
 20
3.525
 30
0.0
 11
4.89
 21
3.525
 31
0.0
  0
LINE
  5
2F4
330
17
100
AcDbEntity
  8
A-ELEV-HIDN
100
AcDbLine
 10
4.935
 20
3.525
 30
0.0
 11
4.994999999999999
 21
3.525
 31
0.0
  0
LINE
  5
2F5
330
17
100
AcDbEntity
  8
A-ELEV-HIDN
100
AcDbLine
 10
5.039999999999999
 20
3.525
 30
0.0
 11
5.1
 21
3.525
 31
0.0
  0
LINE
  5
2F6
330
17
100
AcDbEntity
  8
A-ELEV-HIDN
100
AcDbLine
 10
5.145
 20
3.525
 30
0.0
 11
5.204999999999999
 21
3.525
 31
0.0
  0
LINE
  5
2F7
330
17
100
AcDbEntity
  8
A-ELEV-HIDN
100
AcDbLine
 10
5.249999999999999
 20
3.525
 30
0.0
 11
5.31
 21
3.525
 31
0.0
  0
LINE
  5
2F8
330
17
100
AcDbEntity
  8
A-ELEV-HIDN
100
AcDbLine
 10
5.3549999999999995
 20
3.525
 30
0.0
 11
5.414999999999999
 21
3.525
 31
0.0
  0
LINE
  5
2F9
330
17
100
AcDbEntity
  8
A-ELEV-HIDN
100
AcDbLine
 10
5.459999999999999
 20
3.525
 30
0.0
 11
5.52
 21
3.525
 31
0.0
  0
LINE
  5
2FA
330
17
100
AcDbEntity
  8
A-ELEV-HIDN
100
AcDbLine
 10
5.5649999999999995
 20
3.525
 30
0.0
 11
5.624999999999999
 21
3.525
 31
0.0
  0
LINE
  5
2FB
330
17
100
AcDbEntity
  8
A-ELEV-HIDN
100
AcDbLine
 10
5.669999999999999
 20
3.525
 30
0.0
 11
5.729999999999999
 21
3.525
 31
0.0
  0
LINE
  5
2FC
330
17
100
AcDbEntity
  8
A-ELEV-HIDN
100
AcDbLine
 10
5.774999999999999
 20
3.525
 30
0.0
 11
5.834999999999998
 21
3.525
 31
0.0
  0
LINE
  5
2FD
330
17
100
AcDbEntity
  8
A-ELEV-HIDN
100
AcDbLine
 10
5.879999999999998
 20
3.525
 30
0.0
 11
5.939999999999998
 21
3.525
 31
0.0
  0
LINE
  5
2FE
330
17
100
AcDbEntity
  8
A-ELEV-HIDN
100
AcDbLine
 10
5.984999999999998
 20
3.525
 30
0.0
 11
6.044999999999997
 21
3.525
 31
0.0
  0
LINE
  5
2FF
330
17
100
AcDbEntity
  8
A-ELEV-HIDN
100
AcDbLine
 10
6.089999999999997
 20
3.525
 30
0.0
 11
6.149999999999997
 21
3.525
 31
0.0
  0
LINE
  5
300
330
17
100
AcDbEntity
  8
A-ELEV-HIDN
100
AcDbLine
 10
6.194999999999997
 20
3.525
 30
0.0
 11
6.254999999999996
 21
3.525
 31
0.0
  0
LINE
  5
301
330
17
100
AcDbEntity
  8
A-ELEV-HIDN
100
AcDbLine
 10
6.299999999999996
 20
3.525
 30
0.0
 11
6.359999999999996
 21
3.525
 31
0.0
  0
LINE
  5
302
330
17
100
AcDbEntity
  8
A-ELEV-HIDN
100
AcDbLine
 10
6.404999999999996
 20
3.525
 30
0.0
 11
6.464999999999995
 21
3.525
 31
0.0
  0
LINE
  5
303
330
17
100
AcDbEntity
  8
A-ELEV-HIDN
100
AcDbLine
 10
6.509999999999995
 20
3.525
 30
0.0
 11
6.569999999999995
 21
3.525
 31
0.0
  0
LINE
  5
304
330
17
100
AcDbEntity
  8
A-ELEV-HIDN
100
AcDbLine
 10
6.614999999999995
 20
3.525
 30
0.0
 11
6.6749999999999945
 21
3.525
 31
0.0
  0
LINE
  5
305
330
17
100
AcDbEntity
  8
A-ELEV-HIDN
100
AcDbLine
 10
6.719999999999994
 20
3.525
 30
0.0
 11
6.779999999999994
 21
3.525
 31
0.0
  0
LINE
  5
306
330
17
100
AcDbEntity
  8
A-ELEV-HIDN
100
AcDbLine
 10
6.824999999999994
 20
3.525
 30
0.0
 11
6.884999999999994
 21
3.525
 31
0.0
  0
LINE
  5
307
330
17
100
AcDbEntity
  8
A-ELEV-HIDN
100
AcDbLine
 10
6.9299999999999935
 20
3.525
 30
0.0
 11
6.989999999999993
 21
3.525
 31
0.0
  0
LINE
  5
308
330
17
100
AcDbEntity
  8
A-ELEV-HIDN
100
AcDbLine
 10
7.034999999999993
 20
3.525
 30
0.0
 11
7.094999999999993
 21
3.525
 31
0.0
  0
LINE
  5
309
330
17
100
AcDbEntity
  8
A-ELEV-HIDN
100
AcDbLine
 10
7.139999999999993
 20
3.525
 30
0.0
 11
7.199999999999992
 21
3.525
 31
0.0
  0
LINE
  5
30A
330
17
100
AcDbEntity
  8
A-ELEV-HIDN
100
AcDbLine
 10
7.244999999999992
 20
3.525
 30
0.0
 11
7.304999999999992
 21
3.525
 31
0.0
  0
LINE
  5
30B
330
17
100
AcDbEntity
  8
A-ELEV-HIDN
100
AcDbLine
 10
7.349999999999992
 20
3.525
 30
0.0
 11
7.409999999999991
 21
3.525
 31
0.0
  0
LINE
  5
30C
330
17
100
AcDbEntity
  8
A-ELEV-HIDN
100
AcDbLine
 10
7.454999999999991
 20
3.525
 30
0.0
 11
7.514999999999991
 21
3.525
 31
0.0
  0
LINE
  5
30D
330
17
100
AcDbEntity
  8
A-ELEV-HIDN
100
AcDbLine
 10
7.559999999999991
 20
3.525
 30
0.0
 11
7.61999999999999
 21
3.525
 31
0.0
  0
LINE
  5
30E
330
17
100
AcDbEntity
  8
A-ELEV-HIDN
100
AcDbLine
 10
7.66499999999999
 20
3.525
 30
0.0
 11
7.72499999999999
 21
3.525
 31
0.0
  0
LINE
  5
30F
330
17
100
AcDbEntity
  8
A-ELEV-HIDN
100
AcDbLine
 10
7.76999999999999
 20
3.525
 30
0.0
 11
7.829999999999989
 21
3.525
 31
0.0
  0
LINE
  5
310
330
17
100
AcDbEntity
  8
A-ELEV-HIDN
100
AcDbLine
 10
7.874999999999989
 20
3.525
 30
0.0
 11
7.934999999999989
 21
3.525
 31
0.0
  0
LINE
  5
311
330
17
100
AcDbEntity
  8
A-ELEV-HIDN
100
AcDbLine
 10
7.979999999999989
 20
3.525
 30
0.0
 11
8.039999999999988
 21
3.525
 31
0.0
  0
LINE
  5
312
330
17
100
AcDbEntity
  8
A-ELEV-HIDN
100
AcDbLine
 10
8.084999999999988
 20
3.525
 30
0.0
 11
8.1375
 21
3.525
 31
0.0
  0
LINE
  5
313
330
17
100
AcDbEntity
  8
A-ELEV-HIDN
100
AcDbLine
 10
1.2
 20
2.86875
 30
0.0
 11
1.24
 21
2.86875
 31
0.0
  0
LINE
  5
314
330
17
100
AcDbEntity
  8
A-ELEV-HIDN
100
AcDbLine
 10
1.29
 20
2.86875
 30
0.0
 11
1.33
 21
2.86875
 31
0.0
  0
LINE
  5
315
330
17
100
AcDbEntity
  8
A-ELEV-HIDN
100
AcDbLine
 10
1.38
 20
2.86875
 30
0.0
 11
1.42
 21
2.86875
 31
0.0
  0
LINE
  5
316
330
17
100
AcDbEntity
  8
A-ELEV-HIDN
100
AcDbLine
 10
1.47
 20
2.86875
 30
0.0
 11
1.51
 21
2.86875
 31
0.0
  0
LINE
  5
317
330
17
100
AcDbEntity
  8
A-ELEV-HIDN
100
AcDbLine
 10
1.56
 20
2.86875
 30
0.0
 11
1.5999999999999999
 21
2.86875
 31
0.0
  0
LINE
  5
318
330
17
100
AcDbEntity
  8
A-ELEV-HIDN
100
AcDbLine
 10
1.65
 20
2.86875
 30
0.0
 11
1.69
 21
2.86875
 31
0.0
  0
LINE
  5
319
330
17
100
AcDbEntity
  8
A-ELEV-HIDN
100
AcDbLine
 10
1.7399999999999998
 20
2.86875
 30
0.0
 11
1.7799999999999998
 21
2.86875
 31
0.0
  0
LINE
  5
31A
330
17
100
AcDbEntity
  8
A-ELEV-HIDN
100
AcDbLine
 10
1.83
 20
2.86875
 30
0.0
 11
1.87
 21
2.86875
 31
0.0
  0
LINE
  5
31B
330
17
100
AcDbEntity
  8
A-ELEV-HIDN
100
AcDbLine
 10
1.92
 20
2.86875
 30
0.0
 11
1.96
 21
2.86875
 31
0.0
  0
LINE
  5
31C
330
17
100
AcDbEntity
  8
A-ELEV-HIDN
100
AcDbLine
 10
2.0100000000000002
 20
2.86875
 30
0.0
 11
2.0500000000000003
 21
2.86875
 31
0.0
  0
LINE
  5
31D
330
17
100
AcDbEntity
  8
A-ELEV-HIDN
100
AcDbLine
 10
2.1
 20
2.86875
 30
0.0
 11
2.14
 21
2.86875
 31
0.0
  0
LINE
  5
31E
330
17
100
AcDbEntity
  8
A-ELEV-HIDN
100
AcDbLine
 10
2.1900000000000004
 20
2.86875
 30
0.0
 11
2.2300000000000004
 21
2.86875
 31
0.0
  0
LINE
  5
31F
330
17
100
AcDbEntity
  8
A-ELEV-HIDN
100
AcDbLine
 10
2.2800000000000002
 20
2.86875
 30
0.0
 11
2.3200000000000003
 21
2.86875
 31
0.0
  0
LINE
  5
320
330
17
100
AcDbEntity
  8
A-ELEV-HIDN
100
AcDbLine
 10
2.37
 20
2.86875
 30
0.0
 11
2.41
 21
2.86875
 31
0.0
  0
LINE
  5
321
330
17
100
AcDbEntity
  8
A-ELEV-HIDN
100
AcDbLine
 10
2.4600000000000004
 20
2.86875
 30
0.0
 11
2.5000000000000004
 21
2.86875
 31
0.0
  0
LINE
  5
322
330
17
100
AcDbEntity
  8
A-ELEV-HIDN
100
AcDbLine
 10
2.5500000000000007
 20
2.86875
 30
0.0
 11
2.5900000000000007
 21
2.86875
 31
0.0
  0
LINE
  5
323
330
17
100
AcDbEntity
  8
A-ELEV-HIDN
100
AcDbLine
 10
2.6400000000000006
 20
2.86875
 30
0.0
 11
2.6800000000000006
 21
2.86875
 31
0.0
  0
LINE
  5
324
330
17
100
AcDbEntity
  8
A-ELEV-HIDN
100
AcDbLine
 10
2.7300000000000004
 20
2.86875
 30
0.0
 11
2.7700000000000005
 21
2.86875
 31
0.0
  0
LINE
  5
325
330
17
100
AcDbEntity
  8
A-ELEV-HIDN
100
AcDbLine
 10
2.8200000000000007
 20
2.86875
 30
0.0
 11
2.8600000000000008
 21
2.86875
 31
0.0
  0
LINE
  5
326
330
17
100
AcDbEntity
  8
A-ELEV-HIDN
100
AcDbLine
 10
2.910000000000001
 20
2.86875
 30
0.0
 11
2.950000000000001
 21
2.86875
 31
0.0
  0
LINE
  5
327
330
17
100
AcDbEntity
  8
A-ELEV-HIDN
100
AcDbLine
 10
3.000000000000001
 20
2.86875
 30
0.0
 11
3.040000000000001
 21
2.86875
 31
0.0
  0
LINE
  5
328
330
17
100
AcDbEntity
  8
A-ELEV-HIDN
100
AcDbLine
 10
3.0900000000000007
 20
2.86875
 30
0.0
 11
3.130000000000001
 21
2.86875
 31
0.0
  0
LINE
  5
329
330
17
100
AcDbEntity
  8
A-ELEV-HIDN
100
AcDbLine
 10
3.180000000000001
 20
2.86875
 30
0.0
 11
3.2200000000000006
 21
2.86875
 31
0.0
  0
LINE
  5
32A
330
17
100
AcDbEntity
  8
A-ELEV-HIDN
100
AcDbLine
 10
3.2700000000000005
 20
2.86875
 30
0.0
 11
3.3100000000000005
 21
2.86875
 31
0.0
  0
LINE
  5
32B
330
17
100
AcDbEntity
  8
A-ELEV-HIDN
100
AcDbLine
 10
3.3600000000000003
 20
2.86875
 30
0.0
 11
3.4000000000000004
 21
2.86875
 31
0.0
  0
LINE
  5
32C
330
17
100
AcDbEntity
  8
A-ELEV-HIDN
100
AcDbLine
 10
3.45
 20
2.86875
 30
0.0
 11
3.49
 21
2.86875
 31
0.0
  0
LINE
  5
32D
330
17
100
AcDbEntity
  8
A-ELEV-HIDN
100
AcDbLine
 10
3.54
 20
2.86875
 30
0.0
 11
3.58
 21
2.86875
 31
0.0
  0
LINE
  5
32E
330
17
100
AcDbEntity
  8
A-ELEV-HIDN
100
AcDbLine
 10
3.63
 20
2.86875
 30
0.0
 11
3.67
 21
2.86875
 31
0.0
  0
LINE
  5
32F
330
17
100
AcDbEntity
  8
A-ELEV-HIDN
100
AcDbLine
 10
3.7199999999999998
 20
2.86875
 30
0.0
 11
3.76
 21
2.86875
 31
0.0
  0
LINE
  5
330
330
17
100
AcDbEntity
  8
A-ELEV-HIDN
100
AcDbLine
 10
3.8099999999999996
 20
2.86875
 30
0.0
 11
3.8499999999999996
 21
2.86875
 31
0.0
  0
LINE
  5
331
330
17
100
AcDbEntity
  8
A-ELEV-HIDN
100
AcDbLine
 10
3.8999999999999995
 20
2.86875
 30
0.0
 11
3.9399999999999995
 21
2.86875
 31
0.0
  0
LINE
  5
332
330
17
100
AcDbEntity
  8
A-ELEV-HIDN
100
AcDbLine
 10
3.9899999999999993
 20
2.86875
 30
0.0
 11
4.029999999999999
 21
2.86875
 31
0.0
  0
LINE
  5
333
330
17
100
AcDbEntity
  8
A-ELEV-HIDN
100
AcDbLine
 10
4.079999999999999
 20
2.86875
 30
0.0
 11
4.119999999999999
 21
2.86875
 31
0.0
  0
LINE
  5
334
330
17
100
AcDbEntity
  8
A-ELEV-HIDN
100
AcDbLine
 10
4.169999999999999
 20
2.86875
 30
0.0
 11
4.209999999999999
 21
2.86875
 31
0.0
  0
LINE
  5
335
330
17
100
AcDbEntity
  8
A-ELEV-HIDN
100
AcDbLine
 10
4.259999999999999
 20
2.86875
 30
0.0
 11
4.299999999999999
 21
2.86875
 31
0.0
  0
LINE
  5
336
330
17
100
AcDbEntity
  8
A-ELEV-HIDN
100
AcDbLine
 10
4.349999999999999
 20
2.86875
 30
0.0
 11
4.389999999999999
 21
2.86875
 31
0.0
  0
LINE
  5
337
330
17
100
AcDbEntity
  8
A-ELEV-HIDN
100
AcDbLine
 10
4.439999999999999
 20
2.86875
 30
0.0
 11
4.479999999999999
 21
2.86875
 31
0.0
  0
LINE
  5
338
330
17
100
AcDbEntity
  8
A-ELEV-HIDN
100
AcDbLine
 10
4.5299999999999985
 20
2.86875
 30
0.0
 11
4.5699999999999985
 21
2.86875
 31
0.0
  0
LINE
  5
339
330
17
100
AcDbEntity
  8
A-ELEV-HIDN
100
AcDbLine
 10
4.619999999999998
 20
2.86875
 30
0.0
 11
4.659999999999998
 21
2.86875
 31
0.0
  0
LINE
  5
33A
330
17
100
AcDbEntity
  8
A-ELEV-HIDN
100
AcDbLine
 10
4.709999999999998
 20
2.86875
 30
0.0
 11
4.749999999999998
 21
2.86875
 31
0.0
  0
LINE
  5
33B
330
17
100
AcDbEntity
  8
A-ELEV-HIDN
100
AcDbLine
 10
4.799999999999998
 20
2.86875
 30
0.0
 11
4.839999999999998
 21
2.86875
 31
0.0
  0
LINE
  5
33C
330
17
100
AcDbEntity
  8
A-ELEV-HIDN
100
AcDbLine
 10
4.889999999999998
 20
2.86875
 30
0.0
 11
4.929999999999998
 21
2.86875
 31
0.0
  0
LINE
  5
33D
330
17
100
AcDbEntity
  8
A-ELEV-HIDN
100
AcDbLine
 10
4.979999999999998
 20
2.86875
 30
0.0
 11
5.019999999999998
 21
2.86875
 31
0.0
  0
LINE
  5
33E
330
17
100
AcDbEntity
  8
A-ELEV-HIDN
100
AcDbLine
 10
5.069999999999998
 20
2.86875
 30
0.0
 11
5.109999999999998
 21
2.86875
 31
0.0
  0
LINE
  5
33F
330
17
100
AcDbEntity
  8
A-ELEV-HIDN
100
AcDbLine
 10
5.1599999999999975
 20
2.86875
 30
0.0
 11
5.1999999999999975
 21
2.86875
 31
0.0
  0
LINE
  5
340
330
17
100
AcDbEntity
  8
A-ELEV-HIDN
100
AcDbLine
 10
5.249999999999998
 20
2.86875
 30
0.0
 11
5.289999999999998
 21
2.86875
 31
0.0
  0
LINE
  5
341
330
17
100
AcDbEntity
  8
A-ELEV-HIDN
100
AcDbLine
 10
5.339999999999998
 20
2.86875
 30
0.0
 11
5.379999999999998
 21
2.86875
 31
0.0
  0
LINE
  5
342
330
17
100
AcDbEntity
  8
A-ELEV-HIDN
100
AcDbLine
 10
5.429999999999998
 20
2.86875
 30
0.0
 11
5.469999999999998
 21
2.86875
 31
0.0
  0
LINE
  5
343
330
17
100
AcDbEntity
  8
A-ELEV-HIDN
100
AcDbLine
 10
5.519999999999998
 20
2.86875
 30
0.0
 11
5.559999999999998
 21
2.86875
 31
0.0
  0
LINE
  5
344
330
17
100
AcDbEntity
  8
A-ELEV-HIDN
100
AcDbLine
 10
5.609999999999998
 20
2.86875
 30
0.0
 11
5.649999999999998
 21
2.86875
 31
0.0
  0
LINE
  5
345
330
17
100
AcDbEntity
  8
A-ELEV-HIDN
100
AcDbLine
 10
5.6999999999999975
 20
2.86875
 30
0.0
 11
5.7399999999999975
 21
2.86875
 31
0.0
  0
LINE
  5
346
330
17
100
AcDbEntity
  8
A-ELEV-HIDN
100
AcDbLine
 10
5.789999999999997
 20
2.86875
 30
0.0
 11
5.829999999999997
 21
2.86875
 31
0.0
  0
LINE
  5
347
330
17
100
AcDbEntity
  8
A-ELEV-HIDN
100
AcDbLine
 10
5.879999999999997
 20
2.86875
 30
0.0
 11
5.919999999999997
 21
2.86875
 31
0.0
  0
LINE
  5
348
330
17
100
AcDbEntity
  8
A-ELEV-HIDN
100
AcDbLine
 10
5.969999999999997
 20
2.86875
 30
0.0
 11
6.009999999999997
 21
2.86875
 31
0.0
  0
LINE
  5
349
330
17
100
AcDbEntity
  8
A-ELEV-HIDN
100
AcDbLine
 10
6.059999999999997
 20
2.86875
 30
0.0
 11
6.099999999999997
 21
2.86875
 31
0.0
  0
LINE
  5
34A
330
17
100
AcDbEntity
  8
A-ELEV-HIDN
100
AcDbLine
 10
6.149999999999997
 20
2.86875
 30
0.0
 11
6.189999999999997
 21
2.86875
 31
0.0
  0
LINE
  5
34B
330
17
100
AcDbEntity
  8
A-ELEV-HIDN
100
AcDbLine
 10
6.239999999999997
 20
2.86875
 30
0.0
 11
6.279999999999997
 21
2.86875
 31
0.0
  0
LINE
  5
34C
330
17
100
AcDbEntity
  8
A-ELEV-HIDN
100
AcDbLine
 10
6.3299999999999965
 20
2.86875
 30
0.0
 11
6.3699999999999966
 21
2.86875
 31
0.0
  0
LINE
  5
34D
330
17
100
AcDbEntity
  8
A-ELEV-HIDN
100
AcDbLine
 10
6.419999999999996
 20
2.86875
 30
0.0
 11
6.459999999999996
 21
2.86875
 31
0.0
  0
LINE
  5
34E
330
17
100
AcDbEntity
  8
A-ELEV-HIDN
100
AcDbLine
 10
6.509999999999996
 20
2.86875
 30
0.0
 11
6.549999999999996
 21
2.86875
 31
0.0
  0
LINE
  5
34F
330
17
100
AcDbEntity
  8
A-ELEV-HIDN
100
AcDbLine
 10
6.599999999999996
 20
2.86875
 30
0.0
 11
6.639999999999996
 21
2.86875
 31
0.0
  0
LINE
  5
350
330
17
100
AcDbEntity
  8
A-ELEV-HIDN
100
AcDbLine
 10
6.689999999999996
 20
2.86875
 30
0.0
 11
6.729999999999996
 21
2.86875
 31
0.0
  0
LINE
  5
351
330
17
100
AcDbEntity
  8
A-ELEV-HIDN
100
AcDbLine
 10
6.779999999999996
 20
2.86875
 30
0.0
 11
6.819999999999996
 21
2.86875
 31
0.0
  0
LINE
  5
352
330
17
100
AcDbEntity
  8
A-ELEV-HIDN
100
AcDbLine
 10
6.869999999999996
 20
2.86875
 30
0.0
 11
6.909999999999996
 21
2.86875
 31
0.0
  0
LINE
  5
353
330
17
100
AcDbEntity
  8
A-ELEV-HIDN
100
AcDbLine
 10
6.9599999999999955
 20
2.86875
 30
0.0
 11
6.999999999999996
 21
2.86875
 31
0.0
  0
LINE
  5
354
330
17
100
AcDbEntity
  8
A-ELEV-HIDN
100
AcDbLine
 10
7.049999999999995
 20
2.86875
 30
0.0
 11
7.089999999999995
 21
2.86875
 31
0.0
  0
LINE
  5
355
330
17
100
AcDbEntity
  8
A-ELEV-HIDN
100
AcDbLine
 10
7.139999999999995
 20
2.86875
 30
0.0
 11
7.179999999999995
 21
2.86875
 31
0.0
  0
LINE
  5
356
330
17
100
AcDbEntity
  8
A-ELEV-HIDN
100
AcDbLine
 10
7.229999999999995
 20
2.86875
 30
0.0
 11
7.269999999999995
 21
2.86875
 31
0.0
  0
LINE
  5
357
330
17
100
AcDbEntity
  8
A-ELEV-HIDN
100
AcDbLine
 10
7.319999999999995
 20
2.86875
 30
0.0
 11
7.359999999999995
 21
2.86875
 31
0.0
  0
LINE
  5
358
330
17
100
AcDbEntity
  8
A-ELEV-HIDN
100
AcDbLine
 10
7.409999999999995
 20
2.86875
 30
0.0
 11
7.449999999999995
 21
2.86875
 31
0.0
  0
LINE
  5
359
330
17
100
AcDbEntity
  8
A-ELEV-HIDN
100
AcDbLine
 10
7.499999999999995
 20
2.86875
 30
0.0
 11
7.539999999999995
 21
2.86875
 31
0.0
  0
LINE
  5
35A
330
17
100
AcDbEntity
  8
A-ELEV-HIDN
100
AcDbLine
 10
7.5899999999999945
 20
2.86875
 30
0.0
 11
7.629999999999995
 21
2.86875
 31
0.0
  0
LINE
  5
35B
330
17
100
AcDbEntity
  8
A-ELEV-HIDN
100
AcDbLine
 10
7.679999999999994
 20
2.86875
 30
0.0
 11
7.719999999999994
 21
2.86875
 31
0.0
  0
LINE
  5
35C
330
17
100
AcDbEntity
  8
A-ELEV-HIDN
100
AcDbLine
 10
7.769999999999994
 20
2.86875
 30
0.0
 11
7.809999999999994
 21
2.86875
 31
0.0
  0
LINE
  5
35D
330
17
100
AcDbEntity
  8
A-ELEV-HIDN
100
AcDbLine
 10
7.859999999999994
 20
2.86875
 30
0.0
 11
7.899999999999994
 21
2.86875
 31
0.0
  0
LINE
  5
35E
330
17
100
AcDbEntity
  8
A-ELEV-HIDN
100
AcDbLine
 10
7.949999999999994
 20
2.86875
 30
0.0
 11
7.989999999999994
 21
2.86875
 31
0.0
  0
LINE
  5
35F
330
17
100
AcDbEntity
  8
A-ELEV-HIDN
100
AcDbLine
 10
8.039999999999994
 20
2.86875
 30
0.0
 11
8.079999999999993
 21
2.86875
 31
0.0
  0
LINE
  5
360
330
17
100
AcDbEntity
  8
A-ELEV-HIDN
100
AcDbLine
 10
8.129999999999994
 20
2.86875
 30
0.0
 11
8.169999999999993
 21
2.86875
 31
0.0
  0
LINE
  5
361
330
17
100
AcDbEntity
  8
A-ELEV-HIDN
100
AcDbLine
 10
8.219999999999994
 20
2.86875
 30
0.0
 11
8.259999999999993
 21
2.86875
 31
0.0
  0
LINE
  5
362
330
17
100
AcDbEntity
  8
A-ELEV-HIDN
100
AcDbLine
 10
8.309999999999993
 20
2.86875
 30
0.0
 11
8.349999999999993
 21
2.86875
 31
0.0
  0
LINE
  5
363
330
17
100
AcDbEntity
  8
A-ELEV-HIDN
100
AcDbLine
 10
8.399999999999993
 20
2.86875
 30
0.0
 11
8.439999999999992
 21
2.86875
 31
0.0
  0
LINE
  5
364
330
17
100
AcDbEntity
  8
A-ELEV-HIDN
100
AcDbLine
 10
8.489999999999993
 20
2.86875
 30
0.0
 11
8.529999999999992
 21
2.86875
 31
0.0
  0
LINE
  5
365
330
17
100
AcDbEntity
  8
A-ELEV-HIDN
100
AcDbLine
 10
8.579999999999993
 20
2.86875
 30
0.0
 11
8.619999999999992
 21
2.86875
 31
0.0
  0
LINE
  5
366
330
17
100
AcDbEntity
  8
A-ELEV-HIDN
100
AcDbLine
 10
8.669999999999993
 20
2.86875
 30
0.0
 11
8.709999999999992
 21
2.86875
 31
0.0
  0
LINE
  5
367
330
17
100
AcDbEntity
  8
A-ELEV-HIDN
100
AcDbLine
 10
8.759999999999993
 20
2.86875
 30
0.0
 11
8.799999999999992
 21
2.86875
 31
0.0
  0
LINE
  5
368
330
17
100
AcDbEntity
  8
A-ELEV-HIDN
100
AcDbLine
 10
8.849999999999993
 20
2.86875
 30
0.0
 11
8.889999999999992
 21
2.86875
 31
0.0
  0
LINE
  5
369
330
17
100
AcDbEntity
  8
A-ELEV-HIDN
100
AcDbLine
 10
8.939999999999992
 20
2.86875
 30
0.0
 11
8.979999999999992
 21
2.86875
 31
0.0
  0
LINE
  5
36A
330
17
100
AcDbEntity
  8
A-ELEV-HIDN
100
AcDbLine
 10
9.029999999999992
 20
2.86875
 30
0.0
 11
9.069999999999991
 21
2.86875
 31
0.0
  0
LINE
  5
36B
330
17
100
AcDbEntity
  8
A-ELEV-HIDN
100
AcDbLine
 10
9.119999999999992
 20
2.86875
 30
0.0
 11
9.159999999999991
 21
2.86875
 31
0.0
  0
LINE
  5
36C
330
17
100
AcDbEntity
  8
A-ELEV-HIDN
100
AcDbLine
 10
9.209999999999992
 20
2.86875
 30
0.0
 11
9.23125
 21
2.86875
 31
0.0
  0
HATCH
  5
36D
330
17
100
AcDbEntity
  8
A-ELEV-DOOR
 62
7
420
5921370
100
AcDbHatch
 10
0.0
 20
0.0
 30
0.0
210
0.0
220
0.0
230
1.0
  2
SOLID
 70
1
 71
0
 91
1
 92
3
 72
0
 73
1
 93
4
 10
7.95
 20
2.4
 10
8.1375
 20
2.4
 10
8.1375
 20
2.65
 10
7.95
 20
2.65
 97
0
 75
0
 76
1
 98
0
  0
LWPOLYLINE
  5
36E
330
17
100
AcDbEntity
  8
A-ELEV-DOOR
100
AcDbPolyline
 90
4
 70
1
 10
7.95
 20
2.4
 10
8.1375
 20
2.4
 10
8.1375
 20
2.65
 10
7.95
 20
2.65
  0
TEXT
  5
36F
330
17
100
AcDbEntity
  8
A-ELEV-IDEN
100
AcDbText
 10
8.04375
 20
2.6875
 30
0.0
 40
0.04599999999999999
  1
X1
  7
KS-BOLD
 72
1
 11
8.04375
 21
2.6875
 31
0.0
100
AcDbText
  0
HATCH
  5
370
330
17
100
AcDbEntity
  8
A-ELEV-DOOR
 62
7
420
5921370
100
AcDbHatch
 10
0.0
 20
0.0
 30
0.0
210
0.0
220
0.0
230
1.0
  2
SOLID
 70
1
 71
0
 91
1
 92
3
 72
0
 73
1
 93
4
 10
6.075
 20
2.4
 10
6.2625
 20
2.4
 10
6.2625
 20
2.65
 10
6.075
 20
2.65
 97
0
 75
0
 76
1
 98
0
  0
LWPOLYLINE
  5
371
330
17
100
AcDbEntity
  8
A-ELEV-DOOR
100
AcDbPolyline
 90
4
 70
1
 10
6.075
 20
2.4
 10
6.2625
 20
2.4
 10
6.2625
 20
2.65
 10
6.075
 20
2.65
  0
TEXT
  5
372
330
17
100
AcDbEntity
  8
A-ELEV-IDEN
100
AcDbText
 10
6.16875
 20
2.6875
 30
0.0
 40
0.04599999999999999
  1
X2
  7
KS-BOLD
 72
1
 11
6.16875
 21
2.6875
 31
0.0
100
AcDbText
  0
HATCH
  5
373
330
17
100
AcDbEntity
  8
A-ELEV-DOOR
 62
7
420
5921370
100
AcDbHatch
 10
0.0
 20
0.0
 30
0.0
210
0.0
220
0.0
230
1.0
  2
SOLID
 70
1
 71
0
 91
1
 92
3
 72
0
 73
1
 93
4
 10
3.45
 20
2.4
 10
3.6375
 20
2.4
 10
3.6375
 20
2.65
 10
3.45
 20
2.65
 97
0
 75
0
 76
1
 98
0
  0
LWPOLYLINE
  5
374
330
17
100
AcDbEntity
  8
A-ELEV-DOOR
100
AcDbPolyline
 90
4
 70
1
 10
3.45
 20
2.4
 10
3.6375
 20
2.4
 10
3.6375
 20
2.65
 10
3.45
 20
2.65
  0
TEXT
  5
375
330
17
100
AcDbEntity
  8
A-ELEV-IDEN
100
AcDbText
 10
3.54375
 20
2.6875
 30
0.0
 40
0.04599999999999999
  1
X3
  7
KS-BOLD
 72
1
 11
3.54375
 21
2.6875
 31
0.0
100
AcDbText
  0
LINE
  5
376
330
17
100
AcDbEntity
  8
A-ELEV-OTLN
100
AcDbLine
 10
1.1375
 20
2.4
 30
0.0
 11
9.29375
 21
2.4
 31
0.0
  0
TEXT
  5
377
330
17
100
AcDbEntity
  8
A-ELEV-IDEN
100
AcDbText
 10
5.215625
 20
3.60625
 30
0.0
 40
0.048
  1
ARENA VOLUME BEHIND (set back 49')
  7
KS-REG
 72
1
 11
5.215625
 21
3.60625
 31
0.0
100
AcDbText
  0
LINE
  5
378
330
17
100
AcDbEntity
  8
A-ELEV-DATM
100
AcDbLine
 10
0.91875
 20
2.86875
 30
0.0
 11
1.1375
 21
2.86875
 31
0.0
  0
TEXT
  5
379
330
17
100
AcDbEntity
  8
A-ELEV-DATM
100
AcDbText
 10
0.8875
 20
2.84375
 30
0.0
 40
0.04599999999999999
  1
15'-0"
  7
KS-REG
 72
2
 11
0.8875
 21
2.84375
 31
0.0
100
AcDbText
  0
LINE
  5
37A
330
17
100
AcDbEntity
  8
A-ELEV-DATM
100
AcDbLine
 10
0.91875
 20
3.3375
 30
0.0
 11
1.1375
 21
3.3375
 31
0.0
  0
TEXT
  5
37B
330
17
100
AcDbEntity
  8
A-ELEV-DATM
100
AcDbText
 10
0.8875
 20
3.3125
 30
0.0
 40
0.04599999999999999
  1
30'-0"
  7
KS-REG
 72
2
 11
0.8875
 21
3.3125
 31
0.0
100
AcDbText
  0
LINE
  5
37C
330
17
100
AcDbEntity
  8
A-ELEV-DATM
100
AcDbLine
 10
0.91875
 20
3.7125
 30
0.0
 11
1.1375
 21
3.7125
 31
0.0
  0
TEXT
  5
37D
330
17
100
AcDbEntity
  8
A-ELEV-DATM
100
AcDbText
 10
0.8875
 20
3.6875
 30
0.0
 40
0.04599999999999999
  1
42'-0"
  7
KS-REG
 72
2
 11
0.8875
 21
3.6875
 31
0.0
100
AcDbText
  0
TEXT
  5
37E
330
17
100
AcDbEntity
  8
A-ELEV-IDEN
100
AcDbText
 10
1.2
 20
2.134375
 30
0.0
 40
0.072
  1
WEST ELEVATION — 1/32" = 1'-0"  (N ← → S)
  7
KS-BOLD
 11
1.2
 21
2.134375
 31
0.0
100
AcDbText
  0
TEXT
  5
37F
330
17
100
AcDbEntity
  8
A-ANNO-TEXT
100
AcDbText
 10
10.35
 20
3.8
 30
0.0
 40
0.076
  1
FINISHES
  7
KS-BOLD
 11
10.35
 21
3.8
 31
0.0
100
AcDbText
  0
HATCH
  5
380
330
17
100
AcDbEntity
  8
A-ELEV-FILL
 62
7
420
14208176
100
AcDbHatch
 10
0.0
 20
0.0
 30
0.0
210
0.0
220
0.0
230
1.0
  2
SOLID
 70
1
 71
0
 91
1
 92
3
 72
0
 73
1
 93
4
 10
10.35
 20
3.585
 10
10.629999999999999
 20
3.585
 10
10.629999999999999
 20
3.695
 10
10.35
 20
3.695
 97
0
 75
0
 76
1
 98
0
  0
LWPOLYLINE
  5
381
330
17
100
AcDbEntity
  8
A-ELEV-FILL
100
AcDbPolyline
 90
4
 70
1
 10
10.35
 20
3.585
 10
10.629999999999999
 20
3.585
 10
10.629999999999999
 20
3.695
 10
10.35
 20
3.695
  0
TEXT
  5
382
330
17
100
AcDbEntity
  8
A-ANNO-TEXT
100
AcDbText
 10
10.709999999999999
 20
3.605
 30
0.0
 40
0.056
  1
LIMESTONE (portal) — Shane (material)
  7
KS-REG
 11
10.709999999999999
 21
3.605
 31
0.0
100
AcDbText
  0
HATCH
  5
383
330
17
100
AcDbEntity
  8
A-ELEV-FILL
 62
7
420
10361650
100
AcDbHatch
 10
0.0
 20
0.0
 30
0.0
210
0.0
220
0.0
230
1.0
  2
SOLID
 70
1
 71
0
 91
1
 92
3
 72
0
 73
1
 93
4
 10
10.35
 20
3.44
 10
10.629999999999999
 20
3.44
 10
10.629999999999999
 20
3.55
 10
10.35
 20
3.55
 97
0
 75
0
 76
1
 98
0
  0
LWPOLYLINE
  5
384
330
17
100
AcDbEntity
  8
A-ELEV-FILL
100
AcDbPolyline
 90
4
 70
1
 10
10.35
 20
3.44
 10
10.629999999999999
 20
3.44
 10
10.629999999999999
 20
3.55
 10
10.35
 20
3.55
  0
TEXT
  5
385
330
17
100
AcDbEntity
  8
A-ANNO-TEXT
100
AcDbText
 10
10.709999999999999
 20
3.46
 30
0.0
 40
0.056
  1
CRIMSON (inside the arch) — Shane (color)
  7
KS-REG
 11
10.709999999999999
 21
3.46
 31
0.0
100
AcDbText
  0
HATCH
  5
386
330
17
100
AcDbEntity
  8
A-ELEV-FILL
 62
7
420
13214247
100
AcDbHatch
 10
0.0
 20
0.0
 30
0.0
210
0.0
220
0.0
230
1.0
  2
SOLID
 70
1
 71
0
 91
1
 92
3
 72
0
 73
1
 93
4
 10
10.35
 20
3.295
 10
10.629999999999999
 20
3.295
 10
10.629999999999999
 20
3.405
 10
10.35
 20
3.405
 97
0
 75
0
 76
1
 98
0
  0
LWPOLYLINE
  5
387
330
17
100
AcDbEntity
  8
A-ELEV-FILL
100
AcDbPolyline
 90
4
 70
1
 10
10.35
 20
3.295
 10
10.629999999999999
 20
3.295
 10
10.629999999999999
 20
3.405
 10
10.35
 20
3.405
  0
TEXT
  5
388
330
17
100
AcDbEntity
  8
A-ANNO-TEXT
100
AcDbText
 10
10.709999999999999
 20
3.315
 30
0.0
 40
0.056
  1
GOLD (arch soffit) — Shane (color)
  7
KS-REG
 11
10.709999999999999
 21
3.315
 31
0.0
100
AcDbText
  0
HATCH
  5
389
330
17
100
AcDbEntity
  8
A-ELEV-FILL
 62
7
420
13369344
100
AcDbHatch
 10
0.0
 20
0.0
 30
0.0
210
0.0
220
0.0
230
1.0
  2
SOLID
 70
1
 71
0
 91
1
 92
3
 72
0
 73
1
 93
4
 10
10.35
 20
3.15
 10
10.629999999999999
 20
3.15
 10
10.629999999999999
 20
3.26
 10
10.35
 20
3.26
 97
0
 75
0
 76
1
 98
0
  0
LWPOLYLINE
  5
38A
330
17
100
AcDbEntity
  8
A-ELEV-FILL
100
AcDbPolyline
 90
4
 70
1
 10
10.35
 20
3.15
 10
10.629999999999999
 20
3.15
 10
10.629999999999999
 20
3.26
 10
10.35
 20
3.26
  0
TEXT
  5
38B
330
17
100
AcDbEntity
  8
A-ANNO-TEXT
100
AcDbText
 10
10.709999999999999
 20
3.17
 30
0.0
 40
0.056
  1
BRAND RED — Shane (red/black brand)
  7
KS-REG
 11
10.709999999999999
 21
3.17
 31
0.0
100
AcDbText
  0
HATCH
  5
38C
330
17
100
AcDbEntity
  8
A-ELEV-FILL
 62
7
420
1710618
100
AcDbHatch
 10
0.0
 20
0.0
 30
0.0
210
0.0
220
0.0
230
1.0
  2
SOLID
 70
1
 71
0
 91
1
 92
3
 72
0
 73
1
 93
4
 10
10.35
 20
3.005
 10
10.629999999999999
 20
3.005
 10
10.629999999999999
 20
3.1149999999999998
 10
10.35
 20
3.1149999999999998
 97
0
 75
0
 76
1
 98
0
  0
LWPOLYLINE
  5
38D
330
17
100
AcDbEntity
  8
A-ELEV-FILL
100
AcDbPolyline
 90
4
 70
1
 10
10.35
 20
3.005
 10
10.629999999999999
 20
3.005
 10
10.629999999999999
 20
3.1149999999999998
 10
10.35
 20
3.1149999999999998
  0
TEXT
  5
38E
330
17
100
AcDbEntity
  8
A-ANNO-TEXT
100
AcDbText
 10
10.709999999999999
 20
3.025
 30
0.0
 40
0.056
  1
BRAND BLACK — as brand red
  7
KS-REG
 11
10.709999999999999
 21
3.025
 31
0.0
100
AcDbText
  0
HATCH
  5
38F
330
17
100
AcDbEntity
  8
A-ELEV-FILL
 62
7
420
15000804
100
AcDbHatch
 10
0.0
 20
0.0
 30
0.0
210
0.0
220
0.0
230
1.0
  2
SOLID
 70
1
 71
0
 91
1
 92
3
 72
0
 73
1
 93
4
 10
10.35
 20
2.86
 10
10.629999999999999
 20
2.86
 10
10.629999999999999
 20
2.9699999999999998
 10
10.35
 20
2.9699999999999998
 97
0
 75
0
 76
1
 98
0
  0
LWPOLYLINE
  5
390
330
17
100
AcDbEntity
  8
A-ELEV-FILL
100
AcDbPolyline
 90
4
 70
1
 10
10.35
 20
2.86
 10
10.629999999999999
 20
2.86
 10
10.629999999999999
 20
2.9699999999999998
 10
10.35
 20
2.9699999999999998
  0
TEXT
  5
391
330
17
100
AcDbEntity
  8
A-ANNO-TEXT
100
AcDbText
 10
10.709999999999999
 20
2.88
 30
0.0
 40
0.056
  1
WALL MATERIAL TBD — TBD
  7
KS-REG
 11
10.709999999999999
 21
2.88
 31
0.0
100
AcDbText
  0
HATCH
  5
392
330
17
100
AcDbEntity
  8
A-ELEV-FILL
 62
7
420
13487565
100
AcDbHatch
 10
0.0
 20
0.0
 30
0.0
210
0.0
220
0.0
230
1.0
  2
SOLID
 70
1
 71
0
 91
1
 92
3
 72
0
 73
1
 93
4
 10
10.35
 20
2.715
 10
10.629999999999999
 20
2.715
 10
10.629999999999999
 20
2.8249999999999997
 10
10.35
 20
2.8249999999999997
 97
0
 75
0
 76
1
 98
0
  0
LWPOLYLINE
  5
393
330
17
100
AcDbEntity
  8
A-ELEV-FILL
100
AcDbPolyline
 90
4
 70
1
 10
10.35
 20
2.715
 10
10.629999999999999
 20
2.715
 10
10.629999999999999
 20
2.8249999999999997
 10
10.35
 20
2.8249999999999997
  0
TEXT
  5
394
330
17
100
AcDbEntity
  8
A-ANNO-TEXT
100
AcDbText
 10
10.709999999999999
 20
2.735
 30
0.0
 40
0.056
  1
ARENA VOLUME — WALL / ROOF TBD — TBD
  7
KS-REG
 11
10.709999999999999
 21
2.735
 31
0.0
100
AcDbText
  0
HATCH
  5
395
330
17
100
AcDbEntity
  8
A-ELEV-FILL
 62
7
420
11126493
100
AcDbHatch
 10
0.0
 20
0.0
 30
0.0
210
0.0
220
0.0
230
1.0
  2
SOLID
 70
1
 71
0
 91
1
 92
3
 72
0
 73
1
 93
4
 10
10.35
 20
2.57
 10
10.629999999999999
 20
2.57
 10
10.629999999999999
 20
2.6799999999999997
 10
10.35
 20
2.6799999999999997
 97
0
 75
0
 76
1
 98
0
  0
LWPOLYLINE
  5
396
330
17
100
AcDbEntity
  8
A-ELEV-FILL
100
AcDbPolyline
 90
4
 70
1
 10
10.35
 20
2.57
 10
10.629999999999999
 20
2.57
 10
10.629999999999999
 20
2.6799999999999997
 10
10.35
 20
2.6799999999999997
  0
TEXT
  5
397
330
17
100
AcDbEntity
  8
A-ANNO-TEXT
100
AcDbText
 10
10.709999999999999
 20
2.59
 30
0.0
 40
0.056
  1
ENTRY GLAZING (TBD) — TBD
  7
KS-REG
 11
10.709999999999999
 21
2.59
 31
0.0
100
AcDbText
  0
TEXT
  5
398
330
17
100
AcDbEntity
  8
A-ANNO-TEXT
100
AcDbText
 10
13.05
 20
3.8
 30
0.0
 40
0.076
  1
NOTES
  7
KS-BOLD
 11
13.05
 21
3.8
 31
0.0
100
AcDbText
  0
TEXT
  5
399
330
17
100
AcDbEntity
  8
A-ANNO-TEXT
100
AcDbText
 10
13.05
 20
3.7085333333333335
 30
0.0
 40
0.056
  1
·
  7
KS-REG
 11
13.05
 21
3.7085333333333335
 31
0.0
100
AcDbText
  0
TEXT
  5
39A
330
17
100
AcDbEntity
  8
A-ANNO-TEXT
100
AcDbText
 10
13.15
 20
3.7085333333333335
 30
0.0
 40
0.056
  1
HEIGHTS: L2 FF 15' (R-015) and ring roof 30' are ASSUMED. Arena clear ≥ 25'
  7
KS-REG
 11
13.15
 21
3.7085333333333335
 31
0.0
100
AcDbText
  0
TEXT
  5
39B
330
17
100
AcDbEntity
  8
A-ANNO-TEXT
100
AcDbText
 10
13.15
 20
3.605866666666667
 30
0.0
 40
0.056
  1
over the court (NFHS court specs via Draper; LA RAP gym standard; R-019). U/S
  7
KS-REG
 11
13.15
 21
3.605866666666667
 31
0.0
100
AcDbText
  0
TEXT
  5
39C
330
17
100
AcDbEntity
  8
A-ANNO-TEXT
100
AcDbText
 10
13.15
 20
3.5032000000000005
 30
0.0
 40
0.056
  1
arena structure 36' and roof 42' ASSUMED (≈ 15' over an assumed 21' top aisle,
  7
KS-REG
 11
13.15
 21
3.5032000000000005
 31
0.0
100
AcDbText
  0
TEXT
  5
39D
330
17
100
AcDbEntity
  8
A-ANNO-TEXT
100
AcDbText
 10
13.15
 20
3.400533333333334
 30
0.0
 40
0.056
  1
IBC 1030.6.2.2 if smoke-protected). Parapet TBD.
  7
KS-REG
 11
13.15
 21
3.400533333333334
 31
0.0
100
AcDbText
  0
TEXT
  5
39E
330
17
100
AcDbEntity
  8
A-ANNO-TEXT
100
AcDbText
 10
13.05
 20
3.292200000000001
 30
0.0
 40
0.056
  1
·
  7
KS-REG
 11
13.05
 21
3.292200000000001
 31
0.0
100
AcDbText
  0
TEXT
  5
39F
330
17
100
AcDbEntity
  8
A-ANNO-TEXT
100
AcDbText
 10
13.15
 20
3.292200000000001
 30
0.0
 40
0.056
  1
PORTAL: limestone, crimson inside the arch, gold soffit (Shane). Size ASSUMED
  7
KS-REG
 11
13.15
 21
3.292200000000001
 31
0.0
100
AcDbText
  0
TEXT
  5
3A0
330
17
100
AcDbEntity
  8
A-ANNO-TEXT
100
AcDbText
 10
13.15
 20
3.1895333333333347
 30
0.0
 40
0.056
  1
from his render's proportions; projects south of the façade, depth TBD.
  7
KS-REG
 11
13.15
 21
3.1895333333333347
 31
0.0
100
AcDbText
  0
TEXT
  5
3A1
330
17
100
AcDbEntity
  8
A-ANNO-TEXT
100
AcDbText
 10
13.05
 20
3.0812000000000017
 30
0.0
 40
0.056
  1
·
  7
KS-REG
 11
13.05
 21
3.0812000000000017
 31
0.0
100
AcDbText
  0
TEXT
  5
3A2
330
17
100
AcDbEntity
  8
A-ANNO-TEXT
100
AcDbText
 10
13.15
 20
3.0812000000000017
 30
0.0
 40
0.056
  1
BRAND: placeholders only — no school logo (Phase 2 is Shane's build, D-028).
  7
KS-REG
 11
13.15
 21
3.0812000000000017
 31
0.0
100
AcDbText
  0
TEXT
  5
3A3
330
17
100
AcDbEntity
  8
A-ANNO-TEXT
100
AcDbText
 10
13.15
 20
2.9785333333333353
 30
0.0
 40
0.056
  1
HGHS badge? OPEN (D-040).
  7
KS-REG
 11
13.15
 21
2.9785333333333353
 31
0.0
100
AcDbText
  0
TEXT
  5
3A4
330
17
100
AcDbEntity
  8
A-ANNO-TEXT
100
AcDbText
 10
13.05
 20
2.8702000000000023
 30
0.0
 40
0.056
  1
·
  7
KS-REG
 11
13.05
 21
2.8702000000000023
 31
0.0
100
AcDbText
  0
TEXT
  5
3A5
330
17
100
AcDbEntity
  8
A-ANNO-TEXT
100
AcDbText
 10
13.15
 20
2.8702000000000023
 30
0.0
 40
0.056
  1
DOORS: symbols (6' x 8' ASSUMED) from P2-A-101 Rev D; X# EXIT ONLY (D-033);
  7
KS-REG
 11
13.15
 21
2.8702000000000023
 31
0.0
100
AcDbText
  0
TEXT
  5
3A6
330
17
100
AcDbEntity
  8
A-ANNO-TEXT
100
AcDbText
 10
13.15
 20
2.767533333333336
 30
0.0
 40
0.056
  1
S1 size TBD (D-034).
  7
KS-REG
 11
13.15
 21
2.767533333333336
 31
0.0
100
AcDbText
  0
TEXT
  5
3A7
330
17
100
AcDbEntity
  8
A-ANNO-TEXT
100
AcDbText
 10
13.05
 20
2.659200000000003
 30
0.0
 40
0.056
  1
·
  7
KS-REG
 11
13.05
 21
2.659200000000003
 31
0.0
100
AcDbText
  0
TEXT
  5
3A8
330
17
100
AcDbEntity
  8
A-ANNO-TEXT
100
AcDbText
 10
13.15
 20
2.659200000000003
 30
0.0
 40
0.056
  1
NOT SHOWN: ETFE roof / solar (aspirations), rooftop units, grading, lighting.
  7
KS-REG
 11
13.15
 21
2.659200000000003
 31
0.0
100
AcDbText
  0
ENDSEC
  0
SECTION
  2
OBJECTS
  0
DICTIONARY
  5
A
330
0
100
AcDbDictionary
281
1
  3
ACAD_COLOR
350
B
  3
ACAD_GROUP
350
C
  3
ACAD_LAYOUT
350
D
  3
ACAD_MATERIAL
350
E
  3
ACAD_MLEADERSTYLE
350
F
  3
ACAD_MLINESTYLE
350
10
  3
ACAD_PLOTSETTINGS
350
11
  3
ACAD_PLOTSTYLENAME
350
12
  3
ACAD_SCALELIST
350
14
  3
ACAD_TABLESTYLE
350
15
  3
ACAD_VISUALSTYLE
350
16
  3
EZDXF_META
350
2D
  0
DICTIONARY
  5
B
330
A
100
AcDbDictionary
281
1
  0
DICTIONARY
  5
C
330
A
100
AcDbDictionary
281
1
  0
DICTIONARY
  5
D
330
A
100
AcDbDictionary
281
1
  3
Model
350
1A
  3
Layout1
350
1E
  0
DICTIONARY
  5
E
330
A
100
AcDbDictionary
281
1
  3
ByBlock
350
1F
  3
ByLayer
350
20
  3
Global
350
21
  0
DICTIONARY
  5
F
330
A
100
AcDbDictionary
281
1
  3
Standard
350
2C
  0
DICTIONARY
  5
10
330
A
100
AcDbDictionary
281
1
  3
Standard
350
22
  0
DICTIONARY
  5
11
330
A
100
AcDbDictionary
281
1
  0
ACDBDICTIONARYWDFLT
  5
12
330
A
100
AcDbDictionary
281
1
  3
Normal
350
13
100
AcDbDictionaryWithDefault
340
13
  0
ACDBPLACEHOLDER
  5
13
330
12
  0
DICTIONARY
  5
14
330
A
100
AcDbDictionary
281
1
  0
DICTIONARY
  5
15
330
A
100
AcDbDictionary
281
1
  0
DICTIONARY
  5
16
330
A
100
AcDbDictionary
281
1
  0
LAYOUT
  5
1A
330
D
100
AcDbPlotSettings
  1

  4
A3
  6

 40
7.5
 41
20.0
 42
7.5
 43
20.0
 44
420.0
 45
297.0
 46
0.0
 47
0.0
 48
0.0
 49
0.0
140
0.0
141
0.0
142
1.0
143
1.0
 70
1024
 72
1
 73
0
 74
5
  7

 75
16
 76
0
 77
2
 78
300
147
1.0
148
0.0
149
0.0
100
AcDbLayout
  1
Model
 70
1
 71
0
 10
0.0
 20
0.0
 11
420.0
 21
297.0
 12
0.0
 22
0.0
 32
0.0
 14
1e+20
 24
1e+20
 34
1e+20
 15
-1e+20
 25
-1e+20
 35
-1e+20
146
0.0
 13
0.0
 23
0.0
 33
0.0
 16
1.0
 26
0.0
 36
0.0
 17
0.0
 27
1.0
 37
0.0
 76
1
330
17
  0
LAYOUT
  5
1E
330
D
100
AcDbPlotSettings
  1

  4
A3
  6

 40
7.5
 41
20.0
 42
7.5
 43
20.0
 44
420.0
 45
297.0
 46
0.0
 47
0.0
 48
0.0
 49
0.0
140
0.0
141
0.0
142
1.0
143
1.0
 70
0
 72
1
 73
0
 74
5
  7

 75
16
 76
0
 77
2
 78
300
147
1.0
148
0.0
149
0.0
100
AcDbLayout
  1
Layout1
 70
1
 71
1
 10
0.0
 20
0.0
 11
420.0
 21
297.0
 12
0.0
 22
0.0
 32
0.0
 14
1e+20
 24
1e+20
 34
1e+20
 15
-1e+20
 25
-1e+20
 35
-1e+20
146
0.0
 13
0.0
 23
0.0
 33
0.0
 16
1.0
 26
0.0
 36
0.0
 17
0.0
 27
1.0
 37
0.0
 76
1
330
1B
  0
MATERIAL
  5
1F
102
{ACAD_REACTORS
330
E
102
}
330
E
100
AcDbMaterial
  1
ByBlock
  2

 70
0
 40
1.0
 71
1
 41
1.0
 91
-1023410177
 42
1.0
 72
1
  3

 73
1
 74
1
 75
1
 44
0.5
 73
0
 45
1.0
 46
1.0
 77
1
  4

 78
1
 79
1
170
1
 48
1.0
171
1
  6

172
1
173
1
174
1
140
1.0
141
1.0
175
1
  7

176
1
177
1
178
1
143
1.0
179
1
  8

270
1
271
1
272
1
145
1.0
146
1.0
273
1
  9

274
1
275
1
276
1
 42
1.0
 72
1
  3

 73
1
 74
1
 75
1
 94
63
  0
MATERIAL
  5
20
102
{ACAD_REACTORS
330
E
102
}
330
E
100
AcDbMaterial
  1
ByLayer
  2

 70
0
 40
1.0
 71
1
 41
1.0
 91
-1023410177
 42
1.0
 72
1
  3

 73
1
 74
1
 75
1
 44
0.5
 73
0
 45
1.0
 46
1.0
 77
1
  4

 78
1
 79
1
170
1
 48
1.0
171
1
  6

172
1
173
1
174
1
140
1.0
141
1.0
175
1
  7

176
1
177
1
178
1
143
1.0
179
1
  8

270
1
271
1
272
1
145
1.0
146
1.0
273
1
  9

274
1
275
1
276
1
 42
1.0
 72
1
  3

 73
1
 74
1
 75
1
 94
63
  0
MATERIAL
  5
21
102
{ACAD_REACTORS
330
E
102
}
330
E
100
AcDbMaterial
  1
Global
  2

 70
0
 40
1.0
 71
1
 41
1.0
 91
-1023410177
 42
1.0
 72
1
  3

 73
1
 74
1
 75
1
 44
0.5
 73
0
 45
1.0
 46
1.0
 77
1
  4

 78
1
 79
1
170
1
 48
1.0
171
1
  6

172
1
173
1
174
1
140
1.0
141
1.0
175
1
  7

176
1
177
1
178
1
143
1.0
179
1
  8

270
1
271
1
272
1
145
1.0
146
1.0
273
1
  9

274
1
275
1
276
1
 42
1.0
 72
1
  3

 73
1
 74
1
 75
1
 94
63
  0
MLINESTYLE
  5
22
102
{ACAD_REACTORS
330
10
102
}
330
10
100
AcDbMlineStyle
  2
Standard
 70
0
  3

 62
256
 51
90.0
 52
90.0
 71
2
 49
0.5
 62
256
  6
BYLAYER
 49
-0.5
 62
256
  6
BYLAYER
  0
MLEADERSTYLE
  5
2C
102
{ACAD_REACTORS
330
F
102
}
330
F
100
AcDbMLeaderStyle
179
2
170
2
171
1
172
0
 90
2
 40
0.0
 41
0.0
173
1
 91
-1056964608
 92
-2
290
1
 42
2.0
291
1
 43
8.0
  3
Standard
 44
4.0
300

342
29
174
1
175
1
176
0
178
1
 93
-1056964608
 45
4.0
292
0
297
0
 46
4.0
 94
-1056964608
 47
1.0
 49
1.0
140
1.0
294
1
141
0.0
177
0
142
1.0
295
0
296
0
143
3.75
271
0
272
9
273
9
  0
DICTIONARY
  5
2D
330
A
100
AcDbDictionary
280
1
281
1
  3
CREATED_BY_EZDXF
350
2E
  3
WRITTEN_BY_EZDXF
350
3AB
  0
DICTIONARYVAR
  5
2E
330
2D
100
DictionaryVariables
280
0
  1
1.4.4 @ 2026-10-04T10:37:20.533362+00:00
  0
DICTIONARYVAR
  5
3AB
330
2D
100
DictionaryVariables
280
0
  1
1.4.4 @ 2026-10-04T10:37:20.550992+00:00
  0
ENDSEC
  0
EOF
