  0
SECTION
  2
HEADER
  9
$ACADVER
  1
AC1024
  9
$ACADMAINTVER
 70
6
  9
$DWGCODEPAGE
  3
ANSI_1252
  9
$LASTSAVEDBY
  1
ezdxf
  9
$INSBASE
 10
0.0
 20
0.0
 30
0.0
  9
$EXTMIN
 10
1e+20
 20
1e+20
 30
1e+20
  9
$EXTMAX
 10
-1e+20
 20
-1e+20
 30
-1e+20
  9
$LIMMIN
 10
0.0
 20
0.0
  9
$LIMMAX
 10
420.0
 20
297.0
  9
$ORTHOMODE
 70
0
  9
$REGENMODE
 70
1
  9
$FILLMODE
 70
1
  9
$QTEXTMODE
 70
0
  9
$MIRRTEXT
 70
1
  9
$LTSCALE
 40
1.0
  9
$ATTMODE
 70
1
  9
$TEXTSIZE
 40
2.5
  9
$TRACEWID
 40
1.0
  9
$TEXTSTYLE
  7
Standard
  9
$CLAYER
  8
0
  9
$CELTYPE
  6
ByLayer
  9
$CECOLOR
 62
256
  9
$CELTSCALE
 40
1.0
  9
$DISPSILH
 70
0
  9
$DIMSCALE
 40
1.0
  9
$DIMASZ
 40
2.5
  9
$DIMEXO
 40
0.625
  9
$DIMDLI
 40
3.75
  9
$DIMRND
 40
0.0
  9
$DIMDLE
 40
0.0
  9
$DIMEXE
 40
1.25
  9
$DIMTP
 40
0.0
  9
$DIMTM
 40
0.0
  9
$DIMTXT
 40
2.5
  9
$DIMCEN
 40
2.5
  9
$DIMTSZ
 40
0.0
  9
$DIMTOL
 70
0
  9
$DIMLIM
 70
0
  9
$DIMTIH
 70
0
  9
$DIMTOH
 70
0
  9
$DIMSE1
 70
0
  9
$DIMSE2
 70
0
  9
$DIMTAD
 70
1
  9
$DIMZIN
 70
8
  9
$DIMBLK
  1

  9
$DIMASO
 70
1
  9
$DIMSHO
 70
1
  9
$DIMPOST
  1

  9
$DIMAPOST
  1

  9
$DIMALT
 70
0
  9
$DIMALTD
 70
3
  9
$DIMALTF
 40
0.03937007874
  9
$DIMLFAC
 40
1.0
  9
$DIMTOFL
 70
1
  9
$DIMTVP
 40
0.0
  9
$DIMTIX
 70
0
  9
$DIMSOXD
 70
0
  9
$DIMSAH
 70
0
  9
$DIMBLK1
  1

  9
$DIMBLK2
  1

  9
$DIMSTYLE
  2
ISO-25
  9
$DIMCLRD
 70
0
  9
$DIMCLRE
 70
0
  9
$DIMCLRT
 70
0
  9
$DIMTFAC
 40
1.0
  9
$DIMGAP
 40
0.625
  9
$DIMJUST
 70
0
  9
$DIMSD1
 70
0
  9
$DIMSD2
 70
0
  9
$DIMTOLJ
 70
0
  9
$DIMTZIN
 70
8
  9
$DIMALTZ
 70
0
  9
$DIMALTTZ
 70
0
  9
$DIMUPT
 70
0
  9
$DIMDEC
 70
2
  9
$DIMTDEC
 70
2
  9
$DIMALTU
 70
2
  9
$DIMALTTD
 70
3
  9
$DIMTXSTY
  7
Standard
  9
$DIMAUNIT
 70
0
  9
$DIMADEC
 70
0
  9
$DIMALTRND
 40
0.0
  9
$DIMAZIN
 70
0
  9
$DIMDSEP
 70
44
  9
$DIMATFIT
 70
3
  9
$DIMFRAC
 70
0
  9
$DIMLDRBLK
  1

  9
$DIMLUNIT
 70
2
  9
$DIMLWD
 70
-2
  9
$DIMLWE
 70
-2
  9
$DIMTMOVE
 70
0
  9
$DIMFXL
 40
1.0
  9
$DIMFXLON
 70
0
  9
$DIMJOGANG
 40
0.785398163397
  9
$DIMTFILL
 70
0
  9
$DIMTFILLCLR
 70
0
  9
$DIMARCSYM
 70
0
  9
$DIMLTYPE
  6

  9
$DIMLTEX1
  6

  9
$DIMLTEX2
  6

  9
$DIMTXTDIRECTION
 70
0
  9
$LUNITS
 70
2
  9
$LUPREC
 70
4
  9
$SKETCHINC
 40
1.0
  9
$FILLETRAD
 40
10.0
  9
$AUNITS
 70
0
  9
$AUPREC
 70
2
  9
$MENU
  1
.
  9
$ELEVATION
 40
0.0
  9
$PELEVATION
 40
0.0
  9
$THICKNESS
 40
0.0
  9
$LIMCHECK
 70
0
  9
$CHAMFERA
 40
0.0
  9
$CHAMFERB
 40
0.0
  9
$CHAMFERC
 40
0.0
  9
$CHAMFERD
 40
0.0
  9
$SKPOLY
 70
0
  9
$TDCREATE
 40
2461318.44494213
  9
$TDUCREATE
 40
2458532.153996898
  9
$TDUPDATE
 40
2461318.44494213
  9
$TDUUPDATE
 40
2458532.1544311
  9
$TDINDWG
 40
0.0
  9
$TDUSRTIMER
 40
0.0
  9
$USRTIMER
 70
1
  9
$ANGBASE
 50
0.0
  9
$ANGDIR
 70
0
  9
$PDMODE
 70
0
  9
$PDSIZE
 40
0.0
  9
$PLINEWID
 40
0.0
  9
$SPLFRAME
 70
0
  9
$SPLINETYPE
 70
6
  9
$SPLINESEGS
 70
8
  9
$HANDSEED
  5
24A
  9
$SURFTAB1
 70
6
  9
$SURFTAB2
 70
6
  9
$SURFTYPE
 70
6
  9
$SURFU
 70
6
  9
$SURFV
 70
6
  9
$UCSBASE
  2

  9
$UCSNAME
  2

  9
$UCSORG
 10
0.0
 20
0.0
 30
0.0
  9
$UCSXDIR
 10
1.0
 20
0.0
 30
0.0
  9
$UCSYDIR
 10
0.0
 20
1.0
 30
0.0
  9
$UCSORTHOREF
  2

  9
$UCSORTHOVIEW
 70
0
  9
$UCSORGTOP
 10
0.0
 20
0.0
 30
0.0
  9
$UCSORGBOTTOM
 10
0.0
 20
0.0
 30
0.0
  9
$UCSORGLEFT
 10
0.0
 20
0.0
 30
0.0
  9
$UCSORGRIGHT
 10
0.0
 20
0.0
 30
0.0
  9
$UCSORGFRONT
 10
0.0
 20
0.0
 30
0.0
  9
$UCSORGBACK
 10
0.0
 20
0.0
 30
0.0
  9
$PUCSBASE
  2

  9
$PUCSNAME
  2

  9
$PUCSORG
 10
0.0
 20
0.0
 30
0.0
  9
$PUCSXDIR
 10
1.0
 20
0.0
 30
0.0
  9
$PUCSYDIR
 10
0.0
 20
1.0
 30
0.0
  9
$PUCSORTHOREF
  2

  9
$PUCSORTHOVIEW
 70
0
  9
$PUCSORGTOP
 10
0.0
 20
0.0
 30
0.0
  9
$PUCSORGBOTTOM
 10
0.0
 20
0.0
 30
0.0
  9
$PUCSORGLEFT
 10
0.0
 20
0.0
 30
0.0
  9
$PUCSORGRIGHT
 10
0.0
 20
0.0
 30
0.0
  9
$PUCSORGFRONT
 10
0.0
 20
0.0
 30
0.0
  9
$PUCSORGBACK
 10
0.0
 20
0.0
 30
0.0
  9
$USERI1
 70
0
  9
$USERI2
 70
0
  9
$USERI3
 70
0
  9
$USERI4
 70
0
  9
$USERI5
 70
0
  9
$USERR1
 40
0.0
  9
$USERR2
 40
0.0
  9
$USERR3
 40
0.0
  9
$USERR4
 40
0.0
  9
$USERR5
 40
0.0
  9
$WORLDVIEW
 70
1
  9
$SHADEDGE
 70
3
  9
$SHADEDIF
 70
70
  9
$TILEMODE
 70
1
  9
$MAXACTVP
 70
64
  9
$PINSBASE
 10
0.0
 20
0.0
 30
0.0
  9
$PLIMCHECK
 70
0
  9
$PEXTMIN
 10
1e+20
 20
1e+20
 30
1e+20
  9
$PEXTMAX
 10
-1e+20
 20
-1e+20
 30
-1e+20
  9
$PLIMMIN
 10
0.0
 20
0.0
  9
$PLIMMAX
 10
420.0
 20
297.0
  9
$UNITMODE
 70
0
  9
$VISRETAIN
 70
1
  9
$PLINEGEN
 70
0
  9
$PSLTSCALE
 70
1
  9
$TREEDEPTH
 70
3020
  9
$CMLSTYLE
  2
Standard
  9
$CMLJUST
 70
0
  9
$CMLSCALE
 40
20.0
  9
$PROXYGRAPHICS
 70
1
  9
$MEASUREMENT
 70
0
  9
$CELWEIGHT
370
-1
  9
$ENDCAPS
280
0
  9
$JOINSTYLE
280
0
  9
$LWDISPLAY
290
0
  9
$INSUNITS
 70
1
  9
$HYPERLINKBASE
  1

  9
$STYLESHEET
  1

  9
$XEDIT
290
1
  9
$CEPSNTYPE
380
0
  9
$PSTYLEMODE
290
1
  9
$FINGERPRINTGUID
  2
{2CB1DF19-CB87-45FE-BA48-9986295192EE}
  9
$VERSIONGUID
  2
{46E7D8C3-0A19-46BD-BBC7-A8833F8A736F}
  9
$EXTNAMES
290
1
  9
$PSVPSCALE
 40
0.0
  9
$OLESTARTUP
290
0
  9
$SORTENTS
280
127
  9
$INDEXCTL
280
0
  9
$HIDETEXT
280
1
  9
$XCLIPFRAME
280
1
  9
$HALOGAP
280
0
  9
$OBSCOLOR
 70
257
  9
$OBSLTYPE
280
0
  9
$INTERSECTIONDISPLAY
280
0
  9
$INTERSECTIONCOLOR
 70
257
  9
$DIMASSOC
280
2
  9
$PROJECTNAME
  1

  9
$CAMERADISPLAY
290
0
  9
$LENSLENGTH
 40
50.0
  9
$CAMERAHEIGHT
 40
0.0
  9
$STEPSPERSEC
 40
24.0
  9
$STEPSIZE
 40
100.0
  9
$3DDWFPREC
 40
2.0
  9
$PSOLWIDTH
 40
0.005
  9
$PSOLHEIGHT
 40
0.08
  9
$LOFTANG1
 40
1.570796326795
  9
$LOFTANG2
 40
1.570796326795
  9
$LOFTMAG1
 40
0.0
  9
$LOFTMAG2
 40
0.0
  9
$LOFTPARAM
 70
7
  9
$LOFTNORMALS
280
1
  9
$LATITUDE
 40
37.795
  9
$LONGITUDE
 40
-122.394
  9
$NORTHDIRECTION
 40
0.0
  9
$TIMEZONE
 70
-8000
  9
$LIGHTGLYPHDISPLAY
280
1
  9
$TILEMODELIGHTSYNCH
280
1
  9
$CMATERIAL
347
20
  9
$SOLIDHIST
280
0
  9
$SHOWHIST
280
1
  9
$DWFFRAME
280
2
  9
$DGNFRAME
280
2
  9
$REALWORLDSCALE
290
1
  9
$INTERFERECOLOR
 62
256
  9
$CSHADOW
280
0
  9
$SHADOWPLANELOCATION
 40
0.0
  0
ENDSEC
  0
SECTION
  2
CLASSES
  0
CLASS
  1
ACDBDICTIONARYWDFLT
  2
AcDbDictionaryWithDefault
  3
ObjectDBX Classes
 90
0
 91
0
280
0
281
0
  0
CLASS
  1
SUN
  2
AcDbSun
  3
SCENEOE
 90
1153
 91
0
280
0
281
0
  0
CLASS
  1
VISUALSTYLE
  2
AcDbVisualStyle
  3
ObjectDBX Classes
 90
4095
 91
0
280
0
281
0
  0
CLASS
  1
MATERIAL
  2
AcDbMaterial
  3
ObjectDBX Classes
 90
1153
 91
0
280
0
281
0
  0
CLASS
  1
SCALE
  2
AcDbScale
  3
ObjectDBX Classes
 90
1153
 91
0
280
0
281
0
  0
CLASS
  1
TABLESTYLE
  2
AcDbTableStyle
  3
ObjectDBX Classes
 90
4095
 91
0
280
0
281
0
  0
CLASS
  1
MLEADERSTYLE
  2
AcDbMLeaderStyle
  3
ACDB_MLEADERSTYLE_CLASS
 90
4095
 91
0
280
0
281
0
  0
CLASS
  1
DICTIONARYVAR
  2
AcDbDictionaryVar
  3
ObjectDBX Classes
 90
0
 91
0
280
0
281
0
  0
CLASS
  1
CELLSTYLEMAP
  2
AcDbCellStyleMap
  3
ObjectDBX Classes
 90
1152
 91
0
280
0
281
0
  0
CLASS
  1
MENTALRAYRENDERSETTINGS
  2
AcDbMentalRayRenderSettings
  3
SCENEOE
 90
1024
 91
0
280
0
281
0
  0
CLASS
  1
ACDBDETAILVIEWSTYLE
  2
AcDbDetailViewStyle
  3
ObjectDBX Classes
 90
1025
 91
0
280
0
281
0
  0
CLASS
  1
ACDBSECTIONVIEWSTYLE
  2
AcDbSectionViewStyle
  3
ObjectDBX Classes
 90
1025
 91
0
280
0
281
0
  0
CLASS
  1
RASTERVARIABLES
  2
AcDbRasterVariables
  3
ISM
 90
0
 91
0
280
0
281
0
  0
CLASS
  1
ACDBPLACEHOLDER
  2
AcDbPlaceHolder
  3
ObjectDBX Classes
 90
0
 91
0
280
0
281
0
  0
CLASS
  1
LAYOUT
  2
AcDbLayout
  3
ObjectDBX Classes
 90
0
 91
0
280
0
281
0
  0
ENDSEC
  0
SECTION
  2
TABLES
  0
TABLE
  2
VPORT
  5
8
330
0
100
AcDbSymbolTable
 70
1
  0
VPORT
  5
23
330
8
100
AcDbSymbolTableRecord
100
AcDbViewportTableRecord
  2
*Active
 70
0
 10
0.0
 20
0.0
 11
1.0
 21
1.0
 12
0.0
 22
0.0
 13
0.0
 23
0.0
 14
0.5
 24
0.5
 15
0.5
 25
0.5
 16
0.0
 26
0.0
 36
1.0
 17
0.0
 27
0.0
 37
0.0
 40
1000.0
 41
1.34
 42
50.0
 43
0.0
 44
0.0
 50
0.0
 51
0.0
 71
0
 72
1000
 73
1
 74
3
 75
0
 76
0
 77
0
 78
0
281
0
 65
0
146
0.0
  0
ENDTAB
  0
TABLE
  2
LTYPE
  5
2
330
0
100
AcDbSymbolTable
 70
3
  0
LTYPE
  5
24
330
2
100
AcDbSymbolTableRecord
100
AcDbLinetypeTableRecord
  2
ByBlock
 70
0
  3

 72
65
 73
0
 40
0.0
  0
LTYPE
  5
25
330
2
100
AcDbSymbolTableRecord
100
AcDbLinetypeTableRecord
  2
ByLayer
 70
0
  3

 72
65
 73
0
 40
0.0
  0
LTYPE
  5
26
330
2
100
AcDbSymbolTableRecord
100
AcDbLinetypeTableRecord
  2
Continuous
 70
0
  3

 72
65
 73
0
 40
0.0
  0
ENDTAB
  0
TABLE
  2
LAYER
  5
1
330
0
100
AcDbSymbolTable
 70
8
  0
LAYER
  5
27
330
1
100
AcDbSymbolTableRecord
100
AcDbLayerTableRecord
  2
0
 70
0
 62
7
  6
Continuous
370
-3
390
13
347
21
  0
LAYER
  5
28
330
1
100
AcDbSymbolTableRecord
100
AcDbLayerTableRecord
  2
Defpoints
 70
0
 62
7
  6
Continuous
290
0
370
-3
390
13
347
21
  0
LAYER
  5
31
330
1
100
AcDbSymbolTableRecord
100
AcDbLayerTableRecord
  2
G-ANNO-TTLB
 70
0
 62
7
  6
Continuous
370
-3
390
13
347
21
  0
LAYER
  5
32
330
1
100
AcDbSymbolTableRecord
100
AcDbLayerTableRecord
  2
A-ANNO-TEXT
 70
0
 62
7
  6
Continuous
370
-3
390
13
347
21
  0
LAYER
  5
33
330
1
100
AcDbSymbolTableRecord
100
AcDbLayerTableRecord
  2
A-SITE-FILL
 70
0
 62
7
  6
Continuous
370
-3
390
13
347
21
  0
LAYER
  5
34
330
1
100
AcDbSymbolTableRecord
100
AcDbLayerTableRecord
  2
A-SITE-SLIN
 70
0
 62
7
  6
Continuous
370
-3
390
13
347
21
  0
LAYER
  5
35
330
1
100
AcDbSymbolTableRecord
100
AcDbLayerTableRecord
  2
A-SITE-IDEN
 70
0
 62
7
  6
Continuous
370
-3
390
13
347
21
  0
LAYER
  5
36
330
1
100
AcDbSymbolTableRecord
100
AcDbLayerTableRecord
  2
A-SITE-CUTL
 70
0
 62
7
  6
Continuous
370
-3
390
13
347
21
  0
ENDTAB
  0
TABLE
  2
STYLE
  5
5
330
0
100
AcDbSymbolTable
 70
3
  0
STYLE
  5
29
330
5
100
AcDbSymbolTableRecord
100
AcDbTextStyleTableRecord
  2
Standard
 70
0
 40
0.0
 41
1.0
 50
0.0
 71
0
 42
2.5
  3
txt
  4

  0
STYLE
  5
2F
330
5
100
AcDbSymbolTableRecord
100
AcDbTextStyleTableRecord
  2
KS-REG
 70
0
 40
0.0
 41
1.0
 50
0.0
 71
0
 42
2.5
  3
DejaVuSans.ttf
  4

  0
STYLE
  5
30
330
5
100
AcDbSymbolTableRecord
100
AcDbTextStyleTableRecord
  2
KS-BOLD
 70
0
 40
0.0
 41
1.0
 50
0.0
 71
0
 42
2.5
  3
DejaVuSans-Bold.ttf
  4

  0
ENDTAB
  0
TABLE
  2
VIEW
  5
7
330
0
100
AcDbSymbolTable
 70
0
  0
ENDTAB
  0
TABLE
  2
UCS
  5
6
330
0
100
AcDbSymbolTable
 70
0
  0
ENDTAB
  0
TABLE
  2
APPID
  5
3
330
0
100
AcDbSymbolTable
 70
3
  0
APPID
  5
2A
330
3
100
AcDbSymbolTableRecord
100
AcDbRegAppTableRecord
  2
ACAD
 70
0
  0
APPID
  5
247
330
3
100
AcDbSymbolTableRecord
100
AcDbRegAppTableRecord
  2
HATCHBACKGROUNDCOLOR
 70
0
  0
APPID
  5
248
330
3
100
AcDbSymbolTableRecord
100
AcDbRegAppTableRecord
  2
EZDXF
 70
0
  0
ENDTAB
  0
TABLE
  2
DIMSTYLE
  5
4
330
0
100
AcDbSymbolTable
 70
1
100
AcDbDimStyleTable
  0
DIMSTYLE
105
2B
330
4
100
AcDbSymbolTableRecord
100
AcDbDimStyleTableRecord
  2
Standard
 70
0
 40
1.0
 41
2.5
 42
0.625
 43
3.75
 44
1.25
 45
0.0
 46
0.0
 47
0.0
 48
0.0
 49
2.5
140
2.5
141
2.5
142
0.0
143
0.03937007874
144
1.0
145
0.0
146
1.0
147
0.625
148
0.0
 69
0
 70
0
 71
0
 72
0
 73
0
 74
0
 75
0
 76
0
 77
1
 78
8
 79
3
170
0
171
3
172
1
173
0
174
0
175
0
176
0
177
0
178
0
179
2
271
2
272
2
273
2
274
3
275
0
276
0
277
2
278
44
279
0
280
0
281
0
282
0
283
0
284
8
285
0
286
0
288
0
289
3
290
0
371
-2
372
-2
  0
ENDTAB
  0
TABLE
  2
BLOCK_RECORD
  5
9
330
0
100
AcDbSymbolTable
 70
2
  0
BLOCK_RECORD
  5
17
330
9
100
AcDbSymbolTableRecord
100
AcDbBlockTableRecord
  2
*Model_Space
340
1A
 70
0
280
1
281
0
  0
BLOCK_RECORD
  5
1B
330
9
100
AcDbSymbolTableRecord
100
AcDbBlockTableRecord
  2
*Paper_Space
340
1E
 70
0
280
1
281
0
  0
ENDTAB
  0
ENDSEC
  0
SECTION
  2
BLOCKS
  0
BLOCK
  5
18
330
17
100
AcDbEntity
  8
0
100
AcDbBlockBegin
  2
*Model_Space
 70
0
 10
0.0
 20
0.0
 30
0.0
  3
*Model_Space
  1

  0
ENDBLK
  5
19
330
17
100
AcDbEntity
  8
0
100
AcDbBlockEnd
  0
BLOCK
  5
1C
330
1B
100
AcDbEntity
  8
0
100
AcDbBlockBegin
  2
*Paper_Space
 70
0
 10
0.0
 20
0.0
 30
0.0
  3
*Paper_Space
  1

  0
ENDBLK
  5
1D
330
1B
100
AcDbEntity
  8
0
100
AcDbBlockEnd
  0
ENDSEC
  0
SECTION
  2
ENTITIES
  0
LWPOLYLINE
  5
37
330
17
100
AcDbEntity
  8
G-ANNO-TTLB
100
AcDbPolyline
 90
4
 70
1
 10
0.5
 20
0.5
 10
16.5
 20
0.5
 10
16.5
 20
10.5
 10
0.5
 20
10.5
  0
LWPOLYLINE
  5
38
330
17
100
AcDbEntity
  8
G-ANNO-TTLB
100
AcDbPolyline
 90
4
 70
1
 10
0.5
 20
1.45
 10
16.5
 20
1.45
 10
16.5
 20
1.85
 10
0.5
 20
1.85
  0
TEXT
  5
39
330
17
100
AcDbEntity
  8
G-ANNO-TTLB
100
AcDbText
 10
8.5
 20
1.5699999999999998
 30
0.0
 40
0.16999999999999998
  1
PRELIMINARY — CONCEPTUAL DESIGN — NOT FOR CONSTRUCTION
  7
KS-BOLD
 72
1
 11
8.5
 21
1.5699999999999998
 31
0.0
100
AcDbText
  0
LINE
  5
3A
330
17
100
AcDbEntity
  8
G-ANNO-TTLB
100
AcDbLine
 10
0.5
 20
1.45
 30
0.0
 11
16.5
 21
1.45
 31
0.0
  0
TEXT
  5
3B
330
17
100
AcDbEntity
  8
G-ANNO-TTLB
100
AcDbText
 10
0.58
 20
1.28
 30
0.0
 40
0.06999999999999999
  1
PROJECT
  7
KS-REG
 11
0.58
 21
1.28
 31
0.0
100
AcDbText
  0
TEXT
  5
3C
330
17
100
AcDbEntity
  8
G-ANNO-TTLB
100
AcDbText
 10
0.58
 20
0.9991666666666666
 30
0.0
 40
0.11499999999999999
  1
Hazel Green Regional Athletic Complex
  7
KS-BOLD
 11
0.58
 21
0.9991666666666666
 31
0.0
100
AcDbText
  0
TEXT
  5
3D
330
17
100
AcDbEntity
  8
G-ANNO-TTLB
100
AcDbText
 10
0.58
 20
0.7883333333333333
 30
0.0
 40
0.11499999999999999
  1
Trojan Horse Arena · Hazel Green area, Madison
  7
KS-BOLD
 11
0.58
 21
0.7883333333333333
 31
0.0
100
AcDbText
  0
TEXT
  5
3E
330
17
100
AcDbEntity
  8
G-ANNO-TTLB
100
AcDbText
 10
0.58
 20
0.5775
 30
0.0
 40
0.11499999999999999
  1
County, Alabama (site TBD, D-006)
  7
KS-BOLD
 11
0.58
 21
0.5775
 31
0.0
100
AcDbText
  0
LINE
  5
3F
330
17
100
AcDbEntity
  8
G-ANNO-TTLB
100
AcDbLine
 10
5.2
 20
0.5
 30
0.0
 11
5.2
 21
1.45
 31
0.0
  0
TEXT
  5
40
330
17
100
AcDbEntity
  8
G-ANNO-TTLB
100
AcDbText
 10
5.28
 20
1.28
 30
0.0
 40
0.06999999999999999
  1
PHASE
  7
KS-REG
 11
5.28
 21
1.28
 31
0.0
100
AcDbText
  0
TEXT
  5
41
330
17
100
AcDbEntity
  8
G-ANNO-TTLB
100
AcDbText
 10
5.28
 20
0.9716666666666667
 30
0.0
 40
0.13
  1
PHASE 2
  7
KS-BOLD
 11
5.28
 21
0.9716666666666667
 31
0.0
100
AcDbText
  0
LINE
  5
42
330
17
100
AcDbEntity
  8
G-ANNO-TTLB
100
AcDbLine
 10
6.7
 20
0.5
 30
0.0
 11
6.7
 21
1.45
 31
0.0
  0
TEXT
  5
43
330
17
100
AcDbEntity
  8
G-ANNO-TTLB
100
AcDbText
 10
6.78
 20
1.28
 30
0.0
 40
0.06999999999999999
  1
SHEET TITLE
  7
KS-REG
 11
6.78
 21
1.28
 31
0.0
100
AcDbText
  0
TEXT
  5
44
330
17
100
AcDbEntity
  8
G-ANNO-TTLB
100
AcDbText
 10
6.78
 20
0.9991666666666666
 30
0.0
 40
0.11499999999999999
  1
SIGHT-LINE STUDY
  7
KS-BOLD
 11
6.78
 21
0.9991666666666666
 31
0.0
100
AcDbText
  0
TEXT
  5
45
330
17
100
AcDbEntity
  8
G-ANNO-TTLB
100
AcDbText
 10
6.78
 20
0.7883333333333333
 30
0.0
 40
0.11499999999999999
  1
SCHEMATIC · COLOR
  7
KS-BOLD
 11
6.78
 21
0.7883333333333333
 31
0.0
100
AcDbText
  0
LINE
  5
46
330
17
100
AcDbEntity
  8
G-ANNO-TTLB
100
AcDbLine
 10
9.8
 20
0.5
 30
0.0
 11
9.8
 21
1.45
 31
0.0
  0
TEXT
  5
47
330
17
100
AcDbEntity
  8
G-ANNO-TTLB
100
AcDbText
 10
9.88
 20
1.28
 30
0.0
 40
0.06999999999999999
  1
SCALE
  7
KS-REG
 11
9.88
 21
1.28
 31
0.0
100
AcDbText
  0
TEXT
  5
48
330
17
100
AcDbEntity
  8
G-ANNO-TTLB
100
AcDbText
 10
9.88
 20
0.9716666666666667
 30
0.0
 40
0.13
  1
AS
  7
KS-BOLD
 11
9.88
 21
0.9716666666666667
 31
0.0
100
AcDbText
  0
TEXT
  5
49
330
17
100
AcDbEntity
  8
G-ANNO-TTLB
100
AcDbText
 10
9.88
 20
0.7333333333333334
 30
0.0
 40
0.13
  1
NOTED
  7
KS-BOLD
 11
9.88
 21
0.7333333333333334
 31
0.0
100
AcDbText
  0
LINE
  5
4A
330
17
100
AcDbEntity
  8
G-ANNO-TTLB
100
AcDbLine
 10
10.700000000000001
 20
0.5
 30
0.0
 11
10.700000000000001
 21
1.45
 31
0.0
  0
TEXT
  5
4B
330
17
100
AcDbEntity
  8
G-ANNO-TTLB
100
AcDbText
 10
10.780000000000001
 20
1.28
 30
0.0
 40
0.06999999999999999
  1
DATE
  7
KS-REG
 11
10.780000000000001
 21
1.28
 31
0.0
100
AcDbText
  0
TEXT
  5
4C
330
17
100
AcDbEntity
  8
G-ANNO-TTLB
100
AcDbText
 10
10.780000000000001
 20
0.9716666666666667
 30
0.0
 40
0.13
  1
October
  7
KS-BOLD
 11
10.780000000000001
 21
0.9716666666666667
 31
0.0
100
AcDbText
  0
TEXT
  5
4D
330
17
100
AcDbEntity
  8
G-ANNO-TTLB
100
AcDbText
 10
10.780000000000001
 20
0.7333333333333334
 30
0.0
 40
0.13
  1
2026
  7
KS-BOLD
 11
10.780000000000001
 21
0.7333333333333334
 31
0.0
100
AcDbText
  0
LINE
  5
4E
330
17
100
AcDbEntity
  8
G-ANNO-TTLB
100
AcDbLine
 10
12.15
 20
0.5
 30
0.0
 11
12.15
 21
1.45
 31
0.0
  0
TEXT
  5
4F
330
17
100
AcDbEntity
  8
G-ANNO-TTLB
100
AcDbText
 10
12.23
 20
1.28
 30
0.0
 40
0.06999999999999999
  1
REV
  7
KS-REG
 11
12.23
 21
1.28
 31
0.0
100
AcDbText
  0
TEXT
  5
50
330
17
100
AcDbEntity
  8
G-ANNO-TTLB
100
AcDbText
 10
12.23
 20
0.9716666666666667
 30
0.0
 40
0.13
  1
C
  7
KS-BOLD
 11
12.23
 21
0.9716666666666667
 31
0.0
100
AcDbText
  0
LINE
  5
51
330
17
100
AcDbEntity
  8
G-ANNO-TTLB
100
AcDbLine
 10
12.9
 20
0.5
 30
0.0
 11
12.9
 21
1.45
 31
0.0
  0
TEXT
  5
52
330
17
100
AcDbEntity
  8
G-ANNO-TTLB
100
AcDbText
 10
12.98
 20
1.28
 30
0.0
 40
0.06999999999999999
  1
DRAWN BY
  7
KS-REG
 11
12.98
 21
1.28
 31
0.0
100
AcDbText
  0
TEXT
  5
53
330
17
100
AcDbEntity
  8
G-ANNO-TTLB
100
AcDbText
 10
12.98
 20
1.0358333333333332
 30
0.0
 40
0.095
  1
Drawn by KEYSTONE (AI) for
  7
KS-REG
 11
12.98
 21
1.0358333333333332
 31
0.0
100
AcDbText
  0
TEXT
  5
54
330
17
100
AcDbEntity
  8
G-ANNO-TTLB
100
AcDbText
 10
12.98
 20
0.8616666666666665
 30
0.0
 40
0.095
  1
Shane Brazelton
  7
KS-REG
 11
12.98
 21
0.8616666666666665
 31
0.0
100
AcDbText
  0
LINE
  5
55
330
17
100
AcDbEntity
  8
G-ANNO-TTLB
100
AcDbLine
 10
15.0
 20
0.5
 30
0.0
 11
15.0
 21
1.45
 31
0.0
  0
TEXT
  5
56
330
17
100
AcDbEntity
  8
G-ANNO-TTLB
100
AcDbText
 10
15.08
 20
1.28
 30
0.0
 40
0.06999999999999999
  1
SHEET
  7
KS-REG
 11
15.08
 21
1.28
 31
0.0
100
AcDbText
  0
TEXT
  5
57
330
17
100
AcDbEntity
  8
G-ANNO-TTLB
100
AcDbText
 10
15.75
 20
0.77
 30
0.0
 40
0.18
  1
P2-A-302
  7
KS-BOLD
 72
1
 11
15.75
 21
0.77
 31
0.0
100
AcDbText
  0
HATCH
  5
58
330
17
100
AcDbEntity
  8
A-SITE-FILL
 62
7
420
14268286
100
AcDbHatch
 10
0.0
 20
0.0
 30
0.0
210
0.0
220
0.0
230
1.0
  2
SOLID
 70
1
 71
0
 91
1
 92
3
 72
0
 73
1
 93
4
 10
0.95
 20
8.203125146483917
 10
3.8562409179971313
 20
8.203125146483917
 10
3.8562409179971313
 20
8.25
 10
0.95
 20
8.25
 97
0
 75
0
 76
1
 98
0
  0
LWPOLYLINE
  5
59
330
17
100
AcDbEntity
  8
A-SITE-FILL
100
AcDbPolyline
 90
4
 70
1
 10
0.95
 20
8.203125146483917
 10
3.8562409179971313
 20
8.203125146483917
 10
3.8562409179971313
 20
8.25
 10
0.95
 20
8.25
  0
HATCH
  5
5A
330
17
100
AcDbEntity
  8
A-SITE-FILL
 62
7
420
13214247
100
AcDbHatch
 10
0.0
 20
0.0
 30
0.0
210
0.0
220
0.0
230
1.0
  2
SOLID
 70
1
 71
0
 91
1
 92
3
 72
0
 73
1
 93
4
 10
0.95
 20
8.25
 10
1.5124982421929931
 20
8.25
 10
1.5124982421929931
 20
8.282812397461258
 10
0.95
 20
8.282812397461258
 97
0
 75
0
 76
1
 98
0
  0
LWPOLYLINE
  5
5B
330
17
100
AcDbEntity
  8
A-SITE-FILL
100
AcDbPolyline
 90
4
 70
1
 10
0.95
 20
8.25
 10
1.5124982421929931
 20
8.25
 10
1.5124982421929931
 20
8.282812397461258
 10
0.95
 20
8.282812397461258
  0
HATCH
  5
5C
330
17
100
AcDbEntity
  8
A-SITE-SLIN
 62
7
420
13369344
100
AcDbHatch
 10
0.0
 20
0.0
 30
0.0
210
0.0
220
0.0
230
1.0
  2
SOLID
 70
1
 71
0
 91
1
 92
3
 72
0
 73
1
 93
3
 10
1.4774982421929932
 20
8.18
 10
1.547498242192993
 20
8.18
 10
1.5124982421929931
 20
8.25
 97
0
 75
0
 76
1
 98
0
  0
TEXT
  5
5D
330
17
100
AcDbEntity
  8
A-SITE-IDEN
100
AcDbText
 10
1.492498242192993
 20
8.08
 30
0.0
 40
0.041999999999999996
  1
FOCAL POINT
  7
KS-BOLD
 72
2
 11
1.492498242192993
 21
8.08
 31
0.0
100
AcDbText
  0
TEXT
  5
5E
330
17
100
AcDbEntity
  8
A-SITE-IDEN
100
AcDbText
 10
1.492498242192993
 20
7.98
 30
0.0
 40
0.039999999999999994
  1
near mat edge
  7
KS-REG
 72
2
 11
1.492498242192993
 21
7.98
 31
0.0
100
AcDbText
  0
LINE
  5
5F
330
17
100
AcDbEntity
  8
A-SITE-IDEN
100
AcDbLine
 10
1.5124982421929931
 20
8.100000468748535
 30
0.0
 11
3.8562409179971313
 21
8.100000468748535
 31
0.0
  0
LINE
  5
60
330
17
100
AcDbEntity
  8
A-SITE-IDEN
100
AcDbLine
 10
1.5124982421929931
 20
8.070000468748535
 30
0.0
 11
1.5124982421929931
 21
8.130000468748534
 31
0.0
  0
LINE
  5
61
330
17
100
AcDbEntity
  8
A-SITE-IDEN
100
AcDbLine
 10
3.8562409179971313
 20
8.070000468748535
 30
0.0
 11
3.8562409179971313
 21
8.130000468748534
 31
0.0
  0
TEXT
  5
62
330
17
100
AcDbEntity
  8
A-SITE-IDEN
100
AcDbText
 10
2.684369580095062
 20
7.980000468748535
 30
0.0
 40
0.04599999999999999
  1
25'
  7
KS-BOLD
 72
1
 11
2.684369580095062
 21
7.980000468748535
 31
0.0
100
AcDbText
  0
HATCH
  5
63
330
17
100
AcDbEntity
  8
A-SITE-CUTL
 62
7
420
14191242
100
AcDbHatch
 10
0.0
 20
0.0
 30
0.0
210
0.0
220
0.0
230
1.0
  2
SOLID
 70
1
 71
0
 91
1
 92
3
 72
0
 73
1
 93
14
 10
3.8562409179971313
 20
8.25
 10
3.8562409179971313
 20
8.264062456054825
 10
4.043740332061462
 20
8.264062456054825
 10
4.043740332061462
 20
8.354882484742236
 10
4.231239746125794
 20
8.354882484742236
 10
4.231239746125794
 20
8.445702513429646
 10
4.418739160190125
 20
8.445702513429646
 10
4.418739160190125
 20
8.536522542117055
 10
4.606238574254455
 20
8.536522542117055
 10
4.606238574254455
 20
8.627342570804466
 10
4.793737988318786
 20
8.627342570804466
 10
4.793737988318786
 20
8.718162599491876
 10
4.981237402383117
 20
8.718162599491876
 10
4.981237402383117
 20
8.25
 97
0
 75
0
 76
1
 98
0
  0
LWPOLYLINE
  5
64
330
17
100
AcDbEntity
  8
A-SITE-CUTL
100
AcDbPolyline
 90
14
 70
1
 10
3.8562409179971313
 20
8.25
 10
3.8562409179971313
 20
8.264062456054825
 10
4.043740332061462
 20
8.264062456054825
 10
4.043740332061462
 20
8.354882484742236
 10
4.231239746125794
 20
8.354882484742236
 10
4.231239746125794
 20
8.445702513429646
 10
4.418739160190125
 20
8.445702513429646
 10
4.418739160190125
 20
8.536522542117055
 10
4.606238574254455
 20
8.536522542117055
 10
4.606238574254455
 20
8.627342570804466
 10
4.793737988318786
 20
8.627342570804466
 10
4.793737988318786
 20
8.718162599491876
 10
4.981237402383117
 20
8.718162599491876
 10
4.981237402383117
 20
8.25
  0
HATCH
  5
65
330
17
100
AcDbEntity
  8
A-SITE-CUTL
 62
7
420
10990531
100
AcDbHatch
 10
0.0
 20
0.0
 30
0.0
210
0.0
220
0.0
230
1.0
  2
SOLID
 70
1
 71
0
 91
1
 92
3
 72
0
 73
1
 93
13
 10
4.981237402383117
 20
9.09374736328949
 10
5.262486523479614
 20
9.09374736328949
 10
5.262486523479614
 20
9.25780935059578
 10
5.543735644576111
 20
9.25780935059578
 10
5.543735644576111
 20
9.421871337902068
 10
5.824984765672608
 20
9.421871337902068
 10
5.824984765672608
 20
9.585933325208359
 10
6.106233886769104
 20
9.585933325208359
 10
6.106233886769104
 20
9.749995312514649
 10
6.3874830078656
 20
9.749995312514649
 10
6.3874830078656
 20
9.914057299820938
 10
6.3874830078656
 20
9.820307592788772
 10
4.981237402383117
 20
8.999997656257325
 97
0
 75
0
 76
1
 98
0
  0
LWPOLYLINE
  5
66
330
17
100
AcDbEntity
  8
A-SITE-CUTL
100
AcDbPolyline
 90
13
 70
1
 10
4.981237402383117
 20
9.09374736328949
 10
5.262486523479614
 20
9.09374736328949
 10
5.262486523479614
 20
9.25780935059578
 10
5.543735644576111
 20
9.25780935059578
 10
5.543735644576111
 20
9.421871337902068
 10
5.824984765672608
 20
9.421871337902068
 10
5.824984765672608
 20
9.585933325208359
 10
6.106233886769104
 20
9.585933325208359
 10
6.106233886769104
 20
9.749995312514649
 10
6.3874830078656
 20
9.749995312514649
 10
6.3874830078656
 20
9.914057299820938
 10
6.3874830078656
 20
9.820307592788772
 10
4.981237402383117
 20
8.999997656257325
  0
LINE
  5
67
330
17
100
AcDbEntity
  8
A-SITE-CUTL
100
AcDbLine
 10
4.981237402383117
 20
9.09374736328949
 30
0.0
 11
4.981237402383117
 21
9.296871728525849
 31
0.0
  0
HATCH
  5
68
330
17
100
AcDbEntity
  8
A-SITE-CUTL
 62
7
420
3947580
100
AcDbHatch
 10
0.0
 20
0.0
 30
0.0
210
0.0
220
0.0
230
1.0
  2
SOLID
 70
1
 71
0
 91
1
 92
3
 72
0
 73
1
 93
4
 10
4.981237402383117
 20
8.25
 10
5.05623716800885
 20
8.25
 10
5.05623716800885
 20
8.999997656257325
 10
4.981237402383117
 20
8.999997656257325
 97
0
 75
0
 76
1
 98
0
  0
HATCH
  5
69
330
17
100
AcDbEntity
  8
A-SITE-CUTL
 62
7
420
3947580
100
AcDbHatch
 10
0.0
 20
0.0
 30
0.0
210
0.0
220
0.0
230
1.0
  2
SOLID
 70
1
 71
0
 91
1
 92
3
 72
0
 73
1
 93
4
 10
6.3874830078656
 20
9.820307592788772
 10
7.043730957090759
 20
9.820307592788772
 10
7.043730957090759
 20
9.914057299820938
 10
6.3874830078656
 20
9.914057299820938
 97
0
 75
0
 76
1
 98
0
  0
HATCH
  5
6A
330
17
100
AcDbEntity
  8
A-SITE-FILL
 62
7
420
13134138
100
AcDbHatch
 10
0.0
 20
0.0
 30
0.0
210
0.0
220
0.0
230
1.0
  2
SOLID
 70
1
 71
0
 91
1
 92
3
 72
0
 73
1
 93
4
 10
6.3874830078656
 20
9.914057299820938
 10
7.043730957090759
 20
9.914057299820938
 10
7.043730957090759
 20
9.946869697282196
 10
6.3874830078656
 20
9.946869697282196
 97
0
 75
0
 76
1
 98
0
  0
LINE
  5
6B
330
17
100
AcDbEntity
  8
A-SITE-SLIN
100
AcDbLine
 10
3.997603665214924
 20
8.619093334772305
 30
0.0
 11
1.5124982421929931
 21
8.25
 31
0.0
  0
HATCH
  5
6C
330
17
100
AcDbEntity
  8
A-SITE-SLIN
 62
7
420
2829099
100
AcDbHatch
 10
0.0
 20
0.0
 30
0.0
210
0.0
220
0.0
230
1.0
  2
SOLID
 70
1
 71
0
 91
1
 92
3
 72
0
 73
1
 93
4
 10
3.979603665214924
 20
8.601093334772305
 10
4.015603665214924
 20
8.601093334772305
 10
4.015603665214924
 20
8.637093334772306
 10
3.979603665214924
 20
8.637093334772306
 97
0
 75
0
 76
1
 98
0
  0
TEXT
  5
6D
330
17
100
AcDbEntity
  8
A-SITE-IDEN
100
AcDbText
 10
3.997603665214924
 20
8.664093334772305
 30
0.0
 40
0.036
  1
L1
  7
KS-REG
 72
1
 11
3.997603665214924
 21
8.664093334772305
 31
0.0
100
AcDbText
  0
LINE
  5
6E
330
17
100
AcDbEntity
  8
A-SITE-SLIN
100
AcDbLine
 10
4.185103079279255
 20
8.709913363459716
 30
0.0
 11
1.5124982421929931
 21
8.25
 31
0.0
  0
HATCH
  5
6F
330
17
100
AcDbEntity
  8
A-SITE-SLIN
 62
7
420
2829099
100
AcDbHatch
 10
0.0
 20
0.0
 30
0.0
210
0.0
220
0.0
230
1.0
  2
SOLID
 70
1
 71
0
 91
1
 92
3
 72
0
 73
1
 93
4
 10
4.167103079279255
 20
8.691913363459715
 10
4.203103079279255
 20
8.691913363459715
 10
4.203103079279255
 20
8.727913363459717
 10
4.167103079279255
 20
8.727913363459717
 97
0
 75
0
 76
1
 98
0
  0
TEXT
  5
70
330
17
100
AcDbEntity
  8
A-SITE-IDEN
100
AcDbText
 10
4.185103079279255
 20
8.754913363459716
 30
0.0
 40
0.036
  1
L2
  7
KS-REG
 72
1
 11
4.185103079279255
 21
8.754913363459716
 31
0.0
100
AcDbText
  0
LINE
  5
71
330
17
100
AcDbEntity
  8
A-SITE-SLIN
100
AcDbLine
 10
4.372602493343586
 20
8.800733392147126
 30
0.0
 11
1.5124982421929931
 21
8.25
 31
0.0
  0
HATCH
  5
72
330
17
100
AcDbEntity
  8
A-SITE-SLIN
 62
7
420
2829099
100
AcDbHatch
 10
0.0
 20
0.0
 30
0.0
210
0.0
220
0.0
230
1.0
  2
SOLID
 70
1
 71
0
 91
1
 92
3
 72
0
 73
1
 93
4
 10
4.354602493343586
 20
8.782733392147126
 10
4.390602493343586
 20
8.782733392147126
 10
4.390602493343586
 20
8.818733392147127
 10
4.354602493343586
 20
8.818733392147127
 97
0
 75
0
 76
1
 98
0
  0
TEXT
  5
73
330
17
100
AcDbEntity
  8
A-SITE-IDEN
100
AcDbText
 10
4.372602493343586
 20
8.845733392147126
 30
0.0
 40
0.036
  1
L3
  7
KS-REG
 72
1
 11
4.372602493343586
 21
8.845733392147126
 31
0.0
100
AcDbText
  0
LINE
  5
74
330
17
100
AcDbEntity
  8
A-SITE-SLIN
100
AcDbLine
 10
4.560101907407917
 20
8.891553420834537
 30
0.0
 11
1.5124982421929931
 21
8.25
 31
0.0
  0
HATCH
  5
75
330
17
100
AcDbEntity
  8
A-SITE-SLIN
 62
7
420
2829099
100
AcDbHatch
 10
0.0
 20
0.0
 30
0.0
210
0.0
220
0.0
230
1.0
  2
SOLID
 70
1
 71
0
 91
1
 92
3
 72
0
 73
1
 93
4
 10
4.542101907407917
 20
8.873553420834536
 10
4.578101907407917
 20
8.873553420834536
 10
4.578101907407917
 20
8.909553420834538
 10
4.542101907407917
 20
8.909553420834538
 97
0
 75
0
 76
1
 98
0
  0
TEXT
  5
76
330
17
100
AcDbEntity
  8
A-SITE-IDEN
100
AcDbText
 10
4.560101907407917
 20
8.936553420834537
 30
0.0
 40
0.036
  1
L4
  7
KS-REG
 72
1
 11
4.560101907407917
 21
8.936553420834537
 31
0.0
100
AcDbText
  0
LINE
  5
77
330
17
100
AcDbEntity
  8
A-SITE-SLIN
100
AcDbLine
 10
4.747601321472248
 20
8.982373449521946
 30
0.0
 11
1.5124982421929931
 21
8.25
 31
0.0
  0
HATCH
  5
78
330
17
100
AcDbEntity
  8
A-SITE-SLIN
 62
7
420
2829099
100
AcDbHatch
 10
0.0
 20
0.0
 30
0.0
210
0.0
220
0.0
230
1.0
  2
SOLID
 70
1
 71
0
 91
1
 92
3
 72
0
 73
1
 93
4
 10
4.7296013214722485
 20
8.964373449521945
 10
4.765601321472248
 20
8.964373449521945
 10
4.765601321472248
 20
9.000373449521947
 10
4.7296013214722485
 20
9.000373449521947
 97
0
 75
0
 76
1
 98
0
  0
TEXT
  5
79
330
17
100
AcDbEntity
  8
A-SITE-IDEN
100
AcDbText
 10
4.747601321472248
 20
9.027373449521946
 30
0.0
 40
0.036
  1
L5
  7
KS-REG
 72
1
 11
4.747601321472248
 21
9.027373449521946
 31
0.0
100
AcDbText
  0
LINE
  5
7A
330
17
100
AcDbEntity
  8
A-SITE-SLIN
100
AcDbLine
 10
4.9351007355365795
 20
9.073193478209356
 30
0.0
 11
1.5124982421929931
 21
8.25
 31
0.0
  0
HATCH
  5
7B
330
17
100
AcDbEntity
  8
A-SITE-SLIN
 62
7
420
2829099
100
AcDbHatch
 10
0.0
 20
0.0
 30
0.0
210
0.0
220
0.0
230
1.0
  2
SOLID
 70
1
 71
0
 91
1
 92
3
 72
0
 73
1
 93
4
 10
4.91710073553658
 20
9.055193478209356
 10
4.953100735536579
 20
9.055193478209356
 10
4.953100735536579
 20
9.091193478209357
 10
4.91710073553658
 20
9.091193478209357
 97
0
 75
0
 76
1
 98
0
  0
TEXT
  5
7C
330
17
100
AcDbEntity
  8
A-SITE-IDEN
100
AcDbText
 10
4.9351007355365795
 20
9.118193478209356
 30
0.0
 40
0.036
  1
L6
  7
KS-REG
 72
1
 11
4.9351007355365795
 21
9.118193478209356
 31
0.0
100
AcDbText
  0
LINE
  5
7D
330
17
100
AcDbEntity
  8
A-SITE-SLIN
100
AcDbLine
 10
5.216349856633076
 20
9.462840698061795
 30
0.0
 11
1.5124982421929931
 21
8.25
 31
0.0
  0
HATCH
  5
7E
330
17
100
AcDbEntity
  8
A-SITE-SLIN
 62
7
420
2829099
100
AcDbHatch
 10
0.0
 20
0.0
 30
0.0
210
0.0
220
0.0
230
1.0
  2
SOLID
 70
1
 71
0
 91
1
 92
3
 72
0
 73
1
 93
4
 10
5.198349856633076
 20
9.444840698061794
 10
5.2343498566330755
 20
9.444840698061794
 10
5.2343498566330755
 20
9.480840698061796
 10
5.198349856633076
 20
9.480840698061796
 97
0
 75
0
 76
1
 98
0
  0
TEXT
  5
7F
330
17
100
AcDbEntity
  8
A-SITE-IDEN
100
AcDbText
 10
5.216349856633076
 20
9.507840698061795
 30
0.0
 40
0.036
  1
U1
  7
KS-REG
 72
1
 11
5.216349856633076
 21
9.507840698061795
 31
0.0
100
AcDbText
  0
LINE
  5
80
330
17
100
AcDbEntity
  8
A-SITE-SLIN
100
AcDbLine
 10
5.497598977729573
 20
9.626902685368085
 30
0.0
 11
1.5124982421929931
 21
8.25
 31
0.0
  0
HATCH
  5
81
330
17
100
AcDbEntity
  8
A-SITE-SLIN
 62
7
420
2829099
100
AcDbHatch
 10
0.0
 20
0.0
 30
0.0
210
0.0
220
0.0
230
1.0
  2
SOLID
 70
1
 71
0
 91
1
 92
3
 72
0
 73
1
 93
4
 10
5.479598977729573
 20
9.608902685368085
 10
5.515598977729573
 20
9.608902685368085
 10
5.515598977729573
 20
9.644902685368086
 10
5.479598977729573
 20
9.644902685368086
 97
0
 75
0
 76
1
 98
0
  0
TEXT
  5
82
330
17
100
AcDbEntity
  8
A-SITE-IDEN
100
AcDbText
 10
5.497598977729573
 20
9.671902685368085
 30
0.0
 40
0.036
  1
U2
  7
KS-REG
 72
1
 11
5.497598977729573
 21
9.671902685368085
 31
0.0
100
AcDbText
  0
LINE
  5
83
330
17
100
AcDbEntity
  8
A-SITE-SLIN
100
AcDbLine
 10
5.778848098826069
 20
9.790964672674374
 30
0.0
 11
1.5124982421929931
 21
8.25
 31
0.0
  0
HATCH
  5
84
330
17
100
AcDbEntity
  8
A-SITE-SLIN
 62
7
420
2829099
100
AcDbHatch
 10
0.0
 20
0.0
 30
0.0
210
0.0
220
0.0
230
1.0
  2
SOLID
 70
1
 71
0
 91
1
 92
3
 72
0
 73
1
 93
4
 10
5.760848098826069
 20
9.772964672674373
 10
5.796848098826069
 20
9.772964672674373
 10
5.796848098826069
 20
9.808964672674374
 10
5.760848098826069
 20
9.808964672674374
 97
0
 75
0
 76
1
 98
0
  0
TEXT
  5
85
330
17
100
AcDbEntity
  8
A-SITE-IDEN
100
AcDbText
 10
5.778848098826069
 20
9.835964672674374
 30
0.0
 40
0.036
  1
U3
  7
KS-REG
 72
1
 11
5.778848098826069
 21
9.835964672674374
 31
0.0
100
AcDbText
  0
LINE
  5
86
330
17
100
AcDbEntity
  8
A-SITE-SLIN
100
AcDbLine
 10
6.060097219922565
 20
9.955026659980664
 30
0.0
 11
1.5124982421929931
 21
8.25
 31
0.0
  0
HATCH
  5
87
330
17
100
AcDbEntity
  8
A-SITE-SLIN
 62
7
420
2829099
100
AcDbHatch
 10
0.0
 20
0.0
 30
0.0
210
0.0
220
0.0
230
1.0
  2
SOLID
 70
1
 71
0
 91
1
 92
3
 72
0
 73
1
 93
4
 10
6.0420972199225655
 20
9.937026659980663
 10
6.078097219922565
 20
9.937026659980663
 10
6.078097219922565
 20
9.973026659980665
 10
6.0420972199225655
 20
9.973026659980665
 97
0
 75
0
 76
1
 98
0
  0
TEXT
  5
88
330
17
100
AcDbEntity
  8
A-SITE-IDEN
100
AcDbText
 10
6.060097219922565
 20
10.000026659980664
 30
0.0
 40
0.036
  1
U4
  7
KS-REG
 72
1
 11
6.060097219922565
 21
10.000026659980664
 31
0.0
100
AcDbText
  0
LINE
  5
89
330
17
100
AcDbEntity
  8
A-SITE-SLIN
100
AcDbLine
 10
6.3413463410190625
 20
10.119088647286954
 30
0.0
 11
1.5124982421929931
 21
8.25
 31
0.0
  0
HATCH
  5
8A
330
17
100
AcDbEntity
  8
A-SITE-SLIN
 62
7
420
2829099
100
AcDbHatch
 10
0.0
 20
0.0
 30
0.0
210
0.0
220
0.0
230
1.0
  2
SOLID
 70
1
 71
0
 91
1
 92
3
 72
0
 73
1
 93
4
 10
6.323346341019063
 20
10.101088647286954
 10
6.359346341019062
 20
10.101088647286954
 10
6.359346341019062
 20
10.137088647286955
 10
6.323346341019063
 20
10.137088647286955
 97
0
 75
0
 76
1
 98
0
  0
TEXT
  5
8B
330
17
100
AcDbEntity
  8
A-SITE-IDEN
100
AcDbText
 10
6.3413463410190625
 20
10.164088647286954
 30
0.0
 40
0.036
  1
U5
  7
KS-REG
 72
1
 11
6.3413463410190625
 21
10.164088647286954
 31
0.0
100
AcDbText
  0
LINE
  5
8C
330
17
100
AcDbEntity
  8
A-SITE-SLIN
100
AcDbLine
 10
6.481232714897766
 20
10.40618174618401
 30
0.0
 11
1.5124982421929931
 21
8.25
 31
0.0
  0
HATCH
  5
8D
330
17
100
AcDbEntity
  8
A-SITE-SLIN
 62
7
420
2829099
100
AcDbHatch
 10
0.0
 20
0.0
 30
0.0
210
0.0
220
0.0
230
1.0
  2
SOLID
 70
1
 71
0
 91
1
 92
3
 72
0
 73
1
 93
4
 10
6.463232714897766
 20
10.38818174618401
 10
6.499232714897766
 20
10.38818174618401
 10
6.499232714897766
 20
10.424181746184011
 10
6.463232714897766
 20
10.424181746184011
 97
0
 75
0
 76
1
 98
0
  0
TEXT
  5
8E
330
17
100
AcDbEntity
  8
A-SITE-IDEN
100
AcDbText
 10
6.481232714897766
 20
10.45118174618401
 30
0.0
 40
0.036
  1
RAIL
  7
KS-REG
 72
1
 11
6.481232714897766
 21
10.45118174618401
 31
0.0
100
AcDbText
  0
TEXT
  5
8F
330
17
100
AcDbEntity
  8
A-SITE-IDEN
100
AcDbText
 10
7.099980781310058
 20
9.894057299820938
 30
0.0
 40
0.041999999999999996
  1
LOOP / L2 17.75'
  7
KS-REG
 11
7.099980781310058
 21
9.894057299820938
 31
0.0
100
AcDbText
  0
TEXT
  5
90
330
17
100
AcDbEntity
  8
A-SITE-IDEN
100
AcDbText
 10
5.074987109415283
 20
8.887498007818726
 30
0.0
 40
0.041999999999999996
  1
front row 9.00'
  7
KS-REG
 11
5.074987109415283
 21
8.887498007818726
 31
0.0
100
AcDbText
  0
TEXT
  5
91
330
17
100
AcDbEntity
  8
A-SITE-IDEN
100
AcDbText
 10
0.95
 20
7.83
 30
0.0
 40
0.06799999999999999
  1
1  AS DRAWN (REV F) — NORTH / SOUTH SIDE (seated eyes)
  7
KS-BOLD
 11
0.95
 21
7.83
 31
0.0
100
AcDbText
  0
LINE
  5
92
330
17
100
AcDbEntity
  8
A-ANNO-TEXT
100
AcDbLine
 10
0.95
 20
7.79
 30
0.0
 11
4.115408854166667
 21
7.79
 31
0.0
  0
TEXT
  5
93
330
17
100
AcDbEntity
  8
A-SITE-IDEN
100
AcDbText
 10
0.95
 20
7.67
 30
0.0
 40
0.05
  1
3/32" = 1'-0" · focal 25' (10' clear + 15' table zone) · telescopic 11⅝" · upper 21"/row, L2 17'-9", front 9.0'
  7
KS-REG
 11
0.95
 21
7.67
 31
0.0
100
AcDbText
  0
HATCH
  5
94
330
17
100
AcDbEntity
  8
A-SITE-FILL
 62
7
420
14268286
100
AcDbHatch
 10
0.0
 20
0.0
 30
0.0
210
0.0
220
0.0
230
1.0
  2
SOLID
 70
1
 71
0
 91
1
 92
3
 72
0
 73
1
 93
4
 10
0.95
 20
5.353125146483918
 10
3.0124935547076417
 20
5.353125146483918
 10
3.0124935547076417
 20
5.4
 10
0.95
 20
5.4
 97
0
 75
0
 76
1
 98
0
  0
LWPOLYLINE
  5
95
330
17
100
AcDbEntity
  8
A-SITE-FILL
100
AcDbPolyline
 90
4
 70
1
 10
0.95
 20
5.353125146483918
 10
3.0124935547076417
 20
5.353125146483918
 10
3.0124935547076417
 20
5.4
 10
0.95
 20
5.4
  0
HATCH
  5
96
330
17
100
AcDbEntity
  8
A-SITE-FILL
 62
7
420
13214247
100
AcDbHatch
 10
0.0
 20
0.0
 30
0.0
210
0.0
220
0.0
230
1.0
  2
SOLID
 70
1
 71
0
 91
1
 92
3
 72
0
 73
1
 93
4
 10
0.95
 20
5.4
 10
1.5124982421929931
 20
5.4
 10
1.5124982421929931
 20
5.432812397461258
 10
0.95
 20
5.432812397461258
 97
0
 75
0
 76
1
 98
0
  0
LWPOLYLINE
  5
97
330
17
100
AcDbEntity
  8
A-SITE-FILL
100
AcDbPolyline
 90
4
 70
1
 10
0.95
 20
5.4
 10
1.5124982421929931
 20
5.4
 10
1.5124982421929931
 20
5.432812397461258
 10
0.95
 20
5.432812397461258
  0
HATCH
  5
98
330
17
100
AcDbEntity
  8
A-SITE-SLIN
 62
7
420
13369344
100
AcDbHatch
 10
0.0
 20
0.0
 30
0.0
210
0.0
220
0.0
230
1.0
  2
SOLID
 70
1
 71
0
 91
1
 92
3
 72
0
 73
1
 93
3
 10
1.4774982421929932
 20
5.33
 10
1.547498242192993
 20
5.33
 10
1.5124982421929931
 20
5.4
 97
0
 75
0
 76
1
 98
0
  0
TEXT
  5
99
330
17
100
AcDbEntity
  8
A-SITE-IDEN
100
AcDbText
 10
1.492498242192993
 20
5.23
 30
0.0
 40
0.041999999999999996
  1
FOCAL POINT
  7
KS-BOLD
 72
2
 11
1.492498242192993
 21
5.23
 31
0.0
100
AcDbText
  0
TEXT
  5
9A
330
17
100
AcDbEntity
  8
A-SITE-IDEN
100
AcDbText
 10
1.492498242192993
 20
5.130000000000001
 30
0.0
 40
0.039999999999999994
  1
near mat edge
  7
KS-REG
 72
2
 11
1.492498242192993
 21
5.130000000000001
 31
0.0
100
AcDbText
  0
LINE
  5
9B
330
17
100
AcDbEntity
  8
A-SITE-IDEN
100
AcDbLine
 10
1.5124982421929931
 20
5.250000468748535
 30
0.0
 11
3.0124935547076417
 21
5.250000468748535
 31
0.0
  0
LINE
  5
9C
330
17
100
AcDbEntity
  8
A-SITE-IDEN
100
AcDbLine
 10
1.5124982421929931
 20
5.220000468748535
 30
0.0
 11
1.5124982421929931
 21
5.280000468748535
 31
0.0
  0
LINE
  5
9D
330
17
100
AcDbEntity
  8
A-SITE-IDEN
100
AcDbLine
 10
3.0124935547076417
 20
5.220000468748535
 30
0.0
 11
3.0124935547076417
 21
5.280000468748535
 31
0.0
  0
TEXT
  5
9E
330
17
100
AcDbEntity
  8
A-SITE-IDEN
100
AcDbText
 10
2.262495898450317
 20
5.130000468748535
 30
0.0
 40
0.04599999999999999
  1
16'
  7
KS-BOLD
 72
1
 11
2.262495898450317
 21
5.130000468748535
 31
0.0
100
AcDbText
  0
HATCH
  5
9F
330
17
100
AcDbEntity
  8
A-SITE-CUTL
 62
7
420
14191242
100
AcDbHatch
 10
0.0
 20
0.0
 30
0.0
210
0.0
220
0.0
230
1.0
  2
SOLID
 70
1
 71
0
 91
1
 92
3
 72
0
 73
1
 93
14
 10
3.0124935547076417
 20
5.4
 10
3.0124935547076417
 20
5.414062456054825
 10
3.199992968771973
 20
5.414062456054825
 10
3.199992968771973
 20
5.504882484742236
 10
3.387492382836304
 20
5.504882484742236
 10
3.387492382836304
 20
5.595702513429646
 10
3.574991796900634
 20
5.595702513429646
 10
3.574991796900634
 20
5.686522542117056
 10
3.7624912109649653
 20
5.686522542117056
 10
3.7624912109649653
 20
5.777342570804467
 10
3.9499906250292964
 20
5.777342570804467
 10
3.9499906250292964
 20
5.868162599491877
 10
4.137490039093628
 20
5.868162599491877
 10
4.137490039093628
 20
5.4
 97
0
 75
0
 76
1
 98
0
  0
LWPOLYLINE
  5
A0
330
17
100
AcDbEntity
  8
A-SITE-CUTL
100
AcDbPolyline
 90
14
 70
1
 10
3.0124935547076417
 20
5.4
 10
3.0124935547076417
 20
5.414062456054825
 10
3.199992968771973
 20
5.414062456054825
 10
3.199992968771973
 20
5.504882484742236
 10
3.387492382836304
 20
5.504882484742236
 10
3.387492382836304
 20
5.595702513429646
 10
3.574991796900634
 20
5.595702513429646
 10
3.574991796900634
 20
5.686522542117056
 10
3.7624912109649653
 20
5.686522542117056
 10
3.7624912109649653
 20
5.777342570804467
 10
3.9499906250292964
 20
5.777342570804467
 10
3.9499906250292964
 20
5.868162599491877
 10
4.137490039093628
 20
5.868162599491877
 10
4.137490039093628
 20
5.4
  0
HATCH
  5
A1
330
17
100
AcDbEntity
  8
A-SITE-CUTL
 62
7
420
10990531
100
AcDbHatch
 10
0.0
 20
0.0
 30
0.0
210
0.0
220
0.0
230
1.0
  2
SOLID
 70
1
 71
0
 91
1
 92
3
 72
0
 73
1
 93
13
 10
4.137490039093628
 20
6.24374736328949
 10
4.418739160190125
 20
6.24374736328949
 10
4.418739160190125
 20
6.407809350595779
 10
4.699988281286621
 20
6.407809350595779
 10
4.699988281286621
 20
6.57187133790207
 10
4.981237402383117
 20
6.57187133790207
 10
4.981237402383117
 20
6.735933325208359
 10
5.262486523479614
 20
6.735933325208359
 10
5.262486523479614
 20
6.8999953125146485
 10
5.543735644576111
 20
6.8999953125146485
 10
5.543735644576111
 20
7.064057299820938
 10
5.543735644576111
 20
6.970307592788773
 10
4.137490039093628
 20
6.149997656257325
 97
0
 75
0
 76
1
 98
0
  0
LWPOLYLINE
  5
A2
330
17
100
AcDbEntity
  8
A-SITE-CUTL
100
AcDbPolyline
 90
13
 70
1
 10
4.137490039093628
 20
6.24374736328949
 10
4.418739160190125
 20
6.24374736328949
 10
4.418739160190125
 20
6.407809350595779
 10
4.699988281286621
 20
6.407809350595779
 10
4.699988281286621
 20
6.57187133790207
 10
4.981237402383117
 20
6.57187133790207
 10
4.981237402383117
 20
6.735933325208359
 10
5.262486523479614
 20
6.735933325208359
 10
5.262486523479614
 20
6.8999953125146485
 10
5.543735644576111
 20
6.8999953125146485
 10
5.543735644576111
 20
7.064057299820938
 10
5.543735644576111
 20
6.970307592788773
 10
4.137490039093628
 20
6.149997656257325
  0
LINE
  5
A3
330
17
100
AcDbEntity
  8
A-SITE-CUTL
100
AcDbLine
 10
4.137490039093628
 20
6.24374736328949
 30
0.0
 11
4.137490039093628
 21
6.446871728525848
 31
0.0
  0
HATCH
  5
A4
330
17
100
AcDbEntity
  8
A-SITE-CUTL
 62
7
420
3947580
100
AcDbHatch
 10
0.0
 20
0.0
 30
0.0
210
0.0
220
0.0
230
1.0
  2
SOLID
 70
1
 71
0
 91
1
 92
3
 72
0
 73
1
 93
4
 10
4.137490039093628
 20
5.4
 10
4.21248980471936
 20
5.4
 10
4.21248980471936
 20
6.149997656257325
 10
4.137490039093628
 20
6.149997656257325
 97
0
 75
0
 76
1
 98
0
  0
HATCH
  5
A5
330
17
100
AcDbEntity
  8
A-SITE-CUTL
 62
7
420
3947580
100
AcDbHatch
 10
0.0
 20
0.0
 30
0.0
210
0.0
220
0.0
230
1.0
  2
SOLID
 70
1
 71
0
 91
1
 92
3
 72
0
 73
1
 93
4
 10
5.543735644576111
 20
6.970307592788773
 10
6.199983593801269
 20
6.970307592788773
 10
6.199983593801269
 20
7.064057299820938
 10
5.543735644576111
 20
7.064057299820938
 97
0
 75
0
 76
1
 98
0
  0
HATCH
  5
A6
330
17
100
AcDbEntity
  8
A-SITE-FILL
 62
7
420
13134138
100
AcDbHatch
 10
0.0
 20
0.0
 30
0.0
210
0.0
220
0.0
230
1.0
  2
SOLID
 70
1
 71
0
 91
1
 92
3
 72
0
 73
1
 93
4
 10
5.543735644576111
 20
7.064057299820938
 10
6.199983593801269
 20
7.064057299820938
 10
6.199983593801269
 20
7.096869697282196
 10
5.543735644576111
 20
7.096869697282196
 97
0
 75
0
 76
1
 98
0
  0
LINE
  5
A7
330
17
100
AcDbEntity
  8
A-SITE-SLIN
100
AcDbLine
 10
3.153856301925434
 20
5.769093334772306
 30
0.0
 11
1.5124982421929931
 21
5.4
 31
0.0
  0
HATCH
  5
A8
330
17
100
AcDbEntity
  8
A-SITE-SLIN
 62
7
420
2829099
100
AcDbHatch
 10
0.0
 20
0.0
 30
0.0
210
0.0
220
0.0
230
1.0
  2
SOLID
 70
1
 71
0
 91
1
 92
3
 72
0
 73
1
 93
4
 10
3.1358563019254344
 20
5.751093334772306
 10
3.171856301925434
 20
5.751093334772306
 10
3.171856301925434
 20
5.7870933347723055
 10
3.1358563019254344
 20
5.7870933347723055
 97
0
 75
0
 76
1
 98
0
  0
TEXT
  5
A9
330
17
100
AcDbEntity
  8
A-SITE-IDEN
100
AcDbText
 10
3.153856301925434
 20
5.814093334772306
 30
0.0
 40
0.036
  1
L1
  7
KS-REG
 72
1
 11
3.153856301925434
 21
5.814093334772306
 31
0.0
100
AcDbText
  0
LINE
  5
AA
330
17
100
AcDbEntity
  8
A-SITE-SLIN
100
AcDbLine
 10
3.3413557159897653
 20
5.859913363459716
 30
0.0
 11
1.5124982421929931
 21
5.4
 31
0.0
  0
HATCH
  5
AB
330
17
100
AcDbEntity
  8
A-SITE-SLIN
 62
7
420
2829099
100
AcDbHatch
 10
0.0
 20
0.0
 30
0.0
210
0.0
220
0.0
230
1.0
  2
SOLID
 70
1
 71
0
 91
1
 92
3
 72
0
 73
1
 93
4
 10
3.3233557159897655
 20
5.8419133634597165
 10
3.359355715989765
 20
5.8419133634597165
 10
3.359355715989765
 20
5.877913363459716
 10
3.3233557159897655
 20
5.877913363459716
 97
0
 75
0
 76
1
 98
0
  0
TEXT
  5
AC
330
17
100
AcDbEntity
  8
A-SITE-IDEN
100
AcDbText
 10
3.3413557159897653
 20
5.904913363459716
 30
0.0
 40
0.036
  1
L2
  7
KS-REG
 72
1
 11
3.3413557159897653
 21
5.904913363459716
 31
0.0
100
AcDbText
  0
LINE
  5
AD
330
17
100
AcDbEntity
  8
A-SITE-SLIN
100
AcDbLine
 10
3.5288551300540965
 20
5.950733392147126
 30
0.0
 11
1.5124982421929931
 21
5.4
 31
0.0
  0
HATCH
  5
AE
330
17
100
AcDbEntity
  8
A-SITE-SLIN
 62
7
420
2829099
100
AcDbHatch
 10
0.0
 20
0.0
 30
0.0
210
0.0
220
0.0
230
1.0
  2
SOLID
 70
1
 71
0
 91
1
 92
3
 72
0
 73
1
 93
4
 10
3.5108551300540967
 20
5.932733392147126
 10
3.5468551300540963
 20
5.932733392147126
 10
3.5468551300540963
 20
5.968733392147126
 10
3.5108551300540967
 20
5.968733392147126
 97
0
 75
0
 76
1
 98
0
  0
TEXT
  5
AF
330
17
100
AcDbEntity
  8
A-SITE-IDEN
100
AcDbText
 10
3.5288551300540965
 20
5.995733392147126
 30
0.0
 40
0.036
  1
L3
  7
KS-REG
 72
1
 11
3.5288551300540965
 21
5.995733392147126
 31
0.0
100
AcDbText
  0
LINE
  5
B0
330
17
100
AcDbEntity
  8
A-SITE-SLIN
100
AcDbLine
 10
3.7163545441184276
 20
6.0415534208345365
 30
0.0
 11
1.5124982421929931
 21
5.4
 31
0.0
  0
HATCH
  5
B1
330
17
100
AcDbEntity
  8
A-SITE-SLIN
 62
7
420
2829099
100
AcDbHatch
 10
0.0
 20
0.0
 30
0.0
210
0.0
220
0.0
230
1.0
  2
SOLID
 70
1
 71
0
 91
1
 92
3
 72
0
 73
1
 93
4
 10
3.698354544118428
 20
6.023553420834537
 10
3.7343545441184274
 20
6.023553420834537
 10
3.7343545441184274
 20
6.059553420834536
 10
3.698354544118428
 20
6.059553420834536
 97
0
 75
0
 76
1
 98
0
  0
TEXT
  5
B2
330
17
100
AcDbEntity
  8
A-SITE-IDEN
100
AcDbText
 10
3.7163545441184276
 20
6.086553420834536
 30
0.0
 40
0.036
  1
L4
  7
KS-REG
 72
1
 11
3.7163545441184276
 21
6.086553420834536
 31
0.0
100
AcDbText
  0
LINE
  5
B3
330
17
100
AcDbEntity
  8
A-SITE-SLIN
100
AcDbLine
 10
3.9038539581827587
 20
6.132373449521947
 30
0.0
 11
1.5124982421929931
 21
5.4
 31
0.0
  0
HATCH
  5
B4
330
17
100
AcDbEntity
  8
A-SITE-SLIN
 62
7
420
2829099
100
AcDbHatch
 10
0.0
 20
0.0
 30
0.0
210
0.0
220
0.0
230
1.0
  2
SOLID
 70
1
 71
0
 91
1
 92
3
 72
0
 73
1
 93
4
 10
3.885853958182759
 20
6.114373449521947
 10
3.9218539581827585
 20
6.114373449521947
 10
3.9218539581827585
 20
6.150373449521947
 10
3.885853958182759
 20
6.150373449521947
 97
0
 75
0
 76
1
 98
0
  0
TEXT
  5
B5
330
17
100
AcDbEntity
  8
A-SITE-IDEN
100
AcDbText
 10
3.9038539581827587
 20
6.177373449521947
 30
0.0
 40
0.036
  1
L5
  7
KS-REG
 72
1
 11
3.9038539581827587
 21
6.177373449521947
 31
0.0
100
AcDbText
  0
LINE
  5
B6
330
17
100
AcDbEntity
  8
A-SITE-SLIN
100
AcDbLine
 10
4.091353372247089
 20
6.223193478209358
 30
0.0
 11
1.5124982421929931
 21
5.4
 31
0.0
  0
HATCH
  5
B7
330
17
100
AcDbEntity
  8
A-SITE-SLIN
 62
7
420
2829099
100
AcDbHatch
 10
0.0
 20
0.0
 30
0.0
210
0.0
220
0.0
230
1.0
  2
SOLID
 70
1
 71
0
 91
1
 92
3
 72
0
 73
1
 93
4
 10
4.073353372247089
 20
6.205193478209358
 10
4.109353372247089
 20
6.205193478209358
 10
4.109353372247089
 20
6.241193478209357
 10
4.073353372247089
 20
6.241193478209357
 97
0
 75
0
 76
1
 98
0
  0
TEXT
  5
B8
330
17
100
AcDbEntity
  8
A-SITE-IDEN
100
AcDbText
 10
4.091353372247089
 20
6.268193478209358
 30
0.0
 40
0.036
  1
L6
  7
KS-REG
 72
1
 11
4.091353372247089
 21
6.268193478209358
 31
0.0
100
AcDbText
  0
LINE
  5
B9
330
17
100
AcDbEntity
  8
A-SITE-SLIN
100
AcDbLine
 10
4.372602493343586
 20
6.612840698061795
 30
0.0
 11
1.5124982421929931
 21
5.4
 31
0.0
  0
HATCH
  5
BA
330
17
100
AcDbEntity
  8
A-SITE-SLIN
 62
7
420
2829099
100
AcDbHatch
 10
0.0
 20
0.0
 30
0.0
210
0.0
220
0.0
230
1.0
  2
SOLID
 70
1
 71
0
 91
1
 92
3
 72
0
 73
1
 93
4
 10
4.354602493343586
 20
6.5948406980617955
 10
4.390602493343586
 20
6.5948406980617955
 10
4.390602493343586
 20
6.630840698061795
 10
4.354602493343586
 20
6.630840698061795
 97
0
 75
0
 76
1
 98
0
  0
TEXT
  5
BB
330
17
100
AcDbEntity
  8
A-SITE-IDEN
100
AcDbText
 10
4.372602493343586
 20
6.657840698061795
 30
0.0
 40
0.036
  1
U1
  7
KS-REG
 72
1
 11
4.372602493343586
 21
6.657840698061795
 31
0.0
100
AcDbText
  0
LINE
  5
BC
330
17
100
AcDbEntity
  8
A-SITE-SLIN
100
AcDbLine
 10
4.653851614440082
 20
6.776902685368085
 30
0.0
 11
1.5124982421929931
 21
5.4
 31
0.0
  0
HATCH
  5
BD
330
17
100
AcDbEntity
  8
A-SITE-SLIN
 62
7
420
2829099
100
AcDbHatch
 10
0.0
 20
0.0
 30
0.0
210
0.0
220
0.0
230
1.0
  2
SOLID
 70
1
 71
0
 91
1
 92
3
 72
0
 73
1
 93
4
 10
4.6358516144400825
 20
6.758902685368085
 10
4.671851614440082
 20
6.758902685368085
 10
4.671851614440082
 20
6.7949026853680845
 10
4.6358516144400825
 20
6.7949026853680845
 97
0
 75
0
 76
1
 98
0
  0
TEXT
  5
BE
330
17
100
AcDbEntity
  8
A-SITE-IDEN
100
AcDbText
 10
4.653851614440082
 20
6.821902685368085
 30
0.0
 40
0.036
  1
U2
  7
KS-REG
 72
1
 11
4.653851614440082
 21
6.821902685368085
 31
0.0
100
AcDbText
  0
LINE
  5
BF
330
17
100
AcDbEntity
  8
A-SITE-SLIN
100
AcDbLine
 10
4.9351007355365795
 20
6.940964672674374
 30
0.0
 11
1.5124982421929931
 21
5.4
 31
0.0
  0
HATCH
  5
C0
330
17
100
AcDbEntity
  8
A-SITE-SLIN
 62
7
420
2829099
100
AcDbHatch
 10
0.0
 20
0.0
 30
0.0
210
0.0
220
0.0
230
1.0
  2
SOLID
 70
1
 71
0
 91
1
 92
3
 72
0
 73
1
 93
4
 10
4.91710073553658
 20
6.922964672674374
 10
4.953100735536579
 20
6.922964672674374
 10
4.953100735536579
 20
6.958964672674374
 10
4.91710073553658
 20
6.958964672674374
 97
0
 75
0
 76
1
 98
0
  0
TEXT
  5
C1
330
17
100
AcDbEntity
  8
A-SITE-IDEN
100
AcDbText
 10
4.9351007355365795
 20
6.985964672674374
 30
0.0
 40
0.036
  1
U3
  7
KS-REG
 72
1
 11
4.9351007355365795
 21
6.985964672674374
 31
0.0
100
AcDbText
  0
LINE
  5
C2
330
17
100
AcDbEntity
  8
A-SITE-SLIN
100
AcDbLine
 10
5.216349856633076
 20
7.105026659980664
 30
0.0
 11
1.5124982421929931
 21
5.4
 31
0.0
  0
HATCH
  5
C3
330
17
100
AcDbEntity
  8
A-SITE-SLIN
 62
7
420
2829099
100
AcDbHatch
 10
0.0
 20
0.0
 30
0.0
210
0.0
220
0.0
230
1.0
  2
SOLID
 70
1
 71
0
 91
1
 92
3
 72
0
 73
1
 93
4
 10
5.198349856633076
 20
7.087026659980665
 10
5.2343498566330755
 20
7.087026659980665
 10
5.2343498566330755
 20
7.123026659980664
 10
5.198349856633076
 20
7.123026659980664
 97
0
 75
0
 76
1
 98
0
  0
TEXT
  5
C4
330
17
100
AcDbEntity
  8
A-SITE-IDEN
100
AcDbText
 10
5.216349856633076
 20
7.150026659980664
 30
0.0
 40
0.036
  1
U4
  7
KS-REG
 72
1
 11
5.216349856633076
 21
7.150026659980664
 31
0.0
100
AcDbText
  0
LINE
  5
C5
330
17
100
AcDbEntity
  8
A-SITE-SLIN
100
AcDbLine
 10
5.497598977729573
 20
7.269088647286954
 30
0.0
 11
1.5124982421929931
 21
5.4
 31
0.0
  0
HATCH
  5
C6
330
17
100
AcDbEntity
  8
A-SITE-SLIN
 62
7
420
2829099
100
AcDbHatch
 10
0.0
 20
0.0
 30
0.0
210
0.0
220
0.0
230
1.0
  2
SOLID
 70
1
 71
0
 91
1
 92
3
 72
0
 73
1
 93
4
 10
5.479598977729573
 20
7.251088647286954
 10
5.515598977729573
 20
7.251088647286954
 10
5.515598977729573
 20
7.287088647286954
 10
5.479598977729573
 20
7.287088647286954
 97
0
 75
0
 76
1
 98
0
  0
TEXT
  5
C7
330
17
100
AcDbEntity
  8
A-SITE-IDEN
100
AcDbText
 10
5.497598977729573
 20
7.314088647286954
 30
0.0
 40
0.036
  1
U5
  7
KS-REG
 72
1
 11
5.497598977729573
 21
7.314088647286954
 31
0.0
100
AcDbText
  0
LINE
  5
C8
330
17
100
AcDbEntity
  8
A-SITE-SLIN
100
AcDbLine
 10
5.637485351608277
 20
7.556181746184012
 30
0.0
 11
1.5124982421929931
 21
5.4
 31
0.0
  0
HATCH
  5
C9
330
17
100
AcDbEntity
  8
A-SITE-SLIN
 62
7
420
2829099
100
AcDbHatch
 10
0.0
 20
0.0
 30
0.0
210
0.0
220
0.0
230
1.0
  2
SOLID
 70
1
 71
0
 91
1
 92
3
 72
0
 73
1
 93
4
 10
5.619485351608277
 20
7.538181746184012
 10
5.655485351608276
 20
7.538181746184012
 10
5.655485351608276
 20
7.574181746184012
 10
5.619485351608277
 20
7.574181746184012
 97
0
 75
0
 76
1
 98
0
  0
TEXT
  5
CA
330
17
100
AcDbEntity
  8
A-SITE-IDEN
100
AcDbText
 10
5.637485351608277
 20
7.601181746184012
 30
0.0
 40
0.036
  1
RAIL
  7
KS-REG
 72
1
 11
5.637485351608277
 21
7.601181746184012
 31
0.0
100
AcDbText
  0
TEXT
  5
CB
330
17
100
AcDbEntity
  8
A-SITE-IDEN
100
AcDbText
 10
6.256233418020569
 20
7.044057299820938
 30
0.0
 40
0.041999999999999996
  1
LOOP / L2 17.75'
  7
KS-REG
 11
6.256233418020569
 21
7.044057299820938
 31
0.0
100
AcDbText
  0
TEXT
  5
CC
330
17
100
AcDbEntity
  8
A-SITE-IDEN
100
AcDbText
 10
4.231239746125794
 20
6.037498007818726
 30
0.0
 40
0.041999999999999996
  1
front row 9.00'
  7
KS-REG
 11
4.231239746125794
 21
6.037498007818726
 31
0.0
100
AcDbText
  0
TEXT
  5
CD
330
17
100
AcDbEntity
  8
A-SITE-IDEN
100
AcDbText
 10
0.95
 20
4.98
 30
0.0
 40
0.06799999999999999
  1
2  AS DRAWN (REV F) — EAST SIDE (seated eyes)
  7
KS-BOLD
 11
0.95
 21
4.98
 31
0.0
100
AcDbText
  0
LINE
  5
CE
330
17
100
AcDbEntity
  8
A-ANNO-TEXT
100
AcDbLine
 10
0.95
 20
4.94
 30
0.0
 11
3.545451388888889
 21
4.94
 31
0.0
  0
TEXT
  5
CF
330
17
100
AcDbEntity
  8
A-SITE-IDEN
100
AcDbText
 10
0.95
 20
4.82
 30
0.0
 40
0.05
  1
3/32" = 1'-0" · focal 16' (D-053) · upper 21"/row, L2 17'-9" · worst side
  7
KS-REG
 11
0.95
 21
4.82
 31
0.0
100
AcDbText
  0
HATCH
  5
D0
330
17
100
AcDbEntity
  8
A-SITE-FILL
 62
7
420
14268286
100
AcDbHatch
 10
0.0
 20
0.0
 30
0.0
210
0.0
220
0.0
230
1.0
  2
SOLID
 70
1
 71
0
 91
1
 92
3
 72
0
 73
1
 93
4
 10
0.95
 20
2.7031251464839174
 10
3.0124935547076417
 20
2.7031251464839174
 10
3.0124935547076417
 20
2.75
 10
0.95
 20
2.75
 97
0
 75
0
 76
1
 98
0
  0
LWPOLYLINE
  5
D1
330
17
100
AcDbEntity
  8
A-SITE-FILL
100
AcDbPolyline
 90
4
 70
1
 10
0.95
 20
2.7031251464839174
 10
3.0124935547076417
 20
2.7031251464839174
 10
3.0124935547076417
 20
2.75
 10
0.95
 20
2.75
  0
HATCH
  5
D2
330
17
100
AcDbEntity
  8
A-SITE-FILL
 62
7
420
13214247
100
AcDbHatch
 10
0.0
 20
0.0
 30
0.0
210
0.0
220
0.0
230
1.0
  2
SOLID
 70
1
 71
0
 91
1
 92
3
 72
0
 73
1
 93
4
 10
0.95
 20
2.75
 10
1.5124982421929931
 20
2.75
 10
1.5124982421929931
 20
2.782812397461258
 10
0.95
 20
2.782812397461258
 97
0
 75
0
 76
1
 98
0
  0
LWPOLYLINE
  5
D3
330
17
100
AcDbEntity
  8
A-SITE-FILL
100
AcDbPolyline
 90
4
 70
1
 10
0.95
 20
2.75
 10
1.5124982421929931
 20
2.75
 10
1.5124982421929931
 20
2.782812397461258
 10
0.95
 20
2.782812397461258
  0
HATCH
  5
D4
330
17
100
AcDbEntity
  8
A-SITE-SLIN
 62
7
420
13369344
100
AcDbHatch
 10
0.0
 20
0.0
 30
0.0
210
0.0
220
0.0
230
1.0
  2
SOLID
 70
1
 71
0
 91
1
 92
3
 72
0
 73
1
 93
3
 10
1.4774982421929932
 20
2.68
 10
1.547498242192993
 20
2.68
 10
1.5124982421929931
 20
2.75
 97
0
 75
0
 76
1
 98
0
  0
TEXT
  5
D5
330
17
100
AcDbEntity
  8
A-SITE-IDEN
100
AcDbText
 10
1.492498242192993
 20
2.58
 30
0.0
 40
0.041999999999999996
  1
FOCAL POINT
  7
KS-BOLD
 72
2
 11
1.492498242192993
 21
2.58
 31
0.0
100
AcDbText
  0
TEXT
  5
D6
330
17
100
AcDbEntity
  8
A-SITE-IDEN
100
AcDbText
 10
1.492498242192993
 20
2.48
 30
0.0
 40
0.039999999999999994
  1
near mat edge
  7
KS-REG
 72
2
 11
1.492498242192993
 21
2.48
 31
0.0
100
AcDbText
  0
LINE
  5
D7
330
17
100
AcDbEntity
  8
A-SITE-IDEN
100
AcDbLine
 10
1.5124982421929931
 20
2.600000468748535
 30
0.0
 11
3.0124935547076417
 21
2.600000468748535
 31
0.0
  0
LINE
  5
D8
330
17
100
AcDbEntity
  8
A-SITE-IDEN
100
AcDbLine
 10
1.5124982421929931
 20
2.5700004687485354
 30
0.0
 11
1.5124982421929931
 21
2.630000468748535
 31
0.0
  0
LINE
  5
D9
330
17
100
AcDbEntity
  8
A-SITE-IDEN
100
AcDbLine
 10
3.0124935547076417
 20
2.5700004687485354
 30
0.0
 11
3.0124935547076417
 21
2.630000468748535
 31
0.0
  0
TEXT
  5
DA
330
17
100
AcDbEntity
  8
A-SITE-IDEN
100
AcDbText
 10
2.262495898450317
 20
2.480000468748535
 30
0.0
 40
0.04599999999999999
  1
16'
  7
KS-BOLD
 72
1
 11
2.262495898450317
 21
2.480000468748535
 31
0.0
100
AcDbText
  0
HATCH
  5
DB
330
17
100
AcDbEntity
  8
A-SITE-CUTL
 62
7
420
14191242
100
AcDbHatch
 10
0.0
 20
0.0
 30
0.0
210
0.0
220
0.0
230
1.0
  2
SOLID
 70
1
 71
0
 91
1
 92
3
 72
0
 73
1
 93
14
 10
3.0124935547076417
 20
2.75
 10
3.0124935547076417
 20
2.764062456054825
 10
3.199992968771973
 20
2.764062456054825
 10
3.199992968771973
 20
2.854882484742235
 10
3.387492382836304
 20
2.854882484742235
 10
3.387492382836304
 20
2.9457025134296453
 10
3.574991796900634
 20
2.9457025134296453
 10
3.574991796900634
 20
3.036522542117056
 10
3.7624912109649653
 20
3.036522542117056
 10
3.7624912109649653
 20
3.1273425708044664
 10
3.9499906250292964
 20
3.1273425708044664
 10
3.9499906250292964
 20
3.2181625994918766
 10
4.137490039093628
 20
3.2181625994918766
 10
4.137490039093628
 20
2.75
 97
0
 75
0
 76
1
 98
0
  0
LWPOLYLINE
  5
DC
330
17
100
AcDbEntity
  8
A-SITE-CUTL
100
AcDbPolyline
 90
14
 70
1
 10
3.0124935547076417
 20
2.75
 10
3.0124935547076417
 20
2.764062456054825
 10
3.199992968771973
 20
2.764062456054825
 10
3.199992968771973
 20
2.854882484742235
 10
3.387492382836304
 20
2.854882484742235
 10
3.387492382836304
 20
2.9457025134296453
 10
3.574991796900634
 20
2.9457025134296453
 10
3.574991796900634
 20
3.036522542117056
 10
3.7624912109649653
 20
3.036522542117056
 10
3.7624912109649653
 20
3.1273425708044664
 10
3.9499906250292964
 20
3.1273425708044664
 10
3.9499906250292964
 20
3.2181625994918766
 10
4.137490039093628
 20
3.2181625994918766
 10
4.137490039093628
 20
2.75
  0
HATCH
  5
DD
330
17
100
AcDbEntity
  8
A-SITE-CUTL
 62
7
420
10990531
100
AcDbHatch
 10
0.0
 20
0.0
 30
0.0
210
0.0
220
0.0
230
1.0
  2
SOLID
 70
1
 71
0
 91
1
 92
3
 72
0
 73
1
 93
13
 10
4.137490039093628
 20
3.4140604248111726
 10
4.418739160190125
 20
3.4140604248111726
 10
4.418739160190125
 20
3.5624974609454347
 10
4.699988281286621
 20
3.5624974609454347
 10
4.699988281286621
 20
3.7109344970796965
 10
4.981237402383117
 20
3.7109344970796965
 10
4.981237402383117
 20
3.8593715332139586
 10
5.262486523479614
 20
3.8593715332139586
 10
5.262486523479614
 20
4.007808569348221
 10
5.543735644576111
 20
4.007808569348221
 10
5.543735644576111
 20
4.156245605482483
 10
5.543735644576111
 20
4.062495898450317
 10
4.137490039093628
 20
3.320310717779007
 97
0
 75
0
 76
1
 98
0
  0
LWPOLYLINE
  5
DE
330
17
100
AcDbEntity
  8
A-SITE-CUTL
100
AcDbPolyline
 90
13
 70
1
 10
4.137490039093628
 20
3.4140604248111726
 10
4.418739160190125
 20
3.4140604248111726
 10
4.418739160190125
 20
3.5624974609454347
 10
4.699988281286621
 20
3.5624974609454347
 10
4.699988281286621
 20
3.7109344970796965
 10
4.981237402383117
 20
3.7109344970796965
 10
4.981237402383117
 20
3.8593715332139586
 10
5.262486523479614
 20
3.8593715332139586
 10
5.262486523479614
 20
4.007808569348221
 10
5.543735644576111
 20
4.007808569348221
 10
5.543735644576111
 20
4.156245605482483
 10
5.543735644576111
 20
4.062495898450317
 10
4.137490039093628
 20
3.320310717779007
  0
LINE
  5
DF
330
17
100
AcDbEntity
  8
A-SITE-CUTL
100
AcDbLine
 10
4.137490039093628
 20
3.4140604248111726
 30
0.0
 11
4.137490039093628
 21
3.6171847900475314
 31
0.0
  0
HATCH
  5
E0
330
17
100
AcDbEntity
  8
A-SITE-CUTL
 62
7
420
3947580
100
AcDbHatch
 10
0.0
 20
0.0
 30
0.0
210
0.0
220
0.0
230
1.0
  2
SOLID
 70
1
 71
0
 91
1
 92
3
 72
0
 73
1
 93
4
 10
4.137490039093628
 20
2.75
 10
4.21248980471936
 20
2.75
 10
4.21248980471936
 20
3.320310717779007
 10
4.137490039093628
 20
3.320310717779007
 97
0
 75
0
 76
1
 98
0
  0
HATCH
  5
E1
330
17
100
AcDbEntity
  8
A-SITE-CUTL
 62
7
420
3947580
100
AcDbHatch
 10
0.0
 20
0.0
 30
0.0
210
0.0
220
0.0
230
1.0
  2
SOLID
 70
1
 71
0
 91
1
 92
3
 72
0
 73
1
 93
4
 10
5.543735644576111
 20
4.062495898450317
 10
6.199983593801269
 20
4.062495898450317
 10
6.199983593801269
 20
4.156245605482483
 10
5.543735644576111
 20
4.156245605482483
 97
0
 75
0
 76
1
 98
0
  0
HATCH
  5
E2
330
17
100
AcDbEntity
  8
A-SITE-FILL
 62
7
420
13134138
100
AcDbHatch
 10
0.0
 20
0.0
 30
0.0
210
0.0
220
0.0
230
1.0
  2
SOLID
 70
1
 71
0
 91
1
 92
3
 72
0
 73
1
 93
4
 10
5.543735644576111
 20
4.156245605482483
 10
6.199983593801269
 20
4.156245605482483
 10
6.199983593801269
 20
4.1890580029437405
 10
5.543735644576111
 20
4.1890580029437405
 97
0
 75
0
 76
1
 98
0
  0
LINE
  5
E3
330
17
100
AcDbEntity
  8
A-SITE-SLIN
100
AcDbLine
 10
3.153856301925434
 20
3.1190933347723053
 30
0.0
 11
1.5124982421929931
 21
2.75
 31
0.0
  0
HATCH
  5
E4
330
17
100
AcDbEntity
  8
A-SITE-SLIN
 62
7
420
2829099
100
AcDbHatch
 10
0.0
 20
0.0
 30
0.0
210
0.0
220
0.0
230
1.0
  2
SOLID
 70
1
 71
0
 91
1
 92
3
 72
0
 73
1
 93
4
 10
3.1358563019254344
 20
3.1010933347723055
 10
3.171856301925434
 20
3.1010933347723055
 10
3.171856301925434
 20
3.137093334772305
 10
3.1358563019254344
 20
3.137093334772305
 97
0
 75
0
 76
1
 98
0
  0
TEXT
  5
E5
330
17
100
AcDbEntity
  8
A-SITE-IDEN
100
AcDbText
 10
3.153856301925434
 20
3.1640933347723053
 30
0.0
 40
0.036
  1
L1
  7
KS-REG
 72
1
 11
3.153856301925434
 21
3.1640933347723053
 31
0.0
100
AcDbText
  0
LINE
  5
E6
330
17
100
AcDbEntity
  8
A-SITE-SLIN
100
AcDbLine
 10
3.3413557159897653
 20
3.2099133634597155
 30
0.0
 11
1.5124982421929931
 21
2.75
 31
0.0
  0
HATCH
  5
E7
330
17
100
AcDbEntity
  8
A-SITE-SLIN
 62
7
420
2829099
100
AcDbHatch
 10
0.0
 20
0.0
 30
0.0
210
0.0
220
0.0
230
1.0
  2
SOLID
 70
1
 71
0
 91
1
 92
3
 72
0
 73
1
 93
4
 10
3.3233557159897655
 20
3.1919133634597157
 10
3.359355715989765
 20
3.1919133634597157
 10
3.359355715989765
 20
3.2279133634597152
 10
3.3233557159897655
 20
3.2279133634597152
 97
0
 75
0
 76
1
 98
0
  0
TEXT
  5
E8
330
17
100
AcDbEntity
  8
A-SITE-IDEN
100
AcDbText
 10
3.3413557159897653
 20
3.2549133634597154
 30
0.0
 40
0.036
  1
L2
  7
KS-REG
 72
1
 11
3.3413557159897653
 21
3.2549133634597154
 31
0.0
100
AcDbText
  0
LINE
  5
E9
330
17
100
AcDbEntity
  8
A-SITE-SLIN
100
AcDbLine
 10
3.5288551300540965
 20
3.300733392147126
 30
0.0
 11
1.5124982421929931
 21
2.75
 31
0.0
  0
HATCH
  5
EA
330
17
100
AcDbEntity
  8
A-SITE-SLIN
 62
7
420
2829099
100
AcDbHatch
 10
0.0
 20
0.0
 30
0.0
210
0.0
220
0.0
230
1.0
  2
SOLID
 70
1
 71
0
 91
1
 92
3
 72
0
 73
1
 93
4
 10
3.5108551300540967
 20
3.2827333921471262
 10
3.5468551300540963
 20
3.2827333921471262
 10
3.5468551300540963
 20
3.318733392147126
 10
3.5108551300540967
 20
3.318733392147126
 97
0
 75
0
 76
1
 98
0
  0
TEXT
  5
EB
330
17
100
AcDbEntity
  8
A-SITE-IDEN
100
AcDbText
 10
3.5288551300540965
 20
3.345733392147126
 30
0.0
 40
0.036
  1
L3
  7
KS-REG
 72
1
 11
3.5288551300540965
 21
3.345733392147126
 31
0.0
100
AcDbText
  0
LINE
  5
EC
330
17
100
AcDbEntity
  8
A-SITE-SLIN
100
AcDbLine
 10
3.7163545441184276
 20
3.391553420834536
 30
0.0
 11
1.5124982421929931
 21
2.75
 31
0.0
  0
HATCH
  5
ED
330
17
100
AcDbEntity
  8
A-SITE-SLIN
 62
7
420
2829099
100
AcDbHatch
 10
0.0
 20
0.0
 30
0.0
210
0.0
220
0.0
230
1.0
  2
SOLID
 70
1
 71
0
 91
1
 92
3
 72
0
 73
1
 93
4
 10
3.698354544118428
 20
3.3735534208345364
 10
3.7343545441184274
 20
3.3735534208345364
 10
3.7343545441184274
 20
3.409553420834536
 10
3.698354544118428
 20
3.409553420834536
 97
0
 75
0
 76
1
 98
0
  0
TEXT
  5
EE
330
17
100
AcDbEntity
  8
A-SITE-IDEN
100
AcDbText
 10
3.7163545441184276
 20
3.436553420834536
 30
0.0
 40
0.036
  1
L4
  7
KS-REG
 72
1
 11
3.7163545441184276
 21
3.436553420834536
 31
0.0
100
AcDbText
  0
LINE
  5
EF
330
17
100
AcDbEntity
  8
A-SITE-SLIN
100
AcDbLine
 10
3.9038539581827587
 20
3.4823734495219467
 30
0.0
 11
1.5124982421929931
 21
2.75
 31
0.0
  0
HATCH
  5
F0
330
17
100
AcDbEntity
  8
A-SITE-SLIN
 62
7
420
2829099
100
AcDbHatch
 10
0.0
 20
0.0
 30
0.0
210
0.0
220
0.0
230
1.0
  2
SOLID
 70
1
 71
0
 91
1
 92
3
 72
0
 73
1
 93
4
 10
3.885853958182759
 20
3.464373449521947
 10
3.9218539581827585
 20
3.464373449521947
 10
3.9218539581827585
 20
3.5003734495219465
 10
3.885853958182759
 20
3.5003734495219465
 97
0
 75
0
 76
1
 98
0
  0
TEXT
  5
F1
330
17
100
AcDbEntity
  8
A-SITE-IDEN
100
AcDbText
 10
3.9038539581827587
 20
3.5273734495219466
 30
0.0
 40
0.036
  1
L5
  7
KS-REG
 72
1
 11
3.9038539581827587
 21
3.5273734495219466
 31
0.0
100
AcDbText
  0
LINE
  5
F2
330
17
100
AcDbEntity
  8
A-SITE-SLIN
100
AcDbLine
 10
4.091353372247089
 20
3.573193478209357
 30
0.0
 11
1.5124982421929931
 21
2.75
 31
0.0
  0
HATCH
  5
F3
330
17
100
AcDbEntity
  8
A-SITE-SLIN
 62
7
420
2829099
100
AcDbHatch
 10
0.0
 20
0.0
 30
0.0
210
0.0
220
0.0
230
1.0
  2
SOLID
 70
1
 71
0
 91
1
 92
3
 72
0
 73
1
 93
4
 10
4.073353372247089
 20
3.555193478209357
 10
4.109353372247089
 20
3.555193478209357
 10
4.109353372247089
 20
3.5911934782093566
 10
4.073353372247089
 20
3.5911934782093566
 97
0
 75
0
 76
1
 98
0
  0
TEXT
  5
F4
330
17
100
AcDbEntity
  8
A-SITE-IDEN
100
AcDbText
 10
4.091353372247089
 20
3.6181934782093568
 30
0.0
 40
0.036
  1
L6
  7
KS-REG
 72
1
 11
4.091353372247089
 21
3.6181934782093568
 31
0.0
100
AcDbText
  0
LINE
  5
F5
330
17
100
AcDbEntity
  8
A-SITE-SLIN
100
AcDbLine
 10
4.372602493343586
 20
3.7831537595834774
 30
0.0
 11
1.5124982421929931
 21
2.75
 31
0.0
  0
HATCH
  5
F6
330
17
100
AcDbEntity
  8
A-SITE-SLIN
 62
7
420
2829099
100
AcDbHatch
 10
0.0
 20
0.0
 30
0.0
210
0.0
220
0.0
230
1.0
  2
SOLID
 70
1
 71
0
 91
1
 92
3
 72
0
 73
1
 93
4
 10
4.354602493343586
 20
3.7651537595834776
 10
4.390602493343586
 20
3.7651537595834776
 10
4.390602493343586
 20
3.8011537595834772
 10
4.354602493343586
 20
3.8011537595834772
 97
0
 75
0
 76
1
 98
0
  0
TEXT
  5
F7
330
17
100
AcDbEntity
  8
A-SITE-IDEN
100
AcDbText
 10
4.372602493343586
 20
3.8281537595834774
 30
0.0
 40
0.036
  1
U1
  7
KS-REG
 72
1
 11
4.372602493343586
 21
3.8281537595834774
 31
0.0
100
AcDbText
  0
LINE
  5
F8
330
17
100
AcDbEntity
  8
A-SITE-SLIN
100
AcDbLine
 10
4.653851614440082
 20
3.9315907957177396
 30
0.0
 11
1.5124982421929931
 21
2.75
 31
0.0
  0
HATCH
  5
F9
330
17
100
AcDbEntity
  8
A-SITE-SLIN
 62
7
420
2829099
100
AcDbHatch
 10
0.0
 20
0.0
 30
0.0
210
0.0
220
0.0
230
1.0
  2
SOLID
 70
1
 71
0
 91
1
 92
3
 72
0
 73
1
 93
4
 10
4.6358516144400825
 20
3.91359079571774
 10
4.671851614440082
 20
3.91359079571774
 10
4.671851614440082
 20
3.9495907957177394
 10
4.6358516144400825
 20
3.9495907957177394
 97
0
 75
0
 76
1
 98
0
  0
TEXT
  5
FA
330
17
100
AcDbEntity
  8
A-SITE-IDEN
100
AcDbText
 10
4.653851614440082
 20
3.9765907957177395
 30
0.0
 40
0.036
  1
U2
  7
KS-REG
 72
1
 11
4.653851614440082
 21
3.9765907957177395
 31
0.0
100
AcDbText
  0
LINE
  5
FB
330
17
100
AcDbEntity
  8
A-SITE-SLIN
100
AcDbLine
 10
4.9351007355365795
 20
4.080027831852002
 30
0.0
 11
1.5124982421929931
 21
2.75
 31
0.0
  0
HATCH
  5
FC
330
17
100
AcDbEntity
  8
A-SITE-SLIN
 62
7
420
2829099
100
AcDbHatch
 10
0.0
 20
0.0
 30
0.0
210
0.0
220
0.0
230
1.0
  2
SOLID
 70
1
 71
0
 91
1
 92
3
 72
0
 73
1
 93
4
 10
4.91710073553658
 20
4.062027831852002
 10
4.953100735536579
 20
4.062027831852002
 10
4.953100735536579
 20
4.098027831852002
 10
4.91710073553658
 20
4.098027831852002
 97
0
 75
0
 76
1
 98
0
  0
TEXT
  5
FD
330
17
100
AcDbEntity
  8
A-SITE-IDEN
100
AcDbText
 10
4.9351007355365795
 20
4.125027831852002
 30
0.0
 40
0.036
  1
U3
  7
KS-REG
 72
1
 11
4.9351007355365795
 21
4.125027831852002
 31
0.0
100
AcDbText
  0
LINE
  5
FE
330
17
100
AcDbEntity
  8
A-SITE-SLIN
100
AcDbLine
 10
5.216349856633076
 20
4.228464867986264
 30
0.0
 11
1.5124982421929931
 21
2.75
 31
0.0
  0
HATCH
  5
FF
330
17
100
AcDbEntity
  8
A-SITE-SLIN
 62
7
420
2829099
100
AcDbHatch
 10
0.0
 20
0.0
 30
0.0
210
0.0
220
0.0
230
1.0
  2
SOLID
 70
1
 71
0
 91
1
 92
3
 72
0
 73
1
 93
4
 10
5.198349856633076
 20
4.210464867986264
 10
5.2343498566330755
 20
4.210464867986264
 10
5.2343498566330755
 20
4.246464867986264
 10
5.198349856633076
 20
4.246464867986264
 97
0
 75
0
 76
1
 98
0
  0
TEXT
  5
100
330
17
100
AcDbEntity
  8
A-SITE-IDEN
100
AcDbText
 10
5.216349856633076
 20
4.273464867986264
 30
0.0
 40
0.036
  1
U4
  7
KS-REG
 72
1
 11
5.216349856633076
 21
4.273464867986264
 31
0.0
100
AcDbText
  0
LINE
  5
101
330
17
100
AcDbEntity
  8
A-SITE-SLIN
100
AcDbLine
 10
5.497598977729573
 20
4.376901904120526
 30
0.0
 11
1.5124982421929931
 21
2.75
 31
0.0
  0
HATCH
  5
102
330
17
100
AcDbEntity
  8
A-SITE-SLIN
 62
7
420
2829099
100
AcDbHatch
 10
0.0
 20
0.0
 30
0.0
210
0.0
220
0.0
230
1.0
  2
SOLID
 70
1
 71
0
 91
1
 92
3
 72
0
 73
1
 93
4
 10
5.479598977729573
 20
4.358901904120526
 10
5.515598977729573
 20
4.358901904120526
 10
5.515598977729573
 20
4.394901904120526
 10
5.479598977729573
 20
4.394901904120526
 97
0
 75
0
 76
1
 98
0
  0
TEXT
  5
103
330
17
100
AcDbEntity
  8
A-SITE-IDEN
100
AcDbText
 10
5.497598977729573
 20
4.421901904120526
 30
0.0
 40
0.036
  1
U5
  7
KS-REG
 72
1
 11
5.497598977729573
 21
4.421901904120526
 31
0.0
100
AcDbText
  0
LINE
  5
104
330
17
100
AcDbEntity
  8
A-SITE-SLIN
100
AcDbLine
 10
5.637485351608277
 20
4.648370051845556
 30
0.0
 11
1.5124982421929931
 21
2.75
 31
0.0
  0
HATCH
  5
105
330
17
100
AcDbEntity
  8
A-SITE-SLIN
 62
7
420
2829099
100
AcDbHatch
 10
0.0
 20
0.0
 30
0.0
210
0.0
220
0.0
230
1.0
  2
SOLID
 70
1
 71
0
 91
1
 92
3
 72
0
 73
1
 93
4
 10
5.619485351608277
 20
4.630370051845556
 10
5.655485351608276
 20
4.630370051845556
 10
5.655485351608276
 20
4.666370051845556
 10
5.619485351608277
 20
4.666370051845556
 97
0
 75
0
 76
1
 98
0
  0
TEXT
  5
106
330
17
100
AcDbEntity
  8
A-SITE-IDEN
100
AcDbText
 10
5.637485351608277
 20
4.693370051845556
 30
0.0
 40
0.036
  1
RAIL
  7
KS-REG
 72
1
 11
5.637485351608277
 21
4.693370051845556
 31
0.0
100
AcDbText
  0
TEXT
  5
107
330
17
100
AcDbEntity
  8
A-SITE-IDEN
100
AcDbText
 10
6.256233418020569
 20
4.136245605482483
 30
0.0
 40
0.041999999999999996
  1
LOOP / L2 15'
  7
KS-REG
 11
6.256233418020569
 21
4.136245605482483
 31
0.0
100
AcDbText
  0
TEXT
  5
108
330
17
100
AcDbEntity
  8
A-SITE-IDEN
100
AcDbText
 10
4.231239746125794
 20
3.2078110693404085
 30
0.0
 40
0.041999999999999996
  1
front row 7.08'
  7
KS-REG
 11
4.231239746125794
 21
3.2078110693404085
 31
0.0
100
AcDbText
  0
TEXT
  5
109
330
17
100
AcDbEntity
  8
A-SITE-IDEN
100
AcDbText
 10
0.95
 20
2.33
 30
0.0
 40
0.06799999999999999
  1
3  REV E BASIS (SUPERSEDED) — EAST SIDE (seated eyes)
  7
KS-BOLD
 11
0.95
 21
2.33
 31
0.0
100
AcDbText
  0
LINE
  5
10A
330
17
100
AcDbEntity
  8
A-ANNO-TEXT
100
AcDbLine
 10
0.95
 20
2.29
 30
0.0
 11
4.022425347222223
 21
2.29
 31
0.0
  0
TEXT
  5
10B
330
17
100
AcDbEntity
  8
A-SITE-IDEN
100
AcDbText
 10
0.95
 20
2.17
 30
0.0
 40
0.05
  1
3/32" = 1'-0" · focal 16' · L2 15' · upper 19"/row, front 7.08' · P2-A-302 Rev B 'as drawn'
  7
KS-REG
 11
0.95
 21
2.17
 31
0.0
100
AcDbText
  0
TEXT
  5
10C
330
17
100
AcDbEntity
  8
A-ANNO-TEXT
100
AcDbText
 10
8.6
 20
10.15
 30
0.0
 40
0.056
  1
SIGHTLINE GRADE (C, mm)
  7
KS-BOLD
 11
8.6
 21
10.15
 31
0.0
100
AcDbText
  0
HATCH
  5
10D
330
17
100
AcDbEntity
  8
A-SITE-SLIN
 62
7
420
2829099
100
AcDbHatch
 10
0.0
 20
0.0
 30
0.0
210
0.0
220
0.0
230
1.0
  2
SOLID
 70
1
 71
0
 91
1
 92
3
 72
0
 73
1
 93
4
 10
8.6
 20
9.98
 10
8.9
 20
9.98
 10
8.9
 20
10.040000000000001
 10
8.6
 20
10.040000000000001
 97
0
 75
0
 76
1
 98
0
  0
TEXT
  5
10E
330
17
100
AcDbEntity
  8
A-ANNO-TEXT
100
AcDbText
 10
8.98
 20
9.98
 30
0.0
 40
0.052000000000000005
  1
≥ 90 PASS
  7
KS-REG
 11
8.98
 21
9.98
 31
0.0
100
AcDbText
  0
HATCH
  5
10F
330
17
100
AcDbEntity
  8
A-SITE-SLIN
 62
7
420
14254635
100
AcDbHatch
 10
0.0
 20
0.0
 30
0.0
210
0.0
220
0.0
230
1.0
  2
SOLID
 70
1
 71
0
 91
1
 92
3
 72
0
 73
1
 93
4
 10
8.6
 20
9.83
 10
8.9
 20
9.83
 10
8.9
 20
9.89
 10
8.6
 20
9.89
 97
0
 75
0
 76
1
 98
0
  0
TEXT
  5
110
330
17
100
AcDbEntity
  8
A-ANNO-TEXT
100
AcDbText
 10
8.98
 20
9.83
 30
0.0
 40
0.052000000000000005
  1
60–90 MARGINAL
  7
KS-REG
 11
8.98
 21
9.83
 31
0.0
100
AcDbText
  0
HATCH
  5
111
330
17
100
AcDbEntity
  8
A-SITE-SLIN
 62
7
420
13369344
100
AcDbHatch
 10
0.0
 20
0.0
 30
0.0
210
0.0
220
0.0
230
1.0
  2
SOLID
 70
1
 71
0
 91
1
 92
3
 72
0
 73
1
 93
4
 10
8.6
 20
9.68
 10
8.9
 20
9.68
 10
8.9
 20
9.74
 10
8.6
 20
9.74
 97
0
 75
0
 76
1
 98
0
  0
TEXT
  5
112
330
17
100
AcDbEntity
  8
A-ANNO-TEXT
100
AcDbText
 10
8.98
 20
9.68
 30
0.0
 40
0.052000000000000005
  1
< 60 FAIL
  7
KS-REG
 11
8.98
 21
9.68
 31
0.0
100
AcDbText
  0
TEXT
  5
113
330
17
100
AcDbEntity
  8
A-ANNO-TEXT
100
AcDbText
 10
8.6
 20
9.47
 30
0.0
 40
0.04599999999999999
  1
Dots = eyes; label colour = C of that row
  7
KS-REG
 11
8.6
 21
9.47
 31
0.0
100
AcDbText
  0
TEXT
  5
114
330
17
100
AcDbEntity
  8
A-ANNO-TEXT
100
AcDbText
 10
8.6
 20
9.35
 30
0.0
 40
0.04599999999999999
  1
over the row in front. Values: table.
  7
KS-REG
 11
8.6
 21
9.35
 31
0.0
100
AcDbText
  0
HATCH
  5
115
330
17
100
AcDbEntity
  8
A-SITE-FILL
 62
7
420
14268286
100
AcDbHatch
 10
0.0
 20
0.0
 30
0.0
210
0.0
220
0.0
230
1.0
  2
SOLID
 70
1
 71
0
 91
1
 92
3
 72
0
 73
1
 93
4
 10
7.75
 20
4.97499953124707
 10
9.906263476646728
 20
4.97499953124707
 10
9.906263476646728
 20
5.05
 10
7.75
 20
5.05
 97
0
 75
0
 76
1
 98
0
  0
LWPOLYLINE
  5
116
330
17
100
AcDbEntity
  8
A-SITE-FILL
100
AcDbPolyline
 90
4
 70
1
 10
7.75
 20
4.97499953124707
 10
9.906263476646728
 20
4.97499953124707
 10
9.906263476646728
 20
5.05
 10
7.75
 20
5.05
  0
HATCH
  5
117
330
17
100
AcDbEntity
  8
A-SITE-CUTL
 62
7
420
10990531
100
AcDbHatch
 10
0.0
 20
0.0
 30
0.0
210
0.0
220
0.0
230
1.0
  2
SOLID
 70
1
 71
0
 91
1
 92
3
 72
0
 73
1
 93
4
 10
8.875007031293945
 20
6.737510546940918
 10
9.906263476646728
 20
7.339076806730041
 10
9.906263476646728
 20
7.254701279382996
 10
8.875007031293945
 20
6.653135019593872
 97
0
 75
0
 76
1
 98
0
  0
LWPOLYLINE
  5
118
330
17
100
AcDbEntity
  8
A-SITE-CUTL
100
AcDbPolyline
 90
4
 70
1
 10
8.875007031293945
 20
6.737510546940918
 10
9.906263476646728
 20
7.339076806730041
 10
9.906263476646728
 20
7.254701279382996
 10
8.875007031293945
 20
6.653135019593872
  0
TEXT
  5
119
330
17
100
AcDbEntity
  8
A-ANNO-TEXT
100
AcDbText
 10
8.931257382858643
 20
7.004699716873231
 30
0.0
 40
0.039999999999999994
  1
upper-tier deck (front 9.00')
  7
KS-REG
 11
8.931257382858643
 21
7.004699716873231
 31
0.0
100
AcDbText
  0
LINE
  5
11A
330
17
100
AcDbEntity
  8
A-SITE-IDEN
100
AcDbLine
 10
8.875007031293945
 20
5.05
 30
0.0
 11
8.875007031293945
 21
5.08
 31
0.0
  0
LINE
  5
11B
330
17
100
AcDbEntity
  8
A-SITE-IDEN
100
AcDbLine
 10
8.875007031293945
 20
5.109999999999999
 30
0.0
 11
8.875007031293945
 21
5.14
 31
0.0
  0
LINE
  5
11C
330
17
100
AcDbEntity
  8
A-SITE-IDEN
100
AcDbLine
 10
8.875007031293945
 20
5.17
 30
0.0
 11
8.875007031293945
 21
5.2
 31
0.0
  0
LINE
  5
11D
330
17
100
AcDbEntity
  8
A-SITE-IDEN
100
AcDbLine
 10
8.875007031293945
 20
5.2299999999999995
 30
0.0
 11
8.875007031293945
 21
5.26
 31
0.0
  0
LINE
  5
11E
330
17
100
AcDbEntity
  8
A-SITE-IDEN
100
AcDbLine
 10
8.875007031293945
 20
5.29
 30
0.0
 11
8.875007031293945
 21
5.32
 31
0.0
  0
LINE
  5
11F
330
17
100
AcDbEntity
  8
A-SITE-IDEN
100
AcDbLine
 10
8.875007031293945
 20
5.35
 30
0.0
 11
8.875007031293945
 21
5.38
 31
0.0
  0
LINE
  5
120
330
17
100
AcDbEntity
  8
A-SITE-IDEN
100
AcDbLine
 10
8.875007031293945
 20
5.41
 30
0.0
 11
8.875007031293945
 21
5.4399999999999995
 31
0.0
  0
LINE
  5
121
330
17
100
AcDbEntity
  8
A-SITE-IDEN
100
AcDbLine
 10
8.875007031293945
 20
5.47
 30
0.0
 11
8.875007031293945
 21
5.5
 31
0.0
  0
LINE
  5
122
330
17
100
AcDbEntity
  8
A-SITE-IDEN
100
AcDbLine
 10
8.875007031293945
 20
5.53
 30
0.0
 11
8.875007031293945
 21
5.5600000000000005
 31
0.0
  0
LINE
  5
123
330
17
100
AcDbEntity
  8
A-SITE-IDEN
100
AcDbLine
 10
8.875007031293945
 20
5.59
 30
0.0
 11
8.875007031293945
 21
5.62
 31
0.0
  0
LINE
  5
124
330
17
100
AcDbEntity
  8
A-SITE-IDEN
100
AcDbLine
 10
8.875007031293945
 20
5.65
 30
0.0
 11
8.875007031293945
 21
5.68
 31
0.0
  0
LINE
  5
125
330
17
100
AcDbEntity
  8
A-SITE-IDEN
100
AcDbLine
 10
8.875007031293945
 20
5.71
 30
0.0
 11
8.875007031293945
 21
5.74
 31
0.0
  0
LINE
  5
126
330
17
100
AcDbEntity
  8
A-SITE-IDEN
100
AcDbLine
 10
8.875007031293945
 20
5.7700000000000005
 30
0.0
 11
8.875007031293945
 21
5.800000000000001
 31
0.0
  0
LINE
  5
127
330
17
100
AcDbEntity
  8
A-SITE-IDEN
100
AcDbLine
 10
8.875007031293945
 20
5.83
 30
0.0
 11
8.875007031293945
 21
5.86
 31
0.0
  0
LINE
  5
128
330
17
100
AcDbEntity
  8
A-SITE-IDEN
100
AcDbLine
 10
8.875007031293945
 20
5.890000000000001
 30
0.0
 11
8.875007031293945
 21
5.92
 31
0.0
  0
LINE
  5
129
330
17
100
AcDbEntity
  8
A-SITE-IDEN
100
AcDbLine
 10
8.875007031293945
 20
5.95
 30
0.0
 11
8.875007031293945
 21
5.98
 31
0.0
  0
LINE
  5
12A
330
17
100
AcDbEntity
  8
A-SITE-IDEN
100
AcDbLine
 10
8.875007031293945
 20
6.010000000000001
 30
0.0
 11
8.875007031293945
 21
6.040000000000001
 31
0.0
  0
LINE
  5
12B
330
17
100
AcDbEntity
  8
A-SITE-IDEN
100
AcDbLine
 10
8.875007031293945
 20
6.07
 30
0.0
 11
8.875007031293945
 21
6.1000000000000005
 31
0.0
  0
LINE
  5
12C
330
17
100
AcDbEntity
  8
A-SITE-IDEN
100
AcDbLine
 10
8.875007031293945
 20
6.130000000000001
 30
0.0
 11
8.875007031293945
 21
6.16
 31
0.0
  0
LINE
  5
12D
330
17
100
AcDbEntity
  8
A-SITE-IDEN
100
AcDbLine
 10
8.875007031293945
 20
6.19
 30
0.0
 11
8.875007031293945
 21
6.220000000000001
 31
0.0
  0
LINE
  5
12E
330
17
100
AcDbEntity
  8
A-SITE-IDEN
100
AcDbLine
 10
8.875007031293945
 20
6.250000000000001
 30
0.0
 11
8.875007031293945
 21
6.280000000000001
 31
0.0
  0
LINE
  5
12F
330
17
100
AcDbEntity
  8
A-SITE-IDEN
100
AcDbLine
 10
8.875007031293945
 20
6.3100000000000005
 30
0.0
 11
8.875007031293945
 21
6.340000000000001
 31
0.0
  0
LINE
  5
130
330
17
100
AcDbEntity
  8
A-SITE-IDEN
100
AcDbLine
 10
8.875007031293945
 20
6.370000000000001
 30
0.0
 11
8.875007031293945
 21
6.4
 31
0.0
  0
LINE
  5
131
330
17
100
AcDbEntity
  8
A-SITE-IDEN
100
AcDbLine
 10
8.875007031293945
 20
6.430000000000001
 30
0.0
 11
8.875007031293945
 21
6.460000000000001
 31
0.0
  0
LINE
  5
132
330
17
100
AcDbEntity
  8
A-SITE-IDEN
100
AcDbLine
 10
8.875007031293945
 20
6.490000000000001
 30
0.0
 11
8.875007031293945
 21
6.520000000000001
 31
0.0
  0
LINE
  5
133
330
17
100
AcDbEntity
  8
A-SITE-IDEN
100
AcDbLine
 10
8.875007031293945
 20
6.550000000000001
 30
0.0
 11
8.875007031293945
 21
6.580000000000001
 31
0.0
  0
LINE
  5
134
330
17
100
AcDbEntity
  8
A-SITE-IDEN
100
AcDbLine
 10
8.875007031293945
 20
6.610000000000001
 30
0.0
 11
8.875007031293945
 21
6.640000000000001
 31
0.0
  0
LINE
  5
135
330
17
100
AcDbEntity
  8
A-SITE-IDEN
100
AcDbLine
 10
8.875007031293945
 20
6.670000000000001
 30
0.0
 11
8.875007031293945
 21
6.700000000000001
 31
0.0
  0
LINE
  5
136
330
17
100
AcDbEntity
  8
A-SITE-IDEN
100
AcDbLine
 10
8.875007031293945
 20
6.730000000000001
 30
0.0
 11
8.875007031293945
 21
6.760000000000002
 31
0.0
  0
LINE
  5
137
330
17
100
AcDbEntity
  8
A-SITE-IDEN
100
AcDbLine
 10
8.875007031293945
 20
6.790000000000001
 30
0.0
 11
8.875007031293945
 21
6.820000000000001
 31
0.0
  0
LINE
  5
138
330
17
100
AcDbEntity
  8
A-SITE-IDEN
100
AcDbLine
 10
8.875007031293945
 20
6.850000000000001
 30
0.0
 11
8.875007031293945
 21
6.880000000000001
 31
0.0
  0
LINE
  5
139
330
17
100
AcDbEntity
  8
A-SITE-IDEN
100
AcDbLine
 10
8.875007031293945
 20
6.910000000000001
 30
0.0
 11
8.875007031293945
 21
6.940000000000001
 31
0.0
  0
LINE
  5
13A
330
17
100
AcDbEntity
  8
A-SITE-IDEN
100
AcDbLine
 10
8.875007031293945
 20
6.9700000000000015
 30
0.0
 11
8.875007031293945
 21
7.000000000000002
 31
0.0
  0
LINE
  5
13B
330
17
100
AcDbEntity
  8
A-SITE-IDEN
100
AcDbLine
 10
8.875007031293945
 20
7.030000000000001
 30
0.0
 11
8.875007031293945
 21
7.037512421952637
 31
0.0
  0
TEXT
  5
13C
330
17
100
AcDbEntity
  8
A-ANNO-TEXT
100
AcDbText
 10
8.856256914105714
 20
7.065637597734986
 30
0.0
 40
0.039999999999999994
  1
upper-tier face
  7
KS-REG
 72
2
 11
8.856256914105714
 21
7.065637597734986
 31
0.0
100
AcDbText
  0
LINE
  5
13D
330
17
100
AcDbEntity
  8
A-SITE-SLIN
100
AcDbLine
 10
8.875007031293945
 20
6.37813330083313
 30
0.0
 11
8.919226268936294
 21
6.401471231811036
 31
0.0
  0
LINE
  5
13E
330
17
100
AcDbEntity
  8
A-SITE-SLIN
100
AcDbLine
 10
8.950179735285937
 20
6.4178077834955705
 30
0.0
 11
8.994398972928286
 21
6.4411457144734765
 31
0.0
  0
LINE
  5
13F
330
17
100
AcDbEntity
  8
A-SITE-SLIN
100
AcDbLine
 10
9.02535243927793
 20
6.457482266158011
 30
0.0
 11
9.069571676920278
 21
6.480820197135917
 31
0.0
  0
LINE
  5
140
330
17
100
AcDbEntity
  8
A-SITE-SLIN
100
AcDbLine
 10
9.100525143269923
 20
6.497156748820451
 30
0.0
 11
9.144744380912272
 21
6.520494679798357
 31
0.0
  0
LINE
  5
141
330
17
100
AcDbEntity
  8
A-SITE-SLIN
100
AcDbLine
 10
9.175697847261915
 20
6.536831231482892
 30
0.0
 11
9.219917084904264
 21
6.560169162460798
 31
0.0
  0
LINE
  5
142
330
17
100
AcDbEntity
  8
A-SITE-SLIN
100
AcDbLine
 10
9.250870551253907
 20
6.576505714145332
 30
0.0
 11
9.295089788896256
 21
6.599843645123238
 31
0.0
  0
LINE
  5
143
330
17
100
AcDbEntity
  8
A-SITE-SLIN
100
AcDbLine
 10
9.3260432552459
 20
6.616180196807773
 30
0.0
 11
9.370262492888248
 21
6.639518127785679
 31
0.0
  0
LINE
  5
144
330
17
100
AcDbEntity
  8
A-SITE-SLIN
100
AcDbLine
 10
9.401215959237891
 20
6.655854679470213
 30
0.0
 11
9.44543519688024
 21
6.679192610448119
 31
0.0
  0
LINE
  5
145
330
17
100
AcDbEntity
  8
A-SITE-SLIN
100
AcDbLine
 10
9.476388663229885
 20
6.695529162132654
 30
0.0
 11
9.520607900872234
 21
6.71886709311056
 31
0.0
  0
LINE
  5
146
330
17
100
AcDbEntity
  8
A-SITE-SLIN
100
AcDbLine
 10
9.551561367221877
 20
6.735203644795094
 30
0.0
 11
9.595780604864226
 21
6.758541575773
 31
0.0
  0
LINE
  5
147
330
17
100
AcDbEntity
  8
A-SITE-SLIN
100
AcDbLine
 10
9.62673407121387
 20
6.7748781274575345
 30
0.0
 11
9.670953308856218
 21
6.7982160584354405
 31
0.0
  0
LINE
  5
148
330
17
100
AcDbEntity
  8
A-SITE-SLIN
100
AcDbLine
 10
9.701906775205861
 20
6.814552610119975
 30
0.0
 11
9.746126012848212
 21
6.837890541097881
 31
0.0
  0
LINE
  5
149
330
17
100
AcDbEntity
  8
A-SITE-SLIN
100
AcDbLine
 10
9.777079479197855
 20
6.854227092782415
 30
0.0
 11
9.821298716840204
 21
6.877565023760321
 31
0.0
  0
LINE
  5
14A
330
17
100
AcDbEntity
  8
A-SITE-SLIN
100
AcDbLine
 10
9.852252183189847
 20
6.893901575444856
 30
0.0
 11
9.896471420832196
 21
6.917239506422762
 31
0.0
  0
HATCH
  5
14B
330
17
100
AcDbEntity
  8
A-SITE-CUTL
 62
7
420
12171705
100
AcDbHatch
 10
0.0
 20
0.0
 30
0.0
210
0.0
220
0.0
230
1.0
  2
SOLID
 70
1
 71
0
 91
1
 92
3
 72
0
 73
1
 93
4
 10
8.875007031293945
 20
5.05
 10
9.625011718823243
 20
5.05
 10
9.625011718823243
 20
6.25899193119957
 10
8.875007031293945
 20
6.25899193119957
 97
0
 75
0
 76
1
 98
0
  0
LWPOLYLINE
  5
14C
330
17
100
AcDbEntity
  8
A-SITE-CUTL
100
AcDbPolyline
 90
4
 70
1
 10
8.875007031293945
 20
5.05
 10
9.625011718823243
 20
5.05
 10
9.625011718823243
 20
6.25899193119957
 10
8.875007031293945
 20
6.25899193119957
  0
TEXT
  5
14D
330
17
100
AcDbEntity
  8
A-ANNO-TEXT
100
AcDbText
 10
9.250009375058594
 20
5.766996668729179
 30
0.0
 40
0.044000000000000004
  1
CLOSED
  7
KS-BOLD
 72
1
 11
9.250009375058594
 21
5.766996668729179
 31
0.0
100
AcDbText
  0
TEXT
  5
14E
330
17
100
AcDbEntity
  8
A-ANNO-TEXT
100
AcDbText
 10
9.250009375058594
 20
5.579495496846855
 30
0.0
 40
0.044000000000000004
  1
STACK
  7
KS-BOLD
 72
1
 11
9.250009375058594
 21
5.579495496846855
 31
0.0
100
AcDbText
  0
HATCH
  5
14F
330
17
100
AcDbEntity
  8
A-SITE-FILL
 62
7
420
15980964
100
AcDbHatch
 10
0.0
 20
0.0
 30
0.0
210
0.0
220
0.0
230
1.0
  2
SOLID
 70
1
 71
0
 91
1
 92
3
 72
0
 73
1
 93
4
 10
8.875007031293945
 20
6.25899193119957
 10
9.625011718823243
 20
6.25899193119957
 10
9.625011718823243
 20
7.090637753985963
 10
8.875007031293945
 20
6.653135019593872
 97
0
 75
0
 76
1
 98
0
  0
LWPOLYLINE
  5
150
330
17
100
AcDbEntity
  8
A-SITE-FILL
100
AcDbPolyline
 90
4
 70
1
 10
8.875007031293945
 20
6.25899193119957
 10
9.625011718823243
 20
6.25899193119957
 10
9.625011718823243
 20
7.090637753985963
 10
8.875007031293945
 20
6.653135019593872
  0
LINE
  5
151
330
17
100
AcDbEntity
  8
A-SITE-IDEN
100
AcDbLine
 10
9.690637128982056
 20
6.25899193119957
 30
0.0
 11
9.690637128982056
 21
6.737510546940918
 31
0.0
  0
LINE
  5
152
330
17
100
AcDbEntity
  8
A-SITE-IDEN
100
AcDbLine
 10
9.660637128982057
 20
6.25899193119957
 30
0.0
 11
9.720637128982055
 21
6.25899193119957
 31
0.0
  0
LINE
  5
153
330
17
100
AcDbEntity
  8
A-SITE-IDEN
100
AcDbLine
 10
9.660637128982057
 20
6.737510546940918
 30
0.0
 11
9.720637128982055
 21
6.737510546940918
 31
0.0
  0
TEXT
  5
154
330
17
100
AcDbEntity
  8
A-ANNO-TEXT
100
AcDbText
 10
7.7875002343764645
 20
6.7187604297526855
 30
0.0
 40
0.043
  1
front deck 9.00' − 77.4"
  7
KS-REG
 11
7.7875002343764645
 21
6.7187604297526855
 31
0.0
100
AcDbText
  0
TEXT
  5
155
330
17
100
AcDbEntity
  8
A-ANNO-TEXT
100
AcDbText
 10
7.7875002343764645
 20
6.568759492246826
 30
0.0
 40
0.043
  1
= 30.6" structure + finish
  7
KS-BOLD
 11
7.7875002343764645
 21
6.568759492246826
 31
0.0
100
AcDbText
  0
TEXT
  5
156
330
17
100
AcDbEntity
  8
A-ANNO-TEXT
100
AcDbText
 10
7.7875002343764645
 20
5.425002343764648
 30
0.0
 40
0.041999999999999996
  1
recess min 48" deep x
  7
KS-REG
 11
7.7875002343764645
 21
5.425002343764648
 31
0.0
100
AcDbText
  0
TEXT
  5
157
330
17
100
AcDbEntity
  8
A-ANNO-TEXT
100
AcDbText
 10
7.7875002343764645
 20
5.275001406258789
 30
0.0
 40
0.041999999999999996
  1
77.4" high (Hussey)
  7
KS-REG
 11
7.7875002343764645
 21
5.275001406258789
 31
0.0
100
AcDbText
  0
TEXT
  5
158
330
17
100
AcDbEntity
  8
A-ANNO-TEXT
100
AcDbText
 10
7.7875002343764645
 20
6.2656325977037355
 30
0.0
 40
0.041999999999999996
  1
Rev E 7.08' front: 7.6" left
  7
KS-REG
 11
7.7875002343764645
 21
6.2656325977037355
 31
0.0
100
AcDbText
  0
HATCH
  5
159
330
17
100
AcDbEntity
  8
A-SITE-FILL
 62
7
420
14268286
100
AcDbHatch
 10
0.0
 20
0.0
 30
0.0
210
0.0
220
0.0
230
1.0
  2
SOLID
 70
1
 71
0
 91
1
 92
3
 72
0
 73
1
 93
4
 10
7.75
 20
2.2249995312470703
 10
9.906263476646728
 20
2.2249995312470703
 10
9.906263476646728
 20
2.3
 10
7.75
 20
2.3
 97
0
 75
0
 76
1
 98
0
  0
LWPOLYLINE
  5
15A
330
17
100
AcDbEntity
  8
A-SITE-FILL
100
AcDbPolyline
 90
4
 70
1
 10
7.75
 20
2.2249995312470703
 10
9.906263476646728
 20
2.2249995312470703
 10
9.906263476646728
 20
2.3
 10
7.75
 20
2.3
  0
HATCH
  5
15B
330
17
100
AcDbEntity
  8
A-SITE-CUTL
 62
7
420
10990531
100
AcDbHatch
 10
0.0
 20
0.0
 30
0.0
210
0.0
220
0.0
230
1.0
  2
SOLID
 70
1
 71
0
 91
1
 92
3
 72
0
 73
1
 93
4
 10
8.875007031293945
 20
3.987510546940918
 10
9.906263476646728
 20
4.589076806730041
 10
9.906263476646728
 20
4.504701279382996
 10
8.875007031293945
 20
3.903135019593872
 97
0
 75
0
 76
1
 98
0
  0
LWPOLYLINE
  5
15C
330
17
100
AcDbEntity
  8
A-SITE-CUTL
100
AcDbPolyline
 90
4
 70
1
 10
8.875007031293945
 20
3.987510546940918
 10
9.906263476646728
 20
4.589076806730041
 10
9.906263476646728
 20
4.504701279382996
 10
8.875007031293945
 20
3.903135019593872
  0
TEXT
  5
15D
330
17
100
AcDbEntity
  8
A-ANNO-TEXT
100
AcDbText
 10
8.931257382858643
 20
4.254699716873231
 30
0.0
 40
0.039999999999999994
  1
upper-tier deck (front 9.00')
  7
KS-REG
 11
8.931257382858643
 21
4.254699716873231
 31
0.0
100
AcDbText
  0
LINE
  5
15E
330
17
100
AcDbEntity
  8
A-SITE-IDEN
100
AcDbLine
 10
8.875007031293945
 20
2.3
 30
0.0
 11
8.875007031293945
 21
2.3299999999999996
 31
0.0
  0
LINE
  5
15F
330
17
100
AcDbEntity
  8
A-SITE-IDEN
100
AcDbLine
 10
8.875007031293945
 20
2.36
 30
0.0
 11
8.875007031293945
 21
2.3899999999999997
 31
0.0
  0
LINE
  5
160
330
17
100
AcDbEntity
  8
A-SITE-IDEN
100
AcDbLine
 10
8.875007031293945
 20
2.42
 30
0.0
 11
8.875007031293945
 21
2.4499999999999997
 31
0.0
  0
LINE
  5
161
330
17
100
AcDbEntity
  8
A-SITE-IDEN
100
AcDbLine
 10
8.875007031293945
 20
2.48
 30
0.0
 11
8.875007031293945
 21
2.51
 31
0.0
  0
LINE
  5
162
330
17
100
AcDbEntity
  8
A-SITE-IDEN
100
AcDbLine
 10
8.875007031293945
 20
2.54
 30
0.0
 11
8.875007031293945
 21
2.57
 31
0.0
  0
LINE
  5
163
330
17
100
AcDbEntity
  8
A-SITE-IDEN
100
AcDbLine
 10
8.875007031293945
 20
2.5999999999999996
 30
0.0
 11
8.875007031293945
 21
2.63
 31
0.0
  0
LINE
  5
164
330
17
100
AcDbEntity
  8
A-SITE-IDEN
100
AcDbLine
 10
8.875007031293945
 20
2.66
 30
0.0
 11
8.875007031293945
 21
2.69
 31
0.0
  0
LINE
  5
165
330
17
100
AcDbEntity
  8
A-SITE-IDEN
100
AcDbLine
 10
8.875007031293945
 20
2.7199999999999998
 30
0.0
 11
8.875007031293945
 21
2.75
 31
0.0
  0
LINE
  5
166
330
17
100
AcDbEntity
  8
A-SITE-IDEN
100
AcDbLine
 10
8.875007031293945
 20
2.7800000000000002
 30
0.0
 11
8.875007031293945
 21
2.81
 31
0.0
  0
LINE
  5
167
330
17
100
AcDbEntity
  8
A-SITE-IDEN
100
AcDbLine
 10
8.875007031293945
 20
2.84
 30
0.0
 11
8.875007031293945
 21
2.87
 31
0.0
  0
LINE
  5
168
330
17
100
AcDbEntity
  8
A-SITE-IDEN
100
AcDbLine
 10
8.875007031293945
 20
2.9000000000000004
 30
0.0
 11
8.875007031293945
 21
2.93
 31
0.0
  0
LINE
  5
169
330
17
100
AcDbEntity
  8
A-SITE-IDEN
100
AcDbLine
 10
8.875007031293945
 20
2.96
 30
0.0
 11
8.875007031293945
 21
2.99
 31
0.0
  0
LINE
  5
16A
330
17
100
AcDbEntity
  8
A-SITE-IDEN
100
AcDbLine
 10
8.875007031293945
 20
3.0200000000000005
 30
0.0
 11
8.875007031293945
 21
3.0500000000000003
 31
0.0
  0
LINE
  5
16B
330
17
100
AcDbEntity
  8
A-SITE-IDEN
100
AcDbLine
 10
8.875007031293945
 20
3.08
 30
0.0
 11
8.875007031293945
 21
3.1100000000000003
 31
0.0
  0
LINE
  5
16C
330
17
100
AcDbEntity
  8
A-SITE-IDEN
100
AcDbLine
 10
8.875007031293945
 20
3.1400000000000006
 30
0.0
 11
8.875007031293945
 21
3.1700000000000004
 31
0.0
  0
LINE
  5
16D
330
17
100
AcDbEntity
  8
A-SITE-IDEN
100
AcDbLine
 10
8.875007031293945
 20
3.2
 30
0.0
 11
8.875007031293945
 21
3.2300000000000004
 31
0.0
  0
LINE
  5
16E
330
17
100
AcDbEntity
  8
A-SITE-IDEN
100
AcDbLine
 10
8.875007031293945
 20
3.2600000000000007
 30
0.0
 11
8.875007031293945
 21
3.2900000000000005
 31
0.0
  0
LINE
  5
16F
330
17
100
AcDbEntity
  8
A-SITE-IDEN
100
AcDbLine
 10
8.875007031293945
 20
3.3200000000000003
 30
0.0
 11
8.875007031293945
 21
3.3500000000000005
 31
0.0
  0
LINE
  5
170
330
17
100
AcDbEntity
  8
A-SITE-IDEN
100
AcDbLine
 10
8.875007031293945
 20
3.380000000000001
 30
0.0
 11
8.875007031293945
 21
3.4100000000000006
 31
0.0
  0
LINE
  5
171
330
17
100
AcDbEntity
  8
A-SITE-IDEN
100
AcDbLine
 10
8.875007031293945
 20
3.4400000000000004
 30
0.0
 11
8.875007031293945
 21
3.4700000000000006
 31
0.0
  0
LINE
  5
172
330
17
100
AcDbEntity
  8
A-SITE-IDEN
100
AcDbLine
 10
8.875007031293945
 20
3.500000000000001
 30
0.0
 11
8.875007031293945
 21
3.5300000000000007
 31
0.0
  0
LINE
  5
173
330
17
100
AcDbEntity
  8
A-SITE-IDEN
100
AcDbLine
 10
8.875007031293945
 20
3.5600000000000005
 30
0.0
 11
8.875007031293945
 21
3.5900000000000007
 31
0.0
  0
LINE
  5
174
330
17
100
AcDbEntity
  8
A-SITE-IDEN
100
AcDbLine
 10
8.875007031293945
 20
3.620000000000001
 30
0.0
 11
8.875007031293945
 21
3.650000000000001
 31
0.0
  0
LINE
  5
175
330
17
100
AcDbEntity
  8
A-SITE-IDEN
100
AcDbLine
 10
8.875007031293945
 20
3.6800000000000006
 30
0.0
 11
8.875007031293945
 21
3.710000000000001
 31
0.0
  0
LINE
  5
176
330
17
100
AcDbEntity
  8
A-SITE-IDEN
100
AcDbLine
 10
8.875007031293945
 20
3.740000000000001
 30
0.0
 11
8.875007031293945
 21
3.770000000000001
 31
0.0
  0
LINE
  5
177
330
17
100
AcDbEntity
  8
A-SITE-IDEN
100
AcDbLine
 10
8.875007031293945
 20
3.8000000000000007
 30
0.0
 11
8.875007031293945
 21
3.830000000000001
 31
0.0
  0
LINE
  5
178
330
17
100
AcDbEntity
  8
A-SITE-IDEN
100
AcDbLine
 10
8.875007031293945
 20
3.860000000000001
 30
0.0
 11
8.875007031293945
 21
3.890000000000001
 31
0.0
  0
LINE
  5
179
330
17
100
AcDbEntity
  8
A-SITE-IDEN
100
AcDbLine
 10
8.875007031293945
 20
3.920000000000001
 30
0.0
 11
8.875007031293945
 21
3.950000000000001
 31
0.0
  0
LINE
  5
17A
330
17
100
AcDbEntity
  8
A-SITE-IDEN
100
AcDbLine
 10
8.875007031293945
 20
3.9800000000000013
 30
0.0
 11
8.875007031293945
 21
4.010000000000002
 31
0.0
  0
LINE
  5
17B
330
17
100
AcDbEntity
  8
A-SITE-IDEN
100
AcDbLine
 10
8.875007031293945
 20
4.040000000000001
 30
0.0
 11
8.875007031293945
 21
4.070000000000001
 31
0.0
  0
LINE
  5
17C
330
17
100
AcDbEntity
  8
A-SITE-IDEN
100
AcDbLine
 10
8.875007031293945
 20
4.100000000000001
 30
0.0
 11
8.875007031293945
 21
4.130000000000001
 31
0.0
  0
LINE
  5
17D
330
17
100
AcDbEntity
  8
A-SITE-IDEN
100
AcDbLine
 10
8.875007031293945
 20
4.160000000000001
 30
0.0
 11
8.875007031293945
 21
4.190000000000001
 31
0.0
  0
LINE
  5
17E
330
17
100
AcDbEntity
  8
A-SITE-IDEN
100
AcDbLine
 10
8.875007031293945
 20
4.2200000000000015
 30
0.0
 11
8.875007031293945
 21
4.250000000000002
 31
0.0
  0
LINE
  5
17F
330
17
100
AcDbEntity
  8
A-SITE-IDEN
100
AcDbLine
 10
8.875007031293945
 20
4.280000000000001
 30
0.0
 11
8.875007031293945
 21
4.287512421952637
 31
0.0
  0
TEXT
  5
180
330
17
100
AcDbEntity
  8
A-ANNO-TEXT
100
AcDbText
 10
8.856256914105714
 20
4.315637597734986
 30
0.0
 40
0.039999999999999994
  1
upper-tier face
  7
KS-REG
 72
2
 11
8.856256914105714
 21
4.315637597734986
 31
0.0
100
AcDbText
  0
LINE
  5
181
330
17
100
AcDbEntity
  8
A-SITE-SLIN
100
AcDbLine
 10
8.875007031293945
 20
3.62813330083313
 30
0.0
 11
8.919226268936294
 21
3.651471231811036
 31
0.0
  0
LINE
  5
182
330
17
100
AcDbEntity
  8
A-SITE-SLIN
100
AcDbLine
 10
8.950179735285937
 20
3.6678077834955705
 30
0.0
 11
8.994398972928286
 21
3.6911457144734765
 31
0.0
  0
LINE
  5
183
330
17
100
AcDbEntity
  8
A-SITE-SLIN
100
AcDbLine
 10
9.02535243927793
 20
3.707482266158011
 30
0.0
 11
9.069571676920278
 21
3.730820197135917
 31
0.0
  0
LINE
  5
184
330
17
100
AcDbEntity
  8
A-SITE-SLIN
100
AcDbLine
 10
9.100525143269923
 20
3.7471567488204514
 30
0.0
 11
9.144744380912272
 21
3.7704946797983574
 31
0.0
  0
LINE
  5
185
330
17
100
AcDbEntity
  8
A-SITE-SLIN
100
AcDbLine
 10
9.175697847261915
 20
3.786831231482892
 30
0.0
 11
9.219917084904264
 21
3.810169162460798
 31
0.0
  0
LINE
  5
186
330
17
100
AcDbEntity
  8
A-SITE-SLIN
100
AcDbLine
 10
9.250870551253907
 20
3.8265057141453322
 30
0.0
 11
9.295089788896256
 21
3.8498436451232383
 31
0.0
  0
LINE
  5
187
330
17
100
AcDbEntity
  8
A-SITE-SLIN
100
AcDbLine
 10
9.3260432552459
 20
3.8661801968077727
 30
0.0
 11
9.370262492888248
 21
3.8895181277856787
 31
0.0
  0
LINE
  5
188
330
17
100
AcDbEntity
  8
A-SITE-SLIN
100
AcDbLine
 10
9.401215959237891
 20
3.905854679470213
 30
0.0
 11
9.44543519688024
 21
3.929192610448119
 31
0.0
  0
LINE
  5
189
330
17
100
AcDbEntity
  8
A-SITE-SLIN
100
AcDbLine
 10
9.476388663229885
 20
3.9455291621326536
 30
0.0
 11
9.520607900872234
 21
3.9688670931105596
 31
0.0
  0
LINE
  5
18A
330
17
100
AcDbEntity
  8
A-SITE-SLIN
100
AcDbLine
 10
9.551561367221877
 20
3.985203644795094
 30
0.0
 11
9.595780604864226
 21
4.008541575773
 31
0.0
  0
LINE
  5
18B
330
17
100
AcDbEntity
  8
A-SITE-SLIN
100
AcDbLine
 10
9.62673407121387
 20
4.0248781274575345
 30
0.0
 11
9.670953308856218
 21
4.0482160584354405
 31
0.0
  0
LINE
  5
18C
330
17
100
AcDbEntity
  8
A-SITE-SLIN
100
AcDbLine
 10
9.701906775205861
 20
4.064552610119975
 30
0.0
 11
9.746126012848212
 21
4.087890541097881
 31
0.0
  0
LINE
  5
18D
330
17
100
AcDbEntity
  8
A-SITE-SLIN
100
AcDbLine
 10
9.777079479197855
 20
4.104227092782415
 30
0.0
 11
9.821298716840204
 21
4.127565023760321
 31
0.0
  0
LINE
  5
18E
330
17
100
AcDbEntity
  8
A-SITE-SLIN
100
AcDbLine
 10
9.852252183189847
 20
4.143901575444856
 30
0.0
 11
9.896471420832196
 21
4.167239506422762
 31
0.0
  0
HATCH
  5
18F
330
17
100
AcDbEntity
  8
A-SITE-CUTL
 62
7
420
14191242
100
AcDbHatch
 10
0.0
 20
0.0
 30
0.0
210
0.0
220
0.0
230
1.0
  2
SOLID
 70
1
 71
0
 91
1
 92
3
 72
0
 73
1
 93
12
 10
7.75
 20
2.3
 10
7.75
 20
2.50976693604335
 10
8.125002343764649
 20
2.50976693604335
 10
8.125002343764649
 20
2.6914086963043515
 10
8.500004687529296
 20
2.6914086963043515
 10
8.500004687529296
 20
2.873050456565353
 10
8.875007031293945
 20
2.873050456565353
 10
8.875007031293945
 20
3.0546922168263553
 10
9.250009375058594
 20
3.0546922168263553
 10
9.250009375058594
 20
3.236333977087357
 10
9.625011718823243
 20
3.236333977087357
 10
9.625011718823243
 20
2.3
 97
0
 75
0
 76
1
 98
0
  0
LWPOLYLINE
  5
190
330
17
100
AcDbEntity
  8
A-SITE-CUTL
100
AcDbPolyline
 90
12
 70
1
 10
7.75
 20
2.3
 10
7.75
 20
2.50976693604335
 10
8.125002343764649
 20
2.50976693604335
 10
8.125002343764649
 20
2.6914086963043515
 10
8.500004687529296
 20
2.6914086963043515
 10
8.500004687529296
 20
2.873050456565353
 10
8.875007031293945
 20
2.873050456565353
 10
8.875007031293945
 20
3.0546922168263553
 10
9.250009375058594
 20
3.0546922168263553
 10
9.250009375058594
 20
3.236333977087357
 10
9.625011718823243
 20
3.236333977087357
 10
9.625011718823243
 20
2.3
  0
LINE
  5
191
330
17
100
AcDbEntity
  8
A-SITE-SLIN
100
AcDbLine
 10
9.250009375058594
 20
4.61446759042244
 30
0.0
 11
9.290009375058593
 21
4.61446759042244
 31
0.0
  0
LINE
  5
192
330
17
100
AcDbEntity
  8
A-SITE-SLIN
100
AcDbLine
 10
9.320009375058595
 20
4.61446759042244
 30
0.0
 11
9.360009375058594
 21
4.61446759042244
 31
0.0
  0
LINE
  5
193
330
17
100
AcDbEntity
  8
A-SITE-SLIN
100
AcDbLine
 10
9.390009375058595
 20
4.61446759042244
 30
0.0
 11
9.430009375058594
 21
4.61446759042244
 31
0.0
  0
LINE
  5
194
330
17
100
AcDbEntity
  8
A-SITE-SLIN
100
AcDbLine
 10
9.460009375058595
 20
4.61446759042244
 30
0.0
 11
9.500009375058594
 21
4.61446759042244
 31
0.0
  0
LINE
  5
195
330
17
100
AcDbEntity
  8
A-SITE-SLIN
100
AcDbLine
 10
9.530009375058594
 20
4.61446759042244
 30
0.0
 11
9.570009375058595
 21
4.61446759042244
 31
0.0
  0
LINE
  5
196
330
17
100
AcDbEntity
  8
A-SITE-SLIN
100
AcDbLine
 10
9.600009375058594
 20
4.61446759042244
 30
0.0
 11
9.625011718823243
 21
4.61446759042244
 31
0.0
  0
TEXT
  5
197
330
17
100
AcDbEntity
  8
A-ANNO-TEXT
100
AcDbText
 10
7.7875002343764645
 20
4.670717941987137
 30
0.0
 40
0.043
  1
7'-6" ceiling over row 6 (1003.2) = 12.34'
  7
KS-BOLD
 11
7.7875002343764645
 21
4.670717941987137
 31
0.0
100
AcDbText
  0
TEXT
  5
198
330
17
100
AcDbEntity
  8
A-ANNO-TEXT
100
AcDbText
 10
7.7875002343764645
 20
4.501966887293046
 30
0.0
 40
0.043
  1
deck at recess back 11.33' − structure
  7
KS-REG
 11
7.7875002343764645
 21
4.501966887293046
 31
0.0
100
AcDbText
  0
TEXT
  5
199
330
17
100
AcDbEntity
  8
A-ANNO-TEXT
100
AcDbText
 10
7.7875002343764645
 20
3.6125082031762696
 30
0.0
 40
0.041999999999999996
  1
rows 5-6 stay in the recess
  7
KS-REG
 11
7.7875002343764645
 21
3.6125082031762696
 31
0.0
100
AcDbText
  0
TEXT
  5
19A
330
17
100
AcDbEntity
  8
A-ANNO-TEXT
100
AcDbText
 10
7.7875002343764645
 20
3.4625072656704106
 30
0.0
 40
0.041999999999999996
  1
under the overhang when open
  7
KS-REG
 11
7.7875002343764645
 21
3.4625072656704106
 31
0.0
100
AcDbText
  0
TEXT
  5
19B
330
17
100
AcDbEntity
  8
A-ANNO-TEXT
100
AcDbText
 10
9.437510546940919
 20
4.670717941987137
 30
0.0
 40
0.039999999999999994
  1
need
  7
KS-REG
 72
1
 11
9.437510546940919
 21
4.670717941987137
 31
0.0
100
AcDbText
  0
TEXT
  5
19C
330
17
100
AcDbEntity
  8
A-ANNO-TEXT
100
AcDbText
 10
7.75
 20
7.62
 30
0.0
 40
0.064
  1
4  TELESCOPIC STACK UNDER THE UPPER-TIER FRONT
  7
KS-BOLD
 11
7.75
 21
7.62
 31
0.0
100
AcDbText
  0
LINE
  5
19D
330
17
100
AcDbEntity
  8
A-ANNO-TEXT
100
AcDbLine
 10
7.75
 20
7.58
 30
0.0
 11
10.41901388888889
 21
7.58
 31
0.0
  0
TEXT
  5
19E
330
17
100
AcDbEntity
  8
A-ANNO-TEXT
100
AcDbText
 10
7.75
 20
7.46
 30
0.0
 40
0.045
  1
3/16" = 1'-0" · recessed (Hussey) · N/S as drawn 9.0' · dashed = Rev E 7.08'
  7
KS-REG
 11
7.75
 21
7.46
 31
0.0
100
AcDbText
  0
TEXT
  5
19F
330
17
100
AcDbEntity
  8
A-ANNO-TEXT
100
AcDbText
 10
7.75
 20
4.86
 30
0.0
 40
0.052000000000000005
  1
(a) CLOSED — fits only if structure ≤ 30.6" (as drawn)
  7
KS-BOLD
 11
7.75
 21
4.86
 31
0.0
100
AcDbText
  0
TEXT
  5
1A0
330
17
100
AcDbEntity
  8
A-ANNO-TEXT
100
AcDbText
 10
7.75
 20
2.11
 30
0.0
 40
0.052000000000000005
  1
(b) OPEN — rows 5-6 under the overhang: CONFLICT
  7
KS-BOLD
 11
7.75
 21
2.11
 31
0.0
100
AcDbText
  0
TEXT
  5
1A1
330
17
100
AcDbEntity
  8
A-ANNO-TEXT
100
AcDbText
 10
12.6
 20
10.15
 30
0.0
 40
0.056
  1
AS DRAWN (P2-A-101 Rev F / A-301 Rev D)
  7
KS-BOLD
 72
1
 11
12.6
 21
10.15
 31
0.0
100
AcDbText
  0
LINE
  5
1A2
330
17
100
AcDbEntity
  8
A-ANNO-TEXT
100
AcDbLine
 10
11.37
 20
10.110000000000001
 30
0.0
 11
13.830000000000002
 21
10.110000000000001
 31
0.0
  0
TEXT
  5
1A3
330
17
100
AcDbEntity
  8
A-ANNO-TEXT
100
AcDbText
 10
15.14
 20
10.15
 30
0.0
 40
0.056
  1
REV E BASIS (superseded)
  7
KS-BOLD
 72
1
 11
15.14
 21
10.15
 31
0.0
100
AcDbText
  0
LINE
  5
1A4
330
17
100
AcDbEntity
  8
A-ANNO-TEXT
100
AcDbLine
 10
13.91
 20
10.110000000000001
 30
0.0
 11
16.37
 21
10.110000000000001
 31
0.0
  0
TEXT
  5
1A5
330
17
100
AcDbEntity
  8
A-ANNO-TEXT
100
AcDbText
 10
11.6475
 20
9.99
 30
0.0
 40
0.048
  1
N/S 25'
  7
KS-BOLD
 72
1
 11
11.6475
 21
9.99
 31
0.0
100
AcDbText
  0
TEXT
  5
1A6
330
17
100
AcDbEntity
  8
A-ANNO-TEXT
100
AcDbText
 10
11.6475
 20
9.870000000000001
 30
0.0
 40
0.04599999999999999
  1
seated
  7
KS-REG
 72
1
 11
11.6475
 21
9.870000000000001
 31
0.0
100
AcDbText
  0
TEXT
  5
1A7
330
17
100
AcDbEntity
  8
A-ANNO-TEXT
100
AcDbText
 10
12.2825
 20
9.99
 30
0.0
 40
0.048
  1
N/S 25'
  7
KS-BOLD
 72
1
 11
12.2825
 21
9.99
 31
0.0
100
AcDbText
  0
TEXT
  5
1A8
330
17
100
AcDbEntity
  8
A-ANNO-TEXT
100
AcDbText
 10
12.2825
 20
9.870000000000001
 30
0.0
 40
0.04599999999999999
  1
stand
  7
KS-REG
 72
1
 11
12.2825
 21
9.870000000000001
 31
0.0
100
AcDbText
  0
TEXT
  5
1A9
330
17
100
AcDbEntity
  8
A-ANNO-TEXT
100
AcDbText
 10
12.9175
 20
9.99
 30
0.0
 40
0.048
  1
E 16'
  7
KS-BOLD
 72
1
 11
12.9175
 21
9.99
 31
0.0
100
AcDbText
  0
TEXT
  5
1AA
330
17
100
AcDbEntity
  8
A-ANNO-TEXT
100
AcDbText
 10
12.9175
 20
9.870000000000001
 30
0.0
 40
0.04599999999999999
  1
seated
  7
KS-REG
 72
1
 11
12.9175
 21
9.870000000000001
 31
0.0
100
AcDbText
  0
TEXT
  5
1AB
330
17
100
AcDbEntity
  8
A-ANNO-TEXT
100
AcDbText
 10
13.5525
 20
9.99
 30
0.0
 40
0.048
  1
E 16'
  7
KS-BOLD
 72
1
 11
13.5525
 21
9.99
 31
0.0
100
AcDbText
  0
TEXT
  5
1AC
330
17
100
AcDbEntity
  8
A-ANNO-TEXT
100
AcDbText
 10
13.5525
 20
9.870000000000001
 30
0.0
 40
0.04599999999999999
  1
stand
  7
KS-REG
 72
1
 11
13.5525
 21
9.870000000000001
 31
0.0
100
AcDbText
  0
TEXT
  5
1AD
330
17
100
AcDbEntity
  8
A-ANNO-TEXT
100
AcDbText
 10
14.1875
 20
9.99
 30
0.0
 40
0.048
  1
N/S 25'
  7
KS-BOLD
 72
1
 11
14.1875
 21
9.99
 31
0.0
100
AcDbText
  0
TEXT
  5
1AE
330
17
100
AcDbEntity
  8
A-ANNO-TEXT
100
AcDbText
 10
14.1875
 20
9.870000000000001
 30
0.0
 40
0.04599999999999999
  1
seated
  7
KS-REG
 72
1
 11
14.1875
 21
9.870000000000001
 31
0.0
100
AcDbText
  0
TEXT
  5
1AF
330
17
100
AcDbEntity
  8
A-ANNO-TEXT
100
AcDbText
 10
14.8225
 20
9.99
 30
0.0
 40
0.048
  1
N/S 25'
  7
KS-BOLD
 72
1
 11
14.8225
 21
9.99
 31
0.0
100
AcDbText
  0
TEXT
  5
1B0
330
17
100
AcDbEntity
  8
A-ANNO-TEXT
100
AcDbText
 10
14.8225
 20
9.870000000000001
 30
0.0
 40
0.04599999999999999
  1
stand
  7
KS-REG
 72
1
 11
14.8225
 21
9.870000000000001
 31
0.0
100
AcDbText
  0
TEXT
  5
1B1
330
17
100
AcDbEntity
  8
A-ANNO-TEXT
100
AcDbText
 10
15.4575
 20
9.99
 30
0.0
 40
0.048
  1
E 16'
  7
KS-BOLD
 72
1
 11
15.4575
 21
9.99
 31
0.0
100
AcDbText
  0
TEXT
  5
1B2
330
17
100
AcDbEntity
  8
A-ANNO-TEXT
100
AcDbText
 10
15.4575
 20
9.870000000000001
 30
0.0
 40
0.04599999999999999
  1
seated
  7
KS-REG
 72
1
 11
15.4575
 21
9.870000000000001
 31
0.0
100
AcDbText
  0
TEXT
  5
1B3
330
17
100
AcDbEntity
  8
A-ANNO-TEXT
100
AcDbText
 10
16.0925
 20
9.99
 30
0.0
 40
0.048
  1
E 16'
  7
KS-BOLD
 72
1
 11
16.0925
 21
9.99
 31
0.0
100
AcDbText
  0
TEXT
  5
1B4
330
17
100
AcDbEntity
  8
A-ANNO-TEXT
100
AcDbText
 10
16.0925
 20
9.870000000000001
 30
0.0
 40
0.04599999999999999
  1
stand
  7
KS-REG
 72
1
 11
16.0925
 21
9.870000000000001
 31
0.0
100
AcDbText
  0
TEXT
  5
1B5
330
17
100
AcDbEntity
  8
A-ANNO-TEXT
100
AcDbText
 10
10.57
 20
9.93
 30
0.0
 40
0.048
  1
ROW
  7
KS-BOLD
 11
10.57
 21
9.93
 31
0.0
100
AcDbText
  0
LINE
  5
1B6
330
17
100
AcDbEntity
  8
A-ANNO-TEXT
100
AcDbLine
 10
10.55
 20
9.84
 30
0.0
 11
16.41
 21
9.84
 31
0.0
  0
TEXT
  5
1B7
330
17
100
AcDbEntity
  8
A-ANNO-TEXT
100
AcDbText
 10
10.57
 20
9.672
 30
0.0
 40
0.048
  1
L2
  7
KS-REG
 11
10.57
 21
9.672
 31
0.0
100
AcDbText
  0
TEXT
  5
1B8
330
17
100
AcDbEntity
  8
A-ANNO-TEXT
100
AcDbText
 10
11.6475
 20
9.672
 30
0.0
 40
0.05
  1
190
  7
KS-REG
 72
1
 11
11.6475
 21
9.672
 31
0.0
100
AcDbText
  0
TEXT
  5
1B9
330
17
100
AcDbEntity
  8
A-ANNO-TEXT
100
AcDbText
 10
12.2825
 20
9.672
 30
0.0
 40
0.05
  1
162
  7
KS-REG
 72
1
 11
12.2825
 21
9.672
 31
0.0
100
AcDbText
  0
TEXT
  5
1BA
330
17
100
AcDbEntity
  8
A-ANNO-TEXT
100
AcDbText
 10
12.9175
 20
9.672
 30
0.0
 40
0.05
  1
142
  7
KS-REG
 72
1
 11
12.9175
 21
9.672
 31
0.0
100
AcDbText
  0
TEXT
  5
1BB
330
17
100
AcDbEntity
  8
A-ANNO-TEXT
100
AcDbText
 10
13.5525
 20
9.672
 30
0.0
 40
0.05
  1
101
  7
KS-REG
 72
1
 11
13.5525
 21
9.672
 31
0.0
100
AcDbText
  0
TEXT
  5
1BC
330
17
100
AcDbEntity
  8
A-ANNO-TEXT
100
AcDbText
 10
14.1875
 20
9.672
 30
0.0
 40
0.05
  1
190
  7
KS-REG
 72
1
 11
14.1875
 21
9.672
 31
0.0
100
AcDbText
  0
TEXT
  5
1BD
330
17
100
AcDbEntity
  8
A-ANNO-TEXT
100
AcDbText
 10
14.8225
 20
9.672
 30
0.0
 40
0.05
  1
162
  7
KS-REG
 72
1
 11
14.8225
 21
9.672
 31
0.0
100
AcDbText
  0
TEXT
  5
1BE
330
17
100
AcDbEntity
  8
A-ANNO-TEXT
100
AcDbText
 10
15.4575
 20
9.672
 30
0.0
 40
0.05
  1
142
  7
KS-REG
 72
1
 11
15.4575
 21
9.672
 31
0.0
100
AcDbText
  0
TEXT
  5
1BF
330
17
100
AcDbEntity
  8
A-ANNO-TEXT
100
AcDbText
 10
16.0925
 20
9.672
 30
0.0
 40
0.05
  1
101
  7
KS-REG
 72
1
 11
16.0925
 21
9.672
 31
0.0
100
AcDbText
  0
TEXT
  5
1C0
330
17
100
AcDbEntity
  8
A-ANNO-TEXT
100
AcDbText
 10
10.57
 20
9.524000000000001
 30
0.0
 40
0.048
  1
L3
  7
KS-REG
 11
10.57
 21
9.524000000000001
 31
0.0
100
AcDbText
  0
TEXT
  5
1C1
330
17
100
AcDbEntity
  8
A-ANNO-TEXT
100
AcDbText
 10
11.6475
 20
9.524000000000001
 30
0.0
 40
0.05
  1
178
  7
KS-REG
 72
1
 11
11.6475
 21
9.524000000000001
 31
0.0
100
AcDbText
  0
TEXT
  5
1C2
330
17
100
AcDbEntity
  8
A-ANNO-TEXT
100
AcDbText
 10
12.2825
 20
9.524000000000001
 30
0.0
 40
0.05
  1
152
  7
KS-REG
 72
1
 11
12.2825
 21
9.524000000000001
 31
0.0
100
AcDbText
  0
TEXT
  5
1C3
330
17
100
AcDbEntity
  8
A-ANNO-TEXT
100
AcDbText
 10
12.9175
 20
9.524000000000001
 30
0.0
 40
0.05
  1
129
  7
KS-REG
 72
1
 11
12.9175
 21
9.524000000000001
 31
0.0
100
AcDbText
  0
TEXT
  5
1C4
330
17
100
AcDbEntity
  8
A-ANNO-TEXT
100
AcDbText
 10
13.5525
 20
9.524000000000001
 30
0.0
 40
0.05
  1
92
  7
KS-REG
 72
1
 11
13.5525
 21
9.524000000000001
 31
0.0
100
AcDbText
  0
TEXT
  5
1C5
330
17
100
AcDbEntity
  8
A-ANNO-TEXT
100
AcDbText
 10
14.1875
 20
9.524000000000001
 30
0.0
 40
0.05
  1
178
  7
KS-REG
 72
1
 11
14.1875
 21
9.524000000000001
 31
0.0
100
AcDbText
  0
TEXT
  5
1C6
330
17
100
AcDbEntity
  8
A-ANNO-TEXT
100
AcDbText
 10
14.8225
 20
9.524000000000001
 30
0.0
 40
0.05
  1
152
  7
KS-REG
 72
1
 11
14.8225
 21
9.524000000000001
 31
0.0
100
AcDbText
  0
TEXT
  5
1C7
330
17
100
AcDbEntity
  8
A-ANNO-TEXT
100
AcDbText
 10
15.4575
 20
9.524000000000001
 30
0.0
 40
0.05
  1
129
  7
KS-REG
 72
1
 11
15.4575
 21
9.524000000000001
 31
0.0
100
AcDbText
  0
TEXT
  5
1C8
330
17
100
AcDbEntity
  8
A-ANNO-TEXT
100
AcDbText
 10
16.0925
 20
9.524000000000001
 30
0.0
 40
0.05
  1
92
  7
KS-REG
 72
1
 11
16.0925
 21
9.524000000000001
 31
0.0
100
AcDbText
  0
TEXT
  5
1C9
330
17
100
AcDbEntity
  8
A-ANNO-TEXT
100
AcDbText
 10
10.57
 20
9.376000000000001
 30
0.0
 40
0.048
  1
L4
  7
KS-REG
 11
10.57
 21
9.376000000000001
 31
0.0
100
AcDbText
  0
TEXT
  5
1CA
330
17
100
AcDbEntity
  8
A-ANNO-TEXT
100
AcDbText
 10
11.6475
 20
9.376000000000001
 30
0.0
 40
0.05
  1
167
  7
KS-REG
 72
1
 11
11.6475
 21
9.376000000000001
 31
0.0
100
AcDbText
  0
TEXT
  5
1CB
330
17
100
AcDbEntity
  8
A-ANNO-TEXT
100
AcDbText
 10
12.2825
 20
9.376000000000001
 30
0.0
 40
0.05
  1
142
  7
KS-REG
 72
1
 11
12.2825
 21
9.376000000000001
 31
0.0
100
AcDbText
  0
TEXT
  5
1CC
330
17
100
AcDbEntity
  8
A-ANNO-TEXT
100
AcDbText
 10
12.9175
 20
9.376000000000001
 30
0.0
 40
0.05
  1
118
  7
KS-REG
 72
1
 11
12.9175
 21
9.376000000000001
 31
0.0
100
AcDbText
  0
TEXT
  5
1CD
330
17
100
AcDbEntity
  8
A-ANNO-TEXT
100
AcDbText
 10
13.5525
 20
9.376000000000001
 30
0.0
 40
0.05
  1
84
  7
KS-BOLD
 72
1
 11
13.5525
 21
9.376000000000001
 31
0.0
100
AcDbText
  0
TEXT
  5
1CE
330
17
100
AcDbEntity
  8
A-ANNO-TEXT
100
AcDbText
 10
14.1875
 20
9.376000000000001
 30
0.0
 40
0.05
  1
167
  7
KS-REG
 72
1
 11
14.1875
 21
9.376000000000001
 31
0.0
100
AcDbText
  0
TEXT
  5
1CF
330
17
100
AcDbEntity
  8
A-ANNO-TEXT
100
AcDbText
 10
14.8225
 20
9.376000000000001
 30
0.0
 40
0.05
  1
142
  7
KS-REG
 72
1
 11
14.8225
 21
9.376000000000001
 31
0.0
100
AcDbText
  0
TEXT
  5
1D0
330
17
100
AcDbEntity
  8
A-ANNO-TEXT
100
AcDbText
 10
15.4575
 20
9.376000000000001
 30
0.0
 40
0.05
  1
118
  7
KS-REG
 72
1
 11
15.4575
 21
9.376000000000001
 31
0.0
100
AcDbText
  0
TEXT
  5
1D1
330
17
100
AcDbEntity
  8
A-ANNO-TEXT
100
AcDbText
 10
16.0925
 20
9.376000000000001
 30
0.0
 40
0.05
  1
84
  7
KS-BOLD
 72
1
 11
16.0925
 21
9.376000000000001
 31
0.0
100
AcDbText
  0
TEXT
  5
1D2
330
17
100
AcDbEntity
  8
A-ANNO-TEXT
100
AcDbText
 10
10.57
 20
9.228000000000002
 30
0.0
 40
0.048
  1
L5
  7
KS-REG
 11
10.57
 21
9.228000000000002
 31
0.0
100
AcDbText
  0
TEXT
  5
1D3
330
17
100
AcDbEntity
  8
A-ANNO-TEXT
100
AcDbText
 10
11.6475
 20
9.228000000000002
 30
0.0
 40
0.05
  1
157
  7
KS-REG
 72
1
 11
11.6475
 21
9.228000000000002
 31
0.0
100
AcDbText
  0
TEXT
  5
1D4
330
17
100
AcDbEntity
  8
A-ANNO-TEXT
100
AcDbText
 10
12.2825
 20
9.228000000000002
 30
0.0
 40
0.05
  1
134
  7
KS-REG
 72
1
 11
12.2825
 21
9.228000000000002
 31
0.0
100
AcDbText
  0
TEXT
  5
1D5
330
17
100
AcDbEntity
  8
A-ANNO-TEXT
100
AcDbText
 10
12.9175
 20
9.228000000000002
 30
0.0
 40
0.05
  1
109
  7
KS-REG
 72
1
 11
12.9175
 21
9.228000000000002
 31
0.0
100
AcDbText
  0
TEXT
  5
1D6
330
17
100
AcDbEntity
  8
A-ANNO-TEXT
100
AcDbText
 10
13.5525
 20
9.228000000000002
 30
0.0
 40
0.05
  1
77
  7
KS-BOLD
 72
1
 11
13.5525
 21
9.228000000000002
 31
0.0
100
AcDbText
  0
TEXT
  5
1D7
330
17
100
AcDbEntity
  8
A-ANNO-TEXT
100
AcDbText
 10
14.1875
 20
9.228000000000002
 30
0.0
 40
0.05
  1
157
  7
KS-REG
 72
1
 11
14.1875
 21
9.228000000000002
 31
0.0
100
AcDbText
  0
TEXT
  5
1D8
330
17
100
AcDbEntity
  8
A-ANNO-TEXT
100
AcDbText
 10
14.8225
 20
9.228000000000002
 30
0.0
 40
0.05
  1
134
  7
KS-REG
 72
1
 11
14.8225
 21
9.228000000000002
 31
0.0
100
AcDbText
  0
TEXT
  5
1D9
330
17
100
AcDbEntity
  8
A-ANNO-TEXT
100
AcDbText
 10
15.4575
 20
9.228000000000002
 30
0.0
 40
0.05
  1
109
  7
KS-REG
 72
1
 11
15.4575
 21
9.228000000000002
 31
0.0
100
AcDbText
  0
TEXT
  5
1DA
330
17
100
AcDbEntity
  8
A-ANNO-TEXT
100
AcDbText
 10
16.0925
 20
9.228000000000002
 30
0.0
 40
0.05
  1
77
  7
KS-BOLD
 72
1
 11
16.0925
 21
9.228000000000002
 31
0.0
100
AcDbText
  0
TEXT
  5
1DB
330
17
100
AcDbEntity
  8
A-ANNO-TEXT
100
AcDbText
 10
10.57
 20
9.080000000000002
 30
0.0
 40
0.048
  1
L6
  7
KS-REG
 11
10.57
 21
9.080000000000002
 31
0.0
100
AcDbText
  0
TEXT
  5
1DC
330
17
100
AcDbEntity
  8
A-ANNO-TEXT
100
AcDbText
 10
11.6475
 20
9.080000000000002
 30
0.0
 40
0.05
  1
149
  7
KS-REG
 72
1
 11
11.6475
 21
9.080000000000002
 31
0.0
100
AcDbText
  0
TEXT
  5
1DD
330
17
100
AcDbEntity
  8
A-ANNO-TEXT
100
AcDbText
 10
12.2825
 20
9.080000000000002
 30
0.0
 40
0.05
  1
127
  7
KS-REG
 72
1
 11
12.2825
 21
9.080000000000002
 31
0.0
100
AcDbText
  0
TEXT
  5
1DE
330
17
100
AcDbEntity
  8
A-ANNO-TEXT
100
AcDbText
 10
12.9175
 20
9.080000000000002
 30
0.0
 40
0.05
  1
101
  7
KS-REG
 72
1
 11
12.9175
 21
9.080000000000002
 31
0.0
100
AcDbText
  0
TEXT
  5
1DF
330
17
100
AcDbEntity
  8
A-ANNO-TEXT
100
AcDbText
 10
13.5525
 20
9.080000000000002
 30
0.0
 40
0.05
  1
72
  7
KS-BOLD
 72
1
 11
13.5525
 21
9.080000000000002
 31
0.0
100
AcDbText
  0
TEXT
  5
1E0
330
17
100
AcDbEntity
  8
A-ANNO-TEXT
100
AcDbText
 10
14.1875
 20
9.080000000000002
 30
0.0
 40
0.05
  1
149
  7
KS-REG
 72
1
 11
14.1875
 21
9.080000000000002
 31
0.0
100
AcDbText
  0
TEXT
  5
1E1
330
17
100
AcDbEntity
  8
A-ANNO-TEXT
100
AcDbText
 10
14.8225
 20
9.080000000000002
 30
0.0
 40
0.05
  1
127
  7
KS-REG
 72
1
 11
14.8225
 21
9.080000000000002
 31
0.0
100
AcDbText
  0
TEXT
  5
1E2
330
17
100
AcDbEntity
  8
A-ANNO-TEXT
100
AcDbText
 10
15.4575
 20
9.080000000000002
 30
0.0
 40
0.05
  1
101
  7
KS-REG
 72
1
 11
15.4575
 21
9.080000000000002
 31
0.0
100
AcDbText
  0
TEXT
  5
1E3
330
17
100
AcDbEntity
  8
A-ANNO-TEXT
100
AcDbText
 10
16.0925
 20
9.080000000000002
 30
0.0
 40
0.05
  1
72
  7
KS-BOLD
 72
1
 11
16.0925
 21
9.080000000000002
 31
0.0
100
AcDbText
  0
TEXT
  5
1E4
330
17
100
AcDbEntity
  8
A-ANNO-TEXT
100
AcDbText
 10
10.57
 20
8.932000000000002
 30
0.0
 40
0.048
  1
U1
  7
KS-BOLD
 11
10.57
 21
8.932000000000002
 31
0.0
100
AcDbText
  0
TEXT
  5
1E5
330
17
100
AcDbEntity
  8
A-ANNO-TEXT
100
AcDbText
 10
11.6475
 20
8.932000000000002
 30
0.0
 40
0.05
  1
967
  7
KS-REG
 72
1
 11
11.6475
 21
8.932000000000002
 31
0.0
100
AcDbText
  0
TEXT
  5
1E6
330
17
100
AcDbEntity
  8
A-ANNO-TEXT
100
AcDbText
 10
12.2825
 20
8.932000000000002
 30
0.0
 40
0.05
  1
937
  7
KS-REG
 72
1
 11
12.2825
 21
8.932000000000002
 31
0.0
100
AcDbText
  0
TEXT
  5
1E7
330
17
100
AcDbEntity
  8
A-ANNO-TEXT
100
AcDbText
 10
12.9175
 20
8.932000000000002
 30
0.0
 40
0.05
  1
879
  7
KS-REG
 72
1
 11
12.9175
 21
8.932000000000002
 31
0.0
100
AcDbText
  0
TEXT
  5
1E8
330
17
100
AcDbEntity
  8
A-ANNO-TEXT
100
AcDbText
 10
13.5525
 20
8.932000000000002
 30
0.0
 40
0.05
  1
840
  7
KS-REG
 72
1
 11
13.5525
 21
8.932000000000002
 31
0.0
100
AcDbText
  0
TEXT
  5
1E9
330
17
100
AcDbEntity
  8
A-ANNO-TEXT
100
AcDbText
 10
14.1875
 20
8.932000000000002
 30
0.0
 40
0.05
  1
428
  7
KS-REG
 72
1
 11
14.1875
 21
8.932000000000002
 31
0.0
100
AcDbText
  0
TEXT
  5
1EA
330
17
100
AcDbEntity
  8
A-ANNO-TEXT
100
AcDbText
 10
14.8225
 20
8.932000000000002
 30
0.0
 40
0.05
  1
397
  7
KS-REG
 72
1
 11
14.8225
 21
8.932000000000002
 31
0.0
100
AcDbText
  0
TEXT
  5
1EB
330
17
100
AcDbEntity
  8
A-ANNO-TEXT
100
AcDbText
 10
15.4575
 20
8.932000000000002
 30
0.0
 40
0.05
  1
352
  7
KS-REG
 72
1
 11
15.4575
 21
8.932000000000002
 31
0.0
100
AcDbText
  0
TEXT
  5
1EC
330
17
100
AcDbEntity
  8
A-ANNO-TEXT
100
AcDbText
 10
16.0925
 20
8.932000000000002
 30
0.0
 40
0.05
  1
313
  7
KS-REG
 72
1
 11
16.0925
 21
8.932000000000002
 31
0.0
100
AcDbText
  0
TEXT
  5
1ED
330
17
100
AcDbEntity
  8
A-ANNO-TEXT
100
AcDbText
 10
10.57
 20
8.784000000000002
 30
0.0
 40
0.048
  1
U2
  7
KS-REG
 11
10.57
 21
8.784000000000002
 31
0.0
100
AcDbText
  0
TEXT
  5
1EE
330
17
100
AcDbEntity
  8
A-ANNO-TEXT
100
AcDbText
 10
11.6475
 20
8.784000000000002
 30
0.0
 40
0.05
  1
217
  7
KS-REG
 72
1
 11
11.6475
 21
8.784000000000002
 31
0.0
100
AcDbText
  0
TEXT
  5
1EF
330
17
100
AcDbEntity
  8
A-ANNO-TEXT
100
AcDbText
 10
12.2825
 20
8.784000000000002
 30
0.0
 40
0.05
  1
189
  7
KS-REG
 72
1
 11
12.2825
 21
8.784000000000002
 31
0.0
100
AcDbText
  0
TEXT
  5
1F0
330
17
100
AcDbEntity
  8
A-ANNO-TEXT
100
AcDbText
 10
12.9175
 20
8.784000000000002
 30
0.0
 40
0.05
  1
133
  7
KS-REG
 72
1
 11
12.9175
 21
8.784000000000002
 31
0.0
100
AcDbText
  0
TEXT
  5
1F1
330
17
100
AcDbEntity
  8
A-ANNO-TEXT
100
AcDbText
 10
13.5525
 20
8.784000000000002
 30
0.0
 40
0.05
  1
97
  7
KS-REG
 72
1
 11
13.5525
 21
8.784000000000002
 31
0.0
100
AcDbText
  0
TEXT
  5
1F2
330
17
100
AcDbEntity
  8
A-ANNO-TEXT
100
AcDbText
 10
14.1875
 20
8.784000000000002
 30
0.0
 40
0.05
  1
211
  7
KS-REG
 72
1
 11
14.1875
 21
8.784000000000002
 31
0.0
100
AcDbText
  0
TEXT
  5
1F3
330
17
100
AcDbEntity
  8
A-ANNO-TEXT
100
AcDbText
 10
14.8225
 20
8.784000000000002
 30
0.0
 40
0.05
  1
183
  7
KS-REG
 72
1
 11
14.8225
 21
8.784000000000002
 31
0.0
100
AcDbText
  0
TEXT
  5
1F4
330
17
100
AcDbEntity
  8
A-ANNO-TEXT
100
AcDbText
 10
15.4575
 20
8.784000000000002
 30
0.0
 40
0.05
  1
139
  7
KS-REG
 72
1
 11
15.4575
 21
8.784000000000002
 31
0.0
100
AcDbText
  0
TEXT
  5
1F5
330
17
100
AcDbEntity
  8
A-ANNO-TEXT
100
AcDbText
 10
16.0925
 20
8.784000000000002
 30
0.0
 40
0.05
  1
103
  7
KS-REG
 72
1
 11
16.0925
 21
8.784000000000002
 31
0.0
100
AcDbText
  0
TEXT
  5
1F6
330
17
100
AcDbEntity
  8
A-ANNO-TEXT
100
AcDbText
 10
10.57
 20
8.636000000000003
 30
0.0
 40
0.048
  1
U3
  7
KS-REG
 11
10.57
 21
8.636000000000003
 31
0.0
100
AcDbText
  0
TEXT
  5
1F7
330
17
100
AcDbEntity
  8
A-ANNO-TEXT
100
AcDbText
 10
11.6475
 20
8.636000000000003
 30
0.0
 40
0.05
  1
203
  7
KS-REG
 72
1
 11
11.6475
 21
8.636000000000003
 31
0.0
100
AcDbText
  0
TEXT
  5
1F8
330
17
100
AcDbEntity
  8
A-ANNO-TEXT
100
AcDbText
 10
12.2825
 20
8.636000000000003
 30
0.0
 40
0.05
  1
177
  7
KS-REG
 72
1
 11
12.2825
 21
8.636000000000003
 31
0.0
100
AcDbText
  0
TEXT
  5
1F9
330
17
100
AcDbEntity
  8
A-ANNO-TEXT
100
AcDbText
 10
12.9175
 20
8.636000000000003
 30
0.0
 40
0.05
  1
122
  7
KS-REG
 72
1
 11
12.9175
 21
8.636000000000003
 31
0.0
100
AcDbText
  0
TEXT
  5
1FA
330
17
100
AcDbEntity
  8
A-ANNO-TEXT
100
AcDbText
 10
13.5525
 20
8.636000000000003
 30
0.0
 40
0.05
  1
89
  7
KS-BOLD
 72
1
 11
13.5525
 21
8.636000000000003
 31
0.0
100
AcDbText
  0
TEXT
  5
1FB
330
17
100
AcDbEntity
  8
A-ANNO-TEXT
100
AcDbText
 10
14.1875
 20
8.636000000000003
 30
0.0
 40
0.05
  1
198
  7
KS-REG
 72
1
 11
14.1875
 21
8.636000000000003
 31
0.0
100
AcDbText
  0
TEXT
  5
1FC
330
17
100
AcDbEntity
  8
A-ANNO-TEXT
100
AcDbText
 10
14.8225
 20
8.636000000000003
 30
0.0
 40
0.05
  1
171
  7
KS-REG
 72
1
 11
14.8225
 21
8.636000000000003
 31
0.0
100
AcDbText
  0
TEXT
  5
1FD
330
17
100
AcDbEntity
  8
A-ANNO-TEXT
100
AcDbText
 10
15.4575
 20
8.636000000000003
 30
0.0
 40
0.05
  1
127
  7
KS-REG
 72
1
 11
15.4575
 21
8.636000000000003
 31
0.0
100
AcDbText
  0
TEXT
  5
1FE
330
17
100
AcDbEntity
  8
A-ANNO-TEXT
100
AcDbText
 10
16.0925
 20
8.636000000000003
 30
0.0
 40
0.05
  1
94
  7
KS-REG
 72
1
 11
16.0925
 21
8.636000000000003
 31
0.0
100
AcDbText
  0
TEXT
  5
1FF
330
17
100
AcDbEntity
  8
A-ANNO-TEXT
100
AcDbText
 10
10.57
 20
8.488000000000003
 30
0.0
 40
0.048
  1
U4
  7
KS-REG
 11
10.57
 21
8.488000000000003
 31
0.0
100
AcDbText
  0
TEXT
  5
200
330
17
100
AcDbEntity
  8
A-ANNO-TEXT
100
AcDbText
 10
11.6475
 20
8.488000000000003
 30
0.0
 40
0.05
  1
191
  7
KS-REG
 72
1
 11
11.6475
 21
8.488000000000003
 31
0.0
100
AcDbText
  0
TEXT
  5
201
330
17
100
AcDbEntity
  8
A-ANNO-TEXT
100
AcDbText
 10
12.2825
 20
8.488000000000003
 30
0.0
 40
0.05
  1
166
  7
KS-REG
 72
1
 11
12.2825
 21
8.488000000000003
 31
0.0
100
AcDbText
  0
TEXT
  5
202
330
17
100
AcDbEntity
  8
A-ANNO-TEXT
100
AcDbText
 10
12.9175
 20
8.488000000000003
 30
0.0
 40
0.05
  1
112
  7
KS-REG
 72
1
 11
12.9175
 21
8.488000000000003
 31
0.0
100
AcDbText
  0
TEXT
  5
203
330
17
100
AcDbEntity
  8
A-ANNO-TEXT
100
AcDbText
 10
13.5525
 20
8.488000000000003
 30
0.0
 40
0.05
  1
82
  7
KS-BOLD
 72
1
 11
13.5525
 21
8.488000000000003
 31
0.0
100
AcDbText
  0
TEXT
  5
204
330
17
100
AcDbEntity
  8
A-ANNO-TEXT
100
AcDbText
 10
14.1875
 20
8.488000000000003
 30
0.0
 40
0.05
  1
185
  7
KS-REG
 72
1
 11
14.1875
 21
8.488000000000003
 31
0.0
100
AcDbText
  0
TEXT
  5
205
330
17
100
AcDbEntity
  8
A-ANNO-TEXT
100
AcDbText
 10
14.8225
 20
8.488000000000003
 30
0.0
 40
0.05
  1
161
  7
KS-REG
 72
1
 11
14.8225
 21
8.488000000000003
 31
0.0
100
AcDbText
  0
TEXT
  5
206
330
17
100
AcDbEntity
  8
A-ANNO-TEXT
100
AcDbText
 10
15.4575
 20
8.488000000000003
 30
0.0
 40
0.05
  1
118
  7
KS-REG
 72
1
 11
15.4575
 21
8.488000000000003
 31
0.0
100
AcDbText
  0
TEXT
  5
207
330
17
100
AcDbEntity
  8
A-ANNO-TEXT
100
AcDbText
 10
16.0925
 20
8.488000000000003
 30
0.0
 40
0.05
  1
87
  7
KS-BOLD
 72
1
 11
16.0925
 21
8.488000000000003
 31
0.0
100
AcDbText
  0
TEXT
  5
208
330
17
100
AcDbEntity
  8
A-ANNO-TEXT
100
AcDbText
 10
10.57
 20
8.340000000000003
 30
0.0
 40
0.048
  1
U5
  7
KS-REG
 11
10.57
 21
8.340000000000003
 31
0.0
100
AcDbText
  0
TEXT
  5
209
330
17
100
AcDbEntity
  8
A-ANNO-TEXT
100
AcDbText
 10
11.6475
 20
8.340000000000003
 30
0.0
 40
0.05
  1
179
  7
KS-REG
 72
1
 11
11.6475
 21
8.340000000000003
 31
0.0
100
AcDbText
  0
TEXT
  5
20A
330
17
100
AcDbEntity
  8
A-ANNO-TEXT
100
AcDbText
 10
12.2825
 20
8.340000000000003
 30
0.0
 40
0.05
  1
156
  7
KS-REG
 72
1
 11
12.2825
 21
8.340000000000003
 31
0.0
100
AcDbText
  0
TEXT
  5
20B
330
17
100
AcDbEntity
  8
A-ANNO-TEXT
100
AcDbText
 10
12.9175
 20
8.340000000000003
 30
0.0
 40
0.05
  1
105
  7
KS-REG
 72
1
 11
12.9175
 21
8.340000000000003
 31
0.0
100
AcDbText
  0
TEXT
  5
20C
330
17
100
AcDbEntity
  8
A-ANNO-TEXT
100
AcDbText
 10
13.5525
 20
8.340000000000003
 30
0.0
 40
0.05
  1
76
  7
KS-BOLD
 72
1
 11
13.5525
 21
8.340000000000003
 31
0.0
100
AcDbText
  0
TEXT
  5
20D
330
17
100
AcDbEntity
  8
A-ANNO-TEXT
100
AcDbText
 10
14.1875
 20
8.340000000000003
 30
0.0
 40
0.05
  1
175
  7
KS-REG
 72
1
 11
14.1875
 21
8.340000000000003
 31
0.0
100
AcDbText
  0
TEXT
  5
20E
330
17
100
AcDbEntity
  8
A-ANNO-TEXT
100
AcDbText
 10
14.8225
 20
8.340000000000003
 30
0.0
 40
0.05
  1
151
  7
KS-REG
 72
1
 11
14.8225
 21
8.340000000000003
 31
0.0
100
AcDbText
  0
TEXT
  5
20F
330
17
100
AcDbEntity
  8
A-ANNO-TEXT
100
AcDbText
 10
15.4575
 20
8.340000000000003
 30
0.0
 40
0.05
  1
109
  7
KS-REG
 72
1
 11
15.4575
 21
8.340000000000003
 31
0.0
100
AcDbText
  0
TEXT
  5
210
330
17
100
AcDbEntity
  8
A-ANNO-TEXT
100
AcDbText
 10
16.0925
 20
8.340000000000003
 30
0.0
 40
0.05
  1
81
  7
KS-BOLD
 72
1
 11
16.0925
 21
8.340000000000003
 31
0.0
100
AcDbText
  0
TEXT
  5
211
330
17
100
AcDbEntity
  8
A-ANNO-TEXT
100
AcDbText
 10
10.57
 20
8.192000000000004
 30
0.0
 40
0.048
  1
RAIL (stands)
  7
KS-BOLD
 11
10.57
 21
8.192000000000004
 31
0.0
100
AcDbText
  0
TEXT
  5
212
330
17
100
AcDbEntity
  8
A-ANNO-TEXT
100
AcDbText
 10
11.6475
 20
8.192000000000004
 30
0.0
 40
0.05
  1
736
  7
KS-REG
 72
1
 11
11.6475
 21
8.192000000000004
 31
0.0
100
AcDbText
  0
TEXT
  5
213
330
17
100
AcDbEntity
  8
A-ANNO-TEXT
100
AcDbText
 10
12.2825
 20
8.192000000000004
 30
0.0
 40
0.05
  1
336
  7
KS-REG
 72
1
 11
12.2825
 21
8.192000000000004
 31
0.0
100
AcDbText
  0
TEXT
  5
214
330
17
100
AcDbEntity
  8
A-ANNO-TEXT
100
AcDbText
 10
12.9175
 20
8.192000000000004
 30
0.0
 40
0.05
  1
696
  7
KS-REG
 72
1
 11
12.9175
 21
8.192000000000004
 31
0.0
100
AcDbText
  0
TEXT
  5
215
330
17
100
AcDbEntity
  8
A-ANNO-TEXT
100
AcDbText
 10
13.5525
 20
8.192000000000004
 30
0.0
 40
0.05
  1
296
  7
KS-REG
 72
1
 11
13.5525
 21
8.192000000000004
 31
0.0
100
AcDbText
  0
TEXT
  5
216
330
17
100
AcDbEntity
  8
A-ANNO-TEXT
100
AcDbText
 10
14.1875
 20
8.192000000000004
 30
0.0
 40
0.05
  1
709
  7
KS-REG
 72
1
 11
14.1875
 21
8.192000000000004
 31
0.0
100
AcDbText
  0
TEXT
  5
217
330
17
100
AcDbEntity
  8
A-ANNO-TEXT
100
AcDbText
 10
14.8225
 20
8.192000000000004
 30
0.0
 40
0.05
  1
309
  7
KS-REG
 72
1
 11
14.8225
 21
8.192000000000004
 31
0.0
100
AcDbText
  0
TEXT
  5
218
330
17
100
AcDbEntity
  8
A-ANNO-TEXT
100
AcDbText
 10
15.4575
 20
8.192000000000004
 30
0.0
 40
0.05
  1
673
  7
KS-REG
 72
1
 11
15.4575
 21
8.192000000000004
 31
0.0
100
AcDbText
  0
TEXT
  5
219
330
17
100
AcDbEntity
  8
A-ANNO-TEXT
100
AcDbText
 10
16.0925
 20
8.192000000000004
 30
0.0
 40
0.05
  1
273
  7
KS-REG
 72
1
 11
16.0925
 21
8.192000000000004
 31
0.0
100
AcDbText
  0
TEXT
  5
21A
330
17
100
AcDbEntity
  8
A-ANNO-TEXT
100
AcDbText
 10
10.57
 20
8.044000000000004
 30
0.0
 40
0.04599999999999999
  1
fascia clr (U1)
  7
KS-REG
 11
10.57
 21
8.044000000000004
 31
0.0
100
AcDbText
  0
TEXT
  5
21B
330
17
100
AcDbEntity
  8
A-ANNO-TEXT
100
AcDbText
 10
11.6475
 20
8.044000000000004
 30
0.0
 40
0.048
  1
289
  7
KS-REG
 72
1
 11
11.6475
 21
8.044000000000004
 31
0.0
100
AcDbText
  0
TEXT
  5
21C
330
17
100
AcDbEntity
  8
A-ANNO-TEXT
100
AcDbText
 10
12.2825
 20
8.044000000000004
 30
0.0
 40
0.048
  1
664
  7
KS-REG
 72
1
 11
12.2825
 21
8.044000000000004
 31
0.0
100
AcDbText
  0
TEXT
  5
21D
330
17
100
AcDbEntity
  8
A-ANNO-TEXT
100
AcDbText
 10
12.9175
 20
8.044000000000004
 30
0.0
 40
0.048
  1
215
  7
KS-REG
 72
1
 11
12.9175
 21
8.044000000000004
 31
0.0
100
AcDbText
  0
TEXT
  5
21E
330
17
100
AcDbEntity
  8
A-ANNO-TEXT
100
AcDbText
 10
13.5525
 20
8.044000000000004
 30
0.0
 40
0.048
  1
583
  7
KS-REG
 72
1
 11
13.5525
 21
8.044000000000004
 31
0.0
100
AcDbText
  0
TEXT
  5
21F
330
17
100
AcDbEntity
  8
A-ANNO-TEXT
100
AcDbText
 10
14.1875
 20
8.044000000000004
 30
0.0
 40
0.048
  1
326
  7
KS-REG
 72
1
 11
14.1875
 21
8.044000000000004
 31
0.0
100
AcDbText
  0
TEXT
  5
220
330
17
100
AcDbEntity
  8
A-ANNO-TEXT
100
AcDbText
 10
14.8225
 20
8.044000000000004
 30
0.0
 40
0.048
  1
701
  7
KS-REG
 72
1
 11
14.8225
 21
8.044000000000004
 31
0.0
100
AcDbText
  0
TEXT
  5
221
330
17
100
AcDbEntity
  8
A-ANNO-TEXT
100
AcDbText
 10
15.4575
 20
8.044000000000004
 30
0.0
 40
0.048
  1
263
  7
KS-REG
 72
1
 11
15.4575
 21
8.044000000000004
 31
0.0
100
AcDbText
  0
TEXT
  5
222
330
17
100
AcDbEntity
  8
A-ANNO-TEXT
100
AcDbText
 10
16.0925
 20
8.044000000000004
 30
0.0
 40
0.048
  1
631
  7
KS-REG
 72
1
 11
16.0925
 21
8.044000000000004
 31
0.0
100
AcDbText
  0
TEXT
  5
223
330
17
100
AcDbEntity
  8
A-ANNO-TEXT
100
AcDbText
 10
10.57
 20
7.896000000000004
 30
0.0
 40
0.04599999999999999
  1
front row (ft)
  7
KS-REG
 11
10.57
 21
7.896000000000004
 31
0.0
100
AcDbText
  0
TEXT
  5
224
330
17
100
AcDbEntity
  8
A-ANNO-TEXT
100
AcDbText
 10
11.6475
 20
7.896000000000004
 30
0.0
 40
0.048
  1
9.00
  7
KS-REG
 72
1
 11
11.6475
 21
7.896000000000004
 31
0.0
100
AcDbText
  0
TEXT
  5
225
330
17
100
AcDbEntity
  8
A-ANNO-TEXT
100
AcDbText
 10
12.2825
 20
7.896000000000004
 30
0.0
 40
0.048
  1
9.00
  7
KS-REG
 72
1
 11
12.2825
 21
7.896000000000004
 31
0.0
100
AcDbText
  0
TEXT
  5
226
330
17
100
AcDbEntity
  8
A-ANNO-TEXT
100
AcDbText
 10
12.9175
 20
7.896000000000004
 30
0.0
 40
0.048
  1
9.00
  7
KS-REG
 72
1
 11
12.9175
 21
7.896000000000004
 31
0.0
100
AcDbText
  0
TEXT
  5
227
330
17
100
AcDbEntity
  8
A-ANNO-TEXT
100
AcDbText
 10
13.5525
 20
7.896000000000004
 30
0.0
 40
0.048
  1
9.00
  7
KS-REG
 72
1
 11
13.5525
 21
7.896000000000004
 31
0.0
100
AcDbText
  0
TEXT
  5
228
330
17
100
AcDbEntity
  8
A-ANNO-TEXT
100
AcDbText
 10
14.1875
 20
7.896000000000004
 30
0.0
 40
0.048
  1
7.08
  7
KS-REG
 72
1
 11
14.1875
 21
7.896000000000004
 31
0.0
100
AcDbText
  0
TEXT
  5
229
330
17
100
AcDbEntity
  8
A-ANNO-TEXT
100
AcDbText
 10
14.8225
 20
7.896000000000004
 30
0.0
 40
0.048
  1
7.08
  7
KS-REG
 72
1
 11
14.8225
 21
7.896000000000004
 31
0.0
100
AcDbText
  0
TEXT
  5
22A
330
17
100
AcDbEntity
  8
A-ANNO-TEXT
100
AcDbText
 10
15.4575
 20
7.896000000000004
 30
0.0
 40
0.048
  1
7.08
  7
KS-REG
 72
1
 11
15.4575
 21
7.896000000000004
 31
0.0
100
AcDbText
  0
TEXT
  5
22B
330
17
100
AcDbEntity
  8
A-ANNO-TEXT
100
AcDbText
 10
16.0925
 20
7.896000000000004
 30
0.0
 40
0.048
  1
7.08
  7
KS-REG
 72
1
 11
16.0925
 21
7.896000000000004
 31
0.0
100
AcDbText
  0
LINE
  5
22C
330
17
100
AcDbEntity
  8
A-ANNO-TEXT
100
AcDbLine
 10
10.55
 20
7.8460000000000045
 30
0.0
 11
16.41
 21
7.8460000000000045
 31
0.0
  0
TEXT
  5
22D
330
17
100
AcDbEntity
  8
A-ANNO-TEXT
100
AcDbText
 10
10.55
 20
7.669633333333338
 30
0.0
 40
0.059
  1
METHOD
  7
KS-BOLD
 11
10.55
 21
7.669633333333338
 31
0.0
100
AcDbText
  0
TEXT
  5
22E
330
17
100
AcDbEntity
  8
A-ANNO-TEXT
100
AcDbText
 10
10.55
 20
7.539325000000004
 30
0.0
 40
0.056
  1
•
  7
KS-REG
 11
10.55
 21
7.539325000000004
 31
0.0
100
AcDbText
  0
TEXT
  5
22F
330
17
100
AcDbEntity
  8
A-ANNO-TEXT
100
AcDbText
 10
10.65
 20
7.539325000000004
 30
0.0
 40
0.056
  1
C = D(N + R)/(D + T) − R (Green Guide 12.3), computed from each actual eye position (also covers the step between tiers and the loop rail). Focal
  7
KS-REG
 11
10.65
 21
7.539325000000004
 31
0.0
100
AcDbText
  0
TEXT
  5
230
330
17
100
AcDbEntity
  8
A-ANNO-TEXT
100
AcDbText
 10
10.65
 20
7.436658333333337
 30
0.0
 40
0.056
  1
point = near edge of the nearest mat at floor level (Shane). Eyes: seated 1.2 m above the tread, 0.15 m forward of the row's rear edge; standing
  7
KS-REG
 11
10.65
 21
7.436658333333337
 31
0.0
100
AcDbText
  0
TEXT
  5
231
330
17
100
AcDbEntity
  8
A-ANNO-TEXT
100
AcDbText
 10
10.65
 20
7.3339916666666705
 30
0.0
 40
0.056
  1
1.6 m (5'-3") — secondary sources, see R-020. Grades: ≥ 90 mm PASS (FIFA preferred, CEN/TR 15913 new stands), 60–90 MARGINAL, < 60 FAIL
  7
KS-REG
 11
10.65
 21
7.3339916666666705
 31
0.0
100
AcDbText
  0
TEXT
  5
232
330
17
100
AcDbEntity
  8
A-ANNO-TEXT
100
AcDbText
 10
10.65
 20
7.2313250000000036
 30
0.0
 40
0.056
  1
(FIFA minimum 60).
  7
KS-REG
 11
10.65
 21
7.2313250000000036
 31
0.0
100
AcDbText
  0
TEXT
  5
233
330
17
100
AcDbEntity
  8
A-ANNO-TEXT
100
AcDbText
 10
10.55
 20
7.10299166666667
 30
0.0
 40
0.056
  1
•
  7
KS-REG
 11
10.55
 21
7.10299166666667
 31
0.0
100
AcDbText
  0
TEXT
  5
234
330
17
100
AcDbEntity
  8
A-ANNO-TEXT
100
AcDbText
 10
10.65
 20
7.10299166666667
 30
0.0
 40
0.056
  1
Focal distances from P2-A-101 Rev F: N and S tier fronts 25' from the nearest mat (10' clear + 15' table zone); E tier front 16' (D-053). No west tier.
  7
KS-REG
 11
10.65
 21
7.10299166666667
 31
0.0
100
AcDbText
  0
TEXT
  5
235
330
17
100
AcDbEntity
  8
A-ANNO-TEXT
100
AcDbText
 10
10.65
 20
7.000325000000003
 30
0.0
 40
0.056
  1
Section-only study (2D); corners and wheelchair positions TBD.
  7
KS-REG
 11
10.65
 21
7.000325000000003
 31
0.0
100
AcDbText
  0
TEXT
  5
236
330
17
100
AcDbEntity
  8
A-ANNO-TEXT
100
AcDbText
 10
10.55
 20
6.8370916666666695
 30
0.0
 40
0.059
  1
RESULTS — AS DRAWN (REV F, D-061 DECIDED)
  7
KS-BOLD
 11
10.55
 21
6.8370916666666695
 31
0.0
100
AcDbText
  0
TEXT
  5
237
330
17
100
AcDbEntity
  8
A-ANNO-TEXT
100
AcDbText
 10
10.55
 20
6.706783333333336
 30
0.0
 40
0.056
  1
•
  7
KS-REG
 11
10.55
 21
6.706783333333336
 31
0.0
100
AcDbText
  0
TEXT
  5
238
330
17
100
AcDbEntity
  8
A-ANNO-TEXT
100
AcDbText
 10
10.65
 20
6.706783333333336
 30
0.0
 40
0.056
  1
L2 FF 17'-9", upper 21" per 36" row (3 aisle risers of 7", 12" treads; IBC 1030.14.2), front row 9.0'. Every seated row PASSES: N/S ≥ 149 mm, E ≥
  7
KS-REG
 11
10.65
 21
6.706783333333336
 31
0.0
100
AcDbText
  0
TEXT
  5
239
330
17
100
AcDbEntity
  8
A-ANNO-TEXT
100
AcDbText
 10
10.65
 20
6.604116666666669
 30
0.0
 40
0.056
  1
101 (lower tier governs, same as Rev E). Upper tier seated N/S ≥ 179, E ≥ 105.
  7
KS-REG
 11
10.65
 21
6.604116666666669
 31
0.0
100
AcDbText
  0
TEXT
  5
23A
330
17
100
AcDbEntity
  8
A-ANNO-TEXT
100
AcDbText
 10
10.55
 20
6.475783333333335
 30
0.0
 40
0.056
  1
•
  7
KS-REG
 11
10.55
 21
6.475783333333335
 31
0.0
100
AcDbText
  0
TEXT
  5
23B
330
17
100
AcDbEntity
  8
A-ANNO-TEXT
100
AcDbText
 10
10.65
 20
6.475783333333335
 30
0.0
 40
0.056
  1
Standing: N/S ≥ 127; E ≥ 72 (L4–L6 and U3–U5 MARGINAL, none FAIL). U1 clears the 26" fascia (289 mm N/S, 215 E seated).
  7
KS-REG
 11
10.65
 21
6.475783333333335
 31
0.0
100
AcDbText
  0
TEXT
  5
23C
330
17
100
AcDbEntity
  8
A-ANNO-TEXT
100
AcDbText
 10
10.55
 20
6.312550000000002
 30
0.0
 40
0.059
  1
REV E BASIS (SUPERSEDED, P2-A-302 Rev B 'as drawn')
  7
KS-BOLD
 11
10.55
 21
6.312550000000002
 31
0.0
100
AcDbText
  0
TEXT
  5
23D
330
17
100
AcDbEntity
  8
A-ANNO-TEXT
100
AcDbText
 10
10.55
 20
6.182241666666668
 30
0.0
 40
0.056
  1
•
  7
KS-REG
 11
10.55
 21
6.182241666666668
 31
0.0
100
AcDbText
  0
TEXT
  5
23E
330
17
100
AcDbEntity
  8
A-ANNO-TEXT
100
AcDbText
 10
10.65
 20
6.182241666666668
 30
0.0
 40
0.056
  1
L2 15', 19"/row, front 7.08': same lower-tier minimums; upper seated N/S ≥ 175, E ≥ 109; standing E ≥ 81. Kept for comparison only.
  7
KS-REG
 11
10.65
 21
6.182241666666668
 31
0.0
100
AcDbText
  0
TEXT
  5
23F
330
17
100
AcDbEntity
  8
A-ANNO-TEXT
100
AcDbText
 10
10.55
 20
6.019008333333335
 30
0.0
 40
0.059
  1
TELESCOPIC STACK UNDER THE UPPER-TIER FRONT (D-049)
  7
KS-BOLD
 11
10.55
 21
6.019008333333335
 31
0.0
100
AcDbText
  0
TEXT
  5
240
330
17
100
AcDbEntity
  8
A-ANNO-TEXT
100
AcDbText
 10
10.55
 20
5.888700000000001
 30
0.0
 40
0.056
  1
•
  7
KS-REG
 11
10.55
 21
5.888700000000001
 31
0.0
100
AcDbText
  0
TEXT
  5
241
330
17
100
AcDbEntity
  8
A-ANNO-TEXT
100
AcDbText
 10
10.65
 20
5.888700000000001
 30
0.0
 40
0.056
  1
Closed stack, recessed (Hussey min 4'-0" deep x 6'-5⅜" high) under the 9.0' front leaves 30.6" for structure + finish (1.5' = 18" ASSUMED) — FITS
  7
KS-REG
 11
10.65
 21
5.888700000000001
 31
0.0
100
AcDbText
  0
TEXT
  5
242
330
17
100
AcDbEntity
  8
A-ANNO-TEXT
100
AcDbText
 10
10.65
 20
5.786033333333334
 30
0.0
 40
0.056
  1
closed. Open: rows 5–6 still sit under the overhang (< 7'-6", 1003.2): keep the stack in front of the upper-tier face (as P2-A-301 Rev D).
  7
KS-REG
 11
10.65
 21
5.786033333333334
 31
0.0
100
AcDbText
  0
TEXT
  5
243
330
17
100
AcDbEntity
  8
A-ANNO-TEXT
100
AcDbText
 10
10.55
 20
5.622800000000001
 30
0.0
 40
0.059
  1
EXIT PATHS (D-061 DECIDED, Option B)
  7
KS-BOLD
 11
10.55
 21
5.622800000000001
 31
0.0
100
AcDbText
  0
TEXT
  5
244
330
17
100
AcDbEntity
  8
A-ANNO-TEXT
100
AcDbText
 10
10.55
 20
5.492491666666667
 30
0.0
 40
0.056
  1
•
  7
KS-REG
 11
10.55
 21
5.492491666666667
 31
0.0
100
AcDbText
  0
TEXT
  5
245
330
17
100
AcDbEntity
  8
A-ANNO-TEXT
100
AcDbText
 10
10.65
 20
5.492491666666667
 30
0.0
 40
0.056
  1
1.5' tier structure (ASSUMED) leaves 7'-6" under row 1 (1003.2 minimum, no margin) and 9.25'+ under rows 2–5: no low band; Exit N, Exit E, SE
  7
KS-REG
 11
10.65
 21
5.492491666666667
 31
0.0
100
AcDbText
  0
TEXT
  5
246
330
17
100
AcDbEntity
  8
A-ANNO-TEXT
100
AcDbText
 10
10.65
 20
5.389825
 30
0.0
 40
0.056
  1
concourse and the lobby / portal / athlete-route edge are clear. 0 seats lost.
  7
KS-REG
 11
10.65
 21
5.389825
 31
0.0
100
AcDbText
  0
ENDSEC
  0
SECTION
  2
OBJECTS
  0
DICTIONARY
  5
A
330
0
100
AcDbDictionary
281
1
  3
ACAD_COLOR
350
B
  3
ACAD_GROUP
350
C
  3
ACAD_LAYOUT
350
D
  3
ACAD_MATERIAL
350
E
  3
ACAD_MLEADERSTYLE
350
F
  3
ACAD_MLINESTYLE
350
10
  3
ACAD_PLOTSETTINGS
350
11
  3
ACAD_PLOTSTYLENAME
350
12
  3
ACAD_SCALELIST
350
14
  3
ACAD_TABLESTYLE
350
15
  3
ACAD_VISUALSTYLE
350
16
  3
EZDXF_META
350
2D
  0
DICTIONARY
  5
B
330
A
100
AcDbDictionary
281
1
  0
DICTIONARY
  5
C
330
A
100
AcDbDictionary
281
1
  0
DICTIONARY
  5
D
330
A
100
AcDbDictionary
281
1
  3
Model
350
1A
  3
Layout1
350
1E
  0
DICTIONARY
  5
E
330
A
100
AcDbDictionary
281
1
  3
ByBlock
350
1F
  3
ByLayer
350
20
  3
Global
350
21
  0
DICTIONARY
  5
F
330
A
100
AcDbDictionary
281
1
  3
Standard
350
2C
  0
DICTIONARY
  5
10
330
A
100
AcDbDictionary
281
1
  3
Standard
350
22
  0
DICTIONARY
  5
11
330
A
100
AcDbDictionary
281
1
  0
ACDBDICTIONARYWDFLT
  5
12
330
A
100
AcDbDictionary
281
1
  3
Normal
350
13
100
AcDbDictionaryWithDefault
340
13
  0
ACDBPLACEHOLDER
  5
13
330
12
  0
DICTIONARY
  5
14
330
A
100
AcDbDictionary
281
1
  0
DICTIONARY
  5
15
330
A
100
AcDbDictionary
281
1
  0
DICTIONARY
  5
16
330
A
100
AcDbDictionary
281
1
  0
LAYOUT
  5
1A
330
D
100
AcDbPlotSettings
  1

  4
A3
  6

 40
7.5
 41
20.0
 42
7.5
 43
20.0
 44
420.0
 45
297.0
 46
0.0
 47
0.0
 48
0.0
 49
0.0
140
0.0
141
0.0
142
1.0
143
1.0
 70
1024
 72
1
 73
0
 74
5
  7

 75
16
 76
0
 77
2
 78
300
147
1.0
148
0.0
149
0.0
100
AcDbLayout
  1
Model
 70
1
 71
0
 10
0.0
 20
0.0
 11
420.0
 21
297.0
 12
0.0
 22
0.0
 32
0.0
 14
1e+20
 24
1e+20
 34
1e+20
 15
-1e+20
 25
-1e+20
 35
-1e+20
146
0.0
 13
0.0
 23
0.0
 33
0.0
 16
1.0
 26
0.0
 36
0.0
 17
0.0
 27
1.0
 37
0.0
 76
1
330
17
  0
LAYOUT
  5
1E
330
D
100
AcDbPlotSettings
  1

  4
A3
  6

 40
7.5
 41
20.0
 42
7.5
 43
20.0
 44
420.0
 45
297.0
 46
0.0
 47
0.0
 48
0.0
 49
0.0
140
0.0
141
0.0
142
1.0
143
1.0
 70
0
 72
1
 73
0
 74
5
  7

 75
16
 76
0
 77
2
 78
300
147
1.0
148
0.0
149
0.0
100
AcDbLayout
  1
Layout1
 70
1
 71
1
 10
0.0
 20
0.0
 11
420.0
 21
297.0
 12
0.0
 22
0.0
 32
0.0
 14
1e+20
 24
1e+20
 34
1e+20
 15
-1e+20
 25
-1e+20
 35
-1e+20
146
0.0
 13
0.0
 23
0.0
 33
0.0
 16
1.0
 26
0.0
 36
0.0
 17
0.0
 27
1.0
 37
0.0
 76
1
330
1B
  0
MATERIAL
  5
1F
102
{ACAD_REACTORS
330
E
102
}
330
E
100
AcDbMaterial
  1
ByBlock
  2

 70
0
 40
1.0
 71
1
 41
1.0
 91
-1023410177
 42
1.0
 72
1
  3

 73
1
 74
1
 75
1
 44
0.5
 73
0
 45
1.0
 46
1.0
 77
1
  4

 78
1
 79
1
170
1
 48
1.0
171
1
  6

172
1
173
1
174
1
140
1.0
141
1.0
175
1
  7

176
1
177
1
178
1
143
1.0
179
1
  8

270
1
271
1
272
1
145
1.0
146
1.0
273
1
  9

274
1
275
1
276
1
 42
1.0
 72
1
  3

 73
1
 74
1
 75
1
 94
63
  0
MATERIAL
  5
20
102
{ACAD_REACTORS
330
E
102
}
330
E
100
AcDbMaterial
  1
ByLayer
  2

 70
0
 40
1.0
 71
1
 41
1.0
 91
-1023410177
 42
1.0
 72
1
  3

 73
1
 74
1
 75
1
 44
0.5
 73
0
 45
1.0
 46
1.0
 77
1
  4

 78
1
 79
1
170
1
 48
1.0
171
1
  6

172
1
173
1
174
1
140
1.0
141
1.0
175
1
  7

176
1
177
1
178
1
143
1.0
179
1
  8

270
1
271
1
272
1
145
1.0
146
1.0
273
1
  9

274
1
275
1
276
1
 42
1.0
 72
1
  3

 73
1
 74
1
 75
1
 94
63
  0
MATERIAL
  5
21
102
{ACAD_REACTORS
330
E
102
}
330
E
100
AcDbMaterial
  1
Global
  2

 70
0
 40
1.0
 71
1
 41
1.0
 91
-1023410177
 42
1.0
 72
1
  3

 73
1
 74
1
 75
1
 44
0.5
 73
0
 45
1.0
 46
1.0
 77
1
  4

 78
1
 79
1
170
1
 48
1.0
171
1
  6

172
1
173
1
174
1
140
1.0
141
1.0
175
1
  7

176
1
177
1
178
1
143
1.0
179
1
  8

270
1
271
1
272
1
145
1.0
146
1.0
273
1
  9

274
1
275
1
276
1
 42
1.0
 72
1
  3

 73
1
 74
1
 75
1
 94
63
  0
MLINESTYLE
  5
22
102
{ACAD_REACTORS
330
10
102
}
330
10
100
AcDbMlineStyle
  2
Standard
 70
0
  3

 62
256
 51
90.0
 52
90.0
 71
2
 49
0.5
 62
256
  6
BYLAYER
 49
-0.5
 62
256
  6
BYLAYER
  0
MLEADERSTYLE
  5
2C
102
{ACAD_REACTORS
330
F
102
}
330
F
100
AcDbMLeaderStyle
179
2
170
2
171
1
172
0
 90
2
 40
0.0
 41
0.0
173
1
 91
-1056964608
 92
-2
290
1
 42
2.0
291
1
 43
8.0
  3
Standard
 44
4.0
300

342
29
174
1
175
1
176
0
178
1
 93
-1056964608
 45
4.0
292
0
297
0
 46
4.0
 94
-1056964608
 47
1.0
 49
1.0
140
1.0
294
1
141
0.0
177
0
142
1.0
295
0
296
0
143
3.75
271
0
272
9
273
9
  0
DICTIONARY
  5
2D
330
A
100
AcDbDictionary
280
1
281
1
  3
CREATED_BY_EZDXF
350
2E
  3
WRITTEN_BY_EZDXF
350
249
  0
DICTIONARYVAR
  5
2E
330
2D
100
DictionaryVariables
280
0
  1
1.4.4 @ 2026-10-04T15:40:43.802796+00:00
  0
DICTIONARYVAR
  5
249
330
2D
100
DictionaryVariables
280
0
  1
1.4.4 @ 2026-10-04T15:40:43.816128+00:00
  0
ENDSEC
  0
EOF
