  0
SECTION
  2
HEADER
  9
$ACADVER
  1
AC1024
  9
$ACADMAINTVER
 70
6
  9
$DWGCODEPAGE
  3
ANSI_1252
  9
$LASTSAVEDBY
  1
ezdxf
  9
$INSBASE
 10
0.0
 20
0.0
 30
0.0
  9
$EXTMIN
 10
1e+20
 20
1e+20
 30
1e+20
  9
$EXTMAX
 10
-1e+20
 20
-1e+20
 30
-1e+20
  9
$LIMMIN
 10
0.0
 20
0.0
  9
$LIMMAX
 10
420.0
 20
297.0
  9
$ORTHOMODE
 70
0
  9
$REGENMODE
 70
1
  9
$FILLMODE
 70
1
  9
$QTEXTMODE
 70
0
  9
$MIRRTEXT
 70
1
  9
$LTSCALE
 40
1.0
  9
$ATTMODE
 70
1
  9
$TEXTSIZE
 40
2.5
  9
$TRACEWID
 40
1.0
  9
$TEXTSTYLE
  7
Standard
  9
$CLAYER
  8
0
  9
$CELTYPE
  6
ByLayer
  9
$CECOLOR
 62
256
  9
$CELTSCALE
 40
1.0
  9
$DISPSILH
 70
0
  9
$DIMSCALE
 40
1.0
  9
$DIMASZ
 40
2.5
  9
$DIMEXO
 40
0.625
  9
$DIMDLI
 40
3.75
  9
$DIMRND
 40
0.0
  9
$DIMDLE
 40
0.0
  9
$DIMEXE
 40
1.25
  9
$DIMTP
 40
0.0
  9
$DIMTM
 40
0.0
  9
$DIMTXT
 40
2.5
  9
$DIMCEN
 40
2.5
  9
$DIMTSZ
 40
0.0
  9
$DIMTOL
 70
0
  9
$DIMLIM
 70
0
  9
$DIMTIH
 70
0
  9
$DIMTOH
 70
0
  9
$DIMSE1
 70
0
  9
$DIMSE2
 70
0
  9
$DIMTAD
 70
1
  9
$DIMZIN
 70
8
  9
$DIMBLK
  1

  9
$DIMASO
 70
1
  9
$DIMSHO
 70
1
  9
$DIMPOST
  1

  9
$DIMAPOST
  1

  9
$DIMALT
 70
0
  9
$DIMALTD
 70
3
  9
$DIMALTF
 40
0.03937007874
  9
$DIMLFAC
 40
1.0
  9
$DIMTOFL
 70
1
  9
$DIMTVP
 40
0.0
  9
$DIMTIX
 70
0
  9
$DIMSOXD
 70
0
  9
$DIMSAH
 70
0
  9
$DIMBLK1
  1

  9
$DIMBLK2
  1

  9
$DIMSTYLE
  2
ISO-25
  9
$DIMCLRD
 70
0
  9
$DIMCLRE
 70
0
  9
$DIMCLRT
 70
0
  9
$DIMTFAC
 40
1.0
  9
$DIMGAP
 40
0.625
  9
$DIMJUST
 70
0
  9
$DIMSD1
 70
0
  9
$DIMSD2
 70
0
  9
$DIMTOLJ
 70
0
  9
$DIMTZIN
 70
8
  9
$DIMALTZ
 70
0
  9
$DIMALTTZ
 70
0
  9
$DIMUPT
 70
0
  9
$DIMDEC
 70
2
  9
$DIMTDEC
 70
2
  9
$DIMALTU
 70
2
  9
$DIMALTTD
 70
3
  9
$DIMTXSTY
  7
Standard
  9
$DIMAUNIT
 70
0
  9
$DIMADEC
 70
0
  9
$DIMALTRND
 40
0.0
  9
$DIMAZIN
 70
0
  9
$DIMDSEP
 70
44
  9
$DIMATFIT
 70
3
  9
$DIMFRAC
 70
0
  9
$DIMLDRBLK
  1

  9
$DIMLUNIT
 70
2
  9
$DIMLWD
 70
-2
  9
$DIMLWE
 70
-2
  9
$DIMTMOVE
 70
0
  9
$DIMFXL
 40
1.0
  9
$DIMFXLON
 70
0
  9
$DIMJOGANG
 40
0.785398163397
  9
$DIMTFILL
 70
0
  9
$DIMTFILLCLR
 70
0
  9
$DIMARCSYM
 70
0
  9
$DIMLTYPE
  6

  9
$DIMLTEX1
  6

  9
$DIMLTEX2
  6

  9
$DIMTXTDIRECTION
 70
0
  9
$LUNITS
 70
2
  9
$LUPREC
 70
4
  9
$SKETCHINC
 40
1.0
  9
$FILLETRAD
 40
10.0
  9
$AUNITS
 70
0
  9
$AUPREC
 70
2
  9
$MENU
  1
.
  9
$ELEVATION
 40
0.0
  9
$PELEVATION
 40
0.0
  9
$THICKNESS
 40
0.0
  9
$LIMCHECK
 70
0
  9
$CHAMFERA
 40
0.0
  9
$CHAMFERB
 40
0.0
  9
$CHAMFERC
 40
0.0
  9
$CHAMFERD
 40
0.0
  9
$SKPOLY
 70
0
  9
$TDCREATE
 40
2461318.444571759
  9
$TDUCREATE
 40
2458532.153996898
  9
$TDUPDATE
 40
2461318.444571759
  9
$TDUUPDATE
 40
2458532.1544311
  9
$TDINDWG
 40
0.0
  9
$TDUSRTIMER
 40
0.0
  9
$USRTIMER
 70
1
  9
$ANGBASE
 50
0.0
  9
$ANGDIR
 70
0
  9
$PDMODE
 70
0
  9
$PDSIZE
 40
0.0
  9
$PLINEWID
 40
0.0
  9
$SPLFRAME
 70
0
  9
$SPLINETYPE
 70
6
  9
$SPLINESEGS
 70
8
  9
$HANDSEED
  5
309
  9
$SURFTAB1
 70
6
  9
$SURFTAB2
 70
6
  9
$SURFTYPE
 70
6
  9
$SURFU
 70
6
  9
$SURFV
 70
6
  9
$UCSBASE
  2

  9
$UCSNAME
  2

  9
$UCSORG
 10
0.0
 20
0.0
 30
0.0
  9
$UCSXDIR
 10
1.0
 20
0.0
 30
0.0
  9
$UCSYDIR
 10
0.0
 20
1.0
 30
0.0
  9
$UCSORTHOREF
  2

  9
$UCSORTHOVIEW
 70
0
  9
$UCSORGTOP
 10
0.0
 20
0.0
 30
0.0
  9
$UCSORGBOTTOM
 10
0.0
 20
0.0
 30
0.0
  9
$UCSORGLEFT
 10
0.0
 20
0.0
 30
0.0
  9
$UCSORGRIGHT
 10
0.0
 20
0.0
 30
0.0
  9
$UCSORGFRONT
 10
0.0
 20
0.0
 30
0.0
  9
$UCSORGBACK
 10
0.0
 20
0.0
 30
0.0
  9
$PUCSBASE
  2

  9
$PUCSNAME
  2

  9
$PUCSORG
 10
0.0
 20
0.0
 30
0.0
  9
$PUCSXDIR
 10
1.0
 20
0.0
 30
0.0
  9
$PUCSYDIR
 10
0.0
 20
1.0
 30
0.0
  9
$PUCSORTHOREF
  2

  9
$PUCSORTHOVIEW
 70
0
  9
$PUCSORGTOP
 10
0.0
 20
0.0
 30
0.0
  9
$PUCSORGBOTTOM
 10
0.0
 20
0.0
 30
0.0
  9
$PUCSORGLEFT
 10
0.0
 20
0.0
 30
0.0
  9
$PUCSORGRIGHT
 10
0.0
 20
0.0
 30
0.0
  9
$PUCSORGFRONT
 10
0.0
 20
0.0
 30
0.0
  9
$PUCSORGBACK
 10
0.0
 20
0.0
 30
0.0
  9
$USERI1
 70
0
  9
$USERI2
 70
0
  9
$USERI3
 70
0
  9
$USERI4
 70
0
  9
$USERI5
 70
0
  9
$USERR1
 40
0.0
  9
$USERR2
 40
0.0
  9
$USERR3
 40
0.0
  9
$USERR4
 40
0.0
  9
$USERR5
 40
0.0
  9
$WORLDVIEW
 70
1
  9
$SHADEDGE
 70
3
  9
$SHADEDIF
 70
70
  9
$TILEMODE
 70
1
  9
$MAXACTVP
 70
64
  9
$PINSBASE
 10
0.0
 20
0.0
 30
0.0
  9
$PLIMCHECK
 70
0
  9
$PEXTMIN
 10
1e+20
 20
1e+20
 30
1e+20
  9
$PEXTMAX
 10
-1e+20
 20
-1e+20
 30
-1e+20
  9
$PLIMMIN
 10
0.0
 20
0.0
  9
$PLIMMAX
 10
420.0
 20
297.0
  9
$UNITMODE
 70
0
  9
$VISRETAIN
 70
1
  9
$PLINEGEN
 70
0
  9
$PSLTSCALE
 70
1
  9
$TREEDEPTH
 70
3020
  9
$CMLSTYLE
  2
Standard
  9
$CMLJUST
 70
0
  9
$CMLSCALE
 40
20.0
  9
$PROXYGRAPHICS
 70
1
  9
$MEASUREMENT
 70
0
  9
$CELWEIGHT
370
-1
  9
$ENDCAPS
280
0
  9
$JOINSTYLE
280
0
  9
$LWDISPLAY
290
0
  9
$INSUNITS
 70
1
  9
$HYPERLINKBASE
  1

  9
$STYLESHEET
  1

  9
$XEDIT
290
1
  9
$CEPSNTYPE
380
0
  9
$PSTYLEMODE
290
1
  9
$FINGERPRINTGUID
  2
{F0BF2CE5-C0A7-4053-A0DB-DE3618CEAFDD}
  9
$VERSIONGUID
  2
{6F6E2DB8-2891-48AE-BE0A-4707E0044711}
  9
$EXTNAMES
290
1
  9
$PSVPSCALE
 40
0.0
  9
$OLESTARTUP
290
0
  9
$SORTENTS
280
127
  9
$INDEXCTL
280
0
  9
$HIDETEXT
280
1
  9
$XCLIPFRAME
280
1
  9
$HALOGAP
280
0
  9
$OBSCOLOR
 70
257
  9
$OBSLTYPE
280
0
  9
$INTERSECTIONDISPLAY
280
0
  9
$INTERSECTIONCOLOR
 70
257
  9
$DIMASSOC
280
2
  9
$PROJECTNAME
  1

  9
$CAMERADISPLAY
290
0
  9
$LENSLENGTH
 40
50.0
  9
$CAMERAHEIGHT
 40
0.0
  9
$STEPSPERSEC
 40
24.0
  9
$STEPSIZE
 40
100.0
  9
$3DDWFPREC
 40
2.0
  9
$PSOLWIDTH
 40
0.005
  9
$PSOLHEIGHT
 40
0.08
  9
$LOFTANG1
 40
1.570796326795
  9
$LOFTANG2
 40
1.570796326795
  9
$LOFTMAG1
 40
0.0
  9
$LOFTMAG2
 40
0.0
  9
$LOFTPARAM
 70
7
  9
$LOFTNORMALS
280
1
  9
$LATITUDE
 40
37.795
  9
$LONGITUDE
 40
-122.394
  9
$NORTHDIRECTION
 40
0.0
  9
$TIMEZONE
 70
-8000
  9
$LIGHTGLYPHDISPLAY
280
1
  9
$TILEMODELIGHTSYNCH
280
1
  9
$CMATERIAL
347
20
  9
$SOLIDHIST
280
0
  9
$SHOWHIST
280
1
  9
$DWFFRAME
280
2
  9
$DGNFRAME
280
2
  9
$REALWORLDSCALE
290
1
  9
$INTERFERECOLOR
 62
256
  9
$CSHADOW
280
0
  9
$SHADOWPLANELOCATION
 40
0.0
  0
ENDSEC
  0
SECTION
  2
CLASSES
  0
CLASS
  1
ACDBDICTIONARYWDFLT
  2
AcDbDictionaryWithDefault
  3
ObjectDBX Classes
 90
0
 91
0
280
0
281
0
  0
CLASS
  1
SUN
  2
AcDbSun
  3
SCENEOE
 90
1153
 91
0
280
0
281
0
  0
CLASS
  1
VISUALSTYLE
  2
AcDbVisualStyle
  3
ObjectDBX Classes
 90
4095
 91
0
280
0
281
0
  0
CLASS
  1
MATERIAL
  2
AcDbMaterial
  3
ObjectDBX Classes
 90
1153
 91
0
280
0
281
0
  0
CLASS
  1
SCALE
  2
AcDbScale
  3
ObjectDBX Classes
 90
1153
 91
0
280
0
281
0
  0
CLASS
  1
TABLESTYLE
  2
AcDbTableStyle
  3
ObjectDBX Classes
 90
4095
 91
0
280
0
281
0
  0
CLASS
  1
MLEADERSTYLE
  2
AcDbMLeaderStyle
  3
ACDB_MLEADERSTYLE_CLASS
 90
4095
 91
0
280
0
281
0
  0
CLASS
  1
DICTIONARYVAR
  2
AcDbDictionaryVar
  3
ObjectDBX Classes
 90
0
 91
0
280
0
281
0
  0
CLASS
  1
CELLSTYLEMAP
  2
AcDbCellStyleMap
  3
ObjectDBX Classes
 90
1152
 91
0
280
0
281
0
  0
CLASS
  1
MENTALRAYRENDERSETTINGS
  2
AcDbMentalRayRenderSettings
  3
SCENEOE
 90
1024
 91
0
280
0
281
0
  0
CLASS
  1
ACDBDETAILVIEWSTYLE
  2
AcDbDetailViewStyle
  3
ObjectDBX Classes
 90
1025
 91
0
280
0
281
0
  0
CLASS
  1
ACDBSECTIONVIEWSTYLE
  2
AcDbSectionViewStyle
  3
ObjectDBX Classes
 90
1025
 91
0
280
0
281
0
  0
CLASS
  1
RASTERVARIABLES
  2
AcDbRasterVariables
  3
ISM
 90
0
 91
0
280
0
281
0
  0
CLASS
  1
ACDBPLACEHOLDER
  2
AcDbPlaceHolder
  3
ObjectDBX Classes
 90
0
 91
0
280
0
281
0
  0
CLASS
  1
LAYOUT
  2
AcDbLayout
  3
ObjectDBX Classes
 90
0
 91
0
280
0
281
0
  0
ENDSEC
  0
SECTION
  2
TABLES
  0
TABLE
  2
VPORT
  5
8
330
0
100
AcDbSymbolTable
 70
1
  0
VPORT
  5
23
330
8
100
AcDbSymbolTableRecord
100
AcDbViewportTableRecord
  2
*Active
 70
0
 10
0.0
 20
0.0
 11
1.0
 21
1.0
 12
0.0
 22
0.0
 13
0.0
 23
0.0
 14
0.5
 24
0.5
 15
0.5
 25
0.5
 16
0.0
 26
0.0
 36
1.0
 17
0.0
 27
0.0
 37
0.0
 40
1000.0
 41
1.34
 42
50.0
 43
0.0
 44
0.0
 50
0.0
 51
0.0
 71
0
 72
1000
 73
1
 74
3
 75
0
 76
0
 77
0
 78
0
281
0
 65
0
146
0.0
  0
ENDTAB
  0
TABLE
  2
LTYPE
  5
2
330
0
100
AcDbSymbolTable
 70
3
  0
LTYPE
  5
24
330
2
100
AcDbSymbolTableRecord
100
AcDbLinetypeTableRecord
  2
ByBlock
 70
0
  3

 72
65
 73
0
 40
0.0
  0
LTYPE
  5
25
330
2
100
AcDbSymbolTableRecord
100
AcDbLinetypeTableRecord
  2
ByLayer
 70
0
  3

 72
65
 73
0
 40
0.0
  0
LTYPE
  5
26
330
2
100
AcDbSymbolTableRecord
100
AcDbLinetypeTableRecord
  2
Continuous
 70
0
  3

 72
65
 73
0
 40
0.0
  0
ENDTAB
  0
TABLE
  2
LAYER
  5
1
330
0
100
AcDbSymbolTable
 70
14
  0
LAYER
  5
27
330
1
100
AcDbSymbolTableRecord
100
AcDbLayerTableRecord
  2
0
 70
0
 62
7
  6
Continuous
370
-3
390
13
347
21
  0
LAYER
  5
28
330
1
100
AcDbSymbolTableRecord
100
AcDbLayerTableRecord
  2
Defpoints
 70
0
 62
7
  6
Continuous
290
0
370
-3
390
13
347
21
  0
LAYER
  5
31
330
1
100
AcDbSymbolTableRecord
100
AcDbLayerTableRecord
  2
G-ANNO-TTLB
 70
0
 62
7
  6
Continuous
370
-3
390
13
347
21
  0
LAYER
  5
32
330
1
100
AcDbSymbolTableRecord
100
AcDbLayerTableRecord
  2
A-ANNO-TEXT
 70
0
 62
7
  6
Continuous
370
-3
390
13
347
21
  0
LAYER
  5
33
330
1
100
AcDbSymbolTableRecord
100
AcDbLayerTableRecord
  2
A-WALL-BLDG
 70
0
 62
7
  6
Continuous
370
-3
390
13
347
21
  0
LAYER
  5
34
330
1
100
AcDbSymbolTableRecord
100
AcDbLayerTableRecord
  2
A-ANNO-DIMS
 70
0
 62
7
  6
Continuous
370
-3
390
13
347
21
  0
LAYER
  5
35
330
1
100
AcDbSymbolTableRecord
100
AcDbLayerTableRecord
  2
A-AREA-OPEN
 70
0
 62
7
  6
Continuous
370
-3
390
13
347
21
  0
LAYER
  5
36
330
1
100
AcDbSymbolTableRecord
100
AcDbLayerTableRecord
  2
A-SEAT-FIXD
 70
0
 62
7
  6
Continuous
370
-3
390
13
347
21
  0
LAYER
  5
37
330
1
100
AcDbSymbolTableRecord
100
AcDbLayerTableRecord
  2
A-AREA-IDEN
 70
0
 62
7
  6
Continuous
370
-3
390
13
347
21
  0
LAYER
  5
38
330
1
100
AcDbSymbolTableRecord
100
AcDbLayerTableRecord
  2
A-FLOR-TRAK
 70
0
 62
7
  6
Continuous
370
-3
390
13
347
21
  0
LAYER
  5
39
330
1
100
AcDbSymbolTableRecord
100
AcDbLayerTableRecord
  2
A-FLOR-GRDR
 70
0
 62
7
  6
Continuous
370
-3
390
13
347
21
  0
LAYER
  5
3A
330
1
100
AcDbSymbolTableRecord
100
AcDbLayerTableRecord
  2
A-AREA-BLCK
 70
0
 62
7
  6
Continuous
370
-3
390
13
347
21
  0
LAYER
  5
3B
330
1
100
AcDbSymbolTableRecord
100
AcDbLayerTableRecord
  2
A-FLOR-STRS
 70
0
 62
7
  6
Continuous
370
-3
390
13
347
21
  0
LAYER
  5
3C
330
1
100
AcDbSymbolTableRecord
100
AcDbLayerTableRecord
  2
A-ANNO-TABL
 70
0
 62
7
  6
Continuous
370
-3
390
13
347
21
  0
ENDTAB
  0
TABLE
  2
STYLE
  5
5
330
0
100
AcDbSymbolTable
 70
3
  0
STYLE
  5
29
330
5
100
AcDbSymbolTableRecord
100
AcDbTextStyleTableRecord
  2
Standard
 70
0
 40
0.0
 41
1.0
 50
0.0
 71
0
 42
2.5
  3
txt
  4

  0
STYLE
  5
2F
330
5
100
AcDbSymbolTableRecord
100
AcDbTextStyleTableRecord
  2
KS-REG
 70
0
 40
0.0
 41
1.0
 50
0.0
 71
0
 42
2.5
  3
DejaVuSans.ttf
  4

  0
STYLE
  5
30
330
5
100
AcDbSymbolTableRecord
100
AcDbTextStyleTableRecord
  2
KS-BOLD
 70
0
 40
0.0
 41
1.0
 50
0.0
 71
0
 42
2.5
  3
DejaVuSans-Bold.ttf
  4

  0
ENDTAB
  0
TABLE
  2
VIEW
  5
7
330
0
100
AcDbSymbolTable
 70
0
  0
ENDTAB
  0
TABLE
  2
UCS
  5
6
330
0
100
AcDbSymbolTable
 70
0
  0
ENDTAB
  0
TABLE
  2
APPID
  5
3
330
0
100
AcDbSymbolTable
 70
3
  0
APPID
  5
2A
330
3
100
AcDbSymbolTableRecord
100
AcDbRegAppTableRecord
  2
ACAD
 70
0
  0
APPID
  5
306
330
3
100
AcDbSymbolTableRecord
100
AcDbRegAppTableRecord
  2
HATCHBACKGROUNDCOLOR
 70
0
  0
APPID
  5
307
330
3
100
AcDbSymbolTableRecord
100
AcDbRegAppTableRecord
  2
EZDXF
 70
0
  0
ENDTAB
  0
TABLE
  2
DIMSTYLE
  5
4
330
0
100
AcDbSymbolTable
 70
1
100
AcDbDimStyleTable
  0
DIMSTYLE
105
2B
330
4
100
AcDbSymbolTableRecord
100
AcDbDimStyleTableRecord
  2
Standard
 70
0
 40
1.0
 41
2.5
 42
0.625
 43
3.75
 44
1.25
 45
0.0
 46
0.0
 47
0.0
 48
0.0
 49
2.5
140
2.5
141
2.5
142
0.0
143
0.03937007874
144
1.0
145
0.0
146
1.0
147
0.625
148
0.0
 69
0
 70
0
 71
0
 72
0
 73
0
 74
0
 75
0
 76
0
 77
1
 78
8
 79
3
170
0
171
3
172
1
173
0
174
0
175
0
176
0
177
0
178
0
179
2
271
2
272
2
273
2
274
3
275
0
276
0
277
2
278
44
279
0
280
0
281
0
282
0
283
0
284
8
285
0
286
0
288
0
289
3
290
0
371
-2
372
-2
  0
ENDTAB
  0
TABLE
  2
BLOCK_RECORD
  5
9
330
0
100
AcDbSymbolTable
 70
2
  0
BLOCK_RECORD
  5
17
330
9
100
AcDbSymbolTableRecord
100
AcDbBlockTableRecord
  2
*Model_Space
340
1A
 70
0
280
1
281
0
  0
BLOCK_RECORD
  5
1B
330
9
100
AcDbSymbolTableRecord
100
AcDbBlockTableRecord
  2
*Paper_Space
340
1E
 70
0
280
1
281
0
  0
ENDTAB
  0
ENDSEC
  0
SECTION
  2
BLOCKS
  0
BLOCK
  5
18
330
17
100
AcDbEntity
  8
0
100
AcDbBlockBegin
  2
*Model_Space
 70
0
 10
0.0
 20
0.0
 30
0.0
  3
*Model_Space
  1

  0
ENDBLK
  5
19
330
17
100
AcDbEntity
  8
0
100
AcDbBlockEnd
  0
BLOCK
  5
1C
330
1B
100
AcDbEntity
  8
0
100
AcDbBlockBegin
  2
*Paper_Space
 70
0
 10
0.0
 20
0.0
 30
0.0
  3
*Paper_Space
  1

  0
ENDBLK
  5
1D
330
1B
100
AcDbEntity
  8
0
100
AcDbBlockEnd
  0
ENDSEC
  0
SECTION
  2
ENTITIES
  0
LWPOLYLINE
  5
3D
330
17
100
AcDbEntity
  8
G-ANNO-TTLB
100
AcDbPolyline
 90
4
 70
1
 10
0.5
 20
0.5
 10
16.5
 20
0.5
 10
16.5
 20
10.5
 10
0.5
 20
10.5
  0
LWPOLYLINE
  5
3E
330
17
100
AcDbEntity
  8
G-ANNO-TTLB
100
AcDbPolyline
 90
4
 70
1
 10
0.5
 20
1.45
 10
16.5
 20
1.45
 10
16.5
 20
1.85
 10
0.5
 20
1.85
  0
TEXT
  5
3F
330
17
100
AcDbEntity
  8
G-ANNO-TTLB
100
AcDbText
 10
8.5
 20
1.5699999999999998
 30
0.0
 40
0.16999999999999998
  1
PRELIMINARY — CONCEPTUAL DESIGN — NOT FOR CONSTRUCTION
  7
KS-BOLD
 72
1
 11
8.5
 21
1.5699999999999998
 31
0.0
100
AcDbText
  0
LINE
  5
40
330
17
100
AcDbEntity
  8
G-ANNO-TTLB
100
AcDbLine
 10
0.5
 20
1.45
 30
0.0
 11
16.5
 21
1.45
 31
0.0
  0
TEXT
  5
41
330
17
100
AcDbEntity
  8
G-ANNO-TTLB
100
AcDbText
 10
0.58
 20
1.28
 30
0.0
 40
0.06999999999999999
  1
PROJECT
  7
KS-REG
 11
0.58
 21
1.28
 31
0.0
100
AcDbText
  0
TEXT
  5
42
330
17
100
AcDbEntity
  8
G-ANNO-TTLB
100
AcDbText
 10
0.58
 20
0.9991666666666666
 30
0.0
 40
0.11499999999999999
  1
Hazel Green Regional Athletic Complex
  7
KS-BOLD
 11
0.58
 21
0.9991666666666666
 31
0.0
100
AcDbText
  0
TEXT
  5
43
330
17
100
AcDbEntity
  8
G-ANNO-TTLB
100
AcDbText
 10
0.58
 20
0.7883333333333333
 30
0.0
 40
0.11499999999999999
  1
Trojan Horse Arena · Hazel Green area, Madison
  7
KS-BOLD
 11
0.58
 21
0.7883333333333333
 31
0.0
100
AcDbText
  0
TEXT
  5
44
330
17
100
AcDbEntity
  8
G-ANNO-TTLB
100
AcDbText
 10
0.58
 20
0.5775
 30
0.0
 40
0.11499999999999999
  1
County, Alabama (site TBD, D-006)
  7
KS-BOLD
 11
0.58
 21
0.5775
 31
0.0
100
AcDbText
  0
LINE
  5
45
330
17
100
AcDbEntity
  8
G-ANNO-TTLB
100
AcDbLine
 10
5.2
 20
0.5
 30
0.0
 11
5.2
 21
1.45
 31
0.0
  0
TEXT
  5
46
330
17
100
AcDbEntity
  8
G-ANNO-TTLB
100
AcDbText
 10
5.28
 20
1.28
 30
0.0
 40
0.06999999999999999
  1
PHASE
  7
KS-REG
 11
5.28
 21
1.28
 31
0.0
100
AcDbText
  0
TEXT
  5
47
330
17
100
AcDbEntity
  8
G-ANNO-TTLB
100
AcDbText
 10
5.28
 20
0.9716666666666667
 30
0.0
 40
0.13
  1
PHASE 2
  7
KS-BOLD
 11
5.28
 21
0.9716666666666667
 31
0.0
100
AcDbText
  0
LINE
  5
48
330
17
100
AcDbEntity
  8
G-ANNO-TTLB
100
AcDbLine
 10
6.7
 20
0.5
 30
0.0
 11
6.7
 21
1.45
 31
0.0
  0
TEXT
  5
49
330
17
100
AcDbEntity
  8
G-ANNO-TTLB
100
AcDbText
 10
6.78
 20
1.28
 30
0.0
 40
0.06999999999999999
  1
SHEET TITLE
  7
KS-REG
 11
6.78
 21
1.28
 31
0.0
100
AcDbText
  0
TEXT
  5
4A
330
17
100
AcDbEntity
  8
G-ANNO-TTLB
100
AcDbText
 10
6.78
 20
0.9991666666666666
 30
0.0
 40
0.11499999999999999
  1
OVERALL FLOOR PLAN
  7
KS-BOLD
 11
6.78
 21
0.9991666666666666
 31
0.0
100
AcDbText
  0
TEXT
  5
4B
330
17
100
AcDbEntity
  8
G-ANNO-TTLB
100
AcDbText
 10
6.78
 20
0.7883333333333333
 30
0.0
 40
0.11499999999999999
  1
LEVEL 2 · BLOCK PLAN
  7
KS-BOLD
 11
6.78
 21
0.7883333333333333
 31
0.0
100
AcDbText
  0
LINE
  5
4C
330
17
100
AcDbEntity
  8
G-ANNO-TTLB
100
AcDbLine
 10
9.8
 20
0.5
 30
0.0
 11
9.8
 21
1.45
 31
0.0
  0
TEXT
  5
4D
330
17
100
AcDbEntity
  8
G-ANNO-TTLB
100
AcDbText
 10
9.88
 20
1.28
 30
0.0
 40
0.06999999999999999
  1
SCALE
  7
KS-REG
 11
9.88
 21
1.28
 31
0.0
100
AcDbText
  0
TEXT
  5
4E
330
17
100
AcDbEntity
  8
G-ANNO-TTLB
100
AcDbText
 10
9.88
 20
0.9716666666666667
 30
0.0
 40
0.13
  1
1/32" =
  7
KS-BOLD
 11
9.88
 21
0.9716666666666667
 31
0.0
100
AcDbText
  0
TEXT
  5
4F
330
17
100
AcDbEntity
  8
G-ANNO-TTLB
100
AcDbText
 10
9.88
 20
0.7333333333333334
 30
0.0
 40
0.13
  1
1'-0"
  7
KS-BOLD
 11
9.88
 21
0.7333333333333334
 31
0.0
100
AcDbText
  0
LINE
  5
50
330
17
100
AcDbEntity
  8
G-ANNO-TTLB
100
AcDbLine
 10
10.700000000000001
 20
0.5
 30
0.0
 11
10.700000000000001
 21
1.45
 31
0.0
  0
TEXT
  5
51
330
17
100
AcDbEntity
  8
G-ANNO-TTLB
100
AcDbText
 10
10.780000000000001
 20
1.28
 30
0.0
 40
0.06999999999999999
  1
DATE
  7
KS-REG
 11
10.780000000000001
 21
1.28
 31
0.0
100
AcDbText
  0
TEXT
  5
52
330
17
100
AcDbEntity
  8
G-ANNO-TTLB
100
AcDbText
 10
10.780000000000001
 20
0.9716666666666667
 30
0.0
 40
0.13
  1
October
  7
KS-BOLD
 11
10.780000000000001
 21
0.9716666666666667
 31
0.0
100
AcDbText
  0
TEXT
  5
53
330
17
100
AcDbEntity
  8
G-ANNO-TTLB
100
AcDbText
 10
10.780000000000001
 20
0.7333333333333334
 30
0.0
 40
0.13
  1
2026
  7
KS-BOLD
 11
10.780000000000001
 21
0.7333333333333334
 31
0.0
100
AcDbText
  0
LINE
  5
54
330
17
100
AcDbEntity
  8
G-ANNO-TTLB
100
AcDbLine
 10
12.15
 20
0.5
 30
0.0
 11
12.15
 21
1.45
 31
0.0
  0
TEXT
  5
55
330
17
100
AcDbEntity
  8
G-ANNO-TTLB
100
AcDbText
 10
12.23
 20
1.28
 30
0.0
 40
0.06999999999999999
  1
REV
  7
KS-REG
 11
12.23
 21
1.28
 31
0.0
100
AcDbText
  0
TEXT
  5
56
330
17
100
AcDbEntity
  8
G-ANNO-TTLB
100
AcDbText
 10
12.23
 20
0.9716666666666667
 30
0.0
 40
0.13
  1
F
  7
KS-BOLD
 11
12.23
 21
0.9716666666666667
 31
0.0
100
AcDbText
  0
LINE
  5
57
330
17
100
AcDbEntity
  8
G-ANNO-TTLB
100
AcDbLine
 10
12.9
 20
0.5
 30
0.0
 11
12.9
 21
1.45
 31
0.0
  0
TEXT
  5
58
330
17
100
AcDbEntity
  8
G-ANNO-TTLB
100
AcDbText
 10
12.98
 20
1.28
 30
0.0
 40
0.06999999999999999
  1
DRAWN BY
  7
KS-REG
 11
12.98
 21
1.28
 31
0.0
100
AcDbText
  0
TEXT
  5
59
330
17
100
AcDbEntity
  8
G-ANNO-TTLB
100
AcDbText
 10
12.98
 20
1.0358333333333332
 30
0.0
 40
0.095
  1
Drawn by KEYSTONE (AI) for
  7
KS-REG
 11
12.98
 21
1.0358333333333332
 31
0.0
100
AcDbText
  0
TEXT
  5
5A
330
17
100
AcDbEntity
  8
G-ANNO-TTLB
100
AcDbText
 10
12.98
 20
0.8616666666666665
 30
0.0
 40
0.095
  1
Shane Brazelton
  7
KS-REG
 11
12.98
 21
0.8616666666666665
 31
0.0
100
AcDbText
  0
LINE
  5
5B
330
17
100
AcDbEntity
  8
G-ANNO-TTLB
100
AcDbLine
 10
15.0
 20
0.5
 30
0.0
 11
15.0
 21
1.45
 31
0.0
  0
TEXT
  5
5C
330
17
100
AcDbEntity
  8
G-ANNO-TTLB
100
AcDbText
 10
15.08
 20
1.28
 30
0.0
 40
0.06999999999999999
  1
SHEET
  7
KS-REG
 11
15.08
 21
1.28
 31
0.0
100
AcDbText
  0
TEXT
  5
5D
330
17
100
AcDbEntity
  8
G-ANNO-TTLB
100
AcDbText
 10
15.75
 20
0.77
 30
0.0
 40
0.18
  1
P2-A-102
  7
KS-BOLD
 72
1
 11
15.75
 21
0.77
 31
0.0
100
AcDbText
  0
LINE
  5
5E
330
17
100
AcDbEntity
  8
A-WALL-BLDG
100
AcDbLine
 10
1.12
 20
2.35
 30
0.0
 11
7.6825
 21
2.35
 31
0.0
  0
LINE
  5
5F
330
17
100
AcDbEntity
  8
A-WALL-BLDG
100
AcDbLine
 10
7.6825
 20
2.35
 30
0.0
 11
7.6825
 21
10.433343749999999
 31
0.0
  0
LINE
  5
60
330
17
100
AcDbEntity
  8
A-WALL-BLDG
100
AcDbLine
 10
7.6825
 20
10.433343749999999
 30
0.0
 11
6.92990625
 21
10.433343749999999
 31
0.0
  0
LINE
  5
61
330
17
100
AcDbEntity
  8
A-WALL-BLDG
100
AcDbLine
 10
6.92990625
 20
10.433343749999999
 30
0.0
 11
6.92990625
 21
10.225
 31
0.0
  0
LINE
  5
62
330
17
100
AcDbEntity
  8
A-WALL-BLDG
100
AcDbLine
 10
6.92990625
 20
10.225
 30
0.0
 11
1.12
 21
10.225
 31
0.0
  0
LINE
  5
63
330
17
100
AcDbEntity
  8
A-WALL-BLDG
100
AcDbLine
 10
1.12
 20
10.225
 30
0.0
 11
1.12
 21
2.35
 31
0.0
  0
LINE
  5
64
330
17
100
AcDbEntity
  8
A-ANNO-DIMS
100
AcDbLine
 10
1.12
 20
2.06875
 30
0.0
 11
7.6825
 21
2.06875
 31
0.0
  0
LINE
  5
65
330
17
100
AcDbEntity
  8
A-ANNO-DIMS
100
AcDbLine
 10
1.12
 20
1.990625
 30
0.0
 11
1.12
 21
2.146875
 31
0.0
  0
LINE
  5
66
330
17
100
AcDbEntity
  8
A-ANNO-DIMS
100
AcDbLine
 10
7.6825
 20
1.990625
 30
0.0
 11
7.6825
 21
2.146875
 31
0.0
  0
TEXT
  5
67
330
17
100
AcDbEntity
  8
A-ANNO-DIMS
100
AcDbText
 10
4.40125
 20
1.92875
 30
0.0
 40
0.06999999999999999
  1
210'-0"  (building 210 x 252 ft + 24.08 x 6.67 ft NE stair tower = 53,081 SF footprint)
  7
KS-REG
 72
1
 11
4.40125
 21
1.92875
 31
0.0
100
AcDbText
  0
LINE
  5
68
330
17
100
AcDbEntity
  8
A-ANNO-DIMS
100
AcDbLine
 10
0.8387500000000001
 20
2.35
 30
0.0
 11
0.8387500000000001
 21
10.225
 31
0.0
  0
LINE
  5
69
330
17
100
AcDbEntity
  8
A-ANNO-DIMS
100
AcDbLine
 10
0.7606250000000001
 20
2.35
 30
0.0
 11
0.9168750000000001
 21
2.35
 31
0.0
  0
LINE
  5
6A
330
17
100
AcDbEntity
  8
A-ANNO-DIMS
100
AcDbLine
 10
0.7606250000000001
 20
10.225
 30
0.0
 11
0.9168750000000001
 21
10.225
 31
0.0
  0
TEXT
  5
6B
330
17
100
AcDbEntity
  8
A-ANNO-DIMS
100
AcDbText
 10
0.77875
 20
6.2875
 30
0.0
 40
0.06999999999999999
  1
252'-0"
 50
90.0
  7
KS-REG
 72
1
 11
0.77875
 21
6.2875
 31
0.0
100
AcDbText
  0
LWPOLYLINE
  5
6C
330
17
100
AcDbEntity
  8
A-AREA-OPEN
100
AcDbPolyline
 90
4
 70
1
 10
3.745
 20
2.35
 10
5.5575
 20
2.35
 10
5.5575
 20
3.4125
 10
3.745
 20
3.4125
  0
LINE
  5
6D
330
17
100
AcDbEntity
  8
A-AREA-OPEN
100
AcDbLine
 10
3.745
 20
2.35
 30
0.0
 11
3.7967618782058596
 21
2.380343169982745
 31
0.0
  0
LINE
  5
6E
330
17
100
AcDbEntity
  8
A-AREA-OPEN
100
AcDbLine
 10
3.848523756411719
 20
2.4106863399654905
 30
0.0
 11
3.9002856346175787
 21
2.4410295099482355
 31
0.0
  0
LINE
  5
6F
330
17
100
AcDbEntity
  8
A-AREA-OPEN
100
AcDbLine
 10
3.9520475128234382
 20
2.471372679930981
 30
0.0
 11
4.003809391029297
 21
2.501715849913726
 31
0.0
  0
LINE
  5
70
330
17
100
AcDbEntity
  8
A-AREA-OPEN
100
AcDbLine
 10
4.055571269235157
 20
2.5320590198964714
 30
0.0
 11
4.107333147441016
 21
2.5624021898792164
 31
0.0
  0
LINE
  5
71
330
17
100
AcDbEntity
  8
A-AREA-OPEN
100
AcDbLine
 10
4.1590950256468755
 20
2.592745359861962
 30
0.0
 11
4.2108569038527355
 21
2.623088529844707
 31
0.0
  0
LINE
  5
72
330
17
100
AcDbEntity
  8
A-AREA-OPEN
100
AcDbLine
 10
4.2626187820585955
 20
2.6534316998274523
 30
0.0
 11
4.3143806602644545
 21
2.6837748698101973
 31
0.0
  0
LINE
  5
73
330
17
100
AcDbEntity
  8
A-AREA-OPEN
100
AcDbLine
 10
4.366142538470314
 20
2.7141180397929427
 30
0.0
 11
4.3975
 21
2.7325
 31
0.0
  0
LINE
  5
74
330
17
100
AcDbEntity
  8
A-AREA-OPEN
100
AcDbLine
 10
4.905
 20
3.0300000000000002
 30
0.0
 11
4.956761878205859
 21
3.0603431699827452
 31
0.0
  0
LINE
  5
75
330
17
100
AcDbEntity
  8
A-AREA-OPEN
100
AcDbLine
 10
5.008523756411719
 20
3.0906863399654907
 30
0.0
 11
5.060285634617578
 21
3.1210295099482357
 31
0.0
  0
LINE
  5
76
330
17
100
AcDbEntity
  8
A-AREA-OPEN
100
AcDbLine
 10
5.112047512823438
 20
3.151372679930981
 30
0.0
 11
5.1638093910292975
 21
3.181715849913726
 31
0.0
  0
LINE
  5
77
330
17
100
AcDbEntity
  8
A-AREA-OPEN
100
AcDbLine
 10
5.2155712692351575
 20
3.2120590198964716
 30
0.0
 11
5.2673331474410165
 21
3.2424021898792166
 31
0.0
  0
LINE
  5
78
330
17
100
AcDbEntity
  8
A-AREA-OPEN
100
AcDbLine
 10
5.319095025646876
 20
3.272745359861962
 30
0.0
 11
5.370856903852736
 21
3.303088529844707
 31
0.0
  0
LINE
  5
79
330
17
100
AcDbEntity
  8
A-AREA-OPEN
100
AcDbLine
 10
5.422618782058596
 20
3.3334316998274525
 30
0.0
 11
5.474380660264455
 21
3.3637748698101975
 31
0.0
  0
LINE
  5
7A
330
17
100
AcDbEntity
  8
A-AREA-OPEN
100
AcDbLine
 10
5.526142538470314
 20
3.394118039792943
 30
0.0
 11
5.5575
 21
3.4125
 31
0.0
  0
LINE
  5
7B
330
17
100
AcDbEntity
  8
A-AREA-OPEN
100
AcDbLine
 10
3.745
 20
3.4125
 30
0.0
 11
3.7967618782058596
 21
3.382156830017255
 31
0.0
  0
LINE
  5
7C
330
17
100
AcDbEntity
  8
A-AREA-OPEN
100
AcDbLine
 10
3.848523756411719
 20
3.3518136600345096
 30
0.0
 11
3.9002856346175787
 21
3.3214704900517646
 31
0.0
  0
LINE
  5
7D
330
17
100
AcDbEntity
  8
A-AREA-OPEN
100
AcDbLine
 10
3.9520475128234382
 20
3.291127320069019
 30
0.0
 11
4.003809391029297
 21
3.260784150086274
 31
0.0
  0
LINE
  5
7E
330
17
100
AcDbEntity
  8
A-AREA-OPEN
100
AcDbLine
 10
4.055571269235157
 20
3.2304409801035288
 30
0.0
 11
4.107333147441016
 21
3.2000978101207838
 31
0.0
  0
LINE
  5
7F
330
17
100
AcDbEntity
  8
A-AREA-OPEN
100
AcDbLine
 10
4.1590950256468755
 20
3.1697546401380383
 30
0.0
 11
4.2108569038527355
 21
3.1394114701552933
 31
0.0
  0
LINE
  5
80
330
17
100
AcDbEntity
  8
A-AREA-OPEN
100
AcDbLine
 10
4.2626187820585955
 20
3.109068300172548
 30
0.0
 11
4.3143806602644545
 21
3.078725130189803
 31
0.0
  0
LINE
  5
81
330
17
100
AcDbEntity
  8
A-AREA-OPEN
100
AcDbLine
 10
4.366142538470314
 20
3.0483819602070574
 30
0.0
 11
4.3975
 21
3.0300000000000002
 31
0.0
  0
LINE
  5
82
330
17
100
AcDbEntity
  8
A-AREA-OPEN
100
AcDbLine
 10
4.905
 20
2.7325
 30
0.0
 11
4.956761878205859
 21
2.702156830017255
 31
0.0
  0
LINE
  5
83
330
17
100
AcDbEntity
  8
A-AREA-OPEN
100
AcDbLine
 10
5.008523756411719
 20
2.6718136600345095
 30
0.0
 11
5.060285634617578
 21
2.6414704900517645
 31
0.0
  0
LINE
  5
84
330
17
100
AcDbEntity
  8
A-AREA-OPEN
100
AcDbLine
 10
5.112047512823438
 20
2.611127320069019
 30
0.0
 11
5.1638093910292975
 21
2.580784150086274
 31
0.0
  0
LINE
  5
85
330
17
100
AcDbEntity
  8
A-AREA-OPEN
100
AcDbLine
 10
5.2155712692351575
 20
2.5504409801035286
 30
0.0
 11
5.2673331474410165
 21
2.5200978101207836
 31
0.0
  0
LINE
  5
86
330
17
100
AcDbEntity
  8
A-AREA-OPEN
100
AcDbLine
 10
5.319095025646876
 20
2.489754640138038
 30
0.0
 11
5.370856903852736
 21
2.459411470155293
 31
0.0
  0
LINE
  5
87
330
17
100
AcDbEntity
  8
A-AREA-OPEN
100
AcDbLine
 10
5.422618782058596
 20
2.4290683001725477
 30
0.0
 11
5.474380660264455
 21
2.3987251301898027
 31
0.0
  0
LINE
  5
88
330
17
100
AcDbEntity
  8
A-AREA-OPEN
100
AcDbLine
 10
5.526142538470314
 20
2.3683819602070573
 30
0.0
 11
5.5575
 21
2.35
 31
0.0
  0
LWPOLYLINE
  5
89
330
17
100
AcDbEntity
  8
A-AREA-OPEN
100
AcDbPolyline
 90
4
 70
1
 10
2.87
 20
4.1
 10
6.995
 20
4.1
 10
6.995
 20
9.35
 10
2.87
 20
9.35
  0
LINE
  5
8A
330
17
100
AcDbEntity
  8
A-AREA-OPEN
100
AcDbLine
 10
2.87
 20
4.1
 30
0.0
 11
2.907069293115914
 21
4.147179100329345
 31
0.0
  0
LINE
  5
8B
330
17
100
AcDbEntity
  8
A-AREA-OPEN
100
AcDbLine
 10
2.9441385862318286
 20
4.194358200658691
 30
0.0
 11
2.9812078793477426
 21
4.2415373009880355
 31
0.0
  0
LINE
  5
8C
330
17
100
AcDbEntity
  8
A-AREA-OPEN
100
AcDbLine
 10
3.018277172463657
 20
4.288716401317381
 30
0.0
 11
3.055346465579571
 21
4.335895501646727
 31
0.0
  0
LINE
  5
8D
330
17
100
AcDbEntity
  8
A-AREA-OPEN
100
AcDbLine
 10
3.0924157586954855
 20
4.383074601976071
 30
0.0
 11
3.1294850518113995
 21
4.430253702305417
 31
0.0
  0
LINE
  5
8E
330
17
100
AcDbEntity
  8
A-AREA-OPEN
100
AcDbLine
 10
3.166554344927314
 20
4.4774328026347625
 30
0.0
 11
3.203623638043228
 21
4.524611902964108
 31
0.0
  0
LINE
  5
8F
330
17
100
AcDbEntity
  8
A-AREA-OPEN
100
AcDbLine
 10
3.2406929311591424
 20
4.571791003293454
 30
0.0
 11
3.2777622242750564
 21
4.618970103622798
 31
0.0
  0
LINE
  5
90
330
17
100
AcDbEntity
  8
A-AREA-OPEN
100
AcDbLine
 10
3.314831517390971
 20
4.666149203952144
 30
0.0
 11
3.351900810506885
 21
4.7133283042814895
 31
0.0
  0
LINE
  5
91
330
17
100
AcDbEntity
  8
A-AREA-OPEN
100
AcDbLine
 10
3.3889701036227993
 20
4.760507404610835
 30
0.0
 11
3.4260393967387133
 21
4.807686504940181
 31
0.0
  0
LINE
  5
92
330
17
100
AcDbEntity
  8
A-AREA-OPEN
100
AcDbLine
 10
3.4631086898546277
 20
4.854865605269525
 30
0.0
 11
3.500177982970542
 21
4.902044705598871
 31
0.0
  0
LINE
  5
93
330
17
100
AcDbEntity
  8
A-AREA-OPEN
100
AcDbLine
 10
3.537247276086456
 20
4.9492238059282165
 30
0.0
 11
3.57431656920237
 21
4.996402906257562
 31
0.0
  0
LINE
  5
94
330
17
100
AcDbEntity
  8
A-AREA-OPEN
100
AcDbLine
 10
3.6113858623182846
 20
5.043582006586908
 30
0.0
 11
3.648455155434199
 21
5.090761106916252
 31
0.0
  0
LINE
  5
95
330
17
100
AcDbEntity
  8
A-AREA-OPEN
100
AcDbLine
 10
3.685524448550113
 20
5.137940207245598
 30
0.0
 11
3.7225937416660275
 21
5.1851193075749435
 31
0.0
  0
LINE
  5
96
330
17
100
AcDbEntity
  8
A-AREA-OPEN
100
AcDbLine
 10
3.7596630347819415
 20
5.232298407904289
 30
0.0
 11
3.796732327897856
 21
5.279477508233635
 31
0.0
  0
LINE
  5
97
330
17
100
AcDbEntity
  8
A-AREA-OPEN
100
AcDbLine
 10
3.83380162101377
 20
5.326656608562979
 30
0.0
 11
3.8708709141296844
 21
5.373835708892325
 31
0.0
  0
LINE
  5
98
330
17
100
AcDbEntity
  8
A-AREA-OPEN
100
AcDbLine
 10
3.9079402072455984
 20
5.421014809221671
 30
0.0
 11
3.945009500361513
 21
5.468193909551016
 31
0.0
  0
LINE
  5
99
330
17
100
AcDbEntity
  8
A-AREA-OPEN
100
AcDbLine
 10
3.9820787934774273
 20
5.515373009880362
 30
0.0
 11
4.019148086593342
 21
5.562552110209706
 31
0.0
  0
LINE
  5
9A
330
17
100
AcDbEntity
  8
A-AREA-OPEN
100
AcDbLine
 10
4.056217379709255
 20
5.609731210539052
 30
0.0
 11
4.09328667282517
 21
5.656910310868398
 31
0.0
  0
LINE
  5
9B
330
17
100
AcDbEntity
  8
A-AREA-OPEN
100
AcDbLine
 10
4.130355965941084
 20
5.704089411197743
 30
0.0
 11
4.167425259056998
 21
5.751268511527089
 31
0.0
  0
LINE
  5
9C
330
17
100
AcDbEntity
  8
A-AREA-OPEN
100
AcDbLine
 10
4.204494552172912
 20
5.798447611856433
 30
0.0
 11
4.241563845288827
 21
5.845626712185779
 31
0.0
  0
LINE
  5
9D
330
17
100
AcDbEntity
  8
A-AREA-OPEN
100
AcDbLine
 10
4.278633138404741
 20
5.892805812515125
 30
0.0
 11
4.315702431520656
 21
5.93998491284447
 31
0.0
  0
LINE
  5
9E
330
17
100
AcDbEntity
  8
A-AREA-OPEN
100
AcDbLine
 10
4.352771724636569
 20
5.987164013173816
 30
0.0
 11
4.355
 21
5.99
 31
0.0
  0
LINE
  5
9F
330
17
100
AcDbEntity
  8
A-AREA-OPEN
100
AcDbLine
 10
5.510000000000001
 20
7.459999999999999
 30
0.0
 11
5.547069293115915
 21
7.507179100329345
 31
0.0
  0
LINE
  5
A0
330
17
100
AcDbEntity
  8
A-AREA-OPEN
100
AcDbLine
 10
5.584138586231829
 20
7.55435820065869
 30
0.0
 11
5.621207879347743
 21
7.601537300988035
 31
0.0
  0
LINE
  5
A1
330
17
100
AcDbEntity
  8
A-AREA-OPEN
100
AcDbLine
 10
5.658277172463658
 20
7.6487164013173805
 30
0.0
 11
5.695346465579572
 21
7.695895501646726
 31
0.0
  0
LINE
  5
A2
330
17
100
AcDbEntity
  8
A-AREA-OPEN
100
AcDbLine
 10
5.732415758695486
 20
7.743074601976072
 30
0.0
 11
5.7694850518114
 21
7.790253702305416
 31
0.0
  0
LINE
  5
A3
330
17
100
AcDbEntity
  8
A-AREA-OPEN
100
AcDbLine
 10
5.8065543449273145
 20
7.837432802634762
 30
0.0
 11
5.843623638043228
 21
7.8846119029641075
 31
0.0
  0
LINE
  5
A4
330
17
100
AcDbEntity
  8
A-AREA-OPEN
100
AcDbLine
 10
5.8806929311591425
 20
7.931791003293453
 30
0.0
 11
5.917762224275057
 21
7.978970103622798
 31
0.0
  0
LINE
  5
A5
330
17
100
AcDbEntity
  8
A-AREA-OPEN
100
AcDbLine
 10
5.954831517390971
 20
8.026149203952144
 30
0.0
 11
5.991900810506885
 21
8.073328304281489
 31
0.0
  0
LINE
  5
A6
330
17
100
AcDbEntity
  8
A-AREA-OPEN
100
AcDbLine
 10
6.028970103622799
 20
8.120507404610834
 30
0.0
 11
6.066039396738714
 21
8.16768650494018
 31
0.0
  0
LINE
  5
A7
330
17
100
AcDbEntity
  8
A-AREA-OPEN
100
AcDbLine
 10
6.103108689854628
 20
8.214865605269525
 30
0.0
 11
6.140177982970542
 21
8.262044705598871
 31
0.0
  0
LINE
  5
A8
330
17
100
AcDbEntity
  8
A-AREA-OPEN
100
AcDbLine
 10
6.177247276086456
 20
8.309223805928216
 30
0.0
 11
6.214316569202371
 21
8.35640290625756
 31
0.0
  0
LINE
  5
A9
330
17
100
AcDbEntity
  8
A-AREA-OPEN
100
AcDbLine
 10
6.251385862318285
 20
8.403582006586907
 30
0.0
 11
6.2884551554342
 21
8.450761106916252
 31
0.0
  0
LINE
  5
AA
330
17
100
AcDbEntity
  8
A-AREA-OPEN
100
AcDbLine
 10
6.325524448550113
 20
8.497940207245598
 30
0.0
 11
6.362593741666028
 21
8.545119307574943
 31
0.0
  0
LINE
  5
AB
330
17
100
AcDbEntity
  8
A-AREA-OPEN
100
AcDbLine
 10
6.399663034781942
 20
8.592298407904288
 30
0.0
 11
6.436732327897856
 21
8.639477508233634
 31
0.0
  0
LINE
  5
AC
330
17
100
AcDbEntity
  8
A-AREA-OPEN
100
AcDbLine
 10
6.47380162101377
 20
8.686656608562979
 30
0.0
 11
6.5108709141296846
 21
8.733835708892325
 31
0.0
  0
LINE
  5
AD
330
17
100
AcDbEntity
  8
A-AREA-OPEN
100
AcDbLine
 10
6.547940207245599
 20
8.78101480922167
 30
0.0
 11
6.5850095003615134
 21
8.828193909551016
 31
0.0
  0
LINE
  5
AE
330
17
100
AcDbEntity
  8
A-AREA-OPEN
100
AcDbLine
 10
6.622078793477427
 20
8.875373009880361
 30
0.0
 11
6.6591480865933415
 21
8.922552110209706
 31
0.0
  0
LINE
  5
AF
330
17
100
AcDbEntity
  8
A-AREA-OPEN
100
AcDbLine
 10
6.696217379709256
 20
8.969731210539052
 30
0.0
 11
6.7332866728251695
 21
9.016910310868397
 31
0.0
  0
LINE
  5
B0
330
17
100
AcDbEntity
  8
A-AREA-OPEN
100
AcDbLine
 10
6.770355965941084
 20
9.064089411197743
 30
0.0
 11
6.807425259056998
 21
9.111268511527088
 31
0.0
  0
LINE
  5
B1
330
17
100
AcDbEntity
  8
A-AREA-OPEN
100
AcDbLine
 10
6.844494552172913
 20
9.158447611856433
 30
0.0
 11
6.881563845288827
 21
9.20562671218578
 31
0.0
  0
LINE
  5
B2
330
17
100
AcDbEntity
  8
A-AREA-OPEN
100
AcDbLine
 10
6.918633138404741
 20
9.252805812515124
 30
0.0
 11
6.955702431520655
 21
9.29998491284447
 31
0.0
  0
LINE
  5
B3
330
17
100
AcDbEntity
  8
A-AREA-OPEN
100
AcDbLine
 10
6.99277172463657
 20
9.347164013173815
 30
0.0
 11
6.995
 21
9.35
 31
0.0
  0
LINE
  5
B4
330
17
100
AcDbEntity
  8
A-AREA-OPEN
100
AcDbLine
 10
2.87
 20
9.35
 30
0.0
 11
2.9070692931159146
 21
9.302820899670655
 31
0.0
  0
LINE
  5
B5
330
17
100
AcDbEntity
  8
A-AREA-OPEN
100
AcDbLine
 10
2.9441385862318286
 20
9.255641799341308
 30
0.0
 11
2.981207879347743
 21
9.208462699011964
 31
0.0
  0
LINE
  5
B6
330
17
100
AcDbEntity
  8
A-AREA-OPEN
100
AcDbLine
 10
3.018277172463657
 20
9.161283598682619
 30
0.0
 11
3.0553464655795715
 21
9.114104498353273
 31
0.0
  0
LINE
  5
B7
330
17
100
AcDbEntity
  8
A-AREA-OPEN
100
AcDbLine
 10
3.0924157586954855
 20
9.066925398023928
 30
0.0
 11
3.1294850518114
 21
9.019746297694581
 31
0.0
  0
LINE
  5
B8
330
17
100
AcDbEntity
  8
A-AREA-OPEN
100
AcDbLine
 10
3.166554344927314
 20
8.972567197365237
 30
0.0
 11
3.2036236380432284
 21
8.925388097035892
 31
0.0
  0
LINE
  5
B9
330
17
100
AcDbEntity
  8
A-AREA-OPEN
100
AcDbLine
 10
3.2406929311591424
 20
8.878208996706546
 30
0.0
 11
3.277762224275057
 21
8.831029896377201
 31
0.0
  0
LINE
  5
BA
330
17
100
AcDbEntity
  8
A-AREA-OPEN
100
AcDbLine
 10
3.314831517390971
 20
8.783850796047854
 30
0.0
 11
3.3519008105068853
 21
8.73667169571851
 31
0.0
  0
LINE
  5
BB
330
17
100
AcDbEntity
  8
A-AREA-OPEN
100
AcDbLine
 10
3.3889701036227997
 20
8.689492595389165
 30
0.0
 11
3.4260393967387137
 21
8.642313495059819
 31
0.0
  0
LINE
  5
BC
330
17
100
AcDbEntity
  8
A-AREA-OPEN
100
AcDbLine
 10
3.463108689854628
 20
8.595134394730474
 30
0.0
 11
3.500177982970542
 21
8.54795529440113
 31
0.0
  0
LINE
  5
BD
330
17
100
AcDbEntity
  8
A-AREA-OPEN
100
AcDbLine
 10
3.5372472760864566
 20
8.500776194071783
 30
0.0
 11
3.574316569202371
 21
8.453597093742438
 31
0.0
  0
LINE
  5
BE
330
17
100
AcDbEntity
  8
A-AREA-OPEN
100
AcDbLine
 10
3.611385862318285
 20
8.406417993413092
 30
0.0
 11
3.6484551554341995
 21
8.359238893083747
 31
0.0
  0
LINE
  5
BF
330
17
100
AcDbEntity
  8
A-AREA-OPEN
100
AcDbLine
 10
3.6855244485501135
 20
8.312059792754402
 30
0.0
 11
3.722593741666028
 21
8.264880692425056
 31
0.0
  0
LINE
  5
C0
330
17
100
AcDbEntity
  8
A-AREA-OPEN
100
AcDbLine
 10
3.7596630347819424
 20
8.217701592095711
 30
0.0
 11
3.7967323278978564
 21
8.170522491766365
 31
0.0
  0
LINE
  5
C1
330
17
100
AcDbEntity
  8
A-AREA-OPEN
100
AcDbLine
 10
3.833801621013771
 20
8.12334339143702
 30
0.0
 11
3.870870914129685
 21
8.076164291107675
 31
0.0
  0
LINE
  5
C2
330
17
100
AcDbEntity
  8
A-AREA-OPEN
100
AcDbLine
 10
3.9079402072455993
 20
8.028985190778329
 30
0.0
 11
3.9450095003615138
 21
7.981806090448984
 31
0.0
  0
LINE
  5
C3
330
17
100
AcDbEntity
  8
A-AREA-OPEN
100
AcDbLine
 10
3.9820787934774278
 20
7.9346269901196385
 30
0.0
 11
4.019148086593342
 21
7.887447889790293
 31
0.0
  0
LINE
  5
C4
330
17
100
AcDbEntity
  8
A-AREA-OPEN
100
AcDbLine
 10
4.056217379709256
 20
7.840268789460947
 30
0.0
 11
4.093286672825171
 21
7.793089689131602
 31
0.0
  0
LINE
  5
C5
330
17
100
AcDbEntity
  8
A-AREA-OPEN
100
AcDbLine
 10
4.130355965941085
 20
7.745910588802257
 30
0.0
 11
4.167425259057
 21
7.698731488472911
 31
0.0
  0
LINE
  5
C6
330
17
100
AcDbEntity
  8
A-AREA-OPEN
100
AcDbLine
 10
4.204494552172914
 20
7.651552388143566
 30
0.0
 11
4.241563845288828
 21
7.604373287814221
 31
0.0
  0
LINE
  5
C7
330
17
100
AcDbEntity
  8
A-AREA-OPEN
100
AcDbLine
 10
4.278633138404742
 20
7.557194187484876
 30
0.0
 11
4.3157024315206565
 21
7.51001508715553
 31
0.0
  0
LINE
  5
C8
330
17
100
AcDbEntity
  8
A-AREA-OPEN
100
AcDbLine
 10
4.35277172463657
 20
7.462835986826184
 30
0.0
 11
4.355
 21
7.460000000000001
 31
0.0
  0
LINE
  5
C9
330
17
100
AcDbEntity
  8
A-AREA-OPEN
100
AcDbLine
 10
5.510000000000001
 20
5.99
 30
0.0
 11
5.547069293115915
 21
5.942820899670655
 31
0.0
  0
LINE
  5
CA
330
17
100
AcDbEntity
  8
A-AREA-OPEN
100
AcDbLine
 10
5.584138586231829
 20
5.895641799341309
 30
0.0
 11
5.621207879347743
 21
5.848462699011964
 31
0.0
  0
LINE
  5
CB
330
17
100
AcDbEntity
  8
A-AREA-OPEN
100
AcDbLine
 10
5.658277172463658
 20
5.801283598682619
 30
0.0
 11
5.695346465579572
 21
5.754104498353273
 31
0.0
  0
LINE
  5
CC
330
17
100
AcDbEntity
  8
A-AREA-OPEN
100
AcDbLine
 10
5.732415758695486
 20
5.706925398023928
 30
0.0
 11
5.7694850518114
 21
5.659746297694583
 31
0.0
  0
LINE
  5
CD
330
17
100
AcDbEntity
  8
A-AREA-OPEN
100
AcDbLine
 10
5.8065543449273145
 20
5.612567197365237
 30
0.0
 11
5.843623638043228
 21
5.565388097035892
 31
0.0
  0
LINE
  5
CE
330
17
100
AcDbEntity
  8
A-AREA-OPEN
100
AcDbLine
 10
5.8806929311591425
 20
5.518208996706546
 30
0.0
 11
5.917762224275057
 21
5.4710298963772015
 31
0.0
  0
LINE
  5
CF
330
17
100
AcDbEntity
  8
A-AREA-OPEN
100
AcDbLine
 10
5.954831517390971
 20
5.423850796047856
 30
0.0
 11
5.991900810506885
 21
5.37667169571851
 31
0.0
  0
LINE
  5
D0
330
17
100
AcDbEntity
  8
A-AREA-OPEN
100
AcDbLine
 10
6.028970103622799
 20
5.329492595389165
 30
0.0
 11
6.066039396738714
 21
5.282313495059819
 31
0.0
  0
LINE
  5
D1
330
17
100
AcDbEntity
  8
A-AREA-OPEN
100
AcDbLine
 10
6.103108689854628
 20
5.235134394730474
 30
0.0
 11
6.140177982970542
 21
5.187955294401129
 31
0.0
  0
LINE
  5
D2
330
17
100
AcDbEntity
  8
A-AREA-OPEN
100
AcDbLine
 10
6.177247276086456
 20
5.140776194071783
 30
0.0
 11
6.214316569202371
 21
5.093597093742438
 31
0.0
  0
LINE
  5
D3
330
17
100
AcDbEntity
  8
A-AREA-OPEN
100
AcDbLine
 10
6.251385862318285
 20
5.046417993413092
 30
0.0
 11
6.2884551554342
 21
4.999238893083747
 31
0.0
  0
LINE
  5
D4
330
17
100
AcDbEntity
  8
A-AREA-OPEN
100
AcDbLine
 10
6.325524448550113
 20
4.952059792754401
 30
0.0
 11
6.362593741666028
 21
4.904880692425056
 31
0.0
  0
LINE
  5
D5
330
17
100
AcDbEntity
  8
A-AREA-OPEN
100
AcDbLine
 10
6.399663034781942
 20
4.857701592095711
 30
0.0
 11
6.436732327897856
 21
4.810522491766365
 31
0.0
  0
LINE
  5
D6
330
17
100
AcDbEntity
  8
A-AREA-OPEN
100
AcDbLine
 10
6.47380162101377
 20
4.76334339143702
 30
0.0
 11
6.5108709141296846
 21
4.716164291107674
 31
0.0
  0
LINE
  5
D7
330
17
100
AcDbEntity
  8
A-AREA-OPEN
100
AcDbLine
 10
6.547940207245599
 20
4.668985190778329
 30
0.0
 11
6.5850095003615134
 21
4.621806090448984
 31
0.0
  0
LINE
  5
D8
330
17
100
AcDbEntity
  8
A-AREA-OPEN
100
AcDbLine
 10
6.622078793477427
 20
4.574626990119638
 30
0.0
 11
6.6591480865933415
 21
4.527447889790293
 31
0.0
  0
LINE
  5
D9
330
17
100
AcDbEntity
  8
A-AREA-OPEN
100
AcDbLine
 10
6.696217379709256
 20
4.480268789460947
 30
0.0
 11
6.7332866728251695
 21
4.433089689131602
 31
0.0
  0
LINE
  5
DA
330
17
100
AcDbEntity
  8
A-AREA-OPEN
100
AcDbLine
 10
6.770355965941084
 20
4.385910588802257
 30
0.0
 11
6.807425259056998
 21
4.338731488472911
 31
0.0
  0
LINE
  5
DB
330
17
100
AcDbEntity
  8
A-AREA-OPEN
100
AcDbLine
 10
6.844494552172913
 20
4.2915523881435655
 30
0.0
 11
6.881563845288827
 21
4.24437328781422
 31
0.0
  0
LINE
  5
DC
330
17
100
AcDbEntity
  8
A-AREA-OPEN
100
AcDbLine
 10
6.918633138404741
 20
4.197194187484875
 30
0.0
 11
6.955702431520655
 21
4.15001508715553
 31
0.0
  0
LINE
  5
DD
330
17
100
AcDbEntity
  8
A-AREA-OPEN
100
AcDbLine
 10
6.99277172463657
 20
4.102835986826184
 30
0.0
 11
6.995
 21
4.1
 31
0.0
  0
LINE
  5
DE
330
17
100
AcDbEntity
  8
A-AREA-OPEN
100
AcDbLine
 10
2.87
 20
4.475
 30
0.0
 11
2.92
 21
4.475
 31
0.0
  0
LINE
  5
DF
330
17
100
AcDbEntity
  8
A-AREA-OPEN
100
AcDbLine
 10
2.97
 20
4.475
 30
0.0
 11
3.02
 21
4.475
 31
0.0
  0
LINE
  5
E0
330
17
100
AcDbEntity
  8
A-AREA-OPEN
100
AcDbLine
 10
3.0700000000000003
 20
4.475
 30
0.0
 11
3.12
 21
4.475
 31
0.0
  0
LINE
  5
E1
330
17
100
AcDbEntity
  8
A-AREA-OPEN
100
AcDbLine
 10
3.17
 20
4.475
 30
0.0
 11
3.22
 21
4.475
 31
0.0
  0
LINE
  5
E2
330
17
100
AcDbEntity
  8
A-AREA-OPEN
100
AcDbLine
 10
3.27
 20
4.475
 30
0.0
 11
3.3200000000000003
 21
4.475
 31
0.0
  0
LINE
  5
E3
330
17
100
AcDbEntity
  8
A-AREA-OPEN
100
AcDbLine
 10
3.37
 20
4.475
 30
0.0
 11
3.42
 21
4.475
 31
0.0
  0
LINE
  5
E4
330
17
100
AcDbEntity
  8
A-AREA-OPEN
100
AcDbLine
 10
3.47
 20
4.475
 30
0.0
 11
3.52
 21
4.475
 31
0.0
  0
LINE
  5
E5
330
17
100
AcDbEntity
  8
A-AREA-OPEN
100
AcDbLine
 10
3.5700000000000003
 20
4.475
 30
0.0
 11
3.62
 21
4.475
 31
0.0
  0
LINE
  5
E6
330
17
100
AcDbEntity
  8
A-AREA-OPEN
100
AcDbLine
 10
3.6700000000000004
 20
4.475
 30
0.0
 11
3.72
 21
4.475
 31
0.0
  0
LINE
  5
E7
330
17
100
AcDbEntity
  8
A-AREA-OPEN
100
AcDbLine
 10
3.7700000000000005
 20
4.475
 30
0.0
 11
3.8200000000000003
 21
4.475
 31
0.0
  0
LINE
  5
E8
330
17
100
AcDbEntity
  8
A-AREA-OPEN
100
AcDbLine
 10
3.87
 20
4.475
 30
0.0
 11
3.9200000000000004
 21
4.475
 31
0.0
  0
LINE
  5
E9
330
17
100
AcDbEntity
  8
A-AREA-OPEN
100
AcDbLine
 10
3.9700000000000006
 20
4.475
 30
0.0
 11
4.0200000000000005
 21
4.475
 31
0.0
  0
LINE
  5
EA
330
17
100
AcDbEntity
  8
A-AREA-OPEN
100
AcDbLine
 10
4.07
 20
4.475
 30
0.0
 11
4.120000000000001
 21
4.475
 31
0.0
  0
LINE
  5
EB
330
17
100
AcDbEntity
  8
A-AREA-OPEN
100
AcDbLine
 10
4.170000000000001
 20
4.475
 30
0.0
 11
4.220000000000001
 21
4.475
 31
0.0
  0
LINE
  5
EC
330
17
100
AcDbEntity
  8
A-AREA-OPEN
100
AcDbLine
 10
4.2700000000000005
 20
4.475
 30
0.0
 11
4.32
 21
4.475
 31
0.0
  0
LINE
  5
ED
330
17
100
AcDbEntity
  8
A-AREA-OPEN
100
AcDbLine
 10
4.370000000000001
 20
4.475
 30
0.0
 11
4.420000000000001
 21
4.475
 31
0.0
  0
LINE
  5
EE
330
17
100
AcDbEntity
  8
A-AREA-OPEN
100
AcDbLine
 10
4.470000000000001
 20
4.475
 30
0.0
 11
4.520000000000001
 21
4.475
 31
0.0
  0
LINE
  5
EF
330
17
100
AcDbEntity
  8
A-AREA-OPEN
100
AcDbLine
 10
4.570000000000001
 20
4.475
 30
0.0
 11
4.620000000000001
 21
4.475
 31
0.0
  0
LINE
  5
F0
330
17
100
AcDbEntity
  8
A-AREA-OPEN
100
AcDbLine
 10
4.670000000000001
 20
4.475
 30
0.0
 11
4.720000000000001
 21
4.475
 31
0.0
  0
LINE
  5
F1
330
17
100
AcDbEntity
  8
A-AREA-OPEN
100
AcDbLine
 10
4.770000000000001
 20
4.475
 30
0.0
 11
4.820000000000001
 21
4.475
 31
0.0
  0
LINE
  5
F2
330
17
100
AcDbEntity
  8
A-AREA-OPEN
100
AcDbLine
 10
4.870000000000001
 20
4.475
 30
0.0
 11
4.920000000000001
 21
4.475
 31
0.0
  0
LINE
  5
F3
330
17
100
AcDbEntity
  8
A-AREA-OPEN
100
AcDbLine
 10
4.970000000000001
 20
4.475
 30
0.0
 11
5.0200000000000005
 21
4.475
 31
0.0
  0
LINE
  5
F4
330
17
100
AcDbEntity
  8
A-AREA-OPEN
100
AcDbLine
 10
5.07
 20
4.475
 30
0.0
 11
5.12
 21
4.475
 31
0.0
  0
LINE
  5
F5
330
17
100
AcDbEntity
  8
A-AREA-OPEN
100
AcDbLine
 10
5.17
 20
4.475
 30
0.0
 11
5.22
 21
4.475
 31
0.0
  0
LINE
  5
F6
330
17
100
AcDbEntity
  8
A-AREA-OPEN
100
AcDbLine
 10
5.27
 20
4.475
 30
0.0
 11
5.319999999999999
 21
4.475
 31
0.0
  0
LINE
  5
F7
330
17
100
AcDbEntity
  8
A-AREA-OPEN
100
AcDbLine
 10
5.369999999999999
 20
4.475
 30
0.0
 11
5.419999999999999
 21
4.475
 31
0.0
  0
LINE
  5
F8
330
17
100
AcDbEntity
  8
A-AREA-OPEN
100
AcDbLine
 10
5.469999999999999
 20
4.475
 30
0.0
 11
5.519999999999999
 21
4.475
 31
0.0
  0
LINE
  5
F9
330
17
100
AcDbEntity
  8
A-AREA-OPEN
100
AcDbLine
 10
5.5699999999999985
 20
4.475
 30
0.0
 11
5.619999999999998
 21
4.475
 31
0.0
  0
LINE
  5
FA
330
17
100
AcDbEntity
  8
A-AREA-OPEN
100
AcDbLine
 10
5.669999999999998
 20
4.475
 30
0.0
 11
5.719999999999998
 21
4.475
 31
0.0
  0
LINE
  5
FB
330
17
100
AcDbEntity
  8
A-AREA-OPEN
100
AcDbLine
 10
5.769999999999998
 20
4.475
 30
0.0
 11
5.819999999999998
 21
4.475
 31
0.0
  0
LINE
  5
FC
330
17
100
AcDbEntity
  8
A-AREA-OPEN
100
AcDbLine
 10
5.869999999999997
 20
4.475
 30
0.0
 11
5.919999999999997
 21
4.475
 31
0.0
  0
LINE
  5
FD
330
17
100
AcDbEntity
  8
A-AREA-OPEN
100
AcDbLine
 10
5.969999999999997
 20
4.475
 30
0.0
 11
6.019999999999997
 21
4.475
 31
0.0
  0
LINE
  5
FE
330
17
100
AcDbEntity
  8
A-AREA-OPEN
100
AcDbLine
 10
6.069999999999997
 20
4.475
 30
0.0
 11
6.1199999999999966
 21
4.475
 31
0.0
  0
LINE
  5
FF
330
17
100
AcDbEntity
  8
A-AREA-OPEN
100
AcDbLine
 10
6.169999999999996
 20
4.475
 30
0.0
 11
6.219999999999996
 21
4.475
 31
0.0
  0
LINE
  5
100
330
17
100
AcDbEntity
  8
A-AREA-OPEN
100
AcDbLine
 10
6.269999999999996
 20
4.475
 30
0.0
 11
6.319999999999996
 21
4.475
 31
0.0
  0
LINE
  5
101
330
17
100
AcDbEntity
  8
A-AREA-OPEN
100
AcDbLine
 10
6.369999999999996
 20
4.475
 30
0.0
 11
6.4199999999999955
 21
4.475
 31
0.0
  0
LINE
  5
102
330
17
100
AcDbEntity
  8
A-AREA-OPEN
100
AcDbLine
 10
6.469999999999995
 20
4.475
 30
0.0
 11
6.519999999999995
 21
4.475
 31
0.0
  0
LINE
  5
103
330
17
100
AcDbEntity
  8
A-AREA-OPEN
100
AcDbLine
 10
6.569999999999995
 20
4.475
 30
0.0
 11
6.619999999999995
 21
4.475
 31
0.0
  0
LINE
  5
104
330
17
100
AcDbEntity
  8
A-AREA-OPEN
100
AcDbLine
 10
6.62
 20
4.475
 30
0.0
 11
6.62
 21
4.5249999999999995
 31
0.0
  0
LINE
  5
105
330
17
100
AcDbEntity
  8
A-AREA-OPEN
100
AcDbLine
 10
6.62
 20
4.574999999999999
 30
0.0
 11
6.62
 21
4.625
 31
0.0
  0
LINE
  5
106
330
17
100
AcDbEntity
  8
A-AREA-OPEN
100
AcDbLine
 10
6.62
 20
4.675
 30
0.0
 11
6.62
 21
4.725
 31
0.0
  0
LINE
  5
107
330
17
100
AcDbEntity
  8
A-AREA-OPEN
100
AcDbLine
 10
6.62
 20
4.7749999999999995
 30
0.0
 11
6.62
 21
4.824999999999999
 31
0.0
  0
LINE
  5
108
330
17
100
AcDbEntity
  8
A-AREA-OPEN
100
AcDbLine
 10
6.62
 20
4.875
 30
0.0
 11
6.62
 21
4.925
 31
0.0
  0
LINE
  5
109
330
17
100
AcDbEntity
  8
A-AREA-OPEN
100
AcDbLine
 10
6.62
 20
4.975
 30
0.0
 11
6.62
 21
5.0249999999999995
 31
0.0
  0
LINE
  5
10A
330
17
100
AcDbEntity
  8
A-AREA-OPEN
100
AcDbLine
 10
6.62
 20
5.074999999999999
 30
0.0
 11
6.62
 21
5.125
 31
0.0
  0
LINE
  5
10B
330
17
100
AcDbEntity
  8
A-AREA-OPEN
100
AcDbLine
 10
6.62
 20
5.175
 30
0.0
 11
6.62
 21
5.225
 31
0.0
  0
LINE
  5
10C
330
17
100
AcDbEntity
  8
A-AREA-OPEN
100
AcDbLine
 10
6.62
 20
5.2749999999999995
 30
0.0
 11
6.62
 21
5.325
 31
0.0
  0
LINE
  5
10D
330
17
100
AcDbEntity
  8
A-AREA-OPEN
100
AcDbLine
 10
6.62
 20
5.375
 30
0.0
 11
6.62
 21
5.425
 31
0.0
  0
LINE
  5
10E
330
17
100
AcDbEntity
  8
A-AREA-OPEN
100
AcDbLine
 10
6.62
 20
5.475
 30
0.0
 11
6.62
 21
5.525
 31
0.0
  0
LINE
  5
10F
330
17
100
AcDbEntity
  8
A-AREA-OPEN
100
AcDbLine
 10
6.62
 20
5.575
 30
0.0
 11
6.62
 21
5.625
 31
0.0
  0
LINE
  5
110
330
17
100
AcDbEntity
  8
A-AREA-OPEN
100
AcDbLine
 10
6.62
 20
5.675
 30
0.0
 11
6.62
 21
5.725
 31
0.0
  0
LINE
  5
111
330
17
100
AcDbEntity
  8
A-AREA-OPEN
100
AcDbLine
 10
6.62
 20
5.775
 30
0.0
 11
6.62
 21
5.825
 31
0.0
  0
LINE
  5
112
330
17
100
AcDbEntity
  8
A-AREA-OPEN
100
AcDbLine
 10
6.62
 20
5.875
 30
0.0
 11
6.62
 21
5.925000000000001
 31
0.0
  0
LINE
  5
113
330
17
100
AcDbEntity
  8
A-AREA-OPEN
100
AcDbLine
 10
6.62
 20
5.9750000000000005
 30
0.0
 11
6.62
 21
6.025
 31
0.0
  0
LINE
  5
114
330
17
100
AcDbEntity
  8
A-AREA-OPEN
100
AcDbLine
 10
6.62
 20
6.075
 30
0.0
 11
6.62
 21
6.125
 31
0.0
  0
LINE
  5
115
330
17
100
AcDbEntity
  8
A-AREA-OPEN
100
AcDbLine
 10
6.62
 20
6.175000000000001
 30
0.0
 11
6.62
 21
6.2250000000000005
 31
0.0
  0
LINE
  5
116
330
17
100
AcDbEntity
  8
A-AREA-OPEN
100
AcDbLine
 10
6.62
 20
6.275
 30
0.0
 11
6.62
 21
6.325000000000001
 31
0.0
  0
LINE
  5
117
330
17
100
AcDbEntity
  8
A-AREA-OPEN
100
AcDbLine
 10
6.62
 20
6.375000000000001
 30
0.0
 11
6.62
 21
6.425000000000001
 31
0.0
  0
LINE
  5
118
330
17
100
AcDbEntity
  8
A-AREA-OPEN
100
AcDbLine
 10
6.62
 20
6.4750000000000005
 30
0.0
 11
6.62
 21
6.525
 31
0.0
  0
LINE
  5
119
330
17
100
AcDbEntity
  8
A-AREA-OPEN
100
AcDbLine
 10
6.62
 20
6.575
 30
0.0
 11
6.62
 21
6.625
 31
0.0
  0
LINE
  5
11A
330
17
100
AcDbEntity
  8
A-AREA-OPEN
100
AcDbLine
 10
6.62
 20
6.675
 30
0.0
 11
6.62
 21
6.725
 31
0.0
  0
LINE
  5
11B
330
17
100
AcDbEntity
  8
A-AREA-OPEN
100
AcDbLine
 10
6.62
 20
6.7749999999999995
 30
0.0
 11
6.62
 21
6.824999999999999
 31
0.0
  0
LINE
  5
11C
330
17
100
AcDbEntity
  8
A-AREA-OPEN
100
AcDbLine
 10
6.62
 20
6.874999999999999
 30
0.0
 11
6.62
 21
6.924999999999999
 31
0.0
  0
LINE
  5
11D
330
17
100
AcDbEntity
  8
A-AREA-OPEN
100
AcDbLine
 10
6.62
 20
6.974999999999999
 30
0.0
 11
6.62
 21
7.024999999999999
 31
0.0
  0
LINE
  5
11E
330
17
100
AcDbEntity
  8
A-AREA-OPEN
100
AcDbLine
 10
6.62
 20
7.074999999999998
 30
0.0
 11
6.62
 21
7.124999999999998
 31
0.0
  0
LINE
  5
11F
330
17
100
AcDbEntity
  8
A-AREA-OPEN
100
AcDbLine
 10
6.62
 20
7.174999999999998
 30
0.0
 11
6.62
 21
7.224999999999998
 31
0.0
  0
LINE
  5
120
330
17
100
AcDbEntity
  8
A-AREA-OPEN
100
AcDbLine
 10
6.62
 20
7.274999999999998
 30
0.0
 11
6.62
 21
7.3249999999999975
 31
0.0
  0
LINE
  5
121
330
17
100
AcDbEntity
  8
A-AREA-OPEN
100
AcDbLine
 10
6.62
 20
7.374999999999997
 30
0.0
 11
6.62
 21
7.424999999999997
 31
0.0
  0
LINE
  5
122
330
17
100
AcDbEntity
  8
A-AREA-OPEN
100
AcDbLine
 10
6.62
 20
7.474999999999997
 30
0.0
 11
6.62
 21
7.524999999999997
 31
0.0
  0
LINE
  5
123
330
17
100
AcDbEntity
  8
A-AREA-OPEN
100
AcDbLine
 10
6.62
 20
7.574999999999997
 30
0.0
 11
6.62
 21
7.6249999999999964
 31
0.0
  0
LINE
  5
124
330
17
100
AcDbEntity
  8
A-AREA-OPEN
100
AcDbLine
 10
6.62
 20
7.674999999999996
 30
0.0
 11
6.62
 21
7.724999999999996
 31
0.0
  0
LINE
  5
125
330
17
100
AcDbEntity
  8
A-AREA-OPEN
100
AcDbLine
 10
6.62
 20
7.774999999999996
 30
0.0
 11
6.62
 21
7.824999999999996
 31
0.0
  0
LINE
  5
126
330
17
100
AcDbEntity
  8
A-AREA-OPEN
100
AcDbLine
 10
6.62
 20
7.874999999999996
 30
0.0
 11
6.62
 21
7.924999999999995
 31
0.0
  0
LINE
  5
127
330
17
100
AcDbEntity
  8
A-AREA-OPEN
100
AcDbLine
 10
6.62
 20
7.974999999999995
 30
0.0
 11
6.62
 21
8.024999999999995
 31
0.0
  0
LINE
  5
128
330
17
100
AcDbEntity
  8
A-AREA-OPEN
100
AcDbLine
 10
6.62
 20
8.074999999999996
 30
0.0
 11
6.62
 21
8.124999999999995
 31
0.0
  0
LINE
  5
129
330
17
100
AcDbEntity
  8
A-AREA-OPEN
100
AcDbLine
 10
6.62
 20
8.174999999999994
 30
0.0
 11
6.62
 21
8.224999999999994
 31
0.0
  0
LINE
  5
12A
330
17
100
AcDbEntity
  8
A-AREA-OPEN
100
AcDbLine
 10
6.62
 20
8.274999999999995
 30
0.0
 11
6.62
 21
8.324999999999994
 31
0.0
  0
LINE
  5
12B
330
17
100
AcDbEntity
  8
A-AREA-OPEN
100
AcDbLine
 10
6.62
 20
8.374999999999993
 30
0.0
 11
6.62
 21
8.424999999999994
 31
0.0
  0
LINE
  5
12C
330
17
100
AcDbEntity
  8
A-AREA-OPEN
100
AcDbLine
 10
6.62
 20
8.474999999999994
 30
0.0
 11
6.62
 21
8.524999999999993
 31
0.0
  0
LINE
  5
12D
330
17
100
AcDbEntity
  8
A-AREA-OPEN
100
AcDbLine
 10
6.62
 20
8.574999999999992
 30
0.0
 11
6.62
 21
8.624999999999993
 31
0.0
  0
LINE
  5
12E
330
17
100
AcDbEntity
  8
A-AREA-OPEN
100
AcDbLine
 10
6.62
 20
8.674999999999994
 30
0.0
 11
6.62
 21
8.724999999999993
 31
0.0
  0
LINE
  5
12F
330
17
100
AcDbEntity
  8
A-AREA-OPEN
100
AcDbLine
 10
6.62
 20
8.774999999999991
 30
0.0
 11
6.62
 21
8.824999999999992
 31
0.0
  0
LINE
  5
130
330
17
100
AcDbEntity
  8
A-AREA-OPEN
100
AcDbLine
 10
6.62
 20
8.874999999999993
 30
0.0
 11
6.62
 21
8.924999999999992
 31
0.0
  0
LINE
  5
131
330
17
100
AcDbEntity
  8
A-AREA-OPEN
100
AcDbLine
 10
6.62
 20
8.97499999999999
 30
0.0
 11
6.62
 21
8.975
 31
0.0
  0
LINE
  5
132
330
17
100
AcDbEntity
  8
A-AREA-OPEN
100
AcDbLine
 10
6.62
 20
8.975
 30
0.0
 11
6.57
 21
8.975
 31
0.0
  0
LINE
  5
133
330
17
100
AcDbEntity
  8
A-AREA-OPEN
100
AcDbLine
 10
6.5200000000000005
 20
8.975
 30
0.0
 11
6.47
 21
8.975
 31
0.0
  0
LINE
  5
134
330
17
100
AcDbEntity
  8
A-AREA-OPEN
100
AcDbLine
 10
6.42
 20
8.975
 30
0.0
 11
6.37
 21
8.975
 31
0.0
  0
LINE
  5
135
330
17
100
AcDbEntity
  8
A-AREA-OPEN
100
AcDbLine
 10
6.32
 20
8.975
 30
0.0
 11
6.2700000000000005
 21
8.975
 31
0.0
  0
LINE
  5
136
330
17
100
AcDbEntity
  8
A-AREA-OPEN
100
AcDbLine
 10
6.22
 20
8.975
 30
0.0
 11
6.17
 21
8.975
 31
0.0
  0
LINE
  5
137
330
17
100
AcDbEntity
  8
A-AREA-OPEN
100
AcDbLine
 10
6.12
 20
8.975
 30
0.0
 11
6.07
 21
8.975
 31
0.0
  0
LINE
  5
138
330
17
100
AcDbEntity
  8
A-AREA-OPEN
100
AcDbLine
 10
6.0200000000000005
 20
8.975
 30
0.0
 11
5.97
 21
8.975
 31
0.0
  0
LINE
  5
139
330
17
100
AcDbEntity
  8
A-AREA-OPEN
100
AcDbLine
 10
5.92
 20
8.975
 30
0.0
 11
5.87
 21
8.975
 31
0.0
  0
LINE
  5
13A
330
17
100
AcDbEntity
  8
A-AREA-OPEN
100
AcDbLine
 10
5.82
 20
8.975
 30
0.0
 11
5.77
 21
8.975
 31
0.0
  0
LINE
  5
13B
330
17
100
AcDbEntity
  8
A-AREA-OPEN
100
AcDbLine
 10
5.72
 20
8.975
 30
0.0
 11
5.67
 21
8.975
 31
0.0
  0
LINE
  5
13C
330
17
100
AcDbEntity
  8
A-AREA-OPEN
100
AcDbLine
 10
5.62
 20
8.975
 30
0.0
 11
5.57
 21
8.975
 31
0.0
  0
LINE
  5
13D
330
17
100
AcDbEntity
  8
A-AREA-OPEN
100
AcDbLine
 10
5.52
 20
8.975
 30
0.0
 11
5.47
 21
8.975
 31
0.0
  0
LINE
  5
13E
330
17
100
AcDbEntity
  8
A-AREA-OPEN
100
AcDbLine
 10
5.42
 20
8.975
 30
0.0
 11
5.369999999999999
 21
8.975
 31
0.0
  0
LINE
  5
13F
330
17
100
AcDbEntity
  8
A-AREA-OPEN
100
AcDbLine
 10
5.319999999999999
 20
8.975
 30
0.0
 11
5.27
 21
8.975
 31
0.0
  0
LINE
  5
140
330
17
100
AcDbEntity
  8
A-AREA-OPEN
100
AcDbLine
 10
5.22
 20
8.975
 30
0.0
 11
5.17
 21
8.975
 31
0.0
  0
LINE
  5
141
330
17
100
AcDbEntity
  8
A-AREA-OPEN
100
AcDbLine
 10
5.119999999999999
 20
8.975
 30
0.0
 11
5.069999999999999
 21
8.975
 31
0.0
  0
LINE
  5
142
330
17
100
AcDbEntity
  8
A-AREA-OPEN
100
AcDbLine
 10
5.02
 20
8.975
 30
0.0
 11
4.969999999999999
 21
8.975
 31
0.0
  0
LINE
  5
143
330
17
100
AcDbEntity
  8
A-AREA-OPEN
100
AcDbLine
 10
4.919999999999999
 20
8.975
 30
0.0
 11
4.869999999999999
 21
8.975
 31
0.0
  0
LINE
  5
144
330
17
100
AcDbEntity
  8
A-AREA-OPEN
100
AcDbLine
 10
4.819999999999999
 20
8.975
 30
0.0
 11
4.77
 21
8.975
 31
0.0
  0
LINE
  5
145
330
17
100
AcDbEntity
  8
A-AREA-OPEN
100
AcDbLine
 10
4.719999999999999
 20
8.975
 30
0.0
 11
4.669999999999999
 21
8.975
 31
0.0
  0
LINE
  5
146
330
17
100
AcDbEntity
  8
A-AREA-OPEN
100
AcDbLine
 10
4.619999999999999
 20
8.975
 30
0.0
 11
4.569999999999999
 21
8.975
 31
0.0
  0
LINE
  5
147
330
17
100
AcDbEntity
  8
A-AREA-OPEN
100
AcDbLine
 10
4.52
 20
8.975
 30
0.0
 11
4.47
 21
8.975
 31
0.0
  0
LINE
  5
148
330
17
100
AcDbEntity
  8
A-AREA-OPEN
100
AcDbLine
 10
4.42
 20
8.975
 30
0.0
 11
4.37
 21
8.975
 31
0.0
  0
LINE
  5
149
330
17
100
AcDbEntity
  8
A-AREA-OPEN
100
AcDbLine
 10
4.32
 20
8.975
 30
0.0
 11
4.2700000000000005
 21
8.975
 31
0.0
  0
LINE
  5
14A
330
17
100
AcDbEntity
  8
A-AREA-OPEN
100
AcDbLine
 10
4.220000000000001
 20
8.975
 30
0.0
 11
4.170000000000001
 21
8.975
 31
0.0
  0
LINE
  5
14B
330
17
100
AcDbEntity
  8
A-AREA-OPEN
100
AcDbLine
 10
4.120000000000001
 20
8.975
 30
0.0
 11
4.070000000000001
 21
8.975
 31
0.0
  0
LINE
  5
14C
330
17
100
AcDbEntity
  8
A-AREA-OPEN
100
AcDbLine
 10
4.020000000000001
 20
8.975
 30
0.0
 11
3.9700000000000015
 21
8.975
 31
0.0
  0
LINE
  5
14D
330
17
100
AcDbEntity
  8
A-AREA-OPEN
100
AcDbLine
 10
3.9200000000000017
 20
8.975
 30
0.0
 11
3.870000000000002
 21
8.975
 31
0.0
  0
LINE
  5
14E
330
17
100
AcDbEntity
  8
A-AREA-OPEN
100
AcDbLine
 10
3.820000000000002
 20
8.975
 30
0.0
 11
3.7700000000000022
 21
8.975
 31
0.0
  0
LINE
  5
14F
330
17
100
AcDbEntity
  8
A-AREA-OPEN
100
AcDbLine
 10
3.7200000000000024
 20
8.975
 30
0.0
 11
3.6700000000000026
 21
8.975
 31
0.0
  0
LINE
  5
150
330
17
100
AcDbEntity
  8
A-AREA-OPEN
100
AcDbLine
 10
3.6200000000000028
 20
8.975
 30
0.0
 11
3.570000000000003
 21
8.975
 31
0.0
  0
LINE
  5
151
330
17
100
AcDbEntity
  8
A-AREA-OPEN
100
AcDbLine
 10
3.520000000000003
 20
8.975
 30
0.0
 11
3.4700000000000033
 21
8.975
 31
0.0
  0
LINE
  5
152
330
17
100
AcDbEntity
  8
A-AREA-OPEN
100
AcDbLine
 10
3.4200000000000035
 20
8.975
 30
0.0
 11
3.3700000000000037
 21
8.975
 31
0.0
  0
LINE
  5
153
330
17
100
AcDbEntity
  8
A-AREA-OPEN
100
AcDbLine
 10
3.320000000000004
 20
8.975
 30
0.0
 11
3.270000000000004
 21
8.975
 31
0.0
  0
LINE
  5
154
330
17
100
AcDbEntity
  8
A-AREA-OPEN
100
AcDbLine
 10
3.220000000000004
 20
8.975
 30
0.0
 11
3.1700000000000044
 21
8.975
 31
0.0
  0
LINE
  5
155
330
17
100
AcDbEntity
  8
A-AREA-OPEN
100
AcDbLine
 10
3.1200000000000045
 20
8.975
 30
0.0
 11
3.0700000000000047
 21
8.975
 31
0.0
  0
LINE
  5
156
330
17
100
AcDbEntity
  8
A-AREA-OPEN
100
AcDbLine
 10
3.020000000000005
 20
8.975
 30
0.0
 11
2.970000000000005
 21
8.975
 31
0.0
  0
LINE
  5
157
330
17
100
AcDbEntity
  8
A-AREA-OPEN
100
AcDbLine
 10
2.9200000000000053
 20
8.975
 30
0.0
 11
2.8700000000000054
 21
8.975
 31
0.0
  0
LINE
  5
158
330
17
100
AcDbEntity
  8
A-AREA-OPEN
100
AcDbLine
 10
2.87
 20
8.975
 30
0.0
 11
2.87
 21
8.924999999999999
 31
0.0
  0
LINE
  5
159
330
17
100
AcDbEntity
  8
A-AREA-OPEN
100
AcDbLine
 10
2.87
 20
8.875
 30
0.0
 11
2.87
 21
8.825
 31
0.0
  0
LINE
  5
15A
330
17
100
AcDbEntity
  8
A-AREA-OPEN
100
AcDbLine
 10
2.87
 20
8.775
 30
0.0
 11
2.87
 21
8.725
 31
0.0
  0
LINE
  5
15B
330
17
100
AcDbEntity
  8
A-AREA-OPEN
100
AcDbLine
 10
2.87
 20
8.674999999999999
 30
0.0
 11
2.87
 21
8.625
 31
0.0
  0
LINE
  5
15C
330
17
100
AcDbEntity
  8
A-AREA-OPEN
100
AcDbLine
 10
2.87
 20
8.575
 30
0.0
 11
2.87
 21
8.525
 31
0.0
  0
LINE
  5
15D
330
17
100
AcDbEntity
  8
A-AREA-OPEN
100
AcDbLine
 10
2.87
 20
8.475
 30
0.0
 11
2.87
 21
8.424999999999999
 31
0.0
  0
LINE
  5
15E
330
17
100
AcDbEntity
  8
A-AREA-OPEN
100
AcDbLine
 10
2.87
 20
8.375
 30
0.0
 11
2.87
 21
8.325
 31
0.0
  0
LINE
  5
15F
330
17
100
AcDbEntity
  8
A-AREA-OPEN
100
AcDbLine
 10
2.87
 20
8.275
 30
0.0
 11
2.87
 21
8.225
 31
0.0
  0
LINE
  5
160
330
17
100
AcDbEntity
  8
A-AREA-OPEN
100
AcDbLine
 10
2.87
 20
8.174999999999999
 30
0.0
 11
2.87
 21
8.125
 31
0.0
  0
LINE
  5
161
330
17
100
AcDbEntity
  8
A-AREA-OPEN
100
AcDbLine
 10
2.87
 20
8.075
 30
0.0
 11
2.87
 21
8.024999999999999
 31
0.0
  0
LINE
  5
162
330
17
100
AcDbEntity
  8
A-AREA-OPEN
100
AcDbLine
 10
2.87
 20
7.975
 30
0.0
 11
2.87
 21
7.924999999999999
 31
0.0
  0
LINE
  5
163
330
17
100
AcDbEntity
  8
A-AREA-OPEN
100
AcDbLine
 10
2.87
 20
7.874999999999999
 30
0.0
 11
2.87
 21
7.824999999999999
 31
0.0
  0
LINE
  5
164
330
17
100
AcDbEntity
  8
A-AREA-OPEN
100
AcDbLine
 10
2.87
 20
7.7749999999999995
 30
0.0
 11
2.87
 21
7.725
 31
0.0
  0
LINE
  5
165
330
17
100
AcDbEntity
  8
A-AREA-OPEN
100
AcDbLine
 10
2.87
 20
7.674999999999999
 30
0.0
 11
2.87
 21
7.624999999999999
 31
0.0
  0
LINE
  5
166
330
17
100
AcDbEntity
  8
A-AREA-OPEN
100
AcDbLine
 10
2.87
 20
7.574999999999999
 30
0.0
 11
2.87
 21
7.524999999999999
 31
0.0
  0
LINE
  5
167
330
17
100
AcDbEntity
  8
A-AREA-OPEN
100
AcDbLine
 10
2.87
 20
7.474999999999999
 30
0.0
 11
2.87
 21
7.424999999999999
 31
0.0
  0
LINE
  5
168
330
17
100
AcDbEntity
  8
A-AREA-OPEN
100
AcDbLine
 10
2.87
 20
7.374999999999999
 30
0.0
 11
2.87
 21
7.324999999999999
 31
0.0
  0
LINE
  5
169
330
17
100
AcDbEntity
  8
A-AREA-OPEN
100
AcDbLine
 10
2.87
 20
7.274999999999999
 30
0.0
 11
2.87
 21
7.224999999999999
 31
0.0
  0
LINE
  5
16A
330
17
100
AcDbEntity
  8
A-AREA-OPEN
100
AcDbLine
 10
2.87
 20
7.174999999999999
 30
0.0
 11
2.87
 21
7.124999999999998
 31
0.0
  0
LINE
  5
16B
330
17
100
AcDbEntity
  8
A-AREA-OPEN
100
AcDbLine
 10
2.87
 20
7.074999999999998
 30
0.0
 11
2.87
 21
7.024999999999999
 31
0.0
  0
LINE
  5
16C
330
17
100
AcDbEntity
  8
A-AREA-OPEN
100
AcDbLine
 10
2.87
 20
6.974999999999999
 30
0.0
 11
2.87
 21
6.924999999999999
 31
0.0
  0
LINE
  5
16D
330
17
100
AcDbEntity
  8
A-AREA-OPEN
100
AcDbLine
 10
2.87
 20
6.874999999999999
 30
0.0
 11
2.87
 21
6.824999999999999
 31
0.0
  0
LINE
  5
16E
330
17
100
AcDbEntity
  8
A-AREA-OPEN
100
AcDbLine
 10
2.87
 20
6.7749999999999995
 30
0.0
 11
2.87
 21
6.725
 31
0.0
  0
LINE
  5
16F
330
17
100
AcDbEntity
  8
A-AREA-OPEN
100
AcDbLine
 10
2.87
 20
6.675
 30
0.0
 11
2.87
 21
6.625
 31
0.0
  0
LINE
  5
170
330
17
100
AcDbEntity
  8
A-AREA-OPEN
100
AcDbLine
 10
2.87
 20
6.575
 30
0.0
 11
2.87
 21
6.525
 31
0.0
  0
LINE
  5
171
330
17
100
AcDbEntity
  8
A-AREA-OPEN
100
AcDbLine
 10
2.87
 20
6.4750000000000005
 30
0.0
 11
2.87
 21
6.425000000000001
 31
0.0
  0
LINE
  5
172
330
17
100
AcDbEntity
  8
A-AREA-OPEN
100
AcDbLine
 10
2.87
 20
6.375000000000001
 30
0.0
 11
2.87
 21
6.325000000000001
 31
0.0
  0
LINE
  5
173
330
17
100
AcDbEntity
  8
A-AREA-OPEN
100
AcDbLine
 10
2.87
 20
6.275000000000001
 30
0.0
 11
2.87
 21
6.225000000000001
 31
0.0
  0
LINE
  5
174
330
17
100
AcDbEntity
  8
A-AREA-OPEN
100
AcDbLine
 10
2.87
 20
6.175000000000002
 30
0.0
 11
2.87
 21
6.125000000000002
 31
0.0
  0
LINE
  5
175
330
17
100
AcDbEntity
  8
A-AREA-OPEN
100
AcDbLine
 10
2.87
 20
6.075000000000002
 30
0.0
 11
2.87
 21
6.025000000000002
 31
0.0
  0
LINE
  5
176
330
17
100
AcDbEntity
  8
A-AREA-OPEN
100
AcDbLine
 10
2.87
 20
5.975000000000002
 30
0.0
 11
2.87
 21
5.9250000000000025
 31
0.0
  0
LINE
  5
177
330
17
100
AcDbEntity
  8
A-AREA-OPEN
100
AcDbLine
 10
2.87
 20
5.875000000000003
 30
0.0
 11
2.87
 21
5.825000000000003
 31
0.0
  0
LINE
  5
178
330
17
100
AcDbEntity
  8
A-AREA-OPEN
100
AcDbLine
 10
2.87
 20
5.775000000000003
 30
0.0
 11
2.87
 21
5.725000000000003
 31
0.0
  0
LINE
  5
179
330
17
100
AcDbEntity
  8
A-AREA-OPEN
100
AcDbLine
 10
2.87
 20
5.675000000000003
 30
0.0
 11
2.87
 21
5.6250000000000036
 31
0.0
  0
LINE
  5
17A
330
17
100
AcDbEntity
  8
A-AREA-OPEN
100
AcDbLine
 10
2.87
 20
5.575000000000004
 30
0.0
 11
2.87
 21
5.525000000000004
 31
0.0
  0
LINE
  5
17B
330
17
100
AcDbEntity
  8
A-AREA-OPEN
100
AcDbLine
 10
2.87
 20
5.475000000000004
 30
0.0
 11
2.87
 21
5.425000000000004
 31
0.0
  0
LINE
  5
17C
330
17
100
AcDbEntity
  8
A-AREA-OPEN
100
AcDbLine
 10
2.87
 20
5.375000000000004
 30
0.0
 11
2.87
 21
5.325000000000005
 31
0.0
  0
LINE
  5
17D
330
17
100
AcDbEntity
  8
A-AREA-OPEN
100
AcDbLine
 10
2.87
 20
5.275000000000005
 30
0.0
 11
2.87
 21
5.225000000000005
 31
0.0
  0
LINE
  5
17E
330
17
100
AcDbEntity
  8
A-AREA-OPEN
100
AcDbLine
 10
2.87
 20
5.175000000000005
 30
0.0
 11
2.87
 21
5.125000000000005
 31
0.0
  0
LINE
  5
17F
330
17
100
AcDbEntity
  8
A-AREA-OPEN
100
AcDbLine
 10
2.87
 20
5.0750000000000055
 30
0.0
 11
2.87
 21
5.025000000000006
 31
0.0
  0
LINE
  5
180
330
17
100
AcDbEntity
  8
A-AREA-OPEN
100
AcDbLine
 10
2.87
 20
4.975000000000006
 30
0.0
 11
2.87
 21
4.925000000000006
 31
0.0
  0
LINE
  5
181
330
17
100
AcDbEntity
  8
A-AREA-OPEN
100
AcDbLine
 10
2.87
 20
4.875000000000006
 30
0.0
 11
2.87
 21
4.825000000000006
 31
0.0
  0
LINE
  5
182
330
17
100
AcDbEntity
  8
A-AREA-OPEN
100
AcDbLine
 10
2.87
 20
4.775000000000007
 30
0.0
 11
2.87
 21
4.725000000000007
 31
0.0
  0
LINE
  5
183
330
17
100
AcDbEntity
  8
A-AREA-OPEN
100
AcDbLine
 10
2.87
 20
4.675000000000007
 30
0.0
 11
2.87
 21
4.625000000000007
 31
0.0
  0
LINE
  5
184
330
17
100
AcDbEntity
  8
A-AREA-OPEN
100
AcDbLine
 10
2.87
 20
4.575000000000007
 30
0.0
 11
2.87
 21
4.5250000000000075
 31
0.0
  0
LINE
  5
185
330
17
100
AcDbEntity
  8
A-AREA-OPEN
100
AcDbLine
 10
2.87
 20
4.475000000000008
 30
0.0
 11
2.87
 21
4.475
 31
0.0
  0
LWPOLYLINE
  5
186
330
17
100
AcDbEntity
  8
A-SEAT-FIXD
100
AcDbPolyline
 90
4
 70
1
 10
2.87
 20
9.35
 10
6.995
 20
9.35
 10
6.995
 20
9.81875
 10
2.87
 20
9.81875
  0
TEXT
  5
187
330
17
100
AcDbEntity
  8
A-AREA-IDEN
100
AcDbText
 10
2.96375
 20
9.549375
 30
0.0
 40
0.056
  1
UPPER (N) · FIXED · 314 SEATS
  7
KS-BOLD
 11
2.96375
 21
9.549375
 31
0.0
100
AcDbText
  0
LWPOLYLINE
  5
188
330
17
100
AcDbEntity
  8
A-SEAT-FIXD
100
AcDbPolyline
 90
4
 70
1
 10
2.87
 20
3.63125
 10
6.995
 20
3.63125
 10
6.995
 20
4.1
 10
2.87
 20
4.1
  0
TEXT
  5
189
330
17
100
AcDbEntity
  8
A-AREA-IDEN
100
AcDbText
 10
2.96375
 20
3.830625
 30
0.0
 40
0.056
  1
UPPER (S) · FIXED · 314 SEATS
  7
KS-BOLD
 11
2.96375
 21
3.830625
 31
0.0
100
AcDbText
  0
LWPOLYLINE
  5
18A
330
17
100
AcDbEntity
  8
A-SEAT-FIXD
100
AcDbPolyline
 90
4
 70
1
 10
6.995
 20
3.63125
 10
7.46375
 20
3.63125
 10
7.46375
 20
9.81875
 10
6.995
 20
9.81875
  0
TEXT
  5
18B
330
17
100
AcDbEntity
  8
A-AREA-IDEN
100
AcDbText
 10
7.264375
 20
6.725
 30
0.0
 40
0.056
  1
UPPER (E) · FIXED · 472 SEATS
 50
90.0
  7
KS-BOLD
 72
1
 11
7.264375
 21
6.725
 31
0.0
100
AcDbText
  0
TEXT
  5
18C
330
17
100
AcDbEntity
  8
A-AREA-IDEN
100
AcDbText
 10
4.9325
 20
6.7749999999999995
 30
0.0
 40
0.07999999999999999
  1
OPEN TO ARENA BELOW
  7
KS-BOLD
 72
1
 11
4.9325
 21
6.7749999999999995
 31
0.0
100
AcDbText
  0
TEXT
  5
18D
330
17
100
AcDbEntity
  8
A-AREA-IDEN
100
AcDbText
 10
4.9325
 20
6.625
 30
0.0
 40
0.06
  1
(event floor + telescopic lower tier, double height)
  7
KS-REG
 72
1
 11
4.9325
 21
6.625
 31
0.0
100
AcDbText
  0
TEXT
  5
18E
330
17
100
AcDbEntity
  8
A-AREA-IDEN
100
AcDbText
 10
4.65125
 20
2.97277
 30
0.0
 40
0.064
  1
OPEN TO LOBBY BELOW
  7
KS-BOLD
 72
1
 11
4.65125
 21
2.97277
 31
0.0
100
AcDbText
  0
TEXT
  5
18F
330
17
100
AcDbEntity
  8
A-AREA-IDEN
100
AcDbText
 10
4.65125
 20
2.855436666666667
 30
0.0
 40
0.064
  1
(hall of champions,
  7
KS-REG
 72
1
 11
4.65125
 21
2.855436666666667
 31
0.0
100
AcDbText
  0
TEXT
  5
190
330
17
100
AcDbEntity
  8
A-AREA-IDEN
100
AcDbText
 10
4.65125
 20
2.7381033333333336
 30
0.0
 40
0.064
  1
double height)
  7
KS-REG
 72
1
 11
4.65125
 21
2.7381033333333336
 31
0.0
100
AcDbText
  0
LWPOLYLINE
  5
191
330
17
100
AcDbEntity
  8
A-FLOR-TRAK
100
AcDbPolyline
 90
4
 70
1
 10
2.65125
 20
3.4125
 10
7.6825
 20
3.4125
 10
7.6825
 20
10.0375
 10
2.65125
 20
10.0375
  0
LWPOLYLINE
  5
192
330
17
100
AcDbEntity
  8
A-FLOR-TRAK
100
AcDbPolyline
 90
4
 70
1
 10
2.87
 20
3.63125
 10
7.46375
 20
3.63125
 10
7.46375
 20
9.81875
 10
2.87
 20
9.81875
  0
TEXT
  5
193
330
17
100
AcDbEntity
  8
A-FLOR-TRAK
100
AcDbText
 10
4.71375
 20
3.4998750000000003
 30
0.0
 40
0.04599999999999999
  1
LOOP (S) · UPPER CONCOURSE / HALL OF CHAMPIONS BALCONY · 2 LANES x 42 IN = 7 FT
  7
KS-BOLD
 72
1
 11
4.71375
 21
3.4998750000000003
 31
0.0
100
AcDbText
  0
TEXT
  5
194
330
17
100
AcDbEntity
  8
A-FLOR-TRAK
100
AcDbText
 10
4.5575
 20
9.906125
 30
0.0
 40
0.04599999999999999
  1
LOOP (N) · REAR CONCOURSE ON EVENT DAYS · 2 LANES x 42 IN
  7
KS-BOLD
 72
1
 11
4.5575
 21
9.906125
 31
0.0
100
AcDbText
  0
TEXT
  5
195
330
17
100
AcDbEntity
  8
A-FLOR-TRAK
100
AcDbText
 10
7.595125
 20
6.725
 30
0.0
 40
0.04599999999999999
  1
LOOP (E) · 2 LANES x 42 IN = 7 FT
 50
90.0
  7
KS-BOLD
 72
1
 11
7.595125
 21
6.725
 31
0.0
100
AcDbText
  0
TEXT
  5
196
330
17
100
AcDbEntity
  8
A-FLOR-TRAK
100
AcDbText
 10
2.782625
 20
5.63125
 30
0.0
 40
0.04599999999999999
  1
LOOP (W) · NEW LEG (D-035)
 50
90.0
  7
KS-BOLD
 72
1
 11
2.782625
 21
5.63125
 31
0.0
100
AcDbText
  0
LINE
  5
197
330
17
100
AcDbEntity
  8
A-FLOR-TRAK
100
AcDbLine
 10
2.760625
 20
3.521875
 30
0.0
 11
2.820625
 21
3.521875
 31
0.0
  0
LINE
  5
198
330
17
100
AcDbEntity
  8
A-FLOR-TRAK
100
AcDbLine
 10
2.860625
 20
3.521875
 30
0.0
 11
2.9206250000000002
 21
3.521875
 31
0.0
  0
LINE
  5
199
330
17
100
AcDbEntity
  8
A-FLOR-TRAK
100
AcDbLine
 10
2.9606250000000003
 20
3.521875
 30
0.0
 11
3.020625
 21
3.521875
 31
0.0
  0
LINE
  5
19A
330
17
100
AcDbEntity
  8
A-FLOR-TRAK
100
AcDbLine
 10
6.368890190972222
 20
3.521875
 30
0.0
 11
6.428890190972222
 21
3.521875
 31
0.0
  0
LINE
  5
19B
330
17
100
AcDbEntity
  8
A-FLOR-TRAK
100
AcDbLine
 10
6.468890190972222
 20
3.521875
 30
0.0
 11
6.528890190972223
 21
3.521875
 31
0.0
  0
LINE
  5
19C
330
17
100
AcDbEntity
  8
A-FLOR-TRAK
100
AcDbLine
 10
6.568890190972223
 20
3.521875
 30
0.0
 11
6.628890190972222
 21
3.521875
 31
0.0
  0
LINE
  5
19D
330
17
100
AcDbEntity
  8
A-FLOR-TRAK
100
AcDbLine
 10
6.668890190972222
 20
3.521875
 30
0.0
 11
6.728890190972223
 21
3.521875
 31
0.0
  0
LINE
  5
19E
330
17
100
AcDbEntity
  8
A-FLOR-TRAK
100
AcDbLine
 10
6.768890190972223
 20
3.521875
 30
0.0
 11
6.828890190972222
 21
3.521875
 31
0.0
  0
LINE
  5
19F
330
17
100
AcDbEntity
  8
A-FLOR-TRAK
100
AcDbLine
 10
6.868890190972222
 20
3.521875
 30
0.0
 11
6.928890190972222
 21
3.521875
 31
0.0
  0
LINE
  5
1A0
330
17
100
AcDbEntity
  8
A-FLOR-TRAK
100
AcDbLine
 10
6.968890190972222
 20
3.521875
 30
0.0
 11
7.028890190972223
 21
3.521875
 31
0.0
  0
LINE
  5
1A1
330
17
100
AcDbEntity
  8
A-FLOR-TRAK
100
AcDbLine
 10
7.068890190972223
 20
3.521875
 30
0.0
 11
7.128890190972222
 21
3.521875
 31
0.0
  0
LINE
  5
1A2
330
17
100
AcDbEntity
  8
A-FLOR-TRAK
100
AcDbLine
 10
7.168890190972222
 20
3.521875
 30
0.0
 11
7.228890190972223
 21
3.521875
 31
0.0
  0
LINE
  5
1A3
330
17
100
AcDbEntity
  8
A-FLOR-TRAK
100
AcDbLine
 10
7.268890190972223
 20
3.521875
 30
0.0
 11
7.328890190972222
 21
3.521875
 31
0.0
  0
LINE
  5
1A4
330
17
100
AcDbEntity
  8
A-FLOR-TRAK
100
AcDbLine
 10
7.368890190972222
 20
3.521875
 30
0.0
 11
7.428890190972223
 21
3.521875
 31
0.0
  0
LINE
  5
1A5
330
17
100
AcDbEntity
  8
A-FLOR-TRAK
100
AcDbLine
 10
7.468890190972223
 20
3.521875
 30
0.0
 11
7.528890190972223
 21
3.521875
 31
0.0
  0
LINE
  5
1A6
330
17
100
AcDbEntity
  8
A-FLOR-TRAK
100
AcDbLine
 10
7.568890190972223
 20
3.521875
 30
0.0
 11
7.573125
 21
3.521875
 31
0.0
  0
LINE
  5
1A7
330
17
100
AcDbEntity
  8
A-FLOR-TRAK
100
AcDbLine
 10
2.760625
 20
9.928125
 30
0.0
 11
2.820625
 21
9.928125
 31
0.0
  0
LINE
  5
1A8
330
17
100
AcDbEntity
  8
A-FLOR-TRAK
100
AcDbLine
 10
2.860625
 20
9.928125
 30
0.0
 11
2.9206250000000002
 21
9.928125
 31
0.0
  0
LINE
  5
1A9
330
17
100
AcDbEntity
  8
A-FLOR-TRAK
100
AcDbLine
 10
2.9606250000000003
 20
9.928125
 30
0.0
 11
3.020625
 21
9.928125
 31
0.0
  0
LINE
  5
1AA
330
17
100
AcDbEntity
  8
A-FLOR-TRAK
100
AcDbLine
 10
3.060625
 20
9.928125
 30
0.0
 11
3.120625
 21
9.928125
 31
0.0
  0
LINE
  5
1AB
330
17
100
AcDbEntity
  8
A-FLOR-TRAK
100
AcDbLine
 10
3.160625
 20
9.928125
 30
0.0
 11
3.220625
 21
9.928125
 31
0.0
  0
LINE
  5
1AC
330
17
100
AcDbEntity
  8
A-FLOR-TRAK
100
AcDbLine
 10
3.260625
 20
9.928125
 30
0.0
 11
3.320625
 21
9.928125
 31
0.0
  0
LINE
  5
1AD
330
17
100
AcDbEntity
  8
A-FLOR-TRAK
100
AcDbLine
 10
5.765467881944445
 20
9.928125
 30
0.0
 11
5.825467881944444
 21
9.928125
 31
0.0
  0
LINE
  5
1AE
330
17
100
AcDbEntity
  8
A-FLOR-TRAK
100
AcDbLine
 10
5.865467881944444
 20
9.928125
 30
0.0
 11
5.925467881944445
 21
9.928125
 31
0.0
  0
LINE
  5
1AF
330
17
100
AcDbEntity
  8
A-FLOR-TRAK
100
AcDbLine
 10
5.965467881944445
 20
9.928125
 30
0.0
 11
6.0254678819444445
 21
9.928125
 31
0.0
  0
LINE
  5
1B0
330
17
100
AcDbEntity
  8
A-FLOR-TRAK
100
AcDbLine
 10
6.0654678819444445
 20
9.928125
 30
0.0
 11
6.125467881944445
 21
9.928125
 31
0.0
  0
LINE
  5
1B1
330
17
100
AcDbEntity
  8
A-FLOR-TRAK
100
AcDbLine
 10
6.165467881944445
 20
9.928125
 30
0.0
 11
6.225467881944445
 21
9.928125
 31
0.0
  0
LINE
  5
1B2
330
17
100
AcDbEntity
  8
A-FLOR-TRAK
100
AcDbLine
 10
6.265467881944445
 20
9.928125
 30
0.0
 11
6.325467881944444
 21
9.928125
 31
0.0
  0
LINE
  5
1B3
330
17
100
AcDbEntity
  8
A-FLOR-TRAK
100
AcDbLine
 10
6.365467881944444
 20
9.928125
 30
0.0
 11
6.425467881944445
 21
9.928125
 31
0.0
  0
LINE
  5
1B4
330
17
100
AcDbEntity
  8
A-FLOR-TRAK
100
AcDbLine
 10
6.465467881944445
 20
9.928125
 30
0.0
 11
6.5254678819444445
 21
9.928125
 31
0.0
  0
LINE
  5
1B5
330
17
100
AcDbEntity
  8
A-FLOR-TRAK
100
AcDbLine
 10
6.5654678819444445
 20
9.928125
 30
0.0
 11
6.625467881944445
 21
9.928125
 31
0.0
  0
LINE
  5
1B6
330
17
100
AcDbEntity
  8
A-FLOR-TRAK
100
AcDbLine
 10
6.665467881944445
 20
9.928125
 30
0.0
 11
6.725467881944445
 21
9.928125
 31
0.0
  0
LINE
  5
1B7
330
17
100
AcDbEntity
  8
A-FLOR-TRAK
100
AcDbLine
 10
6.765467881944445
 20
9.928125
 30
0.0
 11
6.825467881944445
 21
9.928125
 31
0.0
  0
LINE
  5
1B8
330
17
100
AcDbEntity
  8
A-FLOR-TRAK
100
AcDbLine
 10
6.865467881944445
 20
9.928125
 30
0.0
 11
6.925467881944445
 21
9.928125
 31
0.0
  0
LINE
  5
1B9
330
17
100
AcDbEntity
  8
A-FLOR-TRAK
100
AcDbLine
 10
6.965467881944445
 20
9.928125
 30
0.0
 11
7.025467881944445
 21
9.928125
 31
0.0
  0
LINE
  5
1BA
330
17
100
AcDbEntity
  8
A-FLOR-TRAK
100
AcDbLine
 10
7.065467881944445
 20
9.928125
 30
0.0
 11
7.125467881944445
 21
9.928125
 31
0.0
  0
LINE
  5
1BB
330
17
100
AcDbEntity
  8
A-FLOR-TRAK
100
AcDbLine
 10
7.165467881944445
 20
9.928125
 30
0.0
 11
7.225467881944446
 21
9.928125
 31
0.0
  0
LINE
  5
1BC
330
17
100
AcDbEntity
  8
A-FLOR-TRAK
100
AcDbLine
 10
7.265467881944446
 20
9.928125
 30
0.0
 11
7.325467881944445
 21
9.928125
 31
0.0
  0
LINE
  5
1BD
330
17
100
AcDbEntity
  8
A-FLOR-TRAK
100
AcDbLine
 10
7.365467881944445
 20
9.928125
 30
0.0
 11
7.425467881944446
 21
9.928125
 31
0.0
  0
LINE
  5
1BE
330
17
100
AcDbEntity
  8
A-FLOR-TRAK
100
AcDbLine
 10
7.465467881944446
 20
9.928125
 30
0.0
 11
7.525467881944445
 21
9.928125
 31
0.0
  0
LINE
  5
1BF
330
17
100
AcDbEntity
  8
A-FLOR-TRAK
100
AcDbLine
 10
7.565467881944445
 20
9.928125
 30
0.0
 11
7.573125
 21
9.928125
 31
0.0
  0
LINE
  5
1C0
330
17
100
AcDbEntity
  8
A-FLOR-TRAK
100
AcDbLine
 10
2.760625
 20
3.521875
 30
0.0
 11
2.760625
 21
3.581875
 31
0.0
  0
LINE
  5
1C1
330
17
100
AcDbEntity
  8
A-FLOR-TRAK
100
AcDbLine
 10
2.760625
 20
3.621875
 30
0.0
 11
2.760625
 21
3.6818750000000002
 31
0.0
  0
LINE
  5
1C2
330
17
100
AcDbEntity
  8
A-FLOR-TRAK
100
AcDbLine
 10
2.760625
 20
3.7218750000000003
 30
0.0
 11
2.760625
 21
3.7818750000000003
 31
0.0
  0
LINE
  5
1C3
330
17
100
AcDbEntity
  8
A-FLOR-TRAK
100
AcDbLine
 10
2.760625
 20
3.821875
 30
0.0
 11
2.760625
 21
3.881875
 31
0.0
  0
LINE
  5
1C4
330
17
100
AcDbEntity
  8
A-FLOR-TRAK
100
AcDbLine
 10
2.760625
 20
3.921875
 30
0.0
 11
2.760625
 21
3.981875
 31
0.0
  0
LINE
  5
1C5
330
17
100
AcDbEntity
  8
A-FLOR-TRAK
100
AcDbLine
 10
2.760625
 20
4.021875
 30
0.0
 11
2.760625
 21
4.081875
 31
0.0
  0
LINE
  5
1C6
330
17
100
AcDbEntity
  8
A-FLOR-TRAK
100
AcDbLine
 10
2.760625
 20
4.121875
 30
0.0
 11
2.760625
 21
4.181875
 31
0.0
  0
LINE
  5
1C7
330
17
100
AcDbEntity
  8
A-FLOR-TRAK
100
AcDbLine
 10
2.760625
 20
4.221875
 30
0.0
 11
2.760625
 21
4.281875
 31
0.0
  0
LINE
  5
1C8
330
17
100
AcDbEntity
  8
A-FLOR-TRAK
100
AcDbLine
 10
2.760625
 20
4.321875
 30
0.0
 11
2.760625
 21
4.381875
 31
0.0
  0
LINE
  5
1C9
330
17
100
AcDbEntity
  8
A-FLOR-TRAK
100
AcDbLine
 10
2.760625
 20
4.421875
 30
0.0
 11
2.760625
 21
4.4818750000000005
 31
0.0
  0
LINE
  5
1CA
330
17
100
AcDbEntity
  8
A-FLOR-TRAK
100
AcDbLine
 10
2.760625
 20
4.5218750000000005
 30
0.0
 11
2.760625
 21
4.581875
 31
0.0
  0
LINE
  5
1CB
330
17
100
AcDbEntity
  8
A-FLOR-TRAK
100
AcDbLine
 10
2.760625
 20
4.621875
 30
0.0
 11
2.760625
 21
4.681875000000001
 31
0.0
  0
LINE
  5
1CC
330
17
100
AcDbEntity
  8
A-FLOR-TRAK
100
AcDbLine
 10
2.760625
 20
4.721875000000001
 30
0.0
 11
2.760625
 21
4.781875
 31
0.0
  0
LINE
  5
1CD
330
17
100
AcDbEntity
  8
A-FLOR-TRAK
100
AcDbLine
 10
2.760625
 20
4.821875
 30
0.0
 11
2.760625
 21
4.881875000000001
 31
0.0
  0
LINE
  5
1CE
330
17
100
AcDbEntity
  8
A-FLOR-TRAK
100
AcDbLine
 10
2.760625
 20
4.921875000000001
 30
0.0
 11
2.760625
 21
4.9818750000000005
 31
0.0
  0
LINE
  5
1CF
330
17
100
AcDbEntity
  8
A-FLOR-TRAK
100
AcDbLine
 10
2.760625
 20
5.0218750000000005
 30
0.0
 11
2.760625
 21
5.0539453125
 31
0.0
  0
LINE
  5
1D0
330
17
100
AcDbEntity
  8
A-FLOR-TRAK
100
AcDbLine
 10
2.760625
 20
6.2085546874999995
 30
0.0
 11
2.760625
 21
6.268554687499999
 31
0.0
  0
LINE
  5
1D1
330
17
100
AcDbEntity
  8
A-FLOR-TRAK
100
AcDbLine
 10
2.760625
 20
6.308554687499999
 30
0.0
 11
2.760625
 21
6.3685546875
 31
0.0
  0
LINE
  5
1D2
330
17
100
AcDbEntity
  8
A-FLOR-TRAK
100
AcDbLine
 10
2.760625
 20
6.4085546875
 30
0.0
 11
2.760625
 21
6.468554687499999
 31
0.0
  0
LINE
  5
1D3
330
17
100
AcDbEntity
  8
A-FLOR-TRAK
100
AcDbLine
 10
2.760625
 20
6.508554687499999
 30
0.0
 11
2.760625
 21
6.5685546875
 31
0.0
  0
LINE
  5
1D4
330
17
100
AcDbEntity
  8
A-FLOR-TRAK
100
AcDbLine
 10
2.760625
 20
6.6085546875
 30
0.0
 11
2.760625
 21
6.6685546874999995
 31
0.0
  0
LINE
  5
1D5
330
17
100
AcDbEntity
  8
A-FLOR-TRAK
100
AcDbLine
 10
2.760625
 20
6.7085546874999995
 30
0.0
 11
2.760625
 21
6.768554687499999
 31
0.0
  0
LINE
  5
1D6
330
17
100
AcDbEntity
  8
A-FLOR-TRAK
100
AcDbLine
 10
2.760625
 20
6.808554687499999
 30
0.0
 11
2.760625
 21
6.8685546875
 31
0.0
  0
LINE
  5
1D7
330
17
100
AcDbEntity
  8
A-FLOR-TRAK
100
AcDbLine
 10
2.760625
 20
6.9085546875
 30
0.0
 11
2.760625
 21
6.968554687499999
 31
0.0
  0
LINE
  5
1D8
330
17
100
AcDbEntity
  8
A-FLOR-TRAK
100
AcDbLine
 10
2.760625
 20
7.008554687499999
 30
0.0
 11
2.760625
 21
7.0685546875
 31
0.0
  0
LINE
  5
1D9
330
17
100
AcDbEntity
  8
A-FLOR-TRAK
100
AcDbLine
 10
2.760625
 20
7.1085546875
 30
0.0
 11
2.760625
 21
7.1685546874999995
 31
0.0
  0
LINE
  5
1DA
330
17
100
AcDbEntity
  8
A-FLOR-TRAK
100
AcDbLine
 10
2.760625
 20
7.2085546874999995
 30
0.0
 11
2.760625
 21
7.2685546875
 31
0.0
  0
LINE
  5
1DB
330
17
100
AcDbEntity
  8
A-FLOR-TRAK
100
AcDbLine
 10
2.760625
 20
7.3085546875
 30
0.0
 11
2.760625
 21
7.3685546875
 31
0.0
  0
LINE
  5
1DC
330
17
100
AcDbEntity
  8
A-FLOR-TRAK
100
AcDbLine
 10
2.760625
 20
7.4085546875
 30
0.0
 11
2.760625
 21
7.4685546875
 31
0.0
  0
LINE
  5
1DD
330
17
100
AcDbEntity
  8
A-FLOR-TRAK
100
AcDbLine
 10
2.760625
 20
7.5085546875
 30
0.0
 11
2.760625
 21
7.5685546875
 31
0.0
  0
LINE
  5
1DE
330
17
100
AcDbEntity
  8
A-FLOR-TRAK
100
AcDbLine
 10
2.760625
 20
7.6085546875
 30
0.0
 11
2.760625
 21
7.6685546875
 31
0.0
  0
LINE
  5
1DF
330
17
100
AcDbEntity
  8
A-FLOR-TRAK
100
AcDbLine
 10
2.760625
 20
7.7085546875
 30
0.0
 11
2.760625
 21
7.7685546875
 31
0.0
  0
LINE
  5
1E0
330
17
100
AcDbEntity
  8
A-FLOR-TRAK
100
AcDbLine
 10
2.760625
 20
7.8085546875
 30
0.0
 11
2.760625
 21
7.8685546875000005
 31
0.0
  0
LINE
  5
1E1
330
17
100
AcDbEntity
  8
A-FLOR-TRAK
100
AcDbLine
 10
2.760625
 20
7.908554687500001
 30
0.0
 11
2.760625
 21
7.9685546875
 31
0.0
  0
LINE
  5
1E2
330
17
100
AcDbEntity
  8
A-FLOR-TRAK
100
AcDbLine
 10
2.760625
 20
8.0085546875
 30
0.0
 11
2.760625
 21
8.0685546875
 31
0.0
  0
LINE
  5
1E3
330
17
100
AcDbEntity
  8
A-FLOR-TRAK
100
AcDbLine
 10
2.760625
 20
8.1085546875
 30
0.0
 11
2.760625
 21
8.1685546875
 31
0.0
  0
LINE
  5
1E4
330
17
100
AcDbEntity
  8
A-FLOR-TRAK
100
AcDbLine
 10
2.760625
 20
8.208554687500001
 30
0.0
 11
2.760625
 21
8.2685546875
 31
0.0
  0
LINE
  5
1E5
330
17
100
AcDbEntity
  8
A-FLOR-TRAK
100
AcDbLine
 10
2.760625
 20
8.308554687500001
 30
0.0
 11
2.760625
 21
8.368554687500001
 31
0.0
  0
LINE
  5
1E6
330
17
100
AcDbEntity
  8
A-FLOR-TRAK
100
AcDbLine
 10
2.760625
 20
8.4085546875
 30
0.0
 11
2.760625
 21
8.468554687500001
 31
0.0
  0
LINE
  5
1E7
330
17
100
AcDbEntity
  8
A-FLOR-TRAK
100
AcDbLine
 10
2.760625
 20
8.5085546875
 30
0.0
 11
2.760625
 21
8.5685546875
 31
0.0
  0
LINE
  5
1E8
330
17
100
AcDbEntity
  8
A-FLOR-TRAK
100
AcDbLine
 10
2.760625
 20
8.6085546875
 30
0.0
 11
2.760625
 21
8.6685546875
 31
0.0
  0
LINE
  5
1E9
330
17
100
AcDbEntity
  8
A-FLOR-TRAK
100
AcDbLine
 10
2.760625
 20
8.708554687500001
 30
0.0
 11
2.760625
 21
8.7685546875
 31
0.0
  0
LINE
  5
1EA
330
17
100
AcDbEntity
  8
A-FLOR-TRAK
100
AcDbLine
 10
2.760625
 20
8.808554687500001
 30
0.0
 11
2.760625
 21
8.868554687500001
 31
0.0
  0
LINE
  5
1EB
330
17
100
AcDbEntity
  8
A-FLOR-TRAK
100
AcDbLine
 10
2.760625
 20
8.9085546875
 30
0.0
 11
2.760625
 21
8.968554687500001
 31
0.0
  0
LINE
  5
1EC
330
17
100
AcDbEntity
  8
A-FLOR-TRAK
100
AcDbLine
 10
2.760625
 20
9.008554687500002
 30
0.0
 11
2.760625
 21
9.0685546875
 31
0.0
  0
LINE
  5
1ED
330
17
100
AcDbEntity
  8
A-FLOR-TRAK
100
AcDbLine
 10
2.760625
 20
9.108554687500002
 30
0.0
 11
2.760625
 21
9.168554687500002
 31
0.0
  0
LINE
  5
1EE
330
17
100
AcDbEntity
  8
A-FLOR-TRAK
100
AcDbLine
 10
2.760625
 20
9.208554687500001
 30
0.0
 11
2.760625
 21
9.268554687500002
 31
0.0
  0
LINE
  5
1EF
330
17
100
AcDbEntity
  8
A-FLOR-TRAK
100
AcDbLine
 10
2.760625
 20
9.308554687500001
 30
0.0
 11
2.760625
 21
9.368554687500001
 31
0.0
  0
LINE
  5
1F0
330
17
100
AcDbEntity
  8
A-FLOR-TRAK
100
AcDbLine
 10
2.760625
 20
9.4085546875
 30
0.0
 11
2.760625
 21
9.468554687500001
 31
0.0
  0
LINE
  5
1F1
330
17
100
AcDbEntity
  8
A-FLOR-TRAK
100
AcDbLine
 10
2.760625
 20
9.508554687500002
 30
0.0
 11
2.760625
 21
9.5685546875
 31
0.0
  0
LINE
  5
1F2
330
17
100
AcDbEntity
  8
A-FLOR-TRAK
100
AcDbLine
 10
2.760625
 20
9.608554687500002
 30
0.0
 11
2.760625
 21
9.668554687500002
 31
0.0
  0
LINE
  5
1F3
330
17
100
AcDbEntity
  8
A-FLOR-TRAK
100
AcDbLine
 10
2.760625
 20
9.708554687500001
 30
0.0
 11
2.760625
 21
9.768554687500002
 31
0.0
  0
LINE
  5
1F4
330
17
100
AcDbEntity
  8
A-FLOR-TRAK
100
AcDbLine
 10
2.760625
 20
9.808554687500003
 30
0.0
 11
2.760625
 21
9.868554687500001
 31
0.0
  0
LINE
  5
1F5
330
17
100
AcDbEntity
  8
A-FLOR-TRAK
100
AcDbLine
 10
2.760625
 20
9.908554687500002
 30
0.0
 11
2.760625
 21
9.928125
 31
0.0
  0
LINE
  5
1F6
330
17
100
AcDbEntity
  8
A-FLOR-TRAK
100
AcDbLine
 10
7.573125
 20
3.521875
 30
0.0
 11
7.573125
 21
3.581875
 31
0.0
  0
LINE
  5
1F7
330
17
100
AcDbEntity
  8
A-FLOR-TRAK
100
AcDbLine
 10
7.573125
 20
3.621875
 30
0.0
 11
7.573125
 21
3.6818750000000002
 31
0.0
  0
LINE
  5
1F8
330
17
100
AcDbEntity
  8
A-FLOR-TRAK
100
AcDbLine
 10
7.573125
 20
3.7218750000000003
 30
0.0
 11
7.573125
 21
3.7818750000000003
 31
0.0
  0
LINE
  5
1F9
330
17
100
AcDbEntity
  8
A-FLOR-TRAK
100
AcDbLine
 10
7.573125
 20
3.821875
 30
0.0
 11
7.573125
 21
3.881875
 31
0.0
  0
LINE
  5
1FA
330
17
100
AcDbEntity
  8
A-FLOR-TRAK
100
AcDbLine
 10
7.573125
 20
3.921875
 30
0.0
 11
7.573125
 21
3.981875
 31
0.0
  0
LINE
  5
1FB
330
17
100
AcDbEntity
  8
A-FLOR-TRAK
100
AcDbLine
 10
7.573125
 20
4.021875
 30
0.0
 11
7.573125
 21
4.081875
 31
0.0
  0
LINE
  5
1FC
330
17
100
AcDbEntity
  8
A-FLOR-TRAK
100
AcDbLine
 10
7.573125
 20
4.121875
 30
0.0
 11
7.573125
 21
4.181875
 31
0.0
  0
LINE
  5
1FD
330
17
100
AcDbEntity
  8
A-FLOR-TRAK
100
AcDbLine
 10
7.573125
 20
4.221875
 30
0.0
 11
7.573125
 21
4.281875
 31
0.0
  0
LINE
  5
1FE
330
17
100
AcDbEntity
  8
A-FLOR-TRAK
100
AcDbLine
 10
7.573125
 20
4.321875
 30
0.0
 11
7.573125
 21
4.381875
 31
0.0
  0
LINE
  5
1FF
330
17
100
AcDbEntity
  8
A-FLOR-TRAK
100
AcDbLine
 10
7.573125
 20
4.421875
 30
0.0
 11
7.573125
 21
4.4818750000000005
 31
0.0
  0
LINE
  5
200
330
17
100
AcDbEntity
  8
A-FLOR-TRAK
100
AcDbLine
 10
7.573125
 20
4.5218750000000005
 30
0.0
 11
7.573125
 21
4.581875
 31
0.0
  0
LINE
  5
201
330
17
100
AcDbEntity
  8
A-FLOR-TRAK
100
AcDbLine
 10
7.573125
 20
4.621875
 30
0.0
 11
7.573125
 21
4.681875000000001
 31
0.0
  0
LINE
  5
202
330
17
100
AcDbEntity
  8
A-FLOR-TRAK
100
AcDbLine
 10
7.573125
 20
4.721875000000001
 30
0.0
 11
7.573125
 21
4.781875
 31
0.0
  0
LINE
  5
203
330
17
100
AcDbEntity
  8
A-FLOR-TRAK
100
AcDbLine
 10
7.573125
 20
4.821875
 30
0.0
 11
7.573125
 21
4.881875000000001
 31
0.0
  0
LINE
  5
204
330
17
100
AcDbEntity
  8
A-FLOR-TRAK
100
AcDbLine
 10
7.573125
 20
4.921875000000001
 30
0.0
 11
7.573125
 21
4.9818750000000005
 31
0.0
  0
LINE
  5
205
330
17
100
AcDbEntity
  8
A-FLOR-TRAK
100
AcDbLine
 10
7.573125
 20
5.0218750000000005
 30
0.0
 11
7.573125
 21
5.081875000000001
 31
0.0
  0
LINE
  5
206
330
17
100
AcDbEntity
  8
A-FLOR-TRAK
100
AcDbLine
 10
7.573125
 20
5.121875000000001
 30
0.0
 11
7.573125
 21
5.181875000000001
 31
0.0
  0
LINE
  5
207
330
17
100
AcDbEntity
  8
A-FLOR-TRAK
100
AcDbLine
 10
7.573125
 20
5.221875000000001
 30
0.0
 11
7.573125
 21
5.281875000000001
 31
0.0
  0
LINE
  5
208
330
17
100
AcDbEntity
  8
A-FLOR-TRAK
100
AcDbLine
 10
7.573125
 20
5.321875000000001
 30
0.0
 11
7.573125
 21
5.381875000000001
 31
0.0
  0
LINE
  5
209
330
17
100
AcDbEntity
  8
A-FLOR-TRAK
100
AcDbLine
 10
7.573125
 20
5.421875000000001
 30
0.0
 11
7.573125
 21
5.481875000000001
 31
0.0
  0
LINE
  5
20A
330
17
100
AcDbEntity
  8
A-FLOR-TRAK
100
AcDbLine
 10
7.573125
 20
5.521875000000001
 30
0.0
 11
7.573125
 21
5.581875000000001
 31
0.0
  0
LINE
  5
20B
330
17
100
AcDbEntity
  8
A-FLOR-TRAK
100
AcDbLine
 10
7.573125
 20
5.621875000000001
 30
0.0
 11
7.573125
 21
5.681875000000002
 31
0.0
  0
LINE
  5
20C
330
17
100
AcDbEntity
  8
A-FLOR-TRAK
100
AcDbLine
 10
7.573125
 20
5.721875000000001
 30
0.0
 11
7.573125
 21
5.781875000000001
 31
0.0
  0
LINE
  5
20D
330
17
100
AcDbEntity
  8
A-FLOR-TRAK
100
AcDbLine
 10
7.573125
 20
5.821875000000001
 30
0.0
 11
7.573125
 21
5.881875000000001
 31
0.0
  0
LINE
  5
20E
330
17
100
AcDbEntity
  8
A-FLOR-TRAK
100
AcDbLine
 10
7.573125
 20
5.921875000000002
 30
0.0
 11
7.573125
 21
5.981875000000001
 31
0.0
  0
LINE
  5
20F
330
17
100
AcDbEntity
  8
A-FLOR-TRAK
100
AcDbLine
 10
7.573125
 20
6.021875000000001
 30
0.0
 11
7.573125
 21
6.056219401041666
 31
0.0
  0
LINE
  5
210
330
17
100
AcDbEntity
  8
A-FLOR-TRAK
100
AcDbLine
 10
7.573125
 20
7.393780598958333
 30
0.0
 11
7.573125
 21
7.453780598958333
 31
0.0
  0
LINE
  5
211
330
17
100
AcDbEntity
  8
A-FLOR-TRAK
100
AcDbLine
 10
7.573125
 20
7.493780598958333
 30
0.0
 11
7.573125
 21
7.553780598958333
 31
0.0
  0
LINE
  5
212
330
17
100
AcDbEntity
  8
A-FLOR-TRAK
100
AcDbLine
 10
7.573125
 20
7.593780598958333
 30
0.0
 11
7.573125
 21
7.653780598958333
 31
0.0
  0
LINE
  5
213
330
17
100
AcDbEntity
  8
A-FLOR-TRAK
100
AcDbLine
 10
7.573125
 20
7.693780598958333
 30
0.0
 11
7.573125
 21
7.7537805989583335
 31
0.0
  0
LINE
  5
214
330
17
100
AcDbEntity
  8
A-FLOR-TRAK
100
AcDbLine
 10
7.573125
 20
7.7937805989583335
 30
0.0
 11
7.573125
 21
7.853780598958333
 31
0.0
  0
LINE
  5
215
330
17
100
AcDbEntity
  8
A-FLOR-TRAK
100
AcDbLine
 10
7.573125
 20
7.893780598958333
 30
0.0
 11
7.573125
 21
7.953780598958333
 31
0.0
  0
LINE
  5
216
330
17
100
AcDbEntity
  8
A-FLOR-TRAK
100
AcDbLine
 10
7.573125
 20
7.993780598958333
 30
0.0
 11
7.573125
 21
8.053780598958333
 31
0.0
  0
LINE
  5
217
330
17
100
AcDbEntity
  8
A-FLOR-TRAK
100
AcDbLine
 10
7.573125
 20
8.093780598958332
 30
0.0
 11
7.573125
 21
8.153780598958333
 31
0.0
  0
LINE
  5
218
330
17
100
AcDbEntity
  8
A-FLOR-TRAK
100
AcDbLine
 10
7.573125
 20
8.193780598958334
 30
0.0
 11
7.573125
 21
8.253780598958333
 31
0.0
  0
LINE
  5
219
330
17
100
AcDbEntity
  8
A-FLOR-TRAK
100
AcDbLine
 10
7.573125
 20
8.293780598958334
 30
0.0
 11
7.573125
 21
8.353780598958334
 31
0.0
  0
LINE
  5
21A
330
17
100
AcDbEntity
  8
A-FLOR-TRAK
100
AcDbLine
 10
7.573125
 20
8.393780598958333
 30
0.0
 11
7.573125
 21
8.453780598958334
 31
0.0
  0
LINE
  5
21B
330
17
100
AcDbEntity
  8
A-FLOR-TRAK
100
AcDbLine
 10
7.573125
 20
8.493780598958333
 30
0.0
 11
7.573125
 21
8.553780598958333
 31
0.0
  0
LINE
  5
21C
330
17
100
AcDbEntity
  8
A-FLOR-TRAK
100
AcDbLine
 10
7.573125
 20
8.593780598958334
 30
0.0
 11
7.573125
 21
8.653780598958333
 31
0.0
  0
LINE
  5
21D
330
17
100
AcDbEntity
  8
A-FLOR-TRAK
100
AcDbLine
 10
7.573125
 20
8.693780598958334
 30
0.0
 11
7.573125
 21
8.753780598958334
 31
0.0
  0
LINE
  5
21E
330
17
100
AcDbEntity
  8
A-FLOR-TRAK
100
AcDbLine
 10
7.573125
 20
8.793780598958334
 30
0.0
 11
7.573125
 21
8.853780598958334
 31
0.0
  0
LINE
  5
21F
330
17
100
AcDbEntity
  8
A-FLOR-TRAK
100
AcDbLine
 10
7.573125
 20
8.893780598958333
 30
0.0
 11
7.573125
 21
8.953780598958334
 31
0.0
  0
LINE
  5
220
330
17
100
AcDbEntity
  8
A-FLOR-TRAK
100
AcDbLine
 10
7.573125
 20
8.993780598958335
 30
0.0
 11
7.573125
 21
9.053780598958333
 31
0.0
  0
LINE
  5
221
330
17
100
AcDbEntity
  8
A-FLOR-TRAK
100
AcDbLine
 10
7.573125
 20
9.093780598958334
 30
0.0
 11
7.573125
 21
9.153780598958335
 31
0.0
  0
LINE
  5
222
330
17
100
AcDbEntity
  8
A-FLOR-TRAK
100
AcDbLine
 10
7.573125
 20
9.193780598958334
 30
0.0
 11
7.573125
 21
9.253780598958334
 31
0.0
  0
LINE
  5
223
330
17
100
AcDbEntity
  8
A-FLOR-TRAK
100
AcDbLine
 10
7.573125
 20
9.293780598958334
 30
0.0
 11
7.573125
 21
9.353780598958334
 31
0.0
  0
LINE
  5
224
330
17
100
AcDbEntity
  8
A-FLOR-TRAK
100
AcDbLine
 10
7.573125
 20
9.393780598958333
 30
0.0
 11
7.573125
 21
9.453780598958334
 31
0.0
  0
LINE
  5
225
330
17
100
AcDbEntity
  8
A-FLOR-TRAK
100
AcDbLine
 10
7.573125
 20
9.493780598958335
 30
0.0
 11
7.573125
 21
9.553780598958333
 31
0.0
  0
LINE
  5
226
330
17
100
AcDbEntity
  8
A-FLOR-TRAK
100
AcDbLine
 10
7.573125
 20
9.593780598958334
 30
0.0
 11
7.573125
 21
9.653780598958335
 31
0.0
  0
LINE
  5
227
330
17
100
AcDbEntity
  8
A-FLOR-TRAK
100
AcDbLine
 10
7.573125
 20
9.693780598958334
 30
0.0
 11
7.573125
 21
9.753780598958334
 31
0.0
  0
LINE
  5
228
330
17
100
AcDbEntity
  8
A-FLOR-TRAK
100
AcDbLine
 10
7.573125
 20
9.793780598958335
 30
0.0
 11
7.573125
 21
9.853780598958334
 31
0.0
  0
LINE
  5
229
330
17
100
AcDbEntity
  8
A-FLOR-TRAK
100
AcDbLine
 10
7.573125
 20
9.893780598958335
 30
0.0
 11
7.573125
 21
9.928125
 31
0.0
  0
LINE
  5
22A
330
17
100
AcDbEntity
  8
A-FLOR-GRDR
100
AcDbLine
 10
2.87
 20
4.1
 30
0.0
 11
2.87
 21
9.35
 31
0.0
  0
LINE
  5
22B
330
17
100
AcDbEntity
  8
A-FLOR-GRDR
100
AcDbLine
 10
3.745
 20
3.4125
 30
0.0
 11
5.5575
 21
3.4125
 31
0.0
  0
TEXT
  5
22C
330
17
100
AcDbEntity
  8
A-FLOR-GRDR
100
AcDbText
 10
2.96875
 20
7.975
 30
0.0
 40
0.048
  1
42 IN GUARD (IBC 1015.2, 1015.3)
 50
90.0
  7
KS-BOLD
 72
1
 11
2.96875
 21
7.975
 31
0.0
100
AcDbText
  0
TEXT
  5
22D
330
17
100
AcDbEntity
  8
A-FLOR-GRDR
100
AcDbText
 10
4.65125
 20
3.33125
 30
0.0
 40
0.048
  1
42 IN GUARD (IBC 1015)
  7
KS-BOLD
 72
1
 11
4.65125
 21
3.33125
 31
0.0
100
AcDbText
  0
LINE
  5
22E
330
17
100
AcDbEntity
  8
A-AREA-IDEN
100
AcDbLine
 10
6.495
 20
9.81875
 30
0.0
 11
6.495
 21
10.0375
 31
0.0
  0
LINE
  5
22F
330
17
100
AcDbEntity
  8
A-AREA-IDEN
100
AcDbLine
 10
6.495
 20
9.81875
 30
0.0
 11
6.46375
 21
9.8625
 31
0.0
  0
LINE
  5
230
330
17
100
AcDbEntity
  8
A-AREA-IDEN
100
AcDbLine
 10
6.495
 20
9.81875
 30
0.0
 11
6.52625
 21
9.8625
 31
0.0
  0
LINE
  5
231
330
17
100
AcDbEntity
  8
A-AREA-IDEN
100
AcDbLine
 10
6.495
 20
10.0375
 30
0.0
 11
6.46375
 21
9.99375
 31
0.0
  0
LINE
  5
232
330
17
100
AcDbEntity
  8
A-AREA-IDEN
100
AcDbLine
 10
6.495
 20
10.0375
 30
0.0
 11
6.52625
 21
9.99375
 31
0.0
  0
LINE
  5
233
330
17
100
AcDbEntity
  8
A-AREA-IDEN
100
AcDbLine
 10
6.495
 20
3.4125
 30
0.0
 11
6.495
 21
3.63125
 31
0.0
  0
LINE
  5
234
330
17
100
AcDbEntity
  8
A-AREA-IDEN
100
AcDbLine
 10
6.495
 20
3.4125
 30
0.0
 11
6.46375
 21
3.45625
 31
0.0
  0
LINE
  5
235
330
17
100
AcDbEntity
  8
A-AREA-IDEN
100
AcDbLine
 10
6.495
 20
3.4125
 30
0.0
 11
6.52625
 21
3.45625
 31
0.0
  0
LINE
  5
236
330
17
100
AcDbEntity
  8
A-AREA-IDEN
100
AcDbLine
 10
6.495
 20
3.63125
 30
0.0
 11
6.46375
 21
3.5875000000000004
 31
0.0
  0
LINE
  5
237
330
17
100
AcDbEntity
  8
A-AREA-IDEN
100
AcDbLine
 10
6.495
 20
3.63125
 30
0.0
 11
6.52625
 21
3.5875000000000004
 31
0.0
  0
LINE
  5
238
330
17
100
AcDbEntity
  8
A-AREA-IDEN
100
AcDbLine
 10
7.46375
 20
5.475
 30
0.0
 11
7.6825
 21
5.475
 31
0.0
  0
LINE
  5
239
330
17
100
AcDbEntity
  8
A-AREA-IDEN
100
AcDbLine
 10
7.46375
 20
5.475
 30
0.0
 11
7.5075
 21
5.44375
 31
0.0
  0
LINE
  5
23A
330
17
100
AcDbEntity
  8
A-AREA-IDEN
100
AcDbLine
 10
7.46375
 20
5.475
 30
0.0
 11
7.5075
 21
5.50625
 31
0.0
  0
LINE
  5
23B
330
17
100
AcDbEntity
  8
A-AREA-IDEN
100
AcDbLine
 10
7.6825
 20
5.475
 30
0.0
 11
7.63875
 21
5.44375
 31
0.0
  0
LINE
  5
23C
330
17
100
AcDbEntity
  8
A-AREA-IDEN
100
AcDbLine
 10
7.6825
 20
5.475
 30
0.0
 11
7.63875
 21
5.50625
 31
0.0
  0
TEXT
  5
23D
330
17
100
AcDbEntity
  8
A-AREA-IDEN
100
AcDbText
 10
6.4325
 20
9.71875
 30
0.0
 40
0.044000000000000004
  1
event-day crossing (typ.)
  7
KS-REG
 72
2
 11
6.4325
 21
9.71875
 31
0.0
100
AcDbText
  0
TEXT
  5
23E
330
17
100
AcDbEntity
  8
A-AREA-IDEN
100
AcDbText
 10
4.790578125
 20
10.11125
 30
0.0
 40
0.044000000000000004
  1
STRETCH / WARM-UP STRIP (N) · 6 FT · ASSUMED
  7
KS-BOLD
 72
1
 11
4.790578125
 21
10.11125
 31
0.0
100
AcDbText
  0
TEXT
  5
23F
330
17
100
AcDbEntity
  8
A-FLOR-TRAK
100
AcDbText
 10
4.9325
 20
6.0874999999999995
 30
0.0
 40
0.06999999999999999
  1
CONTINUOUS RUNNING / TRAINING LOOP (D-035)
  7
KS-BOLD
 72
1
 11
4.9325
 21
6.0874999999999995
 31
0.0
100
AcDbText
  0
TEXT
  5
240
330
17
100
AcDbEntity
  8
A-FLOR-TRAK
100
AcDbText
 10
4.9325
 20
5.9475
 30
0.0
 40
0.06
  1
centerline 154' x 205' = 718 FT · 5,280 / 718 = 7.35 LAPS / MILE
  7
KS-REG
 72
1
 11
4.9325
 21
5.9475
 31
0.0
100
AcDbText
  0
TEXT
  5
241
330
17
100
AcDbEntity
  8
A-FLOR-TRAK
100
AcDbText
 10
4.9325
 20
5.8275
 30
0.0
 40
0.06
  1
2 lanes x 42 in = 7 ft all around · squared corners · 5,026 SF
  7
KS-REG
 72
1
 11
4.9325
 21
5.8275
 31
0.0
100
AcDbText
  0
TEXT
  5
242
330
17
100
AcDbEntity
  8
A-FLOR-TRAK
100
AcDbText
 10
4.9325
 20
5.7075
 30
0.0
 40
0.056
  1
non-event days: training · event days: upper concourse (spectators cross at tier entries)
  7
KS-REG
 72
1
 11
4.9325
 21
5.7075
 31
0.0
100
AcDbText
  0
LWPOLYLINE
  5
243
330
17
100
AcDbEntity
  8
A-AREA-BLCK
100
AcDbPolyline
 90
4
 70
1
 10
1.12
 20
6.762499999999999
 10
2.65125
 20
6.762499999999999
 10
2.65125
 20
10.225
 10
1.12
 20
10.225
  0
TEXT
  5
244
330
17
100
AcDbEntity
  8
A-AREA-IDEN
100
AcDbText
 10
1.885625
 20
8.521983333333333
 30
0.0
 40
0.055
  1
17  STRENGTH & CONDITIONING
  7
KS-BOLD
 72
1
 11
1.885625
 21
8.521983333333333
 31
0.0
100
AcDbText
  0
TEXT
  5
245
330
17
100
AcDbEntity
  8
A-AREA-IDEN
100
AcDbText
 10
1.885625
 20
8.42115
 30
0.0
 40
0.055
  1
5,124 SF
  7
KS-REG
 72
1
 11
1.885625
 21
8.42115
 31
0.0
100
AcDbText
  0
LWPOLYLINE
  5
246
330
17
100
AcDbEntity
  8
A-AREA-BLCK
100
AcDbPolyline
 90
4
 70
1
 10
1.12
 20
4.5303125
 10
2.65125
 20
4.5303125
 10
2.65125
 20
6.762499999999999
 10
1.12
 20
6.762499999999999
  0
TEXT
  5
247
330
17
100
AcDbEntity
  8
A-AREA-IDEN
100
AcDbText
 10
1.885625
 20
5.682339583333333
 30
0.0
 40
0.06999999999999999
  1
18  CROSS-TRAINING MAT
  7
KS-BOLD
 72
1
 11
1.885625
 21
5.682339583333333
 31
0.0
100
AcDbText
  0
TEXT
  5
248
330
17
100
AcDbEntity
  8
A-AREA-IDEN
100
AcDbText
 10
1.885625
 20
5.5540062500000005
 30
0.0
 40
0.06999999999999999
  1
3,500 SF
  7
KS-REG
 72
1
 11
1.885625
 21
5.5540062500000005
 31
0.0
100
AcDbText
  0
LWPOLYLINE
  5
249
330
17
100
AcDbEntity
  8
A-AREA-BLCK
100
AcDbPolyline
 90
4
 70
1
 10
3.12
 20
2.521875
 10
3.745
 20
2.521875
 10
3.745
 20
3.38125
 10
3.12
 20
3.38125
  0
TEXT
  5
24A
330
17
100
AcDbEntity
  8
A-AREA-IDEN
100
AcDbText
 10
3.4325
 20
3.0373625
 30
0.0
 40
0.06
  1
19  MEN
  7
KS-BOLD
 72
1
 11
3.4325
 21
3.0373625
 31
0.0
100
AcDbText
  0
TEXT
  5
24B
330
17
100
AcDbEntity
  8
A-AREA-IDEN
100
AcDbText
 10
3.4325
 20
2.9273625
 30
0.0
 40
0.06
  1
550 SF
  7
KS-REG
 72
1
 11
3.4325
 21
2.9273625
 31
0.0
100
AcDbText
  0
TEXT
  5
24C
330
17
100
AcDbEntity
  8
A-AREA-IDEN
100
AcDbText
 10
3.4325
 20
2.8173625
 30
0.0
 40
0.06
  1
WC 8 · LAV 3
  7
KS-REG
 72
1
 11
3.4325
 21
2.8173625
 31
0.0
100
AcDbText
  0
LWPOLYLINE
  5
24D
330
17
100
AcDbEntity
  8
A-AREA-BLCK
100
AcDbPolyline
 90
4
 70
1
 10
5.5575
 20
2.35
 10
6.4096875
 20
2.35
 10
6.4096875
 20
3.38125
 10
5.5575
 20
3.38125
  0
TEXT
  5
24E
330
17
100
AcDbEntity
  8
A-AREA-IDEN
100
AcDbText
 10
5.98359375
 20
2.965725
 30
0.0
 40
0.06999999999999999
  1
20  WOMEN
  7
KS-BOLD
 72
1
 11
5.98359375
 21
2.965725
 31
0.0
100
AcDbText
  0
TEXT
  5
24F
330
17
100
AcDbEntity
  8
A-AREA-IDEN
100
AcDbText
 10
5.98359375
 20
2.837391666666667
 30
0.0
 40
0.06999999999999999
  1
900 SF
  7
KS-REG
 72
1
 11
5.98359375
 21
2.837391666666667
 31
0.0
100
AcDbText
  0
TEXT
  5
250
330
17
100
AcDbEntity
  8
A-AREA-IDEN
100
AcDbText
 10
5.98359375
 20
2.7090583333333336
 30
0.0
 40
0.06999999999999999
  1
WC 14 · LAV 4
  7
KS-REG
 72
1
 11
5.98359375
 21
2.7090583333333336
 31
0.0
100
AcDbText
  0
LWPOLYLINE
  5
251
330
17
100
AcDbEntity
  8
A-AREA-BLCK
100
AcDbPolyline
 90
4
 70
1
 10
1.745
 20
2.35
 10
2.52625
 20
2.35
 10
2.52625
 20
2.9375
 10
1.745
 20
2.9375
  0
TEXT
  5
252
330
17
100
AcDbEntity
  8
A-AREA-IDEN
100
AcDbText
 10
2.135625
 20
2.6796833333333336
 30
0.0
 40
0.06999999999999999
  1
21  ADMIN
  7
KS-BOLD
 72
1
 11
2.135625
 21
2.6796833333333336
 31
0.0
100
AcDbText
  0
TEXT
  5
253
330
17
100
AcDbEntity
  8
A-AREA-IDEN
100
AcDbText
 10
2.135625
 20
2.5513500000000002
 30
0.0
 40
0.06999999999999999
  1
470 SF
  7
KS-REG
 72
1
 11
2.135625
 21
2.5513500000000002
 31
0.0
100
AcDbText
  0
TEXT
  5
254
330
17
100
AcDbEntity
  8
A-AREA-IDEN
100
AcDbText
 10
1.948125
 20
3.9804366666666664
 30
0.0
 40
0.064
  1
L2 CORRIDOR
  7
KS-BOLD
 72
1
 11
1.948125
 21
3.9804366666666664
 31
0.0
100
AcDbText
  0
TEXT
  5
255
330
17
100
AcDbEntity
  8
A-AREA-IDEN
100
AcDbText
 10
7.04609375
 20
3.058561666666667
 30
0.0
 40
0.064
  1
UPPER CONCOURSE (E)
  7
KS-BOLD
 72
1
 11
7.04609375
 21
3.058561666666667
 31
0.0
100
AcDbText
  0
LWPOLYLINE
  5
256
330
17
100
AcDbEntity
  8
A-FLOR-STRS
100
AcDbPolyline
 90
4
 70
1
 10
2.25540625
 20
9.47240625
 10
2.65125
 20
9.47240625
 10
2.65125
 20
10.225000000000001
 10
2.25540625
 20
10.225000000000001
  0
LINE
  5
257
330
17
100
AcDbEntity
  8
A-FLOR-STRS
100
AcDbLine
 10
2.453328125
 20
9.53490625
 30
0.0
 11
2.453328125
 21
10.1625
 31
0.0
  0
LINE
  5
258
330
17
100
AcDbEntity
  8
A-FLOR-STRS
100
AcDbLine
 10
2.25540625
 20
9.639505208333333
 30
0.0
 11
2.65125
 21
9.639505208333333
 31
0.0
  0
LINE
  5
259
330
17
100
AcDbEntity
  8
A-FLOR-STRS
100
AcDbLine
 10
2.25540625
 20
9.744104166666666
 30
0.0
 11
2.65125
 21
9.744104166666666
 31
0.0
  0
LINE
  5
25A
330
17
100
AcDbEntity
  8
A-FLOR-STRS
100
AcDbLine
 10
2.25540625
 20
9.848703125
 30
0.0
 11
2.65125
 21
9.848703125
 31
0.0
  0
LINE
  5
25B
330
17
100
AcDbEntity
  8
A-FLOR-STRS
100
AcDbLine
 10
2.25540625
 20
9.953302083333334
 30
0.0
 11
2.65125
 21
9.953302083333334
 31
0.0
  0
LINE
  5
25C
330
17
100
AcDbEntity
  8
A-FLOR-STRS
100
AcDbLine
 10
2.25540625
 20
10.057901041666666
 30
0.0
 11
2.65125
 21
10.057901041666666
 31
0.0
  0
TEXT
  5
25D
330
17
100
AcDbEntity
  8
A-AREA-IDEN
100
AcDbText
 10
2.453328125
 20
10.275
 30
0.0
 40
0.056
  1
ST-1
  7
KS-BOLD
 72
1
 11
2.453328125
 21
10.275
 31
0.0
100
AcDbText
  0
LWPOLYLINE
  5
25E
330
17
100
AcDbEntity
  8
A-FLOR-STRS
100
AcDbPolyline
 90
4
 70
1
 10
6.92990625
 20
10.0375
 10
7.6825
 20
10.0375
 10
7.6825
 20
10.433343749999999
 10
6.92990625
 20
10.433343749999999
  0
LINE
  5
25F
330
17
100
AcDbEntity
  8
A-FLOR-STRS
100
AcDbLine
 10
6.99240625
 20
10.235421875
 30
0.0
 11
7.62
 21
10.235421875
 31
0.0
  0
LINE
  5
260
330
17
100
AcDbEntity
  8
A-FLOR-STRS
100
AcDbLine
 10
7.097005208333333
 20
10.0375
 30
0.0
 11
7.097005208333333
 21
10.433343749999999
 31
0.0
  0
LINE
  5
261
330
17
100
AcDbEntity
  8
A-FLOR-STRS
100
AcDbLine
 10
7.201604166666667
 20
10.0375
 30
0.0
 11
7.201604166666667
 21
10.433343749999999
 31
0.0
  0
LINE
  5
262
330
17
100
AcDbEntity
  8
A-FLOR-STRS
100
AcDbLine
 10
7.306203125000001
 20
10.0375
 30
0.0
 11
7.306203125000001
 21
10.433343749999999
 31
0.0
  0
LINE
  5
263
330
17
100
AcDbEntity
  8
A-FLOR-STRS
100
AcDbLine
 10
7.4108020833333335
 20
10.0375
 30
0.0
 11
7.4108020833333335
 21
10.433343749999999
 31
0.0
  0
LINE
  5
264
330
17
100
AcDbEntity
  8
A-FLOR-STRS
100
AcDbLine
 10
7.515401041666666
 20
10.0375
 30
0.0
 11
7.515401041666666
 21
10.433343749999999
 31
0.0
  0
TEXT
  5
265
330
17
100
AcDbEntity
  8
A-AREA-IDEN
100
AcDbText
 10
7.306203125000001
 20
10.48334375
 30
0.0
 40
0.056
  1
ST-2
  7
KS-BOLD
 72
1
 11
7.306203125000001
 21
10.48334375
 31
0.0
100
AcDbText
  0
LWPOLYLINE
  5
266
330
17
100
AcDbEntity
  8
A-FLOR-STRS
100
AcDbPolyline
 90
4
 70
1
 10
6.92990625
 20
2.35
 10
7.6825
 20
2.35
 10
7.6825
 20
2.74584375
 10
6.92990625
 20
2.74584375
  0
LINE
  5
267
330
17
100
AcDbEntity
  8
A-FLOR-STRS
100
AcDbLine
 10
6.99240625
 20
2.547921875
 30
0.0
 11
7.62
 21
2.547921875
 31
0.0
  0
LINE
  5
268
330
17
100
AcDbEntity
  8
A-FLOR-STRS
100
AcDbLine
 10
7.097005208333333
 20
2.35
 30
0.0
 11
7.097005208333333
 21
2.74584375
 31
0.0
  0
LINE
  5
269
330
17
100
AcDbEntity
  8
A-FLOR-STRS
100
AcDbLine
 10
7.201604166666667
 20
2.35
 30
0.0
 11
7.201604166666667
 21
2.74584375
 31
0.0
  0
LINE
  5
26A
330
17
100
AcDbEntity
  8
A-FLOR-STRS
100
AcDbLine
 10
7.306203125000001
 20
2.35
 30
0.0
 11
7.306203125000001
 21
2.74584375
 31
0.0
  0
LINE
  5
26B
330
17
100
AcDbEntity
  8
A-FLOR-STRS
100
AcDbLine
 10
7.4108020833333335
 20
2.35
 30
0.0
 11
7.4108020833333335
 21
2.74584375
 31
0.0
  0
LINE
  5
26C
330
17
100
AcDbEntity
  8
A-FLOR-STRS
100
AcDbLine
 10
7.515401041666666
 20
2.35
 30
0.0
 11
7.515401041666666
 21
2.74584375
 31
0.0
  0
TEXT
  5
26D
330
17
100
AcDbEntity
  8
A-AREA-IDEN
100
AcDbText
 10
7.306203125000001
 20
2.2062500000000003
 30
0.0
 40
0.056
  1
ST-3
  7
KS-BOLD
 72
1
 11
7.306203125000001
 21
2.2062500000000003
 31
0.0
100
AcDbText
  0
LWPOLYLINE
  5
26E
330
17
100
AcDbEntity
  8
A-FLOR-STRS
100
AcDbPolyline
 90
4
 70
1
 10
1.12
 20
2.35
 10
1.5158437500000002
 20
2.35
 10
1.5158437500000002
 20
3.10259375
 10
1.12
 20
3.10259375
  0
LINE
  5
26F
330
17
100
AcDbEntity
  8
A-FLOR-STRS
100
AcDbLine
 10
1.3179218750000001
 20
2.4125
 30
0.0
 11
1.3179218750000001
 21
3.04009375
 31
0.0
  0
LINE
  5
270
330
17
100
AcDbEntity
  8
A-FLOR-STRS
100
AcDbLine
 10
1.12
 20
2.5170989583333334
 30
0.0
 11
1.5158437500000002
 21
2.5170989583333334
 31
0.0
  0
LINE
  5
271
330
17
100
AcDbEntity
  8
A-FLOR-STRS
100
AcDbLine
 10
1.12
 20
2.6216979166666667
 30
0.0
 11
1.5158437500000002
 21
2.6216979166666667
 31
0.0
  0
LINE
  5
272
330
17
100
AcDbEntity
  8
A-FLOR-STRS
100
AcDbLine
 10
1.12
 20
2.726296875
 30
0.0
 11
1.5158437500000002
 21
2.726296875
 31
0.0
  0
LINE
  5
273
330
17
100
AcDbEntity
  8
A-FLOR-STRS
100
AcDbLine
 10
1.12
 20
2.8308958333333334
 30
0.0
 11
1.5158437500000002
 21
2.8308958333333334
 31
0.0
  0
LINE
  5
274
330
17
100
AcDbEntity
  8
A-FLOR-STRS
100
AcDbLine
 10
1.12
 20
2.9354947916666667
 30
0.0
 11
1.5158437500000002
 21
2.9354947916666667
 31
0.0
  0
TEXT
  5
275
330
17
100
AcDbEntity
  8
A-AREA-IDEN
100
AcDbText
 10
1.3179218750000001
 20
2.2062500000000003
 30
0.0
 40
0.056
  1
ST-4
  7
KS-BOLD
 72
1
 11
1.3179218750000001
 21
2.2062500000000003
 31
0.0
100
AcDbText
  0
LWPOLYLINE
  5
276
330
17
100
AcDbEntity
  8
A-FLOR-STRS
100
AcDbPolyline
 90
4
 70
1
 10
2.87
 20
3.1625
 10
3.12
 20
3.1625
 10
3.12
 20
3.4125
 10
2.87
 20
3.4125
  0
LINE
  5
277
330
17
100
AcDbEntity
  8
A-FLOR-STRS
100
AcDbLine
 10
2.87
 20
3.1625
 30
0.0
 11
3.12
 21
3.4125
 31
0.0
  0
LINE
  5
278
330
17
100
AcDbEntity
  8
A-FLOR-STRS
100
AcDbLine
 10
2.87
 20
3.4125
 30
0.0
 11
3.12
 21
3.1625
 31
0.0
  0
TEXT
  5
279
330
17
100
AcDbEntity
  8
A-AREA-IDEN
100
AcDbText
 10
2.845
 20
3.2575000000000003
 30
0.0
 40
0.056
  1
EL
  7
KS-BOLD
 72
2
 11
2.845
 21
3.2575000000000003
 31
0.0
100
AcDbText
  0
LINE
  5
27A
330
17
100
AcDbEntity
  8
A-ANNO-DIMS
100
AcDbLine
 10
7.96375
 20
8.6
 30
0.0
 11
7.96375
 21
9.15
 31
0.0
  0
LINE
  5
27B
330
17
100
AcDbEntity
  8
A-ANNO-DIMS
100
AcDbLine
 10
7.96375
 20
9.15
 30
0.0
 11
7.87375
 21
8.959999999999999
 31
0.0
  0
LINE
  5
27C
330
17
100
AcDbEntity
  8
A-ANNO-DIMS
100
AcDbLine
 10
7.96375
 20
9.15
 30
0.0
 11
8.05375
 21
8.959999999999999
 31
0.0
  0
TEXT
  5
27D
330
17
100
AcDbEntity
  8
A-ANNO-DIMS
100
AcDbText
 10
7.96375
 20
9.219999999999999
 30
0.0
 40
0.1
  1
N
  7
KS-BOLD
 72
1
 11
7.96375
 21
9.219999999999999
 31
0.0
100
AcDbText
  0
TEXT
  5
27E
330
17
100
AcDbEntity
  8
A-ANNO-DIMS
100
AcDbText
 10
7.96375
 20
8.469999999999999
 30
0.0
 40
0.056
  1
APPROX.
  7
KS-REG
 72
1
 11
7.96375
 21
8.469999999999999
 31
0.0
100
AcDbText
  0
TEXT
  5
27F
330
17
100
AcDbEntity
  8
A-ANNO-DIMS
100
AcDbText
 10
7.96375
 20
8.36
 30
0.0
 40
0.056
  1
SITE TBD
  7
KS-REG
 72
1
 11
7.96375
 21
8.36
 31
0.0
100
AcDbText
  0
LWPOLYLINE
  5
280
330
17
100
AcDbEntity
  8
A-ANNO-DIMS
100
AcDbPolyline
 90
4
 70
1
 10
7.8075
 20
5.175
 10
8.057500000000001
 20
5.175
 10
8.057500000000001
 20
5.234999999999999
 10
7.8075
 20
5.234999999999999
  0
LINE
  5
281
330
17
100
AcDbEntity
  8
A-ANNO-DIMS
100
AcDbLine
 10
7.8075
 20
5.175
 30
0.0
 11
8.057500000000001
 21
5.234999999999999
 31
0.0
  0
LWPOLYLINE
  5
282
330
17
100
AcDbEntity
  8
A-ANNO-DIMS
100
AcDbPolyline
 90
4
 70
1
 10
8.057500000000001
 20
5.175
 10
8.307500000000001
 20
5.175
 10
8.307500000000001
 20
5.234999999999999
 10
8.057500000000001
 20
5.234999999999999
  0
LWPOLYLINE
  5
283
330
17
100
AcDbEntity
  8
A-ANNO-DIMS
100
AcDbPolyline
 90
4
 70
1
 10
8.307500000000001
 20
5.175
 10
8.807500000000001
 20
5.175
 10
8.807500000000001
 20
5.234999999999999
 10
8.307500000000001
 20
5.234999999999999
  0
LINE
  5
284
330
17
100
AcDbEntity
  8
A-ANNO-DIMS
100
AcDbLine
 10
8.307500000000001
 20
5.175
 30
0.0
 11
8.807500000000001
 21
5.234999999999999
 31
0.0
  0
TEXT
  5
285
330
17
100
AcDbEntity
  8
A-ANNO-DIMS
100
AcDbText
 10
7.8075
 20
5.055
 30
0.0
 40
0.056
  1
0'
  7
KS-REG
 72
1
 11
7.8075
 21
5.055
 31
0.0
100
AcDbText
  0
TEXT
  5
286
330
17
100
AcDbEntity
  8
A-ANNO-DIMS
100
AcDbText
 10
8.057500000000001
 20
5.055
 30
0.0
 40
0.056
  1
8'
  7
KS-REG
 72
1
 11
8.057500000000001
 21
5.055
 31
0.0
100
AcDbText
  0
TEXT
  5
287
330
17
100
AcDbEntity
  8
A-ANNO-DIMS
100
AcDbText
 10
8.307500000000001
 20
5.055
 30
0.0
 40
0.056
  1
16'
  7
KS-REG
 72
1
 11
8.307500000000001
 21
5.055
 31
0.0
100
AcDbText
  0
TEXT
  5
288
330
17
100
AcDbEntity
  8
A-ANNO-DIMS
100
AcDbText
 10
8.807500000000001
 20
5.055
 30
0.0
 40
0.056
  1
32'
  7
KS-REG
 72
1
 11
8.807500000000001
 21
5.055
 31
0.0
100
AcDbText
  0
TEXT
  5
289
330
17
100
AcDbEntity
  8
A-ANNO-DIMS
100
AcDbText
 10
7.8075
 20
5.335
 30
0.0
 40
0.056
  1
GRAPHIC SCALE (FT)
  7
KS-REG
 11
7.8075
 21
5.335
 31
0.0
100
AcDbText
  0
LINE
  5
28A
330
17
100
AcDbEntity
  8
A-ANNO-TEXT
100
AcDbLine
 10
9.15
 20
1.9700000000000002
 30
0.0
 11
9.15
 21
10.38
 31
0.0
  0
LWPOLYLINE
  5
28B
330
17
100
AcDbEntity
  8
A-ANNO-TEXT
100
AcDbPolyline
 90
4
 70
1
 10
9.35
 20
9.91
 10
16.28
 20
9.91
 10
16.28
 20
10.33
 10
9.35
 20
10.33
  0
TEXT
  5
28C
330
17
100
AcDbEntity
  8
A-ANNO-TEXT
100
AcDbText
 10
12.815000000000001
 20
10.040000000000001
 30
0.0
 40
0.13999999999999999
  1
SCHEMATIC — BLOCK PLAN
  7
KS-BOLD
 72
1
 11
12.815000000000001
 21
10.040000000000001
 31
0.0
100
AcDbText
  0
TEXT
  5
28D
330
17
100
AcDbEntity
  8
A-ANNO-TEXT
100
AcDbText
 10
9.35
 20
9.65
 30
0.0
 40
0.12
  1
LEVEL 2 — OVERALL FLOOR PLAN (REV F)
  7
KS-BOLD
 11
9.35
 21
9.65
 31
0.0
100
AcDbText
  0
TEXT
  5
28E
330
17
100
AcDbEntity
  8
A-ANNO-TEXT
100
AcDbText
 10
9.35
 20
9.45
 30
0.0
 40
0.078
  1
scale 1/32" = 1'-0" on 17 x 11 in · north approximate, road assumed south, site TBD
  7
KS-REG
 11
9.35
 21
9.45
 31
0.0
100
AcDbText
  0
TEXT
  5
28F
330
17
100
AcDbEntity
  8
A-ANNO-TEXT
100
AcDbText
 10
9.35
 20
9.15
 30
0.0
 40
0.095
  1
LEGEND
  7
KS-BOLD
 11
9.35
 21
9.15
 31
0.0
100
AcDbText
  0
LWPOLYLINE
  5
290
330
17
100
AcDbEntity
  8
A-ANNO-TEXT
100
AcDbPolyline
 90
4
 70
1
 10
9.48
 20
8.905000000000001
 10
9.72
 20
8.905000000000001
 10
9.72
 20
9.045000000000002
 10
9.48
 20
9.045000000000002
  0
TEXT
  5
291
330
17
100
AcDbEntity
  8
A-ANNO-TEXT
100
AcDbText
 10
9.950000000000001
 20
8.935
 30
0.0
 40
0.072
  1
Upper tier, FIXED (6.0 SF/seat) on the Level 2 deck — D-009
  7
KS-REG
 11
9.950000000000001
 21
8.935
 31
0.0
100
AcDbText
  0
LWPOLYLINE
  5
292
330
17
100
AcDbEntity
  8
A-ANNO-TEXT
100
AcDbPolyline
 90
4
 70
1
 10
9.48
 20
8.740000000000002
 10
9.72
 20
8.740000000000002
 10
9.72
 20
8.880000000000003
 10
9.48
 20
8.880000000000003
  0
LINE
  5
293
330
17
100
AcDbEntity
  8
A-ANNO-TEXT
100
AcDbLine
 10
9.48
 20
8.740000000000002
 30
0.0
 11
9.72
 21
8.88
 31
0.0
  0
TEXT
  5
294
330
17
100
AcDbEntity
  8
A-ANNO-TEXT
100
AcDbText
 10
9.950000000000001
 20
8.770000000000001
 30
0.0
 40
0.072
  1
Open to below (arena; lobby double height)
  7
KS-REG
 11
9.950000000000001
 21
8.770000000000001
 31
0.0
100
AcDbText
  0
LWPOLYLINE
  5
295
330
17
100
AcDbEntity
  8
A-ANNO-TEXT
100
AcDbPolyline
 90
4
 70
1
 10
9.42
 20
8.575000000000003
 10
9.82
 20
8.575000000000003
 10
9.82
 20
8.715000000000003
 10
9.42
 20
8.715000000000003
  0
LINE
  5
296
330
17
100
AcDbEntity
  8
A-ANNO-TEXT
100
AcDbLine
 10
9.42
 20
8.645000000000001
 30
0.0
 11
9.48
 21
8.645000000000001
 31
0.0
  0
LINE
  5
297
330
17
100
AcDbEntity
  8
A-ANNO-TEXT
100
AcDbLine
 10
9.52
 20
8.645000000000001
 30
0.0
 11
9.58
 21
8.645000000000001
 31
0.0
  0
LINE
  5
298
330
17
100
AcDbEntity
  8
A-ANNO-TEXT
100
AcDbLine
 10
9.62
 20
8.645000000000001
 30
0.0
 11
9.68
 21
8.645000000000001
 31
0.0
  0
LINE
  5
299
330
17
100
AcDbEntity
  8
A-ANNO-TEXT
100
AcDbLine
 10
9.72
 20
8.645000000000001
 30
0.0
 11
9.78
 21
8.645000000000001
 31
0.0
  0
LINE
  5
29A
330
17
100
AcDbEntity
  8
A-ANNO-TEXT
100
AcDbLine
 10
9.82
 20
8.645000000000001
 30
0.0
 11
9.82
 21
8.645000000000001
 31
0.0
  0
TEXT
  5
29B
330
17
100
AcDbEntity
  8
A-ANNO-TEXT
100
AcDbText
 10
9.950000000000001
 20
8.605000000000002
 30
0.0
 40
0.072
  1
Running / training loop, 2 lanes x 42 in (dashed = lane line) — D-035
  7
KS-REG
 11
9.950000000000001
 21
8.605000000000002
 31
0.0
100
AcDbText
  0
LINE
  5
29C
330
17
100
AcDbEntity
  8
A-ANNO-TEXT
100
AcDbLine
 10
9.42
 20
8.480000000000002
 30
0.0
 11
9.82
 21
8.480000000000002
 31
0.0
  0
TEXT
  5
29D
330
17
100
AcDbEntity
  8
A-ANNO-TEXT
100
AcDbText
 10
9.950000000000001
 20
8.440000000000003
 30
0.0
 40
0.072
  1
42 in guard at an open edge (IBC 2021 1015.2, 1015.3)
  7
KS-REG
 11
9.950000000000001
 21
8.440000000000003
 31
0.0
100
AcDbText
  0
LWPOLYLINE
  5
29E
330
17
100
AcDbEntity
  8
A-ANNO-TEXT
100
AcDbPolyline
 90
4
 70
1
 10
9.48
 20
8.245000000000005
 10
9.72
 20
8.245000000000005
 10
9.72
 20
8.385000000000005
 10
9.48
 20
8.385000000000005
  0
TEXT
  5
29F
330
17
100
AcDbEntity
  8
A-ANNO-TEXT
100
AcDbText
 10
9.950000000000001
 20
8.275000000000004
 30
0.0
 40
0.072
  1
Room block (tag number + drawn SF)
  7
KS-REG
 11
9.950000000000001
 21
8.275000000000004
 31
0.0
100
AcDbText
  0
LWPOLYLINE
  5
2A0
330
17
100
AcDbEntity
  8
A-ANNO-TEXT
100
AcDbPolyline
 90
4
 70
1
 10
9.48
 20
8.080000000000005
 10
9.6
 20
8.080000000000005
 10
9.6
 20
8.220000000000006
 10
9.48
 20
8.220000000000006
  0
LWPOLYLINE
  5
2A1
330
17
100
AcDbEntity
  8
A-ANNO-TEXT
100
AcDbPolyline
 90
4
 70
1
 10
9.64
 20
8.080000000000005
 10
9.76
 20
8.080000000000005
 10
9.76
 20
8.220000000000006
 10
9.64
 20
8.220000000000006
  0
LINE
  5
2A2
330
17
100
AcDbEntity
  8
A-ANNO-TEXT
100
AcDbLine
 10
9.64
 20
8.080000000000005
 30
0.0
 11
9.76
 21
8.220000000000004
 31
0.0
  0
TEXT
  5
2A3
330
17
100
AcDbEntity
  8
A-ANNO-TEXT
100
AcDbText
 10
9.950000000000001
 20
8.110000000000005
 30
0.0
 40
0.072
  1
Stair (4) / elevator (X), same position on both levels
  7
KS-REG
 11
9.950000000000001
 21
8.110000000000005
 31
0.0
100
AcDbText
  0
TEXT
  5
2A4
330
17
100
AcDbEntity
  8
A-ANNO-TEXT
100
AcDbText
 10
9.35
 20
7.810000000000005
 30
0.0
 40
0.095
  1
ROOM SCHEDULE — LEVEL 2 (DRAWN vs PROGRAM side by side, P2-G-003 Rev I; C-3)
  7
KS-BOLD
 11
9.35
 21
7.810000000000005
 31
0.0
100
AcDbText
  0
TEXT
  5
2A5
330
17
100
AcDbEntity
  8
A-ANNO-TABL
100
AcDbText
 10
9.35
 20
7.692000000000005
 30
0.0
 40
0.06799999999999999
  1
TAG
  7
KS-BOLD
 11
9.35
 21
7.692000000000005
 31
0.0
100
AcDbText
  0
TEXT
  5
2A6
330
17
100
AcDbEntity
  8
A-ANNO-TABL
100
AcDbText
 10
9.709999999999999
 20
7.692000000000005
 30
0.0
 40
0.06799999999999999
  1
ROOM
  7
KS-BOLD
 11
9.709999999999999
 21
7.692000000000005
 31
0.0
100
AcDbText
  0
TEXT
  5
2A7
330
17
100
AcDbEntity
  8
A-ANNO-TABL
100
AcDbText
 10
12.0
 20
7.692000000000005
 30
0.0
 40
0.06799999999999999
  1
DRAWN SF
  7
KS-BOLD
 72
2
 11
12.0
 21
7.692000000000005
 31
0.0
100
AcDbText
  0
TEXT
  5
2A8
330
17
100
AcDbEntity
  8
A-ANNO-TABL
100
AcDbText
 10
12.7
 20
7.692000000000005
 30
0.0
 40
0.06799999999999999
  1
PROGRAM
  7
KS-BOLD
 72
2
 11
12.7
 21
7.692000000000005
 31
0.0
100
AcDbText
  0
TEXT
  5
2A9
330
17
100
AcDbEntity
  8
A-ANNO-TABL
100
AcDbText
 10
12.85
 20
7.692000000000005
 30
0.0
 40
0.06799999999999999
  1
NOTE
  7
KS-BOLD
 11
12.85
 21
7.692000000000005
 31
0.0
100
AcDbText
  0
LINE
  5
2AA
330
17
100
AcDbEntity
  8
A-ANNO-TABL
100
AcDbLine
 10
9.35
 20
7.632000000000005
 30
0.0
 11
16.28
 21
7.632000000000005
 31
0.0
  0
TEXT
  5
2AB
330
17
100
AcDbEntity
  8
A-ANNO-TABL
100
AcDbText
 10
9.35
 20
7.534000000000005
 30
0.0
 40
0.06999999999999999
  1
—
  7
KS-REG
 11
9.35
 21
7.534000000000005
 31
0.0
100
AcDbText
  0
TEXT
  5
2AC
330
17
100
AcDbEntity
  8
A-ANNO-TABL
100
AcDbText
 10
9.709999999999999
 20
7.534000000000005
 30
0.0
 40
0.06999999999999999
  1
Upper tier, fixed (1,100 seats)
  7
KS-REG
 11
9.709999999999999
 21
7.534000000000005
 31
0.0
100
AcDbText
  0
TEXT
  5
2AD
330
17
100
AcDbEntity
  8
A-ANNO-TABL
100
AcDbText
 10
12.0
 20
7.534000000000005
 30
0.0
 40
0.06999999999999999
  1
6,930
  7
KS-REG
 72
2
 11
12.0
 21
7.534000000000005
 31
0.0
100
AcDbText
  0
TEXT
  5
2AE
330
17
100
AcDbEntity
  8
A-ANNO-TABL
100
AcDbText
 10
12.7
 20
7.534000000000005
 30
0.0
 40
0.06999999999999999
  1
6,600
  7
KS-REG
 72
2
 11
12.7
 21
7.534000000000005
 31
0.0
100
AcDbText
  0
TEXT
  5
2AF
330
17
100
AcDbEntity
  8
A-ANNO-TABL
100
AcDbText
 10
12.85
 20
7.534000000000005
 30
0.0
 40
0.064
  1
N 314 / S 314 / E 472
  7
KS-REG
 11
12.85
 21
7.534000000000005
 31
0.0
100
AcDbText
  0
TEXT
  5
2B0
330
17
100
AcDbEntity
  8
A-ANNO-TABL
100
AcDbText
 10
9.35
 20
7.396000000000005
 30
0.0
 40
0.06999999999999999
  1
—
  7
KS-REG
 11
9.35
 21
7.396000000000005
 31
0.0
100
AcDbText
  0
TEXT
  5
2B1
330
17
100
AcDbEntity
  8
A-ANNO-TABL
100
AcDbText
 10
9.709999999999999
 20
7.396000000000005
 30
0.0
 40
0.06999999999999999
  1
Running / training loop
  7
KS-REG
 11
9.709999999999999
 21
7.396000000000005
 31
0.0
100
AcDbText
  0
TEXT
  5
2B2
330
17
100
AcDbEntity
  8
A-ANNO-TABL
100
AcDbText
 10
12.0
 20
7.396000000000005
 30
0.0
 40
0.06999999999999999
  1
5,026
  7
KS-REG
 72
2
 11
12.0
 21
7.396000000000005
 31
0.0
100
AcDbText
  0
TEXT
  5
2B3
330
17
100
AcDbEntity
  8
A-ANNO-TABL
100
AcDbText
 10
12.7
 20
7.396000000000005
 30
0.0
 40
0.06999999999999999
  1
5,026
  7
KS-REG
 72
2
 11
12.7
 21
7.396000000000005
 31
0.0
100
AcDbText
  0
TEXT
  5
2B4
330
17
100
AcDbEntity
  8
A-ANNO-TABL
100
AcDbText
 10
12.85
 20
7.396000000000005
 30
0.0
 40
0.064
  1
2 x 42 in; 718 ft CL; 7.35 laps/mi
  7
KS-REG
 11
12.85
 21
7.396000000000005
 31
0.0
100
AcDbText
  0
TEXT
  5
2B5
330
17
100
AcDbEntity
  8
A-ANNO-TABL
100
AcDbText
 10
9.35
 20
7.258000000000005
 30
0.0
 40
0.06999999999999999
  1
17
  7
KS-REG
 11
9.35
 21
7.258000000000005
 31
0.0
100
AcDbText
  0
TEXT
  5
2B6
330
17
100
AcDbEntity
  8
A-ANNO-TABL
100
AcDbText
 10
9.709999999999999
 20
7.258000000000005
 30
0.0
 40
0.06999999999999999
  1
Strength & Conditioning
  7
KS-REG
 11
9.709999999999999
 21
7.258000000000005
 31
0.0
100
AcDbText
  0
TEXT
  5
2B7
330
17
100
AcDbEntity
  8
A-ANNO-TABL
100
AcDbText
 10
12.0
 20
7.258000000000005
 30
0.0
 40
0.06999999999999999
  1
5,124
  7
KS-REG
 72
2
 11
12.0
 21
7.258000000000005
 31
0.0
100
AcDbText
  0
TEXT
  5
2B8
330
17
100
AcDbEntity
  8
A-ANNO-TABL
100
AcDbText
 10
12.7
 20
7.258000000000005
 30
0.0
 40
0.06999999999999999
  1
5,224
  7
KS-REG
 72
2
 11
12.7
 21
7.258000000000005
 31
0.0
100
AcDbText
  0
TEXT
  5
2B9
330
17
100
AcDbEntity
  8
A-ANNO-TABL
100
AcDbText
 10
12.85
 20
7.258000000000005
 30
0.0
 40
0.064
  1
ST-1 (31 risers) inside: −100 vs program
  7
KS-REG
 11
12.85
 21
7.258000000000005
 31
0.0
100
AcDbText
  0
TEXT
  5
2BA
330
17
100
AcDbEntity
  8
A-ANNO-TABL
100
AcDbText
 10
9.35
 20
7.120000000000005
 30
0.0
 40
0.06999999999999999
  1
18
  7
KS-REG
 11
9.35
 21
7.120000000000005
 31
0.0
100
AcDbText
  0
TEXT
  5
2BB
330
17
100
AcDbEntity
  8
A-ANNO-TABL
100
AcDbText
 10
9.709999999999999
 20
7.120000000000005
 30
0.0
 40
0.06999999999999999
  1
Cross-Training Mat Area
  7
KS-REG
 11
9.709999999999999
 21
7.120000000000005
 31
0.0
100
AcDbText
  0
TEXT
  5
2BC
330
17
100
AcDbEntity
  8
A-ANNO-TABL
100
AcDbText
 10
12.0
 20
7.120000000000005
 30
0.0
 40
0.06999999999999999
  1
3,500
  7
KS-REG
 72
2
 11
12.0
 21
7.120000000000005
 31
0.0
100
AcDbText
  0
TEXT
  5
2BD
330
17
100
AcDbEntity
  8
A-ANNO-TABL
100
AcDbText
 10
12.7
 20
7.120000000000005
 30
0.0
 40
0.06999999999999999
  1
3,500
  7
KS-REG
 72
2
 11
12.7
 21
7.120000000000005
 31
0.0
100
AcDbText
  0
TEXT
  5
2BE
330
17
100
AcDbEntity
  8
A-ANNO-TABL
100
AcDbText
 10
12.85
 20
7.120000000000005
 30
0.0
 40
0.064
  1
trimmed 7 ft for the loop (D-035)
  7
KS-REG
 11
12.85
 21
7.120000000000005
 31
0.0
100
AcDbText
  0
TEXT
  5
2BF
330
17
100
AcDbEntity
  8
A-ANNO-TABL
100
AcDbText
 10
9.35
 20
6.9820000000000055
 30
0.0
 40
0.06999999999999999
  1
19
  7
KS-REG
 11
9.35
 21
6.9820000000000055
 31
0.0
100
AcDbText
  0
TEXT
  5
2C0
330
17
100
AcDbEntity
  8
A-ANNO-TABL
100
AcDbText
 10
9.709999999999999
 20
6.9820000000000055
 30
0.0
 40
0.06999999999999999
  1
Men
  7
KS-REG
 11
9.709999999999999
 21
6.9820000000000055
 31
0.0
100
AcDbText
  0
TEXT
  5
2C1
330
17
100
AcDbEntity
  8
A-ANNO-TABL
100
AcDbText
 10
12.0
 20
6.9820000000000055
 30
0.0
 40
0.06999999999999999
  1
550
  7
KS-REG
 72
2
 11
12.0
 21
6.9820000000000055
 31
0.0
100
AcDbText
  0
TEXT
  5
2C2
330
17
100
AcDbEntity
  8
A-ANNO-TABL
100
AcDbText
 10
12.7
 20
6.9820000000000055
 30
0.0
 40
0.06999999999999999
  1
550
  7
KS-REG
 72
2
 11
12.7
 21
6.9820000000000055
 31
0.0
100
AcDbText
  0
TEXT
  5
2C3
330
17
100
AcDbEntity
  8
A-ANNO-TABL
100
AcDbText
 10
12.85
 20
6.9820000000000055
 30
0.0
 40
0.064
  1
11 fixtures (WC 8, LAV 3; urinals ≤ 5 of the WCs)
  7
KS-REG
 11
12.85
 21
6.9820000000000055
 31
0.0
100
AcDbText
  0
TEXT
  5
2C4
330
17
100
AcDbEntity
  8
A-ANNO-TABL
100
AcDbText
 10
9.35
 20
6.844000000000006
 30
0.0
 40
0.06999999999999999
  1
20
  7
KS-REG
 11
9.35
 21
6.844000000000006
 31
0.0
100
AcDbText
  0
TEXT
  5
2C5
330
17
100
AcDbEntity
  8
A-ANNO-TABL
100
AcDbText
 10
9.709999999999999
 20
6.844000000000006
 30
0.0
 40
0.06999999999999999
  1
Women
  7
KS-REG
 11
9.709999999999999
 21
6.844000000000006
 31
0.0
100
AcDbText
  0
TEXT
  5
2C6
330
17
100
AcDbEntity
  8
A-ANNO-TABL
100
AcDbText
 10
12.0
 20
6.844000000000006
 30
0.0
 40
0.06999999999999999
  1
900
  7
KS-REG
 72
2
 11
12.0
 21
6.844000000000006
 31
0.0
100
AcDbText
  0
TEXT
  5
2C7
330
17
100
AcDbEntity
  8
A-ANNO-TABL
100
AcDbText
 10
12.7
 20
6.844000000000006
 30
0.0
 40
0.06999999999999999
  1
900
  7
KS-REG
 72
2
 11
12.7
 21
6.844000000000006
 31
0.0
100
AcDbText
  0
TEXT
  5
2C8
330
17
100
AcDbEntity
  8
A-ANNO-TABL
100
AcDbText
 10
12.85
 20
6.844000000000006
 30
0.0
 40
0.064
  1
18 fixtures (WC 14, LAV 4)
  7
KS-REG
 11
12.85
 21
6.844000000000006
 31
0.0
100
AcDbText
  0
TEXT
  5
2C9
330
17
100
AcDbEntity
  8
A-ANNO-TABL
100
AcDbText
 10
9.35
 20
6.706000000000006
 30
0.0
 40
0.06999999999999999
  1
21
  7
KS-REG
 11
9.35
 21
6.706000000000006
 31
0.0
100
AcDbText
  0
TEXT
  5
2CA
330
17
100
AcDbEntity
  8
A-ANNO-TABL
100
AcDbText
 10
9.709999999999999
 20
6.706000000000006
 30
0.0
 40
0.06999999999999999
  1
Admin
  7
KS-REG
 11
9.709999999999999
 21
6.706000000000006
 31
0.0
100
AcDbText
  0
TEXT
  5
2CB
330
17
100
AcDbEntity
  8
A-ANNO-TABL
100
AcDbText
 10
12.0
 20
6.706000000000006
 30
0.0
 40
0.06999999999999999
  1
470
  7
KS-REG
 72
2
 11
12.0
 21
6.706000000000006
 31
0.0
100
AcDbText
  0
TEXT
  5
2CC
330
17
100
AcDbEntity
  8
A-ANNO-TABL
100
AcDbText
 10
12.7
 20
6.706000000000006
 30
0.0
 40
0.06999999999999999
  1
470
  7
KS-REG
 72
2
 11
12.7
 21
6.706000000000006
 31
0.0
100
AcDbText
  0
TEXT
  5
2CD
330
17
100
AcDbEntity
  8
A-ANNO-TABL
100
AcDbText
 10
12.85
 20
6.706000000000006
 30
0.0
 40
0.064
  1

  7
KS-REG
 11
12.85
 21
6.706000000000006
 31
0.0
100
AcDbText
  0
LINE
  5
2CE
330
17
100
AcDbEntity
  8
A-ANNO-TABL
100
AcDbLine
 10
9.35
 20
6.656000000000006
 30
0.0
 11
16.28
 21
6.656000000000006
 31
0.0
  0
TEXT
  5
2CF
330
17
100
AcDbEntity
  8
A-ANNO-TEXT
100
AcDbText
 10
9.35
 20
6.516000000000005
 30
0.0
 40
0.09
  1
AREA CHECK — D-057 (no SF cap, D-056)
  7
KS-BOLD
 11
9.35
 21
6.516000000000005
 31
0.0
100
AcDbText
  0
TEXT
  5
2D0
330
17
100
AcDbEntity
  8
A-ANNO-TABL
100
AcDbText
 10
9.35
 20
6.378000000000005
 30
0.0
 40
0.064
  1

  7
KS-BOLD
 11
9.35
 21
6.378000000000005
 31
0.0
100
AcDbText
  0
TEXT
  5
2D1
330
17
100
AcDbEntity
  8
A-ANNO-TABL
100
AcDbText
 10
11.1
 20
6.378000000000005
 30
0.0
 40
0.064
  1
DRAWN REV F
  7
KS-BOLD
 72
2
 11
11.1
 21
6.378000000000005
 31
0.0
100
AcDbText
  0
TEXT
  5
2D2
330
17
100
AcDbEntity
  8
A-ANNO-TABL
100
AcDbText
 10
11.8
 20
6.378000000000005
 30
0.0
 40
0.064
  1
REV E
  7
KS-BOLD
 72
2
 11
11.8
 21
6.378000000000005
 31
0.0
100
AcDbText
  0
TEXT
  5
2D3
330
17
100
AcDbEntity
  8
A-ANNO-TABL
100
AcDbText
 10
12.45
 20
6.378000000000005
 30
0.0
 40
0.064
  1
CHANGE
  7
KS-BOLD
 72
2
 11
12.45
 21
6.378000000000005
 31
0.0
100
AcDbText
  0
TEXT
  5
2D4
330
17
100
AcDbEntity
  8
A-ANNO-TABL
100
AcDbText
 10
13.55
 20
6.378000000000005
 30
0.0
 40
0.064
  1
PROGRAM G-003 I
  7
KS-BOLD
 72
2
 11
13.55
 21
6.378000000000005
 31
0.0
100
AcDbText
  0
TEXT
  5
2D5
330
17
100
AcDbEntity
  8
A-ANNO-TABL
100
AcDbText
 10
16.28
 20
6.378000000000005
 30
0.0
 40
0.064
  1
DRAWN − PROG.
  7
KS-BOLD
 72
2
 11
16.28
 21
6.378000000000005
 31
0.0
100
AcDbText
  0
LINE
  5
2D6
330
17
100
AcDbEntity
  8
A-ANNO-TABL
100
AcDbLine
 10
9.35
 20
6.318000000000006
 30
0.0
 11
16.28
 21
6.318000000000006
 31
0.0
  0
TEXT
  5
2D7
330
17
100
AcDbEntity
  8
A-ANNO-TABL
100
AcDbText
 10
9.35
 20
6.220000000000006
 30
0.0
 40
0.06999999999999999
  1
L1 FOOTPRINT
  7
KS-BOLD
 11
9.35
 21
6.220000000000006
 31
0.0
100
AcDbText
  0
TEXT
  5
2D8
330
17
100
AcDbEntity
  8
A-ANNO-TABL
100
AcDbText
 10
11.1
 20
6.220000000000006
 30
0.0
 40
0.06999999999999999
  1
53,081
  7
KS-BOLD
 72
2
 11
11.1
 21
6.220000000000006
 31
0.0
100
AcDbText
  0
TEXT
  5
2D9
330
17
100
AcDbEntity
  8
A-ANNO-TABL
100
AcDbText
 10
11.8
 20
6.220000000000006
 30
0.0
 40
0.06999999999999999
  1
53,062
  7
KS-REG
 72
2
 11
11.8
 21
6.220000000000006
 31
0.0
100
AcDbText
  0
TEXT
  5
2DA
330
17
100
AcDbEntity
  8
A-ANNO-TABL
100
AcDbText
 10
12.45
 20
6.220000000000006
 30
0.0
 40
0.06999999999999999
  1
+18
  7
KS-REG
 72
2
 11
12.45
 21
6.220000000000006
 31
0.0
100
AcDbText
  0
TEXT
  5
2DB
330
17
100
AcDbEntity
  8
A-ANNO-TABL
100
AcDbText
 10
13.55
 20
6.220000000000006
 30
0.0
 40
0.06999999999999999
  1
54,415
  7
KS-REG
 72
2
 11
13.55
 21
6.220000000000006
 31
0.0
100
AcDbText
  0
TEXT
  5
2DC
330
17
100
AcDbEntity
  8
A-ANNO-TABL
100
AcDbText
 10
16.28
 20
6.220000000000006
 30
0.0
 40
0.06999999999999999
  1
−1,335
  7
KS-REG
 72
2
 11
16.28
 21
6.220000000000006
 31
0.0
100
AcDbText
  0
TEXT
  5
2DD
330
17
100
AcDbEntity
  8
A-ANNO-TABL
100
AcDbText
 10
9.35
 20
6.082000000000006
 30
0.0
 40
0.06999999999999999
  1
L2 AREA
  7
KS-BOLD
 11
9.35
 21
6.082000000000006
 31
0.0
100
AcDbText
  0
TEXT
  5
2DE
330
17
100
AcDbEntity
  8
A-ANNO-TABL
100
AcDbText
 10
11.1
 20
6.082000000000006
 30
0.0
 40
0.06999999999999999
  1
28,933
  7
KS-BOLD
 72
2
 11
11.1
 21
6.082000000000006
 31
0.0
100
AcDbText
  0
TEXT
  5
2DF
330
17
100
AcDbEntity
  8
A-ANNO-TABL
100
AcDbText
 10
11.8
 20
6.082000000000006
 30
0.0
 40
0.06999999999999999
  1
28,914
  7
KS-REG
 72
2
 11
11.8
 21
6.082000000000006
 31
0.0
100
AcDbText
  0
TEXT
  5
2E0
330
17
100
AcDbEntity
  8
A-ANNO-TABL
100
AcDbText
 10
12.45
 20
6.082000000000006
 30
0.0
 40
0.06999999999999999
  1
+18
  7
KS-REG
 72
2
 11
12.45
 21
6.082000000000006
 31
0.0
100
AcDbText
  0
TEXT
  5
2E1
330
17
100
AcDbEntity
  8
A-ANNO-TABL
100
AcDbText
 10
13.55
 20
6.082000000000006
 30
0.0
 40
0.06999999999999999
  1
28,186
  7
KS-REG
 72
2
 11
13.55
 21
6.082000000000006
 31
0.0
100
AcDbText
  0
TEXT
  5
2E2
330
17
100
AcDbEntity
  8
A-ANNO-TABL
100
AcDbText
 10
16.28
 20
6.082000000000006
 30
0.0
 40
0.06999999999999999
  1
+746
  7
KS-REG
 72
2
 11
16.28
 21
6.082000000000006
 31
0.0
100
AcDbText
  0
TEXT
  5
2E3
330
17
100
AcDbEntity
  8
A-ANNO-TABL
100
AcDbText
 10
9.35
 20
5.944000000000006
 30
0.0
 40
0.06999999999999999
  1
TOTAL GSF
  7
KS-BOLD
 11
9.35
 21
5.944000000000006
 31
0.0
100
AcDbText
  0
TEXT
  5
2E4
330
17
100
AcDbEntity
  8
A-ANNO-TABL
100
AcDbText
 10
11.1
 20
5.944000000000006
 30
0.0
 40
0.06999999999999999
  1
82,013
  7
KS-BOLD
 72
2
 11
11.1
 21
5.944000000000006
 31
0.0
100
AcDbText
  0
TEXT
  5
2E5
330
17
100
AcDbEntity
  8
A-ANNO-TABL
100
AcDbText
 10
11.8
 20
5.944000000000006
 30
0.0
 40
0.06999999999999999
  1
81,976
  7
KS-REG
 72
2
 11
11.8
 21
5.944000000000006
 31
0.0
100
AcDbText
  0
TEXT
  5
2E6
330
17
100
AcDbEntity
  8
A-ANNO-TABL
100
AcDbText
 10
12.45
 20
5.944000000000006
 30
0.0
 40
0.06999999999999999
  1
+37
  7
KS-REG
 72
2
 11
12.45
 21
5.944000000000006
 31
0.0
100
AcDbText
  0
TEXT
  5
2E7
330
17
100
AcDbEntity
  8
A-ANNO-TABL
100
AcDbText
 10
13.55
 20
5.944000000000006
 30
0.0
 40
0.06999999999999999
  1
82,601
  7
KS-REG
 72
2
 11
13.55
 21
5.944000000000006
 31
0.0
100
AcDbText
  0
TEXT
  5
2E8
330
17
100
AcDbEntity
  8
A-ANNO-TABL
100
AcDbText
 10
16.28
 20
5.944000000000006
 30
0.0
 40
0.06999999999999999
  1
−588
  7
KS-REG
 72
2
 11
16.28
 21
5.944000000000006
 31
0.0
100
AcDbText
  0
LINE
  5
2E9
330
17
100
AcDbEntity
  8
A-ANNO-TABL
100
AcDbLine
 10
9.35
 20
5.894000000000006
 30
0.0
 11
16.28
 21
5.894000000000006
 31
0.0
  0
TEXT
  5
2EA
330
17
100
AcDbEntity
  8
A-ANNO-TEXT
100
AcDbText
 10
9.35
 20
5.771300000000006
 30
0.0
 40
0.069
  1
L2 = footprint minus open-to-below (arena 132 x 168, lobby 58 x 34). S&C 5,224 program vs 5,124 drawn: the 31-riser ST-1 takes 35 SF more
  7
KS-REG
 11
9.35
 21
5.771300000000006
 31
0.0
100
AcDbText
  0
TEXT
  5
2EB
330
17
100
AcDbEntity
  8
A-ANNO-TEXT
100
AcDbText
 10
9.35
 20
5.644800000000006
 30
0.0
 40
0.069
  1
than Rev E.
  7
KS-REG
 11
9.35
 21
5.644800000000006
 31
0.0
100
AcDbText
  0
TEXT
  5
2EC
330
17
100
AcDbEntity
  8
A-ANNO-TEXT
100
AcDbText
 10
9.35
 20
5.459375000000007
 30
0.0
 40
0.09
  1
LEVEL 2 LOOP (D-035 DECIDED; geometry ASSUMED) + EGRESS
  7
KS-BOLD
 11
9.35
 21
5.459375000000007
 31
0.0
100
AcDbText
  0
TEXT
  5
2ED
330
17
100
AcDbEntity
  8
A-ANNO-TEXT
100
AcDbText
 10
9.35
 20
5.351575000000007
 30
0.0
 40
0.06599999999999999
  1
·
  7
KS-REG
 11
9.35
 21
5.351575000000007
 31
0.0
100
AcDbText
  0
TEXT
  5
2EE
330
17
100
AcDbEntity
  8
A-ANNO-TEXT
100
AcDbText
 10
9.469999999999999
 20
5.351575000000007
 30
0.0
 40
0.06599999999999999
  1
LOOP (D-035, Shane 4:55 AM CT): continuous around the top of Level 2 — rear walkway (N), walkway (E), upper concourse / balcony (S) and a new
  7
KS-REG
 11
9.469999999999999
 21
5.351575000000007
 31
0.0
100
AcDbText
  0
TEXT
  5
2EF
330
17
100
AcDbEntity
  8
A-ANNO-TEXT
100
AcDbText
 10
9.469999999999999
 20
5.230575000000006
 30
0.0
 40
0.06599999999999999
  1
west leg cut from S&C + cross-training. 2 lanes x 42 in = 7 ft everywhere, squared corners; 718 ft centerline = 7.35 laps/mile.
  7
KS-REG
 11
9.469999999999999
 21
5.230575000000006
 31
0.0
100
AcDbText
  0
TEXT
  5
2F0
330
17
100
AcDbEntity
  8
A-ANNO-TEXT
100
AcDbText
 10
9.35
 20
5.0993250000000065
 30
0.0
 40
0.06599999999999999
  1
·
  7
KS-REG
 11
9.35
 21
5.0993250000000065
 31
0.0
100
AcDbText
  0
TEXT
  5
2F1
330
17
100
AcDbEntity
  8
A-ANNO-TEXT
100
AcDbText
 10
9.469999999999999
 20
5.0993250000000065
 30
0.0
 40
0.06599999999999999
  1
Lane width: UFC 4-740-02N 4.1.7 (indoor track ≥ 12 ft, 3 lanes x 42 in); Athletic Business (3 lanes of 36-42 in; max 12 laps/mile, 8-10 preferred). 2
  7
KS-REG
 11
9.469999999999999
 21
5.0993250000000065
 31
0.0
100
AcDbText
  0
TEXT
  5
2F2
330
17
100
AcDbEntity
  8
A-ANNO-TEXT
100
AcDbText
 10
9.469999999999999
 20
4.978325000000006
 30
0.0
 40
0.06599999999999999
  1
lanes ASSUMED (3 would need 10.5 ft; the upper tier would move).
  7
KS-REG
 11
9.469999999999999
 21
4.978325000000006
 31
0.0
100
AcDbText
  0
TEXT
  5
2F3
330
17
100
AcDbEntity
  8
A-ANNO-TEXT
100
AcDbText
 10
9.35
 20
4.8470750000000065
 30
0.0
 40
0.06599999999999999
  1
·
  7
KS-REG
 11
9.35
 21
4.8470750000000065
 31
0.0
100
AcDbText
  0
TEXT
  5
2F4
330
17
100
AcDbEntity
  8
A-ANNO-TEXT
100
AcDbText
 10
9.469999999999999
 20
4.8470750000000065
 30
0.0
 40
0.06599999999999999
  1
Event days the loop is the upper concourse: spectators cross it at the upper-tier entries (marked, locations ASSUMED) and at the stairs / elevator,
  7
KS-REG
 11
9.469999999999999
 21
4.8470750000000065
 31
0.0
100
AcDbText
  0
TEXT
  5
2F5
330
17
100
AcDbEntity
  8
A-ANNO-TEXT
100
AcDbText
 10
9.469999999999999
 20
4.726075000000006
 30
0.0
 40
0.06599999999999999
  1
which open onto it. Training on non-event days; crossing users are a known track hazard (Athletic Business).
  7
KS-REG
 11
9.469999999999999
 21
4.726075000000006
 31
0.0
100
AcDbText
  0
TEXT
  5
2F6
330
17
100
AcDbEntity
  8
A-ANNO-TEXT
100
AcDbText
 10
9.35
 20
4.594825000000006
 30
0.0
 40
0.06599999999999999
  1
·
  7
KS-REG
 11
9.35
 21
4.594825000000006
 31
0.0
100
AcDbText
  0
TEXT
  5
2F7
330
17
100
AcDbEntity
  8
A-ANNO-TEXT
100
AcDbText
 10
9.469999999999999
 20
4.594825000000006
 30
0.0
 40
0.06599999999999999
  1
Guards 42 in min. where the loop is open more than 30 in above the floor below (IBC 2021 1015.2, 1015.3; 4 in sphere 1015.4): west edge over the
  7
KS-REG
 11
9.469999999999999
 21
4.594825000000006
 31
0.0
100
AcDbText
  0
TEXT
  5
2F8
330
17
100
AcDbEntity
  8
A-ANNO-TEXT
100
AcDbText
 10
9.469999999999999
 20
4.473825000000006
 30
0.0
 40
0.06599999999999999
  1
arena, south edge over the lobby. Tier backs: rail / guard per 1030.17 (architect).
  7
KS-REG
 11
9.469999999999999
 21
4.473825000000006
 31
0.0
100
AcDbText
  0
TEXT
  5
2F9
330
17
100
AcDbEntity
  8
A-ANNO-TEXT
100
AcDbText
 10
9.35
 20
4.342575000000006
 30
0.0
 40
0.06599999999999999
  1
·
  7
KS-REG
 11
9.35
 21
4.342575000000006
 31
0.0
100
AcDbText
  0
TEXT
  5
2FA
330
17
100
AcDbEntity
  8
A-ANNO-TEXT
100
AcDbText
 10
9.469999999999999
 20
4.342575000000006
 30
0.0
 40
0.06599999999999999
  1
Stairs 76 in, 31 risers of 6.87 in for the 17'-9" floor-to-floor (D-061), 76 in intermediate landings = 12.67 x 24.08 ft, same spot both levels. The NE
  7
KS-REG
 11
9.469999999999999
 21
4.342575000000006
 31
0.0
100
AcDbText
  0
TEXT
  5
2FB
330
17
100
AcDbEntity
  8
A-ANNO-TEXT
100
AcDbText
 10
9.469999999999999
 20
4.221575000000006
 30
0.0
 40
0.06599999999999999
  1
stair tower grows 2.75 ft west to 24.08 x 6.67 ft (Rev E 21.33 x 6.67), still clear of the loop's north leg. Egress: 4 stairs discharge at L1 through EXIT
  7
KS-REG
 11
9.469999999999999
 21
4.221575000000006
 31
0.0
100
AcDbText
  0
TEXT
  5
2FC
330
17
100
AcDbEntity
  8
A-ANNO-TEXT
100
AcDbText
 10
9.469999999999999
 20
4.100575000000005
 30
0.0
 40
0.06599999999999999
  1
ONLY doors X4, X6, X9, X10 (D-033).
  7
KS-REG
 11
9.469999999999999
 21
4.100575000000005
 31
0.0
100
AcDbText
  0
TEXT
  5
2FD
330
17
100
AcDbEntity
  8
A-ANNO-TEXT
100
AcDbText
 10
9.35
 20
3.9171250000000053
 30
0.0
 40
0.09
  1
LAYOUT NOTES (KEYSTONE, ASSUMED — architect to confirm)
  7
KS-BOLD
 11
9.35
 21
3.9171250000000053
 31
0.0
100
AcDbText
  0
TEXT
  5
2FE
330
17
100
AcDbEntity
  8
A-ANNO-TEXT
100
AcDbText
 10
9.35
 20
3.809325000000005
 30
0.0
 40
0.06599999999999999
  1
·
  7
KS-REG
 11
9.35
 21
3.809325000000005
 31
0.0
100
AcDbText
  0
TEXT
  5
2FF
330
17
100
AcDbEntity
  8
A-ANNO-TEXT
100
AcDbText
 10
9.469999999999999
 20
3.809325000000005
 30
0.0
 40
0.06599999999999999
  1
Upper tier 15 ft deep: 5 rows x 36 in, 21 in risers (D-061; section P2-A-301 / A-302), stepping DOWN from the loop (L2 FF 17'-9") to the court
  7
KS-REG
 11
9.469999999999999
 21
3.809325000000005
 31
0.0
100
AcDbText
  0
TEXT
  5
300
330
17
100
AcDbEntity
  8
A-ANNO-TEXT
100
AcDbText
 10
9.469999999999999
 20
3.688325000000005
 30
0.0
 40
0.06599999999999999
  1
(D-049). Seat split by side unchanged, totals 1,100 + 1,100.
  7
KS-REG
 11
9.469999999999999
 21
3.688325000000005
 31
0.0
100
AcDbText
  0
TEXT
  5
301
330
17
100
AcDbEntity
  8
A-ANNO-TEXT
100
AcDbText
 10
9.35
 20
3.557075000000005
 30
0.0
 40
0.06599999999999999
  1
·
  7
KS-REG
 11
9.35
 21
3.557075000000005
 31
0.0
100
AcDbText
  0
TEXT
  5
302
330
17
100
AcDbEntity
  8
A-ANNO-TEXT
100
AcDbText
 10
9.469999999999999
 20
3.557075000000005
 30
0.0
 40
0.06599999999999999
  1
6 ft stretch strip on the N side. Exit separation, travel distance, structure NOT checked. Floor-to-floor 17'-9" (D-061 DECIDED).
  7
KS-REG
 11
9.469999999999999
 21
3.557075000000005
 31
0.0
100
AcDbText
  0
TEXT
  5
303
330
17
100
AcDbEntity
  8
A-ANNO-TEXT
100
AcDbText
 10
9.35
 20
3.390725000000005
 30
0.0
 40
0.063
  1
Sources: phase2.yaml (D-009, D-030, D-033-D-035, D-049, D-051-D-053, D-056, D-057, D-060, D-061); Shane 2026-10-04 9:10 + 10:27 AM CT; P2-G-003 Rev
  7
KS-REG
 11
9.35
 21
3.390725000000005
 31
0.0
100
AcDbText
  0
TEXT
  5
304
330
17
100
AcDbEntity
  8
A-ANNO-TEXT
100
AcDbText
 10
9.35
 20
3.275225000000005
 30
0.0
 40
0.063
  1
I; R-008, R-009, R-014, R-015, R-020-R-022; IBC 2021 Ch. 10 (UpCodes, Alabama); UFC 4-740-02N (retrieved 2026-10-04). Geometry:
  7
KS-REG
 11
9.35
 21
3.275225000000005
 31
0.0
100
AcDbText
  0
TEXT
  5
305
330
17
100
AcDbEntity
  8
A-ANNO-TEXT
100
AcDbText
 10
9.35
 20
3.1597250000000052
 30
0.0
 40
0.063
  1
params/phase2_plan_rev_f.yaml.
  7
KS-REG
 11
9.35
 21
3.1597250000000052
 31
0.0
100
AcDbText
  0
ENDSEC
  0
SECTION
  2
OBJECTS
  0
DICTIONARY
  5
A
330
0
100
AcDbDictionary
281
1
  3
ACAD_COLOR
350
B
  3
ACAD_GROUP
350
C
  3
ACAD_LAYOUT
350
D
  3
ACAD_MATERIAL
350
E
  3
ACAD_MLEADERSTYLE
350
F
  3
ACAD_MLINESTYLE
350
10
  3
ACAD_PLOTSETTINGS
350
11
  3
ACAD_PLOTSTYLENAME
350
12
  3
ACAD_SCALELIST
350
14
  3
ACAD_TABLESTYLE
350
15
  3
ACAD_VISUALSTYLE
350
16
  3
EZDXF_META
350
2D
  0
DICTIONARY
  5
B
330
A
100
AcDbDictionary
281
1
  0
DICTIONARY
  5
C
330
A
100
AcDbDictionary
281
1
  0
DICTIONARY
  5
D
330
A
100
AcDbDictionary
281
1
  3
Model
350
1A
  3
Layout1
350
1E
  0
DICTIONARY
  5
E
330
A
100
AcDbDictionary
281
1
  3
ByBlock
350
1F
  3
ByLayer
350
20
  3
Global
350
21
  0
DICTIONARY
  5
F
330
A
100
AcDbDictionary
281
1
  3
Standard
350
2C
  0
DICTIONARY
  5
10
330
A
100
AcDbDictionary
281
1
  3
Standard
350
22
  0
DICTIONARY
  5
11
330
A
100
AcDbDictionary
281
1
  0
ACDBDICTIONARYWDFLT
  5
12
330
A
100
AcDbDictionary
281
1
  3
Normal
350
13
100
AcDbDictionaryWithDefault
340
13
  0
ACDBPLACEHOLDER
  5
13
330
12
  0
DICTIONARY
  5
14
330
A
100
AcDbDictionary
281
1
  0
DICTIONARY
  5
15
330
A
100
AcDbDictionary
281
1
  0
DICTIONARY
  5
16
330
A
100
AcDbDictionary
281
1
  0
LAYOUT
  5
1A
330
D
100
AcDbPlotSettings
  1

  4
A3
  6

 40
7.5
 41
20.0
 42
7.5
 43
20.0
 44
420.0
 45
297.0
 46
0.0
 47
0.0
 48
0.0
 49
0.0
140
0.0
141
0.0
142
1.0
143
1.0
 70
1024
 72
1
 73
0
 74
5
  7

 75
16
 76
0
 77
2
 78
300
147
1.0
148
0.0
149
0.0
100
AcDbLayout
  1
Model
 70
1
 71
0
 10
0.0
 20
0.0
 11
420.0
 21
297.0
 12
0.0
 22
0.0
 32
0.0
 14
1e+20
 24
1e+20
 34
1e+20
 15
-1e+20
 25
-1e+20
 35
-1e+20
146
0.0
 13
0.0
 23
0.0
 33
0.0
 16
1.0
 26
0.0
 36
0.0
 17
0.0
 27
1.0
 37
0.0
 76
1
330
17
  0
LAYOUT
  5
1E
330
D
100
AcDbPlotSettings
  1

  4
A3
  6

 40
7.5
 41
20.0
 42
7.5
 43
20.0
 44
420.0
 45
297.0
 46
0.0
 47
0.0
 48
0.0
 49
0.0
140
0.0
141
0.0
142
1.0
143
1.0
 70
0
 72
1
 73
0
 74
5
  7

 75
16
 76
0
 77
2
 78
300
147
1.0
148
0.0
149
0.0
100
AcDbLayout
  1
Layout1
 70
1
 71
1
 10
0.0
 20
0.0
 11
420.0
 21
297.0
 12
0.0
 22
0.0
 32
0.0
 14
1e+20
 24
1e+20
 34
1e+20
 15
-1e+20
 25
-1e+20
 35
-1e+20
146
0.0
 13
0.0
 23
0.0
 33
0.0
 16
1.0
 26
0.0
 36
0.0
 17
0.0
 27
1.0
 37
0.0
 76
1
330
1B
  0
MATERIAL
  5
1F
102
{ACAD_REACTORS
330
E
102
}
330
E
100
AcDbMaterial
  1
ByBlock
  2

 70
0
 40
1.0
 71
1
 41
1.0
 91
-1023410177
 42
1.0
 72
1
  3

 73
1
 74
1
 75
1
 44
0.5
 73
0
 45
1.0
 46
1.0
 77
1
  4

 78
1
 79
1
170
1
 48
1.0
171
1
  6

172
1
173
1
174
1
140
1.0
141
1.0
175
1
  7

176
1
177
1
178
1
143
1.0
179
1
  8

270
1
271
1
272
1
145
1.0
146
1.0
273
1
  9

274
1
275
1
276
1
 42
1.0
 72
1
  3

 73
1
 74
1
 75
1
 94
63
  0
MATERIAL
  5
20
102
{ACAD_REACTORS
330
E
102
}
330
E
100
AcDbMaterial
  1
ByLayer
  2

 70
0
 40
1.0
 71
1
 41
1.0
 91
-1023410177
 42
1.0
 72
1
  3

 73
1
 74
1
 75
1
 44
0.5
 73
0
 45
1.0
 46
1.0
 77
1
  4

 78
1
 79
1
170
1
 48
1.0
171
1
  6

172
1
173
1
174
1
140
1.0
141
1.0
175
1
  7

176
1
177
1
178
1
143
1.0
179
1
  8

270
1
271
1
272
1
145
1.0
146
1.0
273
1
  9

274
1
275
1
276
1
 42
1.0
 72
1
  3

 73
1
 74
1
 75
1
 94
63
  0
MATERIAL
  5
21
102
{ACAD_REACTORS
330
E
102
}
330
E
100
AcDbMaterial
  1
Global
  2

 70
0
 40
1.0
 71
1
 41
1.0
 91
-1023410177
 42
1.0
 72
1
  3

 73
1
 74
1
 75
1
 44
0.5
 73
0
 45
1.0
 46
1.0
 77
1
  4

 78
1
 79
1
170
1
 48
1.0
171
1
  6

172
1
173
1
174
1
140
1.0
141
1.0
175
1
  7

176
1
177
1
178
1
143
1.0
179
1
  8

270
1
271
1
272
1
145
1.0
146
1.0
273
1
  9

274
1
275
1
276
1
 42
1.0
 72
1
  3

 73
1
 74
1
 75
1
 94
63
  0
MLINESTYLE
  5
22
102
{ACAD_REACTORS
330
10
102
}
330
10
100
AcDbMlineStyle
  2
Standard
 70
0
  3

 62
256
 51
90.0
 52
90.0
 71
2
 49
0.5
 62
256
  6
BYLAYER
 49
-0.5
 62
256
  6
BYLAYER
  0
MLEADERSTYLE
  5
2C
102
{ACAD_REACTORS
330
F
102
}
330
F
100
AcDbMLeaderStyle
179
2
170
2
171
1
172
0
 90
2
 40
0.0
 41
0.0
173
1
 91
-1056964608
 92
-2
290
1
 42
2.0
291
1
 43
8.0
  3
Standard
 44
4.0
300

342
29
174
1
175
1
176
0
178
1
 93
-1056964608
 45
4.0
292
0
297
0
 46
4.0
 94
-1056964608
 47
1.0
 49
1.0
140
1.0
294
1
141
0.0
177
0
142
1.0
295
0
296
0
143
3.75
271
0
272
9
273
9
  0
DICTIONARY
  5
2D
330
A
100
AcDbDictionary
280
1
281
1
  3
CREATED_BY_EZDXF
350
2E
  3
WRITTEN_BY_EZDXF
350
308
  0
DICTIONARYVAR
  5
2E
330
2D
100
DictionaryVariables
280
0
  1
1.4.4 @ 2026-10-04T15:40:11.810539+00:00
  0
DICTIONARYVAR
  5
308
330
2D
100
DictionaryVariables
280
0
  1
1.4.4 @ 2026-10-04T15:40:11.823310+00:00
  0
ENDSEC
  0
EOF
