  0
SECTION
  2
HEADER
  9
$ACADVER
  1
AC1024
  9
$ACADMAINTVER
 70
6
  9
$DWGCODEPAGE
  3
ANSI_1252
  9
$LASTSAVEDBY
  1
ezdxf
  9
$INSBASE
 10
0.0
 20
0.0
 30
0.0
  9
$EXTMIN
 10
1e+20
 20
1e+20
 30
1e+20
  9
$EXTMAX
 10
-1e+20
 20
-1e+20
 30
-1e+20
  9
$LIMMIN
 10
0.0
 20
0.0
  9
$LIMMAX
 10
420.0
 20
297.0
  9
$ORTHOMODE
 70
0
  9
$REGENMODE
 70
1
  9
$FILLMODE
 70
1
  9
$QTEXTMODE
 70
0
  9
$MIRRTEXT
 70
1
  9
$LTSCALE
 40
1.0
  9
$ATTMODE
 70
1
  9
$TEXTSIZE
 40
2.5
  9
$TRACEWID
 40
1.0
  9
$TEXTSTYLE
  7
Standard
  9
$CLAYER
  8
0
  9
$CELTYPE
  6
ByLayer
  9
$CECOLOR
 62
256
  9
$CELTSCALE
 40
1.0
  9
$DISPSILH
 70
0
  9
$DIMSCALE
 40
1.0
  9
$DIMASZ
 40
2.5
  9
$DIMEXO
 40
0.625
  9
$DIMDLI
 40
3.75
  9
$DIMRND
 40
0.0
  9
$DIMDLE
 40
0.0
  9
$DIMEXE
 40
1.25
  9
$DIMTP
 40
0.0
  9
$DIMTM
 40
0.0
  9
$DIMTXT
 40
2.5
  9
$DIMCEN
 40
2.5
  9
$DIMTSZ
 40
0.0
  9
$DIMTOL
 70
0
  9
$DIMLIM
 70
0
  9
$DIMTIH
 70
0
  9
$DIMTOH
 70
0
  9
$DIMSE1
 70
0
  9
$DIMSE2
 70
0
  9
$DIMTAD
 70
1
  9
$DIMZIN
 70
8
  9
$DIMBLK
  1

  9
$DIMASO
 70
1
  9
$DIMSHO
 70
1
  9
$DIMPOST
  1

  9
$DIMAPOST
  1

  9
$DIMALT
 70
0
  9
$DIMALTD
 70
3
  9
$DIMALTF
 40
0.03937007874
  9
$DIMLFAC
 40
1.0
  9
$DIMTOFL
 70
1
  9
$DIMTVP
 40
0.0
  9
$DIMTIX
 70
0
  9
$DIMSOXD
 70
0
  9
$DIMSAH
 70
0
  9
$DIMBLK1
  1

  9
$DIMBLK2
  1

  9
$DIMSTYLE
  2
ISO-25
  9
$DIMCLRD
 70
0
  9
$DIMCLRE
 70
0
  9
$DIMCLRT
 70
0
  9
$DIMTFAC
 40
1.0
  9
$DIMGAP
 40
0.625
  9
$DIMJUST
 70
0
  9
$DIMSD1
 70
0
  9
$DIMSD2
 70
0
  9
$DIMTOLJ
 70
0
  9
$DIMTZIN
 70
8
  9
$DIMALTZ
 70
0
  9
$DIMALTTZ
 70
0
  9
$DIMUPT
 70
0
  9
$DIMDEC
 70
2
  9
$DIMTDEC
 70
2
  9
$DIMALTU
 70
2
  9
$DIMALTTD
 70
3
  9
$DIMTXSTY
  7
Standard
  9
$DIMAUNIT
 70
0
  9
$DIMADEC
 70
0
  9
$DIMALTRND
 40
0.0
  9
$DIMAZIN
 70
0
  9
$DIMDSEP
 70
44
  9
$DIMATFIT
 70
3
  9
$DIMFRAC
 70
0
  9
$DIMLDRBLK
  1

  9
$DIMLUNIT
 70
2
  9
$DIMLWD
 70
-2
  9
$DIMLWE
 70
-2
  9
$DIMTMOVE
 70
0
  9
$DIMFXL
 40
1.0
  9
$DIMFXLON
 70
0
  9
$DIMJOGANG
 40
0.785398163397
  9
$DIMTFILL
 70
0
  9
$DIMTFILLCLR
 70
0
  9
$DIMARCSYM
 70
0
  9
$DIMLTYPE
  6

  9
$DIMLTEX1
  6

  9
$DIMLTEX2
  6

  9
$DIMTXTDIRECTION
 70
0
  9
$LUNITS
 70
2
  9
$LUPREC
 70
4
  9
$SKETCHINC
 40
1.0
  9
$FILLETRAD
 40
10.0
  9
$AUNITS
 70
0
  9
$AUPREC
 70
2
  9
$MENU
  1
.
  9
$ELEVATION
 40
0.0
  9
$PELEVATION
 40
0.0
  9
$THICKNESS
 40
0.0
  9
$LIMCHECK
 70
0
  9
$CHAMFERA
 40
0.0
  9
$CHAMFERB
 40
0.0
  9
$CHAMFERC
 40
0.0
  9
$CHAMFERD
 40
0.0
  9
$SKPOLY
 70
0
  9
$TDCREATE
 40
2461318.5800810186
  9
$TDUCREATE
 40
2458532.153996898
  9
$TDUPDATE
 40
2461318.5800810186
  9
$TDUUPDATE
 40
2458532.1544311
  9
$TDINDWG
 40
0.0
  9
$TDUSRTIMER
 40
0.0
  9
$USRTIMER
 70
1
  9
$ANGBASE
 50
0.0
  9
$ANGDIR
 70
0
  9
$PDMODE
 70
0
  9
$PDSIZE
 40
0.0
  9
$PLINEWID
 40
0.0
  9
$SPLFRAME
 70
0
  9
$SPLINETYPE
 70
6
  9
$SPLINESEGS
 70
8
  9
$HANDSEED
  5
1B6
  9
$SURFTAB1
 70
6
  9
$SURFTAB2
 70
6
  9
$SURFTYPE
 70
6
  9
$SURFU
 70
6
  9
$SURFV
 70
6
  9
$UCSBASE
  2

  9
$UCSNAME
  2

  9
$UCSORG
 10
0.0
 20
0.0
 30
0.0
  9
$UCSXDIR
 10
1.0
 20
0.0
 30
0.0
  9
$UCSYDIR
 10
0.0
 20
1.0
 30
0.0
  9
$UCSORTHOREF
  2

  9
$UCSORTHOVIEW
 70
0
  9
$UCSORGTOP
 10
0.0
 20
0.0
 30
0.0
  9
$UCSORGBOTTOM
 10
0.0
 20
0.0
 30
0.0
  9
$UCSORGLEFT
 10
0.0
 20
0.0
 30
0.0
  9
$UCSORGRIGHT
 10
0.0
 20
0.0
 30
0.0
  9
$UCSORGFRONT
 10
0.0
 20
0.0
 30
0.0
  9
$UCSORGBACK
 10
0.0
 20
0.0
 30
0.0
  9
$PUCSBASE
  2

  9
$PUCSNAME
  2

  9
$PUCSORG
 10
0.0
 20
0.0
 30
0.0
  9
$PUCSXDIR
 10
1.0
 20
0.0
 30
0.0
  9
$PUCSYDIR
 10
0.0
 20
1.0
 30
0.0
  9
$PUCSORTHOREF
  2

  9
$PUCSORTHOVIEW
 70
0
  9
$PUCSORGTOP
 10
0.0
 20
0.0
 30
0.0
  9
$PUCSORGBOTTOM
 10
0.0
 20
0.0
 30
0.0
  9
$PUCSORGLEFT
 10
0.0
 20
0.0
 30
0.0
  9
$PUCSORGRIGHT
 10
0.0
 20
0.0
 30
0.0
  9
$PUCSORGFRONT
 10
0.0
 20
0.0
 30
0.0
  9
$PUCSORGBACK
 10
0.0
 20
0.0
 30
0.0
  9
$USERI1
 70
0
  9
$USERI2
 70
0
  9
$USERI3
 70
0
  9
$USERI4
 70
0
  9
$USERI5
 70
0
  9
$USERR1
 40
0.0
  9
$USERR2
 40
0.0
  9
$USERR3
 40
0.0
  9
$USERR4
 40
0.0
  9
$USERR5
 40
0.0
  9
$WORLDVIEW
 70
1
  9
$SHADEDGE
 70
3
  9
$SHADEDIF
 70
70
  9
$TILEMODE
 70
1
  9
$MAXACTVP
 70
64
  9
$PINSBASE
 10
0.0
 20
0.0
 30
0.0
  9
$PLIMCHECK
 70
0
  9
$PEXTMIN
 10
1e+20
 20
1e+20
 30
1e+20
  9
$PEXTMAX
 10
-1e+20
 20
-1e+20
 30
-1e+20
  9
$PLIMMIN
 10
0.0
 20
0.0
  9
$PLIMMAX
 10
420.0
 20
297.0
  9
$UNITMODE
 70
0
  9
$VISRETAIN
 70
1
  9
$PLINEGEN
 70
0
  9
$PSLTSCALE
 70
1
  9
$TREEDEPTH
 70
3020
  9
$CMLSTYLE
  2
Standard
  9
$CMLJUST
 70
0
  9
$CMLSCALE
 40
20.0
  9
$PROXYGRAPHICS
 70
1
  9
$MEASUREMENT
 70
0
  9
$CELWEIGHT
370
-1
  9
$ENDCAPS
280
0
  9
$JOINSTYLE
280
0
  9
$LWDISPLAY
290
0
  9
$INSUNITS
 70
1
  9
$HYPERLINKBASE
  1

  9
$STYLESHEET
  1

  9
$XEDIT
290
1
  9
$CEPSNTYPE
380
0
  9
$PSTYLEMODE
290
1
  9
$FINGERPRINTGUID
  2
{8307FED9-6672-40B6-A5A3-4890C3FBEA4B}
  9
$VERSIONGUID
  2
{733EC888-2B8B-4CD1-93E8-FC44F971DBE3}
  9
$EXTNAMES
290
1
  9
$PSVPSCALE
 40
0.0
  9
$OLESTARTUP
290
0
  9
$SORTENTS
280
127
  9
$INDEXCTL
280
0
  9
$HIDETEXT
280
1
  9
$XCLIPFRAME
280
1
  9
$HALOGAP
280
0
  9
$OBSCOLOR
 70
257
  9
$OBSLTYPE
280
0
  9
$INTERSECTIONDISPLAY
280
0
  9
$INTERSECTIONCOLOR
 70
257
  9
$DIMASSOC
280
2
  9
$PROJECTNAME
  1

  9
$CAMERADISPLAY
290
0
  9
$LENSLENGTH
 40
50.0
  9
$CAMERAHEIGHT
 40
0.0
  9
$STEPSPERSEC
 40
24.0
  9
$STEPSIZE
 40
100.0
  9
$3DDWFPREC
 40
2.0
  9
$PSOLWIDTH
 40
0.005
  9
$PSOLHEIGHT
 40
0.08
  9
$LOFTANG1
 40
1.570796326795
  9
$LOFTANG2
 40
1.570796326795
  9
$LOFTMAG1
 40
0.0
  9
$LOFTMAG2
 40
0.0
  9
$LOFTPARAM
 70
7
  9
$LOFTNORMALS
280
1
  9
$LATITUDE
 40
37.795
  9
$LONGITUDE
 40
-122.394
  9
$NORTHDIRECTION
 40
0.0
  9
$TIMEZONE
 70
-8000
  9
$LIGHTGLYPHDISPLAY
280
1
  9
$TILEMODELIGHTSYNCH
280
1
  9
$CMATERIAL
347
20
  9
$SOLIDHIST
280
0
  9
$SHOWHIST
280
1
  9
$DWFFRAME
280
2
  9
$DGNFRAME
280
2
  9
$REALWORLDSCALE
290
1
  9
$INTERFERECOLOR
 62
256
  9
$CSHADOW
280
0
  9
$SHADOWPLANELOCATION
 40
0.0
  0
ENDSEC
  0
SECTION
  2
CLASSES
  0
CLASS
  1
ACDBDICTIONARYWDFLT
  2
AcDbDictionaryWithDefault
  3
ObjectDBX Classes
 90
0
 91
0
280
0
281
0
  0
CLASS
  1
SUN
  2
AcDbSun
  3
SCENEOE
 90
1153
 91
0
280
0
281
0
  0
CLASS
  1
VISUALSTYLE
  2
AcDbVisualStyle
  3
ObjectDBX Classes
 90
4095
 91
0
280
0
281
0
  0
CLASS
  1
MATERIAL
  2
AcDbMaterial
  3
ObjectDBX Classes
 90
1153
 91
0
280
0
281
0
  0
CLASS
  1
SCALE
  2
AcDbScale
  3
ObjectDBX Classes
 90
1153
 91
0
280
0
281
0
  0
CLASS
  1
TABLESTYLE
  2
AcDbTableStyle
  3
ObjectDBX Classes
 90
4095
 91
0
280
0
281
0
  0
CLASS
  1
MLEADERSTYLE
  2
AcDbMLeaderStyle
  3
ACDB_MLEADERSTYLE_CLASS
 90
4095
 91
0
280
0
281
0
  0
CLASS
  1
DICTIONARYVAR
  2
AcDbDictionaryVar
  3
ObjectDBX Classes
 90
0
 91
0
280
0
281
0
  0
CLASS
  1
CELLSTYLEMAP
  2
AcDbCellStyleMap
  3
ObjectDBX Classes
 90
1152
 91
0
280
0
281
0
  0
CLASS
  1
MENTALRAYRENDERSETTINGS
  2
AcDbMentalRayRenderSettings
  3
SCENEOE
 90
1024
 91
0
280
0
281
0
  0
CLASS
  1
ACDBDETAILVIEWSTYLE
  2
AcDbDetailViewStyle
  3
ObjectDBX Classes
 90
1025
 91
0
280
0
281
0
  0
CLASS
  1
ACDBSECTIONVIEWSTYLE
  2
AcDbSectionViewStyle
  3
ObjectDBX Classes
 90
1025
 91
0
280
0
281
0
  0
CLASS
  1
RASTERVARIABLES
  2
AcDbRasterVariables
  3
ISM
 90
0
 91
0
280
0
281
0
  0
CLASS
  1
ACDBPLACEHOLDER
  2
AcDbPlaceHolder
  3
ObjectDBX Classes
 90
0
 91
0
280
0
281
0
  0
CLASS
  1
LAYOUT
  2
AcDbLayout
  3
ObjectDBX Classes
 90
0
 91
0
280
0
281
0
  0
ENDSEC
  0
SECTION
  2
TABLES
  0
TABLE
  2
VPORT
  5
8
330
0
100
AcDbSymbolTable
 70
1
  0
VPORT
  5
23
330
8
100
AcDbSymbolTableRecord
100
AcDbViewportTableRecord
  2
*Active
 70
0
 10
0.0
 20
0.0
 11
1.0
 21
1.0
 12
0.0
 22
0.0
 13
0.0
 23
0.0
 14
0.5
 24
0.5
 15
0.5
 25
0.5
 16
0.0
 26
0.0
 36
1.0
 17
0.0
 27
0.0
 37
0.0
 40
1000.0
 41
1.34
 42
50.0
 43
0.0
 44
0.0
 50
0.0
 51
0.0
 71
0
 72
1000
 73
1
 74
3
 75
0
 76
0
 77
0
 78
0
281
0
 65
0
146
0.0
  0
ENDTAB
  0
TABLE
  2
LTYPE
  5
2
330
0
100
AcDbSymbolTable
 70
3
  0
LTYPE
  5
24
330
2
100
AcDbSymbolTableRecord
100
AcDbLinetypeTableRecord
  2
ByBlock
 70
0
  3

 72
65
 73
0
 40
0.0
  0
LTYPE
  5
25
330
2
100
AcDbSymbolTableRecord
100
AcDbLinetypeTableRecord
  2
ByLayer
 70
0
  3

 72
65
 73
0
 40
0.0
  0
LTYPE
  5
26
330
2
100
AcDbSymbolTableRecord
100
AcDbLinetypeTableRecord
  2
Continuous
 70
0
  3

 72
65
 73
0
 40
0.0
  0
ENDTAB
  0
TABLE
  2
LAYER
  5
1
330
0
100
AcDbSymbolTable
 70
9
  0
LAYER
  5
27
330
1
100
AcDbSymbolTableRecord
100
AcDbLayerTableRecord
  2
0
 70
0
 62
7
  6
Continuous
370
-3
390
13
347
21
  0
LAYER
  5
28
330
1
100
AcDbSymbolTableRecord
100
AcDbLayerTableRecord
  2
Defpoints
 70
0
 62
7
  6
Continuous
290
0
370
-3
390
13
347
21
  0
LAYER
  5
31
330
1
100
AcDbSymbolTableRecord
100
AcDbLayerTableRecord
  2
G-ANNO-TTLB
 70
0
 62
7
  6
Continuous
370
-3
390
13
347
21
  0
LAYER
  5
32
330
1
100
AcDbSymbolTableRecord
100
AcDbLayerTableRecord
  2
A-ANNO-TEXT
 70
0
 62
7
  6
Continuous
370
-3
390
13
347
21
  0
LAYER
  5
33
330
1
100
AcDbSymbolTableRecord
100
AcDbLayerTableRecord
  2
C-SITE
 70
0
 62
7
  6
Continuous
370
-3
390
13
347
21
  0
LAYER
  5
34
330
1
100
AcDbSymbolTableRecord
100
AcDbLayerTableRecord
  2
A-AREA-OPEN
 70
0
 62
7
  6
Continuous
370
-3
390
13
347
21
  0
LAYER
  5
35
330
1
100
AcDbSymbolTableRecord
100
AcDbLayerTableRecord
  2
A-WALL
 70
0
 62
7
  6
Continuous
370
-3
390
13
347
21
  0
LAYER
  5
36
330
1
100
AcDbSymbolTableRecord
100
AcDbLayerTableRecord
  2
A-FLOR-STRS
 70
0
 62
7
  6
Continuous
370
-3
390
13
347
21
  0
LAYER
  5
37
330
1
100
AcDbSymbolTableRecord
100
AcDbLayerTableRecord
  2
A-ANNO-DIMS
 70
0
 62
7
  6
Continuous
370
-3
390
13
347
21
  0
ENDTAB
  0
TABLE
  2
STYLE
  5
5
330
0
100
AcDbSymbolTable
 70
3
  0
STYLE
  5
29
330
5
100
AcDbSymbolTableRecord
100
AcDbTextStyleTableRecord
  2
Standard
 70
0
 40
0.0
 41
1.0
 50
0.0
 71
0
 42
2.5
  3
txt
  4

  0
STYLE
  5
2F
330
5
100
AcDbSymbolTableRecord
100
AcDbTextStyleTableRecord
  2
KS-REG
 70
0
 40
0.0
 41
1.0
 50
0.0
 71
0
 42
2.5
  3
DejaVuSans.ttf
  4

  0
STYLE
  5
30
330
5
100
AcDbSymbolTableRecord
100
AcDbTextStyleTableRecord
  2
KS-BOLD
 70
0
 40
0.0
 41
1.0
 50
0.0
 71
0
 42
2.5
  3
DejaVuSans-Bold.ttf
  4

  0
ENDTAB
  0
TABLE
  2
VIEW
  5
7
330
0
100
AcDbSymbolTable
 70
0
  0
ENDTAB
  0
TABLE
  2
UCS
  5
6
330
0
100
AcDbSymbolTable
 70
0
  0
ENDTAB
  0
TABLE
  2
APPID
  5
3
330
0
100
AcDbSymbolTable
 70
3
  0
APPID
  5
2A
330
3
100
AcDbSymbolTableRecord
100
AcDbRegAppTableRecord
  2
ACAD
 70
0
  0
APPID
  5
1B3
330
3
100
AcDbSymbolTableRecord
100
AcDbRegAppTableRecord
  2
HATCHBACKGROUNDCOLOR
 70
0
  0
APPID
  5
1B4
330
3
100
AcDbSymbolTableRecord
100
AcDbRegAppTableRecord
  2
EZDXF
 70
0
  0
ENDTAB
  0
TABLE
  2
DIMSTYLE
  5
4
330
0
100
AcDbSymbolTable
 70
1
100
AcDbDimStyleTable
  0
DIMSTYLE
105
2B
330
4
100
AcDbSymbolTableRecord
100
AcDbDimStyleTableRecord
  2
Standard
 70
0
 40
1.0
 41
2.5
 42
0.625
 43
3.75
 44
1.25
 45
0.0
 46
0.0
 47
0.0
 48
0.0
 49
2.5
140
2.5
141
2.5
142
0.0
143
0.03937007874
144
1.0
145
0.0
146
1.0
147
0.625
148
0.0
 69
0
 70
0
 71
0
 72
0
 73
0
 74
0
 75
0
 76
0
 77
1
 78
8
 79
3
170
0
171
3
172
1
173
0
174
0
175
0
176
0
177
0
178
0
179
2
271
2
272
2
273
2
274
3
275
0
276
0
277
2
278
44
279
0
280
0
281
0
282
0
283
0
284
8
285
0
286
0
288
0
289
3
290
0
371
-2
372
-2
  0
ENDTAB
  0
TABLE
  2
BLOCK_RECORD
  5
9
330
0
100
AcDbSymbolTable
 70
2
  0
BLOCK_RECORD
  5
17
330
9
100
AcDbSymbolTableRecord
100
AcDbBlockTableRecord
  2
*Model_Space
340
1A
 70
0
280
1
281
0
  0
BLOCK_RECORD
  5
1B
330
9
100
AcDbSymbolTableRecord
100
AcDbBlockTableRecord
  2
*Paper_Space
340
1E
 70
0
280
1
281
0
  0
ENDTAB
  0
ENDSEC
  0
SECTION
  2
BLOCKS
  0
BLOCK
  5
18
330
17
100
AcDbEntity
  8
0
100
AcDbBlockBegin
  2
*Model_Space
 70
0
 10
0.0
 20
0.0
 30
0.0
  3
*Model_Space
  1

  0
ENDBLK
  5
19
330
17
100
AcDbEntity
  8
0
100
AcDbBlockEnd
  0
BLOCK
  5
1C
330
1B
100
AcDbEntity
  8
0
100
AcDbBlockBegin
  2
*Paper_Space
 70
0
 10
0.0
 20
0.0
 30
0.0
  3
*Paper_Space
  1

  0
ENDBLK
  5
1D
330
1B
100
AcDbEntity
  8
0
100
AcDbBlockEnd
  0
ENDSEC
  0
SECTION
  2
ENTITIES
  0
LWPOLYLINE
  5
38
330
17
100
AcDbEntity
  8
G-ANNO-TTLB
100
AcDbPolyline
 90
4
 70
1
 10
0.5
 20
0.5
 10
16.5
 20
0.5
 10
16.5
 20
10.5
 10
0.5
 20
10.5
  0
LWPOLYLINE
  5
39
330
17
100
AcDbEntity
  8
G-ANNO-TTLB
100
AcDbPolyline
 90
4
 70
1
 10
0.5
 20
1.45
 10
16.5
 20
1.45
 10
16.5
 20
1.85
 10
0.5
 20
1.85
  0
TEXT
  5
3A
330
17
100
AcDbEntity
  8
G-ANNO-TTLB
100
AcDbText
 10
8.5
 20
1.5699999999999998
 30
0.0
 40
0.16999999999999998
  1
PRELIMINARY — CONCEPTUAL DESIGN — NOT FOR CONSTRUCTION
  7
KS-BOLD
 72
1
 11
8.5
 21
1.5699999999999998
 31
0.0
100
AcDbText
  0
LINE
  5
3B
330
17
100
AcDbEntity
  8
G-ANNO-TTLB
100
AcDbLine
 10
0.5
 20
1.45
 30
0.0
 11
16.5
 21
1.45
 31
0.0
  0
TEXT
  5
3C
330
17
100
AcDbEntity
  8
G-ANNO-TTLB
100
AcDbText
 10
0.58
 20
1.28
 30
0.0
 40
0.06999999999999999
  1
PROJECT
  7
KS-REG
 11
0.58
 21
1.28
 31
0.0
100
AcDbText
  0
TEXT
  5
3D
330
17
100
AcDbEntity
  8
G-ANNO-TTLB
100
AcDbText
 10
0.58
 20
0.9991666666666666
 30
0.0
 40
0.11499999999999999
  1
Hazel Green Regional Athletic Complex
  7
KS-BOLD
 11
0.58
 21
0.9991666666666666
 31
0.0
100
AcDbText
  0
TEXT
  5
3E
330
17
100
AcDbEntity
  8
G-ANNO-TTLB
100
AcDbText
 10
0.58
 20
0.7883333333333333
 30
0.0
 40
0.11499999999999999
  1
Trojan Horse Arena · Hazel Green area, Madison
  7
KS-BOLD
 11
0.58
 21
0.7883333333333333
 31
0.0
100
AcDbText
  0
TEXT
  5
3F
330
17
100
AcDbEntity
  8
G-ANNO-TTLB
100
AcDbText
 10
0.58
 20
0.5775
 30
0.0
 40
0.11499999999999999
  1
County, Alabama (site TBD, D-006)
  7
KS-BOLD
 11
0.58
 21
0.5775
 31
0.0
100
AcDbText
  0
LINE
  5
40
330
17
100
AcDbEntity
  8
G-ANNO-TTLB
100
AcDbLine
 10
5.2
 20
0.5
 30
0.0
 11
5.2
 21
1.45
 31
0.0
  0
TEXT
  5
41
330
17
100
AcDbEntity
  8
G-ANNO-TTLB
100
AcDbText
 10
5.28
 20
1.28
 30
0.0
 40
0.06999999999999999
  1
PHASE
  7
KS-REG
 11
5.28
 21
1.28
 31
0.0
100
AcDbText
  0
TEXT
  5
42
330
17
100
AcDbEntity
  8
G-ANNO-TTLB
100
AcDbText
 10
5.28
 20
0.9716666666666667
 30
0.0
 40
0.13
  1
PHASE 2
  7
KS-BOLD
 11
5.28
 21
0.9716666666666667
 31
0.0
100
AcDbText
  0
LINE
  5
43
330
17
100
AcDbEntity
  8
G-ANNO-TTLB
100
AcDbLine
 10
6.7
 20
0.5
 30
0.0
 11
6.7
 21
1.45
 31
0.0
  0
TEXT
  5
44
330
17
100
AcDbEntity
  8
G-ANNO-TTLB
100
AcDbText
 10
6.78
 20
1.28
 30
0.0
 40
0.06999999999999999
  1
SHEET TITLE
  7
KS-REG
 11
6.78
 21
1.28
 31
0.0
100
AcDbText
  0
TEXT
  5
45
330
17
100
AcDbEntity
  8
G-ANNO-TTLB
100
AcDbText
 10
6.78
 20
0.9991666666666666
 30
0.0
 40
0.11499999999999999
  1
SITE PLAN — CAMPUS DIAGRAM
  7
KS-BOLD
 11
6.78
 21
0.9991666666666666
 31
0.0
100
AcDbText
  0
TEXT
  5
46
330
17
100
AcDbEntity
  8
G-ANNO-TTLB
100
AcDbText
 10
6.78
 20
0.7883333333333333
 30
0.0
 40
0.11499999999999999
  1
SITE TBD · SCHEMATIC
  7
KS-BOLD
 11
6.78
 21
0.7883333333333333
 31
0.0
100
AcDbText
  0
LINE
  5
47
330
17
100
AcDbEntity
  8
G-ANNO-TTLB
100
AcDbLine
 10
9.8
 20
0.5
 30
0.0
 11
9.8
 21
1.45
 31
0.0
  0
TEXT
  5
48
330
17
100
AcDbEntity
  8
G-ANNO-TTLB
100
AcDbText
 10
9.88
 20
1.28
 30
0.0
 40
0.06999999999999999
  1
SCALE
  7
KS-REG
 11
9.88
 21
1.28
 31
0.0
100
AcDbText
  0
TEXT
  5
49
330
17
100
AcDbEntity
  8
G-ANNO-TTLB
100
AcDbText
 10
9.88
 20
0.9716666666666667
 30
0.0
 40
0.13
  1
AS
  7
KS-BOLD
 11
9.88
 21
0.9716666666666667
 31
0.0
100
AcDbText
  0
TEXT
  5
4A
330
17
100
AcDbEntity
  8
G-ANNO-TTLB
100
AcDbText
 10
9.88
 20
0.7333333333333334
 30
0.0
 40
0.13
  1
NOTED
  7
KS-BOLD
 11
9.88
 21
0.7333333333333334
 31
0.0
100
AcDbText
  0
LINE
  5
4B
330
17
100
AcDbEntity
  8
G-ANNO-TTLB
100
AcDbLine
 10
10.700000000000001
 20
0.5
 30
0.0
 11
10.700000000000001
 21
1.45
 31
0.0
  0
TEXT
  5
4C
330
17
100
AcDbEntity
  8
G-ANNO-TTLB
100
AcDbText
 10
10.780000000000001
 20
1.28
 30
0.0
 40
0.06999999999999999
  1
DATE
  7
KS-REG
 11
10.780000000000001
 21
1.28
 31
0.0
100
AcDbText
  0
TEXT
  5
4D
330
17
100
AcDbEntity
  8
G-ANNO-TTLB
100
AcDbText
 10
10.780000000000001
 20
0.9716666666666667
 30
0.0
 40
0.13
  1
October
  7
KS-BOLD
 11
10.780000000000001
 21
0.9716666666666667
 31
0.0
100
AcDbText
  0
TEXT
  5
4E
330
17
100
AcDbEntity
  8
G-ANNO-TTLB
100
AcDbText
 10
10.780000000000001
 20
0.7333333333333334
 30
0.0
 40
0.13
  1
2026
  7
KS-BOLD
 11
10.780000000000001
 21
0.7333333333333334
 31
0.0
100
AcDbText
  0
LINE
  5
4F
330
17
100
AcDbEntity
  8
G-ANNO-TTLB
100
AcDbLine
 10
12.15
 20
0.5
 30
0.0
 11
12.15
 21
1.45
 31
0.0
  0
TEXT
  5
50
330
17
100
AcDbEntity
  8
G-ANNO-TTLB
100
AcDbText
 10
12.23
 20
1.28
 30
0.0
 40
0.06999999999999999
  1
REV
  7
KS-REG
 11
12.23
 21
1.28
 31
0.0
100
AcDbText
  0
TEXT
  5
51
330
17
100
AcDbEntity
  8
G-ANNO-TTLB
100
AcDbText
 10
12.23
 20
0.9716666666666667
 30
0.0
 40
0.13
  1
D
  7
KS-BOLD
 11
12.23
 21
0.9716666666666667
 31
0.0
100
AcDbText
  0
LINE
  5
52
330
17
100
AcDbEntity
  8
G-ANNO-TTLB
100
AcDbLine
 10
12.9
 20
0.5
 30
0.0
 11
12.9
 21
1.45
 31
0.0
  0
TEXT
  5
53
330
17
100
AcDbEntity
  8
G-ANNO-TTLB
100
AcDbText
 10
12.98
 20
1.28
 30
0.0
 40
0.06999999999999999
  1
DRAWN BY
  7
KS-REG
 11
12.98
 21
1.28
 31
0.0
100
AcDbText
  0
TEXT
  5
54
330
17
100
AcDbEntity
  8
G-ANNO-TTLB
100
AcDbText
 10
12.98
 20
1.0358333333333332
 30
0.0
 40
0.095
  1
Drawn by KEYSTONE (AI) for
  7
KS-REG
 11
12.98
 21
1.0358333333333332
 31
0.0
100
AcDbText
  0
TEXT
  5
55
330
17
100
AcDbEntity
  8
G-ANNO-TTLB
100
AcDbText
 10
12.98
 20
0.8616666666666665
 30
0.0
 40
0.095
  1
Shane Brazelton
  7
KS-REG
 11
12.98
 21
0.8616666666666665
 31
0.0
100
AcDbText
  0
LINE
  5
56
330
17
100
AcDbEntity
  8
G-ANNO-TTLB
100
AcDbLine
 10
15.0
 20
0.5
 30
0.0
 11
15.0
 21
1.45
 31
0.0
  0
TEXT
  5
57
330
17
100
AcDbEntity
  8
G-ANNO-TTLB
100
AcDbText
 10
15.08
 20
1.28
 30
0.0
 40
0.06999999999999999
  1
SHEET
  7
KS-REG
 11
15.08
 21
1.28
 31
0.0
100
AcDbText
  0
TEXT
  5
58
330
17
100
AcDbEntity
  8
G-ANNO-TTLB
100
AcDbText
 10
15.75
 20
0.77
 30
0.0
 40
0.18
  1
P2-C-101
  7
KS-BOLD
 72
1
 11
15.75
 21
0.77
 31
0.0
100
AcDbText
  0
HATCH
  5
59
330
17
100
AcDbEntity
  8
C-SITE
 62
7
420
13224393
100
AcDbHatch
 10
0.0
 20
0.0
 30
0.0
210
0.0
220
0.0
230
1.0
  2
SOLID
 70
1
 71
0
 91
1
 92
3
 72
0
 73
1
 93
4
 10
0.8999999999999999
 20
2.3499999999999996
 10
6.566666666666666
 20
2.3499999999999996
 10
6.566666666666666
 20
2.75
 10
0.8999999999999999
 20
2.75
 97
0
 75
0
 76
1
 98
0
  0
LWPOLYLINE
  5
5A
330
17
100
AcDbEntity
  8
C-SITE
100
AcDbPolyline
 90
4
 70
1
 10
0.8999999999999999
 20
2.3499999999999996
 10
6.566666666666666
 20
2.3499999999999996
 10
6.566666666666666
 20
2.75
 10
0.8999999999999999
 20
2.75
  0
LINE
  5
5B
330
17
100
AcDbEntity
  8
C-SITE
100
AcDbLine
 10
0.8999999999999999
 20
2.55
 30
0.0
 11
0.9999999999999999
 21
2.55
 31
0.0
  0
LINE
  5
5C
330
17
100
AcDbEntity
  8
C-SITE
100
AcDbLine
 10
1.0799999999999998
 20
2.55
 30
0.0
 11
1.18
 21
2.55
 31
0.0
  0
LINE
  5
5D
330
17
100
AcDbEntity
  8
C-SITE
100
AcDbLine
 10
1.26
 20
2.55
 30
0.0
 11
1.3599999999999999
 21
2.55
 31
0.0
  0
LINE
  5
5E
330
17
100
AcDbEntity
  8
C-SITE
100
AcDbLine
 10
1.44
 20
2.55
 30
0.0
 11
1.54
 21
2.55
 31
0.0
  0
LINE
  5
5F
330
17
100
AcDbEntity
  8
C-SITE
100
AcDbLine
 10
1.6199999999999999
 20
2.55
 30
0.0
 11
1.7199999999999998
 21
2.55
 31
0.0
  0
LINE
  5
60
330
17
100
AcDbEntity
  8
C-SITE
100
AcDbLine
 10
1.7999999999999998
 20
2.55
 30
0.0
 11
1.9
 21
2.55
 31
0.0
  0
LINE
  5
61
330
17
100
AcDbEntity
  8
C-SITE
100
AcDbLine
 10
1.9799999999999998
 20
2.55
 30
0.0
 11
2.08
 21
2.55
 31
0.0
  0
LINE
  5
62
330
17
100
AcDbEntity
  8
C-SITE
100
AcDbLine
 10
2.16
 20
2.55
 30
0.0
 11
2.26
 21
2.55
 31
0.0
  0
LINE
  5
63
330
17
100
AcDbEntity
  8
C-SITE
100
AcDbLine
 10
2.34
 20
2.55
 30
0.0
 11
2.4400000000000004
 21
2.55
 31
0.0
  0
LINE
  5
64
330
17
100
AcDbEntity
  8
C-SITE
100
AcDbLine
 10
2.5200000000000005
 20
2.55
 30
0.0
 11
2.62
 21
2.55
 31
0.0
  0
LINE
  5
65
330
17
100
AcDbEntity
  8
C-SITE
100
AcDbLine
 10
2.7
 20
2.55
 30
0.0
 11
2.8000000000000007
 21
2.55
 31
0.0
  0
LINE
  5
66
330
17
100
AcDbEntity
  8
C-SITE
100
AcDbLine
 10
2.880000000000001
 20
2.55
 30
0.0
 11
2.9800000000000004
 21
2.55
 31
0.0
  0
LINE
  5
67
330
17
100
AcDbEntity
  8
C-SITE
100
AcDbLine
 10
3.0600000000000005
 20
2.55
 30
0.0
 11
3.1600000000000006
 21
2.55
 31
0.0
  0
LINE
  5
68
330
17
100
AcDbEntity
  8
C-SITE
100
AcDbLine
 10
3.2400000000000007
 20
2.55
 30
0.0
 11
3.3400000000000007
 21
2.55
 31
0.0
  0
LINE
  5
69
330
17
100
AcDbEntity
  8
C-SITE
100
AcDbLine
 10
3.420000000000001
 20
2.55
 30
0.0
 11
3.520000000000001
 21
2.55
 31
0.0
  0
LINE
  5
6A
330
17
100
AcDbEntity
  8
C-SITE
100
AcDbLine
 10
3.600000000000001
 20
2.55
 30
0.0
 11
3.700000000000001
 21
2.55
 31
0.0
  0
LINE
  5
6B
330
17
100
AcDbEntity
  8
C-SITE
100
AcDbLine
 10
3.780000000000001
 20
2.55
 30
0.0
 11
3.8800000000000012
 21
2.55
 31
0.0
  0
LINE
  5
6C
330
17
100
AcDbEntity
  8
C-SITE
100
AcDbLine
 10
3.9600000000000013
 20
2.55
 30
0.0
 11
4.060000000000001
 21
2.55
 31
0.0
  0
LINE
  5
6D
330
17
100
AcDbEntity
  8
C-SITE
100
AcDbLine
 10
4.1400000000000015
 20
2.55
 30
0.0
 11
4.240000000000002
 21
2.55
 31
0.0
  0
LINE
  5
6E
330
17
100
AcDbEntity
  8
C-SITE
100
AcDbLine
 10
4.320000000000002
 20
2.55
 30
0.0
 11
4.420000000000002
 21
2.55
 31
0.0
  0
LINE
  5
6F
330
17
100
AcDbEntity
  8
C-SITE
100
AcDbLine
 10
4.500000000000002
 20
2.55
 30
0.0
 11
4.600000000000001
 21
2.55
 31
0.0
  0
LINE
  5
70
330
17
100
AcDbEntity
  8
C-SITE
100
AcDbLine
 10
4.6800000000000015
 20
2.55
 30
0.0
 11
4.780000000000002
 21
2.55
 31
0.0
  0
LINE
  5
71
330
17
100
AcDbEntity
  8
C-SITE
100
AcDbLine
 10
4.860000000000002
 20
2.55
 30
0.0
 11
4.960000000000003
 21
2.55
 31
0.0
  0
LINE
  5
72
330
17
100
AcDbEntity
  8
C-SITE
100
AcDbLine
 10
5.040000000000003
 20
2.55
 30
0.0
 11
5.140000000000002
 21
2.55
 31
0.0
  0
LINE
  5
73
330
17
100
AcDbEntity
  8
C-SITE
100
AcDbLine
 10
5.220000000000002
 20
2.55
 30
0.0
 11
5.320000000000002
 21
2.55
 31
0.0
  0
LINE
  5
74
330
17
100
AcDbEntity
  8
C-SITE
100
AcDbLine
 10
5.400000000000002
 20
2.55
 30
0.0
 11
5.500000000000002
 21
2.55
 31
0.0
  0
LINE
  5
75
330
17
100
AcDbEntity
  8
C-SITE
100
AcDbLine
 10
5.580000000000002
 20
2.55
 30
0.0
 11
5.6800000000000015
 21
2.55
 31
0.0
  0
LINE
  5
76
330
17
100
AcDbEntity
  8
C-SITE
100
AcDbLine
 10
5.760000000000002
 20
2.55
 30
0.0
 11
5.860000000000001
 21
2.55
 31
0.0
  0
LINE
  5
77
330
17
100
AcDbEntity
  8
C-SITE
100
AcDbLine
 10
5.940000000000001
 20
2.55
 30
0.0
 11
6.040000000000001
 21
2.55
 31
0.0
  0
LINE
  5
78
330
17
100
AcDbEntity
  8
C-SITE
100
AcDbLine
 10
6.120000000000001
 20
2.55
 30
0.0
 11
6.220000000000001
 21
2.55
 31
0.0
  0
LINE
  5
79
330
17
100
AcDbEntity
  8
C-SITE
100
AcDbLine
 10
6.300000000000001
 20
2.55
 30
0.0
 11
6.4
 21
2.55
 31
0.0
  0
LINE
  5
7A
330
17
100
AcDbEntity
  8
C-SITE
100
AcDbLine
 10
6.48
 20
2.55
 30
0.0
 11
6.566666666666666
 21
2.55
 31
0.0
  0
HATCH
  5
7B
330
17
100
AcDbEntity
  8
C-SITE
 62
7
420
14342874
100
AcDbHatch
 10
0.0
 20
0.0
 30
0.0
210
0.0
220
0.0
230
1.0
  2
SOLID
 70
1
 71
0
 91
1
 92
3
 72
0
 73
1
 93
6
 10
1.2833333333333332
 20
2.75
 10
1.6166666666666667
 20
2.75
 10
1.6166666666666667
 20
9.883333333333333
 10
3.0166666666666666
 20
9.883333333333333
 10
3.0166666666666666
 20
10.149999999999999
 10
1.2833333333333332
 20
10.149999999999999
 97
0
 75
0
 76
1
 98
0
  0
LWPOLYLINE
  5
7C
330
17
100
AcDbEntity
  8
C-SITE
100
AcDbPolyline
 90
6
 70
1
 10
1.2833333333333332
 20
2.75
 10
1.6166666666666667
 20
2.75
 10
1.6166666666666667
 20
9.883333333333333
 10
3.0166666666666666
 20
9.883333333333333
 10
3.0166666666666666
 20
10.149999999999999
 10
1.2833333333333332
 20
10.149999999999999
  0
HATCH
  5
7D
330
17
100
AcDbEntity
  8
C-SITE
 62
7
420
14342874
100
AcDbHatch
 10
0.0
 20
0.0
 30
0.0
210
0.0
220
0.0
230
1.0
  2
SOLID
 70
1
 71
0
 91
1
 92
3
 72
0
 73
1
 93
4
 10
3.0166666666666666
 20
9.75
 10
3.5666666666666664
 20
9.75
 10
3.5666666666666664
 20
10.149999999999999
 10
3.0166666666666666
 20
10.149999999999999
 97
0
 75
0
 76
1
 98
0
  0
LWPOLYLINE
  5
7E
330
17
100
AcDbEntity
  8
C-SITE
100
AcDbPolyline
 90
4
 70
1
 10
3.0166666666666666
 20
9.75
 10
3.5666666666666664
 20
9.75
 10
3.5666666666666664
 20
10.149999999999999
 10
3.0166666666666666
 20
10.149999999999999
  0
HATCH
  5
7F
330
17
100
AcDbEntity
  8
C-SITE
 62
7
420
13619151
100
AcDbHatch
 10
0.0
 20
0.0
 30
0.0
210
0.0
220
0.0
230
1.0
  2
SOLID
 70
1
 71
0
 91
1
 92
3
 72
0
 73
1
 93
4
 10
4.616666666666667
 20
2.75
 10
4.816666666666666
 20
2.75
 10
4.816666666666666
 20
3.133333333333333
 10
4.616666666666667
 20
3.133333333333333
 97
0
 75
0
 76
1
 98
0
  0
LWPOLYLINE
  5
80
330
17
100
AcDbEntity
  8
C-SITE
100
AcDbPolyline
 90
4
 70
1
 10
4.616666666666667
 20
2.75
 10
4.816666666666666
 20
2.75
 10
4.816666666666666
 20
3.133333333333333
 10
4.616666666666667
 20
3.133333333333333
  0
HATCH
  5
81
330
17
100
AcDbEntity
  8
C-SITE
 62
7
420
13619151
100
AcDbHatch
 10
0.0
 20
0.0
 30
0.0
210
0.0
220
0.0
230
1.0
  2
SOLID
 70
1
 71
0
 91
1
 92
3
 72
0
 73
1
 93
4
 10
5.416666666666666
 20
2.75
 10
5.616666666666667
 20
2.75
 10
5.616666666666667
 20
3.133333333333333
 10
5.416666666666666
 20
3.133333333333333
 97
0
 75
0
 76
1
 98
0
  0
LWPOLYLINE
  5
82
330
17
100
AcDbEntity
  8
C-SITE
100
AcDbPolyline
 90
4
 70
1
 10
5.416666666666666
 20
2.75
 10
5.616666666666667
 20
2.75
 10
5.616666666666667
 20
3.133333333333333
 10
5.416666666666666
 20
3.133333333333333
  0
HATCH
  5
83
330
17
100
AcDbEntity
  8
C-SITE
 62
7
420
13619151
100
AcDbHatch
 10
0.0
 20
0.0
 30
0.0
210
0.0
220
0.0
230
1.0
  2
SOLID
 70
1
 71
0
 91
1
 92
3
 72
0
 73
1
 93
48
 10
5.683333333333334
 20
3.466666666666667
 10
5.678485421445159
 20
3.523228016628689
 10
5.664024634897139
 20
3.578821586211092
 10
5.640198401756395
 20
3.632496154024872
 10
5.607414395477848
 20
3.683333333333333
 10
5.566233559498366
 20
3.730463285903779
 10
5.517360509339044
 20
3.773079605180837
 10
5.461631476438274
 20
3.8104531141262017
 10
5.4
 20
3.8419443416399233
 10
5.333520611673551
 20
3.867014464088224
 10
5.263330792224762
 20
3.885234524725263
 10
5.190631508924696
 20
3.8962927732619845
 10
5.116666666666667
 20
3.9
 10
5.0427018244086375
 20
3.8962927732619845
 10
4.970002541108572
 20
3.885234524725263
 10
4.899812721659782
 20
3.867014464088224
 10
4.833333333333333
 20
3.8419443416399233
 10
4.771701856895058
 20
3.8104531141262017
 10
4.7159728239942895
 20
3.773079605180837
 10
4.667099773834966
 20
3.730463285903779
 10
4.625918937855484
 20
3.683333333333333
 10
4.593134931576937
 20
3.632496154024872
 10
4.569308698436195
 20
3.578821586211092
 10
4.554847911888174
 20
3.523228016628689
 10
4.55
 20
3.466666666666667
 10
4.554847911888174
 20
3.410105316704644
 10
4.569308698436195
 20
3.354511747122241
 10
4.593134931576937
 20
3.300837179308461
 10
4.625918937855484
 20
3.25
 10
4.667099773834966
 20
3.2028700474295544
 10
4.715972823994289
 20
3.160253728152496
 10
4.771701856895058
 20
3.1228802192071314
 10
4.833333333333333
 20
3.09138899169341
 10
4.899812721659782
 20
3.0663188692451087
 10
4.970002541108572
 20
3.0480988086080703
 10
5.0427018244086375
 20
3.0370405600713486
 10
5.116666666666667
 20
3.033333333333333
 10
5.190631508924696
 20
3.0370405600713486
 10
5.263330792224761
 20
3.0480988086080703
 10
5.333520611673551
 20
3.0663188692451087
 10
5.4
 20
3.09138899169341
 10
5.461631476438274
 20
3.122880219207131
 10
5.517360509339044
 20
3.1602537281524956
 10
5.566233559498366
 20
3.2028700474295544
 10
5.607414395477848
 20
3.2499999999999996
 10
5.640198401756395
 20
3.300837179308461
 10
5.664024634897139
 20
3.3545117471222405
 10
5.678485421445159
 20
3.410105316704644
 97
0
 75
0
 76
1
 98
0
  0
LWPOLYLINE
  5
84
330
17
100
AcDbEntity
  8
C-SITE
100
AcDbPolyline
 90
48
 70
1
 10
5.683333333333334
 20
3.466666666666667
 10
5.678485421445159
 20
3.523228016628689
 10
5.664024634897139
 20
3.578821586211092
 10
5.640198401756395
 20
3.632496154024872
 10
5.607414395477848
 20
3.683333333333333
 10
5.566233559498366
 20
3.730463285903779
 10
5.517360509339044
 20
3.773079605180837
 10
5.461631476438274
 20
3.8104531141262017
 10
5.4
 20
3.8419443416399233
 10
5.333520611673551
 20
3.867014464088224
 10
5.263330792224762
 20
3.885234524725263
 10
5.190631508924696
 20
3.8962927732619845
 10
5.116666666666667
 20
3.9
 10
5.0427018244086375
 20
3.8962927732619845
 10
4.970002541108572
 20
3.885234524725263
 10
4.899812721659782
 20
3.867014464088224
 10
4.833333333333333
 20
3.8419443416399233
 10
4.771701856895058
 20
3.8104531141262017
 10
4.7159728239942895
 20
3.773079605180837
 10
4.667099773834966
 20
3.730463285903779
 10
4.625918937855484
 20
3.683333333333333
 10
4.593134931576937
 20
3.632496154024872
 10
4.569308698436195
 20
3.578821586211092
 10
4.554847911888174
 20
3.523228016628689
 10
4.55
 20
3.466666666666667
 10
4.554847911888174
 20
3.410105316704644
 10
4.569308698436195
 20
3.354511747122241
 10
4.593134931576937
 20
3.300837179308461
 10
4.625918937855484
 20
3.25
 10
4.667099773834966
 20
3.2028700474295544
 10
4.715972823994289
 20
3.160253728152496
 10
4.771701856895058
 20
3.1228802192071314
 10
4.833333333333333
 20
3.09138899169341
 10
4.899812721659782
 20
3.0663188692451087
 10
4.970002541108572
 20
3.0480988086080703
 10
5.0427018244086375
 20
3.0370405600713486
 10
5.116666666666667
 20
3.033333333333333
 10
5.190631508924696
 20
3.0370405600713486
 10
5.263330792224761
 20
3.0480988086080703
 10
5.333520611673551
 20
3.0663188692451087
 10
5.4
 20
3.09138899169341
 10
5.461631476438274
 20
3.122880219207131
 10
5.517360509339044
 20
3.1602537281524956
 10
5.566233559498366
 20
3.2028700474295544
 10
5.607414395477848
 20
3.2499999999999996
 10
5.640198401756395
 20
3.300837179308461
 10
5.664024634897139
 20
3.3545117471222405
 10
5.678485421445159
 20
3.410105316704644
  0
HATCH
  5
85
330
17
100
AcDbEntity
  8
C-SITE
 62
7
420
16777215
100
AcDbHatch
 10
0.0
 20
0.0
 30
0.0
210
0.0
220
0.0
230
1.0
  2
SOLID
 70
1
 71
0
 91
1
 92
3
 72
0
 73
1
 93
48
 10
5.483333333333333
 20
3.466666666666667
 10
5.480196449170396
 20
3.4971227781846785
 10
5.4708394696393245
 20
3.527057777190588
 10
5.455422495254139
 20
3.5559594675518538
 10
5.434209314720961
 20
3.583333333333333
 10
5.407562891440119
 20
3.608711000102035
 10
5.375939153101735
 20
3.6316582489435274
 10
5.33987919063653
 20
3.651782446067955
 10
5.3
 20
3.6687392608830356
 10
5.256983925200533
 20
3.6822385575859666
 10
5.211566983204257
 20
3.692049359467449
 10
5.164526270480685
 20
3.6980038009872223
 10
5.116666666666667
 20
3.6999999999999997
 10
5.068807062852648
 20
3.6980038009872223
 10
5.0217663501290755
 20
3.692049359467449
 10
4.9763494081328
 20
3.6822385575859666
 10
4.933333333333334
 20
3.6687392608830356
 10
4.893454142696802
 20
3.651782446067955
 10
4.857394180231599
 20
3.6316582489435274
 10
4.825770441893214
 20
3.608711000102035
 10
4.799124018612372
 20
3.583333333333333
 10
4.777910838079195
 20
3.555959467551854
 10
4.762493863694008
 20
3.527057777190588
 10
4.753136884162936
 20
3.4971227781846785
 10
4.75
 20
3.466666666666667
 10
4.753136884162936
 20
3.436210555148654
 10
4.762493863694008
 20
3.406275556142745
 10
4.777910838079195
 20
3.377373865781479
 10
4.799124018612372
 20
3.3499999999999996
 10
4.825770441893214
 20
3.3246223332312983
 10
4.857394180231599
 20
3.3016750843898057
 10
4.893454142696802
 20
3.2815508872653782
 10
4.933333333333334
 20
3.264594072450298
 10
4.9763494081328
 20
3.251094775747366
 10
5.0217663501290755
 20
3.241283973865884
 10
5.068807062852647
 20
3.2353295323461104
 10
5.116666666666667
 20
3.2333333333333334
 10
5.164526270480685
 20
3.2353295323461104
 10
5.211566983204257
 20
3.241283973865884
 10
5.256983925200533
 20
3.251094775747366
 10
5.3
 20
3.264594072450297
 10
5.33987919063653
 20
3.2815508872653782
 10
5.375939153101734
 20
3.3016750843898057
 10
5.407562891440119
 20
3.3246223332312983
 10
5.4342093147209605
 20
3.3499999999999996
 10
5.455422495254139
 20
3.377373865781479
 10
5.4708394696393245
 20
3.4062755561427447
 10
5.480196449170396
 20
3.436210555148654
 97
0
 75
0
 76
1
 98
0
  0
LWPOLYLINE
  5
86
330
17
100
AcDbEntity
  8
C-SITE
100
AcDbPolyline
 90
48
 70
1
 10
5.483333333333333
 20
3.466666666666667
 10
5.480196449170396
 20
3.4971227781846785
 10
5.4708394696393245
 20
3.527057777190588
 10
5.455422495254139
 20
3.5559594675518538
 10
5.434209314720961
 20
3.583333333333333
 10
5.407562891440119
 20
3.608711000102035
 10
5.375939153101735
 20
3.6316582489435274
 10
5.33987919063653
 20
3.651782446067955
 10
5.3
 20
3.6687392608830356
 10
5.256983925200533
 20
3.6822385575859666
 10
5.211566983204257
 20
3.692049359467449
 10
5.164526270480685
 20
3.6980038009872223
 10
5.116666666666667
 20
3.6999999999999997
 10
5.068807062852648
 20
3.6980038009872223
 10
5.0217663501290755
 20
3.692049359467449
 10
4.9763494081328
 20
3.6822385575859666
 10
4.933333333333334
 20
3.6687392608830356
 10
4.893454142696802
 20
3.651782446067955
 10
4.857394180231599
 20
3.6316582489435274
 10
4.825770441893214
 20
3.608711000102035
 10
4.799124018612372
 20
3.583333333333333
 10
4.777910838079195
 20
3.555959467551854
 10
4.762493863694008
 20
3.527057777190588
 10
4.753136884162936
 20
3.4971227781846785
 10
4.75
 20
3.466666666666667
 10
4.753136884162936
 20
3.436210555148654
 10
4.762493863694008
 20
3.406275556142745
 10
4.777910838079195
 20
3.377373865781479
 10
4.799124018612372
 20
3.3499999999999996
 10
4.825770441893214
 20
3.3246223332312983
 10
4.857394180231599
 20
3.3016750843898057
 10
4.893454142696802
 20
3.2815508872653782
 10
4.933333333333334
 20
3.264594072450298
 10
4.9763494081328
 20
3.251094775747366
 10
5.0217663501290755
 20
3.241283973865884
 10
5.068807062852647
 20
3.2353295323461104
 10
5.116666666666667
 20
3.2333333333333334
 10
5.164526270480685
 20
3.2353295323461104
 10
5.211566983204257
 20
3.241283973865884
 10
5.256983925200533
 20
3.251094775747366
 10
5.3
 20
3.264594072450297
 10
5.33987919063653
 20
3.2815508872653782
 10
5.375939153101734
 20
3.3016750843898057
 10
5.407562891440119
 20
3.3246223332312983
 10
5.4342093147209605
 20
3.3499999999999996
 10
5.455422495254139
 20
3.377373865781479
 10
5.4708394696393245
 20
3.4062755561427447
 10
5.480196449170396
 20
3.436210555148654
  0
LINE
  5
87
330
17
100
AcDbEntity
  8
C-SITE
100
AcDbLine
 10
4.483333333333333
 20
3.925
 30
0.0
 11
4.983333333333333
 21
3.925
 31
0.0
  0
LINE
  5
88
330
17
100
AcDbEntity
  8
C-SITE
100
AcDbLine
 10
4.483333333333333
 20
3.933333333333333
 30
0.0
 11
4.4760586338085915
 21
3.982801290101576
 31
0.0
  0
LINE
  5
89
330
17
100
AcDbEntity
  8
C-SITE
100
AcDbLine
 10
4.470966344141273
 20
4.017428859839345
 30
0.0
 11
4.463691644616532
 21
4.0668968166075885
 31
0.0
  0
LINE
  5
8A
330
17
100
AcDbEntity
  8
C-SITE
100
AcDbLine
 10
4.458599354949212
 20
4.101524386345358
 30
0.0
 11
4.451324655424471
 21
4.150992343113601
 31
0.0
  0
LINE
  5
8B
330
17
100
AcDbEntity
  8
C-SITE
100
AcDbLine
 10
4.446232365757152
 20
4.1856199128513705
 30
0.0
 11
4.43895766623241
 21
4.235087869619614
 31
0.0
  0
LINE
  5
8C
330
17
100
AcDbEntity
  8
C-SITE
100
AcDbLine
 10
4.433865376565091
 20
4.269715439357383
 30
0.0
 11
4.426590677040349
 21
4.319183396125625
 31
0.0
  0
LINE
  5
8D
330
17
100
AcDbEntity
  8
C-SITE
100
AcDbLine
 10
4.42149838737303
 20
4.353810965863396
 30
0.0
 11
4.414223687848288
 21
4.403278922631638
 31
0.0
  0
LINE
  5
8E
330
17
100
AcDbEntity
  8
C-SITE
100
AcDbLine
 10
4.409131398180969
 20
4.437906492369408
 30
0.0
 11
4.401856698656228
 21
4.487374449137651
 31
0.0
  0
LINE
  5
8F
330
17
100
AcDbEntity
  8
A-AREA-OPEN
100
AcDbLine
 10
3.8
 20
2.783333333333333
 30
0.0
 11
3.86
 21
2.783333333333333
 31
0.0
  0
LINE
  5
90
330
17
100
AcDbEntity
  8
A-AREA-OPEN
100
AcDbLine
 10
3.9
 20
2.783333333333333
 30
0.0
 11
3.96
 21
2.783333333333333
 31
0.0
  0
LINE
  5
91
330
17
100
AcDbEntity
  8
A-AREA-OPEN
100
AcDbLine
 10
4.0
 20
2.783333333333333
 30
0.0
 11
4.06
 21
2.783333333333333
 31
0.0
  0
LINE
  5
92
330
17
100
AcDbEntity
  8
A-AREA-OPEN
100
AcDbLine
 10
4.1
 20
2.783333333333333
 30
0.0
 11
4.16
 21
2.783333333333333
 31
0.0
  0
LINE
  5
93
330
17
100
AcDbEntity
  8
A-AREA-OPEN
100
AcDbLine
 10
4.2
 20
2.783333333333333
 30
0.0
 11
4.26
 21
2.783333333333333
 31
0.0
  0
LINE
  5
94
330
17
100
AcDbEntity
  8
A-AREA-OPEN
100
AcDbLine
 10
4.266666666666667
 20
2.783333333333333
 30
0.0
 11
4.266666666666667
 21
2.8433333333333333
 31
0.0
  0
LINE
  5
95
330
17
100
AcDbEntity
  8
A-AREA-OPEN
100
AcDbLine
 10
4.266666666666667
 20
2.8833333333333333
 30
0.0
 11
4.266666666666667
 21
2.9433333333333334
 31
0.0
  0
LINE
  5
96
330
17
100
AcDbEntity
  8
A-AREA-OPEN
100
AcDbLine
 10
4.266666666666667
 20
2.9833333333333334
 30
0.0
 11
4.266666666666667
 21
3.043333333333333
 31
0.0
  0
LINE
  5
97
330
17
100
AcDbEntity
  8
A-AREA-OPEN
100
AcDbLine
 10
4.266666666666667
 20
3.083333333333333
 30
0.0
 11
4.266666666666667
 21
3.143333333333333
 31
0.0
  0
LINE
  5
98
330
17
100
AcDbEntity
  8
A-AREA-OPEN
100
AcDbLine
 10
4.266666666666667
 20
3.183333333333333
 30
0.0
 11
4.266666666666667
 21
3.243333333333333
 31
0.0
  0
LINE
  5
99
330
17
100
AcDbEntity
  8
A-AREA-OPEN
100
AcDbLine
 10
4.266666666666667
 20
3.283333333333333
 30
0.0
 11
4.266666666666667
 21
3.3433333333333333
 31
0.0
  0
LINE
  5
9A
330
17
100
AcDbEntity
  8
A-AREA-OPEN
100
AcDbLine
 10
4.266666666666667
 20
3.3833333333333333
 30
0.0
 11
4.266666666666667
 21
3.4433333333333334
 31
0.0
  0
LINE
  5
9B
330
17
100
AcDbEntity
  8
A-AREA-OPEN
100
AcDbLine
 10
4.266666666666667
 20
3.4833333333333334
 30
0.0
 11
4.266666666666667
 21
3.543333333333333
 31
0.0
  0
LINE
  5
9C
330
17
100
AcDbEntity
  8
A-AREA-OPEN
100
AcDbLine
 10
4.266666666666667
 20
3.583333333333333
 30
0.0
 11
4.266666666666667
 21
3.6433333333333335
 31
0.0
  0
LINE
  5
9D
330
17
100
AcDbEntity
  8
A-AREA-OPEN
100
AcDbLine
 10
4.266666666666667
 20
3.6833333333333336
 30
0.0
 11
4.266666666666667
 21
3.743333333333333
 31
0.0
  0
LINE
  5
9E
330
17
100
AcDbEntity
  8
A-AREA-OPEN
100
AcDbLine
 10
4.266666666666667
 20
3.783333333333333
 30
0.0
 11
4.266666666666667
 21
3.8433333333333337
 31
0.0
  0
LINE
  5
9F
330
17
100
AcDbEntity
  8
A-AREA-OPEN
100
AcDbLine
 10
4.266666666666667
 20
3.8833333333333337
 30
0.0
 11
4.266666666666667
 21
3.9433333333333334
 31
0.0
  0
LINE
  5
A0
330
17
100
AcDbEntity
  8
A-AREA-OPEN
100
AcDbLine
 10
4.266666666666667
 20
3.9833333333333334
 30
0.0
 11
4.266666666666667
 21
4.043333333333334
 31
0.0
  0
LINE
  5
A1
330
17
100
AcDbEntity
  8
A-AREA-OPEN
100
AcDbLine
 10
4.266666666666667
 20
4.083333333333334
 30
0.0
 11
4.266666666666667
 21
4.1433333333333335
 31
0.0
  0
LINE
  5
A2
330
17
100
AcDbEntity
  8
A-AREA-OPEN
100
AcDbLine
 10
4.266666666666667
 20
4.183333333333334
 30
0.0
 11
4.266666666666667
 21
4.243333333333334
 31
0.0
  0
LINE
  5
A3
330
17
100
AcDbEntity
  8
A-AREA-OPEN
100
AcDbLine
 10
4.266666666666667
 20
4.283333333333334
 30
0.0
 11
4.266666666666667
 21
4.343333333333334
 31
0.0
  0
LINE
  5
A4
330
17
100
AcDbEntity
  8
A-AREA-OPEN
100
AcDbLine
 10
4.266666666666667
 20
4.383333333333334
 30
0.0
 11
4.266666666666667
 21
4.443333333333334
 31
0.0
  0
LINE
  5
A5
330
17
100
AcDbEntity
  8
A-AREA-OPEN
100
AcDbLine
 10
4.266666666666667
 20
4.45
 30
0.0
 11
4.206666666666667
 21
4.45
 31
0.0
  0
LINE
  5
A6
330
17
100
AcDbEntity
  8
A-AREA-OPEN
100
AcDbLine
 10
4.166666666666667
 20
4.45
 30
0.0
 11
4.1066666666666665
 21
4.45
 31
0.0
  0
LINE
  5
A7
330
17
100
AcDbEntity
  8
A-AREA-OPEN
100
AcDbLine
 10
4.066666666666666
 20
4.45
 30
0.0
 11
4.006666666666667
 21
4.45
 31
0.0
  0
LINE
  5
A8
330
17
100
AcDbEntity
  8
A-AREA-OPEN
100
AcDbLine
 10
3.966666666666667
 20
4.45
 30
0.0
 11
3.9066666666666667
 21
4.45
 31
0.0
  0
LINE
  5
A9
330
17
100
AcDbEntity
  8
A-AREA-OPEN
100
AcDbLine
 10
3.8666666666666667
 20
4.45
 30
0.0
 11
3.8066666666666666
 21
4.45
 31
0.0
  0
LINE
  5
AA
330
17
100
AcDbEntity
  8
A-AREA-OPEN
100
AcDbLine
 10
3.8
 20
4.45
 30
0.0
 11
3.8
 21
4.390000000000001
 31
0.0
  0
LINE
  5
AB
330
17
100
AcDbEntity
  8
A-AREA-OPEN
100
AcDbLine
 10
3.8
 20
4.3500000000000005
 30
0.0
 11
3.8
 21
4.29
 31
0.0
  0
LINE
  5
AC
330
17
100
AcDbEntity
  8
A-AREA-OPEN
100
AcDbLine
 10
3.8
 20
4.25
 30
0.0
 11
3.8
 21
4.19
 31
0.0
  0
LINE
  5
AD
330
17
100
AcDbEntity
  8
A-AREA-OPEN
100
AcDbLine
 10
3.8
 20
4.15
 30
0.0
 11
3.8
 21
4.09
 31
0.0
  0
LINE
  5
AE
330
17
100
AcDbEntity
  8
A-AREA-OPEN
100
AcDbLine
 10
3.8
 20
4.05
 30
0.0
 11
3.8
 21
3.99
 31
0.0
  0
LINE
  5
AF
330
17
100
AcDbEntity
  8
A-AREA-OPEN
100
AcDbLine
 10
3.8
 20
3.95
 30
0.0
 11
3.8
 21
3.89
 31
0.0
  0
LINE
  5
B0
330
17
100
AcDbEntity
  8
A-AREA-OPEN
100
AcDbLine
 10
3.8
 20
3.85
 30
0.0
 11
3.8
 21
3.79
 31
0.0
  0
LINE
  5
B1
330
17
100
AcDbEntity
  8
A-AREA-OPEN
100
AcDbLine
 10
3.8
 20
3.75
 30
0.0
 11
3.8
 21
3.6900000000000004
 31
0.0
  0
LINE
  5
B2
330
17
100
AcDbEntity
  8
A-AREA-OPEN
100
AcDbLine
 10
3.8
 20
3.6500000000000004
 30
0.0
 11
3.8
 21
3.59
 31
0.0
  0
LINE
  5
B3
330
17
100
AcDbEntity
  8
A-AREA-OPEN
100
AcDbLine
 10
3.8
 20
3.55
 30
0.0
 11
3.8
 21
3.49
 31
0.0
  0
LINE
  5
B4
330
17
100
AcDbEntity
  8
A-AREA-OPEN
100
AcDbLine
 10
3.8
 20
3.45
 30
0.0
 11
3.8
 21
3.3899999999999997
 31
0.0
  0
LINE
  5
B5
330
17
100
AcDbEntity
  8
A-AREA-OPEN
100
AcDbLine
 10
3.8
 20
3.3499999999999996
 30
0.0
 11
3.8
 21
3.29
 31
0.0
  0
LINE
  5
B6
330
17
100
AcDbEntity
  8
A-AREA-OPEN
100
AcDbLine
 10
3.8
 20
3.25
 30
0.0
 11
3.8
 21
3.1899999999999995
 31
0.0
  0
LINE
  5
B7
330
17
100
AcDbEntity
  8
A-AREA-OPEN
100
AcDbLine
 10
3.8
 20
3.1499999999999995
 30
0.0
 11
3.8
 21
3.09
 31
0.0
  0
LINE
  5
B8
330
17
100
AcDbEntity
  8
A-AREA-OPEN
100
AcDbLine
 10
3.8
 20
3.05
 30
0.0
 11
3.8
 21
2.9899999999999993
 31
0.0
  0
LINE
  5
B9
330
17
100
AcDbEntity
  8
A-AREA-OPEN
100
AcDbLine
 10
3.8
 20
2.9499999999999993
 30
0.0
 11
3.8
 21
2.8899999999999997
 31
0.0
  0
LINE
  5
BA
330
17
100
AcDbEntity
  8
A-AREA-OPEN
100
AcDbLine
 10
3.8
 20
2.8499999999999996
 30
0.0
 11
3.8
 21
2.789999999999999
 31
0.0
  0
HATCH
  5
BB
330
17
100
AcDbEntity
  8
A-WALL
 62
7
420
15722974
100
AcDbHatch
 10
0.0
 20
0.0
 30
0.0
210
0.0
220
0.0
230
1.0
  2
SOLID
 70
1
 71
0
 91
1
 92
3
 72
0
 73
1
 93
4
 10
2.15
 20
5.05
 10
5.65
 20
5.05
 10
5.65
 20
9.25
 10
2.15
 20
9.25
 97
0
 75
0
 76
1
 98
0
  0
LWPOLYLINE
  5
BC
330
17
100
AcDbEntity
  8
A-WALL
100
AcDbPolyline
 90
4
 70
1
 10
2.15
 20
5.05
 10
5.65
 20
5.05
 10
5.65
 20
9.25
 10
2.15
 20
9.25
  0
HATCH
  5
BD
330
17
100
AcDbEntity
  8
A-WALL
 62
7
420
15722974
100
AcDbHatch
 10
0.0
 20
0.0
 30
0.0
210
0.0
220
0.0
230
1.0
  2
SOLID
 70
1
 71
0
 91
1
 92
3
 72
0
 73
1
 93
4
 10
5.248616666666667
 20
9.25
 10
5.65
 20
9.25
 10
5.65
 20
9.361116666666666
 10
5.248616666666667
 20
9.361116666666666
 97
0
 75
0
 76
1
 98
0
  0
LWPOLYLINE
  5
BE
330
17
100
AcDbEntity
  8
A-WALL
100
AcDbPolyline
 90
4
 70
1
 10
5.248616666666667
 20
9.25
 10
5.65
 20
9.25
 10
5.65
 20
9.361116666666666
 10
5.248616666666667
 20
9.361116666666666
  0
HATCH
  5
BF
330
17
100
AcDbEntity
  8
C-SITE
 62
7
420
15127464
100
AcDbHatch
 10
0.0
 20
0.0
 30
0.0
210
0.0
220
0.0
230
1.0
  2
SOLID
 70
1
 71
0
 91
1
 92
3
 72
0
 73
1
 93
4
 10
3.083333333333333
 20
6.183333333333334
 10
5.083333333333333
 20
6.183333333333334
 10
5.083333333333333
 20
8.583333333333332
 10
3.083333333333333
 20
8.583333333333332
 97
0
 75
0
 76
1
 98
0
  0
LWPOLYLINE
  5
C0
330
17
100
AcDbEntity
  8
C-SITE
100
AcDbPolyline
 90
4
 70
1
 10
3.083333333333333
 20
6.183333333333334
 10
5.083333333333333
 20
6.183333333333334
 10
5.083333333333333
 20
8.583333333333332
 10
3.083333333333333
 20
8.583333333333332
  0
HATCH
  5
C1
330
17
100
AcDbEntity
  8
A-WALL
 62
7
420
15722974
100
AcDbHatch
 10
0.0
 20
0.0
 30
0.0
210
0.0
220
0.0
230
1.0
  2
SOLID
 70
1
 71
0
 91
1
 92
3
 72
0
 73
1
 93
4
 10
3.0166666666666666
 20
9.25
 10
4.183333333333334
 20
9.25
 10
4.183333333333334
 20
9.75
 10
3.0166666666666666
 20
9.75
 97
0
 75
0
 76
1
 98
0
  0
LWPOLYLINE
  5
C2
330
17
100
AcDbEntity
  8
A-WALL
100
AcDbPolyline
 90
4
 70
1
 10
3.0166666666666666
 20
9.25
 10
4.183333333333334
 20
9.25
 10
4.183333333333334
 20
9.75
 10
3.0166666666666666
 20
9.75
  0
HATCH
  5
C3
330
17
100
AcDbEntity
  8
A-FLOR-STRS
 62
7
420
9211020
100
AcDbHatch
 10
0.0
 20
0.0
 30
0.0
210
0.0
220
0.0
230
1.0
  2
SOLID
 70
1
 71
0
 91
1
 92
3
 72
0
 73
1
 93
4
 10
2.75555
 20
8.848616666666667
 10
2.966666666666667
 20
8.848616666666667
 10
2.966666666666667
 20
9.25
 10
2.75555
 20
9.25
 97
0
 75
0
 76
1
 98
0
  0
LWPOLYLINE
  5
C4
330
17
100
AcDbEntity
  8
A-FLOR-STRS
100
AcDbPolyline
 90
4
 70
1
 10
2.75555
 20
8.848616666666667
 10
2.966666666666667
 20
8.848616666666667
 10
2.966666666666667
 20
9.25
 10
2.75555
 20
9.25
  0
HATCH
  5
C5
330
17
100
AcDbEntity
  8
A-FLOR-STRS
 62
7
420
9211020
100
AcDbHatch
 10
0.0
 20
0.0
 30
0.0
210
0.0
220
0.0
230
1.0
  2
SOLID
 70
1
 71
0
 91
1
 92
3
 72
0
 73
1
 93
4
 10
5.248616666666667
 20
9.149999999999999
 10
5.65
 20
9.149999999999999
 10
5.65
 20
9.361116666666666
 10
5.248616666666667
 20
9.361116666666666
 97
0
 75
0
 76
1
 98
0
  0
LWPOLYLINE
  5
C6
330
17
100
AcDbEntity
  8
A-FLOR-STRS
100
AcDbPolyline
 90
4
 70
1
 10
5.248616666666667
 20
9.149999999999999
 10
5.65
 20
9.149999999999999
 10
5.65
 20
9.361116666666666
 10
5.248616666666667
 20
9.361116666666666
  0
HATCH
  5
C7
330
17
100
AcDbEntity
  8
A-FLOR-STRS
 62
7
420
9211020
100
AcDbHatch
 10
0.0
 20
0.0
 30
0.0
210
0.0
220
0.0
230
1.0
  2
SOLID
 70
1
 71
0
 91
1
 92
3
 72
0
 73
1
 93
4
 10
5.248616666666667
 20
5.05
 10
5.65
 20
5.05
 10
5.65
 20
5.261116666666666
 10
5.248616666666667
 20
5.261116666666666
 97
0
 75
0
 76
1
 98
0
  0
LWPOLYLINE
  5
C8
330
17
100
AcDbEntity
  8
A-FLOR-STRS
100
AcDbPolyline
 90
4
 70
1
 10
5.248616666666667
 20
5.05
 10
5.65
 20
5.05
 10
5.65
 20
5.261116666666666
 10
5.248616666666667
 20
5.261116666666666
  0
HATCH
  5
C9
330
17
100
AcDbEntity
  8
A-FLOR-STRS
 62
7
420
9211020
100
AcDbHatch
 10
0.0
 20
0.0
 30
0.0
210
0.0
220
0.0
230
1.0
  2
SOLID
 70
1
 71
0
 91
1
 92
3
 72
0
 73
1
 93
4
 10
2.15
 20
5.05
 10
2.3611166666666668
 20
5.05
 10
2.3611166666666668
 20
5.451383333333333
 10
2.15
 20
5.451383333333333
 97
0
 75
0
 76
1
 98
0
  0
LWPOLYLINE
  5
CA
330
17
100
AcDbEntity
  8
A-FLOR-STRS
100
AcDbPolyline
 90
4
 70
1
 10
2.15
 20
5.05
 10
2.3611166666666668
 20
5.05
 10
2.3611166666666668
 20
5.451383333333333
 10
2.15
 20
5.451383333333333
  0
HATCH
  5
CB
330
17
100
AcDbEntity
  8
C-SITE
 62
7
420
14268314
100
AcDbHatch
 10
0.0
 20
0.0
 30
0.0
210
0.0
220
0.0
230
1.0
  2
SOLID
 70
1
 71
0
 91
1
 92
3
 72
0
 73
1
 93
10
 10
3.7
 20
5.05
 10
3.8
 20
5.05
 10
3.8
 20
4.55
 10
3.6666666666666665
 20
4.55
 10
3.6666666666666665
 20
4.45
 10
3.8
 20
4.45
 10
3.8
 20
4.35
 10
3.5666666666666664
 20
4.35
 10
3.5666666666666664
 20
4.6499999999999995
 10
3.7
 20
4.6499999999999995
 97
0
 75
0
 76
1
 98
0
  0
LWPOLYLINE
  5
CC
330
17
100
AcDbEntity
  8
C-SITE
100
AcDbPolyline
 90
10
 70
1
 10
3.7
 20
5.05
 10
3.8
 20
5.05
 10
3.8
 20
4.55
 10
3.6666666666666665
 20
4.55
 10
3.6666666666666665
 20
4.45
 10
3.8
 20
4.45
 10
3.8
 20
4.35
 10
3.5666666666666664
 20
4.35
 10
3.5666666666666664
 20
4.6499999999999995
 10
3.7
 20
4.6499999999999995
  0
HATCH
  5
CD
330
17
100
AcDbEntity
  8
C-SITE
 62
7
420
14268314
100
AcDbHatch
 10
0.0
 20
0.0
 30
0.0
210
0.0
220
0.0
230
1.0
  2
SOLID
 70
1
 71
0
 91
1
 92
3
 72
0
 73
1
 93
10
 10
4.366666666666667
 20
5.05
 10
4.266666666666667
 20
5.05
 10
4.266666666666667
 20
4.55
 10
4.4
 20
4.55
 10
4.4
 20
4.45
 10
4.266666666666667
 20
4.45
 10
4.266666666666667
 20
4.35
 10
4.5
 20
4.35
 10
4.5
 20
4.6499999999999995
 10
4.366666666666667
 20
4.6499999999999995
 97
0
 75
0
 76
1
 98
0
  0
LWPOLYLINE
  5
CE
330
17
100
AcDbEntity
  8
C-SITE
100
AcDbPolyline
 90
10
 70
1
 10
4.366666666666667
 20
5.05
 10
4.266666666666667
 20
5.05
 10
4.266666666666667
 20
4.55
 10
4.4
 20
4.55
 10
4.4
 20
4.45
 10
4.266666666666667
 20
4.45
 10
4.266666666666667
 20
4.35
 10
4.5
 20
4.35
 10
4.5
 20
4.6499999999999995
 10
4.366666666666667
 20
4.6499999999999995
  0
HATCH
  5
CF
330
17
100
AcDbEntity
  8
C-SITE
 62
7
420
11887946
100
AcDbHatch
 10
0.0
 20
0.0
 30
0.0
210
0.0
220
0.0
230
1.0
  2
SOLID
 70
1
 71
0
 91
1
 92
3
 72
0
 73
1
 93
4
 10
3.8
 20
4.55
 10
4.266666666666667
 20
4.55
 10
4.266666666666667
 20
5.05
 10
3.8
 20
5.05
 97
0
 75
0
 76
1
 98
0
  0
LWPOLYLINE
  5
D0
330
17
100
AcDbEntity
  8
C-SITE
100
AcDbPolyline
 90
4
 70
1
 10
3.8
 20
4.55
 10
4.266666666666667
 20
4.55
 10
4.266666666666667
 20
5.05
 10
3.8
 20
5.05
  0
HATCH
  5
D1
330
17
100
AcDbEntity
  8
C-SITE
 62
7
420
11887946
100
AcDbHatch
 10
0.0
 20
0.0
 30
0.0
210
0.0
220
0.0
230
1.0
  2
SOLID
 70
1
 71
0
 91
1
 92
3
 72
0
 73
1
 93
4
 10
3.8
 20
4.45
 10
4.266666666666667
 20
4.45
 10
4.266666666666667
 20
4.55
 10
3.8
 20
4.55
 97
0
 75
0
 76
1
 98
0
  0
LWPOLYLINE
  5
D2
330
17
100
AcDbEntity
  8
C-SITE
100
AcDbPolyline
 90
4
 70
1
 10
3.8
 20
4.45
 10
4.266666666666667
 20
4.45
 10
4.266666666666667
 20
4.55
 10
3.8
 20
4.55
  0
HATCH
  5
D3
330
17
100
AcDbEntity
  8
C-SITE
 62
7
420
14208960
100
AcDbHatch
 10
0.0
 20
0.0
 30
0.0
210
0.0
220
0.0
230
1.0
  2
SOLID
 70
1
 71
0
 91
1
 92
3
 72
0
 73
1
 93
4
 10
3.6666666666666665
 20
4.45
 10
3.8
 20
4.45
 10
3.8
 20
4.55
 10
3.6666666666666665
 20
4.55
 97
0
 75
0
 76
1
 98
0
  0
LWPOLYLINE
  5
D4
330
17
100
AcDbEntity
  8
C-SITE
100
AcDbPolyline
 90
4
 70
1
 10
3.6666666666666665
 20
4.45
 10
3.8
 20
4.45
 10
3.8
 20
4.55
 10
3.6666666666666665
 20
4.55
  0
HATCH
  5
D5
330
17
100
AcDbEntity
  8
C-SITE
 62
7
420
14208960
100
AcDbHatch
 10
0.0
 20
0.0
 30
0.0
210
0.0
220
0.0
230
1.0
  2
SOLID
 70
1
 71
0
 91
1
 92
3
 72
0
 73
1
 93
4
 10
4.266666666666667
 20
4.45
 10
4.4
 20
4.45
 10
4.4
 20
4.55
 10
4.266666666666667
 20
4.55
 97
0
 75
0
 76
1
 98
0
  0
LWPOLYLINE
  5
D6
330
17
100
AcDbEntity
  8
C-SITE
100
AcDbPolyline
 90
4
 70
1
 10
4.266666666666667
 20
4.45
 10
4.4
 20
4.45
 10
4.4
 20
4.55
 10
4.266666666666667
 20
4.55
  0
LINE
  5
D7
330
17
100
AcDbEntity
  8
A-AREA-OPEN
100
AcDbLine
 10
3.8
 20
4.5
 30
0.0
 11
3.84
 21
4.5
 31
0.0
  0
LINE
  5
D8
330
17
100
AcDbEntity
  8
A-AREA-OPEN
100
AcDbLine
 10
3.8699999999999997
 20
4.5
 30
0.0
 11
3.9099999999999997
 21
4.5
 31
0.0
  0
LINE
  5
D9
330
17
100
AcDbEntity
  8
A-AREA-OPEN
100
AcDbLine
 10
3.94
 20
4.5
 30
0.0
 11
3.98
 21
4.5
 31
0.0
  0
LINE
  5
DA
330
17
100
AcDbEntity
  8
A-AREA-OPEN
100
AcDbLine
 10
4.01
 20
4.5
 30
0.0
 11
4.05
 21
4.5
 31
0.0
  0
LINE
  5
DB
330
17
100
AcDbEntity
  8
A-AREA-OPEN
100
AcDbLine
 10
4.08
 20
4.5
 30
0.0
 11
4.12
 21
4.5
 31
0.0
  0
LINE
  5
DC
330
17
100
AcDbEntity
  8
A-AREA-OPEN
100
AcDbLine
 10
4.1499999999999995
 20
4.5
 30
0.0
 11
4.1899999999999995
 21
4.5
 31
0.0
  0
LINE
  5
DD
330
17
100
AcDbEntity
  8
A-AREA-OPEN
100
AcDbLine
 10
4.22
 20
4.5
 30
0.0
 11
4.26
 21
4.5
 31
0.0
  0
HATCH
  5
DE
330
17
100
AcDbEntity
  8
C-SITE
 62
7
420
13369344
100
AcDbHatch
 10
0.0
 20
0.0
 30
0.0
210
0.0
220
0.0
230
1.0
  2
SOLID
 70
1
 71
0
 91
1
 92
3
 72
0
 73
1
 93
3
 10
3.966666666666667
 20
5.05
 10
4.1
 20
5.05
 10
4.033333333333333
 20
4.95
 97
0
 75
0
 76
1
 98
0
  0
HATCH
  5
DF
330
17
100
AcDbEntity
  8
C-SITE
 62
7
420
13369344
100
AcDbHatch
 10
0.0
 20
0.0
 30
0.0
210
0.0
220
0.0
230
1.0
  2
SOLID
 70
1
 71
0
 91
1
 92
3
 72
0
 73
1
 93
3
 10
3.2249999999999996
 20
9.75
 10
3.3583333333333334
 20
9.75
 10
3.2916666666666665
 20
9.85
 97
0
 75
0
 76
1
 98
0
  0
LINE
  5
E0
330
17
100
AcDbEntity
  8
C-SITE
100
AcDbLine
 10
2.15
 20
5.683333333333334
 30
0.0
 11
2.1
 21
5.683333333333334
 31
0.0
  0
TEXT
  5
E1
330
17
100
AcDbEntity
  8
A-ANNO-TEXT
100
AcDbText
 10
2.083333333333333
 20
5.658333333333333
 30
0.0
 40
0.039999999999999994
  1
X1
  7
KS-REG
 72
2
 11
2.083333333333333
 21
5.658333333333333
 31
0.0
100
AcDbText
  0
LINE
  5
E2
330
17
100
AcDbEntity
  8
C-SITE
100
AcDbLine
 10
2.15
 20
6.683333333333334
 30
0.0
 11
2.1
 21
6.683333333333334
 31
0.0
  0
TEXT
  5
E3
330
17
100
AcDbEntity
  8
A-ANNO-TEXT
100
AcDbText
 10
2.083333333333333
 20
6.658333333333333
 30
0.0
 40
0.039999999999999994
  1
X2
  7
KS-REG
 72
2
 11
2.083333333333333
 21
6.658333333333333
 31
0.0
100
AcDbText
  0
LINE
  5
E4
330
17
100
AcDbEntity
  8
C-SITE
100
AcDbLine
 10
2.15
 20
8.083333333333332
 30
0.0
 11
2.1
 21
8.083333333333332
 31
0.0
  0
TEXT
  5
E5
330
17
100
AcDbEntity
  8
A-ANNO-TEXT
100
AcDbText
 10
2.083333333333333
 20
8.058333333333334
 30
0.0
 40
0.039999999999999994
  1
X3
  7
KS-REG
 72
2
 11
2.083333333333333
 21
8.058333333333334
 31
0.0
100
AcDbText
  0
LINE
  5
E6
330
17
100
AcDbEntity
  8
C-SITE
100
AcDbLine
 10
2.8611166666666668
 20
9.25
 30
0.0
 11
2.8611166666666668
 21
9.3
 31
0.0
  0
TEXT
  5
E7
330
17
100
AcDbEntity
  8
A-ANNO-TEXT
100
AcDbText
 10
2.8611166666666668
 20
9.333333333333332
 30
0.0
 40
0.039999999999999994
  1
X4
  7
KS-REG
 72
1
 11
2.8611166666666668
 21
9.333333333333332
 31
0.0
100
AcDbText
  0
LINE
  5
E8
330
17
100
AcDbEntity
  8
C-SITE
100
AcDbLine
 10
4.280833333333334
 20
9.25
 30
0.0
 11
4.280833333333334
 21
9.3
 31
0.0
  0
TEXT
  5
E9
330
17
100
AcDbEntity
  8
A-ANNO-TEXT
100
AcDbText
 10
4.280833333333334
 20
9.333333333333332
 30
0.0
 40
0.039999999999999994
  1
X5
  7
KS-REG
 72
1
 11
4.280833333333334
 21
9.333333333333332
 31
0.0
100
AcDbText
  0
LINE
  5
EA
330
17
100
AcDbEntity
  8
C-SITE
100
AcDbLine
 10
5.65
 20
9.25555
 30
0.0
 11
5.699999999999999
 21
9.25555
 31
0.0
  0
TEXT
  5
EB
330
17
100
AcDbEntity
  8
A-ANNO-TEXT
100
AcDbText
 10
5.716666666666667
 20
9.230550000000001
 30
0.0
 40
0.039999999999999994
  1
X6
  7
KS-REG
 11
5.716666666666667
 21
9.230550000000001
 31
0.0
100
AcDbText
  0
LINE
  5
EC
330
17
100
AcDbEntity
  8
C-SITE
100
AcDbLine
 10
5.65
 20
8.034833333333333
 30
0.0
 11
5.699999999999999
 21
8.034833333333333
 31
0.0
  0
TEXT
  5
ED
330
17
100
AcDbEntity
  8
A-ANNO-TEXT
100
AcDbText
 10
5.716666666666667
 20
8.009833333333333
 30
0.0
 40
0.039999999999999994
  1
X7
  7
KS-REG
 11
5.716666666666667
 21
8.009833333333333
 31
0.0
100
AcDbText
  0
LINE
  5
EE
330
17
100
AcDbEntity
  8
C-SITE
100
AcDbLine
 10
5.65
 20
5.616666666666666
 30
0.0
 11
5.699999999999999
 21
5.616666666666666
 31
0.0
  0
TEXT
  5
EF
330
17
100
AcDbEntity
  8
A-ANNO-TEXT
100
AcDbText
 10
5.716666666666667
 20
5.591666666666667
 30
0.0
 40
0.039999999999999994
  1
X8
  7
KS-REG
 11
5.716666666666667
 21
5.591666666666667
 31
0.0
100
AcDbText
  0
LINE
  5
F0
330
17
100
AcDbEntity
  8
C-SITE
100
AcDbLine
 10
5.4493
 20
5.05
 30
0.0
 11
5.4493
 21
5.0
 31
0.0
  0
TEXT
  5
F1
330
17
100
AcDbEntity
  8
A-ANNO-TEXT
100
AcDbText
 10
5.4493
 20
4.8999999999999995
 30
0.0
 40
0.039999999999999994
  1
X9
  7
KS-REG
 72
1
 11
5.4493
 21
4.8999999999999995
 31
0.0
100
AcDbText
  0
LINE
  5
F2
330
17
100
AcDbEntity
  8
C-SITE
100
AcDbLine
 10
2.25555
 20
5.05
 30
0.0
 11
2.25555
 21
5.0
 31
0.0
  0
TEXT
  5
F3
330
17
100
AcDbEntity
  8
A-ANNO-TEXT
100
AcDbText
 10
2.25555
 20
4.8999999999999995
 30
0.0
 40
0.039999999999999994
  1
X10
  7
KS-REG
 72
1
 11
2.25555
 21
4.8999999999999995
 31
0.0
100
AcDbText
  0
TEXT
  5
F4
330
17
100
AcDbEntity
  8
A-ANNO-TEXT
100
AcDbText
 10
3.9
 20
7.55
 30
0.0
 40
0.06999999999999999
  1
TROJAN HORSE ARENA
  7
KS-BOLD
 72
1
 11
3.9
 21
7.55
 31
0.0
100
AcDbText
  0
TEXT
  5
F5
330
17
100
AcDbEntity
  8
A-ANNO-TEXT
100
AcDbText
 10
3.9
 20
7.35
 30
0.0
 40
0.052000000000000005
  1
(Phase 2 building, 2 levels)
  7
KS-REG
 72
1
 11
3.9
 21
7.35
 31
0.0
100
AcDbText
  0
TEXT
  5
F6
330
17
100
AcDbEntity
  8
A-ANNO-TEXT
100
AcDbText
 10
4.083333333333333
 20
6.8
 30
0.0
 40
0.05
  1
EVENT FLOOR
  7
KS-BOLD
 72
1
 11
4.083333333333333
 21
6.8
 31
0.0
100
AcDbText
  0
TEXT
  5
F7
330
17
100
AcDbEntity
  8
A-ANNO-TEXT
100
AcDbText
 10
4.083333333333333
 20
6.65
 30
0.0
 40
0.04599999999999999
  1
east clear 16' (D-053, drawn)
  7
KS-REG
 72
1
 11
4.083333333333333
 21
6.65
 31
0.0
100
AcDbText
  0
TEXT
  5
F8
330
17
100
AcDbEntity
  8
A-ANNO-TEXT
100
AcDbText
 10
3.9
 20
5.483333333333333
 30
0.0
 40
0.048
  1
210' x 252' + NE stair tower + storage annex (P2-A-101 Rev H)
  7
KS-REG
 72
1
 11
3.9
 21
5.483333333333333
 31
0.0
100
AcDbText
  0
TEXT
  5
F9
330
17
100
AcDbEntity
  8
A-ANNO-TEXT
100
AcDbText
 10
3.9
 20
5.316666666666666
 30
0.0
 40
0.044000000000000004
  1
unchanged walls; the annex is the only footprint change
  7
KS-REG
 72
1
 11
3.9
 21
5.316666666666666
 31
0.0
100
AcDbText
  0
TEXT
  5
FA
330
17
100
AcDbEntity
  8
A-ANNO-TEXT
100
AcDbText
 10
5.716666666666667
 20
9.394449999999999
 30
0.0
 40
0.041999999999999996
  1
NE TOWER 24.08' x 6.67'
  7
KS-BOLD
 11
5.716666666666667
 21
9.394449999999999
 31
0.0
100
AcDbText
  0
TEXT
  5
FB
330
17
100
AcDbEntity
  8
A-ANNO-TEXT
100
AcDbText
 10
3.5999999999999996
 20
9.533333333333333
 30
0.0
 40
0.044000000000000004
  1
STORAGE ANNEX (D-067)
  7
KS-BOLD
 72
1
 11
3.5999999999999996
 21
9.533333333333333
 31
0.0
100
AcDbText
  0
TEXT
  5
FC
330
17
100
AcDbEntity
  8
A-ANNO-TEXT
100
AcDbText
 10
3.5999999999999996
 20
9.383333333333333
 30
0.0
 40
0.039999999999999994
  1
70' x 30' = 2,100 SF, 1 storey
  7
KS-REG
 72
1
 11
3.5999999999999996
 21
9.383333333333333
 31
0.0
100
AcDbText
  0
TEXT
  5
FD
330
17
100
AcDbEntity
  8
A-ANNO-TEXT
100
AcDbText
 10
5.716666666666667
 20
9.116666666666667
 30
0.0
 40
0.044000000000000004
  1
ST-2
  7
KS-REG
 11
5.716666666666667
 21
9.116666666666667
 31
0.0
100
AcDbText
  0
TEXT
  5
FE
330
17
100
AcDbEntity
  8
A-ANNO-TEXT
100
AcDbText
 10
5.716666666666667
 20
5.116666666666666
 30
0.0
 40
0.044000000000000004
  1
ST-3
  7
KS-REG
 11
5.716666666666667
 21
5.116666666666666
 31
0.0
100
AcDbText
  0
TEXT
  5
FF
330
17
100
AcDbEntity
  8
A-ANNO-TEXT
100
AcDbText
 10
2.083333333333333
 20
5.116666666666666
 30
0.0
 40
0.044000000000000004
  1
ST-4
  7
KS-REG
 72
2
 11
2.083333333333333
 21
5.116666666666666
 31
0.0
100
AcDbText
  0
TEXT
  5
100
330
17
100
AcDbEntity
  8
A-ANNO-TEXT
100
AcDbText
 10
2.65
 20
8.983333333333333
 30
0.0
 40
0.044000000000000004
  1
ST-1
  7
KS-REG
 72
2
 11
2.65
 21
8.983333333333333
 31
0.0
100
AcDbText
  0
TEXT
  5
101
330
17
100
AcDbEntity
  8
A-ANNO-TEXT
100
AcDbText
 10
3.5999999999999996
 20
4.45
 30
0.0
 40
0.05
  1
PORTAL
  7
KS-BOLD
 72
2
 11
3.5999999999999996
 21
4.45
 31
0.0
100
AcDbText
  0
TEXT
  5
102
330
17
100
AcDbEntity
  8
A-ANNO-TEXT
100
AcDbText
 10
3.5999999999999996
 20
4.283333333333333
 30
0.0
 40
0.044000000000000004
  1
(freestanding, 50' max)
  7
KS-REG
 72
2
 11
3.5999999999999996
 21
4.283333333333333
 31
0.0
100
AcDbText
  0
TEXT
  5
103
330
17
100
AcDbEntity
  8
A-ANNO-TEXT
100
AcDbText
 10
4.55
 20
4.75
 30
0.0
 40
0.04599999999999999
  1
CHAMPION WALK 28' + 6' BANDS = 40'
  7
KS-BOLD
 11
4.55
 21
4.75
 31
0.0
100
AcDbText
  0
TEXT
  5
104
330
17
100
AcDbEntity
  8
A-ANNO-TEXT
100
AcDbText
 10
4.55
 20
4.6
 30
0.0
 40
0.041999999999999996
  1
brick 28' x 30' (D-046); bands around the piers (D-066)
  7
KS-REG
 11
4.55
 21
4.6
 31
0.0
100
AcDbText
  0
TEXT
  5
105
330
17
100
AcDbEntity
  8
A-ANNO-TEXT
100
AcDbText
 10
3.783333333333333
 20
3.466666666666667
 30
0.0
 40
0.041999999999999996
  1
extend to
  7
KS-REG
 72
2
 11
3.783333333333333
 21
3.466666666666667
 31
0.0
100
AcDbText
  0
TEXT
  5
106
330
17
100
AcDbEntity
  8
A-ANNO-TEXT
100
AcDbText
 10
3.783333333333333
 20
3.3166666666666664
 30
0.0
 40
0.041999999999999996
  1
parking later
  7
KS-REG
 72
2
 11
3.783333333333333
 21
3.3166666666666664
 31
0.0
100
AcDbText
  0
TEXT
  5
107
330
17
100
AcDbEntity
  8
A-ANNO-TEXT
100
AcDbText
 10
5.116666666666667
 20
3.5166666666666666
 30
0.0
 40
0.048
  1
BUS DROP
  7
KS-BOLD
 72
1
 11
5.116666666666667
 21
3.5166666666666666
 31
0.0
100
AcDbText
  0
TEXT
  5
108
330
17
100
AcDbEntity
  8
A-ANNO-TEXT
100
AcDbText
 10
5.116666666666667
 20
3.3666666666666663
 30
0.0
 40
0.048
  1
LOOP
  7
KS-BOLD
 72
1
 11
5.116666666666667
 21
3.3666666666666663
 31
0.0
100
AcDbText
  0
TEXT
  5
109
330
17
100
AcDbEntity
  8
A-ANNO-TEXT
100
AcDbText
 10
5.75
 20
3.6999999999999997
 30
0.0
 40
0.043
  1
offset E (or W) of the
  7
KS-REG
 11
5.75
 21
3.6999999999999997
 31
0.0
100
AcDbText
  0
TEXT
  5
10A
330
17
100
AcDbEntity
  8
A-ANNO-TEXT
100
AcDbText
 10
5.75
 20
3.55
 30
0.0
 40
0.043
  1
portal view (D-034);
  7
KS-REG
 11
5.75
 21
3.55
 31
0.0
100
AcDbText
  0
TEXT
  5
10B
330
17
100
AcDbEntity
  8
A-ANNO-TEXT
100
AcDbText
 10
5.75
 20
3.4
 30
0.0
 40
0.043
  1
diagram — size TBD
  7
KS-REG
 11
5.75
 21
3.4
 31
0.0
100
AcDbText
  0
TEXT
  5
10C
330
17
100
AcDbEntity
  8
A-ANNO-TEXT
100
AcDbText
 10
5.016666666666667
 20
3.966666666666667
 30
0.0
 40
0.041999999999999996
  1
drop curb
  7
KS-REG
 11
5.016666666666667
 21
3.966666666666667
 31
0.0
100
AcDbText
  0
TEXT
  5
10D
330
17
100
AcDbEntity
  8
A-ANNO-TEXT
100
AcDbText
 10
1.45
 20
7.05
 30
0.0
 40
0.04599999999999999
  1
SERVICE DRIVE (diagram)
 50
90.0
  7
KS-BOLD
 72
1
 11
1.45
 21
7.05
 31
0.0
100
AcDbText
  0
TEXT
  5
10E
330
17
100
AcDbEntity
  8
A-ANNO-TEXT
100
AcDbText
 10
4.266666666666667
 20
9.916666666666666
 30
0.0
 40
0.04599999999999999
  1
S1 SERVICE / LOADING (D-034), on the annex
  7
KS-BOLD
 11
4.266666666666667
 21
9.916666666666666
 31
0.0
100
AcDbText
  0
TEXT
  5
10F
330
17
100
AcDbEntity
  8
A-ANNO-TEXT
100
AcDbText
 10
3.7333333333333334
 20
2.4833333333333334
 30
0.0
 40
0.05
  1
ROAD (assumed south; site TBD, D-006)
  7
KS-BOLD
 72
1
 11
3.7333333333333334
 21
2.4833333333333334
 31
0.0
100
AcDbText
  0
TEXT
  5
110
330
17
100
AcDbEntity
  8
A-ANNO-TEXT
100
AcDbText
 10
0.9833333333333332
 20
10.35
 30
0.0
 40
0.05
  1
PARCEL / PROPERTY LINES, SETBACKS, PARKING, UTILITIES, STORMWATER: TBD (D-006)
  7
KS-BOLD
 11
0.9833333333333332
 21
10.35
 31
0.0
100
AcDbText
  0
LINE
  5
111
330
17
100
AcDbEntity
  8
A-ANNO-TEXT
100
AcDbLine
 10
6.316666666666666
 20
9.83
 30
0.0
 11
6.316666666666666
 21
10.21
 31
0.0
  0
HATCH
  5
112
330
17
100
AcDbEntity
  8
A-ANNO-TEXT
 62
7
420
0
100
AcDbHatch
 10
0.0
 20
0.0
 30
0.0
210
0.0
220
0.0
230
1.0
  2
SOLID
 70
1
 71
0
 91
1
 92
3
 72
0
 73
1
 93
3
 10
6.266666666666667
 20
10.13
 10
6.316666666666666
 20
10.25
 10
6.366666666666666
 20
10.13
 97
0
 75
0
 76
1
 98
0
  0
TEXT
  5
113
330
17
100
AcDbEntity
  8
A-ANNO-TEXT
100
AcDbText
 10
6.316666666666666
 20
10.3
 30
0.0
 40
0.06999999999999999
  1
N
  7
KS-BOLD
 72
1
 11
6.316666666666666
 21
10.3
 31
0.0
100
AcDbText
  0
HATCH
  5
114
330
17
100
AcDbEntity
  8
A-ANNO-DIMS
 62
7
420
0
100
AcDbHatch
 10
0.0
 20
0.0
 30
0.0
210
0.0
220
0.0
230
1.0
  2
SOLID
 70
1
 71
0
 91
1
 92
3
 72
0
 73
1
 93
4
 10
4.65
 20
2.183333333333333
 10
5.65
 20
2.183333333333333
 10
5.65
 20
2.243333333333333
 10
4.65
 20
2.243333333333333
 97
0
 75
0
 76
1
 98
0
  0
LWPOLYLINE
  5
115
330
17
100
AcDbEntity
  8
A-ANNO-DIMS
100
AcDbPolyline
 90
4
 70
1
 10
4.65
 20
2.183333333333333
 10
5.65
 20
2.183333333333333
 10
5.65
 20
2.243333333333333
 10
4.65
 20
2.243333333333333
  0
TEXT
  5
116
330
17
100
AcDbEntity
  8
A-ANNO-DIMS
100
AcDbText
 10
4.65
 20
2.063333333333333
 30
0.0
 40
0.05
  1
0'
  7
KS-REG
 72
1
 11
4.65
 21
2.063333333333333
 31
0.0
100
AcDbText
  0
HATCH
  5
117
330
17
100
AcDbEntity
  8
A-ANNO-DIMS
 62
7
420
16777215
100
AcDbHatch
 10
0.0
 20
0.0
 30
0.0
210
0.0
220
0.0
230
1.0
  2
SOLID
 70
1
 71
0
 91
1
 92
3
 72
0
 73
1
 93
4
 10
5.65
 20
2.183333333333333
 10
6.65
 20
2.183333333333333
 10
6.65
 20
2.243333333333333
 10
5.65
 20
2.243333333333333
 97
0
 75
0
 76
1
 98
0
  0
LWPOLYLINE
  5
118
330
17
100
AcDbEntity
  8
A-ANNO-DIMS
100
AcDbPolyline
 90
4
 70
1
 10
5.65
 20
2.183333333333333
 10
6.65
 20
2.183333333333333
 10
6.65
 20
2.243333333333333
 10
5.65
 20
2.243333333333333
  0
TEXT
  5
119
330
17
100
AcDbEntity
  8
A-ANNO-DIMS
100
AcDbText
 10
5.65
 20
2.063333333333333
 30
0.0
 40
0.05
  1
60'
  7
KS-REG
 72
1
 11
5.65
 21
2.063333333333333
 31
0.0
100
AcDbText
  0
HATCH
  5
11A
330
17
100
AcDbEntity
  8
A-ANNO-DIMS
 62
7
420
0
100
AcDbHatch
 10
0.0
 20
0.0
 30
0.0
210
0.0
220
0.0
230
1.0
  2
SOLID
 70
1
 71
0
 91
1
 92
3
 72
0
 73
1
 93
4
 10
6.65
 20
2.183333333333333
 10
7.65
 20
2.183333333333333
 10
7.65
 20
2.243333333333333
 10
6.65
 20
2.243333333333333
 97
0
 75
0
 76
1
 98
0
  0
LWPOLYLINE
  5
11B
330
17
100
AcDbEntity
  8
A-ANNO-DIMS
100
AcDbPolyline
 90
4
 70
1
 10
6.65
 20
2.183333333333333
 10
7.65
 20
2.183333333333333
 10
7.65
 20
2.243333333333333
 10
6.65
 20
2.243333333333333
  0
TEXT
  5
11C
330
17
100
AcDbEntity
  8
A-ANNO-DIMS
100
AcDbText
 10
6.65
 20
2.063333333333333
 30
0.0
 40
0.05
  1
120'
  7
KS-REG
 72
1
 11
6.65
 21
2.063333333333333
 31
0.0
100
AcDbText
  0
TEXT
  5
11D
330
17
100
AcDbEntity
  8
A-ANNO-DIMS
100
AcDbText
 10
7.65
 20
2.063333333333333
 30
0.0
 40
0.05
  1
180'
  7
KS-REG
 72
1
 11
7.65
 21
2.063333333333333
 31
0.0
100
AcDbText
  0
TEXT
  5
11E
330
17
100
AcDbEntity
  8
A-ANNO-TEXT
100
AcDbText
 10
0.75
 20
2.12
 30
0.0
 40
0.075
  1
1  SITE PLAN — CAMPUS DIAGRAM (SITE TBD)
  7
KS-BOLD
 11
0.75
 21
2.12
 31
0.0
100
AcDbText
  0
LINE
  5
11F
330
17
100
AcDbEntity
  8
A-ANNO-TEXT
100
AcDbLine
 10
0.75
 20
2.0700000000000003
 30
0.0
 11
3.4149414062499996
 21
2.0700000000000003
 31
0.0
  0
TEXT
  5
120
330
17
100
AcDbEntity
  8
A-ANNO-TEXT
100
AcDbText
 10
0.75
 20
1.9400000000000002
 30
0.0
 40
0.054000000000000006
  1
1" = 60'-0" · north approximate · road assumed south · diagram only (no surveyed dimensions)
  7
KS-REG
 11
0.75
 21
1.9400000000000002
 31
0.0
100
AcDbText
  0
HATCH
  5
121
330
17
100
AcDbEntity
  8
A-WALL
 62
7
420
15722974
100
AcDbHatch
 10
0.0
 20
0.0
 30
0.0
210
0.0
220
0.0
230
1.0
  2
SOLID
 70
1
 71
0
 91
1
 92
3
 72
0
 73
1
 93
4
 10
7.199999999999999
 20
9.62
 10
9.399999999999999
 20
9.62
 10
9.399999999999999
 20
9.953333333333333
 10
7.199999999999999
 20
9.953333333333333
 97
0
 75
0
 76
1
 98
0
  0
LINE
  5
122
330
17
100
AcDbEntity
  8
A-WALL
100
AcDbLine
 10
7.199999999999999
 20
9.62
 30
0.0
 11
9.399999999999999
 21
9.62
 31
0.0
  0
HATCH
  5
123
330
17
100
AcDbEntity
  8
C-SITE
 62
7
420
14268314
100
AcDbHatch
 10
0.0
 20
0.0
 30
0.0
210
0.0
220
0.0
230
1.0
  2
SOLID
 70
1
 71
0
 91
1
 92
3
 72
0
 73
1
 93
10
 10
7.633333333333333
 20
9.62
 10
7.833333333333333
 20
9.62
 10
7.833333333333333
 20
8.62
 10
7.566666666666666
 20
8.62
 10
7.566666666666666
 20
8.42
 10
7.833333333333333
 20
8.42
 10
7.833333333333333
 20
8.219999999999999
 10
7.366666666666667
 20
8.219999999999999
 10
7.366666666666667
 20
8.819999999999999
 10
7.633333333333333
 20
8.819999999999999
 97
0
 75
0
 76
1
 98
0
  0
LWPOLYLINE
  5
124
330
17
100
AcDbEntity
  8
C-SITE
100
AcDbPolyline
 90
10
 70
1
 10
7.633333333333333
 20
9.62
 10
7.833333333333333
 20
9.62
 10
7.833333333333333
 20
8.62
 10
7.566666666666666
 20
8.62
 10
7.566666666666666
 20
8.42
 10
7.833333333333333
 20
8.42
 10
7.833333333333333
 20
8.219999999999999
 10
7.366666666666667
 20
8.219999999999999
 10
7.366666666666667
 20
8.819999999999999
 10
7.633333333333333
 20
8.819999999999999
  0
HATCH
  5
125
330
17
100
AcDbEntity
  8
C-SITE
 62
7
420
14268314
100
AcDbHatch
 10
0.0
 20
0.0
 30
0.0
210
0.0
220
0.0
230
1.0
  2
SOLID
 70
1
 71
0
 91
1
 92
3
 72
0
 73
1
 93
10
 10
8.966666666666667
 20
9.62
 10
8.766666666666666
 20
9.62
 10
8.766666666666666
 20
8.62
 10
9.033333333333333
 20
8.62
 10
9.033333333333333
 20
8.42
 10
8.766666666666666
 20
8.42
 10
8.766666666666666
 20
8.219999999999999
 10
9.233333333333334
 20
8.219999999999999
 10
9.233333333333334
 20
8.819999999999999
 10
8.966666666666667
 20
8.819999999999999
 97
0
 75
0
 76
1
 98
0
  0
LWPOLYLINE
  5
126
330
17
100
AcDbEntity
  8
C-SITE
100
AcDbPolyline
 90
10
 70
1
 10
8.966666666666667
 20
9.62
 10
8.766666666666666
 20
9.62
 10
8.766666666666666
 20
8.62
 10
9.033333333333333
 20
8.62
 10
9.033333333333333
 20
8.42
 10
8.766666666666666
 20
8.42
 10
8.766666666666666
 20
8.219999999999999
 10
9.233333333333334
 20
8.219999999999999
 10
9.233333333333334
 20
8.819999999999999
 10
8.966666666666667
 20
8.819999999999999
  0
HATCH
  5
127
330
17
100
AcDbEntity
  8
C-SITE
 62
7
420
11887946
100
AcDbHatch
 10
0.0
 20
0.0
 30
0.0
210
0.0
220
0.0
230
1.0
  2
SOLID
 70
1
 71
0
 91
1
 92
3
 72
0
 73
1
 93
4
 10
7.833333333333333
 20
8.62
 10
8.766666666666666
 20
8.62
 10
8.766666666666666
 20
9.62
 10
7.833333333333333
 20
9.62
 97
0
 75
0
 76
1
 98
0
  0
LWPOLYLINE
  5
128
330
17
100
AcDbEntity
  8
C-SITE
100
AcDbPolyline
 90
4
 70
1
 10
7.833333333333333
 20
8.62
 10
8.766666666666666
 20
8.62
 10
8.766666666666666
 20
9.62
 10
7.833333333333333
 20
9.62
  0
HATCH
  5
129
330
17
100
AcDbEntity
  8
C-SITE
 62
7
420
11887946
100
AcDbHatch
 10
0.0
 20
0.0
 30
0.0
210
0.0
220
0.0
230
1.0
  2
SOLID
 70
1
 71
0
 91
1
 92
3
 72
0
 73
1
 93
4
 10
7.833333333333333
 20
8.42
 10
8.766666666666666
 20
8.42
 10
8.766666666666666
 20
8.62
 10
7.833333333333333
 20
8.62
 97
0
 75
0
 76
1
 98
0
  0
LWPOLYLINE
  5
12A
330
17
100
AcDbEntity
  8
C-SITE
100
AcDbPolyline
 90
4
 70
1
 10
7.833333333333333
 20
8.42
 10
8.766666666666666
 20
8.42
 10
8.766666666666666
 20
8.62
 10
7.833333333333333
 20
8.62
  0
HATCH
  5
12B
330
17
100
AcDbEntity
  8
C-SITE
 62
7
420
14208960
100
AcDbHatch
 10
0.0
 20
0.0
 30
0.0
210
0.0
220
0.0
230
1.0
  2
SOLID
 70
1
 71
0
 91
1
 92
3
 72
0
 73
1
 93
4
 10
7.566666666666666
 20
8.42
 10
7.833333333333333
 20
8.42
 10
7.833333333333333
 20
8.62
 10
7.566666666666666
 20
8.62
 97
0
 75
0
 76
1
 98
0
  0
LWPOLYLINE
  5
12C
330
17
100
AcDbEntity
  8
C-SITE
100
AcDbPolyline
 90
4
 70
1
 10
7.566666666666666
 20
8.42
 10
7.833333333333333
 20
8.42
 10
7.833333333333333
 20
8.62
 10
7.566666666666666
 20
8.62
  0
HATCH
  5
12D
330
17
100
AcDbEntity
  8
C-SITE
 62
7
420
14208960
100
AcDbHatch
 10
0.0
 20
0.0
 30
0.0
210
0.0
220
0.0
230
1.0
  2
SOLID
 70
1
 71
0
 91
1
 92
3
 72
0
 73
1
 93
4
 10
8.766666666666666
 20
8.42
 10
9.033333333333333
 20
8.42
 10
9.033333333333333
 20
8.62
 10
8.766666666666666
 20
8.62
 97
0
 75
0
 76
1
 98
0
  0
LWPOLYLINE
  5
12E
330
17
100
AcDbEntity
  8
C-SITE
100
AcDbPolyline
 90
4
 70
1
 10
8.766666666666666
 20
8.42
 10
9.033333333333333
 20
8.42
 10
9.033333333333333
 20
8.62
 10
8.766666666666666
 20
8.62
  0
LINE
  5
12F
330
17
100
AcDbEntity
  8
A-AREA-OPEN
100
AcDbLine
 10
7.833333333333333
 20
8.52
 30
0.0
 11
7.873333333333333
 21
8.52
 31
0.0
  0
LINE
  5
130
330
17
100
AcDbEntity
  8
A-AREA-OPEN
100
AcDbLine
 10
7.903333333333333
 20
8.52
 30
0.0
 11
7.943333333333333
 21
8.52
 31
0.0
  0
LINE
  5
131
330
17
100
AcDbEntity
  8
A-AREA-OPEN
100
AcDbLine
 10
7.973333333333333
 20
8.52
 30
0.0
 11
8.013333333333334
 21
8.52
 31
0.0
  0
LINE
  5
132
330
17
100
AcDbEntity
  8
A-AREA-OPEN
100
AcDbLine
 10
8.043333333333333
 20
8.52
 30
0.0
 11
8.083333333333332
 21
8.52
 31
0.0
  0
LINE
  5
133
330
17
100
AcDbEntity
  8
A-AREA-OPEN
100
AcDbLine
 10
8.113333333333333
 20
8.52
 30
0.0
 11
8.153333333333332
 21
8.52
 31
0.0
  0
LINE
  5
134
330
17
100
AcDbEntity
  8
A-AREA-OPEN
100
AcDbLine
 10
8.183333333333334
 20
8.52
 30
0.0
 11
8.223333333333333
 21
8.52
 31
0.0
  0
LINE
  5
135
330
17
100
AcDbEntity
  8
A-AREA-OPEN
100
AcDbLine
 10
8.253333333333334
 20
8.52
 30
0.0
 11
8.293333333333333
 21
8.52
 31
0.0
  0
LINE
  5
136
330
17
100
AcDbEntity
  8
A-AREA-OPEN
100
AcDbLine
 10
8.323333333333332
 20
8.52
 30
0.0
 11
8.363333333333333
 21
8.52
 31
0.0
  0
LINE
  5
137
330
17
100
AcDbEntity
  8
A-AREA-OPEN
100
AcDbLine
 10
8.393333333333333
 20
8.52
 30
0.0
 11
8.433333333333334
 21
8.52
 31
0.0
  0
LINE
  5
138
330
17
100
AcDbEntity
  8
A-AREA-OPEN
100
AcDbLine
 10
8.463333333333333
 20
8.52
 30
0.0
 11
8.503333333333334
 21
8.52
 31
0.0
  0
LINE
  5
139
330
17
100
AcDbEntity
  8
A-AREA-OPEN
100
AcDbLine
 10
8.533333333333333
 20
8.52
 30
0.0
 11
8.573333333333332
 21
8.52
 31
0.0
  0
LINE
  5
13A
330
17
100
AcDbEntity
  8
A-AREA-OPEN
100
AcDbLine
 10
8.603333333333333
 20
8.52
 30
0.0
 11
8.643333333333333
 21
8.52
 31
0.0
  0
LINE
  5
13B
330
17
100
AcDbEntity
  8
A-AREA-OPEN
100
AcDbLine
 10
8.673333333333334
 20
8.52
 30
0.0
 11
8.713333333333333
 21
8.52
 31
0.0
  0
LINE
  5
13C
330
17
100
AcDbEntity
  8
A-AREA-OPEN
100
AcDbLine
 10
8.743333333333334
 20
8.52
 30
0.0
 11
8.766666666666666
 21
8.52
 31
0.0
  0
LINE
  5
13D
330
17
100
AcDbEntity
  8
A-AREA-OPEN
100
AcDbLine
 10
7.833333333333333
 20
8.42
 30
0.0
 11
7.833333333333333
 21
8.36
 31
0.0
  0
LINE
  5
13E
330
17
100
AcDbEntity
  8
A-AREA-OPEN
100
AcDbLine
 10
7.833333333333333
 20
8.32
 30
0.0
 11
7.833333333333333
 21
8.26
 31
0.0
  0
LINE
  5
13F
330
17
100
AcDbEntity
  8
A-AREA-OPEN
100
AcDbLine
 10
7.833333333333333
 20
8.22
 30
0.0
 11
7.833333333333333
 21
8.16
 31
0.0
  0
LINE
  5
140
330
17
100
AcDbEntity
  8
A-AREA-OPEN
100
AcDbLine
 10
7.833333333333333
 20
8.12
 30
0.0
 11
7.833333333333333
 21
8.06
 31
0.0
  0
LINE
  5
141
330
17
100
AcDbEntity
  8
A-AREA-OPEN
100
AcDbLine
 10
7.833333333333333
 20
8.02
 30
0.0
 11
7.833333333333333
 21
8.02
 31
0.0
  0
LINE
  5
142
330
17
100
AcDbEntity
  8
A-AREA-OPEN
100
AcDbLine
 10
8.766666666666666
 20
8.42
 30
0.0
 11
8.766666666666666
 21
8.36
 31
0.0
  0
LINE
  5
143
330
17
100
AcDbEntity
  8
A-AREA-OPEN
100
AcDbLine
 10
8.766666666666666
 20
8.32
 30
0.0
 11
8.766666666666666
 21
8.26
 31
0.0
  0
LINE
  5
144
330
17
100
AcDbEntity
  8
A-AREA-OPEN
100
AcDbLine
 10
8.766666666666666
 20
8.22
 30
0.0
 11
8.766666666666666
 21
8.16
 31
0.0
  0
LINE
  5
145
330
17
100
AcDbEntity
  8
A-AREA-OPEN
100
AcDbLine
 10
8.766666666666666
 20
8.12
 30
0.0
 11
8.766666666666666
 21
8.06
 31
0.0
  0
LINE
  5
146
330
17
100
AcDbEntity
  8
A-AREA-OPEN
100
AcDbLine
 10
8.766666666666666
 20
8.02
 30
0.0
 11
8.766666666666666
 21
8.02
 31
0.0
  0
HATCH
  5
147
330
17
100
AcDbEntity
  8
C-SITE
 62
7
420
13369344
100
AcDbHatch
 10
0.0
 20
0.0
 30
0.0
210
0.0
220
0.0
230
1.0
  2
SOLID
 70
1
 71
0
 91
1
 92
3
 72
0
 73
1
 93
3
 10
8.2
 20
9.62
 10
8.4
 20
9.62
 10
8.3
 20
9.486666666666666
 97
0
 75
0
 76
1
 98
0
  0
LINE
  5
148
330
17
100
AcDbEntity
  8
A-ANNO-DIMS
100
AcDbLine
 10
7.833333333333333
 20
8.286666666666665
 30
0.0
 11
8.766666666666666
 21
8.286666666666665
 31
0.0
  0
LINE
  5
149
330
17
100
AcDbEntity
  8
A-ANNO-DIMS
100
AcDbLine
 10
7.833333333333333
 20
8.256666666666666
 30
0.0
 11
7.833333333333333
 21
8.316666666666665
 31
0.0
  0
LINE
  5
14A
330
17
100
AcDbEntity
  8
A-ANNO-DIMS
100
AcDbLine
 10
8.766666666666666
 20
8.256666666666666
 30
0.0
 11
8.766666666666666
 21
8.316666666666665
 31
0.0
  0
TEXT
  5
14B
330
17
100
AcDbEntity
  8
A-ANNO-DIMS
100
AcDbText
 10
8.299999999999999
 20
8.166666666666666
 30
0.0
 40
0.05
  1
28'
  7
KS-REG
 72
1
 11
8.299999999999999
 21
8.166666666666666
 31
0.0
100
AcDbText
  0
LINE
  5
14C
330
17
100
AcDbEntity
  8
A-ANNO-DIMS
100
AcDbLine
 10
7.633333333333333
 20
9.52
 30
0.0
 11
8.966666666666667
 21
9.52
 31
0.0
  0
LINE
  5
14D
330
17
100
AcDbEntity
  8
A-ANNO-DIMS
100
AcDbLine
 10
7.633333333333333
 20
9.49
 30
0.0
 11
7.633333333333333
 21
9.549999999999999
 31
0.0
  0
LINE
  5
14E
330
17
100
AcDbEntity
  8
A-ANNO-DIMS
100
AcDbLine
 10
7.833333333333333
 20
9.49
 30
0.0
 11
7.833333333333333
 21
9.549999999999999
 31
0.0
  0
LINE
  5
14F
330
17
100
AcDbEntity
  8
A-ANNO-DIMS
100
AcDbLine
 10
8.766666666666666
 20
9.49
 30
0.0
 11
8.766666666666666
 21
9.549999999999999
 31
0.0
  0
LINE
  5
150
330
17
100
AcDbEntity
  8
A-ANNO-DIMS
100
AcDbLine
 10
8.966666666666667
 20
9.49
 30
0.0
 11
8.966666666666667
 21
9.549999999999999
 31
0.0
  0
TEXT
  5
151
330
17
100
AcDbEntity
  8
A-ANNO-DIMS
100
AcDbText
 10
7.733333333333333
 20
9.42
 30
0.0
 40
0.044000000000000004
  1
6'
  7
KS-REG
 72
1
 11
7.733333333333333
 21
9.42
 31
0.0
100
AcDbText
  0
TEXT
  5
152
330
17
100
AcDbEntity
  8
A-ANNO-DIMS
100
AcDbText
 10
8.3
 20
9.42
 30
0.0
 40
0.044000000000000004
  1
28'
  7
KS-REG
 72
1
 11
8.3
 21
9.42
 31
0.0
100
AcDbText
  0
TEXT
  5
153
330
17
100
AcDbEntity
  8
A-ANNO-DIMS
100
AcDbText
 10
8.866666666666667
 20
9.42
 30
0.0
 40
0.044000000000000004
  1
6'
  7
KS-REG
 72
1
 11
8.866666666666667
 21
9.42
 31
0.0
100
AcDbText
  0
TEXT
  5
154
330
17
100
AcDbEntity
  8
A-ANNO-DIMS
100
AcDbText
 10
7.466666666666667
 20
8.5
 30
0.0
 40
0.044000000000000004
  1
6'
  7
KS-REG
 72
1
 11
7.466666666666667
 21
8.5
 31
0.0
100
AcDbText
  0
TEXT
  5
155
330
17
100
AcDbEntity
  8
A-ANNO-DIMS
100
AcDbText
 10
9.133333333333333
 20
8.5
 30
0.0
 40
0.044000000000000004
  1
6'
  7
KS-REG
 72
1
 11
9.133333333333333
 21
8.5
 31
0.0
100
AcDbText
  0
TEXT
  5
156
330
17
100
AcDbEntity
  8
A-ANNO-DIMS
100
AcDbText
 10
7.199999999999999
 20
7.886666666666666
 30
0.0
 40
0.04599999999999999
  1
40' at the doors = 6 + 28 + 6 = 480 in ≥ 467.0 in (E1, standing margin)
  7
KS-BOLD
 11
7.199999999999999
 21
7.886666666666666
 31
0.0
100
AcDbText
  0
TEXT
  5
157
330
17
100
AcDbEntity
  8
A-ANNO-DIMS
100
AcDbText
 10
7.199999999999999
 20
7.736666666666666
 30
0.0
 40
0.044000000000000004
  1
bands pass outside both 8' piers: 6 + 28 + 6 = 40' at the portal (D-066)
  7
KS-REG
 11
7.199999999999999
 21
7.736666666666666
 31
0.0
100
AcDbText
  0
LINE
  5
158
330
17
100
AcDbEntity
  8
A-ANNO-DIMS
100
AcDbLine
 10
9.366666666666667
 20
8.62
 30
0.0
 11
9.366666666666667
 21
9.62
 31
0.0
  0
LINE
  5
159
330
17
100
AcDbEntity
  8
A-ANNO-DIMS
100
AcDbLine
 10
9.336666666666668
 20
8.62
 30
0.0
 11
9.396666666666667
 21
8.62
 31
0.0
  0
LINE
  5
15A
330
17
100
AcDbEntity
  8
A-ANNO-DIMS
100
AcDbLine
 10
9.336666666666668
 20
9.62
 30
0.0
 11
9.396666666666667
 21
9.62
 31
0.0
  0
TEXT
  5
15B
330
17
100
AcDbEntity
  8
A-ANNO-DIMS
100
AcDbText
 10
9.316666666666666
 20
9.12
 30
0.0
 40
0.05
  1
30'
  7
KS-REG
 72
2
 11
9.316666666666666
 21
9.12
 31
0.0
100
AcDbText
  0
TEXT
  5
15C
330
17
100
AcDbEntity
  8
A-ANNO-TEXT
100
AcDbText
 10
7.266666666666667
 20
9.753333333333332
 30
0.0
 40
0.044000000000000004
  1
BUILDING (south wall)
  7
KS-REG
 11
7.266666666666667
 21
9.753333333333332
 31
0.0
100
AcDbText
  0
TEXT
  5
15D
330
17
100
AcDbEntity
  8
A-ANNO-TEXT
100
AcDbText
 10
7.199999999999999
 20
10.073333333333332
 30
0.0
 40
0.065
  1
2  ENTRY — PORTAL + CHAMPION WALK — 1" = 30'
  7
KS-BOLD
 11
7.199999999999999
 21
10.073333333333332
 31
0.0
100
AcDbText
  0
TEXT
  5
15E
330
17
100
AcDbEntity
  8
A-ANNO-TEXT
100
AcDbText
 10
7.05
 20
7.55
 30
0.0
 40
0.064
  1
LEGEND
  7
KS-BOLD
 11
7.05
 21
7.55
 31
0.0
100
AcDbText
  0
HATCH
  5
15F
330
17
100
AcDbEntity
  8
C-SITE
 62
7
420
15722974
100
AcDbHatch
 10
0.0
 20
0.0
 30
0.0
210
0.0
220
0.0
230
1.0
  2
SOLID
 70
1
 71
0
 91
1
 92
3
 72
0
 73
1
 93
4
 10
7.05
 20
7.35
 10
7.3
 20
7.35
 10
7.3
 20
7.46
 10
7.05
 20
7.46
 97
0
 75
0
 76
1
 98
0
  0
LWPOLYLINE
  5
160
330
17
100
AcDbEntity
  8
C-SITE
100
AcDbPolyline
 90
4
 70
1
 10
7.05
 20
7.35
 10
7.3
 20
7.35
 10
7.3
 20
7.46
 10
7.05
 20
7.46
  0
TEXT
  5
161
330
17
100
AcDbEntity
  8
A-ANNO-TEXT
100
AcDbText
 10
7.37
 20
7.364999999999999
 30
0.0
 40
0.054000000000000006
  1
Building, P2-A-101 Rev H (210' + NE tower + annex)
  7
KS-REG
 11
7.37
 21
7.364999999999999
 31
0.0
100
AcDbText
  0
HATCH
  5
162
330
17
100
AcDbEntity
  8
C-SITE
 62
7
420
9211020
100
AcDbHatch
 10
0.0
 20
0.0
 30
0.0
210
0.0
220
0.0
230
1.0
  2
SOLID
 70
1
 71
0
 91
1
 92
3
 72
0
 73
1
 93
4
 10
7.05
 20
7.18
 10
7.3
 20
7.18
 10
7.3
 20
7.29
 10
7.05
 20
7.29
 97
0
 75
0
 76
1
 98
0
  0
LWPOLYLINE
  5
163
330
17
100
AcDbEntity
  8
C-SITE
100
AcDbPolyline
 90
4
 70
1
 10
7.05
 20
7.18
 10
7.3
 20
7.18
 10
7.3
 20
7.29
 10
7.05
 20
7.29
  0
TEXT
  5
164
330
17
100
AcDbEntity
  8
A-ANNO-TEXT
100
AcDbText
 10
7.37
 20
7.194999999999999
 30
0.0
 40
0.054000000000000006
  1
Exit stairs 76" clear (D-052)
  7
KS-REG
 11
7.37
 21
7.194999999999999
 31
0.0
100
AcDbText
  0
HATCH
  5
165
330
17
100
AcDbEntity
  8
C-SITE
 62
7
420
15127464
100
AcDbHatch
 10
0.0
 20
0.0
 30
0.0
210
0.0
220
0.0
230
1.0
  2
SOLID
 70
1
 71
0
 91
1
 92
3
 72
0
 73
1
 93
4
 10
7.05
 20
7.01
 10
7.3
 20
7.01
 10
7.3
 20
7.12
 10
7.05
 20
7.12
 97
0
 75
0
 76
1
 98
0
  0
LWPOLYLINE
  5
166
330
17
100
AcDbEntity
  8
C-SITE
100
AcDbPolyline
 90
4
 70
1
 10
7.05
 20
7.01
 10
7.3
 20
7.01
 10
7.3
 20
7.12
 10
7.05
 20
7.12
  0
TEXT
  5
167
330
17
100
AcDbEntity
  8
A-ANNO-TEXT
100
AcDbText
 10
7.37
 20
7.0249999999999995
 30
0.0
 40
0.054000000000000006
  1
Event floor
  7
KS-REG
 11
7.37
 21
7.0249999999999995
 31
0.0
100
AcDbText
  0
HATCH
  5
168
330
17
100
AcDbEntity
  8
C-SITE
 62
7
420
11887946
100
AcDbHatch
 10
0.0
 20
0.0
 30
0.0
210
0.0
220
0.0
230
1.0
  2
SOLID
 70
1
 71
0
 91
1
 92
3
 72
0
 73
1
 93
4
 10
7.05
 20
6.84
 10
7.3
 20
6.84
 10
7.3
 20
6.95
 10
7.05
 20
6.95
 97
0
 75
0
 76
1
 98
0
  0
LWPOLYLINE
  5
169
330
17
100
AcDbEntity
  8
C-SITE
100
AcDbPolyline
 90
4
 70
1
 10
7.05
 20
6.84
 10
7.3
 20
6.84
 10
7.3
 20
6.95
 10
7.05
 20
6.95
  0
TEXT
  5
16A
330
17
100
AcDbEntity
  8
A-ANNO-TEXT
100
AcDbText
 10
7.37
 20
6.8549999999999995
 30
0.0
 40
0.054000000000000006
  1
Champion Walk (brick, 28')
  7
KS-REG
 11
7.37
 21
6.8549999999999995
 31
0.0
100
AcDbText
  0
HATCH
  5
16B
330
17
100
AcDbEntity
  8
C-SITE
 62
7
420
14268314
100
AcDbHatch
 10
0.0
 20
0.0
 30
0.0
210
0.0
220
0.0
230
1.0
  2
SOLID
 70
1
 71
0
 91
1
 92
3
 72
0
 73
1
 93
4
 10
7.05
 20
6.67
 10
7.3
 20
6.67
 10
7.3
 20
6.78
 10
7.05
 20
6.78
 97
0
 75
0
 76
1
 98
0
  0
LWPOLYLINE
  5
16C
330
17
100
AcDbEntity
  8
C-SITE
100
AcDbPolyline
 90
4
 70
1
 10
7.05
 20
6.67
 10
7.3
 20
6.67
 10
7.3
 20
6.78
 10
7.05
 20
6.78
  0
TEXT
  5
16D
330
17
100
AcDbEntity
  8
A-ANNO-TEXT
100
AcDbText
 10
7.37
 20
6.685
 30
0.0
 40
0.054000000000000006
  1
Walk bands 6' each side (D-066)
  7
KS-REG
 11
7.37
 21
6.685
 31
0.0
100
AcDbText
  0
HATCH
  5
16E
330
17
100
AcDbEntity
  8
C-SITE
 62
7
420
14208960
100
AcDbHatch
 10
0.0
 20
0.0
 30
0.0
210
0.0
220
0.0
230
1.0
  2
SOLID
 70
1
 71
0
 91
1
 92
3
 72
0
 73
1
 93
4
 10
7.05
 20
6.5
 10
7.3
 20
6.5
 10
7.3
 20
6.61
 10
7.05
 20
6.61
 97
0
 75
0
 76
1
 98
0
  0
LWPOLYLINE
  5
16F
330
17
100
AcDbEntity
  8
C-SITE
100
AcDbPolyline
 90
4
 70
1
 10
7.05
 20
6.5
 10
7.3
 20
6.5
 10
7.3
 20
6.61
 10
7.05
 20
6.61
  0
TEXT
  5
170
330
17
100
AcDbEntity
  8
A-ANNO-TEXT
100
AcDbText
 10
7.37
 20
6.515
 30
0.0
 40
0.054000000000000006
  1
Portal piers (limestone)
  7
KS-REG
 11
7.37
 21
6.515
 31
0.0
100
AcDbText
  0
HATCH
  5
171
330
17
100
AcDbEntity
  8
C-SITE
 62
7
420
14342874
100
AcDbHatch
 10
0.0
 20
0.0
 30
0.0
210
0.0
220
0.0
230
1.0
  2
SOLID
 70
1
 71
0
 91
1
 92
3
 72
0
 73
1
 93
4
 10
7.05
 20
6.33
 10
7.3
 20
6.33
 10
7.3
 20
6.44
 10
7.05
 20
6.44
 97
0
 75
0
 76
1
 98
0
  0
LWPOLYLINE
  5
172
330
17
100
AcDbEntity
  8
C-SITE
100
AcDbPolyline
 90
4
 70
1
 10
7.05
 20
6.33
 10
7.3
 20
6.33
 10
7.3
 20
6.44
 10
7.05
 20
6.44
  0
TEXT
  5
173
330
17
100
AcDbEntity
  8
A-ANNO-TEXT
100
AcDbText
 10
7.37
 20
6.345
 30
0.0
 40
0.054000000000000006
  1
Service drive / apron (diagram)
  7
KS-REG
 11
7.37
 21
6.345
 31
0.0
100
AcDbText
  0
HATCH
  5
174
330
17
100
AcDbEntity
  8
C-SITE
 62
7
420
13619151
100
AcDbHatch
 10
0.0
 20
0.0
 30
0.0
210
0.0
220
0.0
230
1.0
  2
SOLID
 70
1
 71
0
 91
1
 92
3
 72
0
 73
1
 93
4
 10
7.05
 20
6.159999999999999
 10
7.3
 20
6.159999999999999
 10
7.3
 20
6.27
 10
7.05
 20
6.27
 97
0
 75
0
 76
1
 98
0
  0
LWPOLYLINE
  5
175
330
17
100
AcDbEntity
  8
C-SITE
100
AcDbPolyline
 90
4
 70
1
 10
7.05
 20
6.159999999999999
 10
7.3
 20
6.159999999999999
 10
7.3
 20
6.27
 10
7.05
 20
6.27
  0
TEXT
  5
176
330
17
100
AcDbEntity
  8
A-ANNO-TEXT
100
AcDbText
 10
7.37
 20
6.174999999999999
 30
0.0
 40
0.054000000000000006
  1
Bus drop loop (diagram)
  7
KS-REG
 11
7.37
 21
6.174999999999999
 31
0.0
100
AcDbText
  0
HATCH
  5
177
330
17
100
AcDbEntity
  8
C-SITE
 62
7
420
13224393
100
AcDbHatch
 10
0.0
 20
0.0
 30
0.0
210
0.0
220
0.0
230
1.0
  2
SOLID
 70
1
 71
0
 91
1
 92
3
 72
0
 73
1
 93
4
 10
7.05
 20
5.989999999999999
 10
7.3
 20
5.989999999999999
 10
7.3
 20
6.1
 10
7.05
 20
6.1
 97
0
 75
0
 76
1
 98
0
  0
LWPOLYLINE
  5
178
330
17
100
AcDbEntity
  8
C-SITE
100
AcDbPolyline
 90
4
 70
1
 10
7.05
 20
5.989999999999999
 10
7.3
 20
5.989999999999999
 10
7.3
 20
6.1
 10
7.05
 20
6.1
  0
TEXT
  5
179
330
17
100
AcDbEntity
  8
A-ANNO-TEXT
100
AcDbText
 10
7.37
 20
6.004999999999999
 30
0.0
 40
0.054000000000000006
  1
Road (assumed)
  7
KS-REG
 11
7.37
 21
6.004999999999999
 31
0.0
100
AcDbText
  0
HATCH
  5
17A
330
17
100
AcDbEntity
  8
C-SITE
 62
7
420
13369344
100
AcDbHatch
 10
0.0
 20
0.0
 30
0.0
210
0.0
220
0.0
230
1.0
  2
SOLID
 70
1
 71
0
 91
1
 92
3
 72
0
 73
1
 93
4
 10
7.05
 20
5.819999999999999
 10
7.3
 20
5.819999999999999
 10
7.3
 20
5.93
 10
7.05
 20
5.93
 97
0
 75
0
 76
1
 98
0
  0
LWPOLYLINE
  5
17B
330
17
100
AcDbEntity
  8
C-SITE
100
AcDbPolyline
 90
4
 70
1
 10
7.05
 20
5.819999999999999
 10
7.3
 20
5.819999999999999
 10
7.3
 20
5.93
 10
7.05
 20
5.93
  0
TEXT
  5
17C
330
17
100
AcDbEntity
  8
A-ANNO-TEXT
100
AcDbText
 10
7.37
 20
5.834999999999999
 30
0.0
 40
0.054000000000000006
  1
E1 main entry / S1 service door
  7
KS-REG
 11
7.37
 21
5.834999999999999
 31
0.0
100
AcDbText
  0
TEXT
  5
17D
330
17
100
AcDbEntity
  8
A-ANNO-TEXT
100
AcDbText
 10
10.35
 20
10.2
 30
0.0
 40
0.06799999999999999
  1
SIZE — D-057 (no cap, no margin; D-056)
  7
KS-BOLD
 11
10.35
 21
10.2
 31
0.0
100
AcDbText
  0
TEXT
  5
17E
330
17
100
AcDbEntity
  8
A-ANNO-TEXT
100
AcDbText
 10
10.35
 20
10.04
 30
0.0
 40
0.054000000000000006
  1

  7
KS-BOLD
 11
10.35
 21
10.04
 31
0.0
100
AcDbText
  0
TEXT
  5
17F
330
17
100
AcDbEntity
  8
A-ANNO-TEXT
100
AcDbText
 10
12.649999999999999
 20
10.04
 30
0.0
 40
0.054000000000000006
  1
DRAWN Rev H
  7
KS-BOLD
 72
2
 11
12.649999999999999
 21
10.04
 31
0.0
100
AcDbText
  0
TEXT
  5
180
330
17
100
AcDbEntity
  8
A-ANNO-TEXT
100
AcDbText
 10
13.55
 20
10.04
 30
0.0
 40
0.054000000000000006
  1
REV G drawn
  7
KS-BOLD
 72
2
 11
13.55
 21
10.04
 31
0.0
100
AcDbText
  0
TEXT
  5
181
330
17
100
AcDbEntity
  8
A-ANNO-TEXT
100
AcDbText
 10
14.399999999999999
 20
10.04
 30
0.0
 40
0.054000000000000006
  1
CHANGE
  7
KS-BOLD
 72
2
 11
14.399999999999999
 21
10.04
 31
0.0
100
AcDbText
  0
TEXT
  5
182
330
17
100
AcDbEntity
  8
A-ANNO-TEXT
100
AcDbText
 10
15.399999999999999
 20
10.04
 30
0.0
 40
0.054000000000000006
  1
PROGRAM J
  7
KS-BOLD
 72
2
 11
15.399999999999999
 21
10.04
 31
0.0
100
AcDbText
  0
TEXT
  5
183
330
17
100
AcDbEntity
  8
A-ANNO-TEXT
100
AcDbText
 10
16.4
 20
10.04
 30
0.0
 40
0.054000000000000006
  1
DRAWN − PROG.
  7
KS-BOLD
 72
2
 11
16.4
 21
10.04
 31
0.0
100
AcDbText
  0
LINE
  5
184
330
17
100
AcDbEntity
  8
A-ANNO-TEXT
100
AcDbLine
 10
10.35
 20
10.0
 30
0.0
 11
16.4
 21
10.0
 31
0.0
  0
TEXT
  5
185
330
17
100
AcDbEntity
  8
A-ANNO-TEXT
100
AcDbText
 10
10.35
 20
9.85
 30
0.0
 40
0.054000000000000006
  1
L1 FOOTPRINT
  7
KS-BOLD
 11
10.35
 21
9.85
 31
0.0
100
AcDbText
  0
TEXT
  5
186
330
17
100
AcDbEntity
  8
A-ANNO-TEXT
100
AcDbText
 10
12.649999999999999
 20
9.85
 30
0.0
 40
0.054000000000000006
  1
55,180.6
  7
KS-BOLD
 72
2
 11
12.649999999999999
 21
9.85
 31
0.0
100
AcDbText
  0
TEXT
  5
187
330
17
100
AcDbEntity
  8
A-ANNO-TEXT
100
AcDbText
 10
13.55
 20
9.85
 30
0.0
 40
0.054000000000000006
  1
53,080.6
  7
KS-REG
 72
2
 11
13.55
 21
9.85
 31
0.0
100
AcDbText
  0
TEXT
  5
188
330
17
100
AcDbEntity
  8
A-ANNO-TEXT
100
AcDbText
 10
14.399999999999999
 20
9.85
 30
0.0
 40
0.054000000000000006
  1
+2,100.0
  7
KS-REG
 72
2
 11
14.399999999999999
 21
9.85
 31
0.0
100
AcDbText
  0
TEXT
  5
189
330
17
100
AcDbEntity
  8
A-ANNO-TEXT
100
AcDbText
 10
15.399999999999999
 20
9.85
 30
0.0
 40
0.054000000000000006
  1
56,515.1
  7
KS-REG
 72
2
 11
15.399999999999999
 21
9.85
 31
0.0
100
AcDbText
  0
TEXT
  5
18A
330
17
100
AcDbEntity
  8
A-ANNO-TEXT
100
AcDbText
 10
16.4
 20
9.85
 30
0.0
 40
0.054000000000000006
  1
−1,334.5
  7
KS-REG
 72
2
 11
16.4
 21
9.85
 31
0.0
100
AcDbText
  0
TEXT
  5
18B
330
17
100
AcDbEntity
  8
A-ANNO-TEXT
100
AcDbText
 10
10.35
 20
9.7
 30
0.0
 40
0.054000000000000006
  1
L2 AREA
  7
KS-BOLD
 11
10.35
 21
9.7
 31
0.0
100
AcDbText
  0
TEXT
  5
18C
330
17
100
AcDbEntity
  8
A-ANNO-TEXT
100
AcDbText
 10
12.649999999999999
 20
9.7
 30
0.0
 40
0.054000000000000006
  1
28,932.6
  7
KS-BOLD
 72
2
 11
12.649999999999999
 21
9.7
 31
0.0
100
AcDbText
  0
TEXT
  5
18D
330
17
100
AcDbEntity
  8
A-ANNO-TEXT
100
AcDbText
 10
13.55
 20
9.7
 30
0.0
 40
0.054000000000000006
  1
28,932.6
  7
KS-REG
 72
2
 11
13.55
 21
9.7
 31
0.0
100
AcDbText
  0
TEXT
  5
18E
330
17
100
AcDbEntity
  8
A-ANNO-TEXT
100
AcDbText
 10
14.399999999999999
 20
9.7
 30
0.0
 40
0.054000000000000006
  1
±0.0
  7
KS-REG
 72
2
 11
14.399999999999999
 21
9.7
 31
0.0
100
AcDbText
  0
TEXT
  5
18F
330
17
100
AcDbEntity
  8
A-ANNO-TEXT
100
AcDbText
 10
15.399999999999999
 20
9.7
 30
0.0
 40
0.054000000000000006
  1
28,186.3
  7
KS-REG
 72
2
 11
15.399999999999999
 21
9.7
 31
0.0
100
AcDbText
  0
TEXT
  5
190
330
17
100
AcDbEntity
  8
A-ANNO-TEXT
100
AcDbText
 10
16.4
 20
9.7
 30
0.0
 40
0.054000000000000006
  1
+746.3
  7
KS-REG
 72
2
 11
16.4
 21
9.7
 31
0.0
100
AcDbText
  0
TEXT
  5
191
330
17
100
AcDbEntity
  8
A-ANNO-TEXT
100
AcDbText
 10
10.35
 20
9.549999999999999
 30
0.0
 40
0.054000000000000006
  1
TOTAL GSF
  7
KS-BOLD
 11
10.35
 21
9.549999999999999
 31
0.0
100
AcDbText
  0
TEXT
  5
192
330
17
100
AcDbEntity
  8
A-ANNO-TEXT
100
AcDbText
 10
12.649999999999999
 20
9.549999999999999
 30
0.0
 40
0.054000000000000006
  1
84,113.1
  7
KS-BOLD
 72
2
 11
12.649999999999999
 21
9.549999999999999
 31
0.0
100
AcDbText
  0
TEXT
  5
193
330
17
100
AcDbEntity
  8
A-ANNO-TEXT
100
AcDbText
 10
13.55
 20
9.549999999999999
 30
0.0
 40
0.054000000000000006
  1
82,013.1
  7
KS-BOLD
 72
2
 11
13.55
 21
9.549999999999999
 31
0.0
100
AcDbText
  0
TEXT
  5
194
330
17
100
AcDbEntity
  8
A-ANNO-TEXT
100
AcDbText
 10
14.399999999999999
 20
9.549999999999999
 30
0.0
 40
0.054000000000000006
  1
+2,100.0
  7
KS-BOLD
 72
2
 11
14.399999999999999
 21
9.549999999999999
 31
0.0
100
AcDbText
  0
TEXT
  5
195
330
17
100
AcDbEntity
  8
A-ANNO-TEXT
100
AcDbText
 10
15.399999999999999
 20
9.549999999999999
 30
0.0
 40
0.054000000000000006
  1
84,701.4
  7
KS-BOLD
 72
2
 11
15.399999999999999
 21
9.549999999999999
 31
0.0
100
AcDbText
  0
TEXT
  5
196
330
17
100
AcDbEntity
  8
A-ANNO-TEXT
100
AcDbText
 10
16.4
 20
9.549999999999999
 30
0.0
 40
0.054000000000000006
  1
−588.2
  7
KS-BOLD
 72
2
 11
16.4
 21
9.549999999999999
 31
0.0
100
AcDbText
  0
LINE
  5
197
330
17
100
AcDbEntity
  8
A-ANNO-TEXT
100
AcDbLine
 10
10.35
 20
9.499999999999998
 30
0.0
 11
16.4
 21
9.499999999999998
 31
0.0
  0
TEXT
  5
198
330
17
100
AcDbEntity
  8
A-ANNO-TEXT
100
AcDbText
 10
10.35
 20
9.378533333333333
 30
0.0
 40
0.056
  1
Drawn = P2-A-101/102 Rev H (L2 = L1 minus open-to-below; L2 unchanged). Program = P2-G-003 Rev J: footprint = the larger of L1 gross and
  7
KS-REG
 11
10.35
 21
9.378533333333333
 31
0.0
100
AcDbText
  0
TEXT
  5
199
330
17
100
AcDbEntity
  8
A-ANNO-TEXT
100
AcDbText
 10
10.35
 20
9.275866666666667
 30
0.0
 40
0.056
  1
arena volume + L2, plus L2 gross; Rev J adds the storage room gross. The change is the one-storey storage annex 70' x 30' = 2,100 SF
  7
KS-REG
 11
10.35
 21
9.275866666666667
 31
0.0
100
AcDbText
  0
TEXT
  5
19A
330
17
100
AcDbEntity
  8
A-ANNO-TEXT
100
AcDbText
 10
10.35
 20
9.173200000000001
 30
0.0
 40
0.056
  1
(D-067). Size is set by budget and parcel (D-012, D-006).
  7
KS-REG
 11
10.35
 21
9.173200000000001
 31
0.0
100
AcDbText
  0
TEXT
  5
19B
330
17
100
AcDbEntity
  8
A-ANNO-TEXT
100
AcDbText
 10
10.35
 20
8.995066666666668
 30
0.0
 40
0.062
  1
STATUS
  7
KS-BOLD
 11
10.35
 21
8.995066666666668
 31
0.0
100
AcDbText
  0
TEXT
  5
19C
330
17
100
AcDbEntity
  8
A-ANNO-TEXT
100
AcDbText
 10
10.35
 20
8.857883333333334
 30
0.0
 40
0.059
  1
•
  7
KS-REG
 11
10.35
 21
8.857883333333334
 31
0.0
100
AcDbText
  0
TEXT
  5
19D
330
17
100
AcDbEntity
  8
A-ANNO-TEXT
100
AcDbText
 10
10.45
 20
8.857883333333334
 30
0.0
 40
0.059
  1
SITE TBD (D-006): this is a layout diagram, not a site plan for permit. Parcel, property lines, setbacks, grading, parking count, utilities and
  7
KS-REG
 11
10.45
 21
8.857883333333334
 31
0.0
100
AcDbText
  0
TEXT
  5
19E
330
17
100
AcDbEntity
  8
A-ANNO-TEXT
100
AcDbText
 10
10.45
 20
8.749716666666666
 30
0.0
 40
0.059
  1
stormwater are TBD. AHJ (R-006): Madison County Inspection Department if the parcel is unincorporated (Hazel Green is); the county states no
  7
KS-REG
 11
10.45
 21
8.749716666666666
 31
0.0
100
AcDbText
  0
TEXT
  5
19F
330
17
100
AcDbEntity
  8
A-ANNO-TEXT
100
AcDbText
 10
10.45
 20
8.641549999999999
 30
0.0
 40
0.059
  1
zoning limits on construction; county codes 2018 IBC / IFC / NFPA 101; State Fire Marshal 2021 IFC.
  7
KS-REG
 11
10.45
 21
8.641549999999999
 31
0.0
100
AcDbText
  0
TEXT
  5
1A0
330
17
100
AcDbEntity
  8
A-ANNO-TEXT
100
AcDbText
 10
10.35
 20
8.461441666666666
 30
0.0
 40
0.062
  1
ENTRY + EXIT DISCHARGE (D-066 DECIDED, Shane 1:22 PM CT)
  7
KS-BOLD
 11
10.35
 21
8.461441666666666
 31
0.0
100
AcDbText
  0
TEXT
  5
1A1
330
17
100
AcDbEntity
  8
A-ANNO-TEXT
100
AcDbText
 10
10.35
 20
8.324258333333331
 30
0.0
 40
0.059
  1
•
  7
KS-REG
 11
10.35
 21
8.324258333333331
 31
0.0
100
AcDbText
  0
TEXT
  5
1A2
330
17
100
AcDbEntity
  8
A-ANNO-TEXT
100
AcDbText
 10
10.45
 20
8.324258333333331
 30
0.0
 40
0.059
  1
Freestanding limestone portal over the walk (D-043), 50' max (D-050), 44' wide x 6' deep with 8' piers and a 28' arch (ASSUMED), 30' south of
  7
KS-REG
 11
10.45
 21
8.324258333333331
 31
0.0
100
AcDbText
  0
TEXT
  5
1A3
330
17
100
AcDbEntity
  8
A-ANNO-TEXT
100
AcDbText
 10
10.45
 20
8.216091666666664
 30
0.0
 40
0.059
  1
the E1 doors (D-046). Champion Walk 28' x 30' brick (D-046) + a 6' band each side = 40' at the doors = 480 in ≥ 467.0 in (E1 at the standing
  7
KS-REG
 11
10.45
 21
8.216091666666664
 31
0.0
100
AcDbText
  0
TEXT
  5
1A4
330
17
100
AcDbEntity
  8
A-ANNO-TEXT
100
AcDbText
 10
10.45
 20
8.107924999999996
 30
0.0
 40
0.059
  1
margin, P2-G-002 Rev B; IBC 2021 1028.3). At the portal the bands pass outside both piers: 6 + 28 + 6 = 40'. Bands paved now, could be brick
  7
KS-REG
 11
10.45
 21
8.107924999999996
 31
0.0
100
AcDbText
  0
TEXT
  5
1A5
330
17
100
AcDbEntity
  8
A-ANNO-TEXT
100
AcDbText
 10
10.45
 20
7.999758333333331
 30
0.0
 40
0.059
  1
later (D-044). Band shape between doors and portal ASSUMED. Dashed: later extension to parking.
  7
KS-REG
 11
10.45
 21
7.999758333333331
 31
0.0
100
AcDbText
  0
TEXT
  5
1A6
330
17
100
AcDbEntity
  8
A-ANNO-TEXT
100
AcDbText
 10
10.35
 20
7.8196499999999975
 30
0.0
 40
0.062
  1
BUS + SERVICE (D-034 DECIDED defaults)
  7
KS-BOLD
 11
10.35
 21
7.8196499999999975
 31
0.0
100
AcDbText
  0
TEXT
  5
1A7
330
17
100
AcDbEntity
  8
A-ANNO-TEXT
100
AcDbText
 10
10.35
 20
7.682466666666664
 30
0.0
 40
0.059
  1
•
  7
KS-REG
 11
10.35
 21
7.682466666666664
 31
0.0
100
AcDbText
  0
TEXT
  5
1A8
330
17
100
AcDbEntity
  8
A-ANNO-TEXT
100
AcDbText
 10
10.45
 20
7.682466666666664
 30
0.0
 40
0.059
  1
South bus drop loop offset EAST so it does not block the portal view (west is equally allowed). Drop curb links to the walk's south end. Service /
  7
KS-REG
 11
10.45
 21
7.682466666666664
 31
0.0
100
AcDbText
  0
TEXT
  5
1A9
330
17
100
AcDbEntity
  8
A-ANNO-TEXT
100
AcDbText
 10
10.45
 20
7.574299999999997
 30
0.0
 40
0.059
  1
deliveries at S1, now on the storage annex's north wall (same x, 30' further north); the west-side drive and apron move north with it. Loop, drive
  7
KS-REG
 11
10.45
 21
7.574299999999997
 31
0.0
100
AcDbText
  0
TEXT
  5
1AA
330
17
100
AcDbEntity
  8
A-ANNO-TEXT
100
AcDbText
 10
10.45
 20
7.466133333333331
 30
0.0
 40
0.059
  1
and apron are diagrams: lane widths, turning templates and apron size TBD (civil).
  7
KS-REG
 11
10.45
 21
7.466133333333331
 31
0.0
100
AcDbText
  0
TEXT
  5
1AB
330
17
100
AcDbEntity
  8
A-ANNO-TEXT
100
AcDbText
 10
10.35
 20
7.286024999999998
 30
0.0
 40
0.062
  1
BUILDING (AS DRAWN ON P2-A-101 REV H)
  7
KS-BOLD
 11
10.35
 21
7.286024999999998
 31
0.0
100
AcDbText
  0
TEXT
  5
1AC
330
17
100
AcDbEntity
  8
A-ANNO-TEXT
100
AcDbText
 10
10.35
 20
7.148841666666664
 30
0.0
 40
0.059
  1
•
  7
KS-REG
 11
10.35
 21
7.148841666666664
 31
0.0
100
AcDbText
  0
TEXT
  5
1AD
330
17
100
AcDbEntity
  8
A-ANNO-TEXT
100
AcDbText
 10
10.45
 20
7.148841666666664
 30
0.0
 40
0.059
  1
210' x 252' (unchanged) + NE stair tower + storage annex 70' x 30' on the north wall between X4 and X5, one storey (height ASSUMED, D-067).
  7
KS-REG
 11
10.45
 21
7.148841666666664
 31
0.0
100
AcDbText
  0
TEXT
  5
1AE
330
17
100
AcDbEntity
  8
A-ANNO-TEXT
100
AcDbText
 10
10.45
 20
7.040674999999998
 30
0.0
 40
0.059
  1
Chairs, tables and stage carts roll from the annex to the floor through equipment storage and the athlete corridor (P2-A-103 Rev B).
  7
KS-REG
 11
10.45
 21
7.040674999999998
 31
0.0
100
AcDbText
  0
TEXT
  5
1AF
330
17
100
AcDbEntity
  8
A-ANNO-TEXT
100
AcDbText
 10
10.35
 20
6.8605666666666645
 30
0.0
 40
0.062
  1
FIRE ACCESS / WATER (TBD)
  7
KS-BOLD
 11
10.35
 21
6.8605666666666645
 31
0.0
100
AcDbText
  0
TEXT
  5
1B0
330
17
100
AcDbEntity
  8
A-ANNO-TEXT
100
AcDbText
 10
10.35
 20
6.723383333333331
 30
0.0
 40
0.059
  1
•
  7
KS-REG
 11
10.35
 21
6.723383333333331
 31
0.0
100
AcDbText
  0
TEXT
  5
1B1
330
17
100
AcDbEntity
  8
A-ANNO-TEXT
100
AcDbText
 10
10.45
 20
6.723383333333331
 30
0.0
 40
0.059
  1
Fire apparatus access roads, hydrants and fire flow per IFC Appendices B, C, D (State Fire Marshal, 2021 IFC; D107 recommended) and the
  7
KS-REG
 11
10.45
 21
6.723383333333331
 31
0.0
100
AcDbText
  0
TEXT
  5
1B2
330
17
100
AcDbEntity
  8
A-ANNO-TEXT
100
AcDbText
 10
10.45
 20
6.615216666666664
 30
0.0
 40
0.059
  1
county's 2018 IFC. Exit discharge from X1-X10 to a public way (IBC 1028) TBD with the parcel.
  7
KS-REG
 11
10.45
 21
6.615216666666664
 31
0.0
100
AcDbText
  0
ENDSEC
  0
SECTION
  2
OBJECTS
  0
DICTIONARY
  5
A
330
0
100
AcDbDictionary
281
1
  3
ACAD_COLOR
350
B
  3
ACAD_GROUP
350
C
  3
ACAD_LAYOUT
350
D
  3
ACAD_MATERIAL
350
E
  3
ACAD_MLEADERSTYLE
350
F
  3
ACAD_MLINESTYLE
350
10
  3
ACAD_PLOTSETTINGS
350
11
  3
ACAD_PLOTSTYLENAME
350
12
  3
ACAD_SCALELIST
350
14
  3
ACAD_TABLESTYLE
350
15
  3
ACAD_VISUALSTYLE
350
16
  3
EZDXF_META
350
2D
  0
DICTIONARY
  5
B
330
A
100
AcDbDictionary
281
1
  0
DICTIONARY
  5
C
330
A
100
AcDbDictionary
281
1
  0
DICTIONARY
  5
D
330
A
100
AcDbDictionary
281
1
  3
Model
350
1A
  3
Layout1
350
1E
  0
DICTIONARY
  5
E
330
A
100
AcDbDictionary
281
1
  3
ByBlock
350
1F
  3
ByLayer
350
20
  3
Global
350
21
  0
DICTIONARY
  5
F
330
A
100
AcDbDictionary
281
1
  3
Standard
350
2C
  0
DICTIONARY
  5
10
330
A
100
AcDbDictionary
281
1
  3
Standard
350
22
  0
DICTIONARY
  5
11
330
A
100
AcDbDictionary
281
1
  0
ACDBDICTIONARYWDFLT
  5
12
330
A
100
AcDbDictionary
281
1
  3
Normal
350
13
100
AcDbDictionaryWithDefault
340
13
  0
ACDBPLACEHOLDER
  5
13
330
12
  0
DICTIONARY
  5
14
330
A
100
AcDbDictionary
281
1
  0
DICTIONARY
  5
15
330
A
100
AcDbDictionary
281
1
  0
DICTIONARY
  5
16
330
A
100
AcDbDictionary
281
1
  0
LAYOUT
  5
1A
330
D
100
AcDbPlotSettings
  1

  4
A3
  6

 40
7.5
 41
20.0
 42
7.5
 43
20.0
 44
420.0
 45
297.0
 46
0.0
 47
0.0
 48
0.0
 49
0.0
140
0.0
141
0.0
142
1.0
143
1.0
 70
1024
 72
1
 73
0
 74
5
  7

 75
16
 76
0
 77
2
 78
300
147
1.0
148
0.0
149
0.0
100
AcDbLayout
  1
Model
 70
1
 71
0
 10
0.0
 20
0.0
 11
420.0
 21
297.0
 12
0.0
 22
0.0
 32
0.0
 14
1e+20
 24
1e+20
 34
1e+20
 15
-1e+20
 25
-1e+20
 35
-1e+20
146
0.0
 13
0.0
 23
0.0
 33
0.0
 16
1.0
 26
0.0
 36
0.0
 17
0.0
 27
1.0
 37
0.0
 76
1
330
17
  0
LAYOUT
  5
1E
330
D
100
AcDbPlotSettings
  1

  4
A3
  6

 40
7.5
 41
20.0
 42
7.5
 43
20.0
 44
420.0
 45
297.0
 46
0.0
 47
0.0
 48
0.0
 49
0.0
140
0.0
141
0.0
142
1.0
143
1.0
 70
0
 72
1
 73
0
 74
5
  7

 75
16
 76
0
 77
2
 78
300
147
1.0
148
0.0
149
0.0
100
AcDbLayout
  1
Layout1
 70
1
 71
1
 10
0.0
 20
0.0
 11
420.0
 21
297.0
 12
0.0
 22
0.0
 32
0.0
 14
1e+20
 24
1e+20
 34
1e+20
 15
-1e+20
 25
-1e+20
 35
-1e+20
146
0.0
 13
0.0
 23
0.0
 33
0.0
 16
1.0
 26
0.0
 36
0.0
 17
0.0
 27
1.0
 37
0.0
 76
1
330
1B
  0
MATERIAL
  5
1F
102
{ACAD_REACTORS
330
E
102
}
330
E
100
AcDbMaterial
  1
ByBlock
  2

 70
0
 40
1.0
 71
1
 41
1.0
 91
-1023410177
 42
1.0
 72
1
  3

 73
1
 74
1
 75
1
 44
0.5
 73
0
 45
1.0
 46
1.0
 77
1
  4

 78
1
 79
1
170
1
 48
1.0
171
1
  6

172
1
173
1
174
1
140
1.0
141
1.0
175
1
  7

176
1
177
1
178
1
143
1.0
179
1
  8

270
1
271
1
272
1
145
1.0
146
1.0
273
1
  9

274
1
275
1
276
1
 42
1.0
 72
1
  3

 73
1
 74
1
 75
1
 94
63
  0
MATERIAL
  5
20
102
{ACAD_REACTORS
330
E
102
}
330
E
100
AcDbMaterial
  1
ByLayer
  2

 70
0
 40
1.0
 71
1
 41
1.0
 91
-1023410177
 42
1.0
 72
1
  3

 73
1
 74
1
 75
1
 44
0.5
 73
0
 45
1.0
 46
1.0
 77
1
  4

 78
1
 79
1
170
1
 48
1.0
171
1
  6

172
1
173
1
174
1
140
1.0
141
1.0
175
1
  7

176
1
177
1
178
1
143
1.0
179
1
  8

270
1
271
1
272
1
145
1.0
146
1.0
273
1
  9

274
1
275
1
276
1
 42
1.0
 72
1
  3

 73
1
 74
1
 75
1
 94
63
  0
MATERIAL
  5
21
102
{ACAD_REACTORS
330
E
102
}
330
E
100
AcDbMaterial
  1
Global
  2

 70
0
 40
1.0
 71
1
 41
1.0
 91
-1023410177
 42
1.0
 72
1
  3

 73
1
 74
1
 75
1
 44
0.5
 73
0
 45
1.0
 46
1.0
 77
1
  4

 78
1
 79
1
170
1
 48
1.0
171
1
  6

172
1
173
1
174
1
140
1.0
141
1.0
175
1
  7

176
1
177
1
178
1
143
1.0
179
1
  8

270
1
271
1
272
1
145
1.0
146
1.0
273
1
  9

274
1
275
1
276
1
 42
1.0
 72
1
  3

 73
1
 74
1
 75
1
 94
63
  0
MLINESTYLE
  5
22
102
{ACAD_REACTORS
330
10
102
}
330
10
100
AcDbMlineStyle
  2
Standard
 70
0
  3

 62
256
 51
90.0
 52
90.0
 71
2
 49
0.5
 62
256
  6
BYLAYER
 49
-0.5
 62
256
  6
BYLAYER
  0
MLEADERSTYLE
  5
2C
102
{ACAD_REACTORS
330
F
102
}
330
F
100
AcDbMLeaderStyle
179
2
170
2
171
1
172
0
 90
2
 40
0.0
 41
0.0
173
1
 91
-1056964608
 92
-2
290
1
 42
2.0
291
1
 43
8.0
  3
Standard
 44
4.0
300

342
29
174
1
175
1
176
0
178
1
 93
-1056964608
 45
4.0
292
0
297
0
 46
4.0
 94
-1056964608
 47
1.0
 49
1.0
140
1.0
294
1
141
0.0
177
0
142
1.0
295
0
296
0
143
3.75
271
0
272
9
273
9
  0
DICTIONARY
  5
2D
330
A
100
AcDbDictionary
280
1
281
1
  3
CREATED_BY_EZDXF
350
2E
  3
WRITTEN_BY_EZDXF
350
1B5
  0
DICTIONARYVAR
  5
2E
330
2D
100
DictionaryVariables
280
0
  1
1.4.4 @ 2026-10-04T18:55:19.940433+00:00
  0
DICTIONARYVAR
  5
1B5
330
2D
100
DictionaryVariables
280
0
  1
1.4.4 @ 2026-10-04T18:55:19.949567+00:00
  0
ENDSEC
  0
EOF
