  0
SECTION
  2
HEADER
  9
$ACADVER
  1
AC1024
  9
$ACADMAINTVER
 70
6
  9
$DWGCODEPAGE
  3
ANSI_1252
  9
$LASTSAVEDBY
  1
ezdxf
  9
$INSBASE
 10
0.0
 20
0.0
 30
0.0
  9
$EXTMIN
 10
1e+20
 20
1e+20
 30
1e+20
  9
$EXTMAX
 10
-1e+20
 20
-1e+20
 30
-1e+20
  9
$LIMMIN
 10
0.0
 20
0.0
  9
$LIMMAX
 10
420.0
 20
297.0
  9
$ORTHOMODE
 70
0
  9
$REGENMODE
 70
1
  9
$FILLMODE
 70
1
  9
$QTEXTMODE
 70
0
  9
$MIRRTEXT
 70
1
  9
$LTSCALE
 40
1.0
  9
$ATTMODE
 70
1
  9
$TEXTSIZE
 40
2.5
  9
$TRACEWID
 40
1.0
  9
$TEXTSTYLE
  7
Standard
  9
$CLAYER
  8
0
  9
$CELTYPE
  6
ByLayer
  9
$CECOLOR
 62
256
  9
$CELTSCALE
 40
1.0
  9
$DISPSILH
 70
0
  9
$DIMSCALE
 40
1.0
  9
$DIMASZ
 40
2.5
  9
$DIMEXO
 40
0.625
  9
$DIMDLI
 40
3.75
  9
$DIMRND
 40
0.0
  9
$DIMDLE
 40
0.0
  9
$DIMEXE
 40
1.25
  9
$DIMTP
 40
0.0
  9
$DIMTM
 40
0.0
  9
$DIMTXT
 40
2.5
  9
$DIMCEN
 40
2.5
  9
$DIMTSZ
 40
0.0
  9
$DIMTOL
 70
0
  9
$DIMLIM
 70
0
  9
$DIMTIH
 70
0
  9
$DIMTOH
 70
0
  9
$DIMSE1
 70
0
  9
$DIMSE2
 70
0
  9
$DIMTAD
 70
1
  9
$DIMZIN
 70
8
  9
$DIMBLK
  1

  9
$DIMASO
 70
1
  9
$DIMSHO
 70
1
  9
$DIMPOST
  1

  9
$DIMAPOST
  1

  9
$DIMALT
 70
0
  9
$DIMALTD
 70
3
  9
$DIMALTF
 40
0.03937007874
  9
$DIMLFAC
 40
1.0
  9
$DIMTOFL
 70
1
  9
$DIMTVP
 40
0.0
  9
$DIMTIX
 70
0
  9
$DIMSOXD
 70
0
  9
$DIMSAH
 70
0
  9
$DIMBLK1
  1

  9
$DIMBLK2
  1

  9
$DIMSTYLE
  2
ISO-25
  9
$DIMCLRD
 70
0
  9
$DIMCLRE
 70
0
  9
$DIMCLRT
 70
0
  9
$DIMTFAC
 40
1.0
  9
$DIMGAP
 40
0.625
  9
$DIMJUST
 70
0
  9
$DIMSD1
 70
0
  9
$DIMSD2
 70
0
  9
$DIMTOLJ
 70
0
  9
$DIMTZIN
 70
8
  9
$DIMALTZ
 70
0
  9
$DIMALTTZ
 70
0
  9
$DIMUPT
 70
0
  9
$DIMDEC
 70
2
  9
$DIMTDEC
 70
2
  9
$DIMALTU
 70
2
  9
$DIMALTTD
 70
3
  9
$DIMTXSTY
  7
Standard
  9
$DIMAUNIT
 70
0
  9
$DIMADEC
 70
0
  9
$DIMALTRND
 40
0.0
  9
$DIMAZIN
 70
0
  9
$DIMDSEP
 70
44
  9
$DIMATFIT
 70
3
  9
$DIMFRAC
 70
0
  9
$DIMLDRBLK
  1

  9
$DIMLUNIT
 70
2
  9
$DIMLWD
 70
-2
  9
$DIMLWE
 70
-2
  9
$DIMTMOVE
 70
0
  9
$DIMFXL
 40
1.0
  9
$DIMFXLON
 70
0
  9
$DIMJOGANG
 40
0.785398163397
  9
$DIMTFILL
 70
0
  9
$DIMTFILLCLR
 70
0
  9
$DIMARCSYM
 70
0
  9
$DIMLTYPE
  6

  9
$DIMLTEX1
  6

  9
$DIMLTEX2
  6

  9
$DIMTXTDIRECTION
 70
0
  9
$LUNITS
 70
2
  9
$LUPREC
 70
4
  9
$SKETCHINC
 40
1.0
  9
$FILLETRAD
 40
10.0
  9
$AUNITS
 70
0
  9
$AUPREC
 70
2
  9
$MENU
  1
.
  9
$ELEVATION
 40
0.0
  9
$PELEVATION
 40
0.0
  9
$THICKNESS
 40
0.0
  9
$LIMCHECK
 70
0
  9
$CHAMFERA
 40
0.0
  9
$CHAMFERB
 40
0.0
  9
$CHAMFERC
 40
0.0
  9
$CHAMFERD
 40
0.0
  9
$SKPOLY
 70
0
  9
$TDCREATE
 40
2461323.40681713
  9
$TDUCREATE
 40
2458532.153996898
  9
$TDUPDATE
 40
2461323.40681713
  9
$TDUUPDATE
 40
2458532.1544311
  9
$TDINDWG
 40
0.0
  9
$TDUSRTIMER
 40
0.0
  9
$USRTIMER
 70
1
  9
$ANGBASE
 50
0.0
  9
$ANGDIR
 70
0
  9
$PDMODE
 70
0
  9
$PDSIZE
 40
0.0
  9
$PLINEWID
 40
0.0
  9
$SPLFRAME
 70
0
  9
$SPLINETYPE
 70
6
  9
$SPLINESEGS
 70
8
  9
$HANDSEED
  5
F0
  9
$SURFTAB1
 70
6
  9
$SURFTAB2
 70
6
  9
$SURFTYPE
 70
6
  9
$SURFU
 70
6
  9
$SURFV
 70
6
  9
$UCSBASE
  2

  9
$UCSNAME
  2

  9
$UCSORG
 10
0.0
 20
0.0
 30
0.0
  9
$UCSXDIR
 10
1.0
 20
0.0
 30
0.0
  9
$UCSYDIR
 10
0.0
 20
1.0
 30
0.0
  9
$UCSORTHOREF
  2

  9
$UCSORTHOVIEW
 70
0
  9
$UCSORGTOP
 10
0.0
 20
0.0
 30
0.0
  9
$UCSORGBOTTOM
 10
0.0
 20
0.0
 30
0.0
  9
$UCSORGLEFT
 10
0.0
 20
0.0
 30
0.0
  9
$UCSORGRIGHT
 10
0.0
 20
0.0
 30
0.0
  9
$UCSORGFRONT
 10
0.0
 20
0.0
 30
0.0
  9
$UCSORGBACK
 10
0.0
 20
0.0
 30
0.0
  9
$PUCSBASE
  2

  9
$PUCSNAME
  2

  9
$PUCSORG
 10
0.0
 20
0.0
 30
0.0
  9
$PUCSXDIR
 10
1.0
 20
0.0
 30
0.0
  9
$PUCSYDIR
 10
0.0
 20
1.0
 30
0.0
  9
$PUCSORTHOREF
  2

  9
$PUCSORTHOVIEW
 70
0
  9
$PUCSORGTOP
 10
0.0
 20
0.0
 30
0.0
  9
$PUCSORGBOTTOM
 10
0.0
 20
0.0
 30
0.0
  9
$PUCSORGLEFT
 10
0.0
 20
0.0
 30
0.0
  9
$PUCSORGRIGHT
 10
0.0
 20
0.0
 30
0.0
  9
$PUCSORGFRONT
 10
0.0
 20
0.0
 30
0.0
  9
$PUCSORGBACK
 10
0.0
 20
0.0
 30
0.0
  9
$USERI1
 70
0
  9
$USERI2
 70
0
  9
$USERI3
 70
0
  9
$USERI4
 70
0
  9
$USERI5
 70
0
  9
$USERR1
 40
0.0
  9
$USERR2
 40
0.0
  9
$USERR3
 40
0.0
  9
$USERR4
 40
0.0
  9
$USERR5
 40
0.0
  9
$WORLDVIEW
 70
1
  9
$SHADEDGE
 70
3
  9
$SHADEDIF
 70
70
  9
$TILEMODE
 70
1
  9
$MAXACTVP
 70
64
  9
$PINSBASE
 10
0.0
 20
0.0
 30
0.0
  9
$PLIMCHECK
 70
0
  9
$PEXTMIN
 10
1e+20
 20
1e+20
 30
1e+20
  9
$PEXTMAX
 10
-1e+20
 20
-1e+20
 30
-1e+20
  9
$PLIMMIN
 10
0.0
 20
0.0
  9
$PLIMMAX
 10
420.0
 20
297.0
  9
$UNITMODE
 70
0
  9
$VISRETAIN
 70
1
  9
$PLINEGEN
 70
0
  9
$PSLTSCALE
 70
1
  9
$TREEDEPTH
 70
3020
  9
$CMLSTYLE
  2
Standard
  9
$CMLJUST
 70
0
  9
$CMLSCALE
 40
20.0
  9
$PROXYGRAPHICS
 70
1
  9
$MEASUREMENT
 70
0
  9
$CELWEIGHT
370
-1
  9
$ENDCAPS
280
0
  9
$JOINSTYLE
280
0
  9
$LWDISPLAY
290
0
  9
$INSUNITS
 70
1
  9
$HYPERLINKBASE
  1

  9
$STYLESHEET
  1

  9
$XEDIT
290
1
  9
$CEPSNTYPE
380
0
  9
$PSTYLEMODE
290
1
  9
$FINGERPRINTGUID
  2
{0FA4D289-196B-4069-8852-2D9DB26A2562}
  9
$VERSIONGUID
  2
{B857F61F-4F72-47C1-BC67-DB1357D575D2}
  9
$EXTNAMES
290
1
  9
$PSVPSCALE
 40
0.0
  9
$OLESTARTUP
290
0
  9
$SORTENTS
280
127
  9
$INDEXCTL
280
0
  9
$HIDETEXT
280
1
  9
$XCLIPFRAME
280
1
  9
$HALOGAP
280
0
  9
$OBSCOLOR
 70
257
  9
$OBSLTYPE
280
0
  9
$INTERSECTIONDISPLAY
280
0
  9
$INTERSECTIONCOLOR
 70
257
  9
$DIMASSOC
280
2
  9
$PROJECTNAME
  1

  9
$CAMERADISPLAY
290
0
  9
$LENSLENGTH
 40
50.0
  9
$CAMERAHEIGHT
 40
0.0
  9
$STEPSPERSEC
 40
24.0
  9
$STEPSIZE
 40
100.0
  9
$3DDWFPREC
 40
2.0
  9
$PSOLWIDTH
 40
0.005
  9
$PSOLHEIGHT
 40
0.08
  9
$LOFTANG1
 40
1.570796326795
  9
$LOFTANG2
 40
1.570796326795
  9
$LOFTMAG1
 40
0.0
  9
$LOFTMAG2
 40
0.0
  9
$LOFTPARAM
 70
7
  9
$LOFTNORMALS
280
1
  9
$LATITUDE
 40
37.795
  9
$LONGITUDE
 40
-122.394
  9
$NORTHDIRECTION
 40
0.0
  9
$TIMEZONE
 70
-8000
  9
$LIGHTGLYPHDISPLAY
280
1
  9
$TILEMODELIGHTSYNCH
280
1
  9
$CMATERIAL
347
20
  9
$SOLIDHIST
280
0
  9
$SHOWHIST
280
1
  9
$DWFFRAME
280
2
  9
$DGNFRAME
280
2
  9
$REALWORLDSCALE
290
1
  9
$INTERFERECOLOR
 62
256
  9
$CSHADOW
280
0
  9
$SHADOWPLANELOCATION
 40
0.0
  0
ENDSEC
  0
SECTION
  2
CLASSES
  0
CLASS
  1
ACDBDICTIONARYWDFLT
  2
AcDbDictionaryWithDefault
  3
ObjectDBX Classes
 90
0
 91
0
280
0
281
0
  0
CLASS
  1
SUN
  2
AcDbSun
  3
SCENEOE
 90
1153
 91
0
280
0
281
0
  0
CLASS
  1
VISUALSTYLE
  2
AcDbVisualStyle
  3
ObjectDBX Classes
 90
4095
 91
0
280
0
281
0
  0
CLASS
  1
MATERIAL
  2
AcDbMaterial
  3
ObjectDBX Classes
 90
1153
 91
0
280
0
281
0
  0
CLASS
  1
SCALE
  2
AcDbScale
  3
ObjectDBX Classes
 90
1153
 91
0
280
0
281
0
  0
CLASS
  1
TABLESTYLE
  2
AcDbTableStyle
  3
ObjectDBX Classes
 90
4095
 91
0
280
0
281
0
  0
CLASS
  1
MLEADERSTYLE
  2
AcDbMLeaderStyle
  3
ACDB_MLEADERSTYLE_CLASS
 90
4095
 91
0
280
0
281
0
  0
CLASS
  1
DICTIONARYVAR
  2
AcDbDictionaryVar
  3
ObjectDBX Classes
 90
0
 91
0
280
0
281
0
  0
CLASS
  1
CELLSTYLEMAP
  2
AcDbCellStyleMap
  3
ObjectDBX Classes
 90
1152
 91
0
280
0
281
0
  0
CLASS
  1
MENTALRAYRENDERSETTINGS
  2
AcDbMentalRayRenderSettings
  3
SCENEOE
 90
1024
 91
0
280
0
281
0
  0
CLASS
  1
ACDBDETAILVIEWSTYLE
  2
AcDbDetailViewStyle
  3
ObjectDBX Classes
 90
1025
 91
0
280
0
281
0
  0
CLASS
  1
ACDBSECTIONVIEWSTYLE
  2
AcDbSectionViewStyle
  3
ObjectDBX Classes
 90
1025
 91
0
280
0
281
0
  0
CLASS
  1
RASTERVARIABLES
  2
AcDbRasterVariables
  3
ISM
 90
0
 91
0
280
0
281
0
  0
CLASS
  1
LAYOUT
  2
AcDbLayout
  3
ObjectDBX Classes
 90
0
 91
0
280
0
281
0
  0
CLASS
  1
ACDBPLACEHOLDER
  2
AcDbPlaceHolder
  3
ObjectDBX Classes
 90
0
 91
0
280
0
281
0
  0
ENDSEC
  0
SECTION
  2
TABLES
  0
TABLE
  2
VPORT
  5
8
330
0
100
AcDbSymbolTable
 70
1
  0
VPORT
  5
23
330
8
100
AcDbSymbolTableRecord
100
AcDbViewportTableRecord
  2
*Active
 70
0
 10
0.0
 20
0.0
 11
1.0
 21
1.0
 12
0.0
 22
0.0
 13
0.0
 23
0.0
 14
0.5
 24
0.5
 15
0.5
 25
0.5
 16
0.0
 26
0.0
 36
1.0
 17
0.0
 27
0.0
 37
0.0
 40
1000.0
 41
1.34
 42
50.0
 43
0.0
 44
0.0
 50
0.0
 51
0.0
 71
0
 72
1000
 73
1
 74
3
 75
0
 76
0
 77
0
 78
0
281
0
 65
0
146
0.0
  0
ENDTAB
  0
TABLE
  2
LTYPE
  5
2
330
0
100
AcDbSymbolTable
 70
3
  0
LTYPE
  5
24
330
2
100
AcDbSymbolTableRecord
100
AcDbLinetypeTableRecord
  2
ByBlock
 70
0
  3

 72
65
 73
0
 40
0.0
  0
LTYPE
  5
25
330
2
100
AcDbSymbolTableRecord
100
AcDbLinetypeTableRecord
  2
ByLayer
 70
0
  3

 72
65
 73
0
 40
0.0
  0
LTYPE
  5
26
330
2
100
AcDbSymbolTableRecord
100
AcDbLinetypeTableRecord
  2
Continuous
 70
0
  3

 72
65
 73
0
 40
0.0
  0
ENDTAB
  0
TABLE
  2
LAYER
  5
1
330
0
100
AcDbSymbolTable
 70
4
  0
LAYER
  5
27
330
1
100
AcDbSymbolTableRecord
100
AcDbLayerTableRecord
  2
0
 70
0
 62
7
  6
Continuous
370
-3
390
13
347
21
  0
LAYER
  5
28
330
1
100
AcDbSymbolTableRecord
100
AcDbLayerTableRecord
  2
Defpoints
 70
0
 62
7
  6
Continuous
290
0
370
-3
390
13
347
21
  0
LAYER
  5
31
330
1
100
AcDbSymbolTableRecord
100
AcDbLayerTableRecord
  2
G-ANNO-TTLB
 70
0
 62
7
  6
Continuous
370
-3
390
13
347
21
  0
LAYER
  5
32
330
1
100
AcDbSymbolTableRecord
100
AcDbLayerTableRecord
  2
A-ANNO-TEXT
 70
0
 62
7
  6
Continuous
370
-3
390
13
347
21
  0
ENDTAB
  0
TABLE
  2
STYLE
  5
5
330
0
100
AcDbSymbolTable
 70
3
  0
STYLE
  5
29
330
5
100
AcDbSymbolTableRecord
100
AcDbTextStyleTableRecord
  2
Standard
 70
0
 40
0.0
 41
1.0
 50
0.0
 71
0
 42
2.5
  3
txt
  4

  0
STYLE
  5
2F
330
5
100
AcDbSymbolTableRecord
100
AcDbTextStyleTableRecord
  2
KS-REG
 70
0
 40
0.0
 41
1.0
 50
0.0
 71
0
 42
2.5
  3
DejaVuSans.ttf
  4

  0
STYLE
  5
30
330
5
100
AcDbSymbolTableRecord
100
AcDbTextStyleTableRecord
  2
KS-BOLD
 70
0
 40
0.0
 41
1.0
 50
0.0
 71
0
 42
2.5
  3
DejaVuSans-Bold.ttf
  4

  0
ENDTAB
  0
TABLE
  2
VIEW
  5
7
330
0
100
AcDbSymbolTable
 70
0
  0
ENDTAB
  0
TABLE
  2
UCS
  5
6
330
0
100
AcDbSymbolTable
 70
0
  0
ENDTAB
  0
TABLE
  2
APPID
  5
3
330
0
100
AcDbSymbolTable
 70
3
  0
APPID
  5
2A
330
3
100
AcDbSymbolTableRecord
100
AcDbRegAppTableRecord
  2
ACAD
 70
0
  0
APPID
  5
ED
330
3
100
AcDbSymbolTableRecord
100
AcDbRegAppTableRecord
  2
HATCHBACKGROUNDCOLOR
 70
0
  0
APPID
  5
EE
330
3
100
AcDbSymbolTableRecord
100
AcDbRegAppTableRecord
  2
EZDXF
 70
0
  0
ENDTAB
  0
TABLE
  2
DIMSTYLE
  5
4
330
0
100
AcDbSymbolTable
 70
1
100
AcDbDimStyleTable
  0
DIMSTYLE
105
2B
330
4
100
AcDbSymbolTableRecord
100
AcDbDimStyleTableRecord
  2
Standard
 70
0
 40
1.0
 41
2.5
 42
0.625
 43
3.75
 44
1.25
 45
0.0
 46
0.0
 47
0.0
 48
0.0
 49
2.5
140
2.5
141
2.5
142
0.0
143
0.03937007874
144
1.0
145
0.0
146
1.0
147
0.625
148
0.0
 69
0
 70
0
 71
0
 72
0
 73
0
 74
0
 75
0
 76
0
 77
1
 78
8
 79
3
170
0
171
3
172
1
173
0
174
0
175
0
176
0
177
0
178
0
179
2
271
2
272
2
273
2
274
3
275
0
276
0
277
2
278
44
279
0
280
0
281
0
282
0
283
0
284
8
285
0
286
0
288
0
289
3
290
0
371
-2
372
-2
  0
ENDTAB
  0
TABLE
  2
BLOCK_RECORD
  5
9
330
0
100
AcDbSymbolTable
 70
2
  0
BLOCK_RECORD
  5
17
330
9
100
AcDbSymbolTableRecord
100
AcDbBlockTableRecord
  2
*Model_Space
340
1A
 70
0
280
1
281
0
  0
BLOCK_RECORD
  5
1B
330
9
100
AcDbSymbolTableRecord
100
AcDbBlockTableRecord
  2
*Paper_Space
340
1E
 70
0
280
1
281
0
  0
ENDTAB
  0
ENDSEC
  0
SECTION
  2
BLOCKS
  0
BLOCK
  5
18
330
17
100
AcDbEntity
  8
0
100
AcDbBlockBegin
  2
*Model_Space
 70
0
 10
0.0
 20
0.0
 30
0.0
  3
*Model_Space
  1

  0
ENDBLK
  5
19
330
17
100
AcDbEntity
  8
0
100
AcDbBlockEnd
  0
BLOCK
  5
1C
330
1B
100
AcDbEntity
  8
0
100
AcDbBlockBegin
  2
*Paper_Space
 70
0
 10
0.0
 20
0.0
 30
0.0
  3
*Paper_Space
  1

  0
ENDBLK
  5
1D
330
1B
100
AcDbEntity
  8
0
100
AcDbBlockEnd
  0
ENDSEC
  0
SECTION
  2
ENTITIES
  0
LWPOLYLINE
  5
33
330
17
100
AcDbEntity
  8
G-ANNO-TTLB
100
AcDbPolyline
 90
4
 70
1
 10
0.5
 20
0.5
 10
16.5
 20
0.5
 10
16.5
 20
10.5
 10
0.5
 20
10.5
  0
LWPOLYLINE
  5
34
330
17
100
AcDbEntity
  8
G-ANNO-TTLB
100
AcDbPolyline
 90
4
 70
1
 10
0.5
 20
1.85
 10
16.5
 20
1.85
 10
16.5
 20
2.35
 10
0.5
 20
2.35
  0
TEXT
  5
35
330
17
100
AcDbEntity
  8
G-ANNO-TTLB
100
AcDbText
 10
8.5
 20
2.02
 30
0.0
 40
0.16999999999999998
  1
PRELIMINARY — CONCEPTUAL DESIGN — NOT FOR CONSTRUCTION
  7
KS-BOLD
 72
1
 11
8.5
 21
2.02
 31
0.0
100
AcDbText
  0
LINE
  5
36
330
17
100
AcDbEntity
  8
G-ANNO-TTLB
100
AcDbLine
 10
0.5
 20
1.85
 30
0.0
 11
16.5
 21
1.85
 31
0.0
  0
TEXT
  5
37
330
17
100
AcDbEntity
  8
G-ANNO-TTLB
100
AcDbText
 10
0.58
 20
1.6800000000000002
 30
0.0
 40
0.06999999999999999
  1
PROJECT
  7
KS-REG
 11
0.58
 21
1.6800000000000002
 31
0.0
100
AcDbText
  0
TEXT
  5
38
330
17
100
AcDbEntity
  8
G-ANNO-TTLB
100
AcDbText
 10
0.58
 20
1.3991666666666667
 30
0.0
 40
0.11499999999999999
  1
Hazel Green Regional Athletic Complex
  7
KS-BOLD
 11
0.58
 21
1.3991666666666667
 31
0.0
100
AcDbText
  0
TEXT
  5
39
330
17
100
AcDbEntity
  8
G-ANNO-TTLB
100
AcDbText
 10
0.58
 20
1.1883333333333332
 30
0.0
 40
0.11499999999999999
  1
Trojan Horse Arena · Hazel Green area, Madison
  7
KS-BOLD
 11
0.58
 21
1.1883333333333332
 31
0.0
100
AcDbText
  0
TEXT
  5
3A
330
17
100
AcDbEntity
  8
G-ANNO-TTLB
100
AcDbText
 10
0.58
 20
0.9774999999999999
 30
0.0
 40
0.11499999999999999
  1
County, Alabama (site TBD, D-006)
  7
KS-BOLD
 11
0.58
 21
0.9774999999999999
 31
0.0
100
AcDbText
  0
LINE
  5
3B
330
17
100
AcDbEntity
  8
G-ANNO-TTLB
100
AcDbLine
 10
5.2
 20
0.5
 30
0.0
 11
5.2
 21
1.85
 31
0.0
  0
TEXT
  5
3C
330
17
100
AcDbEntity
  8
G-ANNO-TTLB
100
AcDbText
 10
5.28
 20
1.6800000000000002
 30
0.0
 40
0.06999999999999999
  1
PHASE
  7
KS-REG
 11
5.28
 21
1.6800000000000002
 31
0.0
100
AcDbText
  0
TEXT
  5
3D
330
17
100
AcDbEntity
  8
G-ANNO-TTLB
100
AcDbText
 10
5.28
 20
1.3716666666666668
 30
0.0
 40
0.13
  1
PHASE 2
  7
KS-BOLD
 11
5.28
 21
1.3716666666666668
 31
0.0
100
AcDbText
  0
LINE
  5
3E
330
17
100
AcDbEntity
  8
G-ANNO-TTLB
100
AcDbLine
 10
6.7
 20
0.5
 30
0.0
 11
6.7
 21
1.85
 31
0.0
  0
TEXT
  5
3F
330
17
100
AcDbEntity
  8
G-ANNO-TTLB
100
AcDbText
 10
6.78
 20
1.6800000000000002
 30
0.0
 40
0.06999999999999999
  1
SHEET TITLE
  7
KS-REG
 11
6.78
 21
1.6800000000000002
 31
0.0
100
AcDbText
  0
TEXT
  5
40
330
17
100
AcDbEntity
  8
G-ANNO-TTLB
100
AcDbText
 10
6.78
 20
1.3991666666666667
 30
0.0
 40
0.11499999999999999
  1
PROGRAM + AREA
  7
KS-BOLD
 11
6.78
 21
1.3991666666666667
 31
0.0
100
AcDbText
  0
TEXT
  5
41
330
17
100
AcDbEntity
  8
G-ANNO-TTLB
100
AcDbText
 10
6.78
 20
1.1883333333333332
 30
0.0
 40
0.11499999999999999
  1
D-082 · D-083 · D-084
  7
KS-BOLD
 11
6.78
 21
1.1883333333333332
 31
0.0
100
AcDbText
  0
LINE
  5
42
330
17
100
AcDbEntity
  8
G-ANNO-TTLB
100
AcDbLine
 10
9.8
 20
0.5
 30
0.0
 11
9.8
 21
1.85
 31
0.0
  0
TEXT
  5
43
330
17
100
AcDbEntity
  8
G-ANNO-TTLB
100
AcDbText
 10
9.88
 20
1.6800000000000002
 30
0.0
 40
0.06999999999999999
  1
SCALE
  7
KS-REG
 11
9.88
 21
1.6800000000000002
 31
0.0
100
AcDbText
  0
TEXT
  5
44
330
17
100
AcDbEntity
  8
G-ANNO-TTLB
100
AcDbText
 10
9.88
 20
1.3716666666666668
 30
0.0
 40
0.13
  1
NTS
  7
KS-BOLD
 11
9.88
 21
1.3716666666666668
 31
0.0
100
AcDbText
  0
LINE
  5
45
330
17
100
AcDbEntity
  8
G-ANNO-TTLB
100
AcDbLine
 10
10.700000000000001
 20
0.5
 30
0.0
 11
10.700000000000001
 21
1.85
 31
0.0
  0
TEXT
  5
46
330
17
100
AcDbEntity
  8
G-ANNO-TTLB
100
AcDbText
 10
10.780000000000001
 20
1.6800000000000002
 30
0.0
 40
0.06999999999999999
  1
DATE
  7
KS-REG
 11
10.780000000000001
 21
1.6800000000000002
 31
0.0
100
AcDbText
  0
TEXT
  5
47
330
17
100
AcDbEntity
  8
G-ANNO-TTLB
100
AcDbText
 10
10.780000000000001
 20
1.3716666666666668
 30
0.0
 40
0.13
  1
October
  7
KS-BOLD
 11
10.780000000000001
 21
1.3716666666666668
 31
0.0
100
AcDbText
  0
TEXT
  5
48
330
17
100
AcDbEntity
  8
G-ANNO-TTLB
100
AcDbText
 10
10.780000000000001
 20
1.1333333333333335
 30
0.0
 40
0.13
  1
2026
  7
KS-BOLD
 11
10.780000000000001
 21
1.1333333333333335
 31
0.0
100
AcDbText
  0
LINE
  5
49
330
17
100
AcDbEntity
  8
G-ANNO-TTLB
100
AcDbLine
 10
12.15
 20
0.5
 30
0.0
 11
12.15
 21
1.85
 31
0.0
  0
TEXT
  5
4A
330
17
100
AcDbEntity
  8
G-ANNO-TTLB
100
AcDbText
 10
12.23
 20
1.6800000000000002
 30
0.0
 40
0.06999999999999999
  1
REV
  7
KS-REG
 11
12.23
 21
1.6800000000000002
 31
0.0
100
AcDbText
  0
TEXT
  5
4B
330
17
100
AcDbEntity
  8
G-ANNO-TTLB
100
AcDbText
 10
12.23
 20
1.3716666666666668
 30
0.0
 40
0.13
  1
M
  7
KS-BOLD
 11
12.23
 21
1.3716666666666668
 31
0.0
100
AcDbText
  0
LINE
  5
4C
330
17
100
AcDbEntity
  8
G-ANNO-TTLB
100
AcDbLine
 10
12.9
 20
0.5
 30
0.0
 11
12.9
 21
1.85
 31
0.0
  0
TEXT
  5
4D
330
17
100
AcDbEntity
  8
G-ANNO-TTLB
100
AcDbText
 10
12.98
 20
1.6800000000000002
 30
0.0
 40
0.06999999999999999
  1
DRAWN BY
  7
KS-REG
 11
12.98
 21
1.6800000000000002
 31
0.0
100
AcDbText
  0
TEXT
  5
4E
330
17
100
AcDbEntity
  8
G-ANNO-TTLB
100
AcDbText
 10
12.98
 20
1.4358333333333335
 30
0.0
 40
0.095
  1
Drawn by KEYSTONE (AI) for
  7
KS-REG
 11
12.98
 21
1.4358333333333335
 31
0.0
100
AcDbText
  0
TEXT
  5
4F
330
17
100
AcDbEntity
  8
G-ANNO-TTLB
100
AcDbText
 10
12.98
 20
1.2616666666666667
 30
0.0
 40
0.095
  1
Shane Brazelton
  7
KS-REG
 11
12.98
 21
1.2616666666666667
 31
0.0
100
AcDbText
  0
LINE
  5
50
330
17
100
AcDbEntity
  8
G-ANNO-TTLB
100
AcDbLine
 10
15.0
 20
0.5
 30
0.0
 11
15.0
 21
1.85
 31
0.0
  0
TEXT
  5
51
330
17
100
AcDbEntity
  8
G-ANNO-TTLB
100
AcDbText
 10
15.08
 20
1.6800000000000002
 30
0.0
 40
0.06999999999999999
  1
SHEET
  7
KS-REG
 11
15.08
 21
1.6800000000000002
 31
0.0
100
AcDbText
  0
TEXT
  5
52
330
17
100
AcDbEntity
  8
G-ANNO-TTLB
100
AcDbText
 10
15.75
 20
0.9700000000000001
 30
0.0
 40
0.18
  1
P2-G-003
  7
KS-BOLD
 72
1
 11
15.75
 21
0.9700000000000001
 31
0.0
100
AcDbText
  0
TEXT
  5
53
330
17
100
AcDbEntity
  8
A-ANNO-TEXT
100
AcDbText
 10
0.75
 20
10.28
 30
0.0
 40
0.11499999999999999
  1
PROGRAM + AREA — REV M · P2-A-101 REV M / A-102 REV I · 30 FT DRUM, DRUM DOOR, EAST SIDE = PLAN REV J
  7
KS-BOLD
 11
0.75
 21
10.28
 31
0.0
100
AcDbText
  0
TEXT
  5
54
330
17
100
AcDbEntity
  8
A-ANNO-TEXT
100
AcDbText
 10
0.75
 20
10.08
 30
0.0
 40
0.06799999999999999
  1
Program lines unchanged from P2-G-003 Rev K (frozen, Set Rev D). Drawn size (D-057) measured on P2-A-101 Rev M / A-102 Rev I. No SF cap (D-056). Planning only: architect confirms.
  7
KS-REG
 11
0.75
 21
10.08
 31
0.0
100
AcDbText
  0
LINE
  5
55
330
17
100
AcDbEntity
  8
A-ANNO-TEXT
100
AcDbLine
 10
8.62
 20
9.95
 30
0.0
 11
8.62
 21
2.65
 31
0.0
  0
TEXT
  5
56
330
17
100
AcDbEntity
  8
A-ANNO-TEXT
100
AcDbText
 10
0.75
 20
9.91
 30
0.0
 40
0.08800000000000001
  1
1  SIZE — D-057: L1 FOOTPRINT · L2 AREA · TOTAL GSF · CHANGE
  7
KS-BOLD
 11
0.75
 21
9.91
 31
0.0
100
AcDbText
  0
LINE
  5
57
330
17
100
AcDbEntity
  8
A-ANNO-TEXT
100
AcDbLine
 10
0.75
 20
9.870000000000001
 30
0.0
 11
8.35
 21
9.870000000000001
 31
0.0
  0
TEXT
  5
58
330
17
100
AcDbEntity
  8
A-ANNO-TEXT
100
AcDbText
 10
0.75
 20
9.67
 30
0.0
 40
0.072
  1

  7
KS-BOLD
 11
0.75
 21
9.67
 31
0.0
100
AcDbText
  0
TEXT
  5
59
330
17
100
AcDbEntity
  8
A-ANNO-TEXT
100
AcDbText
 10
3.9
 20
9.67
 30
0.0
 40
0.072
  1
SET REV D
  7
KS-BOLD
 72
2
 11
3.9
 21
9.67
 31
0.0
100
AcDbText
  0
TEXT
  5
5A
330
17
100
AcDbEntity
  8
A-ANNO-TEXT
100
AcDbText
 10
4.9
 20
9.67
 30
0.0
 40
0.072
  1
REV L / H
  7
KS-BOLD
 72
2
 11
4.9
 21
9.67
 31
0.0
100
AcDbText
  0
TEXT
  5
5B
330
17
100
AcDbEntity
  8
A-ANNO-TEXT
100
AcDbText
 10
5.9
 20
9.67
 30
0.0
 40
0.072
  1
REV M / I
  7
KS-BOLD
 72
2
 11
5.9
 21
9.67
 31
0.0
100
AcDbText
  0
TEXT
  5
5C
330
17
100
AcDbEntity
  8
A-ANNO-TEXT
100
AcDbText
 10
7.0
 20
9.67
 30
0.0
 40
0.072
  1
vs L / H
  7
KS-BOLD
 72
2
 11
7.0
 21
9.67
 31
0.0
100
AcDbText
  0
TEXT
  5
5D
330
17
100
AcDbEntity
  8
A-ANNO-TEXT
100
AcDbText
 10
8.25
 20
9.67
 30
0.0
 40
0.072
  1
vs SET REV D
  7
KS-BOLD
 72
2
 11
8.25
 21
9.67
 31
0.0
100
AcDbText
  0
LINE
  5
5E
330
17
100
AcDbEntity
  8
A-ANNO-TEXT
100
AcDbLine
 10
0.75
 20
9.635
 30
0.0
 11
8.35
 21
9.635
 31
0.0
  0
TEXT
  5
5F
330
17
100
AcDbEntity
  8
A-ANNO-TEXT
100
AcDbText
 10
0.75
 20
9.48
 30
0.0
 40
0.072
  1
L1 FOOTPRINT
  7
KS-REG
 11
0.75
 21
9.48
 31
0.0
100
AcDbText
  0
TEXT
  5
60
330
17
100
AcDbEntity
  8
A-ANNO-TEXT
100
AcDbText
 10
3.9
 20
9.48
 30
0.0
 40
0.072
  1
56,861
  7
KS-REG
 72
2
 11
3.9
 21
9.48
 31
0.0
100
AcDbText
  0
TEXT
  5
61
330
17
100
AcDbEntity
  8
A-ANNO-TEXT
100
AcDbText
 10
4.9
 20
9.48
 30
0.0
 40
0.072
  1
57,861
  7
KS-REG
 72
2
 11
4.9
 21
9.48
 31
0.0
100
AcDbText
  0
TEXT
  5
62
330
17
100
AcDbEntity
  8
A-ANNO-TEXT
100
AcDbText
 10
5.9
 20
9.48
 30
0.0
 40
0.072
  1
57,896
  7
KS-REG
 72
2
 11
5.9
 21
9.48
 31
0.0
100
AcDbText
  0
TEXT
  5
63
330
17
100
AcDbEntity
  8
A-ANNO-TEXT
100
AcDbText
 10
7.0
 20
9.48
 30
0.0
 40
0.072
  1
+35
  7
KS-REG
 72
2
 11
7.0
 21
9.48
 31
0.0
100
AcDbText
  0
TEXT
  5
64
330
17
100
AcDbEntity
  8
A-ANNO-TEXT
100
AcDbText
 10
8.25
 20
9.48
 30
0.0
 40
0.072
  1
+1,035
  7
KS-REG
 72
2
 11
8.25
 21
9.48
 31
0.0
100
AcDbText
  0
TEXT
  5
65
330
17
100
AcDbEntity
  8
A-ANNO-TEXT
100
AcDbText
 10
0.75
 20
9.31
 30
0.0
 40
0.072
  1
L2 AREA
  7
KS-REG
 11
0.75
 21
9.31
 31
0.0
100
AcDbText
  0
TEXT
  5
66
330
17
100
AcDbEntity
  8
A-ANNO-TEXT
100
AcDbText
 10
3.9
 20
9.31
 30
0.0
 40
0.072
  1
28,933
  7
KS-REG
 72
2
 11
3.9
 21
9.31
 31
0.0
100
AcDbText
  0
TEXT
  5
67
330
17
100
AcDbEntity
  8
A-ANNO-TEXT
100
AcDbText
 10
4.9
 20
9.31
 30
0.0
 40
0.072
  1
29,033
  7
KS-REG
 72
2
 11
4.9
 21
9.31
 31
0.0
100
AcDbText
  0
TEXT
  5
68
330
17
100
AcDbEntity
  8
A-ANNO-TEXT
100
AcDbText
 10
5.9
 20
9.31
 30
0.0
 40
0.072
  1
29,068
  7
KS-REG
 72
2
 11
5.9
 21
9.31
 31
0.0
100
AcDbText
  0
TEXT
  5
69
330
17
100
AcDbEntity
  8
A-ANNO-TEXT
100
AcDbText
 10
7.0
 20
9.31
 30
0.0
 40
0.072
  1
+35
  7
KS-REG
 72
2
 11
7.0
 21
9.31
 31
0.0
100
AcDbText
  0
TEXT
  5
6A
330
17
100
AcDbEntity
  8
A-ANNO-TEXT
100
AcDbText
 10
8.25
 20
9.31
 30
0.0
 40
0.072
  1
+135
  7
KS-REG
 72
2
 11
8.25
 21
9.31
 31
0.0
100
AcDbText
  0
TEXT
  5
6B
330
17
100
AcDbEntity
  8
A-ANNO-TEXT
100
AcDbText
 10
0.75
 20
9.14
 30
0.0
 40
0.072
  1
TOTAL GSF
  7
KS-BOLD
 11
0.75
 21
9.14
 31
0.0
100
AcDbText
  0
TEXT
  5
6C
330
17
100
AcDbEntity
  8
A-ANNO-TEXT
100
AcDbText
 10
3.9
 20
9.14
 30
0.0
 40
0.072
  1
85,793
  7
KS-BOLD
 72
2
 11
3.9
 21
9.14
 31
0.0
100
AcDbText
  0
TEXT
  5
6D
330
17
100
AcDbEntity
  8
A-ANNO-TEXT
100
AcDbText
 10
4.9
 20
9.14
 30
0.0
 40
0.072
  1
86,894
  7
KS-BOLD
 72
2
 11
4.9
 21
9.14
 31
0.0
100
AcDbText
  0
TEXT
  5
6E
330
17
100
AcDbEntity
  8
A-ANNO-TEXT
100
AcDbText
 10
5.9
 20
9.14
 30
0.0
 40
0.072
  1
86,964
  7
KS-BOLD
 72
2
 11
5.9
 21
9.14
 31
0.0
100
AcDbText
  0
TEXT
  5
6F
330
17
100
AcDbEntity
  8
A-ANNO-TEXT
100
AcDbText
 10
7.0
 20
9.14
 30
0.0
 40
0.072
  1
+70
  7
KS-BOLD
 72
2
 11
7.0
 21
9.14
 31
0.0
100
AcDbText
  0
TEXT
  5
70
330
17
100
AcDbEntity
  8
A-ANNO-TEXT
100
AcDbText
 10
8.25
 20
9.14
 30
0.0
 40
0.072
  1
+1,171
  7
KS-BOLD
 72
2
 11
8.25
 21
9.14
 31
0.0
100
AcDbText
  0
TEXT
  5
71
330
17
100
AcDbEntity
  8
A-ANNO-TEXT
100
AcDbText
 10
0.75
 20
8.959
 30
0.0
 40
0.06599999999999999
  1
Drawn on: SET REV D = P2-G-003 Rev K (A-101 J / A-102 F); REV L / H = P2-G-003 Rev L (29 ft drum, D-081); REV M / I = this sheet. Totals are the sum of the
  7
KS-REG
 11
0.75
 21
8.959
 31
0.0
100
AcDbText
  0
TEXT
  5
72
330
17
100
AcDbEntity
  8
A-ANNO-TEXT
100
AcDbText
 10
0.75
 20
8.838
 30
0.0
 40
0.06599999999999999
  1
rounded levels.
  7
KS-REG
 11
0.75
 21
8.838
 31
0.0
100
AcDbText
  0
TEXT
  5
73
330
17
100
AcDbEntity
  8
A-ANNO-TEXT
100
AcDbText
 10
0.75
 20
8.677033333333332
 30
0.0
 40
0.06799999999999999
  1
Why +70 vs Rev L / H: the drum grows from 29 to 30 ft on both levels (+35 each). The east side moves back to plan Rev J (D-084) with the
  7
KS-BOLD
 11
0.75
 21
8.677033333333332
 31
0.0
100
AcDbText
  0
TEXT
  5
74
330
17
100
AcDbEntity
  8
A-ANNO-TEXT
100
AcDbText
 10
0.75
 20
8.552366666666666
 30
0.0
 40
0.06799999999999999
  1
same bump-out size (1,680 SF), so L1 does not change from it.
  7
KS-BOLD
 11
0.75
 21
8.552366666666666
 31
0.0
100
AcDbText
  0
TEXT
  5
75
330
17
100
AcDbEntity
  8
A-ANNO-TEXT
100
AcDbText
 10
0.75
 20
8.374966666666666
 30
0.0
 40
0.08800000000000001
  1
2  HOW L1 AND L2 ARE MEASURED (Rev G method, D-079)
  7
KS-BOLD
 11
0.75
 21
8.374966666666666
 31
0.0
100
AcDbText
  0
LINE
  5
76
330
17
100
AcDbEntity
  8
A-ANNO-TEXT
100
AcDbLine
 10
0.75
 20
8.334966666666666
 30
0.0
 11
8.35
 21
8.334966666666666
 31
0.0
  0
TEXT
  5
77
330
17
100
AcDbEntity
  8
A-ANNO-TEXT
100
AcDbText
 10
0.75
 20
8.180299999999999
 30
0.0
 40
0.06799999999999999
  1
•
  7
KS-REG
 11
0.75
 21
8.180299999999999
 31
0.0
100
AcDbText
  0
TEXT
  5
78
330
17
100
AcDbEntity
  8
A-ANNO-TEXT
100
AcDbText
 10
0.87
 20
8.180299999999999
 30
0.0
 40
0.06799999999999999
  1
Envelope = 210 x 252 ft box with R = 20 ft corners (D-077) united with the 30 ft drum at (182, 262.5): 53,216 SF.
  7
KS-REG
 11
0.87
 21
8.180299999999999
 31
0.0
100
AcDbText
  0
TEXT
  5
79
330
17
100
AcDbEntity
  8
A-ANNO-TEXT
100
AcDbText
 10
0.75
 20
8.018233333333333
 30
0.0
 40
0.06799999999999999
  1
•
  7
KS-REG
 11
0.75
 21
8.018233333333333
 31
0.0
100
AcDbText
  0
TEXT
  5
7A
330
17
100
AcDbEntity
  8
A-ANNO-TEXT
100
AcDbText
 10
0.87
 20
8.018233333333333
 30
0.0
 40
0.06799999999999999
  1
L1 = envelope + storage annex 2,100 + mech / elec bay 900 (x 134-164) + restroom bump-out 1,680 (y 119-175) = 57,896.
  7
KS-REG
 11
0.87
 21
8.018233333333333
 31
0.0
100
AcDbText
  0
TEXT
  5
7B
330
17
100
AcDbEntity
  8
A-ANNO-TEXT
100
AcDbText
 10
0.75
 20
7.856166666666667
 30
0.0
 40
0.06799999999999999
  1
•
  7
KS-REG
 11
0.75
 21
7.856166666666667
 31
0.0
100
AcDbText
  0
TEXT
  5
7C
330
17
100
AcDbEntity
  8
A-ANNO-TEXT
100
AcDbText
 10
0.87
 20
7.856166666666667
 30
0.0
 40
0.06799999999999999
  1
L2 = envelope - open-to-below 24,148 (arena 132 x 168 + lobby 58 x 34) = 29,068.
  7
KS-REG
 11
0.87
 21
7.856166666666667
 31
0.0
100
AcDbText
  0
TEXT
  5
7D
330
17
100
AcDbEntity
  8
A-ANNO-TEXT
100
AcDbText
 10
0.75
 20
7.678766666666667
 30
0.0
 40
0.08800000000000001
  1
3  PROGRAM (carried from P2-G-003 Rev K; no program line changes)
  7
KS-BOLD
 11
0.75
 21
7.678766666666667
 31
0.0
100
AcDbText
  0
LINE
  5
7E
330
17
100
AcDbEntity
  8
A-ANNO-TEXT
100
AcDbLine
 10
0.75
 20
7.638766666666667
 30
0.0
 11
8.35
 21
7.638766666666667
 31
0.0
  0
TEXT
  5
7F
330
17
100
AcDbEntity
  8
A-ANNO-TEXT
100
AcDbText
 10
0.75
 20
7.4587666666666665
 30
0.0
 40
0.06799999999999999
  1
PROGRAM LINE (G-003 K)
  7
KS-BOLD
 11
0.75
 21
7.4587666666666665
 31
0.0
100
AcDbText
  0
TEXT
  5
80
330
17
100
AcDbEntity
  8
A-ANNO-TEXT
100
AcDbText
 10
5.95
 20
7.4587666666666665
 30
0.0
 40
0.06799999999999999
  1
SF
  7
KS-BOLD
 72
2
 11
5.95
 21
7.4587666666666665
 31
0.0
100
AcDbText
  0
TEXT
  5
81
330
17
100
AcDbEntity
  8
A-ANNO-TEXT
100
AcDbText
 10
7.15
 20
7.4587666666666665
 30
0.0
 40
0.06799999999999999
  1
DRAWN REV M
  7
KS-BOLD
 72
2
 11
7.15
 21
7.4587666666666665
 31
0.0
100
AcDbText
  0
TEXT
  5
82
330
17
100
AcDbEntity
  8
A-ANNO-TEXT
100
AcDbText
 10
8.3
 20
7.4587666666666665
 30
0.0
 40
0.06799999999999999
  1
DRAWN - PROG.
  7
KS-BOLD
 72
2
 11
8.3
 21
7.4587666666666665
 31
0.0
100
AcDbText
  0
LINE
  5
83
330
17
100
AcDbEntity
  8
A-ANNO-TEXT
100
AcDbLine
 10
0.75
 20
7.423766666666666
 30
0.0
 11
8.35
 21
7.423766666666666
 31
0.0
  0
TEXT
  5
84
330
17
100
AcDbEntity
  8
A-ANNO-TEXT
100
AcDbText
 10
0.75
 20
7.288766666666667
 30
0.0
 40
0.06799999999999999
  1
L1 gross incl. annex + bump-out
  7
KS-REG
 11
0.75
 21
7.288766666666667
 31
0.0
100
AcDbText
  0
TEXT
  5
85
330
17
100
AcDbEntity
  8
A-ANNO-TEXT
100
AcDbText
 10
5.95
 20
7.288766666666667
 30
0.0
 40
0.06799999999999999
  1
56,713
  7
KS-REG
 72
2
 11
5.95
 21
7.288766666666667
 31
0.0
100
AcDbText
  0
TEXT
  5
86
330
17
100
AcDbEntity
  8
A-ANNO-TEXT
100
AcDbText
 10
7.15
 20
7.288766666666667
 30
0.0
 40
0.06799999999999999
  1

  7
KS-REG
 72
2
 11
7.15
 21
7.288766666666667
 31
0.0
100
AcDbText
  0
TEXT
  5
87
330
17
100
AcDbEntity
  8
A-ANNO-TEXT
100
AcDbText
 10
8.3
 20
7.288766666666667
 30
0.0
 40
0.06799999999999999
  1

  7
KS-REG
 72
2
 11
8.3
 21
7.288766666666667
 31
0.0
100
AcDbText
  0
TEXT
  5
88
330
17
100
AcDbEntity
  8
A-ANNO-TEXT
100
AcDbText
 10
0.75
 20
7.138766666666666
 30
0.0
 40
0.06799999999999999
  1
L2 gross (rooms x 1.25 + loop)
  7
KS-REG
 11
0.75
 21
7.138766666666666
 31
0.0
100
AcDbText
  0
TEXT
  5
89
330
17
100
AcDbEntity
  8
A-ANNO-TEXT
100
AcDbText
 10
5.95
 20
7.138766666666666
 30
0.0
 40
0.06799999999999999
  1
28,186
  7
KS-REG
 72
2
 11
5.95
 21
7.138766666666666
 31
0.0
100
AcDbText
  0
TEXT
  5
8A
330
17
100
AcDbEntity
  8
A-ANNO-TEXT
100
AcDbText
 10
7.15
 20
7.138766666666666
 30
0.0
 40
0.06799999999999999
  1

  7
KS-REG
 72
2
 11
7.15
 21
7.138766666666666
 31
0.0
100
AcDbText
  0
TEXT
  5
8B
330
17
100
AcDbEntity
  8
A-ANNO-TEXT
100
AcDbText
 10
8.3
 20
7.138766666666666
 30
0.0
 40
0.06799999999999999
  1

  7
KS-REG
 72
2
 11
8.3
 21
7.138766666666666
 31
0.0
100
AcDbText
  0
TEXT
  5
8C
330
17
100
AcDbEntity
  8
A-ANNO-TEXT
100
AcDbText
 10
0.75
 20
6.988766666666666
 30
0.0
 40
0.06799999999999999
  1
L1 + L2 gross
  7
KS-REG
 11
0.75
 21
6.988766666666666
 31
0.0
100
AcDbText
  0
TEXT
  5
8D
330
17
100
AcDbEntity
  8
A-ANNO-TEXT
100
AcDbText
 10
5.95
 20
6.988766666666666
 30
0.0
 40
0.06799999999999999
  1
84,899
  7
KS-REG
 72
2
 11
5.95
 21
6.988766666666666
 31
0.0
100
AcDbText
  0
TEXT
  5
8E
330
17
100
AcDbEntity
  8
A-ANNO-TEXT
100
AcDbText
 10
7.15
 20
6.988766666666666
 30
0.0
 40
0.06799999999999999
  1

  7
KS-REG
 72
2
 11
7.15
 21
6.988766666666666
 31
0.0
100
AcDbText
  0
TEXT
  5
8F
330
17
100
AcDbEntity
  8
A-ANNO-TEXT
100
AcDbText
 10
8.3
 20
6.988766666666666
 30
0.0
 40
0.06799999999999999
  1

  7
KS-REG
 72
2
 11
8.3
 21
6.988766666666666
 31
0.0
100
AcDbText
  0
TEXT
  5
90
330
17
100
AcDbEntity
  8
A-ANNO-TEXT
100
AcDbText
 10
0.75
 20
6.8387666666666656
 30
0.0
 40
0.06799999999999999
  1
Program footprint (max + annex + bump-out) vs L1
  7
KS-REG
 11
0.75
 21
6.8387666666666656
 31
0.0
100
AcDbText
  0
TEXT
  5
91
330
17
100
AcDbEntity
  8
A-ANNO-TEXT
100
AcDbText
 10
5.95
 20
6.8387666666666656
 30
0.0
 40
0.06799999999999999
  1
58,195
  7
KS-REG
 72
2
 11
5.95
 21
6.8387666666666656
 31
0.0
100
AcDbText
  0
TEXT
  5
92
330
17
100
AcDbEntity
  8
A-ANNO-TEXT
100
AcDbText
 10
7.15
 20
6.8387666666666656
 30
0.0
 40
0.06799999999999999
  1
57,896
  7
KS-REG
 72
2
 11
7.15
 21
6.8387666666666656
 31
0.0
100
AcDbText
  0
TEXT
  5
93
330
17
100
AcDbEntity
  8
A-ANNO-TEXT
100
AcDbText
 10
8.3
 20
6.8387666666666656
 30
0.0
 40
0.06799999999999999
  1
-299
  7
KS-REG
 72
2
 11
8.3
 21
6.8387666666666656
 31
0.0
100
AcDbText
  0
TEXT
  5
94
330
17
100
AcDbEntity
  8
A-ANNO-TEXT
100
AcDbText
 10
0.75
 20
6.688766666666665
 30
0.0
 40
0.06799999999999999
  1
PROGRAM TOTAL GSF vs drawn TOTAL
  7
KS-BOLD
 11
0.75
 21
6.688766666666665
 31
0.0
100
AcDbText
  0
TEXT
  5
95
330
17
100
AcDbEntity
  8
A-ANNO-TEXT
100
AcDbText
 10
5.95
 20
6.688766666666665
 30
0.0
 40
0.06799999999999999
  1
86,381
  7
KS-BOLD
 72
2
 11
5.95
 21
6.688766666666665
 31
0.0
100
AcDbText
  0
TEXT
  5
96
330
17
100
AcDbEntity
  8
A-ANNO-TEXT
100
AcDbText
 10
7.15
 20
6.688766666666665
 30
0.0
 40
0.06799999999999999
  1
86,964
  7
KS-BOLD
 72
2
 11
7.15
 21
6.688766666666665
 31
0.0
100
AcDbText
  0
TEXT
  5
97
330
17
100
AcDbEntity
  8
A-ANNO-TEXT
100
AcDbText
 10
8.3
 20
6.688766666666665
 30
0.0
 40
0.06799999999999999
  1
+583
  7
KS-BOLD
 72
2
 11
8.3
 21
6.688766666666665
 31
0.0
100
AcDbText
  0
TEXT
  5
98
330
17
100
AcDbEntity
  8
A-ANNO-TEXT
100
AcDbText
 10
0.75
 20
6.511433333333332
 30
0.0
 40
0.064
  1
The drum, the R = 20 ft envelope and the bay are circulation / building form, not program lines; the stair line (4 x 76 in, 31 risers, 12.67 x 24.08 ft each) is unchanged.
  7
KS-REG
 11
0.75
 21
6.511433333333332
 31
0.0
100
AcDbText
  0
TEXT
  5
99
330
17
100
AcDbEntity
  8
A-ANNO-TEXT
100
AcDbText
 10
0.75
 20
6.394099999999998
 30
0.0
 40
0.064
  1
Mech total about 4.1 % vs 5 % stays OPEN (D-072).
  7
KS-REG
 11
0.75
 21
6.394099999999998
 31
0.0
100
AcDbText
  0
TEXT
  5
9A
330
17
100
AcDbEntity
  8
A-ANNO-TEXT
100
AcDbText
 10
0.75
 20
6.218899999999999
 30
0.0
 40
0.08800000000000001
  1
4  ROOMS THAT CHANGE vs REV L / H (SF net of stairs)
  7
KS-BOLD
 11
0.75
 21
6.218899999999999
 31
0.0
100
AcDbText
  0
LINE
  5
9B
330
17
100
AcDbEntity
  8
A-ANNO-TEXT
100
AcDbLine
 10
0.75
 20
6.178899999999999
 30
0.0
 11
8.35
 21
6.178899999999999
 31
0.0
  0
TEXT
  5
9C
330
17
100
AcDbEntity
  8
A-ANNO-TEXT
100
AcDbText
 10
0.75
 20
6.008899999999999
 30
0.0
 40
0.064
  1
LEVEL / ROOM
  7
KS-BOLD
 11
0.75
 21
6.008899999999999
 31
0.0
100
AcDbText
  0
TEXT
  5
9D
330
17
100
AcDbEntity
  8
A-ANNO-TEXT
100
AcDbText
 10
5.65
 20
6.008899999999999
 30
0.0
 40
0.064
  1
REV L / H
  7
KS-BOLD
 72
2
 11
5.65
 21
6.008899999999999
 31
0.0
100
AcDbText
  0
TEXT
  5
9E
330
17
100
AcDbEntity
  8
A-ANNO-TEXT
100
AcDbText
 10
6.85
 20
6.008899999999999
 30
0.0
 40
0.064
  1
REV M / I
  7
KS-BOLD
 72
2
 11
6.85
 21
6.008899999999999
 31
0.0
100
AcDbText
  0
TEXT
  5
9F
330
17
100
AcDbEntity
  8
A-ANNO-TEXT
100
AcDbText
 10
8.25
 20
6.008899999999999
 30
0.0
 40
0.064
  1
CHANGE
  7
KS-BOLD
 72
2
 11
8.25
 21
6.008899999999999
 31
0.0
100
AcDbText
  0
LINE
  5
A0
330
17
100
AcDbEntity
  8
A-ANNO-TEXT
100
AcDbLine
 10
0.75
 20
5.973899999999999
 30
0.0
 11
8.35
 21
5.973899999999999
 31
0.0
  0
TEXT
  5
A1
330
17
100
AcDbEntity
  8
A-ANNO-TEXT
100
AcDbText
 10
0.75
 20
5.8488999999999995
 30
0.0
 40
0.064
  1
L1  15  MECH (N)
  7
KS-REG
 11
0.75
 21
5.8488999999999995
 31
0.0
100
AcDbText
  0
TEXT
  5
A2
330
17
100
AcDbEntity
  8
A-ANNO-TEXT
100
AcDbText
 10
5.65
 20
5.8488999999999995
 30
0.0
 40
0.064
  1
571
  7
KS-REG
 72
2
 11
5.65
 21
5.8488999999999995
 31
0.0
100
AcDbText
  0
TEXT
  5
A3
330
17
100
AcDbEntity
  8
A-ANNO-TEXT
100
AcDbText
 10
6.85
 20
5.8488999999999995
 30
0.0
 40
0.064
  1
564
  7
KS-REG
 72
2
 11
6.85
 21
5.8488999999999995
 31
0.0
100
AcDbText
  0
TEXT
  5
A4
330
17
100
AcDbEntity
  8
A-ANNO-TEXT
100
AcDbText
 10
8.25
 20
5.8488999999999995
 30
0.0
 40
0.064
  1
-8
  7
KS-REG
 72
2
 11
8.25
 21
5.8488999999999995
 31
0.0
100
AcDbText
  0
TEXT
  5
A5
330
17
100
AcDbEntity
  8
A-ANNO-TEXT
100
AcDbText
 10
0.75
 20
5.7089
 30
0.0
 40
0.064
  1
L1  16  MECH (E)
  7
KS-REG
 11
0.75
 21
5.7089
 31
0.0
100
AcDbText
  0
TEXT
  5
A6
330
17
100
AcDbEntity
  8
A-ANNO-TEXT
100
AcDbText
 10
5.65
 20
5.7089
 30
0.0
 40
0.064
  1
1,720
  7
KS-REG
 72
2
 11
5.65
 21
5.7089
 31
0.0
100
AcDbText
  0
TEXT
  5
A7
330
17
100
AcDbEntity
  8
A-ANNO-TEXT
100
AcDbText
 10
6.85
 20
5.7089
 30
0.0
 40
0.064
  1
675
  7
KS-REG
 72
2
 11
6.85
 21
5.7089
 31
0.0
100
AcDbText
  0
TEXT
  5
A8
330
17
100
AcDbEntity
  8
A-ANNO-TEXT
100
AcDbText
 10
8.25
 20
5.7089
 30
0.0
 40
0.064
  1
-1,045
  7
KS-REG
 72
2
 11
8.25
 21
5.7089
 31
0.0
100
AcDbText
  0
TEXT
  5
A9
330
17
100
AcDbEntity
  8
A-ANNO-TEXT
100
AcDbText
 10
0.75
 20
5.5689
 30
0.0
 40
0.064
  1
L1  25  MEN (2)
  7
KS-REG
 11
0.75
 21
5.5689
 31
0.0
100
AcDbText
  0
TEXT
  5
AA
330
17
100
AcDbEntity
  8
A-ANNO-TEXT
100
AcDbText
 10
5.65
 20
5.5689
 30
0.0
 40
0.064
  1
0
  7
KS-REG
 72
2
 11
5.65
 21
5.5689
 31
0.0
100
AcDbText
  0
TEXT
  5
AB
330
17
100
AcDbEntity
  8
A-ANNO-TEXT
100
AcDbText
 10
6.85
 20
5.5689
 30
0.0
 40
0.064
  1
364
  7
KS-REG
 72
2
 11
6.85
 21
5.5689
 31
0.0
100
AcDbText
  0
TEXT
  5
AC
330
17
100
AcDbEntity
  8
A-ANNO-TEXT
100
AcDbText
 10
8.25
 20
5.5689
 30
0.0
 40
0.064
  1
+364
  7
KS-REG
 72
2
 11
8.25
 21
5.5689
 31
0.0
100
AcDbText
  0
TEXT
  5
AD
330
17
100
AcDbEntity
  8
A-ANNO-TEXT
100
AcDbText
 10
0.75
 20
5.4289000000000005
 30
0.0
 40
0.064
  1
L1  26  WOMEN (2)
  7
KS-REG
 11
0.75
 21
5.4289000000000005
 31
0.0
100
AcDbText
  0
TEXT
  5
AE
330
17
100
AcDbEntity
  8
A-ANNO-TEXT
100
AcDbText
 10
5.65
 20
5.4289000000000005
 30
0.0
 40
0.064
  1
0
  7
KS-REG
 72
2
 11
5.65
 21
5.4289000000000005
 31
0.0
100
AcDbText
  0
TEXT
  5
AF
330
17
100
AcDbEntity
  8
A-ANNO-TEXT
100
AcDbText
 10
6.85
 20
5.4289000000000005
 30
0.0
 40
0.064
  1
1,020
  7
KS-REG
 72
2
 11
6.85
 21
5.4289000000000005
 31
0.0
100
AcDbText
  0
TEXT
  5
B0
330
17
100
AcDbEntity
  8
A-ANNO-TEXT
100
AcDbText
 10
8.25
 20
5.4289000000000005
 30
0.0
 40
0.064
  1
+1,020
  7
KS-REG
 72
2
 11
8.25
 21
5.4289000000000005
 31
0.0
100
AcDbText
  0
TEXT
  5
B1
330
17
100
AcDbEntity
  8
A-ANNO-TEXT
100
AcDbText
 10
0.75
 20
5.288900000000001
 30
0.0
 40
0.064
  1
L1  27  DF / JAN.
  7
KS-REG
 11
0.75
 21
5.288900000000001
 31
0.0
100
AcDbText
  0
TEXT
  5
B2
330
17
100
AcDbEntity
  8
A-ANNO-TEXT
100
AcDbText
 10
5.65
 20
5.288900000000001
 30
0.0
 40
0.064
  1
0
  7
KS-REG
 72
2
 11
5.65
 21
5.288900000000001
 31
0.0
100
AcDbText
  0
TEXT
  5
B3
330
17
100
AcDbEntity
  8
A-ANNO-TEXT
100
AcDbText
 10
6.85
 20
5.288900000000001
 30
0.0
 40
0.064
  1
56
  7
KS-REG
 72
2
 11
6.85
 21
5.288900000000001
 31
0.0
100
AcDbText
  0
TEXT
  5
B4
330
17
100
AcDbEntity
  8
A-ANNO-TEXT
100
AcDbText
 10
8.25
 20
5.288900000000001
 30
0.0
 40
0.064
  1
+56
  7
KS-REG
 72
2
 11
8.25
 21
5.288900000000001
 31
0.0
100
AcDbText
  0
TEXT
  5
B5
330
17
100
AcDbEntity
  8
A-ANNO-TEXT
100
AcDbText
 10
0.75
 20
5.148900000000001
 30
0.0
 40
0.064
  1
L1  28  MECH (E2)
  7
KS-REG
 11
0.75
 21
5.148900000000001
 31
0.0
100
AcDbText
  0
TEXT
  5
B6
330
17
100
AcDbEntity
  8
A-ANNO-TEXT
100
AcDbText
 10
5.65
 20
5.148900000000001
 30
0.0
 40
0.064
  1
0
  7
KS-REG
 72
2
 11
5.65
 21
5.148900000000001
 31
0.0
100
AcDbText
  0
TEXT
  5
B7
330
17
100
AcDbEntity
  8
A-ANNO-TEXT
100
AcDbText
 10
6.85
 20
5.148900000000001
 30
0.0
 40
0.064
  1
660
  7
KS-REG
 72
2
 11
6.85
 21
5.148900000000001
 31
0.0
100
AcDbText
  0
TEXT
  5
B8
330
17
100
AcDbEntity
  8
A-ANNO-TEXT
100
AcDbText
 10
8.25
 20
5.148900000000001
 30
0.0
 40
0.064
  1
+660
  7
KS-REG
 72
2
 11
8.25
 21
5.148900000000001
 31
0.0
100
AcDbText
  0
TEXT
  5
B9
330
17
100
AcDbEntity
  8
A-ANNO-TEXT
100
AcDbText
 10
0.75
 20
5.0089000000000015
 30
0.0
 40
0.064
  1
L1  25-27  Restroom pop-out block (Rev L)
  7
KS-REG
 11
0.75
 21
5.0089000000000015
 31
0.0
100
AcDbText
  0
TEXT
  5
BA
330
17
100
AcDbEntity
  8
A-ANNO-TEXT
100
AcDbText
 10
5.65
 20
5.0089000000000015
 30
0.0
 40
0.064
  1
1,680
  7
KS-REG
 72
2
 11
5.65
 21
5.0089000000000015
 31
0.0
100
AcDbText
  0
TEXT
  5
BB
330
17
100
AcDbEntity
  8
A-ANNO-TEXT
100
AcDbText
 10
6.85
 20
5.0089000000000015
 30
0.0
 40
0.064
  1
0
  7
KS-REG
 72
2
 11
6.85
 21
5.0089000000000015
 31
0.0
100
AcDbText
  0
TEXT
  5
BC
330
17
100
AcDbEntity
  8
A-ANNO-TEXT
100
AcDbText
 10
8.25
 20
5.0089000000000015
 30
0.0
 40
0.064
  1
-1,680
  7
KS-REG
 72
2
 11
8.25
 21
5.0089000000000015
 31
0.0
100
AcDbText
  0
TEXT
  5
BD
330
17
100
AcDbEntity
  8
A-ANNO-TEXT
100
AcDbText
 10
0.75
 20
4.868900000000002
 30
0.0
 40
0.064
  1
L2  ST-2 landing / NE corner (not programmed)
  7
KS-REG
 11
0.75
 21
4.868900000000002
 31
0.0
100
AcDbText
  0
TEXT
  5
BE
330
17
100
AcDbEntity
  8
A-ANNO-TEXT
100
AcDbText
 10
5.65
 20
4.868900000000002
 30
0.0
 40
0.064
  1
142
  7
KS-REG
 72
2
 11
5.65
 21
4.868900000000002
 31
0.0
100
AcDbText
  0
TEXT
  5
BF
330
17
100
AcDbEntity
  8
A-ANNO-TEXT
100
AcDbText
 10
6.85
 20
4.868900000000002
 30
0.0
 40
0.064
  1
131
  7
KS-REG
 72
2
 11
6.85
 21
4.868900000000002
 31
0.0
100
AcDbText
  0
TEXT
  5
C0
330
17
100
AcDbEntity
  8
A-ANNO-TEXT
100
AcDbText
 10
8.25
 20
4.868900000000002
 30
0.0
 40
0.064
  1
-11
  7
KS-REG
 72
2
 11
8.25
 21
4.868900000000002
 31
0.0
100
AcDbText
  0
TEXT
  5
C1
330
17
100
AcDbEntity
  8
A-ANNO-TEXT
100
AcDbText
 10
0.75
 20
4.728900000000002
 30
0.0
 40
0.064
  1
L1 + L2  ST-2 drum (29 -> 30 ft, each level)
  7
KS-REG
 11
0.75
 21
4.728900000000002
 31
0.0
100
AcDbText
  0
TEXT
  5
C2
330
17
100
AcDbEntity
  8
A-ANNO-TEXT
100
AcDbText
 10
5.65
 20
4.728900000000002
 30
0.0
 40
0.064
  1
660
  7
KS-REG
 72
2
 11
5.65
 21
4.728900000000002
 31
0.0
100
AcDbText
  0
TEXT
  5
C3
330
17
100
AcDbEntity
  8
A-ANNO-TEXT
100
AcDbText
 10
6.85
 20
4.728900000000002
 30
0.0
 40
0.064
  1
707
  7
KS-REG
 72
2
 11
6.85
 21
4.728900000000002
 31
0.0
100
AcDbText
  0
TEXT
  5
C4
330
17
100
AcDbEntity
  8
A-ANNO-TEXT
100
AcDbText
 10
8.25
 20
4.728900000000002
 30
0.0
 40
0.064
  1
+46
  7
KS-REG
 72
2
 11
8.25
 21
4.728900000000002
 31
0.0
100
AcDbText
  0
TEXT
  5
C5
330
17
100
AcDbEntity
  8
A-ANNO-TEXT
100
AcDbText
 10
8.95
 20
9.91
 30
0.0
 40
0.08800000000000001
  1
5  STAIR FIT · DRUM DOOR LANDING (D-082, D-083)
  7
KS-BOLD
 11
8.95
 21
9.91
 31
0.0
100
AcDbText
  0
LINE
  5
C6
330
17
100
AcDbEntity
  8
A-ANNO-TEXT
100
AcDbLine
 10
8.95
 20
9.870000000000001
 30
0.0
 11
16.25
 21
9.870000000000001
 31
0.0
  0
TEXT
  5
C7
330
17
100
AcDbEntity
  8
A-ANNO-TEXT
100
AcDbText
 10
8.95
 20
9.719
 30
0.0
 40
0.06599999999999999
  1
•
  7
KS-REG
 11
8.95
 21
9.719
 31
0.0
100
AcDbText
  0
TEXT
  5
C8
330
17
100
AcDbEntity
  8
A-ANNO-TEXT
100
AcDbText
 10
9.069999999999999
 20
9.719
 30
0.0
 40
0.06599999999999999
  1
Stair fit: 12.67 x 24.08 ft stair, diagonal 27.21 ft in 28.7 ft inside (30 ft less 1.3 ft walls, ASSUMED): 1.49 ft spare, about 9 in at each end corner (Rev L 0.49
  7
KS-REG
 11
9.069999999999999
 21
9.719
 31
0.0
100
AcDbText
  0
TEXT
  5
C9
330
17
100
AcDbEntity
  8
A-ANNO-TEXT
100
AcDbText
 10
9.069999999999999
 20
9.597999999999999
 30
0.0
 40
0.06599999999999999
  1
ft).
  7
KS-REG
 11
9.069999999999999
 21
9.597999999999999
 31
0.0
100
AcDbText
  0
TEXT
  5
CA
330
17
100
AcDbEntity
  8
A-ANNO-TEXT
100
AcDbText
 10
8.95
 20
9.440699999999998
 30
0.0
 40
0.06599999999999999
  1
•
  7
KS-REG
 11
8.95
 21
9.440699999999998
 31
0.0
100
AcDbText
  0
TEXT
  5
CB
330
17
100
AcDbEntity
  8
A-ANNO-TEXT
100
AcDbText
 10
9.069999999999999
 20
9.440699999999998
 30
0.0
 40
0.06599999999999999
  1
Door: 64 in pair at 235° (Rev H 240°), centre (173.4, 250.2), swings into the drum. 235° is the most westerly point that keeps both jambs inside the north
  7
KS-REG
 11
9.069999999999999
 21
9.440699999999998
 31
0.0
100
AcDbText
  0
TEXT
  5
CC
330
17
100
AcDbEntity
  8
A-ANNO-TEXT
100
AcDbText
 10
9.069999999999999
 20
9.319699999999997
 30
0.0
 40
0.06599999999999999
  1
wall.
  7
KS-REG
 11
9.069999999999999
 21
9.319699999999997
 31
0.0
100
AcDbText
  0
TEXT
  5
CD
330
17
100
AcDbEntity
  8
A-ANNO-TEXT
100
AcDbText
 10
8.95
 20
9.162399999999996
 30
0.0
 40
0.06599999999999999
  1
•
  7
KS-REG
 11
8.95
 21
9.162399999999996
 31
0.0
100
AcDbText
  0
TEXT
  5
CE
330
17
100
AcDbEntity
  8
A-ANNO-TEXT
100
AcDbText
 10
9.069999999999999
 20
9.162399999999996
 30
0.0
 40
0.06599999999999999
  1
Rule, IBC 2021 1010.1.5 (1010.1.6 in IBC 2018): landing width not less than the stair or door width, whichever is greater (76 in), length in the direction of
  7
KS-REG
 11
9.069999999999999
 21
9.162399999999996
 31
0.0
100
AcDbText
  0
TEXT
  5
CF
330
17
100
AcDbEntity
  8
A-ANNO-TEXT
100
AcDbText
 10
9.069999999999999
 20
9.041399999999996
 30
0.0
 40
0.06599999999999999
  1
travel at least 44 in; door swing may reduce it by no more than 7 in.
  7
KS-REG
 11
9.069999999999999
 21
9.041399999999996
 31
0.0
100
AcDbText
  0
TEXT
  5
D0
330
17
100
AcDbEntity
  8
A-ANNO-TEXT
100
AcDbText
 10
8.95
 20
8.884099999999995
 30
0.0
 40
0.06599999999999999
  1
•
  7
KS-BOLD
 11
8.95
 21
8.884099999999995
 31
0.0
100
AcDbText
  0
TEXT
  5
D1
330
17
100
AcDbEntity
  8
A-ANNO-TEXT
100
AcDbText
 10
9.069999999999999
 20
8.884099999999995
 30
0.0
 40
0.06599999999999999
  1
Clearance: door centre to the loop edge along the door line 61.7 in (Rev H 54.6) vs 44 in. The 76 x 44 in rectangle square to the door
  7
KS-BOLD
 11
9.069999999999999
 21
8.884099999999995
 31
0.0
100
AcDbText
  0
TEXT
  5
D2
330
17
100
AcDbEntity
  8
A-ANNO-TEXT
100
AcDbText
 10
9.069999999999999
 20
8.763099999999994
 30
0.0
 40
0.06599999999999999
  1
reaches 4.9 in onto the loop's outer edge at one corner; the strip alone at the east jamb is 34.5 in.
  7
KS-BOLD
 11
9.069999999999999
 21
8.763099999999994
 31
0.0
100
AcDbText
  0
TEXT
  5
D3
330
17
100
AcDbEntity
  8
A-ANNO-TEXT
100
AcDbText
 10
8.95
 20
8.586799999999993
 30
0.0
 40
0.08800000000000001
  1
6  EXITS / TRAVEL / COMMON PATH RECHECK (east side = plan Rev J, D-084)
  7
KS-BOLD
 11
8.95
 21
8.586799999999993
 31
0.0
100
AcDbText
  0
LINE
  5
D4
330
17
100
AcDbEntity
  8
A-ANNO-TEXT
100
AcDbLine
 10
8.95
 20
8.546799999999994
 30
0.0
 11
16.25
 21
8.546799999999994
 31
0.0
  0
TEXT
  5
D5
330
17
100
AcDbEntity
  8
A-ANNO-TEXT
100
AcDbText
 10
8.95
 20
8.397633333333326
 30
0.0
 40
0.065
  1
•
  7
KS-REG
 11
8.95
 21
8.397633333333326
 31
0.0
100
AcDbText
  0
TEXT
  5
D6
330
17
100
AcDbEntity
  8
A-ANNO-TEXT
100
AcDbText
 10
9.069999999999999
 20
8.397633333333326
 30
0.0
 40
0.065
  1
PASS (as calculated) T1 event floor -> X7: 133 ft vs 250 (Set Rev D 133).
  7
KS-REG
 11
9.069999999999999
 21
8.397633333333326
 31
0.0
100
AcDbText
  0
TEXT
  5
D7
330
17
100
AcDbEntity
  8
A-ANNO-TEXT
100
AcDbText
 10
8.95
 20
8.24271666666666
 30
0.0
 40
0.065
  1
•
  7
KS-REG
 11
8.95
 21
8.24271666666666
 31
0.0
100
AcDbText
  0
TEXT
  5
D8
330
17
100
AcDbEntity
  8
A-ANNO-TEXT
100
AcDbText
 10
9.069999999999999
 20
8.24271666666666
 30
0.0
 40
0.065
  1
PASS (as calculated) Women (2) common path 61 ft (to X11 78); men (2) 30 ft (to X11 43); limit 75 (Set Rev D 61 / 30).
  7
KS-REG
 11
9.069999999999999
 21
8.24271666666666
 31
0.0
100
AcDbText
  0
TEXT
  5
D9
330
17
100
AcDbEntity
  8
A-ANNO-TEXT
100
AcDbText
 10
8.95
 20
8.087799999999993
 30
0.0
 40
0.065
  1
•
  7
KS-REG
 11
8.95
 21
8.087799999999993
 31
0.0
100
AcDbText
  0
TEXT
  5
DA
330
17
100
AcDbEntity
  8
A-ANNO-TEXT
100
AcDbText
 10
9.069999999999999
 20
8.087799999999993
 30
0.0
 40
0.065
  1
PASS (as calculated) Public corridor (E) 96 in vs 44; inside the envelope; dead end 5.2 ft vs 20.
  7
KS-REG
 11
9.069999999999999
 21
8.087799999999993
 31
0.0
100
AcDbText
  0
TEXT
  5
DB
330
17
100
AcDbEntity
  8
A-ANNO-TEXT
100
AcDbText
 10
8.95
 20
7.932883333333326
 30
0.0
 40
0.065
  1
•
  7
KS-REG
 11
8.95
 21
7.932883333333326
 31
0.0
100
AcDbText
  0
TEXT
  5
DC
330
17
100
AcDbEntity
  8
A-ANNO-TEXT
100
AcDbText
 10
9.069999999999999
 20
7.932883333333326
 30
0.0
 40
0.065
  1
PASS (as calculated) X7 (y 179.09), X11 (y 112), X8 (y 34) on the straight east wall, clear of the bump-out; X7 jamb 1.33 ft north of it.
  7
KS-REG
 11
9.069999999999999
 21
7.932883333333326
 31
0.0
100
AcDbText
  0
TEXT
  5
DD
330
17
100
AcDbEntity
  8
A-ANNO-TEXT
100
AcDbText
 10
8.95
 20
7.777966666666659
 30
0.0
 40
0.065
  1
•
  7
KS-REG
 11
8.95
 21
7.777966666666659
 31
0.0
100
AcDbText
  0
TEXT
  5
DE
330
17
100
AcDbEntity
  8
A-ANNO-TEXT
100
AcDbText
 10
9.069999999999999
 20
7.777966666666659
 30
0.0
 40
0.065
  1
PASS (as calculated) L2 travel, worst point (206, 140): about 160 ft incl. 15 ft seat access. Stair separation 141 ft vs 1/3 diagonal 109 ft.
  7
KS-REG
 11
9.069999999999999
 21
7.777966666666659
 31
0.0
100
AcDbText
  0
TEXT
  5
DF
330
17
100
AcDbEntity
  8
A-ANNO-TEXT
100
AcDbText
 10
8.95
 20
7.623049999999992
 30
0.0
 40
0.065
  1
•
  7
KS-REG
 11
8.95
 21
7.623049999999992
 31
0.0
100
AcDbText
  0
TEXT
  5
E0
330
17
100
AcDbEntity
  8
A-ANNO-TEXT
100
AcDbText
 10
9.069999999999999
 20
7.623049999999992
 30
0.0
 40
0.065
  1
PASS (as calculated) X6 on the drum east face (197.0, 262.5), clear of annex and bay; drum to bay 3.0 ft; X5 lane 12 ft.
  7
KS-REG
 11
9.069999999999999
 21
7.623049999999992
 31
0.0
100
AcDbText
  0
TEXT
  5
E1
330
17
100
AcDbEntity
  8
A-ANNO-TEXT
100
AcDbText
 10
8.95
 20
7.447299999999992
 30
0.0
 40
0.08800000000000001
  1
7  FINDINGS + OPTIONS (not redesigned here)
  7
KS-BOLD
 11
8.95
 21
7.447299999999992
 31
0.0
100
AcDbText
  0
LINE
  5
E2
330
17
100
AcDbEntity
  8
A-ANNO-TEXT
100
AcDbLine
 10
8.95
 20
7.407299999999992
 30
0.0
 11
16.25
 21
7.407299999999992
 31
0.0
  0
TEXT
  5
E3
330
17
100
AcDbEntity
  8
A-ANNO-TEXT
100
AcDbText
 10
8.95
 20
7.259966666666658
 30
0.0
 40
0.064
  1
F1 Drum door landing: a 76 x 44 in landing square to the door reaches 4.9 in onto the loop at one corner. Options: (a) architect counts that
  7
KS-BOLD
 11
8.95
 21
7.259966666666658
 31
0.0
100
AcDbText
  0
TEXT
  5
E4
330
17
100
AcDbEntity
  8
A-ANNO-TEXT
100
AcDbText
 10
8.95
 20
7.1426333333333245
 30
0.0
 40
0.064
  1
corridor corner as landing (door swings away from it); (b) widen the strip locally at the drum; (c) smaller door leaf (not checked vs capacity).
  7
KS-BOLD
 11
8.95
 21
7.1426333333333245
 31
0.0
100
AcDbText
  0
TEXT
  5
E5
330
17
100
AcDbEntity
  8
A-ANNO-TEXT
100
AcDbText
 10
8.95
 20
6.990099999999991
 30
0.0
 40
0.064
  1
F2 X7 / X11 discharge to the public way is TBD (D-006, site not chosen); not checked here.
  7
KS-REG
 11
8.95
 21
6.990099999999991
 31
0.0
100
AcDbText
  0
TEXT
  5
E6
330
17
100
AcDbEntity
  8
A-ANNO-TEXT
100
AcDbText
 10
8.95
 20
6.837566666666658
 30
0.0
 40
0.064
  1
F3 The old NE stair strip inside the box (about 67 SF on L1) stays unassigned.
  7
KS-REG
 11
8.95
 21
6.837566666666658
 31
0.0
100
AcDbText
  0
TEXT
  5
E7
330
17
100
AcDbEntity
  8
A-ANNO-TEXT
100
AcDbText
 10
8.95
 20
6.685033333333324
 30
0.0
 40
0.064
  1
F4 Mech total about 4.1 % vs 5 % stays OPEN (D-072). Drum structure / roof not drawn.
  7
KS-REG
 11
8.95
 21
6.685033333333324
 31
0.0
100
AcDbText
  0
TEXT
  5
E8
330
17
100
AcDbEntity
  8
A-ANNO-TEXT
100
AcDbText
 10
8.95
 20
6.509833333333325
 30
0.0
 40
0.08800000000000001
  1
8  SOURCES
  7
KS-BOLD
 11
8.95
 21
6.509833333333325
 31
0.0
100
AcDbText
  0
LINE
  5
E9
330
17
100
AcDbEntity
  8
A-ANNO-TEXT
100
AcDbLine
 10
8.95
 20
6.469833333333325
 30
0.0
 11
16.25
 21
6.469833333333325
 31
0.0
  0
TEXT
  5
EA
330
17
100
AcDbEntity
  8
A-ANNO-TEXT
100
AcDbText
 10
8.95
 20
6.324333333333325
 30
0.0
 40
0.063
  1
D-057, D-072, D-077..D-084 (DECISIONS_ARENA); params/phase2_plan_rev_j.yaml (= Set Rev D A-101 J), _rev_k, _rev_g_l2, _rev_l, _rev_m;
  7
KS-REG
 11
8.95
 21
6.324333333333325
 31
0.0
100
AcDbText
  0
TEXT
  5
EB
330
17
100
AcDbEntity
  8
A-ANNO-TEXT
100
AcDbText
 10
8.95
 20
6.208833333333325
 30
0.0
 40
0.063
  1
phase2_life_safety_rev_d.yaml / phase2_code_rev_d.yaml (handoff, read only); IBC 2021 1010.1.5, T1017.2, T1006.2.1, 1020.5, T1020.3. Revs A-L of P2-G-003
  7
KS-REG
 11
8.95
 21
6.208833333333325
 31
0.0
100
AcDbText
  0
TEXT
  5
EC
330
17
100
AcDbEntity
  8
A-ANNO-TEXT
100
AcDbText
 10
8.95
 20
6.093333333333325
 30
0.0
 40
0.063
  1
unchanged.
  7
KS-REG
 11
8.95
 21
6.093333333333325
 31
0.0
100
AcDbText
  0
ENDSEC
  0
SECTION
  2
OBJECTS
  0
DICTIONARY
  5
A
330
0
100
AcDbDictionary
281
1
  3
ACAD_COLOR
350
B
  3
ACAD_GROUP
350
C
  3
ACAD_LAYOUT
350
D
  3
ACAD_MATERIAL
350
E
  3
ACAD_MLEADERSTYLE
350
F
  3
ACAD_MLINESTYLE
350
10
  3
ACAD_PLOTSETTINGS
350
11
  3
ACAD_PLOTSTYLENAME
350
12
  3
ACAD_SCALELIST
350
14
  3
ACAD_TABLESTYLE
350
15
  3
ACAD_VISUALSTYLE
350
16
  3
EZDXF_META
350
2D
  0
DICTIONARY
  5
B
330
A
100
AcDbDictionary
281
1
  0
DICTIONARY
  5
C
330
A
100
AcDbDictionary
281
1
  0
DICTIONARY
  5
D
330
A
100
AcDbDictionary
281
1
  3
Model
350
1A
  3
Layout1
350
1E
  0
DICTIONARY
  5
E
330
A
100
AcDbDictionary
281
1
  3
ByBlock
350
1F
  3
ByLayer
350
20
  3
Global
350
21
  0
DICTIONARY
  5
F
330
A
100
AcDbDictionary
281
1
  3
Standard
350
2C
  0
DICTIONARY
  5
10
330
A
100
AcDbDictionary
281
1
  3
Standard
350
22
  0
DICTIONARY
  5
11
330
A
100
AcDbDictionary
281
1
  0
ACDBDICTIONARYWDFLT
  5
12
330
A
100
AcDbDictionary
281
1
  3
Normal
350
13
100
AcDbDictionaryWithDefault
340
13
  0
ACDBPLACEHOLDER
  5
13
330
12
  0
DICTIONARY
  5
14
330
A
100
AcDbDictionary
281
1
  0
DICTIONARY
  5
15
330
A
100
AcDbDictionary
281
1
  0
DICTIONARY
  5
16
330
A
100
AcDbDictionary
281
1
  0
LAYOUT
  5
1A
330
D
100
AcDbPlotSettings
  1

  4
A3
  6

 40
7.5
 41
20.0
 42
7.5
 43
20.0
 44
420.0
 45
297.0
 46
0.0
 47
0.0
 48
0.0
 49
0.0
140
0.0
141
0.0
142
1.0
143
1.0
 70
1024
 72
1
 73
0
 74
5
  7

 75
16
 76
0
 77
2
 78
300
147
1.0
148
0.0
149
0.0
100
AcDbLayout
  1
Model
 70
1
 71
0
 10
0.0
 20
0.0
 11
420.0
 21
297.0
 12
0.0
 22
0.0
 32
0.0
 14
1e+20
 24
1e+20
 34
1e+20
 15
-1e+20
 25
-1e+20
 35
-1e+20
146
0.0
 13
0.0
 23
0.0
 33
0.0
 16
1.0
 26
0.0
 36
0.0
 17
0.0
 27
1.0
 37
0.0
 76
1
330
17
  0
LAYOUT
  5
1E
330
D
100
AcDbPlotSettings
  1

  4
A3
  6

 40
7.5
 41
20.0
 42
7.5
 43
20.0
 44
420.0
 45
297.0
 46
0.0
 47
0.0
 48
0.0
 49
0.0
140
0.0
141
0.0
142
1.0
143
1.0
 70
0
 72
1
 73
0
 74
5
  7

 75
16
 76
0
 77
2
 78
300
147
1.0
148
0.0
149
0.0
100
AcDbLayout
  1
Layout1
 70
1
 71
1
 10
0.0
 20
0.0
 11
420.0
 21
297.0
 12
0.0
 22
0.0
 32
0.0
 14
1e+20
 24
1e+20
 34
1e+20
 15
-1e+20
 25
-1e+20
 35
-1e+20
146
0.0
 13
0.0
 23
0.0
 33
0.0
 16
1.0
 26
0.0
 36
0.0
 17
0.0
 27
1.0
 37
0.0
 76
1
330
1B
  0
MATERIAL
  5
1F
102
{ACAD_REACTORS
330
E
102
}
330
E
100
AcDbMaterial
  1
ByBlock
  2

 70
0
 40
1.0
 71
1
 41
1.0
 91
-1023410177
 42
1.0
 72
1
  3

 73
1
 74
1
 75
1
 44
0.5
 73
0
 45
1.0
 46
1.0
 77
1
  4

 78
1
 79
1
170
1
 48
1.0
171
1
  6

172
1
173
1
174
1
140
1.0
141
1.0
175
1
  7

176
1
177
1
178
1
143
1.0
179
1
  8

270
1
271
1
272
1
145
1.0
146
1.0
273
1
  9

274
1
275
1
276
1
 42
1.0
 72
1
  3

 73
1
 74
1
 75
1
 94
63
  0
MATERIAL
  5
20
102
{ACAD_REACTORS
330
E
102
}
330
E
100
AcDbMaterial
  1
ByLayer
  2

 70
0
 40
1.0
 71
1
 41
1.0
 91
-1023410177
 42
1.0
 72
1
  3

 73
1
 74
1
 75
1
 44
0.5
 73
0
 45
1.0
 46
1.0
 77
1
  4

 78
1
 79
1
170
1
 48
1.0
171
1
  6

172
1
173
1
174
1
140
1.0
141
1.0
175
1
  7

176
1
177
1
178
1
143
1.0
179
1
  8

270
1
271
1
272
1
145
1.0
146
1.0
273
1
  9

274
1
275
1
276
1
 42
1.0
 72
1
  3

 73
1
 74
1
 75
1
 94
63
  0
MATERIAL
  5
21
102
{ACAD_REACTORS
330
E
102
}
330
E
100
AcDbMaterial
  1
Global
  2

 70
0
 40
1.0
 71
1
 41
1.0
 91
-1023410177
 42
1.0
 72
1
  3

 73
1
 74
1
 75
1
 44
0.5
 73
0
 45
1.0
 46
1.0
 77
1
  4

 78
1
 79
1
170
1
 48
1.0
171
1
  6

172
1
173
1
174
1
140
1.0
141
1.0
175
1
  7

176
1
177
1
178
1
143
1.0
179
1
  8

270
1
271
1
272
1
145
1.0
146
1.0
273
1
  9

274
1
275
1
276
1
 42
1.0
 72
1
  3

 73
1
 74
1
 75
1
 94
63
  0
MLINESTYLE
  5
22
102
{ACAD_REACTORS
330
10
102
}
330
10
100
AcDbMlineStyle
  2
Standard
 70
0
  3

 62
256
 51
90.0
 52
90.0
 71
2
 49
0.5
 62
256
  6
BYLAYER
 49
-0.5
 62
256
  6
BYLAYER
  0
MLEADERSTYLE
  5
2C
102
{ACAD_REACTORS
330
F
102
}
330
F
100
AcDbMLeaderStyle
179
2
170
2
171
1
172
0
 90
2
 40
0.0
 41
0.0
173
1
 91
-1056964608
 92
-2
290
1
 42
2.0
291
1
 43
8.0
  3
Standard
 44
4.0
300

342
29
174
1
175
1
176
0
178
1
 93
-1056964608
 45
4.0
292
0
297
0
 46
4.0
 94
-1056964608
 47
1.0
 49
1.0
140
1.0
294
1
141
0.0
177
0
142
1.0
295
0
296
0
143
3.75
271
0
272
9
273
9
  0
DICTIONARY
  5
2D
330
A
100
AcDbDictionary
280
1
281
1
  3
CREATED_BY_EZDXF
350
2E
  3
WRITTEN_BY_EZDXF
350
EF
  0
DICTIONARYVAR
  5
2E
330
2D
100
DictionaryVariables
280
0
  1
1.4.4 @ 2026-10-09T14:45:49.812895+00:00
  0
DICTIONARYVAR
  5
EF
330
2D
100
DictionaryVariables
280
0
  1
1.4.4 @ 2026-10-09T14:45:49.819589+00:00
  0
ENDSEC
  0
EOF
