  0
SECTION
  2
HEADER
  9
$ACADVER
  1
AC1024
  9
$ACADMAINTVER
 70
6
  9
$DWGCODEPAGE
  3
ANSI_1252
  9
$LASTSAVEDBY
  1
ezdxf
  9
$INSBASE
 10
0.0
 20
0.0
 30
0.0
  9
$EXTMIN
 10
1e+20
 20
1e+20
 30
1e+20
  9
$EXTMAX
 10
-1e+20
 20
-1e+20
 30
-1e+20
  9
$LIMMIN
 10
0.0
 20
0.0
  9
$LIMMAX
 10
420.0
 20
297.0
  9
$ORTHOMODE
 70
0
  9
$REGENMODE
 70
1
  9
$FILLMODE
 70
1
  9
$QTEXTMODE
 70
0
  9
$MIRRTEXT
 70
1
  9
$LTSCALE
 40
1.0
  9
$ATTMODE
 70
1
  9
$TEXTSIZE
 40
2.5
  9
$TRACEWID
 40
1.0
  9
$TEXTSTYLE
  7
Standard
  9
$CLAYER
  8
0
  9
$CELTYPE
  6
ByLayer
  9
$CECOLOR
 62
256
  9
$CELTSCALE
 40
1.0
  9
$DISPSILH
 70
0
  9
$DIMSCALE
 40
1.0
  9
$DIMASZ
 40
2.5
  9
$DIMEXO
 40
0.625
  9
$DIMDLI
 40
3.75
  9
$DIMRND
 40
0.0
  9
$DIMDLE
 40
0.0
  9
$DIMEXE
 40
1.25
  9
$DIMTP
 40
0.0
  9
$DIMTM
 40
0.0
  9
$DIMTXT
 40
2.5
  9
$DIMCEN
 40
2.5
  9
$DIMTSZ
 40
0.0
  9
$DIMTOL
 70
0
  9
$DIMLIM
 70
0
  9
$DIMTIH
 70
0
  9
$DIMTOH
 70
0
  9
$DIMSE1
 70
0
  9
$DIMSE2
 70
0
  9
$DIMTAD
 70
1
  9
$DIMZIN
 70
8
  9
$DIMBLK
  1

  9
$DIMASO
 70
1
  9
$DIMSHO
 70
1
  9
$DIMPOST
  1

  9
$DIMAPOST
  1

  9
$DIMALT
 70
0
  9
$DIMALTD
 70
3
  9
$DIMALTF
 40
0.03937007874
  9
$DIMLFAC
 40
1.0
  9
$DIMTOFL
 70
1
  9
$DIMTVP
 40
0.0
  9
$DIMTIX
 70
0
  9
$DIMSOXD
 70
0
  9
$DIMSAH
 70
0
  9
$DIMBLK1
  1

  9
$DIMBLK2
  1

  9
$DIMSTYLE
  2
ISO-25
  9
$DIMCLRD
 70
0
  9
$DIMCLRE
 70
0
  9
$DIMCLRT
 70
0
  9
$DIMTFAC
 40
1.0
  9
$DIMGAP
 40
0.625
  9
$DIMJUST
 70
0
  9
$DIMSD1
 70
0
  9
$DIMSD2
 70
0
  9
$DIMTOLJ
 70
0
  9
$DIMTZIN
 70
8
  9
$DIMALTZ
 70
0
  9
$DIMALTTZ
 70
0
  9
$DIMUPT
 70
0
  9
$DIMDEC
 70
2
  9
$DIMTDEC
 70
2
  9
$DIMALTU
 70
2
  9
$DIMALTTD
 70
3
  9
$DIMTXSTY
  7
Standard
  9
$DIMAUNIT
 70
0
  9
$DIMADEC
 70
0
  9
$DIMALTRND
 40
0.0
  9
$DIMAZIN
 70
0
  9
$DIMDSEP
 70
44
  9
$DIMATFIT
 70
3
  9
$DIMFRAC
 70
0
  9
$DIMLDRBLK
  1

  9
$DIMLUNIT
 70
2
  9
$DIMLWD
 70
-2
  9
$DIMLWE
 70
-2
  9
$DIMTMOVE
 70
0
  9
$DIMFXL
 40
1.0
  9
$DIMFXLON
 70
0
  9
$DIMJOGANG
 40
0.785398163397
  9
$DIMTFILL
 70
0
  9
$DIMTFILLCLR
 70
0
  9
$DIMARCSYM
 70
0
  9
$DIMLTYPE
  6

  9
$DIMLTEX1
  6

  9
$DIMLTEX2
  6

  9
$DIMTXTDIRECTION
 70
0
  9
$LUNITS
 70
2
  9
$LUPREC
 70
4
  9
$SKETCHINC
 40
1.0
  9
$FILLETRAD
 40
10.0
  9
$AUNITS
 70
0
  9
$AUPREC
 70
2
  9
$MENU
  1
.
  9
$ELEVATION
 40
0.0
  9
$PELEVATION
 40
0.0
  9
$THICKNESS
 40
0.0
  9
$LIMCHECK
 70
0
  9
$CHAMFERA
 40
0.0
  9
$CHAMFERB
 40
0.0
  9
$CHAMFERC
 40
0.0
  9
$CHAMFERD
 40
0.0
  9
$SKPOLY
 70
0
  9
$TDCREATE
 40
2461317.9818171295
  9
$TDUCREATE
 40
2458532.153996898
  9
$TDUPDATE
 40
2461317.9818171295
  9
$TDUUPDATE
 40
2458532.1544311
  9
$TDINDWG
 40
0.0
  9
$TDUSRTIMER
 40
0.0
  9
$USRTIMER
 70
1
  9
$ANGBASE
 50
0.0
  9
$ANGDIR
 70
0
  9
$PDMODE
 70
0
  9
$PDSIZE
 40
0.0
  9
$PLINEWID
 40
0.0
  9
$SPLFRAME
 70
0
  9
$SPLINETYPE
 70
6
  9
$SPLINESEGS
 70
8
  9
$HANDSEED
  5
177
  9
$SURFTAB1
 70
6
  9
$SURFTAB2
 70
6
  9
$SURFTYPE
 70
6
  9
$SURFU
 70
6
  9
$SURFV
 70
6
  9
$UCSBASE
  2

  9
$UCSNAME
  2

  9
$UCSORG
 10
0.0
 20
0.0
 30
0.0
  9
$UCSXDIR
 10
1.0
 20
0.0
 30
0.0
  9
$UCSYDIR
 10
0.0
 20
1.0
 30
0.0
  9
$UCSORTHOREF
  2

  9
$UCSORTHOVIEW
 70
0
  9
$UCSORGTOP
 10
0.0
 20
0.0
 30
0.0
  9
$UCSORGBOTTOM
 10
0.0
 20
0.0
 30
0.0
  9
$UCSORGLEFT
 10
0.0
 20
0.0
 30
0.0
  9
$UCSORGRIGHT
 10
0.0
 20
0.0
 30
0.0
  9
$UCSORGFRONT
 10
0.0
 20
0.0
 30
0.0
  9
$UCSORGBACK
 10
0.0
 20
0.0
 30
0.0
  9
$PUCSBASE
  2

  9
$PUCSNAME
  2

  9
$PUCSORG
 10
0.0
 20
0.0
 30
0.0
  9
$PUCSXDIR
 10
1.0
 20
0.0
 30
0.0
  9
$PUCSYDIR
 10
0.0
 20
1.0
 30
0.0
  9
$PUCSORTHOREF
  2

  9
$PUCSORTHOVIEW
 70
0
  9
$PUCSORGTOP
 10
0.0
 20
0.0
 30
0.0
  9
$PUCSORGBOTTOM
 10
0.0
 20
0.0
 30
0.0
  9
$PUCSORGLEFT
 10
0.0
 20
0.0
 30
0.0
  9
$PUCSORGRIGHT
 10
0.0
 20
0.0
 30
0.0
  9
$PUCSORGFRONT
 10
0.0
 20
0.0
 30
0.0
  9
$PUCSORGBACK
 10
0.0
 20
0.0
 30
0.0
  9
$USERI1
 70
0
  9
$USERI2
 70
0
  9
$USERI3
 70
0
  9
$USERI4
 70
0
  9
$USERI5
 70
0
  9
$USERR1
 40
0.0
  9
$USERR2
 40
0.0
  9
$USERR3
 40
0.0
  9
$USERR4
 40
0.0
  9
$USERR5
 40
0.0
  9
$WORLDVIEW
 70
1
  9
$SHADEDGE
 70
3
  9
$SHADEDIF
 70
70
  9
$TILEMODE
 70
1
  9
$MAXACTVP
 70
64
  9
$PINSBASE
 10
0.0
 20
0.0
 30
0.0
  9
$PLIMCHECK
 70
0
  9
$PEXTMIN
 10
1e+20
 20
1e+20
 30
1e+20
  9
$PEXTMAX
 10
-1e+20
 20
-1e+20
 30
-1e+20
  9
$PLIMMIN
 10
0.0
 20
0.0
  9
$PLIMMAX
 10
420.0
 20
297.0
  9
$UNITMODE
 70
0
  9
$VISRETAIN
 70
1
  9
$PLINEGEN
 70
0
  9
$PSLTSCALE
 70
1
  9
$TREEDEPTH
 70
3020
  9
$CMLSTYLE
  2
Standard
  9
$CMLJUST
 70
0
  9
$CMLSCALE
 40
20.0
  9
$PROXYGRAPHICS
 70
1
  9
$MEASUREMENT
 70
0
  9
$CELWEIGHT
370
-1
  9
$ENDCAPS
280
0
  9
$JOINSTYLE
280
0
  9
$LWDISPLAY
290
0
  9
$INSUNITS
 70
1
  9
$HYPERLINKBASE
  1

  9
$STYLESHEET
  1

  9
$XEDIT
290
1
  9
$CEPSNTYPE
380
0
  9
$PSTYLEMODE
290
1
  9
$FINGERPRINTGUID
  2
{B53605F7-BF18-4AE7-B35F-B62D8E28A2BF}
  9
$VERSIONGUID
  2
{B3D48BE7-C36F-41BB-960D-2C3021FA88F3}
  9
$EXTNAMES
290
1
  9
$PSVPSCALE
 40
0.0
  9
$OLESTARTUP
290
0
  9
$SORTENTS
280
127
  9
$INDEXCTL
280
0
  9
$HIDETEXT
280
1
  9
$XCLIPFRAME
280
1
  9
$HALOGAP
280
0
  9
$OBSCOLOR
 70
257
  9
$OBSLTYPE
280
0
  9
$INTERSECTIONDISPLAY
280
0
  9
$INTERSECTIONCOLOR
 70
257
  9
$DIMASSOC
280
2
  9
$PROJECTNAME
  1

  9
$CAMERADISPLAY
290
0
  9
$LENSLENGTH
 40
50.0
  9
$CAMERAHEIGHT
 40
0.0
  9
$STEPSPERSEC
 40
24.0
  9
$STEPSIZE
 40
100.0
  9
$3DDWFPREC
 40
2.0
  9
$PSOLWIDTH
 40
0.005
  9
$PSOLHEIGHT
 40
0.08
  9
$LOFTANG1
 40
1.570796326795
  9
$LOFTANG2
 40
1.570796326795
  9
$LOFTMAG1
 40
0.0
  9
$LOFTMAG2
 40
0.0
  9
$LOFTPARAM
 70
7
  9
$LOFTNORMALS
280
1
  9
$LATITUDE
 40
37.795
  9
$LONGITUDE
 40
-122.394
  9
$NORTHDIRECTION
 40
0.0
  9
$TIMEZONE
 70
-8000
  9
$LIGHTGLYPHDISPLAY
280
1
  9
$TILEMODELIGHTSYNCH
280
1
  9
$CMATERIAL
347
20
  9
$SOLIDHIST
280
0
  9
$SHOWHIST
280
1
  9
$DWFFRAME
280
2
  9
$DGNFRAME
280
2
  9
$REALWORLDSCALE
290
1
  9
$INTERFERECOLOR
 62
256
  9
$CSHADOW
280
0
  9
$SHADOWPLANELOCATION
 40
0.0
  0
ENDSEC
  0
SECTION
  2
CLASSES
  0
CLASS
  1
ACDBDICTIONARYWDFLT
  2
AcDbDictionaryWithDefault
  3
ObjectDBX Classes
 90
0
 91
0
280
0
281
0
  0
CLASS
  1
SUN
  2
AcDbSun
  3
SCENEOE
 90
1153
 91
0
280
0
281
0
  0
CLASS
  1
VISUALSTYLE
  2
AcDbVisualStyle
  3
ObjectDBX Classes
 90
4095
 91
0
280
0
281
0
  0
CLASS
  1
MATERIAL
  2
AcDbMaterial
  3
ObjectDBX Classes
 90
1153
 91
0
280
0
281
0
  0
CLASS
  1
SCALE
  2
AcDbScale
  3
ObjectDBX Classes
 90
1153
 91
0
280
0
281
0
  0
CLASS
  1
TABLESTYLE
  2
AcDbTableStyle
  3
ObjectDBX Classes
 90
4095
 91
0
280
0
281
0
  0
CLASS
  1
MLEADERSTYLE
  2
AcDbMLeaderStyle
  3
ACDB_MLEADERSTYLE_CLASS
 90
4095
 91
0
280
0
281
0
  0
CLASS
  1
DICTIONARYVAR
  2
AcDbDictionaryVar
  3
ObjectDBX Classes
 90
0
 91
0
280
0
281
0
  0
CLASS
  1
CELLSTYLEMAP
  2
AcDbCellStyleMap
  3
ObjectDBX Classes
 90
1152
 91
0
280
0
281
0
  0
CLASS
  1
MENTALRAYRENDERSETTINGS
  2
AcDbMentalRayRenderSettings
  3
SCENEOE
 90
1024
 91
0
280
0
281
0
  0
CLASS
  1
ACDBDETAILVIEWSTYLE
  2
AcDbDetailViewStyle
  3
ObjectDBX Classes
 90
1025
 91
0
280
0
281
0
  0
CLASS
  1
ACDBSECTIONVIEWSTYLE
  2
AcDbSectionViewStyle
  3
ObjectDBX Classes
 90
1025
 91
0
280
0
281
0
  0
CLASS
  1
RASTERVARIABLES
  2
AcDbRasterVariables
  3
ISM
 90
0
 91
0
280
0
281
0
  0
CLASS
  1
LAYOUT
  2
AcDbLayout
  3
ObjectDBX Classes
 90
0
 91
0
280
0
281
0
  0
CLASS
  1
ACDBPLACEHOLDER
  2
AcDbPlaceHolder
  3
ObjectDBX Classes
 90
0
 91
0
280
0
281
0
  0
ENDSEC
  0
SECTION
  2
TABLES
  0
TABLE
  2
VPORT
  5
8
330
0
100
AcDbSymbolTable
 70
1
  0
VPORT
  5
23
330
8
100
AcDbSymbolTableRecord
100
AcDbViewportTableRecord
  2
*Active
 70
0
 10
0.0
 20
0.0
 11
1.0
 21
1.0
 12
0.0
 22
0.0
 13
0.0
 23
0.0
 14
0.5
 24
0.5
 15
0.5
 25
0.5
 16
0.0
 26
0.0
 36
1.0
 17
0.0
 27
0.0
 37
0.0
 40
1000.0
 41
1.34
 42
50.0
 43
0.0
 44
0.0
 50
0.0
 51
0.0
 71
0
 72
1000
 73
1
 74
3
 75
0
 76
0
 77
0
 78
0
281
0
 65
0
146
0.0
  0
ENDTAB
  0
TABLE
  2
LTYPE
  5
2
330
0
100
AcDbSymbolTable
 70
3
  0
LTYPE
  5
24
330
2
100
AcDbSymbolTableRecord
100
AcDbLinetypeTableRecord
  2
ByBlock
 70
0
  3

 72
65
 73
0
 40
0.0
  0
LTYPE
  5
25
330
2
100
AcDbSymbolTableRecord
100
AcDbLinetypeTableRecord
  2
ByLayer
 70
0
  3

 72
65
 73
0
 40
0.0
  0
LTYPE
  5
26
330
2
100
AcDbSymbolTableRecord
100
AcDbLinetypeTableRecord
  2
Continuous
 70
0
  3

 72
65
 73
0
 40
0.0
  0
ENDTAB
  0
TABLE
  2
LAYER
  5
1
330
0
100
AcDbSymbolTable
 70
5
  0
LAYER
  5
27
330
1
100
AcDbSymbolTableRecord
100
AcDbLayerTableRecord
  2
0
 70
0
 62
7
  6
Continuous
370
-3
390
13
347
21
  0
LAYER
  5
28
330
1
100
AcDbSymbolTableRecord
100
AcDbLayerTableRecord
  2
Defpoints
 70
0
 62
7
  6
Continuous
290
0
370
-3
390
13
347
21
  0
LAYER
  5
31
330
1
100
AcDbSymbolTableRecord
100
AcDbLayerTableRecord
  2
G-ANNO-TTLB
 70
0
 62
7
  6
Continuous
370
-3
390
13
347
21
  0
LAYER
  5
32
330
1
100
AcDbSymbolTableRecord
100
AcDbLayerTableRecord
  2
A-ANNO-TEXT
 70
0
 62
7
  6
Continuous
370
-3
390
13
347
21
  0
LAYER
  5
33
330
1
100
AcDbSymbolTableRecord
100
AcDbLayerTableRecord
  2
A-ANNO-TABL
 70
0
 62
7
  6
Continuous
370
-3
390
13
347
21
  0
ENDTAB
  0
TABLE
  2
STYLE
  5
5
330
0
100
AcDbSymbolTable
 70
3
  0
STYLE
  5
29
330
5
100
AcDbSymbolTableRecord
100
AcDbTextStyleTableRecord
  2
Standard
 70
0
 40
0.0
 41
1.0
 50
0.0
 71
0
 42
2.5
  3
txt
  4

  0
STYLE
  5
2F
330
5
100
AcDbSymbolTableRecord
100
AcDbTextStyleTableRecord
  2
KS-REG
 70
0
 40
0.0
 41
1.0
 50
0.0
 71
0
 42
2.5
  3
DejaVuSans.ttf
  4

  0
STYLE
  5
30
330
5
100
AcDbSymbolTableRecord
100
AcDbTextStyleTableRecord
  2
KS-BOLD
 70
0
 40
0.0
 41
1.0
 50
0.0
 71
0
 42
2.5
  3
DejaVuSans-Bold.ttf
  4

  0
ENDTAB
  0
TABLE
  2
VIEW
  5
7
330
0
100
AcDbSymbolTable
 70
0
  0
ENDTAB
  0
TABLE
  2
UCS
  5
6
330
0
100
AcDbSymbolTable
 70
0
  0
ENDTAB
  0
TABLE
  2
APPID
  5
3
330
0
100
AcDbSymbolTable
 70
3
  0
APPID
  5
2A
330
3
100
AcDbSymbolTableRecord
100
AcDbRegAppTableRecord
  2
ACAD
 70
0
  0
APPID
  5
174
330
3
100
AcDbSymbolTableRecord
100
AcDbRegAppTableRecord
  2
HATCHBACKGROUNDCOLOR
 70
0
  0
APPID
  5
175
330
3
100
AcDbSymbolTableRecord
100
AcDbRegAppTableRecord
  2
EZDXF
 70
0
  0
ENDTAB
  0
TABLE
  2
DIMSTYLE
  5
4
330
0
100
AcDbSymbolTable
 70
1
100
AcDbDimStyleTable
  0
DIMSTYLE
105
2B
330
4
100
AcDbSymbolTableRecord
100
AcDbDimStyleTableRecord
  2
Standard
 70
0
 40
1.0
 41
2.5
 42
0.625
 43
3.75
 44
1.25
 45
0.0
 46
0.0
 47
0.0
 48
0.0
 49
2.5
140
2.5
141
2.5
142
0.0
143
0.03937007874
144
1.0
145
0.0
146
1.0
147
0.625
148
0.0
 69
0
 70
0
 71
0
 72
0
 73
0
 74
0
 75
0
 76
0
 77
1
 78
8
 79
3
170
0
171
3
172
1
173
0
174
0
175
0
176
0
177
0
178
0
179
2
271
2
272
2
273
2
274
3
275
0
276
0
277
2
278
44
279
0
280
0
281
0
282
0
283
0
284
8
285
0
286
0
288
0
289
3
290
0
371
-2
372
-2
  0
ENDTAB
  0
TABLE
  2
BLOCK_RECORD
  5
9
330
0
100
AcDbSymbolTable
 70
2
  0
BLOCK_RECORD
  5
17
330
9
100
AcDbSymbolTableRecord
100
AcDbBlockTableRecord
  2
*Model_Space
340
1A
 70
0
280
1
281
0
  0
BLOCK_RECORD
  5
1B
330
9
100
AcDbSymbolTableRecord
100
AcDbBlockTableRecord
  2
*Paper_Space
340
1E
 70
0
280
1
281
0
  0
ENDTAB
  0
ENDSEC
  0
SECTION
  2
BLOCKS
  0
BLOCK
  5
18
330
17
100
AcDbEntity
  8
0
100
AcDbBlockBegin
  2
*Model_Space
 70
0
 10
0.0
 20
0.0
 30
0.0
  3
*Model_Space
  1

  0
ENDBLK
  5
19
330
17
100
AcDbEntity
  8
0
100
AcDbBlockEnd
  0
BLOCK
  5
1C
330
1B
100
AcDbEntity
  8
0
100
AcDbBlockBegin
  2
*Paper_Space
 70
0
 10
0.0
 20
0.0
 30
0.0
  3
*Paper_Space
  1

  0
ENDBLK
  5
1D
330
1B
100
AcDbEntity
  8
0
100
AcDbBlockEnd
  0
ENDSEC
  0
SECTION
  2
ENTITIES
  0
LWPOLYLINE
  5
34
330
17
100
AcDbEntity
  8
G-ANNO-TTLB
100
AcDbPolyline
 90
4
 70
1
 10
0.5
 20
0.5
 10
16.5
 20
0.5
 10
16.5
 20
10.5
 10
0.5
 20
10.5
  0
LWPOLYLINE
  5
35
330
17
100
AcDbEntity
  8
G-ANNO-TTLB
100
AcDbPolyline
 90
4
 70
1
 10
0.5
 20
1.45
 10
16.5
 20
1.45
 10
16.5
 20
1.85
 10
0.5
 20
1.85
  0
TEXT
  5
36
330
17
100
AcDbEntity
  8
G-ANNO-TTLB
100
AcDbText
 10
8.5
 20
1.5699999999999998
 30
0.0
 40
0.16999999999999998
  1
PRELIMINARY — CONCEPTUAL DESIGN — NOT FOR CONSTRUCTION
  7
KS-BOLD
 72
1
 11
8.5
 21
1.5699999999999998
 31
0.0
100
AcDbText
  0
LINE
  5
37
330
17
100
AcDbEntity
  8
G-ANNO-TTLB
100
AcDbLine
 10
0.5
 20
1.45
 30
0.0
 11
16.5
 21
1.45
 31
0.0
  0
TEXT
  5
38
330
17
100
AcDbEntity
  8
G-ANNO-TTLB
100
AcDbText
 10
0.58
 20
1.28
 30
0.0
 40
0.06999999999999999
  1
PROJECT
  7
KS-REG
 11
0.58
 21
1.28
 31
0.0
100
AcDbText
  0
TEXT
  5
39
330
17
100
AcDbEntity
  8
G-ANNO-TTLB
100
AcDbText
 10
0.58
 20
0.9991666666666666
 30
0.0
 40
0.11499999999999999
  1
Hazel Green Regional Athletic Complex
  7
KS-BOLD
 11
0.58
 21
0.9991666666666666
 31
0.0
100
AcDbText
  0
TEXT
  5
3A
330
17
100
AcDbEntity
  8
G-ANNO-TTLB
100
AcDbText
 10
0.58
 20
0.7883333333333333
 30
0.0
 40
0.11499999999999999
  1
Trojan Horse Arena · Hazel Green area, Madison
  7
KS-BOLD
 11
0.58
 21
0.7883333333333333
 31
0.0
100
AcDbText
  0
TEXT
  5
3B
330
17
100
AcDbEntity
  8
G-ANNO-TTLB
100
AcDbText
 10
0.58
 20
0.5775
 30
0.0
 40
0.11499999999999999
  1
County, Alabama (site TBD, D-006)
  7
KS-BOLD
 11
0.58
 21
0.5775
 31
0.0
100
AcDbText
  0
LINE
  5
3C
330
17
100
AcDbEntity
  8
G-ANNO-TTLB
100
AcDbLine
 10
5.2
 20
0.5
 30
0.0
 11
5.2
 21
1.45
 31
0.0
  0
TEXT
  5
3D
330
17
100
AcDbEntity
  8
G-ANNO-TTLB
100
AcDbText
 10
5.28
 20
1.28
 30
0.0
 40
0.06999999999999999
  1
PHASE
  7
KS-REG
 11
5.28
 21
1.28
 31
0.0
100
AcDbText
  0
TEXT
  5
3E
330
17
100
AcDbEntity
  8
G-ANNO-TTLB
100
AcDbText
 10
5.28
 20
0.9716666666666667
 30
0.0
 40
0.13
  1
PHASE 2
  7
KS-BOLD
 11
5.28
 21
0.9716666666666667
 31
0.0
100
AcDbText
  0
LINE
  5
3F
330
17
100
AcDbEntity
  8
G-ANNO-TTLB
100
AcDbLine
 10
6.7
 20
0.5
 30
0.0
 11
6.7
 21
1.45
 31
0.0
  0
TEXT
  5
40
330
17
100
AcDbEntity
  8
G-ANNO-TTLB
100
AcDbText
 10
6.78
 20
1.28
 30
0.0
 40
0.06999999999999999
  1
SHEET TITLE
  7
KS-REG
 11
6.78
 21
1.28
 31
0.0
100
AcDbText
  0
TEXT
  5
41
330
17
100
AcDbEntity
  8
G-ANNO-TTLB
100
AcDbText
 10
6.78
 20
0.9991666666666666
 30
0.0
 40
0.11499999999999999
  1
PROGRAM TEST-FIT, SUITES
  7
KS-BOLD
 11
6.78
 21
0.9991666666666666
 31
0.0
100
AcDbText
  0
TEXT
  5
42
330
17
100
AcDbEntity
  8
G-ANNO-TTLB
100
AcDbText
 10
6.78
 20
0.7883333333333333
 30
0.0
 40
0.11499999999999999
  1
FOOTPRINT MATH, NOT A PLAN
  7
KS-BOLD
 11
6.78
 21
0.7883333333333333
 31
0.0
100
AcDbText
  0
LINE
  5
43
330
17
100
AcDbEntity
  8
G-ANNO-TTLB
100
AcDbLine
 10
9.8
 20
0.5
 30
0.0
 11
9.8
 21
1.45
 31
0.0
  0
TEXT
  5
44
330
17
100
AcDbEntity
  8
G-ANNO-TTLB
100
AcDbText
 10
9.88
 20
1.28
 30
0.0
 40
0.06999999999999999
  1
SCALE
  7
KS-REG
 11
9.88
 21
1.28
 31
0.0
100
AcDbText
  0
TEXT
  5
45
330
17
100
AcDbEntity
  8
G-ANNO-TTLB
100
AcDbText
 10
9.88
 20
0.9716666666666667
 30
0.0
 40
0.13
  1
NTS
  7
KS-BOLD
 11
9.88
 21
0.9716666666666667
 31
0.0
100
AcDbText
  0
LINE
  5
46
330
17
100
AcDbEntity
  8
G-ANNO-TTLB
100
AcDbLine
 10
10.700000000000001
 20
0.5
 30
0.0
 11
10.700000000000001
 21
1.45
 31
0.0
  0
TEXT
  5
47
330
17
100
AcDbEntity
  8
G-ANNO-TTLB
100
AcDbText
 10
10.780000000000001
 20
1.28
 30
0.0
 40
0.06999999999999999
  1
DATE
  7
KS-REG
 11
10.780000000000001
 21
1.28
 31
0.0
100
AcDbText
  0
TEXT
  5
48
330
17
100
AcDbEntity
  8
G-ANNO-TTLB
100
AcDbText
 10
10.780000000000001
 20
0.9716666666666667
 30
0.0
 40
0.13
  1
October
  7
KS-BOLD
 11
10.780000000000001
 21
0.9716666666666667
 31
0.0
100
AcDbText
  0
TEXT
  5
49
330
17
100
AcDbEntity
  8
G-ANNO-TTLB
100
AcDbText
 10
10.780000000000001
 20
0.7333333333333334
 30
0.0
 40
0.13
  1
2026
  7
KS-BOLD
 11
10.780000000000001
 21
0.7333333333333334
 31
0.0
100
AcDbText
  0
LINE
  5
4A
330
17
100
AcDbEntity
  8
G-ANNO-TTLB
100
AcDbLine
 10
12.15
 20
0.5
 30
0.0
 11
12.15
 21
1.45
 31
0.0
  0
TEXT
  5
4B
330
17
100
AcDbEntity
  8
G-ANNO-TTLB
100
AcDbText
 10
12.23
 20
1.28
 30
0.0
 40
0.06999999999999999
  1
REV
  7
KS-REG
 11
12.23
 21
1.28
 31
0.0
100
AcDbText
  0
TEXT
  5
4C
330
17
100
AcDbEntity
  8
G-ANNO-TTLB
100
AcDbText
 10
12.23
 20
0.9716666666666667
 30
0.0
 40
0.13
  1
C
  7
KS-BOLD
 11
12.23
 21
0.9716666666666667
 31
0.0
100
AcDbText
  0
LINE
  5
4D
330
17
100
AcDbEntity
  8
G-ANNO-TTLB
100
AcDbLine
 10
12.9
 20
0.5
 30
0.0
 11
12.9
 21
1.45
 31
0.0
  0
TEXT
  5
4E
330
17
100
AcDbEntity
  8
G-ANNO-TTLB
100
AcDbText
 10
12.98
 20
1.28
 30
0.0
 40
0.06999999999999999
  1
DRAWN BY
  7
KS-REG
 11
12.98
 21
1.28
 31
0.0
100
AcDbText
  0
TEXT
  5
4F
330
17
100
AcDbEntity
  8
G-ANNO-TTLB
100
AcDbText
 10
12.98
 20
1.0358333333333332
 30
0.0
 40
0.095
  1
Drawn by KEYSTONE (AI) for
  7
KS-REG
 11
12.98
 21
1.0358333333333332
 31
0.0
100
AcDbText
  0
TEXT
  5
50
330
17
100
AcDbEntity
  8
G-ANNO-TTLB
100
AcDbText
 10
12.98
 20
0.8616666666666665
 30
0.0
 40
0.095
  1
Shane Brazelton
  7
KS-REG
 11
12.98
 21
0.8616666666666665
 31
0.0
100
AcDbText
  0
LINE
  5
51
330
17
100
AcDbEntity
  8
G-ANNO-TTLB
100
AcDbLine
 10
15.0
 20
0.5
 30
0.0
 11
15.0
 21
1.45
 31
0.0
  0
TEXT
  5
52
330
17
100
AcDbEntity
  8
G-ANNO-TTLB
100
AcDbText
 10
15.08
 20
1.28
 30
0.0
 40
0.06999999999999999
  1
SHEET
  7
KS-REG
 11
15.08
 21
1.28
 31
0.0
100
AcDbText
  0
TEXT
  5
53
330
17
100
AcDbEntity
  8
G-ANNO-TTLB
100
AcDbText
 10
15.75
 20
0.77
 30
0.0
 40
0.18
  1
P2-G-003
  7
KS-BOLD
 72
1
 11
15.75
 21
0.77
 31
0.0
100
AcDbText
  0
TEXT
  5
54
330
17
100
AcDbEntity
  8
A-ANNO-TEXT
100
AcDbText
 10
0.6799999999999999
 20
10.180000000000001
 30
0.0
 40
0.11499999999999999
  1
1  SCENARIOS — BOWL SEATS + SUITES ≈ 2,200 SPECTATORS (BASE INPUTS)
  7
KS-BOLD
 11
0.6799999999999999
 21
10.180000000000001
 31
0.0
100
AcDbText
  0
TEXT
  5
55
330
17
100
AcDbEntity
  8
A-ANNO-TABL
100
AcDbText
 10
0.6799999999999999
 20
9.932
 30
0.0
 40
0.07400000000000001
  1
FLOOR SF
  7
KS-BOLD
 11
0.6799999999999999
 21
9.932
 31
0.0
100
AcDbText
  0
TEXT
  5
56
330
17
100
AcDbEntity
  8
A-ANNO-TABL
100
AcDbText
 10
1.98
 20
9.932
 30
0.0
 40
0.07400000000000001
  1
BOWL
  7
KS-BOLD
 72
2
 11
1.98
 21
9.932
 31
0.0
100
AcDbText
  0
TEXT
  5
57
330
17
100
AcDbEntity
  8
A-ANNO-TABL
100
AcDbText
 10
2.83
 20
9.932
 30
0.0
 40
0.07400000000000001
  1
SUITES
  7
KS-BOLD
 72
2
 11
2.83
 21
9.932
 31
0.0
100
AcDbText
  0
TEXT
  5
58
330
17
100
AcDbEntity
  8
A-ANNO-TABL
100
AcDbText
 10
3.5300000000000002
 20
9.932
 30
0.0
 40
0.07400000000000001
  1
SPECT.
  7
KS-BOLD
 72
2
 11
3.5300000000000002
 21
9.932
 31
0.0
100
AcDbText
  0
TEXT
  5
59
330
17
100
AcDbEntity
  8
A-ANNO-TABL
100
AcDbText
 10
4.33
 20
9.932
 30
0.0
 40
0.07400000000000001
  1
SUITE SF
  7
KS-BOLD
 72
2
 11
4.33
 21
9.932
 31
0.0
100
AcDbText
  0
TEXT
  5
5A
330
17
100
AcDbEntity
  8
A-ANNO-TABL
100
AcDbText
 10
5.08
 20
9.932
 30
0.0
 40
0.07400000000000001
  1
FRONT FT
  7
KS-BOLD
 72
2
 11
5.08
 21
9.932
 31
0.0
100
AcDbText
  0
TEXT
  5
5B
330
17
100
AcDbEntity
  8
A-ANNO-TABL
100
AcDbText
 10
5.9799999999999995
 20
9.932
 30
0.0
 40
0.07400000000000001
  1
FOOTPRINT
  7
KS-BOLD
 72
2
 11
5.9799999999999995
 21
9.932
 31
0.0
100
AcDbText
  0
TEXT
  5
5C
330
17
100
AcDbEntity
  8
A-ANNO-TABL
100
AcDbText
 10
6.83
 20
9.932
 30
0.0
 40
0.07400000000000001
  1
TOTAL GSF
  7
KS-BOLD
 72
2
 11
6.83
 21
9.932
 31
0.0
100
AcDbText
  0
TEXT
  5
5D
330
17
100
AcDbEntity
  8
A-ANNO-TABL
100
AcDbText
 10
7.2299999999999995
 20
9.932
 30
0.0
 40
0.07400000000000001
  1
LVL
  7
KS-BOLD
 72
2
 11
7.2299999999999995
 21
9.932
 31
0.0
100
AcDbText
  0
TEXT
  5
5E
330
17
100
AcDbEntity
  8
A-ANNO-TABL
100
AcDbText
 10
7.88
 20
9.932
 30
0.0
 40
0.07400000000000001
  1
FIT
  7
KS-BOLD
 72
2
 11
7.88
 21
9.932
 31
0.0
100
AcDbText
  0
LINE
  5
5F
330
17
100
AcDbEntity
  8
A-ANNO-TABL
100
AcDbLine
 10
0.6799999999999999
 20
9.862000000000002
 30
0.0
 11
7.88
 21
9.862000000000002
 31
0.0
  0
TEXT
  5
60
330
17
100
AcDbEntity
  8
A-ANNO-TABL
100
AcDbText
 10
0.6799999999999999
 20
9.704
 30
0.0
 40
0.08199999999999999
  1
22,000  (locked floor): suites up to 2,200 — NO FIT at 12, 16 or 20 guests, suites on L2 or L3.
  7
KS-BOLD
 11
0.6799999999999999
 21
9.704
 31
0.0
100
AcDbText
  0
TEXT
  5
61
330
17
100
AcDbEntity
  8
A-ANNO-TABL
100
AcDbText
 10
0.7799999999999999
 20
9.506
 30
0.0
 40
0.077
  1
Most spectators that fit (suites on L3, bowl reduced to make room):
  7
KS-REG
 11
0.7799999999999999
 21
9.506
 31
0.0
100
AcDbText
  0
TEXT
  5
62
330
17
100
AcDbEntity
  8
A-ANNO-TABL
100
AcDbText
 10
0.6799999999999999
 20
9.308
 30
0.0
 40
0.08199999999999999
  1
   22,000
  7
KS-REG
 11
0.6799999999999999
 21
9.308
 31
0.0
100
AcDbText
  0
TEXT
  5
63
330
17
100
AcDbEntity
  8
A-ANNO-TABL
100
AcDbText
 10
1.98
 20
9.308
 30
0.0
 40
0.08199999999999999
  1
1,180
  7
KS-REG
 72
2
 11
1.98
 21
9.308
 31
0.0
100
AcDbText
  0
TEXT
  5
64
330
17
100
AcDbEntity
  8
A-ANNO-TABL
100
AcDbText
 10
2.83
 20
9.308
 30
0.0
 40
0.08199999999999999
  1
38 x 12
  7
KS-REG
 72
2
 11
2.83
 21
9.308
 31
0.0
100
AcDbText
  0
TEXT
  5
65
330
17
100
AcDbEntity
  8
A-ANNO-TABL
100
AcDbText
 10
3.5300000000000002
 20
9.308
 30
0.0
 40
0.08199999999999999
  1
1,636
  7
KS-REG
 72
2
 11
3.5300000000000002
 21
9.308
 31
0.0
100
AcDbText
  0
TEXT
  5
66
330
17
100
AcDbEntity
  8
A-ANNO-TABL
100
AcDbText
 10
4.33
 20
9.308
 30
0.0
 40
0.08199999999999999
  1
12,933
  7
KS-REG
 72
2
 11
4.33
 21
9.308
 31
0.0
100
AcDbText
  0
TEXT
  5
67
330
17
100
AcDbEntity
  8
A-ANNO-TABL
100
AcDbText
 10
5.08
 20
9.308
 30
0.0
 40
0.08199999999999999
  1
418
  7
KS-REG
 72
2
 11
5.08
 21
9.308
 31
0.0
100
AcDbText
  0
TEXT
  5
68
330
17
100
AcDbEntity
  8
A-ANNO-TABL
100
AcDbText
 10
5.9799999999999995
 20
9.308
 30
0.0
 40
0.08199999999999999
  1
54,992
  7
KS-REG
 72
2
 11
5.9799999999999995
 21
9.308
 31
0.0
100
AcDbText
  0
TEXT
  5
69
330
17
100
AcDbEntity
  8
A-ANNO-TABL
100
AcDbText
 10
6.83
 20
9.308
 30
0.0
 40
0.08199999999999999
  1
96,826
  7
KS-REG
 72
2
 11
6.83
 21
9.308
 31
0.0
100
AcDbText
  0
TEXT
  5
6A
330
17
100
AcDbEntity
  8
A-ANNO-TABL
100
AcDbText
 10
7.2299999999999995
 20
9.308
 30
0.0
 40
0.08199999999999999
  1
3
  7
KS-REG
 72
2
 11
7.2299999999999995
 21
9.308
 31
0.0
100
AcDbText
  0
TEXT
  5
6B
330
17
100
AcDbEntity
  8
A-ANNO-TABL
100
AcDbText
 10
7.88
 20
9.308
 30
0.0
 40
0.08199999999999999
  1
YES
  7
KS-REG
 72
2
 11
7.88
 21
9.308
 31
0.0
100
AcDbText
  0
TEXT
  5
6C
330
17
100
AcDbEntity
  8
A-ANNO-TABL
100
AcDbText
 10
0.6799999999999999
 20
9.11
 30
0.0
 40
0.08199999999999999
  1
   22,000
  7
KS-REG
 11
0.6799999999999999
 21
9.11
 31
0.0
100
AcDbText
  0
TEXT
  5
6D
330
17
100
AcDbEntity
  8
A-ANNO-TABL
100
AcDbText
 10
1.98
 20
9.11
 30
0.0
 40
0.08199999999999999
  1
1,190
  7
KS-REG
 72
2
 11
1.98
 21
9.11
 31
0.0
100
AcDbText
  0
TEXT
  5
6E
330
17
100
AcDbEntity
  8
A-ANNO-TABL
100
AcDbText
 10
2.83
 20
9.11
 30
0.0
 40
0.08199999999999999
  1
28 x 16
  7
KS-REG
 72
2
 11
2.83
 21
9.11
 31
0.0
100
AcDbText
  0
TEXT
  5
6F
330
17
100
AcDbEntity
  8
A-ANNO-TABL
100
AcDbText
 10
3.5300000000000002
 20
9.11
 30
0.0
 40
0.08199999999999999
  1
1,638
  7
KS-REG
 72
2
 11
3.5300000000000002
 21
9.11
 31
0.0
100
AcDbText
  0
TEXT
  5
70
330
17
100
AcDbEntity
  8
A-ANNO-TABL
100
AcDbText
 10
4.33
 20
9.11
 30
0.0
 40
0.08199999999999999
  1
12,637
  7
KS-REG
 72
2
 11
4.33
 21
9.11
 31
0.0
100
AcDbText
  0
TEXT
  5
71
330
17
100
AcDbEntity
  8
A-ANNO-TABL
100
AcDbText
 10
5.08
 20
9.11
 30
0.0
 40
0.08199999999999999
  1
392
  7
KS-REG
 72
2
 11
5.08
 21
9.11
 31
0.0
100
AcDbText
  0
TEXT
  5
72
330
17
100
AcDbEntity
  8
A-ANNO-TABL
100
AcDbText
 10
5.9799999999999995
 20
9.11
 30
0.0
 40
0.08199999999999999
  1
54,967
  7
KS-REG
 72
2
 11
5.9799999999999995
 21
9.11
 31
0.0
100
AcDbText
  0
TEXT
  5
73
330
17
100
AcDbEntity
  8
A-ANNO-TABL
100
AcDbText
 10
6.83
 20
9.11
 30
0.0
 40
0.08199999999999999
  1
96,327
  7
KS-REG
 72
2
 11
6.83
 21
9.11
 31
0.0
100
AcDbText
  0
TEXT
  5
74
330
17
100
AcDbEntity
  8
A-ANNO-TABL
100
AcDbText
 10
7.2299999999999995
 20
9.11
 30
0.0
 40
0.08199999999999999
  1
3
  7
KS-REG
 72
2
 11
7.2299999999999995
 21
9.11
 31
0.0
100
AcDbText
  0
TEXT
  5
75
330
17
100
AcDbEntity
  8
A-ANNO-TABL
100
AcDbText
 10
7.88
 20
9.11
 30
0.0
 40
0.08199999999999999
  1
YES
  7
KS-REG
 72
2
 11
7.88
 21
9.11
 31
0.0
100
AcDbText
  0
TEXT
  5
76
330
17
100
AcDbEntity
  8
A-ANNO-TABL
100
AcDbText
 10
0.6799999999999999
 20
8.911999999999999
 30
0.0
 40
0.08199999999999999
  1
   22,000
  7
KS-REG
 11
0.6799999999999999
 21
8.911999999999999
 31
0.0
100
AcDbText
  0
TEXT
  5
77
330
17
100
AcDbEntity
  8
A-ANNO-TABL
100
AcDbText
 10
1.98
 20
8.911999999999999
 30
0.0
 40
0.08199999999999999
  1
1,180
  7
KS-REG
 72
2
 11
1.98
 21
8.911999999999999
 31
0.0
100
AcDbText
  0
TEXT
  5
78
330
17
100
AcDbEntity
  8
A-ANNO-TABL
100
AcDbText
 10
2.83
 20
8.911999999999999
 30
0.0
 40
0.08199999999999999
  1
23 x 20
  7
KS-REG
 72
2
 11
2.83
 21
8.911999999999999
 31
0.0
100
AcDbText
  0
TEXT
  5
79
330
17
100
AcDbEntity
  8
A-ANNO-TABL
100
AcDbText
 10
3.5300000000000002
 20
8.911999999999999
 30
0.0
 40
0.08199999999999999
  1
1,640
  7
KS-REG
 72
2
 11
3.5300000000000002
 21
8.911999999999999
 31
0.0
100
AcDbText
  0
TEXT
  5
7A
330
17
100
AcDbEntity
  8
A-ANNO-TABL
100
AcDbText
 10
4.33
 20
8.911999999999999
 30
0.0
 40
0.08199999999999999
  1
12,934
  7
KS-REG
 72
2
 11
4.33
 21
8.911999999999999
 31
0.0
100
AcDbText
  0
TEXT
  5
7B
330
17
100
AcDbEntity
  8
A-ANNO-TABL
100
AcDbText
 10
5.08
 20
8.911999999999999
 30
0.0
 40
0.08199999999999999
  1
391
  7
KS-REG
 72
2
 11
5.08
 21
8.911999999999999
 31
0.0
100
AcDbText
  0
TEXT
  5
7C
330
17
100
AcDbEntity
  8
A-ANNO-TABL
100
AcDbText
 10
5.9799999999999995
 20
8.911999999999999
 30
0.0
 40
0.08199999999999999
  1
54,986
  7
KS-REG
 72
2
 11
5.9799999999999995
 21
8.911999999999999
 31
0.0
100
AcDbText
  0
TEXT
  5
7D
330
17
100
AcDbEntity
  8
A-ANNO-TABL
100
AcDbText
 10
6.83
 20
8.911999999999999
 30
0.0
 40
0.08199999999999999
  1
96,812
  7
KS-REG
 72
2
 11
6.83
 21
8.911999999999999
 31
0.0
100
AcDbText
  0
TEXT
  5
7E
330
17
100
AcDbEntity
  8
A-ANNO-TABL
100
AcDbText
 10
7.2299999999999995
 20
8.911999999999999
 30
0.0
 40
0.08199999999999999
  1
3
  7
KS-REG
 72
2
 11
7.2299999999999995
 21
8.911999999999999
 31
0.0
100
AcDbText
  0
TEXT
  5
7F
330
17
100
AcDbEntity
  8
A-ANNO-TABL
100
AcDbText
 10
7.88
 20
8.911999999999999
 30
0.0
 40
0.08199999999999999
  1
YES
  7
KS-REG
 72
2
 11
7.88
 21
8.911999999999999
 31
0.0
100
AcDbText
  0
LINE
  5
80
330
17
100
AcDbEntity
  8
A-ANNO-TABL
100
AcDbLine
 10
0.6799999999999999
 20
8.861999999999998
 30
0.0
 11
7.88
 21
8.861999999999998
 31
0.0
  0
TEXT
  5
81
330
17
100
AcDbEntity
  8
A-ANNO-TABL
100
AcDbText
 10
0.6799999999999999
 20
8.713999999999999
 30
0.0
 40
0.08199999999999999
  1
20,000
  7
KS-REG
 11
0.6799999999999999
 21
8.713999999999999
 31
0.0
100
AcDbText
  0
TEXT
  5
82
330
17
100
AcDbEntity
  8
A-ANNO-TABL
100
AcDbText
 10
1.98
 20
8.713999999999999
 30
0.0
 40
0.08199999999999999
  1
1,610
  7
KS-REG
 72
2
 11
1.98
 21
8.713999999999999
 31
0.0
100
AcDbText
  0
TEXT
  5
83
330
17
100
AcDbEntity
  8
A-ANNO-TABL
100
AcDbText
 10
2.83
 20
8.713999999999999
 30
0.0
 40
0.08199999999999999
  1
50 x 12
  7
KS-REG
 72
2
 11
2.83
 21
8.713999999999999
 31
0.0
100
AcDbText
  0
TEXT
  5
84
330
17
100
AcDbEntity
  8
A-ANNO-TABL
100
AcDbText
 10
3.5300000000000002
 20
8.713999999999999
 30
0.0
 40
0.08199999999999999
  1
2,210
  7
KS-REG
 72
2
 11
3.5300000000000002
 21
8.713999999999999
 31
0.0
100
AcDbText
  0
TEXT
  5
85
330
17
100
AcDbEntity
  8
A-ANNO-TABL
100
AcDbText
 10
4.33
 20
8.713999999999999
 30
0.0
 40
0.08199999999999999
  1
17,017
  7
KS-REG
 72
2
 11
4.33
 21
8.713999999999999
 31
0.0
100
AcDbText
  0
TEXT
  5
86
330
17
100
AcDbEntity
  8
A-ANNO-TABL
100
AcDbText
 10
5.08
 20
8.713999999999999
 30
0.0
 40
0.08199999999999999
  1
550
  7
KS-REG
 72
2
 11
5.08
 21
8.713999999999999
 31
0.0
100
AcDbText
  0
TEXT
  5
87
330
17
100
AcDbEntity
  8
A-ANNO-TABL
100
AcDbText
 10
5.9799999999999995
 20
8.713999999999999
 30
0.0
 40
0.08199999999999999
  1
54,987
  7
KS-REG
 72
2
 11
5.9799999999999995
 21
8.713999999999999
 31
0.0
100
AcDbText
  0
TEXT
  5
88
330
17
100
AcDbEntity
  8
A-ANNO-TABL
100
AcDbText
 10
6.83
 20
8.713999999999999
 30
0.0
 40
0.08199999999999999
  1
105,812
  7
KS-REG
 72
2
 11
6.83
 21
8.713999999999999
 31
0.0
100
AcDbText
  0
TEXT
  5
89
330
17
100
AcDbEntity
  8
A-ANNO-TABL
100
AcDbText
 10
7.2299999999999995
 20
8.713999999999999
 30
0.0
 40
0.08199999999999999
  1
3
  7
KS-REG
 72
2
 11
7.2299999999999995
 21
8.713999999999999
 31
0.0
100
AcDbText
  0
TEXT
  5
8A
330
17
100
AcDbEntity
  8
A-ANNO-TABL
100
AcDbText
 10
7.88
 20
8.713999999999999
 30
0.0
 40
0.08199999999999999
  1
YES
  7
KS-REG
 72
2
 11
7.88
 21
8.713999999999999
 31
0.0
100
AcDbText
  0
TEXT
  5
8B
330
17
100
AcDbEntity
  8
A-ANNO-TABL
100
AcDbText
 10
0.6799999999999999
 20
8.515999999999998
 30
0.0
 40
0.08199999999999999
  1
20,000
  7
KS-REG
 11
0.6799999999999999
 21
8.515999999999998
 31
0.0
100
AcDbText
  0
TEXT
  5
8C
330
17
100
AcDbEntity
  8
A-ANNO-TABL
100
AcDbText
 10
1.98
 20
8.515999999999998
 30
0.0
 40
0.08199999999999999
  1
1,610
  7
KS-REG
 72
2
 11
1.98
 21
8.515999999999998
 31
0.0
100
AcDbText
  0
TEXT
  5
8D
330
17
100
AcDbEntity
  8
A-ANNO-TABL
100
AcDbText
 10
2.83
 20
8.515999999999998
 30
0.0
 40
0.08199999999999999
  1
37 x 16
  7
KS-REG
 72
2
 11
2.83
 21
8.515999999999998
 31
0.0
100
AcDbText
  0
TEXT
  5
8E
330
17
100
AcDbEntity
  8
A-ANNO-TABL
100
AcDbText
 10
3.5300000000000002
 20
8.515999999999998
 30
0.0
 40
0.08199999999999999
  1
2,202
  7
KS-REG
 72
2
 11
3.5300000000000002
 21
8.515999999999998
 31
0.0
100
AcDbText
  0
TEXT
  5
8F
330
17
100
AcDbEntity
  8
A-ANNO-TABL
100
AcDbText
 10
4.33
 20
8.515999999999998
 30
0.0
 40
0.08199999999999999
  1
16,699
  7
KS-REG
 72
2
 11
4.33
 21
8.515999999999998
 31
0.0
100
AcDbText
  0
TEXT
  5
90
330
17
100
AcDbEntity
  8
A-ANNO-TABL
100
AcDbText
 10
5.08
 20
8.515999999999998
 30
0.0
 40
0.08199999999999999
  1
518
  7
KS-REG
 72
2
 11
5.08
 21
8.515999999999998
 31
0.0
100
AcDbText
  0
TEXT
  5
91
330
17
100
AcDbEntity
  8
A-ANNO-TABL
100
AcDbText
 10
5.9799999999999995
 20
8.515999999999998
 30
0.0
 40
0.08199999999999999
  1
54,962
  7
KS-REG
 72
2
 11
5.9799999999999995
 21
8.515999999999998
 31
0.0
100
AcDbText
  0
TEXT
  5
92
330
17
100
AcDbEntity
  8
A-ANNO-TABL
100
AcDbText
 10
6.83
 20
8.515999999999998
 30
0.0
 40
0.08199999999999999
  1
105,311
  7
KS-REG
 72
2
 11
6.83
 21
8.515999999999998
 31
0.0
100
AcDbText
  0
TEXT
  5
93
330
17
100
AcDbEntity
  8
A-ANNO-TABL
100
AcDbText
 10
7.2299999999999995
 20
8.515999999999998
 30
0.0
 40
0.08199999999999999
  1
3
  7
KS-REG
 72
2
 11
7.2299999999999995
 21
8.515999999999998
 31
0.0
100
AcDbText
  0
TEXT
  5
94
330
17
100
AcDbEntity
  8
A-ANNO-TABL
100
AcDbText
 10
7.88
 20
8.515999999999998
 30
0.0
 40
0.08199999999999999
  1
YES
  7
KS-REG
 72
2
 11
7.88
 21
8.515999999999998
 31
0.0
100
AcDbText
  0
TEXT
  5
95
330
17
100
AcDbEntity
  8
A-ANNO-TABL
100
AcDbText
 10
0.6799999999999999
 20
8.317999999999998
 30
0.0
 40
0.08199999999999999
  1
20,000
  7
KS-REG
 11
0.6799999999999999
 21
8.317999999999998
 31
0.0
100
AcDbText
  0
TEXT
  5
96
330
17
100
AcDbEntity
  8
A-ANNO-TABL
100
AcDbText
 10
1.98
 20
8.317999999999998
 30
0.0
 40
0.08199999999999999
  1
1,610
  7
KS-REG
 72
2
 11
1.98
 21
8.317999999999998
 31
0.0
100
AcDbText
  0
TEXT
  5
97
330
17
100
AcDbEntity
  8
A-ANNO-TABL
100
AcDbText
 10
2.83
 20
8.317999999999998
 30
0.0
 40
0.08199999999999999
  1
30 x 20
  7
KS-REG
 72
2
 11
2.83
 21
8.317999999999998
 31
0.0
100
AcDbText
  0
TEXT
  5
98
330
17
100
AcDbEntity
  8
A-ANNO-TABL
100
AcDbText
 10
3.5300000000000002
 20
8.317999999999998
 30
0.0
 40
0.08199999999999999
  1
2,210
  7
KS-REG
 72
2
 11
3.5300000000000002
 21
8.317999999999998
 31
0.0
100
AcDbText
  0
TEXT
  5
99
330
17
100
AcDbEntity
  8
A-ANNO-TABL
100
AcDbText
 10
4.33
 20
8.317999999999998
 30
0.0
 40
0.08199999999999999
  1
16,870
  7
KS-REG
 72
2
 11
4.33
 21
8.317999999999998
 31
0.0
100
AcDbText
  0
TEXT
  5
9A
330
17
100
AcDbEntity
  8
A-ANNO-TABL
100
AcDbText
 10
5.08
 20
8.317999999999998
 30
0.0
 40
0.08199999999999999
  1
510
  7
KS-REG
 72
2
 11
5.08
 21
8.317999999999998
 31
0.0
100
AcDbText
  0
TEXT
  5
9B
330
17
100
AcDbEntity
  8
A-ANNO-TABL
100
AcDbText
 10
5.9799999999999995
 20
8.317999999999998
 30
0.0
 40
0.08199999999999999
  1
54,971
  7
KS-REG
 72
2
 11
5.9799999999999995
 21
8.317999999999998
 31
0.0
100
AcDbText
  0
TEXT
  5
9C
330
17
100
AcDbEntity
  8
A-ANNO-TABL
100
AcDbText
 10
6.83
 20
8.317999999999998
 30
0.0
 40
0.08199999999999999
  1
105,566
  7
KS-REG
 72
2
 11
6.83
 21
8.317999999999998
 31
0.0
100
AcDbText
  0
TEXT
  5
9D
330
17
100
AcDbEntity
  8
A-ANNO-TABL
100
AcDbText
 10
7.2299999999999995
 20
8.317999999999998
 30
0.0
 40
0.08199999999999999
  1
3
  7
KS-REG
 72
2
 11
7.2299999999999995
 21
8.317999999999998
 31
0.0
100
AcDbText
  0
TEXT
  5
9E
330
17
100
AcDbEntity
  8
A-ANNO-TABL
100
AcDbText
 10
7.88
 20
8.317999999999998
 30
0.0
 40
0.08199999999999999
  1
YES
  7
KS-REG
 72
2
 11
7.88
 21
8.317999999999998
 31
0.0
100
AcDbText
  0
LINE
  5
9F
330
17
100
AcDbEntity
  8
A-ANNO-TABL
100
AcDbLine
 10
0.6799999999999999
 20
8.267999999999997
 30
0.0
 11
7.88
 21
8.267999999999997
 31
0.0
  0
TEXT
  5
A0
330
17
100
AcDbEntity
  8
A-ANNO-TABL
100
AcDbText
 10
0.6799999999999999
 20
8.119999999999997
 30
0.0
 40
0.08199999999999999
  1
18,000
  7
KS-REG
 11
0.6799999999999999
 21
8.119999999999997
 31
0.0
100
AcDbText
  0
TEXT
  5
A1
330
17
100
AcDbEntity
  8
A-ANNO-TABL
100
AcDbText
 10
1.98
 20
8.119999999999997
 30
0.0
 40
0.08199999999999999
  1
1,940
  7
KS-REG
 72
2
 11
1.98
 21
8.119999999999997
 31
0.0
100
AcDbText
  0
TEXT
  5
A2
330
17
100
AcDbEntity
  8
A-ANNO-TABL
100
AcDbText
 10
2.83
 20
8.119999999999997
 30
0.0
 40
0.08199999999999999
  1
22 x 12
  7
KS-REG
 72
2
 11
2.83
 21
8.119999999999997
 31
0.0
100
AcDbText
  0
TEXT
  5
A3
330
17
100
AcDbEntity
  8
A-ANNO-TABL
100
AcDbText
 10
3.5300000000000002
 20
8.119999999999997
 30
0.0
 40
0.08199999999999999
  1
2,204
  7
KS-REG
 72
2
 11
3.5300000000000002
 21
8.119999999999997
 31
0.0
100
AcDbText
  0
TEXT
  5
A4
330
17
100
AcDbEntity
  8
A-ANNO-TABL
100
AcDbText
 10
4.33
 20
8.119999999999997
 30
0.0
 40
0.08199999999999999
  1
7,487
  7
KS-REG
 72
2
 11
4.33
 21
8.119999999999997
 31
0.0
100
AcDbText
  0
TEXT
  5
A5
330
17
100
AcDbEntity
  8
A-ANNO-TABL
100
AcDbText
 10
5.08
 20
8.119999999999997
 30
0.0
 40
0.08199999999999999
  1
242
  7
KS-REG
 72
2
 11
5.08
 21
8.119999999999997
 31
0.0
100
AcDbText
  0
TEXT
  5
A6
330
17
100
AcDbEntity
  8
A-ANNO-TABL
100
AcDbText
 10
5.9799999999999995
 20
8.119999999999997
 30
0.0
 40
0.08199999999999999
  1
54,994
  7
KS-REG
 72
2
 11
5.9799999999999995
 21
8.119999999999997
 31
0.0
100
AcDbText
  0
TEXT
  5
A7
330
17
100
AcDbEntity
  8
A-ANNO-TABL
100
AcDbText
 10
6.83
 20
8.119999999999997
 30
0.0
 40
0.08199999999999999
  1
92,682
  7
KS-REG
 72
2
 11
6.83
 21
8.119999999999997
 31
0.0
100
AcDbText
  0
TEXT
  5
A8
330
17
100
AcDbEntity
  8
A-ANNO-TABL
100
AcDbText
 10
7.2299999999999995
 20
8.119999999999997
 30
0.0
 40
0.08199999999999999
  1
3
  7
KS-REG
 72
2
 11
7.2299999999999995
 21
8.119999999999997
 31
0.0
100
AcDbText
  0
TEXT
  5
A9
330
17
100
AcDbEntity
  8
A-ANNO-TABL
100
AcDbText
 10
7.88
 20
8.119999999999997
 30
0.0
 40
0.08199999999999999
  1
YES
  7
KS-REG
 72
2
 11
7.88
 21
8.119999999999997
 31
0.0
100
AcDbText
  0
TEXT
  5
AA
330
17
100
AcDbEntity
  8
A-ANNO-TABL
100
AcDbText
 10
0.6799999999999999
 20
7.921999999999997
 30
0.0
 40
0.08199999999999999
  1
18,000
  7
KS-REG
 11
0.6799999999999999
 21
7.921999999999997
 31
0.0
100
AcDbText
  0
TEXT
  5
AB
330
17
100
AcDbEntity
  8
A-ANNO-TABL
100
AcDbText
 10
1.98
 20
7.921999999999997
 30
0.0
 40
0.08199999999999999
  1
1,940
  7
KS-REG
 72
2
 11
1.98
 21
7.921999999999997
 31
0.0
100
AcDbText
  0
TEXT
  5
AC
330
17
100
AcDbEntity
  8
A-ANNO-TABL
100
AcDbText
 10
2.83
 20
7.921999999999997
 30
0.0
 40
0.08199999999999999
  1
17 x 16
  7
KS-REG
 72
2
 11
2.83
 21
7.921999999999997
 31
0.0
100
AcDbText
  0
TEXT
  5
AD
330
17
100
AcDbEntity
  8
A-ANNO-TABL
100
AcDbText
 10
3.5300000000000002
 20
7.921999999999997
 30
0.0
 40
0.08199999999999999
  1
2,212
  7
KS-REG
 72
2
 11
3.5300000000000002
 21
7.921999999999997
 31
0.0
100
AcDbText
  0
TEXT
  5
AE
330
17
100
AcDbEntity
  8
A-ANNO-TABL
100
AcDbText
 10
4.33
 20
7.921999999999997
 30
0.0
 40
0.08199999999999999
  1
7,673
  7
KS-REG
 72
2
 11
4.33
 21
7.921999999999997
 31
0.0
100
AcDbText
  0
TEXT
  5
AF
330
17
100
AcDbEntity
  8
A-ANNO-TABL
100
AcDbText
 10
5.08
 20
7.921999999999997
 30
0.0
 40
0.08199999999999999
  1
238
  7
KS-REG
 72
2
 11
5.08
 21
7.921999999999997
 31
0.0
100
AcDbText
  0
TEXT
  5
B0
330
17
100
AcDbEntity
  8
A-ANNO-TABL
100
AcDbText
 10
5.9799999999999995
 20
7.921999999999997
 30
0.0
 40
0.08199999999999999
  1
54,994
  7
KS-REG
 72
2
 11
5.9799999999999995
 21
7.921999999999997
 31
0.0
100
AcDbText
  0
TEXT
  5
B1
330
17
100
AcDbEntity
  8
A-ANNO-TABL
100
AcDbText
 10
6.83
 20
7.921999999999997
 30
0.0
 40
0.08199999999999999
  1
92,929
  7
KS-REG
 72
2
 11
6.83
 21
7.921999999999997
 31
0.0
100
AcDbText
  0
TEXT
  5
B2
330
17
100
AcDbEntity
  8
A-ANNO-TABL
100
AcDbText
 10
7.2299999999999995
 20
7.921999999999997
 30
0.0
 40
0.08199999999999999
  1
3
  7
KS-REG
 72
2
 11
7.2299999999999995
 21
7.921999999999997
 31
0.0
100
AcDbText
  0
TEXT
  5
B3
330
17
100
AcDbEntity
  8
A-ANNO-TABL
100
AcDbText
 10
7.88
 20
7.921999999999997
 30
0.0
 40
0.08199999999999999
  1
YES
  7
KS-REG
 72
2
 11
7.88
 21
7.921999999999997
 31
0.0
100
AcDbText
  0
TEXT
  5
B4
330
17
100
AcDbEntity
  8
A-ANNO-TABL
100
AcDbText
 10
0.6799999999999999
 20
7.723999999999997
 30
0.0
 40
0.08199999999999999
  1
18,000
  7
KS-REG
 11
0.6799999999999999
 21
7.723999999999997
 31
0.0
100
AcDbText
  0
TEXT
  5
B5
330
17
100
AcDbEntity
  8
A-ANNO-TABL
100
AcDbText
 10
1.98
 20
7.723999999999997
 30
0.0
 40
0.08199999999999999
  1
1,940
  7
KS-REG
 72
2
 11
1.98
 21
7.723999999999997
 31
0.0
100
AcDbText
  0
TEXT
  5
B6
330
17
100
AcDbEntity
  8
A-ANNO-TABL
100
AcDbText
 10
2.83
 20
7.723999999999997
 30
0.0
 40
0.08199999999999999
  1
13 x 20
  7
KS-REG
 72
2
 11
2.83
 21
7.723999999999997
 31
0.0
100
AcDbText
  0
TEXT
  5
B7
330
17
100
AcDbEntity
  8
A-ANNO-TABL
100
AcDbText
 10
3.5300000000000002
 20
7.723999999999997
 30
0.0
 40
0.08199999999999999
  1
2,200
  7
KS-BOLD
 72
2
 11
3.5300000000000002
 21
7.723999999999997
 31
0.0
100
AcDbText
  0
TEXT
  5
B8
330
17
100
AcDbEntity
  8
A-ANNO-TABL
100
AcDbText
 10
4.33
 20
7.723999999999997
 30
0.0
 40
0.08199999999999999
  1
7,310
  7
KS-REG
 72
2
 11
4.33
 21
7.723999999999997
 31
0.0
100
AcDbText
  0
TEXT
  5
B9
330
17
100
AcDbEntity
  8
A-ANNO-TABL
100
AcDbText
 10
5.08
 20
7.723999999999997
 30
0.0
 40
0.08199999999999999
  1
221
  7
KS-REG
 72
2
 11
5.08
 21
7.723999999999997
 31
0.0
100
AcDbText
  0
TEXT
  5
BA
330
17
100
AcDbEntity
  8
A-ANNO-TABL
100
AcDbText
 10
5.9799999999999995
 20
7.723999999999997
 30
0.0
 40
0.08199999999999999
  1
54,994
  7
KS-BOLD
 72
2
 11
5.9799999999999995
 21
7.723999999999997
 31
0.0
100
AcDbText
  0
TEXT
  5
BB
330
17
100
AcDbEntity
  8
A-ANNO-TABL
100
AcDbText
 10
6.83
 20
7.723999999999997
 30
0.0
 40
0.08199999999999999
  1
92,313
  7
KS-REG
 72
2
 11
6.83
 21
7.723999999999997
 31
0.0
100
AcDbText
  0
TEXT
  5
BC
330
17
100
AcDbEntity
  8
A-ANNO-TABL
100
AcDbText
 10
7.2299999999999995
 20
7.723999999999997
 30
0.0
 40
0.08199999999999999
  1
3
  7
KS-REG
 72
2
 11
7.2299999999999995
 21
7.723999999999997
 31
0.0
100
AcDbText
  0
TEXT
  5
BD
330
17
100
AcDbEntity
  8
A-ANNO-TABL
100
AcDbText
 10
7.88
 20
7.723999999999997
 30
0.0
 40
0.08199999999999999
  1
YES
  7
KS-BOLD
 72
2
 11
7.88
 21
7.723999999999997
 31
0.0
100
AcDbText
  0
LINE
  5
BE
330
17
100
AcDbEntity
  8
A-ANNO-TABL
100
AcDbLine
 10
0.6799999999999999
 20
7.673999999999997
 30
0.0
 11
7.88
 21
7.673999999999997
 31
0.0
  0
TEXT
  5
BF
330
17
100
AcDbEntity
  8
A-ANNO-TABL
100
AcDbText
 10
0.6799999999999999
 20
7.525999999999996
 30
0.0
 40
0.08199999999999999
  1
16,400
  7
KS-REG
 11
0.6799999999999999
 21
7.525999999999996
 31
0.0
100
AcDbText
  0
TEXT
  5
C0
330
17
100
AcDbEntity
  8
A-ANNO-TABL
100
AcDbText
 10
1.98
 20
7.525999999999996
 30
0.0
 40
0.08199999999999999
  1
2,200
  7
KS-REG
 72
2
 11
1.98
 21
7.525999999999996
 31
0.0
100
AcDbText
  0
TEXT
  5
C1
330
17
100
AcDbEntity
  8
A-ANNO-TABL
100
AcDbText
 10
2.83
 20
7.525999999999996
 30
0.0
 40
0.08199999999999999
  1
0 needed
  7
KS-REG
 72
2
 11
2.83
 21
7.525999999999996
 31
0.0
100
AcDbText
  0
TEXT
  5
C2
330
17
100
AcDbEntity
  8
A-ANNO-TABL
100
AcDbText
 10
3.5300000000000002
 20
7.525999999999996
 30
0.0
 40
0.08199999999999999
  1
2,200
  7
KS-REG
 72
2
 11
3.5300000000000002
 21
7.525999999999996
 31
0.0
100
AcDbText
  0
TEXT
  5
C3
330
17
100
AcDbEntity
  8
A-ANNO-TABL
100
AcDbText
 10
4.33
 20
7.525999999999996
 30
0.0
 40
0.08199999999999999
  1
0
  7
KS-REG
 72
2
 11
4.33
 21
7.525999999999996
 31
0.0
100
AcDbText
  0
TEXT
  5
C4
330
17
100
AcDbEntity
  8
A-ANNO-TABL
100
AcDbText
 10
5.08
 20
7.525999999999996
 30
0.0
 40
0.08199999999999999
  1
—
  7
KS-REG
 72
2
 11
5.08
 21
7.525999999999996
 31
0.0
100
AcDbText
  0
TEXT
  5
C5
330
17
100
AcDbEntity
  8
A-ANNO-TABL
100
AcDbText
 10
5.9799999999999995
 20
7.525999999999996
 30
0.0
 40
0.08199999999999999
  1
54,949
  7
KS-REG
 72
2
 11
5.9799999999999995
 21
7.525999999999996
 31
0.0
100
AcDbText
  0
TEXT
  5
C6
330
17
100
AcDbEntity
  8
A-ANNO-TABL
100
AcDbText
 10
6.83
 20
7.525999999999996
 30
0.0
 40
0.08199999999999999
  1
80,930
  7
KS-REG
 72
2
 11
6.83
 21
7.525999999999996
 31
0.0
100
AcDbText
  0
TEXT
  5
C7
330
17
100
AcDbEntity
  8
A-ANNO-TABL
100
AcDbText
 10
7.2299999999999995
 20
7.525999999999996
 30
0.0
 40
0.08199999999999999
  1
2
  7
KS-REG
 72
2
 11
7.2299999999999995
 21
7.525999999999996
 31
0.0
100
AcDbText
  0
TEXT
  5
C8
330
17
100
AcDbEntity
  8
A-ANNO-TABL
100
AcDbText
 10
7.88
 20
7.525999999999996
 30
0.0
 40
0.08199999999999999
  1
YES
  7
KS-REG
 72
2
 11
7.88
 21
7.525999999999996
 31
0.0
100
AcDbText
  0
LINE
  5
C9
330
17
100
AcDbEntity
  8
A-ANNO-TABL
100
AcDbLine
 10
0.6799999999999999
 20
7.475999999999996
 30
0.0
 11
7.88
 21
7.475999999999996
 31
0.0
  0
TEXT
  5
CA
330
17
100
AcDbEntity
  8
A-ANNO-TABL
100
AcDbText
 10
0.6799999999999999
 20
7.327999999999996
 30
0.0
 40
0.08199999999999999
  1
22,000 lean
  7
KS-REG
 11
0.6799999999999999
 21
7.327999999999996
 31
0.0
100
AcDbText
  0
TEXT
  5
CB
330
17
100
AcDbEntity
  8
A-ANNO-TABL
100
AcDbText
 10
1.98
 20
7.327999999999996
 30
0.0
 40
0.08199999999999999
  1
2,200
  7
KS-REG
 72
2
 11
1.98
 21
7.327999999999996
 31
0.0
100
AcDbText
  0
TEXT
  5
CC
330
17
100
AcDbEntity
  8
A-ANNO-TABL
100
AcDbText
 10
2.83
 20
7.327999999999996
 30
0.0
 40
0.08199999999999999
  1
0 needed
  7
KS-REG
 72
2
 11
2.83
 21
7.327999999999996
 31
0.0
100
AcDbText
  0
TEXT
  5
CD
330
17
100
AcDbEntity
  8
A-ANNO-TABL
100
AcDbText
 10
3.5300000000000002
 20
7.327999999999996
 30
0.0
 40
0.08199999999999999
  1
2,200
  7
KS-REG
 72
2
 11
3.5300000000000002
 21
7.327999999999996
 31
0.0
100
AcDbText
  0
TEXT
  5
CE
330
17
100
AcDbEntity
  8
A-ANNO-TABL
100
AcDbText
 10
4.33
 20
7.327999999999996
 30
0.0
 40
0.08199999999999999
  1
0
  7
KS-REG
 72
2
 11
4.33
 21
7.327999999999996
 31
0.0
100
AcDbText
  0
TEXT
  5
CF
330
17
100
AcDbEntity
  8
A-ANNO-TABL
100
AcDbText
 10
5.08
 20
7.327999999999996
 30
0.0
 40
0.08199999999999999
  1
—
  7
KS-REG
 72
2
 11
5.08
 21
7.327999999999996
 31
0.0
100
AcDbText
  0
TEXT
  5
D0
330
17
100
AcDbEntity
  8
A-ANNO-TABL
100
AcDbText
 10
5.9799999999999995
 20
7.327999999999996
 30
0.0
 40
0.08199999999999999
  1
51,631
  7
KS-REG
 72
2
 11
5.9799999999999995
 21
7.327999999999996
 31
0.0
100
AcDbText
  0
TEXT
  5
D1
330
17
100
AcDbEntity
  8
A-ANNO-TABL
100
AcDbText
 10
6.83
 20
7.327999999999996
 30
0.0
 40
0.08199999999999999
  1
74,678
  7
KS-REG
 72
2
 11
6.83
 21
7.327999999999996
 31
0.0
100
AcDbText
  0
TEXT
  5
D2
330
17
100
AcDbEntity
  8
A-ANNO-TABL
100
AcDbText
 10
7.2299999999999995
 20
7.327999999999996
 30
0.0
 40
0.08199999999999999
  1
2
  7
KS-REG
 72
2
 11
7.2299999999999995
 21
7.327999999999996
 31
0.0
100
AcDbText
  0
TEXT
  5
D3
330
17
100
AcDbEntity
  8
A-ANNO-TABL
100
AcDbText
 10
7.88
 20
7.327999999999996
 30
0.0
 40
0.08199999999999999
  1
YES
  7
KS-REG
 72
2
 11
7.88
 21
7.327999999999996
 31
0.0
100
AcDbText
  0
LINE
  5
D4
330
17
100
AcDbEntity
  8
A-ANNO-TABL
100
AcDbLine
 10
0.6799999999999999
 20
7.277999999999996
 30
0.0
 11
7.88
 21
7.277999999999996
 31
0.0
  0
TEXT
  5
D5
330
17
100
AcDbEntity
  8
A-ANNO-TEXT
100
AcDbText
 10
0.6799999999999999
 20
7.13243333333333
 30
0.0
 40
0.083
  1
Suites on L3 (a suite level just above the top row of the upper tier) unless noted. Suites at the back of the upper tier on
  7
KS-REG
 11
0.6799999999999999
 21
7.13243333333333
 31
0.0
100
AcDbText
  0
TEXT
  5
D6
330
17
100
AcDbEntity
  8
A-ANNO-TEXT
100
AcDbText
 10
0.6799999999999999
 20
6.980266666666663
 30
0.0
 40
0.083
  1
Level 2 never fit on base inputs: Level 2 is already as big as the L1 ring under it. Bowl = largest bowl that fits (10-seat
  7
KS-REG
 11
0.6799999999999999
 21
6.980266666666663
 31
0.0
100
AcDbText
  0
TEXT
  5
D7
330
17
100
AcDbEntity
  8
A-ANNO-TEXT
100
AcDbText
 10
0.6799999999999999
 20
6.828099999999996
 30
0.0
 40
0.083
  1
steps, best tier split); suites = (target − bowl) ÷ guests, rounded up. SUITE SF = suites + 44 in corridor (net). FRONT FT =
  7
KS-REG
 11
0.6799999999999999
 21
6.828099999999996
 31
0.0
100
AcDbText
  0
TEXT
  5
D8
330
17
100
AcDbEntity
  8
A-ANNO-TEXT
100
AcDbText
 10
0.6799999999999999
 20
6.675933333333329
 30
0.0
 40
0.083
  1
total suite frontage. Bold row = headline. Lean inputs fit 2,200 bowl seats with no suites (Rev B).
  7
KS-REG
 11
0.6799999999999999
 21
6.675933333333329
 31
0.0
100
AcDbText
  0
TEXT
  5
D9
330
17
100
AcDbEntity
  8
A-ANNO-TEXT
100
AcDbText
 10
0.6799999999999999
 20
6.281291666666662
 30
0.0
 40
0.105
  1
2  WHY THE 22,000 SF FLOOR CAN'T REACH 2,200 WITH SUITES
  7
KS-BOLD
 11
0.6799999999999999
 21
6.281291666666662
 31
0.0
100
AcDbText
  0
TEXT
  5
DA
330
17
100
AcDbEntity
  8
A-ANNO-TEXT
100
AcDbText
 10
0.6799999999999999
 20
6.085724999999996
 30
0.0
 40
0.083
  1
On base inputs the locked floor already fills the 55,000 footprint at ≈ 1,370 bowl seats (Rev B). A bowl seat costs 6.0 SF; a
  7
KS-REG
 11
0.6799999999999999
 21
6.085724999999996
 31
0.0
100
AcDbText
  0
TEXT
  5
DB
330
17
100
AcDbEntity
  8
A-ANNO-TEXT
100
AcDbText
 10
0.6799999999999999
 20
5.933558333333329
 30
0.0
 40
0.083
  1
suite guest costs 25 SF plus corridor. Suites on L3 add no footprint by themselves, but the added floor area raises
  7
KS-REG
 11
0.6799999999999999
 21
5.933558333333329
 31
0.0
100
AcDbText
  0
TEXT
  5
DC
330
17
100
AcDbEntity
  8
A-ANNO-TEXT
100
AcDbText
 10
0.6799999999999999
 20
5.781391666666662
 30
0.0
 40
0.083
  1
mechanical (5% of all gross, at grade) and stair widths on L1, so bowl seats must come out to make room. Best mix: 1,180
  7
KS-REG
 11
0.6799999999999999
 21
5.781391666666662
 31
0.0
100
AcDbText
  0
TEXT
  5
DD
330
17
100
AcDbEntity
  8
A-ANNO-TEXT
100
AcDbText
 10
0.6799999999999999
 20
5.629224999999995
 30
0.0
 40
0.083
  1
bowl + 23 x 20 = 1,640 spectators. Rooftop mechanical would help; not credited.
  7
KS-REG
 11
0.6799999999999999
 21
5.629224999999995
 31
0.0
100
AcDbText
  0
TEXT
  5
DE
330
17
100
AcDbEntity
  8
A-ANNO-TEXT
100
AcDbText
 10
0.6799999999999999
 20
5.234583333333328
 30
0.0
 40
0.105
  1
3  SUITE MODULE (CITED SIZING, R-016)
  7
KS-BOLD
 11
0.6799999999999999
 21
5.234583333333328
 31
0.0
100
AcDbText
  0
TEXT
  5
DF
330
17
100
AcDbEntity
  8
A-ANNO-TABL
100
AcDbText
 10
0.6799999999999999
 20
5.006583333333328
 30
0.0
 40
0.07400000000000001
  1
GUESTS
  7
KS-BOLD
 11
0.6799999999999999
 21
5.006583333333328
 31
0.0
100
AcDbText
  0
TEXT
  5
E0
330
17
100
AcDbEntity
  8
A-ANNO-TABL
100
AcDbText
 10
1.93
 20
5.006583333333328
 30
0.0
 40
0.07400000000000001
  1
SUITE SF
  7
KS-BOLD
 72
2
 11
1.93
 21
5.006583333333328
 31
0.0
100
AcDbText
  0
TEXT
  5
E1
330
17
100
AcDbEntity
  8
A-ANNO-TABL
100
AcDbText
 10
2.7299999999999995
 20
5.006583333333328
 30
0.0
 40
0.07400000000000001
  1
WIDTH FT
  7
KS-BOLD
 72
2
 11
2.7299999999999995
 21
5.006583333333328
 31
0.0
100
AcDbText
  0
TEXT
  5
E2
330
17
100
AcDbEntity
  8
A-ANNO-TABL
100
AcDbText
 10
3.7299999999999995
 20
5.006583333333328
 30
0.0
 40
0.07400000000000001
  1
CORRIDOR SF
  7
KS-BOLD
 72
2
 11
3.7299999999999995
 21
5.006583333333328
 31
0.0
100
AcDbText
  0
TEXT
  5
E3
330
17
100
AcDbEntity
  8
A-ANNO-TABL
100
AcDbText
 10
4.63
 20
5.006583333333328
 30
0.0
 40
0.07400000000000001
  1
CODE LOAD
  7
KS-BOLD
 72
2
 11
4.63
 21
5.006583333333328
 31
0.0
100
AcDbText
  0
TEXT
  5
E4
330
17
100
AcDbEntity
  8
A-ANNO-TABL
100
AcDbText
 10
5.529999999999999
 20
5.006583333333328
 30
0.0
 40
0.07400000000000001
  1
WHEELCHAIR
  7
KS-BOLD
 72
2
 11
5.529999999999999
 21
5.006583333333328
 31
0.0
100
AcDbText
  0
TEXT
  5
E5
330
17
100
AcDbEntity
  8
A-ANNO-TABL
100
AcDbText
 10
5.68
 20
5.006583333333328
 30
0.0
 40
0.07400000000000001
  1
GUEST SOURCE
  7
KS-BOLD
 11
5.68
 21
5.006583333333328
 31
0.0
100
AcDbText
  0
LINE
  5
E6
330
17
100
AcDbEntity
  8
A-ANNO-TABL
100
AcDbLine
 10
0.6799999999999999
 20
4.936583333333328
 30
0.0
 11
7.88
 21
4.936583333333328
 31
0.0
  0
TEXT
  5
E7
330
17
100
AcDbEntity
  8
A-ANNO-TABL
100
AcDbText
 10
0.6799999999999999
 20
4.778583333333327
 30
0.0
 40
0.08199999999999999
  1
12
  7
KS-REG
 11
0.6799999999999999
 21
4.778583333333327
 31
0.0
100
AcDbText
  0
TEXT
  5
E8
330
17
100
AcDbEntity
  8
A-ANNO-TABL
100
AcDbText
 10
1.93
 20
4.778583333333327
 30
0.0
 40
0.08199999999999999
  1
300
  7
KS-REG
 72
2
 11
1.93
 21
4.778583333333327
 31
0.0
100
AcDbText
  0
TEXT
  5
E9
330
17
100
AcDbEntity
  8
A-ANNO-TABL
100
AcDbText
 10
2.7299999999999995
 20
4.778583333333327
 30
0.0
 40
0.08199999999999999
  1
11
  7
KS-REG
 72
2
 11
2.7299999999999995
 21
4.778583333333327
 31
0.0
100
AcDbText
  0
TEXT
  5
EA
330
17
100
AcDbEntity
  8
A-ANNO-TABL
100
AcDbText
 10
3.7299999999999995
 20
4.778583333333327
 30
0.0
 40
0.08199999999999999
  1
40
  7
KS-REG
 72
2
 11
3.7299999999999995
 21
4.778583333333327
 31
0.0
100
AcDbText
  0
TEXT
  5
EB
330
17
100
AcDbEntity
  8
A-ANNO-TABL
100
AcDbText
 10
4.63
 20
4.778583333333327
 30
0.0
 40
0.08199999999999999
  1
28
  7
KS-REG
 72
2
 11
4.63
 21
4.778583333333327
 31
0.0
100
AcDbText
  0
TEXT
  5
EC
330
17
100
AcDbEntity
  8
A-ANNO-TABL
100
AcDbText
 10
5.529999999999999
 20
4.778583333333327
 30
0.0
 40
0.08199999999999999
  1
1 + companion
  7
KS-REG
 72
2
 11
5.529999999999999
 21
4.778583333333327
 31
0.0
100
AcDbText
  0
TEXT
  5
ED
330
17
100
AcDbEntity
  8
A-ANNO-TABL
100
AcDbText
 10
5.68
 20
4.778583333333327
 30
0.0
 40
0.08199999999999999
  1
Pitt Petersen (12 guests)
  7
KS-REG
 11
5.68
 21
4.778583333333327
 31
0.0
100
AcDbText
  0
TEXT
  5
EE
330
17
100
AcDbEntity
  8
A-ANNO-TABL
100
AcDbText
 10
0.6799999999999999
 20
4.580583333333327
 30
0.0
 40
0.08199999999999999
  1
16
  7
KS-REG
 11
0.6799999999999999
 21
4.580583333333327
 31
0.0
100
AcDbText
  0
TEXT
  5
EF
330
17
100
AcDbEntity
  8
A-ANNO-TABL
100
AcDbText
 10
1.93
 20
4.580583333333327
 30
0.0
 40
0.08199999999999999
  1
400
  7
KS-REG
 72
2
 11
1.93
 21
4.580583333333327
 31
0.0
100
AcDbText
  0
TEXT
  5
F0
330
17
100
AcDbEntity
  8
A-ANNO-TABL
100
AcDbText
 10
2.7299999999999995
 20
4.580583333333327
 30
0.0
 40
0.08199999999999999
  1
14
  7
KS-REG
 72
2
 11
2.7299999999999995
 21
4.580583333333327
 31
0.0
100
AcDbText
  0
TEXT
  5
F1
330
17
100
AcDbEntity
  8
A-ANNO-TABL
100
AcDbText
 10
3.7299999999999995
 20
4.580583333333327
 30
0.0
 40
0.08199999999999999
  1
51
  7
KS-REG
 72
2
 11
3.7299999999999995
 21
4.580583333333327
 31
0.0
100
AcDbText
  0
TEXT
  5
F2
330
17
100
AcDbEntity
  8
A-ANNO-TABL
100
AcDbText
 10
4.63
 20
4.580583333333327
 30
0.0
 40
0.08199999999999999
  1
37
  7
KS-REG
 72
2
 11
4.63
 21
4.580583333333327
 31
0.0
100
AcDbText
  0
TEXT
  5
F3
330
17
100
AcDbEntity
  8
A-ANNO-TABL
100
AcDbText
 10
5.529999999999999
 20
4.580583333333327
 30
0.0
 40
0.08199999999999999
  1
1 + companion
  7
KS-REG
 72
2
 11
5.529999999999999
 21
4.580583333333327
 31
0.0
100
AcDbText
  0
TEXT
  5
F4
330
17
100
AcDbEntity
  8
A-ANNO-TABL
100
AcDbText
 10
5.68
 20
4.580583333333327
 30
0.0
 40
0.08199999999999999
  1
WKU Diddle (16 tickets)
  7
KS-REG
 11
5.68
 21
4.580583333333327
 31
0.0
100
AcDbText
  0
TEXT
  5
F5
330
17
100
AcDbEntity
  8
A-ANNO-TABL
100
AcDbText
 10
0.6799999999999999
 20
4.382583333333327
 30
0.0
 40
0.08199999999999999
  1
20
  7
KS-REG
 11
0.6799999999999999
 21
4.382583333333327
 31
0.0
100
AcDbText
  0
TEXT
  5
F6
330
17
100
AcDbEntity
  8
A-ANNO-TABL
100
AcDbText
 10
1.93
 20
4.382583333333327
 30
0.0
 40
0.08199999999999999
  1
500
  7
KS-REG
 72
2
 11
1.93
 21
4.382583333333327
 31
0.0
100
AcDbText
  0
TEXT
  5
F7
330
17
100
AcDbEntity
  8
A-ANNO-TABL
100
AcDbText
 10
2.7299999999999995
 20
4.382583333333327
 30
0.0
 40
0.08199999999999999
  1
17
  7
KS-REG
 72
2
 11
2.7299999999999995
 21
4.382583333333327
 31
0.0
100
AcDbText
  0
TEXT
  5
F8
330
17
100
AcDbEntity
  8
A-ANNO-TABL
100
AcDbText
 10
3.7299999999999995
 20
4.382583333333327
 30
0.0
 40
0.08199999999999999
  1
62
  7
KS-REG
 72
2
 11
3.7299999999999995
 21
4.382583333333327
 31
0.0
100
AcDbText
  0
TEXT
  5
F9
330
17
100
AcDbEntity
  8
A-ANNO-TABL
100
AcDbText
 10
4.63
 20
4.382583333333327
 30
0.0
 40
0.08199999999999999
  1
46
  7
KS-REG
 72
2
 11
4.63
 21
4.382583333333327
 31
0.0
100
AcDbText
  0
TEXT
  5
FA
330
17
100
AcDbEntity
  8
A-ANNO-TABL
100
AcDbText
 10
5.529999999999999
 20
4.382583333333327
 30
0.0
 40
0.08199999999999999
  1
1 + companion
  7
KS-REG
 72
2
 11
5.529999999999999
 21
4.382583333333327
 31
0.0
100
AcDbText
  0
TEXT
  5
FB
330
17
100
AcDbEntity
  8
A-ANNO-TABL
100
AcDbText
 10
5.68
 20
4.382583333333327
 30
0.0
 40
0.08199999999999999
  1
Sheldon ISD (20 VIPs)
  7
KS-REG
 11
5.68
 21
4.382583333333327
 31
0.0
100
AcDbText
  0
TEXT
  5
FC
330
17
100
AcDbEntity
  8
A-ANNO-TEXT
100
AcDbText
 10
0.6799999999999999
 20
4.18701666666666
 30
0.0
 40
0.083
  1
Suite SF = 25 SF/guest: Diddle Arena (WKU) suites 400 SF with 16 tickets; Texas Tech's standard suites are 276 SF
  7
KS-REG
 11
0.6799999999999999
 21
4.18701666666666
 31
0.0
100
AcDbText
  0
TEXT
  5
FD
330
17
100
AcDbEntity
  8
A-ANNO-TEXT
100
AcDbText
 10
0.6799999999999999
 20
4.034849999999993
 30
0.0
 40
0.083
  1
(cross-check). Includes seating ledge + lounge. Kitchenette/pantry: no source, left out (served from the concession stand).
  7
KS-REG
 11
0.6799999999999999
 21
4.034849999999993
 31
0.0
100
AcDbText
  0
TEXT
  5
FE
330
17
100
AcDbEntity
  8
A-ANNO-TEXT
100
AcDbText
 10
0.6799999999999999
 20
3.8826833333333264
 30
0.0
 40
0.083
  1
Width rule (2 ledge rows x 18 in + 2 ft) is ASSUMED. Code load = seats (IBC 1004.6) + lounge ÷ 15 net (T1004.5
  7
KS-REG
 11
0.6799999999999999
 21
3.8826833333333264
 31
0.0
100
AcDbText
  0
TEXT
  5
FF
330
17
100
AcDbEntity
  8
A-ANNO-TEXT
100
AcDbText
 10
0.6799999999999999
 20
3.73051666666666
 30
0.0
 40
0.083
  1
unconcentrated): higher than the guest count, used for exits and fixtures. Revenue is out of scope: no $ figures.
  7
KS-REG
 11
0.6799999999999999
 21
3.73051666666666
 31
0.0
100
AcDbText
  0
LINE
  5
100
330
17
100
AcDbEntity
  8
A-ANNO-TEXT
100
AcDbLine
 10
8.06
 20
1.9700000000000002
 30
0.0
 11
8.06
 21
10.38
 31
0.0
  0
TEXT
  5
101
330
17
100
AcDbEntity
  8
A-ANNO-TEXT
100
AcDbText
 10
8.23
 20
10.180000000000001
 30
0.0
 40
0.105
  1
4  WHERE SUITES GO — SECTION (NTS)
  7
KS-BOLD
 11
8.23
 21
10.180000000000001
 31
0.0
100
AcDbText
  0
LINE
  5
102
330
17
100
AcDbEntity
  8
A-ANNO-TEXT
100
AcDbLine
 10
8.250000000000002
 20
7.920000000000001
 30
0.0
 11
11.959999999999999
 21
7.920000000000001
 31
0.0
  0
LINE
  5
103
330
17
100
AcDbEntity
  8
A-ANNO-TEXT
100
AcDbLine
 10
8.280000000000001
 20
7.920000000000001
 30
0.0
 11
8.280000000000001
 21
8.870000000000001
 31
0.0
  0
LINE
  5
104
330
17
100
AcDbEntity
  8
A-ANNO-TEXT
100
AcDbLine
 10
11.93
 20
7.920000000000001
 30
0.0
 11
11.93
 21
8.870000000000001
 31
0.0
  0
LINE
  5
105
330
17
100
AcDbEntity
  8
A-ANNO-TEXT
100
AcDbLine
 10
8.280000000000001
 20
8.870000000000001
 30
0.0
 11
8.850000000000001
 21
8.870000000000001
 31
0.0
  0
LINE
  5
106
330
17
100
AcDbEntity
  8
A-ANNO-TEXT
100
AcDbLine
 10
11.36
 20
8.870000000000001
 30
0.0
 11
11.93
 21
8.870000000000001
 31
0.0
  0
LWPOLYLINE
  5
107
330
17
100
AcDbEntity
  8
A-ANNO-TEXT
100
AcDbPolyline
 90
4
 70
1
 10
8.530000000000001
 20
8.870000000000001
 10
9.25
 20
8.870000000000001
 10
9.25
 20
9.22
 10
8.530000000000001
 20
9.22
  0
LWPOLYLINE
  5
108
330
17
100
AcDbEntity
  8
A-ANNO-TEXT
100
AcDbPolyline
 90
4
 70
1
 10
10.96
 20
8.870000000000001
 10
11.68
 20
8.870000000000001
 10
11.68
 20
9.22
 10
10.96
 20
9.22
  0
LINE
  5
109
330
17
100
AcDbEntity
  8
A-ANNO-TEXT
100
AcDbLine
 10
9.25
 20
9.22
 30
0.0
 11
9.42
 21
9.64
 31
0.0
  0
LINE
  5
10A
330
17
100
AcDbEntity
  8
A-ANNO-TEXT
100
AcDbLine
 10
10.96
 20
9.22
 30
0.0
 11
10.790000000000001
 21
9.64
 31
0.0
  0
LINE
  5
10B
330
17
100
AcDbEntity
  8
A-ANNO-TEXT
100
AcDbLine
 10
9.42
 20
9.64
 30
0.0
 11
10.790000000000001
 21
9.64
 31
0.0
  0
LINE
  5
10C
330
17
100
AcDbEntity
  8
A-ANNO-TEXT
100
AcDbLine
 10
8.280000000000001
 20
8.870000000000001
 30
0.0
 11
8.530000000000001
 21
8.870000000000001
 31
0.0
  0
LINE
  5
10D
330
17
100
AcDbEntity
  8
A-ANNO-TEXT
100
AcDbLine
 10
8.280000000000001
 20
8.420000000000002
 30
0.0
 11
9.3
 21
8.420000000000002
 31
0.0
  0
LINE
  5
10E
330
17
100
AcDbEntity
  8
A-ANNO-TEXT
100
AcDbLine
 10
10.91
 20
8.420000000000002
 30
0.0
 11
11.93
 21
8.420000000000002
 31
0.0
  0
LINE
  5
10F
330
17
100
AcDbEntity
  8
A-ANNO-TEXT
100
AcDbLine
 10
9.3
 20
7.920000000000001
 30
0.0
 11
9.3
 21
8.420000000000002
 31
0.0
  0
LINE
  5
110
330
17
100
AcDbEntity
  8
A-ANNO-TEXT
100
AcDbLine
 10
10.91
 20
7.920000000000001
 30
0.0
 11
10.91
 21
8.420000000000002
 31
0.0
  0
LINE
  5
111
330
17
100
AcDbEntity
  8
A-ANNO-TEXT
100
AcDbLine
 10
9.66
 20
7.94
 30
0.0
 11
9.3
 21
8.370000000000001
 31
0.0
  0
LINE
  5
112
330
17
100
AcDbEntity
  8
A-ANNO-TEXT
100
AcDbLine
 10
10.55
 20
7.94
 30
0.0
 11
10.91
 21
8.370000000000001
 31
0.0
  0
LINE
  5
113
330
17
100
AcDbEntity
  8
A-ANNO-TEXT
100
AcDbLine
 10
9.3
 20
8.420000000000002
 30
0.0
 11
8.850000000000001
 21
8.830000000000002
 31
0.0
  0
LINE
  5
114
330
17
100
AcDbEntity
  8
A-ANNO-TEXT
100
AcDbLine
 10
10.91
 20
8.420000000000002
 30
0.0
 11
11.36
 21
8.830000000000002
 31
0.0
  0
TEXT
  5
115
330
17
100
AcDbEntity
  8
A-ANNO-TEXT
100
AcDbText
 10
10.105
 20
8.0
 30
0.0
 40
0.064
  1
EVENT FLOOR
  7
KS-BOLD
 72
1
 11
10.105
 21
8.0
 31
0.0
100
AcDbText
  0
TEXT
  5
116
330
17
100
AcDbEntity
  8
A-ANNO-TEXT
100
AcDbText
 10
10.105
 20
8.940000000000001
 30
0.0
 40
0.06999999999999999
  1
ARENA VOLUME
  7
KS-BOLD
 72
1
 11
10.105
 21
8.940000000000001
 31
0.0
100
AcDbText
  0
TEXT
  5
117
330
17
100
AcDbEntity
  8
A-ANNO-TEXT
100
AcDbText
 10
10.105
 20
8.81
 30
0.0
 40
0.063
  1
nothing above
  7
KS-REG
 72
1
 11
10.105
 21
8.81
 31
0.0
100
AcDbText
  0
TEXT
  5
118
330
17
100
AcDbEntity
  8
A-ANNO-TEXT
100
AcDbText
 10
8.790000000000001
 20
8.16
 30
0.0
 40
0.06599999999999999
  1
L1 RING
  7
KS-BOLD
 72
1
 11
8.790000000000001
 21
8.16
 31
0.0
100
AcDbText
  0
TEXT
  5
119
330
17
100
AcDbEntity
  8
A-ANNO-TEXT
100
AcDbText
 10
8.790000000000001
 20
8.030000000000001
 30
0.0
 40
0.056
  1
lockers, foyer
  7
KS-REG
 72
1
 11
8.790000000000001
 21
8.030000000000001
 31
0.0
100
AcDbText
  0
TEXT
  5
11A
330
17
100
AcDbEntity
  8
A-ANNO-TEXT
100
AcDbText
 10
8.565000000000001
 20
8.690000000000001
 30
0.0
 40
0.05799999999999999
  1
L2 rooms
  7
KS-BOLD
 72
1
 11
8.565000000000001
 21
8.690000000000001
 31
0.0
100
AcDbText
  0
TEXT
  5
11B
330
17
100
AcDbEntity
  8
A-ANNO-TEXT
100
AcDbText
 10
8.565000000000001
 20
8.570000000000002
 30
0.0
 40
0.054000000000000006
  1
S&C, X-train
  7
KS-REG
 72
1
 11
8.565000000000001
 21
8.570000000000002
 31
0.0
100
AcDbText
  0
TEXT
  5
11C
330
17
100
AcDbEntity
  8
A-ANNO-TEXT
100
AcDbText
 10
8.89
 20
9.000000000000002
 30
0.0
 40
0.064
  1
L3 SUITES
  7
KS-BOLD
 72
1
 11
8.89
 21
9.000000000000002
 31
0.0
100
AcDbText
  0
TEXT
  5
11D
330
17
100
AcDbEntity
  8
A-ANNO-TEXT
100
AcDbText
 10
11.42
 20
8.16
 30
0.0
 40
0.06599999999999999
  1
L1 RING
  7
KS-BOLD
 72
1
 11
11.42
 21
8.16
 31
0.0
100
AcDbText
  0
TEXT
  5
11E
330
17
100
AcDbEntity
  8
A-ANNO-TEXT
100
AcDbText
 10
11.42
 20
8.030000000000001
 30
0.0
 40
0.056
  1
lockers, foyer
  7
KS-REG
 72
1
 11
11.42
 21
8.030000000000001
 31
0.0
100
AcDbText
  0
TEXT
  5
11F
330
17
100
AcDbEntity
  8
A-ANNO-TEXT
100
AcDbText
 10
11.645
 20
8.690000000000001
 30
0.0
 40
0.05799999999999999
  1
L2 rooms
  7
KS-BOLD
 72
1
 11
11.645
 21
8.690000000000001
 31
0.0
100
AcDbText
  0
TEXT
  5
120
330
17
100
AcDbEntity
  8
A-ANNO-TEXT
100
AcDbText
 10
11.645
 20
8.570000000000002
 30
0.0
 40
0.054000000000000006
  1
S&C, X-train
  7
KS-REG
 72
1
 11
11.645
 21
8.570000000000002
 31
0.0
100
AcDbText
  0
TEXT
  5
121
330
17
100
AcDbEntity
  8
A-ANNO-TEXT
100
AcDbText
 10
11.32
 20
9.000000000000002
 30
0.0
 40
0.064
  1
L3 SUITES
  7
KS-BOLD
 72
1
 11
11.32
 21
9.000000000000002
 31
0.0
100
AcDbText
  0
TEXT
  5
122
330
17
100
AcDbEntity
  8
A-ANNO-TEXT
100
AcDbText
 10
9.350000000000001
 20
8.520000000000001
 30
0.0
 40
0.054000000000000006
  1
< upper tier
  7
KS-REG
 11
9.350000000000001
 21
8.520000000000001
 31
0.0
100
AcDbText
  0
TEXT
  5
123
330
17
100
AcDbEntity
  8
A-ANNO-TEXT
100
AcDbText
 10
10.86
 20
8.520000000000001
 30
0.0
 40
0.054000000000000006
  1
upper tier >
  7
KS-REG
 72
2
 11
10.86
 21
8.520000000000001
 31
0.0
100
AcDbText
  0
TEXT
  5
124
330
17
100
AcDbEntity
  8
A-ANNO-TEXT
100
AcDbText
 10
9.600000000000001
 20
8.150000000000002
 30
0.0
 40
0.054000000000000006
  1
lower tier
  7
KS-REG
 11
9.600000000000001
 21
8.150000000000002
 31
0.0
100
AcDbText
  0
TEXT
  5
125
330
17
100
AcDbEntity
  8
A-ANNO-TEXT
100
AcDbText
 10
10.61
 20
8.150000000000002
 30
0.0
 40
0.054000000000000006
  1
lower tier
  7
KS-REG
 72
2
 11
10.61
 21
8.150000000000002
 31
0.0
100
AcDbText
  0
LINE
  5
126
330
17
100
AcDbEntity
  8
A-ANNO-TEXT
100
AcDbLine
 10
8.280000000000001
 20
7.7700000000000005
 30
0.0
 11
11.93
 21
7.7700000000000005
 31
0.0
  0
LINE
  5
127
330
17
100
AcDbEntity
  8
A-ANNO-TEXT
100
AcDbLine
 10
8.280000000000001
 20
7.720000000000001
 30
0.0
 11
8.280000000000001
 21
7.82
 31
0.0
  0
LINE
  5
128
330
17
100
AcDbEntity
  8
A-ANNO-TEXT
100
AcDbLine
 10
11.93
 20
7.720000000000001
 30
0.0
 11
11.93
 21
7.82
 31
0.0
  0
TEXT
  5
129
330
17
100
AcDbEntity
  8
A-ANNO-TEXT
100
AcDbText
 10
10.105
 20
7.62
 30
0.0
 40
0.069
  1
FOOTPRINT unchanged by L3 if L3 ≤ L1 ring
  7
KS-BOLD
 72
1
 11
10.105
 21
7.62
 31
0.0
100
AcDbText
  0
TEXT
  5
12A
330
17
100
AcDbEntity
  8
A-ANNO-TEXT
100
AcDbText
 10
8.23
 20
7.434433333333334
 30
0.0
 40
0.083
  1
L3 suites sit over the L2 rooms and the L1 ring, so they add floor
  7
KS-REG
 11
8.23
 21
7.434433333333334
 31
0.0
100
AcDbText
  0
TEXT
  5
12B
330
17
100
AcDbEntity
  8
A-ANNO-TEXT
100
AcDbText
 10
8.23
 20
7.282266666666667
 30
0.0
 40
0.083
  1
area but not footprint (headline: L3 ≈ 11,300 GSF vs L1 ring ≈
  7
KS-REG
 11
8.23
 21
7.282266666666667
 31
0.0
100
AcDbText
  0
TEXT
  5
12C
330
17
100
AcDbEntity
  8
A-ANNO-TEXT
100
AcDbText
 10
8.23
 20
7.1301
 30
0.0
 40
0.083
  1
26,000). The catch: every added floor still adds mechanical (5%
  7
KS-REG
 11
8.23
 21
7.1301
 31
0.0
100
AcDbText
  0
TEXT
  5
12D
330
17
100
AcDbEntity
  8
A-ANNO-TEXT
100
AcDbText
 10
8.23
 20
6.977933333333333
 30
0.0
 40
0.083
  1
of gross, at grade) and wider stairs on L1, and suites need 25 SF
  7
KS-REG
 11
8.23
 21
6.977933333333333
 31
0.0
100
AcDbText
  0
TEXT
  5
12E
330
17
100
AcDbEntity
  8
A-ANNO-TEXT
100
AcDbText
 10
8.23
 20
6.825766666666666
 30
0.0
 40
0.083
  1
per guest vs 6 SF per bowl seat. On Level 2 (back of the upper
  7
KS-REG
 11
8.23
 21
6.825766666666666
 31
0.0
100
AcDbText
  0
TEXT
  5
12F
330
17
100
AcDbEntity
  8
A-ANNO-TEXT
100
AcDbText
 10
8.23
 20
6.673599999999999
 30
0.0
 40
0.083
  1
tier) suites never fit: L2 is already ≈ the size of the L1 ring.
  7
KS-REG
 11
8.23
 21
6.673599999999999
 31
0.0
100
AcDbText
  0
TEXT
  5
130
330
17
100
AcDbEntity
  8
A-ANNO-TEXT
100
AcDbText
 10
8.23
 20
6.278958333333332
 30
0.0
 40
0.105
  1
5  A SUITE LEVEL = A 3RD STORY
  7
KS-BOLD
 11
8.23
 21
6.278958333333332
 31
0.0
100
AcDbText
  0
TEXT
  5
131
330
17
100
AcDbEntity
  8
A-ANNO-TEXT
100
AcDbText
 10
8.23
 20
6.083391666666666
 30
0.0
 40
0.083
  1
Headline case: L2 load 1,368, L3 (suites, code load) 598 -> 4
  7
KS-REG
 11
8.23
 21
6.083391666666666
 31
0.0
100
AcDbText
  0
TEXT
  5
132
330
17
100
AcDbEntity
  8
A-ANNO-TEXT
100
AcDbText
 10
8.23
 20
5.931224999999999
 30
0.0
 40
0.083
  1
stairs x 68 in on all 3 levels (T1006.3.3; 0.2 in/occ., 1005.3.1;
  7
KS-REG
 11
8.23
 21
5.931224999999999
 31
0.0
100
AcDbText
  0
TEXT
  5
133
330
17
100
AcDbEntity
  8
A-ANNO-TEXT
100
AcDbText
 10
8.23
 20
5.779058333333332
 30
0.0
 40
0.083
  1
width never reduced downstream, 1005.4).
  7
KS-REG
 11
8.23
 21
5.779058333333332
 31
0.0
100
AcDbText
  0
TEXT
  5
134
330
17
100
AcDbEntity
  8
A-ANNO-TEXT
100
AcDbText
 10
8.23
 20
5.61538333333333
 30
0.0
 40
0.079
  1
·
  7
KS-REG
 11
8.23
 21
5.61538333333333
 31
0.0
100
AcDbText
  0
TEXT
  5
135
330
17
100
AcDbEntity
  8
A-ANNO-TEXT
100
AcDbText
 10
8.35
 20
5.61538333333333
 30
0.0
 40
0.079
  1
Open stairs lose the two-story exception (1019.3 exc. 1):
  7
KS-REG
 11
8.35
 21
5.61538333333333
 31
0.0
100
AcDbText
  0
TEXT
  5
136
330
17
100
AcDbEntity
  8
A-ANNO-TEXT
100
AcDbText
 10
8.35
 20
5.470549999999997
 30
0.0
 40
0.079
  1
enclosed exit stairs, 1-hour for fewer than 4 stories (1023.2).
  7
KS-REG
 11
8.35
 21
5.470549999999997
 31
0.0
100
AcDbText
  0
TEXT
  5
137
330
17
100
AcDbEntity
  8
A-ANNO-TEXT
100
AcDbText
 10
8.23
 20
5.309508333333329
 30
0.0
 40
0.079
  1
·
  7
KS-REG
 11
8.23
 21
5.309508333333329
 31
0.0
100
AcDbText
  0
TEXT
  5
138
330
17
100
AcDbEntity
  8
A-ANNO-TEXT
100
AcDbText
 10
8.35
 20
5.309508333333329
 30
0.0
 40
0.079
  1
Elevator must stop at the suite level (1104.4); a wheelchair space
  7
KS-REG
 11
8.35
 21
5.309508333333329
 31
0.0
100
AcDbText
  0
TEXT
  5
139
330
17
100
AcDbEntity
  8
A-ANNO-TEXT
100
AcDbText
 10
8.35
 20
5.1646749999999955
 30
0.0
 40
0.079
  1
+ companion seat in every suite (1109.2.2.2, ADA 221.2.1.2),
  7
KS-REG
 11
8.35
 21
5.1646749999999955
 31
0.0
100
AcDbText
  0
TEXT
  5
13A
330
17
100
AcDbEntity
  8
A-ANNO-TEXT
100
AcDbText
 10
8.35
 20
5.019841666666662
 30
0.0
 40
0.079
  1
with lines of sight and dispersion (ADA 221.2.3, IBC 1109.2.4).
  7
KS-REG
 11
8.35
 21
5.019841666666662
 31
0.0
100
AcDbText
  0
TEXT
  5
13B
330
17
100
AcDbEntity
  8
A-ANNO-TEXT
100
AcDbText
 10
8.23
 20
4.858799999999994
 30
0.0
 40
0.079
  1
·
  7
KS-REG
 11
8.23
 21
4.858799999999994
 31
0.0
100
AcDbText
  0
TEXT
  5
13C
330
17
100
AcDbEntity
  8
A-ANNO-TEXT
100
AcDbText
 10
8.35
 20
4.858799999999994
 30
0.0
 40
0.079
  1
Elevator egress still not required (< 4 stories, 1009.2.1). Allowed
  7
KS-REG
 11
8.35
 21
4.858799999999994
 31
0.0
100
AcDbText
  0
TEXT
  5
13D
330
17
100
AcDbEntity
  8
A-ANNO-TEXT
100
AcDbText
 10
8.35
 20
4.713966666666661
 30
0.0
 40
0.079
  1
stories for the construction type (IBC ch. 5) NOT checked.
  7
KS-REG
 11
8.35
 21
4.713966666666661
 31
0.0
100
AcDbText
  0
TEXT
  5
13E
330
17
100
AcDbEntity
  8
A-ANNO-TEXT
100
AcDbText
 10
8.23
 20
4.552924999999993
 30
0.0
 40
0.079
  1
·
  7
KS-REG
 11
8.23
 21
4.552924999999993
 31
0.0
100
AcDbText
  0
TEXT
  5
13F
330
17
100
AcDbEntity
  8
A-ANNO-TEXT
100
AcDbText
 10
8.35
 20
4.552924999999993
 30
0.0
 40
0.079
  1
Could the suites be a mezzanine instead of a story? Not checked
  7
KS-REG
 11
8.35
 21
4.552924999999993
 31
0.0
100
AcDbText
  0
TEXT
  5
140
330
17
100
AcDbEntity
  8
A-ANNO-TEXT
100
AcDbText
 10
8.35
 20
4.408091666666659
 30
0.0
 40
0.079
  1
(architect).
  7
KS-REG
 11
8.35
 21
4.408091666666659
 31
0.0
100
AcDbText
  0
TEXT
  5
141
330
17
100
AcDbEntity
  8
A-ANNO-TEXT
100
AcDbText
 10
8.23
 20
4.016083333333326
 30
0.0
 40
0.105
  1
6  PRECEDENTS (R-016)
  7
KS-BOLD
 11
8.23
 21
4.016083333333326
 31
0.0
100
AcDbText
  0
TEXT
  5
142
330
17
100
AcDbEntity
  8
A-ANNO-TEXT
100
AcDbText
 10
8.23
 20
3.847049999999993
 30
0.0
 40
0.079
  1
·
  7
KS-REG
 11
8.23
 21
3.847049999999993
 31
0.0
100
AcDbText
  0
TEXT
  5
143
330
17
100
AcDbEntity
  8
A-ANNO-TEXT
100
AcDbText
 10
8.35
 20
3.847049999999993
 30
0.0
 40
0.079
  1
Diddle Arena (WKU): 16 suites, 400 SF, 16 tickets each, restrooms
  7
KS-REG
 11
8.35
 21
3.847049999999993
 31
0.0
100
AcDbText
  0
TEXT
  5
144
330
17
100
AcDbEntity
  8
A-ANNO-TEXT
100
AcDbText
 10
8.35
 20
3.70221666666666
 30
0.0
 40
0.079
  1
for the suite level, suites 'clear at the top of the arena' (2002).
  7
KS-REG
 11
8.35
 21
3.70221666666666
 31
0.0
100
AcDbText
  0
TEXT
  5
145
330
17
100
AcDbEntity
  8
A-ANNO-TEXT
100
AcDbText
 10
8.23
 20
3.5411749999999937
 30
0.0
 40
0.079
  1
·
  7
KS-REG
 11
8.23
 21
3.5411749999999937
 31
0.0
100
AcDbText
  0
TEXT
  5
146
330
17
100
AcDbEntity
  8
A-ANNO-TEXT
100
AcDbText
 10
8.35
 20
3.5411749999999937
 30
0.0
 40
0.079
  1
United Supermarkets Arena (Texas Tech): 24 suites at 276 SF +
  7
KS-REG
 11
8.35
 21
3.5411749999999937
 31
0.0
100
AcDbText
  0
TEXT
  5
147
330
17
100
AcDbEntity
  8
A-ANNO-TEXT
100
AcDbText
 10
8.35
 20
3.3963416666666606
 30
0.0
 40
0.079
  1
corner suites at 611 SF.
  7
KS-REG
 11
8.35
 21
3.3963416666666606
 31
0.0
100
AcDbText
  0
TEXT
  5
148
330
17
100
AcDbEntity
  8
A-ANNO-TEXT
100
AcDbText
 10
8.23
 20
3.2352999999999943
 30
0.0
 40
0.079
  1
·
  7
KS-REG
 11
8.23
 21
3.2352999999999943
 31
0.0
100
AcDbText
  0
TEXT
  5
149
330
17
100
AcDbEntity
  8
A-ANNO-TEXT
100
AcDbText
 10
8.35
 20
3.2352999999999943
 30
0.0
 40
0.079
  1
Petersen Events Center (Pitt): 5 courtside suites up to 15; 16
  7
KS-REG
 11
8.35
 21
3.2352999999999943
 31
0.0
100
AcDbText
  0
TEXT
  5
14A
330
17
100
AcDbEntity
  8
A-ANNO-TEXT
100
AcDbText
 10
8.35
 20
3.090466666666661
 30
0.0
 40
0.079
  1
smaller suites, about 12 guests.
  7
KS-REG
 11
8.35
 21
3.090466666666661
 31
0.0
100
AcDbText
  0
TEXT
  5
14B
330
17
100
AcDbEntity
  8
A-ANNO-TEXT
100
AcDbText
 10
8.23
 20
2.929424999999995
 30
0.0
 40
0.079
  1
·
  7
KS-REG
 11
8.23
 21
2.929424999999995
 31
0.0
100
AcDbText
  0
TEXT
  5
14C
330
17
100
AcDbEntity
  8
A-ANNO-TEXT
100
AcDbText
 10
8.35
 20
2.929424999999995
 30
0.0
 40
0.079
  1
Sheldon ISD Panther Stadium (high school): 2 suites, 20 VIPs
  7
KS-REG
 11
8.35
 21
2.929424999999995
 31
0.0
100
AcDbText
  0
TEXT
  5
14D
330
17
100
AcDbEntity
  8
A-ANNO-TEXT
100
AcDbText
 10
8.35
 20
2.7845916666666617
 30
0.0
 40
0.079
  1
each; lounge seating, sink, refrigerator; restrooms on the level.
  7
KS-REG
 11
8.35
 21
2.7845916666666617
 31
0.0
100
AcDbText
  0
LINE
  5
14E
330
17
100
AcDbEntity
  8
A-ANNO-TEXT
100
AcDbLine
 10
12.16
 20
1.9700000000000002
 30
0.0
 11
12.16
 21
10.38
 31
0.0
  0
TEXT
  5
14F
330
17
100
AcDbEntity
  8
A-ANNO-TEXT
100
AcDbText
 10
12.33
 20
10.180000000000001
 30
0.0
 40
0.105
  1
7  RESULT (BASE INPUTS)
  7
KS-BOLD
 11
12.33
 21
10.180000000000001
 31
0.0
100
AcDbText
  0
LWPOLYLINE
  5
150
330
17
100
AcDbEntity
  8
A-ANNO-TEXT
100
AcDbPolyline
 90
4
 70
1
 10
12.33
 20
8.780000000000001
 10
16.22
 20
8.780000000000001
 10
16.22
 20
10.080000000000002
 10
12.33
 20
10.080000000000002
  0
TEXT
  5
151
330
17
100
AcDbEntity
  8
A-ANNO-TEXT
100
AcDbText
 10
14.274999999999999
 20
9.820000000000002
 30
0.0
 40
0.1
  1
18,000 SF FLOOR + SUITES:
  7
KS-BOLD
 72
1
 11
14.274999999999999
 21
9.820000000000002
 31
0.0
100
AcDbText
  0
TEXT
  5
152
330
17
100
AcDbEntity
  8
A-ANNO-TEXT
100
AcDbText
 10
14.274999999999999
 20
9.585000000000003
 30
0.0
 40
0.096
  1
1,940 bowl + 13 suites x 20 = 2,200
  7
KS-BOLD
 72
1
 11
14.274999999999999
 21
9.585000000000003
 31
0.0
100
AcDbText
  0
TEXT
  5
153
330
17
100
AcDbEntity
  8
A-ANNO-TEXT
100
AcDbText
 10
14.274999999999999
 20
9.350000000000003
 30
0.0
 40
0.09199999999999998
  1
Footprint ≈ 54,994 vs 55,000: FITS
  7
KS-BOLD
 72
1
 11
14.274999999999999
 21
9.350000000000003
 31
0.0
100
AcDbText
  0
TEXT
  5
154
330
17
100
AcDbEntity
  8
A-ANNO-TEXT
100
AcDbText
 10
14.274999999999999
 20
9.115000000000004
 30
0.0
 40
0.08399999999999999
  1
Total ≈ 92,300 GSF · 3 levels (suite level)
  7
KS-REG
 72
1
 11
14.274999999999999
 21
9.115000000000004
 31
0.0
100
AcDbText
  0
TEXT
  5
155
330
17
100
AcDbEntity
  8
A-ANNO-TEXT
100
AcDbText
 10
14.274999999999999
 20
8.880000000000004
 30
0.0
 40
0.07999999999999999
  1
At 22,000 SF: suites reach only ≈ 1,640
  7
KS-REG
 72
1
 11
14.274999999999999
 21
8.880000000000004
 31
0.0
100
AcDbText
  0
TEXT
  5
156
330
17
100
AcDbEntity
  8
A-ANNO-TEXT
100
AcDbText
 10
12.33
 20
8.604433333333336
 30
0.0
 40
0.083
  1
Largest floor that still reaches 2,200 with suites: ≈ 20,200-20,300
  7
KS-REG
 11
12.33
 21
8.604433333333336
 31
0.0
100
AcDbText
  0
TEXT
  5
157
330
17
100
AcDbEntity
  8
A-ANNO-TEXT
100
AcDbText
 10
12.33
 20
8.45226666666667
 30
0.0
 40
0.083
  1
SF. At 20,000 SF it takes 30-50 suites (≈ 510-550 ft of suite front),
  7
KS-REG
 11
12.33
 21
8.45226666666667
 31
0.0
100
AcDbText
  0
TEXT
  5
158
330
17
100
AcDbEntity
  8
A-ANNO-TEXT
100
AcDbText
 10
12.33
 20
8.300100000000004
 30
0.0
 40
0.083
  1
beyond the cited arenas' 16-24 suites. 18,000 SF needs 13-22
  7
KS-REG
 11
12.33
 21
8.300100000000004
 31
0.0
100
AcDbText
  0
TEXT
  5
159
330
17
100
AcDbEntity
  8
A-ANNO-TEXT
100
AcDbText
 10
12.33
 20
8.147933333333338
 30
0.0
 40
0.083
  1
suites (≈ 220-240 ft, both long sides). The headline is ≈ 6 SF
  7
KS-REG
 11
12.33
 21
8.147933333333338
 31
0.0
100
AcDbText
  0
TEXT
  5
15A
330
17
100
AcDbEntity
  8
A-ANNO-TEXT
100
AcDbText
 10
12.33
 20
7.995766666666671
 30
0.0
 40
0.083
  1
under the cap: no margin.
  7
KS-REG
 11
12.33
 21
7.995766666666671
 31
0.0
100
AcDbText
  0
TEXT
  5
15B
330
17
100
AcDbEntity
  8
A-ANNO-TEXT
100
AcDbText
 10
12.33
 20
7.601125000000004
 30
0.0
 40
0.105
  1
8  RESTROOMS + WHEELCHAIR SPACES
  7
KS-BOLD
 11
12.33
 21
7.601125000000004
 31
0.0
100
AcDbText
  0
TEXT
  5
15C
330
17
100
AcDbEntity
  8
A-ANNO-TEXT
100
AcDbText
 10
12.33
 20
7.405558333333338
 30
0.0
 40
0.083
  1
T2902.1 per level (headline): L1 30, L2 30, L3 suites 16 fixtures
  7
KS-REG
 11
12.33
 21
7.405558333333338
 31
0.0
100
AcDbText
  0
TEXT
  5
15D
330
17
100
AcDbEntity
  8
A-ANNO-TEXT
100
AcDbText
 10
12.33
 20
7.253391666666671
 30
0.0
 40
0.083
  1
(WC 4 M / 8 W, lav 2 / 2) = 76 total (Rev B: 70). Suite fixtures use
  7
KS-REG
 11
12.33
 21
7.253391666666671
 31
0.0
100
AcDbText
  0
TEXT
  5
15E
330
17
100
AcDbEntity
  8
A-ANNO-TEXT
100
AcDbText
 10
12.33
 20
7.101225000000004
 30
0.0
 40
0.083
  1
the suite code load, not the guest count. Wheelchair spaces: bowl
  7
KS-REG
 11
12.33
 21
7.101225000000004
 31
0.0
100
AcDbText
  0
TEXT
  5
15F
330
17
100
AcDbEntity
  8
A-ANNO-TEXT
100
AcDbText
 10
12.33
 20
6.949058333333337
 30
0.0
 40
0.083
  1
16 (T1109.2.2.1) + 1 in each of 13 suites.
  7
KS-REG
 11
12.33
 21
6.949058333333337
 31
0.0
100
AcDbText
  0
TEXT
  5
160
330
17
100
AcDbEntity
  8
A-ANNO-TEXT
100
AcDbText
 10
12.33
 20
6.55441666666667
 30
0.0
 40
0.105
  1
9  CITED vs ASSUMED
  7
KS-BOLD
 11
12.33
 21
6.55441666666667
 31
0.0
100
AcDbText
  0
TEXT
  5
161
330
17
100
AcDbEntity
  8
A-ANNO-TEXT
100
AcDbText
 10
12.33
 20
6.3653833333333365
 30
0.0
 40
0.079
  1
CITED: 12/16/20 guests, 400 SF suite (25 SF/guest), suite-level
  7
KS-REG
 11
12.33
 21
6.3653833333333365
 31
0.0
100
AcDbText
  0
TEXT
  5
162
330
17
100
AcDbEntity
  8
A-ANNO-TEXT
100
AcDbText
 10
12.33
 20
6.220550000000003
 30
0.0
 40
0.079
  1
restrooms, suites at the top of the bowl (Diddle), IBC 1004.6, T1004.5,
  7
KS-REG
 11
12.33
 21
6.220550000000003
 31
0.0
100
AcDbText
  0
TEXT
  5
163
330
17
100
AcDbEntity
  8
A-ANNO-TEXT
100
AcDbText
 10
12.33
 20
6.075716666666669
 30
0.0
 40
0.079
  1
T1020.3, 1019.3, 1023.2, 1104.4, 1109.2, ADA 221.2. ASSUMED: suite
  7
KS-REG
 11
12.33
 21
6.075716666666669
 31
0.0
100
AcDbText
  0
TEXT
  5
164
330
17
100
AcDbEntity
  8
A-ANNO-TEXT
100
AcDbText
 10
12.33
 20
5.930883333333336
 30
0.0
 40
0.079
  1
width rule, 44 in corridor, suite level over the ring, no kitchenette,
  7
KS-REG
 11
12.33
 21
5.930883333333336
 31
0.0
100
AcDbText
  0
TEXT
  5
165
330
17
100
AcDbEntity
  8
A-ANNO-TEXT
100
AcDbText
 10
12.33
 20
5.786050000000002
 30
0.0
 40
0.079
  1
mechanical at grade, all Rev B assumptions.
  7
KS-REG
 11
12.33
 21
5.786050000000002
 31
0.0
100
AcDbText
  0
TEXT
  5
166
330
17
100
AcDbEntity
  8
A-ANNO-TEXT
100
AcDbText
 10
12.33
 20
5.394041666666669
 30
0.0
 40
0.105
  1
10  STILL OPEN (D-030)
  7
KS-BOLD
 11
12.33
 21
5.394041666666669
 31
0.0
100
AcDbText
  0
TEXT
  5
167
330
17
100
AcDbEntity
  8
A-ANNO-TEXT
100
AcDbText
 10
12.33
 20
5.198475000000003
 30
0.0
 40
0.083
  1
Pick one: (a) 18,000 SF floor + 13-22 suites, 3 levels; (b) 16,400 SF
  7
KS-REG
 11
12.33
 21
5.198475000000003
 31
0.0
100
AcDbText
  0
TEXT
  5
168
330
17
100
AcDbEntity
  8
A-ANNO-TEXT
100
AcDbText
 10
12.33
 20
5.046308333333336
 30
0.0
 40
0.083
  1
floor, all 2,200 in the bowl, no suites, 2 levels (≈ 80,900 GSF); (c)
  7
KS-REG
 11
12.33
 21
5.046308333333336
 31
0.0
100
AcDbText
  0
TEXT
  5
169
330
17
100
AcDbEntity
  8
A-ANNO-TEXT
100
AcDbText
 10
12.33
 20
4.894141666666669
 30
0.0
 40
0.083
  1
keep 22,000 SF with lean inputs (telescopic lower tier), no suites, 2
  7
KS-REG
 11
12.33
 21
4.894141666666669
 31
0.0
100
AcDbText
  0
TEXT
  5
16A
330
17
100
AcDbEntity
  8
A-ANNO-TEXT
100
AcDbText
 10
12.33
 20
4.741975000000002
 30
0.0
 40
0.083
  1
levels (≈ 74,700 GSF). ~1,370 seats alone is rejected (D-032).
  7
KS-REG
 11
12.33
 21
4.741975000000002
 31
0.0
100
AcDbText
  0
TEXT
  5
16B
330
17
100
AcDbEntity
  8
A-ANNO-TEXT
100
AcDbText
 10
12.33
 20
4.347333333333335
 30
0.0
 40
0.1
  1
11  SOURCES (retrieved 2026-10-03)
  7
KS-BOLD
 11
12.33
 21
4.347333333333335
 31
0.0
100
AcDbText
  0
TEXT
  5
16C
330
17
100
AcDbEntity
  8
A-ANNO-TEXT
100
AcDbText
 10
12.33
 20
4.199733333333336
 30
0.0
 40
0.072
  1
·
  7
KS-REG
 11
12.33
 21
4.199733333333336
 31
0.0
100
AcDbText
  0
TEXT
  5
16D
330
17
100
AcDbEntity
  8
A-ANNO-TEXT
100
AcDbText
 10
12.45
 20
4.199733333333336
 30
0.0
 40
0.072
  1
WKU College Heights Herald 2002-10-22 (Diddle Arena suites); Texas Tech
  7
KS-REG
 11
12.45
 21
4.199733333333336
 31
0.0
100
AcDbText
  0
TEXT
  5
16E
330
17
100
AcDbEntity
  8
A-ANNO-TEXT
100
AcDbText
 10
12.45
 20
4.0677333333333365
 30
0.0
 40
0.072
  1
United Supermarkets Arena facts; Petersen Events Center Production
  7
KS-REG
 11
12.45
 21
4.0677333333333365
 31
0.0
100
AcDbText
  0
TEXT
  5
16F
330
17
100
AcDbEntity
  8
A-ANNO-TEXT
100
AcDbText
 10
12.45
 20
3.9357333333333364
 30
0.0
 40
0.072
  1
Guide 2020; Sheldon ISD Panther Stadium info — R-016
  7
KS-REG
 11
12.45
 21
3.9357333333333364
 31
0.0
100
AcDbText
  0
TEXT
  5
170
330
17
100
AcDbEntity
  8
A-ANNO-TEXT
100
AcDbText
 10
12.33
 20
3.800733333333336
 30
0.0
 40
0.072
  1
·
  7
KS-REG
 11
12.33
 21
3.800733333333336
 31
0.0
100
AcDbText
  0
TEXT
  5
171
330
17
100
AcDbEntity
  8
A-ANNO-TEXT
100
AcDbText
 10
12.45
 20
3.800733333333336
 30
0.0
 40
0.072
  1
IBC 2021 (UpCodes) ch. 10, 11; 2010 ADA Standards 221.2 — R-016, R-015
  7
KS-REG
 11
12.45
 21
3.800733333333336
 31
0.0
100
AcDbText
  0
TEXT
  5
172
330
17
100
AcDbEntity
  8
A-ANNO-TEXT
100
AcDbText
 10
12.33
 20
3.665733333333336
 30
0.0
 40
0.072
  1
·
  7
KS-REG
 11
12.33
 21
3.665733333333336
 31
0.0
100
AcDbText
  0
TEXT
  5
173
330
17
100
AcDbEntity
  8
A-ANNO-TEXT
100
AcDbText
 10
12.45
 20
3.665733333333336
 30
0.0
 40
0.072
  1
Rev A/B sources: R-008, R-009, R-014, R-015
  7
KS-REG
 11
12.45
 21
3.665733333333336
 31
0.0
100
AcDbText
  0
ENDSEC
  0
SECTION
  2
OBJECTS
  0
DICTIONARY
  5
A
330
0
100
AcDbDictionary
281
1
  3
ACAD_COLOR
350
B
  3
ACAD_GROUP
350
C
  3
ACAD_LAYOUT
350
D
  3
ACAD_MATERIAL
350
E
  3
ACAD_MLEADERSTYLE
350
F
  3
ACAD_MLINESTYLE
350
10
  3
ACAD_PLOTSETTINGS
350
11
  3
ACAD_PLOTSTYLENAME
350
12
  3
ACAD_SCALELIST
350
14
  3
ACAD_TABLESTYLE
350
15
  3
ACAD_VISUALSTYLE
350
16
  3
EZDXF_META
350
2D
  0
DICTIONARY
  5
B
330
A
100
AcDbDictionary
281
1
  0
DICTIONARY
  5
C
330
A
100
AcDbDictionary
281
1
  0
DICTIONARY
  5
D
330
A
100
AcDbDictionary
281
1
  3
Model
350
1A
  3
Layout1
350
1E
  0
DICTIONARY
  5
E
330
A
100
AcDbDictionary
281
1
  3
ByBlock
350
1F
  3
ByLayer
350
20
  3
Global
350
21
  0
DICTIONARY
  5
F
330
A
100
AcDbDictionary
281
1
  3
Standard
350
2C
  0
DICTIONARY
  5
10
330
A
100
AcDbDictionary
281
1
  3
Standard
350
22
  0
DICTIONARY
  5
11
330
A
100
AcDbDictionary
281
1
  0
ACDBDICTIONARYWDFLT
  5
12
330
A
100
AcDbDictionary
281
1
  3
Normal
350
13
100
AcDbDictionaryWithDefault
340
13
  0
ACDBPLACEHOLDER
  5
13
330
12
  0
DICTIONARY
  5
14
330
A
100
AcDbDictionary
281
1
  0
DICTIONARY
  5
15
330
A
100
AcDbDictionary
281
1
  0
DICTIONARY
  5
16
330
A
100
AcDbDictionary
281
1
  0
LAYOUT
  5
1A
330
D
100
AcDbPlotSettings
  1

  4
A3
  6

 40
7.5
 41
20.0
 42
7.5
 43
20.0
 44
420.0
 45
297.0
 46
0.0
 47
0.0
 48
0.0
 49
0.0
140
0.0
141
0.0
142
1.0
143
1.0
 70
1024
 72
1
 73
0
 74
5
  7

 75
16
 76
0
 77
2
 78
300
147
1.0
148
0.0
149
0.0
100
AcDbLayout
  1
Model
 70
1
 71
0
 10
0.0
 20
0.0
 11
420.0
 21
297.0
 12
0.0
 22
0.0
 32
0.0
 14
1e+20
 24
1e+20
 34
1e+20
 15
-1e+20
 25
-1e+20
 35
-1e+20
146
0.0
 13
0.0
 23
0.0
 33
0.0
 16
1.0
 26
0.0
 36
0.0
 17
0.0
 27
1.0
 37
0.0
 76
1
330
17
  0
LAYOUT
  5
1E
330
D
100
AcDbPlotSettings
  1

  4
A3
  6

 40
7.5
 41
20.0
 42
7.5
 43
20.0
 44
420.0
 45
297.0
 46
0.0
 47
0.0
 48
0.0
 49
0.0
140
0.0
141
0.0
142
1.0
143
1.0
 70
0
 72
1
 73
0
 74
5
  7

 75
16
 76
0
 77
2
 78
300
147
1.0
148
0.0
149
0.0
100
AcDbLayout
  1
Layout1
 70
1
 71
1
 10
0.0
 20
0.0
 11
420.0
 21
297.0
 12
0.0
 22
0.0
 32
0.0
 14
1e+20
 24
1e+20
 34
1e+20
 15
-1e+20
 25
-1e+20
 35
-1e+20
146
0.0
 13
0.0
 23
0.0
 33
0.0
 16
1.0
 26
0.0
 36
0.0
 17
0.0
 27
1.0
 37
0.0
 76
1
330
1B
  0
MATERIAL
  5
1F
102
{ACAD_REACTORS
330
E
102
}
330
E
100
AcDbMaterial
  1
ByBlock
  2

 70
0
 40
1.0
 71
1
 41
1.0
 91
-1023410177
 42
1.0
 72
1
  3

 73
1
 74
1
 75
1
 44
0.5
 73
0
 45
1.0
 46
1.0
 77
1
  4

 78
1
 79
1
170
1
 48
1.0
171
1
  6

172
1
173
1
174
1
140
1.0
141
1.0
175
1
  7

176
1
177
1
178
1
143
1.0
179
1
  8

270
1
271
1
272
1
145
1.0
146
1.0
273
1
  9

274
1
275
1
276
1
 42
1.0
 72
1
  3

 73
1
 74
1
 75
1
 94
63
  0
MATERIAL
  5
20
102
{ACAD_REACTORS
330
E
102
}
330
E
100
AcDbMaterial
  1
ByLayer
  2

 70
0
 40
1.0
 71
1
 41
1.0
 91
-1023410177
 42
1.0
 72
1
  3

 73
1
 74
1
 75
1
 44
0.5
 73
0
 45
1.0
 46
1.0
 77
1
  4

 78
1
 79
1
170
1
 48
1.0
171
1
  6

172
1
173
1
174
1
140
1.0
141
1.0
175
1
  7

176
1
177
1
178
1
143
1.0
179
1
  8

270
1
271
1
272
1
145
1.0
146
1.0
273
1
  9

274
1
275
1
276
1
 42
1.0
 72
1
  3

 73
1
 74
1
 75
1
 94
63
  0
MATERIAL
  5
21
102
{ACAD_REACTORS
330
E
102
}
330
E
100
AcDbMaterial
  1
Global
  2

 70
0
 40
1.0
 71
1
 41
1.0
 91
-1023410177
 42
1.0
 72
1
  3

 73
1
 74
1
 75
1
 44
0.5
 73
0
 45
1.0
 46
1.0
 77
1
  4

 78
1
 79
1
170
1
 48
1.0
171
1
  6

172
1
173
1
174
1
140
1.0
141
1.0
175
1
  7

176
1
177
1
178
1
143
1.0
179
1
  8

270
1
271
1
272
1
145
1.0
146
1.0
273
1
  9

274
1
275
1
276
1
 42
1.0
 72
1
  3

 73
1
 74
1
 75
1
 94
63
  0
MLINESTYLE
  5
22
102
{ACAD_REACTORS
330
10
102
}
330
10
100
AcDbMlineStyle
  2
Standard
 70
0
  3

 62
256
 51
90.0
 52
90.0
 71
2
 49
0.5
 62
256
  6
BYLAYER
 49
-0.5
 62
256
  6
BYLAYER
  0
MLEADERSTYLE
  5
2C
102
{ACAD_REACTORS
330
F
102
}
330
F
100
AcDbMLeaderStyle
179
2
170
2
171
1
172
0
 90
2
 40
0.0
 41
0.0
173
1
 91
-1056964608
 92
-2
290
1
 42
2.0
291
1
 43
8.0
  3
Standard
 44
4.0
300

342
29
174
1
175
1
176
0
178
1
 93
-1056964608
 45
4.0
292
0
297
0
 46
4.0
 94
-1056964608
 47
1.0
 49
1.0
140
1.0
294
1
141
0.0
177
0
142
1.0
295
0
296
0
143
3.75
271
0
272
9
273
9
  0
DICTIONARY
  5
2D
330
A
100
AcDbDictionary
280
1
281
1
  3
CREATED_BY_EZDXF
350
2E
  3
WRITTEN_BY_EZDXF
350
176
  0
DICTIONARYVAR
  5
2E
330
2D
100
DictionaryVariables
280
0
  1
1.4.4 @ 2026-10-04T04:33:49.764282+00:00
  0
DICTIONARYVAR
  5
176
330
2D
100
DictionaryVariables
280
0
  1
1.4.4 @ 2026-10-04T04:33:49.772424+00:00
  0
ENDSEC
  0
EOF
