  0
SECTION
  2
HEADER
  9
$ACADVER
  1
AC1024
  9
$ACADMAINTVER
 70
6
  9
$DWGCODEPAGE
  3
ANSI_1252
  9
$LASTSAVEDBY
  1
ezdxf
  9
$INSBASE
 10
0.0
 20
0.0
 30
0.0
  9
$EXTMIN
 10
1e+20
 20
1e+20
 30
1e+20
  9
$EXTMAX
 10
-1e+20
 20
-1e+20
 30
-1e+20
  9
$LIMMIN
 10
0.0
 20
0.0
  9
$LIMMAX
 10
420.0
 20
297.0
  9
$ORTHOMODE
 70
0
  9
$REGENMODE
 70
1
  9
$FILLMODE
 70
1
  9
$QTEXTMODE
 70
0
  9
$MIRRTEXT
 70
1
  9
$LTSCALE
 40
1.0
  9
$ATTMODE
 70
1
  9
$TEXTSIZE
 40
2.5
  9
$TRACEWID
 40
1.0
  9
$TEXTSTYLE
  7
Standard
  9
$CLAYER
  8
0
  9
$CELTYPE
  6
ByLayer
  9
$CECOLOR
 62
256
  9
$CELTSCALE
 40
1.0
  9
$DISPSILH
 70
0
  9
$DIMSCALE
 40
1.0
  9
$DIMASZ
 40
2.5
  9
$DIMEXO
 40
0.625
  9
$DIMDLI
 40
3.75
  9
$DIMRND
 40
0.0
  9
$DIMDLE
 40
0.0
  9
$DIMEXE
 40
1.25
  9
$DIMTP
 40
0.0
  9
$DIMTM
 40
0.0
  9
$DIMTXT
 40
2.5
  9
$DIMCEN
 40
2.5
  9
$DIMTSZ
 40
0.0
  9
$DIMTOL
 70
0
  9
$DIMLIM
 70
0
  9
$DIMTIH
 70
0
  9
$DIMTOH
 70
0
  9
$DIMSE1
 70
0
  9
$DIMSE2
 70
0
  9
$DIMTAD
 70
1
  9
$DIMZIN
 70
8
  9
$DIMBLK
  1

  9
$DIMASO
 70
1
  9
$DIMSHO
 70
1
  9
$DIMPOST
  1

  9
$DIMAPOST
  1

  9
$DIMALT
 70
0
  9
$DIMALTD
 70
3
  9
$DIMALTF
 40
0.03937007874
  9
$DIMLFAC
 40
1.0
  9
$DIMTOFL
 70
1
  9
$DIMTVP
 40
0.0
  9
$DIMTIX
 70
0
  9
$DIMSOXD
 70
0
  9
$DIMSAH
 70
0
  9
$DIMBLK1
  1

  9
$DIMBLK2
  1

  9
$DIMSTYLE
  2
ISO-25
  9
$DIMCLRD
 70
0
  9
$DIMCLRE
 70
0
  9
$DIMCLRT
 70
0
  9
$DIMTFAC
 40
1.0
  9
$DIMGAP
 40
0.625
  9
$DIMJUST
 70
0
  9
$DIMSD1
 70
0
  9
$DIMSD2
 70
0
  9
$DIMTOLJ
 70
0
  9
$DIMTZIN
 70
8
  9
$DIMALTZ
 70
0
  9
$DIMALTTZ
 70
0
  9
$DIMUPT
 70
0
  9
$DIMDEC
 70
2
  9
$DIMTDEC
 70
2
  9
$DIMALTU
 70
2
  9
$DIMALTTD
 70
3
  9
$DIMTXSTY
  7
Standard
  9
$DIMAUNIT
 70
0
  9
$DIMADEC
 70
0
  9
$DIMALTRND
 40
0.0
  9
$DIMAZIN
 70
0
  9
$DIMDSEP
 70
44
  9
$DIMATFIT
 70
3
  9
$DIMFRAC
 70
0
  9
$DIMLDRBLK
  1

  9
$DIMLUNIT
 70
2
  9
$DIMLWD
 70
-2
  9
$DIMLWE
 70
-2
  9
$DIMTMOVE
 70
0
  9
$DIMFXL
 40
1.0
  9
$DIMFXLON
 70
0
  9
$DIMJOGANG
 40
0.785398163397
  9
$DIMTFILL
 70
0
  9
$DIMTFILLCLR
 70
0
  9
$DIMARCSYM
 70
0
  9
$DIMLTYPE
  6

  9
$DIMLTEX1
  6

  9
$DIMLTEX2
  6

  9
$DIMTXTDIRECTION
 70
0
  9
$LUNITS
 70
2
  9
$LUPREC
 70
4
  9
$SKETCHINC
 40
1.0
  9
$FILLETRAD
 40
10.0
  9
$AUNITS
 70
0
  9
$AUPREC
 70
2
  9
$MENU
  1
.
  9
$ELEVATION
 40
0.0
  9
$PELEVATION
 40
0.0
  9
$THICKNESS
 40
0.0
  9
$LIMCHECK
 70
0
  9
$CHAMFERA
 40
0.0
  9
$CHAMFERB
 40
0.0
  9
$CHAMFERC
 40
0.0
  9
$CHAMFERD
 40
0.0
  9
$SKPOLY
 70
0
  9
$TDCREATE
 40
2461318.2115972224
  9
$TDUCREATE
 40
2458532.153996898
  9
$TDUPDATE
 40
2461318.2115972224
  9
$TDUUPDATE
 40
2458532.1544311
  9
$TDINDWG
 40
0.0
  9
$TDUSRTIMER
 40
0.0
  9
$USRTIMER
 70
1
  9
$ANGBASE
 50
0.0
  9
$ANGDIR
 70
0
  9
$PDMODE
 70
0
  9
$PDSIZE
 40
0.0
  9
$PLINEWID
 40
0.0
  9
$SPLFRAME
 70
0
  9
$SPLINETYPE
 70
6
  9
$SPLINESEGS
 70
8
  9
$HANDSEED
  5
16C
  9
$SURFTAB1
 70
6
  9
$SURFTAB2
 70
6
  9
$SURFTYPE
 70
6
  9
$SURFU
 70
6
  9
$SURFV
 70
6
  9
$UCSBASE
  2

  9
$UCSNAME
  2

  9
$UCSORG
 10
0.0
 20
0.0
 30
0.0
  9
$UCSXDIR
 10
1.0
 20
0.0
 30
0.0
  9
$UCSYDIR
 10
0.0
 20
1.0
 30
0.0
  9
$UCSORTHOREF
  2

  9
$UCSORTHOVIEW
 70
0
  9
$UCSORGTOP
 10
0.0
 20
0.0
 30
0.0
  9
$UCSORGBOTTOM
 10
0.0
 20
0.0
 30
0.0
  9
$UCSORGLEFT
 10
0.0
 20
0.0
 30
0.0
  9
$UCSORGRIGHT
 10
0.0
 20
0.0
 30
0.0
  9
$UCSORGFRONT
 10
0.0
 20
0.0
 30
0.0
  9
$UCSORGBACK
 10
0.0
 20
0.0
 30
0.0
  9
$PUCSBASE
  2

  9
$PUCSNAME
  2

  9
$PUCSORG
 10
0.0
 20
0.0
 30
0.0
  9
$PUCSXDIR
 10
1.0
 20
0.0
 30
0.0
  9
$PUCSYDIR
 10
0.0
 20
1.0
 30
0.0
  9
$PUCSORTHOREF
  2

  9
$PUCSORTHOVIEW
 70
0
  9
$PUCSORGTOP
 10
0.0
 20
0.0
 30
0.0
  9
$PUCSORGBOTTOM
 10
0.0
 20
0.0
 30
0.0
  9
$PUCSORGLEFT
 10
0.0
 20
0.0
 30
0.0
  9
$PUCSORGRIGHT
 10
0.0
 20
0.0
 30
0.0
  9
$PUCSORGFRONT
 10
0.0
 20
0.0
 30
0.0
  9
$PUCSORGBACK
 10
0.0
 20
0.0
 30
0.0
  9
$USERI1
 70
0
  9
$USERI2
 70
0
  9
$USERI3
 70
0
  9
$USERI4
 70
0
  9
$USERI5
 70
0
  9
$USERR1
 40
0.0
  9
$USERR2
 40
0.0
  9
$USERR3
 40
0.0
  9
$USERR4
 40
0.0
  9
$USERR5
 40
0.0
  9
$WORLDVIEW
 70
1
  9
$SHADEDGE
 70
3
  9
$SHADEDIF
 70
70
  9
$TILEMODE
 70
1
  9
$MAXACTVP
 70
64
  9
$PINSBASE
 10
0.0
 20
0.0
 30
0.0
  9
$PLIMCHECK
 70
0
  9
$PEXTMIN
 10
1e+20
 20
1e+20
 30
1e+20
  9
$PEXTMAX
 10
-1e+20
 20
-1e+20
 30
-1e+20
  9
$PLIMMIN
 10
0.0
 20
0.0
  9
$PLIMMAX
 10
420.0
 20
297.0
  9
$UNITMODE
 70
0
  9
$VISRETAIN
 70
1
  9
$PLINEGEN
 70
0
  9
$PSLTSCALE
 70
1
  9
$TREEDEPTH
 70
3020
  9
$CMLSTYLE
  2
Standard
  9
$CMLJUST
 70
0
  9
$CMLSCALE
 40
20.0
  9
$PROXYGRAPHICS
 70
1
  9
$MEASUREMENT
 70
0
  9
$CELWEIGHT
370
-1
  9
$ENDCAPS
280
0
  9
$JOINSTYLE
280
0
  9
$LWDISPLAY
290
0
  9
$INSUNITS
 70
1
  9
$HYPERLINKBASE
  1

  9
$STYLESHEET
  1

  9
$XEDIT
290
1
  9
$CEPSNTYPE
380
0
  9
$PSTYLEMODE
290
1
  9
$FINGERPRINTGUID
  2
{EF99E8DA-F883-4F08-9732-3F8F9CC7A267}
  9
$VERSIONGUID
  2
{46AC7E51-DBFC-4489-89D0-42D2F1DFB65F}
  9
$EXTNAMES
290
1
  9
$PSVPSCALE
 40
0.0
  9
$OLESTARTUP
290
0
  9
$SORTENTS
280
127
  9
$INDEXCTL
280
0
  9
$HIDETEXT
280
1
  9
$XCLIPFRAME
280
1
  9
$HALOGAP
280
0
  9
$OBSCOLOR
 70
257
  9
$OBSLTYPE
280
0
  9
$INTERSECTIONDISPLAY
280
0
  9
$INTERSECTIONCOLOR
 70
257
  9
$DIMASSOC
280
2
  9
$PROJECTNAME
  1

  9
$CAMERADISPLAY
290
0
  9
$LENSLENGTH
 40
50.0
  9
$CAMERAHEIGHT
 40
0.0
  9
$STEPSPERSEC
 40
24.0
  9
$STEPSIZE
 40
100.0
  9
$3DDWFPREC
 40
2.0
  9
$PSOLWIDTH
 40
0.005
  9
$PSOLHEIGHT
 40
0.08
  9
$LOFTANG1
 40
1.570796326795
  9
$LOFTANG2
 40
1.570796326795
  9
$LOFTMAG1
 40
0.0
  9
$LOFTMAG2
 40
0.0
  9
$LOFTPARAM
 70
7
  9
$LOFTNORMALS
280
1
  9
$LATITUDE
 40
37.795
  9
$LONGITUDE
 40
-122.394
  9
$NORTHDIRECTION
 40
0.0
  9
$TIMEZONE
 70
-8000
  9
$LIGHTGLYPHDISPLAY
280
1
  9
$TILEMODELIGHTSYNCH
280
1
  9
$CMATERIAL
347
20
  9
$SOLIDHIST
280
0
  9
$SHOWHIST
280
1
  9
$DWFFRAME
280
2
  9
$DGNFRAME
280
2
  9
$REALWORLDSCALE
290
1
  9
$INTERFERECOLOR
 62
256
  9
$CSHADOW
280
0
  9
$SHADOWPLANELOCATION
 40
0.0
  0
ENDSEC
  0
SECTION
  2
CLASSES
  0
CLASS
  1
ACDBDICTIONARYWDFLT
  2
AcDbDictionaryWithDefault
  3
ObjectDBX Classes
 90
0
 91
0
280
0
281
0
  0
CLASS
  1
SUN
  2
AcDbSun
  3
SCENEOE
 90
1153
 91
0
280
0
281
0
  0
CLASS
  1
VISUALSTYLE
  2
AcDbVisualStyle
  3
ObjectDBX Classes
 90
4095
 91
0
280
0
281
0
  0
CLASS
  1
MATERIAL
  2
AcDbMaterial
  3
ObjectDBX Classes
 90
1153
 91
0
280
0
281
0
  0
CLASS
  1
SCALE
  2
AcDbScale
  3
ObjectDBX Classes
 90
1153
 91
0
280
0
281
0
  0
CLASS
  1
TABLESTYLE
  2
AcDbTableStyle
  3
ObjectDBX Classes
 90
4095
 91
0
280
0
281
0
  0
CLASS
  1
MLEADERSTYLE
  2
AcDbMLeaderStyle
  3
ACDB_MLEADERSTYLE_CLASS
 90
4095
 91
0
280
0
281
0
  0
CLASS
  1
DICTIONARYVAR
  2
AcDbDictionaryVar
  3
ObjectDBX Classes
 90
0
 91
0
280
0
281
0
  0
CLASS
  1
CELLSTYLEMAP
  2
AcDbCellStyleMap
  3
ObjectDBX Classes
 90
1152
 91
0
280
0
281
0
  0
CLASS
  1
MENTALRAYRENDERSETTINGS
  2
AcDbMentalRayRenderSettings
  3
SCENEOE
 90
1024
 91
0
280
0
281
0
  0
CLASS
  1
ACDBDETAILVIEWSTYLE
  2
AcDbDetailViewStyle
  3
ObjectDBX Classes
 90
1025
 91
0
280
0
281
0
  0
CLASS
  1
ACDBSECTIONVIEWSTYLE
  2
AcDbSectionViewStyle
  3
ObjectDBX Classes
 90
1025
 91
0
280
0
281
0
  0
CLASS
  1
RASTERVARIABLES
  2
AcDbRasterVariables
  3
ISM
 90
0
 91
0
280
0
281
0
  0
CLASS
  1
ACDBPLACEHOLDER
  2
AcDbPlaceHolder
  3
ObjectDBX Classes
 90
0
 91
0
280
0
281
0
  0
CLASS
  1
LAYOUT
  2
AcDbLayout
  3
ObjectDBX Classes
 90
0
 91
0
280
0
281
0
  0
ENDSEC
  0
SECTION
  2
TABLES
  0
TABLE
  2
VPORT
  5
8
330
0
100
AcDbSymbolTable
 70
1
  0
VPORT
  5
23
330
8
100
AcDbSymbolTableRecord
100
AcDbViewportTableRecord
  2
*Active
 70
0
 10
0.0
 20
0.0
 11
1.0
 21
1.0
 12
0.0
 22
0.0
 13
0.0
 23
0.0
 14
0.5
 24
0.5
 15
0.5
 25
0.5
 16
0.0
 26
0.0
 36
1.0
 17
0.0
 27
0.0
 37
0.0
 40
1000.0
 41
1.34
 42
50.0
 43
0.0
 44
0.0
 50
0.0
 51
0.0
 71
0
 72
1000
 73
1
 74
3
 75
0
 76
0
 77
0
 78
0
281
0
 65
0
146
0.0
  0
ENDTAB
  0
TABLE
  2
LTYPE
  5
2
330
0
100
AcDbSymbolTable
 70
3
  0
LTYPE
  5
24
330
2
100
AcDbSymbolTableRecord
100
AcDbLinetypeTableRecord
  2
ByBlock
 70
0
  3

 72
65
 73
0
 40
0.0
  0
LTYPE
  5
25
330
2
100
AcDbSymbolTableRecord
100
AcDbLinetypeTableRecord
  2
ByLayer
 70
0
  3

 72
65
 73
0
 40
0.0
  0
LTYPE
  5
26
330
2
100
AcDbSymbolTableRecord
100
AcDbLinetypeTableRecord
  2
Continuous
 70
0
  3

 72
65
 73
0
 40
0.0
  0
ENDTAB
  0
TABLE
  2
LAYER
  5
1
330
0
100
AcDbSymbolTable
 70
5
  0
LAYER
  5
27
330
1
100
AcDbSymbolTableRecord
100
AcDbLayerTableRecord
  2
0
 70
0
 62
7
  6
Continuous
370
-3
390
13
347
21
  0
LAYER
  5
28
330
1
100
AcDbSymbolTableRecord
100
AcDbLayerTableRecord
  2
Defpoints
 70
0
 62
7
  6
Continuous
290
0
370
-3
390
13
347
21
  0
LAYER
  5
31
330
1
100
AcDbSymbolTableRecord
100
AcDbLayerTableRecord
  2
G-ANNO-TTLB
 70
0
 62
7
  6
Continuous
370
-3
390
13
347
21
  0
LAYER
  5
32
330
1
100
AcDbSymbolTableRecord
100
AcDbLayerTableRecord
  2
A-ANNO-TEXT
 70
0
 62
7
  6
Continuous
370
-3
390
13
347
21
  0
LAYER
  5
33
330
1
100
AcDbSymbolTableRecord
100
AcDbLayerTableRecord
  2
A-ANNO-TABL
 70
0
 62
7
  6
Continuous
370
-3
390
13
347
21
  0
ENDTAB
  0
TABLE
  2
STYLE
  5
5
330
0
100
AcDbSymbolTable
 70
3
  0
STYLE
  5
29
330
5
100
AcDbSymbolTableRecord
100
AcDbTextStyleTableRecord
  2
Standard
 70
0
 40
0.0
 41
1.0
 50
0.0
 71
0
 42
2.5
  3
txt
  4

  0
STYLE
  5
2F
330
5
100
AcDbSymbolTableRecord
100
AcDbTextStyleTableRecord
  2
KS-REG
 70
0
 40
0.0
 41
1.0
 50
0.0
 71
0
 42
2.5
  3
DejaVuSans.ttf
  4

  0
STYLE
  5
30
330
5
100
AcDbSymbolTableRecord
100
AcDbTextStyleTableRecord
  2
KS-BOLD
 70
0
 40
0.0
 41
1.0
 50
0.0
 71
0
 42
2.5
  3
DejaVuSans-Bold.ttf
  4

  0
ENDTAB
  0
TABLE
  2
VIEW
  5
7
330
0
100
AcDbSymbolTable
 70
0
  0
ENDTAB
  0
TABLE
  2
UCS
  5
6
330
0
100
AcDbSymbolTable
 70
0
  0
ENDTAB
  0
TABLE
  2
APPID
  5
3
330
0
100
AcDbSymbolTable
 70
3
  0
APPID
  5
2A
330
3
100
AcDbSymbolTableRecord
100
AcDbRegAppTableRecord
  2
ACAD
 70
0
  0
APPID
  5
169
330
3
100
AcDbSymbolTableRecord
100
AcDbRegAppTableRecord
  2
HATCHBACKGROUNDCOLOR
 70
0
  0
APPID
  5
16A
330
3
100
AcDbSymbolTableRecord
100
AcDbRegAppTableRecord
  2
EZDXF
 70
0
  0
ENDTAB
  0
TABLE
  2
DIMSTYLE
  5
4
330
0
100
AcDbSymbolTable
 70
1
100
AcDbDimStyleTable
  0
DIMSTYLE
105
2B
330
4
100
AcDbSymbolTableRecord
100
AcDbDimStyleTableRecord
  2
Standard
 70
0
 40
1.0
 41
2.5
 42
0.625
 43
3.75
 44
1.25
 45
0.0
 46
0.0
 47
0.0
 48
0.0
 49
2.5
140
2.5
141
2.5
142
0.0
143
0.03937007874
144
1.0
145
0.0
146
1.0
147
0.625
148
0.0
 69
0
 70
0
 71
0
 72
0
 73
0
 74
0
 75
0
 76
0
 77
1
 78
8
 79
3
170
0
171
3
172
1
173
0
174
0
175
0
176
0
177
0
178
0
179
2
271
2
272
2
273
2
274
3
275
0
276
0
277
2
278
44
279
0
280
0
281
0
282
0
283
0
284
8
285
0
286
0
288
0
289
3
290
0
371
-2
372
-2
  0
ENDTAB
  0
TABLE
  2
BLOCK_RECORD
  5
9
330
0
100
AcDbSymbolTable
 70
2
  0
BLOCK_RECORD
  5
17
330
9
100
AcDbSymbolTableRecord
100
AcDbBlockTableRecord
  2
*Model_Space
340
1A
 70
0
280
1
281
0
  0
BLOCK_RECORD
  5
1B
330
9
100
AcDbSymbolTableRecord
100
AcDbBlockTableRecord
  2
*Paper_Space
340
1E
 70
0
280
1
281
0
  0
ENDTAB
  0
ENDSEC
  0
SECTION
  2
BLOCKS
  0
BLOCK
  5
18
330
17
100
AcDbEntity
  8
0
100
AcDbBlockBegin
  2
*Model_Space
 70
0
 10
0.0
 20
0.0
 30
0.0
  3
*Model_Space
  1

  0
ENDBLK
  5
19
330
17
100
AcDbEntity
  8
0
100
AcDbBlockEnd
  0
BLOCK
  5
1C
330
1B
100
AcDbEntity
  8
0
100
AcDbBlockBegin
  2
*Paper_Space
 70
0
 10
0.0
 20
0.0
 30
0.0
  3
*Paper_Space
  1

  0
ENDBLK
  5
1D
330
1B
100
AcDbEntity
  8
0
100
AcDbBlockEnd
  0
ENDSEC
  0
SECTION
  2
ENTITIES
  0
LWPOLYLINE
  5
34
330
17
100
AcDbEntity
  8
G-ANNO-TTLB
100
AcDbPolyline
 90
4
 70
1
 10
0.5
 20
0.5
 10
16.5
 20
0.5
 10
16.5
 20
10.5
 10
0.5
 20
10.5
  0
LWPOLYLINE
  5
35
330
17
100
AcDbEntity
  8
G-ANNO-TTLB
100
AcDbPolyline
 90
4
 70
1
 10
0.5
 20
1.45
 10
16.5
 20
1.45
 10
16.5
 20
1.85
 10
0.5
 20
1.85
  0
TEXT
  5
36
330
17
100
AcDbEntity
  8
G-ANNO-TTLB
100
AcDbText
 10
8.5
 20
1.5699999999999998
 30
0.0
 40
0.16999999999999998
  1
PRELIMINARY — CONCEPTUAL DESIGN — NOT FOR CONSTRUCTION
  7
KS-BOLD
 72
1
 11
8.5
 21
1.5699999999999998
 31
0.0
100
AcDbText
  0
LINE
  5
37
330
17
100
AcDbEntity
  8
G-ANNO-TTLB
100
AcDbLine
 10
0.5
 20
1.45
 30
0.0
 11
16.5
 21
1.45
 31
0.0
  0
TEXT
  5
38
330
17
100
AcDbEntity
  8
G-ANNO-TTLB
100
AcDbText
 10
0.58
 20
1.28
 30
0.0
 40
0.06999999999999999
  1
PROJECT
  7
KS-REG
 11
0.58
 21
1.28
 31
0.0
100
AcDbText
  0
TEXT
  5
39
330
17
100
AcDbEntity
  8
G-ANNO-TTLB
100
AcDbText
 10
0.58
 20
0.9991666666666666
 30
0.0
 40
0.11499999999999999
  1
Hazel Green Regional Athletic Complex
  7
KS-BOLD
 11
0.58
 21
0.9991666666666666
 31
0.0
100
AcDbText
  0
TEXT
  5
3A
330
17
100
AcDbEntity
  8
G-ANNO-TTLB
100
AcDbText
 10
0.58
 20
0.7883333333333333
 30
0.0
 40
0.11499999999999999
  1
Trojan Horse Arena · Hazel Green area, Madison
  7
KS-BOLD
 11
0.58
 21
0.7883333333333333
 31
0.0
100
AcDbText
  0
TEXT
  5
3B
330
17
100
AcDbEntity
  8
G-ANNO-TTLB
100
AcDbText
 10
0.58
 20
0.5775
 30
0.0
 40
0.11499999999999999
  1
County, Alabama (site TBD, D-006)
  7
KS-BOLD
 11
0.58
 21
0.5775
 31
0.0
100
AcDbText
  0
LINE
  5
3C
330
17
100
AcDbEntity
  8
G-ANNO-TTLB
100
AcDbLine
 10
5.2
 20
0.5
 30
0.0
 11
5.2
 21
1.45
 31
0.0
  0
TEXT
  5
3D
330
17
100
AcDbEntity
  8
G-ANNO-TTLB
100
AcDbText
 10
5.28
 20
1.28
 30
0.0
 40
0.06999999999999999
  1
PHASE
  7
KS-REG
 11
5.28
 21
1.28
 31
0.0
100
AcDbText
  0
TEXT
  5
3E
330
17
100
AcDbEntity
  8
G-ANNO-TTLB
100
AcDbText
 10
5.28
 20
0.9716666666666667
 30
0.0
 40
0.13
  1
PHASE 2
  7
KS-BOLD
 11
5.28
 21
0.9716666666666667
 31
0.0
100
AcDbText
  0
LINE
  5
3F
330
17
100
AcDbEntity
  8
G-ANNO-TTLB
100
AcDbLine
 10
6.7
 20
0.5
 30
0.0
 11
6.7
 21
1.45
 31
0.0
  0
TEXT
  5
40
330
17
100
AcDbEntity
  8
G-ANNO-TTLB
100
AcDbText
 10
6.78
 20
1.28
 30
0.0
 40
0.06999999999999999
  1
SHEET TITLE
  7
KS-REG
 11
6.78
 21
1.28
 31
0.0
100
AcDbText
  0
TEXT
  5
41
330
17
100
AcDbEntity
  8
G-ANNO-TTLB
100
AcDbText
 10
6.78
 20
0.9991666666666666
 30
0.0
 40
0.11499999999999999
  1
LOCKED PROGRAM + LOOP
  7
KS-BOLD
 11
6.78
 21
0.9991666666666666
 31
0.0
100
AcDbText
  0
TEXT
  5
42
330
17
100
AcDbEntity
  8
G-ANNO-TTLB
100
AcDbText
 10
6.78
 20
0.7883333333333333
 30
0.0
 40
0.11499999999999999
  1
D-035 · AREA BY LEVEL ONLY
  7
KS-BOLD
 11
6.78
 21
0.7883333333333333
 31
0.0
100
AcDbText
  0
LINE
  5
43
330
17
100
AcDbEntity
  8
G-ANNO-TTLB
100
AcDbLine
 10
9.8
 20
0.5
 30
0.0
 11
9.8
 21
1.45
 31
0.0
  0
TEXT
  5
44
330
17
100
AcDbEntity
  8
G-ANNO-TTLB
100
AcDbText
 10
9.88
 20
1.28
 30
0.0
 40
0.06999999999999999
  1
SCALE
  7
KS-REG
 11
9.88
 21
1.28
 31
0.0
100
AcDbText
  0
TEXT
  5
45
330
17
100
AcDbEntity
  8
G-ANNO-TTLB
100
AcDbText
 10
9.88
 20
0.9716666666666667
 30
0.0
 40
0.13
  1
NTS
  7
KS-BOLD
 11
9.88
 21
0.9716666666666667
 31
0.0
100
AcDbText
  0
LINE
  5
46
330
17
100
AcDbEntity
  8
G-ANNO-TTLB
100
AcDbLine
 10
10.700000000000001
 20
0.5
 30
0.0
 11
10.700000000000001
 21
1.45
 31
0.0
  0
TEXT
  5
47
330
17
100
AcDbEntity
  8
G-ANNO-TTLB
100
AcDbText
 10
10.780000000000001
 20
1.28
 30
0.0
 40
0.06999999999999999
  1
DATE
  7
KS-REG
 11
10.780000000000001
 21
1.28
 31
0.0
100
AcDbText
  0
TEXT
  5
48
330
17
100
AcDbEntity
  8
G-ANNO-TTLB
100
AcDbText
 10
10.780000000000001
 20
0.9716666666666667
 30
0.0
 40
0.13
  1
October
  7
KS-BOLD
 11
10.780000000000001
 21
0.9716666666666667
 31
0.0
100
AcDbText
  0
TEXT
  5
49
330
17
100
AcDbEntity
  8
G-ANNO-TTLB
100
AcDbText
 10
10.780000000000001
 20
0.7333333333333334
 30
0.0
 40
0.13
  1
2026
  7
KS-BOLD
 11
10.780000000000001
 21
0.7333333333333334
 31
0.0
100
AcDbText
  0
LINE
  5
4A
330
17
100
AcDbEntity
  8
G-ANNO-TTLB
100
AcDbLine
 10
12.15
 20
0.5
 30
0.0
 11
12.15
 21
1.45
 31
0.0
  0
TEXT
  5
4B
330
17
100
AcDbEntity
  8
G-ANNO-TTLB
100
AcDbText
 10
12.23
 20
1.28
 30
0.0
 40
0.06999999999999999
  1
REV
  7
KS-REG
 11
12.23
 21
1.28
 31
0.0
100
AcDbText
  0
TEXT
  5
4C
330
17
100
AcDbEntity
  8
G-ANNO-TTLB
100
AcDbText
 10
12.23
 20
0.9716666666666667
 30
0.0
 40
0.13
  1
F
  7
KS-BOLD
 11
12.23
 21
0.9716666666666667
 31
0.0
100
AcDbText
  0
LINE
  5
4D
330
17
100
AcDbEntity
  8
G-ANNO-TTLB
100
AcDbLine
 10
12.9
 20
0.5
 30
0.0
 11
12.9
 21
1.45
 31
0.0
  0
TEXT
  5
4E
330
17
100
AcDbEntity
  8
G-ANNO-TTLB
100
AcDbText
 10
12.98
 20
1.28
 30
0.0
 40
0.06999999999999999
  1
DRAWN BY
  7
KS-REG
 11
12.98
 21
1.28
 31
0.0
100
AcDbText
  0
TEXT
  5
4F
330
17
100
AcDbEntity
  8
G-ANNO-TTLB
100
AcDbText
 10
12.98
 20
1.0358333333333332
 30
0.0
 40
0.095
  1
Drawn by KEYSTONE (AI) for
  7
KS-REG
 11
12.98
 21
1.0358333333333332
 31
0.0
100
AcDbText
  0
TEXT
  5
50
330
17
100
AcDbEntity
  8
G-ANNO-TTLB
100
AcDbText
 10
12.98
 20
0.8616666666666665
 30
0.0
 40
0.095
  1
Shane Brazelton
  7
KS-REG
 11
12.98
 21
0.8616666666666665
 31
0.0
100
AcDbText
  0
LINE
  5
51
330
17
100
AcDbEntity
  8
G-ANNO-TTLB
100
AcDbLine
 10
15.0
 20
0.5
 30
0.0
 11
15.0
 21
1.45
 31
0.0
  0
TEXT
  5
52
330
17
100
AcDbEntity
  8
G-ANNO-TTLB
100
AcDbText
 10
15.08
 20
1.28
 30
0.0
 40
0.06999999999999999
  1
SHEET
  7
KS-REG
 11
15.08
 21
1.28
 31
0.0
100
AcDbText
  0
TEXT
  5
53
330
17
100
AcDbEntity
  8
G-ANNO-TTLB
100
AcDbText
 10
15.75
 20
0.77
 30
0.0
 40
0.18
  1
P2-G-003
  7
KS-BOLD
 72
1
 11
15.75
 21
0.77
 31
0.0
100
AcDbText
  0
TEXT
  5
54
330
17
100
AcDbEntity
  8
A-ANNO-TEXT
100
AcDbText
 10
0.6799999999999999
 20
10.180000000000001
 30
0.0
 40
0.11499999999999999
  1
1  AREA BY LEVEL — 2,200 SEATS, MIX (D-009), L2 LOOP (D-035)
  7
KS-BOLD
 11
0.6799999999999999
 21
10.180000000000001
 31
0.0
100
AcDbText
  0
TEXT
  5
55
330
17
100
AcDbEntity
  8
A-ANNO-TABL
100
AcDbText
 10
0.6799999999999999
 20
9.958
 30
0.0
 40
0.07400000000000001
  1
SPACE
  7
KS-BOLD
 11
0.6799999999999999
 21
9.958
 31
0.0
100
AcDbText
  0
TEXT
  5
56
330
17
100
AcDbEntity
  8
A-ANNO-TABL
100
AcDbText
 10
4.38
 20
9.958
 30
0.0
 40
0.07400000000000001
  1
REV F LOOP
  7
KS-BOLD
 72
2
 11
4.38
 21
9.958
 31
0.0
100
AcDbText
  0
TEXT
  5
57
330
17
100
AcDbEntity
  8
A-ANNO-TABL
100
AcDbText
 10
5.43
 20
9.958
 30
0.0
 40
0.07400000000000001
  1
REV E
  7
KS-BOLD
 72
2
 11
5.43
 21
9.958
 31
0.0
100
AcDbText
  0
TEXT
  5
58
330
17
100
AcDbEntity
  8
A-ANNO-TABL
100
AcDbText
 10
5.63
 20
9.958
 30
0.0
 40
0.07400000000000001
  1
BASIS
  7
KS-BOLD
 11
5.63
 21
9.958
 31
0.0
100
AcDbText
  0
LINE
  5
59
330
17
100
AcDbEntity
  8
A-ANNO-TABL
100
AcDbLine
 10
0.6799999999999999
 20
9.888000000000002
 30
0.0
 11
7.83
 21
9.888000000000002
 31
0.0
  0
TEXT
  5
5A
330
17
100
AcDbEntity
  8
A-ANNO-TABL
100
AcDbText
 10
0.6799999999999999
 20
9.726
 30
0.0
 40
0.07999999999999999
  1
LEVEL 1 (net SF)
  7
KS-BOLD
 11
0.6799999999999999
 21
9.726
 31
0.0
100
AcDbText
  0
TEXT
  5
5B
330
17
100
AcDbEntity
  8
A-ANNO-TABL
100
AcDbText
 10
0.7599999999999999
 20
9.554
 30
0.0
 40
0.079
  1
Event floor (D-030, locked)
  7
KS-REG
 11
0.7599999999999999
 21
9.554
 31
0.0
100
AcDbText
  0
TEXT
  5
5C
330
17
100
AcDbEntity
  8
A-ANNO-TABL
100
AcDbText
 10
4.38
 20
9.554
 30
0.0
 40
0.079
  1
16,400
  7
KS-REG
 72
2
 11
4.38
 21
9.554
 31
0.0
100
AcDbText
  0
TEXT
  5
5D
330
17
100
AcDbEntity
  8
A-ANNO-TABL
100
AcDbText
 10
5.43
 20
9.554
 30
0.0
 40
0.079
  1
16,400
  7
KS-REG
 72
2
 11
5.43
 21
9.554
 31
0.0
100
AcDbText
  0
TEXT
  5
5E
330
17
100
AcDbEntity
  8
A-ANNO-TABL
100
AcDbText
 10
5.63
 20
9.554
 30
0.0
 40
0.069
  1
phase2.yaml · D-030
  7
KS-REG
 11
5.63
 21
9.554
 31
0.0
100
AcDbText
  0
TEXT
  5
5F
330
17
100
AcDbEntity
  8
A-ANNO-TABL
100
AcDbText
 10
0.7599999999999999
 20
9.382
 30
0.0
 40
0.079
  1
Lower tier seats (1,100), TELESCOPIC
  7
KS-REG
 11
0.7599999999999999
 21
9.382
 31
0.0
100
AcDbText
  0
TEXT
  5
60
330
17
100
AcDbEntity
  8
A-ANNO-TABL
100
AcDbText
 10
4.38
 20
9.382
 30
0.0
 40
0.079
  1
3,719
  7
KS-REG
 72
2
 11
4.38
 21
9.382
 31
0.0
100
AcDbText
  0
TEXT
  5
61
330
17
100
AcDbEntity
  8
A-ANNO-TABL
100
AcDbText
 10
5.43
 20
9.382
 30
0.0
 40
0.079
  1
3,719
  7
KS-REG
 72
2
 11
5.43
 21
9.382
 31
0.0
100
AcDbText
  0
TEXT
  5
62
330
17
100
AcDbEntity
  8
A-ANNO-TABL
100
AcDbText
 10
5.63
 20
9.382
 30
0.0
 40
0.069
  1
3.38 SF/seat (R-008) · fixed col. 6.0
  7
KS-REG
 11
5.63
 21
9.382
 31
0.0
100
AcDbText
  0
TEXT
  5
63
330
17
100
AcDbEntity
  8
A-ANNO-TABL
100
AcDbText
 10
0.7599999999999999
 20
9.209999999999999
 30
0.0
 40
0.079
  1
Boys Locker Room
  7
KS-REG
 11
0.7599999999999999
 21
9.209999999999999
 31
0.0
100
AcDbText
  0
TEXT
  5
64
330
17
100
AcDbEntity
  8
A-ANNO-TABL
100
AcDbText
 10
4.38
 20
9.209999999999999
 30
0.0
 40
0.079
  1
3,500
  7
KS-REG
 72
2
 11
4.38
 21
9.209999999999999
 31
0.0
100
AcDbText
  0
TEXT
  5
65
330
17
100
AcDbEntity
  8
A-ANNO-TABL
100
AcDbText
 10
5.43
 20
9.209999999999999
 30
0.0
 40
0.079
  1
3,500
  7
KS-REG
 72
2
 11
5.43
 21
9.209999999999999
 31
0.0
100
AcDbText
  0
TEXT
  5
66
330
17
100
AcDbEntity
  8
A-ANNO-TABL
100
AcDbText
 10
5.63
 20
9.209999999999999
 30
0.0
 40
0.069
  1
phase2.yaml tag
  7
KS-REG
 11
5.63
 21
9.209999999999999
 31
0.0
100
AcDbText
  0
TEXT
  5
67
330
17
100
AcDbEntity
  8
A-ANNO-TABL
100
AcDbText
 10
0.7599999999999999
 20
9.037999999999998
 30
0.0
 40
0.079
  1
Girls Locker Room (D-013)
  7
KS-REG
 11
0.7599999999999999
 21
9.037999999999998
 31
0.0
100
AcDbText
  0
TEXT
  5
68
330
17
100
AcDbEntity
  8
A-ANNO-TABL
100
AcDbText
 10
4.38
 20
9.037999999999998
 30
0.0
 40
0.079
  1
3,503
  7
KS-REG
 72
2
 11
4.38
 21
9.037999999999998
 31
0.0
100
AcDbText
  0
TEXT
  5
69
330
17
100
AcDbEntity
  8
A-ANNO-TABL
100
AcDbText
 10
5.43
 20
9.037999999999998
 30
0.0
 40
0.079
  1
3,503
  7
KS-REG
 72
2
 11
5.43
 21
9.037999999999998
 31
0.0
100
AcDbText
  0
TEXT
  5
6A
330
17
100
AcDbEntity
  8
A-ANNO-TABL
100
AcDbText
 10
5.63
 20
9.037999999999998
 30
0.0
 40
0.069
  1
phase2.yaml tag; D-013 open
  7
KS-REG
 11
5.63
 21
9.037999999999998
 31
0.0
100
AcDbText
  0
TEXT
  5
6B
330
17
100
AcDbEntity
  8
A-ANNO-TABL
100
AcDbText
 10
0.7599999999999999
 20
8.865999999999998
 30
0.0
 40
0.079
  1
Event / visitor locker rooms
  7
KS-REG
 11
0.7599999999999999
 21
8.865999999999998
 31
0.0
100
AcDbText
  0
TEXT
  5
6C
330
17
100
AcDbEntity
  8
A-ANNO-TABL
100
AcDbText
 10
4.38
 20
8.865999999999998
 30
0.0
 40
0.079
  1
3,600
  7
KS-REG
 72
2
 11
4.38
 21
8.865999999999998
 31
0.0
100
AcDbText
  0
TEXT
  5
6D
330
17
100
AcDbEntity
  8
A-ANNO-TABL
100
AcDbText
 10
5.43
 20
8.865999999999998
 30
0.0
 40
0.079
  1
3,600
  7
KS-REG
 72
2
 11
5.43
 21
8.865999999999998
 31
0.0
100
AcDbText
  0
TEXT
  5
6E
330
17
100
AcDbEntity
  8
A-ANNO-TABL
100
AcDbText
 10
5.63
 20
8.865999999999998
 30
0.0
 40
0.069
  1
4 x (14 wrestlers + 4 staff) x 50 SF
  7
KS-REG
 11
5.63
 21
8.865999999999998
 31
0.0
100
AcDbText
  0
TEXT
  5
6F
330
17
100
AcDbEntity
  8
A-ANNO-TABL
100
AcDbText
 10
0.7599999999999999
 20
8.693999999999997
 30
0.0
 40
0.079
  1
Foyer / trophy lobby (hall of champions)
  7
KS-REG
 11
0.7599999999999999
 21
8.693999999999997
 31
0.0
100
AcDbText
  0
TEXT
  5
70
330
17
100
AcDbEntity
  8
A-ANNO-TABL
100
AcDbText
 10
4.38
 20
8.693999999999997
 30
0.0
 40
0.079
  1
800
  7
KS-REG
 72
2
 11
4.38
 21
8.693999999999997
 31
0.0
100
AcDbText
  0
TEXT
  5
71
330
17
100
AcDbEntity
  8
A-ANNO-TABL
100
AcDbText
 10
5.43
 20
8.693999999999997
 30
0.0
 40
0.079
  1
800
  7
KS-REG
 72
2
 11
5.43
 21
8.693999999999997
 31
0.0
100
AcDbText
  0
TEXT
  5
72
330
17
100
AcDbEntity
  8
A-ANNO-TABL
100
AcDbText
 10
5.63
 20
8.693999999999997
 30
0.0
 40
0.069
  1
200 + 400 + 200 (Loudoun 2014)
  7
KS-REG
 11
5.63
 21
8.693999999999997
 31
0.0
100
AcDbText
  0
TEXT
  5
73
330
17
100
AcDbEntity
  8
A-ANNO-TABL
100
AcDbText
 10
0.7599999999999999
 20
8.521999999999997
 30
0.0
 40
0.079
  1
Lower concourse
  7
KS-REG
 11
0.7599999999999999
 21
8.521999999999997
 31
0.0
100
AcDbText
  0
TEXT
  5
74
330
17
100
AcDbEntity
  8
A-ANNO-TABL
100
AcDbText
 10
4.38
 20
8.521999999999997
 30
0.0
 40
0.079
  1
1,375
  7
KS-REG
 72
2
 11
4.38
 21
8.521999999999997
 31
0.0
100
AcDbText
  0
TEXT
  5
75
330
17
100
AcDbEntity
  8
A-ANNO-TABL
100
AcDbText
 10
5.43
 20
8.521999999999997
 30
0.0
 40
0.079
  1
1,375
  7
KS-REG
 72
2
 11
5.43
 21
8.521999999999997
 31
0.0
100
AcDbText
  0
TEXT
  5
76
330
17
100
AcDbEntity
  8
A-ANNO-TABL
100
AcDbText
 10
5.63
 20
8.521999999999997
 30
0.0
 40
0.069
  1
25% of seats x 5 SF standing (T1004.5)
  7
KS-REG
 11
5.63
 21
8.521999999999997
 31
0.0
100
AcDbText
  0
TEXT
  5
77
330
17
100
AcDbEntity
  8
A-ANNO-TABL
100
AcDbText
 10
0.7599999999999999
 20
8.349999999999996
 30
0.0
 40
0.079
  1
Public restrooms L1 (37 fixtures)
  7
KS-REG
 11
0.7599999999999999
 21
8.349999999999996
 31
0.0
100
AcDbText
  0
TEXT
  5
78
330
17
100
AcDbEntity
  8
A-ANNO-TABL
100
AcDbText
 10
4.38
 20
8.349999999999996
 30
0.0
 40
0.079
  1
1,850
  7
KS-REG
 72
2
 11
4.38
 21
8.349999999999996
 31
0.0
100
AcDbText
  0
TEXT
  5
79
330
17
100
AcDbEntity
  8
A-ANNO-TABL
100
AcDbText
 10
5.43
 20
8.349999999999996
 30
0.0
 40
0.079
  1
1,850
  7
KS-REG
 72
2
 11
5.43
 21
8.349999999999996
 31
0.0
100
AcDbText
  0
TEXT
  5
7A
330
17
100
AcDbEntity
  8
A-ANNO-TABL
100
AcDbText
 10
5.63
 20
8.349999999999996
 30
0.0
 40
0.069
  1
T2902.1 x 50 SF (R-009)
  7
KS-REG
 11
5.63
 21
8.349999999999996
 31
0.0
100
AcDbText
  0
TEXT
  5
7B
330
17
100
AcDbEntity
  8
A-ANNO-TABL
100
AcDbText
 10
0.7599999999999999
 20
8.177999999999995
 30
0.0
 40
0.079
  1
Concession stand
  7
KS-REG
 11
0.7599999999999999
 21
8.177999999999995
 31
0.0
100
AcDbText
  0
TEXT
  5
7C
330
17
100
AcDbEntity
  8
A-ANNO-TABL
100
AcDbText
 10
4.38
 20
8.177999999999995
 30
0.0
 40
0.079
  1
275
  7
KS-REG
 72
2
 11
4.38
 21
8.177999999999995
 31
0.0
100
AcDbText
  0
TEXT
  5
7D
330
17
100
AcDbEntity
  8
A-ANNO-TABL
100
AcDbText
 10
5.43
 20
8.177999999999995
 30
0.0
 40
0.079
  1
275
  7
KS-REG
 72
2
 11
5.43
 21
8.177999999999995
 31
0.0
100
AcDbText
  0
TEXT
  5
7E
330
17
100
AcDbEntity
  8
A-ANNO-TABL
100
AcDbText
 10
5.63
 20
8.177999999999995
 30
0.0
 40
0.069
  1
Loudoun kitchen proxy; D-011
  7
KS-REG
 11
5.63
 21
8.177999999999995
 31
0.0
100
AcDbText
  0
TEXT
  5
7F
330
17
100
AcDbEntity
  8
A-ANNO-TABL
100
AcDbText
 10
0.7599999999999999
 20
8.005999999999995
 30
0.0
 40
0.079
  1
First aid
  7
KS-REG
 11
0.7599999999999999
 21
8.005999999999995
 31
0.0
100
AcDbText
  0
TEXT
  5
80
330
17
100
AcDbEntity
  8
A-ANNO-TABL
100
AcDbText
 10
4.38
 20
8.005999999999995
 30
0.0
 40
0.079
  1
120
  7
KS-REG
 72
2
 11
4.38
 21
8.005999999999995
 31
0.0
100
AcDbText
  0
TEXT
  5
81
330
17
100
AcDbEntity
  8
A-ANNO-TABL
100
AcDbText
 10
5.43
 20
8.005999999999995
 30
0.0
 40
0.079
  1
120
  7
KS-REG
 72
2
 11
5.43
 21
8.005999999999995
 31
0.0
100
AcDbText
  0
TEXT
  5
82
330
17
100
AcDbEntity
  8
A-ANNO-TABL
100
AcDbText
 10
5.63
 20
8.005999999999995
 30
0.0
 40
0.069
  1
Loudoun 2014; 1 room counted
  7
KS-REG
 11
5.63
 21
8.005999999999995
 31
0.0
100
AcDbText
  0
TEXT
  5
83
330
17
100
AcDbEntity
  8
A-ANNO-TABL
100
AcDbText
 10
0.7599999999999999
 20
7.833999999999995
 30
0.0
 40
0.079
  1
Equipment storage (mats + floor covers)
  7
KS-REG
 11
0.7599999999999999
 21
7.833999999999995
 31
0.0
100
AcDbText
  0
TEXT
  5
84
330
17
100
AcDbEntity
  8
A-ANNO-TABL
100
AcDbText
 10
4.38
 20
7.833999999999995
 30
0.0
 40
0.079
  1
700
  7
KS-REG
 72
2
 11
4.38
 21
7.833999999999995
 31
0.0
100
AcDbText
  0
TEXT
  5
85
330
17
100
AcDbEntity
  8
A-ANNO-TABL
100
AcDbText
 10
5.43
 20
7.833999999999995
 30
0.0
 40
0.079
  1
700
  7
KS-REG
 72
2
 11
5.43
 21
7.833999999999995
 31
0.0
100
AcDbText
  0
TEXT
  5
86
330
17
100
AcDbEntity
  8
A-ANNO-TABL
100
AcDbText
 10
5.63
 20
7.833999999999995
 30
0.0
 40
0.069
  1
Loudoun gym storage proxy
  7
KS-REG
 11
5.63
 21
7.833999999999995
 31
0.0
100
AcDbText
  0
TEXT
  5
87
330
17
100
AcDbEntity
  8
A-ANNO-TABL
100
AcDbText
 10
0.7599999999999999
 20
7.6619999999999955
 30
0.0
 40
0.079
  1
Equipment room
  7
KS-REG
 11
0.7599999999999999
 21
7.6619999999999955
 31
0.0
100
AcDbText
  0
TEXT
  5
88
330
17
100
AcDbEntity
  8
A-ANNO-TABL
100
AcDbText
 10
4.38
 20
7.6619999999999955
 30
0.0
 40
0.079
  1
300
  7
KS-REG
 72
2
 11
4.38
 21
7.6619999999999955
 31
0.0
100
AcDbText
  0
TEXT
  5
89
330
17
100
AcDbEntity
  8
A-ANNO-TABL
100
AcDbText
 10
5.43
 20
7.6619999999999955
 30
0.0
 40
0.079
  1
300
  7
KS-REG
 72
2
 11
5.43
 21
7.6619999999999955
 31
0.0
100
AcDbText
  0
TEXT
  5
8A
330
17
100
AcDbEntity
  8
A-ANNO-TABL
100
AcDbText
 10
5.63
 20
7.6619999999999955
 30
0.0
 40
0.069
  1
Loudoun equip./maint. proxy
  7
KS-REG
 11
5.63
 21
7.6619999999999955
 31
0.0
100
AcDbText
  0
TEXT
  5
8B
330
17
100
AcDbEntity
  8
A-ANNO-TABL
100
AcDbText
 10
0.7599999999999999
 20
7.489999999999996
 30
0.0
 40
0.079
  1
Stairs (4) + elevator
  7
KS-REG
 11
0.7599999999999999
 21
7.489999999999996
 31
0.0
100
AcDbText
  0
TEXT
  5
8C
330
17
100
AcDbEntity
  8
A-ANNO-TABL
100
AcDbText
 10
4.38
 20
7.489999999999996
 30
0.0
 40
0.079
  1
874
  7
KS-REG
 72
2
 11
4.38
 21
7.489999999999996
 31
0.0
100
AcDbText
  0
TEXT
  5
8D
330
17
100
AcDbEntity
  8
A-ANNO-TABL
100
AcDbText
 10
5.43
 20
7.489999999999996
 30
0.0
 40
0.079
  1
890
  7
KS-REG
 72
2
 11
5.43
 21
7.489999999999996
 31
0.0
100
AcDbText
  0
TEXT
  5
8E
330
17
100
AcDbEntity
  8
A-ANNO-TABL
100
AcDbText
 10
5.63
 20
7.489999999999996
 30
0.0
 40
0.069
  1
R-015
  7
KS-REG
 11
5.63
 21
7.489999999999996
 31
0.0
100
AcDbText
  0
TEXT
  5
8F
330
17
100
AcDbEntity
  8
A-ANNO-TABL
100
AcDbText
 10
0.6799999999999999
 20
7.317999999999996
 30
0.0
 40
0.079
  1
L1 net
  7
KS-BOLD
 11
0.6799999999999999
 21
7.317999999999996
 31
0.0
100
AcDbText
  0
TEXT
  5
90
330
17
100
AcDbEntity
  8
A-ANNO-TABL
100
AcDbText
 10
4.38
 20
7.317999999999996
 30
0.0
 40
0.079
  1
37,016
  7
KS-BOLD
 72
2
 11
4.38
 21
7.317999999999996
 31
0.0
100
AcDbText
  0
TEXT
  5
91
330
17
100
AcDbEntity
  8
A-ANNO-TABL
100
AcDbText
 10
5.43
 20
7.317999999999996
 30
0.0
 40
0.079
  1
37,032
  7
KS-BOLD
 72
2
 11
5.43
 21
7.317999999999996
 31
0.0
100
AcDbText
  0
TEXT
  5
92
330
17
100
AcDbEntity
  8
A-ANNO-TABL
100
AcDbText
 10
0.7599999999999999
 20
7.145999999999996
 30
0.0
 40
0.079
  1
Mechanical (5% of total gross, at grade)
  7
KS-REG
 11
0.7599999999999999
 21
7.145999999999996
 31
0.0
100
AcDbText
  0
TEXT
  5
93
330
17
100
AcDbEntity
  8
A-ANNO-TABL
100
AcDbText
 10
4.38
 20
7.145999999999996
 30
0.0
 40
0.079
  1
3,939
  7
KS-REG
 72
2
 11
4.38
 21
7.145999999999996
 31
0.0
100
AcDbText
  0
TEXT
  5
94
330
17
100
AcDbEntity
  8
A-ANNO-TABL
100
AcDbText
 10
5.43
 20
7.145999999999996
 30
0.0
 40
0.079
  1
3,854
  7
KS-REG
 72
2
 11
5.43
 21
7.145999999999996
 31
0.0
100
AcDbText
  0
TEXT
  5
95
330
17
100
AcDbEntity
  8
A-ANNO-TABL
100
AcDbText
 10
5.63
 20
7.145999999999996
 30
0.0
 40
0.069
  1
R-014 · LOW
  7
KS-REG
 11
5.63
 21
7.145999999999996
 31
0.0
100
AcDbText
  0
TEXT
  5
96
330
17
100
AcDbEntity
  8
A-ANNO-TABL
100
AcDbText
 10
0.6799999999999999
 20
6.973999999999997
 30
0.0
 40
0.079
  1
L1 GROSS (x 1.25)
  7
KS-BOLD
 11
0.6799999999999999
 21
6.973999999999997
 31
0.0
100
AcDbText
  0
TEXT
  5
97
330
17
100
AcDbEntity
  8
A-ANNO-TABL
100
AcDbText
 10
4.38
 20
6.973999999999997
 30
0.0
 40
0.079
  1
51,194
  7
KS-BOLD
 72
2
 11
4.38
 21
6.973999999999997
 31
0.0
100
AcDbText
  0
TEXT
  5
98
330
17
100
AcDbEntity
  8
A-ANNO-TABL
100
AcDbText
 10
5.43
 20
6.973999999999997
 30
0.0
 40
0.079
  1
51,108
  7
KS-BOLD
 72
2
 11
5.43
 21
6.973999999999997
 31
0.0
100
AcDbText
  0
TEXT
  5
99
330
17
100
AcDbEntity
  8
A-ANNO-TABL
100
AcDbText
 10
5.63
 20
6.973999999999997
 30
0.0
 40
0.069
  1
R-014 gross-up
  7
KS-REG
 11
5.63
 21
6.973999999999997
 31
0.0
100
AcDbText
  0
LINE
  5
9A
330
17
100
AcDbEntity
  8
A-ANNO-TABL
100
AcDbLine
 10
0.6799999999999999
 20
6.923999999999997
 30
0.0
 11
7.83
 21
6.923999999999997
 31
0.0
  0
TEXT
  5
9B
330
17
100
AcDbEntity
  8
A-ANNO-TABL
100
AcDbText
 10
0.6799999999999999
 20
6.771999999999997
 30
0.0
 40
0.07999999999999999
  1
LEVEL 2 (net SF)
  7
KS-BOLD
 11
0.6799999999999999
 21
6.771999999999997
 31
0.0
100
AcDbText
  0
TEXT
  5
9C
330
17
100
AcDbEntity
  8
A-ANNO-TABL
100
AcDbText
 10
0.7599999999999999
 20
6.599999999999997
 30
0.0
 40
0.079
  1
Upper tier seats (1,100), FIXED
  7
KS-REG
 11
0.7599999999999999
 21
6.599999999999997
 31
0.0
100
AcDbText
  0
TEXT
  5
9D
330
17
100
AcDbEntity
  8
A-ANNO-TABL
100
AcDbText
 10
4.38
 20
6.599999999999997
 30
0.0
 40
0.079
  1
6,600
  7
KS-REG
 72
2
 11
4.38
 21
6.599999999999997
 31
0.0
100
AcDbText
  0
TEXT
  5
9E
330
17
100
AcDbEntity
  8
A-ANNO-TABL
100
AcDbText
 10
5.43
 20
6.599999999999997
 30
0.0
 40
0.079
  1
6,600
  7
KS-REG
 72
2
 11
5.43
 21
6.599999999999997
 31
0.0
100
AcDbText
  0
TEXT
  5
9F
330
17
100
AcDbEntity
  8
A-ANNO-TABL
100
AcDbText
 10
5.63
 20
6.599999999999997
 30
0.0
 40
0.069
  1
6.0 SF/seat (R-008)
  7
KS-REG
 11
5.63
 21
6.599999999999997
 31
0.0
100
AcDbText
  0
TEXT
  5
A0
330
17
100
AcDbEntity
  8
A-ANNO-TABL
100
AcDbText
 10
0.7599999999999999
 20
6.427999999999997
 30
0.0
 40
0.079
  1
Strength & Conditioning
  7
KS-REG
 11
0.7599999999999999
 21
6.427999999999997
 31
0.0
100
AcDbText
  0
TEXT
  5
A1
330
17
100
AcDbEntity
  8
A-ANNO-TABL
100
AcDbText
 10
4.38
 20
6.427999999999997
 30
0.0
 40
0.079
  1
5,224
  7
KS-REG
 72
2
 11
4.38
 21
6.427999999999997
 31
0.0
100
AcDbText
  0
TEXT
  5
A2
330
17
100
AcDbEntity
  8
A-ANNO-TABL
100
AcDbText
 10
5.43
 20
6.427999999999997
 30
0.0
 40
0.079
  1
6,000
  7
KS-REG
 72
2
 11
5.43
 21
6.427999999999997
 31
0.0
100
AcDbText
  0
TEXT
  5
A3
330
17
100
AcDbEntity
  8
A-ANNO-TABL
100
AcDbText
 10
5.63
 20
6.427999999999997
 30
0.0
 40
0.069
  1
D-035: was 6,000 (trimmed for the loop)
  7
KS-REG
 11
5.63
 21
6.427999999999997
 31
0.0
100
AcDbText
  0
TEXT
  5
A4
330
17
100
AcDbEntity
  8
A-ANNO-TABL
100
AcDbText
 10
0.7599999999999999
 20
6.255999999999998
 30
0.0
 40
0.079
  1
Cross-Training Mat Area
  7
KS-REG
 11
0.7599999999999999
 21
6.255999999999998
 31
0.0
100
AcDbText
  0
TEXT
  5
A5
330
17
100
AcDbEntity
  8
A-ANNO-TABL
100
AcDbText
 10
4.38
 20
6.255999999999998
 30
0.0
 40
0.079
  1
3,500
  7
KS-REG
 72
2
 11
4.38
 21
6.255999999999998
 31
0.0
100
AcDbText
  0
TEXT
  5
A6
330
17
100
AcDbEntity
  8
A-ANNO-TABL
100
AcDbText
 10
5.43
 20
6.255999999999998
 30
0.0
 40
0.079
  1
4,000
  7
KS-REG
 72
2
 11
5.43
 21
6.255999999999998
 31
0.0
100
AcDbText
  0
TEXT
  5
A7
330
17
100
AcDbEntity
  8
A-ANNO-TABL
100
AcDbText
 10
5.63
 20
6.255999999999998
 30
0.0
 40
0.069
  1
D-035: was 4,000 (trimmed for the loop)
  7
KS-REG
 11
5.63
 21
6.255999999999998
 31
0.0
100
AcDbText
  0
TEXT
  5
A8
330
17
100
AcDbEntity
  8
A-ANNO-TABL
100
AcDbText
 10
0.7599999999999999
 20
6.083999999999998
 30
0.0
 40
0.079
  1
Administrative office
  7
KS-REG
 11
0.7599999999999999
 21
6.083999999999998
 31
0.0
100
AcDbText
  0
TEXT
  5
A9
330
17
100
AcDbEntity
  8
A-ANNO-TABL
100
AcDbText
 10
4.38
 20
6.083999999999998
 30
0.0
 40
0.079
  1
470
  7
KS-REG
 72
2
 11
4.38
 21
6.083999999999998
 31
0.0
100
AcDbText
  0
TEXT
  5
AA
330
17
100
AcDbEntity
  8
A-ANNO-TABL
100
AcDbText
 10
5.43
 20
6.083999999999998
 30
0.0
 40
0.079
  1
470
  7
KS-REG
 72
2
 11
5.43
 21
6.083999999999998
 31
0.0
100
AcDbText
  0
TEXT
  5
AB
330
17
100
AcDbEntity
  8
A-ANNO-TABL
100
AcDbText
 10
5.63
 20
6.083999999999998
 30
0.0
 40
0.069
  1
150 + 120 + 200 (Loudoun 2014)
  7
KS-REG
 11
5.63
 21
6.083999999999998
 31
0.0
100
AcDbText
  0
TEXT
  5
AC
330
17
100
AcDbEntity
  8
A-ANNO-TABL
100
AcDbText
 10
0.7599999999999999
 20
5.911999999999998
 30
0.0
 40
0.079
  1
Upper concourse / balcony
  7
KS-REG
 11
0.7599999999999999
 21
5.911999999999998
 31
0.0
100
AcDbText
  0
TEXT
  5
AD
330
17
100
AcDbEntity
  8
A-ANNO-TABL
100
AcDbText
 10
4.38
 20
5.911999999999998
 30
0.0
 40
0.079
  1
—
  7
KS-REG
 72
2
 11
4.38
 21
5.911999999999998
 31
0.0
100
AcDbText
  0
TEXT
  5
AE
330
17
100
AcDbEntity
  8
A-ANNO-TABL
100
AcDbText
 10
5.43
 20
5.911999999999998
 30
0.0
 40
0.079
  1
1,375
  7
KS-REG
 72
2
 11
5.43
 21
5.911999999999998
 31
0.0
100
AcDbText
  0
TEXT
  5
AF
330
17
100
AcDbEntity
  8
A-ANNO-TABL
100
AcDbText
 10
5.63
 20
5.911999999999998
 30
0.0
 40
0.069
  1
Rev E only; the loop replaces it
  7
KS-REG
 11
5.63
 21
5.911999999999998
 31
0.0
100
AcDbText
  0
TEXT
  5
B0
330
17
100
AcDbEntity
  8
A-ANNO-TABL
100
AcDbText
 10
0.7599999999999999
 20
5.739999999999998
 30
0.0
 40
0.079
  1
Public restrooms L2 (29 fixtures)
  7
KS-REG
 11
0.7599999999999999
 21
5.739999999999998
 31
0.0
100
AcDbText
  0
TEXT
  5
B1
330
17
100
AcDbEntity
  8
A-ANNO-TABL
100
AcDbText
 10
4.38
 20
5.739999999999998
 30
0.0
 40
0.079
  1
1,450
  7
KS-REG
 72
2
 11
4.38
 21
5.739999999999998
 31
0.0
100
AcDbText
  0
TEXT
  5
B2
330
17
100
AcDbEntity
  8
A-ANNO-TABL
100
AcDbText
 10
5.43
 20
5.739999999999998
 30
0.0
 40
0.079
  1
1,450
  7
KS-REG
 72
2
 11
5.43
 21
5.739999999999998
 31
0.0
100
AcDbText
  0
TEXT
  5
B3
330
17
100
AcDbEntity
  8
A-ANNO-TABL
100
AcDbText
 10
5.63
 20
5.739999999999998
 30
0.0
 40
0.069
  1
T2902.1 x 50 SF (R-009)
  7
KS-REG
 11
5.63
 21
5.739999999999998
 31
0.0
100
AcDbText
  0
TEXT
  5
B4
330
17
100
AcDbEntity
  8
A-ANNO-TABL
100
AcDbText
 10
0.7599999999999999
 20
5.567999999999999
 30
0.0
 40
0.079
  1
Stairs (4) + elevator
  7
KS-REG
 11
0.7599999999999999
 21
5.567999999999999
 31
0.0
100
AcDbText
  0
TEXT
  5
B5
330
17
100
AcDbEntity
  8
A-ANNO-TABL
100
AcDbText
 10
4.38
 20
5.567999999999999
 30
0.0
 40
0.079
  1
874
  7
KS-REG
 72
2
 11
4.38
 21
5.567999999999999
 31
0.0
100
AcDbText
  0
TEXT
  5
B6
330
17
100
AcDbEntity
  8
A-ANNO-TABL
100
AcDbText
 10
5.43
 20
5.567999999999999
 30
0.0
 40
0.079
  1
890
  7
KS-REG
 72
2
 11
5.43
 21
5.567999999999999
 31
0.0
100
AcDbText
  0
TEXT
  5
B7
330
17
100
AcDbEntity
  8
A-ANNO-TABL
100
AcDbText
 10
5.63
 20
5.567999999999999
 30
0.0
 40
0.069
  1
R-015
  7
KS-REG
 11
5.63
 21
5.567999999999999
 31
0.0
100
AcDbText
  0
TEXT
  5
B8
330
17
100
AcDbEntity
  8
A-ANNO-TABL
100
AcDbText
 10
0.6799999999999999
 20
5.395999999999999
 30
0.0
 40
0.079
  1
L2 net rooms (without the loop)
  7
KS-BOLD
 11
0.6799999999999999
 21
5.395999999999999
 31
0.0
100
AcDbText
  0
TEXT
  5
B9
330
17
100
AcDbEntity
  8
A-ANNO-TABL
100
AcDbText
 10
4.38
 20
5.395999999999999
 30
0.0
 40
0.079
  1
18,118
  7
KS-BOLD
 72
2
 11
4.38
 21
5.395999999999999
 31
0.0
100
AcDbText
  0
TEXT
  5
BA
330
17
100
AcDbEntity
  8
A-ANNO-TABL
100
AcDbText
 10
5.43
 20
5.395999999999999
 30
0.0
 40
0.079
  1
20,785
  7
KS-BOLD
 72
2
 11
5.43
 21
5.395999999999999
 31
0.0
100
AcDbText
  0
TEXT
  5
BB
330
17
100
AcDbEntity
  8
A-ANNO-TABL
100
AcDbText
 10
0.7599999999999999
 20
5.223999999999999
 30
0.0
 40
0.079
  1
Running / training loop (drawn, not grossed up)
  7
KS-REG
 11
0.7599999999999999
 21
5.223999999999999
 31
0.0
100
AcDbText
  0
TEXT
  5
BC
330
17
100
AcDbEntity
  8
A-ANNO-TABL
100
AcDbText
 10
4.38
 20
5.223999999999999
 30
0.0
 40
0.079
  1
4,942
  7
KS-REG
 72
2
 11
4.38
 21
5.223999999999999
 31
0.0
100
AcDbText
  0
TEXT
  5
BD
330
17
100
AcDbEntity
  8
A-ANNO-TABL
100
AcDbText
 10
5.43
 20
5.223999999999999
 30
0.0
 40
0.079
  1
—
  7
KS-REG
 72
2
 11
5.43
 21
5.223999999999999
 31
0.0
100
AcDbText
  0
TEXT
  5
BE
330
17
100
AcDbEntity
  8
A-ANNO-TABL
100
AcDbText
 10
5.63
 20
5.223999999999999
 30
0.0
 40
0.069
  1
P2-A-102 Rev D · ASSUMED no x1.25
  7
KS-REG
 11
5.63
 21
5.223999999999999
 31
0.0
100
AcDbText
  0
TEXT
  5
BF
330
17
100
AcDbEntity
  8
A-ANNO-TABL
100
AcDbText
 10
0.6799999999999999
 20
5.052
 30
0.0
 40
0.079
  1
L2 GROSS (x 1.25 rooms + loop)
  7
KS-BOLD
 11
0.6799999999999999
 21
5.052
 31
0.0
100
AcDbText
  0
TEXT
  5
C0
330
17
100
AcDbEntity
  8
A-ANNO-TABL
100
AcDbText
 10
4.38
 20
5.052
 30
0.0
 40
0.079
  1
27,590
  7
KS-BOLD
 72
2
 11
4.38
 21
5.052
 31
0.0
100
AcDbText
  0
TEXT
  5
C1
330
17
100
AcDbEntity
  8
A-ANNO-TABL
100
AcDbText
 10
5.43
 20
5.052
 30
0.0
 40
0.079
  1
25,981
  7
KS-BOLD
 72
2
 11
5.43
 21
5.052
 31
0.0
100
AcDbText
  0
LINE
  5
C2
330
17
100
AcDbEntity
  8
A-ANNO-TABL
100
AcDbLine
 10
0.6799999999999999
 20
5.002
 30
0.0
 11
7.83
 21
5.002
 31
0.0
  0
TEXT
  5
C3
330
17
100
AcDbEntity
  8
A-ANNO-TABL
100
AcDbText
 10
0.6799999999999999
 20
4.85
 30
0.0
 40
0.07999999999999999
  1
FIT CHECK
  7
KS-BOLD
 11
0.6799999999999999
 21
4.85
 31
0.0
100
AcDbText
  0
TEXT
  5
C4
330
17
100
AcDbEntity
  8
A-ANNO-TABL
100
AcDbText
 10
0.7599999999999999
 20
4.678
 30
0.0
 40
0.079
  1
Arena volume gross (floor + lower tier, double height)
  7
KS-REG
 11
0.7599999999999999
 21
4.678
 31
0.0
100
AcDbText
  0
TEXT
  5
C5
330
17
100
AcDbEntity
  8
A-ANNO-TABL
100
AcDbText
 10
4.38
 20
4.678
 30
0.0
 40
0.079
  1
25,149
  7
KS-REG
 72
2
 11
4.38
 21
4.678
 31
0.0
100
AcDbText
  0
TEXT
  5
C6
330
17
100
AcDbEntity
  8
A-ANNO-TABL
100
AcDbText
 10
5.43
 20
4.678
 30
0.0
 40
0.079
  1
25,149
  7
KS-REG
 72
2
 11
5.43
 21
4.678
 31
0.0
100
AcDbText
  0
TEXT
  5
C7
330
17
100
AcDbEntity
  8
A-ANNO-TABL
100
AcDbText
 10
0.7599999999999999
 20
4.506
 30
0.0
 40
0.079
  1
Arena volume + L2 gross
  7
KS-REG
 11
0.7599999999999999
 21
4.506
 31
0.0
100
AcDbText
  0
TEXT
  5
C8
330
17
100
AcDbEntity
  8
A-ANNO-TABL
100
AcDbText
 10
4.38
 20
4.506
 30
0.0
 40
0.079
  1
52,738
  7
KS-REG
 72
2
 11
4.38
 21
4.506
 31
0.0
100
AcDbText
  0
TEXT
  5
C9
330
17
100
AcDbEntity
  8
A-ANNO-TABL
100
AcDbText
 10
5.43
 20
4.506
 30
0.0
 40
0.079
  1
51,130
  7
KS-REG
 72
2
 11
5.43
 21
4.506
 31
0.0
100
AcDbText
  0
TEXT
  5
CA
330
17
100
AcDbEntity
  8
A-ANNO-TABL
100
AcDbText
 10
5.63
 20
4.506
 30
0.0
 40
0.069
  1
L2 sits over the L1 ring
  7
KS-REG
 11
5.63
 21
4.506
 31
0.0
100
AcDbText
  0
TEXT
  5
CB
330
17
100
AcDbEntity
  8
A-ANNO-TABL
100
AcDbText
 10
0.6799999999999999
 20
4.3340000000000005
 30
0.0
 40
0.079
  1
FOOTPRINT = max(L1, arena volume + L2)
  7
KS-BOLD
 11
0.6799999999999999
 21
4.3340000000000005
 31
0.0
100
AcDbText
  0
TEXT
  5
CC
330
17
100
AcDbEntity
  8
A-ANNO-TABL
100
AcDbText
 10
4.38
 20
4.3340000000000005
 30
0.0
 40
0.079
  1
52,738
  7
KS-BOLD
 72
2
 11
4.38
 21
4.3340000000000005
 31
0.0
100
AcDbText
  0
TEXT
  5
CD
330
17
100
AcDbEntity
  8
A-ANNO-TABL
100
AcDbText
 10
5.43
 20
4.3340000000000005
 30
0.0
 40
0.079
  1
51,130
  7
KS-BOLD
 72
2
 11
5.43
 21
4.3340000000000005
 31
0.0
100
AcDbText
  0
TEXT
  5
CE
330
17
100
AcDbEntity
  8
A-ANNO-TABL
100
AcDbText
 10
5.63
 20
4.3340000000000005
 30
0.0
 40
0.069
  1
mix: set by arena volume + L2
  7
KS-REG
 11
5.63
 21
4.3340000000000005
 31
0.0
100
AcDbText
  0
TEXT
  5
CF
330
17
100
AcDbEntity
  8
A-ANNO-TABL
100
AcDbText
 10
0.6799999999999999
 20
4.162000000000001
 30
0.0
 40
0.079
  1
MARGIN under the 55,000 SF cap (D-031)
  7
KS-BOLD
 11
0.6799999999999999
 21
4.162000000000001
 31
0.0
100
AcDbText
  0
TEXT
  5
D0
330
17
100
AcDbEntity
  8
A-ANNO-TABL
100
AcDbText
 10
4.38
 20
4.162000000000001
 30
0.0
 40
0.079
  1
2,262
  7
KS-BOLD
 72
2
 11
4.38
 21
4.162000000000001
 31
0.0
100
AcDbText
  0
TEXT
  5
D1
330
17
100
AcDbEntity
  8
A-ANNO-TABL
100
AcDbText
 10
5.43
 20
4.162000000000001
 30
0.0
 40
0.079
  1
3,870
  7
KS-BOLD
 72
2
 11
5.43
 21
4.162000000000001
 31
0.0
100
AcDbText
  0
TEXT
  5
D2
330
17
100
AcDbEntity
  8
A-ANNO-TABL
100
AcDbText
 10
5.63
 20
4.162000000000001
 30
0.0
 40
0.069
  1
target ≥ 2,000 (Shane)
  7
KS-REG
 11
5.63
 21
4.162000000000001
 31
0.0
100
AcDbText
  0
TEXT
  5
D3
330
17
100
AcDbEntity
  8
A-ANNO-TABL
100
AcDbText
 10
0.7599999999999999
 20
3.9900000000000007
 30
0.0
 40
0.07400000000000001
  1
  if the loop were grossed up x1.25: footprint / margin
  7
KS-REG
 11
0.7599999999999999
 21
3.9900000000000007
 31
0.0
100
AcDbText
  0
TEXT
  5
D4
330
17
100
AcDbEntity
  8
A-ANNO-TABL
100
AcDbText
 10
4.38
 20
3.9900000000000007
 30
0.0
 40
0.07400000000000001
  1
53,974 / 1,026
  7
KS-REG
 72
2
 11
4.38
 21
3.9900000000000007
 31
0.0
100
AcDbText
  0
TEXT
  5
D5
330
17
100
AcDbEntity
  8
A-ANNO-TABL
100
AcDbText
 10
5.43
 20
3.9900000000000007
 30
0.0
 40
0.07400000000000001
  1
—
  7
KS-REG
 72
2
 11
5.43
 21
3.9900000000000007
 31
0.0
100
AcDbText
  0
TEXT
  5
D6
330
17
100
AcDbEntity
  8
A-ANNO-TABL
100
AcDbText
 10
5.63
 20
3.9900000000000007
 30
0.0
 40
0.069
  1
would miss the target
  7
KS-REG
 11
5.63
 21
3.9900000000000007
 31
0.0
100
AcDbText
  0
TEXT
  5
D7
330
17
100
AcDbEntity
  8
A-ANNO-TABL
100
AcDbText
 10
0.6799999999999999
 20
3.8180000000000005
 30
0.0
 40
0.079
  1
Meets the ≥ 2,000 SF target?
  7
KS-BOLD
 11
0.6799999999999999
 21
3.8180000000000005
 31
0.0
100
AcDbText
  0
TEXT
  5
D8
330
17
100
AcDbEntity
  8
A-ANNO-TABL
100
AcDbText
 10
4.38
 20
3.8180000000000005
 30
0.0
 40
0.079
  1
YES
  7
KS-BOLD
 72
2
 11
4.38
 21
3.8180000000000005
 31
0.0
100
AcDbText
  0
TEXT
  5
D9
330
17
100
AcDbEntity
  8
A-ANNO-TABL
100
AcDbText
 10
5.43
 20
3.8180000000000005
 30
0.0
 40
0.079
  1
YES
  7
KS-BOLD
 72
2
 11
5.43
 21
3.8180000000000005
 31
0.0
100
AcDbText
  0
TEXT
  5
DA
330
17
100
AcDbEntity
  8
A-ANNO-TABL
100
AcDbText
 10
0.6799999999999999
 20
3.6460000000000004
 30
0.0
 40
0.079
  1
TOTAL GSF (2 levels)
  7
KS-BOLD
 11
0.6799999999999999
 21
3.6460000000000004
 31
0.0
100
AcDbText
  0
TEXT
  5
DB
330
17
100
AcDbEntity
  8
A-ANNO-TABL
100
AcDbText
 10
4.38
 20
3.6460000000000004
 30
0.0
 40
0.079
  1
78,784
  7
KS-BOLD
 72
2
 11
4.38
 21
3.6460000000000004
 31
0.0
100
AcDbText
  0
TEXT
  5
DC
330
17
100
AcDbEntity
  8
A-ANNO-TABL
100
AcDbText
 10
5.43
 20
3.6460000000000004
 30
0.0
 40
0.079
  1
77,089
  7
KS-BOLD
 72
2
 11
5.43
 21
3.6460000000000004
 31
0.0
100
AcDbText
  0
TEXT
  5
DD
330
17
100
AcDbEntity
  8
A-ANNO-TABL
100
AcDbText
 10
5.63
 20
3.6460000000000004
 30
0.0
 40
0.069
  1
not capped (D-031)
  7
KS-REG
 11
5.63
 21
3.6460000000000004
 31
0.0
100
AcDbText
  0
LINE
  5
DE
330
17
100
AcDbEntity
  8
A-ANNO-TABL
100
AcDbLine
 10
0.6799999999999999
 20
3.5960000000000005
 30
0.0
 11
7.83
 21
3.5960000000000005
 31
0.0
  0
TEXT
  5
DF
330
17
100
AcDbEntity
  8
A-ANNO-TEXT
100
AcDbText
 10
0.6799999999999999
 20
3.476966666666667
 30
0.0
 40
0.079
  1
REV F = Rev E (MIX, D-009) with S&C 5,224 and cross-training 3,500 SF (D-035) and the loop in place of the upper concourse.
  7
KS-REG
 11
0.6799999999999999
 21
3.476966666666667
 31
0.0
100
AcDbText
  0
TEXT
  5
E0
330
17
100
AcDbEntity
  8
A-ANNO-TEXT
100
AcDbText
 10
0.6799999999999999
 20
3.332133333333334
 30
0.0
 40
0.079
  1
Loads, stairs and fixtures recomputed (stair width 64.0 in). The loop is circulation drawn at full size, so it is added to L2 gross as
  7
KS-REG
 11
0.6799999999999999
 21
3.332133333333334
 31
0.0
100
AcDbText
  0
TEXT
  5
E1
330
17
100
AcDbEntity
  8
A-ANNO-TEXT
100
AcDbText
 10
0.6799999999999999
 20
3.187300000000001
 30
0.0
 40
0.079
  1
drawn (ASSUMED). The arena volume + L2 (52,738) sets the footprint.
  7
KS-REG
 11
0.6799999999999999
 21
3.187300000000001
 31
0.0
100
AcDbText
  0
LINE
  5
E2
330
17
100
AcDbEntity
  8
A-ANNO-TEXT
100
AcDbLine
 10
8.01
 20
1.9700000000000002
 30
0.0
 11
8.01
 21
10.38
 31
0.0
  0
TEXT
  5
E3
330
17
100
AcDbEntity
  8
A-ANNO-TEXT
100
AcDbText
 10
8.18
 20
10.180000000000001
 30
0.0
 40
0.105
  1
2  SEATS BY SIDE AND TIER = 2,200 (= REV E)
  7
KS-BOLD
 11
8.18
 21
10.180000000000001
 31
0.0
100
AcDbText
  0
TEXT
  5
E4
330
17
100
AcDbEntity
  8
A-ANNO-TABL
100
AcDbText
 10
8.18
 20
9.978
 30
0.0
 40
0.072
  1
SIDE
  7
KS-BOLD
 11
8.18
 21
9.978
 31
0.0
100
AcDbText
  0
TEXT
  5
E5
330
17
100
AcDbEntity
  8
A-ANNO-TABL
100
AcDbText
 10
9.73
 20
9.978
 30
0.0
 40
0.072
  1
LOWER (TELE.)
  7
KS-BOLD
 72
2
 11
9.73
 21
9.978
 31
0.0
100
AcDbText
  0
TEXT
  5
E6
330
17
100
AcDbEntity
  8
A-ANNO-TABL
100
AcDbText
 10
10.93
 20
9.978
 30
0.0
 40
0.072
  1
UPPER (FIXED)
  7
KS-BOLD
 72
2
 11
10.93
 21
9.978
 31
0.0
100
AcDbText
  0
TEXT
  5
E7
330
17
100
AcDbEntity
  8
A-ANNO-TABL
100
AcDbText
 10
11.73
 20
9.978
 30
0.0
 40
0.072
  1
TOTAL
  7
KS-BOLD
 72
2
 11
11.73
 21
9.978
 31
0.0
100
AcDbText
  0
LINE
  5
E8
330
17
100
AcDbEntity
  8
A-ANNO-TABL
100
AcDbLine
 10
8.18
 20
9.908000000000001
 30
0.0
 11
12.23
 21
9.908000000000001
 31
0.0
  0
TEXT
  5
E9
330
17
100
AcDbEntity
  8
A-ANNO-TABL
100
AcDbText
 10
8.18
 20
9.776
 30
0.0
 40
0.079
  1
North
  7
KS-REG
 11
8.18
 21
9.776
 31
0.0
100
AcDbText
  0
TEXT
  5
EA
330
17
100
AcDbEntity
  8
A-ANNO-TABL
100
AcDbText
 10
9.73
 20
9.776
 30
0.0
 40
0.079
  1
353
  7
KS-REG
 72
2
 11
9.73
 21
9.776
 31
0.0
100
AcDbText
  0
TEXT
  5
EB
330
17
100
AcDbEntity
  8
A-ANNO-TABL
100
AcDbText
 10
10.93
 20
9.776
 30
0.0
 40
0.079
  1
308
  7
KS-REG
 72
2
 11
10.93
 21
9.776
 31
0.0
100
AcDbText
  0
TEXT
  5
EC
330
17
100
AcDbEntity
  8
A-ANNO-TABL
100
AcDbText
 10
11.73
 20
9.776
 30
0.0
 40
0.079
  1
661
  7
KS-REG
 72
2
 11
11.73
 21
9.776
 31
0.0
100
AcDbText
  0
TEXT
  5
ED
330
17
100
AcDbEntity
  8
A-ANNO-TABL
100
AcDbText
 10
8.18
 20
9.604
 30
0.0
 40
0.079
  1
South
  7
KS-REG
 11
8.18
 21
9.604
 31
0.0
100
AcDbText
  0
TEXT
  5
EE
330
17
100
AcDbEntity
  8
A-ANNO-TABL
100
AcDbText
 10
9.73
 20
9.604
 30
0.0
 40
0.079
  1
341
  7
KS-REG
 72
2
 11
9.73
 21
9.604
 31
0.0
100
AcDbText
  0
TEXT
  5
EF
330
17
100
AcDbEntity
  8
A-ANNO-TABL
100
AcDbText
 10
10.93
 20
9.604
 30
0.0
 40
0.079
  1
308
  7
KS-REG
 72
2
 11
10.93
 21
9.604
 31
0.0
100
AcDbText
  0
TEXT
  5
F0
330
17
100
AcDbEntity
  8
A-ANNO-TABL
100
AcDbText
 10
11.73
 20
9.604
 30
0.0
 40
0.079
  1
649
  7
KS-REG
 72
2
 11
11.73
 21
9.604
 31
0.0
100
AcDbText
  0
TEXT
  5
F1
330
17
100
AcDbEntity
  8
A-ANNO-TABL
100
AcDbText
 10
8.18
 20
9.431999999999999
 30
0.0
 40
0.079
  1
East
  7
KS-REG
 11
8.18
 21
9.431999999999999
 31
0.0
100
AcDbText
  0
TEXT
  5
F2
330
17
100
AcDbEntity
  8
A-ANNO-TABL
100
AcDbText
 10
9.73
 20
9.431999999999999
 30
0.0
 40
0.079
  1
406
  7
KS-REG
 72
2
 11
9.73
 21
9.431999999999999
 31
0.0
100
AcDbText
  0
TEXT
  5
F3
330
17
100
AcDbEntity
  8
A-ANNO-TABL
100
AcDbText
 10
10.93
 20
9.431999999999999
 30
0.0
 40
0.079
  1
484
  7
KS-REG
 72
2
 11
10.93
 21
9.431999999999999
 31
0.0
100
AcDbText
  0
TEXT
  5
F4
330
17
100
AcDbEntity
  8
A-ANNO-TABL
100
AcDbText
 10
11.73
 20
9.431999999999999
 30
0.0
 40
0.079
  1
890
  7
KS-REG
 72
2
 11
11.73
 21
9.431999999999999
 31
0.0
100
AcDbText
  0
TEXT
  5
F5
330
17
100
AcDbEntity
  8
A-ANNO-TABL
100
AcDbText
 10
8.18
 20
9.259999999999998
 30
0.0
 40
0.079
  1
TOTAL
  7
KS-BOLD
 11
8.18
 21
9.259999999999998
 31
0.0
100
AcDbText
  0
TEXT
  5
F6
330
17
100
AcDbEntity
  8
A-ANNO-TABL
100
AcDbText
 10
9.73
 20
9.259999999999998
 30
0.0
 40
0.079
  1
1,100
  7
KS-BOLD
 72
2
 11
9.73
 21
9.259999999999998
 31
0.0
100
AcDbText
  0
TEXT
  5
F7
330
17
100
AcDbEntity
  8
A-ANNO-TABL
100
AcDbText
 10
10.93
 20
9.259999999999998
 30
0.0
 40
0.079
  1
1,100
  7
KS-BOLD
 72
2
 11
10.93
 21
9.259999999999998
 31
0.0
100
AcDbText
  0
TEXT
  5
F8
330
17
100
AcDbEntity
  8
A-ANNO-TABL
100
AcDbText
 10
11.73
 20
9.259999999999998
 30
0.0
 40
0.079
  1
2,200
  7
KS-BOLD
 72
2
 11
11.73
 21
9.259999999999998
 31
0.0
100
AcDbText
  0
TEXT
  5
F9
330
17
100
AcDbEntity
  8
A-ANNO-TABL
100
AcDbText
 10
8.18
 20
9.087999999999997
 30
0.0
 40
0.072
  1
capacity drawn
  7
KS-REG
 11
8.18
 21
9.087999999999997
 31
0.0
100
AcDbText
  0
TEXT
  5
FA
330
17
100
AcDbEntity
  8
A-ANNO-TABL
100
AcDbText
 10
9.73
 20
9.087999999999997
 30
0.0
 40
0.072
  1
1,306
  7
KS-REG
 72
2
 11
9.73
 21
9.087999999999997
 31
0.0
100
AcDbText
  0
TEXT
  5
FB
330
17
100
AcDbEntity
  8
A-ANNO-TABL
100
AcDbText
 10
10.93
 20
9.087999999999997
 30
0.0
 40
0.072
  1
1,125
  7
KS-REG
 72
2
 11
10.93
 21
9.087999999999997
 31
0.0
100
AcDbText
  0
TEXT
  5
FC
330
17
100
AcDbEntity
  8
A-ANNO-TABL
100
AcDbText
 10
11.73
 20
9.087999999999997
 30
0.0
 40
0.072
  1
2,431
  7
KS-REG
 72
2
 11
11.73
 21
9.087999999999997
 31
0.0
100
AcDbText
  0
TEXT
  5
FD
330
17
100
AcDbEntity
  8
A-ANNO-TEXT
100
AcDbText
 10
8.18
 20
8.9255
 30
0.0
 40
0.075
  1
No west tier (OK'd). Lower: 6 rows x 24 in = 12 ft extended (R-008), less the
  7
KS-REG
 11
8.18
 21
8.9255
 31
0.0
100
AcDbText
  0
TEXT
  5
FE
330
17
100
AcDbEntity
  8
A-ANNO-TEXT
100
AcDbText
 10
8.18
 20
8.788
 30
0.0
 40
0.075
  1
12 ft portal and two 8 ft vomitories. Upper: 15 ft at 6.0 SF/seat. Each tier =
  7
KS-REG
 11
8.18
 21
8.788
 31
0.0
100
AcDbText
  0
TEXT
  5
FF
330
17
100
AcDbEntity
  8
A-ANNO-TEXT
100
AcDbText
 10
8.18
 20
8.650500000000001
 30
0.0
 40
0.075
  1
1,100, split by side in proportion to drawn capacity (P2-A-101/102 Rev B).
  7
KS-REG
 11
8.18
 21
8.650500000000001
 31
0.0
100
AcDbText
  0
TEXT
  5
100
330
17
100
AcDbEntity
  8
A-ANNO-TEXT
100
AcDbText
 10
8.18
 20
8.513000000000002
 30
0.0
 40
0.075
  1
Spare capacity is left for wheelchair spaces and aisles; the upper tier has
  7
KS-REG
 11
8.18
 21
8.513000000000002
 31
0.0
100
AcDbText
  0
TEXT
  5
101
330
17
100
AcDbEntity
  8
A-ANNO-TEXT
100
AcDbText
 10
8.18
 20
8.375500000000002
 30
0.0
 40
0.075
  1
only 25 spare. Tiers unchanged in Rev D.
  7
KS-REG
 11
8.18
 21
8.375500000000002
 31
0.0
100
AcDbText
  0
TEXT
  5
102
330
17
100
AcDbEntity
  8
A-ANNO-TEXT
100
AcDbText
 10
8.18
 20
7.986125000000001
 30
0.0
 40
0.105
  1
3  LEVEL 2 RUNNING / TRAINING LOOP (D-035)
  7
KS-BOLD
 11
8.18
 21
7.986125000000001
 31
0.0
100
AcDbText
  0
TEXT
  5
103
330
17
100
AcDbEntity
  8
A-ANNO-TEXT
100
AcDbText
 10
8.18
 20
7.803625000000001
 30
0.0
 40
0.075
  1
2 lanes x 42 in = 7 ft all around, squared corners. Centerline 148 x 205 ft: 2
  7
KS-REG
 11
8.18
 21
7.803625000000001
 31
0.0
100
AcDbText
  0
TEXT
  5
104
330
17
100
AcDbEntity
  8
A-ANNO-TEXT
100
AcDbText
 10
8.18
 20
7.666125000000001
 30
0.0
 40
0.075
  1
x (148 + 205) = 706 ft; 5,280 / 706 = 7.48 laps/mile. Area 4,942 SF. Lanes:
  7
KS-REG
 11
8.18
 21
7.666125000000001
 31
0.0
100
AcDbText
  0
TEXT
  5
105
330
17
100
AcDbEntity
  8
A-ANNO-TEXT
100
AcDbText
 10
8.18
 20
7.528625000000001
 30
0.0
 40
0.075
  1
UFC 4-740-02N 4.1.7 (42 in, min 3 lanes), Athletic Business (36-42 in; max 12
  7
KS-REG
 11
8.18
 21
7.528625000000001
 31
0.0
100
AcDbText
  0
TEXT
  5
106
330
17
100
AcDbEntity
  8
A-ANNO-TEXT
100
AcDbText
 10
8.18
 20
7.391125000000001
 30
0.0
 40
0.075
  1
laps/mile, 8-10 preferred). 2 lanes is ASSUMED: 3 lanes (10.5 ft) does not fit
  7
KS-REG
 11
8.18
 21
7.391125000000001
 31
0.0
100
AcDbText
  0
TEXT
  5
107
330
17
100
AcDbEntity
  8
A-ANNO-TEXT
100
AcDbText
 10
8.18
 20
7.253625
 30
0.0
 40
0.075
  1
without moving the upper tier. Event days: upper concourse, spectators
  7
KS-REG
 11
8.18
 21
7.253625
 31
0.0
100
AcDbText
  0
TEXT
  5
108
330
17
100
AcDbEntity
  8
A-ANNO-TEXT
100
AcDbText
 10
8.18
 20
7.116125
 30
0.0
 40
0.075
  1
cross it at the tier entries; non-event days: training. 42 in guards at open
  7
KS-REG
 11
8.18
 21
7.116125
 31
0.0
100
AcDbText
  0
TEXT
  5
109
330
17
100
AcDbEntity
  8
A-ANNO-TEXT
100
AcDbText
 10
8.18
 20
6.978625
 30
0.0
 40
0.075
  1
edges (IBC 1015.2, 1015.3).
  7
KS-REG
 11
8.18
 21
6.978625
 31
0.0
100
AcDbText
  0
TEXT
  5
10A
330
17
100
AcDbEntity
  8
A-ANNO-TEXT
100
AcDbText
 10
8.18
 20
6.589250000000001
 30
0.0
 40
0.105
  1
4  FIXTURES BY LEVEL (IBC 2021 T2902.1)
  7
KS-BOLD
 11
8.18
 21
6.589250000000001
 31
0.0
100
AcDbText
  0
TEXT
  5
10B
330
17
100
AcDbEntity
  8
A-ANNO-TABL
100
AcDbText
 10
8.18
 20
6.387250000000002
 30
0.0
 40
0.072
  1
LEVEL
  7
KS-BOLD
 11
8.18
 21
6.387250000000002
 31
0.0
100
AcDbText
  0
TEXT
  5
10C
330
17
100
AcDbEntity
  8
A-ANNO-TABL
100
AcDbText
 10
9.23
 20
6.387250000000002
 30
0.0
 40
0.072
  1
LOAD
  7
KS-BOLD
 72
2
 11
9.23
 21
6.387250000000002
 31
0.0
100
AcDbText
  0
TEXT
  5
10D
330
17
100
AcDbEntity
  8
A-ANNO-TABL
100
AcDbText
 10
9.73
 20
6.387250000000002
 30
0.0
 40
0.072
  1
WC M
  7
KS-BOLD
 72
2
 11
9.73
 21
6.387250000000002
 31
0.0
100
AcDbText
  0
TEXT
  5
10E
330
17
100
AcDbEntity
  8
A-ANNO-TABL
100
AcDbText
 10
10.23
 20
6.387250000000002
 30
0.0
 40
0.072
  1
WC W
  7
KS-BOLD
 72
2
 11
10.23
 21
6.387250000000002
 31
0.0
100
AcDbText
  0
TEXT
  5
10F
330
17
100
AcDbEntity
  8
A-ANNO-TABL
100
AcDbText
 10
10.73
 20
6.387250000000002
 30
0.0
 40
0.072
  1
LAV M
  7
KS-BOLD
 72
2
 11
10.73
 21
6.387250000000002
 31
0.0
100
AcDbText
  0
TEXT
  5
110
330
17
100
AcDbEntity
  8
A-ANNO-TABL
100
AcDbText
 10
11.23
 20
6.387250000000002
 30
0.0
 40
0.072
  1
LAV W
  7
KS-BOLD
 72
2
 11
11.23
 21
6.387250000000002
 31
0.0
100
AcDbText
  0
TEXT
  5
111
330
17
100
AcDbEntity
  8
A-ANNO-TABL
100
AcDbText
 10
11.58
 20
6.387250000000002
 30
0.0
 40
0.072
  1
DF
  7
KS-BOLD
 72
2
 11
11.58
 21
6.387250000000002
 31
0.0
100
AcDbText
  0
TEXT
  5
112
330
17
100
AcDbEntity
  8
A-ANNO-TABL
100
AcDbText
 10
12.129999999999999
 20
6.387250000000002
 30
0.0
 40
0.072
  1
SUM
  7
KS-BOLD
 72
2
 11
12.129999999999999
 21
6.387250000000002
 31
0.0
100
AcDbText
  0
LINE
  5
113
330
17
100
AcDbEntity
  8
A-ANNO-TABL
100
AcDbLine
 10
8.18
 20
6.317250000000001
 30
0.0
 11
12.23
 21
6.317250000000001
 31
0.0
  0
TEXT
  5
114
330
17
100
AcDbEntity
  8
A-ANNO-TABL
100
AcDbText
 10
8.18
 20
6.185250000000002
 30
0.0
 40
0.078
  1
L1
  7
KS-REG
 11
8.18
 21
6.185250000000002
 31
0.0
100
AcDbText
  0
TEXT
  5
115
330
17
100
AcDbEntity
  8
A-ANNO-TABL
100
AcDbText
 10
9.23
 20
6.185250000000002
 30
0.0
 40
0.078
  1
1,428
  7
KS-REG
 72
2
 11
9.23
 21
6.185250000000002
 31
0.0
100
AcDbText
  0
TEXT
  5
116
330
17
100
AcDbEntity
  8
A-ANNO-TABL
100
AcDbText
 10
9.73
 20
6.185250000000002
 30
0.0
 40
0.078
  1
10
  7
KS-REG
 72
2
 11
9.73
 21
6.185250000000002
 31
0.0
100
AcDbText
  0
TEXT
  5
117
330
17
100
AcDbEntity
  8
A-ANNO-TABL
100
AcDbText
 10
10.23
 20
6.185250000000002
 30
0.0
 40
0.078
  1
18
  7
KS-REG
 72
2
 11
10.23
 21
6.185250000000002
 31
0.0
100
AcDbText
  0
TEXT
  5
118
330
17
100
AcDbEntity
  8
A-ANNO-TABL
100
AcDbText
 10
10.73
 20
6.185250000000002
 30
0.0
 40
0.078
  1
4
  7
KS-REG
 72
2
 11
10.73
 21
6.185250000000002
 31
0.0
100
AcDbText
  0
TEXT
  5
119
330
17
100
AcDbEntity
  8
A-ANNO-TABL
100
AcDbText
 10
11.23
 20
6.185250000000002
 30
0.0
 40
0.078
  1
5
  7
KS-REG
 72
2
 11
11.23
 21
6.185250000000002
 31
0.0
100
AcDbText
  0
TEXT
  5
11A
330
17
100
AcDbEntity
  8
A-ANNO-TABL
100
AcDbText
 10
11.58
 20
6.185250000000002
 30
0.0
 40
0.078
  1
2
  7
KS-REG
 72
2
 11
11.58
 21
6.185250000000002
 31
0.0
100
AcDbText
  0
TEXT
  5
11B
330
17
100
AcDbEntity
  8
A-ANNO-TABL
100
AcDbText
 10
12.129999999999999
 20
6.185250000000002
 30
0.0
 40
0.078
  1
37
  7
KS-REG
 72
2
 11
12.129999999999999
 21
6.185250000000002
 31
0.0
100
AcDbText
  0
TEXT
  5
11C
330
17
100
AcDbEntity
  8
A-ANNO-TABL
100
AcDbText
 10
8.18
 20
6.013250000000002
 30
0.0
 40
0.078
  1
L2
  7
KS-REG
 11
8.18
 21
6.013250000000002
 31
0.0
100
AcDbText
  0
TEXT
  5
11D
330
17
100
AcDbEntity
  8
A-ANNO-TABL
100
AcDbText
 10
9.23
 20
6.013250000000002
 30
0.0
 40
0.078
  1
1,100
  7
KS-REG
 72
2
 11
9.23
 21
6.013250000000002
 31
0.0
100
AcDbText
  0
TEXT
  5
11E
330
17
100
AcDbEntity
  8
A-ANNO-TABL
100
AcDbText
 10
9.73
 20
6.013250000000002
 30
0.0
 40
0.078
  1
8
  7
KS-REG
 72
2
 11
9.73
 21
6.013250000000002
 31
0.0
100
AcDbText
  0
TEXT
  5
11F
330
17
100
AcDbEntity
  8
A-ANNO-TABL
100
AcDbText
 10
10.23
 20
6.013250000000002
 30
0.0
 40
0.078
  1
14
  7
KS-REG
 72
2
 11
10.23
 21
6.013250000000002
 31
0.0
100
AcDbText
  0
TEXT
  5
120
330
17
100
AcDbEntity
  8
A-ANNO-TABL
100
AcDbText
 10
10.73
 20
6.013250000000002
 30
0.0
 40
0.078
  1
3
  7
KS-REG
 72
2
 11
10.73
 21
6.013250000000002
 31
0.0
100
AcDbText
  0
TEXT
  5
121
330
17
100
AcDbEntity
  8
A-ANNO-TABL
100
AcDbText
 10
11.23
 20
6.013250000000002
 30
0.0
 40
0.078
  1
4
  7
KS-REG
 72
2
 11
11.23
 21
6.013250000000002
 31
0.0
100
AcDbText
  0
TEXT
  5
122
330
17
100
AcDbEntity
  8
A-ANNO-TABL
100
AcDbText
 10
11.58
 20
6.013250000000002
 30
0.0
 40
0.078
  1
2
  7
KS-REG
 72
2
 11
11.58
 21
6.013250000000002
 31
0.0
100
AcDbText
  0
TEXT
  5
123
330
17
100
AcDbEntity
  8
A-ANNO-TABL
100
AcDbText
 10
12.129999999999999
 20
6.013250000000002
 30
0.0
 40
0.078
  1
29
  7
KS-REG
 72
2
 11
12.129999999999999
 21
6.013250000000002
 31
0.0
100
AcDbText
  0
TEXT
  5
124
330
17
100
AcDbEntity
  8
A-ANNO-TABL
100
AcDbText
 10
8.18
 20
5.841250000000002
 30
0.0
 40
0.078
  1
TOTAL
  7
KS-BOLD
 11
8.18
 21
5.841250000000002
 31
0.0
100
AcDbText
  0
TEXT
  5
125
330
17
100
AcDbEntity
  8
A-ANNO-TABL
100
AcDbText
 10
9.23
 20
5.841250000000002
 30
0.0
 40
0.078
  1
2,528
  7
KS-BOLD
 72
2
 11
9.23
 21
5.841250000000002
 31
0.0
100
AcDbText
  0
TEXT
  5
126
330
17
100
AcDbEntity
  8
A-ANNO-TABL
100
AcDbText
 10
9.73
 20
5.841250000000002
 30
0.0
 40
0.078
  1
18
  7
KS-BOLD
 72
2
 11
9.73
 21
5.841250000000002
 31
0.0
100
AcDbText
  0
TEXT
  5
127
330
17
100
AcDbEntity
  8
A-ANNO-TABL
100
AcDbText
 10
10.23
 20
5.841250000000002
 30
0.0
 40
0.078
  1
32
  7
KS-BOLD
 72
2
 11
10.23
 21
5.841250000000002
 31
0.0
100
AcDbText
  0
TEXT
  5
128
330
17
100
AcDbEntity
  8
A-ANNO-TABL
100
AcDbText
 10
10.73
 20
5.841250000000002
 30
0.0
 40
0.078
  1
7
  7
KS-BOLD
 72
2
 11
10.73
 21
5.841250000000002
 31
0.0
100
AcDbText
  0
TEXT
  5
129
330
17
100
AcDbEntity
  8
A-ANNO-TABL
100
AcDbText
 10
11.23
 20
5.841250000000002
 30
0.0
 40
0.078
  1
9
  7
KS-BOLD
 72
2
 11
11.23
 21
5.841250000000002
 31
0.0
100
AcDbText
  0
TEXT
  5
12A
330
17
100
AcDbEntity
  8
A-ANNO-TABL
100
AcDbText
 10
11.58
 20
5.841250000000002
 30
0.0
 40
0.078
  1
4
  7
KS-BOLD
 72
2
 11
11.58
 21
5.841250000000002
 31
0.0
100
AcDbText
  0
TEXT
  5
12B
330
17
100
AcDbEntity
  8
A-ANNO-TABL
100
AcDbText
 10
12.129999999999999
 20
5.841250000000002
 30
0.0
 40
0.078
  1
66
  7
KS-BOLD
 72
2
 11
12.129999999999999
 21
5.841250000000002
 31
0.0
100
AcDbText
  0
TEXT
  5
12C
330
17
100
AcDbEntity
  8
A-ANNO-TEXT
100
AcDbText
 10
8.18
 20
5.678750000000002
 30
0.0
 40
0.075
  1
L1 = lower seats + 328 floor occupants (50 SF each); L2 = upper seats.
  7
KS-REG
 11
8.18
 21
5.678750000000002
 31
0.0
100
AcDbText
  0
TEXT
  5
12D
330
17
100
AcDbEntity
  8
A-ANNO-TEXT
100
AcDbText
 10
8.18
 20
5.541250000000002
 30
0.0
 40
0.075
  1
Unchanged from Rev D (load follows seats). Restrooms flank the lobby, L2
  7
KS-REG
 11
8.18
 21
5.541250000000002
 31
0.0
100
AcDbText
  0
TEXT
  5
12E
330
17
100
AcDbEntity
  8
A-ANNO-TEXT
100
AcDbText
 10
8.18
 20
5.403750000000001
 30
0.0
 40
0.075
  1
stacked over L1.
  7
KS-REG
 11
8.18
 21
5.403750000000001
 31
0.0
100
AcDbText
  0
TEXT
  5
12F
330
17
100
AcDbEntity
  8
A-ANNO-TEXT
100
AcDbText
 10
8.18
 20
5.014375000000002
 30
0.0
 40
0.105
  1
5  STAIRS, ELEVATOR, WHEELCHAIR
  7
KS-BOLD
 11
8.18
 21
5.014375000000002
 31
0.0
100
AcDbText
  0
TEXT
  5
130
330
17
100
AcDbEntity
  8
A-ANNO-TEXT
100
AcDbText
 10
8.18
 20
4.831875000000002
 30
0.0
 40
0.075
  1
L2 load 1,279 → 4 stairs (T1006.3.3) x 64 in (0.2 in/occ., 1005.3.1), ≈ 203 SF
  7
KS-REG
 11
8.18
 21
4.831875000000002
 31
0.0
100
AcDbText
  0
TEXT
  5
131
330
17
100
AcDbEntity
  8
A-ANNO-TEXT
100
AcDbText
 10
8.18
 20
4.694375000000002
 30
0.0
 40
0.075
  1
each per level + 1 elevator (1104.4) = 874 SF per level, aligned on both
  7
KS-REG
 11
8.18
 21
4.694375000000002
 31
0.0
100
AcDbText
  0
TEXT
  5
132
330
17
100
AcDbEntity
  8
A-ANNO-TEXT
100
AcDbText
 10
8.18
 20
4.556875000000002
 30
0.0
 40
0.075
  1
levels. 18 wheelchair spaces + companions (IBC T1109.2.2.1, ADA 221.3),
  7
KS-REG
 11
8.18
 21
4.556875000000002
 31
0.0
100
AcDbText
  0
TEXT
  5
133
330
17
100
AcDbEntity
  8
A-ANNO-TEXT
100
AcDbText
 10
8.18
 20
4.419375000000001
 30
0.0
 40
0.075
  1
dispersed (ADA 221.2.3) — placement in the telescopic and fixed tiers is an
  7
KS-REG
 11
8.18
 21
4.419375000000001
 31
0.0
100
AcDbText
  0
TEXT
  5
134
330
17
100
AcDbEntity
  8
A-ANNO-TEXT
100
AcDbText
 10
8.18
 20
4.281875000000001
 30
0.0
 40
0.075
  1
architect task. Rev D moves ST-1, ST-2 and the elevator clear of the loop.
  7
KS-REG
 11
8.18
 21
4.281875000000001
 31
0.0
100
AcDbText
  0
LINE
  5
135
330
17
100
AcDbEntity
  8
A-ANNO-TEXT
100
AcDbLine
 10
12.41
 20
1.9700000000000002
 30
0.0
 11
12.41
 21
10.38
 31
0.0
  0
TEXT
  5
136
330
17
100
AcDbEntity
  8
A-ANNO-TEXT
100
AcDbText
 10
12.58
 20
10.180000000000001
 30
0.0
 40
0.105
  1
6  RESULT
  7
KS-BOLD
 11
12.58
 21
10.180000000000001
 31
0.0
100
AcDbText
  0
LWPOLYLINE
  5
137
330
17
100
AcDbEntity
  8
A-ANNO-TEXT
100
AcDbPolyline
 90
4
 70
1
 10
12.58
 20
8.780000000000001
 10
16.22
 20
8.780000000000001
 10
16.22
 20
10.080000000000002
 10
12.58
 20
10.080000000000002
  0
TEXT
  5
138
330
17
100
AcDbEntity
  8
A-ANNO-TEXT
100
AcDbText
 10
14.399999999999999
 20
9.820000000000002
 30
0.0
 40
0.1
  1
LOCKED PROGRAM + LOOP
  7
KS-BOLD
 72
1
 11
14.399999999999999
 21
9.820000000000002
 31
0.0
100
AcDbText
  0
TEXT
  5
139
330
17
100
AcDbEntity
  8
A-ANNO-TEXT
100
AcDbText
 10
14.399999999999999
 20
9.585000000000003
 30
0.0
 40
0.09
  1
16,400 SF floor · 2,200 seats · 2 levels
  7
KS-BOLD
 72
1
 11
14.399999999999999
 21
9.585000000000003
 31
0.0
100
AcDbText
  0
TEXT
  5
13A
330
17
100
AcDbEntity
  8
A-ANNO-TEXT
100
AcDbText
 10
14.399999999999999
 20
9.350000000000003
 30
0.0
 40
0.08800000000000001
  1
L2 loop 706 ft · 7.48 laps/mile
  7
KS-REG
 72
1
 11
14.399999999999999
 21
9.350000000000003
 31
0.0
100
AcDbText
  0
TEXT
  5
13B
330
17
100
AcDbEntity
  8
A-ANNO-TEXT
100
AcDbText
 10
14.399999999999999
 20
9.115000000000004
 30
0.0
 40
0.09199999999999998
  1
Footprint 52,738 · margin 2,262
  7
KS-BOLD
 72
1
 11
14.399999999999999
 21
9.115000000000004
 31
0.0
100
AcDbText
  0
TEXT
  5
13C
330
17
100
AcDbEntity
  8
A-ANNO-TEXT
100
AcDbText
 10
14.399999999999999
 20
8.880000000000004
 30
0.0
 40
0.08800000000000001
  1
Target ≥ 2,000 SF: MET
  7
KS-BOLD
 72
1
 11
14.399999999999999
 21
8.880000000000004
 31
0.0
100
AcDbText
  0
TEXT
  5
13D
330
17
100
AcDbEntity
  8
A-ANNO-TEXT
100
AcDbText
 10
12.58
 20
8.61096666666667
 30
0.0
 40
0.079
  1
Total 78,784 GSF (Rev E: 77,089). Drawn building (P2-A-101/102
  7
KS-REG
 11
12.58
 21
8.61096666666667
 31
0.0
100
AcDbText
  0
TEXT
  5
13E
330
17
100
AcDbEntity
  8
A-ANNO-TEXT
100
AcDbText
 10
12.58
 20
8.466133333333337
 30
0.0
 40
0.079
  1
Rev D) = 204 x 252 ft + 19 x 5 ft NE stair tower = 51,503 SF,
  7
KS-REG
 11
12.58
 21
8.466133333333337
 31
0.0
100
AcDbText
  0
TEXT
  5
13F
330
17
100
AcDbEntity
  8
A-ANNO-TEXT
100
AcDbText
 10
12.58
 20
8.321300000000004
 30
0.0
 40
0.079
  1
3,497 under the cap. NOTE: the program footprint is 1,235 SF
  7
KS-REG
 11
12.58
 21
8.321300000000004
 31
0.0
100
AcDbText
  0
TEXT
  5
140
330
17
100
AcDbEntity
  8
A-ANNO-TEXT
100
AcDbText
 10
12.58
 20
8.176466666666672
 30
0.0
 40
0.079
  1
MORE than the drawn building: the drawn plan fits, but the x 1.25
  7
KS-REG
 11
12.58
 21
8.176466666666672
 31
0.0
100
AcDbText
  0
TEXT
  5
141
330
17
100
AcDbEntity
  8
A-ANNO-TEXT
100
AcDbText
 10
12.58
 20
8.031633333333339
 30
0.0
 40
0.079
  1
gross-up allowance no longer fully fits inside it.
  7
KS-REG
 11
12.58
 21
8.031633333333339
 31
0.0
100
AcDbText
  0
TEXT
  5
142
330
17
100
AcDbEntity
  8
A-ANNO-TEXT
100
AcDbText
 10
12.58
 20
7.639625000000005
 30
0.0
 40
0.105
  1
7  LOCKED IN phase2.yaml
  7
KS-BOLD
 11
12.58
 21
7.639625000000005
 31
0.0
100
AcDbText
  0
TEXT
  5
143
330
17
100
AcDbEntity
  8
A-ANNO-TEXT
100
AcDbText
 10
12.58
 20
7.473858333333338
 30
0.0
 40
0.077
  1
·
  7
KS-REG
 11
12.58
 21
7.473858333333338
 31
0.0
100
AcDbText
  0
TEXT
  5
144
330
17
100
AcDbEntity
  8
A-ANNO-TEXT
100
AcDbText
 10
12.7
 20
7.473858333333338
 30
0.0
 40
0.077
  1
Event floor 16,400 SF; 4 x 42 ft mats, 2 x 2 (D-030).
  7
KS-REG
 11
12.7
 21
7.473858333333338
 31
0.0
100
AcDbText
  0
TEXT
  5
145
330
17
100
AcDbEntity
  8
A-ANNO-TEXT
100
AcDbText
 10
12.58
 20
7.317400000000004
 30
0.0
 40
0.077
  1
·
  7
KS-REG
 11
12.58
 21
7.317400000000004
 31
0.0
100
AcDbText
  0
TEXT
  5
146
330
17
100
AcDbEntity
  8
A-ANNO-TEXT
100
AcDbText
 10
12.7
 20
7.317400000000004
 30
0.0
 40
0.077
  1
2,200 seats in the bowl, N, S and E sides; 2 levels; footprint cap
  7
KS-REG
 11
12.7
 21
7.317400000000004
 31
0.0
100
AcDbText
  0
TEXT
  5
147
330
17
100
AcDbEntity
  8
A-ANNO-TEXT
100
AcDbText
 10
12.7
 20
7.176233333333337
 30
0.0
 40
0.077
  1
55,000 SF (D-031).
  7
KS-REG
 11
12.7
 21
7.176233333333337
 31
0.0
100
AcDbText
  0
TEXT
  5
148
330
17
100
AcDbEntity
  8
A-ANNO-TEXT
100
AcDbText
 10
12.58
 20
7.019775000000003
 30
0.0
 40
0.077
  1
·
  7
KS-REG
 11
12.58
 21
7.019775000000003
 31
0.0
100
AcDbText
  0
TEXT
  5
149
330
17
100
AcDbEntity
  8
A-ANNO-TEXT
100
AcDbText
 10
12.7
 20
7.019775000000003
 30
0.0
 40
0.077
  1
Seating MIX: telescopic lower tier, fixed upper tier (D-009, Shane
  7
KS-REG
 11
12.7
 21
7.019775000000003
 31
0.0
100
AcDbText
  0
TEXT
  5
14A
330
17
100
AcDbEntity
  8
A-ANNO-TEXT
100
AcDbText
 10
12.7
 20
6.878608333333336
 30
0.0
 40
0.077
  1
4:30 AM CT).
  7
KS-REG
 11
12.7
 21
6.878608333333336
 31
0.0
100
AcDbText
  0
TEXT
  5
14B
330
17
100
AcDbEntity
  8
A-ANNO-TEXT
100
AcDbText
 10
12.58
 20
6.722150000000002
 30
0.0
 40
0.077
  1
·
  7
KS-REG
 11
12.58
 21
6.722150000000002
 31
0.0
100
AcDbText
  0
TEXT
  5
14C
330
17
100
AcDbEntity
  8
A-ANNO-TEXT
100
AcDbText
 10
12.7
 20
6.722150000000002
 30
0.0
 40
0.077
  1
S&C 5,224 + cross-training 3,500 SF on Level 2 (D-035; were
  7
KS-REG
 11
12.7
 21
6.722150000000002
 31
0.0
100
AcDbText
  0
TEXT
  5
14D
330
17
100
AcDbEntity
  8
A-ANNO-TEXT
100
AcDbText
 10
12.7
 20
6.580983333333335
 30
0.0
 40
0.077
  1
6,000 / 4,000).
  7
KS-REG
 11
12.7
 21
6.580983333333335
 31
0.0
100
AcDbText
  0
TEXT
  5
14E
330
17
100
AcDbEntity
  8
A-ANNO-TEXT
100
AcDbText
 10
12.58
 20
6.424525000000001
 30
0.0
 40
0.077
  1
·
  7
KS-REG
 11
12.58
 21
6.424525000000001
 31
0.0
100
AcDbText
  0
TEXT
  5
14F
330
17
100
AcDbEntity
  8
A-ANNO-TEXT
100
AcDbText
 10
12.7
 20
6.424525000000001
 30
0.0
 40
0.077
  1
Continuous L2 loop, 2 x 42 in (D-035, Shane 4:55 AM CT).
  7
KS-REG
 11
12.7
 21
6.424525000000001
 31
0.0
100
AcDbText
  0
TEXT
  5
150
330
17
100
AcDbEntity
  8
A-ANNO-TEXT
100
AcDbText
 10
12.7
 20
6.283358333333334
 30
0.0
 40
0.077
  1
Changes only on CHANGE APPROVED.
  7
KS-REG
 11
12.7
 21
6.283358333333334
 31
0.0
100
AcDbText
  0
TEXT
  5
151
330
17
100
AcDbEntity
  8
A-ANNO-TEXT
100
AcDbText
 10
12.58
 20
5.892666666666668
 30
0.0
 40
0.105
  1
8  STILL OPEN
  7
KS-BOLD
 11
12.58
 21
5.892666666666668
 31
0.0
100
AcDbText
  0
TEXT
  5
152
330
17
100
AcDbEntity
  8
A-ANNO-TEXT
100
AcDbText
 10
12.58
 20
5.7269000000000005
 30
0.0
 40
0.077
  1
·
  7
KS-REG
 11
12.58
 21
5.7269000000000005
 31
0.0
100
AcDbText
  0
TEXT
  5
153
330
17
100
AcDbEntity
  8
A-ANNO-TEXT
100
AcDbText
 10
12.7
 20
5.7269000000000005
 30
0.0
 40
0.077
  1
Loop lane count (2 ASSUMED; 3 preferred); 50/50 tier split and 6
  7
KS-REG
 11
12.7
 21
5.7269000000000005
 31
0.0
100
AcDbText
  0
TEXT
  5
154
330
17
100
AcDbEntity
  8
A-ANNO-TEXT
100
AcDbText
 10
12.7
 20
5.585733333333334
 30
0.0
 40
0.077
  1
telescopic rows (ASSUMED).
  7
KS-REG
 11
12.7
 21
5.585733333333334
 31
0.0
100
AcDbText
  0
TEXT
  5
155
330
17
100
AcDbEntity
  8
A-ANNO-TEXT
100
AcDbText
 10
12.58
 20
5.429275
 30
0.0
 40
0.077
  1
·
  7
KS-REG
 11
12.58
 21
5.429275
 31
0.0
100
AcDbText
  0
TEXT
  5
156
330
17
100
AcDbEntity
  8
A-ANNO-TEXT
100
AcDbText
 10
12.7
 20
5.429275
 30
0.0
 40
0.077
  1
AHJ / code edition (D-008); girls locker size (D-013); concession
  7
KS-REG
 11
12.7
 21
5.429275
 31
0.0
100
AcDbText
  0
TEXT
  5
157
330
17
100
AcDbEntity
  8
A-ANNO-TEXT
100
AcDbText
 10
12.7
 20
5.288108333333333
 30
0.0
 40
0.077
  1
scope (D-011); owner (D-007); site (D-006).
  7
KS-REG
 11
12.7
 21
5.288108333333333
 31
0.0
100
AcDbText
  0
TEXT
  5
158
330
17
100
AcDbEntity
  8
A-ANNO-TEXT
100
AcDbText
 10
12.58
 20
5.131649999999999
 30
0.0
 40
0.077
  1
·
  7
KS-REG
 11
12.58
 21
5.131649999999999
 31
0.0
100
AcDbText
  0
TEXT
  5
159
330
17
100
AcDbEntity
  8
A-ANNO-TEXT
100
AcDbText
 10
12.7
 20
5.131649999999999
 30
0.0
 40
0.077
  1
Suites PARKED (future add-on).
  7
KS-REG
 11
12.7
 21
5.131649999999999
 31
0.0
100
AcDbText
  0
TEXT
  5
15A
330
17
100
AcDbEntity
  8
A-ANNO-TEXT
100
AcDbText
 10
12.58
 20
4.7409583333333325
 30
0.0
 40
0.105
  1
9  CITED vs ASSUMED
  7
KS-BOLD
 11
12.58
 21
4.7409583333333325
 31
0.0
100
AcDbText
  0
TEXT
  5
15B
330
17
100
AcDbEntity
  8
A-ANNO-TEXT
100
AcDbText
 10
12.58
 20
4.560091666666667
 30
0.0
 40
0.07400000000000001
  1
CITED: seat SF and row depth (R-008), fixtures, egress and wheelchair
  7
KS-REG
 11
12.58
 21
4.560091666666667
 31
0.0
100
AcDbText
  0
TEXT
  5
15C
330
17
100
AcDbEntity
  8
A-ANNO-TEXT
100
AcDbText
 10
12.58
 20
4.424425
 30
0.0
 40
0.07400000000000001
  1
tables (R-009, R-015, R-016), gross-up and mechanical share (R-014),
  7
KS-REG
 11
12.58
 21
4.424425
 31
0.0
100
AcDbText
  0
TEXT
  5
15D
330
17
100
AcDbEntity
  8
A-ANNO-TEXT
100
AcDbText
 10
12.58
 20
4.288758333333334
 30
0.0
 40
0.07400000000000001
  1
lane width (UFC 4-740-02N, Athletic Business), guards (IBC 1015).
  7
KS-REG
 11
12.58
 21
4.288758333333334
 31
0.0
100
AcDbText
  0
TEXT
  5
15E
330
17
100
AcDbEntity
  8
A-ANNO-TEXT
100
AcDbText
 10
12.58
 20
4.1530916666666675
 30
0.0
 40
0.07400000000000001
  1
ASSUMED: 2 lanes, loop not grossed up, 50/50 tiers, 6 rows, 50
  7
KS-REG
 11
12.58
 21
4.1530916666666675
 31
0.0
100
AcDbText
  0
TEXT
  5
15F
330
17
100
AcDbEntity
  8
A-ANNO-TEXT
100
AcDbText
 10
12.58
 20
4.017425000000001
 30
0.0
 40
0.07400000000000001
  1
SF/fixture, box shape.
  7
KS-REG
 11
12.58
 21
4.017425000000001
 31
0.0
100
AcDbText
  0
TEXT
  5
160
330
17
100
AcDbEntity
  8
A-ANNO-TEXT
100
AcDbText
 10
12.58
 20
3.6287083333333343
 30
0.0
 40
0.1
  1
10  SOURCES (retrieved 2026-10-04)
  7
KS-BOLD
 11
12.58
 21
3.6287083333333343
 31
0.0
100
AcDbText
  0
TEXT
  5
161
330
17
100
AcDbEntity
  8
A-ANNO-TEXT
100
AcDbText
 10
12.58
 20
3.481108333333334
 30
0.0
 40
0.072
  1
·
  7
KS-REG
 11
12.58
 21
3.481108333333334
 31
0.0
100
AcDbText
  0
TEXT
  5
162
330
17
100
AcDbEntity
  8
A-ANNO-TEXT
100
AcDbText
 10
12.7
 20
3.481108333333334
 30
0.0
 40
0.072
  1
Shane 2026-10-04 4:55 AM CT (D-035 loop, Rev F); 4:30 AM CT
  7
KS-REG
 11
12.7
 21
3.481108333333334
 31
0.0
100
AcDbText
  0
TEXT
  5
163
330
17
100
AcDbEntity
  8
A-ANNO-TEXT
100
AcDbText
 10
12.7
 20
3.349108333333334
 30
0.0
 40
0.072
  1
(D-009 mix, margin target)
  7
KS-REG
 11
12.7
 21
3.349108333333334
 31
0.0
100
AcDbText
  0
TEXT
  5
164
330
17
100
AcDbEntity
  8
A-ANNO-TEXT
100
AcDbText
 10
12.58
 20
3.214108333333334
 30
0.0
 40
0.072
  1
·
  7
KS-REG
 11
12.58
 21
3.214108333333334
 31
0.0
100
AcDbText
  0
TEXT
  5
165
330
17
100
AcDbEntity
  8
A-ANNO-TEXT
100
AcDbText
 10
12.7
 20
3.214108333333334
 30
0.0
 40
0.072
  1
R-008, R-009, R-014, R-015, R-016; UFC 4-740-02N; Athletic Business;
  7
KS-REG
 11
12.7
 21
3.214108333333334
 31
0.0
100
AcDbText
  0
TEXT
  5
166
330
17
100
AcDbEntity
  8
A-ANNO-TEXT
100
AcDbText
 10
12.7
 20
3.0821083333333337
 30
0.0
 40
0.072
  1
IBC 2021 1015
  7
KS-REG
 11
12.7
 21
3.0821083333333337
 31
0.0
100
AcDbText
  0
TEXT
  5
167
330
17
100
AcDbEntity
  8
A-ANNO-TEXT
100
AcDbText
 10
12.58
 20
2.9471083333333334
 30
0.0
 40
0.072
  1
·
  7
KS-REG
 11
12.58
 21
2.9471083333333334
 31
0.0
100
AcDbText
  0
TEXT
  5
168
330
17
100
AcDbEntity
  8
A-ANNO-TEXT
100
AcDbText
 10
12.7
 20
2.9471083333333334
 30
0.0
 40
0.072
  1
Rev E (mix, no loop) frozen; history in Revs A-E
  7
KS-REG
 11
12.7
 21
2.9471083333333334
 31
0.0
100
AcDbText
  0
ENDSEC
  0
SECTION
  2
OBJECTS
  0
DICTIONARY
  5
A
330
0
100
AcDbDictionary
281
1
  3
ACAD_COLOR
350
B
  3
ACAD_GROUP
350
C
  3
ACAD_LAYOUT
350
D
  3
ACAD_MATERIAL
350
E
  3
ACAD_MLEADERSTYLE
350
F
  3
ACAD_MLINESTYLE
350
10
  3
ACAD_PLOTSETTINGS
350
11
  3
ACAD_PLOTSTYLENAME
350
12
  3
ACAD_SCALELIST
350
14
  3
ACAD_TABLESTYLE
350
15
  3
ACAD_VISUALSTYLE
350
16
  3
EZDXF_META
350
2D
  0
DICTIONARY
  5
B
330
A
100
AcDbDictionary
281
1
  0
DICTIONARY
  5
C
330
A
100
AcDbDictionary
281
1
  0
DICTIONARY
  5
D
330
A
100
AcDbDictionary
281
1
  3
Model
350
1A
  3
Layout1
350
1E
  0
DICTIONARY
  5
E
330
A
100
AcDbDictionary
281
1
  3
ByBlock
350
1F
  3
ByLayer
350
20
  3
Global
350
21
  0
DICTIONARY
  5
F
330
A
100
AcDbDictionary
281
1
  3
Standard
350
2C
  0
DICTIONARY
  5
10
330
A
100
AcDbDictionary
281
1
  3
Standard
350
22
  0
DICTIONARY
  5
11
330
A
100
AcDbDictionary
281
1
  0
ACDBDICTIONARYWDFLT
  5
12
330
A
100
AcDbDictionary
281
1
  3
Normal
350
13
100
AcDbDictionaryWithDefault
340
13
  0
ACDBPLACEHOLDER
  5
13
330
12
  0
DICTIONARY
  5
14
330
A
100
AcDbDictionary
281
1
  0
DICTIONARY
  5
15
330
A
100
AcDbDictionary
281
1
  0
DICTIONARY
  5
16
330
A
100
AcDbDictionary
281
1
  0
LAYOUT
  5
1A
330
D
100
AcDbPlotSettings
  1

  4
A3
  6

 40
7.5
 41
20.0
 42
7.5
 43
20.0
 44
420.0
 45
297.0
 46
0.0
 47
0.0
 48
0.0
 49
0.0
140
0.0
141
0.0
142
1.0
143
1.0
 70
1024
 72
1
 73
0
 74
5
  7

 75
16
 76
0
 77
2
 78
300
147
1.0
148
0.0
149
0.0
100
AcDbLayout
  1
Model
 70
1
 71
0
 10
0.0
 20
0.0
 11
420.0
 21
297.0
 12
0.0
 22
0.0
 32
0.0
 14
1e+20
 24
1e+20
 34
1e+20
 15
-1e+20
 25
-1e+20
 35
-1e+20
146
0.0
 13
0.0
 23
0.0
 33
0.0
 16
1.0
 26
0.0
 36
0.0
 17
0.0
 27
1.0
 37
0.0
 76
1
330
17
  0
LAYOUT
  5
1E
330
D
100
AcDbPlotSettings
  1

  4
A3
  6

 40
7.5
 41
20.0
 42
7.5
 43
20.0
 44
420.0
 45
297.0
 46
0.0
 47
0.0
 48
0.0
 49
0.0
140
0.0
141
0.0
142
1.0
143
1.0
 70
0
 72
1
 73
0
 74
5
  7

 75
16
 76
0
 77
2
 78
300
147
1.0
148
0.0
149
0.0
100
AcDbLayout
  1
Layout1
 70
1
 71
1
 10
0.0
 20
0.0
 11
420.0
 21
297.0
 12
0.0
 22
0.0
 32
0.0
 14
1e+20
 24
1e+20
 34
1e+20
 15
-1e+20
 25
-1e+20
 35
-1e+20
146
0.0
 13
0.0
 23
0.0
 33
0.0
 16
1.0
 26
0.0
 36
0.0
 17
0.0
 27
1.0
 37
0.0
 76
1
330
1B
  0
MATERIAL
  5
1F
102
{ACAD_REACTORS
330
E
102
}
330
E
100
AcDbMaterial
  1
ByBlock
  2

 70
0
 40
1.0
 71
1
 41
1.0
 91
-1023410177
 42
1.0
 72
1
  3

 73
1
 74
1
 75
1
 44
0.5
 73
0
 45
1.0
 46
1.0
 77
1
  4

 78
1
 79
1
170
1
 48
1.0
171
1
  6

172
1
173
1
174
1
140
1.0
141
1.0
175
1
  7

176
1
177
1
178
1
143
1.0
179
1
  8

270
1
271
1
272
1
145
1.0
146
1.0
273
1
  9

274
1
275
1
276
1
 42
1.0
 72
1
  3

 73
1
 74
1
 75
1
 94
63
  0
MATERIAL
  5
20
102
{ACAD_REACTORS
330
E
102
}
330
E
100
AcDbMaterial
  1
ByLayer
  2

 70
0
 40
1.0
 71
1
 41
1.0
 91
-1023410177
 42
1.0
 72
1
  3

 73
1
 74
1
 75
1
 44
0.5
 73
0
 45
1.0
 46
1.0
 77
1
  4

 78
1
 79
1
170
1
 48
1.0
171
1
  6

172
1
173
1
174
1
140
1.0
141
1.0
175
1
  7

176
1
177
1
178
1
143
1.0
179
1
  8

270
1
271
1
272
1
145
1.0
146
1.0
273
1
  9

274
1
275
1
276
1
 42
1.0
 72
1
  3

 73
1
 74
1
 75
1
 94
63
  0
MATERIAL
  5
21
102
{ACAD_REACTORS
330
E
102
}
330
E
100
AcDbMaterial
  1
Global
  2

 70
0
 40
1.0
 71
1
 41
1.0
 91
-1023410177
 42
1.0
 72
1
  3

 73
1
 74
1
 75
1
 44
0.5
 73
0
 45
1.0
 46
1.0
 77
1
  4

 78
1
 79
1
170
1
 48
1.0
171
1
  6

172
1
173
1
174
1
140
1.0
141
1.0
175
1
  7

176
1
177
1
178
1
143
1.0
179
1
  8

270
1
271
1
272
1
145
1.0
146
1.0
273
1
  9

274
1
275
1
276
1
 42
1.0
 72
1
  3

 73
1
 74
1
 75
1
 94
63
  0
MLINESTYLE
  5
22
102
{ACAD_REACTORS
330
10
102
}
330
10
100
AcDbMlineStyle
  2
Standard
 70
0
  3

 62
256
 51
90.0
 52
90.0
 71
2
 49
0.5
 62
256
  6
BYLAYER
 49
-0.5
 62
256
  6
BYLAYER
  0
MLEADERSTYLE
  5
2C
102
{ACAD_REACTORS
330
F
102
}
330
F
100
AcDbMLeaderStyle
179
2
170
2
171
1
172
0
 90
2
 40
0.0
 41
0.0
173
1
 91
-1056964608
 92
-2
290
1
 42
2.0
291
1
 43
8.0
  3
Standard
 44
4.0
300

342
29
174
1
175
1
176
0
178
1
 93
-1056964608
 45
4.0
292
0
297
0
 46
4.0
 94
-1056964608
 47
1.0
 49
1.0
140
1.0
294
1
141
0.0
177
0
142
1.0
295
0
296
0
143
3.75
271
0
272
9
273
9
  0
DICTIONARY
  5
2D
330
A
100
AcDbDictionary
280
1
281
1
  3
CREATED_BY_EZDXF
350
2E
  3
WRITTEN_BY_EZDXF
350
16B
  0
DICTIONARYVAR
  5
2E
330
2D
100
DictionaryVariables
280
0
  1
1.4.4 @ 2026-10-04T10:04:42.295657+00:00
  0
DICTIONARYVAR
  5
16B
330
2D
100
DictionaryVariables
280
0
  1
1.4.4 @ 2026-10-04T10:04:42.303035+00:00
  0
ENDSEC
  0
EOF
