  0
SECTION
  2
HEADER
  9
$ACADVER
  1
AC1024
  9
$ACADMAINTVER
 70
6
  9
$DWGCODEPAGE
  3
ANSI_1252
  9
$LASTSAVEDBY
  1
ezdxf
  9
$INSBASE
 10
0.0
 20
0.0
 30
0.0
  9
$EXTMIN
 10
1e+20
 20
1e+20
 30
1e+20
  9
$EXTMAX
 10
-1e+20
 20
-1e+20
 30
-1e+20
  9
$LIMMIN
 10
0.0
 20
0.0
  9
$LIMMAX
 10
420.0
 20
297.0
  9
$ORTHOMODE
 70
0
  9
$REGENMODE
 70
1
  9
$FILLMODE
 70
1
  9
$QTEXTMODE
 70
0
  9
$MIRRTEXT
 70
1
  9
$LTSCALE
 40
1.0
  9
$ATTMODE
 70
1
  9
$TEXTSIZE
 40
2.5
  9
$TRACEWID
 40
1.0
  9
$TEXTSTYLE
  7
Standard
  9
$CLAYER
  8
0
  9
$CELTYPE
  6
ByLayer
  9
$CECOLOR
 62
256
  9
$CELTSCALE
 40
1.0
  9
$DISPSILH
 70
0
  9
$DIMSCALE
 40
1.0
  9
$DIMASZ
 40
2.5
  9
$DIMEXO
 40
0.625
  9
$DIMDLI
 40
3.75
  9
$DIMRND
 40
0.0
  9
$DIMDLE
 40
0.0
  9
$DIMEXE
 40
1.25
  9
$DIMTP
 40
0.0
  9
$DIMTM
 40
0.0
  9
$DIMTXT
 40
2.5
  9
$DIMCEN
 40
2.5
  9
$DIMTSZ
 40
0.0
  9
$DIMTOL
 70
0
  9
$DIMLIM
 70
0
  9
$DIMTIH
 70
0
  9
$DIMTOH
 70
0
  9
$DIMSE1
 70
0
  9
$DIMSE2
 70
0
  9
$DIMTAD
 70
1
  9
$DIMZIN
 70
8
  9
$DIMBLK
  1

  9
$DIMASO
 70
1
  9
$DIMSHO
 70
1
  9
$DIMPOST
  1

  9
$DIMAPOST
  1

  9
$DIMALT
 70
0
  9
$DIMALTD
 70
3
  9
$DIMALTF
 40
0.03937007874
  9
$DIMLFAC
 40
1.0
  9
$DIMTOFL
 70
1
  9
$DIMTVP
 40
0.0
  9
$DIMTIX
 70
0
  9
$DIMSOXD
 70
0
  9
$DIMSAH
 70
0
  9
$DIMBLK1
  1

  9
$DIMBLK2
  1

  9
$DIMSTYLE
  2
ISO-25
  9
$DIMCLRD
 70
0
  9
$DIMCLRE
 70
0
  9
$DIMCLRT
 70
0
  9
$DIMTFAC
 40
1.0
  9
$DIMGAP
 40
0.625
  9
$DIMJUST
 70
0
  9
$DIMSD1
 70
0
  9
$DIMSD2
 70
0
  9
$DIMTOLJ
 70
0
  9
$DIMTZIN
 70
8
  9
$DIMALTZ
 70
0
  9
$DIMALTTZ
 70
0
  9
$DIMUPT
 70
0
  9
$DIMDEC
 70
2
  9
$DIMTDEC
 70
2
  9
$DIMALTU
 70
2
  9
$DIMALTTD
 70
3
  9
$DIMTXSTY
  7
Standard
  9
$DIMAUNIT
 70
0
  9
$DIMADEC
 70
0
  9
$DIMALTRND
 40
0.0
  9
$DIMAZIN
 70
0
  9
$DIMDSEP
 70
44
  9
$DIMATFIT
 70
3
  9
$DIMFRAC
 70
0
  9
$DIMLDRBLK
  1

  9
$DIMLUNIT
 70
2
  9
$DIMLWD
 70
-2
  9
$DIMLWE
 70
-2
  9
$DIMTMOVE
 70
0
  9
$DIMFXL
 40
1.0
  9
$DIMFXLON
 70
0
  9
$DIMJOGANG
 40
0.785398163397
  9
$DIMTFILL
 70
0
  9
$DIMTFILLCLR
 70
0
  9
$DIMARCSYM
 70
0
  9
$DIMLTYPE
  6

  9
$DIMLTEX1
  6

  9
$DIMLTEX2
  6

  9
$DIMTXTDIRECTION
 70
0
  9
$LUNITS
 70
2
  9
$LUPREC
 70
4
  9
$SKETCHINC
 40
1.0
  9
$FILLETRAD
 40
10.0
  9
$AUNITS
 70
0
  9
$AUPREC
 70
2
  9
$MENU
  1
.
  9
$ELEVATION
 40
0.0
  9
$PELEVATION
 40
0.0
  9
$THICKNESS
 40
0.0
  9
$LIMCHECK
 70
0
  9
$CHAMFERA
 40
0.0
  9
$CHAMFERB
 40
0.0
  9
$CHAMFERC
 40
0.0
  9
$CHAMFERD
 40
0.0
  9
$SKPOLY
 70
0
  9
$TDCREATE
 40
2461317.954259259
  9
$TDUCREATE
 40
2458532.153996898
  9
$TDUPDATE
 40
2461317.954259259
  9
$TDUUPDATE
 40
2458532.1544311
  9
$TDINDWG
 40
0.0
  9
$TDUSRTIMER
 40
0.0
  9
$USRTIMER
 70
1
  9
$ANGBASE
 50
0.0
  9
$ANGDIR
 70
0
  9
$PDMODE
 70
0
  9
$PDSIZE
 40
0.0
  9
$PLINEWID
 40
0.0
  9
$SPLFRAME
 70
0
  9
$SPLINETYPE
 70
6
  9
$SPLINESEGS
 70
8
  9
$HANDSEED
  5
11A
  9
$SURFTAB1
 70
6
  9
$SURFTAB2
 70
6
  9
$SURFTYPE
 70
6
  9
$SURFU
 70
6
  9
$SURFV
 70
6
  9
$UCSBASE
  2

  9
$UCSNAME
  2

  9
$UCSORG
 10
0.0
 20
0.0
 30
0.0
  9
$UCSXDIR
 10
1.0
 20
0.0
 30
0.0
  9
$UCSYDIR
 10
0.0
 20
1.0
 30
0.0
  9
$UCSORTHOREF
  2

  9
$UCSORTHOVIEW
 70
0
  9
$UCSORGTOP
 10
0.0
 20
0.0
 30
0.0
  9
$UCSORGBOTTOM
 10
0.0
 20
0.0
 30
0.0
  9
$UCSORGLEFT
 10
0.0
 20
0.0
 30
0.0
  9
$UCSORGRIGHT
 10
0.0
 20
0.0
 30
0.0
  9
$UCSORGFRONT
 10
0.0
 20
0.0
 30
0.0
  9
$UCSORGBACK
 10
0.0
 20
0.0
 30
0.0
  9
$PUCSBASE
  2

  9
$PUCSNAME
  2

  9
$PUCSORG
 10
0.0
 20
0.0
 30
0.0
  9
$PUCSXDIR
 10
1.0
 20
0.0
 30
0.0
  9
$PUCSYDIR
 10
0.0
 20
1.0
 30
0.0
  9
$PUCSORTHOREF
  2

  9
$PUCSORTHOVIEW
 70
0
  9
$PUCSORGTOP
 10
0.0
 20
0.0
 30
0.0
  9
$PUCSORGBOTTOM
 10
0.0
 20
0.0
 30
0.0
  9
$PUCSORGLEFT
 10
0.0
 20
0.0
 30
0.0
  9
$PUCSORGRIGHT
 10
0.0
 20
0.0
 30
0.0
  9
$PUCSORGFRONT
 10
0.0
 20
0.0
 30
0.0
  9
$PUCSORGBACK
 10
0.0
 20
0.0
 30
0.0
  9
$USERI1
 70
0
  9
$USERI2
 70
0
  9
$USERI3
 70
0
  9
$USERI4
 70
0
  9
$USERI5
 70
0
  9
$USERR1
 40
0.0
  9
$USERR2
 40
0.0
  9
$USERR3
 40
0.0
  9
$USERR4
 40
0.0
  9
$USERR5
 40
0.0
  9
$WORLDVIEW
 70
1
  9
$SHADEDGE
 70
3
  9
$SHADEDIF
 70
70
  9
$TILEMODE
 70
1
  9
$MAXACTVP
 70
64
  9
$PINSBASE
 10
0.0
 20
0.0
 30
0.0
  9
$PLIMCHECK
 70
0
  9
$PEXTMIN
 10
1e+20
 20
1e+20
 30
1e+20
  9
$PEXTMAX
 10
-1e+20
 20
-1e+20
 30
-1e+20
  9
$PLIMMIN
 10
0.0
 20
0.0
  9
$PLIMMAX
 10
420.0
 20
297.0
  9
$UNITMODE
 70
0
  9
$VISRETAIN
 70
1
  9
$PLINEGEN
 70
0
  9
$PSLTSCALE
 70
1
  9
$TREEDEPTH
 70
3020
  9
$CMLSTYLE
  2
Standard
  9
$CMLJUST
 70
0
  9
$CMLSCALE
 40
20.0
  9
$PROXYGRAPHICS
 70
1
  9
$MEASUREMENT
 70
0
  9
$CELWEIGHT
370
-1
  9
$ENDCAPS
280
0
  9
$JOINSTYLE
280
0
  9
$LWDISPLAY
290
0
  9
$INSUNITS
 70
1
  9
$HYPERLINKBASE
  1

  9
$STYLESHEET
  1

  9
$XEDIT
290
1
  9
$CEPSNTYPE
380
0
  9
$PSTYLEMODE
290
1
  9
$FINGERPRINTGUID
  2
{3DCB5EA6-765A-4071-AFEF-8A676B90B762}
  9
$VERSIONGUID
  2
{BAF8503F-B1A3-406B-8105-794BAF74BD53}
  9
$EXTNAMES
290
1
  9
$PSVPSCALE
 40
0.0
  9
$OLESTARTUP
290
0
  9
$SORTENTS
280
127
  9
$INDEXCTL
280
0
  9
$HIDETEXT
280
1
  9
$XCLIPFRAME
280
1
  9
$HALOGAP
280
0
  9
$OBSCOLOR
 70
257
  9
$OBSLTYPE
280
0
  9
$INTERSECTIONDISPLAY
280
0
  9
$INTERSECTIONCOLOR
 70
257
  9
$DIMASSOC
280
2
  9
$PROJECTNAME
  1

  9
$CAMERADISPLAY
290
0
  9
$LENSLENGTH
 40
50.0
  9
$CAMERAHEIGHT
 40
0.0
  9
$STEPSPERSEC
 40
24.0
  9
$STEPSIZE
 40
100.0
  9
$3DDWFPREC
 40
2.0
  9
$PSOLWIDTH
 40
0.005
  9
$PSOLHEIGHT
 40
0.08
  9
$LOFTANG1
 40
1.570796326795
  9
$LOFTANG2
 40
1.570796326795
  9
$LOFTMAG1
 40
0.0
  9
$LOFTMAG2
 40
0.0
  9
$LOFTPARAM
 70
7
  9
$LOFTNORMALS
280
1
  9
$LATITUDE
 40
37.795
  9
$LONGITUDE
 40
-122.394
  9
$NORTHDIRECTION
 40
0.0
  9
$TIMEZONE
 70
-8000
  9
$LIGHTGLYPHDISPLAY
280
1
  9
$TILEMODELIGHTSYNCH
280
1
  9
$CMATERIAL
347
20
  9
$SOLIDHIST
280
0
  9
$SHOWHIST
280
1
  9
$DWFFRAME
280
2
  9
$DGNFRAME
280
2
  9
$REALWORLDSCALE
290
1
  9
$INTERFERECOLOR
 62
256
  9
$CSHADOW
280
0
  9
$SHADOWPLANELOCATION
 40
0.0
  0
ENDSEC
  0
SECTION
  2
CLASSES
  0
CLASS
  1
ACDBDICTIONARYWDFLT
  2
AcDbDictionaryWithDefault
  3
ObjectDBX Classes
 90
0
 91
0
280
0
281
0
  0
CLASS
  1
SUN
  2
AcDbSun
  3
SCENEOE
 90
1153
 91
0
280
0
281
0
  0
CLASS
  1
VISUALSTYLE
  2
AcDbVisualStyle
  3
ObjectDBX Classes
 90
4095
 91
0
280
0
281
0
  0
CLASS
  1
MATERIAL
  2
AcDbMaterial
  3
ObjectDBX Classes
 90
1153
 91
0
280
0
281
0
  0
CLASS
  1
SCALE
  2
AcDbScale
  3
ObjectDBX Classes
 90
1153
 91
0
280
0
281
0
  0
CLASS
  1
TABLESTYLE
  2
AcDbTableStyle
  3
ObjectDBX Classes
 90
4095
 91
0
280
0
281
0
  0
CLASS
  1
MLEADERSTYLE
  2
AcDbMLeaderStyle
  3
ACDB_MLEADERSTYLE_CLASS
 90
4095
 91
0
280
0
281
0
  0
CLASS
  1
DICTIONARYVAR
  2
AcDbDictionaryVar
  3
ObjectDBX Classes
 90
0
 91
0
280
0
281
0
  0
CLASS
  1
CELLSTYLEMAP
  2
AcDbCellStyleMap
  3
ObjectDBX Classes
 90
1152
 91
0
280
0
281
0
  0
CLASS
  1
MENTALRAYRENDERSETTINGS
  2
AcDbMentalRayRenderSettings
  3
SCENEOE
 90
1024
 91
0
280
0
281
0
  0
CLASS
  1
ACDBDETAILVIEWSTYLE
  2
AcDbDetailViewStyle
  3
ObjectDBX Classes
 90
1025
 91
0
280
0
281
0
  0
CLASS
  1
ACDBSECTIONVIEWSTYLE
  2
AcDbSectionViewStyle
  3
ObjectDBX Classes
 90
1025
 91
0
280
0
281
0
  0
CLASS
  1
RASTERVARIABLES
  2
AcDbRasterVariables
  3
ISM
 90
0
 91
0
280
0
281
0
  0
CLASS
  1
ACDBPLACEHOLDER
  2
AcDbPlaceHolder
  3
ObjectDBX Classes
 90
0
 91
0
280
0
281
0
  0
CLASS
  1
LAYOUT
  2
AcDbLayout
  3
ObjectDBX Classes
 90
0
 91
0
280
0
281
0
  0
ENDSEC
  0
SECTION
  2
TABLES
  0
TABLE
  2
VPORT
  5
8
330
0
100
AcDbSymbolTable
 70
1
  0
VPORT
  5
23
330
8
100
AcDbSymbolTableRecord
100
AcDbViewportTableRecord
  2
*Active
 70
0
 10
0.0
 20
0.0
 11
1.0
 21
1.0
 12
0.0
 22
0.0
 13
0.0
 23
0.0
 14
0.5
 24
0.5
 15
0.5
 25
0.5
 16
0.0
 26
0.0
 36
1.0
 17
0.0
 27
0.0
 37
0.0
 40
1000.0
 41
1.34
 42
50.0
 43
0.0
 44
0.0
 50
0.0
 51
0.0
 71
0
 72
1000
 73
1
 74
3
 75
0
 76
0
 77
0
 78
0
281
0
 65
0
146
0.0
  0
ENDTAB
  0
TABLE
  2
LTYPE
  5
2
330
0
100
AcDbSymbolTable
 70
3
  0
LTYPE
  5
24
330
2
100
AcDbSymbolTableRecord
100
AcDbLinetypeTableRecord
  2
ByBlock
 70
0
  3

 72
65
 73
0
 40
0.0
  0
LTYPE
  5
25
330
2
100
AcDbSymbolTableRecord
100
AcDbLinetypeTableRecord
  2
ByLayer
 70
0
  3

 72
65
 73
0
 40
0.0
  0
LTYPE
  5
26
330
2
100
AcDbSymbolTableRecord
100
AcDbLinetypeTableRecord
  2
Continuous
 70
0
  3

 72
65
 73
0
 40
0.0
  0
ENDTAB
  0
TABLE
  2
LAYER
  5
1
330
0
100
AcDbSymbolTable
 70
5
  0
LAYER
  5
27
330
1
100
AcDbSymbolTableRecord
100
AcDbLayerTableRecord
  2
0
 70
0
 62
7
  6
Continuous
370
-3
390
13
347
21
  0
LAYER
  5
28
330
1
100
AcDbSymbolTableRecord
100
AcDbLayerTableRecord
  2
Defpoints
 70
0
 62
7
  6
Continuous
290
0
370
-3
390
13
347
21
  0
LAYER
  5
31
330
1
100
AcDbSymbolTableRecord
100
AcDbLayerTableRecord
  2
G-ANNO-TTLB
 70
0
 62
7
  6
Continuous
370
-3
390
13
347
21
  0
LAYER
  5
32
330
1
100
AcDbSymbolTableRecord
100
AcDbLayerTableRecord
  2
A-ANNO-TEXT
 70
0
 62
7
  6
Continuous
370
-3
390
13
347
21
  0
LAYER
  5
33
330
1
100
AcDbSymbolTableRecord
100
AcDbLayerTableRecord
  2
A-ANNO-TABL
 70
0
 62
7
  6
Continuous
370
-3
390
13
347
21
  0
ENDTAB
  0
TABLE
  2
STYLE
  5
5
330
0
100
AcDbSymbolTable
 70
3
  0
STYLE
  5
29
330
5
100
AcDbSymbolTableRecord
100
AcDbTextStyleTableRecord
  2
Standard
 70
0
 40
0.0
 41
1.0
 50
0.0
 71
0
 42
2.5
  3
txt
  4

  0
STYLE
  5
2F
330
5
100
AcDbSymbolTableRecord
100
AcDbTextStyleTableRecord
  2
KS-REG
 70
0
 40
0.0
 41
1.0
 50
0.0
 71
0
 42
2.5
  3
DejaVuSans.ttf
  4

  0
STYLE
  5
30
330
5
100
AcDbSymbolTableRecord
100
AcDbTextStyleTableRecord
  2
KS-BOLD
 70
0
 40
0.0
 41
1.0
 50
0.0
 71
0
 42
2.5
  3
DejaVuSans-Bold.ttf
  4

  0
ENDTAB
  0
TABLE
  2
VIEW
  5
7
330
0
100
AcDbSymbolTable
 70
0
  0
ENDTAB
  0
TABLE
  2
UCS
  5
6
330
0
100
AcDbSymbolTable
 70
0
  0
ENDTAB
  0
TABLE
  2
APPID
  5
3
330
0
100
AcDbSymbolTable
 70
3
  0
APPID
  5
2A
330
3
100
AcDbSymbolTableRecord
100
AcDbRegAppTableRecord
  2
ACAD
 70
0
  0
APPID
  5
117
330
3
100
AcDbSymbolTableRecord
100
AcDbRegAppTableRecord
  2
HATCHBACKGROUNDCOLOR
 70
0
  0
APPID
  5
118
330
3
100
AcDbSymbolTableRecord
100
AcDbRegAppTableRecord
  2
EZDXF
 70
0
  0
ENDTAB
  0
TABLE
  2
DIMSTYLE
  5
4
330
0
100
AcDbSymbolTable
 70
1
100
AcDbDimStyleTable
  0
DIMSTYLE
105
2B
330
4
100
AcDbSymbolTableRecord
100
AcDbDimStyleTableRecord
  2
Standard
 70
0
 40
1.0
 41
2.5
 42
0.625
 43
3.75
 44
1.25
 45
0.0
 46
0.0
 47
0.0
 48
0.0
 49
2.5
140
2.5
141
2.5
142
0.0
143
0.03937007874
144
1.0
145
0.0
146
1.0
147
0.625
148
0.0
 69
0
 70
0
 71
0
 72
0
 73
0
 74
0
 75
0
 76
0
 77
1
 78
8
 79
3
170
0
171
3
172
1
173
0
174
0
175
0
176
0
177
0
178
0
179
2
271
2
272
2
273
2
274
3
275
0
276
0
277
2
278
44
279
0
280
0
281
0
282
0
283
0
284
8
285
0
286
0
288
0
289
3
290
0
371
-2
372
-2
  0
ENDTAB
  0
TABLE
  2
BLOCK_RECORD
  5
9
330
0
100
AcDbSymbolTable
 70
2
  0
BLOCK_RECORD
  5
17
330
9
100
AcDbSymbolTableRecord
100
AcDbBlockTableRecord
  2
*Model_Space
340
1A
 70
0
280
1
281
0
  0
BLOCK_RECORD
  5
1B
330
9
100
AcDbSymbolTableRecord
100
AcDbBlockTableRecord
  2
*Paper_Space
340
1E
 70
0
280
1
281
0
  0
ENDTAB
  0
ENDSEC
  0
SECTION
  2
BLOCKS
  0
BLOCK
  5
18
330
17
100
AcDbEntity
  8
0
100
AcDbBlockBegin
  2
*Model_Space
 70
0
 10
0.0
 20
0.0
 30
0.0
  3
*Model_Space
  1

  0
ENDBLK
  5
19
330
17
100
AcDbEntity
  8
0
100
AcDbBlockEnd
  0
BLOCK
  5
1C
330
1B
100
AcDbEntity
  8
0
100
AcDbBlockBegin
  2
*Paper_Space
 70
0
 10
0.0
 20
0.0
 30
0.0
  3
*Paper_Space
  1

  0
ENDBLK
  5
1D
330
1B
100
AcDbEntity
  8
0
100
AcDbBlockEnd
  0
ENDSEC
  0
SECTION
  2
ENTITIES
  0
LWPOLYLINE
  5
34
330
17
100
AcDbEntity
  8
G-ANNO-TTLB
100
AcDbPolyline
 90
4
 70
1
 10
0.5
 20
0.5
 10
16.5
 20
0.5
 10
16.5
 20
10.5
 10
0.5
 20
10.5
  0
LWPOLYLINE
  5
35
330
17
100
AcDbEntity
  8
G-ANNO-TTLB
100
AcDbPolyline
 90
4
 70
1
 10
0.5
 20
1.45
 10
16.5
 20
1.45
 10
16.5
 20
1.85
 10
0.5
 20
1.85
  0
TEXT
  5
36
330
17
100
AcDbEntity
  8
G-ANNO-TTLB
100
AcDbText
 10
8.5
 20
1.5699999999999998
 30
0.0
 40
0.16999999999999998
  1
PRELIMINARY — CONCEPTUAL DESIGN — NOT FOR CONSTRUCTION
  7
KS-BOLD
 72
1
 11
8.5
 21
1.5699999999999998
 31
0.0
100
AcDbText
  0
LINE
  5
37
330
17
100
AcDbEntity
  8
G-ANNO-TTLB
100
AcDbLine
 10
0.5
 20
1.45
 30
0.0
 11
16.5
 21
1.45
 31
0.0
  0
TEXT
  5
38
330
17
100
AcDbEntity
  8
G-ANNO-TTLB
100
AcDbText
 10
0.58
 20
1.28
 30
0.0
 40
0.06999999999999999
  1
PROJECT
  7
KS-REG
 11
0.58
 21
1.28
 31
0.0
100
AcDbText
  0
TEXT
  5
39
330
17
100
AcDbEntity
  8
G-ANNO-TTLB
100
AcDbText
 10
0.58
 20
0.9991666666666666
 30
0.0
 40
0.11499999999999999
  1
Hazel Green Regional Athletic Complex
  7
KS-BOLD
 11
0.58
 21
0.9991666666666666
 31
0.0
100
AcDbText
  0
TEXT
  5
3A
330
17
100
AcDbEntity
  8
G-ANNO-TTLB
100
AcDbText
 10
0.58
 20
0.7883333333333333
 30
0.0
 40
0.11499999999999999
  1
Trojan Horse Arena · Hazel Green area, Madison
  7
KS-BOLD
 11
0.58
 21
0.7883333333333333
 31
0.0
100
AcDbText
  0
TEXT
  5
3B
330
17
100
AcDbEntity
  8
G-ANNO-TTLB
100
AcDbText
 10
0.58
 20
0.5775
 30
0.0
 40
0.11499999999999999
  1
County, Alabama (site TBD, D-006)
  7
KS-BOLD
 11
0.58
 21
0.5775
 31
0.0
100
AcDbText
  0
LINE
  5
3C
330
17
100
AcDbEntity
  8
G-ANNO-TTLB
100
AcDbLine
 10
5.2
 20
0.5
 30
0.0
 11
5.2
 21
1.45
 31
0.0
  0
TEXT
  5
3D
330
17
100
AcDbEntity
  8
G-ANNO-TTLB
100
AcDbText
 10
5.28
 20
1.28
 30
0.0
 40
0.06999999999999999
  1
PHASE
  7
KS-REG
 11
5.28
 21
1.28
 31
0.0
100
AcDbText
  0
TEXT
  5
3E
330
17
100
AcDbEntity
  8
G-ANNO-TTLB
100
AcDbText
 10
5.28
 20
0.9716666666666667
 30
0.0
 40
0.13
  1
PHASE 2
  7
KS-BOLD
 11
5.28
 21
0.9716666666666667
 31
0.0
100
AcDbText
  0
LINE
  5
3F
330
17
100
AcDbEntity
  8
G-ANNO-TTLB
100
AcDbLine
 10
6.7
 20
0.5
 30
0.0
 11
6.7
 21
1.45
 31
0.0
  0
TEXT
  5
40
330
17
100
AcDbEntity
  8
G-ANNO-TTLB
100
AcDbText
 10
6.78
 20
1.28
 30
0.0
 40
0.06999999999999999
  1
SHEET TITLE
  7
KS-REG
 11
6.78
 21
1.28
 31
0.0
100
AcDbText
  0
TEXT
  5
41
330
17
100
AcDbEntity
  8
G-ANNO-TTLB
100
AcDbText
 10
6.78
 20
0.9991666666666666
 30
0.0
 40
0.11499999999999999
  1
PROGRAM TEST-FIT
  7
KS-BOLD
 11
6.78
 21
0.9991666666666666
 31
0.0
100
AcDbText
  0
TEXT
  5
42
330
17
100
AcDbEntity
  8
G-ANNO-TTLB
100
AcDbText
 10
6.78
 20
0.7883333333333333
 30
0.0
 40
0.11499999999999999
  1
AREA ARITHMETIC, NOT A PLAN
  7
KS-BOLD
 11
6.78
 21
0.7883333333333333
 31
0.0
100
AcDbText
  0
LINE
  5
43
330
17
100
AcDbEntity
  8
G-ANNO-TTLB
100
AcDbLine
 10
9.8
 20
0.5
 30
0.0
 11
9.8
 21
1.45
 31
0.0
  0
TEXT
  5
44
330
17
100
AcDbEntity
  8
G-ANNO-TTLB
100
AcDbText
 10
9.88
 20
1.28
 30
0.0
 40
0.06999999999999999
  1
SCALE
  7
KS-REG
 11
9.88
 21
1.28
 31
0.0
100
AcDbText
  0
TEXT
  5
45
330
17
100
AcDbEntity
  8
G-ANNO-TTLB
100
AcDbText
 10
9.88
 20
0.9716666666666667
 30
0.0
 40
0.13
  1
NTS
  7
KS-BOLD
 11
9.88
 21
0.9716666666666667
 31
0.0
100
AcDbText
  0
LINE
  5
46
330
17
100
AcDbEntity
  8
G-ANNO-TTLB
100
AcDbLine
 10
10.700000000000001
 20
0.5
 30
0.0
 11
10.700000000000001
 21
1.45
 31
0.0
  0
TEXT
  5
47
330
17
100
AcDbEntity
  8
G-ANNO-TTLB
100
AcDbText
 10
10.780000000000001
 20
1.28
 30
0.0
 40
0.06999999999999999
  1
DATE
  7
KS-REG
 11
10.780000000000001
 21
1.28
 31
0.0
100
AcDbText
  0
TEXT
  5
48
330
17
100
AcDbEntity
  8
G-ANNO-TTLB
100
AcDbText
 10
10.780000000000001
 20
0.9716666666666667
 30
0.0
 40
0.13
  1
October
  7
KS-BOLD
 11
10.780000000000001
 21
0.9716666666666667
 31
0.0
100
AcDbText
  0
TEXT
  5
49
330
17
100
AcDbEntity
  8
G-ANNO-TTLB
100
AcDbText
 10
10.780000000000001
 20
0.7333333333333334
 30
0.0
 40
0.13
  1
2026
  7
KS-BOLD
 11
10.780000000000001
 21
0.7333333333333334
 31
0.0
100
AcDbText
  0
LINE
  5
4A
330
17
100
AcDbEntity
  8
G-ANNO-TTLB
100
AcDbLine
 10
12.15
 20
0.5
 30
0.0
 11
12.15
 21
1.45
 31
0.0
  0
TEXT
  5
4B
330
17
100
AcDbEntity
  8
G-ANNO-TTLB
100
AcDbText
 10
12.23
 20
1.28
 30
0.0
 40
0.06999999999999999
  1
REV
  7
KS-REG
 11
12.23
 21
1.28
 31
0.0
100
AcDbText
  0
TEXT
  5
4C
330
17
100
AcDbEntity
  8
G-ANNO-TTLB
100
AcDbText
 10
12.23
 20
0.9716666666666667
 30
0.0
 40
0.13
  1
A
  7
KS-BOLD
 11
12.23
 21
0.9716666666666667
 31
0.0
100
AcDbText
  0
LINE
  5
4D
330
17
100
AcDbEntity
  8
G-ANNO-TTLB
100
AcDbLine
 10
12.9
 20
0.5
 30
0.0
 11
12.9
 21
1.45
 31
0.0
  0
TEXT
  5
4E
330
17
100
AcDbEntity
  8
G-ANNO-TTLB
100
AcDbText
 10
12.98
 20
1.28
 30
0.0
 40
0.06999999999999999
  1
DRAWN BY
  7
KS-REG
 11
12.98
 21
1.28
 31
0.0
100
AcDbText
  0
TEXT
  5
4F
330
17
100
AcDbEntity
  8
G-ANNO-TTLB
100
AcDbText
 10
12.98
 20
1.0358333333333332
 30
0.0
 40
0.095
  1
Drawn by KEYSTONE (AI) for
  7
KS-REG
 11
12.98
 21
1.0358333333333332
 31
0.0
100
AcDbText
  0
TEXT
  5
50
330
17
100
AcDbEntity
  8
G-ANNO-TTLB
100
AcDbText
 10
12.98
 20
0.8616666666666665
 30
0.0
 40
0.095
  1
Shane Brazelton
  7
KS-REG
 11
12.98
 21
0.8616666666666665
 31
0.0
100
AcDbText
  0
LINE
  5
51
330
17
100
AcDbEntity
  8
G-ANNO-TTLB
100
AcDbLine
 10
15.0
 20
0.5
 30
0.0
 11
15.0
 21
1.45
 31
0.0
  0
TEXT
  5
52
330
17
100
AcDbEntity
  8
G-ANNO-TTLB
100
AcDbText
 10
15.08
 20
1.28
 30
0.0
 40
0.06999999999999999
  1
SHEET
  7
KS-REG
 11
15.08
 21
1.28
 31
0.0
100
AcDbText
  0
TEXT
  5
53
330
17
100
AcDbEntity
  8
G-ANNO-TTLB
100
AcDbText
 10
15.75
 20
0.77
 30
0.0
 40
0.18
  1
P2-G-003
  7
KS-BOLD
 72
1
 11
15.75
 21
0.77
 31
0.0
100
AcDbText
  0
TEXT
  5
54
330
17
100
AcDbEntity
  8
A-ANNO-TEXT
100
AcDbText
 10
0.6799999999999999
 20
10.180000000000001
 30
0.0
 40
0.11499999999999999
  1
1  AREA TABLE — NET SF (BASE CASE)
  7
KS-BOLD
 11
0.6799999999999999
 21
10.180000000000001
 31
0.0
100
AcDbText
  0
TEXT
  5
55
330
17
100
AcDbEntity
  8
A-ANNO-TABL
100
AcDbText
 10
0.6799999999999999
 20
9.938
 30
0.0
 40
0.078
  1
ROOM / SPACE
  7
KS-BOLD
 11
0.6799999999999999
 21
9.938
 31
0.0
100
AcDbText
  0
TEXT
  5
56
330
17
100
AcDbEntity
  8
A-ANNO-TABL
100
AcDbText
 10
4.4799999999999995
 20
9.938
 30
0.0
 40
0.078
  1
NET SF
  7
KS-BOLD
 72
2
 11
4.4799999999999995
 21
9.938
 31
0.0
100
AcDbText
  0
TEXT
  5
57
330
17
100
AcDbEntity
  8
A-ANNO-TABL
100
AcDbText
 10
4.63
 20
9.938
 30
0.0
 40
0.078
  1
BASIS
  7
KS-BOLD
 11
4.63
 21
9.938
 31
0.0
100
AcDbText
  0
TEXT
  5
58
330
17
100
AcDbEntity
  8
A-ANNO-TABL
100
AcDbText
 10
7.029999999999999
 20
9.938
 30
0.0
 40
0.078
  1
STATUS · CONF.
  7
KS-BOLD
 11
7.029999999999999
 21
9.938
 31
0.0
100
AcDbText
  0
LINE
  5
59
330
17
100
AcDbEntity
  8
A-ANNO-TABL
100
AcDbLine
 10
0.6799999999999999
 20
9.868000000000002
 30
0.0
 11
8.23
 21
9.868000000000002
 31
0.0
  0
TEXT
  5
5A
330
17
100
AcDbEntity
  8
A-ANNO-TABL
100
AcDbText
 10
0.6799999999999999
 20
9.716000000000001
 30
0.0
 40
0.078
  1
FIVE TAGGED MAIN SPACES
  7
KS-BOLD
 11
0.6799999999999999
 21
9.716000000000001
 31
0.0
100
AcDbText
  0
TEXT
  5
5B
330
17
100
AcDbEntity
  8
A-ANNO-TABL
100
AcDbText
 10
4.4799999999999995
 20
9.716000000000001
 30
0.0
 40
0.078
  1
39,003
  7
KS-BOLD
 72
2
 11
4.4799999999999995
 21
9.716000000000001
 31
0.0
100
AcDbText
  0
TEXT
  5
5C
330
17
100
AcDbEntity
  8
A-ANNO-TABL
100
AcDbText
 10
0.7799999999999999
 20
9.524000000000001
 30
0.0
 40
0.086
  1
Championship Wrestling Arena (event floor)
  7
KS-REG
 11
0.7799999999999999
 21
9.524000000000001
 31
0.0
100
AcDbText
  0
TEXT
  5
5D
330
17
100
AcDbEntity
  8
A-ANNO-TABL
100
AcDbText
 10
4.4799999999999995
 20
9.524000000000001
 30
0.0
 40
0.086
  1
22,000
  7
KS-REG
 72
2
 11
4.4799999999999995
 21
9.524000000000001
 31
0.0
100
AcDbText
  0
TEXT
  5
5E
330
17
100
AcDbEntity
  8
A-ANNO-TABL
100
AcDbText
 10
4.63
 20
9.524000000000001
 30
0.0
 40
0.077
  1
phase2.yaml tag (concept sheet)
  7
KS-REG
 11
4.63
 21
9.524000000000001
 31
0.0
100
AcDbText
  0
TEXT
  5
5F
330
17
100
AcDbEntity
  8
A-ANNO-TABL
100
AcDbText
 10
7.029999999999999
 20
9.524000000000001
 30
0.0
 40
0.073
  1
TAG · HIGH
  7
KS-REG
 11
7.029999999999999
 21
9.524000000000001
 31
0.0
100
AcDbText
  0
TEXT
  5
60
330
17
100
AcDbEntity
  8
A-ANNO-TABL
100
AcDbText
 10
0.7799999999999999
 20
9.332
 30
0.0
 40
0.086
  1
Boys Locker Room
  7
KS-REG
 11
0.7799999999999999
 21
9.332
 31
0.0
100
AcDbText
  0
TEXT
  5
61
330
17
100
AcDbEntity
  8
A-ANNO-TABL
100
AcDbText
 10
4.4799999999999995
 20
9.332
 30
0.0
 40
0.086
  1
3,500
  7
KS-REG
 72
2
 11
4.4799999999999995
 21
9.332
 31
0.0
100
AcDbText
  0
TEXT
  5
62
330
17
100
AcDbEntity
  8
A-ANNO-TABL
100
AcDbText
 10
4.63
 20
9.332
 30
0.0
 40
0.077
  1
phase2.yaml tag
  7
KS-REG
 11
4.63
 21
9.332
 31
0.0
100
AcDbText
  0
TEXT
  5
63
330
17
100
AcDbEntity
  8
A-ANNO-TABL
100
AcDbText
 10
7.029999999999999
 20
9.332
 30
0.0
 40
0.073
  1
TAG · HIGH
  7
KS-REG
 11
7.029999999999999
 21
9.332
 31
0.0
100
AcDbText
  0
TEXT
  5
64
330
17
100
AcDbEntity
  8
A-ANNO-TABL
100
AcDbText
 10
0.7799999999999999
 20
9.14
 30
0.0
 40
0.086
  1
Girls Locker Room (as tagged; D-013)
  7
KS-REG
 11
0.7799999999999999
 21
9.14
 31
0.0
100
AcDbText
  0
TEXT
  5
65
330
17
100
AcDbEntity
  8
A-ANNO-TABL
100
AcDbText
 10
4.4799999999999995
 20
9.14
 30
0.0
 40
0.086
  1
3,503
  7
KS-REG
 72
2
 11
4.4799999999999995
 21
9.14
 31
0.0
100
AcDbText
  0
TEXT
  5
66
330
17
100
AcDbEntity
  8
A-ANNO-TABL
100
AcDbText
 10
4.63
 20
9.14
 30
0.0
 40
0.077
  1
phase2.yaml tag; D-013 open
  7
KS-REG
 11
4.63
 21
9.14
 31
0.0
100
AcDbText
  0
TEXT
  5
67
330
17
100
AcDbEntity
  8
A-ANNO-TABL
100
AcDbText
 10
7.029999999999999
 20
9.14
 30
0.0
 40
0.073
  1
TAG · HIGH
  7
KS-REG
 11
7.029999999999999
 21
9.14
 31
0.0
100
AcDbText
  0
TEXT
  5
68
330
17
100
AcDbEntity
  8
A-ANNO-TABL
100
AcDbText
 10
0.7799999999999999
 20
8.948
 30
0.0
 40
0.086
  1
Strength & Conditioning
  7
KS-REG
 11
0.7799999999999999
 21
8.948
 31
0.0
100
AcDbText
  0
TEXT
  5
69
330
17
100
AcDbEntity
  8
A-ANNO-TABL
100
AcDbText
 10
4.4799999999999995
 20
8.948
 30
0.0
 40
0.086
  1
6,000
  7
KS-REG
 72
2
 11
4.4799999999999995
 21
8.948
 31
0.0
100
AcDbText
  0
TEXT
  5
6A
330
17
100
AcDbEntity
  8
A-ANNO-TABL
100
AcDbText
 10
4.63
 20
8.948
 30
0.0
 40
0.077
  1
phase2.yaml tag
  7
KS-REG
 11
4.63
 21
8.948
 31
0.0
100
AcDbText
  0
TEXT
  5
6B
330
17
100
AcDbEntity
  8
A-ANNO-TABL
100
AcDbText
 10
7.029999999999999
 20
8.948
 30
0.0
 40
0.073
  1
TAG · HIGH
  7
KS-REG
 11
7.029999999999999
 21
8.948
 31
0.0
100
AcDbText
  0
TEXT
  5
6C
330
17
100
AcDbEntity
  8
A-ANNO-TABL
100
AcDbText
 10
0.7799999999999999
 20
8.756
 30
0.0
 40
0.086
  1
Cross-Training Mat Area
  7
KS-REG
 11
0.7799999999999999
 21
8.756
 31
0.0
100
AcDbText
  0
TEXT
  5
6D
330
17
100
AcDbEntity
  8
A-ANNO-TABL
100
AcDbText
 10
4.4799999999999995
 20
8.756
 30
0.0
 40
0.086
  1
4,000
  7
KS-REG
 72
2
 11
4.4799999999999995
 21
8.756
 31
0.0
100
AcDbText
  0
TEXT
  5
6E
330
17
100
AcDbEntity
  8
A-ANNO-TABL
100
AcDbText
 10
4.63
 20
8.756
 30
0.0
 40
0.077
  1
phase2.yaml tag
  7
KS-REG
 11
4.63
 21
8.756
 31
0.0
100
AcDbText
  0
TEXT
  5
6F
330
17
100
AcDbEntity
  8
A-ANNO-TABL
100
AcDbText
 10
7.029999999999999
 20
8.756
 30
0.0
 40
0.073
  1
TAG · HIGH
  7
KS-REG
 11
7.029999999999999
 21
8.756
 31
0.0
100
AcDbText
  0
LINE
  5
70
330
17
100
AcDbEntity
  8
A-ANNO-TABL
100
AcDbLine
 10
0.6799999999999999
 20
8.706
 30
0.0
 11
8.23
 21
8.706
 31
0.0
  0
TEXT
  5
71
330
17
100
AcDbEntity
  8
A-ANNO-TABL
100
AcDbText
 10
0.6799999999999999
 20
8.564
 30
0.0
 40
0.078
  1
EVENT BOWL
  7
KS-BOLD
 11
0.6799999999999999
 21
8.564
 31
0.0
100
AcDbText
  0
TEXT
  5
72
330
17
100
AcDbEntity
  8
A-ANNO-TABL
100
AcDbText
 10
4.4799999999999995
 20
8.564
 30
0.0
 40
0.078
  1
16,800
  7
KS-BOLD
 72
2
 11
4.4799999999999995
 21
8.564
 31
0.0
100
AcDbText
  0
TEXT
  5
73
330
17
100
AcDbEntity
  8
A-ANNO-TABL
100
AcDbText
 10
0.7799999999999999
 20
8.372
 30
0.0
 40
0.086
  1
Spectator seating (2,200 seats)
  7
KS-REG
 11
0.7799999999999999
 21
8.372
 31
0.0
100
AcDbText
  0
TEXT
  5
74
330
17
100
AcDbEntity
  8
A-ANNO-TABL
100
AcDbText
 10
4.4799999999999995
 20
8.372
 30
0.0
 40
0.086
  1
13,200
  7
KS-REG
 72
2
 11
4.4799999999999995
 21
8.372
 31
0.0
100
AcDbText
  0
TEXT
  5
75
330
17
100
AcDbEntity
  8
A-ANNO-TABL
100
AcDbText
 10
4.63
 20
8.372
 30
0.0
 40
0.077
  1
2,200 x 6.0 SF/seat (Loudoun 2014)
  7
KS-REG
 11
4.63
 21
8.372
 31
0.0
100
AcDbText
  0
TEXT
  5
76
330
17
100
AcDbEntity
  8
A-ANNO-TABL
100
AcDbText
 10
7.029999999999999
 20
8.372
 30
0.0
 40
0.073
  1
CITED · MEDIUM
  7
KS-REG
 11
7.029999999999999
 21
8.372
 31
0.0
100
AcDbText
  0
TEXT
  5
77
330
17
100
AcDbEntity
  8
A-ANNO-TABL
100
AcDbText
 10
0.7799999999999999
 20
8.18
 30
0.0
 40
0.086
  1
Event / visitor locker rooms (DR3)
  7
KS-REG
 11
0.7799999999999999
 21
8.18
 31
0.0
100
AcDbText
  0
TEXT
  5
78
330
17
100
AcDbEntity
  8
A-ANNO-TABL
100
AcDbText
 10
4.4799999999999995
 20
8.18
 30
0.0
 40
0.086
  1
3,600
  7
KS-REG
 72
2
 11
4.4799999999999995
 21
8.18
 31
0.0
100
AcDbText
  0
TEXT
  5
79
330
17
100
AcDbEntity
  8
A-ANNO-TABL
100
AcDbText
 10
4.63
 20
8.18
 30
0.0
 40
0.077
  1
4 x (14 wrestlers + 4 staff) x 50 SF
  7
KS-REG
 11
4.63
 21
8.18
 31
0.0
100
AcDbText
  0
TEXT
  5
7A
330
17
100
AcDbEntity
  8
A-ANNO-TABL
100
AcDbText
 10
7.029999999999999
 20
8.18
 30
0.0
 40
0.073
  1
ASSUMED · LOW
  7
KS-REG
 11
7.029999999999999
 21
8.18
 31
0.0
100
AcDbText
  0
LINE
  5
7B
330
17
100
AcDbEntity
  8
A-ANNO-TABL
100
AcDbLine
 10
0.6799999999999999
 20
8.129999999999999
 30
0.0
 11
8.23
 21
8.129999999999999
 31
0.0
  0
TEXT
  5
7C
330
17
100
AcDbEntity
  8
A-ANNO-TABL
100
AcDbText
 10
0.6799999999999999
 20
7.9879999999999995
 30
0.0
 40
0.078
  1
PUBLIC / LOBBY
  7
KS-BOLD
 11
0.6799999999999999
 21
7.9879999999999995
 31
0.0
100
AcDbText
  0
TEXT
  5
7D
330
17
100
AcDbEntity
  8
A-ANNO-TABL
100
AcDbText
 10
4.4799999999999995
 20
7.9879999999999995
 30
0.0
 40
0.078
  1
3,550
  7
KS-BOLD
 72
2
 11
4.4799999999999995
 21
7.9879999999999995
 31
0.0
100
AcDbText
  0
TEXT
  5
7E
330
17
100
AcDbEntity
  8
A-ANNO-TABL
100
AcDbText
 10
0.7799999999999999
 20
7.795999999999999
 30
0.0
 40
0.086
  1
Concourse / hall of champions spine
  7
KS-REG
 11
0.7799999999999999
 21
7.795999999999999
 31
0.0
100
AcDbText
  0
TEXT
  5
7F
330
17
100
AcDbEntity
  8
A-ANNO-TABL
100
AcDbText
 10
4.4799999999999995
 20
7.795999999999999
 30
0.0
 40
0.086
  1
2,750
  7
KS-REG
 72
2
 11
4.4799999999999995
 21
7.795999999999999
 31
0.0
100
AcDbText
  0
TEXT
  5
80
330
17
100
AcDbEntity
  8
A-ANNO-TABL
100
AcDbText
 10
4.63
 20
7.795999999999999
 30
0.0
 40
0.077
  1
25% of seats x 5 SF standing (T1004.5)
  7
KS-REG
 11
4.63
 21
7.795999999999999
 31
0.0
100
AcDbText
  0
TEXT
  5
81
330
17
100
AcDbEntity
  8
A-ANNO-TABL
100
AcDbText
 10
7.029999999999999
 20
7.795999999999999
 30
0.0
 40
0.073
  1
ASSUMED · LOW
  7
KS-REG
 11
7.029999999999999
 21
7.795999999999999
 31
0.0
100
AcDbText
  0
TEXT
  5
82
330
17
100
AcDbEntity
  8
A-ANNO-TABL
100
AcDbText
 10
0.7799999999999999
 20
7.603999999999999
 30
0.0
 40
0.086
  1
Foyer / trophy lobby (hall of champions)
  7
KS-REG
 11
0.7799999999999999
 21
7.603999999999999
 31
0.0
100
AcDbText
  0
TEXT
  5
83
330
17
100
AcDbEntity
  8
A-ANNO-TABL
100
AcDbText
 10
4.4799999999999995
 20
7.603999999999999
 30
0.0
 40
0.086
  1
800
  7
KS-REG
 72
2
 11
4.4799999999999995
 21
7.603999999999999
 31
0.0
100
AcDbText
  0
TEXT
  5
84
330
17
100
AcDbEntity
  8
A-ANNO-TABL
100
AcDbText
 10
4.63
 20
7.603999999999999
 30
0.0
 40
0.077
  1
200 + 400 + 200 (Loudoun 2014)
  7
KS-REG
 11
4.63
 21
7.603999999999999
 31
0.0
100
AcDbText
  0
TEXT
  5
85
330
17
100
AcDbEntity
  8
A-ANNO-TABL
100
AcDbText
 10
7.029999999999999
 20
7.603999999999999
 30
0.0
 40
0.073
  1
CITED · MEDIUM
  7
KS-REG
 11
7.029999999999999
 21
7.603999999999999
 31
0.0
100
AcDbText
  0
LINE
  5
86
330
17
100
AcDbEntity
  8
A-ANNO-TABL
100
AcDbLine
 10
0.6799999999999999
 20
7.553999999999999
 30
0.0
 11
8.23
 21
7.553999999999999
 31
0.0
  0
TEXT
  5
87
330
17
100
AcDbEntity
  8
A-ANNO-TABL
100
AcDbText
 10
0.6799999999999999
 20
7.411999999999999
 30
0.0
 40
0.078
  1
SUPPORT ROOMS (9 ON PLAN)
  7
KS-BOLD
 11
0.6799999999999999
 21
7.411999999999999
 31
0.0
100
AcDbText
  0
TEXT
  5
88
330
17
100
AcDbEntity
  8
A-ANNO-TABL
100
AcDbText
 10
0.7799999999999999
 20
7.219999999999999
 30
0.0
 40
0.086
  1
Public restrooms (2 on plan)
  7
KS-REG
 11
0.7799999999999999
 21
7.219999999999999
 31
0.0
100
AcDbText
  0
TEXT
  5
89
330
17
100
AcDbEntity
  8
A-ANNO-TABL
100
AcDbText
 10
4.4799999999999995
 20
7.219999999999999
 30
0.0
 40
0.086
  1
3,350
  7
KS-REG
 72
2
 11
4.4799999999999995
 21
7.219999999999999
 31
0.0
100
AcDbText
  0
TEXT
  5
8A
330
17
100
AcDbEntity
  8
A-ANNO-TABL
100
AcDbText
 10
4.63
 20
7.219999999999999
 30
0.0
 40
0.077
  1
fixtures (T2902.1) x 50 SF
  7
KS-REG
 11
4.63
 21
7.219999999999999
 31
0.0
100
AcDbText
  0
TEXT
  5
8B
330
17
100
AcDbEntity
  8
A-ANNO-TABL
100
AcDbText
 10
7.029999999999999
 20
7.219999999999999
 30
0.0
 40
0.073
  1
CITED · MEDIUM
  7
KS-REG
 11
7.029999999999999
 21
7.219999999999999
 31
0.0
100
AcDbText
  0
TEXT
  5
8C
330
17
100
AcDbEntity
  8
A-ANNO-TABL
100
AcDbText
 10
0.7799999999999999
 20
7.027999999999999
 30
0.0
 40
0.086
  1
Concession stand
  7
KS-REG
 11
0.7799999999999999
 21
7.027999999999999
 31
0.0
100
AcDbText
  0
TEXT
  5
8D
330
17
100
AcDbEntity
  8
A-ANNO-TABL
100
AcDbText
 10
4.4799999999999995
 20
7.027999999999999
 30
0.0
 40
0.086
  1
275
  7
KS-REG
 72
2
 11
4.4799999999999995
 21
7.027999999999999
 31
0.0
100
AcDbText
  0
TEXT
  5
8E
330
17
100
AcDbEntity
  8
A-ANNO-TABL
100
AcDbText
 10
4.63
 20
7.027999999999999
 30
0.0
 40
0.077
  1
Loudoun kitchen proxy; D-011
  7
KS-REG
 11
4.63
 21
7.027999999999999
 31
0.0
100
AcDbText
  0
TEXT
  5
8F
330
17
100
AcDbEntity
  8
A-ANNO-TABL
100
AcDbText
 10
7.029999999999999
 20
7.027999999999999
 30
0.0
 40
0.073
  1
CITED · LOW
  7
KS-REG
 11
7.029999999999999
 21
7.027999999999999
 31
0.0
100
AcDbText
  0
TEXT
  5
90
330
17
100
AcDbEntity
  8
A-ANNO-TABL
100
AcDbText
 10
0.7799999999999999
 20
6.8359999999999985
 30
0.0
 40
0.086
  1
First aid
  7
KS-REG
 11
0.7799999999999999
 21
6.8359999999999985
 31
0.0
100
AcDbText
  0
TEXT
  5
91
330
17
100
AcDbEntity
  8
A-ANNO-TABL
100
AcDbText
 10
4.4799999999999995
 20
6.8359999999999985
 30
0.0
 40
0.086
  1
120
  7
KS-REG
 72
2
 11
4.4799999999999995
 21
6.8359999999999985
 31
0.0
100
AcDbText
  0
TEXT
  5
92
330
17
100
AcDbEntity
  8
A-ANNO-TABL
100
AcDbText
 10
4.63
 20
6.8359999999999985
 30
0.0
 40
0.077
  1
Loudoun 2014; 1 room counted
  7
KS-REG
 11
4.63
 21
6.8359999999999985
 31
0.0
100
AcDbText
  0
TEXT
  5
93
330
17
100
AcDbEntity
  8
A-ANNO-TABL
100
AcDbText
 10
7.029999999999999
 20
6.8359999999999985
 30
0.0
 40
0.073
  1
CITED · MEDIUM
  7
KS-REG
 11
7.029999999999999
 21
6.8359999999999985
 31
0.0
100
AcDbText
  0
TEXT
  5
94
330
17
100
AcDbEntity
  8
A-ANNO-TABL
100
AcDbText
 10
0.7799999999999999
 20
6.643999999999998
 30
0.0
 40
0.086
  1
Administrative office
  7
KS-REG
 11
0.7799999999999999
 21
6.643999999999998
 31
0.0
100
AcDbText
  0
TEXT
  5
95
330
17
100
AcDbEntity
  8
A-ANNO-TABL
100
AcDbText
 10
4.4799999999999995
 20
6.643999999999998
 30
0.0
 40
0.086
  1
470
  7
KS-REG
 72
2
 11
4.4799999999999995
 21
6.643999999999998
 31
0.0
100
AcDbText
  0
TEXT
  5
96
330
17
100
AcDbEntity
  8
A-ANNO-TABL
100
AcDbText
 10
4.63
 20
6.643999999999998
 30
0.0
 40
0.077
  1
150 + 120 + 200 (Loudoun 2014)
  7
KS-REG
 11
4.63
 21
6.643999999999998
 31
0.0
100
AcDbText
  0
TEXT
  5
97
330
17
100
AcDbEntity
  8
A-ANNO-TABL
100
AcDbText
 10
7.029999999999999
 20
6.643999999999998
 30
0.0
 40
0.073
  1
CITED · LOW
  7
KS-REG
 11
7.029999999999999
 21
6.643999999999998
 31
0.0
100
AcDbText
  0
TEXT
  5
98
330
17
100
AcDbEntity
  8
A-ANNO-TABL
100
AcDbText
 10
0.7799999999999999
 20
6.451999999999998
 30
0.0
 40
0.086
  1
Equipment storage (mats + floor covers)
  7
KS-REG
 11
0.7799999999999999
 21
6.451999999999998
 31
0.0
100
AcDbText
  0
TEXT
  5
99
330
17
100
AcDbEntity
  8
A-ANNO-TABL
100
AcDbText
 10
4.4799999999999995
 20
6.451999999999998
 30
0.0
 40
0.086
  1
700
  7
KS-REG
 72
2
 11
4.4799999999999995
 21
6.451999999999998
 31
0.0
100
AcDbText
  0
TEXT
  5
9A
330
17
100
AcDbEntity
  8
A-ANNO-TABL
100
AcDbText
 10
4.63
 20
6.451999999999998
 30
0.0
 40
0.077
  1
Loudoun gym storage proxy
  7
KS-REG
 11
4.63
 21
6.451999999999998
 31
0.0
100
AcDbText
  0
TEXT
  5
9B
330
17
100
AcDbEntity
  8
A-ANNO-TABL
100
AcDbText
 10
7.029999999999999
 20
6.451999999999998
 30
0.0
 40
0.073
  1
CITED · LOW
  7
KS-REG
 11
7.029999999999999
 21
6.451999999999998
 31
0.0
100
AcDbText
  0
TEXT
  5
9C
330
17
100
AcDbEntity
  8
A-ANNO-TABL
100
AcDbText
 10
0.7799999999999999
 20
6.259999999999998
 30
0.0
 40
0.086
  1
Equipment room
  7
KS-REG
 11
0.7799999999999999
 21
6.259999999999998
 31
0.0
100
AcDbText
  0
TEXT
  5
9D
330
17
100
AcDbEntity
  8
A-ANNO-TABL
100
AcDbText
 10
4.4799999999999995
 20
6.259999999999998
 30
0.0
 40
0.086
  1
300
  7
KS-REG
 72
2
 11
4.4799999999999995
 21
6.259999999999998
 31
0.0
100
AcDbText
  0
TEXT
  5
9E
330
17
100
AcDbEntity
  8
A-ANNO-TABL
100
AcDbText
 10
4.63
 20
6.259999999999998
 30
0.0
 40
0.077
  1
Loudoun equip./maint. proxy
  7
KS-REG
 11
4.63
 21
6.259999999999998
 31
0.0
100
AcDbText
  0
TEXT
  5
9F
330
17
100
AcDbEntity
  8
A-ANNO-TABL
100
AcDbText
 10
7.029999999999999
 20
6.259999999999998
 30
0.0
 40
0.073
  1
CITED · LOW
  7
KS-REG
 11
7.029999999999999
 21
6.259999999999998
 31
0.0
100
AcDbText
  0
TEXT
  5
A0
330
17
100
AcDbEntity
  8
A-ANNO-TABL
100
AcDbText
 10
0.7799999999999999
 20
6.067999999999998
 30
0.0
 40
0.086
  1
Stage
  7
KS-REG
 11
0.7799999999999999
 21
6.067999999999998
 31
0.0
100
AcDbText
  0
TEXT
  5
A1
330
17
100
AcDbEntity
  8
A-ANNO-TABL
100
AcDbText
 10
4.4799999999999995
 20
6.067999999999998
 30
0.0
 40
0.086
  1
TBD
  7
KS-BOLD
 72
2
 11
4.4799999999999995
 21
6.067999999999998
 31
0.0
100
AcDbText
  0
TEXT
  5
A2
330
17
100
AcDbEntity
  8
A-ANNO-TABL
100
AcDbText
 10
4.63
 20
6.067999999999998
 30
0.0
 40
0.077
  1
no source: left out
  7
KS-REG
 11
4.63
 21
6.067999999999998
 31
0.0
100
AcDbText
  0
TEXT
  5
A3
330
17
100
AcDbEntity
  8
A-ANNO-TABL
100
AcDbText
 10
7.029999999999999
 20
6.067999999999998
 30
0.0
 40
0.073
  1
TBD · n/a
  7
KS-REG
 11
7.029999999999999
 21
6.067999999999998
 31
0.0
100
AcDbText
  0
TEXT
  5
A4
330
17
100
AcDbEntity
  8
A-ANNO-TABL
100
AcDbText
 10
0.7799999999999999
 20
5.875999999999998
 30
0.0
 40
0.086
  1
Utility room
  7
KS-REG
 11
0.7799999999999999
 21
5.875999999999998
 31
0.0
100
AcDbText
  0
TEXT
  5
A5
330
17
100
AcDbEntity
  8
A-ANNO-TABL
100
AcDbText
 10
4.4799999999999995
 20
5.875999999999998
 30
0.0
 40
0.086
  1
TBD
  7
KS-BOLD
 72
2
 11
4.4799999999999995
 21
5.875999999999998
 31
0.0
100
AcDbText
  0
TEXT
  5
A6
330
17
100
AcDbEntity
  8
A-ANNO-TABL
100
AcDbText
 10
4.63
 20
5.875999999999998
 30
0.0
 40
0.077
  1
no source: left out
  7
KS-REG
 11
4.63
 21
5.875999999999998
 31
0.0
100
AcDbText
  0
TEXT
  5
A7
330
17
100
AcDbEntity
  8
A-ANNO-TABL
100
AcDbText
 10
7.029999999999999
 20
5.875999999999998
 30
0.0
 40
0.073
  1
TBD · n/a
  7
KS-REG
 11
7.029999999999999
 21
5.875999999999998
 31
0.0
100
AcDbText
  0
TEXT
  5
A8
330
17
100
AcDbEntity
  8
A-ANNO-TABL
100
AcDbText
 10
0.7799999999999999
 20
5.6839999999999975
 30
0.0
 40
0.086
  1
Mechanical (2 rooms on plan)
  7
KS-REG
 11
0.7799999999999999
 21
5.6839999999999975
 31
0.0
100
AcDbText
  0
TEXT
  5
A9
330
17
100
AcDbEntity
  8
A-ANNO-TABL
100
AcDbText
 10
4.4799999999999995
 20
5.6839999999999975
 30
0.0
 40
0.086
  1
4,305
  7
KS-REG
 72
2
 11
4.4799999999999995
 21
5.6839999999999975
 31
0.0
100
AcDbText
  0
TEXT
  5
AA
330
17
100
AcDbEntity
  8
A-ANNO-TABL
100
AcDbText
 10
4.63
 20
5.6839999999999975
 30
0.0
 40
0.077
  1
5% of gross (MIL-HDBK-1027/4A)
  7
KS-REG
 11
4.63
 21
5.6839999999999975
 31
0.0
100
AcDbText
  0
TEXT
  5
AB
330
17
100
AcDbEntity
  8
A-ANNO-TABL
100
AcDbText
 10
7.029999999999999
 20
5.6839999999999975
 30
0.0
 40
0.073
  1
CITED · LOW
  7
KS-REG
 11
7.029999999999999
 21
5.6839999999999975
 31
0.0
100
AcDbText
  0
LINE
  5
AC
330
17
100
AcDbEntity
  8
A-ANNO-TABL
100
AcDbLine
 10
0.6799999999999999
 20
5.633999999999998
 30
0.0
 11
8.23
 21
5.633999999999998
 31
0.0
  0
TEXT
  5
AD
330
17
100
AcDbEntity
  8
A-ANNO-TABL
100
AcDbText
 10
0.6799999999999999
 20
5.451999999999997
 30
0.0
 40
0.09
  1
NET PROGRAM (excl. mechanical; TBD rooms left out)
  7
KS-BOLD
 11
0.6799999999999999
 21
5.451999999999997
 31
0.0
100
AcDbText
  0
TEXT
  5
AE
330
17
100
AcDbEntity
  8
A-ANNO-TABL
100
AcDbText
 10
8.23
 20
5.451999999999997
 30
0.0
 40
0.095
  1
64,568
  7
KS-BOLD
 72
2
 11
8.23
 21
5.451999999999997
 31
0.0
100
AcDbText
  0
TEXT
  5
AF
330
17
100
AcDbEntity
  8
A-ANNO-TABL
100
AcDbText
 10
0.6799999999999999
 20
5.2399999999999975
 30
0.0
 40
0.09
  1
Mechanical = 5% of gross (row above)
  7
KS-REG
 11
0.6799999999999999
 21
5.2399999999999975
 31
0.0
100
AcDbText
  0
TEXT
  5
B0
330
17
100
AcDbEntity
  8
A-ANNO-TABL
100
AcDbText
 10
8.23
 20
5.2399999999999975
 30
0.0
 40
0.095
  1
4,305
  7
KS-REG
 72
2
 11
8.23
 21
5.2399999999999975
 31
0.0
100
AcDbText
  0
TEXT
  5
B1
330
17
100
AcDbEntity
  8
A-ANNO-TABL
100
AcDbText
 10
0.6799999999999999
 20
5.027999999999998
 30
0.0
 40
0.09
  1
GROSS SF = 1.25 x (net + mechanical): walls, structure, circulation
  7
KS-BOLD
 11
0.6799999999999999
 21
5.027999999999998
 31
0.0
100
AcDbText
  0
TEXT
  5
B2
330
17
100
AcDbEntity
  8
A-ANNO-TABL
100
AcDbText
 10
8.23
 20
5.027999999999998
 30
0.0
 40
0.095
  1
86,091
  7
KS-BOLD
 72
2
 11
8.23
 21
5.027999999999998
 31
0.0
100
AcDbText
  0
LINE
  5
B3
330
17
100
AcDbEntity
  8
A-ANNO-TABL
100
AcDbLine
 10
0.6799999999999999
 20
4.895999999999998
 30
0.0
 11
8.23
 21
4.895999999999998
 31
0.0
  0
TEXT
  5
B4
330
17
100
AcDbEntity
  8
A-ANNO-TEXT
100
AcDbText
 10
0.6799999999999999
 20
4.6053333333333315
 30
0.0
 40
0.07999999999999999
  1
Gross-up 1.25: +25% for walls, structure and circulation (Groton MA feasibility study); Loudoun County 2014 rec-center standard uses
  7
KS-REG
 11
0.6799999999999999
 21
4.6053333333333315
 31
0.0
100
AcDbText
  0
TEXT
  5
B5
330
17
100
AcDbEntity
  8
A-ANNO-TEXT
100
AcDbText
 10
0.6799999999999999
 20
4.458666666666665
 30
0.0
 40
0.07999999999999999
  1
80% efficiency for program space (÷0.80 = x1.25). Mechanical 5% of gross: MIL-HDBK-1027/4A (HVAC rooms). Formula: gross = 1.25 x
  7
KS-REG
 11
0.6799999999999999
 21
4.458666666666665
 31
0.0
100
AcDbText
  0
TEXT
  5
B6
330
17
100
AcDbEntity
  8
A-ANNO-TEXT
100
AcDbText
 10
0.6799999999999999
 20
4.3119999999999985
 30
0.0
 40
0.07999999999999999
  1
net ÷ (1 − 1.25 x 0.05).
  7
KS-REG
 11
0.6799999999999999
 21
4.3119999999999985
 31
0.0
100
AcDbText
  0
TEXT
  5
B7
330
17
100
AcDbEntity
  8
A-ANNO-TEXT
100
AcDbText
 10
0.6799999999999999
 20
4.128666666666665
 30
0.0
 40
0.07999999999999999
  1
LEAN CHECK (most favorable cited inputs): telescopic-bleacher seating 3.38 SF/seat and gross-up 1.15 (Loudoun
  7
KS-BOLD
 11
0.6799999999999999
 21
4.128666666666665
 31
0.0
100
AcDbText
  0
TEXT
  5
B8
330
17
100
AcDbEntity
  8
A-ANNO-TEXT
100
AcDbText
 10
0.6799999999999999
 20
3.9819999999999984
 30
0.0
 40
0.07999999999999999
  1
walls/structure allowance only) give 58,806 net -> 71,753 GSF. Still 16,753 SF over.
  7
KS-BOLD
 11
0.6799999999999999
 21
3.9819999999999984
 31
0.0
100
AcDbText
  0
LINE
  5
B9
330
17
100
AcDbEntity
  8
A-ANNO-TEXT
100
AcDbLine
 10
8.41
 20
1.9700000000000002
 30
0.0
 11
8.41
 21
10.38
 31
0.0
  0
TEXT
  5
BA
330
17
100
AcDbEntity
  8
A-ANNO-TEXT
100
AcDbText
 10
8.58
 20
10.180000000000001
 30
0.0
 40
0.11499999999999999
  1
2  SEATING — 2,200 SEATS (R-008)
  7
KS-BOLD
 11
8.58
 21
10.180000000000001
 31
0.0
100
AcDbText
  0
TEXT
  5
BB
330
17
100
AcDbEntity
  8
A-ANNO-TEXT
100
AcDbText
 10
8.58
 20
9.982800000000001
 30
0.0
 40
0.08399999999999999
  1
BASE: 6.0 SF/seat incl. aisles — Loudoun County 2014
  7
KS-REG
 11
8.58
 21
9.982800000000001
 31
0.0
100
AcDbText
  0
TEXT
  5
BC
330
17
100
AcDbEntity
  8
A-ANNO-TEXT
100
AcDbText
 10
8.58
 20
9.828800000000001
 30
0.0
 40
0.08399999999999999
  1
recreation-center standard (spectator seating, elevated). 2,200 x
  7
KS-REG
 11
8.58
 21
9.828800000000001
 31
0.0
100
AcDbText
  0
TEXT
  5
BD
330
17
100
AcDbEntity
  8
A-ANNO-TEXT
100
AcDbText
 10
8.58
 20
9.674800000000001
 30
0.0
 40
0.08399999999999999
  1
6.0 = 13,200 SF.
  7
KS-REG
 11
8.58
 21
9.674800000000001
 31
0.0
100
AcDbText
  0
TEXT
  5
BE
330
17
100
AcDbEntity
  8
A-ANNO-TEXT
100
AcDbText
 10
8.58
 20
9.4823
 30
0.0
 40
0.08399999999999999
  1
LEAN: telescopic bleachers 18 in/person (IBC 1004.6) x 24 in rows
  7
KS-REG
 11
8.58
 21
9.4823
 31
0.0
100
AcDbText
  0
TEXT
  5
BF
330
17
100
AcDbEntity
  8
A-ANNO-TEXT
100
AcDbText
 10
8.58
 20
9.3283
 30
0.0
 40
0.08399999999999999
  1
(Hussey MAXAM) = 3.0 SF, + one 48 in stepped aisle (IBC
  7
KS-REG
 11
8.58
 21
9.3283
 31
0.0
100
AcDbText
  0
TEXT
  5
C0
330
17
100
AcDbEntity
  8
A-ANNO-TEXT
100
AcDbText
 10
8.58
 20
9.1743
 30
0.0
 40
0.08399999999999999
  1
1030.9.1) per 21 seats (1030.13.2.1) = 3.38 SF/seat -> 7,438 SF.
  7
KS-REG
 11
8.58
 21
9.1743
 31
0.0
100
AcDbText
  0
TEXT
  5
C1
330
17
100
AcDbEntity
  8
A-ANNO-TEXT
100
AcDbText
 10
8.58
 20
9.0203
 30
0.0
 40
0.08399999999999999
  1
No front walkway, cross aisles or wheelchair spaces counted.
  7
KS-REG
 11
8.58
 21
9.0203
 31
0.0
100
AcDbText
  0
TEXT
  5
C2
330
17
100
AcDbEntity
  8
A-ANNO-TEXT
100
AcDbText
 10
8.58
 20
8.834333333333333
 30
0.0
 40
0.07999999999999999
  1
Seating type is OPEN (D-009). Seats stay outside the event floor
  7
KS-REG
 11
8.58
 21
8.834333333333333
 31
0.0
100
AcDbText
  0
TEXT
  5
C3
330
17
100
AcDbEntity
  8
A-ANNO-TEXT
100
AcDbText
 10
8.58
 20
8.687666666666667
 30
0.0
 40
0.07999999999999999
  1
(locked). IBC 2021 assembly egress is Section 1030 (1029 in the 2018
  7
KS-REG
 11
8.58
 21
8.687666666666667
 31
0.0
100
AcDbText
  0
TEXT
  5
C4
330
17
100
AcDbEntity
  8
A-ANNO-TEXT
100
AcDbText
 10
8.58
 20
8.541
 30
0.0
 40
0.07999999999999999
  1
edition).
  7
KS-REG
 11
8.58
 21
8.541
 31
0.0
100
AcDbText
  0
TEXT
  5
C5
330
17
100
AcDbEntity
  8
A-ANNO-TEXT
100
AcDbText
 10
8.58
 20
8.148333333333333
 30
0.0
 40
0.11499999999999999
  1
3  OCCUPANT LOAD + FIXTURES (R-009)
  7
KS-BOLD
 11
8.58
 21
8.148333333333333
 31
0.0
100
AcDbText
  0
TEXT
  5
C6
330
17
100
AcDbEntity
  8
A-ANNO-TEXT
100
AcDbText
 10
8.58
 20
7.951133333333333
 30
0.0
 40
0.08399999999999999
  1
Load = 2,200 seats (IBC 1004.6) + event floor 22,000 SF ÷ 50
  7
KS-REG
 11
8.58
 21
7.951133333333333
 31
0.0
100
AcDbText
  0
TEXT
  5
C7
330
17
100
AcDbEntity
  8
A-ANNO-TEXT
100
AcDbText
 10
8.58
 20
7.797133333333333
 30
0.0
 40
0.08399999999999999
  1
gross (T1004.5 'exercise rooms', function ASSUMED) = 440 ->
  7
KS-REG
 11
8.58
 21
7.797133333333333
 31
0.0
100
AcDbText
  0
TEXT
  5
C8
330
17
100
AcDbEntity
  8
A-ANNO-TEXT
100
AcDbText
 10
8.58
 20
7.643133333333333
 30
0.0
 40
0.08399999999999999
  1
2,640 total; half each sex = 1,320 (2902.1.1). IBC 2021 Table
  7
KS-REG
 11
8.58
 21
7.643133333333333
 31
0.0
100
AcDbText
  0
TEXT
  5
C9
330
17
100
AcDbEntity
  8
A-ANNO-TEXT
100
AcDbText
 10
8.58
 20
7.489133333333333
 30
0.0
 40
0.08399999999999999
  1
2902.1, arenas (indoor sporting events):
  7
KS-REG
 11
8.58
 21
7.489133333333333
 31
0.0
100
AcDbText
  0
TEXT
  5
CA
330
17
100
AcDbEntity
  8
A-ANNO-TABL
100
AcDbText
 10
8.63
 20
7.208833333333334
 30
0.0
 40
0.083
  1
Water closets — men
  7
KS-REG
 11
8.63
 21
7.208833333333334
 31
0.0
100
AcDbText
  0
TEXT
  5
CB
330
17
100
AcDbEntity
  8
A-ANNO-TABL
100
AcDbText
 10
10.33
 20
7.208833333333334
 30
0.0
 40
0.079
  1
1/75 first 1,500
  7
KS-REG
 11
10.33
 21
7.208833333333334
 31
0.0
100
AcDbText
  0
TEXT
  5
CC
330
17
100
AcDbEntity
  8
A-ANNO-TABL
100
AcDbText
 10
12.33
 20
7.208833333333334
 30
0.0
 40
0.09
  1
18
  7
KS-BOLD
 72
2
 11
12.33
 21
7.208833333333334
 31
0.0
100
AcDbText
  0
TEXT
  5
CD
330
17
100
AcDbEntity
  8
A-ANNO-TABL
100
AcDbText
 10
8.83
 20
7.058833333333333
 30
0.0
 40
0.073
  1
urinals may be up to 12 (IPC 424.2, 67%)
  7
KS-REG
 11
8.83
 21
7.058833333333333
 31
0.0
100
AcDbText
  0
TEXT
  5
CE
330
17
100
AcDbEntity
  8
A-ANNO-TABL
100
AcDbText
 10
8.63
 20
6.873833333333334
 30
0.0
 40
0.083
  1
Water closets — women
  7
KS-REG
 11
8.63
 21
6.873833333333334
 31
0.0
100
AcDbText
  0
TEXT
  5
CF
330
17
100
AcDbEntity
  8
A-ANNO-TABL
100
AcDbText
 10
10.33
 20
6.873833333333334
 30
0.0
 40
0.079
  1
1/40 first 1,520
  7
KS-REG
 11
10.33
 21
6.873833333333334
 31
0.0
100
AcDbText
  0
TEXT
  5
D0
330
17
100
AcDbEntity
  8
A-ANNO-TABL
100
AcDbText
 10
12.33
 20
6.873833333333334
 30
0.0
 40
0.09
  1
33
  7
KS-BOLD
 72
2
 11
12.33
 21
6.873833333333334
 31
0.0
100
AcDbText
  0
TEXT
  5
D1
330
17
100
AcDbEntity
  8
A-ANNO-TABL
100
AcDbText
 10
8.63
 20
6.688833333333334
 30
0.0
 40
0.083
  1
Lavatories — men
  7
KS-REG
 11
8.63
 21
6.688833333333334
 31
0.0
100
AcDbText
  0
TEXT
  5
D2
330
17
100
AcDbEntity
  8
A-ANNO-TABL
100
AcDbText
 10
10.33
 20
6.688833333333334
 30
0.0
 40
0.079
  1
1/200
  7
KS-REG
 11
10.33
 21
6.688833333333334
 31
0.0
100
AcDbText
  0
TEXT
  5
D3
330
17
100
AcDbEntity
  8
A-ANNO-TABL
100
AcDbText
 10
12.33
 20
6.688833333333334
 30
0.0
 40
0.09
  1
7
  7
KS-BOLD
 72
2
 11
12.33
 21
6.688833333333334
 31
0.0
100
AcDbText
  0
TEXT
  5
D4
330
17
100
AcDbEntity
  8
A-ANNO-TABL
100
AcDbText
 10
8.63
 20
6.5038333333333345
 30
0.0
 40
0.083
  1
Lavatories — women
  7
KS-REG
 11
8.63
 21
6.5038333333333345
 31
0.0
100
AcDbText
  0
TEXT
  5
D5
330
17
100
AcDbEntity
  8
A-ANNO-TABL
100
AcDbText
 10
10.33
 20
6.5038333333333345
 30
0.0
 40
0.079
  1
1/150
  7
KS-REG
 11
10.33
 21
6.5038333333333345
 31
0.0
100
AcDbText
  0
TEXT
  5
D6
330
17
100
AcDbEntity
  8
A-ANNO-TABL
100
AcDbText
 10
12.33
 20
6.5038333333333345
 30
0.0
 40
0.09
  1
9
  7
KS-BOLD
 72
2
 11
12.33
 21
6.5038333333333345
 31
0.0
100
AcDbText
  0
TEXT
  5
D7
330
17
100
AcDbEntity
  8
A-ANNO-TABL
100
AcDbText
 10
8.63
 20
6.318833333333335
 30
0.0
 40
0.083
  1
Drinking fountains
  7
KS-REG
 11
8.63
 21
6.318833333333335
 31
0.0
100
AcDbText
  0
TEXT
  5
D8
330
17
100
AcDbEntity
  8
A-ANNO-TABL
100
AcDbText
 10
10.33
 20
6.318833333333335
 30
0.0
 40
0.079
  1
1/1,000 (total)
  7
KS-REG
 11
10.33
 21
6.318833333333335
 31
0.0
100
AcDbText
  0
TEXT
  5
D9
330
17
100
AcDbEntity
  8
A-ANNO-TABL
100
AcDbText
 10
12.33
 20
6.318833333333335
 30
0.0
 40
0.09
  1
3
  7
KS-BOLD
 72
2
 11
12.33
 21
6.318833333333335
 31
0.0
100
AcDbText
  0
TEXT
  5
DA
330
17
100
AcDbEntity
  8
A-ANNO-TABL
100
AcDbText
 10
8.83
 20
6.1688333333333345
 30
0.0
 40
0.073
  1
in concourse; no SF
  7
KS-REG
 11
8.83
 21
6.1688333333333345
 31
0.0
100
AcDbText
  0
TEXT
  5
DB
330
17
100
AcDbEntity
  8
A-ANNO-TABL
100
AcDbText
 10
8.63
 20
5.983833333333335
 30
0.0
 40
0.083
  1
Service sink
  7
KS-REG
 11
8.63
 21
5.983833333333335
 31
0.0
100
AcDbText
  0
TEXT
  5
DC
330
17
100
AcDbEntity
  8
A-ANNO-TABL
100
AcDbText
 10
10.33
 20
5.983833333333335
 30
0.0
 40
0.079
  1
1
  7
KS-REG
 11
10.33
 21
5.983833333333335
 31
0.0
100
AcDbText
  0
TEXT
  5
DD
330
17
100
AcDbEntity
  8
A-ANNO-TABL
100
AcDbText
 10
12.33
 20
5.983833333333335
 30
0.0
 40
0.09
  1
1
  7
KS-BOLD
 72
2
 11
12.33
 21
5.983833333333335
 31
0.0
100
AcDbText
  0
TEXT
  5
DE
330
17
100
AcDbEntity
  8
A-ANNO-TABL
100
AcDbText
 10
8.83
 20
5.8338333333333345
 30
0.0
 40
0.073
  1
utility room (TBD)
  7
KS-REG
 11
8.83
 21
5.8338333333333345
 31
0.0
100
AcDbText
  0
TEXT
  5
DF
330
17
100
AcDbEntity
  8
A-ANNO-TEXT
100
AcDbText
 10
8.58
 20
5.653166666666668
 30
0.0
 40
0.07999999999999999
  1
Room fixtures (WC + lav) = 67 x 50 SF/fixture (ASSUMED; bare WC
  7
KS-REG
 11
8.58
 21
5.653166666666668
 31
0.0
100
AcDbText
  0
TEXT
  5
E0
330
17
100
AcDbEntity
  8
A-ANNO-TEXT
100
AcDbText
 10
8.58
 20
5.506500000000002
 30
0.0
 40
0.07999999999999999
  1
module from cited minimums ≈ 27 SF) = 3,350 SF. Athletes' toilets
  7
KS-REG
 11
8.58
 21
5.506500000000002
 31
0.0
100
AcDbText
  0
TEXT
  5
E1
330
17
100
AcDbEntity
  8
A-ANNO-TEXT
100
AcDbText
 10
8.58
 20
5.359833333333335
 30
0.0
 40
0.07999999999999999
  1
assumed inside the locker-room tags. Code edition: Shane said IBC/IPC
  7
KS-REG
 11
8.58
 21
5.359833333333335
 31
0.0
100
AcDbText
  0
TEXT
  5
E2
330
17
100
AcDbEntity
  8
A-ANNO-TEXT
100
AcDbText
 10
8.58
 20
5.213166666666669
 30
0.0
 40
0.07999999999999999
  1
2021; Madison County's page lists 2018 — same Table 2902.1 ratios.
  7
KS-REG
 11
8.58
 21
5.213166666666669
 31
0.0
100
AcDbText
  0
TEXT
  5
E3
330
17
100
AcDbEntity
  8
A-ANNO-TEXT
100
AcDbText
 10
8.58
 20
5.066500000000002
 30
0.0
 40
0.07999999999999999
  1
AHJ OPEN (D-008).
  7
KS-REG
 11
8.58
 21
5.066500000000002
 31
0.0
100
AcDbText
  0
LINE
  5
E4
330
17
100
AcDbEntity
  8
A-ANNO-TEXT
100
AcDbLine
 10
12.71
 20
1.9700000000000002
 30
0.0
 11
12.71
 21
10.38
 31
0.0
  0
TEXT
  5
E5
330
17
100
AcDbEntity
  8
A-ANNO-TEXT
100
AcDbText
 10
12.88
 20
10.180000000000001
 30
0.0
 40
0.11499999999999999
  1
4  RESULT
  7
KS-BOLD
 11
12.88
 21
10.180000000000001
 31
0.0
100
AcDbText
  0
LWPOLYLINE
  5
E6
330
17
100
AcDbEntity
  8
A-ANNO-TEXT
100
AcDbPolyline
 90
4
 70
1
 10
12.88
 20
9.060000000000002
 10
16.22
 20
9.060000000000002
 10
16.22
 20
10.080000000000002
 10
12.88
 20
10.080000000000002
  0
TEXT
  5
E7
330
17
100
AcDbEntity
  8
A-ANNO-TEXT
100
AcDbText
 10
14.55
 20
9.760000000000002
 30
0.0
 40
0.135
  1
DOES NOT FIT IN 55,000 SF
  7
KS-BOLD
 72
1
 11
14.55
 21
9.760000000000002
 31
0.0
100
AcDbText
  0
TEXT
  5
E8
330
17
100
AcDbEntity
  8
A-ANNO-TEXT
100
AcDbText
 10
14.55
 20
9.500000000000002
 30
0.0
 40
0.086
  1
Needs ≈ 86,100 GSF (base) · ≈ 71,800 (lean)
  7
KS-BOLD
 72
1
 11
14.55
 21
9.500000000000002
 31
0.0
100
AcDbText
  0
TEXT
  5
E9
330
17
100
AcDbEntity
  8
A-ANNO-TEXT
100
AcDbText
 10
14.55
 20
9.280000000000001
 30
0.0
 40
0.08199999999999999
  1
Over by ≈ 31,100 SF (base) · ≈ 16,800 SF (lean)
  7
KS-REG
 72
1
 11
14.55
 21
9.280000000000001
 31
0.0
100
AcDbText
  0
TEXT
  5
EA
330
17
100
AcDbEntity
  8
A-ANNO-TEXT
100
AcDbText
 10
12.88
 20
8.90606666666667
 30
0.0
 40
0.08199999999999999
  1
The 5 tagged spaces alone are 39,003 net SF; grossed up
  7
KS-REG
 11
12.88
 21
8.90606666666667
 31
0.0
100
AcDbText
  0
TEXT
  5
EB
330
17
100
AcDbEntity
  8
A-ANNO-TEXT
100
AcDbText
 10
12.88
 20
8.755733333333335
 30
0.0
 40
0.08199999999999999
  1
they need ≈ 52,000 GSF before any seats, lockers or
  7
KS-REG
 11
12.88
 21
8.755733333333335
 31
0.0
100
AcDbText
  0
TEXT
  5
EC
330
17
100
AcDbEntity
  8
A-ANNO-TEXT
100
AcDbText
 10
12.88
 20
8.605400000000001
 30
0.0
 40
0.08199999999999999
  1
lobby.
  7
KS-REG
 11
12.88
 21
8.605400000000001
 31
0.0
100
AcDbText
  0
TEXT
  5
ED
330
17
100
AcDbEntity
  8
A-ANNO-TEXT
100
AcDbText
 10
12.88
 20
8.211416666666667
 30
0.0
 40
0.11499999999999999
  1
5  OPTIONS (SF MATH)
  7
KS-BOLD
 11
12.88
 21
8.211416666666667
 31
0.0
100
AcDbText
  0
TEXT
  5
EE
330
17
100
AcDbEntity
  8
A-ANNO-TEXT
100
AcDbText
 10
12.88
 20
7.964416666666667
 30
0.0
 40
0.09
  1
A GROW THE BUILDING
  7
KS-BOLD
 11
12.88
 21
7.964416666666667
 31
0.0
100
AcDbText
  0
TEXT
  5
EF
330
17
100
AcDbEntity
  8
A-ANNO-TEXT
100
AcDbText
 10
13.030000000000001
 20
7.814500000000001
 30
0.0
 40
0.07999999999999999
  1
to ≈ 86,100 GSF (base) or ≈ 71,800 GSF (lean); keeps all
  7
KS-REG
 11
13.030000000000001
 21
7.814500000000001
 31
0.0
100
AcDbText
  0
TEXT
  5
F0
330
17
100
AcDbEntity
  8
A-ANNO-TEXT
100
AcDbText
 10
13.030000000000001
 20
7.667833333333334
 30
0.0
 40
0.07999999999999999
  1
2,200 seats and the 22,000 SF floor.
  7
KS-REG
 11
13.030000000000001
 21
7.667833333333334
 31
0.0
100
AcDbText
  0
TEXT
  5
F1
330
17
100
AcDbEntity
  8
A-ANNO-TEXT
100
AcDbText
 10
12.88
 20
7.428166666666667
 30
0.0
 40
0.09
  1
B SHRINK THE EVENT FLOOR
  7
KS-BOLD
 11
12.88
 21
7.428166666666667
 31
0.0
100
AcDbText
  0
TEXT
  5
F2
330
17
100
AcDbEntity
  8
A-ANNO-TEXT
100
AcDbText
 10
13.030000000000001
 20
7.278250000000001
 30
0.0
 40
0.07999999999999999
  1
to 114 x 126 ft = 14,364 SF: 4 mats 42 ft, 2x2, 10 ft
  7
KS-REG
 11
13.030000000000001
 21
7.278250000000001
 31
0.0
100
AcDbText
  0
TEXT
  5
F3
330
17
100
AcDbEntity
  8
A-ANNO-TEXT
100
AcDbText
 10
13.030000000000001
 20
7.131583333333334
 30
0.0
 40
0.07999999999999999
  1
around and between (NFHS 2-1-5), 6 ft table strips N + S
  7
KS-REG
 11
13.030000000000001
 21
7.131583333333334
 31
0.0
100
AcDbText
  0
TEXT
  5
F4
330
17
100
AcDbEntity
  8
A-ANNO-TEXT
100
AcDbText
 10
13.030000000000001
 20
6.984916666666668
 30
0.0
 40
0.07999999999999999
  1
(ASSUMED); a 84x50 court + 10 ft runout (104x70) fits
  7
KS-REG
 11
13.030000000000001
 21
6.984916666666668
 31
0.0
100
AcDbText
  0
TEXT
  5
F5
330
17
100
AcDbEntity
  8
A-ANNO-TEXT
100
AcDbText
 10
13.030000000000001
 20
6.838250000000001
 30
0.0
 40
0.07999999999999999
  1
inside. Building ≈ 75,800 GSF (base) / ≈ 62,300 (lean):
  7
KS-REG
 11
13.030000000000001
 21
6.838250000000001
 31
0.0
100
AcDbText
  0
TEXT
  5
F6
330
17
100
AcDbEntity
  8
A-ANNO-TEXT
100
AcDbText
 10
13.030000000000001
 20
6.691583333333335
 30
0.0
 40
0.07999999999999999
  1
still over by ≈ 20,800 / 7,300.
  7
KS-REG
 11
13.030000000000001
 21
6.691583333333335
 31
0.0
100
AcDbText
  0
TEXT
  5
F7
330
17
100
AcDbEntity
  8
A-ANNO-TEXT
100
AcDbText
 10
12.88
 20
6.451916666666667
 30
0.0
 40
0.09
  1
C CUT SEATS
  7
KS-BOLD
 11
12.88
 21
6.451916666666667
 31
0.0
100
AcDbText
  0
TEXT
  5
F8
330
17
100
AcDbEntity
  8
A-ANNO-TEXT
100
AcDbText
 10
13.030000000000001
 20
6.302000000000001
 30
0.0
 40
0.07999999999999999
  1
not enough alone: with 0 seats the building is still ≈
  7
KS-REG
 11
13.030000000000001
 21
6.302000000000001
 31
0.0
100
AcDbText
  0
TEXT
  5
F9
330
17
100
AcDbEntity
  8
A-ANNO-TEXT
100
AcDbText
 10
13.030000000000001
 20
6.155333333333335
 30
0.0
 40
0.07999999999999999
  1
61,200 GSF (base) / ≈ 56,000 (lean). With B + C: ≈ 360
  7
KS-REG
 11
13.030000000000001
 21
6.155333333333335
 31
0.0
100
AcDbText
  0
TEXT
  5
FA
330
17
100
AcDbEntity
  8
A-ANNO-TEXT
100
AcDbText
 10
13.030000000000001
 20
6.008666666666668
 30
0.0
 40
0.07999999999999999
  1
seats fit (base) / ≈ 1,190 (lean).
  7
KS-REG
 11
13.030000000000001
 21
6.008666666666668
 31
0.0
100
AcDbText
  0
TEXT
  5
FB
330
17
100
AcDbEntity
  8
A-ANNO-TEXT
100
AcDbText
 10
12.88
 20
5.828600000000002
 30
0.0
 40
0.078
  1
Not credited: a 2nd level, a mezzanine, or rooms
  7
KS-BOLD
 11
12.88
 21
5.828600000000002
 31
0.0
100
AcDbText
  0
TEXT
  5
FC
330
17
100
AcDbEntity
  8
A-ANNO-TEXT
100
AcDbText
 10
12.88
 20
5.685600000000002
 30
0.0
 40
0.078
  1
under the seating bowl (DR3). Whether 55,000 SF
  7
KS-BOLD
 11
12.88
 21
5.685600000000002
 31
0.0
100
AcDbText
  0
TEXT
  5
FD
330
17
100
AcDbEntity
  8
A-ANNO-TEXT
100
AcDbText
 10
12.88
 20
5.542600000000002
 30
0.0
 40
0.078
  1
caps total floor area or footprint is OPEN (D-030).
  7
KS-BOLD
 11
12.88
 21
5.542600000000002
 31
0.0
100
AcDbText
  0
TEXT
  5
FE
330
17
100
AcDbEntity
  8
A-ANNO-TEXT
100
AcDbText
 10
12.88
 20
5.151250000000002
 30
0.0
 40
0.1
  1
6  SOURCES (retrieved 2026-10-03)
  7
KS-BOLD
 11
12.88
 21
5.151250000000002
 31
0.0
100
AcDbText
  0
TEXT
  5
FF
330
17
100
AcDbEntity
  8
A-ANNO-TEXT
100
AcDbText
 10
12.88
 20
5.00691666666667
 30
0.0
 40
0.06999999999999999
  1
·
  7
KS-REG
 11
12.88
 21
5.00691666666667
 31
0.0
100
AcDbText
  0
TEXT
  5
100
330
17
100
AcDbEntity
  8
A-ANNO-TEXT
100
AcDbText
 10
13.0
 20
5.00691666666667
 30
0.0
 40
0.06999999999999999
  1
IBC 2021 (UpCodes, AL ed.): T1004.5, 1004.6, 1030.9.1,
  7
KS-REG
 11
13.0
 21
5.00691666666667
 31
0.0
100
AcDbText
  0
TEXT
  5
101
330
17
100
AcDbEntity
  8
A-ANNO-TEXT
100
AcDbText
 10
13.0
 20
4.878583333333337
 30
0.0
 40
0.06999999999999999
  1
1030.13.2.1, T2902.1, 2902.1.1; IPC 2021 424.2; IBC 2018
  7
KS-REG
 11
13.0
 21
4.878583333333337
 31
0.0
100
AcDbText
  0
TEXT
  5
102
330
17
100
AcDbEntity
  8
A-ANNO-TEXT
100
AcDbText
 10
13.0
 20
4.750250000000004
 30
0.0
 40
0.06999999999999999
  1
T2902.1 (compared)
  7
KS-REG
 11
13.0
 21
4.750250000000004
 31
0.0
100
AcDbText
  0
TEXT
  5
103
330
17
100
AcDbEntity
  8
A-ANNO-TEXT
100
AcDbText
 10
12.88
 20
4.619833333333338
 30
0.0
 40
0.06999999999999999
  1
·
  7
KS-REG
 11
12.88
 21
4.619833333333338
 31
0.0
100
AcDbText
  0
TEXT
  5
104
330
17
100
AcDbEntity
  8
A-ANNO-TEXT
100
AcDbText
 10
13.0
 20
4.619833333333338
 30
0.0
 40
0.06999999999999999
  1
Madison County AL, Building Codes page (2018 I-codes)
  7
KS-REG
 11
13.0
 21
4.619833333333338
 31
0.0
100
AcDbText
  0
TEXT
  5
105
330
17
100
AcDbEntity
  8
A-ANNO-TEXT
100
AcDbText
 10
12.88
 20
4.4894166666666715
 30
0.0
 40
0.06999999999999999
  1
·
  7
KS-REG
 11
12.88
 21
4.4894166666666715
 31
0.0
100
AcDbText
  0
TEXT
  5
106
330
17
100
AcDbEntity
  8
A-ANNO-TEXT
100
AcDbText
 10
13.0
 20
4.4894166666666715
 30
0.0
 40
0.06999999999999999
  1
NFHS Wrestling Rules 2-1-5, 2-3 (2014-15 text; current book
  7
KS-REG
 11
13.0
 21
4.4894166666666715
 31
0.0
100
AcDbText
  0
TEXT
  5
107
330
17
100
AcDbEntity
  8
A-ANNO-TEXT
100
AcDbText
 10
13.0
 20
4.3610833333333385
 30
0.0
 40
0.06999999999999999
  1
paywalled) — R-005
  7
KS-REG
 11
13.0
 21
4.3610833333333385
 31
0.0
100
AcDbText
  0
TEXT
  5
108
330
17
100
AcDbEntity
  8
A-ANNO-TEXT
100
AcDbText
 10
12.88
 20
4.230666666666672
 30
0.0
 40
0.06999999999999999
  1
·
  7
KS-REG
 11
12.88
 21
4.230666666666672
 31
0.0
100
AcDbText
  0
TEXT
  5
109
330
17
100
AcDbEntity
  8
A-ANNO-TEXT
100
AcDbText
 10
13.0
 20
4.230666666666672
 30
0.0
 40
0.06999999999999999
  1
NFHS Basketball Rules 1-1, 1-2-1 — R-012
  7
KS-REG
 11
13.0
 21
4.230666666666672
 31
0.0
100
AcDbText
  0
TEXT
  5
10A
330
17
100
AcDbEntity
  8
A-ANNO-TEXT
100
AcDbText
 10
12.88
 20
4.100250000000006
 30
0.0
 40
0.06999999999999999
  1
·
  7
KS-REG
 11
12.88
 21
4.100250000000006
 31
0.0
100
AcDbText
  0
TEXT
  5
10B
330
17
100
AcDbEntity
  8
A-ANNO-TEXT
100
AcDbText
 10
13.0
 20
4.100250000000006
 30
0.0
 40
0.06999999999999999
  1
AHSAA 2026-27 Wrestling (14 weight classes)
  7
KS-REG
 11
13.0
 21
4.100250000000006
 31
0.0
100
AcDbText
  0
TEXT
  5
10C
330
17
100
AcDbEntity
  8
A-ANNO-TEXT
100
AcDbText
 10
12.88
 20
3.969833333333339
 30
0.0
 40
0.06999999999999999
  1
·
  7
KS-REG
 11
12.88
 21
3.969833333333339
 31
0.0
100
AcDbText
  0
TEXT
  5
10D
330
17
100
AcDbEntity
  8
A-ANNO-TEXT
100
AcDbText
 10
13.0
 20
3.969833333333339
 30
0.0
 40
0.06999999999999999
  1
Loudoun County VA Capital Facilities Manual 2014, §4.3 Rec
  7
KS-REG
 11
13.0
 21
3.969833333333339
 31
0.0
100
AcDbText
  0
TEXT
  5
10E
330
17
100
AcDbEntity
  8
A-ANNO-TEXT
100
AcDbText
 10
13.0
 20
3.8415000000000057
 30
0.0
 40
0.06999999999999999
  1
Center — R-014
  7
KS-REG
 11
13.0
 21
3.8415000000000057
 31
0.0
100
AcDbText
  0
TEXT
  5
10F
330
17
100
AcDbEntity
  8
A-ANNO-TEXT
100
AcDbText
 10
12.88
 20
3.7110833333333386
 30
0.0
 40
0.06999999999999999
  1
·
  7
KS-REG
 11
12.88
 21
3.7110833333333386
 31
0.0
100
AcDbText
  0
TEXT
  5
110
330
17
100
AcDbEntity
  8
A-ANNO-TEXT
100
AcDbText
 10
13.0
 20
3.7110833333333386
 30
0.0
 40
0.06999999999999999
  1
Groton MA Senior Center feasibility study (25% net-to-gross) —
  7
KS-REG
 11
13.0
 21
3.7110833333333386
 31
0.0
100
AcDbText
  0
TEXT
  5
111
330
17
100
AcDbEntity
  8
A-ANNO-TEXT
100
AcDbText
 10
13.0
 20
3.582750000000005
 30
0.0
 40
0.06999999999999999
  1
R-014
  7
KS-REG
 11
13.0
 21
3.582750000000005
 31
0.0
100
AcDbText
  0
TEXT
  5
112
330
17
100
AcDbEntity
  8
A-ANNO-TEXT
100
AcDbText
 10
12.88
 20
3.452333333333338
 30
0.0
 40
0.06999999999999999
  1
·
  7
KS-REG
 11
12.88
 21
3.452333333333338
 31
0.0
100
AcDbText
  0
TEXT
  5
113
330
17
100
AcDbEntity
  8
A-ANNO-TEXT
100
AcDbText
 10
13.0
 20
3.452333333333338
 30
0.0
 40
0.06999999999999999
  1
MIL-HDBK-1027/4A in UFC 4-171-01N (HVAC 5% of gross) — R-014
  7
KS-REG
 11
13.0
 21
3.452333333333338
 31
0.0
100
AcDbText
  0
TEXT
  5
114
330
17
100
AcDbEntity
  8
A-ANNO-TEXT
100
AcDbText
 10
12.88
 20
3.321916666666671
 30
0.0
 40
0.06999999999999999
  1
·
  7
KS-REG
 11
12.88
 21
3.321916666666671
 31
0.0
100
AcDbText
  0
TEXT
  5
115
330
17
100
AcDbEntity
  8
A-ANNO-TEXT
100
AcDbText
 10
13.0
 20
3.321916666666671
 30
0.0
 40
0.06999999999999999
  1
Hussey Seating MAXAM brochure (row spacing); ASI restroom
  7
KS-REG
 11
13.0
 21
3.321916666666671
 31
0.0
100
AcDbText
  0
TEXT
  5
116
330
17
100
AcDbEntity
  8
A-ANNO-TEXT
100
AcDbText
 10
13.0
 20
3.1935833333333377
 30
0.0
 40
0.06999999999999999
  1
guide (stall sizes)
  7
KS-REG
 11
13.0
 21
3.1935833333333377
 31
0.0
100
AcDbText
  0
ENDSEC
  0
SECTION
  2
OBJECTS
  0
DICTIONARY
  5
A
330
0
100
AcDbDictionary
281
1
  3
ACAD_COLOR
350
B
  3
ACAD_GROUP
350
C
  3
ACAD_LAYOUT
350
D
  3
ACAD_MATERIAL
350
E
  3
ACAD_MLEADERSTYLE
350
F
  3
ACAD_MLINESTYLE
350
10
  3
ACAD_PLOTSETTINGS
350
11
  3
ACAD_PLOTSTYLENAME
350
12
  3
ACAD_SCALELIST
350
14
  3
ACAD_TABLESTYLE
350
15
  3
ACAD_VISUALSTYLE
350
16
  3
EZDXF_META
350
2D
  0
DICTIONARY
  5
B
330
A
100
AcDbDictionary
281
1
  0
DICTIONARY
  5
C
330
A
100
AcDbDictionary
281
1
  0
DICTIONARY
  5
D
330
A
100
AcDbDictionary
281
1
  3
Model
350
1A
  3
Layout1
350
1E
  0
DICTIONARY
  5
E
330
A
100
AcDbDictionary
281
1
  3
ByBlock
350
1F
  3
ByLayer
350
20
  3
Global
350
21
  0
DICTIONARY
  5
F
330
A
100
AcDbDictionary
281
1
  3
Standard
350
2C
  0
DICTIONARY
  5
10
330
A
100
AcDbDictionary
281
1
  3
Standard
350
22
  0
DICTIONARY
  5
11
330
A
100
AcDbDictionary
281
1
  0
ACDBDICTIONARYWDFLT
  5
12
330
A
100
AcDbDictionary
281
1
  3
Normal
350
13
100
AcDbDictionaryWithDefault
340
13
  0
ACDBPLACEHOLDER
  5
13
330
12
  0
DICTIONARY
  5
14
330
A
100
AcDbDictionary
281
1
  0
DICTIONARY
  5
15
330
A
100
AcDbDictionary
281
1
  0
DICTIONARY
  5
16
330
A
100
AcDbDictionary
281
1
  0
LAYOUT
  5
1A
330
D
100
AcDbPlotSettings
  1

  4
A3
  6

 40
7.5
 41
20.0
 42
7.5
 43
20.0
 44
420.0
 45
297.0
 46
0.0
 47
0.0
 48
0.0
 49
0.0
140
0.0
141
0.0
142
1.0
143
1.0
 70
1024
 72
1
 73
0
 74
5
  7

 75
16
 76
0
 77
2
 78
300
147
1.0
148
0.0
149
0.0
100
AcDbLayout
  1
Model
 70
1
 71
0
 10
0.0
 20
0.0
 11
420.0
 21
297.0
 12
0.0
 22
0.0
 32
0.0
 14
1e+20
 24
1e+20
 34
1e+20
 15
-1e+20
 25
-1e+20
 35
-1e+20
146
0.0
 13
0.0
 23
0.0
 33
0.0
 16
1.0
 26
0.0
 36
0.0
 17
0.0
 27
1.0
 37
0.0
 76
1
330
17
  0
LAYOUT
  5
1E
330
D
100
AcDbPlotSettings
  1

  4
A3
  6

 40
7.5
 41
20.0
 42
7.5
 43
20.0
 44
420.0
 45
297.0
 46
0.0
 47
0.0
 48
0.0
 49
0.0
140
0.0
141
0.0
142
1.0
143
1.0
 70
0
 72
1
 73
0
 74
5
  7

 75
16
 76
0
 77
2
 78
300
147
1.0
148
0.0
149
0.0
100
AcDbLayout
  1
Layout1
 70
1
 71
1
 10
0.0
 20
0.0
 11
420.0
 21
297.0
 12
0.0
 22
0.0
 32
0.0
 14
1e+20
 24
1e+20
 34
1e+20
 15
-1e+20
 25
-1e+20
 35
-1e+20
146
0.0
 13
0.0
 23
0.0
 33
0.0
 16
1.0
 26
0.0
 36
0.0
 17
0.0
 27
1.0
 37
0.0
 76
1
330
1B
  0
MATERIAL
  5
1F
102
{ACAD_REACTORS
330
E
102
}
330
E
100
AcDbMaterial
  1
ByBlock
  2

 70
0
 40
1.0
 71
1
 41
1.0
 91
-1023410177
 42
1.0
 72
1
  3

 73
1
 74
1
 75
1
 44
0.5
 73
0
 45
1.0
 46
1.0
 77
1
  4

 78
1
 79
1
170
1
 48
1.0
171
1
  6

172
1
173
1
174
1
140
1.0
141
1.0
175
1
  7

176
1
177
1
178
1
143
1.0
179
1
  8

270
1
271
1
272
1
145
1.0
146
1.0
273
1
  9

274
1
275
1
276
1
 42
1.0
 72
1
  3

 73
1
 74
1
 75
1
 94
63
  0
MATERIAL
  5
20
102
{ACAD_REACTORS
330
E
102
}
330
E
100
AcDbMaterial
  1
ByLayer
  2

 70
0
 40
1.0
 71
1
 41
1.0
 91
-1023410177
 42
1.0
 72
1
  3

 73
1
 74
1
 75
1
 44
0.5
 73
0
 45
1.0
 46
1.0
 77
1
  4

 78
1
 79
1
170
1
 48
1.0
171
1
  6

172
1
173
1
174
1
140
1.0
141
1.0
175
1
  7

176
1
177
1
178
1
143
1.0
179
1
  8

270
1
271
1
272
1
145
1.0
146
1.0
273
1
  9

274
1
275
1
276
1
 42
1.0
 72
1
  3

 73
1
 74
1
 75
1
 94
63
  0
MATERIAL
  5
21
102
{ACAD_REACTORS
330
E
102
}
330
E
100
AcDbMaterial
  1
Global
  2

 70
0
 40
1.0
 71
1
 41
1.0
 91
-1023410177
 42
1.0
 72
1
  3

 73
1
 74
1
 75
1
 44
0.5
 73
0
 45
1.0
 46
1.0
 77
1
  4

 78
1
 79
1
170
1
 48
1.0
171
1
  6

172
1
173
1
174
1
140
1.0
141
1.0
175
1
  7

176
1
177
1
178
1
143
1.0
179
1
  8

270
1
271
1
272
1
145
1.0
146
1.0
273
1
  9

274
1
275
1
276
1
 42
1.0
 72
1
  3

 73
1
 74
1
 75
1
 94
63
  0
MLINESTYLE
  5
22
102
{ACAD_REACTORS
330
10
102
}
330
10
100
AcDbMlineStyle
  2
Standard
 70
0
  3

 62
256
 51
90.0
 52
90.0
 71
2
 49
0.5
 62
256
  6
BYLAYER
 49
-0.5
 62
256
  6
BYLAYER
  0
MLEADERSTYLE
  5
2C
102
{ACAD_REACTORS
330
F
102
}
330
F
100
AcDbMLeaderStyle
179
2
170
2
171
1
172
0
 90
2
 40
0.0
 41
0.0
173
1
 91
-1056964608
 92
-2
290
1
 42
2.0
291
1
 43
8.0
  3
Standard
 44
4.0
300

342
29
174
1
175
1
176
0
178
1
 93
-1056964608
 45
4.0
292
0
297
0
 46
4.0
 94
-1056964608
 47
1.0
 49
1.0
140
1.0
294
1
141
0.0
177
0
142
1.0
295
0
296
0
143
3.75
271
0
272
9
273
9
  0
DICTIONARY
  5
2D
330
A
100
AcDbDictionary
280
1
281
1
  3
CREATED_BY_EZDXF
350
2E
  3
WRITTEN_BY_EZDXF
350
119
  0
DICTIONARYVAR
  5
2E
330
2D
100
DictionaryVariables
280
0
  1
1.4.4 @ 2026-10-04T03:54:08.693867+00:00
  0
DICTIONARYVAR
  5
119
330
2D
100
DictionaryVariables
280
0
  1
1.4.4 @ 2026-10-04T03:54:08.700149+00:00
  0
ENDSEC
  0
EOF
