  0
SECTION
  2
HEADER
  9
$ACADVER
  1
AC1024
  9
$ACADMAINTVER
 70
6
  9
$DWGCODEPAGE
  3
ANSI_1252
  9
$LASTSAVEDBY
  1
ezdxf
  9
$INSBASE
 10
0.0
 20
0.0
 30
0.0
  9
$EXTMIN
 10
1e+20
 20
1e+20
 30
1e+20
  9
$EXTMAX
 10
-1e+20
 20
-1e+20
 30
-1e+20
  9
$LIMMIN
 10
0.0
 20
0.0
  9
$LIMMAX
 10
420.0
 20
297.0
  9
$ORTHOMODE
 70
0
  9
$REGENMODE
 70
1
  9
$FILLMODE
 70
1
  9
$QTEXTMODE
 70
0
  9
$MIRRTEXT
 70
1
  9
$LTSCALE
 40
1.0
  9
$ATTMODE
 70
1
  9
$TEXTSIZE
 40
2.5
  9
$TRACEWID
 40
1.0
  9
$TEXTSTYLE
  7
Standard
  9
$CLAYER
  8
0
  9
$CELTYPE
  6
ByLayer
  9
$CECOLOR
 62
256
  9
$CELTSCALE
 40
1.0
  9
$DISPSILH
 70
0
  9
$DIMSCALE
 40
1.0
  9
$DIMASZ
 40
2.5
  9
$DIMEXO
 40
0.625
  9
$DIMDLI
 40
3.75
  9
$DIMRND
 40
0.0
  9
$DIMDLE
 40
0.0
  9
$DIMEXE
 40
1.25
  9
$DIMTP
 40
0.0
  9
$DIMTM
 40
0.0
  9
$DIMTXT
 40
2.5
  9
$DIMCEN
 40
2.5
  9
$DIMTSZ
 40
0.0
  9
$DIMTOL
 70
0
  9
$DIMLIM
 70
0
  9
$DIMTIH
 70
0
  9
$DIMTOH
 70
0
  9
$DIMSE1
 70
0
  9
$DIMSE2
 70
0
  9
$DIMTAD
 70
1
  9
$DIMZIN
 70
8
  9
$DIMBLK
  1

  9
$DIMASO
 70
1
  9
$DIMSHO
 70
1
  9
$DIMPOST
  1

  9
$DIMAPOST
  1

  9
$DIMALT
 70
0
  9
$DIMALTD
 70
3
  9
$DIMALTF
 40
0.03937007874
  9
$DIMLFAC
 40
1.0
  9
$DIMTOFL
 70
1
  9
$DIMTVP
 40
0.0
  9
$DIMTIX
 70
0
  9
$DIMSOXD
 70
0
  9
$DIMSAH
 70
0
  9
$DIMBLK1
  1

  9
$DIMBLK2
  1

  9
$DIMSTYLE
  2
ISO-25
  9
$DIMCLRD
 70
0
  9
$DIMCLRE
 70
0
  9
$DIMCLRT
 70
0
  9
$DIMTFAC
 40
1.0
  9
$DIMGAP
 40
0.625
  9
$DIMJUST
 70
0
  9
$DIMSD1
 70
0
  9
$DIMSD2
 70
0
  9
$DIMTOLJ
 70
0
  9
$DIMTZIN
 70
8
  9
$DIMALTZ
 70
0
  9
$DIMALTTZ
 70
0
  9
$DIMUPT
 70
0
  9
$DIMDEC
 70
2
  9
$DIMTDEC
 70
2
  9
$DIMALTU
 70
2
  9
$DIMALTTD
 70
3
  9
$DIMTXSTY
  7
Standard
  9
$DIMAUNIT
 70
0
  9
$DIMADEC
 70
0
  9
$DIMALTRND
 40
0.0
  9
$DIMAZIN
 70
0
  9
$DIMDSEP
 70
44
  9
$DIMATFIT
 70
3
  9
$DIMFRAC
 70
0
  9
$DIMLDRBLK
  1

  9
$DIMLUNIT
 70
2
  9
$DIMLWD
 70
-2
  9
$DIMLWE
 70
-2
  9
$DIMTMOVE
 70
0
  9
$DIMFXL
 40
1.0
  9
$DIMFXLON
 70
0
  9
$DIMJOGANG
 40
0.785398163397
  9
$DIMTFILL
 70
0
  9
$DIMTFILLCLR
 70
0
  9
$DIMARCSYM
 70
0
  9
$DIMLTYPE
  6

  9
$DIMLTEX1
  6

  9
$DIMLTEX2
  6

  9
$DIMTXTDIRECTION
 70
0
  9
$LUNITS
 70
2
  9
$LUPREC
 70
4
  9
$SKETCHINC
 40
1.0
  9
$FILLETRAD
 40
10.0
  9
$AUNITS
 70
0
  9
$AUPREC
 70
2
  9
$MENU
  1
.
  9
$ELEVATION
 40
0.0
  9
$PELEVATION
 40
0.0
  9
$THICKNESS
 40
0.0
  9
$LIMCHECK
 70
0
  9
$CHAMFERA
 40
0.0
  9
$CHAMFERB
 40
0.0
  9
$CHAMFERC
 40
0.0
  9
$CHAMFERD
 40
0.0
  9
$SKPOLY
 70
0
  9
$TDCREATE
 40
2461317.969351852
  9
$TDUCREATE
 40
2458532.153996898
  9
$TDUPDATE
 40
2461317.969351852
  9
$TDUUPDATE
 40
2458532.1544311
  9
$TDINDWG
 40
0.0
  9
$TDUSRTIMER
 40
0.0
  9
$USRTIMER
 70
1
  9
$ANGBASE
 50
0.0
  9
$ANGDIR
 70
0
  9
$PDMODE
 70
0
  9
$PDSIZE
 40
0.0
  9
$PLINEWID
 40
0.0
  9
$SPLFRAME
 70
0
  9
$SPLINETYPE
 70
6
  9
$SPLINESEGS
 70
8
  9
$HANDSEED
  5
15D
  9
$SURFTAB1
 70
6
  9
$SURFTAB2
 70
6
  9
$SURFTYPE
 70
6
  9
$SURFU
 70
6
  9
$SURFV
 70
6
  9
$UCSBASE
  2

  9
$UCSNAME
  2

  9
$UCSORG
 10
0.0
 20
0.0
 30
0.0
  9
$UCSXDIR
 10
1.0
 20
0.0
 30
0.0
  9
$UCSYDIR
 10
0.0
 20
1.0
 30
0.0
  9
$UCSORTHOREF
  2

  9
$UCSORTHOVIEW
 70
0
  9
$UCSORGTOP
 10
0.0
 20
0.0
 30
0.0
  9
$UCSORGBOTTOM
 10
0.0
 20
0.0
 30
0.0
  9
$UCSORGLEFT
 10
0.0
 20
0.0
 30
0.0
  9
$UCSORGRIGHT
 10
0.0
 20
0.0
 30
0.0
  9
$UCSORGFRONT
 10
0.0
 20
0.0
 30
0.0
  9
$UCSORGBACK
 10
0.0
 20
0.0
 30
0.0
  9
$PUCSBASE
  2

  9
$PUCSNAME
  2

  9
$PUCSORG
 10
0.0
 20
0.0
 30
0.0
  9
$PUCSXDIR
 10
1.0
 20
0.0
 30
0.0
  9
$PUCSYDIR
 10
0.0
 20
1.0
 30
0.0
  9
$PUCSORTHOREF
  2

  9
$PUCSORTHOVIEW
 70
0
  9
$PUCSORGTOP
 10
0.0
 20
0.0
 30
0.0
  9
$PUCSORGBOTTOM
 10
0.0
 20
0.0
 30
0.0
  9
$PUCSORGLEFT
 10
0.0
 20
0.0
 30
0.0
  9
$PUCSORGRIGHT
 10
0.0
 20
0.0
 30
0.0
  9
$PUCSORGFRONT
 10
0.0
 20
0.0
 30
0.0
  9
$PUCSORGBACK
 10
0.0
 20
0.0
 30
0.0
  9
$USERI1
 70
0
  9
$USERI2
 70
0
  9
$USERI3
 70
0
  9
$USERI4
 70
0
  9
$USERI5
 70
0
  9
$USERR1
 40
0.0
  9
$USERR2
 40
0.0
  9
$USERR3
 40
0.0
  9
$USERR4
 40
0.0
  9
$USERR5
 40
0.0
  9
$WORLDVIEW
 70
1
  9
$SHADEDGE
 70
3
  9
$SHADEDIF
 70
70
  9
$TILEMODE
 70
1
  9
$MAXACTVP
 70
64
  9
$PINSBASE
 10
0.0
 20
0.0
 30
0.0
  9
$PLIMCHECK
 70
0
  9
$PEXTMIN
 10
1e+20
 20
1e+20
 30
1e+20
  9
$PEXTMAX
 10
-1e+20
 20
-1e+20
 30
-1e+20
  9
$PLIMMIN
 10
0.0
 20
0.0
  9
$PLIMMAX
 10
420.0
 20
297.0
  9
$UNITMODE
 70
0
  9
$VISRETAIN
 70
1
  9
$PLINEGEN
 70
0
  9
$PSLTSCALE
 70
1
  9
$TREEDEPTH
 70
3020
  9
$CMLSTYLE
  2
Standard
  9
$CMLJUST
 70
0
  9
$CMLSCALE
 40
20.0
  9
$PROXYGRAPHICS
 70
1
  9
$MEASUREMENT
 70
0
  9
$CELWEIGHT
370
-1
  9
$ENDCAPS
280
0
  9
$JOINSTYLE
280
0
  9
$LWDISPLAY
290
0
  9
$INSUNITS
 70
1
  9
$HYPERLINKBASE
  1

  9
$STYLESHEET
  1

  9
$XEDIT
290
1
  9
$CEPSNTYPE
380
0
  9
$PSTYLEMODE
290
1
  9
$FINGERPRINTGUID
  2
{5489D05F-124E-41AB-BFA1-38A168E355C5}
  9
$VERSIONGUID
  2
{CA694D83-4B52-4FA2-9724-5AD193675E0D}
  9
$EXTNAMES
290
1
  9
$PSVPSCALE
 40
0.0
  9
$OLESTARTUP
290
0
  9
$SORTENTS
280
127
  9
$INDEXCTL
280
0
  9
$HIDETEXT
280
1
  9
$XCLIPFRAME
280
1
  9
$HALOGAP
280
0
  9
$OBSCOLOR
 70
257
  9
$OBSLTYPE
280
0
  9
$INTERSECTIONDISPLAY
280
0
  9
$INTERSECTIONCOLOR
 70
257
  9
$DIMASSOC
280
2
  9
$PROJECTNAME
  1

  9
$CAMERADISPLAY
290
0
  9
$LENSLENGTH
 40
50.0
  9
$CAMERAHEIGHT
 40
0.0
  9
$STEPSPERSEC
 40
24.0
  9
$STEPSIZE
 40
100.0
  9
$3DDWFPREC
 40
2.0
  9
$PSOLWIDTH
 40
0.005
  9
$PSOLHEIGHT
 40
0.08
  9
$LOFTANG1
 40
1.570796326795
  9
$LOFTANG2
 40
1.570796326795
  9
$LOFTMAG1
 40
0.0
  9
$LOFTMAG2
 40
0.0
  9
$LOFTPARAM
 70
7
  9
$LOFTNORMALS
280
1
  9
$LATITUDE
 40
37.795
  9
$LONGITUDE
 40
-122.394
  9
$NORTHDIRECTION
 40
0.0
  9
$TIMEZONE
 70
-8000
  9
$LIGHTGLYPHDISPLAY
280
1
  9
$TILEMODELIGHTSYNCH
280
1
  9
$CMATERIAL
347
20
  9
$SOLIDHIST
280
0
  9
$SHOWHIST
280
1
  9
$DWFFRAME
280
2
  9
$DGNFRAME
280
2
  9
$REALWORLDSCALE
290
1
  9
$INTERFERECOLOR
 62
256
  9
$CSHADOW
280
0
  9
$SHADOWPLANELOCATION
 40
0.0
  0
ENDSEC
  0
SECTION
  2
CLASSES
  0
CLASS
  1
ACDBDICTIONARYWDFLT
  2
AcDbDictionaryWithDefault
  3
ObjectDBX Classes
 90
0
 91
0
280
0
281
0
  0
CLASS
  1
SUN
  2
AcDbSun
  3
SCENEOE
 90
1153
 91
0
280
0
281
0
  0
CLASS
  1
VISUALSTYLE
  2
AcDbVisualStyle
  3
ObjectDBX Classes
 90
4095
 91
0
280
0
281
0
  0
CLASS
  1
MATERIAL
  2
AcDbMaterial
  3
ObjectDBX Classes
 90
1153
 91
0
280
0
281
0
  0
CLASS
  1
SCALE
  2
AcDbScale
  3
ObjectDBX Classes
 90
1153
 91
0
280
0
281
0
  0
CLASS
  1
TABLESTYLE
  2
AcDbTableStyle
  3
ObjectDBX Classes
 90
4095
 91
0
280
0
281
0
  0
CLASS
  1
MLEADERSTYLE
  2
AcDbMLeaderStyle
  3
ACDB_MLEADERSTYLE_CLASS
 90
4095
 91
0
280
0
281
0
  0
CLASS
  1
DICTIONARYVAR
  2
AcDbDictionaryVar
  3
ObjectDBX Classes
 90
0
 91
0
280
0
281
0
  0
CLASS
  1
CELLSTYLEMAP
  2
AcDbCellStyleMap
  3
ObjectDBX Classes
 90
1152
 91
0
280
0
281
0
  0
CLASS
  1
MENTALRAYRENDERSETTINGS
  2
AcDbMentalRayRenderSettings
  3
SCENEOE
 90
1024
 91
0
280
0
281
0
  0
CLASS
  1
ACDBDETAILVIEWSTYLE
  2
AcDbDetailViewStyle
  3
ObjectDBX Classes
 90
1025
 91
0
280
0
281
0
  0
CLASS
  1
ACDBSECTIONVIEWSTYLE
  2
AcDbSectionViewStyle
  3
ObjectDBX Classes
 90
1025
 91
0
280
0
281
0
  0
CLASS
  1
RASTERVARIABLES
  2
AcDbRasterVariables
  3
ISM
 90
0
 91
0
280
0
281
0
  0
CLASS
  1
ACDBPLACEHOLDER
  2
AcDbPlaceHolder
  3
ObjectDBX Classes
 90
0
 91
0
280
0
281
0
  0
CLASS
  1
LAYOUT
  2
AcDbLayout
  3
ObjectDBX Classes
 90
0
 91
0
280
0
281
0
  0
ENDSEC
  0
SECTION
  2
TABLES
  0
TABLE
  2
VPORT
  5
8
330
0
100
AcDbSymbolTable
 70
1
  0
VPORT
  5
23
330
8
100
AcDbSymbolTableRecord
100
AcDbViewportTableRecord
  2
*Active
 70
0
 10
0.0
 20
0.0
 11
1.0
 21
1.0
 12
0.0
 22
0.0
 13
0.0
 23
0.0
 14
0.5
 24
0.5
 15
0.5
 25
0.5
 16
0.0
 26
0.0
 36
1.0
 17
0.0
 27
0.0
 37
0.0
 40
1000.0
 41
1.34
 42
50.0
 43
0.0
 44
0.0
 50
0.0
 51
0.0
 71
0
 72
1000
 73
1
 74
3
 75
0
 76
0
 77
0
 78
0
281
0
 65
0
146
0.0
  0
ENDTAB
  0
TABLE
  2
LTYPE
  5
2
330
0
100
AcDbSymbolTable
 70
3
  0
LTYPE
  5
24
330
2
100
AcDbSymbolTableRecord
100
AcDbLinetypeTableRecord
  2
ByBlock
 70
0
  3

 72
65
 73
0
 40
0.0
  0
LTYPE
  5
25
330
2
100
AcDbSymbolTableRecord
100
AcDbLinetypeTableRecord
  2
ByLayer
 70
0
  3

 72
65
 73
0
 40
0.0
  0
LTYPE
  5
26
330
2
100
AcDbSymbolTableRecord
100
AcDbLinetypeTableRecord
  2
Continuous
 70
0
  3

 72
65
 73
0
 40
0.0
  0
ENDTAB
  0
TABLE
  2
LAYER
  5
1
330
0
100
AcDbSymbolTable
 70
5
  0
LAYER
  5
27
330
1
100
AcDbSymbolTableRecord
100
AcDbLayerTableRecord
  2
0
 70
0
 62
7
  6
Continuous
370
-3
390
13
347
21
  0
LAYER
  5
28
330
1
100
AcDbSymbolTableRecord
100
AcDbLayerTableRecord
  2
Defpoints
 70
0
 62
7
  6
Continuous
290
0
370
-3
390
13
347
21
  0
LAYER
  5
31
330
1
100
AcDbSymbolTableRecord
100
AcDbLayerTableRecord
  2
G-ANNO-TTLB
 70
0
 62
7
  6
Continuous
370
-3
390
13
347
21
  0
LAYER
  5
32
330
1
100
AcDbSymbolTableRecord
100
AcDbLayerTableRecord
  2
A-ANNO-TEXT
 70
0
 62
7
  6
Continuous
370
-3
390
13
347
21
  0
LAYER
  5
33
330
1
100
AcDbSymbolTableRecord
100
AcDbLayerTableRecord
  2
A-ANNO-TABL
 70
0
 62
7
  6
Continuous
370
-3
390
13
347
21
  0
ENDTAB
  0
TABLE
  2
STYLE
  5
5
330
0
100
AcDbSymbolTable
 70
3
  0
STYLE
  5
29
330
5
100
AcDbSymbolTableRecord
100
AcDbTextStyleTableRecord
  2
Standard
 70
0
 40
0.0
 41
1.0
 50
0.0
 71
0
 42
2.5
  3
txt
  4

  0
STYLE
  5
2F
330
5
100
AcDbSymbolTableRecord
100
AcDbTextStyleTableRecord
  2
KS-REG
 70
0
 40
0.0
 41
1.0
 50
0.0
 71
0
 42
2.5
  3
DejaVuSans.ttf
  4

  0
STYLE
  5
30
330
5
100
AcDbSymbolTableRecord
100
AcDbTextStyleTableRecord
  2
KS-BOLD
 70
0
 40
0.0
 41
1.0
 50
0.0
 71
0
 42
2.5
  3
DejaVuSans-Bold.ttf
  4

  0
ENDTAB
  0
TABLE
  2
VIEW
  5
7
330
0
100
AcDbSymbolTable
 70
0
  0
ENDTAB
  0
TABLE
  2
UCS
  5
6
330
0
100
AcDbSymbolTable
 70
0
  0
ENDTAB
  0
TABLE
  2
APPID
  5
3
330
0
100
AcDbSymbolTable
 70
3
  0
APPID
  5
2A
330
3
100
AcDbSymbolTableRecord
100
AcDbRegAppTableRecord
  2
ACAD
 70
0
  0
APPID
  5
15A
330
3
100
AcDbSymbolTableRecord
100
AcDbRegAppTableRecord
  2
HATCHBACKGROUNDCOLOR
 70
0
  0
APPID
  5
15B
330
3
100
AcDbSymbolTableRecord
100
AcDbRegAppTableRecord
  2
EZDXF
 70
0
  0
ENDTAB
  0
TABLE
  2
DIMSTYLE
  5
4
330
0
100
AcDbSymbolTable
 70
1
100
AcDbDimStyleTable
  0
DIMSTYLE
105
2B
330
4
100
AcDbSymbolTableRecord
100
AcDbDimStyleTableRecord
  2
Standard
 70
0
 40
1.0
 41
2.5
 42
0.625
 43
3.75
 44
1.25
 45
0.0
 46
0.0
 47
0.0
 48
0.0
 49
2.5
140
2.5
141
2.5
142
0.0
143
0.03937007874
144
1.0
145
0.0
146
1.0
147
0.625
148
0.0
 69
0
 70
0
 71
0
 72
0
 73
0
 74
0
 75
0
 76
0
 77
1
 78
8
 79
3
170
0
171
3
172
1
173
0
174
0
175
0
176
0
177
0
178
0
179
2
271
2
272
2
273
2
274
3
275
0
276
0
277
2
278
44
279
0
280
0
281
0
282
0
283
0
284
8
285
0
286
0
288
0
289
3
290
0
371
-2
372
-2
  0
ENDTAB
  0
TABLE
  2
BLOCK_RECORD
  5
9
330
0
100
AcDbSymbolTable
 70
2
  0
BLOCK_RECORD
  5
17
330
9
100
AcDbSymbolTableRecord
100
AcDbBlockTableRecord
  2
*Model_Space
340
1A
 70
0
280
1
281
0
  0
BLOCK_RECORD
  5
1B
330
9
100
AcDbSymbolTableRecord
100
AcDbBlockTableRecord
  2
*Paper_Space
340
1E
 70
0
280
1
281
0
  0
ENDTAB
  0
ENDSEC
  0
SECTION
  2
BLOCKS
  0
BLOCK
  5
18
330
17
100
AcDbEntity
  8
0
100
AcDbBlockBegin
  2
*Model_Space
 70
0
 10
0.0
 20
0.0
 30
0.0
  3
*Model_Space
  1

  0
ENDBLK
  5
19
330
17
100
AcDbEntity
  8
0
100
AcDbBlockEnd
  0
BLOCK
  5
1C
330
1B
100
AcDbEntity
  8
0
100
AcDbBlockBegin
  2
*Paper_Space
 70
0
 10
0.0
 20
0.0
 30
0.0
  3
*Paper_Space
  1

  0
ENDBLK
  5
1D
330
1B
100
AcDbEntity
  8
0
100
AcDbBlockEnd
  0
ENDSEC
  0
SECTION
  2
ENTITIES
  0
LWPOLYLINE
  5
34
330
17
100
AcDbEntity
  8
G-ANNO-TTLB
100
AcDbPolyline
 90
4
 70
1
 10
0.5
 20
0.5
 10
16.5
 20
0.5
 10
16.5
 20
10.5
 10
0.5
 20
10.5
  0
LWPOLYLINE
  5
35
330
17
100
AcDbEntity
  8
G-ANNO-TTLB
100
AcDbPolyline
 90
4
 70
1
 10
0.5
 20
1.45
 10
16.5
 20
1.45
 10
16.5
 20
1.85
 10
0.5
 20
1.85
  0
TEXT
  5
36
330
17
100
AcDbEntity
  8
G-ANNO-TTLB
100
AcDbText
 10
8.5
 20
1.5699999999999998
 30
0.0
 40
0.16999999999999998
  1
PRELIMINARY — CONCEPTUAL DESIGN — NOT FOR CONSTRUCTION
  7
KS-BOLD
 72
1
 11
8.5
 21
1.5699999999999998
 31
0.0
100
AcDbText
  0
LINE
  5
37
330
17
100
AcDbEntity
  8
G-ANNO-TTLB
100
AcDbLine
 10
0.5
 20
1.45
 30
0.0
 11
16.5
 21
1.45
 31
0.0
  0
TEXT
  5
38
330
17
100
AcDbEntity
  8
G-ANNO-TTLB
100
AcDbText
 10
0.58
 20
1.28
 30
0.0
 40
0.06999999999999999
  1
PROJECT
  7
KS-REG
 11
0.58
 21
1.28
 31
0.0
100
AcDbText
  0
TEXT
  5
39
330
17
100
AcDbEntity
  8
G-ANNO-TTLB
100
AcDbText
 10
0.58
 20
0.9991666666666666
 30
0.0
 40
0.11499999999999999
  1
Hazel Green Regional Athletic Complex
  7
KS-BOLD
 11
0.58
 21
0.9991666666666666
 31
0.0
100
AcDbText
  0
TEXT
  5
3A
330
17
100
AcDbEntity
  8
G-ANNO-TTLB
100
AcDbText
 10
0.58
 20
0.7883333333333333
 30
0.0
 40
0.11499999999999999
  1
Trojan Horse Arena · Hazel Green area, Madison
  7
KS-BOLD
 11
0.58
 21
0.7883333333333333
 31
0.0
100
AcDbText
  0
TEXT
  5
3B
330
17
100
AcDbEntity
  8
G-ANNO-TTLB
100
AcDbText
 10
0.58
 20
0.5775
 30
0.0
 40
0.11499999999999999
  1
County, Alabama (site TBD, D-006)
  7
KS-BOLD
 11
0.58
 21
0.5775
 31
0.0
100
AcDbText
  0
LINE
  5
3C
330
17
100
AcDbEntity
  8
G-ANNO-TTLB
100
AcDbLine
 10
5.2
 20
0.5
 30
0.0
 11
5.2
 21
1.45
 31
0.0
  0
TEXT
  5
3D
330
17
100
AcDbEntity
  8
G-ANNO-TTLB
100
AcDbText
 10
5.28
 20
1.28
 30
0.0
 40
0.06999999999999999
  1
PHASE
  7
KS-REG
 11
5.28
 21
1.28
 31
0.0
100
AcDbText
  0
TEXT
  5
3E
330
17
100
AcDbEntity
  8
G-ANNO-TTLB
100
AcDbText
 10
5.28
 20
0.9716666666666667
 30
0.0
 40
0.13
  1
PHASE 2
  7
KS-BOLD
 11
5.28
 21
0.9716666666666667
 31
0.0
100
AcDbText
  0
LINE
  5
3F
330
17
100
AcDbEntity
  8
G-ANNO-TTLB
100
AcDbLine
 10
6.7
 20
0.5
 30
0.0
 11
6.7
 21
1.45
 31
0.0
  0
TEXT
  5
40
330
17
100
AcDbEntity
  8
G-ANNO-TTLB
100
AcDbText
 10
6.78
 20
1.28
 30
0.0
 40
0.06999999999999999
  1
SHEET TITLE
  7
KS-REG
 11
6.78
 21
1.28
 31
0.0
100
AcDbText
  0
TEXT
  5
41
330
17
100
AcDbEntity
  8
G-ANNO-TTLB
100
AcDbText
 10
6.78
 20
0.9991666666666666
 30
0.0
 40
0.11499999999999999
  1
PROGRAM TEST-FIT, 2 LEVELS
  7
KS-BOLD
 11
6.78
 21
0.9991666666666666
 31
0.0
100
AcDbText
  0
TEXT
  5
42
330
17
100
AcDbEntity
  8
G-ANNO-TTLB
100
AcDbText
 10
6.78
 20
0.7883333333333333
 30
0.0
 40
0.11499999999999999
  1
FOOTPRINT MATH, NOT A PLAN
  7
KS-BOLD
 11
6.78
 21
0.7883333333333333
 31
0.0
100
AcDbText
  0
LINE
  5
43
330
17
100
AcDbEntity
  8
G-ANNO-TTLB
100
AcDbLine
 10
9.8
 20
0.5
 30
0.0
 11
9.8
 21
1.45
 31
0.0
  0
TEXT
  5
44
330
17
100
AcDbEntity
  8
G-ANNO-TTLB
100
AcDbText
 10
9.88
 20
1.28
 30
0.0
 40
0.06999999999999999
  1
SCALE
  7
KS-REG
 11
9.88
 21
1.28
 31
0.0
100
AcDbText
  0
TEXT
  5
45
330
17
100
AcDbEntity
  8
G-ANNO-TTLB
100
AcDbText
 10
9.88
 20
0.9716666666666667
 30
0.0
 40
0.13
  1
NTS
  7
KS-BOLD
 11
9.88
 21
0.9716666666666667
 31
0.0
100
AcDbText
  0
LINE
  5
46
330
17
100
AcDbEntity
  8
G-ANNO-TTLB
100
AcDbLine
 10
10.700000000000001
 20
0.5
 30
0.0
 11
10.700000000000001
 21
1.45
 31
0.0
  0
TEXT
  5
47
330
17
100
AcDbEntity
  8
G-ANNO-TTLB
100
AcDbText
 10
10.780000000000001
 20
1.28
 30
0.0
 40
0.06999999999999999
  1
DATE
  7
KS-REG
 11
10.780000000000001
 21
1.28
 31
0.0
100
AcDbText
  0
TEXT
  5
48
330
17
100
AcDbEntity
  8
G-ANNO-TTLB
100
AcDbText
 10
10.780000000000001
 20
0.9716666666666667
 30
0.0
 40
0.13
  1
October
  7
KS-BOLD
 11
10.780000000000001
 21
0.9716666666666667
 31
0.0
100
AcDbText
  0
TEXT
  5
49
330
17
100
AcDbEntity
  8
G-ANNO-TTLB
100
AcDbText
 10
10.780000000000001
 20
0.7333333333333334
 30
0.0
 40
0.13
  1
2026
  7
KS-BOLD
 11
10.780000000000001
 21
0.7333333333333334
 31
0.0
100
AcDbText
  0
LINE
  5
4A
330
17
100
AcDbEntity
  8
G-ANNO-TTLB
100
AcDbLine
 10
12.15
 20
0.5
 30
0.0
 11
12.15
 21
1.45
 31
0.0
  0
TEXT
  5
4B
330
17
100
AcDbEntity
  8
G-ANNO-TTLB
100
AcDbText
 10
12.23
 20
1.28
 30
0.0
 40
0.06999999999999999
  1
REV
  7
KS-REG
 11
12.23
 21
1.28
 31
0.0
100
AcDbText
  0
TEXT
  5
4C
330
17
100
AcDbEntity
  8
G-ANNO-TTLB
100
AcDbText
 10
12.23
 20
0.9716666666666667
 30
0.0
 40
0.13
  1
B
  7
KS-BOLD
 11
12.23
 21
0.9716666666666667
 31
0.0
100
AcDbText
  0
LINE
  5
4D
330
17
100
AcDbEntity
  8
G-ANNO-TTLB
100
AcDbLine
 10
12.9
 20
0.5
 30
0.0
 11
12.9
 21
1.45
 31
0.0
  0
TEXT
  5
4E
330
17
100
AcDbEntity
  8
G-ANNO-TTLB
100
AcDbText
 10
12.98
 20
1.28
 30
0.0
 40
0.06999999999999999
  1
DRAWN BY
  7
KS-REG
 11
12.98
 21
1.28
 31
0.0
100
AcDbText
  0
TEXT
  5
4F
330
17
100
AcDbEntity
  8
G-ANNO-TTLB
100
AcDbText
 10
12.98
 20
1.0358333333333332
 30
0.0
 40
0.095
  1
Drawn by KEYSTONE (AI) for
  7
KS-REG
 11
12.98
 21
1.0358333333333332
 31
0.0
100
AcDbText
  0
TEXT
  5
50
330
17
100
AcDbEntity
  8
G-ANNO-TTLB
100
AcDbText
 10
12.98
 20
0.8616666666666665
 30
0.0
 40
0.095
  1
Shane Brazelton
  7
KS-REG
 11
12.98
 21
0.8616666666666665
 31
0.0
100
AcDbText
  0
LINE
  5
51
330
17
100
AcDbEntity
  8
G-ANNO-TTLB
100
AcDbLine
 10
15.0
 20
0.5
 30
0.0
 11
15.0
 21
1.45
 31
0.0
  0
TEXT
  5
52
330
17
100
AcDbEntity
  8
G-ANNO-TTLB
100
AcDbText
 10
15.08
 20
1.28
 30
0.0
 40
0.06999999999999999
  1
SHEET
  7
KS-REG
 11
15.08
 21
1.28
 31
0.0
100
AcDbText
  0
TEXT
  5
53
330
17
100
AcDbEntity
  8
G-ANNO-TTLB
100
AcDbText
 10
15.75
 20
0.77
 30
0.0
 40
0.18
  1
P2-G-003
  7
KS-BOLD
 72
1
 11
15.75
 21
0.77
 31
0.0
100
AcDbText
  0
TEXT
  5
54
330
17
100
AcDbEntity
  8
A-ANNO-TEXT
100
AcDbText
 10
0.6799999999999999
 20
10.180000000000001
 30
0.0
 40
0.11499999999999999
  1
1  STACKING — NET SF BY LEVEL (BASE, FULL PROGRAM, 50/50 SEATS)
  7
KS-BOLD
 11
0.6799999999999999
 21
10.180000000000001
 31
0.0
100
AcDbText
  0
TEXT
  5
55
330
17
100
AcDbEntity
  8
A-ANNO-TABL
100
AcDbText
 10
0.6799999999999999
 20
9.952
 30
0.0
 40
0.076
  1
ROOM / SPACE
  7
KS-BOLD
 11
0.6799999999999999
 21
9.952
 31
0.0
100
AcDbText
  0
TEXT
  5
56
330
17
100
AcDbEntity
  8
A-ANNO-TABL
100
AcDbText
 10
4.18
 20
9.952
 30
0.0
 40
0.076
  1
NET SF
  7
KS-BOLD
 72
2
 11
4.18
 21
9.952
 31
0.0
100
AcDbText
  0
TEXT
  5
57
330
17
100
AcDbEntity
  8
A-ANNO-TABL
100
AcDbText
 10
4.28
 20
9.952
 30
0.0
 40
0.076
  1
WHY THIS LEVEL
  7
KS-BOLD
 11
4.28
 21
9.952
 31
0.0
100
AcDbText
  0
TEXT
  5
58
330
17
100
AcDbEntity
  8
A-ANNO-TABL
100
AcDbText
 10
6.18
 20
9.952
 30
0.0
 40
0.076
  1
SF STATUS
  7
KS-BOLD
 11
6.18
 21
9.952
 31
0.0
100
AcDbText
  0
LINE
  5
59
330
17
100
AcDbEntity
  8
A-ANNO-TABL
100
AcDbLine
 10
0.6799999999999999
 20
9.882000000000001
 30
0.0
 11
7.279999999999999
 21
9.882000000000001
 31
0.0
  0
TEXT
  5
5A
330
17
100
AcDbEntity
  8
A-ANNO-TABL
100
AcDbText
 10
0.6799999999999999
 20
9.744
 30
0.0
 40
0.078
  1
LEVEL 1 (GROUND) — MUST STAY AT GRADE
  7
KS-BOLD
 11
0.6799999999999999
 21
9.744
 31
0.0
100
AcDbText
  0
TEXT
  5
5B
330
17
100
AcDbEntity
  8
A-ANNO-TABL
100
AcDbText
 10
4.18
 20
9.744
 30
0.0
 40
0.078
  1
45,713
  7
KS-BOLD
 72
2
 11
4.18
 21
9.744
 31
0.0
100
AcDbText
  0
TEXT
  5
5C
330
17
100
AcDbEntity
  8
A-ANNO-TABL
100
AcDbText
 10
0.7799999999999999
 20
9.565999999999999
 30
0.0
 40
0.083
  1
Championship Wrestling Arena (event floor)
  7
KS-BOLD
 11
0.7799999999999999
 21
9.565999999999999
 31
0.0
100
AcDbText
  0
TEXT
  5
5D
330
17
100
AcDbEntity
  8
A-ANNO-TABL
100
AcDbText
 10
4.18
 20
9.565999999999999
 30
0.0
 40
0.083
  1
22,000
  7
KS-REG
 72
2
 11
4.18
 21
9.565999999999999
 31
0.0
100
AcDbText
  0
TEXT
  5
5E
330
17
100
AcDbEntity
  8
A-ANNO-TABL
100
AcDbText
 10
4.28
 20
9.565999999999999
 30
0.0
 40
0.071
  1
double height; nothing above
  7
KS-REG
 11
4.28
 21
9.565999999999999
 31
0.0
100
AcDbText
  0
TEXT
  5
5F
330
17
100
AcDbEntity
  8
A-ANNO-TABL
100
AcDbText
 10
6.18
 20
9.565999999999999
 30
0.0
 40
0.072
  1
TAG · HIGH
  7
KS-REG
 11
6.18
 21
9.565999999999999
 31
0.0
100
AcDbText
  0
TEXT
  5
60
330
17
100
AcDbEntity
  8
A-ANNO-TABL
100
AcDbText
 10
0.7799999999999999
 20
9.387999999999998
 30
0.0
 40
0.083
  1
Lower seating tier (1,100 seats)
  7
KS-BOLD
 11
0.7799999999999999
 21
9.387999999999998
 31
0.0
100
AcDbText
  0
TEXT
  5
61
330
17
100
AcDbEntity
  8
A-ANNO-TABL
100
AcDbText
 10
4.18
 20
9.387999999999998
 30
0.0
 40
0.083
  1
6,600
  7
KS-REG
 72
2
 11
4.18
 21
9.387999999999998
 31
0.0
100
AcDbText
  0
TEXT
  5
62
330
17
100
AcDbEntity
  8
A-ANNO-TABL
100
AcDbText
 10
4.28
 20
9.387999999999998
 30
0.0
 40
0.071
  1
lower tier, inside arena volume
  7
KS-REG
 11
4.28
 21
9.387999999999998
 31
0.0
100
AcDbText
  0
TEXT
  5
63
330
17
100
AcDbEntity
  8
A-ANNO-TABL
100
AcDbText
 10
6.18
 20
9.387999999999998
 30
0.0
 40
0.072
  1
CITED · MED
  7
KS-REG
 11
6.18
 21
9.387999999999998
 31
0.0
100
AcDbText
  0
TEXT
  5
64
330
17
100
AcDbEntity
  8
A-ANNO-TABL
100
AcDbText
 10
0.7799999999999999
 20
9.209999999999997
 30
0.0
 40
0.083
  1
Boys Locker Room
  7
KS-REG
 11
0.7799999999999999
 21
9.209999999999997
 31
0.0
100
AcDbText
  0
TEXT
  5
65
330
17
100
AcDbEntity
  8
A-ANNO-TABL
100
AcDbText
 10
4.18
 20
9.209999999999997
 30
0.0
 40
0.083
  1
3,500
  7
KS-REG
 72
2
 11
4.18
 21
9.209999999999997
 31
0.0
100
AcDbText
  0
TEXT
  5
66
330
17
100
AcDbEntity
  8
A-ANNO-TABL
100
AcDbText
 10
4.28
 20
9.209999999999997
 30
0.0
 40
0.071
  1
next to the floor (DR1)
  7
KS-REG
 11
4.28
 21
9.209999999999997
 31
0.0
100
AcDbText
  0
TEXT
  5
67
330
17
100
AcDbEntity
  8
A-ANNO-TABL
100
AcDbText
 10
6.18
 20
9.209999999999997
 30
0.0
 40
0.072
  1
TAG · HIGH
  7
KS-REG
 11
6.18
 21
9.209999999999997
 31
0.0
100
AcDbText
  0
TEXT
  5
68
330
17
100
AcDbEntity
  8
A-ANNO-TABL
100
AcDbText
 10
0.7799999999999999
 20
9.031999999999996
 30
0.0
 40
0.083
  1
Girls Locker Room (as tagged; D-013)
  7
KS-REG
 11
0.7799999999999999
 21
9.031999999999996
 31
0.0
100
AcDbText
  0
TEXT
  5
69
330
17
100
AcDbEntity
  8
A-ANNO-TABL
100
AcDbText
 10
4.18
 20
9.031999999999996
 30
0.0
 40
0.083
  1
3,503
  7
KS-REG
 72
2
 11
4.18
 21
9.031999999999996
 31
0.0
100
AcDbText
  0
TEXT
  5
6A
330
17
100
AcDbEntity
  8
A-ANNO-TABL
100
AcDbText
 10
4.28
 20
9.031999999999996
 30
0.0
 40
0.071
  1
next to the floor (DR1; D-013)
  7
KS-REG
 11
4.28
 21
9.031999999999996
 31
0.0
100
AcDbText
  0
TEXT
  5
6B
330
17
100
AcDbEntity
  8
A-ANNO-TABL
100
AcDbText
 10
6.18
 20
9.031999999999996
 30
0.0
 40
0.072
  1
TAG · HIGH
  7
KS-REG
 11
6.18
 21
9.031999999999996
 31
0.0
100
AcDbText
  0
TEXT
  5
6C
330
17
100
AcDbEntity
  8
A-ANNO-TABL
100
AcDbText
 10
0.7799999999999999
 20
8.853999999999996
 30
0.0
 40
0.083
  1
Event / visitor locker rooms (DR3)
  7
KS-REG
 11
0.7799999999999999
 21
8.853999999999996
 31
0.0
100
AcDbText
  0
TEXT
  5
6D
330
17
100
AcDbEntity
  8
A-ANNO-TABL
100
AcDbText
 10
4.18
 20
8.853999999999996
 30
0.0
 40
0.083
  1
3,600
  7
KS-REG
 72
2
 11
4.18
 21
8.853999999999996
 31
0.0
100
AcDbText
  0
TEXT
  5
6E
330
17
100
AcDbEntity
  8
A-ANNO-TABL
100
AcDbText
 10
4.28
 20
8.853999999999996
 30
0.0
 40
0.071
  1
under bowl, next to floor (DR3)
  7
KS-REG
 11
4.28
 21
8.853999999999996
 31
0.0
100
AcDbText
  0
TEXT
  5
6F
330
17
100
AcDbEntity
  8
A-ANNO-TABL
100
AcDbText
 10
6.18
 20
8.853999999999996
 30
0.0
 40
0.072
  1
ASSUMED · LOW
  7
KS-REG
 11
6.18
 21
8.853999999999996
 31
0.0
100
AcDbText
  0
TEXT
  5
70
330
17
100
AcDbEntity
  8
A-ANNO-TABL
100
AcDbText
 10
0.7799999999999999
 20
8.675999999999995
 30
0.0
 40
0.083
  1
Foyer / trophy lobby (hall of champions)
  7
KS-REG
 11
0.7799999999999999
 21
8.675999999999995
 31
0.0
100
AcDbText
  0
TEXT
  5
71
330
17
100
AcDbEntity
  8
A-ANNO-TABL
100
AcDbText
 10
4.18
 20
8.675999999999995
 30
0.0
 40
0.083
  1
800
  7
KS-REG
 72
2
 11
4.18
 21
8.675999999999995
 31
0.0
100
AcDbText
  0
TEXT
  5
72
330
17
100
AcDbEntity
  8
A-ANNO-TABL
100
AcDbText
 10
4.28
 20
8.675999999999995
 30
0.0
 40
0.071
  1
main entry at grade (DR5)
  7
KS-REG
 11
4.28
 21
8.675999999999995
 31
0.0
100
AcDbText
  0
TEXT
  5
73
330
17
100
AcDbEntity
  8
A-ANNO-TABL
100
AcDbText
 10
6.18
 20
8.675999999999995
 30
0.0
 40
0.072
  1
CITED · MED
  7
KS-REG
 11
6.18
 21
8.675999999999995
 31
0.0
100
AcDbText
  0
TEXT
  5
74
330
17
100
AcDbEntity
  8
A-ANNO-TABL
100
AcDbText
 10
0.7799999999999999
 20
8.497999999999994
 30
0.0
 40
0.083
  1
Lower concourse
  7
KS-REG
 11
0.7799999999999999
 21
8.497999999999994
 31
0.0
100
AcDbText
  0
TEXT
  5
75
330
17
100
AcDbEntity
  8
A-ANNO-TABL
100
AcDbText
 10
4.18
 20
8.497999999999994
 30
0.0
 40
0.083
  1
1,375
  7
KS-REG
 72
2
 11
4.18
 21
8.497999999999994
 31
0.0
100
AcDbText
  0
TEXT
  5
76
330
17
100
AcDbEntity
  8
A-ANNO-TABL
100
AcDbText
 10
4.28
 20
8.497999999999994
 30
0.0
 40
0.071
  1
25% of lower seats x 5 SF
  7
KS-REG
 11
4.28
 21
8.497999999999994
 31
0.0
100
AcDbText
  0
TEXT
  5
77
330
17
100
AcDbEntity
  8
A-ANNO-TABL
100
AcDbText
 10
6.18
 20
8.497999999999994
 30
0.0
 40
0.072
  1
ASSUMED · LOW
  7
KS-REG
 11
6.18
 21
8.497999999999994
 31
0.0
100
AcDbText
  0
TEXT
  5
78
330
17
100
AcDbEntity
  8
A-ANNO-TABL
100
AcDbText
 10
0.7799999999999999
 20
8.319999999999993
 30
0.0
 40
0.083
  1
Public restrooms L1 (41 fixtures)
  7
KS-REG
 11
0.7799999999999999
 21
8.319999999999993
 31
0.0
100
AcDbText
  0
TEXT
  5
79
330
17
100
AcDbEntity
  8
A-ANNO-TABL
100
AcDbText
 10
4.18
 20
8.319999999999993
 30
0.0
 40
0.083
  1
2,050
  7
KS-REG
 72
2
 11
4.18
 21
8.319999999999993
 31
0.0
100
AcDbText
  0
TEXT
  5
7A
330
17
100
AcDbEntity
  8
A-ANNO-TABL
100
AcDbText
 10
4.28
 20
8.319999999999993
 30
0.0
 40
0.071
  1
T2902.1 on L1 load x 50 SF
  7
KS-REG
 11
4.28
 21
8.319999999999993
 31
0.0
100
AcDbText
  0
TEXT
  5
7B
330
17
100
AcDbEntity
  8
A-ANNO-TABL
100
AcDbText
 10
6.18
 20
8.319999999999993
 30
0.0
 40
0.072
  1
CITED · MED
  7
KS-REG
 11
6.18
 21
8.319999999999993
 31
0.0
100
AcDbText
  0
TEXT
  5
7C
330
17
100
AcDbEntity
  8
A-ANNO-TABL
100
AcDbText
 10
0.7799999999999999
 20
8.141999999999992
 30
0.0
 40
0.083
  1
Concession stand
  7
KS-REG
 11
0.7799999999999999
 21
8.141999999999992
 31
0.0
100
AcDbText
  0
TEXT
  5
7D
330
17
100
AcDbEntity
  8
A-ANNO-TABL
100
AcDbText
 10
4.18
 20
8.141999999999992
 30
0.0
 40
0.083
  1
275
  7
KS-REG
 72
2
 11
4.18
 21
8.141999999999992
 31
0.0
100
AcDbText
  0
TEXT
  5
7E
330
17
100
AcDbEntity
  8
A-ANNO-TABL
100
AcDbText
 10
4.28
 20
8.141999999999992
 30
0.0
 40
0.071
  1
main concourse (ASSUMED)
  7
KS-REG
 11
4.28
 21
8.141999999999992
 31
0.0
100
AcDbText
  0
TEXT
  5
7F
330
17
100
AcDbEntity
  8
A-ANNO-TABL
100
AcDbText
 10
6.18
 20
8.141999999999992
 30
0.0
 40
0.072
  1
CITED · LOW
  7
KS-REG
 11
6.18
 21
8.141999999999992
 31
0.0
100
AcDbText
  0
TEXT
  5
80
330
17
100
AcDbEntity
  8
A-ANNO-TABL
100
AcDbText
 10
0.7799999999999999
 20
7.963999999999992
 30
0.0
 40
0.083
  1
First aid
  7
KS-REG
 11
0.7799999999999999
 21
7.963999999999992
 31
0.0
100
AcDbText
  0
TEXT
  5
81
330
17
100
AcDbEntity
  8
A-ANNO-TABL
100
AcDbText
 10
4.18
 20
7.963999999999992
 30
0.0
 40
0.083
  1
120
  7
KS-REG
 72
2
 11
4.18
 21
7.963999999999992
 31
0.0
100
AcDbText
  0
TEXT
  5
82
330
17
100
AcDbEntity
  8
A-ANNO-TABL
100
AcDbText
 10
4.28
 20
7.963999999999992
 30
0.0
 40
0.071
  1
at grade for EMS (ASSUMED)
  7
KS-REG
 11
4.28
 21
7.963999999999992
 31
0.0
100
AcDbText
  0
TEXT
  5
83
330
17
100
AcDbEntity
  8
A-ANNO-TABL
100
AcDbText
 10
6.18
 20
7.963999999999992
 30
0.0
 40
0.072
  1
CITED · MED
  7
KS-REG
 11
6.18
 21
7.963999999999992
 31
0.0
100
AcDbText
  0
TEXT
  5
84
330
17
100
AcDbEntity
  8
A-ANNO-TABL
100
AcDbText
 10
0.7799999999999999
 20
7.7859999999999925
 30
0.0
 40
0.083
  1
Equipment storage (mats + floor covers)
  7
KS-REG
 11
0.7799999999999999
 21
7.7859999999999925
 31
0.0
100
AcDbText
  0
TEXT
  5
85
330
17
100
AcDbEntity
  8
A-ANNO-TABL
100
AcDbText
 10
4.18
 20
7.7859999999999925
 30
0.0
 40
0.083
  1
700
  7
KS-REG
 72
2
 11
4.18
 21
7.7859999999999925
 31
0.0
100
AcDbText
  0
TEXT
  5
86
330
17
100
AcDbEntity
  8
A-ANNO-TABL
100
AcDbText
 10
4.28
 20
7.7859999999999925
 30
0.0
 40
0.071
  1
mats roll onto floor (ASSUMED)
  7
KS-REG
 11
4.28
 21
7.7859999999999925
 31
0.0
100
AcDbText
  0
TEXT
  5
87
330
17
100
AcDbEntity
  8
A-ANNO-TABL
100
AcDbText
 10
6.18
 20
7.7859999999999925
 30
0.0
 40
0.072
  1
CITED · LOW
  7
KS-REG
 11
6.18
 21
7.7859999999999925
 31
0.0
100
AcDbText
  0
TEXT
  5
88
330
17
100
AcDbEntity
  8
A-ANNO-TABL
100
AcDbText
 10
0.7799999999999999
 20
7.6079999999999925
 30
0.0
 40
0.083
  1
Equipment room
  7
KS-REG
 11
0.7799999999999999
 21
7.6079999999999925
 31
0.0
100
AcDbText
  0
TEXT
  5
89
330
17
100
AcDbEntity
  8
A-ANNO-TABL
100
AcDbText
 10
4.18
 20
7.6079999999999925
 30
0.0
 40
0.083
  1
300
  7
KS-REG
 72
2
 11
4.18
 21
7.6079999999999925
 31
0.0
100
AcDbText
  0
TEXT
  5
8A
330
17
100
AcDbEntity
  8
A-ANNO-TABL
100
AcDbText
 10
4.28
 20
7.6079999999999925
 30
0.0
 40
0.071
  1
service at grade (ASSUMED)
  7
KS-REG
 11
4.28
 21
7.6079999999999925
 31
0.0
100
AcDbText
  0
TEXT
  5
8B
330
17
100
AcDbEntity
  8
A-ANNO-TABL
100
AcDbText
 10
6.18
 20
7.6079999999999925
 30
0.0
 40
0.072
  1
CITED · LOW
  7
KS-REG
 11
6.18
 21
7.6079999999999925
 31
0.0
100
AcDbText
  0
TEXT
  5
8C
330
17
100
AcDbEntity
  8
A-ANNO-TABL
100
AcDbText
 10
0.7799999999999999
 20
7.429999999999993
 30
0.0
 40
0.083
  1
Stairs (4) + elevator (1)
  7
KS-REG
 11
0.7799999999999999
 21
7.429999999999993
 31
0.0
100
AcDbText
  0
TEXT
  5
8D
330
17
100
AcDbEntity
  8
A-ANNO-TABL
100
AcDbText
 10
4.18
 20
7.429999999999993
 30
0.0
 40
0.083
  1
890
  7
KS-REG
 72
2
 11
4.18
 21
7.429999999999993
 31
0.0
100
AcDbText
  0
TEXT
  5
8E
330
17
100
AcDbEntity
  8
A-ANNO-TABL
100
AcDbText
 10
4.28
 20
7.429999999999993
 30
0.0
 40
0.071
  1
stairs + elevator (both levels)
  7
KS-REG
 11
4.28
 21
7.429999999999993
 31
0.0
100
AcDbText
  0
TEXT
  5
8F
330
17
100
AcDbEntity
  8
A-ANNO-TABL
100
AcDbText
 10
6.18
 20
7.429999999999993
 30
0.0
 40
0.072
  1
CITED/ASSUMED
  7
KS-REG
 11
6.18
 21
7.429999999999993
 31
0.0
100
AcDbText
  0
TEXT
  5
90
330
17
100
AcDbEntity
  8
A-ANNO-TABL
100
AcDbText
 10
0.7799999999999999
 20
7.251999999999993
 30
0.0
 40
0.083
  1
Mechanical (5% of total gross)
  7
KS-REG
 11
0.7799999999999999
 21
7.251999999999993
 31
0.0
100
AcDbText
  0
TEXT
  5
91
330
17
100
AcDbEntity
  8
A-ANNO-TABL
100
AcDbText
 10
4.18
 20
7.251999999999993
 30
0.0
 40
0.083
  1
4,433
  7
KS-REG
 72
2
 11
4.18
 21
7.251999999999993
 31
0.0
100
AcDbText
  0
TEXT
  5
92
330
17
100
AcDbEntity
  8
A-ANNO-TABL
100
AcDbText
 10
4.28
 20
7.251999999999993
 30
0.0
 40
0.071
  1
at grade (ASSUMED)
  7
KS-REG
 11
4.28
 21
7.251999999999993
 31
0.0
100
AcDbText
  0
TEXT
  5
93
330
17
100
AcDbEntity
  8
A-ANNO-TABL
100
AcDbText
 10
6.18
 20
7.251999999999993
 30
0.0
 40
0.072
  1
CITED · LOW
  7
KS-REG
 11
6.18
 21
7.251999999999993
 31
0.0
100
AcDbText
  0
LINE
  5
94
330
17
100
AcDbEntity
  8
A-ANNO-TABL
100
AcDbLine
 10
0.6799999999999999
 20
7.201999999999993
 30
0.0
 11
7.279999999999999
 21
7.201999999999993
 31
0.0
  0
TEXT
  5
95
330
17
100
AcDbEntity
  8
A-ANNO-TABL
100
AcDbText
 10
0.6799999999999999
 20
7.073999999999993
 30
0.0
 40
0.078
  1
LEVEL 2 / MEZZANINE — CAN GO UP
  7
KS-BOLD
 11
0.6799999999999999
 21
7.073999999999993
 31
0.0
100
AcDbText
  0
TEXT
  5
96
330
17
100
AcDbEntity
  8
A-ANNO-TABL
100
AcDbText
 10
4.18
 20
7.073999999999993
 30
0.0
 40
0.078
  1
20,785
  7
KS-BOLD
 72
2
 11
4.18
 21
7.073999999999993
 31
0.0
100
AcDbText
  0
TEXT
  5
97
330
17
100
AcDbEntity
  8
A-ANNO-TABL
100
AcDbText
 10
0.7799999999999999
 20
6.895999999999993
 30
0.0
 40
0.083
  1
Upper seating tier (1,100 seats)
  7
KS-REG
 11
0.7799999999999999
 21
6.895999999999993
 31
0.0
100
AcDbText
  0
TEXT
  5
98
330
17
100
AcDbEntity
  8
A-ANNO-TABL
100
AcDbText
 10
4.18
 20
6.895999999999993
 30
0.0
 40
0.083
  1
6,600
  7
KS-REG
 72
2
 11
4.18
 21
6.895999999999993
 31
0.0
100
AcDbText
  0
TEXT
  5
99
330
17
100
AcDbEntity
  8
A-ANNO-TABL
100
AcDbText
 10
4.28
 20
6.895999999999993
 30
0.0
 40
0.071
  1
upper tier over the L1 ring
  7
KS-REG
 11
4.28
 21
6.895999999999993
 31
0.0
100
AcDbText
  0
TEXT
  5
9A
330
17
100
AcDbEntity
  8
A-ANNO-TABL
100
AcDbText
 10
6.18
 20
6.895999999999993
 30
0.0
 40
0.072
  1
CITED · MED
  7
KS-REG
 11
6.18
 21
6.895999999999993
 31
0.0
100
AcDbText
  0
TEXT
  5
9B
330
17
100
AcDbEntity
  8
A-ANNO-TABL
100
AcDbText
 10
0.7799999999999999
 20
6.717999999999993
 30
0.0
 40
0.083
  1
Strength & Conditioning
  7
KS-REG
 11
0.7799999999999999
 21
6.717999999999993
 31
0.0
100
AcDbText
  0
TEXT
  5
9C
330
17
100
AcDbEntity
  8
A-ANNO-TABL
100
AcDbText
 10
4.18
 20
6.717999999999993
 30
0.0
 40
0.083
  1
6,000
  7
KS-REG
 72
2
 11
4.18
 21
6.717999999999993
 31
0.0
100
AcDbText
  0
TEXT
  5
9D
330
17
100
AcDbEntity
  8
A-ANNO-TABL
100
AcDbText
 10
4.28
 20
6.717999999999993
 30
0.0
 40
0.071
  1
daily room; gym floor loads
  7
KS-REG
 11
4.28
 21
6.717999999999993
 31
0.0
100
AcDbText
  0
TEXT
  5
9E
330
17
100
AcDbEntity
  8
A-ANNO-TABL
100
AcDbText
 10
6.18
 20
6.717999999999993
 30
0.0
 40
0.072
  1
TAG · HIGH
  7
KS-REG
 11
6.18
 21
6.717999999999993
 31
0.0
100
AcDbText
  0
TEXT
  5
9F
330
17
100
AcDbEntity
  8
A-ANNO-TABL
100
AcDbText
 10
0.7799999999999999
 20
6.539999999999993
 30
0.0
 40
0.083
  1
Cross-Training Mat Area
  7
KS-REG
 11
0.7799999999999999
 21
6.539999999999993
 31
0.0
100
AcDbText
  0
TEXT
  5
A0
330
17
100
AcDbEntity
  8
A-ANNO-TABL
100
AcDbText
 10
4.18
 20
6.539999999999993
 30
0.0
 40
0.083
  1
4,000
  7
KS-REG
 72
2
 11
4.18
 21
6.539999999999993
 31
0.0
100
AcDbText
  0
TEXT
  5
A1
330
17
100
AcDbEntity
  8
A-ANNO-TABL
100
AcDbText
 10
4.28
 20
6.539999999999993
 30
0.0
 40
0.071
  1
daily mat IS the mezzanine (DR4)
  7
KS-REG
 11
4.28
 21
6.539999999999993
 31
0.0
100
AcDbText
  0
TEXT
  5
A2
330
17
100
AcDbEntity
  8
A-ANNO-TABL
100
AcDbText
 10
6.18
 20
6.539999999999993
 30
0.0
 40
0.072
  1
TAG · HIGH
  7
KS-REG
 11
6.18
 21
6.539999999999993
 31
0.0
100
AcDbText
  0
TEXT
  5
A3
330
17
100
AcDbEntity
  8
A-ANNO-TABL
100
AcDbText
 10
0.7799999999999999
 20
6.361999999999993
 30
0.0
 40
0.083
  1
Administrative office
  7
KS-REG
 11
0.7799999999999999
 21
6.361999999999993
 31
0.0
100
AcDbText
  0
TEXT
  5
A4
330
17
100
AcDbEntity
  8
A-ANNO-TABL
100
AcDbText
 10
4.18
 20
6.361999999999993
 30
0.0
 40
0.083
  1
470
  7
KS-REG
 72
2
 11
4.18
 21
6.361999999999993
 31
0.0
100
AcDbText
  0
TEXT
  5
A5
330
17
100
AcDbEntity
  8
A-ANNO-TABL
100
AcDbText
 10
4.28
 20
6.361999999999993
 30
0.0
 40
0.071
  1
no grade need; desk in foyer
  7
KS-REG
 11
4.28
 21
6.361999999999993
 31
0.0
100
AcDbText
  0
TEXT
  5
A6
330
17
100
AcDbEntity
  8
A-ANNO-TABL
100
AcDbText
 10
6.18
 20
6.361999999999993
 30
0.0
 40
0.072
  1
CITED · LOW
  7
KS-REG
 11
6.18
 21
6.361999999999993
 31
0.0
100
AcDbText
  0
TEXT
  5
A7
330
17
100
AcDbEntity
  8
A-ANNO-TABL
100
AcDbText
 10
0.7799999999999999
 20
6.183999999999993
 30
0.0
 40
0.083
  1
Upper concourse + champions wall
  7
KS-REG
 11
0.7799999999999999
 21
6.183999999999993
 31
0.0
100
AcDbText
  0
TEXT
  5
A8
330
17
100
AcDbEntity
  8
A-ANNO-TABL
100
AcDbText
 10
4.18
 20
6.183999999999993
 30
0.0
 40
0.083
  1
1,375
  7
KS-REG
 72
2
 11
4.18
 21
6.183999999999993
 31
0.0
100
AcDbText
  0
TEXT
  5
A9
330
17
100
AcDbEntity
  8
A-ANNO-TABL
100
AcDbText
 10
4.28
 20
6.183999999999993
 30
0.0
 40
0.071
  1
25% of upper seats x 5 SF
  7
KS-REG
 11
4.28
 21
6.183999999999993
 31
0.0
100
AcDbText
  0
TEXT
  5
AA
330
17
100
AcDbEntity
  8
A-ANNO-TABL
100
AcDbText
 10
6.18
 20
6.183999999999993
 30
0.0
 40
0.072
  1
ASSUMED · LOW
  7
KS-REG
 11
6.18
 21
6.183999999999993
 31
0.0
100
AcDbText
  0
TEXT
  5
AB
330
17
100
AcDbEntity
  8
A-ANNO-TABL
100
AcDbText
 10
0.7799999999999999
 20
6.005999999999993
 30
0.0
 40
0.083
  1
Public restrooms L2 (29 fixtures)
  7
KS-REG
 11
0.7799999999999999
 21
6.005999999999993
 31
0.0
100
AcDbText
  0
TEXT
  5
AC
330
17
100
AcDbEntity
  8
A-ANNO-TABL
100
AcDbText
 10
4.18
 20
6.005999999999993
 30
0.0
 40
0.083
  1
1,450
  7
KS-REG
 72
2
 11
4.18
 21
6.005999999999993
 31
0.0
100
AcDbText
  0
TEXT
  5
AD
330
17
100
AcDbEntity
  8
A-ANNO-TABL
100
AcDbText
 10
4.28
 20
6.005999999999993
 30
0.0
 40
0.071
  1
T2902.1 on L2 seats x 50 SF
  7
KS-REG
 11
4.28
 21
6.005999999999993
 31
0.0
100
AcDbText
  0
TEXT
  5
AE
330
17
100
AcDbEntity
  8
A-ANNO-TABL
100
AcDbText
 10
6.18
 20
6.005999999999993
 30
0.0
 40
0.072
  1
CITED · MED
  7
KS-REG
 11
6.18
 21
6.005999999999993
 31
0.0
100
AcDbText
  0
TEXT
  5
AF
330
17
100
AcDbEntity
  8
A-ANNO-TABL
100
AcDbText
 10
0.7799999999999999
 20
5.827999999999993
 30
0.0
 40
0.083
  1
Stairs (4) + elevator (1)
  7
KS-REG
 11
0.7799999999999999
 21
5.827999999999993
 31
0.0
100
AcDbText
  0
TEXT
  5
B0
330
17
100
AcDbEntity
  8
A-ANNO-TABL
100
AcDbText
 10
4.18
 20
5.827999999999993
 30
0.0
 40
0.083
  1
890
  7
KS-REG
 72
2
 11
4.18
 21
5.827999999999993
 31
0.0
100
AcDbText
  0
TEXT
  5
B1
330
17
100
AcDbEntity
  8
A-ANNO-TABL
100
AcDbText
 10
4.28
 20
5.827999999999993
 30
0.0
 40
0.071
  1
stairs + elevator (both levels)
  7
KS-REG
 11
4.28
 21
5.827999999999993
 31
0.0
100
AcDbText
  0
TEXT
  5
B2
330
17
100
AcDbEntity
  8
A-ANNO-TABL
100
AcDbText
 10
6.18
 20
5.827999999999993
 30
0.0
 40
0.072
  1
CITED/ASSUMED
  7
KS-REG
 11
6.18
 21
5.827999999999993
 31
0.0
100
AcDbText
  0
LINE
  5
B3
330
17
100
AcDbEntity
  8
A-ANNO-TABL
100
AcDbLine
 10
0.6799999999999999
 20
5.777999999999993
 30
0.0
 11
7.279999999999999
 21
5.777999999999993
 31
0.0
  0
TEXT
  5
B4
330
17
100
AcDbEntity
  8
A-ANNO-TABL
100
AcDbText
 10
0.6799999999999999
 20
5.627999999999993
 30
0.0
 40
0.072
  1
Bold rows = ARENA VOLUME (double height). Stage + utility room: no source, left out (TBD).
  7
KS-REG
 11
0.6799999999999999
 21
5.627999999999993
 31
0.0
100
AcDbText
  0
TEXT
  5
B5
330
17
100
AcDbEntity
  8
A-ANNO-TABL
100
AcDbText
 10
0.6799999999999999
 20
5.3899999999999935
 30
0.0
 40
0.08800000000000001
  1
L1 GROSS = 1.25 x (L1 net + mechanical)
  7
KS-REG
 11
0.6799999999999999
 21
5.3899999999999935
 31
0.0
100
AcDbText
  0
TEXT
  5
B6
330
17
100
AcDbEntity
  8
A-ANNO-TABL
100
AcDbText
 10
7.279999999999999
 20
5.3899999999999935
 30
0.0
 40
0.09199999999999998
  1
62,683
  7
KS-REG
 72
2
 11
7.279999999999999
 21
5.3899999999999935
 31
0.0
100
AcDbText
  0
TEXT
  5
B7
330
17
100
AcDbEntity
  8
A-ANNO-TABL
100
AcDbText
 10
0.6799999999999999
 20
5.191999999999993
 30
0.0
 40
0.08800000000000001
  1
   of which ARENA VOLUME = 1.25 x (event floor + lower tier)
  7
KS-REG
 11
0.6799999999999999
 21
5.191999999999993
 31
0.0
100
AcDbText
  0
TEXT
  5
B8
330
17
100
AcDbEntity
  8
A-ANNO-TABL
100
AcDbText
 10
7.279999999999999
 20
5.191999999999993
 30
0.0
 40
0.09199999999999998
  1
35,750
  7
KS-REG
 72
2
 11
7.279999999999999
 21
5.191999999999993
 31
0.0
100
AcDbText
  0
TEXT
  5
B9
330
17
100
AcDbEntity
  8
A-ANNO-TABL
100
AcDbText
 10
0.6799999999999999
 20
4.993999999999993
 30
0.0
 40
0.08800000000000001
  1
   of which L1 RING (rooms that can carry L2 above)
  7
KS-REG
 11
0.6799999999999999
 21
4.993999999999993
 31
0.0
100
AcDbText
  0
TEXT
  5
BA
330
17
100
AcDbEntity
  8
A-ANNO-TABL
100
AcDbText
 10
7.279999999999999
 20
4.993999999999993
 30
0.0
 40
0.09199999999999998
  1
26,933
  7
KS-REG
 72
2
 11
7.279999999999999
 21
4.993999999999993
 31
0.0
100
AcDbText
  0
TEXT
  5
BB
330
17
100
AcDbEntity
  8
A-ANNO-TABL
100
AcDbText
 10
0.6799999999999999
 20
4.795999999999992
 30
0.0
 40
0.08800000000000001
  1
L2 GROSS = 1.25 x L2 net (must fit over the L1 ring)
  7
KS-REG
 11
0.6799999999999999
 21
4.795999999999992
 31
0.0
100
AcDbText
  0
TEXT
  5
BC
330
17
100
AcDbEntity
  8
A-ANNO-TABL
100
AcDbText
 10
7.279999999999999
 20
4.795999999999992
 30
0.0
 40
0.09199999999999998
  1
25,981
  7
KS-REG
 72
2
 11
7.279999999999999
 21
4.795999999999992
 31
0.0
100
AcDbText
  0
TEXT
  5
BD
330
17
100
AcDbEntity
  8
A-ANNO-TABL
100
AcDbText
 10
0.6799999999999999
 20
4.597999999999992
 30
0.0
 40
0.08800000000000001
  1
GROUND FOOTPRINT = max(L1, arena volume + L2)  vs  55,000 cap
  7
KS-BOLD
 11
0.6799999999999999
 21
4.597999999999992
 31
0.0
100
AcDbText
  0
TEXT
  5
BE
330
17
100
AcDbEntity
  8
A-ANNO-TABL
100
AcDbText
 10
7.279999999999999
 20
4.597999999999992
 30
0.0
 40
0.09199999999999998
  1
62,683
  7
KS-BOLD
 72
2
 11
7.279999999999999
 21
4.597999999999992
 31
0.0
100
AcDbText
  0
TEXT
  5
BF
330
17
100
AcDbEntity
  8
A-ANNO-TABL
100
AcDbText
 10
0.6799999999999999
 20
4.3999999999999915
 30
0.0
 40
0.08800000000000001
  1
TOTAL GSF, BOTH LEVELS (no longer capped, D-031)
  7
KS-BOLD
 11
0.6799999999999999
 21
4.3999999999999915
 31
0.0
100
AcDbText
  0
TEXT
  5
C0
330
17
100
AcDbEntity
  8
A-ANNO-TABL
100
AcDbText
 10
7.279999999999999
 20
4.3999999999999915
 30
0.0
 40
0.09199999999999998
  1
88,664
  7
KS-BOLD
 72
2
 11
7.279999999999999
 21
4.3999999999999915
 31
0.0
100
AcDbText
  0
LINE
  5
C1
330
17
100
AcDbEntity
  8
A-ANNO-TABL
100
AcDbLine
 10
0.6799999999999999
 20
4.281999999999991
 30
0.0
 11
7.279999999999999
 21
4.281999999999991
 31
0.0
  0
TEXT
  5
C2
330
17
100
AcDbEntity
  8
A-ANNO-TEXT
100
AcDbText
 10
0.6799999999999999
 20
4.012966666666658
 30
0.0
 40
0.079
  1
Same factors as Rev A (frozen): gross-up 1.25 base / 1.15 lean (R-014), seats 6.0 SF base / 3.38 lean (R-008),
  7
KS-REG
 11
0.6799999999999999
 21
4.012966666666658
 31
0.0
100
AcDbText
  0
TEXT
  5
C3
330
17
100
AcDbEntity
  8
A-ANNO-TEXT
100
AcDbText
 10
0.6799999999999999
 20
3.868133333333325
 30
0.0
 40
0.079
  1
mechanical 5% of gross. Each level is grossed up on its own. Rev A (one level) needed ≈ 86,100 GSF base.
  7
KS-REG
 11
0.6799999999999999
 21
3.868133333333325
 31
0.0
100
AcDbText
  0
TEXT
  5
C4
330
17
100
AcDbEntity
  8
A-ANNO-TEXT
100
AcDbText
 10
0.6799999999999999
 20
3.687091666666659
 30
0.0
 40
0.079
  1
Not credited (conservative): rooms under the lower seating tier, upper-tier overhang past the L1 ring, rooftop
  7
KS-REG
 11
0.6799999999999999
 21
3.687091666666659
 31
0.0
100
AcDbText
  0
TEXT
  5
C5
330
17
100
AcDbEntity
  8
A-ANNO-TEXT
100
AcDbText
 10
0.6799999999999999
 20
3.5422583333333257
 30
0.0
 40
0.079
  1
mechanical. Lean case: lower tier is telescopic, so nothing can be built under it.
  7
KS-REG
 11
0.6799999999999999
 21
3.5422583333333257
 31
0.0
100
AcDbText
  0
LINE
  5
C6
330
17
100
AcDbEntity
  8
A-ANNO-TEXT
100
AcDbLine
 10
7.459999999999999
 20
1.9700000000000002
 30
0.0
 11
7.459999999999999
 21
10.38
 31
0.0
  0
TEXT
  5
C7
330
17
100
AcDbEntity
  8
A-ANNO-TEXT
100
AcDbText
 10
7.629999999999999
 20
10.180000000000001
 30
0.0
 40
0.11499999999999999
  1
2  BOWL GEOMETRY — SECTION (NTS)
  7
KS-BOLD
 11
7.629999999999999
 21
10.180000000000001
 31
0.0
100
AcDbText
  0
LINE
  5
C8
330
17
100
AcDbEntity
  8
A-ANNO-TEXT
100
AcDbLine
 10
7.649999999999999
 20
8.020000000000001
 30
0.0
 11
11.609999999999998
 21
8.020000000000001
 31
0.0
  0
LINE
  5
C9
330
17
100
AcDbEntity
  8
A-ANNO-TEXT
100
AcDbLine
 10
7.679999999999999
 20
8.020000000000001
 30
0.0
 11
7.679999999999999
 21
9.070000000000002
 31
0.0
  0
LINE
  5
CA
330
17
100
AcDbEntity
  8
A-ANNO-TEXT
100
AcDbLine
 10
11.579999999999998
 20
8.020000000000001
 30
0.0
 11
11.579999999999998
 21
9.070000000000002
 31
0.0
  0
LINE
  5
CB
330
17
100
AcDbEntity
  8
A-ANNO-TEXT
100
AcDbLine
 10
7.679999999999999
 20
9.070000000000002
 30
0.0
 11
8.759999999999998
 21
9.070000000000002
 31
0.0
  0
LINE
  5
CC
330
17
100
AcDbEntity
  8
A-ANNO-TEXT
100
AcDbLine
 10
10.499999999999998
 20
9.070000000000002
 30
0.0
 11
11.579999999999998
 21
9.070000000000002
 31
0.0
  0
LINE
  5
CD
330
17
100
AcDbEntity
  8
A-ANNO-TEXT
100
AcDbLine
 10
8.759999999999998
 20
9.070000000000002
 30
0.0
 11
8.909999999999998
 21
9.64
 31
0.0
  0
LINE
  5
CE
330
17
100
AcDbEntity
  8
A-ANNO-TEXT
100
AcDbLine
 10
10.499999999999998
 20
9.070000000000002
 30
0.0
 11
10.349999999999998
 21
9.64
 31
0.0
  0
LINE
  5
CF
330
17
100
AcDbEntity
  8
A-ANNO-TEXT
100
AcDbLine
 10
8.909999999999998
 20
9.64
 30
0.0
 11
10.349999999999998
 21
9.64
 31
0.0
  0
LINE
  5
D0
330
17
100
AcDbEntity
  8
A-ANNO-TEXT
100
AcDbLine
 10
7.679999999999999
 20
8.570000000000002
 30
0.0
 11
8.759999999999998
 21
8.570000000000002
 31
0.0
  0
LINE
  5
D1
330
17
100
AcDbEntity
  8
A-ANNO-TEXT
100
AcDbLine
 10
10.499999999999998
 20
8.570000000000002
 30
0.0
 11
11.579999999999998
 21
8.570000000000002
 31
0.0
  0
LINE
  5
D2
330
17
100
AcDbEntity
  8
A-ANNO-TEXT
100
AcDbLine
 10
8.759999999999998
 20
8.020000000000001
 30
0.0
 11
8.759999999999998
 21
8.570000000000002
 31
0.0
  0
LINE
  5
D3
330
17
100
AcDbEntity
  8
A-ANNO-TEXT
100
AcDbLine
 10
10.499999999999998
 20
8.020000000000001
 30
0.0
 11
10.499999999999998
 21
8.570000000000002
 31
0.0
  0
LINE
  5
D4
330
17
100
AcDbEntity
  8
A-ANNO-TEXT
100
AcDbLine
 10
9.159999999999998
 20
8.040000000000001
 30
0.0
 11
8.759999999999998
 21
8.520000000000001
 31
0.0
  0
LINE
  5
D5
330
17
100
AcDbEntity
  8
A-ANNO-TEXT
100
AcDbLine
 10
10.099999999999998
 20
8.040000000000001
 30
0.0
 11
10.499999999999998
 21
8.520000000000001
 31
0.0
  0
LINE
  5
D6
330
17
100
AcDbEntity
  8
A-ANNO-TEXT
100
AcDbLine
 10
8.759999999999998
 20
8.570000000000002
 30
0.0
 11
8.259999999999998
 21
8.990000000000002
 31
0.0
  0
LINE
  5
D7
330
17
100
AcDbEntity
  8
A-ANNO-TEXT
100
AcDbLine
 10
10.499999999999998
 20
8.570000000000002
 30
0.0
 11
10.999999999999998
 21
8.990000000000002
 31
0.0
  0
LINE
  5
D8
330
17
100
AcDbEntity
  8
A-ANNO-TEXT
100
AcDbLine
 10
8.759999999999998
 20
8.590000000000002
 30
0.0
 11
8.759999999999998
 21
8.71
 31
0.0
  0
LINE
  5
D9
330
17
100
AcDbEntity
  8
A-ANNO-TEXT
100
AcDbLine
 10
8.759999999999998
 20
8.790000000000001
 30
0.0
 11
8.759999999999998
 21
8.910000000000002
 31
0.0
  0
LINE
  5
DA
330
17
100
AcDbEntity
  8
A-ANNO-TEXT
100
AcDbLine
 10
8.759999999999998
 20
8.990000000000002
 30
0.0
 11
8.759999999999998
 21
9.070000000000002
 31
0.0
  0
LINE
  5
DB
330
17
100
AcDbEntity
  8
A-ANNO-TEXT
100
AcDbLine
 10
10.499999999999998
 20
8.590000000000002
 30
0.0
 11
10.499999999999998
 21
8.71
 31
0.0
  0
LINE
  5
DC
330
17
100
AcDbEntity
  8
A-ANNO-TEXT
100
AcDbLine
 10
10.499999999999998
 20
8.790000000000001
 30
0.0
 11
10.499999999999998
 21
8.910000000000002
 31
0.0
  0
LINE
  5
DD
330
17
100
AcDbEntity
  8
A-ANNO-TEXT
100
AcDbLine
 10
10.499999999999998
 20
8.990000000000002
 30
0.0
 11
10.499999999999998
 21
9.070000000000002
 31
0.0
  0
TEXT
  5
DE
330
17
100
AcDbEntity
  8
A-ANNO-TEXT
100
AcDbText
 10
9.629999999999999
 20
8.100000000000001
 30
0.0
 40
0.06599999999999999
  1
EVENT FLOOR
  7
KS-BOLD
 72
1
 11
9.629999999999999
 21
8.100000000000001
 31
0.0
100
AcDbText
  0
TEXT
  5
DF
330
17
100
AcDbEntity
  8
A-ANNO-TEXT
100
AcDbText
 10
9.629999999999999
 20
9.000000000000002
 30
0.0
 40
0.07400000000000001
  1
ARENA VOLUME
  7
KS-BOLD
 72
1
 11
9.629999999999999
 21
9.000000000000002
 31
0.0
100
AcDbText
  0
TEXT
  5
E0
330
17
100
AcDbEntity
  8
A-ANNO-TEXT
100
AcDbText
 10
9.629999999999999
 20
8.860000000000001
 30
0.0
 40
0.06599999999999999
  1
double height —
  7
KS-REG
 72
1
 11
9.629999999999999
 21
8.860000000000001
 31
0.0
100
AcDbText
  0
TEXT
  5
E1
330
17
100
AcDbEntity
  8
A-ANNO-TEXT
100
AcDbText
 10
9.629999999999999
 20
8.740000000000002
 30
0.0
 40
0.06599999999999999
  1
nothing stacked above
  7
KS-REG
 72
1
 11
9.629999999999999
 21
8.740000000000002
 31
0.0
100
AcDbText
  0
TEXT
  5
E2
330
17
100
AcDbEntity
  8
A-ANNO-TEXT
100
AcDbText
 10
9.019999999999998
 20
8.325000000000001
 30
0.0
 40
0.056
  1
lower tier
  7
KS-REG
 11
9.019999999999998
 21
8.325000000000001
 31
0.0
100
AcDbText
  0
TEXT
  5
E3
330
17
100
AcDbEntity
  8
A-ANNO-TEXT
100
AcDbText
 10
10.239999999999997
 20
8.325000000000001
 30
0.0
 40
0.056
  1
lower tier
  7
KS-REG
 72
2
 11
10.239999999999997
 21
8.325000000000001
 31
0.0
100
AcDbText
  0
TEXT
  5
E4
330
17
100
AcDbEntity
  8
A-ANNO-TEXT
100
AcDbText
 10
8.219999999999999
 20
8.320000000000002
 30
0.0
 40
0.06799999999999999
  1
L1 RING
  7
KS-BOLD
 72
1
 11
8.219999999999999
 21
8.320000000000002
 31
0.0
100
AcDbText
  0
TEXT
  5
E5
330
17
100
AcDbEntity
  8
A-ANNO-TEXT
100
AcDbText
 10
8.219999999999999
 20
8.190000000000001
 30
0.0
 40
0.05799999999999999
  1
lockers, foyer,
  7
KS-REG
 72
1
 11
8.219999999999999
 21
8.190000000000001
 31
0.0
100
AcDbText
  0
TEXT
  5
E6
330
17
100
AcDbEntity
  8
A-ANNO-TEXT
100
AcDbText
 10
8.219999999999999
 20
8.080000000000002
 30
0.0
 40
0.05799999999999999
  1
support
  7
KS-REG
 72
1
 11
8.219999999999999
 21
8.080000000000002
 31
0.0
100
AcDbText
  0
TEXT
  5
E7
330
17
100
AcDbEntity
  8
A-ANNO-TEXT
100
AcDbText
 10
7.969999999999999
 20
8.930000000000001
 30
0.0
 40
0.05799999999999999
  1
L2 rooms:
  7
KS-BOLD
 72
1
 11
7.969999999999999
 21
8.930000000000001
 31
0.0
100
AcDbText
  0
TEXT
  5
E8
330
17
100
AcDbEntity
  8
A-ANNO-TEXT
100
AcDbText
 10
7.969999999999999
 20
8.820000000000002
 30
0.0
 40
0.05799999999999999
  1
S&C, X-train,
  7
KS-REG
 72
1
 11
7.969999999999999
 21
8.820000000000002
 31
0.0
100
AcDbText
  0
TEXT
  5
E9
330
17
100
AcDbEntity
  8
A-ANNO-TEXT
100
AcDbText
 10
7.969999999999999
 20
8.710000000000003
 30
0.0
 40
0.05799999999999999
  1
admin
  7
KS-REG
 72
1
 11
7.969999999999999
 21
8.710000000000003
 31
0.0
100
AcDbText
  0
TEXT
  5
EA
330
17
100
AcDbEntity
  8
A-ANNO-TEXT
100
AcDbText
 10
8.719999999999999
 20
8.970000000000002
 30
0.0
 40
0.056
  1
upper tier
  7
KS-REG
 72
2
 11
8.719999999999999
 21
8.970000000000002
 31
0.0
100
AcDbText
  0
TEXT
  5
EB
330
17
100
AcDbEntity
  8
A-ANNO-TEXT
100
AcDbText
 10
11.04
 20
8.320000000000002
 30
0.0
 40
0.06799999999999999
  1
L1 RING
  7
KS-BOLD
 72
1
 11
11.04
 21
8.320000000000002
 31
0.0
100
AcDbText
  0
TEXT
  5
EC
330
17
100
AcDbEntity
  8
A-ANNO-TEXT
100
AcDbText
 10
11.04
 20
8.190000000000001
 30
0.0
 40
0.05799999999999999
  1
lockers, foyer,
  7
KS-REG
 72
1
 11
11.04
 21
8.190000000000001
 31
0.0
100
AcDbText
  0
TEXT
  5
ED
330
17
100
AcDbEntity
  8
A-ANNO-TEXT
100
AcDbText
 10
11.04
 20
8.080000000000002
 30
0.0
 40
0.05799999999999999
  1
support
  7
KS-REG
 72
1
 11
11.04
 21
8.080000000000002
 31
0.0
100
AcDbText
  0
TEXT
  5
EE
330
17
100
AcDbEntity
  8
A-ANNO-TEXT
100
AcDbText
 10
11.29
 20
8.930000000000001
 30
0.0
 40
0.05799999999999999
  1
L2 rooms:
  7
KS-BOLD
 72
1
 11
11.29
 21
8.930000000000001
 31
0.0
100
AcDbText
  0
TEXT
  5
EF
330
17
100
AcDbEntity
  8
A-ANNO-TEXT
100
AcDbText
 10
11.29
 20
8.820000000000002
 30
0.0
 40
0.05799999999999999
  1
S&C, X-train,
  7
KS-REG
 72
1
 11
11.29
 21
8.820000000000002
 31
0.0
100
AcDbText
  0
TEXT
  5
F0
330
17
100
AcDbEntity
  8
A-ANNO-TEXT
100
AcDbText
 10
11.29
 20
8.710000000000003
 30
0.0
 40
0.05799999999999999
  1
admin
  7
KS-REG
 72
1
 11
11.29
 21
8.710000000000003
 31
0.0
100
AcDbText
  0
TEXT
  5
F1
330
17
100
AcDbEntity
  8
A-ANNO-TEXT
100
AcDbText
 10
10.539999999999997
 20
8.970000000000002
 30
0.0
 40
0.056
  1
upper tier
  7
KS-REG
 11
10.539999999999997
 21
8.970000000000002
 31
0.0
100
AcDbText
  0
LINE
  5
F2
330
17
100
AcDbEntity
  8
A-ANNO-TEXT
100
AcDbLine
 10
7.679999999999999
 20
7.860000000000001
 30
0.0
 11
11.579999999999998
 21
7.860000000000001
 31
0.0
  0
LINE
  5
F3
330
17
100
AcDbEntity
  8
A-ANNO-TEXT
100
AcDbLine
 10
7.679999999999999
 20
7.810000000000001
 30
0.0
 11
7.679999999999999
 21
7.910000000000001
 31
0.0
  0
LINE
  5
F4
330
17
100
AcDbEntity
  8
A-ANNO-TEXT
100
AcDbLine
 10
11.579999999999998
 20
7.810000000000001
 30
0.0
 11
11.579999999999998
 21
7.910000000000001
 31
0.0
  0
TEXT
  5
F5
330
17
100
AcDbEntity
  8
A-ANNO-TEXT
100
AcDbText
 10
9.629999999999999
 20
7.710000000000001
 30
0.0
 40
0.06999999999999999
  1
GROUND FOOTPRINT = arena volume + L1 ring
  7
KS-BOLD
 72
1
 11
9.629999999999999
 21
7.710000000000001
 31
0.0
100
AcDbText
  0
TEXT
  5
F6
330
17
100
AcDbEntity
  8
A-ANNO-TEXT
100
AcDbText
 10
7.629999999999999
 20
7.532600000000001
 30
0.0
 40
0.078
  1
The arena's high volume stays open to the roof, so no rooms go over the
  7
KS-REG
 11
7.629999999999999
 21
7.532600000000001
 31
0.0
100
AcDbText
  0
TEXT
  5
F7
330
17
100
AcDbEntity
  8
A-ANNO-TEXT
100
AcDbText
 10
7.629999999999999
 20
7.3896000000000015
 30
0.0
 40
0.078
  1
event floor or lower tier. The upper tier and every L2 room sit on the ring
  7
KS-REG
 11
7.629999999999999
 21
7.3896000000000015
 31
0.0
100
AcDbText
  0
TEXT
  5
F8
330
17
100
AcDbEntity
  8
A-ANNO-TEXT
100
AcDbText
 10
7.629999999999999
 20
7.246600000000002
 30
0.0
 40
0.078
  1
of L1 rooms around it (rooms under the seating). Fit needs L2 ≤ L1 ring;
  7
KS-REG
 11
7.629999999999999
 21
7.246600000000002
 31
0.0
100
AcDbText
  0
TEXT
  5
F9
330
17
100
AcDbEntity
  8
A-ANNO-TEXT
100
AcDbText
 10
7.629999999999999
 20
7.103600000000002
 30
0.0
 40
0.078
  1
otherwise the ring grows and so does the footprint.
  7
KS-REG
 11
7.629999999999999
 21
7.103600000000002
 31
0.0
100
AcDbText
  0
TEXT
  5
FA
330
17
100
AcDbEntity
  8
A-ANNO-TEXT
100
AcDbText
 10
7.629999999999999
 20
6.712250000000002
 30
0.0
 40
0.105
  1
3  VERTICAL CIRCULATION — ON BOTH LEVELS
  7
KS-BOLD
 11
7.629999999999999
 21
6.712250000000002
 31
0.0
100
AcDbText
  0
TEXT
  5
FB
330
17
100
AcDbEntity
  8
A-ANNO-TEXT
100
AcDbText
 10
7.629999999999999
 20
6.5248500000000025
 30
0.0
 40
0.078
  1
L2 occupant load (base, 50/50) = 1,100 seats + 204 in S&C,
  7
KS-REG
 11
7.629999999999999
 21
6.5248500000000025
 31
0.0
100
AcDbText
  0
TEXT
  5
FC
330
17
100
AcDbEntity
  8
A-ANNO-TEXT
100
AcDbText
 10
7.629999999999999
 20
6.381850000000003
 30
0.0
 40
0.078
  1
cross-training, admin (T1004.5) = 1,304 -> 4 exits (T1006.3.3). Stair
  7
KS-REG
 11
7.629999999999999
 21
6.381850000000003
 31
0.0
100
AcDbText
  0
TEXT
  5
FD
330
17
100
AcDbEntity
  8
A-ANNO-TEXT
100
AcDbText
 10
7.629999999999999
 20
6.238850000000003
 30
0.0
 40
0.078
  1
capacity 0.2 in/occupant (1005.3.1 exc.: sprinklers + voice alarm, see
  7
KS-REG
 11
7.629999999999999
 21
6.238850000000003
 31
0.0
100
AcDbText
  0
TEXT
  5
FE
330
17
100
AcDbEntity
  8
A-ANNO-TEXT
100
AcDbText
 10
7.629999999999999
 20
6.095850000000003
 30
0.0
 40
0.078
  1
below) -> 261 in total = 4 stairs x 65 in (min 44 in, 1011.2; any 1 lost
  7
KS-REG
 11
7.629999999999999
 21
6.095850000000003
 31
0.0
100
AcDbText
  0
TEXT
  5
FF
330
17
100
AcDbEntity
  8
A-ANNO-TEXT
100
AcDbText
 10
7.629999999999999
 20
5.952850000000003
 30
0.0
 40
0.078
  1
keeps ≥ 50%, 1005.5).
  7
KS-REG
 11
7.629999999999999
 21
5.952850000000003
 31
0.0
100
AcDbText
  0
TEXT
  5
100
330
17
100
AcDbEntity
  8
A-ANNO-TEXT
100
AcDbText
 10
7.629999999999999
 20
5.774100000000003
 30
0.0
 40
0.078
  1
Each stair: 15 ft floor-to-floor (ASSUMED) = 26 risers of 6.92 in (≤ 7 in)
  7
KS-REG
 11
7.629999999999999
 21
5.774100000000003
 31
0.0
100
AcDbText
  0
TEXT
  5
101
330
17
100
AcDbEntity
  8
A-ANNO-TEXT
100
AcDbText
 10
7.629999999999999
 20
5.6311000000000035
 30
0.0
 40
0.078
  1
and 11 in treads (1011.5.2), 2 flights ≤ 12 ft rise (1011.8), landings 48 in
  7
KS-REG
 11
7.629999999999999
 21
5.6311000000000035
 31
0.0
100
AcDbText
  0
TEXT
  5
102
330
17
100
AcDbEntity
  8
A-ANNO-TEXT
100
AcDbText
 10
7.629999999999999
 20
5.488100000000004
 30
0.0
 40
0.078
  1
deep (1011.6): ≈ 206 SF per level. Elevator: 1 (IBC 1104.4 accessible
  7
KS-REG
 11
7.629999999999999
 21
5.488100000000004
 31
0.0
100
AcDbText
  0
TEXT
  5
103
330
17
100
AcDbEntity
  8
A-ANNO-TEXT
100
AcDbText
 10
7.629999999999999
 20
5.345100000000004
 30
0.0
 40
0.078
  1
route to a story over 3,000 SF), car ≥ 80 x 54 in (ADA T407.4.1),
  7
KS-REG
 11
7.629999999999999
 21
5.345100000000004
 31
0.0
100
AcDbText
  0
TEXT
  5
104
330
17
100
AcDbEntity
  8
A-ANNO-TEXT
100
AcDbText
 10
7.629999999999999
 20
5.202100000000004
 30
0.0
 40
0.078
  1
hoistway 64 SF per level (ASSUMED). Total ≈ 890 net SF on EACH level.
  7
KS-REG
 11
7.629999999999999
 21
5.202100000000004
 31
0.0
100
AcDbText
  0
TEXT
  5
105
330
17
100
AcDbEntity
  8
A-ANNO-TEXT
100
AcDbText
 10
7.629999999999999
 20
5.023350000000004
 30
0.0
 40
0.078
  1
Open stairs OK between only two stories (1019.3 exc.). Sprinklers
  7
KS-REG
 11
7.629999999999999
 21
5.023350000000004
 31
0.0
100
AcDbText
  0
TEXT
  5
106
330
17
100
AcDbEntity
  8
A-ANNO-TEXT
100
AcDbText
 10
7.629999999999999
 20
4.880350000000004
 30
0.0
 40
0.078
  1
required: A-4 fire area > 12,000 SF or 300+ occupants (903.2.1.4);
  7
KS-REG
 11
7.629999999999999
 21
4.880350000000004
 31
0.0
100
AcDbText
  0
TEXT
  5
107
330
17
100
AcDbEntity
  8
A-ANNO-TEXT
100
AcDbText
 10
7.629999999999999
 20
4.737350000000005
 30
0.0
 40
0.078
  1
voice/alarm at 1,000+ (907.2.1.1). Sprinklered, the exit stairs serve as
  7
KS-REG
 11
7.629999999999999
 21
4.737350000000005
 31
0.0
100
AcDbText
  0
TEXT
  5
108
330
17
100
AcDbEntity
  8
A-ANNO-TEXT
100
AcDbText
 10
7.629999999999999
 20
4.594350000000005
 30
0.0
 40
0.078
  1
accessible means of egress without areas of refuge (1009.1, 1009.3.2,
  7
KS-REG
 11
7.629999999999999
 21
4.594350000000005
 31
0.0
100
AcDbText
  0
TEXT
  5
109
330
17
100
AcDbEntity
  8
A-ANNO-TEXT
100
AcDbText
 10
7.629999999999999
 20
4.451350000000005
 30
0.0
 40
0.078
  1
1009.3.3); elevator egress only at 4+ stories (1009.2.1).
  7
KS-REG
 11
7.629999999999999
 21
4.451350000000005
 31
0.0
100
AcDbText
  0
TEXT
  5
10A
330
17
100
AcDbEntity
  8
A-ANNO-TEXT
100
AcDbText
 10
7.629999999999999
 20
4.060000000000005
 30
0.0
 40
0.105
  1
4  RESTROOMS PER LEVEL (T2902.1)
  7
KS-BOLD
 11
7.629999999999999
 21
4.060000000000005
 31
0.0
100
AcDbText
  0
TEXT
  5
10B
330
17
100
AcDbEntity
  8
A-ANNO-TEXT
100
AcDbText
 10
7.629999999999999
 20
3.8726000000000056
 30
0.0
 40
0.078
  1
L1 load 1,540 (lower seats + event floor ÷ 50): WC 11 M / 20 W, lav 4 / 6
  7
KS-REG
 11
7.629999999999999
 21
3.8726000000000056
 31
0.0
100
AcDbText
  0
TEXT
  5
10C
330
17
100
AcDbEntity
  8
A-ANNO-TEXT
100
AcDbText
 10
7.629999999999999
 20
3.729600000000006
 30
0.0
 40
0.078
  1
= 41 fixtures. L2 load 1,100 seats: WC 8 / 14, lav 3 / 4 = 29. Sized per
  7
KS-REG
 11
7.629999999999999
 21
3.729600000000006
 31
0.0
100
AcDbText
  0
TEXT
  5
10D
330
17
100
AcDbEntity
  8
A-ANNO-TEXT
100
AcDbText
 10
7.629999999999999
 20
3.586600000000006
 30
0.0
 40
0.078
  1
level (conservative; 2902.3.3 allows one story of travel). 50 SF/fixture
  7
KS-REG
 11
7.629999999999999
 21
3.586600000000006
 31
0.0
100
AcDbText
  0
TEXT
  5
10E
330
17
100
AcDbEntity
  8
A-ANNO-TEXT
100
AcDbText
 10
7.629999999999999
 20
3.443600000000006
 30
0.0
 40
0.078
  1
ASSUMED. Rev A one-level count: 67.
  7
KS-REG
 11
7.629999999999999
 21
3.443600000000006
 31
0.0
100
AcDbText
  0
LINE
  5
10F
330
17
100
AcDbEntity
  8
A-ANNO-TEXT
100
AcDbLine
 10
11.809999999999999
 20
1.9700000000000002
 30
0.0
 11
11.809999999999999
 21
10.38
 31
0.0
  0
TEXT
  5
110
330
17
100
AcDbEntity
  8
A-ANNO-TEXT
100
AcDbText
 10
11.979999999999999
 20
10.180000000000001
 30
0.0
 40
0.105
  1
5  RESULT — FOOTPRINT VS 55,000 CAP
  7
KS-BOLD
 11
11.979999999999999
 21
10.180000000000001
 31
0.0
100
AcDbText
  0
LWPOLYLINE
  5
111
330
17
100
AcDbEntity
  8
A-ANNO-TEXT
100
AcDbPolyline
 90
4
 70
1
 10
11.979999999999999
 20
8.980000000000002
 10
16.22
 20
8.980000000000002
 10
16.22
 20
10.080000000000002
 10
11.979999999999999
 20
10.080000000000002
  0
TEXT
  5
112
330
17
100
AcDbEntity
  8
A-ANNO-TEXT
100
AcDbText
 10
14.099999999999998
 20
9.810000000000002
 30
0.0
 40
0.105
  1
FULL PROGRAM, 2 LEVELS:
  7
KS-BOLD
 72
1
 11
14.099999999999998
 21
9.810000000000002
 31
0.0
100
AcDbText
  0
TEXT
  5
113
330
17
100
AcDbEntity
  8
A-ANNO-TEXT
100
AcDbText
 10
14.099999999999998
 20
9.580000000000002
 30
0.0
 40
0.1
  1
BASE ≈ 62,300 SF — OVER by ≈ 7,300
  7
KS-BOLD
 72
1
 11
14.099999999999998
 21
9.580000000000002
 31
0.0
100
AcDbText
  0
TEXT
  5
114
330
17
100
AcDbEntity
  8
A-ANNO-TEXT
100
AcDbText
 10
14.099999999999998
 20
9.360000000000001
 30
0.0
 40
0.1
  1
LEAN ≈ 51,600 SF — FITS (3,400 spare)
  7
KS-BOLD
 72
1
 11
14.099999999999998
 21
9.360000000000001
 31
0.0
100
AcDbText
  0
TEXT
  5
115
330
17
100
AcDbEntity
  8
A-ANNO-TEXT
100
AcDbText
 10
14.099999999999998
 20
9.150000000000002
 30
0.0
 40
0.079
  1
Total GSF ≈ 88,900 base / ≈ 74,700 lean (best seat split)
  7
KS-REG
 72
1
 11
14.099999999999998
 21
9.150000000000002
 31
0.0
100
AcDbText
  0
TEXT
  5
116
330
17
100
AcDbEntity
  8
A-ANNO-TABL
100
AcDbText
 10
11.979999999999999
 20
8.740000000000002
 30
0.0
 40
0.072
  1
CASE
  7
KS-BOLD
 11
11.979999999999999
 21
8.740000000000002
 31
0.0
100
AcDbText
  0
TEXT
  5
117
330
17
100
AcDbEntity
  8
A-ANNO-TABL
100
AcDbText
 10
13.399999999999999
 20
8.740000000000002
 30
0.0
 40
0.072
  1
SPLIT
  7
KS-BOLD
 11
13.399999999999999
 21
8.740000000000002
 31
0.0
100
AcDbText
  0
TEXT
  5
118
330
17
100
AcDbEntity
  8
A-ANNO-TABL
100
AcDbText
 10
14.729999999999999
 20
8.740000000000002
 30
0.0
 40
0.072
  1
FOOTPRINT
  7
KS-BOLD
 72
2
 11
14.729999999999999
 21
8.740000000000002
 31
0.0
100
AcDbText
  0
TEXT
  5
119
330
17
100
AcDbEntity
  8
A-ANNO-TABL
100
AcDbText
 10
15.45
 20
8.740000000000002
 30
0.0
 40
0.072
  1
TOTAL GSF
  7
KS-BOLD
 72
2
 11
15.45
 21
8.740000000000002
 31
0.0
100
AcDbText
  0
TEXT
  5
11A
330
17
100
AcDbEntity
  8
A-ANNO-TABL
100
AcDbText
 10
16.22
 20
8.740000000000002
 30
0.0
 40
0.072
  1
FIT?
  7
KS-BOLD
 72
2
 11
16.22
 21
8.740000000000002
 31
0.0
100
AcDbText
  0
LINE
  5
11B
330
17
100
AcDbEntity
  8
A-ANNO-TABL
100
AcDbLine
 10
11.979999999999999
 20
8.690000000000001
 30
0.0
 11
16.22
 21
8.690000000000001
 31
0.0
  0
TEXT
  5
11C
330
17
100
AcDbEntity
  8
A-ANNO-TABL
100
AcDbText
 10
11.979999999999999
 20
8.575000000000003
 30
0.0
 40
0.07400000000000001
  1
Base, 22,000 floor
  7
KS-REG
 11
11.979999999999999
 21
8.575000000000003
 31
0.0
100
AcDbText
  0
TEXT
  5
11D
330
17
100
AcDbEntity
  8
A-ANNO-TABL
100
AcDbText
 10
13.399999999999999
 20
8.575000000000003
 30
0.0
 40
0.072
  1
50% up (assum.)
  7
KS-REG
 11
13.399999999999999
 21
8.575000000000003
 31
0.0
100
AcDbText
  0
TEXT
  5
11E
330
17
100
AcDbEntity
  8
A-ANNO-TABL
100
AcDbText
 10
14.729999999999999
 20
8.575000000000003
 30
0.0
 40
0.076
  1
62,683
  7
KS-BOLD
 72
2
 11
14.729999999999999
 21
8.575000000000003
 31
0.0
100
AcDbText
  0
TEXT
  5
11F
330
17
100
AcDbEntity
  8
A-ANNO-TABL
100
AcDbText
 10
15.45
 20
8.575000000000003
 30
0.0
 40
0.076
  1
88,664
  7
KS-REG
 72
2
 11
15.45
 21
8.575000000000003
 31
0.0
100
AcDbText
  0
TEXT
  5
120
330
17
100
AcDbEntity
  8
A-ANNO-TABL
100
AcDbText
 10
16.22
 20
8.575000000000003
 30
0.0
 40
0.07400000000000001
  1
NO +7,700
  7
KS-BOLD
 72
2
 11
16.22
 21
8.575000000000003
 31
0.0
100
AcDbText
  0
TEXT
  5
121
330
17
100
AcDbEntity
  8
A-ANNO-TABL
100
AcDbText
 10
11.979999999999999
 20
8.410000000000004
 30
0.0
 40
0.07400000000000001
  1
Base, 22,000 floor
  7
KS-REG
 11
11.979999999999999
 21
8.410000000000004
 31
0.0
100
AcDbText
  0
TEXT
  5
122
330
17
100
AcDbEntity
  8
A-ANNO-TABL
100
AcDbText
 10
13.399999999999999
 20
8.410000000000004
 30
0.0
 40
0.072
  1
55% up (best)
  7
KS-REG
 11
13.399999999999999
 21
8.410000000000004
 31
0.0
100
AcDbText
  0
TEXT
  5
123
330
17
100
AcDbEntity
  8
A-ANNO-TABL
100
AcDbText
 10
14.729999999999999
 20
8.410000000000004
 30
0.0
 40
0.076
  1
62,303
  7
KS-BOLD
 72
2
 11
14.729999999999999
 21
8.410000000000004
 31
0.0
100
AcDbText
  0
TEXT
  5
124
330
17
100
AcDbEntity
  8
A-ANNO-TABL
100
AcDbText
 10
15.45
 20
8.410000000000004
 30
0.0
 40
0.076
  1
88,916
  7
KS-REG
 72
2
 11
15.45
 21
8.410000000000004
 31
0.0
100
AcDbText
  0
TEXT
  5
125
330
17
100
AcDbEntity
  8
A-ANNO-TABL
100
AcDbText
 10
16.22
 20
8.410000000000004
 30
0.0
 40
0.07400000000000001
  1
NO +7,300
  7
KS-BOLD
 72
2
 11
16.22
 21
8.410000000000004
 31
0.0
100
AcDbText
  0
TEXT
  5
126
330
17
100
AcDbEntity
  8
A-ANNO-TABL
100
AcDbText
 10
11.979999999999999
 20
8.245000000000005
 30
0.0
 40
0.07400000000000001
  1
Base, 14,364 floor (B)
  7
KS-REG
 11
11.979999999999999
 21
8.245000000000005
 31
0.0
100
AcDbText
  0
TEXT
  5
127
330
17
100
AcDbEntity
  8
A-ANNO-TABL
100
AcDbText
 10
13.399999999999999
 20
8.245000000000005
 30
0.0
 40
0.072
  1
50% up (assum.)
  7
KS-REG
 11
13.399999999999999
 21
8.245000000000005
 31
0.0
100
AcDbText
  0
TEXT
  5
128
330
17
100
AcDbEntity
  8
A-ANNO-TABL
100
AcDbText
 10
14.729999999999999
 20
8.245000000000005
 30
0.0
 40
0.076
  1
52,235
  7
KS-BOLD
 72
2
 11
14.729999999999999
 21
8.245000000000005
 31
0.0
100
AcDbText
  0
TEXT
  5
129
330
17
100
AcDbEntity
  8
A-ANNO-TABL
100
AcDbText
 10
15.45
 20
8.245000000000005
 30
0.0
 40
0.076
  1
78,216
  7
KS-REG
 72
2
 11
15.45
 21
8.245000000000005
 31
0.0
100
AcDbText
  0
TEXT
  5
12A
330
17
100
AcDbEntity
  8
A-ANNO-TABL
100
AcDbText
 10
16.22
 20
8.245000000000005
 30
0.0
 40
0.07400000000000001
  1
YES
  7
KS-BOLD
 72
2
 11
16.22
 21
8.245000000000005
 31
0.0
100
AcDbText
  0
TEXT
  5
12B
330
17
100
AcDbEntity
  8
A-ANNO-TABL
100
AcDbText
 10
11.979999999999999
 20
8.080000000000005
 30
0.0
 40
0.07400000000000001
  1
Lean, 22,000 floor
  7
KS-REG
 11
11.979999999999999
 21
8.080000000000005
 31
0.0
100
AcDbText
  0
TEXT
  5
12C
330
17
100
AcDbEntity
  8
A-ANNO-TABL
100
AcDbText
 10
13.399999999999999
 20
8.080000000000005
 30
0.0
 40
0.072
  1
50% up (assum.)
  7
KS-REG
 11
13.399999999999999
 21
8.080000000000005
 31
0.0
100
AcDbText
  0
TEXT
  5
12D
330
17
100
AcDbEntity
  8
A-ANNO-TABL
100
AcDbText
 10
14.729999999999999
 20
8.080000000000005
 30
0.0
 40
0.076
  1
53,518
  7
KS-BOLD
 72
2
 11
14.729999999999999
 21
8.080000000000005
 31
0.0
100
AcDbText
  0
TEXT
  5
12E
330
17
100
AcDbEntity
  8
A-ANNO-TABL
100
AcDbText
 10
15.45
 20
8.080000000000005
 30
0.0
 40
0.076
  1
74,107
  7
KS-REG
 72
2
 11
15.45
 21
8.080000000000005
 31
0.0
100
AcDbText
  0
TEXT
  5
12F
330
17
100
AcDbEntity
  8
A-ANNO-TABL
100
AcDbText
 10
16.22
 20
8.080000000000005
 30
0.0
 40
0.07400000000000001
  1
YES
  7
KS-BOLD
 72
2
 11
16.22
 21
8.080000000000005
 31
0.0
100
AcDbText
  0
TEXT
  5
130
330
17
100
AcDbEntity
  8
A-ANNO-TABL
100
AcDbText
 10
11.979999999999999
 20
7.915000000000005
 30
0.0
 40
0.07400000000000001
  1
Lean, 22,000 floor
  7
KS-REG
 11
11.979999999999999
 21
7.915000000000005
 31
0.0
100
AcDbText
  0
TEXT
  5
131
330
17
100
AcDbEntity
  8
A-ANNO-TABL
100
AcDbText
 10
13.399999999999999
 20
7.915000000000005
 30
0.0
 40
0.072
  1
65% up (best)
  7
KS-REG
 11
13.399999999999999
 21
7.915000000000005
 31
0.0
100
AcDbText
  0
TEXT
  5
132
330
17
100
AcDbEntity
  8
A-ANNO-TABL
100
AcDbText
 10
14.729999999999999
 20
7.915000000000005
 30
0.0
 40
0.076
  1
51,631
  7
KS-BOLD
 72
2
 11
14.729999999999999
 21
7.915000000000005
 31
0.0
100
AcDbText
  0
TEXT
  5
133
330
17
100
AcDbEntity
  8
A-ANNO-TABL
100
AcDbText
 10
15.45
 20
7.915000000000005
 30
0.0
 40
0.076
  1
74,678
  7
KS-REG
 72
2
 11
15.45
 21
7.915000000000005
 31
0.0
100
AcDbText
  0
TEXT
  5
134
330
17
100
AcDbEntity
  8
A-ANNO-TABL
100
AcDbText
 10
16.22
 20
7.915000000000005
 30
0.0
 40
0.07400000000000001
  1
YES
  7
KS-BOLD
 72
2
 11
16.22
 21
7.915000000000005
 31
0.0
100
AcDbText
  0
TEXT
  5
135
330
17
100
AcDbEntity
  8
A-ANNO-TABL
100
AcDbText
 10
11.979999999999999
 20
7.750000000000005
 30
0.0
 40
0.07400000000000001
  1
Lean, 14,364 floor (B)
  7
KS-REG
 11
11.979999999999999
 21
7.750000000000005
 31
0.0
100
AcDbText
  0
TEXT
  5
136
330
17
100
AcDbEntity
  8
A-ANNO-TABL
100
AcDbText
 10
13.399999999999999
 20
7.750000000000005
 30
0.0
 40
0.072
  1
50% up (assum.)
  7
KS-REG
 11
13.399999999999999
 21
7.750000000000005
 31
0.0
100
AcDbText
  0
TEXT
  5
137
330
17
100
AcDbEntity
  8
A-ANNO-TABL
100
AcDbText
 10
14.729999999999999
 20
7.750000000000005
 30
0.0
 40
0.076
  1
43,957
  7
KS-BOLD
 72
2
 11
14.729999999999999
 21
7.750000000000005
 31
0.0
100
AcDbText
  0
TEXT
  5
138
330
17
100
AcDbEntity
  8
A-ANNO-TABL
100
AcDbText
 10
15.45
 20
7.750000000000005
 30
0.0
 40
0.076
  1
64,546
  7
KS-REG
 72
2
 11
15.45
 21
7.750000000000005
 31
0.0
100
AcDbText
  0
TEXT
  5
139
330
17
100
AcDbEntity
  8
A-ANNO-TABL
100
AcDbText
 10
16.22
 20
7.750000000000005
 30
0.0
 40
0.07400000000000001
  1
YES
  7
KS-BOLD
 72
2
 11
16.22
 21
7.750000000000005
 31
0.0
100
AcDbText
  0
TEXT
  5
13A
330
17
100
AcDbEntity
  8
A-ANNO-TABL
100
AcDbText
 10
11.979999999999999
 20
7.585000000000005
 30
0.0
 40
0.07400000000000001
  1
Lean, 14,364 floor (B)
  7
KS-REG
 11
11.979999999999999
 21
7.585000000000005
 31
0.0
100
AcDbText
  0
TEXT
  5
13B
330
17
100
AcDbEntity
  8
A-ANNO-TABL
100
AcDbText
 10
13.399999999999999
 20
7.585000000000005
 30
0.0
 40
0.072
  1
60% up (best)
  7
KS-REG
 11
13.399999999999999
 21
7.585000000000005
 31
0.0
100
AcDbText
  0
TEXT
  5
13C
330
17
100
AcDbEntity
  8
A-ANNO-TABL
100
AcDbText
 10
14.729999999999999
 20
7.585000000000005
 30
0.0
 40
0.076
  1
42,559
  7
KS-BOLD
 72
2
 11
14.729999999999999
 21
7.585000000000005
 31
0.0
100
AcDbText
  0
TEXT
  5
13D
330
17
100
AcDbEntity
  8
A-ANNO-TABL
100
AcDbText
 10
15.45
 20
7.585000000000005
 30
0.0
 40
0.076
  1
64,825
  7
KS-REG
 72
2
 11
15.45
 21
7.585000000000005
 31
0.0
100
AcDbText
  0
TEXT
  5
13E
330
17
100
AcDbEntity
  8
A-ANNO-TABL
100
AcDbText
 10
16.22
 20
7.585000000000005
 30
0.0
 40
0.07400000000000001
  1
YES
  7
KS-BOLD
 72
2
 11
16.22
 21
7.585000000000005
 31
0.0
100
AcDbText
  0
LINE
  5
13F
330
17
100
AcDbEntity
  8
A-ANNO-TABL
100
AcDbLine
 10
11.979999999999999
 20
7.525000000000006
 30
0.0
 11
16.22
 21
7.525000000000006
 31
0.0
  0
TEXT
  5
140
330
17
100
AcDbEntity
  8
A-ANNO-TEXT
100
AcDbText
 10
11.979999999999999
 20
7.3857666666666715
 30
0.0
 40
0.073
  1
Full program = 22,000 SF floor + 2,200 seats + all 5 tags. Split = share of seats in
  7
KS-REG
 11
11.979999999999999
 21
7.3857666666666715
 31
0.0
100
AcDbText
  0
TEXT
  5
141
330
17
100
AcDbEntity
  8
A-ANNO-TEXT
100
AcDbText
 10
11.979999999999999
 20
7.251933333333338
 30
0.0
 40
0.073
  1
the upper tier (50/50 ASSUMED; 'best' = lowest footprint in 30-70%). Sightlines not
  7
KS-REG
 11
11.979999999999999
 21
7.251933333333338
 31
0.0
100
AcDbText
  0
TEXT
  5
142
330
17
100
AcDbEntity
  8
A-ANNO-TEXT
100
AcDbText
 10
11.979999999999999
 20
7.1181000000000045
 30
0.0
 40
0.073
  1
checked.
  7
KS-REG
 11
11.979999999999999
 21
7.1181000000000045
 31
0.0
100
AcDbText
  0
TEXT
  5
143
330
17
100
AcDbEntity
  8
A-ANNO-TEXT
100
AcDbText
 10
11.979999999999999
 20
6.730041666666672
 30
0.0
 40
0.105
  1
6  SMALLEST CHANGE THAT FITS (BASE)
  7
KS-BOLD
 11
11.979999999999999
 21
6.730041666666672
 31
0.0
100
AcDbText
  0
TEXT
  5
144
330
17
100
AcDbEntity
  8
A-ANNO-TEXT
100
AcDbText
 10
11.979999999999999
 20
6.541008333333338
 30
0.0
 40
0.079
  1
Option B floor (14,364 SF, 4 mats 42 ft + tables + 1 court):
  7
KS-BOLD
 11
11.979999999999999
 21
6.541008333333338
 31
0.0
100
AcDbText
  0
TEXT
  5
145
330
17
100
AcDbEntity
  8
A-ANNO-TEXT
100
AcDbText
 10
12.129999999999999
 20
6.399966666666671
 30
0.0
 40
0.079
  1
footprint ≈ 52,200 — fits with all 2,200 seats; total ≈ 78,200 GSF.
  7
KS-REG
 11
12.129999999999999
 21
6.399966666666671
 31
0.0
100
AcDbText
  0
TEXT
  5
146
330
17
100
AcDbEntity
  8
A-ANNO-TEXT
100
AcDbText
 10
11.979999999999999
 20
6.218925000000004
 30
0.0
 40
0.079
  1
Or keep the floor and cut to ≈ 1,370 seats
  7
KS-BOLD
 11
11.979999999999999
 21
6.218925000000004
 31
0.0
100
AcDbText
  0
TEXT
  5
147
330
17
100
AcDbEntity
  8
A-ANNO-TEXT
100
AcDbText
 10
12.129999999999999
 20
6.077883333333337
 30
0.0
 40
0.079
  1
(−830; best split). Any floor ≤ ≈ 16,400 SF fits with all seats.
  7
KS-REG
 11
12.129999999999999
 21
6.077883333333337
 31
0.0
100
AcDbText
  0
TEXT
  5
148
330
17
100
AcDbEntity
  8
A-ANNO-TEXT
100
AcDbText
 10
11.979999999999999
 20
5.89684166666667
 30
0.0
 40
0.079
  1
Or build to the lean inputs
  7
KS-BOLD
 11
11.979999999999999
 21
5.89684166666667
 31
0.0
100
AcDbText
  0
TEXT
  5
149
330
17
100
AcDbEntity
  8
A-ANNO-TEXT
100
AcDbText
 10
12.129999999999999
 20
5.7558000000000025
 30
0.0
 40
0.079
  1
(telescopic lower tier, 1.15 gross-up): full program fits as is.
  7
KS-REG
 11
12.129999999999999
 21
5.7558000000000025
 31
0.0
100
AcDbText
  0
TEXT
  5
14A
330
17
100
AcDbEntity
  8
A-ANNO-TEXT
100
AcDbText
 10
11.979999999999999
 20
5.363791666666669
 30
0.0
 40
0.105
  1
7  CITED vs ASSUMED
  7
KS-BOLD
 11
11.979999999999999
 21
5.363791666666669
 31
0.0
100
AcDbText
  0
TEXT
  5
14B
330
17
100
AcDbEntity
  8
A-ANNO-TEXT
100
AcDbText
 10
11.979999999999999
 20
5.181291666666669
 30
0.0
 40
0.075
  1
CITED: code rules (IBC 2021 ch. 10, 11, 9; ADA 2010), seat and gross-up factors,
  7
KS-REG
 11
11.979999999999999
 21
5.181291666666669
 31
0.0
100
AcDbText
  0
TEXT
  5
14C
330
17
100
AcDbEntity
  8
A-ANNO-TEXT
100
AcDbText
 10
11.979999999999999
 20
5.043791666666669
 30
0.0
 40
0.075
  1
fixture ratios, lockers-at-event-level precedent (Reed, Orleans arenas). ASSUMED
  7
KS-REG
 11
11.979999999999999
 21
5.043791666666669
 31
0.0
100
AcDbText
  0
TEXT
  5
14D
330
17
100
AcDbEntity
  8
A-ANNO-TEXT
100
AcDbText
 10
11.979999999999999
 20
4.906291666666669
 30
0.0
 40
0.075
  1
(verify): 15 ft floor-to-floor, 64 SF hoistway, 50/50 split, which rooms go up,
  7
KS-REG
 11
11.979999999999999
 21
4.906291666666669
 31
0.0
100
AcDbText
  0
TEXT
  5
14E
330
17
100
AcDbEntity
  8
A-ANNO-TEXT
100
AcDbText
 10
11.979999999999999
 20
4.768791666666669
 30
0.0
 40
0.075
  1
mechanical at grade, 50 SF/fixture, concourse 25%, A-4 occupancy.
  7
KS-REG
 11
11.979999999999999
 21
4.768791666666669
 31
0.0
100
AcDbText
  0
TEXT
  5
14F
330
17
100
AcDbEntity
  8
A-ANNO-TEXT
100
AcDbText
 10
11.979999999999999
 20
4.379416666666669
 30
0.0
 40
0.1
  1
8  SOURCES (retrieved 2026-10-03)
  7
KS-BOLD
 11
11.979999999999999
 21
4.379416666666669
 31
0.0
100
AcDbText
  0
TEXT
  5
150
330
17
100
AcDbEntity
  8
A-ANNO-TEXT
100
AcDbText
 10
11.979999999999999
 20
4.23671666666667
 30
0.0
 40
0.069
  1
·
  7
KS-REG
 11
11.979999999999999
 21
4.23671666666667
 31
0.0
100
AcDbText
  0
TEXT
  5
151
330
17
100
AcDbEntity
  8
A-ANNO-TEXT
100
AcDbText
 10
12.099999999999998
 20
4.23671666666667
 30
0.0
 40
0.069
  1
IBC 2021 (UpCodes, AL ed.): 903.2.1.4, 907.2.1.1, 1005.3.1, 1005.5, T1006.3.3, 1009,
  7
KS-REG
 11
12.099999999999998
 21
4.23671666666667
 31
0.0
100
AcDbText
  0
TEXT
  5
152
330
17
100
AcDbEntity
  8
A-ANNO-TEXT
100
AcDbText
 10
12.099999999999998
 20
4.11021666666667
 30
0.0
 40
0.069
  1
1011.2/.5.2/.6/.8, 1019.3, 1104.4, 2902.3.3 — R-015
  7
KS-REG
 11
12.099999999999998
 21
4.11021666666667
 31
0.0
100
AcDbText
  0
TEXT
  5
153
330
17
100
AcDbEntity
  8
A-ANNO-TEXT
100
AcDbText
 10
11.979999999999999
 20
3.98209166666667
 30
0.0
 40
0.069
  1
·
  7
KS-REG
 11
11.979999999999999
 21
3.98209166666667
 31
0.0
100
AcDbText
  0
TEXT
  5
154
330
17
100
AcDbEntity
  8
A-ANNO-TEXT
100
AcDbText
 10
12.099999999999998
 20
3.98209166666667
 30
0.0
 40
0.069
  1
2010 ADA Standards (access-board.gov) 206.2.3, T407.4.1 — R-015
  7
KS-REG
 11
12.099999999999998
 21
3.98209166666667
 31
0.0
100
AcDbText
  0
TEXT
  5
155
330
17
100
AcDbEntity
  8
A-ANNO-TEXT
100
AcDbText
 10
11.979999999999999
 20
3.8539666666666696
 30
0.0
 40
0.069
  1
·
  7
KS-REG
 11
11.979999999999999
 21
3.8539666666666696
 31
0.0
100
AcDbText
  0
TEXT
  5
156
330
17
100
AcDbEntity
  8
A-ANNO-TEXT
100
AcDbText
 10
12.099999999999998
 20
3.8539666666666696
 30
0.0
 40
0.069
  1
Reed Arena Facility Guide; Orleans Arena Production Guide 2024
  7
KS-REG
 11
12.099999999999998
 21
3.8539666666666696
 31
0.0
100
AcDbText
  0
TEXT
  5
157
330
17
100
AcDbEntity
  8
A-ANNO-TEXT
100
AcDbText
 10
12.099999999999998
 20
3.7274666666666696
 30
0.0
 40
0.069
  1
(venuecoalition.com) — R-015
  7
KS-REG
 11
12.099999999999998
 21
3.7274666666666696
 31
0.0
100
AcDbText
  0
TEXT
  5
158
330
17
100
AcDbEntity
  8
A-ANNO-TEXT
100
AcDbText
 10
11.979999999999999
 20
3.5993416666666693
 30
0.0
 40
0.069
  1
·
  7
KS-REG
 11
11.979999999999999
 21
3.5993416666666693
 31
0.0
100
AcDbText
  0
TEXT
  5
159
330
17
100
AcDbEntity
  8
A-ANNO-TEXT
100
AcDbText
 10
12.099999999999998
 20
3.5993416666666693
 30
0.0
 40
0.069
  1
Rev A sources: R-008, R-009, R-012, R-014, R-005 (see Rev A)
  7
KS-REG
 11
12.099999999999998
 21
3.5993416666666693
 31
0.0
100
AcDbText
  0
ENDSEC
  0
SECTION
  2
OBJECTS
  0
DICTIONARY
  5
A
330
0
100
AcDbDictionary
281
1
  3
ACAD_COLOR
350
B
  3
ACAD_GROUP
350
C
  3
ACAD_LAYOUT
350
D
  3
ACAD_MATERIAL
350
E
  3
ACAD_MLEADERSTYLE
350
F
  3
ACAD_MLINESTYLE
350
10
  3
ACAD_PLOTSETTINGS
350
11
  3
ACAD_PLOTSTYLENAME
350
12
  3
ACAD_SCALELIST
350
14
  3
ACAD_TABLESTYLE
350
15
  3
ACAD_VISUALSTYLE
350
16
  3
EZDXF_META
350
2D
  0
DICTIONARY
  5
B
330
A
100
AcDbDictionary
281
1
  0
DICTIONARY
  5
C
330
A
100
AcDbDictionary
281
1
  0
DICTIONARY
  5
D
330
A
100
AcDbDictionary
281
1
  3
Model
350
1A
  3
Layout1
350
1E
  0
DICTIONARY
  5
E
330
A
100
AcDbDictionary
281
1
  3
ByBlock
350
1F
  3
ByLayer
350
20
  3
Global
350
21
  0
DICTIONARY
  5
F
330
A
100
AcDbDictionary
281
1
  3
Standard
350
2C
  0
DICTIONARY
  5
10
330
A
100
AcDbDictionary
281
1
  3
Standard
350
22
  0
DICTIONARY
  5
11
330
A
100
AcDbDictionary
281
1
  0
ACDBDICTIONARYWDFLT
  5
12
330
A
100
AcDbDictionary
281
1
  3
Normal
350
13
100
AcDbDictionaryWithDefault
340
13
  0
ACDBPLACEHOLDER
  5
13
330
12
  0
DICTIONARY
  5
14
330
A
100
AcDbDictionary
281
1
  0
DICTIONARY
  5
15
330
A
100
AcDbDictionary
281
1
  0
DICTIONARY
  5
16
330
A
100
AcDbDictionary
281
1
  0
LAYOUT
  5
1A
330
D
100
AcDbPlotSettings
  1

  4
A3
  6

 40
7.5
 41
20.0
 42
7.5
 43
20.0
 44
420.0
 45
297.0
 46
0.0
 47
0.0
 48
0.0
 49
0.0
140
0.0
141
0.0
142
1.0
143
1.0
 70
1024
 72
1
 73
0
 74
5
  7

 75
16
 76
0
 77
2
 78
300
147
1.0
148
0.0
149
0.0
100
AcDbLayout
  1
Model
 70
1
 71
0
 10
0.0
 20
0.0
 11
420.0
 21
297.0
 12
0.0
 22
0.0
 32
0.0
 14
1e+20
 24
1e+20
 34
1e+20
 15
-1e+20
 25
-1e+20
 35
-1e+20
146
0.0
 13
0.0
 23
0.0
 33
0.0
 16
1.0
 26
0.0
 36
0.0
 17
0.0
 27
1.0
 37
0.0
 76
1
330
17
  0
LAYOUT
  5
1E
330
D
100
AcDbPlotSettings
  1

  4
A3
  6

 40
7.5
 41
20.0
 42
7.5
 43
20.0
 44
420.0
 45
297.0
 46
0.0
 47
0.0
 48
0.0
 49
0.0
140
0.0
141
0.0
142
1.0
143
1.0
 70
0
 72
1
 73
0
 74
5
  7

 75
16
 76
0
 77
2
 78
300
147
1.0
148
0.0
149
0.0
100
AcDbLayout
  1
Layout1
 70
1
 71
1
 10
0.0
 20
0.0
 11
420.0
 21
297.0
 12
0.0
 22
0.0
 32
0.0
 14
1e+20
 24
1e+20
 34
1e+20
 15
-1e+20
 25
-1e+20
 35
-1e+20
146
0.0
 13
0.0
 23
0.0
 33
0.0
 16
1.0
 26
0.0
 36
0.0
 17
0.0
 27
1.0
 37
0.0
 76
1
330
1B
  0
MATERIAL
  5
1F
102
{ACAD_REACTORS
330
E
102
}
330
E
100
AcDbMaterial
  1
ByBlock
  2

 70
0
 40
1.0
 71
1
 41
1.0
 91
-1023410177
 42
1.0
 72
1
  3

 73
1
 74
1
 75
1
 44
0.5
 73
0
 45
1.0
 46
1.0
 77
1
  4

 78
1
 79
1
170
1
 48
1.0
171
1
  6

172
1
173
1
174
1
140
1.0
141
1.0
175
1
  7

176
1
177
1
178
1
143
1.0
179
1
  8

270
1
271
1
272
1
145
1.0
146
1.0
273
1
  9

274
1
275
1
276
1
 42
1.0
 72
1
  3

 73
1
 74
1
 75
1
 94
63
  0
MATERIAL
  5
20
102
{ACAD_REACTORS
330
E
102
}
330
E
100
AcDbMaterial
  1
ByLayer
  2

 70
0
 40
1.0
 71
1
 41
1.0
 91
-1023410177
 42
1.0
 72
1
  3

 73
1
 74
1
 75
1
 44
0.5
 73
0
 45
1.0
 46
1.0
 77
1
  4

 78
1
 79
1
170
1
 48
1.0
171
1
  6

172
1
173
1
174
1
140
1.0
141
1.0
175
1
  7

176
1
177
1
178
1
143
1.0
179
1
  8

270
1
271
1
272
1
145
1.0
146
1.0
273
1
  9

274
1
275
1
276
1
 42
1.0
 72
1
  3

 73
1
 74
1
 75
1
 94
63
  0
MATERIAL
  5
21
102
{ACAD_REACTORS
330
E
102
}
330
E
100
AcDbMaterial
  1
Global
  2

 70
0
 40
1.0
 71
1
 41
1.0
 91
-1023410177
 42
1.0
 72
1
  3

 73
1
 74
1
 75
1
 44
0.5
 73
0
 45
1.0
 46
1.0
 77
1
  4

 78
1
 79
1
170
1
 48
1.0
171
1
  6

172
1
173
1
174
1
140
1.0
141
1.0
175
1
  7

176
1
177
1
178
1
143
1.0
179
1
  8

270
1
271
1
272
1
145
1.0
146
1.0
273
1
  9

274
1
275
1
276
1
 42
1.0
 72
1
  3

 73
1
 74
1
 75
1
 94
63
  0
MLINESTYLE
  5
22
102
{ACAD_REACTORS
330
10
102
}
330
10
100
AcDbMlineStyle
  2
Standard
 70
0
  3

 62
256
 51
90.0
 52
90.0
 71
2
 49
0.5
 62
256
  6
BYLAYER
 49
-0.5
 62
256
  6
BYLAYER
  0
MLEADERSTYLE
  5
2C
102
{ACAD_REACTORS
330
F
102
}
330
F
100
AcDbMLeaderStyle
179
2
170
2
171
1
172
0
 90
2
 40
0.0
 41
0.0
173
1
 91
-1056964608
 92
-2
290
1
 42
2.0
291
1
 43
8.0
  3
Standard
 44
4.0
300

342
29
174
1
175
1
176
0
178
1
 93
-1056964608
 45
4.0
292
0
297
0
 46
4.0
 94
-1056964608
 47
1.0
 49
1.0
140
1.0
294
1
141
0.0
177
0
142
1.0
295
0
296
0
143
3.75
271
0
272
9
273
9
  0
DICTIONARY
  5
2D
330
A
100
AcDbDictionary
280
1
281
1
  3
CREATED_BY_EZDXF
350
2E
  3
WRITTEN_BY_EZDXF
350
15C
  0
DICTIONARYVAR
  5
2E
330
2D
100
DictionaryVariables
280
0
  1
1.4.4 @ 2026-10-04T04:15:52.850373+00:00
  0
DICTIONARYVAR
  5
15C
330
2D
100
DictionaryVariables
280
0
  1
1.4.4 @ 2026-10-04T04:15:52.858200+00:00
  0
ENDSEC
  0
EOF
