  0
SECTION
  2
HEADER
  9
$ACADVER
  1
AC1024
  9
$ACADMAINTVER
 70
6
  9
$DWGCODEPAGE
  3
ANSI_1252
  9
$LASTSAVEDBY
  1
ezdxf
  9
$INSBASE
 10
0.0
 20
0.0
 30
0.0
  9
$EXTMIN
 10
1e+20
 20
1e+20
 30
1e+20
  9
$EXTMAX
 10
-1e+20
 20
-1e+20
 30
-1e+20
  9
$LIMMIN
 10
0.0
 20
0.0
  9
$LIMMAX
 10
420.0
 20
297.0
  9
$ORTHOMODE
 70
0
  9
$REGENMODE
 70
1
  9
$FILLMODE
 70
1
  9
$QTEXTMODE
 70
0
  9
$MIRRTEXT
 70
1
  9
$LTSCALE
 40
1.0
  9
$ATTMODE
 70
1
  9
$TEXTSIZE
 40
2.5
  9
$TRACEWID
 40
1.0
  9
$TEXTSTYLE
  7
Standard
  9
$CLAYER
  8
0
  9
$CELTYPE
  6
ByLayer
  9
$CECOLOR
 62
256
  9
$CELTSCALE
 40
1.0
  9
$DISPSILH
 70
0
  9
$DIMSCALE
 40
1.0
  9
$DIMASZ
 40
2.5
  9
$DIMEXO
 40
0.625
  9
$DIMDLI
 40
3.75
  9
$DIMRND
 40
0.0
  9
$DIMDLE
 40
0.0
  9
$DIMEXE
 40
1.25
  9
$DIMTP
 40
0.0
  9
$DIMTM
 40
0.0
  9
$DIMTXT
 40
2.5
  9
$DIMCEN
 40
2.5
  9
$DIMTSZ
 40
0.0
  9
$DIMTOL
 70
0
  9
$DIMLIM
 70
0
  9
$DIMTIH
 70
0
  9
$DIMTOH
 70
0
  9
$DIMSE1
 70
0
  9
$DIMSE2
 70
0
  9
$DIMTAD
 70
1
  9
$DIMZIN
 70
8
  9
$DIMBLK
  1

  9
$DIMASO
 70
1
  9
$DIMSHO
 70
1
  9
$DIMPOST
  1

  9
$DIMAPOST
  1

  9
$DIMALT
 70
0
  9
$DIMALTD
 70
3
  9
$DIMALTF
 40
0.03937007874
  9
$DIMLFAC
 40
1.0
  9
$DIMTOFL
 70
1
  9
$DIMTVP
 40
0.0
  9
$DIMTIX
 70
0
  9
$DIMSOXD
 70
0
  9
$DIMSAH
 70
0
  9
$DIMBLK1
  1

  9
$DIMBLK2
  1

  9
$DIMSTYLE
  2
ISO-25
  9
$DIMCLRD
 70
0
  9
$DIMCLRE
 70
0
  9
$DIMCLRT
 70
0
  9
$DIMTFAC
 40
1.0
  9
$DIMGAP
 40
0.625
  9
$DIMJUST
 70
0
  9
$DIMSD1
 70
0
  9
$DIMSD2
 70
0
  9
$DIMTOLJ
 70
0
  9
$DIMTZIN
 70
8
  9
$DIMALTZ
 70
0
  9
$DIMALTTZ
 70
0
  9
$DIMUPT
 70
0
  9
$DIMDEC
 70
2
  9
$DIMTDEC
 70
2
  9
$DIMALTU
 70
2
  9
$DIMALTTD
 70
3
  9
$DIMTXSTY
  7
Standard
  9
$DIMAUNIT
 70
0
  9
$DIMADEC
 70
0
  9
$DIMALTRND
 40
0.0
  9
$DIMAZIN
 70
0
  9
$DIMDSEP
 70
44
  9
$DIMATFIT
 70
3
  9
$DIMFRAC
 70
0
  9
$DIMLDRBLK
  1

  9
$DIMLUNIT
 70
2
  9
$DIMLWD
 70
-2
  9
$DIMLWE
 70
-2
  9
$DIMTMOVE
 70
0
  9
$DIMFXL
 40
1.0
  9
$DIMFXLON
 70
0
  9
$DIMJOGANG
 40
0.785398163397
  9
$DIMTFILL
 70
0
  9
$DIMTFILLCLR
 70
0
  9
$DIMARCSYM
 70
0
  9
$DIMLTYPE
  6

  9
$DIMLTEX1
  6

  9
$DIMLTEX2
  6

  9
$DIMTXTDIRECTION
 70
0
  9
$LUNITS
 70
2
  9
$LUPREC
 70
4
  9
$SKETCHINC
 40
1.0
  9
$FILLETRAD
 40
10.0
  9
$AUNITS
 70
0
  9
$AUPREC
 70
2
  9
$MENU
  1
.
  9
$ELEVATION
 40
0.0
  9
$PELEVATION
 40
0.0
  9
$THICKNESS
 40
0.0
  9
$LIMCHECK
 70
0
  9
$CHAMFERA
 40
0.0
  9
$CHAMFERB
 40
0.0
  9
$CHAMFERC
 40
0.0
  9
$CHAMFERD
 40
0.0
  9
$SKPOLY
 70
0
  9
$TDCREATE
 40
2461317.927615741
  9
$TDUCREATE
 40
2458532.153996898
  9
$TDUPDATE
 40
2461317.927615741
  9
$TDUUPDATE
 40
2458532.1544311
  9
$TDINDWG
 40
0.0
  9
$TDUSRTIMER
 40
0.0
  9
$USRTIMER
 70
1
  9
$ANGBASE
 50
0.0
  9
$ANGDIR
 70
0
  9
$PDMODE
 70
0
  9
$PDSIZE
 40
0.0
  9
$PLINEWID
 40
0.0
  9
$SPLFRAME
 70
0
  9
$SPLINETYPE
 70
6
  9
$SPLINESEGS
 70
8
  9
$HANDSEED
  5
EA
  9
$SURFTAB1
 70
6
  9
$SURFTAB2
 70
6
  9
$SURFTYPE
 70
6
  9
$SURFU
 70
6
  9
$SURFV
 70
6
  9
$UCSBASE
  2

  9
$UCSNAME
  2

  9
$UCSORG
 10
0.0
 20
0.0
 30
0.0
  9
$UCSXDIR
 10
1.0
 20
0.0
 30
0.0
  9
$UCSYDIR
 10
0.0
 20
1.0
 30
0.0
  9
$UCSORTHOREF
  2

  9
$UCSORTHOVIEW
 70
0
  9
$UCSORGTOP
 10
0.0
 20
0.0
 30
0.0
  9
$UCSORGBOTTOM
 10
0.0
 20
0.0
 30
0.0
  9
$UCSORGLEFT
 10
0.0
 20
0.0
 30
0.0
  9
$UCSORGRIGHT
 10
0.0
 20
0.0
 30
0.0
  9
$UCSORGFRONT
 10
0.0
 20
0.0
 30
0.0
  9
$UCSORGBACK
 10
0.0
 20
0.0
 30
0.0
  9
$PUCSBASE
  2

  9
$PUCSNAME
  2

  9
$PUCSORG
 10
0.0
 20
0.0
 30
0.0
  9
$PUCSXDIR
 10
1.0
 20
0.0
 30
0.0
  9
$PUCSYDIR
 10
0.0
 20
1.0
 30
0.0
  9
$PUCSORTHOREF
  2

  9
$PUCSORTHOVIEW
 70
0
  9
$PUCSORGTOP
 10
0.0
 20
0.0
 30
0.0
  9
$PUCSORGBOTTOM
 10
0.0
 20
0.0
 30
0.0
  9
$PUCSORGLEFT
 10
0.0
 20
0.0
 30
0.0
  9
$PUCSORGRIGHT
 10
0.0
 20
0.0
 30
0.0
  9
$PUCSORGFRONT
 10
0.0
 20
0.0
 30
0.0
  9
$PUCSORGBACK
 10
0.0
 20
0.0
 30
0.0
  9
$USERI1
 70
0
  9
$USERI2
 70
0
  9
$USERI3
 70
0
  9
$USERI4
 70
0
  9
$USERI5
 70
0
  9
$USERR1
 40
0.0
  9
$USERR2
 40
0.0
  9
$USERR3
 40
0.0
  9
$USERR4
 40
0.0
  9
$USERR5
 40
0.0
  9
$WORLDVIEW
 70
1
  9
$SHADEDGE
 70
3
  9
$SHADEDIF
 70
70
  9
$TILEMODE
 70
1
  9
$MAXACTVP
 70
64
  9
$PINSBASE
 10
0.0
 20
0.0
 30
0.0
  9
$PLIMCHECK
 70
0
  9
$PEXTMIN
 10
1e+20
 20
1e+20
 30
1e+20
  9
$PEXTMAX
 10
-1e+20
 20
-1e+20
 30
-1e+20
  9
$PLIMMIN
 10
0.0
 20
0.0
  9
$PLIMMAX
 10
420.0
 20
297.0
  9
$UNITMODE
 70
0
  9
$VISRETAIN
 70
1
  9
$PLINEGEN
 70
0
  9
$PSLTSCALE
 70
1
  9
$TREEDEPTH
 70
3020
  9
$CMLSTYLE
  2
Standard
  9
$CMLJUST
 70
0
  9
$CMLSCALE
 40
20.0
  9
$PROXYGRAPHICS
 70
1
  9
$MEASUREMENT
 70
0
  9
$CELWEIGHT
370
-1
  9
$ENDCAPS
280
0
  9
$JOINSTYLE
280
0
  9
$LWDISPLAY
290
0
  9
$INSUNITS
 70
1
  9
$HYPERLINKBASE
  1

  9
$STYLESHEET
  1

  9
$XEDIT
290
1
  9
$CEPSNTYPE
380
0
  9
$PSTYLEMODE
290
1
  9
$FINGERPRINTGUID
  2
{E8ADE30D-9FEC-4026-A24A-06891E643AA1}
  9
$VERSIONGUID
  2
{5219E40B-4289-4628-BE09-5ECB8697BC36}
  9
$EXTNAMES
290
1
  9
$PSVPSCALE
 40
0.0
  9
$OLESTARTUP
290
0
  9
$SORTENTS
280
127
  9
$INDEXCTL
280
0
  9
$HIDETEXT
280
1
  9
$XCLIPFRAME
280
1
  9
$HALOGAP
280
0
  9
$OBSCOLOR
 70
257
  9
$OBSLTYPE
280
0
  9
$INTERSECTIONDISPLAY
280
0
  9
$INTERSECTIONCOLOR
 70
257
  9
$DIMASSOC
280
2
  9
$PROJECTNAME
  1

  9
$CAMERADISPLAY
290
0
  9
$LENSLENGTH
 40
50.0
  9
$CAMERAHEIGHT
 40
0.0
  9
$STEPSPERSEC
 40
24.0
  9
$STEPSIZE
 40
100.0
  9
$3DDWFPREC
 40
2.0
  9
$PSOLWIDTH
 40
0.005
  9
$PSOLHEIGHT
 40
0.08
  9
$LOFTANG1
 40
1.570796326795
  9
$LOFTANG2
 40
1.570796326795
  9
$LOFTMAG1
 40
0.0
  9
$LOFTMAG2
 40
0.0
  9
$LOFTPARAM
 70
7
  9
$LOFTNORMALS
280
1
  9
$LATITUDE
 40
37.795
  9
$LONGITUDE
 40
-122.394
  9
$NORTHDIRECTION
 40
0.0
  9
$TIMEZONE
 70
-8000
  9
$LIGHTGLYPHDISPLAY
280
1
  9
$TILEMODELIGHTSYNCH
280
1
  9
$CMATERIAL
347
20
  9
$SOLIDHIST
280
0
  9
$SHOWHIST
280
1
  9
$DWFFRAME
280
2
  9
$DGNFRAME
280
2
  9
$REALWORLDSCALE
290
1
  9
$INTERFERECOLOR
 62
256
  9
$CSHADOW
280
0
  9
$SHADOWPLANELOCATION
 40
0.0
  0
ENDSEC
  0
SECTION
  2
CLASSES
  0
CLASS
  1
ACDBDICTIONARYWDFLT
  2
AcDbDictionaryWithDefault
  3
ObjectDBX Classes
 90
0
 91
0
280
0
281
0
  0
CLASS
  1
SUN
  2
AcDbSun
  3
SCENEOE
 90
1153
 91
0
280
0
281
0
  0
CLASS
  1
VISUALSTYLE
  2
AcDbVisualStyle
  3
ObjectDBX Classes
 90
4095
 91
0
280
0
281
0
  0
CLASS
  1
MATERIAL
  2
AcDbMaterial
  3
ObjectDBX Classes
 90
1153
 91
0
280
0
281
0
  0
CLASS
  1
SCALE
  2
AcDbScale
  3
ObjectDBX Classes
 90
1153
 91
0
280
0
281
0
  0
CLASS
  1
TABLESTYLE
  2
AcDbTableStyle
  3
ObjectDBX Classes
 90
4095
 91
0
280
0
281
0
  0
CLASS
  1
MLEADERSTYLE
  2
AcDbMLeaderStyle
  3
ACDB_MLEADERSTYLE_CLASS
 90
4095
 91
0
280
0
281
0
  0
CLASS
  1
DICTIONARYVAR
  2
AcDbDictionaryVar
  3
ObjectDBX Classes
 90
0
 91
0
280
0
281
0
  0
CLASS
  1
CELLSTYLEMAP
  2
AcDbCellStyleMap
  3
ObjectDBX Classes
 90
1152
 91
0
280
0
281
0
  0
CLASS
  1
MENTALRAYRENDERSETTINGS
  2
AcDbMentalRayRenderSettings
  3
SCENEOE
 90
1024
 91
0
280
0
281
0
  0
CLASS
  1
ACDBDETAILVIEWSTYLE
  2
AcDbDetailViewStyle
  3
ObjectDBX Classes
 90
1025
 91
0
280
0
281
0
  0
CLASS
  1
ACDBSECTIONVIEWSTYLE
  2
AcDbSectionViewStyle
  3
ObjectDBX Classes
 90
1025
 91
0
280
0
281
0
  0
CLASS
  1
RASTERVARIABLES
  2
AcDbRasterVariables
  3
ISM
 90
0
 91
0
280
0
281
0
  0
CLASS
  1
LAYOUT
  2
AcDbLayout
  3
ObjectDBX Classes
 90
0
 91
0
280
0
281
0
  0
CLASS
  1
ACDBPLACEHOLDER
  2
AcDbPlaceHolder
  3
ObjectDBX Classes
 90
0
 91
0
280
0
281
0
  0
ENDSEC
  0
SECTION
  2
TABLES
  0
TABLE
  2
VPORT
  5
8
330
0
100
AcDbSymbolTable
 70
1
  0
VPORT
  5
23
330
8
100
AcDbSymbolTableRecord
100
AcDbViewportTableRecord
  2
*Active
 70
0
 10
0.0
 20
0.0
 11
1.0
 21
1.0
 12
0.0
 22
0.0
 13
0.0
 23
0.0
 14
0.5
 24
0.5
 15
0.5
 25
0.5
 16
0.0
 26
0.0
 36
1.0
 17
0.0
 27
0.0
 37
0.0
 40
1000.0
 41
1.34
 42
50.0
 43
0.0
 44
0.0
 50
0.0
 51
0.0
 71
0
 72
1000
 73
1
 74
3
 75
0
 76
0
 77
0
 78
0
281
0
 65
0
146
0.0
  0
ENDTAB
  0
TABLE
  2
LTYPE
  5
2
330
0
100
AcDbSymbolTable
 70
3
  0
LTYPE
  5
24
330
2
100
AcDbSymbolTableRecord
100
AcDbLinetypeTableRecord
  2
ByBlock
 70
0
  3

 72
65
 73
0
 40
0.0
  0
LTYPE
  5
25
330
2
100
AcDbSymbolTableRecord
100
AcDbLinetypeTableRecord
  2
ByLayer
 70
0
  3

 72
65
 73
0
 40
0.0
  0
LTYPE
  5
26
330
2
100
AcDbSymbolTableRecord
100
AcDbLinetypeTableRecord
  2
Continuous
 70
0
  3

 72
65
 73
0
 40
0.0
  0
ENDTAB
  0
TABLE
  2
LAYER
  5
1
330
0
100
AcDbSymbolTable
 70
8
  0
LAYER
  5
27
330
1
100
AcDbSymbolTableRecord
100
AcDbLayerTableRecord
  2
0
 70
0
 62
7
  6
Continuous
370
-3
390
13
347
21
  0
LAYER
  5
28
330
1
100
AcDbSymbolTableRecord
100
AcDbLayerTableRecord
  2
Defpoints
 70
0
 62
7
  6
Continuous
290
0
370
-3
390
13
347
21
  0
LAYER
  5
31
330
1
100
AcDbSymbolTableRecord
100
AcDbLayerTableRecord
  2
G-ANNO-TTLB
 70
0
 62
7
  6
Continuous
370
-3
390
13
347
21
  0
LAYER
  5
32
330
1
100
AcDbSymbolTableRecord
100
AcDbLayerTableRecord
  2
A-ANNO-TEXT
 70
0
 62
7
  6
Continuous
370
-3
390
13
347
21
  0
LAYER
  5
33
330
1
100
AcDbSymbolTableRecord
100
AcDbLayerTableRecord
  2
A-WALL
 70
0
 62
7
  6
Continuous
370
-3
390
13
347
21
  0
LAYER
  5
34
330
1
100
AcDbSymbolTableRecord
100
AcDbLayerTableRecord
  2
A-ANNO-DIMS
 70
0
 62
7
  6
Continuous
370
-3
390
13
347
21
  0
LAYER
  5
35
330
1
100
AcDbSymbolTableRecord
100
AcDbLayerTableRecord
  2
A-DOOR-IDEN
 70
0
 62
7
  6
Continuous
370
-3
390
13
347
21
  0
LAYER
  5
36
330
1
100
AcDbSymbolTableRecord
100
AcDbLayerTableRecord
  2
A-WALL-NMSR
 70
0
 62
7
  6
Continuous
370
-3
390
13
347
21
  0
ENDTAB
  0
TABLE
  2
STYLE
  5
5
330
0
100
AcDbSymbolTable
 70
3
  0
STYLE
  5
29
330
5
100
AcDbSymbolTableRecord
100
AcDbTextStyleTableRecord
  2
Standard
 70
0
 40
0.0
 41
1.0
 50
0.0
 71
0
 42
2.5
  3
txt
  4

  0
STYLE
  5
2F
330
5
100
AcDbSymbolTableRecord
100
AcDbTextStyleTableRecord
  2
KS-REG
 70
0
 40
0.0
 41
1.0
 50
0.0
 71
0
 42
2.5
  3
DejaVuSans.ttf
  4

  0
STYLE
  5
30
330
5
100
AcDbSymbolTableRecord
100
AcDbTextStyleTableRecord
  2
KS-BOLD
 70
0
 40
0.0
 41
1.0
 50
0.0
 71
0
 42
2.5
  3
DejaVuSans-Bold.ttf
  4

  0
ENDTAB
  0
TABLE
  2
VIEW
  5
7
330
0
100
AcDbSymbolTable
 70
0
  0
ENDTAB
  0
TABLE
  2
UCS
  5
6
330
0
100
AcDbSymbolTable
 70
0
  0
ENDTAB
  0
TABLE
  2
APPID
  5
3
330
0
100
AcDbSymbolTable
 70
3
  0
APPID
  5
2A
330
3
100
AcDbSymbolTableRecord
100
AcDbRegAppTableRecord
  2
ACAD
 70
0
  0
APPID
  5
E7
330
3
100
AcDbSymbolTableRecord
100
AcDbRegAppTableRecord
  2
HATCHBACKGROUNDCOLOR
 70
0
  0
APPID
  5
E8
330
3
100
AcDbSymbolTableRecord
100
AcDbRegAppTableRecord
  2
EZDXF
 70
0
  0
ENDTAB
  0
TABLE
  2
DIMSTYLE
  5
4
330
0
100
AcDbSymbolTable
 70
1
100
AcDbDimStyleTable
  0
DIMSTYLE
105
2B
330
4
100
AcDbSymbolTableRecord
100
AcDbDimStyleTableRecord
  2
Standard
 70
0
 40
1.0
 41
2.5
 42
0.625
 43
3.75
 44
1.25
 45
0.0
 46
0.0
 47
0.0
 48
0.0
 49
2.5
140
2.5
141
2.5
142
0.0
143
0.03937007874
144
1.0
145
0.0
146
1.0
147
0.625
148
0.0
 69
0
 70
0
 71
0
 72
0
 73
0
 74
0
 75
0
 76
0
 77
1
 78
8
 79
3
170
0
171
3
172
1
173
0
174
0
175
0
176
0
177
0
178
0
179
2
271
2
272
2
273
2
274
3
275
0
276
0
277
2
278
44
279
0
280
0
281
0
282
0
283
0
284
8
285
0
286
0
288
0
289
3
290
0
371
-2
372
-2
  0
ENDTAB
  0
TABLE
  2
BLOCK_RECORD
  5
9
330
0
100
AcDbSymbolTable
 70
2
  0
BLOCK_RECORD
  5
17
330
9
100
AcDbSymbolTableRecord
100
AcDbBlockTableRecord
  2
*Model_Space
340
1A
 70
0
280
1
281
0
  0
BLOCK_RECORD
  5
1B
330
9
100
AcDbSymbolTableRecord
100
AcDbBlockTableRecord
  2
*Paper_Space
340
1E
 70
0
280
1
281
0
  0
ENDTAB
  0
ENDSEC
  0
SECTION
  2
BLOCKS
  0
BLOCK
  5
18
330
17
100
AcDbEntity
  8
0
100
AcDbBlockBegin
  2
*Model_Space
 70
0
 10
0.0
 20
0.0
 30
0.0
  3
*Model_Space
  1

  0
ENDBLK
  5
19
330
17
100
AcDbEntity
  8
0
100
AcDbBlockEnd
  0
BLOCK
  5
1C
330
1B
100
AcDbEntity
  8
0
100
AcDbBlockBegin
  2
*Paper_Space
 70
0
 10
0.0
 20
0.0
 30
0.0
  3
*Paper_Space
  1

  0
ENDBLK
  5
1D
330
1B
100
AcDbEntity
  8
0
100
AcDbBlockEnd
  0
ENDSEC
  0
SECTION
  2
ENTITIES
  0
LWPOLYLINE
  5
37
330
17
100
AcDbEntity
  8
G-ANNO-TTLB
100
AcDbPolyline
 90
4
 70
1
 10
0.5
 20
0.5
 10
16.5
 20
0.5
 10
16.5
 20
10.5
 10
0.5
 20
10.5
  0
LWPOLYLINE
  5
38
330
17
100
AcDbEntity
  8
G-ANNO-TTLB
100
AcDbPolyline
 90
4
 70
1
 10
0.5
 20
1.45
 10
16.5
 20
1.45
 10
16.5
 20
1.85
 10
0.5
 20
1.85
  0
TEXT
  5
39
330
17
100
AcDbEntity
  8
G-ANNO-TTLB
100
AcDbText
 10
8.5
 20
1.5699999999999998
 30
0.0
 40
0.16999999999999998
  1
PRELIMINARY — CONCEPTUAL DESIGN — NOT FOR CONSTRUCTION
  7
KS-BOLD
 72
1
 11
8.5
 21
1.5699999999999998
 31
0.0
100
AcDbText
  0
LINE
  5
3A
330
17
100
AcDbEntity
  8
G-ANNO-TTLB
100
AcDbLine
 10
0.5
 20
1.45
 30
0.0
 11
16.5
 21
1.45
 31
0.0
  0
TEXT
  5
3B
330
17
100
AcDbEntity
  8
G-ANNO-TTLB
100
AcDbText
 10
0.58
 20
1.28
 30
0.0
 40
0.06999999999999999
  1
PROJECT
  7
KS-REG
 11
0.58
 21
1.28
 31
0.0
100
AcDbText
  0
TEXT
  5
3C
330
17
100
AcDbEntity
  8
G-ANNO-TTLB
100
AcDbText
 10
0.58
 20
0.9991666666666666
 30
0.0
 40
0.11499999999999999
  1
Hazel Green Regional Athletic Complex
  7
KS-BOLD
 11
0.58
 21
0.9991666666666666
 31
0.0
100
AcDbText
  0
TEXT
  5
3D
330
17
100
AcDbEntity
  8
G-ANNO-TTLB
100
AcDbText
 10
0.58
 20
0.7883333333333333
 30
0.0
 40
0.11499999999999999
  1
Hazel Green, Madison County, Alabama
  7
KS-BOLD
 11
0.58
 21
0.7883333333333333
 31
0.0
100
AcDbText
  0
LINE
  5
3E
330
17
100
AcDbEntity
  8
G-ANNO-TTLB
100
AcDbLine
 10
5.2
 20
0.5
 30
0.0
 11
5.2
 21
1.45
 31
0.0
  0
TEXT
  5
3F
330
17
100
AcDbEntity
  8
G-ANNO-TTLB
100
AcDbText
 10
5.28
 20
1.28
 30
0.0
 40
0.06999999999999999
  1
PHASE
  7
KS-REG
 11
5.28
 21
1.28
 31
0.0
100
AcDbText
  0
TEXT
  5
40
330
17
100
AcDbEntity
  8
G-ANNO-TTLB
100
AcDbText
 10
5.28
 20
0.9716666666666667
 30
0.0
 40
0.13
  1
PHASE 1
  7
KS-BOLD
 11
5.28
 21
0.9716666666666667
 31
0.0
100
AcDbText
  0
TEXT
  5
41
330
17
100
AcDbEntity
  8
G-ANNO-TTLB
100
AcDbText
 10
5.28
 20
0.7333333333333334
 30
0.0
 40
0.13
  1
REMODEL
  7
KS-BOLD
 11
5.28
 21
0.7333333333333334
 31
0.0
100
AcDbText
  0
LINE
  5
42
330
17
100
AcDbEntity
  8
G-ANNO-TTLB
100
AcDbLine
 10
6.7
 20
0.5
 30
0.0
 11
6.7
 21
1.45
 31
0.0
  0
TEXT
  5
43
330
17
100
AcDbEntity
  8
G-ANNO-TTLB
100
AcDbText
 10
6.78
 20
1.28
 30
0.0
 40
0.06999999999999999
  1
SHEET TITLE
  7
KS-REG
 11
6.78
 21
1.28
 31
0.0
100
AcDbText
  0
TEXT
  5
44
330
17
100
AcDbEntity
  8
G-ANNO-TTLB
100
AcDbText
 10
6.78
 20
0.9991666666666666
 30
0.0
 40
0.11499999999999999
  1
EXISTING CONDITIONS PLAN
  7
KS-BOLD
 11
6.78
 21
0.9991666666666666
 31
0.0
100
AcDbText
  0
TEXT
  5
45
330
17
100
AcDbEntity
  8
G-ANNO-TTLB
100
AcDbText
 10
6.78
 20
0.7883333333333333
 30
0.0
 40
0.11499999999999999
  1
WRESTLING ROOM — ROOM
  7
KS-BOLD
 11
6.78
 21
0.7883333333333333
 31
0.0
100
AcDbText
  0
TEXT
  5
46
330
17
100
AcDbEntity
  8
G-ANNO-TTLB
100
AcDbText
 10
6.78
 20
0.5775
 30
0.0
 40
0.11499999999999999
  1
OUTLINE ONLY
  7
KS-BOLD
 11
6.78
 21
0.5775
 31
0.0
100
AcDbText
  0
LINE
  5
47
330
17
100
AcDbEntity
  8
G-ANNO-TTLB
100
AcDbLine
 10
9.8
 20
0.5
 30
0.0
 11
9.8
 21
1.45
 31
0.0
  0
TEXT
  5
48
330
17
100
AcDbEntity
  8
G-ANNO-TTLB
100
AcDbText
 10
9.88
 20
1.28
 30
0.0
 40
0.06999999999999999
  1
SCALE
  7
KS-REG
 11
9.88
 21
1.28
 31
0.0
100
AcDbText
  0
TEXT
  5
49
330
17
100
AcDbEntity
  8
G-ANNO-TTLB
100
AcDbText
 10
9.88
 20
0.9716666666666667
 30
0.0
 40
0.13
  1
1/8" =
  7
KS-BOLD
 11
9.88
 21
0.9716666666666667
 31
0.0
100
AcDbText
  0
TEXT
  5
4A
330
17
100
AcDbEntity
  8
G-ANNO-TTLB
100
AcDbText
 10
9.88
 20
0.7333333333333334
 30
0.0
 40
0.13
  1
1'-0"
  7
KS-BOLD
 11
9.88
 21
0.7333333333333334
 31
0.0
100
AcDbText
  0
LINE
  5
4B
330
17
100
AcDbEntity
  8
G-ANNO-TTLB
100
AcDbLine
 10
10.700000000000001
 20
0.5
 30
0.0
 11
10.700000000000001
 21
1.45
 31
0.0
  0
TEXT
  5
4C
330
17
100
AcDbEntity
  8
G-ANNO-TTLB
100
AcDbText
 10
10.780000000000001
 20
1.28
 30
0.0
 40
0.06999999999999999
  1
DATE
  7
KS-REG
 11
10.780000000000001
 21
1.28
 31
0.0
100
AcDbText
  0
TEXT
  5
4D
330
17
100
AcDbEntity
  8
G-ANNO-TTLB
100
AcDbText
 10
10.780000000000001
 20
0.9716666666666667
 30
0.0
 40
0.13
  1
October
  7
KS-BOLD
 11
10.780000000000001
 21
0.9716666666666667
 31
0.0
100
AcDbText
  0
TEXT
  5
4E
330
17
100
AcDbEntity
  8
G-ANNO-TTLB
100
AcDbText
 10
10.780000000000001
 20
0.7333333333333334
 30
0.0
 40
0.13
  1
2026
  7
KS-BOLD
 11
10.780000000000001
 21
0.7333333333333334
 31
0.0
100
AcDbText
  0
LINE
  5
4F
330
17
100
AcDbEntity
  8
G-ANNO-TTLB
100
AcDbLine
 10
12.15
 20
0.5
 30
0.0
 11
12.15
 21
1.45
 31
0.0
  0
TEXT
  5
50
330
17
100
AcDbEntity
  8
G-ANNO-TTLB
100
AcDbText
 10
12.23
 20
1.28
 30
0.0
 40
0.06999999999999999
  1
REV
  7
KS-REG
 11
12.23
 21
1.28
 31
0.0
100
AcDbText
  0
TEXT
  5
51
330
17
100
AcDbEntity
  8
G-ANNO-TTLB
100
AcDbText
 10
12.23
 20
0.9716666666666667
 30
0.0
 40
0.13
  1
A
  7
KS-BOLD
 11
12.23
 21
0.9716666666666667
 31
0.0
100
AcDbText
  0
LINE
  5
52
330
17
100
AcDbEntity
  8
G-ANNO-TTLB
100
AcDbLine
 10
12.9
 20
0.5
 30
0.0
 11
12.9
 21
1.45
 31
0.0
  0
TEXT
  5
53
330
17
100
AcDbEntity
  8
G-ANNO-TTLB
100
AcDbText
 10
12.98
 20
1.28
 30
0.0
 40
0.06999999999999999
  1
DRAWN BY
  7
KS-REG
 11
12.98
 21
1.28
 31
0.0
100
AcDbText
  0
TEXT
  5
54
330
17
100
AcDbEntity
  8
G-ANNO-TTLB
100
AcDbText
 10
12.98
 20
1.0358333333333332
 30
0.0
 40
0.095
  1
Drawn by KEYSTONE (AI) for
  7
KS-REG
 11
12.98
 21
1.0358333333333332
 31
0.0
100
AcDbText
  0
TEXT
  5
55
330
17
100
AcDbEntity
  8
G-ANNO-TTLB
100
AcDbText
 10
12.98
 20
0.8616666666666665
 30
0.0
 40
0.095
  1
Shane Brazelton
  7
KS-REG
 11
12.98
 21
0.8616666666666665
 31
0.0
100
AcDbText
  0
LINE
  5
56
330
17
100
AcDbEntity
  8
G-ANNO-TTLB
100
AcDbLine
 10
15.0
 20
0.5
 30
0.0
 11
15.0
 21
1.45
 31
0.0
  0
TEXT
  5
57
330
17
100
AcDbEntity
  8
G-ANNO-TTLB
100
AcDbText
 10
15.08
 20
1.28
 30
0.0
 40
0.06999999999999999
  1
SHEET
  7
KS-REG
 11
15.08
 21
1.28
 31
0.0
100
AcDbText
  0
TEXT
  5
58
330
17
100
AcDbEntity
  8
G-ANNO-TTLB
100
AcDbText
 10
15.75
 20
0.77
 30
0.0
 40
0.18
  1
P1-A-101
  7
KS-BOLD
 72
1
 11
15.75
 21
0.77
 31
0.0
100
AcDbText
  0
TEXT
  5
59
330
17
100
AcDbEntity
  8
A-ANNO-TEXT
100
AcDbText
 10
11.35
 20
10.08
 30
0.0
 40
0.15999999999999998
  1
EXISTING CONDITIONS PLAN
  7
KS-BOLD
 11
11.35
 21
10.08
 31
0.0
100
AcDbText
  0
TEXT
  5
5A
330
17
100
AcDbEntity
  8
A-ANNO-TEXT
100
AcDbText
 10
11.35
 20
9.82
 30
0.0
 40
0.11
  1
WRESTLING ROOM — ROOM OUTLINE ONLY
  7
KS-BOLD
 11
11.35
 21
9.82
 31
0.0
100
AcDbText
  0
TEXT
  5
5B
330
17
100
AcDbEntity
  8
A-ANNO-TEXT
100
AcDbText
 10
11.35
 20
9.6
 30
0.0
 40
0.095
  1
Scale 1/8" = 1'-0" (11x17 printed at 100%)
  7
KS-REG
 11
11.35
 21
9.6
 31
0.0
100
AcDbText
  0
LWPOLYLINE
  5
5C
330
17
100
AcDbEntity
  8
A-WALL
100
AcDbPolyline
 90
4
 70
1
 10
2.0
 20
2.45
 10
7.625
 20
2.45
 10
7.625
 20
9.325
 10
2.0
 20
9.325
  0
TEXT
  5
5D
330
17
100
AcDbEntity
  8
A-ANNO-TEXT
100
AcDbText
 10
4.8125
 20
6.0075
 30
0.0
 40
0.13999999999999999
  1
WRESTLING ROOM
  7
KS-BOLD
 72
1
 11
4.8125
 21
6.0075
 31
0.0
100
AcDbText
  0
TEXT
  5
5E
330
17
100
AcDbEntity
  8
A-ANNO-TEXT
100
AcDbText
 10
4.8125
 20
5.7675
 30
0.0
 40
0.1
  1
55'-0" × 45'-0" (inside, tape)
  7
KS-REG
 72
1
 11
4.8125
 21
5.7675
 31
0.0
100
AcDbText
  0
TEXT
  5
5F
330
17
100
AcDbEntity
  8
A-ANNO-TEXT
100
AcDbText
 10
4.8125
 20
5.5675
 30
0.0
 40
0.09
  1
Floor area (calc.): 2,475 SF
  7
KS-REG
 72
1
 11
4.8125
 21
5.5675
 31
0.0
100
AcDbText
  0
TEXT
  5
60
330
17
100
AcDbEntity
  8
A-ANNO-TEXT
100
AcDbText
 10
4.8125
 20
5.3675
 30
0.0
 40
0.09
  1
Wall thickness: TBD
  7
KS-REG
 72
1
 11
4.8125
 21
5.3675
 31
0.0
100
AcDbText
  0
LINE
  5
61
330
17
100
AcDbEntity
  8
A-ANNO-DIMS
100
AcDbLine
 10
2.0
 20
9.875
 30
0.0
 11
7.625
 21
9.875
 31
0.0
  0
LINE
  5
62
330
17
100
AcDbEntity
  8
A-ANNO-DIMS
100
AcDbLine
 10
2.0
 20
9.385
 30
0.0
 11
2.0
 21
9.955
 31
0.0
  0
LINE
  5
63
330
17
100
AcDbEntity
  8
A-ANNO-DIMS
100
AcDbLine
 10
1.94
 20
9.815
 30
0.0
 11
2.06
 21
9.935
 31
0.0
  0
LINE
  5
64
330
17
100
AcDbEntity
  8
A-ANNO-DIMS
100
AcDbLine
 10
7.625
 20
9.385
 30
0.0
 11
7.625
 21
9.955
 31
0.0
  0
LINE
  5
65
330
17
100
AcDbEntity
  8
A-ANNO-DIMS
100
AcDbLine
 10
7.565
 20
9.815
 30
0.0
 11
7.685
 21
9.935
 31
0.0
  0
TEXT
  5
66
330
17
100
AcDbEntity
  8
A-ANNO-DIMS
100
AcDbText
 10
4.8125
 20
9.935
 30
0.0
 40
0.1
  1
45'-0"
  7
KS-BOLD
 72
1
 11
4.8125
 21
9.935
 31
0.0
100
AcDbText
  0
LINE
  5
67
330
17
100
AcDbEntity
  8
A-ANNO-DIMS
100
AcDbLine
 10
1.45
 20
2.45
 30
0.0
 11
1.45
 21
9.325
 31
0.0
  0
LINE
  5
68
330
17
100
AcDbEntity
  8
A-ANNO-DIMS
100
AcDbLine
 10
1.94
 20
2.45
 30
0.0
 11
1.3699999999999999
 21
2.45
 31
0.0
  0
LINE
  5
69
330
17
100
AcDbEntity
  8
A-ANNO-DIMS
100
AcDbLine
 10
1.39
 20
2.39
 30
0.0
 11
1.51
 21
2.5100000000000002
 31
0.0
  0
LINE
  5
6A
330
17
100
AcDbEntity
  8
A-ANNO-DIMS
100
AcDbLine
 10
1.94
 20
9.325
 30
0.0
 11
1.3699999999999999
 21
9.325
 31
0.0
  0
LINE
  5
6B
330
17
100
AcDbEntity
  8
A-ANNO-DIMS
100
AcDbLine
 10
1.39
 20
9.264999999999999
 30
0.0
 11
1.51
 21
9.385
 31
0.0
  0
TEXT
  5
6C
330
17
100
AcDbEntity
  8
A-ANNO-DIMS
100
AcDbText
 10
1.39
 20
5.887499999999999
 30
0.0
 40
0.1
  1
55'-0"
 50
90.0
  7
KS-BOLD
 72
1
 11
1.39
 21
5.887499999999999
 31
0.0
100
AcDbText
  0
LINE
  5
6D
330
17
100
AcDbEntity
  8
A-DOOR-IDEN
100
AcDbLine
 10
2.0
 20
4.746249999999999
 30
0.0
 11
1.714
 21
4.856249999999999
 31
0.0
  0
LINE
  5
6E
330
17
100
AcDbEntity
  8
A-DOOR-IDEN
100
AcDbLine
 10
1.714
 20
4.856249999999999
 30
0.0
 11
2.0
 21
4.96625
 31
0.0
  0
LINE
  5
6F
330
17
100
AcDbEntity
  8
A-DOOR-IDEN
100
AcDbLine
 10
2.0
 20
4.96625
 30
0.0
 11
2.0
 21
4.746249999999999
 31
0.0
  0
TEXT
  5
70
330
17
100
AcDbEntity
  8
A-DOOR-IDEN
100
AcDbText
 10
2.12
 20
4.876249999999999
 30
0.0
 40
0.08499999999999999
  1
EXIT — APPROX.
  7
KS-BOLD
 11
2.12
 21
4.876249999999999
 31
0.0
100
AcDbText
  0
TEXT
  5
71
330
17
100
AcDbEntity
  8
A-DOOR-IDEN
100
AcDbText
 10
2.12
 20
4.720416666666665
 30
0.0
 40
0.08499999999999999
  1
location/size TBD
  7
KS-REG
 11
2.12
 21
4.720416666666665
 31
0.0
100
AcDbText
  0
LINE
  5
72
330
17
100
AcDbEntity
  8
A-DOOR-IDEN
100
AcDbLine
 10
4.9225
 20
2.45
 30
0.0
 11
4.8125
 21
2.164
 31
0.0
  0
LINE
  5
73
330
17
100
AcDbEntity
  8
A-DOOR-IDEN
100
AcDbLine
 10
4.8125
 20
2.164
 30
0.0
 11
4.7025
 21
2.45
 31
0.0
  0
LINE
  5
74
330
17
100
AcDbEntity
  8
A-DOOR-IDEN
100
AcDbLine
 10
4.7025
 20
2.45
 30
0.0
 11
4.9225
 21
2.45
 31
0.0
  0
TEXT
  5
75
330
17
100
AcDbEntity
  8
A-DOOR-IDEN
100
AcDbText
 10
4.9885
 20
2.3000000000000003
 30
0.0
 40
0.08499999999999999
  1
EXIT — APPROX.
  7
KS-BOLD
 11
4.9885
 21
2.3000000000000003
 31
0.0
100
AcDbText
  0
TEXT
  5
76
330
17
100
AcDbEntity
  8
A-DOOR-IDEN
100
AcDbText
 10
4.9885
 20
2.144166666666667
 30
0.0
 40
0.08499999999999999
  1
location/size TBD
  7
KS-REG
 11
4.9885
 21
2.144166666666667
 31
0.0
100
AcDbText
  0
LINE
  5
77
330
17
100
AcDbEntity
  8
A-DOOR-IDEN
100
AcDbLine
 10
7.625
 20
7.3725
 30
0.0
 11
7.911
 21
7.262499999999999
 31
0.0
  0
LINE
  5
78
330
17
100
AcDbEntity
  8
A-DOOR-IDEN
100
AcDbLine
 10
7.911
 20
7.262499999999999
 30
0.0
 11
7.625
 21
7.152499999999999
 31
0.0
  0
LINE
  5
79
330
17
100
AcDbEntity
  8
A-DOOR-IDEN
100
AcDbLine
 10
7.625
 20
7.152499999999999
 30
0.0
 11
7.625
 21
7.3725
 31
0.0
  0
TEXT
  5
7A
330
17
100
AcDbEntity
  8
A-DOOR-IDEN
100
AcDbText
 10
7.991
 20
7.282499999999999
 30
0.0
 40
0.08499999999999999
  1
EXIT — APPROX.
  7
KS-BOLD
 11
7.991
 21
7.282499999999999
 31
0.0
100
AcDbText
  0
TEXT
  5
7B
330
17
100
AcDbEntity
  8
A-DOOR-IDEN
100
AcDbText
 10
7.991
 20
7.126666666666665
 30
0.0
 40
0.08499999999999999
  1
location/size TBD
  7
KS-REG
 11
7.991
 21
7.126666666666665
 31
0.0
100
AcDbText
  0
LINE
  5
7C
330
17
100
AcDbEntity
  8
A-DOOR-IDEN
100
AcDbLine
 10
7.625
 20
4.6225
 30
0.0
 11
7.911
 21
4.512499999999999
 31
0.0
  0
LINE
  5
7D
330
17
100
AcDbEntity
  8
A-DOOR-IDEN
100
AcDbLine
 10
7.911
 20
4.512499999999999
 30
0.0
 11
7.625
 21
4.402499999999999
 31
0.0
  0
LINE
  5
7E
330
17
100
AcDbEntity
  8
A-DOOR-IDEN
100
AcDbLine
 10
7.625
 20
4.402499999999999
 30
0.0
 11
7.625
 21
4.6225
 31
0.0
  0
TEXT
  5
7F
330
17
100
AcDbEntity
  8
A-DOOR-IDEN
100
AcDbText
 10
7.505
 20
4.532499999999999
 30
0.0
 40
0.08499999999999999
  1
HALLWAY DOOR — APPROX.
  7
KS-BOLD
 72
2
 11
7.505
 21
4.532499999999999
 31
0.0
100
AcDbText
  0
TEXT
  5
80
330
17
100
AcDbEntity
  8
A-DOOR-IDEN
100
AcDbText
 10
7.505
 20
4.376666666666665
 30
0.0
 40
0.08499999999999999
  1
to support wing; size TBD
  7
KS-REG
 72
2
 11
7.505
 21
4.376666666666665
 31
0.0
100
AcDbText
  0
LINE
  5
81
330
17
100
AcDbEntity
  8
A-WALL-NMSR
100
AcDbLine
 10
7.625
 20
2.1
 30
0.0
 11
7.745
 21
2.1
 31
0.0
  0
LINE
  5
82
330
17
100
AcDbEntity
  8
A-WALL-NMSR
100
AcDbLine
 10
7.825
 20
2.1
 30
0.0
 11
7.945
 21
2.1
 31
0.0
  0
LINE
  5
83
330
17
100
AcDbEntity
  8
A-WALL-NMSR
100
AcDbLine
 10
8.025
 20
2.1
 30
0.0
 11
8.145
 21
2.1
 31
0.0
  0
LINE
  5
84
330
17
100
AcDbEntity
  8
A-WALL-NMSR
100
AcDbLine
 10
8.225
 20
2.1
 30
0.0
 11
8.345
 21
2.1
 31
0.0
  0
LINE
  5
85
330
17
100
AcDbEntity
  8
A-WALL-NMSR
100
AcDbLine
 10
8.425
 20
2.1
 30
0.0
 11
8.545
 21
2.1
 31
0.0
  0
LINE
  5
86
330
17
100
AcDbEntity
  8
A-WALL-NMSR
100
AcDbLine
 10
8.625
 20
2.1
 30
0.0
 11
8.745
 21
2.1
 31
0.0
  0
LINE
  5
87
330
17
100
AcDbEntity
  8
A-WALL-NMSR
100
AcDbLine
 10
8.825
 20
2.1
 30
0.0
 11
8.945
 21
2.1
 31
0.0
  0
LINE
  5
88
330
17
100
AcDbEntity
  8
A-WALL-NMSR
100
AcDbLine
 10
9.025
 20
2.1
 30
0.0
 11
9.145
 21
2.1
 31
0.0
  0
LINE
  5
89
330
17
100
AcDbEntity
  8
A-WALL-NMSR
100
AcDbLine
 10
9.225
 20
2.1
 30
0.0
 11
9.345
 21
2.1
 31
0.0
  0
LINE
  5
8A
330
17
100
AcDbEntity
  8
A-WALL-NMSR
100
AcDbLine
 10
9.425
 20
2.1
 30
0.0
 11
9.545
 21
2.1
 31
0.0
  0
LINE
  5
8B
330
17
100
AcDbEntity
  8
A-WALL-NMSR
100
AcDbLine
 10
9.625
 20
2.1
 30
0.0
 11
9.745000000000001
 21
2.1
 31
0.0
  0
LINE
  5
8C
330
17
100
AcDbEntity
  8
A-WALL-NMSR
100
AcDbLine
 10
9.825000000000001
 20
2.1
 30
0.0
 11
9.945
 21
2.1
 31
0.0
  0
LINE
  5
8D
330
17
100
AcDbEntity
  8
A-WALL-NMSR
100
AcDbLine
 10
10.025
 20
2.1
 30
0.0
 11
10.145000000000001
 21
2.1
 31
0.0
  0
LINE
  5
8E
330
17
100
AcDbEntity
  8
A-WALL-NMSR
100
AcDbLine
 10
10.225000000000001
 20
2.1
 30
0.0
 11
10.345
 21
2.1
 31
0.0
  0
LINE
  5
8F
330
17
100
AcDbEntity
  8
A-WALL-NMSR
100
AcDbLine
 10
10.425
 20
2.1
 30
0.0
 11
10.545000000000002
 21
2.1
 31
0.0
  0
LINE
  5
90
330
17
100
AcDbEntity
  8
A-WALL-NMSR
100
AcDbLine
 10
10.625
 20
2.1
 30
0.0
 11
10.625
 21
2.22
 31
0.0
  0
LINE
  5
91
330
17
100
AcDbEntity
  8
A-WALL-NMSR
100
AcDbLine
 10
10.625
 20
2.3000000000000003
 30
0.0
 11
10.625
 21
2.42
 31
0.0
  0
LINE
  5
92
330
17
100
AcDbEntity
  8
A-WALL-NMSR
100
AcDbLine
 10
10.625
 20
2.5
 30
0.0
 11
10.625
 21
2.62
 31
0.0
  0
LINE
  5
93
330
17
100
AcDbEntity
  8
A-WALL-NMSR
100
AcDbLine
 10
10.625
 20
2.7
 30
0.0
 11
10.625
 21
2.8200000000000003
 31
0.0
  0
LINE
  5
94
330
17
100
AcDbEntity
  8
A-WALL-NMSR
100
AcDbLine
 10
10.625
 20
2.9
 30
0.0
 11
10.625
 21
3.02
 31
0.0
  0
LINE
  5
95
330
17
100
AcDbEntity
  8
A-WALL-NMSR
100
AcDbLine
 10
10.625
 20
3.1
 30
0.0
 11
10.625
 21
3.2199999999999998
 31
0.0
  0
LINE
  5
96
330
17
100
AcDbEntity
  8
A-WALL-NMSR
100
AcDbLine
 10
10.625
 20
3.3
 30
0.0
 11
10.625
 21
3.42
 31
0.0
  0
LINE
  5
97
330
17
100
AcDbEntity
  8
A-WALL-NMSR
100
AcDbLine
 10
10.625
 20
3.5
 30
0.0
 11
10.625
 21
3.62
 31
0.0
  0
LINE
  5
98
330
17
100
AcDbEntity
  8
A-WALL-NMSR
100
AcDbLine
 10
10.625
 20
3.7
 30
0.0
 11
10.625
 21
3.8200000000000003
 31
0.0
  0
LINE
  5
99
330
17
100
AcDbEntity
  8
A-WALL-NMSR
100
AcDbLine
 10
10.625
 20
3.9000000000000004
 30
0.0
 11
10.625
 21
4.0200000000000005
 31
0.0
  0
LINE
  5
9A
330
17
100
AcDbEntity
  8
A-WALL-NMSR
100
AcDbLine
 10
10.625
 20
4.1000000000000005
 30
0.0
 11
10.625
 21
4.220000000000001
 31
0.0
  0
LINE
  5
9B
330
17
100
AcDbEntity
  8
A-WALL-NMSR
100
AcDbLine
 10
10.625
 20
4.300000000000001
 30
0.0
 11
10.625
 21
4.420000000000001
 31
0.0
  0
LINE
  5
9C
330
17
100
AcDbEntity
  8
A-WALL-NMSR
100
AcDbLine
 10
10.625
 20
4.500000000000001
 30
0.0
 11
10.625
 21
4.620000000000001
 31
0.0
  0
LINE
  5
9D
330
17
100
AcDbEntity
  8
A-WALL-NMSR
100
AcDbLine
 10
10.625
 20
4.700000000000001
 30
0.0
 11
10.625
 21
4.820000000000001
 31
0.0
  0
LINE
  5
9E
330
17
100
AcDbEntity
  8
A-WALL-NMSR
100
AcDbLine
 10
10.625
 20
4.900000000000001
 30
0.0
 11
10.625
 21
5.020000000000001
 31
0.0
  0
LINE
  5
9F
330
17
100
AcDbEntity
  8
A-WALL-NMSR
100
AcDbLine
 10
10.625
 20
5.100000000000001
 30
0.0
 11
10.625
 21
5.2200000000000015
 31
0.0
  0
LINE
  5
A0
330
17
100
AcDbEntity
  8
A-WALL-NMSR
100
AcDbLine
 10
10.625
 20
5.300000000000002
 30
0.0
 11
10.625
 21
5.420000000000002
 31
0.0
  0
LINE
  5
A1
330
17
100
AcDbEntity
  8
A-WALL-NMSR
100
AcDbLine
 10
10.625
 20
5.500000000000002
 30
0.0
 11
10.625
 21
5.620000000000002
 31
0.0
  0
LINE
  5
A2
330
17
100
AcDbEntity
  8
A-WALL-NMSR
100
AcDbLine
 10
10.625
 20
5.700000000000002
 30
0.0
 11
10.625
 21
5.820000000000002
 31
0.0
  0
LINE
  5
A3
330
17
100
AcDbEntity
  8
A-WALL-NMSR
100
AcDbLine
 10
10.625
 20
5.900000000000002
 30
0.0
 11
10.625
 21
6.020000000000002
 31
0.0
  0
LINE
  5
A4
330
17
100
AcDbEntity
  8
A-WALL-NMSR
100
AcDbLine
 10
10.625
 20
6.100000000000001
 30
0.0
 11
10.625
 21
6.220000000000002
 31
0.0
  0
LINE
  5
A5
330
17
100
AcDbEntity
  8
A-WALL-NMSR
100
AcDbLine
 10
10.625
 20
6.231250000000001
 30
0.0
 11
10.505
 21
6.231250000000001
 31
0.0
  0
LINE
  5
A6
330
17
100
AcDbEntity
  8
A-WALL-NMSR
100
AcDbLine
 10
10.425
 20
6.231250000000001
 30
0.0
 11
10.305
 21
6.231250000000001
 31
0.0
  0
LINE
  5
A7
330
17
100
AcDbEntity
  8
A-WALL-NMSR
100
AcDbLine
 10
10.225
 20
6.231250000000001
 30
0.0
 11
10.105
 21
6.231250000000001
 31
0.0
  0
LINE
  5
A8
330
17
100
AcDbEntity
  8
A-WALL-NMSR
100
AcDbLine
 10
10.025
 20
6.231250000000001
 30
0.0
 11
9.905
 21
6.231250000000001
 31
0.0
  0
LINE
  5
A9
330
17
100
AcDbEntity
  8
A-WALL-NMSR
100
AcDbLine
 10
9.825
 20
6.231250000000001
 30
0.0
 11
9.705
 21
6.231250000000001
 31
0.0
  0
LINE
  5
AA
330
17
100
AcDbEntity
  8
A-WALL-NMSR
100
AcDbLine
 10
9.625
 20
6.231250000000001
 30
0.0
 11
9.505
 21
6.231250000000001
 31
0.0
  0
LINE
  5
AB
330
17
100
AcDbEntity
  8
A-WALL-NMSR
100
AcDbLine
 10
9.425
 20
6.231250000000001
 30
0.0
 11
9.305
 21
6.231250000000001
 31
0.0
  0
LINE
  5
AC
330
17
100
AcDbEntity
  8
A-WALL-NMSR
100
AcDbLine
 10
9.225
 20
6.231250000000001
 30
0.0
 11
9.105
 21
6.231250000000001
 31
0.0
  0
LINE
  5
AD
330
17
100
AcDbEntity
  8
A-WALL-NMSR
100
AcDbLine
 10
9.025
 20
6.231250000000001
 30
0.0
 11
8.905
 21
6.231250000000001
 31
0.0
  0
LINE
  5
AE
330
17
100
AcDbEntity
  8
A-WALL-NMSR
100
AcDbLine
 10
8.825
 20
6.231250000000001
 30
0.0
 11
8.705
 21
6.231250000000001
 31
0.0
  0
LINE
  5
AF
330
17
100
AcDbEntity
  8
A-WALL-NMSR
100
AcDbLine
 10
8.625
 20
6.231250000000001
 30
0.0
 11
8.504999999999999
 21
6.231250000000001
 31
0.0
  0
LINE
  5
B0
330
17
100
AcDbEntity
  8
A-WALL-NMSR
100
AcDbLine
 10
8.424999999999999
 20
6.231250000000001
 30
0.0
 11
8.305
 21
6.231250000000001
 31
0.0
  0
LINE
  5
B1
330
17
100
AcDbEntity
  8
A-WALL-NMSR
100
AcDbLine
 10
8.225
 20
6.231250000000001
 30
0.0
 11
8.104999999999999
 21
6.231250000000001
 31
0.0
  0
LINE
  5
B2
330
17
100
AcDbEntity
  8
A-WALL-NMSR
100
AcDbLine
 10
8.024999999999999
 20
6.231250000000001
 30
0.0
 11
7.904999999999999
 21
6.231250000000001
 31
0.0
  0
LINE
  5
B3
330
17
100
AcDbEntity
  8
A-WALL-NMSR
100
AcDbLine
 10
7.824999999999999
 20
6.231250000000001
 30
0.0
 11
7.704999999999998
 21
6.231250000000001
 31
0.0
  0
LINE
  5
B4
330
17
100
AcDbEntity
  8
A-WALL-NMSR
100
AcDbLine
 10
7.625
 20
2.45
 30
0.0
 11
7.625
 21
2.33
 31
0.0
  0
LINE
  5
B5
330
17
100
AcDbEntity
  8
A-WALL-NMSR
100
AcDbLine
 10
7.625
 20
2.25
 30
0.0
 11
7.625
 21
2.1300000000000003
 31
0.0
  0
TEXT
  5
B6
330
17
100
AcDbEntity
  8
A-WALL-NMSR
100
AcDbText
 10
9.275
 20
4.415625
 30
0.0
 40
0.11
  1
SUPPORT WING
  7
KS-BOLD
 72
1
 11
9.275
 21
4.415625
 31
0.0
100
AcDbText
  0
TEXT
  5
B7
330
17
100
AcDbEntity
  8
A-WALL-NMSR
100
AcDbText
 10
9.275
 20
4.215625
 30
0.0
 40
0.11
  1
NOT YET MEASURED
  7
KS-BOLD
 72
1
 11
9.275
 21
4.215625
 31
0.0
100
AcDbText
  0
TEXT
  5
B8
330
17
100
AcDbEntity
  8
A-WALL-NMSR
100
AcDbText
 10
9.275
 20
3.985625
 30
0.0
 40
0.07999999999999999
  1
(outline schematic only — not to scale)
  7
KS-REG
 72
1
 11
9.275
 21
3.985625
 31
0.0
100
AcDbText
  0
LINE
  5
B9
330
17
100
AcDbEntity
  8
A-ANNO-TEXT
100
AcDbLine
 10
9.925
 20
9.424999999999999
 30
0.0
 11
9.925
 21
10.174999999999999
 31
0.0
  0
LINE
  5
BA
330
17
100
AcDbEntity
  8
A-ANNO-TEXT
100
AcDbLine
 10
9.925
 20
10.174999999999999
 30
0.0
 11
9.805000000000001
 21
9.924999999999999
 31
0.0
  0
LINE
  5
BB
330
17
100
AcDbEntity
  8
A-ANNO-TEXT
100
AcDbLine
 10
9.925
 20
10.174999999999999
 30
0.0
 11
10.045
 21
9.924999999999999
 31
0.0
  0
LINE
  5
BC
330
17
100
AcDbEntity
  8
A-ANNO-TEXT
100
AcDbLine
 10
9.805000000000001
 20
9.924999999999999
 30
0.0
 11
10.045
 21
9.924999999999999
 31
0.0
  0
TEXT
  5
BD
330
17
100
AcDbEntity
  8
A-ANNO-TEXT
100
AcDbText
 10
9.925
 20
10.274999999999999
 30
0.0
 40
0.13999999999999999
  1
N
  7
KS-BOLD
 72
1
 11
9.925
 21
10.274999999999999
 31
0.0
100
AcDbText
  0
TEXT
  5
BE
330
17
100
AcDbEntity
  8
A-ANNO-TEXT
100
AcDbText
 10
9.925
 20
9.245
 30
0.0
 40
0.07999999999999999
  1
approx.
  7
KS-REG
 72
1
 11
9.925
 21
9.245
 31
0.0
100
AcDbText
  0
LWPOLYLINE
  5
BF
330
17
100
AcDbEntity
  8
A-ANNO-DIMS
100
AcDbPolyline
 90
4
 70
1
 10
11.35
 20
2.15
 10
11.85
 20
2.15
 10
11.85
 20
2.23
 10
11.35
 20
2.23
  0
LWPOLYLINE
  5
C0
330
17
100
AcDbEntity
  8
A-ANNO-DIMS
100
AcDbPolyline
 90
4
 70
1
 10
11.85
 20
2.15
 10
12.35
 20
2.15
 10
12.35
 20
2.23
 10
11.85
 20
2.23
  0
LWPOLYLINE
  5
C1
330
17
100
AcDbEntity
  8
A-ANNO-DIMS
100
AcDbPolyline
 90
4
 70
1
 10
12.35
 20
2.15
 10
13.35
 20
2.15
 10
13.35
 20
2.23
 10
12.35
 20
2.23
  0
TEXT
  5
C2
330
17
100
AcDbEntity
  8
A-ANNO-DIMS
100
AcDbText
 10
11.35
 20
2.29
 30
0.0
 40
0.075
  1
0'
  7
KS-REG
 72
1
 11
11.35
 21
2.29
 31
0.0
100
AcDbText
  0
TEXT
  5
C3
330
17
100
AcDbEntity
  8
A-ANNO-DIMS
100
AcDbText
 10
11.85
 20
2.29
 30
0.0
 40
0.075
  1
4'
  7
KS-REG
 72
1
 11
11.85
 21
2.29
 31
0.0
100
AcDbText
  0
TEXT
  5
C4
330
17
100
AcDbEntity
  8
A-ANNO-DIMS
100
AcDbText
 10
12.35
 20
2.29
 30
0.0
 40
0.075
  1
8'
  7
KS-REG
 72
1
 11
12.35
 21
2.29
 31
0.0
100
AcDbText
  0
TEXT
  5
C5
330
17
100
AcDbEntity
  8
A-ANNO-DIMS
100
AcDbText
 10
13.35
 20
2.29
 30
0.0
 40
0.075
  1
16'
  7
KS-REG
 72
1
 11
13.35
 21
2.29
 31
0.0
100
AcDbText
  0
TEXT
  5
C6
330
17
100
AcDbEntity
  8
A-ANNO-DIMS
100
AcDbText
 10
13.5
 20
2.15
 30
0.0
 40
0.07999999999999999
  1
GRAPHIC SCALE  1/8" = 1'-0"
  7
KS-REG
 11
13.5
 21
2.15
 31
0.0
100
AcDbText
  0
TEXT
  5
C7
330
17
100
AcDbEntity
  8
A-ANNO-TEXT
100
AcDbText
 10
11.35
 20
9.15
 30
0.0
 40
0.12
  1
NOTES
  7
KS-BOLD
 11
11.35
 21
9.15
 31
0.0
100
AcDbText
  0
TEXT
  5
C8
330
17
100
AcDbEntity
  8
A-ANNO-TEXT
100
AcDbText
 10
11.35
 20
8.874833333333335
 30
0.0
 40
0.095
  1
1.
  7
KS-REG
 11
11.35
 21
8.874833333333335
 31
0.0
100
AcDbText
  0
TEXT
  5
C9
330
17
100
AcDbEntity
  8
A-ANNO-TEXT
100
AcDbText
 10
11.6
 20
8.874833333333335
 30
0.0
 40
0.095
  1
Room outline is the INSIDE face of the walls, from Shane's tape
  7
KS-REG
 11
11.6
 21
8.874833333333335
 31
0.0
100
AcDbText
  0
TEXT
  5
CA
330
17
100
AcDbEntity
  8
A-ANNO-TEXT
100
AcDbText
 10
11.6
 20
8.700666666666669
 30
0.0
 40
0.095
  1
measurement 2026-10-03: 55'-0" north-south × 45'-0" east-west, wall
  7
KS-REG
 11
11.6
 21
8.700666666666669
 31
0.0
100
AcDbText
  0
TEXT
  5
CB
330
17
100
AcDbEntity
  8
A-ANNO-TEXT
100
AcDbText
 10
11.6
 20
8.526500000000002
 30
0.0
 40
0.095
  1
to wall.
  7
KS-REG
 11
11.6
 21
8.526500000000002
 31
0.0
100
AcDbText
  0
TEXT
  5
CC
330
17
100
AcDbEntity
  8
A-ANNO-TEXT
100
AcDbText
 10
11.35
 20
8.30879166666667
 30
0.0
 40
0.095
  1
2.
  7
KS-REG
 11
11.35
 21
8.30879166666667
 31
0.0
100
AcDbText
  0
TEXT
  5
CD
330
17
100
AcDbEntity
  8
A-ANNO-TEXT
100
AcDbText
 10
11.6
 20
8.30879166666667
 30
0.0
 40
0.095
  1
Wall thickness TBD. Walls are drawn as a single line at the inside face.
  7
KS-REG
 11
11.6
 21
8.30879166666667
 31
0.0
100
AcDbText
  0
TEXT
  5
CE
330
17
100
AcDbEntity
  8
A-ANNO-TEXT
100
AcDbText
 10
11.35
 20
8.091083333333337
 30
0.0
 40
0.095
  1
3.
  7
KS-REG
 11
11.35
 21
8.091083333333337
 31
0.0
100
AcDbText
  0
TEXT
  5
CF
330
17
100
AcDbEntity
  8
A-ANNO-TEXT
100
AcDbText
 10
11.6
 20
8.091083333333337
 30
0.0
 40
0.095
  1
Door locations are APPROXIMATE, read from Shane's aerial sketch
  7
KS-REG
 11
11.6
 21
8.091083333333337
 31
0.0
100
AcDbText
  0
TEXT
  5
D0
330
17
100
AcDbEntity
  8
A-ANNO-TEXT
100
AcDbText
 10
11.6
 20
7.916916666666671
 30
0.0
 40
0.095
  1
markup. Not measured. Door widths, swings, and hardware are TBD.
  7
KS-REG
 11
11.6
 21
7.916916666666671
 31
0.0
100
AcDbText
  0
TEXT
  5
D1
330
17
100
AcDbEntity
  8
A-ANNO-TEXT
100
AcDbText
 10
11.6
 20
7.7427500000000045
 30
0.0
 40
0.095
  1
Door marks are tags only, not to scale.
  7
KS-REG
 11
11.6
 21
7.7427500000000045
 31
0.0
100
AcDbText
  0
TEXT
  5
D2
330
17
100
AcDbEntity
  8
A-ANNO-TEXT
100
AcDbText
 10
11.35
 20
7.525041666666671
 30
0.0
 40
0.095
  1
4.
  7
KS-REG
 11
11.35
 21
7.525041666666671
 31
0.0
100
AcDbText
  0
TEXT
  5
D3
330
17
100
AcDbEntity
  8
A-ANNO-TEXT
100
AcDbText
 10
11.6
 20
7.525041666666671
 30
0.0
 40
0.095
  1
The support wing is not yet measured. Its dashed outline is schematic
  7
KS-REG
 11
11.6
 21
7.525041666666671
 31
0.0
100
AcDbText
  0
TEXT
  5
D4
330
17
100
AcDbEntity
  8
A-ANNO-TEXT
100
AcDbText
 10
11.6
 20
7.350875000000005
 30
0.0
 40
0.095
  1
only and not to scale.
  7
KS-REG
 11
11.6
 21
7.350875000000005
 31
0.0
100
AcDbText
  0
TEXT
  5
D5
330
17
100
AcDbEntity
  8
A-ANNO-TEXT
100
AcDbText
 10
11.35
 20
7.133166666666671
 30
0.0
 40
0.095
  1
5.
  7
KS-REG
 11
11.35
 21
7.133166666666671
 31
0.0
100
AcDbText
  0
TEXT
  5
D6
330
17
100
AcDbEntity
  8
A-ANNO-TEXT
100
AcDbText
 10
11.6
 20
7.133166666666671
 30
0.0
 40
0.095
  1
North arrow is approximate (from the Google Maps aerial). Plan north is
  7
KS-REG
 11
11.6
 21
7.133166666666671
 31
0.0
100
AcDbText
  0
TEXT
  5
D7
330
17
100
AcDbEntity
  8
A-ANNO-TEXT
100
AcDbText
 10
11.6
 20
6.959000000000005
 30
0.0
 40
0.095
  1
up.
  7
KS-REG
 11
11.6
 21
6.959000000000005
 31
0.0
100
AcDbText
  0
TEXT
  5
D8
330
17
100
AcDbEntity
  8
A-ANNO-TEXT
100
AcDbText
 10
11.35
 20
6.741291666666672
 30
0.0
 40
0.095
  1
6.
  7
KS-REG
 11
11.35
 21
6.741291666666672
 31
0.0
100
AcDbText
  0
TEXT
  5
D9
330
17
100
AcDbEntity
  8
A-ANNO-TEXT
100
AcDbText
 10
11.6
 20
6.741291666666672
 30
0.0
 40
0.095
  1
Ceiling height, wall material, windows, wall devices, and existing pads
  7
KS-REG
 11
11.6
 21
6.741291666666672
 31
0.0
100
AcDbText
  0
TEXT
  5
DA
330
17
100
AcDbEntity
  8
A-ANNO-TEXT
100
AcDbText
 10
11.6
 20
6.567125000000005
 30
0.0
 40
0.095
  1
are TBD.
  7
KS-REG
 11
11.6
 21
6.567125000000005
 31
0.0
100
AcDbText
  0
TEXT
  5
DB
330
17
100
AcDbEntity
  8
A-ANNO-TEXT
100
AcDbText
 10
11.35
 20
6.154583333333338
 30
0.0
 40
0.12
  1
LEGEND
  7
KS-BOLD
 11
11.35
 21
6.154583333333338
 31
0.0
100
AcDbText
  0
LINE
  5
DC
330
17
100
AcDbEntity
  8
A-WALL
100
AcDbLine
 10
11.35
 20
5.854583333333339
 30
0.0
 11
11.85
 21
5.854583333333339
 31
0.0
  0
TEXT
  5
DD
330
17
100
AcDbEntity
  8
A-ANNO-TEXT
100
AcDbText
 10
12.0
 20
5.804583333333339
 30
0.0
 40
0.095
  1
Inside face of wall (tape-measured)
  7
KS-REG
 11
12.0
 21
5.804583333333339
 31
0.0
100
AcDbText
  0
LINE
  5
DE
330
17
100
AcDbEntity
  8
A-WALL-NMSR
100
AcDbLine
 10
11.35
 20
5.554583333333339
 30
0.0
 11
11.469999999999999
 21
5.554583333333339
 31
0.0
  0
LINE
  5
DF
330
17
100
AcDbEntity
  8
A-WALL-NMSR
100
AcDbLine
 10
11.549999999999999
 20
5.554583333333339
 30
0.0
 11
11.67
 21
5.554583333333339
 31
0.0
  0
LINE
  5
E0
330
17
100
AcDbEntity
  8
A-WALL-NMSR
100
AcDbLine
 10
11.75
 20
5.554583333333339
 30
0.0
 11
11.85
 21
5.554583333333339
 31
0.0
  0
TEXT
  5
E1
330
17
100
AcDbEntity
  8
A-ANNO-TEXT
100
AcDbText
 10
12.0
 20
5.504583333333339
 30
0.0
 40
0.095
  1
Not yet measured (schematic only)
  7
KS-REG
 11
12.0
 21
5.504583333333339
 31
0.0
100
AcDbText
  0
LINE
  5
E2
330
17
100
AcDbEntity
  8
A-DOOR-IDEN
100
AcDbLine
 10
11.549999999999999
 20
5.334583333333339
 30
0.0
 11
11.835999999999999
 21
5.224583333333339
 31
0.0
  0
LINE
  5
E3
330
17
100
AcDbEntity
  8
A-DOOR-IDEN
100
AcDbLine
 10
11.835999999999999
 20
5.224583333333339
 30
0.0
 11
11.549999999999999
 21
5.114583333333338
 31
0.0
  0
LINE
  5
E4
330
17
100
AcDbEntity
  8
A-DOOR-IDEN
100
AcDbLine
 10
11.549999999999999
 20
5.114583333333338
 30
0.0
 11
11.549999999999999
 21
5.334583333333339
 31
0.0
  0
TEXT
  5
E5
330
17
100
AcDbEntity
  8
A-DOOR-IDEN
100
AcDbText
 10
11.915999999999999
 20
5.244583333333338
 30
0.0
 40
0.08499999999999999
  1

  7
KS-BOLD
 11
11.915999999999999
 21
5.244583333333338
 31
0.0
100
AcDbText
  0
TEXT
  5
E6
330
17
100
AcDbEntity
  8
A-ANNO-TEXT
100
AcDbText
 10
12.0
 20
5.184583333333339
 30
0.0
 40
0.095
  1
Door / exit mark — APPROX. location, size TBD
  7
KS-REG
 11
12.0
 21
5.184583333333339
 31
0.0
100
AcDbText
  0
ENDSEC
  0
SECTION
  2
OBJECTS
  0
DICTIONARY
  5
A
330
0
100
AcDbDictionary
281
1
  3
ACAD_COLOR
350
B
  3
ACAD_GROUP
350
C
  3
ACAD_LAYOUT
350
D
  3
ACAD_MATERIAL
350
E
  3
ACAD_MLEADERSTYLE
350
F
  3
ACAD_MLINESTYLE
350
10
  3
ACAD_PLOTSETTINGS
350
11
  3
ACAD_PLOTSTYLENAME
350
12
  3
ACAD_SCALELIST
350
14
  3
ACAD_TABLESTYLE
350
15
  3
ACAD_VISUALSTYLE
350
16
  3
EZDXF_META
350
2D
  0
DICTIONARY
  5
B
330
A
100
AcDbDictionary
281
1
  0
DICTIONARY
  5
C
330
A
100
AcDbDictionary
281
1
  0
DICTIONARY
  5
D
330
A
100
AcDbDictionary
281
1
  3
Model
350
1A
  3
Layout1
350
1E
  0
DICTIONARY
  5
E
330
A
100
AcDbDictionary
281
1
  3
ByBlock
350
1F
  3
ByLayer
350
20
  3
Global
350
21
  0
DICTIONARY
  5
F
330
A
100
AcDbDictionary
281
1
  3
Standard
350
2C
  0
DICTIONARY
  5
10
330
A
100
AcDbDictionary
281
1
  3
Standard
350
22
  0
DICTIONARY
  5
11
330
A
100
AcDbDictionary
281
1
  0
ACDBDICTIONARYWDFLT
  5
12
330
A
100
AcDbDictionary
281
1
  3
Normal
350
13
100
AcDbDictionaryWithDefault
340
13
  0
ACDBPLACEHOLDER
  5
13
330
12
  0
DICTIONARY
  5
14
330
A
100
AcDbDictionary
281
1
  0
DICTIONARY
  5
15
330
A
100
AcDbDictionary
281
1
  0
DICTIONARY
  5
16
330
A
100
AcDbDictionary
281
1
  0
LAYOUT
  5
1A
330
D
100
AcDbPlotSettings
  1

  4
A3
  6

 40
7.5
 41
20.0
 42
7.5
 43
20.0
 44
420.0
 45
297.0
 46
0.0
 47
0.0
 48
0.0
 49
0.0
140
0.0
141
0.0
142
1.0
143
1.0
 70
1024
 72
1
 73
0
 74
5
  7

 75
16
 76
0
 77
2
 78
300
147
1.0
148
0.0
149
0.0
100
AcDbLayout
  1
Model
 70
1
 71
0
 10
0.0
 20
0.0
 11
420.0
 21
297.0
 12
0.0
 22
0.0
 32
0.0
 14
1e+20
 24
1e+20
 34
1e+20
 15
-1e+20
 25
-1e+20
 35
-1e+20
146
0.0
 13
0.0
 23
0.0
 33
0.0
 16
1.0
 26
0.0
 36
0.0
 17
0.0
 27
1.0
 37
0.0
 76
1
330
17
  0
LAYOUT
  5
1E
330
D
100
AcDbPlotSettings
  1

  4
A3
  6

 40
7.5
 41
20.0
 42
7.5
 43
20.0
 44
420.0
 45
297.0
 46
0.0
 47
0.0
 48
0.0
 49
0.0
140
0.0
141
0.0
142
1.0
143
1.0
 70
0
 72
1
 73
0
 74
5
  7

 75
16
 76
0
 77
2
 78
300
147
1.0
148
0.0
149
0.0
100
AcDbLayout
  1
Layout1
 70
1
 71
1
 10
0.0
 20
0.0
 11
420.0
 21
297.0
 12
0.0
 22
0.0
 32
0.0
 14
1e+20
 24
1e+20
 34
1e+20
 15
-1e+20
 25
-1e+20
 35
-1e+20
146
0.0
 13
0.0
 23
0.0
 33
0.0
 16
1.0
 26
0.0
 36
0.0
 17
0.0
 27
1.0
 37
0.0
 76
1
330
1B
  0
MATERIAL
  5
1F
102
{ACAD_REACTORS
330
E
102
}
330
E
100
AcDbMaterial
  1
ByBlock
  2

 70
0
 40
1.0
 71
1
 41
1.0
 91
-1023410177
 42
1.0
 72
1
  3

 73
1
 74
1
 75
1
 44
0.5
 73
0
 45
1.0
 46
1.0
 77
1
  4

 78
1
 79
1
170
1
 48
1.0
171
1
  6

172
1
173
1
174
1
140
1.0
141
1.0
175
1
  7

176
1
177
1
178
1
143
1.0
179
1
  8

270
1
271
1
272
1
145
1.0
146
1.0
273
1
  9

274
1
275
1
276
1
 42
1.0
 72
1
  3

 73
1
 74
1
 75
1
 94
63
  0
MATERIAL
  5
20
102
{ACAD_REACTORS
330
E
102
}
330
E
100
AcDbMaterial
  1
ByLayer
  2

 70
0
 40
1.0
 71
1
 41
1.0
 91
-1023410177
 42
1.0
 72
1
  3

 73
1
 74
1
 75
1
 44
0.5
 73
0
 45
1.0
 46
1.0
 77
1
  4

 78
1
 79
1
170
1
 48
1.0
171
1
  6

172
1
173
1
174
1
140
1.0
141
1.0
175
1
  7

176
1
177
1
178
1
143
1.0
179
1
  8

270
1
271
1
272
1
145
1.0
146
1.0
273
1
  9

274
1
275
1
276
1
 42
1.0
 72
1
  3

 73
1
 74
1
 75
1
 94
63
  0
MATERIAL
  5
21
102
{ACAD_REACTORS
330
E
102
}
330
E
100
AcDbMaterial
  1
Global
  2

 70
0
 40
1.0
 71
1
 41
1.0
 91
-1023410177
 42
1.0
 72
1
  3

 73
1
 74
1
 75
1
 44
0.5
 73
0
 45
1.0
 46
1.0
 77
1
  4

 78
1
 79
1
170
1
 48
1.0
171
1
  6

172
1
173
1
174
1
140
1.0
141
1.0
175
1
  7

176
1
177
1
178
1
143
1.0
179
1
  8

270
1
271
1
272
1
145
1.0
146
1.0
273
1
  9

274
1
275
1
276
1
 42
1.0
 72
1
  3

 73
1
 74
1
 75
1
 94
63
  0
MLINESTYLE
  5
22
102
{ACAD_REACTORS
330
10
102
}
330
10
100
AcDbMlineStyle
  2
Standard
 70
0
  3

 62
256
 51
90.0
 52
90.0
 71
2
 49
0.5
 62
256
  6
BYLAYER
 49
-0.5
 62
256
  6
BYLAYER
  0
MLEADERSTYLE
  5
2C
102
{ACAD_REACTORS
330
F
102
}
330
F
100
AcDbMLeaderStyle
179
2
170
2
171
1
172
0
 90
2
 40
0.0
 41
0.0
173
1
 91
-1056964608
 92
-2
290
1
 42
2.0
291
1
 43
8.0
  3
Standard
 44
4.0
300

342
29
174
1
175
1
176
0
178
1
 93
-1056964608
 45
4.0
292
0
297
0
 46
4.0
 94
-1056964608
 47
1.0
 49
1.0
140
1.0
294
1
141
0.0
177
0
142
1.0
295
0
296
0
143
3.75
271
0
272
9
273
9
  0
DICTIONARY
  5
2D
330
A
100
AcDbDictionary
280
1
281
1
  3
CREATED_BY_EZDXF
350
2E
  3
WRITTEN_BY_EZDXF
350
E9
  0
DICTIONARYVAR
  5
2E
330
2D
100
DictionaryVariables
280
0
  1
1.4.4 @ 2026-10-04T03:15:46.741122+00:00
  0
DICTIONARYVAR
  5
E9
330
2D
100
DictionaryVariables
280
0
  1
1.4.4 @ 2026-10-04T03:15:46.747682+00:00
  0
ENDSEC
  0
EOF
