  0
SECTION
  2
HEADER
  9
$ACADVER
  1
AC1024
  9
$ACADMAINTVER
 70
6
  9
$DWGCODEPAGE
  3
ANSI_1252
  9
$LASTSAVEDBY
  1
ezdxf
  9
$INSBASE
 10
0.0
 20
0.0
 30
0.0
  9
$EXTMIN
 10
1e+20
 20
1e+20
 30
1e+20
  9
$EXTMAX
 10
-1e+20
 20
-1e+20
 30
-1e+20
  9
$LIMMIN
 10
0.0
 20
0.0
  9
$LIMMAX
 10
420.0
 20
297.0
  9
$ORTHOMODE
 70
0
  9
$REGENMODE
 70
1
  9
$FILLMODE
 70
1
  9
$QTEXTMODE
 70
0
  9
$MIRRTEXT
 70
1
  9
$LTSCALE
 40
1.0
  9
$ATTMODE
 70
1
  9
$TEXTSIZE
 40
2.5
  9
$TRACEWID
 40
1.0
  9
$TEXTSTYLE
  7
Standard
  9
$CLAYER
  8
0
  9
$CELTYPE
  6
ByLayer
  9
$CECOLOR
 62
256
  9
$CELTSCALE
 40
1.0
  9
$DISPSILH
 70
0
  9
$DIMSCALE
 40
1.0
  9
$DIMASZ
 40
2.5
  9
$DIMEXO
 40
0.625
  9
$DIMDLI
 40
3.75
  9
$DIMRND
 40
0.0
  9
$DIMDLE
 40
0.0
  9
$DIMEXE
 40
1.25
  9
$DIMTP
 40
0.0
  9
$DIMTM
 40
0.0
  9
$DIMTXT
 40
2.5
  9
$DIMCEN
 40
2.5
  9
$DIMTSZ
 40
0.0
  9
$DIMTOL
 70
0
  9
$DIMLIM
 70
0
  9
$DIMTIH
 70
0
  9
$DIMTOH
 70
0
  9
$DIMSE1
 70
0
  9
$DIMSE2
 70
0
  9
$DIMTAD
 70
1
  9
$DIMZIN
 70
8
  9
$DIMBLK
  1

  9
$DIMASO
 70
1
  9
$DIMSHO
 70
1
  9
$DIMPOST
  1

  9
$DIMAPOST
  1

  9
$DIMALT
 70
0
  9
$DIMALTD
 70
3
  9
$DIMALTF
 40
0.03937007874
  9
$DIMLFAC
 40
1.0
  9
$DIMTOFL
 70
1
  9
$DIMTVP
 40
0.0
  9
$DIMTIX
 70
0
  9
$DIMSOXD
 70
0
  9
$DIMSAH
 70
0
  9
$DIMBLK1
  1

  9
$DIMBLK2
  1

  9
$DIMSTYLE
  2
ISO-25
  9
$DIMCLRD
 70
0
  9
$DIMCLRE
 70
0
  9
$DIMCLRT
 70
0
  9
$DIMTFAC
 40
1.0
  9
$DIMGAP
 40
0.625
  9
$DIMJUST
 70
0
  9
$DIMSD1
 70
0
  9
$DIMSD2
 70
0
  9
$DIMTOLJ
 70
0
  9
$DIMTZIN
 70
8
  9
$DIMALTZ
 70
0
  9
$DIMALTTZ
 70
0
  9
$DIMUPT
 70
0
  9
$DIMDEC
 70
2
  9
$DIMTDEC
 70
2
  9
$DIMALTU
 70
2
  9
$DIMALTTD
 70
3
  9
$DIMTXSTY
  7
Standard
  9
$DIMAUNIT
 70
0
  9
$DIMADEC
 70
0
  9
$DIMALTRND
 40
0.0
  9
$DIMAZIN
 70
0
  9
$DIMDSEP
 70
44
  9
$DIMATFIT
 70
3
  9
$DIMFRAC
 70
0
  9
$DIMLDRBLK
  1

  9
$DIMLUNIT
 70
2
  9
$DIMLWD
 70
-2
  9
$DIMLWE
 70
-2
  9
$DIMTMOVE
 70
0
  9
$DIMFXL
 40
1.0
  9
$DIMFXLON
 70
0
  9
$DIMJOGANG
 40
0.785398163397
  9
$DIMTFILL
 70
0
  9
$DIMTFILLCLR
 70
0
  9
$DIMARCSYM
 70
0
  9
$DIMLTYPE
  6

  9
$DIMLTEX1
  6

  9
$DIMLTEX2
  6

  9
$DIMTXTDIRECTION
 70
0
  9
$LUNITS
 70
2
  9
$LUPREC
 70
4
  9
$SKETCHINC
 40
1.0
  9
$FILLETRAD
 40
10.0
  9
$AUNITS
 70
0
  9
$AUPREC
 70
2
  9
$MENU
  1
.
  9
$ELEVATION
 40
0.0
  9
$PELEVATION
 40
0.0
  9
$THICKNESS
 40
0.0
  9
$LIMCHECK
 70
0
  9
$CHAMFERA
 40
0.0
  9
$CHAMFERB
 40
0.0
  9
$CHAMFERC
 40
0.0
  9
$CHAMFERD
 40
0.0
  9
$SKPOLY
 70
0
  9
$TDCREATE
 40
2461318.768263889
  9
$TDUCREATE
 40
2458532.153996898
  9
$TDUPDATE
 40
2461318.768263889
  9
$TDUUPDATE
 40
2458532.1544311
  9
$TDINDWG
 40
0.0
  9
$TDUSRTIMER
 40
0.0
  9
$USRTIMER
 70
1
  9
$ANGBASE
 50
0.0
  9
$ANGDIR
 70
0
  9
$PDMODE
 70
0
  9
$PDSIZE
 40
0.0
  9
$PLINEWID
 40
0.0
  9
$SPLFRAME
 70
0
  9
$SPLINETYPE
 70
6
  9
$SPLINESEGS
 70
8
  9
$HANDSEED
  5
39B
  9
$SURFTAB1
 70
6
  9
$SURFTAB2
 70
6
  9
$SURFTYPE
 70
6
  9
$SURFU
 70
6
  9
$SURFV
 70
6
  9
$UCSBASE
  2

  9
$UCSNAME
  2

  9
$UCSORG
 10
0.0
 20
0.0
 30
0.0
  9
$UCSXDIR
 10
1.0
 20
0.0
 30
0.0
  9
$UCSYDIR
 10
0.0
 20
1.0
 30
0.0
  9
$UCSORTHOREF
  2

  9
$UCSORTHOVIEW
 70
0
  9
$UCSORGTOP
 10
0.0
 20
0.0
 30
0.0
  9
$UCSORGBOTTOM
 10
0.0
 20
0.0
 30
0.0
  9
$UCSORGLEFT
 10
0.0
 20
0.0
 30
0.0
  9
$UCSORGRIGHT
 10
0.0
 20
0.0
 30
0.0
  9
$UCSORGFRONT
 10
0.0
 20
0.0
 30
0.0
  9
$UCSORGBACK
 10
0.0
 20
0.0
 30
0.0
  9
$PUCSBASE
  2

  9
$PUCSNAME
  2

  9
$PUCSORG
 10
0.0
 20
0.0
 30
0.0
  9
$PUCSXDIR
 10
1.0
 20
0.0
 30
0.0
  9
$PUCSYDIR
 10
0.0
 20
1.0
 30
0.0
  9
$PUCSORTHOREF
  2

  9
$PUCSORTHOVIEW
 70
0
  9
$PUCSORGTOP
 10
0.0
 20
0.0
 30
0.0
  9
$PUCSORGBOTTOM
 10
0.0
 20
0.0
 30
0.0
  9
$PUCSORGLEFT
 10
0.0
 20
0.0
 30
0.0
  9
$PUCSORGRIGHT
 10
0.0
 20
0.0
 30
0.0
  9
$PUCSORGFRONT
 10
0.0
 20
0.0
 30
0.0
  9
$PUCSORGBACK
 10
0.0
 20
0.0
 30
0.0
  9
$USERI1
 70
0
  9
$USERI2
 70
0
  9
$USERI3
 70
0
  9
$USERI4
 70
0
  9
$USERI5
 70
0
  9
$USERR1
 40
0.0
  9
$USERR2
 40
0.0
  9
$USERR3
 40
0.0
  9
$USERR4
 40
0.0
  9
$USERR5
 40
0.0
  9
$WORLDVIEW
 70
1
  9
$SHADEDGE
 70
3
  9
$SHADEDIF
 70
70
  9
$TILEMODE
 70
1
  9
$MAXACTVP
 70
64
  9
$PINSBASE
 10
0.0
 20
0.0
 30
0.0
  9
$PLIMCHECK
 70
0
  9
$PEXTMIN
 10
1e+20
 20
1e+20
 30
1e+20
  9
$PEXTMAX
 10
-1e+20
 20
-1e+20
 30
-1e+20
  9
$PLIMMIN
 10
0.0
 20
0.0
  9
$PLIMMAX
 10
420.0
 20
297.0
  9
$UNITMODE
 70
0
  9
$VISRETAIN
 70
1
  9
$PLINEGEN
 70
0
  9
$PSLTSCALE
 70
1
  9
$TREEDEPTH
 70
3020
  9
$CMLSTYLE
  2
Standard
  9
$CMLJUST
 70
0
  9
$CMLSCALE
 40
20.0
  9
$PROXYGRAPHICS
 70
1
  9
$MEASUREMENT
 70
0
  9
$CELWEIGHT
370
-1
  9
$ENDCAPS
280
0
  9
$JOINSTYLE
280
0
  9
$LWDISPLAY
290
0
  9
$INSUNITS
 70
1
  9
$HYPERLINKBASE
  1

  9
$STYLESHEET
  1

  9
$XEDIT
290
1
  9
$CEPSNTYPE
380
0
  9
$PSTYLEMODE
290
1
  9
$FINGERPRINTGUID
  2
{4ACA6F40-D95F-4819-AA33-3755A975DF9B}
  9
$VERSIONGUID
  2
{430A26F6-4A3D-4603-B8D2-0C605D28DC1A}
  9
$EXTNAMES
290
1
  9
$PSVPSCALE
 40
0.0
  9
$OLESTARTUP
290
0
  9
$SORTENTS
280
127
  9
$INDEXCTL
280
0
  9
$HIDETEXT
280
1
  9
$XCLIPFRAME
280
1
  9
$HALOGAP
280
0
  9
$OBSCOLOR
 70
257
  9
$OBSLTYPE
280
0
  9
$INTERSECTIONDISPLAY
280
0
  9
$INTERSECTIONCOLOR
 70
257
  9
$DIMASSOC
280
2
  9
$PROJECTNAME
  1

  9
$CAMERADISPLAY
290
0
  9
$LENSLENGTH
 40
50.0
  9
$CAMERAHEIGHT
 40
0.0
  9
$STEPSPERSEC
 40
24.0
  9
$STEPSIZE
 40
100.0
  9
$3DDWFPREC
 40
2.0
  9
$PSOLWIDTH
 40
0.005
  9
$PSOLHEIGHT
 40
0.08
  9
$LOFTANG1
 40
1.570796326795
  9
$LOFTANG2
 40
1.570796326795
  9
$LOFTMAG1
 40
0.0
  9
$LOFTMAG2
 40
0.0
  9
$LOFTPARAM
 70
7
  9
$LOFTNORMALS
280
1
  9
$LATITUDE
 40
37.795
  9
$LONGITUDE
 40
-122.394
  9
$NORTHDIRECTION
 40
0.0
  9
$TIMEZONE
 70
-8000
  9
$LIGHTGLYPHDISPLAY
280
1
  9
$TILEMODELIGHTSYNCH
280
1
  9
$CMATERIAL
347
20
  9
$SOLIDHIST
280
0
  9
$SHOWHIST
280
1
  9
$DWFFRAME
280
2
  9
$DGNFRAME
280
2
  9
$REALWORLDSCALE
290
1
  9
$INTERFERECOLOR
 62
256
  9
$CSHADOW
280
0
  9
$SHADOWPLANELOCATION
 40
0.0
  0
ENDSEC
  0
SECTION
  2
CLASSES
  0
CLASS
  1
ACDBDICTIONARYWDFLT
  2
AcDbDictionaryWithDefault
  3
ObjectDBX Classes
 90
0
 91
0
280
0
281
0
  0
CLASS
  1
SUN
  2
AcDbSun
  3
SCENEOE
 90
1153
 91
0
280
0
281
0
  0
CLASS
  1
VISUALSTYLE
  2
AcDbVisualStyle
  3
ObjectDBX Classes
 90
4095
 91
0
280
0
281
0
  0
CLASS
  1
MATERIAL
  2
AcDbMaterial
  3
ObjectDBX Classes
 90
1153
 91
0
280
0
281
0
  0
CLASS
  1
SCALE
  2
AcDbScale
  3
ObjectDBX Classes
 90
1153
 91
0
280
0
281
0
  0
CLASS
  1
TABLESTYLE
  2
AcDbTableStyle
  3
ObjectDBX Classes
 90
4095
 91
0
280
0
281
0
  0
CLASS
  1
MLEADERSTYLE
  2
AcDbMLeaderStyle
  3
ACDB_MLEADERSTYLE_CLASS
 90
4095
 91
0
280
0
281
0
  0
CLASS
  1
DICTIONARYVAR
  2
AcDbDictionaryVar
  3
ObjectDBX Classes
 90
0
 91
0
280
0
281
0
  0
CLASS
  1
CELLSTYLEMAP
  2
AcDbCellStyleMap
  3
ObjectDBX Classes
 90
1152
 91
0
280
0
281
0
  0
CLASS
  1
MENTALRAYRENDERSETTINGS
  2
AcDbMentalRayRenderSettings
  3
SCENEOE
 90
1024
 91
0
280
0
281
0
  0
CLASS
  1
ACDBDETAILVIEWSTYLE
  2
AcDbDetailViewStyle
  3
ObjectDBX Classes
 90
1025
 91
0
280
0
281
0
  0
CLASS
  1
ACDBSECTIONVIEWSTYLE
  2
AcDbSectionViewStyle
  3
ObjectDBX Classes
 90
1025
 91
0
280
0
281
0
  0
CLASS
  1
RASTERVARIABLES
  2
AcDbRasterVariables
  3
ISM
 90
0
 91
0
280
0
281
0
  0
CLASS
  1
ACDBPLACEHOLDER
  2
AcDbPlaceHolder
  3
ObjectDBX Classes
 90
0
 91
0
280
0
281
0
  0
CLASS
  1
LAYOUT
  2
AcDbLayout
  3
ObjectDBX Classes
 90
0
 91
0
280
0
281
0
  0
ENDSEC
  0
SECTION
  2
TABLES
  0
TABLE
  2
VPORT
  5
8
330
0
100
AcDbSymbolTable
 70
1
  0
VPORT
  5
23
330
8
100
AcDbSymbolTableRecord
100
AcDbViewportTableRecord
  2
*Active
 70
0
 10
0.0
 20
0.0
 11
1.0
 21
1.0
 12
0.0
 22
0.0
 13
0.0
 23
0.0
 14
0.5
 24
0.5
 15
0.5
 25
0.5
 16
0.0
 26
0.0
 36
1.0
 17
0.0
 27
0.0
 37
0.0
 40
1000.0
 41
1.34
 42
50.0
 43
0.0
 44
0.0
 50
0.0
 51
0.0
 71
0
 72
1000
 73
1
 74
3
 75
0
 76
0
 77
0
 78
0
281
0
 65
0
146
0.0
  0
ENDTAB
  0
TABLE
  2
LTYPE
  5
2
330
0
100
AcDbSymbolTable
 70
3
  0
LTYPE
  5
24
330
2
100
AcDbSymbolTableRecord
100
AcDbLinetypeTableRecord
  2
ByBlock
 70
0
  3

 72
65
 73
0
 40
0.0
  0
LTYPE
  5
25
330
2
100
AcDbSymbolTableRecord
100
AcDbLinetypeTableRecord
  2
ByLayer
 70
0
  3

 72
65
 73
0
 40
0.0
  0
LTYPE
  5
26
330
2
100
AcDbSymbolTableRecord
100
AcDbLinetypeTableRecord
  2
Continuous
 70
0
  3

 72
65
 73
0
 40
0.0
  0
ENDTAB
  0
TABLE
  2
LAYER
  5
1
330
0
100
AcDbSymbolTable
 70
14
  0
LAYER
  5
27
330
1
100
AcDbSymbolTableRecord
100
AcDbLayerTableRecord
  2
0
 70
0
 62
7
  6
Continuous
370
-3
390
13
347
21
  0
LAYER
  5
28
330
1
100
AcDbSymbolTableRecord
100
AcDbLayerTableRecord
  2
Defpoints
 70
0
 62
7
  6
Continuous
290
0
370
-3
390
13
347
21
  0
LAYER
  5
31
330
1
100
AcDbSymbolTableRecord
100
AcDbLayerTableRecord
  2
G-ANNO-TTLB
 70
0
 62
7
  6
Continuous
370
-3
390
13
347
21
  0
LAYER
  5
32
330
1
100
AcDbSymbolTableRecord
100
AcDbLayerTableRecord
  2
A-ANNO-TEXT
 70
0
 62
7
  6
Continuous
370
-3
390
13
347
21
  0
LAYER
  5
33
330
1
100
AcDbSymbolTableRecord
100
AcDbLayerTableRecord
  2
A-WALL-BLDG
 70
0
 62
7
  6
Continuous
370
-3
390
13
347
21
  0
LAYER
  5
34
330
1
100
AcDbSymbolTableRecord
100
AcDbLayerTableRecord
  2
A-ANNO-DIMS
 70
0
 62
7
  6
Continuous
370
-3
390
13
347
21
  0
LAYER
  5
35
330
1
100
AcDbSymbolTableRecord
100
AcDbLayerTableRecord
  2
A-SEAT-FIXD
 70
0
 62
7
  6
Continuous
370
-3
390
13
347
21
  0
LAYER
  5
36
330
1
100
AcDbSymbolTableRecord
100
AcDbLayerTableRecord
  2
A-FLOR-MATS
 70
0
 62
7
  6
Continuous
370
-3
390
13
347
21
  0
LAYER
  5
37
330
1
100
AcDbSymbolTableRecord
100
AcDbLayerTableRecord
  2
A-SEAT-TELE
 70
0
 62
7
  6
Continuous
370
-3
390
13
347
21
  0
LAYER
  5
38
330
1
100
AcDbSymbolTableRecord
100
AcDbLayerTableRecord
  2
A-AREA-IDEN
 70
0
 62
7
  6
Continuous
370
-3
390
13
347
21
  0
LAYER
  5
39
330
1
100
AcDbSymbolTableRecord
100
AcDbLayerTableRecord
  2
A-AREA-BLCK
 70
0
 62
7
  6
Continuous
370
-3
390
13
347
21
  0
LAYER
  5
3A
330
1
100
AcDbSymbolTableRecord
100
AcDbLayerTableRecord
  2
A-FLOR-CORT
 70
0
 62
7
  6
Continuous
370
-3
390
13
347
21
  0
LAYER
  5
3B
330
1
100
AcDbSymbolTableRecord
100
AcDbLayerTableRecord
  2
A-FLOR-STRS
 70
0
 62
7
  6
Continuous
370
-3
390
13
347
21
  0
LAYER
  5
3C
330
1
100
AcDbSymbolTableRecord
100
AcDbLayerTableRecord
  2
A-ANNO-TABL
 70
0
 62
7
  6
Continuous
370
-3
390
13
347
21
  0
ENDTAB
  0
TABLE
  2
STYLE
  5
5
330
0
100
AcDbSymbolTable
 70
3
  0
STYLE
  5
29
330
5
100
AcDbSymbolTableRecord
100
AcDbTextStyleTableRecord
  2
Standard
 70
0
 40
0.0
 41
1.0
 50
0.0
 71
0
 42
2.5
  3
txt
  4

  0
STYLE
  5
2F
330
5
100
AcDbSymbolTableRecord
100
AcDbTextStyleTableRecord
  2
KS-REG
 70
0
 40
0.0
 41
1.0
 50
0.0
 71
0
 42
2.5
  3
DejaVuSans.ttf
  4

  0
STYLE
  5
30
330
5
100
AcDbSymbolTableRecord
100
AcDbTextStyleTableRecord
  2
KS-BOLD
 70
0
 40
0.0
 41
1.0
 50
0.0
 71
0
 42
2.5
  3
DejaVuSans-Bold.ttf
  4

  0
ENDTAB
  0
TABLE
  2
VIEW
  5
7
330
0
100
AcDbSymbolTable
 70
0
  0
ENDTAB
  0
TABLE
  2
UCS
  5
6
330
0
100
AcDbSymbolTable
 70
0
  0
ENDTAB
  0
TABLE
  2
APPID
  5
3
330
0
100
AcDbSymbolTable
 70
3
  0
APPID
  5
2A
330
3
100
AcDbSymbolTableRecord
100
AcDbRegAppTableRecord
  2
ACAD
 70
0
  0
APPID
  5
398
330
3
100
AcDbSymbolTableRecord
100
AcDbRegAppTableRecord
  2
HATCHBACKGROUNDCOLOR
 70
0
  0
APPID
  5
399
330
3
100
AcDbSymbolTableRecord
100
AcDbRegAppTableRecord
  2
EZDXF
 70
0
  0
ENDTAB
  0
TABLE
  2
DIMSTYLE
  5
4
330
0
100
AcDbSymbolTable
 70
1
100
AcDbDimStyleTable
  0
DIMSTYLE
105
2B
330
4
100
AcDbSymbolTableRecord
100
AcDbDimStyleTableRecord
  2
Standard
 70
0
 40
1.0
 41
2.5
 42
0.625
 43
3.75
 44
1.25
 45
0.0
 46
0.0
 47
0.0
 48
0.0
 49
2.5
140
2.5
141
2.5
142
0.0
143
0.03937007874
144
1.0
145
0.0
146
1.0
147
0.625
148
0.0
 69
0
 70
0
 71
0
 72
0
 73
0
 74
0
 75
0
 76
0
 77
1
 78
8
 79
3
170
0
171
3
172
1
173
0
174
0
175
0
176
0
177
0
178
0
179
2
271
2
272
2
273
2
274
3
275
0
276
0
277
2
278
44
279
0
280
0
281
0
282
0
283
0
284
8
285
0
286
0
288
0
289
3
290
0
371
-2
372
-2
  0
ENDTAB
  0
TABLE
  2
BLOCK_RECORD
  5
9
330
0
100
AcDbSymbolTable
 70
2
  0
BLOCK_RECORD
  5
17
330
9
100
AcDbSymbolTableRecord
100
AcDbBlockTableRecord
  2
*Model_Space
340
1A
 70
0
280
1
281
0
  0
BLOCK_RECORD
  5
1B
330
9
100
AcDbSymbolTableRecord
100
AcDbBlockTableRecord
  2
*Paper_Space
340
1E
 70
0
280
1
281
0
  0
ENDTAB
  0
ENDSEC
  0
SECTION
  2
BLOCKS
  0
BLOCK
  5
18
330
17
100
AcDbEntity
  8
0
100
AcDbBlockBegin
  2
*Model_Space
 70
0
 10
0.0
 20
0.0
 30
0.0
  3
*Model_Space
  1

  0
ENDBLK
  5
19
330
17
100
AcDbEntity
  8
0
100
AcDbBlockEnd
  0
BLOCK
  5
1C
330
1B
100
AcDbEntity
  8
0
100
AcDbBlockBegin
  2
*Paper_Space
 70
0
 10
0.0
 20
0.0
 30
0.0
  3
*Paper_Space
  1

  0
ENDBLK
  5
1D
330
1B
100
AcDbEntity
  8
0
100
AcDbBlockEnd
  0
ENDSEC
  0
SECTION
  2
ENTITIES
  0
LWPOLYLINE
  5
3D
330
17
100
AcDbEntity
  8
G-ANNO-TTLB
100
AcDbPolyline
 90
4
 70
1
 10
0.5
 20
0.5
 10
16.5
 20
0.5
 10
16.5
 20
10.5
 10
0.5
 20
10.5
  0
LWPOLYLINE
  5
3E
330
17
100
AcDbEntity
  8
G-ANNO-TTLB
100
AcDbPolyline
 90
4
 70
1
 10
0.5
 20
1.45
 10
16.5
 20
1.45
 10
16.5
 20
1.85
 10
0.5
 20
1.85
  0
TEXT
  5
3F
330
17
100
AcDbEntity
  8
G-ANNO-TTLB
100
AcDbText
 10
8.5
 20
1.5699999999999998
 30
0.0
 40
0.16999999999999998
  1
PRELIMINARY — CONCEPTUAL DESIGN — NOT FOR CONSTRUCTION
  7
KS-BOLD
 72
1
 11
8.5
 21
1.5699999999999998
 31
0.0
100
AcDbText
  0
LINE
  5
40
330
17
100
AcDbEntity
  8
G-ANNO-TTLB
100
AcDbLine
 10
0.5
 20
1.45
 30
0.0
 11
16.5
 21
1.45
 31
0.0
  0
TEXT
  5
41
330
17
100
AcDbEntity
  8
G-ANNO-TTLB
100
AcDbText
 10
0.58
 20
1.28
 30
0.0
 40
0.06999999999999999
  1
PROJECT
  7
KS-REG
 11
0.58
 21
1.28
 31
0.0
100
AcDbText
  0
TEXT
  5
42
330
17
100
AcDbEntity
  8
G-ANNO-TTLB
100
AcDbText
 10
0.58
 20
0.9991666666666666
 30
0.0
 40
0.11499999999999999
  1
Hazel Green Regional Athletic Complex
  7
KS-BOLD
 11
0.58
 21
0.9991666666666666
 31
0.0
100
AcDbText
  0
TEXT
  5
43
330
17
100
AcDbEntity
  8
G-ANNO-TTLB
100
AcDbText
 10
0.58
 20
0.7883333333333333
 30
0.0
 40
0.11499999999999999
  1
Trojan Horse Arena · Hazel Green area, Madison
  7
KS-BOLD
 11
0.58
 21
0.7883333333333333
 31
0.0
100
AcDbText
  0
TEXT
  5
44
330
17
100
AcDbEntity
  8
G-ANNO-TTLB
100
AcDbText
 10
0.58
 20
0.5775
 30
0.0
 40
0.11499999999999999
  1
County, Alabama (site TBD, D-006)
  7
KS-BOLD
 11
0.58
 21
0.5775
 31
0.0
100
AcDbText
  0
LINE
  5
45
330
17
100
AcDbEntity
  8
G-ANNO-TTLB
100
AcDbLine
 10
5.2
 20
0.5
 30
0.0
 11
5.2
 21
1.45
 31
0.0
  0
TEXT
  5
46
330
17
100
AcDbEntity
  8
G-ANNO-TTLB
100
AcDbText
 10
5.28
 20
1.28
 30
0.0
 40
0.06999999999999999
  1
PHASE
  7
KS-REG
 11
5.28
 21
1.28
 31
0.0
100
AcDbText
  0
TEXT
  5
47
330
17
100
AcDbEntity
  8
G-ANNO-TTLB
100
AcDbText
 10
5.28
 20
0.9716666666666667
 30
0.0
 40
0.13
  1
PHASE 2
  7
KS-BOLD
 11
5.28
 21
0.9716666666666667
 31
0.0
100
AcDbText
  0
LINE
  5
48
330
17
100
AcDbEntity
  8
G-ANNO-TTLB
100
AcDbLine
 10
6.7
 20
0.5
 30
0.0
 11
6.7
 21
1.45
 31
0.0
  0
TEXT
  5
49
330
17
100
AcDbEntity
  8
G-ANNO-TTLB
100
AcDbText
 10
6.78
 20
1.28
 30
0.0
 40
0.06999999999999999
  1
SHEET TITLE
  7
KS-REG
 11
6.78
 21
1.28
 31
0.0
100
AcDbText
  0
TEXT
  5
4A
330
17
100
AcDbEntity
  8
G-ANNO-TTLB
100
AcDbText
 10
6.78
 20
0.9991666666666666
 30
0.0
 40
0.11499999999999999
  1
OVERALL FLOOR PLAN
  7
KS-BOLD
 11
6.78
 21
0.9991666666666666
 31
0.0
100
AcDbText
  0
TEXT
  5
4B
330
17
100
AcDbEntity
  8
G-ANNO-TTLB
100
AcDbText
 10
6.78
 20
0.7883333333333333
 30
0.0
 40
0.11499999999999999
  1
LEVEL 1 · BLOCK PLAN
  7
KS-BOLD
 11
6.78
 21
0.7883333333333333
 31
0.0
100
AcDbText
  0
LINE
  5
4C
330
17
100
AcDbEntity
  8
G-ANNO-TTLB
100
AcDbLine
 10
9.8
 20
0.5
 30
0.0
 11
9.8
 21
1.45
 31
0.0
  0
TEXT
  5
4D
330
17
100
AcDbEntity
  8
G-ANNO-TTLB
100
AcDbText
 10
9.88
 20
1.28
 30
0.0
 40
0.06999999999999999
  1
SCALE
  7
KS-REG
 11
9.88
 21
1.28
 31
0.0
100
AcDbText
  0
TEXT
  5
4E
330
17
100
AcDbEntity
  8
G-ANNO-TTLB
100
AcDbText
 10
9.88
 20
0.9716666666666667
 30
0.0
 40
0.13
  1
1" =
  7
KS-BOLD
 11
9.88
 21
0.9716666666666667
 31
0.0
100
AcDbText
  0
TEXT
  5
4F
330
17
100
AcDbEntity
  8
G-ANNO-TTLB
100
AcDbText
 10
9.88
 20
0.7333333333333334
 30
0.0
 40
0.13
  1
40'-0"
  7
KS-BOLD
 11
9.88
 21
0.7333333333333334
 31
0.0
100
AcDbText
  0
LINE
  5
50
330
17
100
AcDbEntity
  8
G-ANNO-TTLB
100
AcDbLine
 10
10.700000000000001
 20
0.5
 30
0.0
 11
10.700000000000001
 21
1.45
 31
0.0
  0
TEXT
  5
51
330
17
100
AcDbEntity
  8
G-ANNO-TTLB
100
AcDbText
 10
10.780000000000001
 20
1.28
 30
0.0
 40
0.06999999999999999
  1
DATE
  7
KS-REG
 11
10.780000000000001
 21
1.28
 31
0.0
100
AcDbText
  0
TEXT
  5
52
330
17
100
AcDbEntity
  8
G-ANNO-TTLB
100
AcDbText
 10
10.780000000000001
 20
0.9716666666666667
 30
0.0
 40
0.13
  1
October
  7
KS-BOLD
 11
10.780000000000001
 21
0.9716666666666667
 31
0.0
100
AcDbText
  0
TEXT
  5
53
330
17
100
AcDbEntity
  8
G-ANNO-TTLB
100
AcDbText
 10
10.780000000000001
 20
0.7333333333333334
 30
0.0
 40
0.13
  1
2026
  7
KS-BOLD
 11
10.780000000000001
 21
0.7333333333333334
 31
0.0
100
AcDbText
  0
LINE
  5
54
330
17
100
AcDbEntity
  8
G-ANNO-TTLB
100
AcDbLine
 10
12.15
 20
0.5
 30
0.0
 11
12.15
 21
1.45
 31
0.0
  0
TEXT
  5
55
330
17
100
AcDbEntity
  8
G-ANNO-TTLB
100
AcDbText
 10
12.23
 20
1.28
 30
0.0
 40
0.06999999999999999
  1
REV
  7
KS-REG
 11
12.23
 21
1.28
 31
0.0
100
AcDbText
  0
TEXT
  5
56
330
17
100
AcDbEntity
  8
G-ANNO-TTLB
100
AcDbText
 10
12.23
 20
0.9716666666666667
 30
0.0
 40
0.13
  1
J
  7
KS-BOLD
 11
12.23
 21
0.9716666666666667
 31
0.0
100
AcDbText
  0
LINE
  5
57
330
17
100
AcDbEntity
  8
G-ANNO-TTLB
100
AcDbLine
 10
12.9
 20
0.5
 30
0.0
 11
12.9
 21
1.45
 31
0.0
  0
TEXT
  5
58
330
17
100
AcDbEntity
  8
G-ANNO-TTLB
100
AcDbText
 10
12.98
 20
1.28
 30
0.0
 40
0.06999999999999999
  1
DRAWN BY
  7
KS-REG
 11
12.98
 21
1.28
 31
0.0
100
AcDbText
  0
TEXT
  5
59
330
17
100
AcDbEntity
  8
G-ANNO-TTLB
100
AcDbText
 10
12.98
 20
1.0358333333333332
 30
0.0
 40
0.095
  1
Drawn by Claude (AI) for
  7
KS-REG
 11
12.98
 21
1.0358333333333332
 31
0.0
100
AcDbText
  0
TEXT
  5
5A
330
17
100
AcDbEntity
  8
G-ANNO-TTLB
100
AcDbText
 10
12.98
 20
0.8616666666666665
 30
0.0
 40
0.095
  1
Shane Brazelton
  7
KS-REG
 11
12.98
 21
0.8616666666666665
 31
0.0
100
AcDbText
  0
LINE
  5
5B
330
17
100
AcDbEntity
  8
G-ANNO-TTLB
100
AcDbLine
 10
15.0
 20
0.5
 30
0.0
 11
15.0
 21
1.45
 31
0.0
  0
TEXT
  5
5C
330
17
100
AcDbEntity
  8
G-ANNO-TTLB
100
AcDbText
 10
15.08
 20
1.28
 30
0.0
 40
0.06999999999999999
  1
SHEET
  7
KS-REG
 11
15.08
 21
1.28
 31
0.0
100
AcDbText
  0
TEXT
  5
5D
330
17
100
AcDbEntity
  8
G-ANNO-TTLB
100
AcDbText
 10
15.75
 20
0.77
 30
0.0
 40
0.18
  1
P2-A-101
  7
KS-BOLD
 72
1
 11
15.75
 21
0.77
 31
0.0
100
AcDbText
  0
LINE
  5
5E
330
17
100
AcDbEntity
  8
A-WALL-BLDG
100
AcDbLine
 10
1.12
 20
2.35
 30
0.0
 11
6.37
 21
2.35
 31
0.0
  0
LINE
  5
5F
330
17
100
AcDbEntity
  8
A-WALL-BLDG
100
AcDbLine
 10
6.37
 20
2.35
 30
0.0
 11
6.37
 21
5.375
 31
0.0
  0
LINE
  5
60
330
17
100
AcDbEntity
  8
A-WALL-BLDG
100
AcDbLine
 10
6.37
 20
5.575
 30
0.0
 11
6.37
 21
8.816675
 31
0.0
  0
LINE
  5
61
330
17
100
AcDbEntity
  8
A-WALL-BLDG
100
AcDbLine
 10
6.37
 20
8.816675
 30
0.0
 11
5.767925
 21
8.816675
 31
0.0
  0
LINE
  5
62
330
17
100
AcDbEntity
  8
A-WALL-BLDG
100
AcDbLine
 10
5.767925
 20
8.816675
 30
0.0
 11
5.767925
 21
8.65
 31
0.0
  0
LINE
  5
63
330
17
100
AcDbEntity
  8
A-WALL-BLDG
100
AcDbLine
 10
5.767925
 20
8.65
 30
0.0
 11
1.12
 21
8.65
 31
0.0
  0
LINE
  5
64
330
17
100
AcDbEntity
  8
A-WALL-BLDG
100
AcDbLine
 10
1.12
 20
8.65
 30
0.0
 11
1.12
 21
2.35
 31
0.0
  0
LINE
  5
65
330
17
100
AcDbEntity
  8
A-WALL-BLDG
100
AcDbLine
 10
2.42
 20
8.65
 30
0.0
 11
2.42
 21
9.4
 31
0.0
  0
LINE
  5
66
330
17
100
AcDbEntity
  8
A-WALL-BLDG
100
AcDbLine
 10
2.42
 20
9.4
 30
0.0
 11
4.17
 21
9.4
 31
0.0
  0
LINE
  5
67
330
17
100
AcDbEntity
  8
A-WALL-BLDG
100
AcDbLine
 10
4.17
 20
9.4
 30
0.0
 11
4.17
 21
8.65
 31
0.0
  0
LINE
  5
68
330
17
100
AcDbEntity
  8
A-WALL-BLDG
100
AcDbLine
 10
6.37
 20
5.32725
 30
0.0
 11
7.12
 21
5.32725
 31
0.0
  0
LINE
  5
69
330
17
100
AcDbEntity
  8
A-WALL-BLDG
100
AcDbLine
 10
7.12
 20
5.32725
 30
0.0
 11
7.12
 21
6.72725
 31
0.0
  0
LINE
  5
6A
330
17
100
AcDbEntity
  8
A-WALL-BLDG
100
AcDbLine
 10
7.12
 20
6.72725
 30
0.0
 11
6.37
 21
6.72725
 31
0.0
  0
LINE
  5
6B
330
17
100
AcDbEntity
  8
A-ANNO-DIMS
100
AcDbLine
 10
1.12
 20
2.125
 30
0.0
 11
6.37
 21
2.125
 31
0.0
  0
LINE
  5
6C
330
17
100
AcDbEntity
  8
A-ANNO-DIMS
100
AcDbLine
 10
1.12
 20
2.0625
 30
0.0
 11
1.12
 21
2.1875
 31
0.0
  0
LINE
  5
6D
330
17
100
AcDbEntity
  8
A-ANNO-DIMS
100
AcDbLine
 10
6.37
 20
2.0625
 30
0.0
 11
6.37
 21
2.1875
 31
0.0
  0
TEXT
  5
6E
330
17
100
AcDbEntity
  8
A-ANNO-DIMS
100
AcDbText
 10
3.745
 20
1.9849999999999999
 30
0.0
 40
0.056
  1
210'-0"  (210 x 252 + 24.08 x 6.67 NE tower + 70 x 30 annex + 30 x 56 bump-out = 56,861 SF footprint)
  7
KS-REG
 72
1
 11
3.745
 21
1.9849999999999999
 31
0.0
100
AcDbText
  0
LINE
  5
6F
330
17
100
AcDbEntity
  8
A-ANNO-DIMS
100
AcDbLine
 10
0.8950000000000001
 20
2.35
 30
0.0
 11
0.8950000000000001
 21
8.65
 31
0.0
  0
LINE
  5
70
330
17
100
AcDbEntity
  8
A-ANNO-DIMS
100
AcDbLine
 10
0.8325
 20
2.35
 30
0.0
 11
0.9575000000000001
 21
2.35
 31
0.0
  0
LINE
  5
71
330
17
100
AcDbEntity
  8
A-ANNO-DIMS
100
AcDbLine
 10
0.8325
 20
8.65
 30
0.0
 11
0.9575000000000001
 21
8.65
 31
0.0
  0
TEXT
  5
72
330
17
100
AcDbEntity
  8
A-ANNO-DIMS
100
AcDbText
 10
0.8350000000000002
 20
5.5
 30
0.0
 40
0.06999999999999999
  1
252'-0"
 50
90.0
  7
KS-REG
 72
1
 11
0.8350000000000002
 21
5.5
 31
0.0
100
AcDbText
  0
LWPOLYLINE
  5
73
330
17
100
AcDbEntity
  8
A-SEAT-FIXD
100
AcDbPolyline
 90
4
 70
1
 10
2.5200000000000005
 20
3.75
 10
5.82
 20
3.75
 10
5.82
 20
7.95
 10
2.5200000000000005
 20
7.95
  0
LWPOLYLINE
  5
74
330
17
100
AcDbEntity
  8
A-FLOR-MATS
100
AcDbPolyline
 90
4
 70
1
 10
2.5200000000000005
 20
4.050000000000001
 10
5.5200000000000005
 20
4.050000000000001
 10
5.5200000000000005
 20
7.65
 10
2.5200000000000005
 20
7.65
  0
LWPOLYLINE
  5
75
330
17
100
AcDbEntity
  8
A-SEAT-TELE
100
AcDbPolyline
 90
4
 70
1
 10
2.5200000000000005
 20
7.65
 10
5.82
 20
7.65
 10
5.82
 20
7.95
 10
2.5200000000000005
 20
7.95
  0
LINE
  5
76
330
17
100
AcDbEntity
  8
A-SEAT-TELE
100
AcDbLine
 10
2.5200000000000005
 20
7.800000000000001
 30
0.0
 11
4.2162500000000005
 21
7.800000000000001
 31
0.0
  0
LINE
  5
77
330
17
100
AcDbEntity
  8
A-SEAT-TELE
100
AcDbLine
 10
4.41625
 20
7.800000000000001
 30
0.0
 11
5.82
 21
7.800000000000001
 31
0.0
  0
LINE
  5
78
330
17
100
AcDbEntity
  8
A-SEAT-TELE
100
AcDbLine
 10
2.5200000000000005
 20
7.85
 30
0.0
 11
4.2162500000000005
 21
7.85
 31
0.0
  0
LINE
  5
79
330
17
100
AcDbEntity
  8
A-SEAT-TELE
100
AcDbLine
 10
4.41625
 20
7.85
 30
0.0
 11
5.82
 21
7.85
 31
0.0
  0
LINE
  5
7A
330
17
100
AcDbEntity
  8
A-SEAT-TELE
100
AcDbLine
 10
2.5200000000000005
 20
7.9
 30
0.0
 11
4.2162500000000005
 21
7.9
 31
0.0
  0
LINE
  5
7B
330
17
100
AcDbEntity
  8
A-SEAT-TELE
100
AcDbLine
 10
4.41625
 20
7.9
 30
0.0
 11
5.82
 21
7.9
 31
0.0
  0
TEXT
  5
7C
330
17
100
AcDbEntity
  8
A-AREA-IDEN
100
AcDbText
 10
2.5825000000000005
 20
7.675000000000001
 30
0.0
 40
0.052000000000000005
  1
LOWER (N) · TELESCOPIC · 359 SEATS
  7
KS-BOLD
 11
2.5825000000000005
 21
7.675000000000001
 31
0.0
100
AcDbText
  0
LWPOLYLINE
  5
7D
330
17
100
AcDbEntity
  8
A-SEAT-TELE
100
AcDbPolyline
 90
4
 70
1
 10
2.5200000000000005
 20
3.75
 10
5.82
 20
3.75
 10
5.82
 20
4.05
 10
2.5200000000000005
 20
4.05
  0
LINE
  5
7E
330
17
100
AcDbEntity
  8
A-SEAT-TELE
100
AcDbLine
 10
2.5200000000000005
 20
3.9000000000000004
 30
0.0
 11
3.7950000000000004
 21
3.9000000000000004
 31
0.0
  0
LINE
  5
7F
330
17
100
AcDbEntity
  8
A-SEAT-TELE
100
AcDbLine
 10
4.095000000000001
 20
3.9000000000000004
 30
0.0
 11
5.82
 21
3.9000000000000004
 31
0.0
  0
LINE
  5
80
330
17
100
AcDbEntity
  8
A-SEAT-TELE
100
AcDbLine
 10
2.5200000000000005
 20
3.85
 30
0.0
 11
3.7950000000000004
 21
3.85
 31
0.0
  0
LINE
  5
81
330
17
100
AcDbEntity
  8
A-SEAT-TELE
100
AcDbLine
 10
4.095000000000001
 20
3.85
 30
0.0
 11
5.82
 21
3.85
 31
0.0
  0
LINE
  5
82
330
17
100
AcDbEntity
  8
A-SEAT-TELE
100
AcDbLine
 10
2.5200000000000005
 20
3.8000000000000003
 30
0.0
 11
3.7950000000000004
 21
3.8000000000000003
 31
0.0
  0
LINE
  5
83
330
17
100
AcDbEntity
  8
A-SEAT-TELE
100
AcDbLine
 10
4.095000000000001
 20
3.8000000000000003
 30
0.0
 11
5.82
 21
3.8000000000000003
 31
0.0
  0
TEXT
  5
84
330
17
100
AcDbEntity
  8
A-AREA-IDEN
100
AcDbText
 10
4.17
 20
3.9250000000000003
 30
0.0
 40
0.052000000000000005
  1
LOWER (S) · TELESCOPIC · 347 SEATS
  7
KS-BOLD
 11
4.17
 21
3.9250000000000003
 31
0.0
100
AcDbText
  0
LWPOLYLINE
  5
85
330
17
100
AcDbEntity
  8
A-SEAT-TELE
100
AcDbPolyline
 90
4
 70
1
 10
5.5200000000000005
 20
4.050000000000001
 10
5.82
 20
4.050000000000001
 10
5.82
 20
7.65
 10
5.5200000000000005
 20
7.65
  0
LINE
  5
86
330
17
100
AcDbEntity
  8
A-SEAT-TELE
100
AcDbLine
 10
5.67
 20
4.050000000000001
 30
0.0
 11
5.67
 21
6.72725
 31
0.0
  0
LINE
  5
87
330
17
100
AcDbEntity
  8
A-SEAT-TELE
100
AcDbLine
 10
5.67
 20
6.927250000000001
 30
0.0
 11
5.67
 21
7.65
 31
0.0
  0
LINE
  5
88
330
17
100
AcDbEntity
  8
A-SEAT-TELE
100
AcDbLine
 10
5.720000000000001
 20
4.050000000000001
 30
0.0
 11
5.720000000000001
 21
6.72725
 31
0.0
  0
LINE
  5
89
330
17
100
AcDbEntity
  8
A-SEAT-TELE
100
AcDbLine
 10
5.720000000000001
 20
6.927250000000001
 30
0.0
 11
5.720000000000001
 21
7.65
 31
0.0
  0
LINE
  5
8A
330
17
100
AcDbEntity
  8
A-SEAT-TELE
100
AcDbLine
 10
5.7700000000000005
 20
4.050000000000001
 30
0.0
 11
5.7700000000000005
 21
6.72725
 31
0.0
  0
LINE
  5
8B
330
17
100
AcDbEntity
  8
A-SEAT-TELE
100
AcDbLine
 10
5.7700000000000005
 20
6.927250000000001
 30
0.0
 11
5.7700000000000005
 21
7.65
 31
0.0
  0
TEXT
  5
8C
330
17
100
AcDbEntity
  8
A-AREA-IDEN
100
AcDbText
 10
5.640000000000001
 20
5.300000000000001
 30
0.0
 40
0.052000000000000005
  1
LOWER (E) · TELESCOPIC · 394 SEATS
 50
90.0
  7
KS-BOLD
 72
1
 11
5.640000000000001
 21
5.300000000000001
 31
0.0
100
AcDbText
  0
LINE
  5
8D
330
17
100
AcDbEntity
  8
A-AREA-BLCK
100
AcDbLine
 10
3.7950000000000004
 20
3.75
 30
0.0
 11
3.8350000000000004
 21
3.75
 31
0.0
  0
LINE
  5
8E
330
17
100
AcDbEntity
  8
A-AREA-BLCK
100
AcDbLine
 10
3.865
 20
3.75
 30
0.0
 11
3.9050000000000002
 21
3.75
 31
0.0
  0
LINE
  5
8F
330
17
100
AcDbEntity
  8
A-AREA-BLCK
100
AcDbLine
 10
3.9350000000000005
 20
3.75
 30
0.0
 11
3.9750000000000005
 21
3.75
 31
0.0
  0
LINE
  5
90
330
17
100
AcDbEntity
  8
A-AREA-BLCK
100
AcDbLine
 10
4.005000000000001
 20
3.75
 30
0.0
 11
4.045
 21
3.75
 31
0.0
  0
LINE
  5
91
330
17
100
AcDbEntity
  8
A-AREA-BLCK
100
AcDbLine
 10
4.075
 20
3.75
 30
0.0
 11
4.095000000000001
 21
3.75
 31
0.0
  0
LINE
  5
92
330
17
100
AcDbEntity
  8
A-AREA-BLCK
100
AcDbLine
 10
4.095000000000001
 20
3.75
 30
0.0
 11
4.095000000000001
 21
3.79
 31
0.0
  0
LINE
  5
93
330
17
100
AcDbEntity
  8
A-AREA-BLCK
100
AcDbLine
 10
4.095000000000001
 20
3.82
 30
0.0
 11
4.095000000000001
 21
3.86
 31
0.0
  0
LINE
  5
94
330
17
100
AcDbEntity
  8
A-AREA-BLCK
100
AcDbLine
 10
4.095000000000001
 20
3.89
 30
0.0
 11
4.095000000000001
 21
3.93
 31
0.0
  0
LINE
  5
95
330
17
100
AcDbEntity
  8
A-AREA-BLCK
100
AcDbLine
 10
4.095000000000001
 20
3.96
 30
0.0
 11
4.095000000000001
 21
4.0
 31
0.0
  0
LINE
  5
96
330
17
100
AcDbEntity
  8
A-AREA-BLCK
100
AcDbLine
 10
4.095000000000001
 20
4.03
 30
0.0
 11
4.095000000000001
 21
4.050000000000001
 31
0.0
  0
LINE
  5
97
330
17
100
AcDbEntity
  8
A-AREA-BLCK
100
AcDbLine
 10
4.095000000000001
 20
4.050000000000001
 30
0.0
 11
4.055000000000001
 21
4.050000000000001
 31
0.0
  0
LINE
  5
98
330
17
100
AcDbEntity
  8
A-AREA-BLCK
100
AcDbLine
 10
4.025
 20
4.050000000000001
 30
0.0
 11
3.9850000000000008
 21
4.050000000000001
 31
0.0
  0
LINE
  5
99
330
17
100
AcDbEntity
  8
A-AREA-BLCK
100
AcDbLine
 10
3.9550000000000005
 20
4.050000000000001
 30
0.0
 11
3.9150000000000005
 21
4.050000000000001
 31
0.0
  0
LINE
  5
9A
330
17
100
AcDbEntity
  8
A-AREA-BLCK
100
AcDbLine
 10
3.8850000000000007
 20
4.050000000000001
 30
0.0
 11
3.8450000000000006
 21
4.050000000000001
 31
0.0
  0
LINE
  5
9B
330
17
100
AcDbEntity
  8
A-AREA-BLCK
100
AcDbLine
 10
3.8150000000000004
 20
4.050000000000001
 30
0.0
 11
3.7950000000000004
 21
4.050000000000001
 31
0.0
  0
LINE
  5
9C
330
17
100
AcDbEntity
  8
A-AREA-BLCK
100
AcDbLine
 10
3.7950000000000004
 20
4.050000000000001
 30
0.0
 11
3.7950000000000004
 21
4.010000000000001
 31
0.0
  0
LINE
  5
9D
330
17
100
AcDbEntity
  8
A-AREA-BLCK
100
AcDbLine
 10
3.7950000000000004
 20
3.980000000000001
 30
0.0
 11
3.7950000000000004
 21
3.940000000000001
 31
0.0
  0
LINE
  5
9E
330
17
100
AcDbEntity
  8
A-AREA-BLCK
100
AcDbLine
 10
3.7950000000000004
 20
3.9100000000000006
 30
0.0
 11
3.7950000000000004
 21
3.8700000000000006
 31
0.0
  0
LINE
  5
9F
330
17
100
AcDbEntity
  8
A-AREA-BLCK
100
AcDbLine
 10
3.7950000000000004
 20
3.8400000000000007
 30
0.0
 11
3.7950000000000004
 21
3.8000000000000007
 31
0.0
  0
LINE
  5
A0
330
17
100
AcDbEntity
  8
A-AREA-BLCK
100
AcDbLine
 10
3.7950000000000004
 20
3.7700000000000005
 30
0.0
 11
3.7950000000000004
 21
3.75
 31
0.0
  0
TEXT
  5
A1
330
17
100
AcDbEntity
  8
A-AREA-IDEN
100
AcDbText
 10
3.9450000000000003
 20
3.9000000000000004
 30
0.0
 40
0.048
  1
PORTAL
  7
KS-BOLD
 72
1
 11
3.9450000000000003
 21
3.9000000000000004
 31
0.0
100
AcDbText
  0
LINE
  5
A2
330
17
100
AcDbEntity
  8
A-AREA-BLCK
100
AcDbLine
 10
4.2162500000000005
 20
7.65
 30
0.0
 11
4.2562500000000005
 21
7.65
 31
0.0
  0
LINE
  5
A3
330
17
100
AcDbEntity
  8
A-AREA-BLCK
100
AcDbLine
 10
4.286250000000001
 20
7.65
 30
0.0
 11
4.326250000000001
 21
7.65
 31
0.0
  0
LINE
  5
A4
330
17
100
AcDbEntity
  8
A-AREA-BLCK
100
AcDbLine
 10
4.35625
 20
7.65
 30
0.0
 11
4.39625
 21
7.65
 31
0.0
  0
LINE
  5
A5
330
17
100
AcDbEntity
  8
A-AREA-BLCK
100
AcDbLine
 10
4.41625
 20
7.65
 30
0.0
 11
4.41625
 21
7.69
 31
0.0
  0
LINE
  5
A6
330
17
100
AcDbEntity
  8
A-AREA-BLCK
100
AcDbLine
 10
4.41625
 20
7.720000000000001
 30
0.0
 11
4.41625
 21
7.760000000000001
 31
0.0
  0
LINE
  5
A7
330
17
100
AcDbEntity
  8
A-AREA-BLCK
100
AcDbLine
 10
4.41625
 20
7.79
 30
0.0
 11
4.41625
 21
7.83
 31
0.0
  0
LINE
  5
A8
330
17
100
AcDbEntity
  8
A-AREA-BLCK
100
AcDbLine
 10
4.41625
 20
7.86
 30
0.0
 11
4.41625
 21
7.9
 31
0.0
  0
LINE
  5
A9
330
17
100
AcDbEntity
  8
A-AREA-BLCK
100
AcDbLine
 10
4.41625
 20
7.930000000000001
 30
0.0
 11
4.41625
 21
7.950000000000001
 31
0.0
  0
LINE
  5
AA
330
17
100
AcDbEntity
  8
A-AREA-BLCK
100
AcDbLine
 10
4.41625
 20
7.950000000000001
 30
0.0
 11
4.37625
 21
7.950000000000001
 31
0.0
  0
LINE
  5
AB
330
17
100
AcDbEntity
  8
A-AREA-BLCK
100
AcDbLine
 10
4.3462499999999995
 20
7.950000000000001
 30
0.0
 11
4.3062499999999995
 21
7.950000000000001
 31
0.0
  0
LINE
  5
AC
330
17
100
AcDbEntity
  8
A-AREA-BLCK
100
AcDbLine
 10
4.27625
 20
7.950000000000001
 30
0.0
 11
4.23625
 21
7.950000000000001
 31
0.0
  0
LINE
  5
AD
330
17
100
AcDbEntity
  8
A-AREA-BLCK
100
AcDbLine
 10
4.2162500000000005
 20
7.950000000000001
 30
0.0
 11
4.2162500000000005
 21
7.910000000000001
 31
0.0
  0
LINE
  5
AE
330
17
100
AcDbEntity
  8
A-AREA-BLCK
100
AcDbLine
 10
4.2162500000000005
 20
7.880000000000001
 30
0.0
 11
4.2162500000000005
 21
7.840000000000001
 31
0.0
  0
LINE
  5
AF
330
17
100
AcDbEntity
  8
A-AREA-BLCK
100
AcDbLine
 10
4.2162500000000005
 20
7.810000000000001
 30
0.0
 11
4.2162500000000005
 21
7.770000000000001
 31
0.0
  0
LINE
  5
B0
330
17
100
AcDbEntity
  8
A-AREA-BLCK
100
AcDbLine
 10
4.2162500000000005
 20
7.740000000000001
 30
0.0
 11
4.2162500000000005
 21
7.700000000000001
 31
0.0
  0
LINE
  5
B1
330
17
100
AcDbEntity
  8
A-AREA-BLCK
100
AcDbLine
 10
4.2162500000000005
 20
7.670000000000001
 30
0.0
 11
4.2162500000000005
 21
7.65
 31
0.0
  0
TEXT
  5
B2
330
17
100
AcDbEntity
  8
A-AREA-IDEN
100
AcDbText
 10
4.31625
 20
7.7700000000000005
 30
0.0
 40
0.05
  1
V1
  7
KS-BOLD
 72
1
 11
4.31625
 21
7.7700000000000005
 31
0.0
100
AcDbText
  0
LINE
  5
B3
330
17
100
AcDbEntity
  8
A-AREA-BLCK
100
AcDbLine
 10
5.5200000000000005
 20
6.72725
 30
0.0
 11
5.5600000000000005
 21
6.72725
 31
0.0
  0
LINE
  5
B4
330
17
100
AcDbEntity
  8
A-AREA-BLCK
100
AcDbLine
 10
5.590000000000001
 20
6.72725
 30
0.0
 11
5.630000000000001
 21
6.72725
 31
0.0
  0
LINE
  5
B5
330
17
100
AcDbEntity
  8
A-AREA-BLCK
100
AcDbLine
 10
5.66
 20
6.72725
 30
0.0
 11
5.7
 21
6.72725
 31
0.0
  0
LINE
  5
B6
330
17
100
AcDbEntity
  8
A-AREA-BLCK
100
AcDbLine
 10
5.73
 20
6.72725
 30
0.0
 11
5.7700000000000005
 21
6.72725
 31
0.0
  0
LINE
  5
B7
330
17
100
AcDbEntity
  8
A-AREA-BLCK
100
AcDbLine
 10
5.800000000000001
 20
6.72725
 30
0.0
 11
5.82
 21
6.72725
 31
0.0
  0
LINE
  5
B8
330
17
100
AcDbEntity
  8
A-AREA-BLCK
100
AcDbLine
 10
5.82
 20
6.72725
 30
0.0
 11
5.82
 21
6.76725
 31
0.0
  0
LINE
  5
B9
330
17
100
AcDbEntity
  8
A-AREA-BLCK
100
AcDbLine
 10
5.82
 20
6.79725
 30
0.0
 11
5.82
 21
6.83725
 31
0.0
  0
LINE
  5
BA
330
17
100
AcDbEntity
  8
A-AREA-BLCK
100
AcDbLine
 10
5.82
 20
6.867249999999999
 30
0.0
 11
5.82
 21
6.9072499999999994
 31
0.0
  0
LINE
  5
BB
330
17
100
AcDbEntity
  8
A-AREA-BLCK
100
AcDbLine
 10
5.82
 20
6.927250000000001
 30
0.0
 11
5.78
 21
6.927250000000001
 31
0.0
  0
LINE
  5
BC
330
17
100
AcDbEntity
  8
A-AREA-BLCK
100
AcDbLine
 10
5.75
 20
6.927250000000001
 30
0.0
 11
5.71
 21
6.927250000000001
 31
0.0
  0
LINE
  5
BD
330
17
100
AcDbEntity
  8
A-AREA-BLCK
100
AcDbLine
 10
5.680000000000001
 20
6.927250000000001
 30
0.0
 11
5.640000000000001
 21
6.927250000000001
 31
0.0
  0
LINE
  5
BE
330
17
100
AcDbEntity
  8
A-AREA-BLCK
100
AcDbLine
 10
5.61
 20
6.927250000000001
 30
0.0
 11
5.57
 21
6.927250000000001
 31
0.0
  0
LINE
  5
BF
330
17
100
AcDbEntity
  8
A-AREA-BLCK
100
AcDbLine
 10
5.54
 20
6.927250000000001
 30
0.0
 11
5.5200000000000005
 21
6.927250000000001
 31
0.0
  0
LINE
  5
C0
330
17
100
AcDbEntity
  8
A-AREA-BLCK
100
AcDbLine
 10
5.5200000000000005
 20
6.927250000000001
 30
0.0
 11
5.5200000000000005
 21
6.887250000000001
 31
0.0
  0
LINE
  5
C1
330
17
100
AcDbEntity
  8
A-AREA-BLCK
100
AcDbLine
 10
5.5200000000000005
 20
6.8572500000000005
 30
0.0
 11
5.5200000000000005
 21
6.8172500000000005
 31
0.0
  0
LINE
  5
C2
330
17
100
AcDbEntity
  8
A-AREA-BLCK
100
AcDbLine
 10
5.5200000000000005
 20
6.787250000000001
 30
0.0
 11
5.5200000000000005
 21
6.747250000000001
 31
0.0
  0
TEXT
  5
C3
330
17
100
AcDbEntity
  8
A-AREA-IDEN
100
AcDbText
 10
5.67
 20
6.797250000000001
 30
0.0
 40
0.05
  1
V2
  7
KS-BOLD
 72
1
 11
5.67
 21
6.797250000000001
 31
0.0
100
AcDbText
  0
LWPOLYLINE
  5
C4
330
17
100
AcDbEntity
  8
A-FLOR-MATS
100
AcDbPolyline
 90
4
 70
1
 10
2.7700000000000005
 20
5.975
 10
3.8200000000000003
 20
5.975
 10
3.8200000000000003
 20
7.0249999999999995
 10
2.7700000000000005
 20
7.0249999999999995
  0
TEXT
  5
C5
330
17
100
AcDbEntity
  8
A-AREA-IDEN
100
AcDbText
 10
2.8200000000000003
 20
6.8725000000000005
 30
0.0
 40
0.062
  1
M1
  7
KS-BOLD
 11
2.8200000000000003
 21
6.8725000000000005
 31
0.0
100
AcDbText
  0
LWPOLYLINE
  5
C6
330
17
100
AcDbEntity
  8
A-FLOR-MATS
100
AcDbPolyline
 90
4
 70
1
 10
4.07
 20
5.975
 10
5.12
 20
5.975
 10
5.12
 20
7.0249999999999995
 10
4.07
 20
7.0249999999999995
  0
TEXT
  5
C7
330
17
100
AcDbEntity
  8
A-AREA-IDEN
100
AcDbText
 10
5.07
 20
6.8725000000000005
 30
0.0
 40
0.062
  1
M2
  7
KS-BOLD
 72
2
 11
5.07
 21
6.8725000000000005
 31
0.0
100
AcDbText
  0
LWPOLYLINE
  5
C8
330
17
100
AcDbEntity
  8
A-FLOR-MATS
100
AcDbPolyline
 90
4
 70
1
 10
2.7700000000000005
 20
4.675000000000001
 10
3.8200000000000003
 20
4.675000000000001
 10
3.8200000000000003
 20
5.7250000000000005
 10
2.7700000000000005
 20
5.7250000000000005
  0
TEXT
  5
C9
330
17
100
AcDbEntity
  8
A-AREA-IDEN
100
AcDbText
 10
2.8200000000000003
 20
5.5725
 30
0.0
 40
0.062
  1
M3
  7
KS-BOLD
 11
2.8200000000000003
 21
5.5725
 31
0.0
100
AcDbText
  0
LWPOLYLINE
  5
CA
330
17
100
AcDbEntity
  8
A-FLOR-MATS
100
AcDbPolyline
 90
4
 70
1
 10
4.07
 20
4.675000000000001
 10
5.12
 20
4.675000000000001
 10
5.12
 20
5.7250000000000005
 10
4.07
 20
5.7250000000000005
  0
TEXT
  5
CB
330
17
100
AcDbEntity
  8
A-AREA-IDEN
100
AcDbText
 10
5.07
 20
5.5725
 30
0.0
 40
0.062
  1
M4
  7
KS-BOLD
 72
2
 11
5.07
 21
5.5725
 31
0.0
100
AcDbText
  0
LINE
  5
CC
330
17
100
AcDbEntity
  8
A-FLOR-CORT
100
AcDbLine
 10
3.3200000000000003
 20
4.800000000000001
 30
0.0
 11
3.39
 21
4.800000000000001
 31
0.0
  0
LINE
  5
CD
330
17
100
AcDbEntity
  8
A-FLOR-CORT
100
AcDbLine
 10
3.43
 20
4.800000000000001
 30
0.0
 11
3.5000000000000004
 21
4.800000000000001
 31
0.0
  0
LINE
  5
CE
330
17
100
AcDbEntity
  8
A-FLOR-CORT
100
AcDbLine
 10
3.5400000000000005
 20
4.800000000000001
 30
0.0
 11
3.6100000000000003
 21
4.800000000000001
 31
0.0
  0
LINE
  5
CF
330
17
100
AcDbEntity
  8
A-FLOR-CORT
100
AcDbLine
 10
3.6500000000000004
 20
4.800000000000001
 30
0.0
 11
3.72
 21
4.800000000000001
 31
0.0
  0
LINE
  5
D0
330
17
100
AcDbEntity
  8
A-FLOR-CORT
100
AcDbLine
 10
3.7600000000000002
 20
4.800000000000001
 30
0.0
 11
3.83
 21
4.800000000000001
 31
0.0
  0
LINE
  5
D1
330
17
100
AcDbEntity
  8
A-FLOR-CORT
100
AcDbLine
 10
3.87
 20
4.800000000000001
 30
0.0
 11
3.9400000000000004
 21
4.800000000000001
 31
0.0
  0
LINE
  5
D2
330
17
100
AcDbEntity
  8
A-FLOR-CORT
100
AcDbLine
 10
3.9800000000000004
 20
4.800000000000001
 30
0.0
 11
4.050000000000001
 21
4.800000000000001
 31
0.0
  0
LINE
  5
D3
330
17
100
AcDbEntity
  8
A-FLOR-CORT
100
AcDbLine
 10
4.090000000000001
 20
4.800000000000001
 30
0.0
 11
4.16
 21
4.800000000000001
 31
0.0
  0
LINE
  5
D4
330
17
100
AcDbEntity
  8
A-FLOR-CORT
100
AcDbLine
 10
4.200000000000001
 20
4.800000000000001
 30
0.0
 11
4.2700000000000005
 21
4.800000000000001
 31
0.0
  0
LINE
  5
D5
330
17
100
AcDbEntity
  8
A-FLOR-CORT
100
AcDbLine
 10
4.3100000000000005
 20
4.800000000000001
 30
0.0
 11
4.380000000000001
 21
4.800000000000001
 31
0.0
  0
LINE
  5
D6
330
17
100
AcDbEntity
  8
A-FLOR-CORT
100
AcDbLine
 10
4.420000000000001
 20
4.800000000000001
 30
0.0
 11
4.490000000000001
 21
4.800000000000001
 31
0.0
  0
LINE
  5
D7
330
17
100
AcDbEntity
  8
A-FLOR-CORT
100
AcDbLine
 10
4.530000000000001
 20
4.800000000000001
 30
0.0
 11
4.57
 21
4.800000000000001
 31
0.0
  0
LINE
  5
D8
330
17
100
AcDbEntity
  8
A-FLOR-CORT
100
AcDbLine
 10
4.57
 20
4.800000000000001
 30
0.0
 11
4.57
 21
4.870000000000001
 31
0.0
  0
LINE
  5
D9
330
17
100
AcDbEntity
  8
A-FLOR-CORT
100
AcDbLine
 10
4.57
 20
4.910000000000001
 30
0.0
 11
4.57
 21
4.98
 31
0.0
  0
LINE
  5
DA
330
17
100
AcDbEntity
  8
A-FLOR-CORT
100
AcDbLine
 10
4.57
 20
5.0200000000000005
 30
0.0
 11
4.57
 21
5.090000000000001
 31
0.0
  0
LINE
  5
DB
330
17
100
AcDbEntity
  8
A-FLOR-CORT
100
AcDbLine
 10
4.57
 20
5.130000000000001
 30
0.0
 11
4.57
 21
5.200000000000001
 31
0.0
  0
LINE
  5
DC
330
17
100
AcDbEntity
  8
A-FLOR-CORT
100
AcDbLine
 10
4.57
 20
5.240000000000001
 30
0.0
 11
4.57
 21
5.3100000000000005
 31
0.0
  0
LINE
  5
DD
330
17
100
AcDbEntity
  8
A-FLOR-CORT
100
AcDbLine
 10
4.57
 20
5.3500000000000005
 30
0.0
 11
4.57
 21
5.420000000000001
 31
0.0
  0
LINE
  5
DE
330
17
100
AcDbEntity
  8
A-FLOR-CORT
100
AcDbLine
 10
4.57
 20
5.460000000000001
 30
0.0
 11
4.57
 21
5.530000000000001
 31
0.0
  0
LINE
  5
DF
330
17
100
AcDbEntity
  8
A-FLOR-CORT
100
AcDbLine
 10
4.57
 20
5.570000000000001
 30
0.0
 11
4.57
 21
5.640000000000001
 31
0.0
  0
LINE
  5
E0
330
17
100
AcDbEntity
  8
A-FLOR-CORT
100
AcDbLine
 10
4.57
 20
5.6800000000000015
 30
0.0
 11
4.57
 21
5.750000000000001
 31
0.0
  0
LINE
  5
E1
330
17
100
AcDbEntity
  8
A-FLOR-CORT
100
AcDbLine
 10
4.57
 20
5.790000000000001
 30
0.0
 11
4.57
 21
5.860000000000001
 31
0.0
  0
LINE
  5
E2
330
17
100
AcDbEntity
  8
A-FLOR-CORT
100
AcDbLine
 10
4.57
 20
5.900000000000001
 30
0.0
 11
4.57
 21
5.9700000000000015
 31
0.0
  0
LINE
  5
E3
330
17
100
AcDbEntity
  8
A-FLOR-CORT
100
AcDbLine
 10
4.57
 20
6.010000000000002
 30
0.0
 11
4.57
 21
6.080000000000002
 31
0.0
  0
LINE
  5
E4
330
17
100
AcDbEntity
  8
A-FLOR-CORT
100
AcDbLine
 10
4.57
 20
6.120000000000001
 30
0.0
 11
4.57
 21
6.190000000000001
 31
0.0
  0
LINE
  5
E5
330
17
100
AcDbEntity
  8
A-FLOR-CORT
100
AcDbLine
 10
4.57
 20
6.230000000000001
 30
0.0
 11
4.57
 21
6.300000000000002
 31
0.0
  0
LINE
  5
E6
330
17
100
AcDbEntity
  8
A-FLOR-CORT
100
AcDbLine
 10
4.57
 20
6.340000000000002
 30
0.0
 11
4.57
 21
6.410000000000002
 31
0.0
  0
LINE
  5
E7
330
17
100
AcDbEntity
  8
A-FLOR-CORT
100
AcDbLine
 10
4.57
 20
6.450000000000002
 30
0.0
 11
4.57
 21
6.520000000000001
 31
0.0
  0
LINE
  5
E8
330
17
100
AcDbEntity
  8
A-FLOR-CORT
100
AcDbLine
 10
4.57
 20
6.560000000000002
 30
0.0
 11
4.57
 21
6.630000000000002
 31
0.0
  0
LINE
  5
E9
330
17
100
AcDbEntity
  8
A-FLOR-CORT
100
AcDbLine
 10
4.57
 20
6.670000000000002
 30
0.0
 11
4.57
 21
6.740000000000002
 31
0.0
  0
LINE
  5
EA
330
17
100
AcDbEntity
  8
A-FLOR-CORT
100
AcDbLine
 10
4.57
 20
6.780000000000002
 30
0.0
 11
4.57
 21
6.850000000000001
 31
0.0
  0
LINE
  5
EB
330
17
100
AcDbEntity
  8
A-FLOR-CORT
100
AcDbLine
 10
4.57
 20
6.890000000000002
 30
0.0
 11
4.57
 21
6.9
 31
0.0
  0
LINE
  5
EC
330
17
100
AcDbEntity
  8
A-FLOR-CORT
100
AcDbLine
 10
4.57
 20
6.9
 30
0.0
 11
4.5
 21
6.9
 31
0.0
  0
LINE
  5
ED
330
17
100
AcDbEntity
  8
A-FLOR-CORT
100
AcDbLine
 10
4.46
 20
6.9
 30
0.0
 11
4.390000000000001
 21
6.9
 31
0.0
  0
LINE
  5
EE
330
17
100
AcDbEntity
  8
A-FLOR-CORT
100
AcDbLine
 10
4.3500000000000005
 20
6.9
 30
0.0
 11
4.28
 21
6.9
 31
0.0
  0
LINE
  5
EF
330
17
100
AcDbEntity
  8
A-FLOR-CORT
100
AcDbLine
 10
4.24
 20
6.9
 30
0.0
 11
4.17
 21
6.9
 31
0.0
  0
LINE
  5
F0
330
17
100
AcDbEntity
  8
A-FLOR-CORT
100
AcDbLine
 10
4.13
 20
6.9
 30
0.0
 11
4.0600000000000005
 21
6.9
 31
0.0
  0
LINE
  5
F1
330
17
100
AcDbEntity
  8
A-FLOR-CORT
100
AcDbLine
 10
4.0200000000000005
 20
6.9
 30
0.0
 11
3.95
 21
6.9
 31
0.0
  0
LINE
  5
F2
330
17
100
AcDbEntity
  8
A-FLOR-CORT
100
AcDbLine
 10
3.91
 20
6.9
 30
0.0
 11
3.84
 21
6.9
 31
0.0
  0
LINE
  5
F3
330
17
100
AcDbEntity
  8
A-FLOR-CORT
100
AcDbLine
 10
3.8
 20
6.9
 30
0.0
 11
3.73
 21
6.9
 31
0.0
  0
LINE
  5
F4
330
17
100
AcDbEntity
  8
A-FLOR-CORT
100
AcDbLine
 10
3.69
 20
6.9
 30
0.0
 11
3.62
 21
6.9
 31
0.0
  0
LINE
  5
F5
330
17
100
AcDbEntity
  8
A-FLOR-CORT
100
AcDbLine
 10
3.58
 20
6.9
 30
0.0
 11
3.51
 21
6.9
 31
0.0
  0
LINE
  5
F6
330
17
100
AcDbEntity
  8
A-FLOR-CORT
100
AcDbLine
 10
3.4699999999999998
 20
6.9
 30
0.0
 11
3.3999999999999995
 21
6.9
 31
0.0
  0
LINE
  5
F7
330
17
100
AcDbEntity
  8
A-FLOR-CORT
100
AcDbLine
 10
3.3599999999999994
 20
6.9
 30
0.0
 11
3.3200000000000003
 21
6.9
 31
0.0
  0
LINE
  5
F8
330
17
100
AcDbEntity
  8
A-FLOR-CORT
100
AcDbLine
 10
3.3200000000000003
 20
6.9
 30
0.0
 11
3.3200000000000003
 21
6.83
 31
0.0
  0
LINE
  5
F9
330
17
100
AcDbEntity
  8
A-FLOR-CORT
100
AcDbLine
 10
3.3200000000000003
 20
6.79
 30
0.0
 11
3.3200000000000003
 21
6.720000000000001
 31
0.0
  0
LINE
  5
FA
330
17
100
AcDbEntity
  8
A-FLOR-CORT
100
AcDbLine
 10
3.3200000000000003
 20
6.680000000000001
 30
0.0
 11
3.3200000000000003
 21
6.61
 31
0.0
  0
LINE
  5
FB
330
17
100
AcDbEntity
  8
A-FLOR-CORT
100
AcDbLine
 10
3.3200000000000003
 20
6.57
 30
0.0
 11
3.3200000000000003
 21
6.5
 31
0.0
  0
LINE
  5
FC
330
17
100
AcDbEntity
  8
A-FLOR-CORT
100
AcDbLine
 10
3.3200000000000003
 20
6.46
 30
0.0
 11
3.3200000000000003
 21
6.390000000000001
 31
0.0
  0
LINE
  5
FD
330
17
100
AcDbEntity
  8
A-FLOR-CORT
100
AcDbLine
 10
3.3200000000000003
 20
6.3500000000000005
 30
0.0
 11
3.3200000000000003
 21
6.28
 31
0.0
  0
LINE
  5
FE
330
17
100
AcDbEntity
  8
A-FLOR-CORT
100
AcDbLine
 10
3.3200000000000003
 20
6.24
 30
0.0
 11
3.3200000000000003
 21
6.17
 31
0.0
  0
LINE
  5
FF
330
17
100
AcDbEntity
  8
A-FLOR-CORT
100
AcDbLine
 10
3.3200000000000003
 20
6.13
 30
0.0
 11
3.3200000000000003
 21
6.0600000000000005
 31
0.0
  0
LINE
  5
100
330
17
100
AcDbEntity
  8
A-FLOR-CORT
100
AcDbLine
 10
3.3200000000000003
 20
6.02
 30
0.0
 11
3.3200000000000003
 21
5.95
 31
0.0
  0
LINE
  5
101
330
17
100
AcDbEntity
  8
A-FLOR-CORT
100
AcDbLine
 10
3.3200000000000003
 20
5.91
 30
0.0
 11
3.3200000000000003
 21
5.84
 31
0.0
  0
LINE
  5
102
330
17
100
AcDbEntity
  8
A-FLOR-CORT
100
AcDbLine
 10
3.3200000000000003
 20
5.8
 30
0.0
 11
3.3200000000000003
 21
5.7299999999999995
 31
0.0
  0
LINE
  5
103
330
17
100
AcDbEntity
  8
A-FLOR-CORT
100
AcDbLine
 10
3.3200000000000003
 20
5.6899999999999995
 30
0.0
 11
3.3200000000000003
 21
5.619999999999999
 31
0.0
  0
LINE
  5
104
330
17
100
AcDbEntity
  8
A-FLOR-CORT
100
AcDbLine
 10
3.3200000000000003
 20
5.58
 30
0.0
 11
3.3200000000000003
 21
5.51
 31
0.0
  0
LINE
  5
105
330
17
100
AcDbEntity
  8
A-FLOR-CORT
100
AcDbLine
 10
3.3200000000000003
 20
5.47
 30
0.0
 11
3.3200000000000003
 21
5.3999999999999995
 31
0.0
  0
LINE
  5
106
330
17
100
AcDbEntity
  8
A-FLOR-CORT
100
AcDbLine
 10
3.3200000000000003
 20
5.359999999999999
 30
0.0
 11
3.3200000000000003
 21
5.289999999999999
 31
0.0
  0
LINE
  5
107
330
17
100
AcDbEntity
  8
A-FLOR-CORT
100
AcDbLine
 10
3.3200000000000003
 20
5.249999999999999
 30
0.0
 11
3.3200000000000003
 21
5.18
 31
0.0
  0
LINE
  5
108
330
17
100
AcDbEntity
  8
A-FLOR-CORT
100
AcDbLine
 10
3.3200000000000003
 20
5.139999999999999
 30
0.0
 11
3.3200000000000003
 21
5.069999999999999
 31
0.0
  0
LINE
  5
109
330
17
100
AcDbEntity
  8
A-FLOR-CORT
100
AcDbLine
 10
3.3200000000000003
 20
5.029999999999999
 30
0.0
 11
3.3200000000000003
 21
4.959999999999999
 31
0.0
  0
LINE
  5
10A
330
17
100
AcDbEntity
  8
A-FLOR-CORT
100
AcDbLine
 10
3.3200000000000003
 20
4.919999999999999
 30
0.0
 11
3.3200000000000003
 21
4.85
 31
0.0
  0
LINE
  5
10B
330
17
100
AcDbEntity
  8
A-FLOR-CORT
100
AcDbLine
 10
3.3200000000000003
 20
4.809999999999999
 30
0.0
 11
3.3200000000000003
 21
4.800000000000001
 31
0.0
  0
LINE
  5
10C
330
17
100
AcDbEntity
  8
A-FLOR-CORT
100
AcDbLine
 10
3.0700000000000003
 20
4.550000000000001
 30
0.0
 11
3.1
 21
4.550000000000001
 31
0.0
  0
LINE
  5
10D
330
17
100
AcDbEntity
  8
A-FLOR-CORT
100
AcDbLine
 10
3.14
 20
4.550000000000001
 30
0.0
 11
3.1700000000000004
 21
4.550000000000001
 31
0.0
  0
LINE
  5
10E
330
17
100
AcDbEntity
  8
A-FLOR-CORT
100
AcDbLine
 10
3.2100000000000004
 20
4.550000000000001
 30
0.0
 11
3.24
 21
4.550000000000001
 31
0.0
  0
LINE
  5
10F
330
17
100
AcDbEntity
  8
A-FLOR-CORT
100
AcDbLine
 10
3.2800000000000002
 20
4.550000000000001
 30
0.0
 11
3.3100000000000005
 21
4.550000000000001
 31
0.0
  0
LINE
  5
110
330
17
100
AcDbEntity
  8
A-FLOR-CORT
100
AcDbLine
 10
3.3500000000000005
 20
4.550000000000001
 30
0.0
 11
3.3800000000000003
 21
4.550000000000001
 31
0.0
  0
LINE
  5
111
330
17
100
AcDbEntity
  8
A-FLOR-CORT
100
AcDbLine
 10
3.4200000000000004
 20
4.550000000000001
 30
0.0
 11
3.45
 21
4.550000000000001
 31
0.0
  0
LINE
  5
112
330
17
100
AcDbEntity
  8
A-FLOR-CORT
100
AcDbLine
 10
3.49
 20
4.550000000000001
 30
0.0
 11
3.5200000000000005
 21
4.550000000000001
 31
0.0
  0
LINE
  5
113
330
17
100
AcDbEntity
  8
A-FLOR-CORT
100
AcDbLine
 10
3.56
 20
4.550000000000001
 30
0.0
 11
3.5900000000000003
 21
4.550000000000001
 31
0.0
  0
LINE
  5
114
330
17
100
AcDbEntity
  8
A-FLOR-CORT
100
AcDbLine
 10
3.6300000000000003
 20
4.550000000000001
 30
0.0
 11
3.66
 21
4.550000000000001
 31
0.0
  0
LINE
  5
115
330
17
100
AcDbEntity
  8
A-FLOR-CORT
100
AcDbLine
 10
3.7
 20
4.550000000000001
 30
0.0
 11
3.7300000000000004
 21
4.550000000000001
 31
0.0
  0
LINE
  5
116
330
17
100
AcDbEntity
  8
A-FLOR-CORT
100
AcDbLine
 10
3.7700000000000005
 20
4.550000000000001
 30
0.0
 11
3.8000000000000003
 21
4.550000000000001
 31
0.0
  0
LINE
  5
117
330
17
100
AcDbEntity
  8
A-FLOR-CORT
100
AcDbLine
 10
3.8400000000000003
 20
4.550000000000001
 30
0.0
 11
3.8700000000000006
 21
4.550000000000001
 31
0.0
  0
LINE
  5
118
330
17
100
AcDbEntity
  8
A-FLOR-CORT
100
AcDbLine
 10
3.9100000000000006
 20
4.550000000000001
 30
0.0
 11
3.9400000000000004
 21
4.550000000000001
 31
0.0
  0
LINE
  5
119
330
17
100
AcDbEntity
  8
A-FLOR-CORT
100
AcDbLine
 10
3.9800000000000004
 20
4.550000000000001
 30
0.0
 11
4.010000000000001
 21
4.550000000000001
 31
0.0
  0
LINE
  5
11A
330
17
100
AcDbEntity
  8
A-FLOR-CORT
100
AcDbLine
 10
4.050000000000001
 20
4.550000000000001
 30
0.0
 11
4.08
 21
4.550000000000001
 31
0.0
  0
LINE
  5
11B
330
17
100
AcDbEntity
  8
A-FLOR-CORT
100
AcDbLine
 10
4.120000000000001
 20
4.550000000000001
 30
0.0
 11
4.15
 21
4.550000000000001
 31
0.0
  0
LINE
  5
11C
330
17
100
AcDbEntity
  8
A-FLOR-CORT
100
AcDbLine
 10
4.19
 20
4.550000000000001
 30
0.0
 11
4.220000000000001
 21
4.550000000000001
 31
0.0
  0
LINE
  5
11D
330
17
100
AcDbEntity
  8
A-FLOR-CORT
100
AcDbLine
 10
4.260000000000001
 20
4.550000000000001
 30
0.0
 11
4.290000000000001
 21
4.550000000000001
 31
0.0
  0
LINE
  5
11E
330
17
100
AcDbEntity
  8
A-FLOR-CORT
100
AcDbLine
 10
4.330000000000001
 20
4.550000000000001
 30
0.0
 11
4.360000000000001
 21
4.550000000000001
 31
0.0
  0
LINE
  5
11F
330
17
100
AcDbEntity
  8
A-FLOR-CORT
100
AcDbLine
 10
4.4
 20
4.550000000000001
 30
0.0
 11
4.430000000000001
 21
4.550000000000001
 31
0.0
  0
LINE
  5
120
330
17
100
AcDbEntity
  8
A-FLOR-CORT
100
AcDbLine
 10
4.470000000000001
 20
4.550000000000001
 30
0.0
 11
4.500000000000001
 21
4.550000000000001
 31
0.0
  0
LINE
  5
121
330
17
100
AcDbEntity
  8
A-FLOR-CORT
100
AcDbLine
 10
4.540000000000001
 20
4.550000000000001
 30
0.0
 11
4.570000000000001
 21
4.550000000000001
 31
0.0
  0
LINE
  5
122
330
17
100
AcDbEntity
  8
A-FLOR-CORT
100
AcDbLine
 10
4.610000000000001
 20
4.550000000000001
 30
0.0
 11
4.640000000000001
 21
4.550000000000001
 31
0.0
  0
LINE
  5
123
330
17
100
AcDbEntity
  8
A-FLOR-CORT
100
AcDbLine
 10
4.6800000000000015
 20
4.550000000000001
 30
0.0
 11
4.710000000000001
 21
4.550000000000001
 31
0.0
  0
LINE
  5
124
330
17
100
AcDbEntity
  8
A-FLOR-CORT
100
AcDbLine
 10
4.750000000000001
 20
4.550000000000001
 30
0.0
 11
4.780000000000001
 21
4.550000000000001
 31
0.0
  0
LINE
  5
125
330
17
100
AcDbEntity
  8
A-FLOR-CORT
100
AcDbLine
 10
4.82
 20
4.550000000000001
 30
0.0
 11
4.82
 21
4.580000000000001
 31
0.0
  0
LINE
  5
126
330
17
100
AcDbEntity
  8
A-FLOR-CORT
100
AcDbLine
 10
4.82
 20
4.620000000000001
 30
0.0
 11
4.82
 21
4.65
 31
0.0
  0
LINE
  5
127
330
17
100
AcDbEntity
  8
A-FLOR-CORT
100
AcDbLine
 10
4.82
 20
4.69
 30
0.0
 11
4.82
 21
4.720000000000001
 31
0.0
  0
LINE
  5
128
330
17
100
AcDbEntity
  8
A-FLOR-CORT
100
AcDbLine
 10
4.82
 20
4.760000000000001
 30
0.0
 11
4.82
 21
4.790000000000001
 31
0.0
  0
LINE
  5
129
330
17
100
AcDbEntity
  8
A-FLOR-CORT
100
AcDbLine
 10
4.82
 20
4.830000000000001
 30
0.0
 11
4.82
 21
4.860000000000001
 31
0.0
  0
LINE
  5
12A
330
17
100
AcDbEntity
  8
A-FLOR-CORT
100
AcDbLine
 10
4.82
 20
4.9
 30
0.0
 11
4.82
 21
4.930000000000001
 31
0.0
  0
LINE
  5
12B
330
17
100
AcDbEntity
  8
A-FLOR-CORT
100
AcDbLine
 10
4.82
 20
4.970000000000001
 30
0.0
 11
4.82
 21
5.000000000000001
 31
0.0
  0
LINE
  5
12C
330
17
100
AcDbEntity
  8
A-FLOR-CORT
100
AcDbLine
 10
4.82
 20
5.040000000000001
 30
0.0
 11
4.82
 21
5.07
 31
0.0
  0
LINE
  5
12D
330
17
100
AcDbEntity
  8
A-FLOR-CORT
100
AcDbLine
 10
4.82
 20
5.11
 30
0.0
 11
4.82
 21
5.140000000000001
 31
0.0
  0
LINE
  5
12E
330
17
100
AcDbEntity
  8
A-FLOR-CORT
100
AcDbLine
 10
4.82
 20
5.180000000000001
 30
0.0
 11
4.82
 21
5.210000000000001
 31
0.0
  0
LINE
  5
12F
330
17
100
AcDbEntity
  8
A-FLOR-CORT
100
AcDbLine
 10
4.82
 20
5.250000000000001
 30
0.0
 11
4.82
 21
5.280000000000001
 31
0.0
  0
LINE
  5
130
330
17
100
AcDbEntity
  8
A-FLOR-CORT
100
AcDbLine
 10
4.82
 20
5.320000000000001
 30
0.0
 11
4.82
 21
5.3500000000000005
 31
0.0
  0
LINE
  5
131
330
17
100
AcDbEntity
  8
A-FLOR-CORT
100
AcDbLine
 10
4.82
 20
5.390000000000001
 30
0.0
 11
4.82
 21
5.420000000000001
 31
0.0
  0
LINE
  5
132
330
17
100
AcDbEntity
  8
A-FLOR-CORT
100
AcDbLine
 10
4.82
 20
5.460000000000001
 30
0.0
 11
4.82
 21
5.490000000000001
 31
0.0
  0
LINE
  5
133
330
17
100
AcDbEntity
  8
A-FLOR-CORT
100
AcDbLine
 10
4.82
 20
5.530000000000001
 30
0.0
 11
4.82
 21
5.5600000000000005
 31
0.0
  0
LINE
  5
134
330
17
100
AcDbEntity
  8
A-FLOR-CORT
100
AcDbLine
 10
4.82
 20
5.600000000000001
 30
0.0
 11
4.82
 21
5.630000000000001
 31
0.0
  0
LINE
  5
135
330
17
100
AcDbEntity
  8
A-FLOR-CORT
100
AcDbLine
 10
4.82
 20
5.670000000000001
 30
0.0
 11
4.82
 21
5.700000000000001
 31
0.0
  0
LINE
  5
136
330
17
100
AcDbEntity
  8
A-FLOR-CORT
100
AcDbLine
 10
4.82
 20
5.740000000000001
 30
0.0
 11
4.82
 21
5.770000000000001
 31
0.0
  0
LINE
  5
137
330
17
100
AcDbEntity
  8
A-FLOR-CORT
100
AcDbLine
 10
4.82
 20
5.810000000000001
 30
0.0
 11
4.82
 21
5.840000000000002
 31
0.0
  0
LINE
  5
138
330
17
100
AcDbEntity
  8
A-FLOR-CORT
100
AcDbLine
 10
4.82
 20
5.880000000000001
 30
0.0
 11
4.82
 21
5.910000000000001
 31
0.0
  0
LINE
  5
139
330
17
100
AcDbEntity
  8
A-FLOR-CORT
100
AcDbLine
 10
4.82
 20
5.950000000000001
 30
0.0
 11
4.82
 21
5.980000000000001
 31
0.0
  0
LINE
  5
13A
330
17
100
AcDbEntity
  8
A-FLOR-CORT
100
AcDbLine
 10
4.82
 20
6.020000000000001
 30
0.0
 11
4.82
 21
6.050000000000002
 31
0.0
  0
LINE
  5
13B
330
17
100
AcDbEntity
  8
A-FLOR-CORT
100
AcDbLine
 10
4.82
 20
6.090000000000002
 30
0.0
 11
4.82
 21
6.120000000000001
 31
0.0
  0
LINE
  5
13C
330
17
100
AcDbEntity
  8
A-FLOR-CORT
100
AcDbLine
 10
4.82
 20
6.160000000000002
 30
0.0
 11
4.82
 21
6.190000000000001
 31
0.0
  0
LINE
  5
13D
330
17
100
AcDbEntity
  8
A-FLOR-CORT
100
AcDbLine
 10
4.82
 20
6.230000000000001
 30
0.0
 11
4.82
 21
6.260000000000002
 31
0.0
  0
LINE
  5
13E
330
17
100
AcDbEntity
  8
A-FLOR-CORT
100
AcDbLine
 10
4.82
 20
6.300000000000002
 30
0.0
 11
4.82
 21
6.330000000000002
 31
0.0
  0
LINE
  5
13F
330
17
100
AcDbEntity
  8
A-FLOR-CORT
100
AcDbLine
 10
4.82
 20
6.370000000000002
 30
0.0
 11
4.82
 21
6.400000000000002
 31
0.0
  0
LINE
  5
140
330
17
100
AcDbEntity
  8
A-FLOR-CORT
100
AcDbLine
 10
4.82
 20
6.440000000000001
 30
0.0
 11
4.82
 21
6.4700000000000015
 31
0.0
  0
LINE
  5
141
330
17
100
AcDbEntity
  8
A-FLOR-CORT
100
AcDbLine
 10
4.82
 20
6.510000000000002
 30
0.0
 11
4.82
 21
6.540000000000002
 31
0.0
  0
LINE
  5
142
330
17
100
AcDbEntity
  8
A-FLOR-CORT
100
AcDbLine
 10
4.82
 20
6.580000000000002
 30
0.0
 11
4.82
 21
6.610000000000001
 31
0.0
  0
LINE
  5
143
330
17
100
AcDbEntity
  8
A-FLOR-CORT
100
AcDbLine
 10
4.82
 20
6.650000000000002
 30
0.0
 11
4.82
 21
6.6800000000000015
 31
0.0
  0
LINE
  5
144
330
17
100
AcDbEntity
  8
A-FLOR-CORT
100
AcDbLine
 10
4.82
 20
6.7200000000000015
 30
0.0
 11
4.82
 21
6.750000000000002
 31
0.0
  0
LINE
  5
145
330
17
100
AcDbEntity
  8
A-FLOR-CORT
100
AcDbLine
 10
4.82
 20
6.790000000000001
 30
0.0
 11
4.82
 21
6.820000000000001
 31
0.0
  0
LINE
  5
146
330
17
100
AcDbEntity
  8
A-FLOR-CORT
100
AcDbLine
 10
4.82
 20
6.860000000000001
 30
0.0
 11
4.82
 21
6.890000000000001
 31
0.0
  0
LINE
  5
147
330
17
100
AcDbEntity
  8
A-FLOR-CORT
100
AcDbLine
 10
4.82
 20
6.9300000000000015
 30
0.0
 11
4.82
 21
6.960000000000001
 31
0.0
  0
LINE
  5
148
330
17
100
AcDbEntity
  8
A-FLOR-CORT
100
AcDbLine
 10
4.82
 20
7.000000000000001
 30
0.0
 11
4.82
 21
7.030000000000001
 31
0.0
  0
LINE
  5
149
330
17
100
AcDbEntity
  8
A-FLOR-CORT
100
AcDbLine
 10
4.82
 20
7.07
 30
0.0
 11
4.82
 21
7.1000000000000005
 31
0.0
  0
LINE
  5
14A
330
17
100
AcDbEntity
  8
A-FLOR-CORT
100
AcDbLine
 10
4.82
 20
7.140000000000001
 30
0.0
 11
4.82
 21
7.15
 31
0.0
  0
LINE
  5
14B
330
17
100
AcDbEntity
  8
A-FLOR-CORT
100
AcDbLine
 10
4.82
 20
7.15
 30
0.0
 11
4.79
 21
7.15
 31
0.0
  0
LINE
  5
14C
330
17
100
AcDbEntity
  8
A-FLOR-CORT
100
AcDbLine
 10
4.75
 20
7.15
 30
0.0
 11
4.720000000000001
 21
7.15
 31
0.0
  0
LINE
  5
14D
330
17
100
AcDbEntity
  8
A-FLOR-CORT
100
AcDbLine
 10
4.680000000000001
 20
7.15
 30
0.0
 11
4.65
 21
7.15
 31
0.0
  0
LINE
  5
14E
330
17
100
AcDbEntity
  8
A-FLOR-CORT
100
AcDbLine
 10
4.61
 20
7.15
 30
0.0
 11
4.58
 21
7.15
 31
0.0
  0
LINE
  5
14F
330
17
100
AcDbEntity
  8
A-FLOR-CORT
100
AcDbLine
 10
4.54
 20
7.15
 30
0.0
 11
4.51
 21
7.15
 31
0.0
  0
LINE
  5
150
330
17
100
AcDbEntity
  8
A-FLOR-CORT
100
AcDbLine
 10
4.470000000000001
 20
7.15
 30
0.0
 11
4.44
 21
7.15
 31
0.0
  0
LINE
  5
151
330
17
100
AcDbEntity
  8
A-FLOR-CORT
100
AcDbLine
 10
4.4
 20
7.15
 30
0.0
 11
4.37
 21
7.15
 31
0.0
  0
LINE
  5
152
330
17
100
AcDbEntity
  8
A-FLOR-CORT
100
AcDbLine
 10
4.33
 20
7.15
 30
0.0
 11
4.300000000000001
 21
7.15
 31
0.0
  0
LINE
  5
153
330
17
100
AcDbEntity
  8
A-FLOR-CORT
100
AcDbLine
 10
4.260000000000001
 20
7.15
 30
0.0
 11
4.23
 21
7.15
 31
0.0
  0
LINE
  5
154
330
17
100
AcDbEntity
  8
A-FLOR-CORT
100
AcDbLine
 10
4.19
 20
7.15
 30
0.0
 11
4.16
 21
7.15
 31
0.0
  0
LINE
  5
155
330
17
100
AcDbEntity
  8
A-FLOR-CORT
100
AcDbLine
 10
4.12
 20
7.15
 30
0.0
 11
4.09
 21
7.15
 31
0.0
  0
LINE
  5
156
330
17
100
AcDbEntity
  8
A-FLOR-CORT
100
AcDbLine
 10
4.05
 20
7.15
 30
0.0
 11
4.0200000000000005
 21
7.15
 31
0.0
  0
LINE
  5
157
330
17
100
AcDbEntity
  8
A-FLOR-CORT
100
AcDbLine
 10
3.98
 20
7.15
 30
0.0
 11
3.95
 21
7.15
 31
0.0
  0
LINE
  5
158
330
17
100
AcDbEntity
  8
A-FLOR-CORT
100
AcDbLine
 10
3.91
 20
7.15
 30
0.0
 11
3.88
 21
7.15
 31
0.0
  0
LINE
  5
159
330
17
100
AcDbEntity
  8
A-FLOR-CORT
100
AcDbLine
 10
3.84
 20
7.15
 30
0.0
 11
3.81
 21
7.15
 31
0.0
  0
LINE
  5
15A
330
17
100
AcDbEntity
  8
A-FLOR-CORT
100
AcDbLine
 10
3.77
 20
7.15
 30
0.0
 11
3.74
 21
7.15
 31
0.0
  0
LINE
  5
15B
330
17
100
AcDbEntity
  8
A-FLOR-CORT
100
AcDbLine
 10
3.7
 20
7.15
 30
0.0
 11
3.67
 21
7.15
 31
0.0
  0
LINE
  5
15C
330
17
100
AcDbEntity
  8
A-FLOR-CORT
100
AcDbLine
 10
3.63
 20
7.15
 30
0.0
 11
3.5999999999999996
 21
7.15
 31
0.0
  0
LINE
  5
15D
330
17
100
AcDbEntity
  8
A-FLOR-CORT
100
AcDbLine
 10
3.5599999999999996
 20
7.15
 30
0.0
 11
3.53
 21
7.15
 31
0.0
  0
LINE
  5
15E
330
17
100
AcDbEntity
  8
A-FLOR-CORT
100
AcDbLine
 10
3.4899999999999998
 20
7.15
 30
0.0
 11
3.46
 21
7.15
 31
0.0
  0
LINE
  5
15F
330
17
100
AcDbEntity
  8
A-FLOR-CORT
100
AcDbLine
 10
3.42
 20
7.15
 30
0.0
 11
3.3899999999999997
 21
7.15
 31
0.0
  0
LINE
  5
160
330
17
100
AcDbEntity
  8
A-FLOR-CORT
100
AcDbLine
 10
3.3499999999999996
 20
7.15
 30
0.0
 11
3.3199999999999994
 21
7.15
 31
0.0
  0
LINE
  5
161
330
17
100
AcDbEntity
  8
A-FLOR-CORT
100
AcDbLine
 10
3.2799999999999994
 20
7.15
 30
0.0
 11
3.2499999999999996
 21
7.15
 31
0.0
  0
LINE
  5
162
330
17
100
AcDbEntity
  8
A-FLOR-CORT
100
AcDbLine
 10
3.2099999999999995
 20
7.15
 30
0.0
 11
3.1799999999999997
 21
7.15
 31
0.0
  0
LINE
  5
163
330
17
100
AcDbEntity
  8
A-FLOR-CORT
100
AcDbLine
 10
3.1399999999999997
 20
7.15
 30
0.0
 11
3.1099999999999994
 21
7.15
 31
0.0
  0
LINE
  5
164
330
17
100
AcDbEntity
  8
A-FLOR-CORT
100
AcDbLine
 10
3.0700000000000003
 20
7.15
 30
0.0
 11
3.0700000000000003
 21
7.12
 31
0.0
  0
LINE
  5
165
330
17
100
AcDbEntity
  8
A-FLOR-CORT
100
AcDbLine
 10
3.0700000000000003
 20
7.08
 30
0.0
 11
3.0700000000000003
 21
7.050000000000001
 31
0.0
  0
LINE
  5
166
330
17
100
AcDbEntity
  8
A-FLOR-CORT
100
AcDbLine
 10
3.0700000000000003
 20
7.010000000000001
 30
0.0
 11
3.0700000000000003
 21
6.98
 31
0.0
  0
LINE
  5
167
330
17
100
AcDbEntity
  8
A-FLOR-CORT
100
AcDbLine
 10
3.0700000000000003
 20
6.94
 30
0.0
 11
3.0700000000000003
 21
6.91
 31
0.0
  0
LINE
  5
168
330
17
100
AcDbEntity
  8
A-FLOR-CORT
100
AcDbLine
 10
3.0700000000000003
 20
6.87
 30
0.0
 11
3.0700000000000003
 21
6.84
 31
0.0
  0
LINE
  5
169
330
17
100
AcDbEntity
  8
A-FLOR-CORT
100
AcDbLine
 10
3.0700000000000003
 20
6.800000000000001
 30
0.0
 11
3.0700000000000003
 21
6.7700000000000005
 31
0.0
  0
LINE
  5
16A
330
17
100
AcDbEntity
  8
A-FLOR-CORT
100
AcDbLine
 10
3.0700000000000003
 20
6.73
 30
0.0
 11
3.0700000000000003
 21
6.7
 31
0.0
  0
LINE
  5
16B
330
17
100
AcDbEntity
  8
A-FLOR-CORT
100
AcDbLine
 10
3.0700000000000003
 20
6.66
 30
0.0
 11
3.0700000000000003
 21
6.630000000000001
 31
0.0
  0
LINE
  5
16C
330
17
100
AcDbEntity
  8
A-FLOR-CORT
100
AcDbLine
 10
3.0700000000000003
 20
6.590000000000001
 30
0.0
 11
3.0700000000000003
 21
6.5600000000000005
 31
0.0
  0
LINE
  5
16D
330
17
100
AcDbEntity
  8
A-FLOR-CORT
100
AcDbLine
 10
3.0700000000000003
 20
6.5200000000000005
 30
0.0
 11
3.0700000000000003
 21
6.49
 31
0.0
  0
LINE
  5
16E
330
17
100
AcDbEntity
  8
A-FLOR-CORT
100
AcDbLine
 10
3.0700000000000003
 20
6.45
 30
0.0
 11
3.0700000000000003
 21
6.42
 31
0.0
  0
LINE
  5
16F
330
17
100
AcDbEntity
  8
A-FLOR-CORT
100
AcDbLine
 10
3.0700000000000003
 20
6.38
 30
0.0
 11
3.0700000000000003
 21
6.3500000000000005
 31
0.0
  0
LINE
  5
170
330
17
100
AcDbEntity
  8
A-FLOR-CORT
100
AcDbLine
 10
3.0700000000000003
 20
6.3100000000000005
 30
0.0
 11
3.0700000000000003
 21
6.28
 31
0.0
  0
LINE
  5
171
330
17
100
AcDbEntity
  8
A-FLOR-CORT
100
AcDbLine
 10
3.0700000000000003
 20
6.24
 30
0.0
 11
3.0700000000000003
 21
6.21
 31
0.0
  0
LINE
  5
172
330
17
100
AcDbEntity
  8
A-FLOR-CORT
100
AcDbLine
 10
3.0700000000000003
 20
6.17
 30
0.0
 11
3.0700000000000003
 21
6.140000000000001
 31
0.0
  0
LINE
  5
173
330
17
100
AcDbEntity
  8
A-FLOR-CORT
100
AcDbLine
 10
3.0700000000000003
 20
6.1
 30
0.0
 11
3.0700000000000003
 21
6.07
 31
0.0
  0
LINE
  5
174
330
17
100
AcDbEntity
  8
A-FLOR-CORT
100
AcDbLine
 10
3.0700000000000003
 20
6.03
 30
0.0
 11
3.0700000000000003
 21
6.0
 31
0.0
  0
LINE
  5
175
330
17
100
AcDbEntity
  8
A-FLOR-CORT
100
AcDbLine
 10
3.0700000000000003
 20
5.96
 30
0.0
 11
3.0700000000000003
 21
5.93
 31
0.0
  0
LINE
  5
176
330
17
100
AcDbEntity
  8
A-FLOR-CORT
100
AcDbLine
 10
3.0700000000000003
 20
5.89
 30
0.0
 11
3.0700000000000003
 21
5.859999999999999
 31
0.0
  0
LINE
  5
177
330
17
100
AcDbEntity
  8
A-FLOR-CORT
100
AcDbLine
 10
3.0700000000000003
 20
5.82
 30
0.0
 11
3.0700000000000003
 21
5.79
 31
0.0
  0
LINE
  5
178
330
17
100
AcDbEntity
  8
A-FLOR-CORT
100
AcDbLine
 10
3.0700000000000003
 20
5.75
 30
0.0
 11
3.0700000000000003
 21
5.72
 31
0.0
  0
LINE
  5
179
330
17
100
AcDbEntity
  8
A-FLOR-CORT
100
AcDbLine
 10
3.0700000000000003
 20
5.68
 30
0.0
 11
3.0700000000000003
 21
5.6499999999999995
 31
0.0
  0
LINE
  5
17A
330
17
100
AcDbEntity
  8
A-FLOR-CORT
100
AcDbLine
 10
3.0700000000000003
 20
5.609999999999999
 30
0.0
 11
3.0700000000000003
 21
5.58
 31
0.0
  0
LINE
  5
17B
330
17
100
AcDbEntity
  8
A-FLOR-CORT
100
AcDbLine
 10
3.0700000000000003
 20
5.539999999999999
 30
0.0
 11
3.0700000000000003
 21
5.51
 31
0.0
  0
LINE
  5
17C
330
17
100
AcDbEntity
  8
A-FLOR-CORT
100
AcDbLine
 10
3.0700000000000003
 20
5.47
 30
0.0
 11
3.0700000000000003
 21
5.4399999999999995
 31
0.0
  0
LINE
  5
17D
330
17
100
AcDbEntity
  8
A-FLOR-CORT
100
AcDbLine
 10
3.0700000000000003
 20
5.3999999999999995
 30
0.0
 11
3.0700000000000003
 21
5.369999999999999
 31
0.0
  0
LINE
  5
17E
330
17
100
AcDbEntity
  8
A-FLOR-CORT
100
AcDbLine
 10
3.0700000000000003
 20
5.329999999999999
 30
0.0
 11
3.0700000000000003
 21
5.299999999999999
 31
0.0
  0
LINE
  5
17F
330
17
100
AcDbEntity
  8
A-FLOR-CORT
100
AcDbLine
 10
3.0700000000000003
 20
5.26
 30
0.0
 11
3.0700000000000003
 21
5.2299999999999995
 31
0.0
  0
LINE
  5
180
330
17
100
AcDbEntity
  8
A-FLOR-CORT
100
AcDbLine
 10
3.0700000000000003
 20
5.1899999999999995
 30
0.0
 11
3.0700000000000003
 21
5.159999999999999
 31
0.0
  0
LINE
  5
181
330
17
100
AcDbEntity
  8
A-FLOR-CORT
100
AcDbLine
 10
3.0700000000000003
 20
5.119999999999999
 30
0.0
 11
3.0700000000000003
 21
5.09
 31
0.0
  0
LINE
  5
182
330
17
100
AcDbEntity
  8
A-FLOR-CORT
100
AcDbLine
 10
3.0700000000000003
 20
5.049999999999999
 30
0.0
 11
3.0700000000000003
 21
5.02
 31
0.0
  0
LINE
  5
183
330
17
100
AcDbEntity
  8
A-FLOR-CORT
100
AcDbLine
 10
3.0700000000000003
 20
4.9799999999999995
 30
0.0
 11
3.0700000000000003
 21
4.949999999999999
 31
0.0
  0
LINE
  5
184
330
17
100
AcDbEntity
  8
A-FLOR-CORT
100
AcDbLine
 10
3.0700000000000003
 20
4.91
 30
0.0
 11
3.0700000000000003
 21
4.88
 31
0.0
  0
LINE
  5
185
330
17
100
AcDbEntity
  8
A-FLOR-CORT
100
AcDbLine
 10
3.0700000000000003
 20
4.84
 30
0.0
 11
3.0700000000000003
 21
4.8100000000000005
 31
0.0
  0
LINE
  5
186
330
17
100
AcDbEntity
  8
A-FLOR-CORT
100
AcDbLine
 10
3.0700000000000003
 20
4.77
 30
0.0
 11
3.0700000000000003
 21
4.74
 31
0.0
  0
LINE
  5
187
330
17
100
AcDbEntity
  8
A-FLOR-CORT
100
AcDbLine
 10
3.0700000000000003
 20
4.7
 30
0.0
 11
3.0700000000000003
 21
4.67
 31
0.0
  0
LINE
  5
188
330
17
100
AcDbEntity
  8
A-FLOR-CORT
100
AcDbLine
 10
3.0700000000000003
 20
4.630000000000001
 30
0.0
 11
3.0700000000000003
 21
4.6000000000000005
 31
0.0
  0
LINE
  5
189
330
17
100
AcDbEntity
  8
A-FLOR-CORT
100
AcDbLine
 10
3.0700000000000003
 20
4.5600000000000005
 30
0.0
 11
3.0700000000000003
 21
4.550000000000001
 31
0.0
  0
LINE
  5
18A
330
17
100
AcDbEntity
  8
A-FLOR-CORT
100
AcDbLine
 10
3.3200000000000003
 20
5.85
 30
0.0
 11
3.39
 21
5.85
 31
0.0
  0
LINE
  5
18B
330
17
100
AcDbEntity
  8
A-FLOR-CORT
100
AcDbLine
 10
3.43
 20
5.85
 30
0.0
 11
3.5000000000000004
 21
5.85
 31
0.0
  0
LINE
  5
18C
330
17
100
AcDbEntity
  8
A-FLOR-CORT
100
AcDbLine
 10
3.5400000000000005
 20
5.85
 30
0.0
 11
3.6100000000000003
 21
5.85
 31
0.0
  0
LINE
  5
18D
330
17
100
AcDbEntity
  8
A-FLOR-CORT
100
AcDbLine
 10
3.6500000000000004
 20
5.85
 30
0.0
 11
3.72
 21
5.85
 31
0.0
  0
LINE
  5
18E
330
17
100
AcDbEntity
  8
A-FLOR-CORT
100
AcDbLine
 10
3.7600000000000002
 20
5.85
 30
0.0
 11
3.83
 21
5.85
 31
0.0
  0
LINE
  5
18F
330
17
100
AcDbEntity
  8
A-FLOR-CORT
100
AcDbLine
 10
3.87
 20
5.85
 30
0.0
 11
3.9400000000000004
 21
5.85
 31
0.0
  0
LINE
  5
190
330
17
100
AcDbEntity
  8
A-FLOR-CORT
100
AcDbLine
 10
3.9800000000000004
 20
5.85
 30
0.0
 11
4.050000000000001
 21
5.85
 31
0.0
  0
LINE
  5
191
330
17
100
AcDbEntity
  8
A-FLOR-CORT
100
AcDbLine
 10
4.090000000000001
 20
5.85
 30
0.0
 11
4.16
 21
5.85
 31
0.0
  0
LINE
  5
192
330
17
100
AcDbEntity
  8
A-FLOR-CORT
100
AcDbLine
 10
4.200000000000001
 20
5.85
 30
0.0
 11
4.2700000000000005
 21
5.85
 31
0.0
  0
LINE
  5
193
330
17
100
AcDbEntity
  8
A-FLOR-CORT
100
AcDbLine
 10
4.3100000000000005
 20
5.85
 30
0.0
 11
4.380000000000001
 21
5.85
 31
0.0
  0
LINE
  5
194
330
17
100
AcDbEntity
  8
A-FLOR-CORT
100
AcDbLine
 10
4.420000000000001
 20
5.85
 30
0.0
 11
4.490000000000001
 21
5.85
 31
0.0
  0
LINE
  5
195
330
17
100
AcDbEntity
  8
A-FLOR-CORT
100
AcDbLine
 10
4.530000000000001
 20
5.85
 30
0.0
 11
4.57
 21
5.85
 31
0.0
  0
TEXT
  5
196
330
17
100
AcDbEntity
  8
A-AREA-IDEN
100
AcDbText
 10
4.0200000000000005
 20
7.5
 30
0.0
 40
0.06599999999999999
  1
EVENT FLOOR 120' x 144' = 17,280 SF
  7
KS-BOLD
 72
1
 11
4.0200000000000005
 21
7.5
 31
0.0
100
AcDbText
  0
TEXT
  5
197
330
17
100
AcDbEntity
  8
A-AREA-IDEN
100
AcDbText
 10
4.0200000000000005
 20
7.38
 30
0.0
 40
0.054000000000000006
  1
table / bench zone (15')
  7
KS-REG
 72
1
 11
4.0200000000000005
 21
7.38
 31
0.0
100
AcDbText
  0
TEXT
  5
198
330
17
100
AcDbEntity
  8
A-AREA-IDEN
100
AcDbText
 10
4.0200000000000005
 20
4.237500000000001
 30
0.0
 40
0.054000000000000006
  1
table / bench zone (15')
  7
KS-REG
 72
1
 11
4.0200000000000005
 21
4.237500000000001
 31
0.0
100
AcDbText
  0
TEXT
  5
199
330
17
100
AcDbEntity
  8
A-AREA-IDEN
100
AcDbText
 10
3.9450000000000003
 20
5.9125
 30
0.0
 40
0.054000000000000006
  1
COURT 84' x 50' (OVERLAY)
  7
KS-REG
 72
1
 11
3.9450000000000003
 21
5.9125
 31
0.0
100
AcDbText
  0
TEXT
  5
19A
330
17
100
AcDbEntity
  8
A-AREA-IDEN
100
AcDbText
 10
4.0200000000000005
 20
7.2875
 30
0.0
 40
0.044000000000000004
  1
UPPER TIER ABOVE steps DOWN to the court · front row 9.0' = 7'-6" clear under row 1: no low band (D-061)
  7
KS-REG
 72
1
 11
4.0200000000000005
 21
7.2875
 31
0.0
100
AcDbText
  0
LINE
  5
19B
330
17
100
AcDbEntity
  8
A-AREA-BLCK
100
AcDbLine
 10
2.5200000000000005
 20
3.2
 30
0.0
 11
2.5200000000000005
 21
3.5500000000000003
 31
0.0
  0
LINE
  5
19C
330
17
100
AcDbEntity
  8
A-AREA-BLCK
100
AcDbLine
 10
2.5200000000000005
 20
3.5500000000000003
 30
0.0
 11
3.22
 21
3.5500000000000003
 31
0.0
  0
LINE
  5
19D
330
17
100
AcDbEntity
  8
A-ANNO-DIMS
100
AcDbLine
 10
3.9450000000000003
 20
2.2
 30
0.0
 11
3.9450000000000003
 21
2.35
 31
0.0
  0
LINE
  5
19E
330
17
100
AcDbEntity
  8
A-ANNO-DIMS
100
AcDbLine
 10
3.9450000000000003
 20
2.35
 30
0.0
 11
3.9000000000000004
 21
2.285
 31
0.0
  0
LINE
  5
19F
330
17
100
AcDbEntity
  8
A-ANNO-DIMS
100
AcDbLine
 10
3.9450000000000003
 20
2.35
 30
0.0
 11
3.99
 21
2.285
 31
0.0
  0
LINE
  5
1A0
330
17
100
AcDbEntity
  8
A-AREA-IDEN
100
AcDbLine
 10
3.30125
 20
2.35
 30
0.0
 11
3.4512500000000004
 21
2.35
 31
0.0
  0
LINE
  5
1A1
330
17
100
AcDbEntity
  8
A-AREA-IDEN
100
AcDbLine
 10
3.3112500000000002
 20
2.6
 30
0.0
 11
3.44125
 21
2.6
 31
0.0
  0
LINE
  5
1A2
330
17
100
AcDbEntity
  8
A-AREA-IDEN
100
AcDbLine
 10
3.30125
 20
2.31
 30
0.0
 11
3.30125
 21
2.39
 31
0.0
  0
LINE
  5
1A3
330
17
100
AcDbEntity
  8
A-AREA-IDEN
100
AcDbLine
 10
3.30125
 20
2.5700000000000003
 30
0.0
 11
3.30125
 21
2.63
 31
0.0
  0
LINE
  5
1A4
330
17
100
AcDbEntity
  8
A-AREA-IDEN
100
AcDbLine
 10
3.4512500000000004
 20
2.31
 30
0.0
 11
3.4512500000000004
 21
2.39
 31
0.0
  0
LINE
  5
1A5
330
17
100
AcDbEntity
  8
A-AREA-IDEN
100
AcDbLine
 10
3.4512500000000004
 20
2.5700000000000003
 30
0.0
 11
3.4512500000000004
 21
2.63
 31
0.0
  0
LINE
  5
1A6
330
17
100
AcDbEntity
  8
A-AREA-IDEN
100
AcDbLine
 10
3.46375
 20
2.35
 30
0.0
 11
3.6137500000000005
 21
2.35
 31
0.0
  0
LINE
  5
1A7
330
17
100
AcDbEntity
  8
A-AREA-IDEN
100
AcDbLine
 10
3.4737500000000003
 20
2.6
 30
0.0
 11
3.6037500000000002
 21
2.6
 31
0.0
  0
LINE
  5
1A8
330
17
100
AcDbEntity
  8
A-AREA-IDEN
100
AcDbLine
 10
3.46375
 20
2.31
 30
0.0
 11
3.46375
 21
2.39
 31
0.0
  0
LINE
  5
1A9
330
17
100
AcDbEntity
  8
A-AREA-IDEN
100
AcDbLine
 10
3.46375
 20
2.5700000000000003
 30
0.0
 11
3.46375
 21
2.63
 31
0.0
  0
LINE
  5
1AA
330
17
100
AcDbEntity
  8
A-AREA-IDEN
100
AcDbLine
 10
3.6137500000000005
 20
2.31
 30
0.0
 11
3.6137500000000005
 21
2.39
 31
0.0
  0
LINE
  5
1AB
330
17
100
AcDbEntity
  8
A-AREA-IDEN
100
AcDbLine
 10
3.6137500000000005
 20
2.5700000000000003
 30
0.0
 11
3.6137500000000005
 21
2.63
 31
0.0
  0
LINE
  5
1AC
330
17
100
AcDbEntity
  8
A-AREA-IDEN
100
AcDbLine
 10
3.62625
 20
2.35
 30
0.0
 11
3.77625
 21
2.35
 31
0.0
  0
LINE
  5
1AD
330
17
100
AcDbEntity
  8
A-AREA-IDEN
100
AcDbLine
 10
3.6362500000000004
 20
2.6
 30
0.0
 11
3.7662500000000003
 21
2.6
 31
0.0
  0
LINE
  5
1AE
330
17
100
AcDbEntity
  8
A-AREA-IDEN
100
AcDbLine
 10
3.62625
 20
2.31
 30
0.0
 11
3.62625
 21
2.39
 31
0.0
  0
LINE
  5
1AF
330
17
100
AcDbEntity
  8
A-AREA-IDEN
100
AcDbLine
 10
3.62625
 20
2.5700000000000003
 30
0.0
 11
3.62625
 21
2.63
 31
0.0
  0
LINE
  5
1B0
330
17
100
AcDbEntity
  8
A-AREA-IDEN
100
AcDbLine
 10
3.77625
 20
2.31
 30
0.0
 11
3.77625
 21
2.39
 31
0.0
  0
LINE
  5
1B1
330
17
100
AcDbEntity
  8
A-AREA-IDEN
100
AcDbLine
 10
3.77625
 20
2.5700000000000003
 30
0.0
 11
3.77625
 21
2.63
 31
0.0
  0
LINE
  5
1B2
330
17
100
AcDbEntity
  8
A-AREA-IDEN
100
AcDbLine
 10
3.7887500000000003
 20
2.35
 30
0.0
 11
3.93875
 21
2.35
 31
0.0
  0
LINE
  5
1B3
330
17
100
AcDbEntity
  8
A-AREA-IDEN
100
AcDbLine
 10
3.7987500000000005
 20
2.6
 30
0.0
 11
3.92875
 21
2.6
 31
0.0
  0
LINE
  5
1B4
330
17
100
AcDbEntity
  8
A-AREA-IDEN
100
AcDbLine
 10
3.7887500000000003
 20
2.31
 30
0.0
 11
3.7887500000000003
 21
2.39
 31
0.0
  0
LINE
  5
1B5
330
17
100
AcDbEntity
  8
A-AREA-IDEN
100
AcDbLine
 10
3.7887500000000003
 20
2.5700000000000003
 30
0.0
 11
3.7887500000000003
 21
2.63
 31
0.0
  0
LINE
  5
1B6
330
17
100
AcDbEntity
  8
A-AREA-IDEN
100
AcDbLine
 10
3.93875
 20
2.31
 30
0.0
 11
3.93875
 21
2.39
 31
0.0
  0
LINE
  5
1B7
330
17
100
AcDbEntity
  8
A-AREA-IDEN
100
AcDbLine
 10
3.93875
 20
2.5700000000000003
 30
0.0
 11
3.93875
 21
2.63
 31
0.0
  0
LINE
  5
1B8
330
17
100
AcDbEntity
  8
A-AREA-IDEN
100
AcDbLine
 10
3.9512500000000004
 20
2.35
 30
0.0
 11
4.10125
 21
2.35
 31
0.0
  0
LINE
  5
1B9
330
17
100
AcDbEntity
  8
A-AREA-IDEN
100
AcDbLine
 10
3.9612500000000006
 20
2.6
 30
0.0
 11
4.0912500000000005
 21
2.6
 31
0.0
  0
LINE
  5
1BA
330
17
100
AcDbEntity
  8
A-AREA-IDEN
100
AcDbLine
 10
3.9512500000000004
 20
2.31
 30
0.0
 11
3.9512500000000004
 21
2.39
 31
0.0
  0
LINE
  5
1BB
330
17
100
AcDbEntity
  8
A-AREA-IDEN
100
AcDbLine
 10
3.9512500000000004
 20
2.5700000000000003
 30
0.0
 11
3.9512500000000004
 21
2.63
 31
0.0
  0
LINE
  5
1BC
330
17
100
AcDbEntity
  8
A-AREA-IDEN
100
AcDbLine
 10
4.10125
 20
2.31
 30
0.0
 11
4.10125
 21
2.39
 31
0.0
  0
LINE
  5
1BD
330
17
100
AcDbEntity
  8
A-AREA-IDEN
100
AcDbLine
 10
4.10125
 20
2.5700000000000003
 30
0.0
 11
4.10125
 21
2.63
 31
0.0
  0
LINE
  5
1BE
330
17
100
AcDbEntity
  8
A-AREA-IDEN
100
AcDbLine
 10
4.1137500000000005
 20
2.35
 30
0.0
 11
4.26375
 21
2.35
 31
0.0
  0
LINE
  5
1BF
330
17
100
AcDbEntity
  8
A-AREA-IDEN
100
AcDbLine
 10
4.12375
 20
2.6
 30
0.0
 11
4.25375
 21
2.6
 31
0.0
  0
LINE
  5
1C0
330
17
100
AcDbEntity
  8
A-AREA-IDEN
100
AcDbLine
 10
4.1137500000000005
 20
2.31
 30
0.0
 11
4.1137500000000005
 21
2.39
 31
0.0
  0
LINE
  5
1C1
330
17
100
AcDbEntity
  8
A-AREA-IDEN
100
AcDbLine
 10
4.1137500000000005
 20
2.5700000000000003
 30
0.0
 11
4.1137500000000005
 21
2.63
 31
0.0
  0
LINE
  5
1C2
330
17
100
AcDbEntity
  8
A-AREA-IDEN
100
AcDbLine
 10
4.26375
 20
2.31
 30
0.0
 11
4.26375
 21
2.39
 31
0.0
  0
LINE
  5
1C3
330
17
100
AcDbEntity
  8
A-AREA-IDEN
100
AcDbLine
 10
4.26375
 20
2.5700000000000003
 30
0.0
 11
4.26375
 21
2.63
 31
0.0
  0
LINE
  5
1C4
330
17
100
AcDbEntity
  8
A-AREA-IDEN
100
AcDbLine
 10
4.27625
 20
2.35
 30
0.0
 11
4.4262500000000005
 21
2.35
 31
0.0
  0
LINE
  5
1C5
330
17
100
AcDbEntity
  8
A-AREA-IDEN
100
AcDbLine
 10
4.286250000000001
 20
2.6
 30
0.0
 11
4.41625
 21
2.6
 31
0.0
  0
LINE
  5
1C6
330
17
100
AcDbEntity
  8
A-AREA-IDEN
100
AcDbLine
 10
4.27625
 20
2.31
 30
0.0
 11
4.27625
 21
2.39
 31
0.0
  0
LINE
  5
1C7
330
17
100
AcDbEntity
  8
A-AREA-IDEN
100
AcDbLine
 10
4.27625
 20
2.5700000000000003
 30
0.0
 11
4.27625
 21
2.63
 31
0.0
  0
LINE
  5
1C8
330
17
100
AcDbEntity
  8
A-AREA-IDEN
100
AcDbLine
 10
4.4262500000000005
 20
2.31
 30
0.0
 11
4.4262500000000005
 21
2.39
 31
0.0
  0
LINE
  5
1C9
330
17
100
AcDbEntity
  8
A-AREA-IDEN
100
AcDbLine
 10
4.4262500000000005
 20
2.5700000000000003
 30
0.0
 11
4.4262500000000005
 21
2.63
 31
0.0
  0
LINE
  5
1CA
330
17
100
AcDbEntity
  8
A-AREA-IDEN
100
AcDbLine
 10
4.438750000000001
 20
2.35
 30
0.0
 11
4.58875
 21
2.35
 31
0.0
  0
LINE
  5
1CB
330
17
100
AcDbEntity
  8
A-AREA-IDEN
100
AcDbLine
 10
4.44875
 20
2.6
 30
0.0
 11
4.57875
 21
2.6
 31
0.0
  0
LINE
  5
1CC
330
17
100
AcDbEntity
  8
A-AREA-IDEN
100
AcDbLine
 10
4.438750000000001
 20
2.31
 30
0.0
 11
4.438750000000001
 21
2.39
 31
0.0
  0
LINE
  5
1CD
330
17
100
AcDbEntity
  8
A-AREA-IDEN
100
AcDbLine
 10
4.438750000000001
 20
2.5700000000000003
 30
0.0
 11
4.438750000000001
 21
2.63
 31
0.0
  0
LINE
  5
1CE
330
17
100
AcDbEntity
  8
A-AREA-IDEN
100
AcDbLine
 10
4.58875
 20
2.31
 30
0.0
 11
4.58875
 21
2.39
 31
0.0
  0
LINE
  5
1CF
330
17
100
AcDbEntity
  8
A-AREA-IDEN
100
AcDbLine
 10
4.58875
 20
2.5700000000000003
 30
0.0
 11
4.58875
 21
2.63
 31
0.0
  0
TEXT
  5
1D0
330
17
100
AcDbEntity
  8
A-AREA-IDEN
100
AcDbText
 10
3.9700000000000006
 20
2.24
 30
0.0
 40
0.04599999999999999
  1
E1 MAIN ENTRY / EXIT · 8 PAIRS, 512 in
  7
KS-BOLD
 11
3.9700000000000006
 21
2.24
 31
0.0
100
AcDbText
  0
TEXT
  5
1D1
330
17
100
AcDbEntity
  8
A-AREA-IDEN
100
AcDbText
 10
3.9700000000000006
 20
2.145
 30
0.0
 40
0.039999999999999994
  1
↓ PORTAL 30' S · WALK 40' (28' BRICK + 2 x 6', D-066)
  7
KS-REG
 11
3.9700000000000006
 21
2.145
 31
0.0
100
AcDbText
  0
LINE
  5
1D2
330
17
100
AcDbEntity
  8
A-AREA-IDEN
100
AcDbLine
 10
4.195
 20
2.95
 30
0.0
 11
4.255
 21
2.95
 31
0.0
  0
LINE
  5
1D3
330
17
100
AcDbEntity
  8
A-AREA-IDEN
100
AcDbLine
 10
4.29
 20
2.95
 30
0.0
 11
4.3500000000000005
 21
2.95
 31
0.0
  0
LINE
  5
1D4
330
17
100
AcDbEntity
  8
A-AREA-IDEN
100
AcDbLine
 10
4.385000000000001
 20
2.95
 30
0.0
 11
4.445
 21
2.95
 31
0.0
  0
LINE
  5
1D5
330
17
100
AcDbEntity
  8
A-AREA-IDEN
100
AcDbLine
 10
4.48
 20
2.95
 30
0.0
 11
4.54
 21
2.95
 31
0.0
  0
LINE
  5
1D6
330
17
100
AcDbEntity
  8
A-AREA-IDEN
100
AcDbLine
 10
4.575
 20
2.95
 30
0.0
 11
4.635000000000001
 21
2.95
 31
0.0
  0
LINE
  5
1D7
330
17
100
AcDbEntity
  8
A-AREA-IDEN
100
AcDbLine
 10
4.67
 20
2.95
 30
0.0
 11
4.67
 21
3.0100000000000002
 31
0.0
  0
LINE
  5
1D8
330
17
100
AcDbEntity
  8
A-AREA-IDEN
100
AcDbLine
 10
4.67
 20
3.0450000000000004
 30
0.0
 11
4.67
 21
3.105
 31
0.0
  0
LINE
  5
1D9
330
17
100
AcDbEntity
  8
A-AREA-IDEN
100
AcDbLine
 10
4.67
 20
3.14
 30
0.0
 11
4.67
 21
3.2
 31
0.0
  0
LINE
  5
1DA
330
17
100
AcDbEntity
  8
A-AREA-IDEN
100
AcDbLine
 10
4.67
 20
3.2350000000000003
 30
0.0
 11
4.67
 21
3.2950000000000004
 31
0.0
  0
LINE
  5
1DB
330
17
100
AcDbEntity
  8
A-AREA-IDEN
100
AcDbLine
 10
4.67
 20
3.33
 30
0.0
 11
4.67
 21
3.39
 31
0.0
  0
LINE
  5
1DC
330
17
100
AcDbEntity
  8
A-AREA-IDEN
100
AcDbLine
 10
4.67
 20
3.4250000000000003
 30
0.0
 11
4.67
 21
3.4850000000000003
 31
0.0
  0
LINE
  5
1DD
330
17
100
AcDbEntity
  8
A-AREA-IDEN
100
AcDbLine
 10
4.67
 20
3.52
 30
0.0
 11
4.67
 21
3.58
 31
0.0
  0
LINE
  5
1DE
330
17
100
AcDbEntity
  8
A-AREA-IDEN
100
AcDbLine
 10
4.67
 20
3.6
 30
0.0
 11
4.61
 21
3.6
 31
0.0
  0
LINE
  5
1DF
330
17
100
AcDbEntity
  8
A-AREA-IDEN
100
AcDbLine
 10
4.575
 20
3.6
 30
0.0
 11
4.515
 21
3.6
 31
0.0
  0
LINE
  5
1E0
330
17
100
AcDbEntity
  8
A-AREA-IDEN
100
AcDbLine
 10
4.4799999999999995
 20
3.6
 30
0.0
 11
4.42
 21
3.6
 31
0.0
  0
LINE
  5
1E1
330
17
100
AcDbEntity
  8
A-AREA-IDEN
100
AcDbLine
 10
4.385
 20
3.6
 30
0.0
 11
4.325
 21
3.6
 31
0.0
  0
LINE
  5
1E2
330
17
100
AcDbEntity
  8
A-AREA-IDEN
100
AcDbLine
 10
4.29
 20
3.6
 30
0.0
 11
4.2299999999999995
 21
3.6
 31
0.0
  0
LINE
  5
1E3
330
17
100
AcDbEntity
  8
A-AREA-IDEN
100
AcDbLine
 10
4.195
 20
3.6
 30
0.0
 11
4.195
 21
3.54
 31
0.0
  0
LINE
  5
1E4
330
17
100
AcDbEntity
  8
A-AREA-IDEN
100
AcDbLine
 10
4.195
 20
3.505
 30
0.0
 11
4.195
 21
3.4450000000000003
 31
0.0
  0
LINE
  5
1E5
330
17
100
AcDbEntity
  8
A-AREA-IDEN
100
AcDbLine
 10
4.195
 20
3.41
 30
0.0
 11
4.195
 21
3.35
 31
0.0
  0
LINE
  5
1E6
330
17
100
AcDbEntity
  8
A-AREA-IDEN
100
AcDbLine
 10
4.195
 20
3.315
 30
0.0
 11
4.195
 21
3.255
 31
0.0
  0
LINE
  5
1E7
330
17
100
AcDbEntity
  8
A-AREA-IDEN
100
AcDbLine
 10
4.195
 20
3.22
 30
0.0
 11
4.195
 21
3.16
 31
0.0
  0
LINE
  5
1E8
330
17
100
AcDbEntity
  8
A-AREA-IDEN
100
AcDbLine
 10
4.195
 20
3.125
 30
0.0
 11
4.195
 21
3.0650000000000004
 31
0.0
  0
LINE
  5
1E9
330
17
100
AcDbEntity
  8
A-AREA-IDEN
100
AcDbLine
 10
4.195
 20
3.0300000000000002
 30
0.0
 11
4.195
 21
2.97
 31
0.0
  0
LWPOLYLINE
  5
1EA
330
17
100
AcDbEntity
  8
A-AREA-IDEN
100
AcDbPolyline
 90
4
 70
1
 10
4.244155183727035
 20
3.25
 10
4.320844816272967
 20
3.25
 10
4.320844816272967
 20
3.3041338582677167
 10
4.244155183727035
 20
3.3041338582677167
  0
LINE
  5
1EB
330
17
100
AcDbEntity
  8
A-AREA-IDEN
100
AcDbLine
 10
4.2075000000000005
 20
2.975
 30
0.0
 11
4.2075000000000005
 21
3.575
 31
0.0
  0
LWPOLYLINE
  5
1EC
330
17
100
AcDbEntity
  8
A-AREA-IDEN
100
AcDbPolyline
 90
4
 70
1
 10
4.394155183727035
 20
3.25
 10
4.470844816272966
 20
3.25
 10
4.470844816272966
 20
3.3041338582677167
 10
4.394155183727035
 20
3.3041338582677167
  0
LINE
  5
1ED
330
17
100
AcDbEntity
  8
A-AREA-IDEN
100
AcDbLine
 10
4.3575
 20
2.975
 30
0.0
 11
4.3575
 21
3.575
 31
0.0
  0
LWPOLYLINE
  5
1EE
330
17
100
AcDbEntity
  8
A-AREA-IDEN
100
AcDbPolyline
 90
4
 70
1
 10
4.544155183727034
 20
3.25
 10
4.620844816272966
 20
3.25
 10
4.620844816272966
 20
3.3041338582677167
 10
4.544155183727034
 20
3.3041338582677167
  0
LINE
  5
1EF
330
17
100
AcDbEntity
  8
A-AREA-IDEN
100
AcDbLine
 10
4.5075
 20
2.975
 30
0.0
 11
4.5075
 21
3.575
 31
0.0
  0
LINE
  5
1F0
330
17
100
AcDbEntity
  8
A-AREA-IDEN
100
AcDbLine
 10
4.657500000000001
 20
2.975
 30
0.0
 11
4.657500000000001
 21
3.575
 31
0.0
  0
TEXT
  5
1F1
330
17
100
AcDbEntity
  8
A-AREA-IDEN
100
AcDbText
 10
4.4325
 20
3.4750000000000005
 30
0.0
 40
0.04599999999999999
  1
SCREENING
  7
KS-BOLD
 72
1
 11
4.4325
 21
3.4750000000000005
 31
0.0
100
AcDbText
  0
TEXT
  5
1F2
330
17
100
AcDbEntity
  8
A-AREA-IDEN
100
AcDbText
 10
4.4325
 20
3.4050000000000002
 30
0.0
 40
0.04599999999999999
  1
BAY (D-065)
  7
KS-BOLD
 72
1
 11
4.4325
 21
3.4050000000000002
 31
0.0
100
AcDbText
  0
TEXT
  5
1F3
330
17
100
AcDbEntity
  8
A-AREA-IDEN
100
AcDbText
 10
4.4325
 20
3.1050000000000004
 30
0.0
 40
0.041999999999999996
  1
3 LANES
  7
KS-REG
 72
1
 11
4.4325
 21
3.1050000000000004
 31
0.0
100
AcDbText
  0
TEXT
  5
1F4
330
17
100
AcDbEntity
  8
A-AREA-IDEN
100
AcDbText
 10
4.4325
 20
3.035
 30
0.0
 40
0.041999999999999996
  1
ASSUMED
  7
KS-REG
 72
1
 11
4.4325
 21
3.035
 31
0.0
100
AcDbText
  0
LINE
  5
1F5
330
17
100
AcDbEntity
  8
A-ANNO-DIMS
100
AcDbLine
 10
3.22
 20
2.825
 30
0.0
 11
4.195
 21
2.825
 31
0.0
  0
LINE
  5
1F6
330
17
100
AcDbEntity
  8
A-ANNO-DIMS
100
AcDbLine
 10
3.22
 20
2.7875
 30
0.0
 11
3.22
 21
2.8625000000000003
 31
0.0
  0
LINE
  5
1F7
330
17
100
AcDbEntity
  8
A-ANNO-DIMS
100
AcDbLine
 10
4.195
 20
2.7875
 30
0.0
 11
4.195
 21
2.8625000000000003
 31
0.0
  0
TEXT
  5
1F8
330
17
100
AcDbEntity
  8
A-ANNO-DIMS
100
AcDbText
 10
3.8075
 20
2.85
 30
0.0
 40
0.039
  1
39'-0" = 468 in CLEAR
  7
KS-BOLD
 72
1
 11
3.8075
 21
2.85
 31
0.0
100
AcDbText
  0
TEXT
  5
1F9
330
17
100
AcDbEntity
  8
A-ANNO-DIMS
100
AcDbText
 10
3.8075
 20
2.74
 30
0.0
 40
0.039
  1
≥ 466.5 in (D-065)
  7
KS-REG
 72
1
 11
3.8075
 21
2.74
 31
0.0
100
AcDbText
  0
LINE
  5
1FA
330
17
100
AcDbEntity
  8
A-AREA-IDEN
100
AcDbLine
 10
3.22
 20
3.5500000000000003
 30
0.0
 11
3.22
 21
3.75
 31
0.0
  0
TEXT
  5
1FB
330
17
100
AcDbEntity
  8
A-AREA-IDEN
100
AcDbText
 10
3.2500000000000004
 20
3.4699999999999998
 30
0.0
 40
0.04599999999999999
  1
CD-1 CONTROLLED
  7
KS-BOLD
 11
3.2500000000000004
 21
3.4699999999999998
 31
0.0
100
AcDbText
  0
TEXT
  5
1FC
330
17
100
AcDbEntity
  8
A-AREA-IDEN
100
AcDbText
 10
3.2500000000000004
 20
3.3949999999999996
 30
0.0
 40
0.044000000000000004
  1
DOOR (staff / teams)
  7
KS-REG
 11
3.2500000000000004
 21
3.3949999999999996
 31
0.0
100
AcDbText
  0
LINE
  5
1FD
330
17
100
AcDbEntity
  8
A-AREA-IDEN
100
AcDbLine
 10
1.12
 20
3.2375000000000003
 30
0.0
 11
1.12
 21
3.3625
 31
0.0
  0
LINE
  5
1FE
330
17
100
AcDbEntity
  8
A-AREA-IDEN
100
AcDbLine
 10
1.12
 20
3.3000000000000003
 30
0.0
 11
1.04
 21
3.3000000000000003
 31
0.0
  0
LINE
  5
1FF
330
17
100
AcDbEntity
  8
A-AREA-IDEN
100
AcDbLine
 10
1.04
 20
3.3000000000000003
 30
0.0
 11
1.0750000000000002
 21
3.27
 31
0.0
  0
LINE
  5
200
330
17
100
AcDbEntity
  8
A-AREA-IDEN
100
AcDbLine
 10
1.04
 20
3.3000000000000003
 30
0.0
 11
1.0750000000000002
 21
3.33
 31
0.0
  0
TEXT
  5
201
330
17
100
AcDbEntity
  8
A-AREA-IDEN
100
AcDbText
 10
1.0350000000000001
 20
3.6
 30
0.0
 40
0.054000000000000006
  1
X1 EXIT ONLY
 50
90.0
  7
KS-BOLD
 72
1
 11
1.0350000000000001
 21
3.6
 31
0.0
100
AcDbText
  0
LINE
  5
202
330
17
100
AcDbEntity
  8
A-AREA-IDEN
100
AcDbLine
 10
1.12
 20
4.737500000000001
 30
0.0
 11
1.12
 21
4.862500000000001
 31
0.0
  0
LINE
  5
203
330
17
100
AcDbEntity
  8
A-AREA-IDEN
100
AcDbLine
 10
1.12
 20
4.800000000000001
 30
0.0
 11
1.04
 21
4.800000000000001
 31
0.0
  0
LINE
  5
204
330
17
100
AcDbEntity
  8
A-AREA-IDEN
100
AcDbLine
 10
1.04
 20
4.800000000000001
 30
0.0
 11
1.0750000000000002
 21
4.77
 31
0.0
  0
LINE
  5
205
330
17
100
AcDbEntity
  8
A-AREA-IDEN
100
AcDbLine
 10
1.04
 20
4.800000000000001
 30
0.0
 11
1.0750000000000002
 21
4.83
 31
0.0
  0
TEXT
  5
206
330
17
100
AcDbEntity
  8
A-AREA-IDEN
100
AcDbText
 10
1.0350000000000001
 20
5.1
 30
0.0
 40
0.054000000000000006
  1
X2 EXIT ONLY
 50
90.0
  7
KS-BOLD
 72
1
 11
1.0350000000000001
 21
5.1
 31
0.0
100
AcDbText
  0
LINE
  5
207
330
17
100
AcDbEntity
  8
A-AREA-IDEN
100
AcDbLine
 10
1.12
 20
6.8375
 30
0.0
 11
1.12
 21
6.9625
 31
0.0
  0
LINE
  5
208
330
17
100
AcDbEntity
  8
A-AREA-IDEN
100
AcDbLine
 10
1.12
 20
6.9
 30
0.0
 11
1.04
 21
6.9
 31
0.0
  0
LINE
  5
209
330
17
100
AcDbEntity
  8
A-AREA-IDEN
100
AcDbLine
 10
1.04
 20
6.9
 30
0.0
 11
1.0750000000000002
 21
6.870000000000001
 31
0.0
  0
LINE
  5
20A
330
17
100
AcDbEntity
  8
A-AREA-IDEN
100
AcDbLine
 10
1.04
 20
6.9
 30
0.0
 11
1.0750000000000002
 21
6.93
 31
0.0
  0
TEXT
  5
20B
330
17
100
AcDbEntity
  8
A-AREA-IDEN
100
AcDbText
 10
1.0350000000000001
 20
7.200000000000001
 30
0.0
 40
0.054000000000000006
  1
X3 EXIT ONLY
 50
90.0
  7
KS-BOLD
 72
1
 11
1.0350000000000001
 21
7.200000000000001
 31
0.0
100
AcDbText
  0
LINE
  5
20C
330
17
100
AcDbEntity
  8
A-AREA-IDEN
100
AcDbLine
 10
2.124175
 20
8.65
 30
0.0
 11
2.249175
 21
8.65
 31
0.0
  0
LINE
  5
20D
330
17
100
AcDbEntity
  8
A-AREA-IDEN
100
AcDbLine
 10
2.186675
 20
8.65
 30
0.0
 11
2.186675
 21
8.73
 31
0.0
  0
LINE
  5
20E
330
17
100
AcDbEntity
  8
A-AREA-IDEN
100
AcDbLine
 10
2.186675
 20
8.73
 30
0.0
 11
2.156675
 21
8.695
 31
0.0
  0
LINE
  5
20F
330
17
100
AcDbEntity
  8
A-AREA-IDEN
100
AcDbLine
 10
2.186675
 20
8.73
 30
0.0
 11
2.2166750000000004
 21
8.695
 31
0.0
  0
LINE
  5
210
330
17
100
AcDbEntity
  8
A-AREA-IDEN
100
AcDbLine
 10
4.25375
 20
8.65
 30
0.0
 11
4.37875
 21
8.65
 31
0.0
  0
LINE
  5
211
330
17
100
AcDbEntity
  8
A-AREA-IDEN
100
AcDbLine
 10
4.31625
 20
8.65
 30
0.0
 11
4.31625
 21
8.73
 31
0.0
  0
LINE
  5
212
330
17
100
AcDbEntity
  8
A-AREA-IDEN
100
AcDbLine
 10
4.31625
 20
8.73
 30
0.0
 11
4.28625
 21
8.695
 31
0.0
  0
LINE
  5
213
330
17
100
AcDbEntity
  8
A-AREA-IDEN
100
AcDbLine
 10
4.31625
 20
8.73
 30
0.0
 11
4.3462499999999995
 21
8.695
 31
0.0
  0
TEXT
  5
214
330
17
100
AcDbEntity
  8
A-AREA-IDEN
100
AcDbText
 10
4.37125
 20
8.69
 30
0.0
 40
0.054000000000000006
  1
X5 EXIT ONLY
  7
KS-BOLD
 11
4.37125
 21
8.69
 31
0.0
100
AcDbText
  0
LINE
  5
215
330
17
100
AcDbEntity
  8
A-AREA-IDEN
100
AcDbLine
 10
6.37
 20
8.595825
 30
0.0
 11
6.37
 21
8.720825
 31
0.0
  0
LINE
  5
216
330
17
100
AcDbEntity
  8
A-AREA-IDEN
100
AcDbLine
 10
6.37
 20
8.658325
 30
0.0
 11
6.45
 21
8.658325
 31
0.0
  0
LINE
  5
217
330
17
100
AcDbEntity
  8
A-AREA-IDEN
100
AcDbLine
 10
6.45
 20
8.658325
 30
0.0
 11
6.415000000000001
 21
8.628325
 31
0.0
  0
LINE
  5
218
330
17
100
AcDbEntity
  8
A-AREA-IDEN
100
AcDbLine
 10
6.45
 20
8.658325
 30
0.0
 11
6.415000000000001
 21
8.688325
 31
0.0
  0
LINE
  5
219
330
17
100
AcDbEntity
  8
A-AREA-IDEN
100
AcDbLine
 10
6.37
 20
6.764750000000001
 30
0.0
 11
6.37
 21
6.889750000000001
 31
0.0
  0
LINE
  5
21A
330
17
100
AcDbEntity
  8
A-AREA-IDEN
100
AcDbLine
 10
6.37
 20
6.827250000000001
 30
0.0
 11
6.45
 21
6.827250000000001
 31
0.0
  0
LINE
  5
21B
330
17
100
AcDbEntity
  8
A-AREA-IDEN
100
AcDbLine
 10
6.45
 20
6.827250000000001
 30
0.0
 11
6.415000000000001
 21
6.79725
 31
0.0
  0
LINE
  5
21C
330
17
100
AcDbEntity
  8
A-AREA-IDEN
100
AcDbLine
 10
6.45
 20
6.827250000000001
 30
0.0
 11
6.415000000000001
 21
6.8572500000000005
 31
0.0
  0
TEXT
  5
21D
330
17
100
AcDbEntity
  8
A-AREA-IDEN
100
AcDbText
 10
6.48
 20
6.797250000000001
 30
0.0
 40
0.054000000000000006
  1
X7 EXIT ONLY
  7
KS-BOLD
 11
6.48
 21
6.797250000000001
 31
0.0
100
AcDbText
  0
LINE
  5
21E
330
17
100
AcDbEntity
  8
A-AREA-IDEN
100
AcDbLine
 10
6.37
 20
5.0875
 30
0.0
 11
6.37
 21
5.2125
 31
0.0
  0
LINE
  5
21F
330
17
100
AcDbEntity
  8
A-AREA-IDEN
100
AcDbLine
 10
6.37
 20
5.15
 30
0.0
 11
6.45
 21
5.15
 31
0.0
  0
LINE
  5
220
330
17
100
AcDbEntity
  8
A-AREA-IDEN
100
AcDbLine
 10
6.45
 20
5.15
 30
0.0
 11
6.415000000000001
 21
5.12
 31
0.0
  0
LINE
  5
221
330
17
100
AcDbEntity
  8
A-AREA-IDEN
100
AcDbLine
 10
6.45
 20
5.15
 30
0.0
 11
6.415000000000001
 21
5.18
 31
0.0
  0
TEXT
  5
222
330
17
100
AcDbEntity
  8
A-AREA-IDEN
100
AcDbText
 10
6.48
 20
5.12
 30
0.0
 40
0.054000000000000006
  1
X11 EXIT ONLY
  7
KS-BOLD
 11
6.48
 21
5.12
 31
0.0
100
AcDbText
  0
LINE
  5
223
330
17
100
AcDbEntity
  8
A-AREA-IDEN
100
AcDbLine
 10
6.37
 20
3.1375
 30
0.0
 11
6.37
 21
3.2625
 31
0.0
  0
LINE
  5
224
330
17
100
AcDbEntity
  8
A-AREA-IDEN
100
AcDbLine
 10
6.37
 20
3.2
 30
0.0
 11
6.45
 21
3.2
 31
0.0
  0
LINE
  5
225
330
17
100
AcDbEntity
  8
A-AREA-IDEN
100
AcDbLine
 10
6.45
 20
3.2
 30
0.0
 11
6.415000000000001
 21
3.17
 31
0.0
  0
LINE
  5
226
330
17
100
AcDbEntity
  8
A-AREA-IDEN
100
AcDbLine
 10
6.45
 20
3.2
 30
0.0
 11
6.415000000000001
 21
3.2300000000000004
 31
0.0
  0
TEXT
  5
227
330
17
100
AcDbEntity
  8
A-AREA-IDEN
100
AcDbText
 10
6.48
 20
3.1700000000000004
 30
0.0
 40
0.054000000000000006
  1
X8 EXIT ONLY
  7
KS-BOLD
 11
6.48
 21
3.1700000000000004
 31
0.0
100
AcDbText
  0
LINE
  5
228
330
17
100
AcDbEntity
  8
A-AREA-IDEN
100
AcDbLine
 10
6.00645
 20
2.35
 30
0.0
 11
6.13145
 21
2.35
 31
0.0
  0
LINE
  5
229
330
17
100
AcDbEntity
  8
A-AREA-IDEN
100
AcDbLine
 10
6.06895
 20
2.35
 30
0.0
 11
6.06895
 21
2.27
 31
0.0
  0
LINE
  5
22A
330
17
100
AcDbEntity
  8
A-AREA-IDEN
100
AcDbLine
 10
6.06895
 20
2.27
 30
0.0
 11
6.038950000000001
 21
2.305
 31
0.0
  0
LINE
  5
22B
330
17
100
AcDbEntity
  8
A-AREA-IDEN
100
AcDbLine
 10
6.06895
 20
2.27
 30
0.0
 11
6.09895
 21
2.305
 31
0.0
  0
LINE
  5
22C
330
17
100
AcDbEntity
  8
A-AREA-IDEN
100
AcDbLine
 10
1.2158250000000002
 20
2.35
 30
0.0
 11
1.3408250000000002
 21
2.35
 31
0.0
  0
LINE
  5
22D
330
17
100
AcDbEntity
  8
A-AREA-IDEN
100
AcDbLine
 10
1.2783250000000002
 20
2.35
 30
0.0
 11
1.2783250000000002
 21
2.27
 31
0.0
  0
LINE
  5
22E
330
17
100
AcDbEntity
  8
A-AREA-IDEN
100
AcDbLine
 10
1.2783250000000002
 20
2.27
 30
0.0
 11
1.2483250000000001
 21
2.305
 31
0.0
  0
LINE
  5
22F
330
17
100
AcDbEntity
  8
A-AREA-IDEN
100
AcDbLine
 10
1.2783250000000002
 20
2.27
 30
0.0
 11
1.3083250000000002
 21
2.305
 31
0.0
  0
LINE
  5
230
330
17
100
AcDbEntity
  8
A-AREA-IDEN
100
AcDbLine
 10
2.7700000000000005
 20
9.4
 30
0.0
 11
2.8950000000000005
 21
9.4
 31
0.0
  0
TEXT
  5
231
330
17
100
AcDbEntity
  8
A-AREA-IDEN
100
AcDbText
 10
2.7575000000000003
 20
9.440000000000001
 30
0.0
 40
0.052000000000000005
  1
S1 SERVICE / LOADING (D-034)
  7
KS-BOLD
 11
2.7575000000000003
 21
9.440000000000001
 31
0.0
100
AcDbText
  0
LWPOLYLINE
  5
232
330
17
100
AcDbEntity
  8
A-AREA-BLCK
100
AcDbPolyline
 90
4
 70
1
 10
1.12
 20
5.85
 10
2.1637500000000003
 20
5.85
 10
2.1637500000000003
 20
7.949999999999999
 10
1.12
 20
7.949999999999999
  0
TEXT
  5
233
330
17
100
AcDbEntity
  8
A-AREA-IDEN
100
AcDbText
 10
1.6418750000000002
 20
6.935933333333334
 30
0.0
 40
0.06999999999999999
  1
1  BOYS LOCKER
  7
KS-BOLD
 72
1
 11
1.6418750000000002
 21
6.935933333333334
 31
0.0
100
AcDbText
  0
TEXT
  5
234
330
17
100
AcDbEntity
  8
A-AREA-IDEN
100
AcDbText
 10
1.6418750000000002
 20
6.807600000000001
 30
0.0
 40
0.06999999999999999
  1
3,507 SF
  7
KS-REG
 72
1
 11
1.6418750000000002
 21
6.807600000000001
 31
0.0
100
AcDbText
  0
LWPOLYLINE
  5
235
330
17
100
AcDbEntity
  8
A-AREA-BLCK
100
AcDbPolyline
 90
4
 70
1
 10
1.12
 20
3.75
 10
2.1637500000000003
 20
3.75
 10
2.1637500000000003
 20
5.85
 10
1.12
 20
5.85
  0
TEXT
  5
236
330
17
100
AcDbEntity
  8
A-AREA-IDEN
100
AcDbText
 10
1.6418750000000002
 20
4.835933333333334
 30
0.0
 40
0.06999999999999999
  1
2  GIRLS LOCKER
  7
KS-BOLD
 72
1
 11
1.6418750000000002
 21
4.835933333333334
 31
0.0
100
AcDbText
  0
TEXT
  5
237
330
17
100
AcDbEntity
  8
A-AREA-IDEN
100
AcDbText
 10
1.6418750000000002
 20
4.707600000000001
 30
0.0
 40
0.06999999999999999
  1
3,507 SF
  7
KS-REG
 72
1
 11
1.6418750000000002
 21
4.707600000000001
 31
0.0
100
AcDbText
  0
LWPOLYLINE
  5
238
330
17
100
AcDbEntity
  8
A-AREA-BLCK
100
AcDbPolyline
 90
4
 70
1
 10
1.12
 20
7.950000000000001
 10
2.028325
 20
7.950000000000001
 10
2.028325
 20
8.65
 10
1.12
 20
8.65
  0
TEXT
  5
239
330
17
100
AcDbEntity
  8
A-AREA-IDEN
100
AcDbText
 10
1.5741625000000001
 20
8.325666666666667
 30
0.0
 40
0.05
  1
3  MECH / ELEC (NW)
  7
KS-BOLD
 72
1
 11
1.5741625000000001
 21
8.325666666666667
 31
0.0
100
AcDbText
  0
TEXT
  5
23A
330
17
100
AcDbEntity
  8
A-AREA-IDEN
100
AcDbText
 10
1.5741625000000001
 20
8.234
 30
0.0
 40
0.05
  1
1,017 SF
  7
KS-REG
 72
1
 11
1.5741625000000001
 21
8.234
 31
0.0
100
AcDbText
  0
LWPOLYLINE
  5
23B
330
17
100
AcDbEntity
  8
A-AREA-BLCK
100
AcDbPolyline
 90
4
 70
1
 10
2.72
 20
2.35
 10
3.22
 20
2.35
 10
3.22
 20
3.225
 10
2.72
 20
3.225
  0
TEXT
  5
23C
330
17
100
AcDbEntity
  8
A-AREA-IDEN
100
AcDbText
 10
2.8699000000000003
 20
2.7875
 30
0.0
 40
0.06999999999999999
  1
4  MEN
 50
90.0
  7
KS-BOLD
 72
1
 11
2.8699000000000003
 21
2.7875
 31
0.0
100
AcDbText
  0
TEXT
  5
23D
330
17
100
AcDbEntity
  8
A-AREA-IDEN
100
AcDbText
 10
2.9982333333333333
 20
2.7875
 30
0.0
 40
0.06999999999999999
  1
700 SF
 50
90.0
  7
KS-REG
 72
1
 11
2.9982333333333333
 21
2.7875
 31
0.0
100
AcDbText
  0
TEXT
  5
23E
330
17
100
AcDbEntity
  8
A-AREA-IDEN
100
AcDbText
 10
3.1265666666666667
 20
2.7875
 30
0.0
 40
0.06999999999999999
  1
WC 10 · LAV 4
 50
90.0
  7
KS-REG
 72
1
 11
3.1265666666666667
 21
2.7875
 31
0.0
100
AcDbText
  0
LWPOLYLINE
  5
23F
330
17
100
AcDbEntity
  8
A-AREA-BLCK
100
AcDbPolyline
 90
4
 70
1
 10
4.67
 20
2.35
 10
5.245
 20
2.35
 10
5.245
 20
3.6
 10
4.67
 20
3.6
  0
TEXT
  5
240
330
17
100
AcDbEntity
  8
A-AREA-IDEN
100
AcDbText
 10
4.9575000000000005
 20
3.0465
 30
0.0
 40
0.05
  1
5  WOMEN
  7
KS-BOLD
 72
1
 11
4.9575000000000005
 21
3.0465
 31
0.0
100
AcDbText
  0
TEXT
  5
241
330
17
100
AcDbEntity
  8
A-AREA-IDEN
100
AcDbText
 10
4.9575000000000005
 20
2.954833333333333
 30
0.0
 40
0.05
  1
1,150 SF
  7
KS-REG
 72
1
 11
4.9575000000000005
 21
2.954833333333333
 31
0.0
100
AcDbText
  0
TEXT
  5
242
330
17
100
AcDbEntity
  8
A-AREA-IDEN
100
AcDbText
 10
4.9575000000000005
 20
2.863166666666667
 30
0.0
 40
0.05
  1
WC 18 · LAV 5
  7
KS-REG
 72
1
 11
4.9575000000000005
 21
2.863166666666667
 31
0.0
100
AcDbText
  0
LWPOLYLINE
  5
243
330
17
100
AcDbEntity
  8
A-AREA-BLCK
100
AcDbPolyline
 90
4
 70
1
 10
6.07
 20
3.2750000000000004
 10
6.37
 20
3.2750000000000004
 10
6.37
 20
3.5250000000000004
 10
6.07
 20
3.5250000000000004
  0
TEXT
  5
244
330
17
100
AcDbEntity
  8
A-AREA-IDEN
100
AcDbText
 10
6.220000000000001
 20
3.428233333333334
 30
0.0
 40
0.055
  1
6
  7
KS-BOLD
 72
1
 11
6.220000000000001
 21
3.428233333333334
 31
0.0
100
AcDbText
  0
TEXT
  5
245
330
17
100
AcDbEntity
  8
A-AREA-IDEN
100
AcDbText
 10
6.220000000000001
 20
3.3274000000000004
 30
0.0
 40
0.055
  1
120
  7
KS-REG
 72
1
 11
6.220000000000001
 21
3.3274000000000004
 31
0.0
100
AcDbText
  0
LWPOLYLINE
  5
246
330
17
100
AcDbEntity
  8
A-AREA-BLCK
100
AcDbPolyline
 90
4
 70
1
 10
3.2950000000000004
 20
2.35
 10
4.595000000000001
 20
2.35
 10
4.595000000000001
 20
2.6
 10
3.2950000000000004
 20
2.6
  0
TEXT
  5
247
330
17
100
AcDbEntity
  8
A-AREA-IDEN
100
AcDbText
 10
3.9450000000000003
 20
2.5032333333333336
 30
0.0
 40
0.055
  1
7  VESTIBULE
  7
KS-BOLD
 72
1
 11
3.9450000000000003
 21
2.5032333333333336
 31
0.0
100
AcDbText
  0
TEXT
  5
248
330
17
100
AcDbEntity
  8
A-AREA-IDEN
100
AcDbText
 10
3.9450000000000003
 20
2.4024
 30
0.0
 40
0.055
  1
520 SF
  7
KS-REG
 72
1
 11
3.9450000000000003
 21
2.4024
 31
0.0
100
AcDbText
  0
LWPOLYLINE
  5
249
330
17
100
AcDbEntity
  8
A-AREA-BLCK
100
AcDbPolyline
 90
4
 70
1
 10
5.245
 20
3.2917500000000004
 10
5.62
 20
3.2917500000000004
 10
5.62
 20
3.7500000000000004
 10
5.245
 20
3.7500000000000004
  0
TEXT
  5
24A
330
17
100
AcDbEntity
  8
A-AREA-IDEN
100
AcDbText
 10
5.4325
 20
3.5568083333333336
 30
0.0
 40
0.06999999999999999
  1
8
  7
KS-BOLD
 72
1
 11
5.4325
 21
3.5568083333333336
 31
0.0
100
AcDbText
  0
TEXT
  5
24B
330
17
100
AcDbEntity
  8
A-AREA-IDEN
100
AcDbText
 10
5.4325
 20
3.428475
 30
0.0
 40
0.06999999999999999
  1
275
  7
KS-REG
 72
1
 11
5.4325
 21
3.428475
 31
0.0
100
AcDbText
  0
LWPOLYLINE
  5
24C
330
17
100
AcDbEntity
  8
A-AREA-BLCK
100
AcDbPolyline
 90
4
 70
1
 10
2.5200000000000005
 20
7.950000000000001
 10
3.1450000000000005
 20
7.950000000000001
 10
3.1450000000000005
 20
8.65
 10
2.5200000000000005
 20
8.65
  0
TEXT
  5
24D
330
17
100
AcDbEntity
  8
A-AREA-IDEN
100
AcDbText
 10
2.8325000000000005
 20
8.335933333333333
 30
0.0
 40
0.06999999999999999
  1
9
  7
KS-BOLD
 72
1
 11
2.8325000000000005
 21
8.335933333333333
 31
0.0
100
AcDbText
  0
TEXT
  5
24E
330
17
100
AcDbEntity
  8
A-AREA-IDEN
100
AcDbText
 10
2.8325000000000005
 20
8.207600000000001
 30
0.0
 40
0.06999999999999999
  1
700
  7
KS-REG
 72
1
 11
2.8325000000000005
 21
8.207600000000001
 31
0.0
100
AcDbText
  0
LWPOLYLINE
  5
24F
330
17
100
AcDbEntity
  8
A-AREA-BLCK
100
AcDbPolyline
 90
4
 70
1
 10
3.145
 20
7.950000000000001
 10
3.41275
 20
7.950000000000001
 10
3.41275
 20
8.65
 10
3.145
 20
8.65
  0
TEXT
  5
250
330
17
100
AcDbEntity
  8
A-AREA-IDEN
100
AcDbText
 10
3.2788749999999998
 20
8.335933333333333
 30
0.0
 40
0.06999999999999999
  1
10
  7
KS-BOLD
 72
1
 11
3.2788749999999998
 21
8.335933333333333
 31
0.0
100
AcDbText
  0
TEXT
  5
251
330
17
100
AcDbEntity
  8
A-AREA-IDEN
100
AcDbText
 10
3.2788749999999998
 20
8.207600000000001
 30
0.0
 40
0.06999999999999999
  1
300
  7
KS-REG
 72
1
 11
3.2788749999999998
 21
8.207600000000001
 31
0.0
100
AcDbText
  0
LWPOLYLINE
  5
252
330
17
100
AcDbEntity
  8
A-AREA-BLCK
100
AcDbPolyline
 90
4
 70
1
 10
3.41275
 20
7.950000000000001
 10
4.2162500000000005
 20
7.950000000000001
 10
4.2162500000000005
 20
8.65
 10
3.41275
 20
8.65
  0
TEXT
  5
253
330
17
100
AcDbEntity
  8
A-AREA-IDEN
100
AcDbText
 10
3.8145000000000002
 20
8.335933333333333
 30
0.0
 40
0.06999999999999999
  1
11
  7
KS-BOLD
 72
1
 11
3.8145000000000002
 21
8.335933333333333
 31
0.0
100
AcDbText
  0
TEXT
  5
254
330
17
100
AcDbEntity
  8
A-AREA-IDEN
100
AcDbText
 10
3.8145000000000002
 20
8.207600000000001
 30
0.0
 40
0.06999999999999999
  1
900
  7
KS-REG
 72
1
 11
3.8145000000000002
 21
8.207600000000001
 31
0.0
100
AcDbText
  0
LWPOLYLINE
  5
255
330
17
100
AcDbEntity
  8
A-AREA-BLCK
100
AcDbPolyline
 90
4
 70
1
 10
4.41625
 20
7.950000000000001
 10
5.21975
 20
7.950000000000001
 10
5.21975
 20
8.65
 10
4.41625
 20
8.65
  0
TEXT
  5
256
330
17
100
AcDbEntity
  8
A-AREA-IDEN
100
AcDbText
 10
4.8180000000000005
 20
8.335933333333333
 30
0.0
 40
0.06999999999999999
  1
12
  7
KS-BOLD
 72
1
 11
4.8180000000000005
 21
8.335933333333333
 31
0.0
100
AcDbText
  0
TEXT
  5
257
330
17
100
AcDbEntity
  8
A-AREA-IDEN
100
AcDbText
 10
4.8180000000000005
 20
8.207600000000001
 30
0.0
 40
0.06999999999999999
  1
900
  7
KS-REG
 72
1
 11
4.8180000000000005
 21
8.207600000000001
 31
0.0
100
AcDbText
  0
LWPOLYLINE
  5
258
330
17
100
AcDbEntity
  8
A-AREA-BLCK
100
AcDbPolyline
 90
4
 70
1
 10
5.82
 20
6.927250000000001
 10
6.37
 20
6.927250000000001
 10
6.37
 20
7.950000000000001
 10
5.82
 20
7.950000000000001
  0
TEXT
  5
259
330
17
100
AcDbEntity
  8
A-AREA-IDEN
100
AcDbText
 10
6.066766666666667
 20
7.438625
 30
0.0
 40
0.055
  1
13  EVENT LOCKER 3
 50
90.0
  7
KS-BOLD
 72
1
 11
6.066766666666667
 21
7.438625
 31
0.0
100
AcDbText
  0
TEXT
  5
25A
330
17
100
AcDbEntity
  8
A-AREA-IDEN
100
AcDbText
 10
6.1676
 20
7.438625
 30
0.0
 40
0.055
  1
900 SF
 50
90.0
  7
KS-REG
 72
1
 11
6.1676
 21
7.438625
 31
0.0
100
AcDbText
  0
LWPOLYLINE
  5
25B
330
17
100
AcDbEntity
  8
A-AREA-BLCK
100
AcDbPolyline
 90
4
 70
1
 10
5.82
 20
5.7045
 10
6.37
 20
5.7045
 10
6.37
 20
6.727250000000001
 10
5.82
 20
6.727250000000001
  0
TEXT
  5
25C
330
17
100
AcDbEntity
  8
A-AREA-IDEN
100
AcDbText
 10
6.066766666666667
 20
6.2158750000000005
 30
0.0
 40
0.055
  1
14  EVENT LOCKER 4
 50
90.0
  7
KS-BOLD
 72
1
 11
6.066766666666667
 21
6.2158750000000005
 31
0.0
100
AcDbText
  0
TEXT
  5
25D
330
17
100
AcDbEntity
  8
A-AREA-IDEN
100
AcDbText
 10
6.1676
 20
6.2158750000000005
 30
0.0
 40
0.055
  1
900 SF
 50
90.0
  7
KS-REG
 72
1
 11
6.1676
 21
6.2158750000000005
 31
0.0
100
AcDbText
  0
LWPOLYLINE
  5
25E
330
17
100
AcDbEntity
  8
A-AREA-BLCK
100
AcDbPolyline
 90
4
 70
1
 10
5.21975
 20
7.950000000000001
 10
5.767925
 20
7.950000000000001
 10
5.767925
 20
8.65
 10
5.21975
 20
8.65
  0
TEXT
  5
25F
330
17
100
AcDbEntity
  8
A-AREA-IDEN
100
AcDbText
 10
5.4630375
 20
8.3
 30
0.0
 40
0.06
  1
15  MECH (N)
 50
90.0
  7
KS-BOLD
 72
1
 11
5.4630375
 21
8.3
 31
0.0
100
AcDbText
  0
TEXT
  5
260
330
17
100
AcDbEntity
  8
A-AREA-IDEN
100
AcDbText
 10
5.573037500000001
 20
8.3
 30
0.0
 40
0.06
  1
614 SF
 50
90.0
  7
KS-REG
 72
1
 11
5.573037500000001
 21
8.3
 31
0.0
100
AcDbText
  0
LWPOLYLINE
  5
261
330
17
100
AcDbEntity
  8
A-AREA-BLCK
100
AcDbPolyline
 90
4
 70
1
 10
5.82
 20
3.75
 10
6.17
 20
3.75
 10
6.17
 20
4.9545
 10
5.82
 20
4.9545
  0
TEXT
  5
262
330
17
100
AcDbEntity
  8
A-AREA-IDEN
100
AcDbText
 10
5.959066666666667
 20
4.35225
 30
0.0
 40
0.06999999999999999
  1
16  MECH (E)
 50
90.0
  7
KS-BOLD
 72
1
 11
5.959066666666667
 21
4.35225
 31
0.0
100
AcDbText
  0
TEXT
  5
263
330
17
100
AcDbEntity
  8
A-AREA-IDEN
100
AcDbText
 10
6.0874
 20
4.35225
 30
0.0
 40
0.06999999999999999
  1
675 SF
 50
90.0
  7
KS-REG
 72
1
 11
6.0874
 21
4.35225
 31
0.0
100
AcDbText
  0
LWPOLYLINE
  5
264
330
17
100
AcDbEntity
  8
A-AREA-BLCK
100
AcDbPolyline
 90
4
 70
1
 10
5.767925
 20
7.950000000000001
 10
6.37
 20
7.950000000000001
 10
6.37
 20
8.500000000000002
 10
5.767925
 20
8.500000000000002
  0
TEXT
  5
265
330
17
100
AcDbEntity
  8
A-AREA-IDEN
100
AcDbText
 10
6.0689625000000005
 20
8.260933333333332
 30
0.0
 40
0.06999999999999999
  1
22
  7
KS-BOLD
 72
1
 11
6.0689625000000005
 21
8.260933333333332
 31
0.0
100
AcDbText
  0
TEXT
  5
266
330
17
100
AcDbEntity
  8
A-AREA-IDEN
100
AcDbText
 10
6.0689625000000005
 20
8.1326
 30
0.0
 40
0.06999999999999999
  1
530
  7
KS-REG
 72
1
 11
6.0689625000000005
 21
8.1326
 31
0.0
100
AcDbText
  0
LWPOLYLINE
  5
267
330
17
100
AcDbEntity
  8
A-AREA-BLCK
100
AcDbPolyline
 90
4
 70
1
 10
2.42
 20
8.65
 10
4.17
 20
8.65
 10
4.17
 20
9.4
 10
2.42
 20
9.4
  0
TEXT
  5
268
330
17
100
AcDbEntity
  8
A-AREA-IDEN
100
AcDbText
 10
3.2950000000000004
 20
9.053233333333333
 30
0.0
 40
0.055
  1
24  CHAIR / TABLE / STAGE STORAGE
  7
KS-BOLD
 72
1
 11
3.2950000000000004
 21
9.053233333333333
 31
0.0
100
AcDbText
  0
TEXT
  5
269
330
17
100
AcDbEntity
  8
A-AREA-IDEN
100
AcDbText
 10
3.2950000000000004
 20
8.9524
 30
0.0
 40
0.055
  1
2,100 SF
  7
KS-REG
 72
1
 11
3.2950000000000004
 21
8.9524
 31
0.0
100
AcDbText
  0
LWPOLYLINE
  5
26A
330
17
100
AcDbEntity
  8
A-AREA-BLCK
100
AcDbPolyline
 90
4
 70
1
 10
1.4366750000000001
 20
2.35
 10
2.72
 20
2.35
 10
2.72
 20
2.825
 10
1.4366750000000001
 20
2.825
  0
TEXT
  5
26B
330
17
100
AcDbEntity
  8
A-AREA-IDEN
100
AcDbText
 10
2.0783375
 20
2.6234333333333333
 30
0.0
 40
0.06999999999999999
  1
23  FLEX / STORAGE
  7
KS-BOLD
 72
1
 11
2.0783375
 21
2.6234333333333333
 31
0.0
100
AcDbText
  0
TEXT
  5
26C
330
17
100
AcDbEntity
  8
A-AREA-IDEN
100
AcDbText
 10
2.0783375
 20
2.4951
 30
0.0
 40
0.06999999999999999
  1
975 SF
  7
KS-REG
 72
1
 11
2.0783375
 21
2.4951
 31
0.0
100
AcDbText
  0
LWPOLYLINE
  5
26D
330
17
100
AcDbEntity
  8
A-AREA-BLCK
100
AcDbPolyline
 90
4
 70
1
 10
5.82
 20
5.054500000000001
 10
6.17
 20
5.054500000000001
 10
6.17
 20
5.704500000000001
 10
5.82
 20
5.704500000000001
  0
TEXT
  5
26E
330
17
100
AcDbEntity
  8
A-AREA-IDEN
100
AcDbText
 10
5.995
 20
5.4154333333333335
 30
0.0
 40
0.06999999999999999
  1
25
  7
KS-BOLD
 72
1
 11
5.995
 21
5.4154333333333335
 31
0.0
100
AcDbText
  0
TEXT
  5
26F
330
17
100
AcDbEntity
  8
A-AREA-IDEN
100
AcDbText
 10
5.995
 20
5.287100000000001
 30
0.0
 40
0.06999999999999999
  1
364
  7
KS-REG
 72
1
 11
5.995
 21
5.287100000000001
 31
0.0
100
AcDbText
  0
LWPOLYLINE
  5
270
330
17
100
AcDbEntity
  8
A-AREA-BLCK
100
AcDbPolyline
 90
4
 70
1
 10
6.37
 20
5.32725
 10
7.12
 20
5.32725
 10
7.12
 20
6.177250000000001
 10
6.37
 20
6.177250000000001
  0
TEXT
  5
271
330
17
100
AcDbEntity
  8
A-AREA-IDEN
100
AcDbText
 10
6.745
 20
5.8309
 30
0.0
 40
0.055
  1
26  WOMEN (2)
  7
KS-BOLD
 72
1
 11
6.745
 21
5.8309
 31
0.0
100
AcDbText
  0
TEXT
  5
272
330
17
100
AcDbEntity
  8
A-AREA-IDEN
100
AcDbText
 10
6.745
 20
5.730066666666667
 30
0.0
 40
0.055
  1
1,020 SF
  7
KS-REG
 72
1
 11
6.745
 21
5.730066666666667
 31
0.0
100
AcDbText
  0
TEXT
  5
273
330
17
100
AcDbEntity
  8
A-AREA-IDEN
100
AcDbText
 10
6.745
 20
5.6292333333333335
 30
0.0
 40
0.055
  1
WC 24 · LAV 7
  7
KS-REG
 72
1
 11
6.745
 21
5.6292333333333335
 31
0.0
100
AcDbText
  0
LWPOLYLINE
  5
274
330
17
100
AcDbEntity
  8
A-AREA-BLCK
100
AcDbPolyline
 90
4
 70
1
 10
5.82
 20
4.9545
 10
6.17
 20
4.9545
 10
6.17
 20
5.0545
 10
5.82
 20
5.0545
  0
LWPOLYLINE
  5
275
330
17
100
AcDbEntity
  8
A-AREA-BLCK
100
AcDbPolyline
 90
4
 70
1
 10
6.37
 20
6.177250000000001
 10
7.12
 20
6.177250000000001
 10
7.12
 20
6.727250000000001
 10
6.37
 20
6.727250000000001
  0
TEXT
  5
276
330
17
100
AcDbEntity
  8
A-AREA-IDEN
100
AcDbText
 10
6.745
 20
6.483050000000001
 30
0.0
 40
0.06
  1
28  MECH (E2)
  7
KS-BOLD
 72
1
 11
6.745
 21
6.483050000000001
 31
0.0
100
AcDbText
  0
TEXT
  5
277
330
17
100
AcDbEntity
  8
A-AREA-IDEN
100
AcDbText
 10
6.745
 20
6.373050000000001
 30
0.0
 40
0.06
  1
660 SF
  7
KS-REG
 72
1
 11
6.745
 21
6.373050000000001
 31
0.0
100
AcDbText
  0
TEXT
  5
278
330
17
100
AcDbEntity
  8
A-AREA-IDEN
100
AcDbText
 10
3.72
 20
3.2407800000000004
 30
0.0
 40
0.04599999999999999
  1
LOBBY /
  7
KS-BOLD
 72
1
 11
3.72
 21
3.2407800000000004
 31
0.0
100
AcDbText
  0
TEXT
  5
279
330
17
100
AcDbEntity
  8
A-AREA-IDEN
100
AcDbText
 10
3.72
 20
3.156446666666667
 30
0.0
 40
0.04599999999999999
  1
HALL OF CHAMPIONS
  7
KS-REG
 72
1
 11
3.72
 21
3.156446666666667
 31
0.0
100
AcDbText
  0
TEXT
  5
27A
330
17
100
AcDbEntity
  8
A-AREA-IDEN
100
AcDbText
 10
3.72
 20
3.0721133333333337
 30
0.0
 40
0.04599999999999999
  1
(double height)
  7
KS-REG
 72
1
 11
3.72
 21
3.0721133333333337
 31
0.0
100
AcDbText
  0
TEXT
  5
27B
330
17
100
AcDbEntity
  8
A-AREA-IDEN
100
AcDbText
 10
2.3718749999999997
 20
5.85
 30
0.0
 40
0.062
  1
ATHLETE CORRIDOR
 50
90.0
  7
KS-BOLD
 72
1
 11
2.3718749999999997
 21
5.85
 31
0.0
100
AcDbText
  0
TEXT
  5
27C
330
17
100
AcDbEntity
  8
A-AREA-IDEN
100
AcDbText
 10
1.8450000000000002
 20
3.429066666666667
 30
0.0
 40
0.055
  1
FLEX /
  7
KS-BOLD
 72
1
 11
1.8450000000000002
 21
3.429066666666667
 31
0.0
100
AcDbText
  0
TEXT
  5
27D
330
17
100
AcDbEntity
  8
A-AREA-IDEN
100
AcDbText
 10
1.8450000000000002
 20
3.328233333333334
 30
0.0
 40
0.055
  1
TEAM ASSEMBLY
  7
KS-REG
 72
1
 11
1.8450000000000002
 21
3.328233333333334
 31
0.0
100
AcDbText
  0
TEXT
  5
27E
330
17
100
AcDbEntity
  8
A-AREA-IDEN
100
AcDbText
 10
1.8450000000000002
 20
3.2274000000000003
 30
0.0
 40
0.055
  1
(unprogrammed, kept as-is)
  7
KS-REG
 72
1
 11
1.8450000000000002
 21
3.2274000000000003
 31
0.0
100
AcDbText
  0
TEXT
  5
27F
330
17
100
AcDbEntity
  8
A-AREA-IDEN
100
AcDbText
 10
1.8450000000000002
 20
3.1265666666666667
 30
0.0
 40
0.055
  1
teams arrive via E1 + CD-1
  7
KS-REG
 72
1
 11
1.8450000000000002
 21
3.1265666666666667
 31
0.0
100
AcDbText
  0
TEXT
  5
280
330
17
100
AcDbEntity
  8
A-AREA-IDEN
100
AcDbText
 10
2.87
 20
3.629833333333334
 30
0.0
 40
0.05
  1
ATHLETE ROUTE
  7
KS-BOLD
 72
1
 11
2.87
 21
3.629833333333334
 31
0.0
100
AcDbText
  0
TEXT
  5
281
330
17
100
AcDbEntity
  8
A-AREA-IDEN
100
AcDbText
 10
2.87
 20
3.450196666666667
 30
0.0
 40
0.04599999999999999
  1
CONCOURSE (W)
  7
KS-BOLD
 72
1
 11
2.87
 21
3.450196666666667
 31
0.0
100
AcDbText
  0
TEXT
  5
282
330
17
100
AcDbEntity
  8
A-AREA-IDEN
100
AcDbText
 10
4.34625
 20
8.3
 30
0.0
 40
0.062
  1
EXIT (N)
 50
90.0
  7
KS-BOLD
 72
1
 11
4.34625
 21
8.3
 31
0.0
100
AcDbText
  0
TEXT
  5
283
330
17
100
AcDbEntity
  8
A-AREA-IDEN
100
AcDbText
 10
6.095000000000001
 20
6.8014366666666675
 30
0.0
 40
0.064
  1
EXIT (E)
  7
KS-BOLD
 72
1
 11
6.095000000000001
 21
6.8014366666666675
 31
0.0
100
AcDbText
  0
TEXT
  5
284
330
17
100
AcDbEntity
  8
A-AREA-IDEN
100
AcDbText
 10
6.300000000000001
 20
4.72725
 30
0.0
 40
0.062
  1
PUBLIC CORRIDOR (E)
 50
90.0
  7
KS-BOLD
 72
1
 11
6.300000000000001
 21
4.72725
 31
0.0
100
AcDbText
  0
TEXT
  5
285
330
17
100
AcDbEntity
  8
A-AREA-IDEN
100
AcDbText
 10
5.8075
 20
3.011686666666667
 30
0.0
 40
0.064
  1
CONCOURSE (E)
  7
KS-BOLD
 72
1
 11
5.8075
 21
3.011686666666667
 31
0.0
100
AcDbText
  0
LWPOLYLINE
  5
286
330
17
100
AcDbEntity
  8
A-FLOR-STRS
100
AcDbPolyline
 90
4
 70
1
 10
2.028325
 20
8.047925000000001
 10
2.345
 20
8.047925000000001
 10
2.345
 20
8.65
 10
2.028325
 20
8.65
  0
LINE
  5
287
330
17
100
AcDbEntity
  8
A-FLOR-STRS
100
AcDbLine
 10
2.1866625
 20
8.097925
 30
0.0
 11
2.1866625
 21
8.6
 31
0.0
  0
LINE
  5
288
330
17
100
AcDbEntity
  8
A-FLOR-STRS
100
AcDbLine
 10
2.028325
 20
8.181604166666666
 30
0.0
 11
2.345
 21
8.181604166666666
 31
0.0
  0
LINE
  5
289
330
17
100
AcDbEntity
  8
A-FLOR-STRS
100
AcDbLine
 10
2.028325
 20
8.265283333333334
 30
0.0
 11
2.345
 21
8.265283333333334
 31
0.0
  0
LINE
  5
28A
330
17
100
AcDbEntity
  8
A-FLOR-STRS
100
AcDbLine
 10
2.028325
 20
8.3489625
 30
0.0
 11
2.345
 21
8.3489625
 31
0.0
  0
LINE
  5
28B
330
17
100
AcDbEntity
  8
A-FLOR-STRS
100
AcDbLine
 10
2.028325
 20
8.432641666666667
 30
0.0
 11
2.345
 21
8.432641666666667
 31
0.0
  0
LINE
  5
28C
330
17
100
AcDbEntity
  8
A-FLOR-STRS
100
AcDbLine
 10
2.028325
 20
8.516320833333333
 30
0.0
 11
2.345
 21
8.516320833333333
 31
0.0
  0
TEXT
  5
28D
330
17
100
AcDbEntity
  8
A-AREA-IDEN
100
AcDbText
 10
2.1316625
 20
8.69
 30
0.0
 40
0.056
  1
ST-1 · X4 EXIT ONLY
  7
KS-BOLD
 72
2
 11
2.1316625
 21
8.69
 31
0.0
100
AcDbText
  0
LWPOLYLINE
  5
28E
330
17
100
AcDbEntity
  8
A-FLOR-STRS
100
AcDbPolyline
 90
4
 70
1
 10
5.767925
 20
8.5
 10
6.37
 20
8.5
 10
6.37
 20
8.816675
 10
5.767925
 20
8.816675
  0
LINE
  5
28F
330
17
100
AcDbEntity
  8
A-FLOR-STRS
100
AcDbLine
 10
5.817925000000001
 20
8.6583375
 30
0.0
 11
6.32
 21
8.6583375
 31
0.0
  0
LINE
  5
290
330
17
100
AcDbEntity
  8
A-FLOR-STRS
100
AcDbLine
 10
5.901604166666667
 20
8.5
 30
0.0
 11
5.901604166666667
 21
8.816675
 31
0.0
  0
LINE
  5
291
330
17
100
AcDbEntity
  8
A-FLOR-STRS
100
AcDbLine
 10
5.985283333333334
 20
8.5
 30
0.0
 11
5.985283333333334
 21
8.816675
 31
0.0
  0
LINE
  5
292
330
17
100
AcDbEntity
  8
A-FLOR-STRS
100
AcDbLine
 10
6.0689625000000005
 20
8.5
 30
0.0
 11
6.0689625000000005
 21
8.816675
 31
0.0
  0
LINE
  5
293
330
17
100
AcDbEntity
  8
A-FLOR-STRS
100
AcDbLine
 10
6.152641666666667
 20
8.5
 30
0.0
 11
6.152641666666667
 21
8.816675
 31
0.0
  0
LINE
  5
294
330
17
100
AcDbEntity
  8
A-FLOR-STRS
100
AcDbLine
 10
6.236320833333333
 20
8.5
 30
0.0
 11
6.236320833333333
 21
8.816675
 31
0.0
  0
TEXT
  5
295
330
17
100
AcDbEntity
  8
A-AREA-IDEN
100
AcDbText
 10
6.0689625000000005
 20
8.856675000000001
 30
0.0
 40
0.056
  1
ST-2
  7
KS-BOLD
 72
1
 11
6.0689625000000005
 21
8.856675000000001
 31
0.0
100
AcDbText
  0
LWPOLYLINE
  5
296
330
17
100
AcDbEntity
  8
A-FLOR-STRS
100
AcDbPolyline
 90
4
 70
1
 10
5.767925
 20
2.35
 10
6.37
 20
2.35
 10
6.37
 20
2.666675
 10
5.767925
 20
2.666675
  0
LINE
  5
297
330
17
100
AcDbEntity
  8
A-FLOR-STRS
100
AcDbLine
 10
5.817925000000001
 20
2.5083375
 30
0.0
 11
6.32
 21
2.5083375
 31
0.0
  0
LINE
  5
298
330
17
100
AcDbEntity
  8
A-FLOR-STRS
100
AcDbLine
 10
5.901604166666667
 20
2.35
 30
0.0
 11
5.901604166666667
 21
2.666675
 31
0.0
  0
LINE
  5
299
330
17
100
AcDbEntity
  8
A-FLOR-STRS
100
AcDbLine
 10
5.985283333333334
 20
2.35
 30
0.0
 11
5.985283333333334
 21
2.666675
 31
0.0
  0
LINE
  5
29A
330
17
100
AcDbEntity
  8
A-FLOR-STRS
100
AcDbLine
 10
6.0689625000000005
 20
2.35
 30
0.0
 11
6.0689625000000005
 21
2.666675
 31
0.0
  0
LINE
  5
29B
330
17
100
AcDbEntity
  8
A-FLOR-STRS
100
AcDbLine
 10
6.152641666666667
 20
2.35
 30
0.0
 11
6.152641666666667
 21
2.666675
 31
0.0
  0
LINE
  5
29C
330
17
100
AcDbEntity
  8
A-FLOR-STRS
100
AcDbLine
 10
6.236320833333333
 20
2.35
 30
0.0
 11
6.236320833333333
 21
2.666675
 31
0.0
  0
TEXT
  5
29D
330
17
100
AcDbEntity
  8
A-AREA-IDEN
100
AcDbText
 10
6.1239625
 20
2.2350000000000003
 30
0.0
 40
0.056
  1
ST-3 · X9 EXIT ONLY
  7
KS-BOLD
 11
6.1239625
 21
2.2350000000000003
 31
0.0
100
AcDbText
  0
LWPOLYLINE
  5
29E
330
17
100
AcDbEntity
  8
A-FLOR-STRS
100
AcDbPolyline
 90
4
 70
1
 10
1.12
 20
2.35
 10
1.4366750000000001
 20
2.35
 10
1.4366750000000001
 20
2.9520750000000002
 10
1.12
 20
2.9520750000000002
  0
LINE
  5
29F
330
17
100
AcDbEntity
  8
A-FLOR-STRS
100
AcDbLine
 10
1.2783375000000001
 20
2.4
 30
0.0
 11
1.2783375000000001
 21
2.902075
 31
0.0
  0
LINE
  5
2A0
330
17
100
AcDbEntity
  8
A-FLOR-STRS
100
AcDbLine
 10
1.12
 20
2.4836791666666667
 30
0.0
 11
1.4366750000000001
 21
2.4836791666666667
 31
0.0
  0
LINE
  5
2A1
330
17
100
AcDbEntity
  8
A-FLOR-STRS
100
AcDbLine
 10
1.12
 20
2.5673583333333334
 30
0.0
 11
1.4366750000000001
 21
2.5673583333333334
 31
0.0
  0
LINE
  5
2A2
330
17
100
AcDbEntity
  8
A-FLOR-STRS
100
AcDbLine
 10
1.12
 20
2.6510375
 30
0.0
 11
1.4366750000000001
 21
2.6510375
 31
0.0
  0
LINE
  5
2A3
330
17
100
AcDbEntity
  8
A-FLOR-STRS
100
AcDbLine
 10
1.12
 20
2.734716666666667
 30
0.0
 11
1.4366750000000001
 21
2.734716666666667
 31
0.0
  0
LINE
  5
2A4
330
17
100
AcDbEntity
  8
A-FLOR-STRS
100
AcDbLine
 10
1.12
 20
2.8183958333333337
 30
0.0
 11
1.4366750000000001
 21
2.8183958333333337
 31
0.0
  0
TEXT
  5
2A5
330
17
100
AcDbEntity
  8
A-AREA-IDEN
100
AcDbText
 10
1.3333375
 20
2.2350000000000003
 30
0.0
 40
0.056
  1
ST-4 · X10 EXIT ONLY
  7
KS-BOLD
 11
1.3333375
 21
2.2350000000000003
 31
0.0
100
AcDbText
  0
LWPOLYLINE
  5
2A6
330
17
100
AcDbEntity
  8
A-FLOR-STRS
100
AcDbPolyline
 90
4
 70
1
 10
2.5200000000000005
 20
3.0
 10
2.7200000000000006
 20
3.0
 10
2.7200000000000006
 20
3.2
 10
2.5200000000000005
 20
3.2
  0
LINE
  5
2A7
330
17
100
AcDbEntity
  8
A-FLOR-STRS
100
AcDbLine
 10
2.5200000000000005
 20
3.0
 30
0.0
 11
2.72
 21
3.2
 31
0.0
  0
LINE
  5
2A8
330
17
100
AcDbEntity
  8
A-FLOR-STRS
100
AcDbLine
 10
2.5200000000000005
 20
3.2
 30
0.0
 11
2.72
 21
3.0
 31
0.0
  0
TEXT
  5
2A9
330
17
100
AcDbEntity
  8
A-AREA-IDEN
100
AcDbText
 10
2.5
 20
3.0700000000000003
 30
0.0
 40
0.056
  1
EL
  7
KS-BOLD
 72
2
 11
2.5
 21
3.0700000000000003
 31
0.0
100
AcDbText
  0
TEXT
  5
2AA
330
17
100
AcDbEntity
  8
A-AREA-IDEN
100
AcDbText
 10
6.48
 20
8.628325
 30
0.0
 40
0.054000000000000006
  1
X6 EXIT ONLY (ST-2)
  7
KS-BOLD
 11
6.48
 21
8.628325
 31
0.0
100
AcDbText
  0
LINE
  5
2AB
330
17
100
AcDbEntity
  8
A-ANNO-DIMS
100
AcDbLine
 10
7.420000000000001
 20
7.35
 30
0.0
 11
7.420000000000001
 21
7.8999999999999995
 31
0.0
  0
LINE
  5
2AC
330
17
100
AcDbEntity
  8
A-ANNO-DIMS
100
AcDbLine
 10
7.420000000000001
 20
7.8999999999999995
 30
0.0
 11
7.330000000000001
 21
7.71
 31
0.0
  0
LINE
  5
2AD
330
17
100
AcDbEntity
  8
A-ANNO-DIMS
100
AcDbLine
 10
7.420000000000001
 20
7.8999999999999995
 30
0.0
 11
7.510000000000001
 21
7.71
 31
0.0
  0
TEXT
  5
2AE
330
17
100
AcDbEntity
  8
A-ANNO-DIMS
100
AcDbText
 10
7.420000000000001
 20
7.97
 30
0.0
 40
0.1
  1
N
  7
KS-BOLD
 72
1
 11
7.420000000000001
 21
7.97
 31
0.0
100
AcDbText
  0
TEXT
  5
2AF
330
17
100
AcDbEntity
  8
A-ANNO-DIMS
100
AcDbText
 10
7.420000000000001
 20
7.22
 30
0.0
 40
0.056
  1
APPROX.
  7
KS-REG
 72
1
 11
7.420000000000001
 21
7.22
 31
0.0
100
AcDbText
  0
TEXT
  5
2B0
330
17
100
AcDbEntity
  8
A-ANNO-DIMS
100
AcDbText
 10
7.420000000000001
 20
7.109999999999999
 30
0.0
 40
0.056
  1
SITE TBD
  7
KS-REG
 72
1
 11
7.420000000000001
 21
7.109999999999999
 31
0.0
100
AcDbText
  0
LWPOLYLINE
  5
2B1
330
17
100
AcDbEntity
  8
A-ANNO-DIMS
100
AcDbPolyline
 90
4
 70
1
 10
6.470000000000001
 20
4.55
 10
6.670000000000001
 20
4.55
 10
6.670000000000001
 20
4.609999999999999
 10
6.470000000000001
 20
4.609999999999999
  0
LINE
  5
2B2
330
17
100
AcDbEntity
  8
A-ANNO-DIMS
100
AcDbLine
 10
6.470000000000001
 20
4.55
 30
0.0
 11
6.670000000000001
 21
4.609999999999999
 31
0.0
  0
LWPOLYLINE
  5
2B3
330
17
100
AcDbEntity
  8
A-ANNO-DIMS
100
AcDbPolyline
 90
4
 70
1
 10
6.670000000000001
 20
4.55
 10
6.870000000000001
 20
4.55
 10
6.870000000000001
 20
4.609999999999999
 10
6.670000000000001
 20
4.609999999999999
  0
LWPOLYLINE
  5
2B4
330
17
100
AcDbEntity
  8
A-ANNO-DIMS
100
AcDbPolyline
 90
4
 70
1
 10
6.870000000000001
 20
4.55
 10
7.270000000000001
 20
4.55
 10
7.270000000000001
 20
4.609999999999999
 10
6.870000000000001
 20
4.609999999999999
  0
LINE
  5
2B5
330
17
100
AcDbEntity
  8
A-ANNO-DIMS
100
AcDbLine
 10
6.870000000000001
 20
4.55
 30
0.0
 11
7.2700000000000005
 21
4.609999999999999
 31
0.0
  0
TEXT
  5
2B6
330
17
100
AcDbEntity
  8
A-ANNO-DIMS
100
AcDbText
 10
6.470000000000001
 20
4.43
 30
0.0
 40
0.056
  1
0'
  7
KS-REG
 72
1
 11
6.470000000000001
 21
4.43
 31
0.0
100
AcDbText
  0
TEXT
  5
2B7
330
17
100
AcDbEntity
  8
A-ANNO-DIMS
100
AcDbText
 10
6.670000000000001
 20
4.43
 30
0.0
 40
0.056
  1
8'
  7
KS-REG
 72
1
 11
6.670000000000001
 21
4.43
 31
0.0
100
AcDbText
  0
TEXT
  5
2B8
330
17
100
AcDbEntity
  8
A-ANNO-DIMS
100
AcDbText
 10
6.870000000000001
 20
4.43
 30
0.0
 40
0.056
  1
16'
  7
KS-REG
 72
1
 11
6.870000000000001
 21
4.43
 31
0.0
100
AcDbText
  0
TEXT
  5
2B9
330
17
100
AcDbEntity
  8
A-ANNO-DIMS
100
AcDbText
 10
7.2700000000000005
 20
4.43
 30
0.0
 40
0.056
  1
32'
  7
KS-REG
 72
1
 11
7.2700000000000005
 21
4.43
 31
0.0
100
AcDbText
  0
TEXT
  5
2BA
330
17
100
AcDbEntity
  8
A-ANNO-DIMS
100
AcDbText
 10
6.470000000000001
 20
4.71
 30
0.0
 40
0.056
  1
GRAPHIC SCALE (FT)
  7
KS-REG
 11
6.470000000000001
 21
4.71
 31
0.0
100
AcDbText
  0
LINE
  5
2BB
330
17
100
AcDbEntity
  8
A-ANNO-TEXT
100
AcDbLine
 10
9.15
 20
1.9700000000000002
 30
0.0
 11
9.15
 21
10.38
 31
0.0
  0
LWPOLYLINE
  5
2BC
330
17
100
AcDbEntity
  8
A-ANNO-TEXT
100
AcDbPolyline
 90
4
 70
1
 10
9.35
 20
9.91
 10
16.28
 20
9.91
 10
16.28
 20
10.33
 10
9.35
 20
10.33
  0
TEXT
  5
2BD
330
17
100
AcDbEntity
  8
A-ANNO-TEXT
100
AcDbText
 10
12.815000000000001
 20
10.040000000000001
 30
0.0
 40
0.13999999999999999
  1
SCHEMATIC — BLOCK PLAN
  7
KS-BOLD
 72
1
 11
12.815000000000001
 21
10.040000000000001
 31
0.0
100
AcDbText
  0
TEXT
  5
2BE
330
17
100
AcDbEntity
  8
A-ANNO-TEXT
100
AcDbText
 10
9.35
 20
9.65
 30
0.0
 40
0.12
  1
LEVEL 1 — OVERALL FLOOR PLAN (REV J)
  7
KS-BOLD
 11
9.35
 21
9.65
 31
0.0
100
AcDbText
  0
TEXT
  5
2BF
330
17
100
AcDbEntity
  8
A-ANNO-TEXT
100
AcDbText
 10
9.35
 20
9.45
 30
0.0
 40
0.078
  1
scale 1" = 40'-0" on 17 x 11 in · north approximate, road assumed south, site TBD
  7
KS-REG
 11
9.35
 21
9.45
 31
0.0
100
AcDbText
  0
TEXT
  5
2C0
330
17
100
AcDbEntity
  8
A-ANNO-TEXT
100
AcDbText
 10
9.35
 20
9.15
 30
0.0
 40
0.095
  1
LEGEND
  7
KS-BOLD
 11
9.35
 21
9.15
 31
0.0
100
AcDbText
  0
LWPOLYLINE
  5
2C1
330
17
100
AcDbEntity
  8
A-ANNO-TEXT
100
AcDbPolyline
 90
4
 70
1
 10
9.48
 20
8.92
 10
9.72
 20
8.92
 10
9.72
 20
9.06
 10
9.48
 20
9.06
  0
TEXT
  5
2C2
330
17
100
AcDbEntity
  8
A-ANNO-TEXT
100
AcDbText
 10
9.950000000000001
 20
8.95
 30
0.0
 40
0.072
  1
Lower tier, TELESCOPIC (extended, 6 rows x 24 in; 3.38 SF/seat) — D-009
  7
KS-REG
 11
9.950000000000001
 21
8.95
 31
0.0
100
AcDbText
  0
LWPOLYLINE
  5
2C3
330
17
100
AcDbEntity
  8
A-ANNO-TEXT
100
AcDbPolyline
 90
4
 70
1
 10
9.48
 20
8.77
 10
9.72
 20
8.77
 10
9.72
 20
8.91
 10
9.48
 20
8.91
  0
TEXT
  5
2C4
330
17
100
AcDbEntity
  8
A-ANNO-TEXT
100
AcDbText
 10
9.950000000000001
 20
8.799999999999999
 30
0.0
 40
0.072
  1
42' wrestling mat (4, 2 x 2)
  7
KS-REG
 11
9.950000000000001
 21
8.799999999999999
 31
0.0
100
AcDbText
  0
LINE
  5
2C5
330
17
100
AcDbEntity
  8
A-ANNO-TEXT
100
AcDbLine
 10
9.4
 20
8.689999999999998
 30
0.0
 11
9.47
 21
8.689999999999998
 31
0.0
  0
LINE
  5
2C6
330
17
100
AcDbEntity
  8
A-ANNO-TEXT
100
AcDbLine
 10
9.51
 20
8.689999999999998
 30
0.0
 11
9.58
 21
8.689999999999998
 31
0.0
  0
LINE
  5
2C7
330
17
100
AcDbEntity
  8
A-ANNO-TEXT
100
AcDbLine
 10
9.620000000000001
 20
8.689999999999998
 30
0.0
 11
9.690000000000001
 21
8.689999999999998
 31
0.0
  0
LINE
  5
2C8
330
17
100
AcDbEntity
  8
A-ANNO-TEXT
100
AcDbLine
 10
9.73
 20
8.689999999999998
 30
0.0
 11
9.8
 21
8.689999999999998
 31
0.0
  0
TEXT
  5
2C9
330
17
100
AcDbEntity
  8
A-ANNO-TEXT
100
AcDbText
 10
9.950000000000001
 20
8.649999999999999
 30
0.0
 40
0.072
  1
84' x 50' court + 10' runout (overlay)
  7
KS-REG
 11
9.950000000000001
 21
8.649999999999999
 31
0.0
100
AcDbText
  0
LINE
  5
2CA
330
17
100
AcDbEntity
  8
A-ANNO-TEXT
100
AcDbLine
 10
9.4
 20
8.539999999999997
 30
0.0
 11
9.44
 21
8.539999999999997
 31
0.0
  0
LINE
  5
2CB
330
17
100
AcDbEntity
  8
A-ANNO-TEXT
100
AcDbLine
 10
9.47
 20
8.539999999999997
 30
0.0
 11
9.51
 21
8.539999999999997
 31
0.0
  0
LINE
  5
2CC
330
17
100
AcDbEntity
  8
A-ANNO-TEXT
100
AcDbLine
 10
9.540000000000001
 20
8.539999999999997
 30
0.0
 11
9.58
 21
8.539999999999997
 31
0.0
  0
LINE
  5
2CD
330
17
100
AcDbEntity
  8
A-ANNO-TEXT
100
AcDbLine
 10
9.610000000000001
 20
8.539999999999997
 30
0.0
 11
9.65
 21
8.539999999999997
 31
0.0
  0
LINE
  5
2CE
330
17
100
AcDbEntity
  8
A-ANNO-TEXT
100
AcDbLine
 10
9.68
 20
8.539999999999997
 30
0.0
 11
9.72
 21
8.539999999999997
 31
0.0
  0
LINE
  5
2CF
330
17
100
AcDbEntity
  8
A-ANNO-TEXT
100
AcDbLine
 10
9.75
 20
8.539999999999997
 30
0.0
 11
9.790000000000001
 21
8.539999999999997
 31
0.0
  0
TEXT
  5
2D0
330
17
100
AcDbEntity
  8
A-ANNO-TEXT
100
AcDbText
 10
9.950000000000001
 20
8.499999999999998
 30
0.0
 40
0.072
  1
Portal / vomitory through the telescopic tier (V1, V2)
  7
KS-REG
 11
9.950000000000001
 21
8.499999999999998
 31
0.0
100
AcDbText
  0
LINE
  5
2D1
330
17
100
AcDbEntity
  8
A-ANNO-TEXT
100
AcDbLine
 10
9.48
 20
8.389999999999997
 30
0.0
 11
9.64
 21
8.389999999999997
 31
0.0
  0
LINE
  5
2D2
330
17
100
AcDbEntity
  8
A-ANNO-TEXT
100
AcDbLine
 10
9.56
 20
8.389999999999997
 30
0.0
 11
9.56
 21
8.489999999999998
 31
0.0
  0
LINE
  5
2D3
330
17
100
AcDbEntity
  8
A-ANNO-TEXT
100
AcDbLine
 10
9.56
 20
8.489999999999998
 30
0.0
 11
9.52
 21
8.449999999999998
 31
0.0
  0
LINE
  5
2D4
330
17
100
AcDbEntity
  8
A-ANNO-TEXT
100
AcDbLine
 10
9.56
 20
8.489999999999998
 30
0.0
 11
9.6
 21
8.449999999999998
 31
0.0
  0
TEXT
  5
2D5
330
17
100
AcDbEntity
  8
A-ANNO-TEXT
100
AcDbText
 10
9.950000000000001
 20
8.349999999999998
 30
0.0
 40
0.072
  1
X# = EXIT ONLY — alarmed, no exterior entry hardware (symbol; width not drawn)
  7
KS-REG
 11
9.950000000000001
 21
8.349999999999998
 31
0.0
100
AcDbText
  0
LINE
  5
2D6
330
17
100
AcDbEntity
  8
A-ANNO-TEXT
100
AcDbLine
 10
9.48
 20
8.239999999999997
 30
0.0
 11
9.64
 21
8.239999999999997
 31
0.0
  0
TEXT
  5
2D7
330
17
100
AcDbEntity
  8
A-ANNO-TEXT
100
AcDbText
 10
9.950000000000001
 20
8.199999999999998
 30
0.0
 40
0.072
  1
S1 = SERVICE / LOADING door (staff-controlled, not a people entrance; D-034)
  7
KS-REG
 11
9.950000000000001
 21
8.199999999999998
 31
0.0
100
AcDbText
  0
TEXT
  5
2D8
330
17
100
AcDbEntity
  8
A-ANNO-TEXT
100
AcDbText
 10
9.950000000000001
 20
8.049999999999997
 30
0.0
 40
0.072
  1
Upper tier above: front row 9.0' = 7'-6" clear, no low band (D-061)
  7
KS-REG
 11
9.950000000000001
 21
8.049999999999997
 31
0.0
100
AcDbText
  0
LINE
  5
2D9
330
17
100
AcDbEntity
  8
A-ANNO-TEXT
100
AcDbLine
 10
9.42
 20
7.8699999999999966
 30
0.0
 11
9.47
 21
7.8699999999999966
 31
0.0
  0
LINE
  5
2DA
330
17
100
AcDbEntity
  8
A-ANNO-TEXT
100
AcDbLine
 10
9.5
 20
7.8699999999999966
 30
0.0
 11
9.55
 21
7.8699999999999966
 31
0.0
  0
LINE
  5
2DB
330
17
100
AcDbEntity
  8
A-ANNO-TEXT
100
AcDbLine
 10
9.58
 20
7.8699999999999966
 30
0.0
 11
9.63
 21
7.8699999999999966
 31
0.0
  0
LINE
  5
2DC
330
17
100
AcDbEntity
  8
A-ANNO-TEXT
100
AcDbLine
 10
9.66
 20
7.8699999999999966
 30
0.0
 11
9.700000000000001
 21
7.8699999999999966
 31
0.0
  0
LINE
  5
2DD
330
17
100
AcDbEntity
  8
A-ANNO-TEXT
100
AcDbLine
 10
9.42
 20
8.009999999999996
 30
0.0
 11
9.47
 21
8.009999999999996
 31
0.0
  0
LINE
  5
2DE
330
17
100
AcDbEntity
  8
A-ANNO-TEXT
100
AcDbLine
 10
9.5
 20
8.009999999999996
 30
0.0
 11
9.55
 21
8.009999999999996
 31
0.0
  0
LINE
  5
2DF
330
17
100
AcDbEntity
  8
A-ANNO-TEXT
100
AcDbLine
 10
9.58
 20
8.009999999999996
 30
0.0
 11
9.63
 21
8.009999999999996
 31
0.0
  0
LINE
  5
2E0
330
17
100
AcDbEntity
  8
A-ANNO-TEXT
100
AcDbLine
 10
9.66
 20
8.009999999999996
 30
0.0
 11
9.700000000000001
 21
8.009999999999996
 31
0.0
  0
LINE
  5
2E1
330
17
100
AcDbEntity
  8
A-ANNO-TEXT
100
AcDbLine
 10
9.8
 20
7.859999999999997
 30
0.0
 11
9.8
 21
8.019999999999996
 31
0.0
  0
TEXT
  5
2E2
330
17
100
AcDbEntity
  8
A-ANNO-TEXT
100
AcDbText
 10
9.950000000000001
 20
7.899999999999997
 30
0.0
 40
0.072
  1
Security screening bay, 3 lanes ASSUMED (D-065 Option 1) · CD-1 controlled door
  7
KS-REG
 11
9.950000000000001
 21
7.899999999999997
 31
0.0
100
AcDbText
  0
LWPOLYLINE
  5
2E3
330
17
100
AcDbEntity
  8
A-ANNO-TEXT
100
AcDbPolyline
 90
4
 70
1
 10
9.48
 20
7.719999999999996
 10
9.72
 20
7.719999999999996
 10
9.72
 20
7.859999999999996
 10
9.48
 20
7.859999999999996
  0
TEXT
  5
2E4
330
17
100
AcDbEntity
  8
A-ANNO-TEXT
100
AcDbText
 10
9.950000000000001
 20
7.7499999999999964
 30
0.0
 40
0.072
  1
Room block (tag number + drawn SF)
  7
KS-REG
 11
9.950000000000001
 21
7.7499999999999964
 31
0.0
100
AcDbText
  0
LWPOLYLINE
  5
2E5
330
17
100
AcDbEntity
  8
A-ANNO-TEXT
100
AcDbPolyline
 90
4
 70
1
 10
9.48
 20
7.569999999999996
 10
9.6
 20
7.569999999999996
 10
9.6
 20
7.7099999999999955
 10
9.48
 20
7.7099999999999955
  0
LWPOLYLINE
  5
2E6
330
17
100
AcDbEntity
  8
A-ANNO-TEXT
100
AcDbPolyline
 90
4
 70
1
 10
9.64
 20
7.569999999999996
 10
9.76
 20
7.569999999999996
 10
9.76
 20
7.7099999999999955
 10
9.64
 20
7.7099999999999955
  0
LINE
  5
2E7
330
17
100
AcDbEntity
  8
A-ANNO-TEXT
100
AcDbLine
 10
9.64
 20
7.569999999999996
 30
0.0
 11
9.76
 21
7.709999999999996
 31
0.0
  0
TEXT
  5
2E8
330
17
100
AcDbEntity
  8
A-ANNO-TEXT
100
AcDbText
 10
9.950000000000001
 20
7.599999999999996
 30
0.0
 40
0.072
  1
Stair (4) / elevator (X), same position on both levels
  7
KS-REG
 11
9.950000000000001
 21
7.599999999999996
 31
0.0
100
AcDbText
  0
TEXT
  5
2E9
330
17
100
AcDbEntity
  8
A-ANNO-TEXT
100
AcDbText
 10
9.35
 20
7.299999999999996
 30
0.0
 40
0.095
  1
ROOM SCHEDULE — LEVEL 1 (DRAWN vs PROGRAM side by side, P2-G-003 Rev K; C-3)
  7
KS-BOLD
 11
9.35
 21
7.299999999999996
 31
0.0
100
AcDbText
  0
TEXT
  5
2EA
330
17
100
AcDbEntity
  8
A-ANNO-TABL
100
AcDbText
 10
9.35
 20
7.205999999999996
 30
0.0
 40
0.06799999999999999
  1
TAG
  7
KS-BOLD
 11
9.35
 21
7.205999999999996
 31
0.0
100
AcDbText
  0
TEXT
  5
2EB
330
17
100
AcDbEntity
  8
A-ANNO-TABL
100
AcDbText
 10
9.709999999999999
 20
7.205999999999996
 30
0.0
 40
0.06799999999999999
  1
ROOM
  7
KS-BOLD
 11
9.709999999999999
 21
7.205999999999996
 31
0.0
100
AcDbText
  0
TEXT
  5
2EC
330
17
100
AcDbEntity
  8
A-ANNO-TABL
100
AcDbText
 10
12.0
 20
7.205999999999996
 30
0.0
 40
0.06799999999999999
  1
DRAWN SF
  7
KS-BOLD
 72
2
 11
12.0
 21
7.205999999999996
 31
0.0
100
AcDbText
  0
TEXT
  5
2ED
330
17
100
AcDbEntity
  8
A-ANNO-TABL
100
AcDbText
 10
12.7
 20
7.205999999999996
 30
0.0
 40
0.06799999999999999
  1
PROGRAM
  7
KS-BOLD
 72
2
 11
12.7
 21
7.205999999999996
 31
0.0
100
AcDbText
  0
TEXT
  5
2EE
330
17
100
AcDbEntity
  8
A-ANNO-TABL
100
AcDbText
 10
12.85
 20
7.205999999999996
 30
0.0
 40
0.06799999999999999
  1
NOTE
  7
KS-BOLD
 11
12.85
 21
7.205999999999996
 31
0.0
100
AcDbText
  0
LINE
  5
2EF
330
17
100
AcDbEntity
  8
A-ANNO-TABL
100
AcDbLine
 10
9.35
 20
7.145999999999996
 30
0.0
 11
16.28
 21
7.145999999999996
 31
0.0
  0
TEXT
  5
2F0
330
17
100
AcDbEntity
  8
A-ANNO-TABL
100
AcDbText
 10
9.35
 20
7.0719999999999965
 30
0.0
 40
0.06999999999999999
  1
—
  7
KS-REG
 11
9.35
 21
7.0719999999999965
 31
0.0
100
AcDbText
  0
TEXT
  5
2F1
330
17
100
AcDbEntity
  8
A-ANNO-TABL
100
AcDbText
 10
9.709999999999999
 20
7.0719999999999965
 30
0.0
 40
0.06999999999999999
  1
Event floor + east zone (D-053)
  7
KS-REG
 11
9.709999999999999
 21
7.0719999999999965
 31
0.0
100
AcDbText
  0
TEXT
  5
2F2
330
17
100
AcDbEntity
  8
A-ANNO-TABL
100
AcDbText
 10
12.0
 20
7.0719999999999965
 30
0.0
 40
0.06999999999999999
  1
17,280
  7
KS-REG
 72
2
 11
12.0
 21
7.0719999999999965
 31
0.0
100
AcDbText
  0
TEXT
  5
2F3
330
17
100
AcDbEntity
  8
A-ANNO-TABL
100
AcDbText
 10
12.7
 20
7.0719999999999965
 30
0.0
 40
0.06999999999999999
  1
17,264
  7
KS-REG
 72
2
 11
12.7
 21
7.0719999999999965
 31
0.0
100
AcDbText
  0
TEXT
  5
2F4
330
17
100
AcDbEntity
  8
A-ANNO-TABL
100
AcDbText
 10
12.85
 20
7.0719999999999965
 30
0.0
 40
0.064
  1
120' x 144'; east tier 16 ft from mats
  7
KS-REG
 11
12.85
 21
7.0719999999999965
 31
0.0
100
AcDbText
  0
TEXT
  5
2F5
330
17
100
AcDbEntity
  8
A-ANNO-TABL
100
AcDbText
 10
9.35
 20
6.957999999999997
 30
0.0
 40
0.06999999999999999
  1
—
  7
KS-REG
 11
9.35
 21
6.957999999999997
 31
0.0
100
AcDbText
  0
TEXT
  5
2F6
330
17
100
AcDbEntity
  8
A-ANNO-TABL
100
AcDbText
 10
9.709999999999999
 20
6.957999999999997
 30
0.0
 40
0.06999999999999999
  1
Lower tier, telescopic (1,100 seats)
  7
KS-REG
 11
9.709999999999999
 21
6.957999999999997
 31
0.0
100
AcDbText
  0
TEXT
  5
2F7
330
17
100
AcDbEntity
  8
A-ANNO-TABL
100
AcDbText
 10
12.0
 20
6.957999999999997
 30
0.0
 40
0.06999999999999999
  1
4,896
  7
KS-REG
 72
2
 11
12.0
 21
6.957999999999997
 31
0.0
100
AcDbText
  0
TEXT
  5
2F8
330
17
100
AcDbEntity
  8
A-ANNO-TABL
100
AcDbText
 10
12.7
 20
6.957999999999997
 30
0.0
 40
0.06999999999999999
  1
3,719
  7
KS-REG
 72
2
 11
12.7
 21
6.957999999999997
 31
0.0
100
AcDbText
  0
TEXT
  5
2F9
330
17
100
AcDbEntity
  8
A-ANNO-TABL
100
AcDbText
 10
12.85
 20
6.957999999999997
 30
0.0
 40
0.064
  1
6 rows; N 359 / S 347 / E 394
  7
KS-REG
 11
12.85
 21
6.957999999999997
 31
0.0
100
AcDbText
  0
TEXT
  5
2FA
330
17
100
AcDbEntity
  8
A-ANNO-TABL
100
AcDbText
 10
9.35
 20
6.843999999999997
 30
0.0
 40
0.06999999999999999
  1
1
  7
KS-REG
 11
9.35
 21
6.843999999999997
 31
0.0
100
AcDbText
  0
TEXT
  5
2FB
330
17
100
AcDbEntity
  8
A-ANNO-TABL
100
AcDbText
 10
9.709999999999999
 20
6.843999999999997
 30
0.0
 40
0.06999999999999999
  1
Boys Locker
  7
KS-REG
 11
9.709999999999999
 21
6.843999999999997
 31
0.0
100
AcDbText
  0
TEXT
  5
2FC
330
17
100
AcDbEntity
  8
A-ANNO-TABL
100
AcDbText
 10
12.0
 20
6.843999999999997
 30
0.0
 40
0.06999999999999999
  1
3,507
  7
KS-REG
 72
2
 11
12.0
 21
6.843999999999997
 31
0.0
100
AcDbText
  0
TEXT
  5
2FD
330
17
100
AcDbEntity
  8
A-ANNO-TABL
100
AcDbText
 10
12.7
 20
6.843999999999997
 30
0.0
 40
0.06999999999999999
  1
3,500
  7
KS-REG
 72
2
 11
12.7
 21
6.843999999999997
 31
0.0
100
AcDbText
  0
TEXT
  5
2FE
330
17
100
AcDbEntity
  8
A-ANNO-TABL
100
AcDbText
 10
12.85
 20
6.843999999999997
 30
0.0
 40
0.064
  1

  7
KS-REG
 11
12.85
 21
6.843999999999997
 31
0.0
100
AcDbText
  0
TEXT
  5
2FF
330
17
100
AcDbEntity
  8
A-ANNO-TABL
100
AcDbText
 10
9.35
 20
6.729999999999997
 30
0.0
 40
0.06999999999999999
  1
2
  7
KS-REG
 11
9.35
 21
6.729999999999997
 31
0.0
100
AcDbText
  0
TEXT
  5
300
330
17
100
AcDbEntity
  8
A-ANNO-TABL
100
AcDbText
 10
9.709999999999999
 20
6.729999999999997
 30
0.0
 40
0.06999999999999999
  1
Girls Locker
  7
KS-REG
 11
9.709999999999999
 21
6.729999999999997
 31
0.0
100
AcDbText
  0
TEXT
  5
301
330
17
100
AcDbEntity
  8
A-ANNO-TABL
100
AcDbText
 10
12.0
 20
6.729999999999997
 30
0.0
 40
0.06999999999999999
  1
3,507
  7
KS-REG
 72
2
 11
12.0
 21
6.729999999999997
 31
0.0
100
AcDbText
  0
TEXT
  5
302
330
17
100
AcDbEntity
  8
A-ANNO-TABL
100
AcDbText
 10
12.7
 20
6.729999999999997
 30
0.0
 40
0.06999999999999999
  1
3,503
  7
KS-REG
 72
2
 11
12.7
 21
6.729999999999997
 31
0.0
100
AcDbText
  0
TEXT
  5
303
330
17
100
AcDbEntity
  8
A-ANNO-TABL
100
AcDbText
 10
12.85
 20
6.729999999999997
 30
0.0
 40
0.064
  1
drawn equal to boys (D-013)
  7
KS-REG
 11
12.85
 21
6.729999999999997
 31
0.0
100
AcDbText
  0
TEXT
  5
304
330
17
100
AcDbEntity
  8
A-ANNO-TABL
100
AcDbText
 10
9.35
 20
6.615999999999997
 30
0.0
 40
0.06999999999999999
  1
3
  7
KS-REG
 11
9.35
 21
6.615999999999997
 31
0.0
100
AcDbText
  0
TEXT
  5
305
330
17
100
AcDbEntity
  8
A-ANNO-TABL
100
AcDbText
 10
9.709999999999999
 20
6.615999999999997
 30
0.0
 40
0.06999999999999999
  1
Mech / Elec (NW)
  7
KS-REG
 11
9.709999999999999
 21
6.615999999999997
 31
0.0
100
AcDbText
  0
TEXT
  5
306
330
17
100
AcDbEntity
  8
A-ANNO-TABL
100
AcDbText
 10
12.0
 20
6.615999999999997
 30
0.0
 40
0.06999999999999999
  1
1,017
  7
KS-REG
 72
2
 11
12.0
 21
6.615999999999997
 31
0.0
100
AcDbText
  0
TEXT
  5
307
330
17
100
AcDbEntity
  8
A-ANNO-TABL
100
AcDbText
 10
12.7
 20
6.615999999999997
 30
0.0
 40
0.06999999999999999
  1
1,180
  7
KS-REG
 72
2
 11
12.7
 21
6.615999999999997
 31
0.0
100
AcDbText
  0
TEXT
  5
308
330
17
100
AcDbEntity
  8
A-ANNO-TABL
100
AcDbText
 10
12.85
 20
6.615999999999997
 30
0.0
 40
0.064
  1

  7
KS-REG
 11
12.85
 21
6.615999999999997
 31
0.0
100
AcDbText
  0
TEXT
  5
309
330
17
100
AcDbEntity
  8
A-ANNO-TABL
100
AcDbText
 10
9.35
 20
6.501999999999997
 30
0.0
 40
0.06999999999999999
  1
4
  7
KS-REG
 11
9.35
 21
6.501999999999997
 31
0.0
100
AcDbText
  0
TEXT
  5
30A
330
17
100
AcDbEntity
  8
A-ANNO-TABL
100
AcDbText
 10
9.709999999999999
 20
6.501999999999997
 30
0.0
 40
0.06999999999999999
  1
Men
  7
KS-REG
 11
9.709999999999999
 21
6.501999999999997
 31
0.0
100
AcDbText
  0
TEXT
  5
30B
330
17
100
AcDbEntity
  8
A-ANNO-TABL
100
AcDbText
 10
12.0
 20
6.501999999999997
 30
0.0
 40
0.06999999999999999
  1
700
  7
KS-REG
 72
2
 11
12.0
 21
6.501999999999997
 31
0.0
100
AcDbText
  0
TEXT
  5
30C
330
17
100
AcDbEntity
  8
A-ANNO-TABL
100
AcDbText
 10
12.7
 20
6.501999999999997
 30
0.0
 40
0.06999999999999999
  1
700
  7
KS-REG
 72
2
 11
12.7
 21
6.501999999999997
 31
0.0
100
AcDbText
  0
TEXT
  5
30D
330
17
100
AcDbEntity
  8
A-ANNO-TABL
100
AcDbText
 10
12.85
 20
6.501999999999997
 30
0.0
 40
0.064
  1
lobby core: 14 fixtures (D-069 split)
  7
KS-REG
 11
12.85
 21
6.501999999999997
 31
0.0
100
AcDbText
  0
TEXT
  5
30E
330
17
100
AcDbEntity
  8
A-ANNO-TABL
100
AcDbText
 10
9.35
 20
6.387999999999997
 30
0.0
 40
0.06999999999999999
  1
5
  7
KS-REG
 11
9.35
 21
6.387999999999997
 31
0.0
100
AcDbText
  0
TEXT
  5
30F
330
17
100
AcDbEntity
  8
A-ANNO-TABL
100
AcDbText
 10
9.709999999999999
 20
6.387999999999997
 30
0.0
 40
0.06999999999999999
  1
Women
  7
KS-REG
 11
9.709999999999999
 21
6.387999999999997
 31
0.0
100
AcDbText
  0
TEXT
  5
310
330
17
100
AcDbEntity
  8
A-ANNO-TABL
100
AcDbText
 10
12.0
 20
6.387999999999997
 30
0.0
 40
0.06999999999999999
  1
1,150
  7
KS-REG
 72
2
 11
12.0
 21
6.387999999999997
 31
0.0
100
AcDbText
  0
TEXT
  5
311
330
17
100
AcDbEntity
  8
A-ANNO-TABL
100
AcDbText
 10
12.7
 20
6.387999999999997
 30
0.0
 40
0.06999999999999999
  1
1,150
  7
KS-REG
 72
2
 11
12.7
 21
6.387999999999997
 31
0.0
100
AcDbText
  0
TEXT
  5
312
330
17
100
AcDbEntity
  8
A-ANNO-TABL
100
AcDbText
 10
12.85
 20
6.387999999999997
 30
0.0
 40
0.064
  1
lobby core: 23 fixtures (D-069 split)
  7
KS-REG
 11
12.85
 21
6.387999999999997
 31
0.0
100
AcDbText
  0
TEXT
  5
313
330
17
100
AcDbEntity
  8
A-ANNO-TABL
100
AcDbText
 10
9.35
 20
6.273999999999997
 30
0.0
 40
0.06999999999999999
  1
6
  7
KS-REG
 11
9.35
 21
6.273999999999997
 31
0.0
100
AcDbText
  0
TEXT
  5
314
330
17
100
AcDbEntity
  8
A-ANNO-TABL
100
AcDbText
 10
9.709999999999999
 20
6.273999999999997
 30
0.0
 40
0.06999999999999999
  1
First Aid
  7
KS-REG
 11
9.709999999999999
 21
6.273999999999997
 31
0.0
100
AcDbText
  0
TEXT
  5
315
330
17
100
AcDbEntity
  8
A-ANNO-TABL
100
AcDbText
 10
12.0
 20
6.273999999999997
 30
0.0
 40
0.06999999999999999
  1
120
  7
KS-REG
 72
2
 11
12.0
 21
6.273999999999997
 31
0.0
100
AcDbText
  0
TEXT
  5
316
330
17
100
AcDbEntity
  8
A-ANNO-TABL
100
AcDbText
 10
12.7
 20
6.273999999999997
 30
0.0
 40
0.06999999999999999
  1
120
  7
KS-REG
 72
2
 11
12.7
 21
6.273999999999997
 31
0.0
100
AcDbText
  0
TEXT
  5
317
330
17
100
AcDbEntity
  8
A-ANNO-TABL
100
AcDbText
 10
12.85
 20
6.273999999999997
 30
0.0
 40
0.064
  1
Rev H: moved off the lobby's east side for the screening bay (D-065); east…
  7
KS-REG
 11
12.85
 21
6.273999999999997
 31
0.0
100
AcDbText
  0
TEXT
  5
318
330
17
100
AcDbEntity
  8
A-ANNO-TABL
100
AcDbText
 10
9.35
 20
6.1599999999999975
 30
0.0
 40
0.06999999999999999
  1
7
  7
KS-REG
 11
9.35
 21
6.1599999999999975
 31
0.0
100
AcDbText
  0
TEXT
  5
319
330
17
100
AcDbEntity
  8
A-ANNO-TABL
100
AcDbText
 10
9.709999999999999
 20
6.1599999999999975
 30
0.0
 40
0.06999999999999999
  1
Vestibule
  7
KS-REG
 11
9.709999999999999
 21
6.1599999999999975
 31
0.0
100
AcDbText
  0
TEXT
  5
31A
330
17
100
AcDbEntity
  8
A-ANNO-TABL
100
AcDbText
 10
12.0
 20
6.1599999999999975
 30
0.0
 40
0.06999999999999999
  1
520
  7
KS-REG
 72
2
 11
12.0
 21
6.1599999999999975
 31
0.0
100
AcDbText
  0
TEXT
  5
31B
330
17
100
AcDbEntity
  8
A-ANNO-TABL
100
AcDbText
 10
12.7
 20
6.1599999999999975
 30
0.0
 40
0.06999999999999999
  1
200
  7
KS-REG
 72
2
 11
12.7
 21
6.1599999999999975
 31
0.0
100
AcDbText
  0
TEXT
  5
31C
330
17
100
AcDbEntity
  8
A-ANNO-TABL
100
AcDbText
 10
12.85
 20
6.1599999999999975
 30
0.0
 40
0.064
  1
Rev G: widened to the 52 ft E1 bank (outer + inner bank, 8 pairs each, AS…
  7
KS-REG
 11
12.85
 21
6.1599999999999975
 31
0.0
100
AcDbText
  0
TEXT
  5
31D
330
17
100
AcDbEntity
  8
A-ANNO-TABL
100
AcDbText
 10
9.35
 20
6.045999999999998
 30
0.0
 40
0.06999999999999999
  1
8
  7
KS-REG
 11
9.35
 21
6.045999999999998
 31
0.0
100
AcDbText
  0
TEXT
  5
31E
330
17
100
AcDbEntity
  8
A-ANNO-TABL
100
AcDbText
 10
9.709999999999999
 20
6.045999999999998
 30
0.0
 40
0.06999999999999999
  1
Concession
  7
KS-REG
 11
9.709999999999999
 21
6.045999999999998
 31
0.0
100
AcDbText
  0
TEXT
  5
31F
330
17
100
AcDbEntity
  8
A-ANNO-TABL
100
AcDbText
 10
12.0
 20
6.045999999999998
 30
0.0
 40
0.06999999999999999
  1
275
  7
KS-REG
 72
2
 11
12.0
 21
6.045999999999998
 31
0.0
100
AcDbText
  0
TEXT
  5
320
330
17
100
AcDbEntity
  8
A-ANNO-TABL
100
AcDbText
 10
12.7
 20
6.045999999999998
 30
0.0
 40
0.06999999999999999
  1
275
  7
KS-REG
 72
2
 11
12.7
 21
6.045999999999998
 31
0.0
100
AcDbText
  0
TEXT
  5
321
330
17
100
AcDbEntity
  8
A-ANNO-TABL
100
AcDbText
 10
12.85
 20
6.045999999999998
 30
0.0
 40
0.064
  1
Rev H: moved off the lobby's east side for the screening bay (D-065) into t…
  7
KS-REG
 11
12.85
 21
6.045999999999998
 31
0.0
100
AcDbText
  0
TEXT
  5
322
330
17
100
AcDbEntity
  8
A-ANNO-TABL
100
AcDbText
 10
9.35
 20
5.931999999999998
 30
0.0
 40
0.06999999999999999
  1
9
  7
KS-REG
 11
9.35
 21
5.931999999999998
 31
0.0
100
AcDbText
  0
TEXT
  5
323
330
17
100
AcDbEntity
  8
A-ANNO-TABL
100
AcDbText
 10
9.709999999999999
 20
5.931999999999998
 30
0.0
 40
0.06999999999999999
  1
Equip. Storage
  7
KS-REG
 11
9.709999999999999
 21
5.931999999999998
 31
0.0
100
AcDbText
  0
TEXT
  5
324
330
17
100
AcDbEntity
  8
A-ANNO-TABL
100
AcDbText
 10
12.0
 20
5.931999999999998
 30
0.0
 40
0.06999999999999999
  1
700
  7
KS-REG
 72
2
 11
12.0
 21
5.931999999999998
 31
0.0
100
AcDbText
  0
TEXT
  5
325
330
17
100
AcDbEntity
  8
A-ANNO-TABL
100
AcDbText
 10
12.7
 20
5.931999999999998
 30
0.0
 40
0.06999999999999999
  1
700
  7
KS-REG
 72
2
 11
12.7
 21
5.931999999999998
 31
0.0
100
AcDbText
  0
TEXT
  5
326
330
17
100
AcDbEntity
  8
A-ANNO-TABL
100
AcDbText
 10
12.85
 20
5.931999999999998
 30
0.0
 40
0.064
  1

  7
KS-REG
 11
12.85
 21
5.931999999999998
 31
0.0
100
AcDbText
  0
TEXT
  5
327
330
17
100
AcDbEntity
  8
A-ANNO-TABL
100
AcDbText
 10
9.35
 20
5.817999999999998
 30
0.0
 40
0.06999999999999999
  1
10
  7
KS-REG
 11
9.35
 21
5.817999999999998
 31
0.0
100
AcDbText
  0
TEXT
  5
328
330
17
100
AcDbEntity
  8
A-ANNO-TABL
100
AcDbText
 10
9.709999999999999
 20
5.817999999999998
 30
0.0
 40
0.06999999999999999
  1
Equip. Room
  7
KS-REG
 11
9.709999999999999
 21
5.817999999999998
 31
0.0
100
AcDbText
  0
TEXT
  5
329
330
17
100
AcDbEntity
  8
A-ANNO-TABL
100
AcDbText
 10
12.0
 20
5.817999999999998
 30
0.0
 40
0.06999999999999999
  1
300
  7
KS-REG
 72
2
 11
12.0
 21
5.817999999999998
 31
0.0
100
AcDbText
  0
TEXT
  5
32A
330
17
100
AcDbEntity
  8
A-ANNO-TABL
100
AcDbText
 10
12.7
 20
5.817999999999998
 30
0.0
 40
0.06999999999999999
  1
300
  7
KS-REG
 72
2
 11
12.7
 21
5.817999999999998
 31
0.0
100
AcDbText
  0
TEXT
  5
32B
330
17
100
AcDbEntity
  8
A-ANNO-TABL
100
AcDbText
 10
12.85
 20
5.817999999999998
 30
0.0
 40
0.064
  1

  7
KS-REG
 11
12.85
 21
5.817999999999998
 31
0.0
100
AcDbText
  0
TEXT
  5
32C
330
17
100
AcDbEntity
  8
A-ANNO-TABL
100
AcDbText
 10
9.35
 20
5.703999999999998
 30
0.0
 40
0.06999999999999999
  1
11
  7
KS-REG
 11
9.35
 21
5.703999999999998
 31
0.0
100
AcDbText
  0
TEXT
  5
32D
330
17
100
AcDbEntity
  8
A-ANNO-TABL
100
AcDbText
 10
9.709999999999999
 20
5.703999999999998
 30
0.0
 40
0.06999999999999999
  1
Event Locker 1
  7
KS-REG
 11
9.709999999999999
 21
5.703999999999998
 31
0.0
100
AcDbText
  0
TEXT
  5
32E
330
17
100
AcDbEntity
  8
A-ANNO-TABL
100
AcDbText
 10
12.0
 20
5.703999999999998
 30
0.0
 40
0.06999999999999999
  1
900
  7
KS-REG
 72
2
 11
12.0
 21
5.703999999999998
 31
0.0
100
AcDbText
  0
TEXT
  5
32F
330
17
100
AcDbEntity
  8
A-ANNO-TABL
100
AcDbText
 10
12.7
 20
5.703999999999998
 30
0.0
 40
0.06999999999999999
  1
900
  7
KS-REG
 72
2
 11
12.7
 21
5.703999999999998
 31
0.0
100
AcDbText
  0
TEXT
  5
330
330
17
100
AcDbEntity
  8
A-ANNO-TABL
100
AcDbText
 10
12.85
 20
5.703999999999998
 30
0.0
 40
0.064
  1
to the tier line, full 3,600 (D-060): −0
  7
KS-REG
 11
12.85
 21
5.703999999999998
 31
0.0
100
AcDbText
  0
TEXT
  5
331
330
17
100
AcDbEntity
  8
A-ANNO-TABL
100
AcDbText
 10
9.35
 20
5.589999999999998
 30
0.0
 40
0.06999999999999999
  1
12
  7
KS-REG
 11
9.35
 21
5.589999999999998
 31
0.0
100
AcDbText
  0
TEXT
  5
332
330
17
100
AcDbEntity
  8
A-ANNO-TABL
100
AcDbText
 10
9.709999999999999
 20
5.589999999999998
 30
0.0
 40
0.06999999999999999
  1
Event Locker 2
  7
KS-REG
 11
9.709999999999999
 21
5.589999999999998
 31
0.0
100
AcDbText
  0
TEXT
  5
333
330
17
100
AcDbEntity
  8
A-ANNO-TABL
100
AcDbText
 10
12.0
 20
5.589999999999998
 30
0.0
 40
0.06999999999999999
  1
900
  7
KS-REG
 72
2
 11
12.0
 21
5.589999999999998
 31
0.0
100
AcDbText
  0
TEXT
  5
334
330
17
100
AcDbEntity
  8
A-ANNO-TABL
100
AcDbText
 10
12.7
 20
5.589999999999998
 30
0.0
 40
0.06999999999999999
  1
900
  7
KS-REG
 72
2
 11
12.7
 21
5.589999999999998
 31
0.0
100
AcDbText
  0
TEXT
  5
335
330
17
100
AcDbEntity
  8
A-ANNO-TABL
100
AcDbText
 10
12.85
 20
5.589999999999998
 30
0.0
 40
0.064
  1
to the tier line, full 3,600 (D-060): −0
  7
KS-REG
 11
12.85
 21
5.589999999999998
 31
0.0
100
AcDbText
  0
TEXT
  5
336
330
17
100
AcDbEntity
  8
A-ANNO-TABL
100
AcDbText
 10
9.35
 20
5.475999999999998
 30
0.0
 40
0.06999999999999999
  1
13
  7
KS-REG
 11
9.35
 21
5.475999999999998
 31
0.0
100
AcDbText
  0
TEXT
  5
337
330
17
100
AcDbEntity
  8
A-ANNO-TABL
100
AcDbText
 10
9.709999999999999
 20
5.475999999999998
 30
0.0
 40
0.06999999999999999
  1
Event Locker 3
  7
KS-REG
 11
9.709999999999999
 21
5.475999999999998
 31
0.0
100
AcDbText
  0
TEXT
  5
338
330
17
100
AcDbEntity
  8
A-ANNO-TABL
100
AcDbText
 10
12.0
 20
5.475999999999998
 30
0.0
 40
0.06999999999999999
  1
900
  7
KS-REG
 72
2
 11
12.0
 21
5.475999999999998
 31
0.0
100
AcDbText
  0
TEXT
  5
339
330
17
100
AcDbEntity
  8
A-ANNO-TABL
100
AcDbText
 10
12.7
 20
5.475999999999998
 30
0.0
 40
0.06999999999999999
  1
900
  7
KS-REG
 72
2
 11
12.7
 21
5.475999999999998
 31
0.0
100
AcDbText
  0
TEXT
  5
33A
330
17
100
AcDbEntity
  8
A-ANNO-TABL
100
AcDbText
 10
12.85
 20
5.475999999999998
 30
0.0
 40
0.064
  1
to the tier line, full 3,600 (D-060): +0
  7
KS-REG
 11
12.85
 21
5.475999999999998
 31
0.0
100
AcDbText
  0
TEXT
  5
33B
330
17
100
AcDbEntity
  8
A-ANNO-TABL
100
AcDbText
 10
9.35
 20
5.361999999999998
 30
0.0
 40
0.06999999999999999
  1
14
  7
KS-REG
 11
9.35
 21
5.361999999999998
 31
0.0
100
AcDbText
  0
TEXT
  5
33C
330
17
100
AcDbEntity
  8
A-ANNO-TABL
100
AcDbText
 10
9.709999999999999
 20
5.361999999999998
 30
0.0
 40
0.06999999999999999
  1
Event Locker 4
  7
KS-REG
 11
9.709999999999999
 21
5.361999999999998
 31
0.0
100
AcDbText
  0
TEXT
  5
33D
330
17
100
AcDbEntity
  8
A-ANNO-TABL
100
AcDbText
 10
12.0
 20
5.361999999999998
 30
0.0
 40
0.06999999999999999
  1
900
  7
KS-REG
 72
2
 11
12.0
 21
5.361999999999998
 31
0.0
100
AcDbText
  0
TEXT
  5
33E
330
17
100
AcDbEntity
  8
A-ANNO-TABL
100
AcDbText
 10
12.7
 20
5.361999999999998
 30
0.0
 40
0.06999999999999999
  1
900
  7
KS-REG
 72
2
 11
12.7
 21
5.361999999999998
 31
0.0
100
AcDbText
  0
TEXT
  5
33F
330
17
100
AcDbEntity
  8
A-ANNO-TABL
100
AcDbText
 10
12.85
 20
5.361999999999998
 30
0.0
 40
0.064
  1
to the tier line, full 3,600 (D-060): +0
  7
KS-REG
 11
12.85
 21
5.361999999999998
 31
0.0
100
AcDbText
  0
TEXT
  5
340
330
17
100
AcDbEntity
  8
A-ANNO-TABL
100
AcDbText
 10
9.35
 20
5.247999999999998
 30
0.0
 40
0.06999999999999999
  1
15
  7
KS-REG
 11
9.35
 21
5.247999999999998
 31
0.0
100
AcDbText
  0
TEXT
  5
341
330
17
100
AcDbEntity
  8
A-ANNO-TABL
100
AcDbText
 10
9.709999999999999
 20
5.247999999999998
 30
0.0
 40
0.06999999999999999
  1
Mech (N)
  7
KS-REG
 11
9.709999999999999
 21
5.247999999999998
 31
0.0
100
AcDbText
  0
TEXT
  5
342
330
17
100
AcDbEntity
  8
A-ANNO-TABL
100
AcDbText
 10
12.0
 20
5.247999999999998
 30
0.0
 40
0.06999999999999999
  1
614
  7
KS-REG
 72
2
 11
12.0
 21
5.247999999999998
 31
0.0
100
AcDbText
  0
TEXT
  5
343
330
17
100
AcDbEntity
  8
A-ANNO-TABL
100
AcDbText
 10
12.7
 20
5.247999999999998
 30
0.0
 40
0.06999999999999999
  1
712
  7
KS-REG
 72
2
 11
12.7
 21
5.247999999999998
 31
0.0
100
AcDbText
  0
TEXT
  5
344
330
17
100
AcDbEntity
  8
A-ANNO-TABL
100
AcDbText
 10
12.85
 20
5.247999999999998
 30
0.0
 40
0.064
  1

  7
KS-REG
 11
12.85
 21
5.247999999999998
 31
0.0
100
AcDbText
  0
TEXT
  5
345
330
17
100
AcDbEntity
  8
A-ANNO-TABL
100
AcDbText
 10
9.35
 20
5.133999999999999
 30
0.0
 40
0.06999999999999999
  1
16
  7
KS-REG
 11
9.35
 21
5.133999999999999
 31
0.0
100
AcDbText
  0
TEXT
  5
346
330
17
100
AcDbEntity
  8
A-ANNO-TABL
100
AcDbText
 10
9.709999999999999
 20
5.133999999999999
 30
0.0
 40
0.06999999999999999
  1
Mech (E)
  7
KS-REG
 11
9.709999999999999
 21
5.133999999999999
 31
0.0
100
AcDbText
  0
TEXT
  5
347
330
17
100
AcDbEntity
  8
A-ANNO-TABL
100
AcDbText
 10
12.0
 20
5.133999999999999
 30
0.0
 40
0.06999999999999999
  1
675
  7
KS-REG
 72
2
 11
12.0
 21
5.133999999999999
 31
0.0
100
AcDbText
  0
TEXT
  5
348
330
17
100
AcDbEntity
  8
A-ANNO-TABL
100
AcDbText
 10
12.7
 20
5.133999999999999
 30
0.0
 40
0.06999999999999999
  1
783
  7
KS-REG
 72
2
 11
12.7
 21
5.133999999999999
 31
0.0
100
AcDbText
  0
TEXT
  5
349
330
17
100
AcDbEntity
  8
A-ANNO-TABL
100
AcDbText
 10
12.85
 20
5.133999999999999
 30
0.0
 40
0.064
  1
Rev J: was 1,720 SF (D-072, MEP OPEN)
  7
KS-REG
 11
12.85
 21
5.133999999999999
 31
0.0
100
AcDbText
  0
TEXT
  5
34A
330
17
100
AcDbEntity
  8
A-ANNO-TABL
100
AcDbText
 10
9.35
 20
5.019999999999999
 30
0.0
 40
0.06999999999999999
  1
22
  7
KS-REG
 11
9.35
 21
5.019999999999999
 31
0.0
100
AcDbText
  0
TEXT
  5
34B
330
17
100
AcDbEntity
  8
A-ANNO-TABL
100
AcDbText
 10
9.709999999999999
 20
5.019999999999999
 30
0.0
 40
0.06999999999999999
  1
Mech (NE)
  7
KS-REG
 11
9.709999999999999
 21
5.019999999999999
 31
0.0
100
AcDbText
  0
TEXT
  5
34C
330
17
100
AcDbEntity
  8
A-ANNO-TABL
100
AcDbText
 10
12.0
 20
5.019999999999999
 30
0.0
 40
0.06999999999999999
  1
530
  7
KS-REG
 72
2
 11
12.0
 21
5.019999999999999
 31
0.0
100
AcDbText
  0
TEXT
  5
34D
330
17
100
AcDbEntity
  8
A-ANNO-TABL
100
AcDbText
 10
12.7
 20
5.019999999999999
 30
0.0
 40
0.06999999999999999
  1
615
  7
KS-REG
 72
2
 11
12.7
 21
5.019999999999999
 31
0.0
100
AcDbText
  0
TEXT
  5
34E
330
17
100
AcDbEntity
  8
A-ANNO-TABL
100
AcDbText
 10
12.85
 20
5.019999999999999
 30
0.0
 40
0.064
  1
NE pocket, up to ST-2 (Rev F: west edge with ST-2, D-061)
  7
KS-REG
 11
12.85
 21
5.019999999999999
 31
0.0
100
AcDbText
  0
TEXT
  5
34F
330
17
100
AcDbEntity
  8
A-ANNO-TABL
100
AcDbText
 10
9.35
 20
4.905999999999999
 30
0.0
 40
0.06999999999999999
  1
24
  7
KS-REG
 11
9.35
 21
4.905999999999999
 31
0.0
100
AcDbText
  0
TEXT
  5
350
330
17
100
AcDbEntity
  8
A-ANNO-TABL
100
AcDbText
 10
9.709999999999999
 20
4.905999999999999
 30
0.0
 40
0.06999999999999999
  1
Chair / Table / Stage Storage
  7
KS-REG
 11
9.709999999999999
 21
4.905999999999999
 31
0.0
100
AcDbText
  0
TEXT
  5
351
330
17
100
AcDbEntity
  8
A-ANNO-TABL
100
AcDbText
 10
12.0
 20
4.905999999999999
 30
0.0
 40
0.06999999999999999
  1
2,100
  7
KS-REG
 72
2
 11
12.0
 21
4.905999999999999
 31
0.0
100
AcDbText
  0
TEXT
  5
352
330
17
100
AcDbEntity
  8
A-ANNO-TABL
100
AcDbText
 10
12.7
 20
4.905999999999999
 30
0.0
 40
0.06999999999999999
  1
2,100
  7
KS-REG
 72
2
 11
12.7
 21
4.905999999999999
 31
0.0
100
AcDbText
  0
TEXT
  5
353
330
17
100
AcDbEntity
  8
A-ANNO-TABL
100
AcDbText
 10
12.85
 20
4.905999999999999
 30
0.0
 40
0.064
  1
Rev H NEW (D-067): 2,100 SF one-storey annex; 56 chair / table trucks +…
  7
KS-REG
 11
12.85
 21
4.905999999999999
 31
0.0
100
AcDbText
  0
TEXT
  5
354
330
17
100
AcDbEntity
  8
A-ANNO-TABL
100
AcDbText
 10
9.35
 20
4.791999999999999
 30
0.0
 40
0.06999999999999999
  1
23
  7
KS-REG
 11
9.35
 21
4.791999999999999
 31
0.0
100
AcDbText
  0
TEXT
  5
355
330
17
100
AcDbEntity
  8
A-ANNO-TABL
100
AcDbText
 10
9.709999999999999
 20
4.791999999999999
 30
0.0
 40
0.06999999999999999
  1
Flex / Storage
  7
KS-REG
 11
9.709999999999999
 21
4.791999999999999
 31
0.0
100
AcDbText
  0
TEXT
  5
356
330
17
100
AcDbEntity
  8
A-ANNO-TABL
100
AcDbText
 10
12.0
 20
4.791999999999999
 30
0.0
 40
0.06999999999999999
  1
975
  7
KS-REG
 72
2
 11
12.0
 21
4.791999999999999
 31
0.0
100
AcDbText
  0
TEXT
  5
357
330
17
100
AcDbEntity
  8
A-ANNO-TABL
100
AcDbText
 10
12.7
 20
4.791999999999999
 30
0.0
 40
0.06999999999999999
  1
—
  7
KS-REG
 72
2
 11
12.7
 21
4.791999999999999
 31
0.0
100
AcDbText
  0
TEXT
  5
358
330
17
100
AcDbEntity
  8
A-ANNO-TABL
100
AcDbText
 10
12.85
 20
4.791999999999999
 30
0.0
 40
0.064
  1
FLEX, unprogrammed, label kept (D-039, C-1)
  7
KS-REG
 11
12.85
 21
4.791999999999999
 31
0.0
100
AcDbText
  0
TEXT
  5
359
330
17
100
AcDbEntity
  8
A-ANNO-TABL
100
AcDbText
 10
9.35
 20
4.677999999999999
 30
0.0
 40
0.06999999999999999
  1
25
  7
KS-REG
 11
9.35
 21
4.677999999999999
 31
0.0
100
AcDbText
  0
TEXT
  5
35A
330
17
100
AcDbEntity
  8
A-ANNO-TABL
100
AcDbText
 10
9.709999999999999
 20
4.677999999999999
 30
0.0
 40
0.06999999999999999
  1
Men (2)
  7
KS-REG
 11
9.709999999999999
 21
4.677999999999999
 31
0.0
100
AcDbText
  0
TEXT
  5
35B
330
17
100
AcDbEntity
  8
A-ANNO-TABL
100
AcDbText
 10
12.0
 20
4.677999999999999
 30
0.0
 40
0.06999999999999999
  1
364
  7
KS-REG
 72
2
 11
12.0
 21
4.677999999999999
 31
0.0
100
AcDbText
  0
TEXT
  5
35C
330
17
100
AcDbEntity
  8
A-ANNO-TABL
100
AcDbText
 10
12.7
 20
4.677999999999999
 30
0.0
 40
0.06999999999999999
  1
—
  7
KS-REG
 72
2
 11
12.7
 21
4.677999999999999
 31
0.0
100
AcDbText
  0
TEXT
  5
35D
330
17
100
AcDbEntity
  8
A-ANNO-TABL
100
AcDbText
 10
12.85
 20
4.677999999999999
 30
0.0
 40
0.064
  1
core 2: 5 WC + 7 urinals, 5 lav (D-069)
  7
KS-REG
 11
12.85
 21
4.677999999999999
 31
0.0
100
AcDbText
  0
TEXT
  5
35E
330
17
100
AcDbEntity
  8
A-ANNO-TABL
100
AcDbText
 10
9.35
 20
4.563999999999999
 30
0.0
 40
0.06999999999999999
  1
26
  7
KS-REG
 11
9.35
 21
4.563999999999999
 31
0.0
100
AcDbText
  0
TEXT
  5
35F
330
17
100
AcDbEntity
  8
A-ANNO-TABL
100
AcDbText
 10
9.709999999999999
 20
4.563999999999999
 30
0.0
 40
0.06999999999999999
  1
Women (2)
  7
KS-REG
 11
9.709999999999999
 21
4.563999999999999
 31
0.0
100
AcDbText
  0
TEXT
  5
360
330
17
100
AcDbEntity
  8
A-ANNO-TABL
100
AcDbText
 10
12.0
 20
4.563999999999999
 30
0.0
 40
0.06999999999999999
  1
1,020
  7
KS-REG
 72
2
 11
12.0
 21
4.563999999999999
 31
0.0
100
AcDbText
  0
TEXT
  5
361
330
17
100
AcDbEntity
  8
A-ANNO-TABL
100
AcDbText
 10
12.7
 20
4.563999999999999
 30
0.0
 40
0.06999999999999999
  1
—
  7
KS-REG
 72
2
 11
12.7
 21
4.563999999999999
 31
0.0
100
AcDbText
  0
TEXT
  5
362
330
17
100
AcDbEntity
  8
A-ANNO-TABL
100
AcDbText
 10
12.85
 20
4.563999999999999
 30
0.0
 40
0.064
  1
core 2: 24 WC, 7 lav (D-069)
  7
KS-REG
 11
12.85
 21
4.563999999999999
 31
0.0
100
AcDbText
  0
TEXT
  5
363
330
17
100
AcDbEntity
  8
A-ANNO-TABL
100
AcDbText
 10
9.35
 20
4.449999999999999
 30
0.0
 40
0.06999999999999999
  1
27
  7
KS-REG
 11
9.35
 21
4.449999999999999
 31
0.0
100
AcDbText
  0
TEXT
  5
364
330
17
100
AcDbEntity
  8
A-ANNO-TABL
100
AcDbText
 10
9.709999999999999
 20
4.449999999999999
 30
0.0
 40
0.06999999999999999
  1
Df / Jan.
  7
KS-REG
 11
9.709999999999999
 21
4.449999999999999
 31
0.0
100
AcDbText
  0
TEXT
  5
365
330
17
100
AcDbEntity
  8
A-ANNO-TABL
100
AcDbText
 10
12.0
 20
4.449999999999999
 30
0.0
 40
0.06999999999999999
  1
56
  7
KS-REG
 72
2
 11
12.0
 21
4.449999999999999
 31
0.0
100
AcDbText
  0
TEXT
  5
366
330
17
100
AcDbEntity
  8
A-ANNO-TABL
100
AcDbText
 10
12.7
 20
4.449999999999999
 30
0.0
 40
0.06999999999999999
  1
—
  7
KS-REG
 72
2
 11
12.7
 21
4.449999999999999
 31
0.0
100
AcDbText
  0
TEXT
  5
367
330
17
100
AcDbEntity
  8
A-ANNO-TABL
100
AcDbText
 10
12.85
 20
4.449999999999999
 30
0.0
 40
0.064
  1
core 2: 2 DF (hi-lo) + janitor sink (D-069)
  7
KS-REG
 11
12.85
 21
4.449999999999999
 31
0.0
100
AcDbText
  0
TEXT
  5
368
330
17
100
AcDbEntity
  8
A-ANNO-TABL
100
AcDbText
 10
9.35
 20
4.335999999999999
 30
0.0
 40
0.06999999999999999
  1
28
  7
KS-REG
 11
9.35
 21
4.335999999999999
 31
0.0
100
AcDbText
  0
TEXT
  5
369
330
17
100
AcDbEntity
  8
A-ANNO-TABL
100
AcDbText
 10
9.709999999999999
 20
4.335999999999999
 30
0.0
 40
0.06999999999999999
  1
Mech (E2)
  7
KS-REG
 11
9.709999999999999
 21
4.335999999999999
 31
0.0
100
AcDbText
  0
TEXT
  5
36A
330
17
100
AcDbEntity
  8
A-ANNO-TABL
100
AcDbText
 10
12.0
 20
4.335999999999999
 30
0.0
 40
0.06999999999999999
  1
660
  7
KS-REG
 72
2
 11
12.0
 21
4.335999999999999
 31
0.0
100
AcDbText
  0
TEXT
  5
36B
330
17
100
AcDbEntity
  8
A-ANNO-TABL
100
AcDbText
 10
12.7
 20
4.335999999999999
 30
0.0
 40
0.06999999999999999
  1
766
  7
KS-REG
 72
2
 11
12.7
 21
4.335999999999999
 31
0.0
100
AcDbText
  0
TEXT
  5
36C
330
17
100
AcDbEntity
  8
A-ANNO-TABL
100
AcDbText
 10
12.85
 20
4.335999999999999
 30
0.0
 40
0.064
  1
in the bump-out (D-072, MEP OPEN)
  7
KS-REG
 11
12.85
 21
4.335999999999999
 31
0.0
100
AcDbText
  0
LINE
  5
36D
330
17
100
AcDbEntity
  8
A-ANNO-TABL
100
AcDbLine
 10
9.35
 20
4.286
 30
0.0
 11
16.28
 21
4.286
 31
0.0
  0
TEXT
  5
36E
330
17
100
AcDbEntity
  8
A-ANNO-TEXT
100
AcDbText
 10
9.35
 20
4.145999999999999
 30
0.0
 40
0.09
  1
AREA CHECK — D-057 (no SF cap, D-056)
  7
KS-BOLD
 11
9.35
 21
4.145999999999999
 31
0.0
100
AcDbText
  0
TEXT
  5
36F
330
17
100
AcDbEntity
  8
A-ANNO-TABL
100
AcDbText
 10
9.35
 20
4.031999999999999
 30
0.0
 40
0.064
  1

  7
KS-BOLD
 11
9.35
 21
4.031999999999999
 31
0.0
100
AcDbText
  0
TEXT
  5
370
330
17
100
AcDbEntity
  8
A-ANNO-TABL
100
AcDbText
 10
11.1
 20
4.031999999999999
 30
0.0
 40
0.064
  1
DRAWN REV J
  7
KS-BOLD
 72
2
 11
11.1
 21
4.031999999999999
 31
0.0
100
AcDbText
  0
TEXT
  5
371
330
17
100
AcDbEntity
  8
A-ANNO-TABL
100
AcDbText
 10
11.8
 20
4.031999999999999
 30
0.0
 40
0.064
  1
REV I
  7
KS-BOLD
 72
2
 11
11.8
 21
4.031999999999999
 31
0.0
100
AcDbText
  0
TEXT
  5
372
330
17
100
AcDbEntity
  8
A-ANNO-TABL
100
AcDbText
 10
12.45
 20
4.031999999999999
 30
0.0
 40
0.064
  1
CHANGE
  7
KS-BOLD
 72
2
 11
12.45
 21
4.031999999999999
 31
0.0
100
AcDbText
  0
TEXT
  5
373
330
17
100
AcDbEntity
  8
A-ANNO-TABL
100
AcDbText
 10
13.55
 20
4.031999999999999
 30
0.0
 40
0.064
  1
PROGRAM G-003 K
  7
KS-BOLD
 72
2
 11
13.55
 21
4.031999999999999
 31
0.0
100
AcDbText
  0
TEXT
  5
374
330
17
100
AcDbEntity
  8
A-ANNO-TABL
100
AcDbText
 10
16.28
 20
4.031999999999999
 30
0.0
 40
0.064
  1
DRAWN − PROG.
  7
KS-BOLD
 72
2
 11
16.28
 21
4.031999999999999
 31
0.0
100
AcDbText
  0
LINE
  5
375
330
17
100
AcDbEntity
  8
A-ANNO-TABL
100
AcDbLine
 10
9.35
 20
3.9719999999999995
 30
0.0
 11
16.28
 21
3.9719999999999995
 31
0.0
  0
TEXT
  5
376
330
17
100
AcDbEntity
  8
A-ANNO-TABL
100
AcDbText
 10
9.35
 20
3.8979999999999997
 30
0.0
 40
0.06999999999999999
  1
L1 FOOTPRINT
  7
KS-BOLD
 11
9.35
 21
3.8979999999999997
 31
0.0
100
AcDbText
  0
TEXT
  5
377
330
17
100
AcDbEntity
  8
A-ANNO-TABL
100
AcDbText
 10
11.1
 20
3.8979999999999997
 30
0.0
 40
0.06999999999999999
  1
56,861
  7
KS-BOLD
 72
2
 11
11.1
 21
3.8979999999999997
 31
0.0
100
AcDbText
  0
TEXT
  5
378
330
17
100
AcDbEntity
  8
A-ANNO-TABL
100
AcDbText
 10
11.8
 20
3.8979999999999997
 30
0.0
 40
0.06999999999999999
  1
56,861
  7
KS-REG
 72
2
 11
11.8
 21
3.8979999999999997
 31
0.0
100
AcDbText
  0
TEXT
  5
379
330
17
100
AcDbEntity
  8
A-ANNO-TABL
100
AcDbText
 10
12.45
 20
3.8979999999999997
 30
0.0
 40
0.06999999999999999
  1
±0
  7
KS-REG
 72
2
 11
12.45
 21
3.8979999999999997
 31
0.0
100
AcDbText
  0
TEXT
  5
37A
330
17
100
AcDbEntity
  8
A-ANNO-TABL
100
AcDbText
 10
13.55
 20
3.8979999999999997
 30
0.0
 40
0.06999999999999999
  1
58,195
  7
KS-REG
 72
2
 11
13.55
 21
3.8979999999999997
 31
0.0
100
AcDbText
  0
TEXT
  5
37B
330
17
100
AcDbEntity
  8
A-ANNO-TABL
100
AcDbText
 10
16.28
 20
3.8979999999999997
 30
0.0
 40
0.06999999999999999
  1
−1,335
  7
KS-REG
 72
2
 11
16.28
 21
3.8979999999999997
 31
0.0
100
AcDbText
  0
TEXT
  5
37C
330
17
100
AcDbEntity
  8
A-ANNO-TABL
100
AcDbText
 10
9.35
 20
3.784
 30
0.0
 40
0.06999999999999999
  1
L2 AREA
  7
KS-BOLD
 11
9.35
 21
3.784
 31
0.0
100
AcDbText
  0
TEXT
  5
37D
330
17
100
AcDbEntity
  8
A-ANNO-TABL
100
AcDbText
 10
11.1
 20
3.784
 30
0.0
 40
0.06999999999999999
  1
28,933
  7
KS-BOLD
 72
2
 11
11.1
 21
3.784
 31
0.0
100
AcDbText
  0
TEXT
  5
37E
330
17
100
AcDbEntity
  8
A-ANNO-TABL
100
AcDbText
 10
11.8
 20
3.784
 30
0.0
 40
0.06999999999999999
  1
28,933
  7
KS-REG
 72
2
 11
11.8
 21
3.784
 31
0.0
100
AcDbText
  0
TEXT
  5
37F
330
17
100
AcDbEntity
  8
A-ANNO-TABL
100
AcDbText
 10
12.45
 20
3.784
 30
0.0
 40
0.06999999999999999
  1
±0
  7
KS-REG
 72
2
 11
12.45
 21
3.784
 31
0.0
100
AcDbText
  0
TEXT
  5
380
330
17
100
AcDbEntity
  8
A-ANNO-TABL
100
AcDbText
 10
13.55
 20
3.784
 30
0.0
 40
0.06999999999999999
  1
28,186
  7
KS-REG
 72
2
 11
13.55
 21
3.784
 31
0.0
100
AcDbText
  0
TEXT
  5
381
330
17
100
AcDbEntity
  8
A-ANNO-TABL
100
AcDbText
 10
16.28
 20
3.784
 30
0.0
 40
0.06999999999999999
  1
+746
  7
KS-REG
 72
2
 11
16.28
 21
3.784
 31
0.0
100
AcDbText
  0
TEXT
  5
382
330
17
100
AcDbEntity
  8
A-ANNO-TABL
100
AcDbText
 10
9.35
 20
3.67
 30
0.0
 40
0.06999999999999999
  1
TOTAL GSF
  7
KS-BOLD
 11
9.35
 21
3.67
 31
0.0
100
AcDbText
  0
TEXT
  5
383
330
17
100
AcDbEntity
  8
A-ANNO-TABL
100
AcDbText
 10
11.1
 20
3.67
 30
0.0
 40
0.06999999999999999
  1
85,793
  7
KS-BOLD
 72
2
 11
11.1
 21
3.67
 31
0.0
100
AcDbText
  0
TEXT
  5
384
330
17
100
AcDbEntity
  8
A-ANNO-TABL
100
AcDbText
 10
11.8
 20
3.67
 30
0.0
 40
0.06999999999999999
  1
85,793
  7
KS-REG
 72
2
 11
11.8
 21
3.67
 31
0.0
100
AcDbText
  0
TEXT
  5
385
330
17
100
AcDbEntity
  8
A-ANNO-TABL
100
AcDbText
 10
12.45
 20
3.67
 30
0.0
 40
0.06999999999999999
  1
±0
  7
KS-REG
 72
2
 11
12.45
 21
3.67
 31
0.0
100
AcDbText
  0
TEXT
  5
386
330
17
100
AcDbEntity
  8
A-ANNO-TABL
100
AcDbText
 10
13.55
 20
3.67
 30
0.0
 40
0.06999999999999999
  1
86,381
  7
KS-REG
 72
2
 11
13.55
 21
3.67
 31
0.0
100
AcDbText
  0
TEXT
  5
387
330
17
100
AcDbEntity
  8
A-ANNO-TABL
100
AcDbText
 10
16.28
 20
3.67
 30
0.0
 40
0.06999999999999999
  1
−588
  7
KS-REG
 72
2
 11
16.28
 21
3.67
 31
0.0
100
AcDbText
  0
LINE
  5
388
330
17
100
AcDbEntity
  8
A-ANNO-TABL
100
AcDbLine
 10
9.35
 20
3.62
 30
0.0
 11
16.28
 21
3.62
 31
0.0
  0
TEXT
  5
389
330
17
100
AcDbEntity
  8
A-ANNO-TEXT
100
AcDbText
 10
9.35
 20
3.4972999999999996
 30
0.0
 40
0.069
  1
Floor 120 x 144, east tier 16 ft from the mats. Program = footprint / L2 gross (R-021). Seats N 673 / S 661 / E 866 (Rev F 673 / 661 / 866). Mech
  7
KS-REG
 11
9.35
 21
3.4972999999999996
 31
0.0
100
AcDbText
  0
TEXT
  5
38A
330
17
100
AcDbEntity
  8
A-ANNO-TEXT
100
AcDbText
 10
9.35
 20
3.3707999999999996
 30
0.0
 40
0.069
  1
3,496 vs 4,056. Event lockers 3,600 SF (D-060). FLEX kept: team assembly ≈ 2,072, FLEX / STORAGE 975 SF.
  7
KS-REG
 11
9.35
 21
3.3707999999999996
 31
0.0
100
AcDbText
  0
TEXT
  5
38B
330
17
100
AcDbEntity
  8
A-ANNO-TEXT
100
AcDbText
 10
9.35
 20
3.1853749999999996
 30
0.0
 40
0.09
  1
ACCESS CONTROL + EGRESS (D-033 DECIDED; layout ASSUMED)
  7
KS-BOLD
 11
9.35
 21
3.1853749999999996
 31
0.0
100
AcDbText
  0
TEXT
  5
38C
330
17
100
AcDbEntity
  8
A-ANNO-TEXT
100
AcDbText
 10
9.35
 20
3.0808416666666663
 30
0.0
 40
0.064
  1
·
  7
KS-REG
 11
9.35
 21
3.0808416666666663
 31
0.0
100
AcDbText
  0
TEXT
  5
38D
330
17
100
AcDbEntity
  8
A-ANNO-TEXT
100
AcDbText
 10
9.469999999999999
 20
3.0808416666666663
 30
0.0
 40
0.064
  1
ONE WAY IN (D-033): E1 → vestibule → SCREENING BAY, lobby east side (D-065 Option 1; 3 lanes ASSUMED) → lobby. 39 ft = 468 in clear beside the bay
  7
KS-REG
 11
9.469999999999999
 21
3.0808416666666663
 31
0.0
100
AcDbText
  0
TEXT
  5
38E
330
17
100
AcDbEntity
  8
A-ANNO-TEXT
100
AcDbText
 10
9.469999999999999
 20
2.963508333333333
 30
0.0
 40
0.064
  1
≥ 466.5 in standing (IBC 1003.6, 1010.5). First aid + concession in the E concourse.
  7
KS-REG
 11
9.469999999999999
 21
2.963508333333333
 31
0.0
100
AcDbText
  0
TEXT
  5
38F
330
17
100
AcDbEntity
  8
A-ANNO-TEXT
100
AcDbText
 10
9.35
 20
2.8368416666666665
 30
0.0
 40
0.064
  1
·
  7
KS-REG
 11
9.35
 21
2.8368416666666665
 31
0.0
100
AcDbText
  0
TEXT
  5
390
330
17
100
AcDbEntity
  8
A-ANNO-TEXT
100
AcDbText
 10
9.469999999999999
 20
2.8368416666666665
 30
0.0
 40
0.064
  1
CORE 2 (D-069 / D-070 / D-072): 30 x 56 bump-out slid 42 ft south of EXIT (E). PUBLIC CORRIDOR (E) 8 ft from CONCOURSE (E): rooms 25 / 26 / 27 open
  7
KS-REG
 11
9.469999999999999
 21
2.8368416666666665
 31
0.0
100
AcDbText
  0
TEXT
  5
391
330
17
100
AcDbEntity
  8
A-ANNO-TEXT
100
AcDbText
 10
9.469999999999999
 20
2.719508333333333
 30
0.0
 40
0.064
  1
only onto it; X11 off it. EXIT (E) clear, X7 on the wall. MECH (E) 675 + (E2) 660 SF (MEP OPEN). Fixtures 22 / 42 WC with the lobby core. Checks: A-111
  7
KS-REG
 11
9.469999999999999
 21
2.719508333333333
 31
0.0
100
AcDbText
  0
TEXT
  5
392
330
17
100
AcDbEntity
  8
A-ANNO-TEXT
100
AcDbText
 10
9.469999999999999
 20
2.602175
 30
0.0
 40
0.064
  1
D, A-401 D.
  7
KS-REG
 11
9.469999999999999
 21
2.602175
 31
0.0
100
AcDbText
  0
TEXT
  5
393
330
17
100
AcDbEntity
  8
A-ANNO-TEXT
100
AcDbText
 10
9.35
 20
2.4755083333333334
 30
0.0
 40
0.064
  1
·
  7
KS-REG
 11
9.35
 21
2.4755083333333334
 31
0.0
100
AcDbText
  0
TEXT
  5
394
330
17
100
AcDbEntity
  8
A-ANNO-TEXT
100
AcDbText
 10
9.469999999999999
 20
2.4755083333333334
 30
0.0
 40
0.064
  1
D-061 (Option B): Level 2 at 17'-9", 21 in upper risers, front row 9.0 ft: 7'-6" clear under row 1 (≈ 1'-6" structure ASSUMED; IBC 1003.2 minimum, no
  7
KS-REG
 11
9.469999999999999
 21
2.4755083333333334
 31
0.0
100
AcDbText
  0
TEXT
  5
395
330
17
100
AcDbEntity
  8
A-ANNO-TEXT
100
AcDbText
 10
9.469999999999999
 20
2.358175
 30
0.0
 40
0.064
  1
margin). Exit paths under the tier are clear; no low band, no seats lost.
  7
KS-REG
 11
9.469999999999999
 21
2.358175
 31
0.0
100
AcDbText
  0
TEXT
  5
396
330
17
100
AcDbEntity
  8
A-ANNO-TEXT
100
AcDbText
 10
9.35
 20
2.193141666666667
 30
0.0
 40
0.063
  1
Sources: phase2.yaml (D-033-D-069); DECISIONS_ARENA D-070-D-072; P2-G-003 K, A-111 D, A-401 D; IBC 2021 1003.6, 1006.2.1, 1020.3, T2902.1.
  7
KS-REG
 11
9.35
 21
2.193141666666667
 31
0.0
100
AcDbText
  0
TEXT
  5
397
330
17
100
AcDbEntity
  8
A-ANNO-TEXT
100
AcDbText
 10
9.35
 20
2.077641666666667
 30
0.0
 40
0.063
  1
Geometry: params/phase2_plan_rev_j.yaml.
  7
KS-REG
 11
9.35
 21
2.077641666666667
 31
0.0
100
AcDbText
  0
ENDSEC
  0
SECTION
  2
OBJECTS
  0
DICTIONARY
  5
A
330
0
100
AcDbDictionary
281
1
  3
ACAD_COLOR
350
B
  3
ACAD_GROUP
350
C
  3
ACAD_LAYOUT
350
D
  3
ACAD_MATERIAL
350
E
  3
ACAD_MLEADERSTYLE
350
F
  3
ACAD_MLINESTYLE
350
10
  3
ACAD_PLOTSETTINGS
350
11
  3
ACAD_PLOTSTYLENAME
350
12
  3
ACAD_SCALELIST
350
14
  3
ACAD_TABLESTYLE
350
15
  3
ACAD_VISUALSTYLE
350
16
  3
EZDXF_META
350
2D
  0
DICTIONARY
  5
B
330
A
100
AcDbDictionary
281
1
  0
DICTIONARY
  5
C
330
A
100
AcDbDictionary
281
1
  0
DICTIONARY
  5
D
330
A
100
AcDbDictionary
281
1
  3
Model
350
1A
  3
Layout1
350
1E
  0
DICTIONARY
  5
E
330
A
100
AcDbDictionary
281
1
  3
ByBlock
350
1F
  3
ByLayer
350
20
  3
Global
350
21
  0
DICTIONARY
  5
F
330
A
100
AcDbDictionary
281
1
  3
Standard
350
2C
  0
DICTIONARY
  5
10
330
A
100
AcDbDictionary
281
1
  3
Standard
350
22
  0
DICTIONARY
  5
11
330
A
100
AcDbDictionary
281
1
  0
ACDBDICTIONARYWDFLT
  5
12
330
A
100
AcDbDictionary
281
1
  3
Normal
350
13
100
AcDbDictionaryWithDefault
340
13
  0
ACDBPLACEHOLDER
  5
13
330
12
  0
DICTIONARY
  5
14
330
A
100
AcDbDictionary
281
1
  0
DICTIONARY
  5
15
330
A
100
AcDbDictionary
281
1
  0
DICTIONARY
  5
16
330
A
100
AcDbDictionary
281
1
  0
LAYOUT
  5
1A
330
D
100
AcDbPlotSettings
  1

  4
A3
  6

 40
7.5
 41
20.0
 42
7.5
 43
20.0
 44
420.0
 45
297.0
 46
0.0
 47
0.0
 48
0.0
 49
0.0
140
0.0
141
0.0
142
1.0
143
1.0
 70
1024
 72
1
 73
0
 74
5
  7

 75
16
 76
0
 77
2
 78
300
147
1.0
148
0.0
149
0.0
100
AcDbLayout
  1
Model
 70
1
 71
0
 10
0.0
 20
0.0
 11
420.0
 21
297.0
 12
0.0
 22
0.0
 32
0.0
 14
1e+20
 24
1e+20
 34
1e+20
 15
-1e+20
 25
-1e+20
 35
-1e+20
146
0.0
 13
0.0
 23
0.0
 33
0.0
 16
1.0
 26
0.0
 36
0.0
 17
0.0
 27
1.0
 37
0.0
 76
1
330
17
  0
LAYOUT
  5
1E
330
D
100
AcDbPlotSettings
  1

  4
A3
  6

 40
7.5
 41
20.0
 42
7.5
 43
20.0
 44
420.0
 45
297.0
 46
0.0
 47
0.0
 48
0.0
 49
0.0
140
0.0
141
0.0
142
1.0
143
1.0
 70
0
 72
1
 73
0
 74
5
  7

 75
16
 76
0
 77
2
 78
300
147
1.0
148
0.0
149
0.0
100
AcDbLayout
  1
Layout1
 70
1
 71
1
 10
0.0
 20
0.0
 11
420.0
 21
297.0
 12
0.0
 22
0.0
 32
0.0
 14
1e+20
 24
1e+20
 34
1e+20
 15
-1e+20
 25
-1e+20
 35
-1e+20
146
0.0
 13
0.0
 23
0.0
 33
0.0
 16
1.0
 26
0.0
 36
0.0
 17
0.0
 27
1.0
 37
0.0
 76
1
330
1B
  0
MATERIAL
  5
1F
102
{ACAD_REACTORS
330
E
102
}
330
E
100
AcDbMaterial
  1
ByBlock
  2

 70
0
 40
1.0
 71
1
 41
1.0
 91
-1023410177
 42
1.0
 72
1
  3

 73
1
 74
1
 75
1
 44
0.5
 73
0
 45
1.0
 46
1.0
 77
1
  4

 78
1
 79
1
170
1
 48
1.0
171
1
  6

172
1
173
1
174
1
140
1.0
141
1.0
175
1
  7

176
1
177
1
178
1
143
1.0
179
1
  8

270
1
271
1
272
1
145
1.0
146
1.0
273
1
  9

274
1
275
1
276
1
 42
1.0
 72
1
  3

 73
1
 74
1
 75
1
 94
63
  0
MATERIAL
  5
20
102
{ACAD_REACTORS
330
E
102
}
330
E
100
AcDbMaterial
  1
ByLayer
  2

 70
0
 40
1.0
 71
1
 41
1.0
 91
-1023410177
 42
1.0
 72
1
  3

 73
1
 74
1
 75
1
 44
0.5
 73
0
 45
1.0
 46
1.0
 77
1
  4

 78
1
 79
1
170
1
 48
1.0
171
1
  6

172
1
173
1
174
1
140
1.0
141
1.0
175
1
  7

176
1
177
1
178
1
143
1.0
179
1
  8

270
1
271
1
272
1
145
1.0
146
1.0
273
1
  9

274
1
275
1
276
1
 42
1.0
 72
1
  3

 73
1
 74
1
 75
1
 94
63
  0
MATERIAL
  5
21
102
{ACAD_REACTORS
330
E
102
}
330
E
100
AcDbMaterial
  1
Global
  2

 70
0
 40
1.0
 71
1
 41
1.0
 91
-1023410177
 42
1.0
 72
1
  3

 73
1
 74
1
 75
1
 44
0.5
 73
0
 45
1.0
 46
1.0
 77
1
  4

 78
1
 79
1
170
1
 48
1.0
171
1
  6

172
1
173
1
174
1
140
1.0
141
1.0
175
1
  7

176
1
177
1
178
1
143
1.0
179
1
  8

270
1
271
1
272
1
145
1.0
146
1.0
273
1
  9

274
1
275
1
276
1
 42
1.0
 72
1
  3

 73
1
 74
1
 75
1
 94
63
  0
MLINESTYLE
  5
22
102
{ACAD_REACTORS
330
10
102
}
330
10
100
AcDbMlineStyle
  2
Standard
 70
0
  3

 62
256
 51
90.0
 52
90.0
 71
2
 49
0.5
 62
256
  6
BYLAYER
 49
-0.5
 62
256
  6
BYLAYER
  0
MLEADERSTYLE
  5
2C
102
{ACAD_REACTORS
330
F
102
}
330
F
100
AcDbMLeaderStyle
179
2
170
2
171
1
172
0
 90
2
 40
0.0
 41
0.0
173
1
 91
-1056964608
 92
-2
290
1
 42
2.0
291
1
 43
8.0
  3
Standard
 44
4.0
300

342
29
174
1
175
1
176
0
178
1
 93
-1056964608
 45
4.0
292
0
297
0
 46
4.0
 94
-1056964608
 47
1.0
 49
1.0
140
1.0
294
1
141
0.0
177
0
142
1.0
295
0
296
0
143
3.75
271
0
272
9
273
9
  0
DICTIONARY
  5
2D
330
A
100
AcDbDictionary
280
1
281
1
  3
CREATED_BY_EZDXF
350
2E
  3
WRITTEN_BY_EZDXF
350
39A
  0
DICTIONARYVAR
  5
2E
330
2D
100
DictionaryVariables
280
0
  1
1.4.4 @ 2026-10-04T23:26:18.431178+00:00
  0
DICTIONARYVAR
  5
39A
330
2D
100
DictionaryVariables
280
0
  1
1.4.4 @ 2026-10-04T23:26:18.460556+00:00
  0
ENDSEC
  0
EOF
