# KEYSTONE P2-A-901 Rev A massing model (feet; origin = SW building corner; x east, y north, z up). Massing only.
mtllib P2-A-901_RevD_massing.mtl
o exterior_portal_pier_w
v 91.000 0.000 36.000
v 91.000 50.000 36.000
v 91.000 0.000 30.000
v 91.000 50.000 30.000
v 99.000 0.000 36.000
v 99.000 50.000 36.000
v 99.000 0.000 30.000
v 99.000 50.000 30.000
usemtl m_D8CCB0
f 2 6 8 4
usemtl m_D8CCB0
f 1 3 7 5
usemtl m_D8CCB0
f 1 5 6 2
usemtl m_D8CCB0
f 7 3 4 8
usemtl m_D8CCB0
f 3 1 2 4
usemtl m_D8CCB0
f 5 7 8 6
o exterior_portal_pier_e
v 127.000 0.000 36.000
v 127.000 50.000 36.000
v 127.000 0.000 30.000
v 127.000 50.000 30.000
v 135.000 0.000 36.000
v 135.000 50.000 36.000
v 135.000 0.000 30.000
v 135.000 50.000 30.000
usemtl m_D8CCB0
f 10 14 16 12
usemtl m_D8CCB0
f 9 11 15 13
usemtl m_D8CCB0
f 9 13 14 10
usemtl m_D8CCB0
f 15 11 12 16
usemtl m_D8CCB0
f 11 9 10 12
usemtl m_D8CCB0
f 13 15 16 14
o exterior_portal_spandrel
v 99.000 22.100 36.000
v 99.000 50.000 36.000
v 99.000 22.100 30.000
v 99.000 50.000 30.000
v 127.000 22.100 36.000
v 127.000 50.000 36.000
v 127.000 22.100 30.000
v 127.000 50.000 30.000
usemtl m_D8CCB0
f 18 22 24 20
v 99.000 22.100 36.000
v 99.500 25.252 36.000
v 100.000 26.517 36.000
v 100.500 27.459 36.000
v 101.000 28.229 36.000
v 101.500 28.887 36.000
v 102.000 29.461 36.000
v 102.500 29.971 36.000
v 103.000 30.428 36.000
v 103.500 30.841 36.000
v 104.000 31.215 36.000
v 104.500 31.556 36.000
v 105.000 31.866 36.000
v 105.500 32.148 36.000
v 106.000 32.406 36.000
v 106.500 32.640 36.000
v 107.000 32.852 36.000
v 107.500 33.043 36.000
v 108.000 33.215 36.000
v 108.500 33.369 36.000
v 109.000 33.504 36.000
v 109.500 33.622 36.000
v 110.000 33.724 36.000
v 110.500 33.809 36.000
v 111.000 33.878 36.000
v 111.500 33.931 36.000
v 112.000 33.970 36.000
v 112.500 33.992 36.000
v 113.000 34.000 36.000
v 113.500 33.992 36.000
v 114.000 33.970 36.000
v 114.500 33.931 36.000
v 115.000 33.878 36.000
v 115.500 33.809 36.000
v 116.000 33.724 36.000
v 116.500 33.622 36.000
v 117.000 33.504 36.000
v 117.500 33.369 36.000
v 118.000 33.215 36.000
v 118.500 33.043 36.000
v 119.000 32.852 36.000
v 119.500 32.640 36.000
v 120.000 32.406 36.000
v 120.500 32.148 36.000
v 121.000 31.866 36.000
v 121.500 31.556 36.000
v 122.000 31.215 36.000
v 122.500 30.841 36.000
v 123.000 30.428 36.000
v 123.500 29.971 36.000
v 124.000 29.461 36.000
v 124.500 28.887 36.000
v 125.000 28.229 36.000
v 125.500 27.459 36.000
v 126.000 26.517 36.000
v 126.500 25.252 36.000
v 127.000 22.100 36.000
v 127.000 50.000 36.000
v 99.000 50.000 36.000
usemtl m_D8CCB0
f 25 26 27 28 29 30 31 32 33 34 35 36 37 38 39 40 41 42 43 44 45 46 47 48 49 50 51 52 53 54 55 56 57 58 59 60 61 62 63 64 65 66 67 68 69 70 71 72 73 74 75 76 77 78 79 80 81 82 83
v 127.000 22.100 30.000
v 126.500 25.252 30.000
v 126.000 26.517 30.000
v 125.500 27.459 30.000
v 125.000 28.229 30.000
v 124.500 28.887 30.000
v 124.000 29.461 30.000
v 123.500 29.971 30.000
v 123.000 30.428 30.000
v 122.500 30.841 30.000
v 122.000 31.215 30.000
v 121.500 31.556 30.000
v 121.000 31.866 30.000
v 120.500 32.148 30.000
v 120.000 32.406 30.000
v 119.500 32.640 30.000
v 119.000 32.852 30.000
v 118.500 33.043 30.000
v 118.000 33.215 30.000
v 117.500 33.369 30.000
v 117.000 33.504 30.000
v 116.500 33.622 30.000
v 116.000 33.724 30.000
v 115.500 33.809 30.000
v 115.000 33.878 30.000
v 114.500 33.931 30.000
v 114.000 33.970 30.000
v 113.500 33.992 30.000
v 113.000 34.000 30.000
v 112.500 33.992 30.000
v 112.000 33.970 30.000
v 111.500 33.931 30.000
v 111.000 33.878 30.000
v 110.500 33.809 30.000
v 110.000 33.724 30.000
v 109.500 33.622 30.000
v 109.000 33.504 30.000
v 108.500 33.369 30.000
v 108.000 33.215 30.000
v 107.500 33.043 30.000
v 107.000 32.852 30.000
v 106.500 32.640 30.000
v 106.000 32.406 30.000
v 105.500 32.148 30.000
v 105.000 31.866 30.000
v 104.500 31.556 30.000
v 104.000 31.215 30.000
v 103.500 30.841 30.000
v 103.000 30.428 30.000
v 102.500 29.971 30.000
v 102.000 29.461 30.000
v 101.500 28.887 30.000
v 101.000 28.229 30.000
v 100.500 27.459 30.000
v 100.000 26.517 30.000
v 99.500 25.252 30.000
v 99.000 22.100 30.000
v 99.000 50.000 30.000
v 127.000 50.000 30.000
usemtl m_D8CCB0
f 84 85 86 87 88 89 90 91 92 93 94 95 96 97 98 99 100 101 102 103 104 105 106 107 108 109 110 111 112 113 114 115 116 117 118 119 120 121 122 123 124 125 126 127 128 129 130 131 132 133 134 135 136 137 138 139 140 141 142
o exterior_storage_annex
v 52.000 0.000 -252.000
v 52.000 16.000 -252.000
v 52.000 0.000 -282.000
v 52.000 16.000 -282.000
v 122.000 0.000 -252.000
v 122.000 16.000 -252.000
v 122.000 0.000 -282.000
v 122.000 16.000 -282.000
usemtl m_E4E4E4
f 144 148 150 146
usemtl m_E4E4E4
f 143 145 149 147
usemtl m_E4E4E4
f 143 147 148 144
usemtl m_E4E4E4
f 149 145 146 150
usemtl m_E4E4E4
f 145 143 144 146
usemtl m_E4E4E4
f 147 149 150 148
o exterior_restroom_bumpout
v 210.000 0.000 -119.090
v 210.000 16.000 -119.090
v 210.000 0.000 -175.090
v 210.000 16.000 -175.090
v 240.000 0.000 -119.090
v 240.000 16.000 -119.090
v 240.000 0.000 -175.090
v 240.000 16.000 -175.090
usemtl m_E4E4E4
f 152 156 158 154
usemtl m_E4E4E4
f 151 153 157 155
usemtl m_E4E4E4
f 151 155 156 152
usemtl m_E4E4E4
f 157 153 154 158
usemtl m_E4E4E4
f 153 151 152 154
usemtl m_E4E4E4
f 155 157 158 156
o exterior_building_ring
v 0.000 0.000 0.000
v 0.000 32.750 0.000
v 0.000 0.000 -252.000
v 0.000 32.750 -252.000
v 210.000 0.000 0.000
v 210.000 32.750 0.000
v 210.000 0.000 -252.000
v 210.000 32.750 -252.000
usemtl m_E4E4E4
f 160 164 166 162
usemtl m_E4E4E4
f 159 161 165 163
usemtl m_E4E4E4
f 159 163 164 160
usemtl m_E4E4E4
f 165 161 162 166
usemtl m_E4E4E4
f 161 159 160 162
usemtl m_E4E4E4
f 163 165 166 164
o exterior_ne_stair_tower
v 185.917 0.000 -252.000
v 185.917 32.750 -252.000
v 185.917 0.000 -258.667
v 185.917 32.750 -258.667
v 210.000 0.000 -252.000
v 210.000 32.750 -252.000
v 210.000 0.000 -258.667
v 210.000 32.750 -258.667
usemtl m_E4E4E4
f 168 172 174 170
usemtl m_E4E4E4
f 167 169 173 171
usemtl m_E4E4E4
f 167 171 172 168
usemtl m_E4E4E4
f 173 169 170 174
usemtl m_E4E4E4
f 169 167 168 170
usemtl m_E4E4E4
f 171 173 174 172
o exterior_arena_volume
v 49.000 32.750 -34.000
v 49.000 42.000 -34.000
v 49.000 32.750 -246.000
v 49.000 42.000 -246.000
v 210.000 32.750 -34.000
v 210.000 42.000 -34.000
v 210.000 32.750 -246.000
v 210.000 42.000 -246.000
usemtl m_CDCDCD
f 176 180 182 178
usemtl m_CDCDCD
f 175 177 181 179
usemtl m_CDCDCD
f 175 179 180 176
usemtl m_CDCDCD
f 181 177 178 182
usemtl m_CDCDCD
f 177 175 176 178
usemtl m_CDCDCD
f 179 181 182 180
o exterior_ground_band_0
v 93.000 0.000 0.000
v 99.000 0.000 0.000
v 99.000 0.000 30.000
v 91.000 0.000 30.000
v 91.000 0.000 36.000
v 99.000 0.000 36.000
v 99.000 0.000 42.000
v 85.000 0.000 42.000
v 85.000 0.000 24.000
v 93.000 0.000 24.000
usemtl m_D9B79A
f 183 184 185 186 187 188 189 190 191 192
o exterior_ground_band_1
v 133.000 0.000 24.000
v 141.000 0.000 24.000
v 141.000 0.000 42.000
v 127.000 0.000 42.000
v 127.000 0.000 36.000
v 135.000 0.000 36.000
v 135.000 0.000 30.000
v 127.000 0.000 30.000
v 127.000 0.000 0.000
v 133.000 0.000 0.000
usemtl m_D9B79A
f 193 194 195 196 197 198 199 200 201 202
o exterior_ground_walk_2
v 99.000 0.000 30.000
v 127.000 0.000 30.000
v 127.000 0.000 0.000
v 99.000 0.000 0.000
usemtl m_B5654A
f 203 204 205 206
o cutaway_portal_pier_w
v 91.000 0.000 36.000
v 91.000 50.000 36.000
v 91.000 0.000 30.000
v 91.000 50.000 30.000
v 99.000 0.000 36.000
v 99.000 50.000 36.000
v 99.000 0.000 30.000
v 99.000 50.000 30.000
usemtl m_D8CCB0
f 208 212 214 210
usemtl m_D8CCB0
f 207 209 213 211
usemtl m_D8CCB0
f 207 211 212 208
usemtl m_D8CCB0
f 213 209 210 214
usemtl m_D8CCB0
f 209 207 208 210
usemtl m_D8CCB0
f 211 213 214 212
o cutaway_portal_pier_e
v 127.000 0.000 36.000
v 127.000 50.000 36.000
v 127.000 0.000 30.000
v 127.000 50.000 30.000
v 135.000 0.000 36.000
v 135.000 50.000 36.000
v 135.000 0.000 30.000
v 135.000 50.000 30.000
usemtl m_D8CCB0
f 216 220 222 218
usemtl m_D8CCB0
f 215 217 221 219
usemtl m_D8CCB0
f 215 219 220 216
usemtl m_D8CCB0
f 221 217 218 222
usemtl m_D8CCB0
f 217 215 216 218
usemtl m_D8CCB0
f 219 221 222 220
o cutaway_portal_spandrel
v 99.000 22.100 36.000
v 99.000 50.000 36.000
v 99.000 22.100 30.000
v 99.000 50.000 30.000
v 127.000 22.100 36.000
v 127.000 50.000 36.000
v 127.000 22.100 30.000
v 127.000 50.000 30.000
usemtl m_D8CCB0
f 224 228 230 226
v 99.000 22.100 36.000
v 99.500 25.252 36.000
v 100.000 26.517 36.000
v 100.500 27.459 36.000
v 101.000 28.229 36.000
v 101.500 28.887 36.000
v 102.000 29.461 36.000
v 102.500 29.971 36.000
v 103.000 30.428 36.000
v 103.500 30.841 36.000
v 104.000 31.215 36.000
v 104.500 31.556 36.000
v 105.000 31.866 36.000
v 105.500 32.148 36.000
v 106.000 32.406 36.000
v 106.500 32.640 36.000
v 107.000 32.852 36.000
v 107.500 33.043 36.000
v 108.000 33.215 36.000
v 108.500 33.369 36.000
v 109.000 33.504 36.000
v 109.500 33.622 36.000
v 110.000 33.724 36.000
v 110.500 33.809 36.000
v 111.000 33.878 36.000
v 111.500 33.931 36.000
v 112.000 33.970 36.000
v 112.500 33.992 36.000
v 113.000 34.000 36.000
v 113.500 33.992 36.000
v 114.000 33.970 36.000
v 114.500 33.931 36.000
v 115.000 33.878 36.000
v 115.500 33.809 36.000
v 116.000 33.724 36.000
v 116.500 33.622 36.000
v 117.000 33.504 36.000
v 117.500 33.369 36.000
v 118.000 33.215 36.000
v 118.500 33.043 36.000
v 119.000 32.852 36.000
v 119.500 32.640 36.000
v 120.000 32.406 36.000
v 120.500 32.148 36.000
v 121.000 31.866 36.000
v 121.500 31.556 36.000
v 122.000 31.215 36.000
v 122.500 30.841 36.000
v 123.000 30.428 36.000
v 123.500 29.971 36.000
v 124.000 29.461 36.000
v 124.500 28.887 36.000
v 125.000 28.229 36.000
v 125.500 27.459 36.000
v 126.000 26.517 36.000
v 126.500 25.252 36.000
v 127.000 22.100 36.000
v 127.000 50.000 36.000
v 99.000 50.000 36.000
usemtl m_D8CCB0
f 231 232 233 234 235 236 237 238 239 240 241 242 243 244 245 246 247 248 249 250 251 252 253 254 255 256 257 258 259 260 261 262 263 264 265 266 267 268 269 270 271 272 273 274 275 276 277 278 279 280 281 282 283 284 285 286 287 288 289
v 127.000 22.100 30.000
v 126.500 25.252 30.000
v 126.000 26.517 30.000
v 125.500 27.459 30.000
v 125.000 28.229 30.000
v 124.500 28.887 30.000
v 124.000 29.461 30.000
v 123.500 29.971 30.000
v 123.000 30.428 30.000
v 122.500 30.841 30.000
v 122.000 31.215 30.000
v 121.500 31.556 30.000
v 121.000 31.866 30.000
v 120.500 32.148 30.000
v 120.000 32.406 30.000
v 119.500 32.640 30.000
v 119.000 32.852 30.000
v 118.500 33.043 30.000
v 118.000 33.215 30.000
v 117.500 33.369 30.000
v 117.000 33.504 30.000
v 116.500 33.622 30.000
v 116.000 33.724 30.000
v 115.500 33.809 30.000
v 115.000 33.878 30.000
v 114.500 33.931 30.000
v 114.000 33.970 30.000
v 113.500 33.992 30.000
v 113.000 34.000 30.000
v 112.500 33.992 30.000
v 112.000 33.970 30.000
v 111.500 33.931 30.000
v 111.000 33.878 30.000
v 110.500 33.809 30.000
v 110.000 33.724 30.000
v 109.500 33.622 30.000
v 109.000 33.504 30.000
v 108.500 33.369 30.000
v 108.000 33.215 30.000
v 107.500 33.043 30.000
v 107.000 32.852 30.000
v 106.500 32.640 30.000
v 106.000 32.406 30.000
v 105.500 32.148 30.000
v 105.000 31.866 30.000
v 104.500 31.556 30.000
v 104.000 31.215 30.000
v 103.500 30.841 30.000
v 103.000 30.428 30.000
v 102.500 29.971 30.000
v 102.000 29.461 30.000
v 101.500 28.887 30.000
v 101.000 28.229 30.000
v 100.500 27.459 30.000
v 100.000 26.517 30.000
v 99.500 25.252 30.000
v 99.000 22.100 30.000
v 99.000 50.000 30.000
v 127.000 50.000 30.000
usemtl m_D8CCB0
f 290 291 292 293 294 295 296 297 298 299 300 301 302 303 304 305 306 307 308 309 310 311 312 313 314 315 316 317 318 319 320 321 322 323 324 325 326 327 328 329 330 331 332 333 334 335 336 337 338 339 340 341 342 343 344 345 346 347 348
o cutaway_storage_annex_cut
v 52.000 0.000 -252.000
v 52.000 16.000 -252.000
v 52.000 0.000 -282.000
v 52.000 16.000 -282.000
v 122.000 0.000 -252.000
v 122.000 16.000 -252.000
v 122.000 0.000 -282.000
v 122.000 16.000 -282.000
usemtl m_D6D6D6
f 350 354 356 352
usemtl m_D6D6D6
f 349 351 355 353
usemtl m_D6D6D6
f 349 353 354 350
usemtl m_D6D6D6
f 355 351 352 356
usemtl m_D6D6D6
f 351 349 350 352
usemtl m_D6D6D6
f 353 355 356 354
o cutaway_restroom_bumpout_cut
v 210.000 0.000 -119.090
v 210.000 16.000 -119.090
v 210.000 0.000 -175.090
v 210.000 16.000 -175.090
v 240.000 0.000 -119.090
v 240.000 16.000 -119.090
v 240.000 0.000 -175.090
v 240.000 16.000 -175.090
usemtl m_D6D6D6
f 358 362 364 360
usemtl m_D6D6D6
f 357 359 363 361
usemtl m_D6D6D6
f 357 361 362 358
usemtl m_D6D6D6
f 363 359 360 364
usemtl m_D6D6D6
f 359 357 358 360
usemtl m_D6D6D6
f 361 363 364 362
o cutaway_ring_cut_0
v 0.000 0.000 0.000
v 0.000 17.750 0.000
v 0.000 0.000 -252.000
v 0.000 17.750 -252.000
v 56.000 0.000 0.000
v 56.000 17.750 0.000
v 56.000 0.000 -252.000
v 56.000 17.750 -252.000
usemtl m_D6D6D6
f 366 370 372 368
usemtl m_D6D6D6
f 365 367 371 369
usemtl m_D6D6D6
f 365 369 370 366
usemtl m_D6D6D6
f 371 367 368 372
usemtl m_D6D6D6
f 367 365 366 368
usemtl m_D6D6D6
f 369 371 372 370
o cutaway_ring_cut_1
v 56.000 0.000 -239.000
v 56.000 17.750 -239.000
v 56.000 0.000 -252.000
v 56.000 17.750 -252.000
v 210.000 0.000 -239.000
v 210.000 17.750 -239.000
v 210.000 0.000 -252.000
v 210.000 17.750 -252.000
usemtl m_D6D6D6
f 374 378 380 376
usemtl m_D6D6D6
f 373 375 379 377
usemtl m_D6D6D6
f 373 377 378 374
usemtl m_D6D6D6
f 379 375 376 380
usemtl m_D6D6D6
f 375 373 374 376
usemtl m_D6D6D6
f 377 379 380 378
o cutaway_ring_cut_2
v 203.000 0.000 0.000
v 203.000 17.750 0.000
v 203.000 0.000 -239.000
v 203.000 17.750 -239.000
v 210.000 0.000 0.000
v 210.000 17.750 0.000
v 210.000 0.000 -239.000
v 210.000 17.750 -239.000
usemtl m_D6D6D6
f 382 386 388 384
usemtl m_D6D6D6
f 381 383 387 385
usemtl m_D6D6D6
f 381 385 386 382
usemtl m_D6D6D6
f 387 383 384 388
usemtl m_D6D6D6
f 383 381 382 384
usemtl m_D6D6D6
f 385 387 388 386
o cutaway_ring_cut_3
v 56.000 0.000 0.000
v 56.000 17.750 0.000
v 56.000 0.000 -41.000
v 56.000 17.750 -41.000
v 84.000 0.000 0.000
v 84.000 17.750 0.000
v 84.000 0.000 -41.000
v 84.000 17.750 -41.000
usemtl m_D6D6D6
f 390 394 396 392
usemtl m_D6D6D6
f 389 391 395 393
usemtl m_D6D6D6
f 389 393 394 390
usemtl m_D6D6D6
f 395 391 392 396
usemtl m_D6D6D6
f 391 389 390 392
usemtl m_D6D6D6
f 393 395 396 394
o cutaway_ring_cut_4
v 142.000 0.000 0.000
v 142.000 17.750 0.000
v 142.000 0.000 -41.000
v 142.000 17.750 -41.000
v 203.000 0.000 0.000
v 203.000 17.750 0.000
v 203.000 0.000 -41.000
v 203.000 17.750 -41.000
usemtl m_D6D6D6
f 398 402 404 400
usemtl m_D6D6D6
f 397 399 403 401
usemtl m_D6D6D6
f 397 401 402 398
usemtl m_D6D6D6
f 403 399 400 404
usemtl m_D6D6D6
f 399 397 398 400
usemtl m_D6D6D6
f 401 403 404 402
o cutaway_ring_cut_5
v 84.000 0.000 -34.000
v 84.000 17.750 -34.000
v 84.000 0.000 -41.000
v 84.000 17.750 -41.000
v 142.000 0.000 -34.000
v 142.000 17.750 -34.000
v 142.000 0.000 -41.000
v 142.000 17.750 -41.000
usemtl m_D6D6D6
f 406 410 412 408
usemtl m_D6D6D6
f 405 407 411 409
usemtl m_D6D6D6
f 405 409 410 406
usemtl m_D6D6D6
f 411 407 408 412
usemtl m_D6D6D6
f 407 405 406 408
usemtl m_D6D6D6
f 409 411 412 410
o cutaway_ne_stair_tower_cut
v 185.917 0.000 -252.000
v 185.917 17.750 -252.000
v 185.917 0.000 -258.667
v 185.917 17.750 -258.667
v 210.000 0.000 -252.000
v 210.000 17.750 -252.000
v 210.000 0.000 -258.667
v 210.000 17.750 -258.667
usemtl m_D6D6D6
f 414 418 420 416
usemtl m_D6D6D6
f 413 415 419 417
usemtl m_D6D6D6
f 413 417 418 414
usemtl m_D6D6D6
f 419 415 416 420
usemtl m_D6D6D6
f 415 413 414 416
usemtl m_D6D6D6
f 417 419 420 418
o cutaway_lower_N_2_0
v 56.000 0.000 -214.000
v 56.000 0.969 -214.000
v 56.000 0.000 -216.000
v 56.000 0.969 -216.000
v 123.850 0.000 -214.000
v 123.850 0.969 -214.000
v 123.850 0.000 -216.000
v 123.850 0.969 -216.000
usemtl m_B8B8B8
f 422 426 428 424
usemtl m_B8B8B8
f 421 423 427 425
usemtl m_B8B8B8
f 421 425 426 422
usemtl m_B8B8B8
f 427 423 424 428
usemtl m_B8B8B8
f 423 421 422 424
usemtl m_B8B8B8
f 425 427 428 426
o cutaway_lower_N_2_1
v 131.850 0.000 -214.000
v 131.850 0.969 -214.000
v 131.850 0.000 -216.000
v 131.850 0.969 -216.000
v 188.000 0.000 -214.000
v 188.000 0.969 -214.000
v 188.000 0.000 -216.000
v 188.000 0.969 -216.000
usemtl m_B8B8B8
f 430 434 436 432
usemtl m_B8B8B8
f 429 431 435 433
usemtl m_B8B8B8
f 429 433 434 430
usemtl m_B8B8B8
f 435 431 432 436
usemtl m_B8B8B8
f 431 429 430 432
usemtl m_B8B8B8
f 433 435 436 434
o cutaway_lower_N_3_0
v 56.000 0.000 -216.000
v 56.000 1.938 -216.000
v 56.000 0.000 -218.000
v 56.000 1.938 -218.000
v 123.850 0.000 -216.000
v 123.850 1.938 -216.000
v 123.850 0.000 -218.000
v 123.850 1.938 -218.000
usemtl m_B8B8B8
f 438 442 444 440
usemtl m_B8B8B8
f 437 439 443 441
usemtl m_B8B8B8
f 437 441 442 438
usemtl m_B8B8B8
f 443 439 440 444
usemtl m_B8B8B8
f 439 437 438 440
usemtl m_B8B8B8
f 441 443 444 442
o cutaway_lower_N_3_1
v 131.850 0.000 -216.000
v 131.850 1.938 -216.000
v 131.850 0.000 -218.000
v 131.850 1.938 -218.000
v 188.000 0.000 -216.000
v 188.000 1.938 -216.000
v 188.000 0.000 -218.000
v 188.000 1.938 -218.000
usemtl m_B8B8B8
f 446 450 452 448
usemtl m_B8B8B8
f 445 447 451 449
usemtl m_B8B8B8
f 445 449 450 446
usemtl m_B8B8B8
f 451 447 448 452
usemtl m_B8B8B8
f 447 445 446 448
usemtl m_B8B8B8
f 449 451 452 450
o cutaway_lower_N_4_0
v 56.000 0.000 -218.000
v 56.000 2.906 -218.000
v 56.000 0.000 -220.000
v 56.000 2.906 -220.000
v 123.850 0.000 -218.000
v 123.850 2.906 -218.000
v 123.850 0.000 -220.000
v 123.850 2.906 -220.000
usemtl m_B8B8B8
f 454 458 460 456
usemtl m_B8B8B8
f 453 455 459 457
usemtl m_B8B8B8
f 453 457 458 454
usemtl m_B8B8B8
f 459 455 456 460
usemtl m_B8B8B8
f 455 453 454 456
usemtl m_B8B8B8
f 457 459 460 458
o cutaway_lower_N_4_1
v 131.850 0.000 -218.000
v 131.850 2.906 -218.000
v 131.850 0.000 -220.000
v 131.850 2.906 -220.000
v 188.000 0.000 -218.000
v 188.000 2.906 -218.000
v 188.000 0.000 -220.000
v 188.000 2.906 -220.000
usemtl m_B8B8B8
f 462 466 468 464
usemtl m_B8B8B8
f 461 463 467 465
usemtl m_B8B8B8
f 461 465 466 462
usemtl m_B8B8B8
f 467 463 464 468
usemtl m_B8B8B8
f 463 461 462 464
usemtl m_B8B8B8
f 465 467 468 466
o cutaway_lower_N_5_0
v 56.000 0.000 -220.000
v 56.000 3.875 -220.000
v 56.000 0.000 -222.000
v 56.000 3.875 -222.000
v 123.850 0.000 -220.000
v 123.850 3.875 -220.000
v 123.850 0.000 -222.000
v 123.850 3.875 -222.000
usemtl m_B8B8B8
f 470 474 476 472
usemtl m_B8B8B8
f 469 471 475 473
usemtl m_B8B8B8
f 469 473 474 470
usemtl m_B8B8B8
f 475 471 472 476
usemtl m_B8B8B8
f 471 469 470 472
usemtl m_B8B8B8
f 473 475 476 474
o cutaway_lower_N_5_1
v 131.850 0.000 -220.000
v 131.850 3.875 -220.000
v 131.850 0.000 -222.000
v 131.850 3.875 -222.000
v 188.000 0.000 -220.000
v 188.000 3.875 -220.000
v 188.000 0.000 -222.000
v 188.000 3.875 -222.000
usemtl m_B8B8B8
f 478 482 484 480
usemtl m_B8B8B8
f 477 479 483 481
usemtl m_B8B8B8
f 477 481 482 478
usemtl m_B8B8B8
f 483 479 480 484
usemtl m_B8B8B8
f 479 477 478 480
usemtl m_B8B8B8
f 481 483 484 482
o cutaway_lower_N_6_0
v 56.000 0.000 -222.000
v 56.000 4.844 -222.000
v 56.000 0.000 -224.000
v 56.000 4.844 -224.000
v 123.850 0.000 -222.000
v 123.850 4.844 -222.000
v 123.850 0.000 -224.000
v 123.850 4.844 -224.000
usemtl m_B8B8B8
f 486 490 492 488
usemtl m_B8B8B8
f 485 487 491 489
usemtl m_B8B8B8
f 485 489 490 486
usemtl m_B8B8B8
f 491 487 488 492
usemtl m_B8B8B8
f 487 485 486 488
usemtl m_B8B8B8
f 489 491 492 490
o cutaway_lower_N_6_1
v 131.850 0.000 -222.000
v 131.850 4.844 -222.000
v 131.850 0.000 -224.000
v 131.850 4.844 -224.000
v 188.000 0.000 -222.000
v 188.000 4.844 -222.000
v 188.000 0.000 -224.000
v 188.000 4.844 -224.000
usemtl m_B8B8B8
f 494 498 500 496
usemtl m_B8B8B8
f 493 495 499 497
usemtl m_B8B8B8
f 493 497 498 494
usemtl m_B8B8B8
f 499 495 496 500
usemtl m_B8B8B8
f 495 493 494 496
usemtl m_B8B8B8
f 497 499 500 498
o cutaway_lower_S_2_0
v 56.000 0.000 -64.000
v 56.000 0.969 -64.000
v 56.000 0.000 -66.000
v 56.000 0.969 -66.000
v 107.000 0.000 -64.000
v 107.000 0.969 -64.000
v 107.000 0.000 -66.000
v 107.000 0.969 -66.000
usemtl m_B8B8B8
f 502 506 508 504
usemtl m_B8B8B8
f 501 503 507 505
usemtl m_B8B8B8
f 501 505 506 502
usemtl m_B8B8B8
f 507 503 504 508
usemtl m_B8B8B8
f 503 501 502 504
usemtl m_B8B8B8
f 505 507 508 506
o cutaway_lower_S_2_1
v 119.000 0.000 -64.000
v 119.000 0.969 -64.000
v 119.000 0.000 -66.000
v 119.000 0.969 -66.000
v 188.000 0.000 -64.000
v 188.000 0.969 -64.000
v 188.000 0.000 -66.000
v 188.000 0.969 -66.000
usemtl m_B8B8B8
f 510 514 516 512
usemtl m_B8B8B8
f 509 511 515 513
usemtl m_B8B8B8
f 509 513 514 510
usemtl m_B8B8B8
f 515 511 512 516
usemtl m_B8B8B8
f 511 509 510 512
usemtl m_B8B8B8
f 513 515 516 514
o cutaway_lower_S_3_0
v 56.000 0.000 -62.000
v 56.000 1.938 -62.000
v 56.000 0.000 -64.000
v 56.000 1.938 -64.000
v 107.000 0.000 -62.000
v 107.000 1.938 -62.000
v 107.000 0.000 -64.000
v 107.000 1.938 -64.000
usemtl m_B8B8B8
f 518 522 524 520
usemtl m_B8B8B8
f 517 519 523 521
usemtl m_B8B8B8
f 517 521 522 518
usemtl m_B8B8B8
f 523 519 520 524
usemtl m_B8B8B8
f 519 517 518 520
usemtl m_B8B8B8
f 521 523 524 522
o cutaway_lower_S_3_1
v 119.000 0.000 -62.000
v 119.000 1.938 -62.000
v 119.000 0.000 -64.000
v 119.000 1.938 -64.000
v 188.000 0.000 -62.000
v 188.000 1.938 -62.000
v 188.000 0.000 -64.000
v 188.000 1.938 -64.000
usemtl m_B8B8B8
f 526 530 532 528
usemtl m_B8B8B8
f 525 527 531 529
usemtl m_B8B8B8
f 525 529 530 526
usemtl m_B8B8B8
f 531 527 528 532
usemtl m_B8B8B8
f 527 525 526 528
usemtl m_B8B8B8
f 529 531 532 530
o cutaway_lower_S_4_0
v 56.000 0.000 -60.000
v 56.000 2.906 -60.000
v 56.000 0.000 -62.000
v 56.000 2.906 -62.000
v 107.000 0.000 -60.000
v 107.000 2.906 -60.000
v 107.000 0.000 -62.000
v 107.000 2.906 -62.000
usemtl m_B8B8B8
f 534 538 540 536
usemtl m_B8B8B8
f 533 535 539 537
usemtl m_B8B8B8
f 533 537 538 534
usemtl m_B8B8B8
f 539 535 536 540
usemtl m_B8B8B8
f 535 533 534 536
usemtl m_B8B8B8
f 537 539 540 538
o cutaway_lower_S_4_1
v 119.000 0.000 -60.000
v 119.000 2.906 -60.000
v 119.000 0.000 -62.000
v 119.000 2.906 -62.000
v 188.000 0.000 -60.000
v 188.000 2.906 -60.000
v 188.000 0.000 -62.000
v 188.000 2.906 -62.000
usemtl m_B8B8B8
f 542 546 548 544
usemtl m_B8B8B8
f 541 543 547 545
usemtl m_B8B8B8
f 541 545 546 542
usemtl m_B8B8B8
f 547 543 544 548
usemtl m_B8B8B8
f 543 541 542 544
usemtl m_B8B8B8
f 545 547 548 546
o cutaway_lower_S_5_0
v 56.000 0.000 -58.000
v 56.000 3.875 -58.000
v 56.000 0.000 -60.000
v 56.000 3.875 -60.000
v 107.000 0.000 -58.000
v 107.000 3.875 -58.000
v 107.000 0.000 -60.000
v 107.000 3.875 -60.000
usemtl m_B8B8B8
f 550 554 556 552
usemtl m_B8B8B8
f 549 551 555 553
usemtl m_B8B8B8
f 549 553 554 550
usemtl m_B8B8B8
f 555 551 552 556
usemtl m_B8B8B8
f 551 549 550 552
usemtl m_B8B8B8
f 553 555 556 554
o cutaway_lower_S_5_1
v 119.000 0.000 -58.000
v 119.000 3.875 -58.000
v 119.000 0.000 -60.000
v 119.000 3.875 -60.000
v 188.000 0.000 -58.000
v 188.000 3.875 -58.000
v 188.000 0.000 -60.000
v 188.000 3.875 -60.000
usemtl m_B8B8B8
f 558 562 564 560
usemtl m_B8B8B8
f 557 559 563 561
usemtl m_B8B8B8
f 557 561 562 558
usemtl m_B8B8B8
f 563 559 560 564
usemtl m_B8B8B8
f 559 557 558 560
usemtl m_B8B8B8
f 561 563 564 562
o cutaway_lower_S_6_0
v 56.000 0.000 -56.000
v 56.000 4.844 -56.000
v 56.000 0.000 -58.000
v 56.000 4.844 -58.000
v 107.000 0.000 -56.000
v 107.000 4.844 -56.000
v 107.000 0.000 -58.000
v 107.000 4.844 -58.000
usemtl m_B8B8B8
f 566 570 572 568
usemtl m_B8B8B8
f 565 567 571 569
usemtl m_B8B8B8
f 565 569 570 566
usemtl m_B8B8B8
f 571 567 568 572
usemtl m_B8B8B8
f 567 565 566 568
usemtl m_B8B8B8
f 569 571 572 570
o cutaway_lower_S_6_1
v 119.000 0.000 -56.000
v 119.000 4.844 -56.000
v 119.000 0.000 -58.000
v 119.000 4.844 -58.000
v 188.000 0.000 -56.000
v 188.000 4.844 -56.000
v 188.000 0.000 -58.000
v 188.000 4.844 -58.000
usemtl m_B8B8B8
f 574 578 580 576
usemtl m_B8B8B8
f 573 575 579 577
usemtl m_B8B8B8
f 573 577 578 574
usemtl m_B8B8B8
f 579 575 576 580
usemtl m_B8B8B8
f 575 573 574 576
usemtl m_B8B8B8
f 577 579 580 578
o cutaway_lower_E_2_0
v 178.000 0.000 -68.000
v 178.000 0.969 -68.000
v 178.000 0.000 -175.090
v 178.000 0.969 -175.090
v 180.000 0.000 -68.000
v 180.000 0.969 -68.000
v 180.000 0.000 -175.090
v 180.000 0.969 -175.090
usemtl m_B8B8B8
f 582 586 588 584
usemtl m_B8B8B8
f 581 583 587 585
usemtl m_B8B8B8
f 581 585 586 582
usemtl m_B8B8B8
f 587 583 584 588
usemtl m_B8B8B8
f 583 581 582 584
usemtl m_B8B8B8
f 585 587 588 586
o cutaway_lower_E_2_1
v 178.000 0.000 -183.090
v 178.000 0.969 -183.090
v 178.000 0.000 -212.000
v 178.000 0.969 -212.000
v 180.000 0.000 -183.090
v 180.000 0.969 -183.090
v 180.000 0.000 -212.000
v 180.000 0.969 -212.000
usemtl m_B8B8B8
f 590 594 596 592
usemtl m_B8B8B8
f 589 591 595 593
usemtl m_B8B8B8
f 589 593 594 590
usemtl m_B8B8B8
f 595 591 592 596
usemtl m_B8B8B8
f 591 589 590 592
usemtl m_B8B8B8
f 593 595 596 594
o cutaway_lower_E_3_0
v 180.000 0.000 -68.000
v 180.000 1.938 -68.000
v 180.000 0.000 -175.090
v 180.000 1.938 -175.090
v 182.000 0.000 -68.000
v 182.000 1.938 -68.000
v 182.000 0.000 -175.090
v 182.000 1.938 -175.090
usemtl m_B8B8B8
f 598 602 604 600
usemtl m_B8B8B8
f 597 599 603 601
usemtl m_B8B8B8
f 597 601 602 598
usemtl m_B8B8B8
f 603 599 600 604
usemtl m_B8B8B8
f 599 597 598 600
usemtl m_B8B8B8
f 601 603 604 602
o cutaway_lower_E_3_1
v 180.000 0.000 -183.090
v 180.000 1.938 -183.090
v 180.000 0.000 -212.000
v 180.000 1.938 -212.000
v 182.000 0.000 -183.090
v 182.000 1.938 -183.090
v 182.000 0.000 -212.000
v 182.000 1.938 -212.000
usemtl m_B8B8B8
f 606 610 612 608
usemtl m_B8B8B8
f 605 607 611 609
usemtl m_B8B8B8
f 605 609 610 606
usemtl m_B8B8B8
f 611 607 608 612
usemtl m_B8B8B8
f 607 605 606 608
usemtl m_B8B8B8
f 609 611 612 610
o cutaway_lower_E_4_0
v 182.000 0.000 -68.000
v 182.000 2.906 -68.000
v 182.000 0.000 -175.090
v 182.000 2.906 -175.090
v 184.000 0.000 -68.000
v 184.000 2.906 -68.000
v 184.000 0.000 -175.090
v 184.000 2.906 -175.090
usemtl m_B8B8B8
f 614 618 620 616
usemtl m_B8B8B8
f 613 615 619 617
usemtl m_B8B8B8
f 613 617 618 614
usemtl m_B8B8B8
f 619 615 616 620
usemtl m_B8B8B8
f 615 613 614 616
usemtl m_B8B8B8
f 617 619 620 618
o cutaway_lower_E_4_1
v 182.000 0.000 -183.090
v 182.000 2.906 -183.090
v 182.000 0.000 -212.000
v 182.000 2.906 -212.000
v 184.000 0.000 -183.090
v 184.000 2.906 -183.090
v 184.000 0.000 -212.000
v 184.000 2.906 -212.000
usemtl m_B8B8B8
f 622 626 628 624
usemtl m_B8B8B8
f 621 623 627 625
usemtl m_B8B8B8
f 621 625 626 622
usemtl m_B8B8B8
f 627 623 624 628
usemtl m_B8B8B8
f 623 621 622 624
usemtl m_B8B8B8
f 625 627 628 626
o cutaway_lower_E_5_0
v 184.000 0.000 -68.000
v 184.000 3.875 -68.000
v 184.000 0.000 -175.090
v 184.000 3.875 -175.090
v 186.000 0.000 -68.000
v 186.000 3.875 -68.000
v 186.000 0.000 -175.090
v 186.000 3.875 -175.090
usemtl m_B8B8B8
f 630 634 636 632
usemtl m_B8B8B8
f 629 631 635 633
usemtl m_B8B8B8
f 629 633 634 630
usemtl m_B8B8B8
f 635 631 632 636
usemtl m_B8B8B8
f 631 629 630 632
usemtl m_B8B8B8
f 633 635 636 634
o cutaway_lower_E_5_1
v 184.000 0.000 -183.090
v 184.000 3.875 -183.090
v 184.000 0.000 -212.000
v 184.000 3.875 -212.000
v 186.000 0.000 -183.090
v 186.000 3.875 -183.090
v 186.000 0.000 -212.000
v 186.000 3.875 -212.000
usemtl m_B8B8B8
f 638 642 644 640
usemtl m_B8B8B8
f 637 639 643 641
usemtl m_B8B8B8
f 637 641 642 638
usemtl m_B8B8B8
f 643 639 640 644
usemtl m_B8B8B8
f 639 637 638 640
usemtl m_B8B8B8
f 641 643 644 642
o cutaway_lower_E_6_0
v 186.000 0.000 -68.000
v 186.000 4.844 -68.000
v 186.000 0.000 -175.090
v 186.000 4.844 -175.090
v 188.000 0.000 -68.000
v 188.000 4.844 -68.000
v 188.000 0.000 -175.090
v 188.000 4.844 -175.090
usemtl m_B8B8B8
f 646 650 652 648
usemtl m_B8B8B8
f 645 647 651 649
usemtl m_B8B8B8
f 645 649 650 646
usemtl m_B8B8B8
f 651 647 648 652
usemtl m_B8B8B8
f 647 645 646 648
usemtl m_B8B8B8
f 649 651 652 650
o cutaway_lower_E_6_1
v 186.000 0.000 -183.090
v 186.000 4.844 -183.090
v 186.000 0.000 -212.000
v 186.000 4.844 -212.000
v 188.000 0.000 -183.090
v 188.000 4.844 -183.090
v 188.000 0.000 -212.000
v 188.000 4.844 -212.000
usemtl m_B8B8B8
f 654 658 660 656
usemtl m_B8B8B8
f 653 655 659 657
usemtl m_B8B8B8
f 653 657 658 654
usemtl m_B8B8B8
f 659 655 656 660
usemtl m_B8B8B8
f 655 653 654 656
usemtl m_B8B8B8
f 657 659 660 658
o cutaway_upper_N_1
v 56.000 0.000 -224.000
v 56.000 9.000 -224.000
v 56.000 0.000 -227.000
v 56.000 9.000 -227.000
v 188.000 0.000 -224.000
v 188.000 9.000 -224.000
v 188.000 0.000 -227.000
v 188.000 9.000 -227.000
usemtl m_9C9C9C
f 662 666 668 664
usemtl m_9C9C9C
f 661 663 667 665
usemtl m_9C9C9C
f 661 665 666 662
usemtl m_9C9C9C
f 667 663 664 668
usemtl m_9C9C9C
f 663 661 662 664
usemtl m_9C9C9C
f 665 667 668 666
o cutaway_upper_N_2
v 56.000 0.000 -227.000
v 56.000 10.750 -227.000
v 56.000 0.000 -230.000
v 56.000 10.750 -230.000
v 188.000 0.000 -227.000
v 188.000 10.750 -227.000
v 188.000 0.000 -230.000
v 188.000 10.750 -230.000
usemtl m_9C9C9C
f 670 674 676 672
usemtl m_9C9C9C
f 669 671 675 673
usemtl m_9C9C9C
f 669 673 674 670
usemtl m_9C9C9C
f 675 671 672 676
usemtl m_9C9C9C
f 671 669 670 672
usemtl m_9C9C9C
f 673 675 676 674
o cutaway_upper_N_3
v 56.000 0.000 -230.000
v 56.000 12.500 -230.000
v 56.000 0.000 -233.000
v 56.000 12.500 -233.000
v 188.000 0.000 -230.000
v 188.000 12.500 -230.000
v 188.000 0.000 -233.000
v 188.000 12.500 -233.000
usemtl m_9C9C9C
f 678 682 684 680
usemtl m_9C9C9C
f 677 679 683 681
usemtl m_9C9C9C
f 677 681 682 678
usemtl m_9C9C9C
f 683 679 680 684
usemtl m_9C9C9C
f 679 677 678 680
usemtl m_9C9C9C
f 681 683 684 682
o cutaway_upper_N_4
v 56.000 0.000 -233.000
v 56.000 14.250 -233.000
v 56.000 0.000 -236.000
v 56.000 14.250 -236.000
v 188.000 0.000 -233.000
v 188.000 14.250 -233.000
v 188.000 0.000 -236.000
v 188.000 14.250 -236.000
usemtl m_9C9C9C
f 686 690 692 688
usemtl m_9C9C9C
f 685 687 691 689
usemtl m_9C9C9C
f 685 689 690 686
usemtl m_9C9C9C
f 691 687 688 692
usemtl m_9C9C9C
f 687 685 686 688
usemtl m_9C9C9C
f 689 691 692 690
o cutaway_upper_N_5
v 56.000 0.000 -236.000
v 56.000 16.000 -236.000
v 56.000 0.000 -239.000
v 56.000 16.000 -239.000
v 188.000 0.000 -236.000
v 188.000 16.000 -236.000
v 188.000 0.000 -239.000
v 188.000 16.000 -239.000
usemtl m_9C9C9C
f 694 698 700 696
usemtl m_9C9C9C
f 693 695 699 697
usemtl m_9C9C9C
f 693 697 698 694
usemtl m_9C9C9C
f 699 695 696 700
usemtl m_9C9C9C
f 695 693 694 696
usemtl m_9C9C9C
f 697 699 700 698
o cutaway_upper_S_1
v 56.000 0.000 -53.000
v 56.000 9.000 -53.000
v 56.000 0.000 -56.000
v 56.000 9.000 -56.000
v 188.000 0.000 -53.000
v 188.000 9.000 -53.000
v 188.000 0.000 -56.000
v 188.000 9.000 -56.000
usemtl m_9C9C9C
f 702 706 708 704
usemtl m_9C9C9C
f 701 703 707 705
usemtl m_9C9C9C
f 701 705 706 702
usemtl m_9C9C9C
f 707 703 704 708
usemtl m_9C9C9C
f 703 701 702 704
usemtl m_9C9C9C
f 705 707 708 706
o cutaway_upper_S_2
v 56.000 0.000 -50.000
v 56.000 10.750 -50.000
v 56.000 0.000 -53.000
v 56.000 10.750 -53.000
v 188.000 0.000 -50.000
v 188.000 10.750 -50.000
v 188.000 0.000 -53.000
v 188.000 10.750 -53.000
usemtl m_9C9C9C
f 710 714 716 712
usemtl m_9C9C9C
f 709 711 715 713
usemtl m_9C9C9C
f 709 713 714 710
usemtl m_9C9C9C
f 715 711 712 716
usemtl m_9C9C9C
f 711 709 710 712
usemtl m_9C9C9C
f 713 715 716 714
o cutaway_upper_S_3
v 56.000 0.000 -47.000
v 56.000 12.500 -47.000
v 56.000 0.000 -50.000
v 56.000 12.500 -50.000
v 188.000 0.000 -47.000
v 188.000 12.500 -47.000
v 188.000 0.000 -50.000
v 188.000 12.500 -50.000
usemtl m_9C9C9C
f 718 722 724 720
usemtl m_9C9C9C
f 717 719 723 721
usemtl m_9C9C9C
f 717 721 722 718
usemtl m_9C9C9C
f 723 719 720 724
usemtl m_9C9C9C
f 719 717 718 720
usemtl m_9C9C9C
f 721 723 724 722
o cutaway_upper_S_4
v 56.000 0.000 -44.000
v 56.000 14.250 -44.000
v 56.000 0.000 -47.000
v 56.000 14.250 -47.000
v 188.000 0.000 -44.000
v 188.000 14.250 -44.000
v 188.000 0.000 -47.000
v 188.000 14.250 -47.000
usemtl m_9C9C9C
f 726 730 732 728
usemtl m_9C9C9C
f 725 727 731 729
usemtl m_9C9C9C
f 725 729 730 726
usemtl m_9C9C9C
f 731 727 728 732
usemtl m_9C9C9C
f 727 725 726 728
usemtl m_9C9C9C
f 729 731 732 730
o cutaway_upper_S_5
v 56.000 0.000 -41.000
v 56.000 16.000 -41.000
v 56.000 0.000 -44.000
v 56.000 16.000 -44.000
v 188.000 0.000 -41.000
v 188.000 16.000 -41.000
v 188.000 0.000 -44.000
v 188.000 16.000 -44.000
usemtl m_9C9C9C
f 734 738 740 736
usemtl m_9C9C9C
f 733 735 739 737
usemtl m_9C9C9C
f 733 737 738 734
usemtl m_9C9C9C
f 739 735 736 740
usemtl m_9C9C9C
f 735 733 734 736
usemtl m_9C9C9C
f 737 739 740 738
o cutaway_upper_E_1
v 188.000 0.000 -41.000
v 188.000 9.000 -41.000
v 188.000 0.000 -239.000
v 188.000 9.000 -239.000
v 191.000 0.000 -41.000
v 191.000 9.000 -41.000
v 191.000 0.000 -239.000
v 191.000 9.000 -239.000
usemtl m_9C9C9C
f 742 746 748 744
usemtl m_9C9C9C
f 741 743 747 745
usemtl m_9C9C9C
f 741 745 746 742
usemtl m_9C9C9C
f 747 743 744 748
usemtl m_9C9C9C
f 743 741 742 744
usemtl m_9C9C9C
f 745 747 748 746
o cutaway_upper_E_2
v 191.000 0.000 -41.000
v 191.000 10.750 -41.000
v 191.000 0.000 -239.000
v 191.000 10.750 -239.000
v 194.000 0.000 -41.000
v 194.000 10.750 -41.000
v 194.000 0.000 -239.000
v 194.000 10.750 -239.000
usemtl m_9C9C9C
f 750 754 756 752
usemtl m_9C9C9C
f 749 751 755 753
usemtl m_9C9C9C
f 749 753 754 750
usemtl m_9C9C9C
f 755 751 752 756
usemtl m_9C9C9C
f 751 749 750 752
usemtl m_9C9C9C
f 753 755 756 754
o cutaway_upper_E_3
v 194.000 0.000 -41.000
v 194.000 12.500 -41.000
v 194.000 0.000 -239.000
v 194.000 12.500 -239.000
v 197.000 0.000 -41.000
v 197.000 12.500 -41.000
v 197.000 0.000 -239.000
v 197.000 12.500 -239.000
usemtl m_9C9C9C
f 758 762 764 760
usemtl m_9C9C9C
f 757 759 763 761
usemtl m_9C9C9C
f 757 761 762 758
usemtl m_9C9C9C
f 763 759 760 764
usemtl m_9C9C9C
f 759 757 758 760
usemtl m_9C9C9C
f 761 763 764 762
o cutaway_upper_E_4
v 197.000 0.000 -41.000
v 197.000 14.250 -41.000
v 197.000 0.000 -239.000
v 197.000 14.250 -239.000
v 200.000 0.000 -41.000
v 200.000 14.250 -41.000
v 200.000 0.000 -239.000
v 200.000 14.250 -239.000
usemtl m_9C9C9C
f 766 770 772 768
usemtl m_9C9C9C
f 765 767 771 769
usemtl m_9C9C9C
f 765 769 770 766
usemtl m_9C9C9C
f 771 767 768 772
usemtl m_9C9C9C
f 767 765 766 768
usemtl m_9C9C9C
f 769 771 772 770
o cutaway_upper_E_5
v 200.000 0.000 -41.000
v 200.000 16.000 -41.000
v 200.000 0.000 -239.000
v 200.000 16.000 -239.000
v 203.000 0.000 -41.000
v 203.000 16.000 -41.000
v 203.000 0.000 -239.000
v 203.000 16.000 -239.000
usemtl m_9C9C9C
f 774 778 780 776
usemtl m_9C9C9C
f 773 775 779 777
usemtl m_9C9C9C
f 773 777 778 774
usemtl m_9C9C9C
f 779 775 776 780
usemtl m_9C9C9C
f 775 773 774 776
usemtl m_9C9C9C
f 777 779 780 778
o cutaway_ground_band_0
v 93.000 0.000 0.000
v 99.000 0.000 0.000
v 99.000 0.000 30.000
v 91.000 0.000 30.000
v 91.000 0.000 36.000
v 99.000 0.000 36.000
v 99.000 0.000 42.000
v 85.000 0.000 42.000
v 85.000 0.000 24.000
v 93.000 0.000 24.000
usemtl m_D9B79A
f 781 782 783 784 785 786 787 788 789 790
o cutaway_ground_band_1
v 133.000 0.000 24.000
v 141.000 0.000 24.000
v 141.000 0.000 42.000
v 127.000 0.000 42.000
v 127.000 0.000 36.000
v 135.000 0.000 36.000
v 135.000 0.000 30.000
v 127.000 0.000 30.000
v 127.000 0.000 0.000
v 133.000 0.000 0.000
usemtl m_D9B79A
f 791 792 793 794 795 796 797 798 799 800
o cutaway_ground_walk_2
v 99.000 0.000 30.000
v 127.000 0.000 30.000
v 127.000 0.000 0.000
v 99.000 0.000 0.000
usemtl m_B5654A
f 801 802 803 804
o cutaway_ground_lobby_3
v 84.000 0.000 0.000
v 142.000 0.000 0.000
v 142.000 0.000 -34.000
v 84.000 0.000 -34.000
usemtl m_EFEFEF
f 805 806 807 808
o cutaway_ground_screening_4
v 123.000 0.000 -24.000
v 142.000 0.000 -24.000
v 142.000 0.000 -34.000
v 123.000 0.000 -34.000
usemtl m_CFE3D2
f 809 810 811 812
o cutaway_ground_arena_floor_5
v 56.000 0.000 -56.000
v 188.000 0.000 -56.000
v 188.000 0.000 -224.000
v 56.000 0.000 -224.000
usemtl m_F2EBDD
f 813 814 815 816
o cutaway_ground_mat_6
v 66.000 0.000 -145.000
v 108.000 0.000 -145.000
v 108.000 0.000 -187.000
v 66.000 0.000 -187.000
usemtl m_E9D3A6
f 817 818 819 820
o cutaway_ground_mat_7
v 118.000 0.000 -145.000
v 160.000 0.000 -145.000
v 160.000 0.000 -187.000
v 118.000 0.000 -187.000
usemtl m_E9D3A6
f 821 822 823 824
o cutaway_ground_mat_8
v 66.000 0.000 -93.000
v 108.000 0.000 -93.000
v 108.000 0.000 -135.000
v 66.000 0.000 -135.000
usemtl m_E9D3A6
f 825 826 827 828
o cutaway_ground_mat_9
v 118.000 0.000 -93.000
v 160.000 0.000 -93.000
v 160.000 0.000 -135.000
v 118.000 0.000 -135.000
usemtl m_E9D3A6
f 829 830 831 832
